<?xml version="1.0" encoding="utf-8"?>
<!-- Generator: Adobe Illustrator 23.0.1, SVG Export Plug-In . SVG Version: 6.00 Build 0)  -->
<svg version="1.1" id="Livello_1" xmlns="http://www.w3.org/2000/svg" xmlns:xlink="http://www.w3.org/1999/xlink" x="0px" y="0px"
	 viewBox="0 0 136.6 44.9" style="enable-background:new 0 0 136.6 44.9;" xml:space="preserve">
<style type="text/css">
	.st0{clip-path:url(#SVGID_2_);fill:#FFFFFF;}
	.st1{fill:#FFFFFF;}
</style>
<g>
	<g>
		<defs>
			<rect id="SVGID_1_" x="6.5" y="6.3" width="119.6" height="32.9"/>
		</defs>
		<clipPath id="SVGID_2_">
			<use xlink:href="#SVGID_1_"  style="overflow:visible;"/>
		</clipPath>
		<path class="st0" d="M27,37.8l0.4-5.5c0-0.4-0.3-0.7-0.7-0.7c-0.3,0-0.6,0.2-0.6,0.5c-1,5.1-2.8,5.5-7.6,5.5h-3.8
			c-0.4,0-0.7-0.3-0.7-0.7v-9.7c0-0.4,0.3-0.7,0.7-0.7c3,0.1,4.4,0.7,4.7,3.9c0,0.3,0.3,0.6,0.6,0.6c0.3,0,0.6-0.3,0.6-0.6v-8.4
			c0-0.3-0.3-0.6-0.6-0.6c-0.3,0-0.5,0.2-0.6,0.5c-0.5,3.2-1.6,3.4-4.7,3.4c-0.4,0-0.7-0.3-0.7-0.7v-9c0-0.4,0.3-0.7,0.7-0.7h4.2
			c3.5,0,5.7,0.8,6.4,4.7c0.1,0.3,0.3,0.5,0.6,0.5c0.3,0,0.6-0.3,0.6-0.6v-4.7c0-0.5-0.4-1-1-1H7.1c-0.3,0-0.6,0.2-0.6,0.6
			c0,0.3,0.2,0.6,0.6,0.6h2.1c0.4,0,0.7,0.3,0.7,0.7v21.3c0,0.4-0.3,0.7-0.7,0.7H7.1c-0.3,0-0.6,0.2-0.6,0.6c0,0.3,0.2,0.6,0.6,0.6
			l19,0C26.6,38.7,27,38.3,27,37.8 M40.7,25.7c0-1.4-1-2.2-2.5-2.2c-2.3,0-3.7,2-4.2,2.9l0.1,0.1l-0.3-0.1v-2.2
			c0-0.3-0.2-0.6-0.6-0.6l-0.1,0c-1.3,0.2-2.6,0.3-3.8,0.3h-0.8c-0.3,0-0.6,0.2-0.6,0.6c0,0.3,0.2,0.6,0.6,0.6h1.4
			c0.4,0,0.7,0.3,0.7,0.7v11.3c0,0.4-0.3,0.7-0.7,0.7h-1.4c-0.3,0-0.6,0.2-0.6,0.6c0,0.3,0.2,0.6,0.6,0.6h7.8c0.3,0,0.6-0.2,0.6-0.6
			c0-0.3-0.3-0.6-0.6-0.6h-1.7c-0.4,0-0.7-0.3-0.7-0.7v-6.2c0-1.3,0.3-2.7,1-3.9c0.8-1.6,2.1-2.1,2.1-2.1c0.2,0,0.2,0,0.2,0.1
			c0,0,0,0.1-0.1,0.2c0,0.2-0.1,0.4-0.1,0.5c0,0.8,0.8,1.6,1.6,1.6C39.6,27.2,40.7,26.6,40.7,25.7 M48.9,37.6h-1
			c-0.4,0-0.7-0.3-0.7-0.7l0-12.8c0-0.3-0.3-0.5-0.7-0.5c-1.3,0.2-2.6,0.3-3.8,0.3h-0.9c-0.3,0-0.6,0.2-0.6,0.6s0.3,0.6,0.6,0.6h1.3
			c0.4,0,0.7,0.3,0.7,0.6l0,11.4c-0.1,0.3-0.4,0.6-0.7,0.6h-1.3c-0.3,0-0.6,0.2-0.6,0.6c0,0.3,0.3,0.6,0.6,0.6h7.1
			c0.3,0,0.6-0.2,0.6-0.6C49.5,37.9,49.2,37.6,48.9,37.6 M62.9,27.5c0-3-3.7-4.1-6.2-4.1c-2,0-7.9,1.5-7.9,8.3c0,2.1,1.4,7.4,8,7.4
			h0h0c4.2-0.2,5.6-2.5,6.4-4.6c0-0.1,0-0.1,0-0.2c0-0.3-0.2-0.5-0.5-0.5c-0.2,0-0.4,0.1-0.5,0.3c-0.9,2.4-2.9,4-4.9,4l-0.2,0
			c-1.9-0.1-3.1-0.8-3.7-2c0-0.1-0.8-1.8-0.8-4.4c0-5.3,1.2-7.3,4.6-7.3c0.9,0,3.2,0.4,3.2,1.3c0,0.1-0.1,0.2-0.3,0.3
			c-0.4,0.3-0.9,0.7-0.9,1.7c0,1.1,0.8,1.9,2,1.9C62.2,29.6,62.9,28.6,62.9,27.5 M80.1,38.2c0-0.3-0.3-0.6-0.6-0.6h-0.8
			c-0.2,0-0.4-0.1-0.5-0.2l-6.8-7.9c0-0.1-0.1-0.1-0.1-0.2c0-0.1,0-0.2,0.1-0.2l4.8-4c0.1-0.1,0.3-0.2,0.4-0.2h1.6
			c0.3,0,0.6-0.2,0.6-0.6c0-0.3-0.2-0.6-0.6-0.6h-5.5c-0.3,0-0.6,0.2-0.6,0.6c0,0.3,0.2,0.6,0.6,0.6h1.4c0,0,0.1,0,0,0.2l-5.8,4.8
			c-0.1,0.1-0.1,0.2-0.2,0.4V13.3c0-0.3-0.2-0.6-0.6-0.6h0c-1.1,0.2-2.3,0.2-3.8,0.2h-0.3c-0.3,0-0.6,0.2-0.6,0.6
			c0,0.3,0.2,0.6,0.6,0.6h0.8c0.4,0,0.7,0.3,0.7,0.7v22.1c0,0.4-0.3,0.7-0.7,0.7h-0.7c-0.3,0-0.6,0.2-0.6,0.6c0,0.3,0.2,0.6,0.6,0.6
			h6.5c0.3,0,0.6-0.2,0.6-0.6c0-0.3-0.2-0.6-0.6-0.6h-1.1c-0.4,0-0.7-0.3-0.7-0.7v-6.5c0,0.1,0,0.2,0.1,0.3l5.8,6.8l0,0l0.1,0.1
			c0,0,0,0.1-0.1,0.1h-1c-0.3,0-0.6,0.2-0.6,0.6c0,0.3,0.2,0.6,0.6,0.6h6.5C79.8,38.7,80.1,38.5,80.1,38.2 M93.1,34
			c0-2.5-1.2-3.8-4.1-4.3c-5.9-1.1-6.1-1.7-6.1-2.6c0-0.2,0.1-0.8,0.6-1.4c0.6-0.8,1.5-1.1,2.8-1.1l0.1,0c2,0.1,3.3,1.2,4,3.3
			c0.1,0.3,0.3,0.4,0.6,0.4c0.3,0,0.6-0.3,0.6-0.6v-3.2c0-0.5-0.7-0.7-1-0.3L90,24.7c-1.2-0.9-2.3-1.3-3.5-1.3
			c-4.2,0-5.4,2.9-5.4,4.7c0,3.2,2.1,3.6,4.5,4.2l0.4,0.1c3,0.7,5.2,1.4,5.2,2.8c0,1.8-1.9,3-3.6,3c-2.5,0-4.4-1.5-5.3-4.2
			c-0.1-0.3-0.3-0.5-0.6-0.5c-0.4,0-0.6,0.3-0.6,0.6l0,3.8c0,0.4,0.3,0.7,0.7,0.7c0.2,0,0.5-0.1,0.6-0.3l0.5-0.8l-0.1-0.1l0.2,0.1
			c1.1,1,2.7,1.7,4.4,1.7C90.8,39.2,93.1,37.1,93.1,34 M105.3,31.3c0,3.1,0,6.9-3.8,6.9c-3.8,0-3.8-3.8-3.8-6.9c0-2.9,0-6.8,3.8-6.8
			C105.3,24.5,105.3,28.4,105.3,31.3 M109.1,31.3c0-4.4-3.3-7.8-7.6-7.8c-4.3,0-7.6,3.4-7.6,7.8c0,4.4,3.3,7.9,7.6,7.9
			C105.7,39.2,109.1,35.7,109.1,31.3 M126.1,38.2c0-0.3-0.2-0.6-0.6-0.6h-0.8c-0.4,0-0.7-0.3-0.7-0.7v-9.6c0-3.3-3-3.8-4.7-3.8
			c-2.3,0-4,1.1-5.3,3.4c0,0-0.1,0-0.1-0.1v-2.7c0-0.3-0.2-0.5-0.6-0.5c0,0,0,0,0,0c-0.6,0.1-1.1,0.2-1.7,0.2
			c-0.7,0.1-1.4,0.1-2.2,0.1H109c-0.3,0-0.6,0.2-0.6,0.6c0,0.3,0.2,0.6,0.6,0.6h0.9c0.4,0,0.7,0.3,0.7,0.7v11.2
			c0,0.4-0.3,0.7-0.7,0.7H109c-0.3,0-0.6,0.2-0.6,0.6c0,0.3,0.2,0.6,0.6,0.6h6.4c0.3,0,0.6-0.2,0.6-0.6c0-0.3-0.2-0.6-0.6-0.6h-0.8
			c-0.4,0-0.7-0.3-0.7-0.7v-6c0-2.8,2-6.1,4.5-6.1c1.4,0,2.3,0.2,2.3,3v9.2c0,0.4-0.3,0.7-0.7,0.7h-0.7c-0.3,0-0.6,0.2-0.6,0.6
			c0,0.3,0.2,0.6,0.6,0.6h6.3C125.8,38.7,126.1,38.5,126.1,38.2"/>
	</g>
	<rect x="39.1" y="6.3" class="st1" width="12.9" height="12.9"/>
</g>
</svg>
