<?xml version="1.0" encoding="utf-8"?>
<!-- Generator: Adobe Illustrator 23.0.2, SVG Export Plug-In . SVG Version: 6.00 Build 0)  -->
<svg version="1.1" id="Livello_1" xmlns="http://www.w3.org/2000/svg" xmlns:xlink="http://www.w3.org/1999/xlink" x="0px" y="0px"
	 viewBox="0 0 66.4 96.4" style="enable-background:new 0 0 66.4 96.4;" xml:space="preserve">
<style type="text/css">
	.st0{fill:#BABCBC;}
</style>
<g>
	<polygon class="st0" points="27.4,22.3 29.1,22.3 28.3,19.8 	"/>
	<path class="st0" d="M50.7,7.7c0-1.3-0.7-1.9-2-1.9h-0.8v3.8h0.8C49.9,9.6,50.7,9,50.7,7.7z"/>
	<polygon class="st0" points="46,22.3 47.7,22.3 46.8,19.8 	"/>
	<path class="st0" d="M59,19.7c-1.1,0-1.8,0.8-1.8,2c0,1.2,0.7,2,1.8,2c1.1,0,1.8-0.8,1.8-2C60.8,20.5,60.1,19.7,59,19.7z"/>
	<path class="st0" d="M22.4,0C22.4,0,0,78.6,0,90.7C0,116.9,66.4,44,66.4,44V0H22.4z"/>
</g>
</svg>
