<?xml version="1.0" encoding="utf-8"?>
<!-- Generator: Adobe Illustrator 23.0.2, SVG Export Plug-In . SVG Version: 6.00 Build 0)  -->
<svg version="1.1" id="Livello_1" xmlns="http://www.w3.org/2000/svg" xmlns:xlink="http://www.w3.org/1999/xlink" x="0px" y="0px"
	 viewBox="0 0 68.9 55.5" style="enable-background:new 0 0 68.9 55.5;" xml:space="preserve">
<style type="text/css">
	.st0{fill:#BABCBC;}
</style>
<g>
	<polygon class="st0" points="48.5,22.3 50.2,22.3 49.3,19.8 	"/>
	<path class="st0" d="M24.9,0c0,0-42.5,55.5-16.3,55.5C20.7,55.5,68.9,44,68.9,44V0H24.9z"/>
	<path class="st0" d="M61.5,19.7c-1.1,0-1.8,0.8-1.8,2c0,1.2,0.7,2,1.8,2c1.1,0,1.8-0.8,1.8-2C63.3,20.5,62.6,19.7,61.5,19.7z"/>
	<path class="st0" d="M53.2,7.7c0-1.3-0.7-1.9-2-1.9h-0.8v3.8h0.8C52.4,9.6,53.2,9,53.2,7.7z"/>
	<polygon class="st0" points="29.9,22.3 31.6,22.3 30.8,19.8 	"/>
</g>
</svg>
