<?xml version="1.0" encoding="utf-8"?>
<!-- Generator: Adobe Illustrator 23.0.2, SVG Export Plug-In . SVG Version: 6.00 Build 0)  -->
<svg version="1.1" id="Livello_1" xmlns="http://www.w3.org/2000/svg" xmlns:xlink="http://www.w3.org/1999/xlink" x="0px" y="0px"
	 viewBox="0 0 53.3 54.4" style="enable-background:new 0 0 53.3 54.4;" xml:space="preserve">
<style type="text/css">
	.st0{fill:#BABCBC;}
</style>
<g>
	<path class="st0" d="M46,19.8c-1.1,0-1.8,0.8-1.8,2c0,1.2,0.7,2,1.8,2c1.1,0,1.8-0.8,1.8-2C47.8,20.6,47.1,19.8,46,19.8z"/>
	<polygon class="st0" points="14.4,22.4 16.1,22.4 15.3,19.9 	"/>
	<polygon class="st0" points="33,22.4 34.7,22.4 33.8,19.9 	"/>
	<path class="st0" d="M9.3,0c0,0-26.4,54.4,9.6,54.4C32.6,54.4,53.3,44,53.3,44V0H9.3z"/>
	<path class="st0" d="M37.6,7.8c0-1.3-0.7-1.9-2-1.9h-0.8v3.8h0.8C36.9,9.7,37.6,9.1,37.6,7.8z"/>
</g>
</svg>
