<?xml version="1.0" standalone="no"?>
<!DOCTYPE svg PUBLIC "-//W3C//DTD SVG 1.1//EN" "http://www.w3.org/Graphics/SVG/1.1/DTD/svg11.dtd" >
<svg xmlns="http://www.w3.org/2000/svg" xmlns:xlink="http://www.w3.org/1999/xlink" version="1.1">
<metadata></metadata>
<defs>
<font id="freightsans_problack_italic" horiz-adv-x="1024" >
<font-face units-per-em="2048" ascent="1638" descent="-410" />
<missing-glyph horiz-adv-x="466" />
<glyph unicode="&#xfb00;" horiz-adv-x="1540" d="M457 0h-391l129 645l-170 10l12 248l211 45l14 66q18 88 53 160.5t90.5 124t133 79t182.5 27.5q98 0 179 -24.5t134 -57.5l-131 -293q-51 33 -86 45t-74 12q-31 0 -51 -10t-33.5 -25.5t-19.5 -31.5t-8 -29l-10 -51l350 8l18 86q18 88 53 161t90.5 124t133 78.5 t182.5 27.5q98 0 179 -24.5t134 -57.5l-131 -292q-51 33 -86 45t-74 12q-31 0 -51 -10.5t-33.5 -25.5t-19.5 -31.5t-8 -28.5l-15 -72h230l-6 -295h-262l-125 -645h-392l130 645h-336z" />
<glyph unicode="&#xfb01;" horiz-adv-x="1308" d="M1403 1210q0 -100 -61.5 -147t-163.5 -47t-164 47t-62 147t62.5 147.5t165.5 47.5q102 0 162.5 -47.5t60.5 -147.5zM848 1079q-57 29 -111 29q-31 0 -50 -10.5t-29.5 -25.5t-15.5 -31.5t-7 -28.5l-14 -72h198l-6 -295h-231l-125 -645h-391l129 645l-170 10l12 248l211 45 l18 86q18 88 50 161t82.5 124t124 78.5t177.5 27.5q68 0 127.5 -12t108.5 -31zM741 0l181 932l401 47l-190 -979h-392z" />
<glyph unicode="&#xfb02;" horiz-adv-x="1380" d="M907 1051q-51 33 -86 45t-73 12q-31 0 -51.5 -10.5t-34 -25.5t-19.5 -31.5t-8 -28.5l-14 -72h229l-6 -295h-262l-125 -645h-391l129 645l-170 10l12 248l211 45l18 86q18 88 53 161t90.5 124t133.5 78.5t182 27.5q98 0 179 -24.5t134 -57.5zM803 0l264 1360l397 26 l-270 -1386h-391z" />
<glyph unicode="&#xfb03;" horiz-adv-x="2031" d="M2126 1210q0 -100 -61.5 -147t-163.5 -47t-164 47t-62 147t62.5 147.5t165.5 47.5q102 0 162.5 -47.5t60.5 -147.5zM457 0h-391l129 645l-170 10l12 248l211 45l14 66q18 88 53 160.5t90.5 124t133 79t182.5 27.5q98 0 179 -24.5t134 -57.5l-131 -293q-51 33 -86 45 t-74 12q-31 0 -51 -10t-33.5 -25.5t-19.5 -31.5t-8 -29l-10 -51h350l18 94q18 88 50 161t82 124t124 78.5t178 27.5q68 0 127.5 -12t108.5 -31l-88 -303q-57 29 -111 29q-31 0 -50 -10.5t-29.5 -25.5t-15.5 -31.5t-7 -28.5l-15 -72h199l-6 -295h-231l-125 -645h-392l130 645 h-336zM1464 0l181 932l401 47l-191 -979h-391z" />
<glyph unicode="&#xfb04;" horiz-adv-x="2125" d="M457 0h-391l129 645l-170 10l12 248l211 45l14 66q18 88 53 160.5t90.5 124t133 79t182.5 27.5q98 0 179 -24.5t134 -57.5l-131 -293q-51 33 -86 45t-74 12q-31 0 -51 -10t-33.5 -25.5t-19.5 -31.5t-8 -29l-10 -51h352l18 94q18 88 53 161t90.5 124t133.5 78.5t182 27.5 q98 0 179 -24.5t134 -57.5l-131 -292q-51 33 -86 45t-73 12q-31 0 -51.5 -10.5t-34 -25.5t-19.5 -31.5t-8 -28.5l-14 -72h229l-6 -295h-262l-125 -645h-391l129 645h-338zM1528 0l264 1360l397 26l-270 -1386h-391z" />
<glyph horiz-adv-x="0" />
<glyph horiz-adv-x="682" />
<glyph horiz-adv-x="0" />
<glyph horiz-adv-x="0" />
<glyph unicode=" "  horiz-adv-x="466" />
<glyph unicode="&#x09;" horiz-adv-x="466" />
<glyph unicode="&#xa0;" horiz-adv-x="466" />
<glyph unicode="!" horiz-adv-x="653" d="M276 1356l449 -62l-258 -856l-287 49zM481 164q0 -96 -62.5 -145.5t-150.5 -49.5t-150.5 49.5t-62.5 145.5t62.5 145t150.5 49t150.5 -49t62.5 -145z" />
<glyph unicode="&#x22;" horiz-adv-x="1030" d="M565 815l334 506l328 -74l-381 -432h-281zM74 815l334 506l327 -74l-381 -432h-280z" />
<glyph unicode="#" horiz-adv-x="1339" d="M141 707v301h312l143 307h309l-143 -307h264l143 307h310l-144 -307h72v-301h-211l-102 -222h172l-2 -301h-310l-155 -336h-310l156 336h-264l-156 -336h-309l156 336h-74l2 301h211l102 222h-172zM633 727l-123 -262h264l123 262h-264z" />
<glyph unicode="$" horiz-adv-x="1212" d="M887 1497h162l-80 -217q76 -16 136 -35.5t101 -42.5l-71 -344q-66 33 -139.5 58.5t-143.5 41.5l-33 -90q-6 -16 -12 -33.5t-10 -29.5q-6 -16 -11 -29h2q74 -29 137.5 -60.5t109.5 -73.5t73 -95t27 -123q0 -111 -41 -195t-116 -142t-182.5 -88t-240.5 -30q-23 0 -44.5 1 t-43.5 3l-82 -223h-162q23 68 43 121q16 47 30.5 84t14.5 39q-86 16 -158.5 38.5t-119.5 45.5l71 344q78 -41 164 -67.5t160 -43.5l70 193q-63 25 -126 57.5t-113 77.5t-81 106.5t-31 147.5q0 98 40 176t112 131t169 81t212 28q70 0 135 -6zM647 467q-18 -55 -35 -96 q-14 -33 -24 -66q-6 -16 -13 -31h19q98 0 133 27t35 68q0 31 -22.5 54.5t-92.5 43.5zM705 995q-98 6 -140.5 -20.5t-42.5 -65.5q0 -33 23.5 -55.5t91.5 -44.5z" />
<glyph unicode="%" horiz-adv-x="1802" d="M870 1030q0 -92 -28.5 -171t-80.5 -136t-126 -89t-162 -32q-80 0 -146.5 20.5t-114.5 60.5t-74.5 95.5t-26.5 126.5q0 92 29.5 170t82.5 133.5t127 86t164 30.5q160 -2 258 -80t98 -215zM403 -31h-292l1343 1340h293zM1745 383q0 -92 -28.5 -171t-81 -136.5t-126 -89 t-161.5 -31.5q-80 0 -146.5 20.5t-115 60.5t-75 95t-26.5 127q0 92 29.5 170t83 133t127 86t164.5 31q160 -2 258 -80t98 -215zM602 1020q0 57 -24.5 83.5t-65.5 26.5q-33 0 -58.5 -21.5t-42 -53t-25.5 -71.5t-9 -77q0 -57 27.5 -84.5t68.5 -27.5q27 0 50.5 17t41 48 t27.5 72t10 88zM1477 373q0 57 -25 83.5t-66 26.5q-33 0 -58 -21.5t-41.5 -53t-26 -71.5t-9.5 -77q0 -57 28 -85t69 -28q27 0 50 17.5t40.5 48.5t28 72t10.5 88z" />
<glyph unicode="&#x26;" horiz-adv-x="1363" d="M805 184q-94 -104 -198.5 -159.5t-205.5 -55.5q-86 0 -157.5 23.5t-123.5 65.5t-81 100.5t-29 130.5q0 68 26.5 126t72 102t105.5 75t128 43q-78 47 -124 117.5t-46 162.5q0 84 37 158t101.5 128t152.5 85t188 31q80 0 159 -18.5t142.5 -56.5t103.5 -97.5t40 -138.5 q0 -70 -28 -124.5t-72 -91t-100 -56t-112 -21.5q35 -18 74 -47t70 -62l135 207h393l-373 -401l215 -361l-405 -80zM641 793q53 29 90 69.5t37 106.5q0 39 -30.5 69.5t-78.5 34.5q-59 4 -103 -35t-44 -94t38 -88.5t91 -62.5zM721 324q-53 80 -115.5 136t-122.5 87 q-53 -25 -87 -67t-34 -101t47.5 -96t112.5 -37q53 -2 104.5 18.5t94.5 59.5z" />
<glyph unicode="'" horiz-adv-x="538" d="M82 815l334 506l319 -74l-381 -432h-272z" />
<glyph unicode="(" horiz-adv-x="933" d="M727 -551q-117 63 -229.5 164.5t-200.5 235t-141.5 297t-53.5 352.5q0 188 53.5 351t141.5 297t200.5 235.5t229.5 164.5l213 -270q-96 -61 -179 -142t-146.5 -179.5t-99.5 -213t-36 -243.5t36 -244t99.5 -213t146.5 -179t179 -143l-213 -270v0z" />
<glyph unicode=")" horiz-adv-x="933" d="M-4 -281q94 61 178 142.5t147.5 179.5t99.5 213t36 244t-36 243.5t-99.5 213t-147.5 179t-178 142.5l213 270q117 -63 229.5 -164.5t200.5 -235.5t141.5 -297t53.5 -351t-53.5 -352t-141.5 -297.5t-200.5 -234.5t-229.5 -165z" />
<glyph unicode="*" horiz-adv-x="862" d="M211 555l-131 266l332 56l4 22l-291 158l225 227l146 -307l20 6l78 324l268 -123l-252 -242l13 -18l335 43l-59 -303l-297 159l-18 -18l143 -305l-307 -62l59 342l-20 6z" />
<glyph unicode="+" horiz-adv-x="1120" d="M731 346v-348h-325v348h-345l7 301h338v348h325v-348h338l6 -301h-344z" />
<glyph unicode="," horiz-adv-x="630" d="M4 188q16 94 78.5 151.5t165.5 57.5q57 0 104 -22.5t82 -60.5t54.5 -88t19.5 -107q0 -90 -44 -166t-111.5 -134.5t-148.5 -99.5t-155 -65l-141 156q27 10 67.5 32.5t79.5 53t67 66.5t28 71q0 61 -40 93.5t-106 61.5z" />
<glyph unicode="-" horiz-adv-x="827" d="M51 346v301h727v-301h-727z" />
<glyph unicode="." horiz-adv-x="630" d="M479 184q0 -100 -61.5 -157.5t-163.5 -57.5t-163.5 57.5t-61.5 157.5t61.5 157.5t163.5 57.5t163.5 -57.5t61.5 -157.5z" />
<glyph unicode="/" horiz-adv-x="659" d="M55 -408h-344l852 1846h344z" />
<glyph unicode="0" horiz-adv-x="1189" d="M1135 575q0 -133 -38 -244.5t-110 -191.5t-175 -124t-234 -44q-115 0 -211.5 32t-165 90.5t-107.5 142t-39 186.5q0 135 43 243.5t120 186.5t185.5 120t237.5 42q115 0 207 -33t155.5 -91.5t97.5 -138.5t34 -176zM745 575q0 82 -35.5 122t-93.5 40q-47 0 -80.5 -31.5 t-54 -79.5t-30 -105.5t-9.5 -110.5q0 -82 38 -122t98 -40q39 0 70.5 25.5t53 69.5t32.5 103t11 129z" />
<glyph unicode="1" horiz-adv-x="837" d="M338 647l-246 -26l53 309l662 90l-203 -1020h-391z" />
<glyph unicode="2" horiz-adv-x="1069" d="M-10 0l45 264q262 131 407.5 214t145.5 149q0 49 -39 70.5t-111 21.5q-37 0 -76.5 -8.5t-78.5 -19.5t-72 -23.5t-55 -22.5l-33 291q109 43 208 62.5t216 19.5q219 0 345 -81t126 -222q0 -80 -41 -141.5t-107.5 -110.5t-152.5 -88t-174 -72h444l-53 -299z" />
<glyph unicode="3" horiz-adv-x="1060" d="M694 340q45 -14 90 -36.5t80 -57.5t56.5 -83t21.5 -116q0 -92 -41 -171t-114.5 -136t-175 -90t-222.5 -33q-272 0 -481 113l82 286q37 -20 82 -40.5t95 -36t102.5 -25.5t103.5 -10q178 0 178 153q0 59 -49 95t-148 36q-47 0 -87 -2t-64 -6l49 260q76 6 140.5 12.5 t110.5 24t71.5 47t25.5 80.5q0 53 -41 83t-108 30q-96 0 -177 -26.5t-153 -57.5l-33 280q78 39 194.5 72t258.5 33q76 0 157.5 -17.5t150.5 -57.5t113 -103.5t44 -155.5q0 -72 -27 -128t-70 -99t-99.5 -73t-115.5 -44z" />
<glyph unicode="4" horiz-adv-x="1226" d="M899 0l-68 -346h-358l70 346h-506l-47 236l651 753h453l-138 -694h201l-51 -295h-207zM700 702l-346 -417h264z" />
<glyph unicode="5" horiz-adv-x="1050" d="M479 489q129 -4 217 -36.5t141.5 -86t77 -122t23.5 -144.5q0 -96 -40 -183t-116.5 -152.5t-188.5 -104.5t-253 -39q-55 0 -116.5 7t-122 20.5t-117 36t-103.5 53.5l90 280q43 -27 93.5 -47t99.5 -33.5t95 -19.5t83 -6q92 0 145.5 42t53.5 118q0 88 -64.5 128t-197.5 42 q-90 0 -189 -25l-27 45l203 727h774l-51 -305h-452l-58 -195v0z" />
<glyph unicode="6" horiz-adv-x="1193" d="M74 510q0 141 50 288.5t167 274.5t309.5 219t474.5 123q0 -4 11.5 -54t25.5 -110q16 -70 39 -157q-487 -43 -639 -244l8 -6q49 29 120 47t124 18q74 0 144.5 -26.5t126 -76.5t88 -126t32.5 -174q0 -104 -42 -201.5t-115.5 -172.5t-176 -120t-225.5 -45q-127 0 -224.5 43 t-163 117t-100 173t-34.5 210zM426 457q0 -94 53 -144.5t125 -50.5q45 0 80 19.5t59.5 50t37 69.5t12.5 78q0 76 -40 123t-118 47q-53 0 -100.5 -16.5t-81.5 -44.5q-14 -31 -20.5 -68.5t-6.5 -62.5z" />
<glyph unicode="7" horiz-adv-x="1081" d="M80 668l67 321h967l-47 -254l-721 -1081h-387l703 1014h-582z" />
<glyph unicode="8" horiz-adv-x="1124" d="M670 754q49 27 87 68.5t38 101.5q0 57 -37 83.5t-90 26.5q-59 0 -99.5 -39t-40.5 -98q0 -29 13.5 -51.5t34 -40t45 -30.5t49.5 -21zM530 530q-49 -23 -89 -64.5t-40 -98.5q0 -66 46.5 -94.5t105.5 -28.5t106.5 33.5t47.5 99.5q0 31 -18.5 55.5t-46.5 44t-57.5 32.5 t-54.5 21zM858 657q86 -41 147.5 -117.5t61.5 -179.5q0 -92 -43 -165.5t-114.5 -124t-164 -78t-188.5 -27.5q-80 0 -173 16.5t-173 55.5t-133 105.5t-53 166.5q0 74 25.5 130.5t69.5 94t103.5 60t126.5 33.5q-82 43 -138 120.5t-56 176.5q0 92 41 163.5t108.5 122t156.5 77 t187 26.5q80 0 170 -15.5t166 -54.5t126 -103.5t50 -164.5q0 -141 -85 -218t-218 -100z" />
<glyph unicode="9" horiz-adv-x="1193" d="M1147 475q0 -141 -50 -288.5t-167 -274.5t-309.5 -219t-475.5 -123q0 2 -3 16.5t-9 37t-13 51t-14 59.5q-16 70 -36 157q487 43 639 244l-9 6q-49 -29 -119.5 -47t-123.5 -18q-74 0 -144.5 26.5t-126 76.5t-88 126t-32.5 174q0 104 42 201.5t115.5 172.5t176 120 t225.5 45q125 0 223 -43t163.5 -117t100.5 -173t35 -210zM795 528q0 94 -53.5 144.5t-125.5 50.5q-45 0 -79.5 -19.5t-59 -50t-37 -69.5t-12.5 -78q0 -76 40 -123t118 -47q53 0 100 16.5t82 44.5q14 31 20.5 68.5t6.5 62.5z" />
<glyph unicode=":" horiz-adv-x="630" d="M596 733q0 -100 -61.5 -157.5t-163.5 -57.5t-164 57.5t-62 157.5t61.5 157.5t164.5 57.5q102 0 163.5 -57.5t61.5 -157.5zM487 184q0 -100 -61 -157.5t-164 -57.5q-102 0 -163.5 57.5t-61.5 157.5t61.5 157.5t163.5 57.5t163.5 -57.5t61.5 -157.5z" />
<glyph unicode=";" horiz-adv-x="630" d="M596 733q0 -100 -61.5 -157.5t-163.5 -57.5t-164 57.5t-62 157.5t61.5 157.5t164.5 57.5q102 0 163.5 -57.5t61.5 -157.5zM4 188q16 94 78.5 151.5t165.5 57.5q57 0 104 -22.5t82 -60.5t54.5 -88t19.5 -107q0 -90 -44 -166t-111.5 -134.5t-148.5 -99.5t-155 -65l-139 156 q27 10 66.5 32.5t78.5 53t67 66.5t28 71q0 61 -40 93.5t-106 61.5z" />
<glyph unicode="&#x3c;" horiz-adv-x="1052" d="M926 -6l-822 364v246l822 367v-295l-447 -184v-21l447 -180v-297z" />
<glyph unicode="=" horiz-adv-x="1079" d="M104 582l-10 280h895l-10 -280h-875zM94 98l10 281h875l10 -281h-895z" />
<glyph unicode="&#x3e;" horiz-adv-x="1056" d="M119 -6v297l444 180v21l-444 184v295l819 -367v-246z" />
<glyph unicode="?" horiz-adv-x="921" d="M961 932q0 -133 -79 -218t-235 -130q-162 -47 -162 -52q0 -2 11.5 -11t29 -19t35 -22.5t29.5 -20.5l-289 -27q-68 39 -108.5 87t-40.5 95q0 74 56 125.5t187 85.5q98 25 136 42.5t38 52.5q0 23 -13 37t-32.5 21t-44 10t-47.5 3q-78 0 -155.5 -14t-118.5 -29l84 326 q51 20 117.5 27.5t125.5 7.5q94 0 180.5 -24.5t152 -72t104.5 -118t39 -162.5zM541 164q0 -96 -62.5 -145.5t-150.5 -49.5t-150.5 49.5t-62.5 145.5t62.5 145t150.5 49t150.5 -49t62.5 -145z" />
<glyph unicode="@" horiz-adv-x="1785" d="M1733 633q0 -141 -38 -247.5t-102.5 -177.5t-147.5 -105.5t-173 -34.5q-115 0 -189.5 46t-103.5 136q-53 -66 -119.5 -96.5t-130.5 -30.5q-57 0 -107.5 22.5t-88 65.5t-60 106.5t-22.5 145.5q0 106 32.5 193t90 149.5t137.5 96.5t174 34q35 0 75.5 -11.5t79.5 -27.5 l342 41l-106 -537q-23 -100 4 -143t106 -43q43 0 88.5 27.5t82 81t59 131t22.5 178.5q0 143 -58 260t-155.5 199t-223.5 127t-259 45q-156 0 -292 -61.5t-236.5 -167t-158.5 -245t-58 -292.5q0 -147 50 -275.5t141 -224.5t216 -151.5t275 -55.5q68 0 133 11.5t131 31.5 l24 -80q-74 -25 -144.5 -37t-148.5 -12q-168 0 -309 61.5t-244.5 168t-161 251t-57.5 310.5q0 174 64.5 328.5t178.5 271t267.5 184.5t329.5 68q158 0 301 -50.5t252 -142.5t173.5 -224t64.5 -298zM1022 674q-20 16 -44 30.5t-58 14.5q-37 0 -66 -19.5t-48.5 -51.5 t-30.5 -75t-11 -88q0 -66 28.5 -101.5t73.5 -35.5q35 0 56.5 11.5t38.5 25.5z" />
<glyph unicode="A" horiz-adv-x="1390" d="M1313 0h-398l-28 240h-449l-133 -240h-409l729 1280h505zM823 973l-225 -420h256z" />
<glyph unicode="B" horiz-adv-x="1327" d="M1049 641q88 -35 138 -109.5t50 -162.5q0 -78 -30.5 -145.5t-103.5 -117t-191.5 -78t-295.5 -28.5h-587l247 1280h547q141 0 234.5 -25.5t150 -69.5t80 -101.5t23.5 -120.5q0 -121 -72.5 -202t-189.5 -120zM846 414q0 33 -15.5 53t-41 32.5t-58.5 17.5t-67 5h-142 l-45 -229h152q63 0 105 6t66.5 19.5t35 37t10.5 58.5zM899 891q0 45 -35 70.5t-127 25.5h-125l-45 -229h41q16 0 35 1t31 1q119 0 172 31.5t53 99.5z" />
<glyph unicode="C" horiz-adv-x="1267" d="M1239 889q-98 37 -192.5 57.5t-184.5 20.5q-96 0 -166.5 -29t-115.5 -77t-66.5 -112.5t-21.5 -136.5q0 -82 23.5 -139t66.5 -93t101 -52.5t126 -16.5q76 0 150.5 18.5t146.5 47.5l59 -334q-104 -45 -196 -59.5t-183 -14.5q-166 0 -296 42t-221 120t-138 186.5t-47 243.5 q0 141 46 276.5t142.5 240t244 169t347.5 64.5q123 0 233.5 -18.5t213.5 -51.5z" />
<glyph unicode="D" horiz-adv-x="1433" d="M1415 733q0 -145 -46 -277t-148.5 -233.5t-266 -162t-397.5 -60.5h-528l247 1280h480q141 0 261 -36t208 -104.5t139 -171t51 -235.5zM1008 715q0 129 -81 192.5t-210 63.5h-96l-129 -662h124q176 0 284 100.5t108 305.5z" />
<glyph unicode="E" horiz-adv-x="1202" d="M29 0l247 1280h1000l-59 -313h-607l-32 -168h499l-61 -314h-500l-33 -172h607l-62 -313h-999z" />
<glyph unicode="F" horiz-adv-x="1155" d="M276 1280h979l-61 -324h-582l-37 -184h476l-62 -319h-475l-88 -453h-397z" />
<glyph unicode="G" horiz-adv-x="1413" d="M1229 45q-96 -35 -208 -55.5t-237 -20.5q-154 0 -281.5 39t-220 115t-144.5 183.5t-52 246.5q0 147 50 284.5t150.5 243t250 168t350.5 62.5q141 0 252.5 -17.5t220.5 -52.5l-78 -352q-96 35 -199.5 57.5t-197.5 22.5q-104 0 -178 -31t-121 -84t-69.5 -125t-22.5 -154 q0 -61 15 -114t51 -91t91.5 -59.5t132.5 -21.5q35 0 71 4t60 10l29 143h-282l61 310h641l-135 -711v0z" />
<glyph unicode="H" horiz-adv-x="1462" d="M842 0l92 477h-410l-92 -477h-403l247 1280h404l-90 -467h409l91 467h403l-248 -1280h-403z" />
<glyph unicode="I" horiz-adv-x="645" d="M29 0l247 1280h406l-248 -1280h-405z" />
<glyph unicode="J" horiz-adv-x="1021" d="M909 438q-45 -229 -173 -349t-347 -120q-59 0 -122.5 10.5t-123 29t-110.5 43t-88 52.5l151 304q57 -47 115.5 -79t132.5 -32q47 0 78 16.5t49 43t28.5 62.5t18.5 77l152 784h403l-164 -842v0z" />
<glyph unicode="K" horiz-adv-x="1361" d="M578 737l466 543h459l-592 -625l334 -655h-461l-245 541h-2q-12 -66 -31 -159t-35 -177q-20 -98 -39 -205h-403l247 1280h402l-103 -543h3z" />
<glyph unicode="L" horiz-adv-x="1091" d="M29 0l247 1280h404l-184 -950h493l-63 -330h-897z" />
<glyph unicode="M" horiz-adv-x="1824" d="M1423 889l-376 -871h-437l-39 883l-192 -901h-381l297 1284h571l33 -885l381 881h580l-209 -1280h-385z" />
<glyph unicode="N" horiz-adv-x="1501" d="M1145 1280h389l-242 -1292h-442l-299 743l-133 -731h-389l239 1276h449l299 -731z" />
<glyph unicode="O" horiz-adv-x="1513" d="M1491 725q0 -164 -56.5 -303t-156.5 -240.5t-239.5 -159t-305.5 -57.5q-133 0 -249.5 39t-206 114t-140.5 185.5t-51 251.5q0 164 56.5 303t155.5 240.5t238.5 159t305.5 57.5q131 0 249.5 -39t206.5 -114t140.5 -185.5t52.5 -251.5zM1079 721q0 125 -64.5 199.5 t-193.5 74.5q-84 0 -145.5 -41t-101 -104.5t-58 -140t-18.5 -150.5q0 -121 64.5 -197.5t193.5 -76.5q84 0 144.5 41t100 105.5t59 141t19.5 148.5z" />
<glyph unicode="P" horiz-adv-x="1277" d="M1286 850q0 -104 -37 -196.5t-113.5 -161t-194.5 -108.5t-279 -40h-162l-68 -344h-403l247 1280h494q121 0 217 -35t163 -93t101.5 -136t34.5 -166zM872 831q0 61 -44 101.5t-138 40.5h-82l-63 -330h121q55 0 94 16.5t63.5 43t36.5 60t12 68.5z" />
<glyph unicode="Q" horiz-adv-x="1513" d="M1382 -51l-188 -316l-494 332h-2q-127 6 -238.5 47t-194.5 116t-131 182.5t-48 244.5q0 164 56.5 303t155.5 240.5t238.5 159t305.5 57.5q131 0 249.5 -39t206.5 -114t140.5 -185.5t52.5 -251.5q0 -215 -94 -384t-285 -265zM1079 721q0 125 -64.5 199.5t-193.5 74.5 q-84 0 -145.5 -41t-101 -104.5t-58 -140t-18.5 -150.5q0 -121 64.5 -197.5t193.5 -76.5q84 0 144.5 41t100 105.5t59 141t19.5 148.5z" />
<glyph unicode="R" horiz-adv-x="1339" d="M430 0h-401l247 1276h562q111 0 200.5 -28.5t152 -79t97.5 -121t35 -154.5q0 -162 -91 -269.5t-235 -154.5l189 -469h-422l-150 397l-108 -12zM676 676q43 0 85 8t73.5 26.5t52 50.5t20.5 81q0 37 -15 61.5t-40 41t-55.5 23.5t-63.5 7h-121l-63 -299h127z" />
<glyph unicode="S" horiz-adv-x="1212" d="M539 299q106 0 144 18.5t38 53.5q0 18 -9.5 30.5t-34 26.5t-67.5 31.5t-110 44.5q-63 25 -127 57.5t-114 77.5t-81 106.5t-31 147.5q0 98 40 176t112 131t169 81t212 28q172 0 310 -34t216 -73l-71 -344q-51 27 -109.5 48.5t-115 36.5t-109.5 24.5t-96 9.5 q-80 0 -113 -22.5t-33 -49.5q0 -18 10.5 -31.5t36 -26.5t70.5 -29.5t112 -41.5q74 -29 137.5 -60.5t109.5 -73.5t73 -95t27 -123q0 -111 -41 -195t-116 -142t-182.5 -88t-240.5 -30q-78 0 -154.5 10.5t-145.5 25.5t-126 34.5t-96 38.5l71 344q55 -29 118 -51.5t121 -39 t109.5 -24.5t86.5 -8z" />
<glyph unicode="T" horiz-adv-x="1275" d="M934 950l-184 -950h-404l184 950h-387l64 330h1177l-63 -330h-387z" />
<glyph unicode="U" horiz-adv-x="1404" d="M670 -31q-289 0 -434.5 117t-147.5 317q0 35 8 83.5t17 86.5l139 707h403l-137 -715q-4 -27 -10 -52.5t-6 -53.5q0 -78 44 -123t146 -45q96 0 138 54t61 149l153 786h402l-156 -803q-53 -268 -212.5 -388t-407.5 -120z" />
<glyph unicode="V" horiz-adv-x="1374" d="M836 4h-502l-176 1276h426l69 -911l461 911h445z" />
<glyph unicode="W" horiz-adv-x="2017" d="M682 0h-403l-84 1280h428l-45 -819l358 819h442l39 -819l277 819h442l-592 -1280h-414l-47 842z" />
<glyph unicode="X" horiz-adv-x="1394" d="M375 0h-447l561 641l-301 639h441l149 -373l291 373h451l-549 -627l313 -653h-442l-162 391z" />
<glyph unicode="Y" horiz-adv-x="1327" d="M864 473l-92 -473h-397l92 475l-291 805h410l137 -461l307 461h434z" />
<glyph unicode="Z" horiz-adv-x="1251" d="M-18 0l49 258l741 703h-592l62 319h1101l-49 -260l-735 -698h598l-63 -322h-1112z" />
<glyph unicode="[" horiz-adv-x="901" d="M123 -403v1837h768v-285h-416v-1268h416v-284h-768z" />
<glyph unicode="\" horiz-adv-x="677" d="M473 1438l139 -1846h-350l-139 1846h350z" />
<glyph unicode="]" horiz-adv-x="903" d="M12 -119h416v1268h-416v285h768v-1837h-768v284z" />
<glyph unicode="^" horiz-adv-x="819" d="M662 1085l-82 203h-5l-155 -203h-303l317 383h340l174 -383h-286z" />
<glyph unicode="_" horiz-adv-x="1198" d="M-135 -301l2 301h1225v-301h-1227z" />
<glyph unicode="`" horiz-adv-x="815" d="M500 1085l-295 383h413l123 -383h-241z" />
<glyph unicode="a" horiz-adv-x="1110" d="M602 408q-111 -2 -169 -27t-58 -84q0 -39 25.5 -61.5t68.5 -22.5q29 0 57.5 13.5t44.5 29.5zM637 578q25 123 -160 122q-80 0 -162 -19t-147 -44l-33 287q72 27 178.5 46t223.5 19q174 0 279.5 -40t157.5 -106.5t59 -153.5t-15 -179l-41 -186q-8 -37 3 -51.5t50 -18.5 l-88 -272q-188 -23 -277.5 18t-99.5 129h-2q-47 -59 -115.5 -107.5t-175.5 -48.5q-61 0 -111 21.5t-85 58.5t-53.5 84t-18.5 99q0 74 39 138t117 109t195.5 65.5t277.5 8.5z" />
<glyph unicode="b" horiz-adv-x="1210" d="M1174 565q0 -133 -41 -241.5t-115 -186.5t-174.5 -121t-218.5 -43q-76 0 -134.5 21.5t-113.5 50.5l-375 -78l274 1434l400 26l-105 -550q41 41 106.5 76.5t158.5 35.5q68 0 129 -27.5t107 -81t74 -132.5t28 -183zM776 535q0 84 -35.5 129t-91.5 45q-43 0 -70.5 -15.5 t-48.5 -31.5l-75 -363q25 -20 54.5 -37.5t72.5 -17.5q45 0 80.5 24.5t61.5 64.5t39 92.5t13 109.5z" />
<glyph unicode="c" horiz-adv-x="1032" d="M920 33q-66 -27 -149 -46.5t-193 -19.5q-113 0 -209.5 30t-168 87t-112.5 141t-41 193q0 123 45 228.5t125 181t188.5 118.5t235.5 43q117 0 223.5 -25.5t186.5 -72.5l-127 -277q-66 41 -126.5 63.5t-127.5 22.5q-59 0 -103.5 -26.5t-73 -66.5t-43 -88t-14.5 -91 q0 -82 55.5 -126t147.5 -44q55 0 115.5 13.5t117.5 35.5l48 -274v0z" />
<glyph unicode="d" horiz-adv-x="1216" d="M901 1360l397 26l-270 -1386h-389l12 82q-41 -41 -106.5 -77t-157.5 -36q-68 0 -129 28t-107.5 81t-74 132t-27.5 183q0 133 42 241.5t116 186.5t174 121t219 43q66 0 119 -16.5t102 -40.5zM768 659q-25 20 -54.5 38t-72.5 18q-45 0 -81 -24.5t-61.5 -64.5t-39 -92.5 t-13.5 -109.5q0 -84 36 -129t91 -45q43 0 71 15.5t48 31.5z" />
<glyph unicode="e" horiz-adv-x="1116" d="M426 379q0 -35 18.5 -60.5t48 -43t66.5 -26.5t76 -9q82 0 163 25.5t130 53.5l45 -286q-66 -27 -165 -45.5t-206 -18.5q-129 0 -231.5 31t-175 89t-110.5 143t-38 194q0 123 46 226.5t126 178t188.5 116.5t233.5 42q199 0 314.5 -87t115.5 -265q0 -53 -14.5 -122 t-32.5 -118l-598 -8v-10zM692 557q8 20 13.5 52t5.5 53q0 43 -21.5 67.5t-62.5 24.5q-57 0 -101.5 -50.5t-62.5 -146.5h229z" />
<glyph unicode="f" horiz-adv-x="817" d="M907 1051q-51 33 -86 45t-73 12q-31 0 -51.5 -10.5t-34 -25.5t-19.5 -31.5t-8 -28.5l-14 -72h229l-6 -295h-262l-125 -645h-391l129 645l-170 10l12 248l211 45l18 86q18 88 53 161t90.5 124t133.5 78.5t182 27.5q98 0 179 -24.5t134 -57.5z" />
<glyph unicode="g" horiz-adv-x="1148" d="M254 326q-90 41 -136 113.5t-46 150.5q0 94 41 169t110.5 126t161.5 77.5t193 26.5q88 0 164.5 -20.5t129.5 -50.5l322 20l10 -279l-188 23q2 -10 5 -24.5t3 -30.5q0 -80 -29.5 -146.5t-89 -116t-147.5 -77t-205 -27.5q-47 0 -88 7t-64 12q-14 -4 -24 -15.5t-10 -27.5 q0 -10 7 -18.5t26.5 -16.5t55.5 -16.5t93 -16.5l41 -6q106 -16 187 -40t135.5 -59.5t82 -87t27.5 -120.5q0 -84 -46 -150.5t-126 -114t-188.5 -73t-235.5 -25.5q-274 0 -419.5 62.5t-145.5 201.5q0 33 18.5 66t53 59.5t86 46t116.5 25.5q-76 18 -112.5 56t-36.5 112 q0 72 70.5 130.5t197.5 74.5zM551 467q63 0 99 47t36 129q0 53 -29.5 86t-81.5 33q-61 0 -101 -48t-40 -130q0 -49 32 -83t85 -34zM264 -98q-18 -6 -34.5 -31t-16.5 -53q0 -66 65.5 -100.5t161.5 -34.5q100 0 156.5 28.5t56.5 61.5q0 35 -30.5 56t-130.5 38q-12 2 -40 6 t-62 8t-67.5 9.5t-58.5 11.5z" />
<glyph unicode="h" horiz-adv-x="1208" d="M635 0l100 516q4 16 6 31.5t2 30.5q0 41 -20.5 67.5t-73.5 26.5q-41 0 -74.5 -24.5t-62.5 -65.5l-113 -582h-393l264 1360l398 26l-109 -569q78 78 159 125t169 47q70 0 121 -21.5t84.5 -58.5t49 -86t15.5 -102q0 -41 -6 -80l-123 -641h-393z" />
<glyph unicode="i" horiz-adv-x="583" d="M672 1251q0 -100 -61.5 -147t-164.5 -47q-102 0 -163.5 47t-61.5 147t62.5 147.5t165.5 47.5q102 0 162.5 -47.5t60.5 -147.5zM6 0l184 952l398 27l-191 -979h-391z" />
<glyph unicode="j" horiz-adv-x="583" d="M672 1251q0 -100 -61.5 -147t-164.5 -47q-102 0 -163.5 47t-61.5 147t62.5 147.5t165.5 47.5q102 0 162.5 -47.5t60.5 -147.5zM-207 -248q47 20 84 48t64.5 67t47 94t34.5 131l167 860l398 27l-180 -916q-41 -213 -143.5 -355t-303.5 -197z" />
<glyph unicode="k" horiz-adv-x="1163" d="M483 453l-86 -453h-391l264 1360l398 26l-158 -806h4l287 378h448l-391 -450l219 -508h-422l-168 453h-4z" />
<glyph unicode="l" horiz-adv-x="583" d="M6 0l264 1360l398 26l-271 -1386h-391z" />
<glyph unicode="m" horiz-adv-x="1792" d="M1223 0l100 516q4 16 6 32.5t2 31.5q0 41 -21.5 66.5t-72.5 25.5q-35 0 -61.5 -15.5t-49.5 -40.5l-4 -20l-114 -596h-394l101 516q4 16 6 32.5t2 31.5q0 41 -21.5 66.5t-72.5 25.5q-35 0 -61.5 -15.5t-49.5 -40.5l-119 -616h-393l180 932l404 47l-31 -141q57 59 140 105 t163 46q111 0 178.5 -50t92.5 -140q27 37 67.5 71.5t86.5 60t95.5 42t92.5 16.5q70 0 122 -21.5t84.5 -58.5t49 -85t16.5 -101q0 -20 -2 -40.5t-6 -41.5l-127 -641h-389z" />
<glyph unicode="n" horiz-adv-x="1202" d="M635 0l100 516q4 16 6 31.5t2 30.5q0 41 -20.5 67.5t-73.5 26.5q-41 0 -74.5 -24.5t-62.5 -65.5l-113 -582h-393l180 932l404 47l-31 -162q33 33 72 63.5t81 55.5t87 39t88 14q70 0 121 -21.5t84.5 -58.5t49 -86t15.5 -102q0 -41 -6 -80l-123 -641h-393z" />
<glyph unicode="o" horiz-adv-x="1189" d="M1128 528q0 -119 -40.5 -221t-115.5 -178t-179.5 -119t-233.5 -43q-113 0 -207 31t-162.5 89t-106.5 144t-38 199q0 119 42 221.5t119 178t183.5 117.5t233.5 42q113 0 206 -32.5t159.5 -92t103 -145t36.5 -191.5zM737 559q0 80 -30.5 120t-85.5 40q-47 0 -82 -31 t-58.5 -79t-35 -104t-11.5 -108q0 -80 33 -119.5t90 -39.5q39 0 72 24.5t57.5 68.5t37.5 102t13 126z" />
<glyph unicode="p" horiz-adv-x="1216" d="M571 877q41 41 106.5 76.5t158.5 35.5q68 0 129 -27.5t107 -81t74 -132t28 -183.5q0 -133 -42 -241.5t-116 -186.5t-174.5 -121t-218.5 -43q-66 0 -119 16.5t-103 41.5l-79 -426h-394l258 1327l404 47zM455 299q25 -20 54.5 -37.5t72.5 -17.5q45 0 80.5 24.5t61.5 64.5 t39 92t13 110q0 84 -35.5 129t-91.5 45q-43 0 -70.5 -15.5t-48.5 -31.5z" />
<glyph unicode="q" horiz-adv-x="1216" d="M561 -395l90 477q-41 -41 -106.5 -77t-157.5 -36q-68 0 -129 28t-107.5 81t-74 132t-27.5 183q0 133 42 241.5t116 186.5t174 121t219 43q66 0 112 -13.5t93 -33.5l416 51l-267 -1384h-393zM768 659q-25 23 -54.5 39.5t-72.5 16.5q-45 0 -81 -24.5t-61.5 -64.5t-39 -92.5 t-13.5 -109.5q0 -84 36 -129t91 -45q43 0 71 15.5t48 31.5z" />
<glyph unicode="r" horiz-adv-x="843" d="M397 0h-391l182 932l400 47l-25 -133q47 68 103.5 105.5t119.5 37.5q66 0 127 -41l-79 -344q-25 14 -60 23.5t-76 9.5q-51 0 -99 -17.5t-95 -72.5z" />
<glyph unicode="s" horiz-adv-x="1005" d="M926 307q0 -70 -29 -131t-86 -107t-143 -73t-199 -27q-55 0 -118.5 7.5t-126 20.5t-120 31.5t-100.5 41.5l70 288q43 -25 95 -47t105.5 -39.5t106.5 -28t98 -10.5q35 0 54.5 14.5t19.5 35.5q0 23 -27.5 37t-107.5 32q-98 23 -164 51.5t-103.5 66.5t-54 84t-16.5 101 q0 70 28.5 131.5t86 106.5t142.5 70.5t200 25.5q55 0 117.5 -7t124 -20.5t118.5 -32t100 -40.5l-73 -289q-100 55 -205 90t-193 35q-35 0 -52 -13.5t-17 -33.5q0 -23 28.5 -34t108.5 -32q98 -25 162.5 -53.5t101.5 -65t52.5 -83t15.5 -103.5z" />
<glyph unicode="t" horiz-adv-x="813" d="M713 2q-53 -14 -120 -23.5t-147 -9.5q-72 0 -134 17.5t-108 52.5t-72 87t-26 124q0 47 13 100l71 295l-114 10l8 248l172 47l53 224h379l-49 -236h168l-6 -293h-252l-55 -237q-4 -10 -6.5 -25.5t-2.5 -32.5q0 -41 22.5 -58.5t84.5 -17.5q18 0 37.5 4.5t40.5 10.5z" />
<glyph unicode="u" horiz-adv-x="1185" d="M575 958l-100 -516q-6 -31 -6 -59q0 -43 19.5 -69.5t72.5 -26.5q35 0 62.5 16t52.5 45l117 610h391l-185 -944l-399 -45l33 168q-25 -31 -60.5 -60.5t-76.5 -53t-87.5 -39t-89.5 -15.5q-76 0 -127 19.5t-81.5 54.5t-44 81t-13.5 99q0 61 13 123l114 612h395z" />
<glyph unicode="v" horiz-adv-x="1089" d="M637 -2h-418l-156 960h394l47 -555l268 555h408z" />
<glyph unicode="w" horiz-adv-x="1587" d="M174 -4l-70 962h379l-14 -538l231 541h373l19 -523l178 520h393l-451 -962h-374l-27 584l-262 -584h-375z" />
<glyph unicode="x" horiz-adv-x="1103" d="M623 0l-105 297l-207 -297h-422l416 487l-227 471h399l111 -264l200 264h414l-403 -466l225 -492h-401z" />
<glyph unicode="y" horiz-adv-x="1069" d="M-41 -37q43 -29 72.5 -45t72.5 -16q41 0 63.5 10t43.5 45l6 10l-166 991h398l51 -596l252 596h407l-479 -935l-66 -121q-96 -178 -207.5 -248t-263.5 -70q-92 0 -180 33t-156 74l152 272v0z" />
<glyph unicode="z" horiz-adv-x="991" d="M-63 0l43 219l495 436h-393l59 303h903l-43 -219l-491 -436h408l-60 -303h-921z" />
<glyph unicode="{" horiz-adv-x="882" d="M854 -418q-145 2 -266 11.5t-209 38t-136 82t-48 145.5q0 63 8 114.5t17 94.5t17.5 79.5t8.5 73.5q0 66 -60.5 100.5t-189.5 45.5l-6 157l6 158q129 10 189.5 40t60.5 97q0 37 -8.5 76t-17.5 83t-17 96t-8 116q0 92 48 146.5t136 82t209 36.5t266 13v-231 q-82 -6 -136 -15.5t-87 -23.5t-46.5 -36.5t-13.5 -53.5q0 -51 16.5 -128t16.5 -204q0 -49 -23.5 -91t-65.5 -74.5t-98.5 -52t-123.5 -23.5v-21q68 -4 124 -24.5t98 -53.5t65.5 -75t23.5 -91q0 -63 -5 -110t-11 -84t-11.5 -68t-5.5 -61q0 -35 13.5 -57.5t46.5 -38t87 -24.5 t136 -15v-230v0z" />
<glyph unicode="|" horiz-adv-x="589" d="M123 1436h344v-1846h-344v1846z" />
<glyph unicode="}" horiz-adv-x="882" d="M887 367q-129 -10 -189.5 -45t-60.5 -101q0 -37 8 -73.5t17.5 -79.5t17.5 -94.5t8 -114.5q0 -92 -48 -145.5t-135 -82t-209 -38t-267 -11.5v230q82 6 136 15t87 24.5t46 38t13 57.5q0 31 -5 61.5t-11 67.5t-11 84t-5 110q0 49 23.5 91t65.5 75t98 53.5t124 24.5v21 q-68 4 -124 23.5t-98 52t-65.5 74.5t-23.5 91q0 127 16 204t16 128q0 31 -13 53.5t-46 36.5t-87 23.5t-136 15.5v231q145 -4 267 -13t209 -36.5t135 -82t48 -146.5q0 -63 -8 -115.5t-17.5 -96.5t-17.5 -83t-8 -76q0 -68 60.5 -97.5t189.5 -39.5l6 -158z" />
<glyph unicode="~" horiz-adv-x="819" d="M881 725q-53 -180 -120 -260t-165 -80q-57 0 -103.5 17.5t-85 39t-70.5 39t-58 17.5q-16 0 -28.5 -12.5t-21 -28t-11.5 -30.5t-3 -24h-240q51 178 120 256t165 78q57 0 103.5 -16t85 -36.5t70.5 -37t59 -16.5q16 0 28 12t21.5 27.5t13.5 31t6 23.5h37h81h62h54z" />
<glyph unicode="&#xa1;" horiz-adv-x="653" d="M238 1114q0 96 62 145.5t151 49.5q88 0 150.5 -49.5t62.5 -145.5t-62.5 -145t-150.5 -49t-150.5 49t-62.5 145zM442 -78l-448 62l258 856l287 -49z" />
<glyph unicode="&#xa2;" horiz-adv-x="1017" d="M903 954q88 -27 152 -63l-127 -277q-33 23 -65 39.5t-62 30.5l-166 -434h8q55 0 115.5 17.5t118.5 39.5l47 -274q-66 -27 -149 -46.5t-193 -19.5h-27.5t-26.5 2l-100 -262h-162l111 289q-145 45 -235.5 151.5t-90.5 270.5q0 123 45 228.5t125 181t188.5 118.5t235.5 43 q53 0 107 -6l82 213h161zM647 707q-57 -4 -98 -31t-68.5 -66t-41 -86t-13.5 -96q0 -92 61 -137q12 29 25 63q10 29 24.5 66t30.5 78q35 92 80 209z" />
<glyph unicode="&#xa3;" horiz-adv-x="1226" d="M272 719q2 53 4.5 101t12.5 95q18 90 62 164t111.5 125t156 79t190.5 28q53 0 114.5 -10.5t122 -30t117 -47t99.5 -62.5l-129 -278q-68 57 -143 92t-146 33q-78 -2 -127 -45t-64 -115q-4 -23 -6 -55.5t-6 -73.5h299l-10 -158h-297q-2 -37 -6 -70.5t-9 -62.5 q-4 -20 -9 -39.5t-11 -38.5q35 -29 83 -49t101 -20q49 0 91 36.5t73 133.5l264 -74q-29 -109 -74.5 -186.5t-102 -127t-123 -72t-136.5 -22.5q-53 0 -98 14.5t-85 38t-73 52t-59 59.5q-74 -68 -182.5 -109.5t-253.5 -52.5l-27 283q115 12 184.5 49t83.5 109q6 29 8 67.5 t2 81.5h-174l-10 158h182v0z" />
<glyph unicode="&#xa4;" horiz-adv-x="1034" d="M858 893q14 -37 23.5 -80t9.5 -78q0 -41 -7 -84t-24 -78l141 -141l-180 -180l-137 137q-72 -31 -166 -31q-96 0 -166 29l-127 -127l-178 178l127 127q-18 41 -24.5 82t-6.5 88q0 51 5.5 89t25.5 77l-133 131l180 180l131 -131q35 16 78 23.5t88 7.5q43 0 87 -9t81 -26 l127 127l178 -178zM651 735q0 57 -34.5 98t-98.5 41q-66 0 -100.5 -40.5t-34.5 -98.5q0 -57 35 -98t100 -41q63 0 98 41t35 98z" />
<glyph unicode="&#xa5;" horiz-adv-x="1327" d="M117 477l20 156h322l-283 647h424l139 -440l303 440h422l-532 -647h323l-41 -156h-360l-23 -123h361l-21 -155h-360l-39 -199h-397l39 199h-361l41 155h361l22 123h-360z" />
<glyph unicode="&#xa6;" horiz-adv-x="589" d="M123 1315h344v-686h-344v686zM123 401h344v-686h-344v686z" />
<glyph unicode="&#xa7;" horiz-adv-x="1138" d="M1145 608q0 -51 -18.5 -93t-51.5 -73.5t-75 -54t-87 -35.5q37 -33 61.5 -72.5t24.5 -91.5q0 -84 -43 -144t-108.5 -100t-146 -59.5t-154.5 -19.5q-55 0 -125 8t-140.5 25.5t-135 42t-111.5 59.5l133 252q102 -59 194.5 -94t188.5 -35q23 0 48.5 9t25.5 38 q0 31 -62.5 56.5t-148.5 54.5q-59 18 -123 41.5t-115 57.5t-84 80t-33 111q0 117 72 181.5t178 87.5q-61 68 -61 151q0 82 37 143.5t98 102.5t140 60.5t163 19.5q53 0 122 -9.5t139.5 -26.5t133 -44t103.5 -61l-135 -248q-100 55 -182.5 93t-170.5 38q-23 0 -48 -9.5 t-25 -37.5q0 -16 16 -30.5t45 -28t66.5 -27t78.5 -29.5q55 -23 110.5 -49.5t101.5 -61t75 -79t29 -99.5zM831 526q0 31 -32.5 57.5t-75.5 48t-87 37t-67 25.5q-35 16 -69.5 30.5t-69.5 35.5q-23 -23 -41 -46.5t-18 -49.5q0 -31 32.5 -57.5t75.5 -50.5t87 -41t67 -26 q35 -16 71.5 -30.5t71.5 -30.5q18 18 36.5 44.5t18.5 53.5z" />
<glyph unicode="&#xa8;" horiz-adv-x="819" d="M1001 1268q0 -90 -49 -132t-133 -42q-82 0 -132 42t-50 132t50 132t132 42q84 0 133 -42t49 -132zM496 1268q0 -90 -50.5 -132t-132.5 -42q-84 0 -134 42t-50 132t50 132t134 42q82 0 132.5 -42t50.5 -132z" />
<glyph unicode="&#xa9;" horiz-adv-x="1710" d="M897 -166q-166 0 -312.5 63.5t-256 172t-172 255t-62.5 312.5t62.5 313.5t172 257t256 173t312.5 63.5t313.5 -63.5t256 -173t172 -257t63.5 -313.5t-63.5 -312.5t-172 -255t-256 -172t-313.5 -63.5zM1628 637q0 152 -57.5 286t-156.5 234t-232 158.5t-285 58.5 t-285 -58.5t-231 -158.5t-155.5 -234.5t-57.5 -285.5q0 -152 57.5 -286t155.5 -233.5t231 -157.5t285 -58t285 58t232 157.5t156.5 233.5t57.5 286zM1139 754q-33 18 -85.5 31.5t-92.5 13.5q-72 0 -111 -43t-39 -113q0 -74 35 -118t112 -44q53 0 98.5 11.5t94.5 35.5 l70 -260q-23 -10 -54.5 -18t-69.5 -14.5t-77 -10.5t-76 -4q-209 0 -328.5 101.5t-119.5 314.5q0 193 118.5 308.5t343.5 115.5q80 0 148 -15.5t127 -35.5z" />
<glyph unicode="&#xaa;" horiz-adv-x="860" d="M557 498q-16 23 -30.5 50t-14.5 75h-10q-43 -47 -100.5 -85t-118.5 -38q-82 0 -135.5 51t-53.5 143q0 59 25.5 111.5t83 89.5t147.5 55.5t219 12.5l6 20q31 100 -96 100q-55 0 -129 -24.5t-133 -59.5l-41 224q31 18 74 34.5t93 28.5t104.5 20.5t105.5 8.5 q195 0 280 -94.5t54 -243.5l-41 -203q-14 -72 2 -124t39 -89zM551 856q-86 0 -132 -28.5t-46 -82.5q0 -29 17.5 -45t49.5 -16q23 0 45.5 13.5t36.5 27.5z" />
<glyph unicode="&#xab;" horiz-adv-x="1265" d="M1069 10l-459 326l56 282l585 326l25 -242l-283 -231v-4l193 -223zM457 33l-453 309l55 274l572 310l31 -242l-277 -213v-4l188 -209z" />
<glyph unicode="&#xac;" horiz-adv-x="1120" d="M1053 160h-281v274h-709l7 285h983v-559z" />
<glyph unicode="&#xad;" horiz-adv-x="827" d="M51 346v301h727v-301h-727z" />
<glyph unicode="&#xae;" horiz-adv-x="1710" d="M897 -166q-166 0 -312.5 63.5t-256 172t-172 255t-62.5 312.5t62.5 313.5t172 257t256 173t312.5 63.5t313.5 -63.5t256 -173t172 -257t63.5 -313.5t-63.5 -312.5t-172 -255t-256 -172t-313.5 -63.5zM1628 637q0 152 -57.5 286t-156.5 234t-232 158.5t-285 58.5 t-285 -58.5t-231 -158.5t-155.5 -234.5t-57.5 -285.5q0 -152 57.5 -286t155.5 -233.5t231 -157.5t285 -58t285 58t232 157.5t156.5 233.5t57.5 286zM836 254h-306v788h426q176 0 265.5 -71.5t89.5 -192.5q0 -66 -36 -127t-114 -94l176 -303h-323l-119 244l-59 -4v-240z M895 666q47 2 76.5 24.5t29.5 69.5q0 37 -25.5 61.5t-84.5 24.5h-57v-182z" />
<glyph unicode="&#xaf;" horiz-adv-x="819" d="M143 1137l29 213h778l31 -213h-838z" />
<glyph unicode="&#xb0;" horiz-adv-x="792" d="M840 999q0 -76 -31 -142t-83 -116.5t-121.5 -79t-147.5 -28.5q-70 0 -127.5 22.5t-97 63.5t-62.5 98t-23 125q0 74 30 140.5t82 116.5t121 80t146 30q70 0 128.5 -22.5t99.5 -62.5t63.5 -97.5t22.5 -127.5zM727 995q0 98 -59.5 152.5t-153.5 54.5q-53 0 -99 -20.5 t-81 -55t-54.5 -81t-19.5 -99.5q0 -94 57.5 -150.5t155.5 -56.5q53 0 99 20.5t81 56.5t54.5 82t19.5 97z" />
<glyph unicode="&#xb1;" horiz-adv-x="1120" d="M715 600v-276h-307v276h-345l7 285h338v276h307v-276h338l6 -285h-344zM63 0l7 285h983l6 -285h-996z" />
<glyph unicode="&#xb2;" horiz-adv-x="675" d="M-14 559l24 205q96 72 161 120t104.5 81.5t57 58.5t17.5 51q0 29 -22.5 37t-44.5 8q-41 0 -80 -14t-76 -31l-57 209q72 33 146.5 51.5t152.5 18.5q51 0 105 -9.5t99 -32t74 -63.5t29 -102q0 -68 -35 -125t-84 -101t-103.5 -76t-93.5 -48h129h125l-39 -238h-589z" />
<glyph unicode="&#xb3;" horiz-adv-x="675" d="M440 948q74 2 131.5 -45t57.5 -137q0 -106 -93.5 -165.5t-263.5 -59.5q-88 0 -163.5 18.5t-137.5 48.5l76 199q25 -10 55.5 -19.5t64.5 -16.5t66.5 -11t61.5 -4q8 0 21.5 2t26.5 7t22.5 15.5t9.5 26.5q0 29 -31 37t-78 8h-22h-16.5t-18.5 -1t-29 -1l29 180q4 -2 32.5 -3 t60.5 3t57.5 17.5t25.5 39.5q0 45 -66 46q-41 0 -92 -11.5t-86 -25.5l-49 200q70 25 131.5 39.5t130.5 14.5q45 0 99.5 -9.5t100.5 -32t77 -61.5t31 -96q0 -51 -22 -87t-53.5 -60.5t-70.5 -38t-76 -17.5z" />
<glyph unicode="&#xb4;" horiz-adv-x="815" d="M549 1085h-242l271 383h417z" />
<glyph unicode="&#xb5;" horiz-adv-x="1191" d="M487 430q0 -59 22.5 -99t88.5 -40q63 0 85 43t22 100v524h391v-958h-355l-8 72q-16 -35 -45 -66t-80 -31q-47 0 -73.5 20.5t-47.5 51.5v-524h-391v1435h391v-528z" />
<glyph unicode="&#xb6;" horiz-adv-x="1306" d="M727 346q-27 0 -52.5 1t-35.5 1q-90 0 -182 19.5t-166 69.5t-121 136t-47 218q0 98 40 187t121 155.5t204.5 106.5t291.5 40h549l-282 -1432h-351l99 498h-68z" />
<glyph unicode="&#xb7;" horiz-adv-x="616" d="M549 555q0 -100 -61.5 -157.5t-163.5 -57.5t-164 57.5t-62 157.5t61.5 157.5t164.5 57.5q102 0 163.5 -57.5t61.5 -157.5z" />
<glyph unicode="&#xb8;" horiz-adv-x="819" d="M322 -90q102 -14 163.5 -64.5t61.5 -140.5q0 -59 -29 -109.5t-90 -88t-156.5 -61.5t-230.5 -26l16 162q84 -4 137.5 2t83 20.5t41 34t11.5 44.5q0 49 -56.5 69.5t-160.5 26.5v115l280 186h191q-51 -35 -101 -68q-41 -29 -85.5 -56.5t-75.5 -45.5z" />
<glyph unicode="&#xb9;" horiz-adv-x="675" d="M156 559l133 477l-180 -22l28 241l541 76l-205 -772h-317z" />
<glyph unicode="&#xba;" horiz-adv-x="958" d="M993 930q0 -98 -34.5 -178t-96 -136.5t-144.5 -88t-179 -31.5q-92 0 -170 27.5t-134.5 78.5t-87 123t-30.5 160q0 96 34.5 175t94 134t141.5 86t176 31t173 -27t136.5 -76t89 -119.5t31.5 -158.5zM680 956q0 68 -27.5 106t-74.5 38q-33 0 -59.5 -20.5t-45 -54.5t-29 -80 t-10.5 -95q0 -68 25.5 -104.5t72.5 -36.5q31 0 58.5 19.5t47 53t31 78.5t11.5 96z" />
<glyph unicode="&#xbb;" horiz-adv-x="1275" d="M649 33l-31 237l275 213v4l-188 209l118 230l453 -310l-55 -274zM29 10l-21 246l277 227v4l-191 228l117 229l459 -326l-56 -282z" />
<glyph unicode="&#xbc;" horiz-adv-x="1464" d="M1325 -133l-35 -160h-272l31 160h-285l2 194l287 406h399l-84 -393h55l-39 -207h-59zM1157 305l-160 -244h105zM154 -238h-293l1472 1518h293zM197 559l133 477l-180 -22l28 241l541 76l-205 -772h-317z" />
<glyph unicode="&#xbd;" horiz-adv-x="1464" d="M154 -238h-293l1472 1518h293zM197 559l133 477l-180 -22l28 241l541 76l-205 -772h-317zM733 -293l25 205q96 72 160.5 120t104.5 81.5t57.5 58.5t17.5 51q0 29 -22.5 37t-45.5 8q-41 0 -80 -14t-76 -31l-57 209q72 33 146.5 51.5t152.5 18.5q51 0 105.5 -9.5t99.5 -32 t73.5 -63.5t28.5 -102q0 -68 -34.5 -125t-84 -101t-103.5 -76t-93 -48h129h125l-39 -238h-590z" />
<glyph unicode="&#xbe;" horiz-adv-x="1464" d="M1325 -133l-35 -160h-272l31 160h-285l2 194l287 406h399l-84 -393h55l-39 -207h-59zM1157 305l-160 -244h105zM154 -238h-293l1472 1518h293zM481 948q74 2 131.5 -45t57.5 -137q0 -106 -93.5 -165.5t-263.5 -59.5q-88 0 -163.5 18.5t-137.5 48.5l76 199 q25 -10 55.5 -19.5t64.5 -16.5t66.5 -11t61.5 -4q8 0 21.5 2t26.5 7t22.5 15.5t9.5 26.5q0 29 -31 37t-78 8h-22.5h-16.5t-18 -1t-29 -1l29 180q4 -2 32.5 -3t60.5 3t57.5 17.5t25.5 39.5q0 45 -66 46q-41 0 -92 -11.5t-86 -25.5l-49 200q70 25 131.5 39.5t130.5 14.5 q45 0 99.5 -9.5t100.5 -32t76.5 -61.5t30.5 -96q0 -51 -21.5 -87t-53 -60.5t-70.5 -38t-76 -17.5z" />
<glyph unicode="&#xbf;" horiz-adv-x="921" d="M35 348q0 258 313 348q78 23 120 35t42 17q0 2 -11.5 11t-28.5 19t-34.5 22.5t-29.5 20.5l288 27q68 -39 109 -87t41 -95q0 -74 -56.5 -125.5t-187.5 -85.5q-98 -27 -136 -42.5t-38 -52.5q0 -23 13.5 -37t33 -21t44 -10t46.5 -3q78 0 156 14t119 29l-84 -326 q-51 -20 -118 -27.5t-126 -7.5q-94 0 -180 24.5t-151.5 72t-104.5 118t-39 162.5zM455 1116q0 96 62.5 145.5t150.5 49.5t150.5 -49.5t62.5 -145.5t-62.5 -145t-150.5 -49t-150.5 49t-62.5 145z" />
<glyph unicode="&#xc0;" horiz-adv-x="1390" d="M1313 0h-398l-28 240h-449l-133 -240h-409l729 1280h505zM823 973l-225 -420h256zM772 1346l-295 383h414l123 -383h-242z" />
<glyph unicode="&#xc1;" horiz-adv-x="1390" d="M1313 0h-398l-28 240h-449l-133 -240h-409l729 1280h505zM823 973l-225 -420h256zM985 1346h-242l271 383h418z" />
<glyph unicode="&#xc2;" horiz-adv-x="1390" d="M1313 0h-398l-28 240h-449l-133 -240h-409l729 1280h505zM823 973l-225 -420h256zM1022 1346l-82 202h-4l-156 -202h-303l318 383h340l174 -383h-287z" />
<glyph unicode="&#xc3;" horiz-adv-x="1390" d="M1313 0h-398l-28 240h-449l-133 -240h-409l729 1280h505zM1348 1692q-53 -180 -120 -260t-165 -80q-57 0 -103.5 17t-85 39t-70.5 39t-59 17q-16 0 -28 -12t-20.5 -27.5t-11.5 -31t-3 -23.5h-240q51 178 120 256t165 78q57 0 103.5 -16.5t85 -37t70.5 -37t58 -16.5 q16 0 28.5 12.5t22 28t13.5 30.5t6 24h37h81h62h54zM823 973l-225 -420h256z" />
<glyph unicode="&#xc4;" horiz-adv-x="1390" d="M1313 0h-398l-28 240h-449l-133 -240h-409l729 1280h505zM823 973l-225 -420h256zM1363 1528q0 -90 -49 -132t-133 -42q-82 0 -132 42t-50 132t50 132t132 42q84 0 133 -42t49 -132zM858 1528q0 -90 -50.5 -132t-132.5 -42q-84 0 -134 42t-50 132t50 132t134 42 q82 0 132.5 -42t50.5 -132z" />
<glyph unicode="&#xc5;" horiz-adv-x="1390" d="M823 973l-225 -420h256zM1065 1436q0 72 -48 101.5t-118 29.5q-78 0 -135 -39t-57 -117q0 -68 51 -98.5t119 -30.5q76 0 132 40t56 114zM621 1272q-45 55 -46 133q0 63 28 112.5t74 83t106.5 52t123.5 18.5q57 0 110.5 -14.5t93.5 -43t63.5 -72.5t23.5 -103 q0 -96 -68 -164l183 -1274h-398l-28 240h-449l-133 -240h-409z" />
<glyph unicode="&#xc6;" horiz-adv-x="1906" d="M848 553l96 494l-289 -494h193zM324 0h-430l819 1280h1278l-60 -313h-608l-33 -170h502l-61 -310h-502l-33 -174h608l-61 -313h-1002l47 240h-319z" />
<glyph unicode="&#xc7;" horiz-adv-x="1267" d="M653 -90q102 -14 164 -64.5t62 -140.5q0 -59 -29 -109.5t-90.5 -88t-156.5 -61.5t-230 -26l16 162q84 -4 137.5 2t83 20.5t41 34t11.5 44.5q0 49 -56.5 69.5t-161.5 26.5v115l142 94q-242 47 -372 196.5t-130 376.5q0 141 46 276.5t142.5 240t244 169t347.5 64.5 q123 0 233.5 -18.5t213.5 -51.5l-72 -352q-98 37 -192.5 57.5t-184.5 20.5q-96 0 -166.5 -29t-115.5 -77t-66.5 -112.5t-21.5 -136.5q0 -82 23.5 -139t66.5 -93t101 -52.5t126 -16.5q76 0 150.5 18.5t146.5 47.5l59 -334q-104 -45 -196 -59.5t-183 -14.5h-38l-95 -59v0z" />
<glyph unicode="&#xc8;" horiz-adv-x="1202" d="M29 0l247 1280h1000l-59 -313h-607l-32 -168h499l-61 -314h-500l-33 -172h607l-62 -313h-999zM672 1346l-295 383h414l122 -383h-241z" />
<glyph unicode="&#xc9;" horiz-adv-x="1202" d="M29 0l247 1280h1000l-59 -313h-607l-32 -168h499l-61 -314h-500l-33 -172h607l-62 -313h-999zM893 1345h-242l271 383h417z" />
<glyph unicode="&#xca;" horiz-adv-x="1202" d="M29 0l247 1280h1000l-59 -313h-607l-32 -168h499l-61 -314h-500l-33 -172h607l-62 -313h-999zM911 1346l-82 202h-4l-155 -202h-303l317 383h340l174 -383h-287z" />
<glyph unicode="&#xcb;" horiz-adv-x="1202" d="M29 0l247 1280h1000l-59 -313h-607l-32 -168h499l-61 -314h-500l-33 -172h607l-62 -313h-999zM1239 1528q0 -90 -49 -132t-133 -42q-82 0 -132.5 42t-50.5 132t50.5 132t132.5 42q84 0 133 -42t49 -132zM733 1528q0 -90 -50 -132t-132 -42q-84 0 -134 42t-50 132t50 132 t134 42q82 0 132 -42t50 -132z" />
<glyph unicode="&#xcc;" horiz-adv-x="645" d="M29 0l247 1280h406l-248 -1280h-405zM379 1346l-295 383h414l123 -383h-242z" />
<glyph unicode="&#xcd;" horiz-adv-x="645" d="M29 0l247 1280h406l-248 -1280h-405zM586 1346h-242l270 383h418z" />
<glyph unicode="&#xce;" horiz-adv-x="645" d="M29 0l247 1280h406l-248 -1280h-405zM594 1346l-82 202h-4l-156 -202h-303l318 383h340l174 -383h-287z" />
<glyph unicode="&#xcf;" horiz-adv-x="645" d="M29 0l247 1280h406l-248 -1280h-405zM936 1528q0 -90 -49 -132t-133 -42q-82 0 -132.5 42t-50.5 132t50.5 132t132.5 42q84 0 133 -42t49 -132zM430 1528q0 -90 -50 -132t-132 -42q-84 0 -134.5 42t-50.5 132t50.5 132t134.5 42q82 0 132 -42t50 -132z" />
<glyph unicode="&#xd0;" horiz-adv-x="1515" d="M66 496v301h198l94 483h480q141 0 261 -36t208 -104.5t139 -171t51 -235.5q0 -145 -46 -277t-148.5 -233.5t-266.5 -162t-397 -60.5h-528l96 496h-141zM864 797v-301h-254l-37 -187h125q176 0 284 100.5t108 305.5q0 129 -81 192.5t-210 63.5h-97l-34 -174h196z" />
<glyph unicode="&#xd1;" horiz-adv-x="1501" d="M1145 1280h389l-242 -1292h-442l-299 743l-133 -731h-389l239 1276h449l299 -731zM1395 1692q-53 -180 -120 -260t-165 -80q-57 0 -103 17t-85 38.5t-71 39t-58 17.5q-16 0 -28.5 -12t-21 -27.5t-11.5 -31t-3 -23.5h-239q51 178 119.5 256t164.5 78q57 0 103.5 -16.5 t85.5 -37t70.5 -37t58.5 -16.5q16 0 28.5 12.5t21.5 28t13 30.5t6 24h37h81h62h54z" />
<glyph unicode="&#xd2;" horiz-adv-x="1513" d="M1491 725q0 -164 -56.5 -303t-156.5 -240.5t-239.5 -159t-305.5 -57.5q-133 0 -249.5 39t-206 114t-140.5 185.5t-51 251.5q0 164 56.5 303t155.5 240.5t238.5 159t305.5 57.5q131 0 249.5 -39t206.5 -114t140.5 -185.5t52.5 -251.5zM1079 721q0 125 -64.5 199.5 t-193.5 74.5q-84 0 -145.5 -41t-101 -104.5t-58 -140t-18.5 -150.5q0 -121 64.5 -197.5t193.5 -76.5q84 0 144.5 41t100 105.5t59 141t19.5 148.5zM813 1366l-295 383h414l123 -383h-242z" />
<glyph unicode="&#xd3;" horiz-adv-x="1513" d="M1491 725q0 -164 -56.5 -303t-156.5 -240.5t-239.5 -159t-305.5 -57.5q-133 0 -249.5 39t-206 114t-140.5 185.5t-51 251.5q0 164 56.5 303t155.5 240.5t238.5 159t305.5 57.5q131 0 249.5 -39t206.5 -114t140.5 -185.5t52.5 -251.5zM1079 721q0 125 -64.5 199.5 t-193.5 74.5q-84 0 -145.5 -41t-101 -104.5t-58 -140t-18.5 -150.5q0 -121 64.5 -197.5t193.5 -76.5q84 0 144.5 41t100 105.5t59 141t19.5 148.5zM1038 1366h-241l270 383h418z" />
<glyph unicode="&#xd4;" horiz-adv-x="1513" d="M1491 725q0 -164 -56.5 -303t-156.5 -240.5t-239.5 -159t-305.5 -57.5q-133 0 -249.5 39t-206 114t-140.5 185.5t-51 251.5q0 164 56.5 303t155.5 240.5t238.5 159t305.5 57.5q131 0 249.5 -39t206.5 -114t140.5 -185.5t52.5 -251.5zM1079 721q0 125 -64.5 199.5 t-193.5 74.5q-84 0 -145.5 -41t-101 -104.5t-58 -140t-18.5 -150.5q0 -121 64.5 -197.5t193.5 -76.5q84 0 144.5 41t100 105.5t59 141t19.5 148.5zM1038 1346l-82 202h-4l-155 -202h-303l317 383h340l174 -383h-287z" />
<glyph unicode="&#xd5;" horiz-adv-x="1513" d="M1491 725q0 -164 -56.5 -303t-156.5 -240.5t-239.5 -159t-305.5 -57.5q-133 0 -249.5 39t-206 114t-140.5 185.5t-51 251.5q0 164 56.5 303t155.5 240.5t238.5 159t305.5 57.5q131 0 249.5 -39t206.5 -114t140.5 -185.5t52.5 -251.5zM1079 721q0 125 -64.5 199.5 t-193.5 74.5q-84 0 -145.5 -41t-101 -104.5t-58 -140t-18.5 -150.5q0 -121 64.5 -197.5t193.5 -76.5q84 0 144.5 41t100 105.5t59 141t19.5 148.5zM1395 1692q-53 -180 -120 -260t-165 -80q-57 0 -103 17t-85 39t-71 39t-58 17q-16 0 -28.5 -12t-21 -27.5t-11.5 -31 t-3 -23.5h-240q51 178 120 256t165 78q57 0 103.5 -16.5t85 -37t70.5 -37t59 -16.5q16 0 28.5 12.5t21.5 28t13 30.5t6 24h37h81h62h54z" />
<glyph unicode="&#xd6;" horiz-adv-x="1513" d="M1491 725q0 -164 -56.5 -303t-156.5 -240.5t-239.5 -159t-305.5 -57.5q-133 0 -249.5 39t-206 114t-140.5 185.5t-51 251.5q0 164 56.5 303t155.5 240.5t238.5 159t305.5 57.5q131 0 249.5 -39t206.5 -114t140.5 -185.5t52.5 -251.5zM1079 721q0 125 -64.5 199.5 t-193.5 74.5q-84 0 -145.5 -41t-101 -104.5t-58 -140t-18.5 -150.5q0 -121 64.5 -197.5t193.5 -76.5q84 0 144.5 41t100 105.5t59 141t19.5 148.5zM1380 1528q0 -90 -49 -132t-133 -42q-82 0 -132 42t-50 132t50 132t132 42q84 0 133 -42t49 -132zM875 1528 q0 -90 -50.5 -132t-132.5 -42q-84 0 -134 42t-50 132t50 132t134 42q82 0 132.5 -42t50.5 -132z" />
<glyph unicode="&#xd7;" horiz-adv-x="1118" d="M852 0l-293 295l-293 -295l-200 201l296 291l-299 294l201 201l295 -299l295 299l201 -201l-299 -292l297 -293z" />
<glyph unicode="&#xd8;" horiz-adv-x="1513" d="M1491 745q0 -164 -56.5 -306t-156.5 -247.5t-239.5 -166t-305.5 -60.5q-205 0 -366 84l-78 -94q-35 -41 -80 -92h-164l217 258q-82 72 -129 175t-47 239q0 164 56.5 306t155.5 247.5t238.5 166t305.5 60.5q100 0 191 -20.5t169 -61.5l156 184h168l-215 -254 q84 -72 132 -176.5t48 -241.5zM977 952q-59 43 -156 43q-84 0 -145.5 -41t-101 -104.5t-58 -140t-18.5 -150.5q0 -76 24 -133zM1051 864q-129 -147 -230 -264l-229 -266q66 -49 164 -49q84 0 144.5 41t100 105.5t59 141t19.5 148.5q1 80 -28 143z" />
<glyph unicode="&#xd9;" horiz-adv-x="1404" d="M670 -31q-289 0 -434.5 117t-147.5 317q0 35 8 83.5t17 86.5l139 707h403l-137 -715q-4 -27 -10 -52.5t-6 -53.5q0 -78 44 -123t146 -45q96 0 138 54t61 149l153 786h402l-156 -803q-53 -268 -212.5 -388t-407.5 -120zM752 1346l-295 383h413l123 -383h-241z" />
<glyph unicode="&#xda;" horiz-adv-x="1404" d="M670 -31q-289 0 -434.5 117t-147.5 317q0 35 8 83.5t17 86.5l139 707h403l-137 -715q-4 -27 -10 -52.5t-6 -53.5q0 -78 44 -123t146 -45q96 0 138 54t61 149l153 786h402l-156 -803q-53 -268 -212.5 -388t-407.5 -120zM954 1346h-241l270 383h418z" />
<glyph unicode="&#xdb;" horiz-adv-x="1404" d="M670 -31q-289 0 -434.5 117t-147.5 317q0 35 8 83.5t17 86.5l139 707h403l-137 -715q-4 -27 -10 -52.5t-6 -53.5q0 -78 44 -123t146 -45q96 0 138 54t61 149l153 786h402l-156 -803q-53 -268 -212.5 -388t-407.5 -120zM977 1346l-82 202h-4l-156 -202h-303l318 383h340 l174 -383h-287z" />
<glyph unicode="&#xdc;" horiz-adv-x="1404" d="M670 -31q-289 0 -434.5 117t-147.5 317q0 35 8 83.5t17 86.5l139 707h403l-137 -715q-4 -27 -10 -52.5t-6 -53.5q0 -78 44 -123t146 -45q96 0 138 54t61 149l153 786h402l-156 -803q-53 -268 -212.5 -388t-407.5 -120zM1294 1528q0 -90 -49 -132t-133 -42q-82 0 -132 42 t-50 132t50 132t132 42q84 0 133 -42t49 -132zM789 1528q0 -90 -50.5 -132t-132.5 -42q-84 0 -134 42t-50 132t50 132t134 42q82 0 132.5 -42t50.5 -132z" />
<glyph unicode="&#xdd;" horiz-adv-x="1327" d="M864 473l-92 -473h-397l92 475l-291 805h410l137 -461l307 461h434zM895 1346h-242l271 383h417z" />
<glyph unicode="&#xde;" horiz-adv-x="1277" d="M1253 686q0 -104 -36.5 -196.5t-113.5 -161t-194.5 -108.5t-279.5 -40h-162l-35 -180h-403l247 1280h404l-31 -164h78q121 0 218 -34.5t166 -93t105.5 -136.5t36.5 -166zM840 668q0 61 -47.5 102t-141.5 41l-76 -2l-63 -330h121q55 0 94 16.5t63.5 43t37 60.5t12.5 69z " />
<glyph unicode="&#xdf;" horiz-adv-x="1423" d="M195 645l-170 10l12 248l211 45l20 101q20 98 69.5 168.5t122 116.5t166 68.5t199.5 22.5q113 0 208 -26.5t164 -74.5t106.5 -113.5t37.5 -145.5q0 -102 -37.5 -155.5t-83.5 -81t-84 -42t-38 -41.5q0 -18 44 -43.5t96 -68.5t96 -110.5t44 -170.5q0 -84 -32.5 -153.5 t-90 -120.5t-135.5 -80t-168 -29q-139 0 -235 30t-174 71l98 278q47 -35 94 -59.5t109 -24.5q51 0 80.5 23.5t29.5 74.5q0 37 -33.5 68t-73.5 63.5t-74 73.5t-34 99q0 59 32 104t70 83t69.5 74t31.5 79q0 59 -37 93t-100 34t-105.5 -35t-56.5 -107l-197 -991h-380z" />
<glyph unicode="&#xe0;" horiz-adv-x="1110" d="M602 408q-111 -2 -169 -27t-58 -84q0 -39 25.5 -61.5t68.5 -22.5q29 0 57.5 13.5t44.5 29.5zM637 578q25 123 -160 122q-80 0 -162 -19t-147 -44l-33 287q72 27 178.5 46t223.5 19q174 0 279.5 -40t157.5 -106.5t59 -153.5t-15 -179l-41 -186q-8 -37 3 -51.5t50 -18.5 l-88 -272q-188 -23 -277.5 18t-99.5 129h-2q-47 -59 -115.5 -107.5t-175.5 -48.5q-61 0 -111 21.5t-85 58.5t-53.5 84t-18.5 99q0 74 39 138t117 109t195.5 65.5t277.5 8.5zM535 1085l-295 383h413l123 -383h-241z" />
<glyph unicode="&#xe1;" horiz-adv-x="1110" d="M602 408q-111 -2 -169 -27t-58 -84q0 -39 25.5 -61.5t68.5 -22.5q29 0 57.5 13.5t44.5 29.5zM637 578q25 123 -160 122q-80 0 -162 -19t-147 -44l-33 287q72 27 178.5 46t223.5 19q174 0 279.5 -40t157.5 -106.5t59 -153.5t-15 -179l-41 -186q-8 -37 3 -51.5t50 -18.5 l-88 -272q-188 -23 -277.5 18t-99.5 129h-2q-47 -59 -115.5 -107.5t-175.5 -48.5q-61 0 -111 21.5t-85 58.5t-53.5 84t-18.5 99q0 74 39 138t117 109t195.5 65.5t277.5 8.5zM713 1085h-242l271 383h417z" />
<glyph unicode="&#xe2;" horiz-adv-x="1110" d="M602 408q-111 -2 -169 -27t-58 -84q0 -39 25.5 -61.5t68.5 -22.5q29 0 57.5 13.5t44.5 29.5zM637 578q25 123 -160 122q-80 0 -162 -19t-147 -44l-33 287q72 27 178.5 46t223.5 19q174 0 279.5 -40t157.5 -106.5t59 -153.5t-15 -179l-41 -186q-8 -37 3 -51.5t50 -18.5 l-88 -272q-188 -23 -277.5 18t-99.5 129h-2q-47 -59 -115.5 -107.5t-175.5 -48.5q-61 0 -111 21.5t-85 58.5t-53.5 84t-18.5 99q0 74 39 138t117 109t195.5 65.5t277.5 8.5zM757 1085l-81 203h-5l-155 -203h-303l317 383h340l174 -383h-287z" />
<glyph unicode="&#xe3;" horiz-adv-x="1110" d="M602 408q-111 -2 -169 -27t-58 -84q0 -39 25.5 -61.5t68.5 -22.5q29 0 57.5 13.5t44.5 29.5zM637 578q25 123 -160 122q-80 0 -162 -19t-147 -44l-33 287q72 27 178.5 46t223.5 19q174 0 279.5 -40t157.5 -106.5t59 -153.5t-15 -179l-41 -186q-8 -37 3 -51.5t50 -18.5 l-88 -272q-188 -23 -277.5 18t-99.5 129h-2q-47 -59 -115.5 -107.5t-175.5 -48.5q-61 0 -111 21.5t-85 58.5t-53.5 84t-18.5 99q0 74 39 138t117 109t195.5 65.5t277.5 8.5zM1153 1432q-53 -180 -120 -260t-165 -80q-57 0 -103 17t-85 38.5t-71 39t-58 17.5q-16 0 -28.5 -12 t-21 -27.5t-11.5 -31t-3 -23.5h-239q51 178 119.5 256t164.5 78q57 0 103.5 -16.5t85.5 -37t70.5 -37t58.5 -16.5q16 0 28.5 12.5t21.5 28t13 30.5t6 24h37h81h62h54z" />
<glyph unicode="&#xe4;" horiz-adv-x="1110" d="M602 408q-111 -2 -169 -27t-58 -84q0 -39 25.5 -61.5t68.5 -22.5q29 0 57.5 13.5t44.5 29.5zM637 578q25 123 -160 122q-80 0 -162 -19t-147 -44l-33 287q72 27 178.5 46t223.5 19q174 0 279.5 -40t157.5 -106.5t59 -153.5t-15 -179l-41 -186q-8 -37 3 -51.5t50 -18.5 l-88 -272q-188 -23 -277.5 18t-99.5 129h-2q-47 -59 -115.5 -107.5t-175.5 -48.5q-61 0 -111 21.5t-85 58.5t-53.5 84t-18.5 99q0 74 39 138t117 109t195.5 65.5t277.5 8.5zM1116 1248q0 -90 -49 -132t-133 -42q-82 0 -132 42t-50 132t50 132t132 42q84 0 133 -42t49 -132z M611 1248q0 -90 -50.5 -132t-132.5 -42q-84 0 -134 42t-50 132t50 132t134 42q82 0 132.5 -42t50.5 -132z" />
<glyph unicode="&#xe5;" horiz-adv-x="1110" d="M602 408q-111 -2 -169 -27t-58 -84q0 -39 25.5 -61.5t68.5 -22.5q29 0 57.5 13.5t44.5 29.5zM637 578q25 123 -160 122q-80 0 -162 -19t-147 -44l-33 287q72 27 178.5 46t223.5 19q174 0 279.5 -40t157.5 -106.5t59 -153.5t-15 -179l-41 -186q-8 -37 3 -51.5t50 -18.5 l-88 -272q-188 -23 -277.5 18t-99.5 129h-2q-47 -59 -115.5 -107.5t-175.5 -48.5q-61 0 -111 21.5t-85 58.5t-53.5 84t-18.5 99q0 74 39 138t117 109t195.5 65.5t277.5 8.5zM985 1333q0 -63 -28 -112.5t-74 -83t-106.5 -51t-123.5 -17.5q-55 0 -108.5 14.5t-93.5 44 t-64.5 72.5t-24.5 100q0 63 27.5 112.5t74 83.5t106.5 52.5t124 18.5q57 0 110.5 -14.5t93.5 -44t63.5 -74t23.5 -101.5zM852 1331q0 72 -48.5 101.5t-117.5 29.5q-78 0 -135.5 -39t-57.5 -116q0 -68 51.5 -98.5t118.5 -30.5q76 0 132.5 39.5t56.5 113.5z" />
<glyph unicode="&#xe6;" horiz-adv-x="1673" d="M903 920q66 39 137.5 54t157.5 15q199 0 314.5 -87t115.5 -265q0 -53 -14.5 -122t-32.5 -118l-598 -8v-10q0 -35 18.5 -60.5t48 -43t66.5 -26.5t76 -9q82 0 163 25.5t130 53.5l45 -286q-66 -27 -164 -45.5t-197 -18.5q-174 0 -288.5 51.5t-178.5 147.5 q-82 -96 -183 -147.5t-234 -51.5q-66 0 -118 22.5t-88 59.5t-55.5 85t-19.5 100q0 74 36 138t112.5 109t197.5 65.5t291 8.5l4 21q25 123 -164 122q-35 0 -75.5 -5t-82.5 -14t-82 -20.5t-73 -23.5l-33 287q72 27 179.5 46t224.5 19q123 0 213 -17t151 -52zM635 403 q-260 12 -260 -116q0 -39 28.5 -61.5t69.5 -22.5q51 0 97 22.5t79 63.5q-8 27 -10 57t-4 57zM1249 557q8 20 13.5 52t5.5 53q0 43 -21.5 67.5t-62.5 24.5q-57 0 -101.5 -50.5t-62.5 -146.5h229z" />
<glyph unicode="&#xe7;" horiz-adv-x="1032" d="M502 -90q102 -14 163.5 -64.5t61.5 -140.5q0 -59 -28.5 -109.5t-90 -88t-157 -61.5t-230.5 -26l17 162q84 -4 137 2t82.5 20.5t41 34t11.5 44.5q0 49 -56.5 69.5t-160.5 26.5v115l133 88q-84 16 -153.5 53t-120 92t-78 128t-27.5 163q0 123 45 228.5t125 181t188.5 118.5 t235.5 43q117 0 223.5 -25.5t186.5 -72.5l-127 -277q-66 41 -126.5 63.5t-127.5 22.5q-59 0 -103.5 -26.5t-73 -66.5t-43 -88t-14.5 -91q0 -82 55.5 -126t147.5 -44q55 0 115.5 13.5t117.5 35.5l48 -274q-63 -25 -143.5 -44.5t-184.5 -21.5q-27 -16 -49.5 -31.5t-40.5 -25.5 z" />
<glyph unicode="&#xe8;" horiz-adv-x="1116" d="M426 379q0 -35 18.5 -60.5t48 -43t66.5 -26.5t76 -9q82 0 163 25.5t130 53.5l45 -286q-66 -27 -165 -45.5t-206 -18.5q-129 0 -231.5 31t-175 89t-110.5 143t-38 194q0 123 46 226.5t126 178t188.5 116.5t233.5 42q199 0 314.5 -87t115.5 -265q0 -53 -14.5 -122 t-32.5 -118l-598 -8v-10zM692 557q8 20 13.5 52t5.5 53q0 43 -21.5 67.5t-62.5 24.5q-57 0 -101.5 -50.5t-62.5 -146.5h229zM578 1085l-295 383h413l123 -383h-241z" />
<glyph unicode="&#xe9;" horiz-adv-x="1116" d="M426 379q0 -35 18.5 -60.5t48 -43t66.5 -26.5t76 -9q82 0 163 25.5t130 53.5l45 -286q-66 -27 -165 -45.5t-206 -18.5q-129 0 -231.5 31t-175 89t-110.5 143t-38 194q0 123 46 226.5t126 178t188.5 116.5t233.5 42q199 0 314.5 -87t115.5 -265q0 -53 -14.5 -122 t-32.5 -118l-598 -8v-10zM692 557q8 20 13.5 52t5.5 53q0 43 -21.5 67.5t-62.5 24.5q-57 0 -101.5 -50.5t-62.5 -146.5h229zM772 1085h-242l271 383h417z" />
<glyph unicode="&#xea;" horiz-adv-x="1116" d="M426 379q0 -35 18.5 -60.5t48 -43t66.5 -26.5t76 -9q82 0 163 25.5t130 53.5l45 -286q-66 -27 -165 -45.5t-206 -18.5q-129 0 -231.5 31t-175 89t-110.5 143t-38 194q0 123 46 226.5t126 178t188.5 116.5t233.5 42q199 0 314.5 -87t115.5 -265q0 -53 -14.5 -122 t-32.5 -118l-598 -8v-10zM692 557q8 20 13.5 52t5.5 53q0 43 -21.5 67.5t-62.5 24.5q-57 0 -101.5 -50.5t-62.5 -146.5h229zM765 1085l-81 203h-5l-155 -203h-303l317 383h340l174 -383h-287z" />
<glyph unicode="&#xeb;" horiz-adv-x="1116" d="M426 379q0 -35 18.5 -60.5t48 -43t66.5 -26.5t76 -9q82 0 163 25.5t130 53.5l45 -286q-66 -27 -165 -45.5t-206 -18.5q-129 0 -231.5 31t-175 89t-110.5 143t-38 194q0 123 46 226.5t126 178t188.5 116.5t233.5 42q199 0 314.5 -87t115.5 -265q0 -53 -14.5 -122 t-32.5 -118l-598 -8v-10zM692 557q8 20 13.5 52t5.5 53q0 43 -21.5 67.5t-62.5 24.5q-57 0 -101.5 -50.5t-62.5 -146.5h229zM1122 1248q0 -90 -49 -132t-133 -42q-82 0 -132 42t-50 132t50 132t132 42q84 0 133 -42t49 -132zM617 1248q0 -90 -50.5 -132t-132.5 -42 q-84 0 -134 42t-50 132t50 132t134 42q82 0 132.5 -42t50.5 -132z" />
<glyph unicode="&#xec;" horiz-adv-x="583" d="M12 0l187 961l399 26l-192 -987h-394zM324 1085l-295 383h413l123 -383h-241z" />
<glyph unicode="&#xed;" horiz-adv-x="583" d="M12 0l187 961l399 26l-192 -987h-394zM492 1085h-242l271 383h417z" />
<glyph unicode="&#xee;" horiz-adv-x="583" d="M12 0l187 961l399 26l-192 -987h-394zM550 1085l-81 203h-5l-155 -203h-303l317 383h340l174 -383h-287z" />
<glyph unicode="&#xef;" horiz-adv-x="583" d="M12 0l187 961l399 26l-192 -987h-394zM882 1248q0 -90 -49 -132t-133 -42q-82 0 -132 42t-50 132t50 132t132 42q84 0 133 -42t49 -132zM377 1248q0 -90 -50.5 -132t-132.5 -42q-84 0 -134 42t-50 132t50 132t134 42q82 0 132.5 -42t50.5 -132z" />
<glyph unicode="&#xf0;" horiz-adv-x="1220" d="M1176 662q0 -145 -44.5 -271.5t-126 -220.5t-197.5 -148.5t-259 -54.5q-104 0 -197.5 33t-162 93.5t-107.5 144.5t-39 188q0 129 45 228.5t114.5 167t155.5 102t166 34.5q127 0 217 -79l4 2q-33 53 -58 97t-52 83l-248 -66l-49 195l164 43q-29 31 -60.5 64.5t-72.5 72.5 l460 35l64 -68l258 68l49 -195l-178 -47q72 -117 113 -243.5t41 -257.5zM758 588q0 18 -1 33.5t-3 31.5q-23 25 -54.5 40.5t-72.5 15.5q-39 0 -74 -30t-60.5 -74t-41 -97t-15.5 -100q0 -84 42 -124t95 -40q37 0 71 27.5t59.5 73.5t40 108.5t14.5 134.5z" />
<glyph unicode="&#xf1;" horiz-adv-x="1202" d="M635 0l100 516q4 16 6 31.5t2 30.5q0 41 -20.5 67.5t-73.5 26.5q-41 0 -74.5 -24.5t-62.5 -65.5l-113 -582h-393l180 932l404 47l-31 -162q33 33 72 63.5t81 55.5t87 39t88 14q70 0 121 -21.5t84.5 -58.5t49 -86t15.5 -102q0 -41 -6 -80l-123 -641h-393zM1211 1432 q-53 -180 -120 -260t-165 -80q-57 0 -103 17t-85 38.5t-71 39t-58 17.5q-16 0 -28.5 -12t-21 -27.5t-11.5 -31t-3 -23.5h-239q51 178 119.5 256t164.5 78q57 0 103.5 -16.5t85.5 -37t70.5 -37t58.5 -16.5q16 0 28.5 12.5t21.5 28t13 30.5t6 24h37h81h62h54z" />
<glyph unicode="&#xf2;" horiz-adv-x="1189" d="M1128 528q0 -119 -40.5 -221t-115.5 -178t-179.5 -119t-233.5 -43q-113 0 -207 31t-162.5 89t-106.5 144t-38 199q0 119 42 221.5t119 178t183.5 117.5t233.5 42q113 0 206 -32.5t159.5 -92t103 -145t36.5 -191.5zM737 559q0 80 -30.5 120t-85.5 40q-47 0 -82 -31 t-58.5 -79t-35 -104t-11.5 -108q0 -80 33 -119.5t90 -39.5q39 0 72 24.5t57.5 68.5t37.5 102t13 126zM580 1085l-295 383h413l123 -383h-241z" />
<glyph unicode="&#xf3;" horiz-adv-x="1189" d="M1128 528q0 -119 -40.5 -221t-115.5 -178t-179.5 -119t-233.5 -43q-113 0 -207 31t-162.5 89t-106.5 144t-38 199q0 119 42 221.5t119 178t183.5 117.5t233.5 42q113 0 206 -32.5t159.5 -92t103 -145t36.5 -191.5zM737 559q0 80 -30.5 120t-85.5 40q-47 0 -82 -31 t-58.5 -79t-35 -104t-11.5 -108q0 -80 33 -119.5t90 -39.5q39 0 72 24.5t57.5 68.5t37.5 102t13 126zM754 1085h-242l271 383h417z" />
<glyph unicode="&#xf4;" horiz-adv-x="1189" d="M1128 528q0 -119 -40.5 -221t-115.5 -178t-179.5 -119t-233.5 -43q-113 0 -207 31t-162.5 89t-106.5 144t-38 199q0 119 42 221.5t119 178t183.5 117.5t233.5 42q113 0 206 -32.5t159.5 -92t103 -145t36.5 -191.5zM737 559q0 80 -30.5 120t-85.5 40q-47 0 -82 -31 t-58.5 -79t-35 -104t-11.5 -108q0 -80 33 -119.5t90 -39.5q39 0 72 24.5t57.5 68.5t37.5 102t13 126zM847 1085l-81 203h-5l-155 -203h-303l317 383h340l174 -383h-287z" />
<glyph unicode="&#xf5;" horiz-adv-x="1189" d="M1128 528q0 -119 -40.5 -221t-115.5 -178t-179.5 -119t-233.5 -43q-113 0 -207 31t-162.5 89t-106.5 144t-38 199q0 119 42 221.5t119 178t183.5 117.5t233.5 42q113 0 206 -32.5t159.5 -92t103 -145t36.5 -191.5zM737 559q0 80 -30.5 120t-85.5 40q-47 0 -82 -31 t-58.5 -79t-35 -104t-11.5 -108q0 -80 33 -119.5t90 -39.5q39 0 72 24.5t57.5 68.5t37.5 102t13 126zM1204 1432q-53 -180 -120 -260t-165 -80q-57 0 -103 17t-85 38.5t-71 39t-58 17.5q-16 0 -28.5 -12t-21 -27.5t-11.5 -31t-3 -23.5h-239q51 178 119.5 256t164.5 78 q57 0 103.5 -16.5t85.5 -37t70.5 -37t58.5 -16.5q16 0 28.5 12.5t21.5 28t13 30.5t6 24h37h81h62h54z" />
<glyph unicode="&#xf6;" horiz-adv-x="1189" d="M1128 528q0 -119 -40.5 -221t-115.5 -178t-179.5 -119t-233.5 -43q-113 0 -207 31t-162.5 89t-106.5 144t-38 199q0 119 42 221.5t119 178t183.5 117.5t233.5 42q113 0 206 -32.5t159.5 -92t103 -145t36.5 -191.5zM737 559q0 80 -30.5 120t-85.5 40q-47 0 -82 -31 t-58.5 -79t-35 -104t-11.5 -108q0 -80 33 -119.5t90 -39.5q39 0 72 24.5t57.5 68.5t37.5 102t13 126zM1175 1248q0 -90 -49 -132t-133 -42q-82 0 -132 42t-50 132t50 132t132 42q84 0 133 -42t49 -132zM670 1248q0 -90 -50.5 -132t-132.5 -42q-84 0 -134 42t-50 132t50 132 t134 42q82 0 132.5 -42t50.5 -132z" />
<glyph unicode="&#xf7;" horiz-adv-x="1120" d="M63 352l7 285h983l6 -285h-996zM741 82q0 -80 -49 -126t-131 -46t-131 46t-49 126t49 126t131 46t131 -46t49 -126zM741 907q0 -80 -49 -126t-131 -46t-131 46t-49 126t49 126t131 46t131 -46t49 -126z" />
<glyph unicode="&#xf8;" horiz-adv-x="1189" d="M1147 551q0 -123 -42 -229.5t-118 -185.5t-181.5 -124t-234.5 -45q-145 0 -266 51l-133 -155h-164l189 223q-70 59 -108 141t-38 191q0 123 43 228.5t121 181t185.5 118.5t234.5 43q156 0 270 -55l121 143h168l-180 -213q63 -57 98 -136t35 -177zM729 709q-35 37 -100 36 q-43 0 -80 -26.5t-63.5 -72.5t-42 -106.5t-15.5 -127.5v-26.5t2 -25.5zM776 545v20t-2 21l-295 -338q35 -33 92 -33q43 0 80 25.5t64.5 70.5t44 105.5t16.5 128.5z" />
<glyph unicode="&#xf9;" horiz-adv-x="1185" d="M575 958l-100 -516q-6 -31 -6 -59q0 -43 19.5 -69.5t72.5 -26.5q35 0 62.5 16t52.5 45l117 610h391l-185 -944l-399 -45l33 168q-25 -31 -60.5 -60.5t-76.5 -53t-87.5 -39t-89.5 -15.5q-76 0 -127 19.5t-81.5 54.5t-44 81t-13.5 99q0 61 13 123l114 612h395zM594 1085 l-295 383h413l123 -383h-241z" />
<glyph unicode="&#xfa;" horiz-adv-x="1185" d="M575 958l-100 -516q-6 -31 -6 -59q0 -43 19.5 -69.5t72.5 -26.5q35 0 62.5 16t52.5 45l117 610h391l-185 -944l-399 -45l33 168q-25 -31 -60.5 -60.5t-76.5 -53t-87.5 -39t-89.5 -15.5q-76 0 -127 19.5t-81.5 54.5t-44 81t-13.5 99q0 61 13 123l114 612h395zM834 1085 h-242l271 383h417z" />
<glyph unicode="&#xfb;" horiz-adv-x="1185" d="M575 958l-100 -516q-6 -31 -6 -59q0 -43 19.5 -69.5t72.5 -26.5q35 0 62.5 16t52.5 45l117 610h391l-185 -944l-399 -45l33 168q-25 -31 -60.5 -60.5t-76.5 -53t-87.5 -39t-89.5 -15.5q-76 0 -127 19.5t-81.5 54.5t-44 81t-13.5 99q0 61 13 123l114 612h395zM811 1085 l-81 203h-5l-155 -203h-303l317 383h340l174 -383h-287z" />
<glyph unicode="&#xfc;" horiz-adv-x="1185" d="M575 958l-100 -516q-6 -31 -6 -59q0 -43 19.5 -69.5t72.5 -26.5q35 0 62.5 16t52.5 45l117 610h391l-185 -944l-399 -45l33 168q-25 -31 -60.5 -60.5t-76.5 -53t-87.5 -39t-89.5 -15.5q-76 0 -127 19.5t-81.5 54.5t-44 81t-13.5 99q0 61 13 123l114 612h395zM1148 1248 q0 -90 -49 -132t-133 -42q-82 0 -132 42t-50 132t50 132t132 42q84 0 133 -42t49 -132zM643 1248q0 -90 -50.5 -132t-132.5 -42q-84 0 -134 42t-50 132t50 132t134 42q82 0 132.5 -42t50.5 -132z" />
<glyph unicode="&#xfd;" horiz-adv-x="1069" d="M-41 -37q43 -29 72.5 -45t72.5 -16q41 0 63.5 10t43.5 45l6 10l-166 991h398l51 -596l252 596h407l-479 -935l-66 -121q-96 -178 -207.5 -248t-263.5 -70q-92 0 -180 33t-156 74zM711 1085h-242l270 383h418z" />
<glyph unicode="&#xfe;" horiz-adv-x="1220" d="M569 877q41 41 102.5 76.5t145.5 35.5q72 0 135.5 -27.5t110.5 -82t74.5 -133t27.5 -183.5q0 -133 -41 -241.5t-112.5 -186.5t-171 -120t-217.5 -42q-66 0 -119 16.5t-103 41.5l-79 -426h-394l342 1755l398 26zM453 299q25 -20 54.5 -37.5t72.5 -17.5q45 0 80.5 24.5 t61.5 64.5t39 92t13 110q0 84 -36 128t-91 44q-43 0 -70.5 -14.5t-48.5 -30.5z" />
<glyph unicode="&#xff;" horiz-adv-x="1069" d="M-41 -37q43 -29 72.5 -45t72.5 -16q41 0 63.5 10t43.5 45l6 10l-166 991h398l51 -596l252 596h407l-479 -935l-66 -121q-96 -178 -207.5 -248t-263.5 -70q-92 0 -180 33t-156 74zM1079 1268q0 -90 -49 -132t-133 -42q-82 0 -132 42t-50 132t50 132t132 42q84 0 133 -42 t49 -132zM573 1268q0 -90 -50 -132t-132 -42q-84 0 -134 42t-50 132t50 132t134 42q82 0 132 -42t50 -132z" />
<glyph unicode="&#x100;" horiz-adv-x="1390" d="M1313 0h-398l-28 240h-449l-133 -240h-409l729 1280h505zM823 973l-225 -420h256zM524 1459l29 213h778l31 -213h-838z" />
<glyph unicode="&#x101;" horiz-adv-x="1110" d="M602 408q-111 -2 -169 -27t-58 -84q0 -39 25.5 -61.5t68.5 -22.5q29 0 57.5 13.5t44.5 29.5zM637 578q25 123 -160 122q-80 0 -162 -19t-147 -44l-33 287q72 27 178.5 46t223.5 19q174 0 279.5 -40t157.5 -106.5t59 -153.5t-15 -179l-41 -186q-8 -37 3 -51.5t50 -18.5 l-88 -272q-188 -23 -277.5 18t-99.5 129h-2q-47 -59 -115.5 -107.5t-175.5 -48.5q-61 0 -111 21.5t-85 58.5t-53.5 84t-18.5 99q0 74 39 138t117 109t195.5 65.5t277.5 8.5zM219 1137l29 213h778l31 -213h-838z" />
<glyph unicode="&#x102;" horiz-adv-x="1390" d="M1313 0h-398l-28 240h-449l-133 -240h-409l729 1280h505zM823 973l-225 -420h256zM1359 1780q-29 -113 -82 -188.5t-118.5 -121.5t-136 -65.5t-136.5 -19.5q-63 0 -126.5 19.5t-111.5 65.5t-73 122t-10 188l211 -4q2 -86 36.5 -135t106.5 -49q78 0 130 49t83 135l227 4v0 z" />
<glyph unicode="&#x103;" horiz-adv-x="1110" d="M602 408q-111 -2 -169 -27t-58 -84q0 -39 25.5 -61.5t68.5 -22.5q29 0 57.5 13.5t44.5 29.5zM637 578q25 123 -160 122q-80 0 -162 -19t-147 -44l-33 287q72 27 178.5 46t223.5 19q174 0 279.5 -40t157.5 -106.5t59 -153.5t-15 -179l-41 -186q-8 -37 3 -51.5t50 -18.5 l-88 -272q-188 -23 -277.5 18t-99.5 129h-2q-47 -59 -115.5 -107.5t-175.5 -48.5q-61 0 -111 21.5t-85 58.5t-53.5 84t-18.5 99q0 74 39 138t117 109t195.5 65.5t277.5 8.5zM1044 1458q-29 -113 -82 -188.5t-118.5 -121.5t-136 -65.5t-136.5 -19.5q-63 0 -126.5 19.5 t-111.5 65.5t-73 122t-10 188l211 -4q2 -86 36.5 -135t106.5 -49q78 0 130 49t83 135l227 4v0z" />
<glyph unicode="&#x104;" horiz-adv-x="1390" d="M1313 0q-63 -2 -121.5 -12.5t-104 -30.5t-75 -49t-33.5 -66q-10 -88 70 -88q29 0 57.5 7.5t50.5 17.5l14 -176q-49 -27 -106 -42.5t-135 -15.5q-121 0 -177.5 66.5t-37.5 167.5q14 78 68.5 132t131.5 89l-28 240h-449l-133 -240h-409l729 1280h505zM823 973l-225 -420 h256z" />
<glyph unicode="&#x105;" horiz-adv-x="1110" d="M637 578q25 123 -160 122q-80 0 -162 -19t-147 -44l-33 287q72 27 178.5 46t223.5 19q174 0 279.5 -40t157.5 -106.5t59 -153.5t-15 -179l-41 -186q-8 -37 3 -51.5t50 -18.5l-88 -272q-84 2 -146.5 -34t-76.5 -106q-8 -43 10.5 -65.5t58.5 -22.5q29 0 57.5 7.5t51.5 17.5 l14 -176q-49 -27 -106 -42.5t-135 -15.5q-121 0 -177.5 66.5t-37.5 167.5q14 78 71.5 133t135.5 90q-45 18 -69 51t-28 76h-2q-47 -59 -115.5 -107.5t-175.5 -48.5q-61 0 -111 21.5t-85 58.5t-53.5 84t-18.5 99q0 74 39 138t117 109t195.5 65.5t277.5 8.5zM602 408 q-111 -2 -169 -27t-58 -84q0 -39 25.5 -61.5t68.5 -22.5q29 0 57.5 13.5t44.5 29.5z" />
<glyph unicode="&#x106;" horiz-adv-x="1267" d="M1239 889q-98 37 -192.5 57.5t-184.5 20.5q-96 0 -166.5 -29t-115.5 -77t-66.5 -112.5t-21.5 -136.5q0 -82 23.5 -139t66.5 -93t101 -52.5t126 -16.5q76 0 150.5 18.5t146.5 47.5l59 -334q-104 -45 -196 -59.5t-183 -14.5q-166 0 -296 42t-221 120t-138 186.5t-47 243.5 q0 141 46 276.5t142.5 240t244 169t347.5 64.5q123 0 233.5 -18.5t213.5 -51.5zM877 1407h-242l271 383h417z" />
<glyph unicode="&#x107;" horiz-adv-x="1032" d="M920 33q-66 -27 -149 -46.5t-193 -19.5q-113 0 -209.5 30t-168 87t-112.5 141t-41 193q0 123 45 228.5t125 181t188.5 118.5t235.5 43q117 0 223.5 -25.5t186.5 -72.5l-127 -277q-66 41 -126.5 63.5t-127.5 22.5q-59 0 -103.5 -26.5t-73 -66.5t-43 -88t-14.5 -91 q0 -82 55.5 -126t147.5 -44q55 0 115.5 13.5t117.5 35.5l48 -274v0zM658 1085h-242l271 383h417z" />
<glyph unicode="&#x108;" horiz-adv-x="1267" d="M1239 889q-98 37 -192.5 57.5t-184.5 20.5q-96 0 -166.5 -29t-115.5 -77t-66.5 -112.5t-21.5 -136.5q0 -82 23.5 -139t66.5 -93t101 -52.5t126 -16.5q76 0 150.5 18.5t146.5 47.5l59 -334q-104 -45 -196 -59.5t-183 -14.5q-166 0 -296 42t-221 120t-138 186.5t-47 243.5 q0 141 46 276.5t142.5 240t244 169t347.5 64.5q123 0 233.5 -18.5t213.5 -51.5zM946 1407l-81 203h-5l-155 -203h-303l317 383h340l174 -383h-287z" />
<glyph unicode="&#x109;" horiz-adv-x="1032" d="M920 33q-66 -27 -149 -46.5t-193 -19.5q-113 0 -209.5 30t-168 87t-112.5 141t-41 193q0 123 45 228.5t125 181t188.5 118.5t235.5 43q117 0 223.5 -25.5t186.5 -72.5l-127 -277q-66 41 -126.5 63.5t-127.5 22.5q-59 0 -103.5 -26.5t-73 -66.5t-43 -88t-14.5 -91 q0 -82 55.5 -126t147.5 -44q55 0 115.5 13.5t117.5 35.5l48 -274v0zM765 1085l-81 203h-5l-155 -203h-303l317 383h340l174 -383h-287z" />
<glyph unicode="&#x10a;" horiz-adv-x="1267" d="M1239 889q-98 37 -192.5 57.5t-184.5 20.5q-96 0 -166.5 -29t-115.5 -77t-66.5 -112.5t-21.5 -136.5q0 -82 23.5 -139t66.5 -93t101 -52.5t126 -16.5q76 0 150.5 18.5t146.5 47.5l59 -334q-104 -45 -196 -59.5t-183 -14.5q-166 0 -296 42t-221 120t-138 186.5t-47 243.5 q0 141 46 276.5t142.5 240t244 169t347.5 64.5q123 0 233.5 -18.5t213.5 -51.5zM1086 1565q-8 -86 -63.5 -145.5t-147.5 -59.5t-142.5 59.5t-46.5 145.5q2 39 19.5 76t46.5 66.5t67.5 47t86.5 17.5q45 0 80.5 -17.5t58 -46t34 -65.5t7.5 -78z" />
<glyph unicode="&#x10b;" horiz-adv-x="1032" d="M920 33q-66 -27 -149 -46.5t-193 -19.5q-113 0 -209.5 30t-168 87t-112.5 141t-41 193q0 123 45 228.5t125 181t188.5 118.5t235.5 43q117 0 223.5 -25.5t186.5 -72.5l-127 -277q-66 41 -126.5 63.5t-127.5 22.5q-59 0 -103.5 -26.5t-73 -66.5t-43 -88t-14.5 -91 q0 -82 55.5 -126t147.5 -44q55 0 115.5 13.5t117.5 35.5l48 -274v0zM866 1243q-8 -86 -63.5 -145.5t-147.5 -59.5t-142.5 59.5t-46.5 145.5q2 39 19.5 76t46.5 66.5t67.5 47t86.5 17.5q45 0 80.5 -17.5t58 -46t34 -65.5t7.5 -78z" />
<glyph unicode="&#x10c;" horiz-adv-x="1267" d="M1239 889q-98 37 -192.5 57.5t-184.5 20.5q-96 0 -166.5 -29t-115.5 -77t-66.5 -112.5t-21.5 -136.5q0 -82 23.5 -139t66.5 -93t101 -52.5t126 -16.5q76 0 150.5 18.5t146.5 47.5l59 -334q-104 -45 -196 -59.5t-183 -14.5q-166 0 -296 42t-221 120t-138 186.5t-47 243.5 q0 141 46 276.5t142.5 240t244 169t347.5 64.5q123 0 233.5 -18.5t213.5 -51.5zM741 1790l80 -204h4l154 204h307l-322 -383h-340l-170 383h287z" />
<glyph unicode="&#x10d;" horiz-adv-x="1032" d="M920 33q-66 -27 -149 -46.5t-193 -19.5q-113 0 -209.5 30t-168 87t-112.5 141t-41 193q0 123 45 228.5t125 181t188.5 118.5t235.5 43q117 0 223.5 -25.5t186.5 -72.5l-127 -277q-66 41 -126.5 63.5t-127.5 22.5q-59 0 -103.5 -26.5t-73 -66.5t-43 -88t-14.5 -91 q0 -82 55.5 -126t147.5 -44q55 0 115.5 13.5t117.5 35.5l48 -274v0zM581 1468l80 -204h4l154 204h307l-322 -383h-340l-170 383h287z" />
<glyph unicode="&#x10e;" horiz-adv-x="1433" d="M1415 733q0 -145 -46 -277t-148.5 -233.5t-266 -162t-397.5 -60.5h-528l247 1280h480q141 0 261 -36t208 -104.5t139 -171t51 -235.5zM1008 715q0 129 -81 192.5t-210 63.5h-96l-129 -662h124q176 0 284 100.5t108 305.5zM663 1790l80 -204h4l154 204h307l-322 -383h-340 l-170 383h287z" />
<glyph unicode="&#x10f;" horiz-adv-x="1826" d="M901 1360l397 26l-270 -1386h-389l12 82q-41 -41 -106.5 -77t-157.5 -36q-68 0 -129 28t-107.5 81t-74 132t-27.5 183q0 133 42 241.5t116 186.5t174 121t219 43q66 0 119 -16.5t102 -40.5zM768 659q-25 20 -54.5 38t-72.5 18q-45 0 -81 -24.5t-61.5 -64.5t-39 -92.5 t-13.5 -109.5q0 -84 36 -129t91 -45q43 0 71 15.5t48 31.5zM1407 1173q16 94 79 151.5t165 57.5q57 0 104.5 -22.5t82 -60.5t54 -88t19.5 -107q0 -90 -44 -166t-111.5 -134.5t-148.5 -99.5t-154 -65l-142 155q27 10 68 33t80 53.5t66.5 66.5t27.5 71q0 61 -40 93.5 t-106 61.5z" />
<glyph unicode="&#x110;" horiz-adv-x="1515" d="M66 496v301h198l94 483h480q141 0 261 -36t208 -104.5t139 -171t51 -235.5q0 -145 -46 -277t-148.5 -233.5t-266.5 -162t-397 -60.5h-528l96 496h-141zM864 797v-301h-254l-37 -187h125q176 0 284 100.5t108 305.5q0 129 -81 192.5t-210 63.5h-97l-34 -174h196z" />
<glyph unicode="&#x111;" horiz-adv-x="1216" d="M844 1055l-230 -2l52 213h217l18 94l397 26l-24 -120h129l8 -213h-178l-205 -1053h-389l12 82q-41 -41 -106.5 -77t-157.5 -36q-68 0 -129 28t-107.5 81t-74 132t-27.5 183q0 133 42 241.5t116 186.5t174 121t219 43q66 0 119 -16.5t102 -40.5zM768 659q-25 20 -54.5 38 t-72.5 18q-45 0 -81 -24.5t-61.5 -64.5t-39 -92.5t-13.5 -109.5q0 -84 36 -129t91 -45q43 0 71 15.5t48 31.5z" />
<glyph unicode="&#x112;" horiz-adv-x="1202" d="M29 0l247 1280h1000l-59 -313h-607l-32 -168h499l-61 -314h-500l-33 -172h607l-62 -313h-999zM374 1459l29 213h778l31 -213h-838z" />
<glyph unicode="&#x113;" horiz-adv-x="1116" d="M426 379q0 -35 18.5 -60.5t48 -43t66.5 -26.5t76 -9q82 0 163 25.5t130 53.5l45 -286q-66 -27 -165 -45.5t-206 -18.5q-129 0 -231.5 31t-175 89t-110.5 143t-38 194q0 123 46 226.5t126 178t188.5 116.5t233.5 42q199 0 314.5 -87t115.5 -265q0 -53 -14.5 -122 t-32.5 -118l-598 -8v-10zM692 557q8 20 13.5 52t5.5 53q0 43 -21.5 67.5t-62.5 24.5q-57 0 -101.5 -50.5t-62.5 -146.5h229zM270 1137l29 213h778l31 -213h-838z" />
<glyph unicode="&#x114;" horiz-adv-x="1202" d="M29 0l247 1280h1000l-59 -313h-607l-32 -168h499l-61 -314h-500l-33 -172h607l-62 -313h-999zM1257 1780q-29 -113 -82 -188.5t-118.5 -121.5t-136 -65.5t-136.5 -19.5q-63 0 -126.5 19.5t-111.5 65.5t-73 122t-10 188l211 -4q2 -86 36.5 -135t106.5 -49q78 0 130 49 t83 135l227 4v0z" />
<glyph unicode="&#x115;" horiz-adv-x="1116" d="M426 379q0 -35 18.5 -60.5t48 -43t66.5 -26.5t76 -9q82 0 163 25.5t130 53.5l45 -286q-66 -27 -165 -45.5t-206 -18.5q-129 0 -231.5 31t-175 89t-110.5 143t-38 194q0 123 46 226.5t126 178t188.5 116.5t233.5 42q199 0 314.5 -87t115.5 -265q0 -53 -14.5 -122 t-32.5 -118l-598 -8v-10zM692 557q8 20 13.5 52t5.5 53q0 43 -21.5 67.5t-62.5 24.5q-57 0 -101.5 -50.5t-62.5 -146.5h229zM1126 1458q-29 -113 -82 -188.5t-118.5 -121.5t-136 -65.5t-136.5 -19.5q-63 0 -126.5 19.5t-111.5 65.5t-73 122t-10 188l211 -4q2 -86 36.5 -135 t106.5 -49q78 0 130 49t83 135l227 4v0z" />
<glyph unicode="&#x116;" horiz-adv-x="1202" d="M29 0l247 1280h1000l-59 -313h-607l-32 -168h499l-61 -314h-500l-33 -172h607l-62 -313h-999zM1030 1565q-8 -86 -63.5 -145.5t-147.5 -59.5t-142.5 59.5t-46.5 145.5q2 39 19.5 76t46.5 66.5t67.5 47t86.5 17.5q45 0 80.5 -17.5t58 -46t34 -65.5t7.5 -78z" />
<glyph unicode="&#x117;" horiz-adv-x="1116" d="M426 379q0 -35 18.5 -60.5t48 -43t66.5 -26.5t76 -9q82 0 163 25.5t130 53.5l45 -286q-66 -27 -165 -45.5t-206 -18.5q-129 0 -231.5 31t-175 89t-110.5 143t-38 194q0 123 46 226.5t126 178t188.5 116.5t233.5 42q199 0 314.5 -87t115.5 -265q0 -53 -14.5 -122 t-32.5 -118l-598 -8v-10zM692 557q8 20 13.5 52t5.5 53q0 43 -21.5 67.5t-62.5 24.5q-57 0 -101.5 -50.5t-62.5 -146.5h229zM887 1243q-8 -86 -63.5 -145.5t-147.5 -59.5t-142.5 59.5t-46.5 145.5q2 39 19.5 76t46.5 66.5t67.5 47t86.5 17.5q45 0 80.5 -17.5t58 -46 t34 -65.5t7.5 -78z" />
<glyph unicode="&#x118;" horiz-adv-x="1202" d="M944 0q-55 -35 -91 -74t-46 -84q-8 -43 10.5 -65.5t59.5 -22.5q29 0 57.5 7.5t50.5 17.5l14 -176q-49 -27 -106 -42.5t-135 -15.5q-121 0 -177.5 66.5t-37.5 167.5q14 78 68.5 132t131.5 89h-714l247 1280h1000l-59 -313h-607l-32 -168h499l-61 -314h-500l-33 -172h607 l-62 -313h-84z" />
<glyph unicode="&#x119;" horiz-adv-x="1116" d="M426 379q0 -35 18.5 -60.5t48 -43t66.5 -26.5t76 -9q82 0 163 25.5t130 53.5l45 -286q-45 -8 -84 -28.5t-70 -46.5t-50 -56.5t-26 -59.5q-10 -43 9.5 -65.5t60.5 -22.5q29 0 57.5 7.5t51.5 17.5l14 -176q-49 -27 -106.5 -42.5t-135.5 -15.5q-121 0 -177 66.5t-38 167.5 q10 61 49 108t93 82h-19q-129 0 -231.5 31t-175 89t-110.5 143t-38 194q0 123 46 226.5t126 178t188.5 116.5t233.5 42q199 0 314.5 -87t115.5 -265q0 -53 -14.5 -122t-32.5 -118l-598 -8v-10zM692 557q8 20 13.5 52t5.5 53q0 43 -21.5 67.5t-62.5 24.5q-57 0 -101.5 -50.5 t-62.5 -146.5h229z" />
<glyph unicode="&#x11a;" horiz-adv-x="1202" d="M29 0l247 1280h1000l-59 -313h-607l-32 -168h499l-61 -314h-500l-33 -172h607l-62 -313h-999zM741 1790l80 -204h4l154 204h307l-322 -383h-340l-170 383h287z" />
<glyph unicode="&#x11b;" horiz-adv-x="1116" d="M426 379q0 -35 18.5 -60.5t48 -43t66.5 -26.5t76 -9q82 0 163 25.5t130 53.5l45 -286q-66 -27 -165 -45.5t-206 -18.5q-129 0 -231.5 31t-175 89t-110.5 143t-38 194q0 123 46 226.5t126 178t188.5 116.5t233.5 42q199 0 314.5 -87t115.5 -265q0 -53 -14.5 -122 t-32.5 -118l-598 -8v-10zM692 557q8 20 13.5 52t5.5 53q0 43 -21.5 67.5t-62.5 24.5q-57 0 -101.5 -50.5t-62.5 -146.5h229zM602 1468l80 -204h4l154 204h307l-322 -383h-340l-170 383h287z" />
<glyph unicode="&#x11c;" horiz-adv-x="1413" d="M1229 45q-96 -35 -208 -55.5t-237 -20.5q-154 0 -281.5 39t-220 115t-144.5 183.5t-52 246.5q0 147 50 284.5t150.5 243t250 168t350.5 62.5q141 0 252.5 -17.5t220.5 -52.5l-78 -352q-96 35 -199.5 57.5t-197.5 22.5q-104 0 -178 -31t-121 -84t-69.5 -125t-22.5 -154 q0 -61 15 -114t51 -91t91.5 -59.5t132.5 -21.5q35 0 71 4t60 10l29 143h-282l61 310h641l-135 -711v0zM981 1407l-81 203h-5l-155 -203h-303l317 383h340l174 -383h-287z" />
<glyph unicode="&#x11d;" horiz-adv-x="1148" d="M254 326q-90 41 -136 113.5t-46 150.5q0 94 41 169t110.5 126t161.5 77.5t193 26.5q88 0 164.5 -20.5t129.5 -50.5l322 20l10 -279l-188 23q2 -10 5 -24.5t3 -30.5q0 -80 -29.5 -146.5t-89 -116t-147.5 -77t-205 -27.5q-47 0 -88 7t-64 12q-14 -4 -24 -15.5t-10 -27.5 q0 -10 7 -18.5t26.5 -16.5t55.5 -16.5t93 -16.5l41 -6q106 -16 187 -40t135.5 -59.5t82 -87t27.5 -120.5q0 -84 -46 -150.5t-126 -114t-188.5 -73t-235.5 -25.5q-274 0 -419.5 62.5t-145.5 201.5q0 33 18.5 66t53 59.5t86 46t116.5 25.5q-76 18 -112.5 56t-36.5 112 q0 72 70.5 130.5t197.5 74.5zM551 467q63 0 99 47t36 129q0 53 -29.5 86t-81.5 33q-61 0 -101 -48t-40 -130q0 -49 32 -83t85 -34zM264 -98q-18 -6 -34.5 -31t-16.5 -53q0 -66 65.5 -100.5t161.5 -34.5q100 0 156.5 28.5t56.5 61.5q0 35 -30.5 56t-130.5 38q-12 2 -40 6 t-62 8t-67.5 9.5t-58.5 11.5zM782 1085l-81 203h-5l-155 -203h-303l317 383h340l174 -383h-287z" />
<glyph unicode="&#x11e;" horiz-adv-x="1413" d="M1229 45q-96 -35 -208 -55.5t-237 -20.5q-154 0 -281.5 39t-220 115t-144.5 183.5t-52 246.5q0 147 50 284.5t150.5 243t250 168t350.5 62.5q141 0 252.5 -17.5t220.5 -52.5l-78 -352q-96 35 -199.5 57.5t-197.5 22.5q-104 0 -178 -31t-121 -84t-69.5 -125t-22.5 -154 q0 -61 15 -114t51 -91t91.5 -59.5t132.5 -21.5q35 0 71 4t60 10l29 143h-282l61 310h641l-135 -711v0zM1337 1780q-29 -113 -82 -188.5t-118.5 -121.5t-136 -65.5t-136.5 -19.5q-63 0 -126.5 19.5t-111.5 65.5t-73 122t-10 188l211 -4q2 -86 36.5 -135t106.5 -49 q78 0 130 49t83 135l227 4v0z" />
<glyph unicode="&#x11f;" horiz-adv-x="1148" d="M254 326q-90 41 -136 113.5t-46 150.5q0 94 41 169t110.5 126t161.5 77.5t193 26.5q88 0 164.5 -20.5t129.5 -50.5l322 20l10 -279l-188 23q2 -10 5 -24.5t3 -30.5q0 -80 -29.5 -146.5t-89 -116t-147.5 -77t-205 -27.5q-47 0 -88 7t-64 12q-14 -4 -24 -15.5t-10 -27.5 q0 -10 7 -18.5t26.5 -16.5t55.5 -16.5t93 -16.5l41 -6q106 -16 187 -40t135.5 -59.5t82 -87t27.5 -120.5q0 -84 -46 -150.5t-126 -114t-188.5 -73t-235.5 -25.5q-274 0 -419.5 62.5t-145.5 201.5q0 33 18.5 66t53 59.5t86 46t116.5 25.5q-76 18 -112.5 56t-36.5 112 q0 72 70.5 130.5t197.5 74.5zM551 467q63 0 99 47t36 129q0 53 -29.5 86t-81.5 33q-61 0 -101 -48t-40 -130q0 -49 32 -83t85 -34zM264 -98q-18 -6 -34.5 -31t-16.5 -53q0 -66 65.5 -100.5t161.5 -34.5q100 0 156.5 28.5t56.5 61.5q0 35 -30.5 56t-130.5 38q-12 2 -40 6 t-62 8t-67.5 9.5t-58.5 11.5zM1122 1458q-29 -113 -82 -188.5t-118.5 -121.5t-136 -65.5t-136.5 -19.5q-63 0 -126.5 19.5t-111.5 65.5t-73 122t-10 188l211 -4q2 -86 36.5 -135t106.5 -49q78 0 130 49t83 135l227 4v0z" />
<glyph unicode="&#x120;" horiz-adv-x="1413" d="M1229 45q-96 -35 -208 -55.5t-237 -20.5q-154 0 -281.5 39t-220 115t-144.5 183.5t-52 246.5q0 147 50 284.5t150.5 243t250 168t350.5 62.5q141 0 252.5 -17.5t220.5 -52.5l-78 -352q-96 35 -199.5 57.5t-197.5 22.5q-104 0 -178 -31t-121 -84t-69.5 -125t-22.5 -154 q0 -61 15 -114t51 -91t91.5 -59.5t132.5 -21.5q35 0 71 4t60 10l29 143h-282l61 310h641l-135 -711v0zM1084 1565q-8 -86 -63.5 -145.5t-147.5 -59.5t-142.5 59.5t-46.5 145.5q2 39 19.5 76t46.5 66.5t67.5 47t86.5 17.5q45 0 80.5 -17.5t58 -46t34 -65.5t7.5 -78z" />
<glyph unicode="&#x121;" horiz-adv-x="1148" d="M254 326q-90 41 -136 113.5t-46 150.5q0 94 41 169t110.5 126t161.5 77.5t193 26.5q88 0 164.5 -20.5t129.5 -50.5l322 20l10 -279l-188 23q2 -10 5 -24.5t3 -30.5q0 -80 -29.5 -146.5t-89 -116t-147.5 -77t-205 -27.5q-47 0 -88 7t-64 12q-14 -4 -24 -15.5t-10 -27.5 q0 -10 7 -18.5t26.5 -16.5t55.5 -16.5t93 -16.5l41 -6q106 -16 187 -40t135.5 -59.5t82 -87t27.5 -120.5q0 -84 -46 -150.5t-126 -114t-188.5 -73t-235.5 -25.5q-274 0 -419.5 62.5t-145.5 201.5q0 33 18.5 66t53 59.5t86 46t116.5 25.5q-76 18 -112.5 56t-36.5 112 q0 72 70.5 130.5t197.5 74.5zM551 467q63 0 99 47t36 129q0 53 -29.5 86t-81.5 33q-61 0 -101 -48t-40 -130q0 -49 32 -83t85 -34zM264 -98q-18 -6 -34.5 -31t-16.5 -53q0 -66 65.5 -100.5t161.5 -34.5q100 0 156.5 28.5t56.5 61.5q0 35 -30.5 56t-130.5 38q-12 2 -40 6 t-62 8t-67.5 9.5t-58.5 11.5zM875 1243q-8 -86 -63.5 -145.5t-147.5 -59.5t-142.5 59.5t-46.5 145.5q2 39 19.5 76t46.5 66.5t67.5 47t86.5 17.5q45 0 80.5 -17.5t58 -46t34 -65.5t7.5 -78z" />
<glyph unicode="&#x122;" horiz-adv-x="1413" d="M1229 45q-96 -35 -208 -55.5t-237 -20.5q-154 0 -281.5 39t-220 115t-144.5 183.5t-52 246.5q0 147 50 284.5t150.5 243t250 168t350.5 62.5q141 0 252.5 -17.5t220.5 -52.5l-78 -352q-96 35 -199.5 57.5t-197.5 22.5q-104 0 -178 -31t-121 -84t-69.5 -125t-22.5 -154 q0 -61 15 -114t51 -91t91.5 -59.5t132.5 -21.5q35 0 71 4t60 10l29 143h-282l61 310h641l-135 -711v0zM490 -260q6 35 25.5 64.5t49 50t65.5 31t75 5.5q92 -10 137 -70.5t29 -148.5q-20 -102 -115.5 -172.5t-255.5 -91.5l-55 90q66 25 110.5 54.5t51.5 64.5q2 14 0 29.5 t-13.5 31t-36 31t-67.5 31.5z" />
<glyph unicode="&#x123;" horiz-adv-x="1148" d="M254 326q-90 41 -136 113.5t-46 150.5q0 94 41 169t110.5 126t161.5 77.5t193 26.5q88 0 164.5 -20.5t129.5 -50.5l322 20l10 -279l-188 23q2 -10 5 -24.5t3 -30.5q0 -80 -29.5 -146.5t-89 -116t-147.5 -77t-205 -27.5q-47 0 -88 7t-64 12q-14 -4 -24 -15.5t-10 -27.5 q0 -10 7 -18.5t26.5 -16.5t55.5 -16.5t93 -16.5l41 -6q106 -16 187 -40t135.5 -59.5t82 -87t27.5 -120.5q0 -84 -46 -150.5t-126 -114t-188.5 -73t-235.5 -25.5q-274 0 -419.5 62.5t-145.5 201.5q0 33 18.5 66t53 59.5t86 46t116.5 25.5q-76 18 -112.5 56t-36.5 112 q0 72 70.5 130.5t197.5 74.5zM551 467q63 0 99 47t36 129q0 53 -29.5 86t-81.5 33q-61 0 -101 -48t-40 -130q0 -49 32 -83t85 -34zM264 -98q-18 -6 -34.5 -31t-16.5 -53q0 -66 65.5 -100.5t161.5 -34.5q100 0 156.5 28.5t56.5 61.5q0 35 -30.5 56t-130.5 38q-12 2 -40 6 t-62 8t-67.5 9.5t-58.5 11.5zM852.002 1228.98q-5.99902 -34.998 -25.498 -64.4961t-48.9971 -49.9971t-65.4961 -30.998t-74.9951 -5.5q-91.9941 10 -136.992 70.4961q-44.9971 60.4961 -28.998 148.491q19.999 101.993 115.493 172.489q95.4941 70.4951 255.484 91.4941 l54.9971 -89.9941q-65.9961 -24.999 -110.494 -54.4971q-44.4971 -29.498 -51.4961 -64.4961q-2 -13.999 0 -29.498t13.499 -30.998t35.998 -30.998q24.498 -15.499 67.4951 -31.498z" />
<glyph unicode="&#x124;" horiz-adv-x="1462" d="M842 0l92 477h-410l-92 -477h-403l247 1280h404l-90 -467h409l91 467h403l-248 -1280h-403zM1024 1407l-81 203h-5l-155 -203h-303l317 383h340l174 -383h-287z" />
<glyph unicode="&#x125;" horiz-adv-x="1208" d="M635 0l100 516q4 16 6 31.5t2 30.5q0 41 -20.5 67.5t-73.5 26.5q-41 0 -74.5 -24.5t-62.5 -65.5l-113 -582h-393l264 1360l398 26l-109 -569q78 78 159 125t169 47q70 0 121 -21.5t84.5 -58.5t49 -86t15.5 -102q0 -41 -6 -80l-123 -641h-393zM632 1427l-81 203h-5 l-155 -203h-303l317 383h340l174 -383h-287z" />
<glyph unicode="&#x126;" horiz-adv-x="1462" d="M842 0l92 477h-410l-92 -477h-403l176 911h-172l49 213h164l30 156h404l-31 -156h410l31 156h403l-31 -156h180l-51 -213h-170l-176 -911h-403zM999 813l19 98h-410l-18 -98h409z" />
<glyph unicode="&#x127;" horiz-adv-x="1208" d="M635 0l100 516q4 16 6 31.5t2 30.5q0 41 -20.5 67.5t-73.5 26.5q-41 0 -74.5 -24.5t-62.5 -65.5l-113 -582h-393l205 1053h-117l29 213h129l18 94l398 26l-23 -120h215l31 -213h-287l-45 -236q78 78 159 125t169 47q70 0 121 -21.5t84.5 -58.5t49 -86t15.5 -102 q0 -41 -6 -80l-123 -641h-393z" />
<glyph unicode="&#x12a;" horiz-adv-x="645" d="M29 0l247 1280h406l-248 -1280h-405zM102 1459l29 213h778l31 -213h-838z" />
<glyph unicode="&#x12b;" horiz-adv-x="583" d="M12 0l187 961l399 26l-192 -987h-394zM32 1137l29 213h778l31 -213h-838z" />
<glyph unicode="&#x12c;" horiz-adv-x="645" d="M29 0l247 1280h406l-248 -1280h-405zM952 1780q-29 -113 -82 -188.5t-118.5 -121.5t-136 -65.5t-136.5 -19.5q-63 0 -126.5 19.5t-111.5 65.5t-73 122t-10 188l211 -4q2 -86 36.5 -135t106.5 -49q78 0 130 49t83 135l227 4v0z" />
<glyph unicode="&#x12d;" horiz-adv-x="583" d="M12 0l187 961l399 26l-192 -987h-394zM888 1458q-29 -113 -82 -188.5t-118.5 -121.5t-136 -65.5t-136.5 -19.5q-63 0 -126.5 19.5t-111.5 65.5t-73 122t-10 188l211 -4q2 -86 36.5 -135t106.5 -49q78 0 130 49t83 135l227 4v0z" />
<glyph unicode="&#x12e;" horiz-adv-x="645" d="M162 -455q-121 0 -177.5 66.5t-37.5 167.5q16 78 69.5 132t130.5 89h-118l247 1280h406l-246 -1280q-43 -2 -82 -16.5t-69.5 -36t-50 -48t-23.5 -57.5q-12 -88 70 -88q29 0 57.5 7.5t50.5 17.5l14 -176q-49 -27 -106 -42.5t-135 -15.5z" />
<glyph unicode="&#x12f;" horiz-adv-x="583" d="M131 -455q-121 0 -177 66.5t-38 167.5q16 78 69.5 132t131.5 89h-111l184 952l398 27l-191 -979q-43 -2 -79.5 -15.5t-66.5 -35t-48.5 -49t-22.5 -58.5q-12 -88 70 -88q29 0 57.5 7.5t50.5 17.5l15 -176q-49 -27 -106.5 -42.5t-135.5 -15.5zM672 1251q0 -100 -61.5 -147 t-164.5 -47q-102 0 -163.5 47t-61.5 147t62.5 147.5t165.5 47.5q102 0 162.5 -47.5t60.5 -147.5z" />
<glyph unicode="&#x130;" horiz-adv-x="645" d="M29 0l247 1280h406l-248 -1280h-405zM719 1565q-8 -86 -63.5 -145.5t-147.5 -59.5t-142.5 59.5t-46.5 145.5q2 39 19.5 76t46.5 66.5t67.5 47t86.5 17.5q45 0 80.5 -17.5t58 -46t34 -65.5t7.5 -78z" />
<glyph unicode="&#x131;" horiz-adv-x="583" d="M12 0l187 961l399 26l-192 -987h-394z" />
<glyph unicode="&#x134;" horiz-adv-x="1021" d="M909 438q-45 -229 -173 -349t-347 -120q-59 0 -122.5 10.5t-123 29t-110.5 43t-88 52.5l151 304q57 -47 115.5 -79t132.5 -32q47 0 78 16.5t49 43t28.5 62.5t18.5 77l152 784h403l-164 -842v0zM1007 1407l-81 203h-5l-155 -203h-303l317 383h340l174 -383h-287z" />
<glyph unicode="&#x135;" horiz-adv-x="583" d="M-207 -248q47 20 84 48t64.5 67t47 94t34.5 131l167 860l398 27l-180 -916q-41 -213 -143.5 -355t-303.5 -197zM540 1085l-81 203h-5l-155 -203h-303l317 383h340l174 -383h-287z" />
<glyph unicode="&#x136;" horiz-adv-x="1361" d="M578 737l466 543h459l-592 -625l334 -655h-461l-245 541h-2q-12 -66 -31 -159t-35 -177q-20 -98 -39 -205h-403l247 1280h402l-103 -543h3zM404 -260q6 35 25.5 64.5t49 50t65.5 31t75 5.5q92 -10 137 -70.5t29 -148.5q-20 -102 -115.5 -172.5t-255.5 -91.5l-55 90 q66 25 110.5 54.5t51.5 64.5q2 14 0 29.5t-13.5 31t-36 31t-67.5 31.5z" />
<glyph unicode="&#x137;" horiz-adv-x="1163" d="M483 453l-86 -453h-391l264 1360l398 26l-158 -806h4l287 378h448l-391 -450l219 -508h-422l-168 453h-4zM297 -260q6 35 25.5 64.5t49 50t65.5 31t75 5.5q92 -10 137 -70.5t29 -148.5q-20 -102 -115.5 -172.5t-255.5 -91.5l-55 90q66 25 110.5 54.5t51.5 64.5 q2 14 0 29.5t-13.5 31t-36 31t-67.5 31.5z" />
<glyph unicode="&#x139;" horiz-adv-x="1091" d="M29 0l247 1280h404l-184 -950h493l-63 -330h-897zM557 1407h-242l271 383h417z" />
<glyph unicode="&#x13a;" horiz-adv-x="583" d="M6 0l264 1360l398 26l-271 -1386h-391zM539 1468h-242l271 383h417z" />
<glyph unicode="&#x13b;" horiz-adv-x="1091" d="M29 0l247 1280h404l-184 -950h493l-63 -330h-897zM248 -260q6 35 25.5 64.5t49 50t65.5 31t75 5.5q92 -10 137 -70.5t29 -148.5q-20 -102 -115.5 -172.5t-255.5 -91.5l-55 90q66 25 110.5 54.5t51.5 64.5q2 14 0 29.5t-13.5 31t-36 31t-67.5 31.5z" />
<glyph unicode="&#x13c;" horiz-adv-x="583" d="M6 0l264 1360l398 26l-271 -1386h-391zM-41 -260q6 35 25.5 64.5t49 50t65.5 31t75 5.5q92 -10 137 -70.5t29 -148.5q-20 -102 -115.5 -172.5t-255.5 -91.5l-55 90q66 25 110.5 54.5t51.5 64.5q2 14 0 29.5t-13.5 31t-36 31t-67.5 31.5z" />
<glyph unicode="&#x13d;" horiz-adv-x="1433" d="M29 0l247 1280h404l-184 -950h493l-63 -330h-897zM1105 1108q16 94 79 151.5t165 57.5q57 0 104.5 -22.5t82 -60.5t54 -88t19.5 -107q0 -90 -44 -166t-111.5 -134.5t-148.5 -99.5t-154 -65l-142 155q27 10 68 33t80 53.5t66.5 66.5t27.5 71q0 61 -40 93.5t-106 61.5z" />
<glyph unicode="&#x13e;" horiz-adv-x="1193" d="M6 0l264 1360l398 26l-271 -1386h-391zM774 1161q16 94 79 151.5t165 57.5q57 0 104.5 -22.5t82 -60.5t54 -88t19.5 -107q0 -90 -44 -166t-111.5 -134.5t-148.5 -99.5t-154 -65l-142 155q27 10 68 33t80 53.5t66.5 66.5t27.5 71q0 61 -40 93.5t-106 61.5z" />
<glyph unicode="&#x13f;" horiz-adv-x="1304" d="M29 0l247 1280h404l-184 -950h493l-63 -330h-897zM1475 639q0 -100 -61.5 -157.5t-163.5 -57.5t-164 57.5t-62 157.5t61.5 157.5t164.5 57.5q102 0 163.5 -57.5t61.5 -157.5z" />
<glyph unicode="&#x140;" horiz-adv-x="1101" d="M6 0l264 1360l398 26l-271 -1386h-391zM1084 639q0 -100 -61.5 -157.5t-163.5 -57.5t-164 57.5t-62 157.5t61.5 157.5t164.5 57.5q102 0 163.5 -57.5t61.5 -157.5z" />
<glyph unicode="&#x141;" horiz-adv-x="1173" d="M578 330h493l-63 -330h-897l79 416l-122 -33v299l184 49l106 549h404l-84 -434l235 63v-299l-297 -80z" />
<glyph unicode="&#x142;" horiz-adv-x="747" d="M479 0h-391q23 115 41 207q8 39 14.5 77t12.5 66q6 35 12 66l-86 -23v299l74 21q14 4 27.5 6t23.5 6q12 4 22 6q8 45 19 98q10 45 20.5 100.5t22.5 114.5l61 316l398 26l-107 -542l84 22v-299l-145 -39z" />
<glyph unicode="&#x143;" horiz-adv-x="1501" d="M1145 1280h389l-242 -1292h-442l-299 743l-133 -731h-389l239 1276h449l299 -731zM1008 1407h-242l271 383h417z" />
<glyph unicode="&#x144;" horiz-adv-x="1202" d="M635 0l100 516q4 16 6 31.5t2 30.5q0 41 -20.5 67.5t-73.5 26.5q-41 0 -74.5 -24.5t-62.5 -65.5l-113 -582h-393l180 932l404 47l-31 -162q33 33 72 63.5t81 55.5t87 39t88 14q70 0 121 -21.5t84.5 -58.5t49 -86t15.5 -102q0 -41 -6 -80l-123 -641h-393zM735 1085h-242 l271 383h417z" />
<glyph unicode="&#x145;" horiz-adv-x="1501" d="M1145 1280h389l-242 -1292h-442l-299 743l-133 -731h-389l239 1276h449l299 -731zM463 -260q6 35 25.5 64.5t49 50t65.5 31t75 5.5q92 -10 137 -70.5t29 -148.5q-20 -102 -115.5 -172.5t-255.5 -91.5l-55 90q66 25 110.5 54.5t51.5 64.5q2 14 0 29.5t-13.5 31t-36 31 t-67.5 31.5z" />
<glyph unicode="&#x146;" horiz-adv-x="1202" d="M635 0l100 516q4 16 6 31.5t2 30.5q0 41 -20.5 67.5t-73.5 26.5q-41 0 -74.5 -24.5t-62.5 -65.5l-113 -582h-393l180 932l404 47l-31 -162q33 33 72 63.5t81 55.5t87 39t88 14q70 0 121 -21.5t84.5 -58.5t49 -86t15.5 -102q0 -41 -6 -80l-123 -641h-393zM324 -260 q6 35 25.5 64.5t49 50t65.5 31t75 5.5q92 -10 137 -70.5t29 -148.5q-20 -102 -115.5 -172.5t-255.5 -91.5l-55 90q66 25 110.5 54.5t51.5 64.5q2 14 0 29.5t-13.5 31t-36 31t-67.5 31.5z" />
<glyph unicode="&#x147;" horiz-adv-x="1501" d="M1145 1280h389l-242 -1292h-442l-299 743l-133 -731h-389l239 1276h449l299 -731zM895 1790l80 -204h4l154 204h307l-322 -383h-340l-170 383h287z" />
<glyph unicode="&#x148;" horiz-adv-x="1202" d="M635 0l100 516q4 16 6 31.5t2 30.5q0 41 -20.5 67.5t-73.5 26.5q-41 0 -74.5 -24.5t-62.5 -65.5l-113 -582h-393l180 932l404 47l-31 -162q33 33 72 63.5t81 55.5t87 39t88 14q70 0 121 -21.5t84.5 -58.5t49 -86t15.5 -102q0 -41 -6 -80l-123 -641h-393zM651 1468 l80 -204h4l154 204h307l-322 -383h-340l-170 383h287z" />
<glyph unicode="&#x14c;" horiz-adv-x="1513" d="M1491 725q0 -164 -56.5 -303t-156.5 -240.5t-239.5 -159t-305.5 -57.5q-133 0 -249.5 39t-206 114t-140.5 185.5t-51 251.5q0 164 56.5 303t155.5 240.5t238.5 159t305.5 57.5q131 0 249.5 -39t206.5 -114t140.5 -185.5t52.5 -251.5zM1079 721q0 125 -64.5 199.5 t-193.5 74.5q-84 0 -145.5 -41t-101 -104.5t-58 -140t-18.5 -150.5q0 -121 64.5 -197.5t193.5 -76.5q84 0 144.5 41t100 105.5t59 141t19.5 148.5zM452 1459l29 213h778l31 -213h-838z" />
<glyph unicode="&#x14d;" horiz-adv-x="1189" d="M1128 528q0 -119 -40.5 -221t-115.5 -178t-179.5 -119t-233.5 -43q-113 0 -207 31t-162.5 89t-106.5 144t-38 199q0 119 42 221.5t119 178t183.5 117.5t233.5 42q113 0 206 -32.5t159.5 -92t103 -145t36.5 -191.5zM737 559q0 80 -30.5 120t-85.5 40q-47 0 -82 -31 t-58.5 -79t-35 -104t-11.5 -108q0 -80 33 -119.5t90 -39.5q39 0 72 24.5t57.5 68.5t37.5 102t13 126zM278 1137l29 213h778l31 -213h-838z" />
<glyph unicode="&#x14e;" horiz-adv-x="1513" d="M1491 725q0 -164 -56.5 -303t-156.5 -240.5t-239.5 -159t-305.5 -57.5q-133 0 -249.5 39t-206 114t-140.5 185.5t-51 251.5q0 164 56.5 303t155.5 240.5t238.5 159t305.5 57.5q131 0 249.5 -39t206.5 -114t140.5 -185.5t52.5 -251.5zM1079 721q0 125 -64.5 199.5 t-193.5 74.5q-84 0 -145.5 -41t-101 -104.5t-58 -140t-18.5 -150.5q0 -121 64.5 -197.5t193.5 -76.5q84 0 144.5 41t100 105.5t59 141t19.5 148.5zM1361 1780q-29 -113 -82 -188.5t-118.5 -121.5t-136 -65.5t-136.5 -19.5q-63 0 -126.5 19.5t-111.5 65.5t-73 122t-10 188 l211 -4q2 -86 36.5 -135t106.5 -49q78 0 130 49t83 135l227 4v0z" />
<glyph unicode="&#x14f;" horiz-adv-x="1189" d="M1128 528q0 -119 -40.5 -221t-115.5 -178t-179.5 -119t-233.5 -43q-113 0 -207 31t-162.5 89t-106.5 144t-38 199q0 119 42 221.5t119 178t183.5 117.5t233.5 42q113 0 206 -32.5t159.5 -92t103 -145t36.5 -191.5zM737 559q0 80 -30.5 120t-85.5 40q-47 0 -82 -31 t-58.5 -79t-35 -104t-11.5 -108q0 -80 33 -119.5t90 -39.5q39 0 72 24.5t57.5 68.5t37.5 102t13 126zM1134 1458q-29 -113 -82 -188.5t-118.5 -121.5t-136 -65.5t-136.5 -19.5q-63 0 -126.5 19.5t-111.5 65.5t-73 122t-10 188l211 -4q2 -86 36.5 -135t106.5 -49q78 0 130 49 t83 135l227 4v0z" />
<glyph unicode="&#x150;" horiz-adv-x="1513" d="M1491 725q0 -164 -56.5 -303t-156.5 -240.5t-239.5 -159t-305.5 -57.5q-133 0 -249.5 39t-206 114t-140.5 185.5t-51 251.5q0 164 56.5 303t155.5 240.5t238.5 159t305.5 57.5q131 0 249.5 -39t206.5 -114t140.5 -185.5t52.5 -251.5zM1079 721q0 125 -64.5 199.5 t-193.5 74.5q-84 0 -145.5 -41t-101 -104.5t-58 -140t-18.5 -150.5q0 -121 64.5 -197.5t193.5 -76.5q84 0 144.5 41t100 105.5t59 141t19.5 148.5zM1171 1407h-240l377 383h357zM735 1407h-254l338 383h358z" />
<glyph unicode="&#x151;" horiz-adv-x="1189" d="M1128 528q0 -119 -40.5 -221t-115.5 -178t-179.5 -119t-233.5 -43q-113 0 -207 31t-162.5 89t-106.5 144t-38 199q0 119 42 221.5t119 178t183.5 117.5t233.5 42q113 0 206 -32.5t159.5 -92t103 -145t36.5 -191.5zM737 559q0 80 -30.5 120t-85.5 40q-47 0 -82 -31 t-58.5 -79t-35 -104t-11.5 -108q0 -80 33 -119.5t90 -39.5q39 0 72 24.5t57.5 68.5t37.5 102t13 126zM956 1085h-240l377 383h357zM520 1085h-254l338 383h358z" />
<glyph unicode="&#x152;" horiz-adv-x="2002" d="M1946 967h-555l-33 -170h448l-61 -310h-449l-32 -174h555l-62 -313h-1016q-141 0 -261 35t-208 104.5t-139 172t-51 235.5q0 143 46 276t148.5 234.5t266.5 162t397 60.5h1065zM489 565q0 -131 81 -193.5t210 -62.5h76l129 662h-104q-176 0 -284 -100.5t-108 -305.5z" />
<glyph unicode="&#x153;" horiz-adv-x="1740" d="M874 51q-66 -41 -144.5 -62.5t-170.5 -21.5q-113 0 -207 31t-162.5 89t-106.5 144t-38 199q0 119 42 221.5t119 178t183.5 117.5t233.5 42q184 0 311 -84q72 45 156 64.5t176 19.5q199 0 314.5 -87t115.5 -265q0 -53 -14.5 -122t-32.5 -118l-598 -8v-10q0 -35 18 -60.5 t48 -43t67 -26.5t76 -9q82 0 162.5 25.5t129.5 53.5l45 -286q-66 -27 -165 -45.5t-205 -18.5q-212 0 -353 82zM434 397q0 -80 33 -119.5t90 -39.5q39 0 72 24.5t57.5 68.5t37.5 102.5t13 125.5q0 80 -30.5 120t-85.5 40q-47 0 -82 -31t-58.5 -79t-35 -104.5t-11.5 -107.5z M1317 557q8 20 13 52t5 53q0 43 -21.5 67.5t-62.5 24.5q-57 0 -101 -50.5t-63 -146.5h230z" />
<glyph unicode="&#x154;" horiz-adv-x="1339" d="M430 0h-401l247 1276h562q111 0 200.5 -28.5t152 -79t97.5 -121t35 -154.5q0 -162 -91 -269.5t-235 -154.5l189 -469h-422l-150 397l-108 -12zM676 676q43 0 85 8t73.5 26.5t52 50.5t20.5 81q0 37 -15 61.5t-40 41t-55.5 23.5t-63.5 7h-121l-63 -299h127zM801 1407h-242 l271 383h417z" />
<glyph unicode="&#x155;" horiz-adv-x="843" d="M397 0h-391l182 932l400 47l-25 -133q47 68 103.5 105.5t119.5 37.5q66 0 127 -41l-79 -344q-25 14 -60 23.5t-76 9.5q-51 0 -99 -17.5t-95 -72.5zM621 1085h-242l271 383h417z" />
<glyph unicode="&#x156;" horiz-adv-x="1339" d="M430 0h-401l247 1276h562q111 0 200.5 -28.5t152 -79t97.5 -121t35 -154.5q0 -162 -91 -269.5t-235 -154.5l189 -469h-422l-150 397l-108 -12zM676 676q43 0 85 8t73.5 26.5t52 50.5t20.5 81q0 37 -15 61.5t-40 41t-55.5 23.5t-63.5 7h-121l-63 -299h127zM402 -260 q6 35 25.5 64.5t49 50t65.5 31t75 5.5q92 -10 137 -70.5t29 -148.5q-20 -102 -115.5 -172.5t-255.5 -91.5l-55 90q66 25 110.5 54.5t51.5 64.5q2 14 0 29.5t-13.5 31t-36 31t-67.5 31.5z" />
<glyph unicode="&#x157;" horiz-adv-x="843" d="M397 0h-391l182 932l400 47l-25 -133q47 68 103.5 105.5t119.5 37.5q66 0 127 -41l-79 -344q-25 14 -60 23.5t-76 9.5q-51 0 -99 -17.5t-95 -72.5zM-39 -260q6 35 25.5 64.5t49 50t65.5 31t75 5.5q92 -10 137 -70.5t29 -148.5q-20 -102 -115.5 -172.5t-255.5 -91.5 l-55 90q66 25 110.5 54.5t51.5 64.5q2 14 0 29.5t-13.5 31t-36 31t-67.5 31.5z" />
<glyph unicode="&#x158;" horiz-adv-x="1339" d="M430 0h-401l247 1276h562q111 0 200.5 -28.5t152 -79t97.5 -121t35 -154.5q0 -162 -91 -269.5t-235 -154.5l189 -469h-422l-150 397l-108 -12zM676 676q43 0 85 8t73.5 26.5t52 50.5t20.5 81q0 37 -15 61.5t-40 41t-55.5 23.5t-63.5 7h-121l-63 -299h127zM694 1790 l80 -204h4l154 204h307l-322 -383h-340l-170 383h287z" />
<glyph unicode="&#x159;" horiz-adv-x="843" d="M397 0h-391l182 932l400 47l-25 -133q47 68 103.5 105.5t119.5 37.5q66 0 127 -41l-79 -344q-25 14 -60 23.5t-76 9.5q-51 0 -99 -17.5t-95 -72.5zM506 1468l80 -204h4l154 204h307l-322 -383h-340l-170 383h287z" />
<glyph unicode="&#x15a;" horiz-adv-x="1212" d="M539 299q106 0 144 18.5t38 53.5q0 18 -9.5 30.5t-34 26.5t-67.5 31.5t-110 44.5q-63 25 -127 57.5t-114 77.5t-81 106.5t-31 147.5q0 98 40 176t112 131t169 81t212 28q172 0 310 -34t216 -73l-71 -344q-51 27 -109.5 48.5t-115 36.5t-109.5 24.5t-96 9.5 q-80 0 -113 -22.5t-33 -49.5q0 -18 10.5 -31.5t36 -26.5t70.5 -29.5t112 -41.5q74 -29 137.5 -60.5t109.5 -73.5t73 -95t27 -123q0 -111 -41 -195t-116 -142t-182.5 -88t-240.5 -30q-78 0 -154.5 10.5t-145.5 25.5t-126 34.5t-96 38.5l71 344q55 -29 118 -51.5t121 -39 t109.5 -24.5t86.5 -8zM795 1407h-242l271 383h417z" />
<glyph unicode="&#x15b;" horiz-adv-x="1005" d="M926 307q0 -70 -29 -131t-86 -107t-143 -73t-199 -27q-55 0 -118.5 7.5t-126 20.5t-120 31.5t-100.5 41.5l70 288q43 -25 95 -47t105.5 -39.5t106.5 -28t98 -10.5q35 0 54.5 14.5t19.5 35.5q0 23 -27.5 37t-107.5 32q-98 23 -164 51.5t-103.5 66.5t-54 84t-16.5 101 q0 70 28.5 131.5t86 106.5t142.5 70.5t200 25.5q55 0 117.5 -7t124 -20.5t118.5 -32t100 -40.5l-73 -289q-100 55 -205 90t-193 35q-35 0 -52 -13.5t-17 -33.5q0 -23 28.5 -34t108.5 -32q98 -25 162.5 -53.5t101.5 -65t52.5 -83t15.5 -103.5zM588 1085h-242l271 383h417z " />
<glyph unicode="&#x15c;" horiz-adv-x="1212" d="M539 299q106 0 144 18.5t38 53.5q0 18 -9.5 30.5t-34 26.5t-67.5 31.5t-110 44.5q-63 25 -127 57.5t-114 77.5t-81 106.5t-31 147.5q0 98 40 176t112 131t169 81t212 28q172 0 310 -34t216 -73l-71 -344q-51 27 -109.5 48.5t-115 36.5t-109.5 24.5t-96 9.5 q-80 0 -113 -22.5t-33 -49.5q0 -18 10.5 -31.5t36 -26.5t70.5 -29.5t112 -41.5q74 -29 137.5 -60.5t109.5 -73.5t73 -95t27 -123q0 -111 -41 -195t-116 -142t-182.5 -88t-240.5 -30q-78 0 -154.5 10.5t-145.5 25.5t-126 34.5t-96 38.5l71 344q55 -29 118 -51.5t121 -39 t109.5 -24.5t86.5 -8zM878 1407l-81 203h-5l-155 -203h-303l317 383h340l174 -383h-287z" />
<glyph unicode="&#x15d;" horiz-adv-x="1005" d="M926 307q0 -70 -29 -131t-86 -107t-143 -73t-199 -27q-55 0 -118.5 7.5t-126 20.5t-120 31.5t-100.5 41.5l70 288q43 -25 95 -47t105.5 -39.5t106.5 -28t98 -10.5q35 0 54.5 14.5t19.5 35.5q0 23 -27.5 37t-107.5 32q-98 23 -164 51.5t-103.5 66.5t-54 84t-16.5 101 q0 70 28.5 131.5t86 106.5t142.5 70.5t200 25.5q55 0 117.5 -7t124 -20.5t118.5 -32t100 -40.5l-73 -289q-100 55 -205 90t-193 35q-35 0 -52 -13.5t-17 -33.5q0 -23 28.5 -34t108.5 -32q98 -25 162.5 -53.5t101.5 -65t52.5 -83t15.5 -103.5zM688 1085l-81 203h-5l-155 -203 h-303l317 383h340l174 -383h-287z" />
<glyph unicode="&#x15e;" horiz-adv-x="1212" d="M563 -90q102 -14 163.5 -64.5t61.5 -140.5q0 -59 -28.5 -109.5t-90 -88t-156.5 -61.5t-230 -26l16 162q84 -4 137 2t83 20.5t41 34t11 44.5q0 49 -56 69.5t-161 26.5v115l119 79q-68 4 -132.5 15.5t-121.5 25t-105 30.5t-81 34l71 344q55 -29 118 -51.5t121 -39 t109.5 -24.5t86.5 -8q106 0 144 18.5t38 53.5q0 18 -9.5 30.5t-34 26.5t-67.5 31.5t-110 44.5q-63 25 -127 57.5t-114 77.5t-81 106.5t-31 147.5q0 98 40 176t112 131t169 81t212 28q172 0 310 -34t216 -73l-71 -344q-51 27 -109.5 48.5t-115 36.5t-109.5 24.5t-96 9.5 q-80 0 -113 -22.5t-33 -49.5q0 -18 10.5 -31.5t36 -26.5t70.5 -29.5t112 -41.5q74 -29 137.5 -60.5t109.5 -73.5t73 -95t27 -123q0 -199 -125 -312.5t-344 -136.5l-103 -65v0z" />
<glyph unicode="&#x15f;" horiz-adv-x="1005" d="M414 -90q102 -14 163.5 -64.5t61.5 -140.5q0 -59 -28.5 -109.5t-90 -88t-157 -61.5t-230.5 -26l17 162q84 -4 137 2t82.5 20.5t41 34t11.5 44.5q0 49 -56.5 69.5t-160.5 26.5v115l127 86q-90 10 -178 32.5t-150 57.5l70 288q43 -25 95 -47t105.5 -39.5t106.5 -28 t98 -10.5q35 0 54.5 14.5t19.5 35.5q0 23 -27.5 37t-107.5 32q-98 23 -164 51.5t-103.5 66.5t-54 84t-16.5 101q0 70 28.5 131.5t86 106.5t142.5 70.5t200 25.5q55 0 117.5 -7t124 -20.5t118.5 -32t100 -40.5l-73 -289q-100 55 -205 90t-193 35q-35 0 -52 -13.5t-17 -33.5 q0 -23 28.5 -34t108.5 -32q98 -25 162.5 -53.5t101.5 -65t52.5 -82.5t15.5 -104q0 -135 -104.5 -230t-311.5 -106l-96 -61v0z" />
<glyph unicode="&#x160;" horiz-adv-x="1212" d="M539 299q106 0 144 18.5t38 53.5q0 18 -9.5 30.5t-34 26.5t-67.5 31.5t-110 44.5q-63 25 -127 57.5t-114 77.5t-81 106.5t-31 147.5q0 98 40 176t112 131t169 81t212 28q172 0 310 -34t216 -73l-71 -344q-51 27 -109.5 48.5t-115 36.5t-109.5 24.5t-96 9.5 q-80 0 -113 -22.5t-33 -49.5q0 -18 10.5 -31.5t36 -26.5t70.5 -29.5t112 -41.5q74 -29 137.5 -60.5t109.5 -73.5t73 -95t27 -123q0 -111 -41 -195t-116 -142t-182.5 -88t-240.5 -30q-78 0 -154.5 10.5t-145.5 25.5t-126 34.5t-96 38.5l71 344q55 -29 118 -51.5t121 -39 t109.5 -24.5t86.5 -8zM725 1749l80 -205h4l154 205h307l-322 -383h-340l-170 383h287z" />
<glyph unicode="&#x161;" horiz-adv-x="1005" d="M926 307q0 -70 -29 -131t-86 -107t-143 -73t-199 -27q-55 0 -118.5 7.5t-126 20.5t-120 31.5t-100.5 41.5l70 288q43 -25 95 -47t105.5 -39.5t106.5 -28t98 -10.5q35 0 54.5 14.5t19.5 35.5q0 23 -27.5 37t-107.5 32q-98 23 -164 51.5t-103.5 66.5t-54 84t-16.5 101 q0 70 28.5 131.5t86 106.5t142.5 70.5t200 25.5q55 0 117.5 -7t124 -20.5t118.5 -32t100 -40.5l-73 -289q-100 55 -205 90t-193 35q-35 0 -52 -13.5t-17 -33.5q0 -23 28.5 -34t108.5 -32q98 -25 162.5 -53.5t101.5 -65t52.5 -83t15.5 -103.5zM547 1468l80 -204h4l153 204 h308l-322 -383h-340l-170 383h287z" />
<glyph unicode="&#x162;" horiz-adv-x="1275" d="M934 950l-184 -950h-404l184 950h-387l64 330h1177l-63 -330h-387zM322 -260q6 35 25.5 64.5t49 50t65.5 31t75 5.5q92 -10 137 -70.5t29 -148.5q-20 -102 -115.5 -172.5t-255.5 -91.5l-55 90q66 25 110.5 54.5t51.5 64.5q2 14 0 29.5t-13.5 31t-36 31t-67.5 31.5z" />
<glyph unicode="&#x163;" horiz-adv-x="813" d="M713 2q-53 -14 -120 -23.5t-147 -9.5q-72 0 -134 17.5t-108 52.5t-72 87t-26 124q0 47 13 100l71 295l-114 10l8 248l172 47l53 224h379l-49 -236h168l-6 -293h-252l-55 -237q-4 -10 -6.5 -25.5t-2.5 -32.5q0 -41 22.5 -58.5t84.5 -17.5q18 0 37.5 4.5t40.5 10.5z M176 -260q6 35 25.5 64.5t49 50t65.5 31t75 5.5q92 -10 137 -70.5t29 -148.5q-20 -102 -115.5 -172.5t-255.5 -91.5l-55 90q66 25 110.5 54.5t51.5 64.5q2 14 0 29.5t-13.5 31t-36 31t-67.5 31.5z" />
<glyph unicode="&#x164;" horiz-adv-x="1275" d="M934 950l-184 -950h-404l184 950h-387l64 330h1177l-63 -330h-387zM743 1790l80 -204h4l154 204h307l-322 -383h-340l-170 383h287z" />
<glyph unicode="&#x165;" horiz-adv-x="1224" d="M713 2q-53 -14 -120 -23.5t-147 -9.5q-72 0 -134 17.5t-108 52.5t-72 87t-26 124q0 47 13 100l71 295l-114 10l8 248l172 47l53 224h379l-49 -236h168l-6 -293h-252l-55 -237q-4 -10 -6.5 -25.5t-2.5 -32.5q0 -41 22.5 -58.5t84.5 -17.5q18 0 37.5 4.5t40.5 10.5z M815.998 1426.79q12.7998 75.1982 63.1982 121.198q50.3994 45.999 131.998 45.999q45.5996 0 83.5986 -18q38 -18 65.5996 -48.3994t43.1992 -70.3984q15.5996 -40 15.5996 -85.5986q0 -71.999 -35.1992 -132.798q-35.1992 -60.7998 -89.1992 -107.599 q-53.999 -46.7998 -118.798 -79.5986q-64.7988 -32.7998 -123.198 -51.999l-113.598 123.998q21.5996 7.99902 54.3984 26.3994q32.7998 18.3994 63.999 42.7988q31.2002 24.4004 53.1992 53.1992q22 28.7998 22 56.7998q0 48.7988 -31.999 74.7988 q-32 25.999 -84.7988 49.1992z" />
<glyph unicode="&#x16a;" horiz-adv-x="1404" d="M670 -31q-289 0 -434.5 117t-147.5 317q0 35 8 83.5t17 86.5l139 707h403l-137 -715q-4 -27 -10 -52.5t-6 -53.5q0 -78 44 -123t146 -45q96 0 138 54t61 149l153 786h402l-156 -803q-53 -268 -212.5 -388t-407.5 -120zM460 1459l29 213h778l31 -213h-838z" />
<glyph unicode="&#x16b;" horiz-adv-x="1185" d="M575 958l-100 -516q-6 -31 -6 -59q0 -43 19.5 -69.5t72.5 -26.5q35 0 62.5 16t52.5 45l117 610h391l-185 -944l-399 -45l33 168q-25 -31 -60.5 -60.5t-76.5 -53t-87.5 -39t-89.5 -15.5q-76 0 -127 19.5t-81.5 54.5t-44 81t-13.5 99q0 61 13 123l114 612h395zM305 1137 l29 213h778l31 -213h-838z" />
<glyph unicode="&#x16c;" horiz-adv-x="1404" d="M670 -31q-289 0 -434.5 117t-147.5 317q0 35 8 83.5t17 86.5l139 707h403l-137 -715q-4 -27 -10 -52.5t-6 -53.5q0 -78 44 -123t146 -45q96 0 138 54t61 149l153 786h402l-156 -803q-53 -268 -212.5 -388t-407.5 -120zM1312 1780q-29 -113 -82 -188.5t-118.5 -121.5 t-136 -65.5t-136.5 -19.5q-63 0 -126.5 19.5t-111.5 65.5t-73 122t-10 188l211 -4q2 -86 36.5 -135t106.5 -49q78 0 130 49t83 135l227 4v0z" />
<glyph unicode="&#x16d;" horiz-adv-x="1185" d="M575 958l-100 -516q-6 -31 -6 -59q0 -43 19.5 -69.5t72.5 -26.5q35 0 62.5 16t52.5 45l117 610h391l-185 -944l-399 -45l33 168q-25 -31 -60.5 -60.5t-76.5 -53t-87.5 -39t-89.5 -15.5q-76 0 -127 19.5t-81.5 54.5t-44 81t-13.5 99q0 61 13 123l114 612h395zM1161 1458 q-29 -113 -82 -188.5t-118.5 -121.5t-136 -65.5t-136.5 -19.5q-63 0 -126.5 19.5t-111.5 65.5t-73 122t-10 188l211 -4q2 -86 36.5 -135t106.5 -49q78 0 130 49t83 135l227 4v0z" />
<glyph unicode="&#x16e;" horiz-adv-x="1404" d="M670 -31q-289 0 -434.5 117t-147.5 317q0 35 8 83.5t17 86.5l139 707h403l-137 -715q-4 -27 -10 -52.5t-6 -53.5q0 -78 44 -123t146 -45q96 0 138 54t61 149l153 786h402l-156 -803q-53 -268 -212.5 -388t-407.5 -120zM1200 1655q0 -63 -28 -112.5t-74 -83t-106.5 -51 t-123.5 -17.5q-55 0 -108.5 14.5t-93.5 44t-64.5 72.5t-24.5 100q0 63 27.5 112.5t74 83.5t106.5 52.5t124 18.5q57 0 110.5 -14.5t93.5 -44t63.5 -74t23.5 -101.5zM1067 1653q0 72 -48.5 101.5t-117.5 29.5q-78 0 -135.5 -39t-57.5 -116q0 -68 51.5 -98.5t118.5 -30.5 q76 0 132.5 39.5t56.5 113.5z" />
<glyph unicode="&#x16f;" horiz-adv-x="1185" d="M575 958l-100 -516q-6 -31 -6 -59q0 -43 19.5 -69.5t72.5 -26.5q35 0 62.5 16t52.5 45l117 610h391l-185 -944l-399 -45l33 168q-25 -31 -60.5 -60.5t-76.5 -53t-87.5 -39t-89.5 -15.5q-76 0 -127 19.5t-81.5 54.5t-44 81t-13.5 99q0 61 13 123l114 612h395zM1028 1313 q0 -63 -28 -112.5t-74 -83t-106.5 -51t-123.5 -17.5q-55 0 -108.5 14.5t-93.5 44t-64.5 72.5t-24.5 100q0 63 27.5 112.5t74 83.5t106.5 52.5t124 18.5q57 0 110.5 -14.5t93.5 -44t63.5 -74t23.5 -101.5zM895 1311q0 72 -48.5 101.5t-117.5 29.5q-78 0 -135.5 -39 t-57.5 -116q0 -68 51.5 -98.5t118.5 -30.5q76 0 132.5 39.5t56.5 113.5z" />
<glyph unicode="&#x170;" horiz-adv-x="1404" d="M670 -31q-289 0 -434.5 117t-147.5 317q0 35 8 83.5t17 86.5l139 707h403l-137 -715q-4 -27 -10 -52.5t-6 -53.5q0 -78 44 -123t146 -45q96 0 138 54t61 149l153 786h402l-156 -803q-53 -268 -212.5 -388t-407.5 -120zM1130 1407h-240l377 383h357zM694 1407h-254 l338 383h358z" />
<glyph unicode="&#x171;" horiz-adv-x="1185" d="M575 958l-100 -516q-6 -31 -6 -59q0 -43 19.5 -69.5t72.5 -26.5q35 0 62.5 16t52.5 45l117 610h391l-185 -944l-399 -45l33 168q-25 -31 -60.5 -60.5t-76.5 -53t-87.5 -39t-89.5 -15.5q-76 0 -127 19.5t-81.5 54.5t-44 81t-13.5 99q0 61 13 123l114 612h395zM979 1085 h-240l377 383h357zM543 1085h-254l338 383h358z" />
<glyph unicode="&#x172;" horiz-adv-x="1404" d="M733 -455q-121 0 -177 66.5t-38 167.5q10 61 49 108t92 82h-6q-281 4 -422 121t-143 313q0 35 8 83.5t17 86.5l139 707h403l-137 -715q-4 -27 -10 -52.5t-6 -53.5q0 -78 44 -123t146 -45q96 0 138 54t61 149l153 786h402l-156 -803q-35 -182 -120 -290.5t-212 -168.5 q-72 -35 -118.5 -79.5t-57.5 -96.5q-8 -43 10.5 -65.5t59.5 -22.5q29 0 57.5 7.5t51.5 17.5l14 -176q-49 -27 -106.5 -42.5t-135.5 -15.5z" />
<glyph unicode="&#x173;" horiz-adv-x="1185" d="M575 958l-100 -516q-6 -31 -6 -59q0 -43 19.5 -69.5t72.5 -26.5q35 0 62.5 16t52.5 45l117 610h391l-189 -960q-102 -8 -183 -48t-91 -108q-12 -88 70 -88q29 0 57.5 7.5t50.5 17.5l14 -176q-49 -27 -106 -42.5t-135 -15.5q-121 0 -177.5 66.5t-37.5 167.5q10 61 49 108 t94 82l33 168q-25 -31 -60.5 -60.5t-76.5 -53t-87.5 -39t-89.5 -15.5q-76 0 -127 19.5t-81.5 54.5t-44 81t-13.5 99q0 61 13 123l114 612h395z" />
<glyph unicode="&#x174;" horiz-adv-x="2017" d="M682 0h-403l-84 1280h428l-45 -819l358 819h442l39 -819l277 819h442l-592 -1280h-414l-47 842zM1300 1407l-81 203h-5l-155 -203h-303l317 383h340l174 -383h-287z" />
<glyph unicode="&#x175;" horiz-adv-x="1587" d="M174 -4l-70 962h379l-14 -538l231 541h373l19 -523l178 520h393l-451 -962h-374l-27 584l-262 -584h-375zM1044 1085l-81 203h-5l-155 -203h-303l317 383h340l174 -383h-287z" />
<glyph unicode="&#x176;" horiz-adv-x="1327" d="M864 473l-92 -473h-397l92 475l-291 805h410l137 -461l307 461h434zM954 1407l-81 203h-5l-155 -203h-303l317 383h340l174 -383h-287z" />
<glyph unicode="&#x177;" horiz-adv-x="1069" d="M-41 -37q43 -29 72.5 -45t72.5 -16q41 0 63.5 10t43.5 45l6 10l-166 991h398l51 -596l252 596h407l-479 -935l-66 -121q-96 -178 -207.5 -248t-263.5 -70q-92 0 -180 33t-156 74l152 272v0zM747 1085l-81 203h-5l-155 -203h-303l317 383h340l174 -383h-287z" />
<glyph unicode="&#x178;" horiz-adv-x="1327" d="M864 473l-92 -473h-397l92 475l-291 805h410l137 -461l307 461h434zM1268 1528q0 -90 -49.5 -132t-133.5 -42q-82 0 -132 42t-50 132t50.5 132t131.5 42q84 0 133.5 -42t49.5 -132zM762 1528q0 -90 -50 -132t-132 -42q-84 0 -134.5 42t-50.5 132t50.5 132t134.5 42 q82 0 132 -42t50 -132z" />
<glyph unicode="&#x179;" horiz-adv-x="1251" d="M-18 0l49 258l741 703h-592l62 319h1101l-49 -260l-735 -698h598l-63 -322h-1112zM842 1407h-242l271 383h417z" />
<glyph unicode="&#x17a;" horiz-adv-x="991" d="M-63 0l43 219l495 436h-393l59 303h903l-43 -219l-491 -436h408l-60 -303h-921zM674 1085h-242l271 383h417z" />
<glyph unicode="&#x17b;" horiz-adv-x="1251" d="M-18 0l49 258l741 703h-592l62 319h1101l-49 -260l-735 -698h598l-63 -322h-1112zM987 1565q-8 -86 -63.5 -145.5t-147.5 -59.5t-142.5 59.5t-46.5 145.5q2 39 19.5 76t46.5 66.5t67.5 47t86.5 17.5q45 0 80.5 -17.5t58 -46t34 -65.5t7.5 -78z" />
<glyph unicode="&#x17c;" horiz-adv-x="991" d="M-63 0l43 219l495 436h-393l59 303h903l-43 -219l-491 -436h408l-60 -303h-921zM817 1243q-8 -86 -63.5 -145.5t-147.5 -59.5t-142.5 59.5t-46.5 145.5q2 39 19.5 76t46.5 66.5t67.5 47t86.5 17.5q45 0 80.5 -17.5t58 -46t34 -65.5t7.5 -78z" />
<glyph unicode="&#x17d;" horiz-adv-x="1251" d="M-18 0l49 258l741 703h-592l62 319h1101l-49 -260l-735 -698h598l-63 -322h-1112zM729 1729l80 -205h4l154 205h307l-322 -383h-340l-170 383h287z" />
<glyph unicode="&#x17e;" horiz-adv-x="991" d="M-63 0l43 219l495 436h-393l59 303h903l-43 -219l-491 -436h408l-60 -303h-921zM532 1468l80 -204h4l154 204h307l-321 -383h-340l-170 383h286z" />
<glyph unicode="&#x192;" horiz-adv-x="1028" d="M319 526l-241 13l59 249l219 46l15 102q27 186 123 280.5t282 94.5q96 0 179 -19.5t139 -48.5l-111 -278q-35 20 -75 31.5t-70 11.5q-47 0 -76 -28t-35 -69l-12 -88h282l-53 -295h-252l-8 -53q-18 -125 -54 -212t-96.5 -146.5t-150.5 -95t-217 -58.5l-90 281 q104 23 157.5 63.5t67.5 118.5z" />
<glyph unicode="&#x1fa;" horiz-adv-x="1390" d="M823 973l-225 -420h256zM1065 1436q0 72 -48 101.5t-118 29.5q-78 0 -135 -39t-57 -117q0 -68 51 -98.5t119 -30.5q76 0 132 40t56 114zM621 1272q-45 55 -46 133q0 63 28 112.5t74 83t106.5 52t123.5 18.5q57 0 110.5 -14.5t93.5 -43t63.5 -72.5t23.5 -103 q0 -96 -68 -164l183 -1274h-398l-28 240h-449l-133 -240h-409zM897 1695h-242l271 383h417z" />
<glyph unicode="&#x1fb;" horiz-adv-x="1110" d="M676 1609h-242l271 383h417zM602 408q-111 -2 -169 -27t-58 -84q0 -39 25.5 -61.5t68.5 -22.5q29 0 57.5 13.5t44.5 29.5zM637 578q25 123 -160 122q-80 0 -162 -19t-147 -44l-33 287q72 27 178.5 46t223.5 19q174 0 279.5 -40t157.5 -106.5t59 -153.5t-15 -179l-41 -186 q-8 -37 3 -51.5t50 -18.5l-88 -272q-188 -23 -277.5 18t-99.5 129h-2q-47 -59 -115.5 -107.5t-175.5 -48.5q-61 0 -111 21.5t-85 58.5t-53.5 84t-18.5 99q0 74 39 138t117 109t195.5 65.5t277.5 8.5zM985 1333q0 -63 -28 -112.5t-74 -83t-106.5 -51t-123.5 -17.5 q-55 0 -108.5 14.5t-93.5 44t-64.5 72.5t-24.5 100q0 63 27.5 112.5t74 83.5t106.5 52.5t124 18.5q57 0 110.5 -14.5t93.5 -44t63.5 -74t23.5 -101.5zM852 1331q0 72 -48.5 101.5t-117.5 29.5q-78 0 -135.5 -39t-57.5 -116q0 -68 51.5 -98.5t118.5 -30.5q76 0 132.5 39.5 t56.5 113.5z" />
<glyph unicode="&#x1fc;" horiz-adv-x="1906" d="M848 553l96 494l-289 -494h193zM324 0h-430l819 1280h1278l-60 -313h-608l-33 -170h502l-61 -310h-502l-33 -174h608l-61 -313h-1002l47 240h-319zM1370 1407h-242l271 383h417z" />
<glyph unicode="&#x1fd;" horiz-adv-x="1673" d="M903 920q66 39 137.5 54t157.5 15q199 0 314.5 -87t115.5 -265q0 -53 -14.5 -122t-32.5 -118l-598 -8v-10q0 -35 18.5 -60.5t48 -43t66.5 -26.5t76 -9q82 0 163 25.5t130 53.5l45 -286q-66 -27 -164 -45.5t-197 -18.5q-174 0 -288.5 51.5t-178.5 147.5 q-82 -96 -183 -147.5t-234 -51.5q-66 0 -118 22.5t-88 59.5t-55.5 85t-19.5 100q0 74 36 138t112.5 109t197.5 65.5t291 8.5l4 21q25 123 -164 122q-35 0 -75.5 -5t-82.5 -14t-82 -20.5t-73 -23.5l-33 287q72 27 179.5 46t224.5 19q123 0 213 -17t151 -52zM635 403 q-260 12 -260 -116q0 -39 28.5 -61.5t69.5 -22.5q51 0 97 22.5t79 63.5q-8 27 -10 57t-4 57zM1249 557q8 20 13.5 52t5.5 53q0 43 -21.5 67.5t-62.5 24.5q-57 0 -101.5 -50.5t-62.5 -146.5h229zM977 1085h-242l271 383h417z" />
<glyph unicode="&#x1fe;" horiz-adv-x="1513" d="M1491 745q0 -164 -56.5 -306t-156.5 -247.5t-239.5 -166t-305.5 -60.5q-205 0 -366 84l-78 -94q-35 -41 -80 -92h-164l217 258q-82 72 -129 175t-47 239q0 164 56.5 306t155.5 247.5t238.5 166t305.5 60.5q100 0 191 -20.5t169 -61.5l156 184h168l-215 -254 q84 -72 132 -176.5t48 -241.5zM977 952q-59 43 -156 43q-84 0 -145.5 -41t-101 -104.5t-58 -140t-18.5 -150.5q0 -76 24 -133zM1051 864q-129 -147 -230 -264l-229 -266q66 -49 164 -49q84 0 144.5 41t100 105.5t59 141t19.5 148.5q1 80 -28 143zM1036 1366h-242l271 383 h417z" />
<glyph unicode="&#x1ff;" horiz-adv-x="1189" d="M1147 551q0 -123 -42 -229.5t-118 -185.5t-181.5 -124t-234.5 -45q-145 0 -266 51l-133 -155h-164l189 223q-70 59 -108 141t-38 191q0 123 43 228.5t121 181t185.5 118.5t234.5 43q156 0 270 -55l121 143h168l-180 -213q63 -57 98 -136t35 -177zM729 709q-35 37 -100 36 q-43 0 -80 -26.5t-63.5 -72.5t-42 -106.5t-15.5 -127.5v-26.5t2 -25.5zM776 545v20t-2 21l-295 -338q35 -33 92 -33q43 0 80 25.5t64.5 70.5t44 105.5t16.5 128.5zM756 1085h-242l271 383h417z" />
<glyph unicode="&#x218;" horiz-adv-x="1212" d="M539 299q106 0 144 18.5t38 53.5q0 18 -9.5 30.5t-34 26.5t-67.5 31.5t-110 44.5q-63 25 -127 57.5t-114 77.5t-81 106.5t-31 147.5q0 98 40 176t112 131t169 81t212 28q172 0 310 -34t216 -73l-71 -344q-51 27 -109.5 48.5t-115 36.5t-109.5 24.5t-96 9.5 q-80 0 -113 -22.5t-33 -49.5q0 -18 10.5 -31.5t36 -26.5t70.5 -29.5t112 -41.5q74 -29 137.5 -60.5t109.5 -73.5t73 -95t27 -123q0 -111 -41 -195t-116 -142t-182.5 -88t-240.5 -30q-78 0 -154.5 10.5t-145.5 25.5t-126 34.5t-96 38.5l71 344q55 -29 118 -51.5t121 -39 t109.5 -24.5t86.5 -8zM354 -260q6 35 25.5 64.5t49 50t65.5 31t75 5.5q92 -10 137 -70.5t29 -148.5q-20 -102 -115.5 -172.5t-255.5 -91.5l-55 90q66 25 110.5 54.5t51.5 64.5q2 14 0 29.5t-13.5 31t-36 31t-67.5 31.5z" />
<glyph unicode="&#x219;" horiz-adv-x="1005" d="M926 307q0 -70 -29 -131t-86 -107t-143 -73t-199 -27q-55 0 -118.5 7.5t-126 20.5t-120 31.5t-100.5 41.5l70 288q43 -25 95 -47t105.5 -39.5t106.5 -28t98 -10.5q35 0 54.5 14.5t19.5 35.5q0 23 -27.5 37t-107.5 32q-98 23 -164 51.5t-103.5 66.5t-54 84t-16.5 101 q0 70 28.5 131.5t86 106.5t142.5 70.5t200 25.5q55 0 117.5 -7t124 -20.5t118.5 -32t100 -40.5l-73 -289q-100 55 -205 90t-193 35q-35 0 -52 -13.5t-17 -33.5q0 -23 28.5 -34t108.5 -32q98 -25 162.5 -53.5t101.5 -65t52.5 -83t15.5 -103.5zM209 -260q6 35 25.5 64.5t49 50 t65.5 31t75 5.5q92 -10 137 -70.5t29 -148.5q-20 -102 -115.5 -172.5t-255.5 -91.5l-55 90q66 25 110.5 54.5t51.5 64.5q2 14 0 29.5t-13.5 31t-36 31t-67.5 31.5z" />
<glyph unicode="&#x21a;" horiz-adv-x="1275" d="M934 950l-184 -950h-404l184 950h-387l64 330h1177l-63 -330h-387zM322 -260q6 35 25.5 64.5t49 50t65.5 31t75 5.5q92 -10 137 -70.5t29 -148.5q-20 -102 -115.5 -172.5t-255.5 -91.5l-55 90q66 25 110.5 54.5t51.5 64.5q2 14 0 29.5t-13.5 31t-36 31t-67.5 31.5z" />
<glyph unicode="&#x21b;" horiz-adv-x="813" d="M713 2q-53 -14 -120 -23.5t-147 -9.5q-72 0 -134 17.5t-108 52.5t-72 87t-26 124q0 47 13 100l71 295l-114 10l8 248l172 47l53 224h379l-49 -236h168l-6 -293h-252l-55 -237q-4 -10 -6.5 -25.5t-2.5 -32.5q0 -41 22.5 -58.5t84.5 -17.5q18 0 37.5 4.5t40.5 10.5z M176 -260q6 35 25.5 64.5t49 50t65.5 31t75 5.5q92 -10 137 -70.5t29 -148.5q-20 -102 -115.5 -172.5t-255.5 -91.5l-55 90q66 25 110.5 54.5t51.5 64.5q2 14 0 29.5t-13.5 31t-36 31t-67.5 31.5z" />
<glyph unicode="&#x237;" horiz-adv-x="583" d="M-207 -248q47 20 84 48t64.5 67t47 94t34.5 131l167 860l398 27l-180 -916q-41 -213 -143.5 -355t-303.5 -197z" />
<glyph unicode="&#x2c6;" horiz-adv-x="819" d="M659 1085l-81 203h-5l-155 -203h-303l317 383h340l174 -383h-287z" />
<glyph unicode="&#x2c7;" horiz-adv-x="819" d="M475 1468l80 -204h4l154 204h307l-322 -383h-340l-170 383h287z" />
<glyph unicode="&#x2d8;" horiz-adv-x="819" d="M999 1458q-29 -113 -82 -188.5t-118.5 -121.5t-136 -65.5t-136.5 -19.5q-63 0 -126.5 19.5t-111.5 65.5t-73 122t-10 188l211 -4q2 -86 36.5 -135t106.5 -49q78 0 130 49t83 135l227 4v0z" />
<glyph unicode="&#x2d9;" horiz-adv-x="819" d="M760 1243q-8 -86 -63.5 -145.5t-147.5 -59.5t-142.5 59.5t-46.5 145.5q2 39 19.5 76t46.5 66.5t67.5 47t86.5 17.5q45 0 80.5 -17.5t58 -46t34 -65.5t7.5 -78z" />
<glyph unicode="&#x2da;" horiz-adv-x="819" d="M887 1333q0 -63 -28 -112.5t-74 -83t-106.5 -51t-123.5 -17.5q-55 0 -108.5 14.5t-93.5 44t-64.5 72.5t-24.5 100q0 63 27.5 112.5t74 83.5t106.5 52.5t124 18.5q57 0 110.5 -14.5t93.5 -44t63.5 -74t23.5 -101.5zM754 1331q0 72 -48.5 101.5t-117.5 29.5 q-78 0 -135.5 -39t-57.5 -116q0 -68 51.5 -98.5t118.5 -30.5q76 0 132.5 39.5t56.5 113.5z" />
<glyph unicode="&#x2db;" horiz-adv-x="819" d="M315 -455q-121 0 -177 66.5t-38 167.5q10 57 45 102t84.5 79t110.5 55.5t127 29.5h121q-90 -41 -150.5 -92t-72.5 -111q-8 -43 10 -65.5t59 -22.5q29 0 57.5 7.5t51.5 17.5l14 -176q-49 -27 -106.5 -42.5t-135.5 -15.5z" />
<glyph unicode="&#x2dc;" horiz-adv-x="815" d="M1014 1432q-53 -180 -120 -260t-165 -80q-57 0 -103 17t-85 38.5t-71 39t-58 17.5q-16 0 -28.5 -12t-21 -27.5t-11.5 -31t-3 -23.5h-239q51 178 119.5 256t164.5 78q57 0 103.5 -16.5t85.5 -37t70.5 -37t58.5 -16.5q16 0 28.5 12.5t21.5 28t13 30.5t6 24h37h81h62h54z " />
<glyph unicode="&#x2dd;" horiz-adv-x="815" d="M858 1085h-240l377 383h357zM422 1085h-254l338 383h358z" />
<glyph unicode="&#x1e80;" horiz-adv-x="2017" d="M682 0h-403l-84 1280h428l-45 -819l358 819h442l39 -819l277 819h442l-592 -1280h-414l-47 842zM1108 1407l-295 383h413l123 -383h-241z" />
<glyph unicode="&#x1e81;" horiz-adv-x="1587" d="M174 -4l-70 962h379l-14 -538l231 541h373l19 -523l178 520h393l-451 -962h-374l-27 584l-262 -584h-375zM824 1085l-295 383h413l123 -383h-241z" />
<glyph unicode="&#x1e82;" horiz-adv-x="2017" d="M682 0h-403l-84 1280h428l-45 -819l358 819h442l39 -819l277 819h442l-592 -1280h-414l-47 842zM1213 1407h-242l271 383h417z" />
<glyph unicode="&#x1e83;" horiz-adv-x="1587" d="M174 -4l-70 962h379l-14 -538l231 541h373l19 -523l178 520h393l-451 -962h-374l-27 584l-262 -584h-375zM977 1085h-242l271 383h417z" />
<glyph unicode="&#x1e84;" horiz-adv-x="2017" d="M682 0h-403l-84 1280h428l-45 -819l358 819h442l39 -819l277 819h442l-592 -1280h-414l-47 842zM1656 1590q0 -90 -49 -132t-133 -42q-82 0 -132 42t-50 132t50 132t132 42q84 0 133 -42t49 -132zM1151 1590q0 -90 -50.5 -132t-132.5 -42q-84 0 -134 42t-50 132t50 132 t134 42q82 0 132.5 -42t50.5 -132z" />
<glyph unicode="&#x1e85;" horiz-adv-x="1587" d="M174 -4l-70 962h379l-14 -538l231 541h373l19 -523l178 520h393l-451 -962h-374l-27 584l-262 -584h-375zM1372 1268q0 -90 -49 -132t-133 -42q-82 0 -132 42t-50 132t50 132t132 42q84 0 133 -42t49 -132zM867 1268q0 -90 -50.5 -132t-132.5 -42q-84 0 -134 42t-50 132 t50 132t134 42q82 0 132.5 -42t50.5 -132z" />
<glyph unicode="&#x2000;" horiz-adv-x="1039" />
<glyph unicode="&#x2001;" horiz-adv-x="2078" />
<glyph unicode="&#x2002;" horiz-adv-x="1039" />
<glyph unicode="&#x2003;" horiz-adv-x="2078" />
<glyph unicode="&#x2004;" horiz-adv-x="692" />
<glyph unicode="&#x2005;" horiz-adv-x="519" />
<glyph unicode="&#x2006;" horiz-adv-x="346" />
<glyph unicode="&#x2007;" horiz-adv-x="346" />
<glyph unicode="&#x2008;" horiz-adv-x="259" />
<glyph unicode="&#x2009;" horiz-adv-x="155" />
<glyph unicode="&#x200a;" horiz-adv-x="115" />
<glyph unicode="&#x2010;" horiz-adv-x="827" d="M51 346v301h727v-301h-727z" />
<glyph unicode="&#x2011;" horiz-adv-x="827" d="M51 346v301h727v-301h-727z" />
<glyph unicode="&#x2012;" horiz-adv-x="827" d="M51 346v301h727v-301h-727z" />
<glyph unicode="&#x2013;" horiz-adv-x="1144" d="M47 346l6 301h1043l6 -301h-1055z" />
<glyph unicode="&#x2014;" horiz-adv-x="2107" d="M47 346l6 301h2005l6 -301h-2017z" />
<glyph unicode="&#x2018;" horiz-adv-x="610" d="M655 829q-16 -94 -78.5 -151t-164.5 -57q-57 0 -104.5 22.5t-82.5 60t-54 88t-19 107.5q0 90 44 166t111.5 134t148.5 99t154 66l142 -156q-27 -10 -68 -33.5t-80 -54t-66.5 -65.5t-27.5 -70q0 -61 39.5 -94t105.5 -62z" />
<glyph unicode="&#x2019;" horiz-adv-x="610" d="M190 1161q16 94 79 151.5t165 57.5q57 0 104.5 -22.5t82 -60.5t54 -88t19.5 -107q0 -90 -44 -166t-111.5 -134.5t-148.5 -99.5t-154 -65l-142 155q27 10 68 33t80 53.5t66.5 66.5t27.5 71q0 61 -40 93.5t-106 61.5z" />
<glyph unicode="&#x201a;" horiz-adv-x="610" d="M-20 168q16 94 78.5 151.5t164.5 57.5q57 0 104.5 -22.5t82 -60.5t54 -88t19.5 -108q0 -90 -44 -165.5t-111.5 -134t-148.5 -99.5t-154 -66l-142 156q27 10 68 32.5t80 53.5t66.5 66.5t27.5 70.5q0 61 -39.5 94t-105.5 62z" />
<glyph unicode="&#x201c;" horiz-adv-x="1196" d="M1221 829q-16 -94 -79 -151t-165 -57q-57 0 -104.5 22.5t-82 60t-54 88t-19.5 107.5q0 90 44 166t111.5 134t148.5 99t155 66l141 -156q-27 -10 -68 -33.5t-80 -54t-66.5 -65.5t-27.5 -70q0 -61 40 -94t106 -62zM655 829q-16 -94 -78.5 -151t-164.5 -57 q-57 0 -104.5 22.5t-82.5 60t-54 88t-19 107.5q0 90 44 166t111.5 134t148.5 99t154 66l142 -156q-27 -10 -68 -33.5t-80 -54t-66.5 -65.5t-27.5 -70q0 -61 39.5 -94t105.5 -62z" />
<glyph unicode="&#x201d;" horiz-adv-x="1196" d="M756 1161q16 94 78.5 151.5t164.5 57.5q57 0 104.5 -22.5t82.5 -60.5t54.5 -88t19.5 -107q0 -90 -44.5 -166t-112 -134.5t-148.5 -99.5t-154 -65l-142 155q27 10 68 33t80 53.5t66.5 66.5t27.5 71q0 61 -39.5 93.5t-105.5 61.5zM190 1161q16 94 79 151.5t165 57.5 q57 0 104.5 -22.5t82 -60.5t54 -88t19.5 -107q0 -90 -44 -166t-111.5 -134.5t-148.5 -99.5t-154 -65l-142 155q27 10 68 33t80 53.5t66.5 66.5t27.5 71q0 61 -40 93.5t-106 61.5z" />
<glyph unicode="&#x201e;" horiz-adv-x="1196" d="M545 168q16 94 78.5 151.5t164.5 57.5q57 0 104.5 -22.5t82.5 -60.5t54.5 -88t19.5 -108q0 -90 -44 -165.5t-112 -134t-148.5 -99.5t-154.5 -66l-141 156q27 10 67.5 32.5t79.5 53.5t66.5 66.5t27.5 70.5q0 61 -39.5 94t-105.5 62zM-20 168q16 94 78.5 151.5t164.5 57.5 q57 0 104.5 -22.5t82 -60.5t54 -88t19.5 -108q0 -90 -44 -165.5t-111.5 -134t-148.5 -99.5t-154 -66l-142 156q27 10 68 32.5t80 53.5t66.5 66.5t27.5 70.5q0 61 -39.5 94t-105.5 62z" />
<glyph unicode="&#x2020;" horiz-adv-x="1142" d="M53 621v301h357v358h325v-358h359v-301h-359v-879h-325v879h-357z" />
<glyph unicode="&#x2021;" horiz-adv-x="1142" d="M53 641v301h357v338h325v-338h359v-301h-365v-260h365v-301h-359v-338h-325v338h-357v301h363v260h-363z" />
<glyph unicode="&#x2022;" horiz-adv-x="886" d="M838 475q0 -23 -12.5 -63.5t-30 -83.5t-37 -80t-35.5 -53t-53 -36t-80 -37.5t-84 -29.5t-64 -12t-62.5 12t-82.5 29.5t-80 37t-51 36.5q-16 16 -35.5 53t-38 80t-31 84t-12.5 63q0 23 12.5 63t31 83t38 79.5t35.5 53.5q14 14 52 34.5t81 38t83 29.5t62 12q23 0 63 -12 t83 -30.5t80 -38t53 -33.5q14 -14 34.5 -51t38 -80t30 -84t12.5 -64z" />
<glyph unicode="&#x2026;" horiz-adv-x="1849" d="M1696 174q0 -96 -62.5 -150.5t-150.5 -54.5t-150.5 54.5t-62.5 150.5t62.5 150.5t150.5 54.5t150.5 -54.5t62.5 -150.5zM1081 174q0 -96 -62.5 -150.5t-150.5 -54.5t-150.5 54.5t-62.5 150.5t62.5 150.5t150.5 54.5t150.5 -54.5t62.5 -150.5zM467 174q0 -96 -62.5 -150.5 t-150.5 -54.5t-150.5 54.5t-62.5 150.5t62.5 150.5t150.5 54.5t150.5 -54.5t62.5 -150.5z" />
<glyph unicode="&#x202f;" horiz-adv-x="415" />
<glyph unicode="&#x2030;" horiz-adv-x="2639" d="M870 1030q0 -92 -28.5 -171t-80.5 -136t-126 -89t-162 -32q-80 0 -146.5 20.5t-114.5 60.5t-74.5 95.5t-26.5 126.5q0 92 29.5 170t82.5 133.5t127 86t164 30.5q160 -2 258 -80t98 -215zM403 -31h-292l1343 1340h293zM1745 383q0 -92 -28.5 -171t-81 -136.5t-126 -89 t-161.5 -31.5q-80 0 -146.5 20.5t-115 60.5t-75 95t-26.5 127q0 92 29.5 170t83 133t127 86t164.5 31q160 -2 258 -80t98 -215zM602 1020q0 57 -24.5 83.5t-65.5 26.5q-33 0 -58.5 -21.5t-42 -53t-25.5 -71.5t-9 -77q0 -57 27.5 -84.5t68.5 -27.5q27 0 50.5 17t41 48 t27.5 72t10 88zM1477 373q0 57 -25 83.5t-66 26.5q-33 0 -58 -21.5t-41.5 -53t-26 -71.5t-9.5 -77q0 -57 28 -85t69 -28q27 0 50 17.5t40.5 48.5t28 72t10.5 88zM2591 383q0 -92 -29 -171t-81 -136.5t-126 -89t-162 -31.5q-80 0 -146.5 20.5t-114.5 60.5t-74.5 95t-26.5 127 q0 92 29.5 170t83 133t127 86t163.5 31q160 -2 258.5 -80t98.5 -215zM2322 373q0 57 -24.5 83.5t-65.5 26.5q-33 0 -58.5 -21.5t-41.5 -53t-25.5 -71.5t-9.5 -77q0 -57 27.5 -85t68.5 -28q27 0 50.5 17.5t41 48.5t27.5 72t10 88z" />
<glyph unicode="&#x2039;" horiz-adv-x="765" d="M539 10l-516 326l55 282l643 326l22 -242l-350 -227v-4l260 -227z" />
<glyph unicode="&#x203a;" horiz-adv-x="765" d="M49 10l-22 242l350 227v4l-262 228l116 233l517 -326l-56 -282z" />
<glyph unicode="&#x2044;" horiz-adv-x="1415" d="M211 -31h-293l1344 1340h292z" />
<glyph unicode="&#x205f;" horiz-adv-x="519" />
<glyph unicode="&#x2070;" horiz-adv-x="675" d="M313 543q-303 0 -303 274q0 80 18.5 172t62.5 172t116 132.5t180 52.5q152 0 229.5 -74t77.5 -215q0 -80 -19.5 -171t-64.5 -167t-118 -126t-179 -50zM422 1096q0 14 -5 31.5t-24 17.5q-25 0 -45 -48t-36.5 -109.5t-26 -120t-9.5 -79.5q0 -12 5.5 -30.5t25.5 -18.5 q16 0 31.5 22.5t28 57.5t22.5 78t17.5 83t11.5 71t4 45z" />
<glyph unicode="&#x2074;" horiz-adv-x="675" d="M578 719l-35 -160h-273l31 160h-285l2 194l287 406h400l-84 -393h55l-39 -207h-59zM410 1157l-160 -244h104z" />
<glyph unicode="&#x2075;" horiz-adv-x="675" d="M367 1047q47 0 95 -12.5t87 -38t63.5 -65.5t24.5 -93q0 -129 -91 -214t-265 -85q-80 0 -168 17t-154 54l53 217q18 -12 48 -26.5t63 -25.5t66.5 -19t60.5 -8q47 0 67.5 13t20.5 48q0 27 -42 44t-118 17q-41 0 -76.5 -6t-64.5 -10l-17 57l134 408h557l-47 -225h-316 l-20 -47h39z" />
<glyph unicode="&#x2076;" horiz-adv-x="675" d="M694 1128q-135 4 -231 -16t-144 -94l5 -6q43 25 86 33t73 8q80 0 139.5 -54.5t59.5 -154.5q0 -59 -21.5 -114.5t-64.5 -98.5t-108.5 -68.5t-151.5 -25.5t-147.5 26.5t-99.5 69.5t-55.5 98t-17.5 115q0 111 40 202t119 156.5t195.5 102t270.5 36.5zM283 801q0 -72 47 -72 q35 0 54 32t19 66q0 33 -17 51.5t-38 18.5q-8 0 -24.5 -1t-26.5 -5q-14 -51 -14 -90z" />
<glyph unicode="&#x2077;" horiz-adv-x="675" d="M74 1094l37 221h602l-37 -199l-389 -557h-299l383 535h-297z" />
<glyph unicode="&#x2078;" horiz-adv-x="675" d="M657 793q0 -66 -28.5 -113t-74.5 -78t-103.5 -45t-116.5 -14q-49 0 -109.5 8t-114 30.5t-89 61.5t-35.5 102q0 43 17 73t45 50.5t65 31.5t73 15q-55 25 -90 66t-35 98q0 66 25 113t68 76.5t100 44t123 14.5q47 0 105.5 -8t108.5 -30.5t84 -62.5t34 -104 q0 -82 -53.5 -118.5t-135.5 -45.5q55 -25 96 -65.5t41 -99.5zM444 1100q0 63 -55 63q-31 0 -49 -18.5t-18 -48.5q0 -35 25.5 -53.5t47.5 -32.5q49 37 49 90zM393 782q0 35 -25.5 53.5t-48.5 32.5q-49 -37 -49 -90q0 -63 56 -63q31 0 49 18t18 49z" />
<glyph unicode="&#x2079;" horiz-adv-x="675" d="M375 854q-31 -16 -70 -29.5t-86 -13.5q-78 0 -136 55.5t-58 155.5q0 59 21.5 114.5t64.5 98.5t108.5 68.5t151.5 25.5t147.5 -26.5t99 -69.5t55 -99.5t17.5 -113.5q0 -111 -40 -202t-118.5 -156.5t-195.5 -102.5t-270 -37l-54 215q51 -2 107.5 3t106.5 17.5t90 34 t61 52.5zM424 1053q0 35 -12.5 59.5t-34.5 24.5q-45 0 -59.5 -32t-14.5 -67q0 -33 17.5 -51t37.5 -18q8 0 24.5 1t27.5 5q8 16 11 39t3 39z" />
<glyph unicode="&#x207a;" horiz-adv-x="675" d="M385 868v-176h-164v176h-174l4 152h170v176h164v-176h172l2 -152h-174z" />
<glyph unicode="&#x207b;" horiz-adv-x="675" d="M49 870l2 148h506l4 -148h-512z" />
<glyph unicode="&#x2080;" horiz-adv-x="675" d="M313 -309q-303 0 -303 274q0 80 18.5 172t62.5 172t116 132.5t180 52.5q152 0 229.5 -74t77.5 -215q0 -80 -19.5 -171t-64.5 -167t-118 -126t-179 -50zM422 244q0 14 -5 31.5t-24 17.5q-25 0 -45 -48t-36.5 -109.5t-26 -120t-9.5 -78.5q0 -12 5.5 -31t25.5 -19 q16 0 31.5 22.5t28 58.5t22.5 78t17.5 82t11.5 71t4 45z" />
<glyph unicode="&#x2081;" horiz-adv-x="675" d="M156 -293l133 477l-180 -22l28 241l541 76l-205 -772h-317z" />
<glyph unicode="&#x2082;" horiz-adv-x="675" d="M-14 -293l24 205q96 72 161 120t104.5 81.5t57 58.5t17.5 51q0 29 -22.5 37t-44.5 8q-41 0 -80 -14t-76 -31l-57 209q72 33 146.5 51.5t152.5 18.5q51 0 105 -9.5t99 -32t74 -63.5t29 -102q0 -68 -35 -125t-84 -101t-103.5 -76t-93.5 -48h129h125l-39 -238h-589z" />
<glyph unicode="&#x2083;" horiz-adv-x="675" d="M440 96q74 2 131.5 -45t57.5 -137q0 -106 -93.5 -165.5t-263.5 -59.5q-88 0 -163.5 18.5t-137.5 48.5l76 199q25 -10 55.5 -19.5t64.5 -16.5t66.5 -11t61.5 -4q8 0 21.5 2t26.5 7t22.5 15.5t9.5 26.5q0 29 -31 37t-78 8h-22h-16.5t-18.5 -1t-29 -1l29 180q4 -2 32.5 -3 t60.5 3t57.5 17.5t25.5 40.5q0 45 -66 45q-41 0 -92 -11.5t-86 -25.5l-49 200q70 25 131.5 39.5t130.5 14.5q45 0 99.5 -9.5t100.5 -32t77 -61.5t31 -96q0 -51 -22 -87t-53.5 -60.5t-70.5 -38t-76 -17.5z" />
<glyph unicode="&#x2084;" horiz-adv-x="675" d="M578 -133l-35 -160h-273l31 160h-285l2 194l287 406h400l-84 -393h55l-39 -207h-59zM410 305l-160 -244h104z" />
<glyph unicode="&#x2085;" horiz-adv-x="675" d="M367 195q47 0 95 -12.5t87 -38t63.5 -65.5t24.5 -93q0 -129 -91 -214t-265 -85q-80 0 -168 17t-154 54l53 217q18 -12 48 -26.5t63 -25.5t66.5 -19t60.5 -8q47 0 67.5 13t20.5 48q0 27 -42 44t-118 17q-41 0 -76.5 -6t-64.5 -10l-17 57l134 408h557l-47 -225h-316 l-20 -47h39z" />
<glyph unicode="&#x2086;" horiz-adv-x="675" d="M694 276q-135 4 -231 -16t-144 -94l5 -6q43 25 86 33t73 8q80 0 139.5 -54.5t59.5 -154.5q0 -59 -21.5 -114.5t-64.5 -98.5t-108.5 -68.5t-151.5 -25.5t-147.5 26.5t-99.5 69.5t-55.5 98t-17.5 115q0 111 40 202t119 156.5t195.5 102.5t270.5 37zM283 -51q0 -72 47 -72 q35 0 54 32t19 66q0 33 -17 51.5t-38 18.5q-8 0 -24.5 -1t-26.5 -5q-14 -51 -14 -90z" />
<glyph unicode="&#x2087;" horiz-adv-x="675" d="M74 242l37 221h602l-37 -199l-389 -557h-299l383 535h-297z" />
<glyph unicode="&#x2088;" horiz-adv-x="675" d="M657 -59q0 -66 -28.5 -113t-74.5 -78t-103.5 -45t-116.5 -14q-49 0 -109.5 8t-114 30.5t-89 61.5t-35.5 103q0 43 17 72.5t45 50t65 31.5t73 15q-55 25 -90 66t-35 98q0 66 25 113t68 76.5t100 44t123 14.5q47 0 105.5 -8t108.5 -30.5t84 -62.5t34 -104 q0 -82 -53.5 -118.5t-135.5 -45.5q55 -25 96 -65.5t41 -99.5zM444 248q0 63 -55 63q-31 0 -49 -18.5t-18 -48.5q0 -35 25.5 -53.5t47.5 -32.5q49 37 49 90zM393 -70q0 35 -25.5 53.5t-48.5 32.5q-49 -37 -49 -90q0 -63 56 -63q31 0 49 18t18 49z" />
<glyph unicode="&#x2089;" horiz-adv-x="675" d="M375 2q-31 -16 -70 -29.5t-86 -13.5q-78 0 -136 55.5t-58 155.5q0 59 21.5 114.5t64.5 98.5t108.5 68.5t151.5 25.5t147.5 -26.5t99 -69.5t55 -99.5t17.5 -113.5q0 -111 -40 -202t-118.5 -156.5t-195.5 -102.5t-270 -37l-54 215q51 -2 107.5 3.5t106.5 17.5t90 33.5 t61 52.5zM424 201q0 35 -12.5 59.5t-34.5 24.5q-45 0 -59.5 -32t-14.5 -67q0 -33 17.5 -51t37.5 -18q8 0 24.5 1t27.5 5q8 16 11 39t3 39z" />
<glyph unicode="&#x208a;" horiz-adv-x="675" d="M385 16v-176h-164v176h-174l4 152h170v176h164v-176h172l2 -152h-174z" />
<glyph unicode="&#x20ac;" horiz-adv-x="1177" d="M127 715l-6 155h164q72 217 210 338t373 121q51 0 109.5 -8t115 -22.5t106.5 -35t87 -46.5l-119 -291q-53 37 -124.5 65.5t-143.5 28.5q-74 0 -126 -42t-81 -108h371l-6 -155h-422q-4 -18 -7 -37t-7 -37q0 -16 -4.5 -34.5t-4.5 -37.5h314l6 -155h-316q6 -35 21.5 -63.5 t42.5 -49t67.5 -31t100.5 -10.5q104 0 205 41v-291q-53 -23 -139.5 -36t-174.5 -13q-260 0 -391 122t-139 331h-162l6 155h168q-2 18 2 35t2 33q4 20 7.5 38.5t9.5 39.5h-115z" />
<glyph unicode="&#x2122;" horiz-adv-x="2045" d="M1790 516l10 539h-24l-138 -514h-270l-106 520h-25l-4 -545h-221l12 766h403l66 -500h25l98 500h403l6 -766h-235zM666 1075v-559h-248v559h-244v207h760v-207h-268z" />
<glyph unicode="&#x25fc;" horiz-adv-x="962" d="M0 963h963v-963h-963v963z" />
<glyph unicode="&#xf6c3;" horiz-adv-x="819" d="M37 -260q6 35 25.5 64.5t49 50t65.5 31t75 5.5q92 -10 137 -70.5t29 -148.5q-20 -102 -115.5 -172.5t-255.5 -91.5l-55 90q66 25 110.5 54.5t51.5 64.5q2 14 0 29.5t-13.5 31t-36 31t-67.5 31.5z" />
<glyph horiz-adv-x="942" d="M836 446q-47 -246 -186.5 -360.5t-356.5 -114.5q-123 0 -207 28t-143 75l92 338q123 -111 237 -111q59 0 102.5 43t61.5 137l156 799h403l-159 -834v0z" />
<glyph horiz-adv-x="1216" d="M1090 324q-8 -37 3 -51.5t50 -18.5l-88 -272q-94 -10 -162 -5t-114 24t-69.5 52t-29.5 76h-2q-25 -29 -55.5 -57.5t-68.5 -51t-80 -37t-87 -14.5q-68 0 -129 28t-107.5 81t-74 132t-27.5 183q0 133 42 241.5t116 186.5t174 121t219 43q66 0 112 -13.5t93 -33.5l416 51z M768 659q-25 23 -54.5 39.5t-72.5 16.5q-45 0 -81 -24.5t-61.5 -64.5t-39 -92.5t-13.5 -109.5q0 -84 36 -129t91 -45q43 0 71 15.5t48 31.5z" />
<glyph horiz-adv-x="1212" d="M1047 84q-53 -264 -195.5 -383t-386.5 -119q-61 0 -125 10.5t-125 26.5t-116.5 40t-98.5 48l109 301q78 -51 165.5 -86t167.5 -35q35 0 67 6.5t58.5 23.5t45 47t28.5 77l10 45q-53 -47 -109.5 -71.5t-140.5 -24.5q-63 0 -125.5 25.5t-112.5 77.5t-82 130t-32 183 q0 133 42 240.5t116 182t174 115.5t219 41q66 0 112 -13.5t93 -33.5l416 51zM768 659q-25 23 -54.5 39.5t-72.5 16.5q-45 0 -81 -22.5t-61.5 -60.5t-39 -88t-13.5 -108q0 -84 37 -125t92 -41q43 0 71 15.5t48 31.5z" />
<glyph horiz-adv-x="1216" d="M1090 324q-8 -37 3 -51.5t50 -18.5l-88 -272q-94 -10 -162 -5t-114 24t-69.5 52t-29.5 76h-2q-25 -29 -55.5 -57.5t-68.5 -51t-80 -37t-87 -14.5q-68 0 -129 28t-107.5 81t-74 132t-27.5 183q0 133 42 241.5t116 186.5t174 121t219 43q66 0 112 -13.5t93 -33.5l416 51z M768 659q-25 23 -54.5 39.5t-72.5 16.5q-45 0 -81 -24.5t-61.5 -64.5t-39 -92.5t-13.5 -109.5q0 -84 36 -129t91 -45q43 0 71 15.5t48 31.5zM690 1085l-295 383h413l123 -383h-241z" />
<glyph horiz-adv-x="1216" d="M1090 324q-8 -37 3 -51.5t50 -18.5l-88 -272q-94 -10 -162 -5t-114 24t-69.5 52t-29.5 76h-2q-25 -29 -55.5 -57.5t-68.5 -51t-80 -37t-87 -14.5q-68 0 -129 28t-107.5 81t-74 132t-27.5 183q0 133 42 241.5t116 186.5t174 121t219 43q66 0 112 -13.5t93 -33.5l416 51z M768 659q-25 23 -54.5 39.5t-72.5 16.5q-45 0 -81 -24.5t-61.5 -64.5t-39 -92.5t-13.5 -109.5q0 -84 36 -129t91 -45q43 0 71 15.5t48 31.5zM762 1085h-242l271 383h417z" />
<glyph horiz-adv-x="1216" d="M1090 324q-8 -37 3 -51.5t50 -18.5l-88 -272q-94 -10 -162 -5t-114 24t-69.5 52t-29.5 76h-2q-25 -29 -55.5 -57.5t-68.5 -51t-80 -37t-87 -14.5q-68 0 -129 28t-107.5 81t-74 132t-27.5 183q0 133 42 241.5t116 186.5t174 121t219 43q66 0 112 -13.5t93 -33.5l416 51z M768 659q-25 23 -54.5 39.5t-72.5 16.5q-45 0 -81 -24.5t-61.5 -64.5t-39 -92.5t-13.5 -109.5q0 -84 36 -129t91 -45q43 0 71 15.5t48 31.5zM811 1085l-81 203h-5l-155 -203h-303l317 383h340l174 -383h-287z" />
<glyph horiz-adv-x="1216" d="M1090 324q-8 -37 3 -51.5t50 -18.5l-88 -272q-94 -10 -162 -5t-114 24t-69.5 52t-29.5 76h-2q-25 -29 -55.5 -57.5t-68.5 -51t-80 -37t-87 -14.5q-68 0 -129 28t-107.5 81t-74 132t-27.5 183q0 133 42 241.5t116 186.5t174 121t219 43q66 0 112 -13.5t93 -33.5l416 51z M768 659q-25 23 -54.5 39.5t-72.5 16.5q-45 0 -81 -24.5t-61.5 -64.5t-39 -92.5t-13.5 -109.5q0 -84 36 -129t91 -45q43 0 71 15.5t48 31.5zM1229 1432q-53 -180 -120 -260t-165 -80q-57 0 -103 17t-85 38.5t-71 39t-58 17.5q-16 0 -28.5 -12t-21 -27.5t-11.5 -31t-3 -23.5 h-239q51 178 119.5 256t164.5 78q57 0 103.5 -16.5t85.5 -37t70.5 -37t58.5 -16.5q16 0 28.5 12.5t21.5 28t13 30.5t6 24h37h81h62h54z" />
<glyph horiz-adv-x="1216" d="M1090 324q-8 -37 3 -51.5t50 -18.5l-88 -272q-94 -10 -162 -5t-114 24t-69.5 52t-29.5 76h-2q-25 -29 -55.5 -57.5t-68.5 -51t-80 -37t-87 -14.5q-68 0 -129 28t-107.5 81t-74 132t-27.5 183q0 133 42 241.5t116 186.5t174 121t219 43q66 0 112 -13.5t93 -33.5l416 51z M768 659q-25 23 -54.5 39.5t-72.5 16.5q-45 0 -81 -24.5t-61.5 -64.5t-39 -92.5t-13.5 -109.5q0 -84 36 -129t91 -45q43 0 71 15.5t48 31.5zM1136 1248q0 -90 -49 -132t-133 -42q-82 0 -132 42t-50 132t50 132t132 42q84 0 133 -42t49 -132zM631 1248q0 -90 -50.5 -132 t-132.5 -42q-84 0 -134 42t-50 132t50 132t134 42q82 0 132.5 -42t50.5 -132z" />
<glyph horiz-adv-x="1216" d="M1090 324q-8 -37 3 -51.5t50 -18.5l-88 -272q-94 -10 -162 -5t-114 24t-69.5 52t-29.5 76h-2q-25 -29 -55.5 -57.5t-68.5 -51t-80 -37t-87 -14.5q-68 0 -129 28t-107.5 81t-74 132t-27.5 183q0 133 42 241.5t116 186.5t174 121t219 43q66 0 112 -13.5t93 -33.5l416 51z M768 659q-25 23 -54.5 39.5t-72.5 16.5q-45 0 -81 -24.5t-61.5 -64.5t-39 -92.5t-13.5 -109.5q0 -84 36 -129t91 -45q43 0 71 15.5t48 31.5zM1080 1333q0 -63 -28 -112.5t-74 -83t-106.5 -51t-123.5 -17.5q-55 0 -108.5 14.5t-93.5 44t-64.5 72.5t-24.5 100q0 63 27.5 112.5 t74 83.5t106.5 52.5t124 18.5q57 0 110.5 -14.5t93.5 -44t63.5 -74t23.5 -101.5zM947 1331q0 72 -48.5 101.5t-117.5 29.5q-78 0 -135.5 -39t-57.5 -116q0 -68 51.5 -98.5t118.5 -30.5q76 0 132.5 39.5t56.5 113.5z" />
<glyph horiz-adv-x="1216" d="M901 1609h-242l271 383h417zM1090 324q-8 -37 3 -51.5t50 -18.5l-88 -272q-94 -10 -162 -5t-114 24t-69.5 52t-29.5 76h-2q-25 -29 -55.5 -57.5t-68.5 -51t-80 -37t-87 -14.5q-68 0 -129 28t-107.5 81t-74 132t-27.5 183q0 133 42 241.5t116 186.5t174 121t219 43 q66 0 112 -13.5t93 -33.5l416 51zM768 659q-25 23 -54.5 39.5t-72.5 16.5q-45 0 -81 -24.5t-61.5 -64.5t-39 -92.5t-13.5 -109.5q0 -84 36 -129t91 -45q43 0 71 15.5t48 31.5zM1080 1333q0 -63 -28 -112.5t-74 -83t-106.5 -51t-123.5 -17.5q-55 0 -108.5 14.5t-93.5 44 t-64.5 72.5t-24.5 100q0 63 27.5 112.5t74 83.5t106.5 52.5t124 18.5q57 0 110.5 -14.5t93.5 -44t63.5 -74t23.5 -101.5zM947 1331q0 72 -48.5 101.5t-117.5 29.5q-78 0 -135.5 -39t-57.5 -116q0 -68 51.5 -98.5t118.5 -30.5q76 0 132.5 39.5t56.5 113.5z" />
<glyph horiz-adv-x="1216" d="M1090 324q-8 -37 3 -51.5t50 -18.5l-88 -272q-94 -10 -162 -5t-114 24t-69.5 52t-29.5 76h-2q-25 -29 -55.5 -57.5t-68.5 -51t-80 -37t-87 -14.5q-68 0 -129 28t-107.5 81t-74 132t-27.5 183q0 133 42 241.5t116 186.5t174 121t219 43q66 0 112 -13.5t93 -33.5l416 51z M768 659q-25 23 -54.5 39.5t-72.5 16.5q-45 0 -81 -24.5t-61.5 -64.5t-39 -92.5t-13.5 -109.5q0 -84 36 -129t91 -45q43 0 71 15.5t48 31.5zM295 1137l29 213h778l31 -213h-838z" />
<glyph horiz-adv-x="1216" d="M1090 324q-8 -37 3 -51.5t50 -18.5l-88 -272q-94 -10 -162 -5t-114 24t-69.5 52t-29.5 76h-2q-25 -29 -55.5 -57.5t-68.5 -51t-80 -37t-87 -14.5q-68 0 -129 28t-107.5 81t-74 132t-27.5 183q0 133 42 241.5t116 186.5t174 121t219 43q66 0 112 -13.5t93 -33.5l416 51z M768 659q-25 23 -54.5 39.5t-72.5 16.5q-45 0 -81 -24.5t-61.5 -64.5t-39 -92.5t-13.5 -109.5q0 -84 36 -129t91 -45q43 0 71 15.5t48 31.5zM1153 1458q-29 -113 -82 -188.5t-118.5 -121.5t-136 -65.5t-136.5 -19.5q-63 0 -126.5 19.5t-111.5 65.5t-73 122t-10 188l211 -4 q2 -86 36.5 -135t106.5 -49q78 0 130 49t83 135l227 4v0z" />
<glyph horiz-adv-x="1216" d="M1090 324q-8 -37 3 -51.5t50 -18.5l-88 -272q-80 2 -145.5 -33t-82.5 -107q-8 -43 10.5 -65.5t59.5 -22.5q29 0 57.5 7.5t51.5 17.5l14 -176q-49 -27 -106.5 -42.5t-135.5 -15.5q-121 0 -177 66.5t-38 167.5q14 78 71.5 134t137.5 91q-84 41 -92 125h-2 q-25 -29 -55.5 -57.5t-68.5 -51t-80 -37t-87 -14.5q-68 0 -129 28t-107.5 81t-74 132t-27.5 183q0 133 42 241.5t116 186.5t174 121t219 43q66 0 112 -13.5t93 -33.5l416 51zM768 659q-25 23 -54.5 39.5t-72.5 16.5q-45 0 -81 -24.5t-61.5 -64.5t-39 -92.5t-13.5 -109.5 q0 -84 36 -129t91 -45q43 0 71 15.5t48 31.5z" />
<glyph horiz-adv-x="1212" d="M1047 84q-53 -264 -195.5 -383t-386.5 -119q-61 0 -125 10.5t-125 26.5t-116.5 40t-98.5 48l109 301q78 -51 165.5 -86t167.5 -35q35 0 67 6.5t58.5 23.5t45 47t28.5 77l10 45q-53 -47 -109.5 -71.5t-140.5 -24.5q-63 0 -125.5 25.5t-112.5 77.5t-82 130t-32 183 q0 133 42 240.5t116 182t174 115.5t219 41q66 0 112 -13.5t93 -33.5l416 51zM768 659q-25 23 -54.5 39.5t-72.5 16.5q-45 0 -81 -22.5t-61.5 -60.5t-39 -88t-13.5 -108q0 -84 37 -125t92 -41q43 0 71 15.5t48 31.5zM843 1085l-81 203h-5l-155 -203h-303l317 383h340 l174 -383h-287z" />
<glyph horiz-adv-x="1212" d="M1047 84q-53 -264 -195.5 -383t-386.5 -119q-61 0 -125 10.5t-125 26.5t-116.5 40t-98.5 48l109 301q78 -51 165.5 -86t167.5 -35q35 0 67 6.5t58.5 23.5t45 47t28.5 77l10 45q-53 -47 -109.5 -71.5t-140.5 -24.5q-63 0 -125.5 25.5t-112.5 77.5t-82 130t-32 183 q0 133 42 240.5t116 182t174 115.5t219 41q66 0 112 -13.5t93 -33.5l416 51zM768 659q-25 23 -54.5 39.5t-72.5 16.5q-45 0 -81 -22.5t-61.5 -60.5t-39 -88t-13.5 -108q0 -84 37 -125t92 -41q43 0 71 15.5t48 31.5zM1194 1458q-29 -113 -82 -188.5t-118.5 -121.5t-136 -65.5 t-136.5 -19.5q-63 0 -126.5 19.5t-111.5 65.5t-73 122t-10 188l211 -4q2 -86 36.5 -135t106.5 -49q78 0 130 49t83 135l227 4v0z" />
<glyph horiz-adv-x="1212" d="M1047 84q-53 -264 -195.5 -383t-386.5 -119q-61 0 -125 10.5t-125 26.5t-116.5 40t-98.5 48l109 301q78 -51 165.5 -86t167.5 -35q35 0 67 6.5t58.5 23.5t45 47t28.5 77l10 45q-53 -47 -109.5 -71.5t-140.5 -24.5q-63 0 -125.5 25.5t-112.5 77.5t-82 130t-32 183 q0 133 42 240.5t116 182t174 115.5t219 41q66 0 112 -13.5t93 -33.5l416 51zM768 659q-25 23 -54.5 39.5t-72.5 16.5q-45 0 -81 -22.5t-61.5 -60.5t-39 -88t-13.5 -108q0 -84 37 -125t92 -41q43 0 71 15.5t48 31.5zM975 1243q-8 -86 -63.5 -145.5t-147.5 -59.5t-142.5 59.5 t-46.5 145.5q2 39 19.5 76t46.5 66.5t67.5 47t86.5 17.5q45 0 80.5 -17.5t58 -46t34 -65.5t7.5 -78z" />
<glyph horiz-adv-x="1212" d="M1047 84q-53 -264 -195.5 -383t-386.5 -119q-61 0 -125 10.5t-125 26.5t-116.5 40t-98.5 48l109 301q78 -51 165.5 -86t167.5 -35q35 0 67 6.5t58.5 23.5t45 47t28.5 77l10 45q-53 -47 -109.5 -71.5t-140.5 -24.5q-63 0 -125.5 25.5t-112.5 77.5t-82 130t-32 183 q0 133 42 240.5t116 182t174 115.5t219 41q66 0 112 -13.5t93 -33.5l416 51zM768 659q-25 23 -54.5 39.5t-72.5 16.5q-45 0 -81 -22.5t-61.5 -60.5t-39 -88t-13.5 -108q0 -84 37 -125t92 -41q43 0 71 15.5t48 31.5zM940.002 1228.98q-5.99902 -34.998 -25.498 -64.4961 t-48.9971 -49.9971t-65.4961 -30.998t-74.9951 -5.5q-91.9941 10 -136.992 70.4961q-44.9971 60.4961 -28.998 148.491q19.999 101.993 115.493 172.489q95.4941 70.4951 255.484 91.4941l54.9971 -89.9941q-65.9961 -24.999 -110.494 -54.4971 q-44.4971 -29.498 -51.4961 -64.4961q-2 -13.999 0 -29.498t13.499 -30.998t35.998 -30.998q24.498 -15.499 67.4951 -31.498z" />
<glyph horiz-adv-x="942" d="M836 446q-47 -246 -186.5 -360.5t-356.5 -114.5q-123 0 -207 28t-143 75l92 338q123 -111 237 -111q59 0 102.5 43t61.5 137l156 799h403l-159 -834v0zM905 1407l-81 203h-5l-155 -203h-303l317 383h340l174 -383h-287z" />
<glyph horiz-adv-x="616" d="M549 555q0 -100 -61.5 -157.5t-163.5 -57.5t-164 57.5t-62 157.5t61.5 157.5t164.5 57.5q102 0 163.5 -57.5t61.5 -157.5z" />
<glyph horiz-adv-x="1228" d="M1092 0h-379l-15 152h-305l-82 -152h-387l545 987h500zM662 750l-170 -357h198z" />
<glyph horiz-adv-x="1132" d="M842 494q98 -25 140 -83.5t42 -125.5q0 -59 -25.5 -111.5t-83 -91.5t-147.5 -60.5t-219 -21.5h-537l189 987h510q100 0 171.5 -20.5t115.5 -54t64.5 -77.5t20.5 -94q1 -181 -241 -247zM702 332q0 37 -33.5 56.5t-115.5 19.5h-113l-32 -166h118q109 0 142.5 23.5 t33.5 66.5zM731 670q0 39 -36 57t-97 18h-92l-33 -165h88q100 -2 135 20.5t35 69.5z" />
<glyph horiz-adv-x="1036" d="M977 627q-70 23 -145.5 40t-137.5 17q-63 0 -107 -17.5t-72 -48t-40 -72.5t-12 -91q0 -88 59.5 -120t145.5 -32q53 0 107 11.5t110 33.5l41 -338q-20 -6 -54 -12t-72 -11t-79 -8.5t-76 -3.5q-139 0 -246.5 33t-180.5 93.5t-109.5 145.5t-36.5 189q0 100 32.5 202.5 t106.5 185.5t190.5 135.5t286.5 52.5q104 0 192.5 -14.5t166.5 -39.5z" />
<glyph horiz-adv-x="1214" d="M1153 563q0 -111 -37 -213t-117.5 -180t-213 -124t-322.5 -46h-451l189 987h430q113 0 209 -26.5t165.5 -81t108.5 -133.5t39 -183zM760 551q0 76 -43 115t-115 36h-65l-82 -417h59q111 0 178.5 63.5t67.5 202.5z" />
<glyph horiz-adv-x="1021" d="M12 0l189 987h833l-51 -272h-475l-19 -97h396l-49 -245h-396l-18 -101h475l-53 -272h-832z" />
<glyph horiz-adv-x="987" d="M201 987h819l-49 -272h-449l-24 -115h364l-49 -254h-350l-72 -346h-379z" />
<glyph horiz-adv-x="1171" d="M442 430q0 -66 45 -116t138 -50q66 0 112 10l19 91h-191l45 233h504l-104 -565q-76 -27 -165 -45.5t-194 -18.5q-127 0 -232.5 32t-182 91.5t-118.5 144.5t-42 193q0 109 38 214.5t116.5 188t199.5 134t287 51.5q127 0 215 -14.5t174 -38.5l-74 -322q-63 29 -151 50.5 t-160 21.5q-147 0 -213 -79t-66 -206z" />
<glyph horiz-adv-x="1239" d="M659 0l66 340h-260l-64 -340h-389l189 987h391l-66 -332h258l66 332h387l-190 -987h-388z" />
<glyph horiz-adv-x="593" d="M10 0l191 987h391l-193 -987h-389z" />
<glyph horiz-adv-x="897" d="M786 371q-39 -197 -146.5 -296.5t-303.5 -99.5q-115 0 -214 34t-177 89l131 273q49 -39 99 -61.5t104 -22.5q59 0 87.5 34.5t43.5 104.5l108 561h389l-121 -616v0z" />
<glyph horiz-adv-x="1165" d="M815 987h432l-420 -475l215 -512h-440l-125 395h-2q-14 -74 -26.5 -145.5t-22.5 -126.5q-12 -66 -25 -123h-389l189 987h387l-72 -389z" />
<glyph horiz-adv-x="974" d="M12 0l189 987h391l-131 -680h426l-60 -307h-815z" />
<glyph horiz-adv-x="1540" d="M1008 0l104 608l-217 -598h-412l9 600l-134 -610h-364l233 987h549l-24 -625l219 625h559l-160 -987h-362z" />
<glyph horiz-adv-x="1251" d="M872 987h377l-186 -997h-420l-170 487l-90 -477h-371l183 987h423l175 -481z" />
<glyph horiz-adv-x="1228" d="M1180 569q0 -139 -50.5 -249.5t-132.5 -187.5t-188.5 -119t-218.5 -42q-109 0 -206 29t-169 84t-114 138t-42 192q0 145 50.5 256.5t133.5 188.5t190.5 117t221.5 40q106 0 202.5 -31t167.5 -88t113 -140.5t42 -187.5zM801 569q0 74 -39 120t-117 46q-53 0 -92 -28.5 t-64.5 -73.5t-38 -101.5t-12.5 -111.5q0 -78 40 -123t126 -45q43 0 80 29.5t62.5 74.5t40 101.5t14.5 111.5z" />
<glyph horiz-adv-x="1136" d="M1096 647q0 -84 -30 -157.5t-91.5 -129t-157.5 -88t-231 -32.5h-140l-45 -240h-389l189 987h471q100 0 179 -25.5t133 -70.5t83 -107.5t29 -136.5zM737 627q0 53 -41 83.5t-112 30.5h-56l-51 -260h68q192 1 192 146z" />
<glyph horiz-adv-x="1228" d="M1174 -2l-179 -301l-399 274h-6q-109 0 -206 29t-169 84t-114 138t-42 192q0 145 50.5 256.5t133.5 188.5t190.5 117t221.5 40q106 0 202.5 -31t167.5 -88t113 -140t42 -188q0 -154 -60.5 -272.5t-158.5 -196.5zM805 569q0 74 -41 122t-119 48q-53 0 -93 -29.5 t-66.5 -75.5t-39 -104.5t-12.5 -113.5q0 -78 42 -125t128 -47q43 0 80 30.5t63.5 77.5t42 104.5t15.5 112.5z" />
<glyph horiz-adv-x="1171" d="M389 0h-381l193 987h530q92 0 165 -22.5t122 -61.5t75.5 -91t26.5 -114q0 -123 -66.5 -200.5t-164.5 -110.5l153 -387h-401l-94 305l-98 -4zM580 512q66 0 111.5 29.5t45.5 95.5q0 47 -33.5 75.5t-93.5 28.5h-78l-45 -229h93z" />
<glyph horiz-adv-x="1044" d="M510 242q47 0 68.5 9t21.5 34q0 12 -7 19t-28.5 16.5t-63.5 22.5t-110 36q-53 18 -104 42.5t-91 59.5t-65 81t-25 108q0 172 117 262t312 90q121 0 249.5 -30.5t235.5 -92.5l-66 -305q-45 23 -100 47.5t-112.5 44t-112 31.5t-97.5 12q-72 0 -71 -35q0 -12 10 -21 t32.5 -17.5t60.5 -18.5t93 -29q51 -16 103.5 -38.5t94.5 -54.5t68.5 -77t26.5 -108q0 -92 -35.5 -160t-97 -113t-145.5 -67.5t-180 -22.5q-55 0 -121 8.5t-132.5 23.5t-129 37.5t-111.5 51.5l65 307q43 -27 98.5 -53.5t115 -49t120 -36.5t113.5 -14z" />
<glyph horiz-adv-x="1077" d="M774 680l-133 -680h-387l133 680h-303l59 307h992l-62 -307h-299z" />
<glyph horiz-adv-x="1175" d="M1073 383q-23 -113 -70 -190.5t-114.5 -126t-152.5 -70t-183 -21.5q-125 0 -217 27t-151.5 73t-89 110.5t-29.5 138.5q0 25 2 52t8 58l112 553h387l-104 -538q-4 -18 -6 -38t-2 -42q0 -41 23.5 -65.5t82.5 -24.5t84 29.5t35 86.5l117 592h385l-117 -604v0z" />
<glyph horiz-adv-x="1161" d="M727 4h-494l-129 983h379l58 -676l346 676h391z" />
<glyph horiz-adv-x="1638" d="M573 0h-387l-55 987h387l-47 -579l231 579h412l14 -579l170 579h406l-449 -987h-401l-20 580z" />
<glyph horiz-adv-x="1159" d="M346 0h-420l422 492l-221 495h422l78 -287l184 287h420l-412 -481l232 -506h-428l-84 299z" />
<glyph horiz-adv-x="1110" d="M721 332l-66 -332h-385l70 371l-244 616h402l90 -352l215 352h405z" />
<glyph horiz-adv-x="1079" d="M-12 0l47 240l528 450h-430l57 297h908l-47 -242l-523 -446h437l-60 -299h-917z" />
<glyph horiz-adv-x="2088" d="M473 244q53 -4 85 4t38 33q2 12 -13.5 23t-43 21.5t-64.5 21.5t-78 26q-53 18 -109.5 45.5t-100.5 69.5t-67.5 98.5t-6.5 134.5q14 76 53 136.5t101.5 99t149.5 55t201 6.5q152 -14 254.5 -52t165.5 -77l-106 -291q-39 20 -84 42t-91 40t-92.5 30.5t-84.5 16.5 q-41 4 -66 -3t-29 -26q-4 -16 15.5 -28.5t48.5 -23.5t60.5 -19.5t56.5 -16.5q59 -18 115.5 -45.5t97.5 -66.5t60 -92.5t5 -122.5q-16 -80 -57 -142.5t-109.5 -104.5t-163 -59.5t-213.5 -5.5q-141 14 -251.5 51t-169.5 78l102 287q39 -25 87 -48.5t99 -43t103.5 -33.5 t101.5 -18zM1518 244q53 -4 84.5 4t37.5 33q2 12 -13 23t-43 21.5t-64.5 21.5t-77.5 26q-53 18 -109.5 45.5t-100.5 69.5t-67.5 98.5t-7.5 134.5q14 76 53 136.5t101.5 99t149.5 55t202 6.5q152 -14 254 -52t166 -77l-107 -291q-39 20 -84 42t-91 40t-92 30.5t-85 16.5 q-41 4 -65.5 -3t-28.5 -26q-4 -16 15.5 -28.5t48 -23.5t60.5 -19.5t56 -16.5q59 -18 115.5 -45.5t97.5 -66.5t60.5 -92.5t5.5 -122.5q-16 -80 -57.5 -142.5t-110 -104.5t-162.5 -59.5t-213 -5.5q-141 14 -252 51t-170 78l102 287q39 -25 87.5 -48.5t99.5 -43t103.5 -33.5 t101.5 -18z" />
<glyph horiz-adv-x="1228" d="M1092 0h-379l-15 152h-305l-82 -152h-387l545 987h500zM662 750l-170 -357h198zM625 1085l-295 383h413l123 -383h-241z" />
<glyph horiz-adv-x="1228" d="M1092 0h-379l-15 152h-305l-82 -152h-387l545 987h500zM662 750l-170 -357h198zM817 1085h-242l271 383h418z" />
<glyph horiz-adv-x="1228" d="M1092 0h-379l-15 152h-305l-82 -152h-387l545 987h500zM662 750l-170 -357h198zM864 1085l-82 203h-4l-155 -203h-304l318 383h340l174 -383h-287z" />
<glyph horiz-adv-x="1228" d="M1092 0h-379l-15 152h-305l-82 -152h-387l545 987h500zM1221 1432q-53 -180 -120 -260t-165 -80q-57 0 -103.5 17t-85 38.5t-70.5 39t-59 17.5q-16 0 -28 -12t-20.5 -27.5t-11.5 -31t-3 -23.5h-240q51 178 120 256t165 78q57 0 103.5 -16.5t85 -37t70.5 -37t59 -16.5 q16 0 28 12.5t21.5 28t13.5 30.5t6 24h37h81h62h54zM662 750l-170 -357h198z" />
<glyph horiz-adv-x="1228" d="M1092 0h-379l-15 152h-305l-82 -152h-387l545 987h500zM662 750l-170 -357h198zM1206 1268q0 -90 -49 -132t-133 -42q-82 0 -132 42t-50 132t50 132t132 42q84 0 133 -42t49 -132zM700 1268q0 -90 -50 -132t-132 -42q-84 0 -134 42t-50 132t50 132t134 42q82 0 132 -42 t50 -132z" />
<glyph horiz-adv-x="1228" d="M662 750l-170 -357h198zM911 1141q0 72 -48 101.5t-118 29.5q-78 0 -135 -39t-57 -117q0 -68 51 -98.5t119 -30.5q76 0 132 40t56 114zM465 981q-43 55 -43 129q0 63 27.5 112.5t73.5 83t106.5 52t124.5 18.5q57 0 110.5 -14t93 -44t63 -74t23.5 -101q0 -53 -19 -95 t-54 -77l121 -971h-379l-15 152h-305l-82 -152h-387z" />
<glyph horiz-adv-x="1228" d="M662 750l-170 -357h198zM911 1141q0 72 -48 101.5t-118 29.5q-78 0 -135 -39t-57 -117q0 -68 51 -98.5t119 -30.5q76 0 132 40t56 114zM465 981q-43 55 -43 129q0 63 27.5 112.5t73.5 83t106.5 52t124.5 18.5q57 0 110.5 -14t93 -44t63 -74t23.5 -101q0 -53 -19 -95 t-54 -77l121 -971h-379l-15 152h-305l-82 -152h-387zM756 1427h-242l270 383h418z" />
<glyph horiz-adv-x="1228" d="M1092 0h-379l-15 152h-305l-82 -152h-387l545 987h500zM662 750l-170 -357h198zM348 1137l29 213h778l31 -213h-838z" />
<glyph horiz-adv-x="1228" d="M1092 0h-379l-15 152h-305l-82 -152h-387l545 987h500zM662 750l-170 -357h198zM1184 1458q-29 -113 -82 -188.5t-118.5 -121.5t-136.5 -65.5t-136 -19.5q-63 0 -127 19.5t-112 65.5t-72.5 122t-10.5 188l211 -4q2 -86 37 -135t106 -49q78 0 130.5 49t82.5 135z" />
<glyph horiz-adv-x="1228" d="M1092 0q-129 -4 -217.5 -46t-98.5 -112q-12 -88 70 -88q29 0 57.5 7.5t50.5 17.5l15 -176q-49 -27 -106.5 -42.5t-135.5 -15.5q-121 0 -177 66.5t-38 167.5q14 78 68.5 132t132.5 89l-15 152h-305l-82 -152h-387l545 987h500zM662 750l-170 -357h198z" />
<glyph horiz-adv-x="1671" d="M309 0h-385l664 987h1095l-53 -272h-475l-18 -92h393l-49 -254h-394l-18 -97h475l-53 -272h-834l29 152h-283zM733 393l82 416l-260 -416h178z" />
<glyph horiz-adv-x="1671" d="M309 0h-385l664 987h1095l-53 -272h-475l-18 -92h393l-49 -254h-394l-18 -97h475l-53 -272h-834l29 152h-283zM1112 1085h-242l271 383h418zM733 393l82 416l-260 -416h178z" />
<glyph horiz-adv-x="1036" d="M455 -6q-188 41 -285.5 157.5t-97.5 284.5q0 100 32.5 202.5t106.5 185.5t190.5 135.5t286.5 52.5q104 0 192.5 -14.5t166.5 -39.5l-70 -331q-70 23 -145.5 40t-137.5 17q-63 0 -107 -17.5t-72 -48t-40 -72.5t-12 -91q0 -88 59.5 -120t145.5 -32q53 0 107 11.5t110 33.5 l41 -338q-20 -6 -54 -12t-72 -11t-79 -8.5t-76 -3.5h-29l-104 -65q102 -14 163.5 -64.5t61.5 -140.5q0 -59 -28.5 -109.5t-90 -88t-156.5 -61.5t-231 -26l17 162q84 -4 137 2t83 20.5t41 34t11 44.5q0 49 -56 69.5t-161 26.5v115l152 100v0z" />
<glyph horiz-adv-x="1036" d="M977 627q-70 23 -145.5 40t-137.5 17q-63 0 -107 -17.5t-72 -48t-40 -72.5t-12 -91q0 -88 59.5 -120t145.5 -32q53 0 107 11.5t110 33.5l41 -338q-20 -6 -54 -12t-72 -11t-79 -8.5t-76 -3.5q-139 0 -246.5 33t-180.5 93.5t-109.5 145.5t-36.5 189q0 100 32.5 202.5 t106.5 185.5t190.5 135.5t286.5 52.5q104 0 192.5 -14.5t166.5 -39.5zM680 1085h-242l271 383h417z" />
<glyph horiz-adv-x="1036" d="M977 627q-70 23 -145.5 40t-137.5 17q-63 0 -107 -17.5t-72 -48t-40 -72.5t-12 -91q0 -88 59.5 -120t145.5 -32q53 0 107 11.5t110 33.5l41 -338q-20 -6 -54 -12t-72 -11t-79 -8.5t-76 -3.5q-139 0 -246.5 33t-180.5 93.5t-109.5 145.5t-36.5 189q0 100 32.5 202.5 t106.5 185.5t190.5 135.5t286.5 52.5q104 0 192.5 -14.5t166.5 -39.5zM809 1085l-82 203h-4l-156 -203h-303l318 383h340l174 -383h-287z" />
<glyph horiz-adv-x="1036" d="M977 627q-70 23 -145.5 40t-137.5 17q-63 0 -107 -17.5t-72 -48t-40 -72.5t-12 -91q0 -88 59.5 -120t145.5 -32q53 0 107 11.5t110 33.5l41 -338q-20 -6 -54 -12t-72 -11t-79 -8.5t-76 -3.5q-139 0 -246.5 33t-180.5 93.5t-109.5 145.5t-36.5 189q0 100 32.5 202.5 t106.5 185.5t190.5 135.5t286.5 52.5q104 0 192.5 -14.5t166.5 -39.5zM909 1264q-8 -86 -63 -145.5t-148 -59.5q-92 0 -142 59.5t-46 145.5q2 39 19.5 75.5t46 66.5t67.5 47t86 17q45 0 81 -17t58.5 -46t33.5 -65.5t7 -77.5z" />
<glyph horiz-adv-x="1036" d="M977 627q-70 23 -145.5 40t-137.5 17q-63 0 -107 -17.5t-72 -48t-40 -72.5t-12 -91q0 -88 59.5 -120t145.5 -32q53 0 107 11.5t110 33.5l41 -338q-20 -6 -54 -12t-72 -11t-79 -8.5t-76 -3.5q-139 0 -246.5 33t-180.5 93.5t-109.5 145.5t-36.5 189q0 100 32.5 202.5 t106.5 185.5t190.5 135.5t286.5 52.5q104 0 192.5 -14.5t166.5 -39.5zM604 1468l80 -204h4l154 204h307l-322 -383h-340l-170 383h287z" />
<glyph horiz-adv-x="1214" d="M1153 563q0 -111 -37 -213t-117.5 -180t-213 -124t-322.5 -46h-451l189 987h430q113 0 209 -26.5t165.5 -81t108.5 -133.5t39 -183zM563 1468l80 -204h4l154 204h307l-322 -383h-340l-170 383h287zM760 551q0 76 -43 115t-115 36h-65l-82 -417h59q111 0 178.5 63.5 t67.5 202.5z" />
<glyph horiz-adv-x="1296" d="M1235 563q0 -111 -36 -213t-118 -180t-214 -124t-322 -46h-451l70 365h-137v260h186l70 362h430q113 0 209 -26.5t164.5 -81t108.5 -133.5t40 -183zM842 551q0 76 -42 120t-114 42h-86q-6 -27 -10 -49q-2 -10 -3 -19.5t-3 -15.5q-2 -8 -4 -15h102v-237h-147l-21 -103h80 q117 0 182.5 69t65.5 208z" />
<glyph horiz-adv-x="1296" d="M1235 563q0 -111 -36 -213t-118 -180t-214 -124t-322 -46h-451l70 365h-137v260h186l70 362h430q113 0 209 -26.5t164.5 -81t108.5 -133.5t40 -183zM842 551q0 76 -42 120t-114 42h-86q-6 -27 -10 -49q-2 -10 -3 -19.5t-3 -15.5q-2 -8 -4 -15h102v-237h-147l-21 -103h80 q117 0 182.5 69t65.5 208z" />
<glyph horiz-adv-x="1021" d="M12 0l189 987h833l-51 -272h-475l-19 -97h396l-49 -245h-396l-18 -101h475l-53 -272h-832zM520 1085l-295 383h414l123 -383h-242z" />
<glyph horiz-adv-x="1021" d="M12 0l189 987h833l-51 -272h-475l-19 -97h396l-49 -245h-396l-18 -101h475l-53 -272h-832zM733 1085h-241l270 383h418z" />
<glyph horiz-adv-x="1021" d="M12 0l189 987h833l-51 -272h-475l-19 -97h396l-49 -245h-396l-18 -101h475l-53 -272h-832zM760 1085l-82 203h-4l-156 -203h-303l317 383h340l175 -383h-287z" />
<glyph horiz-adv-x="1021" d="M12 0l189 987h833l-51 -272h-475l-19 -97h396l-49 -245h-396l-18 -101h475l-53 -272h-832zM1081 1268q0 -90 -49 -132t-133 -42q-82 0 -132 42t-50 132t50 132t132 42q84 0 133 -42t49 -132zM575 1268q0 -90 -50 -132t-132 -42q-84 0 -134 42t-50 132t50 132t134 42 q82 0 132 -42t50 -132z" />
<glyph horiz-adv-x="1021" d="M12 0l189 987h833l-51 -272h-475l-19 -97h396l-49 -245h-396l-18 -101h475l-53 -272h-832zM238 1137l28 213h778l31 -213h-837z" />
<glyph horiz-adv-x="1021" d="M12 0l189 987h833l-51 -272h-475l-19 -97h396l-49 -245h-396l-18 -101h475l-53 -272h-832zM1114 1458q-29 -113 -82 -188.5t-118.5 -121.5t-136 -65.5t-136.5 -19.5q-63 0 -126.5 19.5t-112 65.5t-73 122t-10.5 188l211 -4q2 -86 37 -135t107 -49q78 0 130 49t83 135z " />
<glyph horiz-adv-x="1021" d="M12 0l189 987h833l-51 -272h-475l-19 -97h396l-49 -245h-396l-18 -101h475l-53 -272h-832zM872 1264q-8 -86 -63 -145.5t-147 -59.5t-142.5 59.5t-46.5 145.5q2 39 19.5 75.5t46 66.5t67.5 47t86 17q45 0 81 -17t58.5 -46t33.5 -65.5t7 -77.5z" />
<glyph horiz-adv-x="1021" d="M756 0q-55 -35 -91 -74t-47 -84q-8 -43 10.5 -65.5t59.5 -22.5q29 0 57.5 7.5t51.5 17.5l14 -176q-49 -27 -106.5 -42.5t-135.5 -15.5q-121 0 -177 66.5t-38 167.5q14 78 68.5 132t132.5 89h-543l189 987h833l-51 -272h-475l-19 -97h396l-49 -245h-396l-18 -101h475 l-53 -272h-88z" />
<glyph horiz-adv-x="1021" d="M12 0l189 987h833l-51 -272h-475l-19 -97h396l-49 -245h-396l-18 -101h475l-53 -272h-832zM592 1468l80 -204h4l153 204h308l-322 -383h-340l-170 383h287z" />
<glyph horiz-adv-x="1171" d="M442 430q0 -66 45 -116t138 -50q66 0 112 10l19 91h-191l45 233h504l-104 -565q-76 -27 -165 -45.5t-194 -18.5q-127 0 -232.5 32t-182 91.5t-118.5 144.5t-42 193q0 109 38 214.5t116.5 188t199.5 134t287 51.5q127 0 215 -14.5t174 -38.5l-74 -322q-63 29 -151 50.5 t-160 21.5q-147 0 -213 -79t-66 -206zM860 1085l-82 203h-4l-156 -203h-303l318 383h340l174 -383h-287z" />
<glyph horiz-adv-x="1171" d="M442 430q0 -66 45 -116t138 -50q66 0 112 10l19 91h-191l45 233h504l-104 -565q-76 -27 -165 -45.5t-194 -18.5q-127 0 -232.5 32t-182 91.5t-118.5 144.5t-42 193q0 109 38 214.5t116.5 188t199.5 134t287 51.5q127 0 215 -14.5t174 -38.5l-74 -322q-63 29 -151 50.5 t-160 21.5q-147 0 -213 -79t-66 -206zM1192 1458q-29 -113 -82 -188.5t-118.5 -121.5t-136.5 -65.5t-136 -19.5q-63 0 -127 19.5t-112 65.5t-72.5 122t-10.5 188l211 -4q2 -86 37 -135t107 -49q78 0 130 49t83 135z" />
<glyph horiz-adv-x="1171" d="M442 430q0 -66 45 -116t138 -50q66 0 112 10l19 91h-191l45 233h504l-104 -565q-76 -27 -165 -45.5t-194 -18.5q-127 0 -232.5 32t-182 91.5t-118.5 144.5t-42 193q0 109 38 214.5t116.5 188t199.5 134t287 51.5q127 0 215 -14.5t174 -38.5l-74 -322q-63 29 -151 50.5 t-160 21.5q-147 0 -213 -79t-66 -206zM940 1270q-8 -86 -63.5 -145.5t-147.5 -59.5t-142 59.5t-46 145.5q2 39 19.5 75.5t46 66.5t67.5 47.5t86 17.5q45 0 81 -17.5t58.5 -46.5t33.5 -65.5t7 -77.5z" />
<glyph horiz-adv-x="1171" d="M442 430q0 -66 45 -116t138 -50q66 0 112 10l19 91h-191l45 233h504l-104 -565q-76 -27 -165 -45.5t-194 -18.5q-127 0 -232.5 32t-182 91.5t-118.5 144.5t-42 193q0 109 38 214.5t116.5 188t199.5 134t287 51.5q127 0 215 -14.5t174 -38.5l-74 -322q-63 29 -151 50.5 t-160 21.5q-147 0 -213 -79t-66 -206zM401 -268q6 35 25.5 64.5t49.5 50t66 30.5t74 6q92 -10 137.5 -70.5t28.5 -148.5q-20 -102 -115.5 -173t-254.5 -91l-56 90q66 25 111 54.5t51 64.5q2 14 0 29.5t-13 31t-36 31t-68 31.5z" />
<glyph horiz-adv-x="1239" d="M659 0l66 340h-260l-64 -340h-389l189 987h391l-66 -332h258l66 332h387l-190 -987h-388zM872 1077l-81 203h-5l-155 -203h-303l317 383h340l174 -383h-287z" />
<glyph horiz-adv-x="1239" d="M659 0l66 340h-260l-64 -340h-389l140 727h-138l29 131h133l25 129h391l-27 -129h258l27 129h387l-25 -129h140l-23 -131h-143l-139 -727h-388zM784 655l15 72h-258l-15 -72h258z" />
<glyph horiz-adv-x="593" d="M10 0l191 987h391l-193 -987h-389zM307 1085l-295 383h414l123 -383h-242z" />
<glyph horiz-adv-x="593" d="M10 0l191 987h391l-193 -987h-389zM500 1085h-242l270 383h418z" />
<glyph horiz-adv-x="593" d="M10 0l191 987h391l-193 -987h-389zM547 1085l-82 203h-4l-156 -203h-303l317 383h340l175 -383h-287z" />
<glyph horiz-adv-x="593" d="M10 0l191 987h391l-193 -987h-389zM889 1268q0 -90 -49 -132t-133 -42q-82 0 -132.5 42t-50.5 132t50.5 132t132.5 42q84 0 133 -42t49 -132zM383 1268q0 -90 -50 -132t-132 -42q-84 0 -134.5 42t-50.5 132t50.5 132t134.5 42q82 0 132 -42t50 -132z" />
<glyph horiz-adv-x="593" d="M10 0l191 987h391l-193 -987h-389zM31 1137l28 213h779l30 -213h-837z" />
<glyph horiz-adv-x="593" d="M10 0l191 987h391l-193 -987h-389zM870 1458q-29 -113 -82 -188.5t-118.5 -121.5t-136 -65.5t-136.5 -19.5q-63 0 -126.5 19.5t-111.5 65.5t-73 122t-10 188l211 -4q2 -86 36.5 -135t106.5 -49q78 0 130 49t83 135z" />
<glyph horiz-adv-x="593" d="M129 -455q-121 0 -177 66.5t-38 167.5q16 78 69.5 132t131.5 89h-105l191 987h391l-193 -987q-86 -4 -148.5 -51t-72.5 -107q-12 -88 70 -88q29 0 57.5 7.5t50.5 17.5l15 -176q-49 -27 -106.5 -42.5t-135.5 -15.5z" />
<glyph horiz-adv-x="593" d="M10 0l191 987h391l-193 -987h-389zM647 1272q-8 -86 -63.5 -145.5t-147.5 -59.5t-142 59.5t-46 145.5q2 39 19.5 75.5t46 66.5t67.5 47.5t86 17.5q45 0 81 -17.5t58.5 -46.5t33.5 -65.5t7 -77.5z" />
<glyph horiz-adv-x="593" d="M10 0l191 987h391l-193 -987h-389z" />
<glyph horiz-adv-x="897" d="M786 371q-39 -197 -146.5 -296.5t-303.5 -99.5q-115 0 -214 34t-177 89l131 273q49 -39 99 -61.5t104 -22.5q59 0 87.5 34.5t43.5 104.5l108 561h389zM840 1085l-82 203h-4l-156 -203h-303l317 383h340l174 -383h-286z" />
<glyph horiz-adv-x="897" d="M786 371q-39 -197 -146.5 -296.5t-303.5 -99.5q-115 0 -214 34t-177 89l131 273q49 -39 99 -61.5t104 -22.5q59 0 87.5 34.5t43.5 104.5l108 561h389l-121 -616v0z" />
<glyph horiz-adv-x="1165" d="M815 987h432l-420 -475l215 -512h-440l-125 395h-2q-14 -74 -26.5 -145.5t-22.5 -126.5q-12 -66 -25 -123h-389l189 987h387l-72 -389zM297 -260q6 35 25.5 64.5t49 50t65.5 31t75 5.5q92 -10 137 -70.5t29 -148.5q-20 -102 -115.5 -172.5t-255.5 -91.5l-55 90 q66 25 111 54.5t51 64.5q2 14 0 29.5t-13.5 31t-36 31t-67.5 31.5z" />
<glyph horiz-adv-x="974" d="M12 0l189 987h391l-131 -680h426l-60 -307h-815zM444 1075h-241l270 383h418z" />
<glyph horiz-adv-x="974" d="M12 0l189 987h391l-131 -680h426l-60 -307h-815zM199 -260q6 35 25.5 64.5t49 50t65.5 31t75 5.5q92 -10 137 -70.5t29 -148.5q-20 -102 -115.5 -172.5t-255.5 -91.5l-55 90q66 25 110.5 54.5t50.5 64.5q2 14 0 29.5t-13 31t-35.5 31t-67.5 31.5z" />
<glyph horiz-adv-x="1585" d="M12 0l189 987h391l-131 -680h426l-60 -307h-815zM1042 807q16 94 79 151.5t165 57.5q57 0 104.5 -22.5t82 -60.5t54 -88t19.5 -108q0 -90 -44 -165.5t-111.5 -134t-148.5 -99.5t-155 -66l-141 156q27 10 68 32.5t80 53.5t66.5 66.5t27.5 70.5q0 61 -40 94t-106 62z" />
<glyph horiz-adv-x="1492" d="M12 0l189 987h391l-131 -680h426l-60 -307h-815zM1493 555q0 -100 -61.5 -157.5t-163.5 -57.5t-164 57.5t-62 157.5t61.5 157.5t164.5 57.5q102 0 163.5 -57.5t61.5 -157.5z" />
<glyph horiz-adv-x="1056" d="M33 266v260l172 52l78 409h391l-56 -282q14 4 29 8q12 4 28.5 8t33.5 10q39 10 88 27v-260l-232 -70l-22 -121h426l-60 -307h-815l58 303z" />
<glyph horiz-adv-x="1251" d="M872 987h377l-186 -997h-420l-170 487l-90 -477h-371l183 987h423l175 -481zM1231 1432q-53 -180 -120 -260t-165 -80q-57 0 -103 17t-85 38.5t-71 39t-58 17.5q-16 0 -28.5 -12t-21 -27.5t-11.5 -31t-3 -23.5h-239q51 178 119.5 256t164.5 78q57 0 103.5 -16.5t85.5 -37 t70.5 -37t58.5 -16.5q16 0 28.5 12.5t21.5 28t13 30.5t6 24h37h81h62h54z" />
<glyph horiz-adv-x="1251" d="M872 987h377l-186 -997h-420l-170 487l-90 -477h-371l183 987h423l175 -481zM809 1085h-242l271 383h417z" />
<glyph horiz-adv-x="1251" d="M872 987h377l-186 -997h-420l-170 487l-90 -477h-371l183 987h423l175 -481zM354 -260q6 35 25.5 64.5t49.5 50t65.5 31t74.5 5.5q92 -10 137.5 -70.5t28.5 -148.5q-20 -102 -115.5 -172.5t-254.5 -91.5l-56 90q66 25 111 54.5t51 64.5q2 14 0 29.5t-13.5 31t-36 31 t-67.5 31.5z" />
<glyph horiz-adv-x="1251" d="M872 987h377l-186 -997h-420l-170 487l-90 -477h-371l183 987h423l175 -481zM731 1468l80 -204h4l154 204h307l-322 -383h-340l-170 383h287z" />
<glyph horiz-adv-x="1228" d="M1180 569q0 -139 -50.5 -249.5t-132.5 -187.5t-188.5 -119t-218.5 -42q-109 0 -206 29t-169 84t-114 138t-42 192q0 145 50.5 256.5t133.5 188.5t190.5 117t221.5 40q106 0 202.5 -31t167.5 -88t113 -140.5t42 -187.5zM801 569q0 74 -39 120t-117 46q-53 0 -92 -28.5 t-64.5 -73.5t-38 -101.5t-12.5 -111.5q0 -78 40 -123t126 -45q43 0 80 29.5t62.5 74.5t40 101.5t14.5 111.5zM645 1085l-295 383h414l123 -383h-242z" />
<glyph horiz-adv-x="1228" d="M1180 569q0 -139 -50.5 -249.5t-132.5 -187.5t-188.5 -119t-218.5 -42q-109 0 -206 29t-169 84t-114 138t-42 192q0 145 50.5 256.5t133.5 188.5t190.5 117t221.5 40q106 0 202.5 -31t167.5 -88t113 -140.5t42 -187.5zM801 569q0 74 -39 120t-117 46q-53 0 -92 -28.5 t-64.5 -73.5t-38 -101.5t-12.5 -111.5q0 -78 40 -123t126 -45q43 0 80 29.5t62.5 74.5t40 101.5t14.5 111.5zM797 1085h-242l270 383h418z" />
<glyph horiz-adv-x="1228" d="M1180 569q0 -139 -50.5 -249.5t-132.5 -187.5t-188.5 -119t-218.5 -42q-109 0 -206 29t-169 84t-114 138t-42 192q0 145 50.5 256.5t133.5 188.5t190.5 117t221.5 40q106 0 202.5 -31t167.5 -88t113 -140.5t42 -187.5zM801 569q0 74 -39 120t-117 46q-53 0 -92 -28.5 t-64.5 -73.5t-38 -101.5t-12.5 -111.5q0 -78 40 -123t126 -45q43 0 80 29.5t62.5 74.5t40 101.5t14.5 111.5zM864 1085l-82 203h-4l-155 -203h-304l318 383h340l174 -383h-287z" />
<glyph horiz-adv-x="1228" d="M1180 569q0 -139 -50.5 -249.5t-132.5 -187.5t-188.5 -119t-218.5 -42q-109 0 -206 29t-169 84t-114 138t-42 192q0 145 50.5 256.5t133.5 188.5t190.5 117t221.5 40q106 0 202.5 -31t167.5 -88t113 -140.5t42 -187.5zM1221 1432q-53 -180 -120 -260t-165 -80 q-57 0 -103.5 17t-85 38.5t-70.5 39t-59 17.5q-16 0 -28 -12t-20.5 -27.5t-11.5 -31t-3 -23.5h-240q51 178 120 256t165 78q57 0 103.5 -16.5t85 -37t70.5 -37t59 -16.5q16 0 28 12.5t21.5 28t13.5 30.5t6 24h37h81h62h54zM801 569q0 74 -39 120t-117 46q-53 0 -92 -28.5 t-64.5 -73.5t-38 -101.5t-12.5 -111.5q0 -78 40 -123t126 -45q43 0 80 29.5t62.5 74.5t40 101.5t14.5 111.5z" />
<glyph horiz-adv-x="1228" d="M1180 569q0 -139 -50.5 -249.5t-132.5 -187.5t-188.5 -119t-218.5 -42q-109 0 -206 29t-169 84t-114 138t-42 192q0 145 50.5 256.5t133.5 188.5t190.5 117t221.5 40q106 0 202.5 -31t167.5 -88t113 -140.5t42 -187.5zM801 569q0 74 -39 120t-117 46q-53 0 -92 -28.5 t-64.5 -73.5t-38 -101.5t-12.5 -111.5q0 -78 40 -123t126 -45q43 0 80 29.5t62.5 74.5t40 101.5t14.5 111.5zM1206 1268q0 -90 -49 -132t-133 -42q-82 0 -132 42t-50 132t50 132t132 42q84 0 133 -42t49 -132zM700 1268q0 -90 -50 -132t-132 -42q-84 0 -134 42t-50 132 t50 132t134 42q82 0 132 -42t50 -132z" />
<glyph horiz-adv-x="1228" d="M1180 569q0 -139 -50.5 -249.5t-132.5 -187.5t-188.5 -119t-218.5 -42q-109 0 -206 29t-169 84t-114 138t-42 192q0 145 50.5 256.5t133.5 188.5t190.5 117t221.5 40q106 0 202.5 -31t167.5 -88t113 -140.5t42 -187.5zM801 569q0 74 -39 120t-117 46q-53 0 -92 -28.5 t-64.5 -73.5t-38 -101.5t-12.5 -111.5q0 -78 40 -123t126 -45q43 0 80 29.5t62.5 74.5t40 101.5t14.5 111.5zM342 1137l29 213h778l31 -213h-838z" />
<glyph horiz-adv-x="1228" d="M1180 569q0 -139 -50.5 -249.5t-132.5 -187.5t-188.5 -119t-218.5 -42q-109 0 -206 29t-169 84t-114 138t-42 192q0 145 50.5 256.5t133.5 188.5t190.5 117t221.5 40q106 0 202.5 -31t167.5 -88t113 -140.5t42 -187.5zM801 569q0 74 -39 120t-117 46q-53 0 -92 -28.5 t-64.5 -73.5t-38 -101.5t-12.5 -111.5q0 -78 40 -123t126 -45q43 0 80 29.5t62.5 74.5t40 101.5t14.5 111.5zM1225 1458q-29 -113 -82 -188.5t-119 -121.5t-136.5 -65.5t-135.5 -19.5q-63 0 -127 19.5t-112 65.5t-72.5 122t-10.5 188l211 -4q2 -86 37 -135t106 -49 q78 0 130.5 49t82.5 135z" />
<glyph horiz-adv-x="1228" d="M1180 569q0 -139 -50.5 -249.5t-132.5 -187.5t-188.5 -119t-218.5 -42q-109 0 -206 29t-169 84t-114 138t-42 192q0 145 50.5 256.5t133.5 188.5t190.5 117t221.5 40q106 0 202.5 -31t167.5 -88t113 -140.5t42 -187.5zM801 569q0 74 -39 120t-117 46q-53 0 -92 -28.5 t-64.5 -73.5t-38 -101.5t-12.5 -111.5q0 -78 40 -123t126 -45q43 0 80 29.5t62.5 74.5t40 101.5t14.5 111.5zM1004 1085h-240l377 383h356zM567 1085h-254l338 383h359z" />
<glyph horiz-adv-x="1228" d="M506 248q39 -20 96 -21q49 0 89 32t68.5 82t44 112.5t15.5 124.5v19t-2 19zM748 733q-41 27 -101 27q-59 0 -102 -31t-71 -81t-41 -112.5t-13 -123.5q0 -35 6 -62zM207 90q-68 53 -108 135t-40 189q0 145 50.5 256.5t133.5 188.5t190.5 117t221.5 40q156 0 279 -62 l102 123h168q-45 -53 -82 -96q-16 -18 -30.5 -35.5t-24.5 -32.5q-12 -16 -25 -30q63 -57 100.5 -136t37.5 -178q0 -139 -50.5 -249.5t-132.5 -187.5t-188.5 -119t-218.5 -42q-150 0 -273 54l-135 -162h-164z" />
<glyph horiz-adv-x="1228" d="M506 248q39 -20 96 -21q49 0 89 32t68.5 82t44 112.5t15.5 124.5v19t-2 19zM748 733q-41 27 -101 27q-59 0 -102 -31t-71 -81t-41 -112.5t-13 -123.5q0 -35 6 -62zM207 90q-68 53 -108 135t-40 189q0 145 50.5 256.5t133.5 188.5t190.5 117t221.5 40q156 0 279 -62 l102 123h168q-45 -53 -82 -96q-16 -18 -30.5 -35.5t-24.5 -32.5q-12 -16 -25 -30q63 -57 100.5 -136t37.5 -178q0 -139 -50.5 -249.5t-132.5 -187.5t-188.5 -119t-218.5 -42q-150 0 -273 54l-135 -162h-164zM797 1065h-242l270 383h418z" />
<glyph horiz-adv-x="1632" d="M1593 715h-475l-18 -92h395l-49 -254h-395l-19 -97h475l-53 -272h-872q-115 0 -210.5 26.5t-164 81t-108.5 133t-40 183.5q0 111 36 213t118 180t214 124t323 46h895zM453 436q0 -76 43 -114.5t114 -36.5h66l82 417h-60q-117 0 -181 -63.5t-64 -202.5z" />
<glyph horiz-adv-x="1114" d="M1051 520q0 -84 -30 -155.5t-91.5 -126t-157.5 -85t-231 -30.5h-117l-23 -123h-389l189 987h391l-23 -117h58q94 0 173 -26.5t134 -74.5t86 -111.5t31 -137.5zM692 510q0 53 -41 84t-112 31h-33l-51 -260h45q192 0 192 145z" />
<glyph horiz-adv-x="1171" d="M389 0h-381l193 987h530q92 0 165 -22.5t122 -61.5t75.5 -91t26.5 -114q0 -123 -66.5 -200.5t-164.5 -110.5l153 -387h-401l-94 305l-98 -4zM580 512q66 0 111.5 29.5t45.5 95.5q0 47 -33.5 75.5t-93.5 28.5h-78l-45 -229h93zM684 1085h-242l271 383h417z" />
<glyph horiz-adv-x="1171" d="M389 0h-381l193 987h530q92 0 165 -22.5t122 -61.5t75.5 -91t26.5 -114q0 -123 -66.5 -200.5t-164.5 -110.5l153 -387h-401l-94 305l-98 -4zM580 512q66 0 111.5 29.5t45.5 95.5q0 47 -33.5 75.5t-93.5 28.5h-78l-45 -229h93zM319 -260q6 35 26 64.5t49.5 50t65.5 31 t75 5.5q92 -10 137 -70.5t28 -148.5q-20 -102 -115.5 -172.5t-254.5 -91.5l-56 90q66 25 111 54.5t51 64.5q2 14 0 29.5t-13 31t-36 31t-68 31.5z" />
<glyph horiz-adv-x="1171" d="M389 0h-381l193 987h530q92 0 165 -22.5t122 -61.5t75.5 -91t26.5 -114q0 -123 -66.5 -200.5t-164.5 -110.5l153 -387h-401l-94 305l-98 -4zM580 512q66 0 111.5 29.5t45.5 95.5q0 47 -33.5 75.5t-93.5 28.5h-78l-45 -229h93zM588 1468l80 -204h4l153 204h308l-322 -383 h-340l-170 383h287z" />
<glyph horiz-adv-x="1044" d="M510 242q47 0 68.5 9t21.5 34q0 12 -7 19t-28.5 16.5t-63.5 22.5t-110 36q-53 18 -104 42.5t-91 59.5t-65 81t-25 108q0 172 117 262t312 90q121 0 249.5 -30.5t235.5 -92.5l-66 -305q-45 23 -100 47.5t-112.5 44t-112 31.5t-97.5 12q-72 0 -71 -35q0 -12 10 -21 t32.5 -17.5t60.5 -18.5t93 -29q51 -16 103.5 -38.5t94.5 -54.5t68.5 -77t26.5 -108q0 -92 -35.5 -160t-97 -113t-145.5 -67.5t-180 -22.5q-55 0 -121 8.5t-132.5 23.5t-129 37.5t-111.5 51.5l65 307q43 -27 98.5 -53.5t115 -49t120 -36.5t113.5 -14zM680 1085h-242l271 383 h417z" />
<glyph horiz-adv-x="1044" d="M510 242q47 0 68.5 9t21.5 34q0 12 -7 19t-28.5 16.5t-63.5 22.5t-110 36q-53 18 -104 42.5t-91 59.5t-65 81t-25 108q0 172 117 262t312 90q121 0 249.5 -30.5t235.5 -92.5l-66 -305q-45 23 -100 47.5t-112.5 44t-112 31.5t-97.5 12q-72 0 -71 -35q0 -12 10 -21 t32.5 -17.5t60.5 -18.5t93 -29q51 -16 103.5 -38.5t94.5 -54.5t68.5 -77t26.5 -108q0 -92 -35.5 -160t-97 -113t-145.5 -67.5t-180 -22.5q-55 0 -121 8.5t-132.5 23.5t-129 37.5t-111.5 51.5l65 307q43 -27 98.5 -53.5t115 -49t120 -36.5t113.5 -14zM764 1085l-82 203h-4 l-156 -203h-303l318 383h340l174 -383h-287z" />
<glyph horiz-adv-x="1044" d="M381 -90q102 -14 163.5 -64.5t61.5 -140.5q0 -59 -28.5 -109.5t-90 -88t-156.5 -61.5t-231 -26l17 162q84 -4 137 2t83 20.5t41 34t11 44.5q0 49 -56.5 69.5t-160.5 26.5v115l135 92q-84 14 -166 39.5t-143 62.5l65 307q43 -27 98.5 -53.5t115 -49t120 -36.5t113.5 -14 q47 0 68.5 9t21.5 34q0 12 -7 19t-28.5 16.5t-63.5 22.5t-110 36q-53 18 -104 42.5t-91 59.5t-65 81t-25 108q0 172 117 262t312 90q121 0 249.5 -30.5t235.5 -92.5l-66 -305q-45 23 -100 47.5t-112.5 44t-112 31.5t-97.5 12q-72 0 -71 -35q0 -12 10 -21t32.5 -17.5 t60.5 -18.5t93 -29q51 -16 103.5 -38.5t94.5 -54.5t68.5 -77t26.5 -108q0 -92 -35.5 -160t-97 -113t-145.5 -67.5t-180 -22.5h-21q-27 -16 -49.5 -31.5t-40.5 -25.5z" />
<glyph horiz-adv-x="1044" d="M510 242q47 0 68.5 9t21.5 34q0 12 -7 19t-28.5 16.5t-63.5 22.5t-110 36q-53 18 -104 42.5t-91 59.5t-65 81t-25 108q0 172 117 262t312 90q121 0 249.5 -30.5t235.5 -92.5l-66 -305q-45 23 -100 47.5t-112.5 44t-112 31.5t-97.5 12q-72 0 -71 -35q0 -12 10 -21 t32.5 -17.5t60.5 -18.5t93 -29q51 -16 103.5 -38.5t94.5 -54.5t68.5 -77t26.5 -108q0 -92 -35.5 -160t-97 -113t-145.5 -67.5t-180 -22.5q-55 0 -121 8.5t-132.5 23.5t-129 37.5t-111.5 51.5l65 307q43 -27 98.5 -53.5t115 -49t120 -36.5t113.5 -14zM262 -260 q6 35 25.5 64.5t49.5 50t65.5 31t74.5 5.5q92 -10 137 -70.5t29 -148.5q-20 -102 -115.5 -172.5t-255.5 -91.5l-55 90q66 25 111 54.5t51 64.5q2 14 0 29.5t-13.5 31t-36 31t-67.5 31.5z" />
<glyph horiz-adv-x="1044" d="M510 242q47 0 68.5 9t21.5 34q0 12 -7 19t-28.5 16.5t-63.5 22.5t-110 36q-53 18 -104 42.5t-91 59.5t-65 81t-25 108q0 172 117 262t312 90q121 0 249.5 -30.5t235.5 -92.5l-66 -305q-45 23 -100 47.5t-112.5 44t-112 31.5t-97.5 12q-72 0 -71 -35q0 -12 10 -21 t32.5 -17.5t60.5 -18.5t93 -29q51 -16 103.5 -38.5t94.5 -54.5t68.5 -77t26.5 -108q0 -92 -35.5 -160t-97 -113t-145.5 -67.5t-180 -22.5q-55 0 -121 8.5t-132.5 23.5t-129 37.5t-111.5 51.5l65 307q43 -27 98.5 -53.5t115 -49t120 -36.5t113.5 -14zM588 1489l80 -205h4 l153 205h308l-322 -383h-340l-170 383h287z" />
<glyph horiz-adv-x="1077" d="M774 680l-133 -680h-387l133 680h-303l59 307h992l-62 -307h-299zM205 -260q6 35 25.5 64.5t49 50t65.5 31t75 5.5q92 -10 137 -70.5t29 -148.5q-20 -102 -115.5 -172.5t-255.5 -91.5l-55 90q66 25 110.5 54.5t51.5 64.5q2 14 -0.5 29.5t-13.5 31t-35.5 31t-67.5 31.5z " />
<glyph horiz-adv-x="1079" d="M586 1468l80 -204h4l153 204h307l-321 -383h-340l-170 383h287zM774 680l-133 -680h-387l133 680h-303l59 307h992l-62 -307h-299z" />
<glyph horiz-adv-x="1175" d="M1073 383q-23 -113 -70 -190.5t-114.5 -126t-152.5 -70t-183 -21.5q-125 0 -217 27t-151.5 73t-89 110.5t-29.5 138.5q0 25 2 52t8 58l112 553h387l-104 -538q-4 -18 -6 -38t-2 -42q0 -41 23.5 -65.5t82.5 -24.5t84 29.5t35 86.5l117 592h385zM598 1085l-295 383h414 l123 -383h-242z" />
<glyph horiz-adv-x="1175" d="M1073 383q-23 -113 -70 -190.5t-114.5 -126t-152.5 -70t-183 -21.5q-125 0 -217 27t-151.5 73t-89 110.5t-29.5 138.5q0 25 2 52t8 58l112 553h387l-104 -538q-4 -18 -6 -38t-2 -42q0 -41 23.5 -65.5t82.5 -24.5t84 29.5t35 86.5l117 592h385zM831 1085h-241l270 383h418 z" />
<glyph horiz-adv-x="1175" d="M1073 383q-23 -113 -70 -190.5t-114.5 -126t-152.5 -70t-183 -21.5q-125 0 -217 27t-151.5 73t-89 110.5t-29.5 138.5q0 25 2 52t8 58l112 553h387l-104 -538q-4 -18 -6 -38t-2 -42q0 -41 23.5 -65.5t82.5 -24.5t84 29.5t35 86.5l117 592h385zM838 1085l-82 203h-4 l-156 -203h-303l317 383h340l174 -383h-286z" />
<glyph horiz-adv-x="1175" d="M1073 383q-23 -113 -70 -190.5t-114.5 -126t-152.5 -70t-183 -21.5q-125 0 -217 27t-151.5 73t-89 110.5t-29.5 138.5q0 25 2 52t8 58l112 553h387l-104 -538q-4 -18 -6 -38t-2 -42q0 -41 23.5 -65.5t82.5 -24.5t84 29.5t35 86.5l117 592h385zM1169 1268q0 -90 -49 -132 t-133 -42q-82 0 -132 42t-50 132t50 132t132 42q84 0 133 -42t49 -132zM664 1268q0 -90 -50.5 -132t-132.5 -42q-84 0 -134 42t-50 132t50 132t134 42q82 0 132.5 -42t50.5 -132z" />
<glyph horiz-adv-x="1175" d="M1073 383q-23 -113 -70 -190.5t-114.5 -126t-152.5 -70t-183 -21.5q-125 0 -217 27t-151.5 73t-89 110.5t-29.5 138.5q0 25 2 52t8 58l112 553h387l-104 -538q-4 -18 -6 -38t-2 -42q0 -41 23.5 -65.5t82.5 -24.5t84 29.5t35 86.5l117 592h385zM301 1137l29 213h778 l31 -213h-838z" />
<glyph horiz-adv-x="1175" d="M1073 383q-23 -113 -70 -190.5t-114.5 -126t-152.5 -70t-183 -21.5q-125 0 -217 27t-151.5 73t-89 110.5t-29.5 138.5q0 25 2 52t8 58l112 553h387l-104 -538q-4 -18 -6 -38t-2 -42q0 -41 23.5 -65.5t82.5 -24.5t84 29.5t35 86.5l117 592h385zM1188 1458 q-29 -113 -82 -188.5t-118.5 -121.5t-136.5 -65.5t-136 -19.5q-63 0 -127 19.5t-112 65.5t-72.5 122t-10.5 188l211 -4q2 -86 37 -135t107 -49q78 0 130 49t83 135z" />
<glyph horiz-adv-x="1175" d="M1073 383q-23 -113 -70 -190.5t-114.5 -126t-152.5 -70t-183 -21.5q-125 0 -217 27t-151.5 73t-89 110.5t-29.5 138.5q0 25 2 52t8 58l112 553h387l-104 -538q-4 -18 -6 -38t-2 -42q0 -41 23.5 -65.5t82.5 -24.5t84 29.5t35 86.5l117 592h385zM1061 1333 q0 -63 -27.5 -112.5t-74 -83t-106.5 -51t-124 -17.5q-55 0 -108.5 14.5t-93.5 44t-64.5 72.5t-24.5 100q0 63 28 112.5t74 83.5t106.5 52.5t123.5 18.5q57 0 110.5 -14.5t93.5 -44t63.5 -74t23.5 -101.5zM928 1331q0 72 -48.5 101.5t-117.5 29.5q-78 0 -135.5 -39 t-57.5 -116q0 -68 51.5 -98.5t118.5 -30.5q76 0 132.5 39.5t56.5 113.5z" />
<glyph horiz-adv-x="1175" d="M1073 383q-23 -113 -70 -190.5t-114.5 -126t-152.5 -70t-183 -21.5q-125 0 -217 27t-151.5 73t-89 110.5t-29.5 138.5q0 25 2 52t8 58l112 553h387l-104 -538q-4 -18 -6 -38t-2 -42q0 -41 23.5 -65.5t82.5 -24.5t84 29.5t35 86.5l117 592h385zM977 1085h-240l377 383h356 zM541 1085h-254l338 383h358z" />
<glyph horiz-adv-x="1175" d="M584 -455q-121 0 -177.5 66.5t-37.5 167.5q12 66 53 114t100 82q-18 0 -28 2q-205 12 -316.5 104.5t-111.5 242.5q0 25 2 52t8 58l112 553h387l-104 -538q-4 -18 -6 -38t-2 -42q0 -41 23.5 -65.5t82.5 -24.5t84 29.5t35 86.5l117 592h385l-117 -604q-29 -147 -96.5 -232 t-165.5 -133q-72 -35 -120 -79.5t-58 -96.5q-8 -43 10.5 -65.5t58.5 -22.5q29 0 57.5 7.5t51.5 17.5l14 -176q-49 -27 -106 -42.5t-135 -15.5z" />
<glyph horiz-adv-x="1638" d="M573 0h-387l-55 987h387l-47 -579l231 579h412l14 -579l170 579h406l-449 -987h-401l-20 580zM1094 1085l-82 203h-4l-156 -203h-303l317 383h340l174 -383h-286z" />
<glyph horiz-adv-x="1638" d="M573 0h-387l-55 987h387l-47 -579l231 579h412l14 -579l170 579h406l-449 -987h-401l-20 580zM864 1085l-295 383h414l123 -383h-242z" />
<glyph horiz-adv-x="1638" d="M573 0h-387l-55 987h387l-47 -579l231 579h412l14 -579l170 579h406l-449 -987h-401l-20 580zM1001 1085h-241l270 383h418z" />
<glyph horiz-adv-x="1638" d="M573 0h-387l-55 987h387l-47 -579l231 579h412l14 -579l170 579h406l-449 -987h-401l-20 580zM1399 1268q0 -90 -49.5 -132t-132.5 -42q-82 0 -132.5 42t-50.5 132t50.5 132t132.5 42q84 0 133 -42t49 -132zM893 1268q0 -90 -50 -132t-132 -42q-84 0 -134.5 42t-50.5 132 t50.5 132t134.5 42q82 0 132 -42t50 -132z" />
<glyph horiz-adv-x="1110" d="M721 332l-66 -332h-385l70 371l-244 616h402l90 -352l215 352h405zM799 1085h-242l270 383h418z" />
<glyph horiz-adv-x="1110" d="M721 332l-66 -332h-385l70 371l-244 616h402l90 -352l215 352h405zM793 1085l-82 203h-4l-156 -203h-303l317 383h340l174 -383h-286z" />
<glyph horiz-adv-x="1110" d="M721 332l-66 -332h-385l70 371l-244 616h402l90 -352l215 352h405zM1167 1268q0 -90 -49 -132t-133 -42q-82 0 -132 42t-50 132t50 132t132 42q84 0 133 -42t49 -132zM662 1268q0 -90 -50.5 -132t-132.5 -42q-84 0 -134 42t-50 132t50 132t134 42q82 0 132.5 -42 t50.5 -132z" />
<glyph horiz-adv-x="1079" d="M-12 0l47 240l528 450h-430l57 297h908l-47 -242l-523 -446h437l-60 -299h-917zM664 1085h-242l270 383h418z" />
<glyph horiz-adv-x="1079" d="M-12 0l47 240l528 450h-430l57 297h908l-47 -242l-523 -446h437l-60 -299h-917zM854 1264q-8 -86 -63.5 -145.5t-147.5 -59.5t-142 59.5t-46 145.5q2 39 19.5 75.5t46 66.5t67.5 47t86 17q45 0 81 -17t58.5 -46t33.5 -65.5t7 -77.5z" />
<glyph horiz-adv-x="1079" d="M-12 0l47 240l528 450h-430l57 297h908l-47 -242l-523 -446h437l-60 -299h-917zM598 1489l80 -205h4l154 205h307l-322 -383h-340l-170 383h287z" />
<glyph horiz-adv-x="589" d="M-295 -238h-293l1473 1518h293z" />
<glyph horiz-adv-x="675" d="M49 18l2 148h506l4 -148h-512z" />
<glyph d="M475 -29q-227 0 -334.5 125t-107.5 342q0 84 12 181.5t39 192.5t71 183t105.5 156t143 107.5t186.5 39.5q227 0 334.5 -129t107.5 -346q0 -86 -12 -181t-39 -190.5t-70 -182.5t-105.5 -152.5t-144.5 -105.5t-186 -40zM690 856q0 25 -3 55.5t-12 56t-28.5 43t-52.5 17.5 q-39 0 -70.5 -37t-56.5 -94t-42 -129t-29.5 -139.5t-17.5 -125t-5 -87.5q0 -25 3 -55.5t13 -56t29.5 -43t54.5 -17.5q39 0 70.5 36.5t55.5 95t41 129t28.5 138.5t16.5 125t5 88z" />
<glyph d="M291 0l203 887l-281 -51l39 321l704 125l-288 -1282h-377z" />
<glyph d="M-2 0q-8 0 -5 44t11 97q8 63 23 144q152 125 262 212t181 152.5t104.5 120.5t33.5 115q0 61 -44 88.5t-97 27.5q-70 0 -134.5 -25.5t-123.5 -62.5l-74 279q98 57 206 89t218 32q76 0 155 -17.5t142.5 -58.5t103 -106.5t39.5 -161.5q0 -113 -51 -206t-131 -172 t-179 -147.5t-194 -130.5h488l-43 -313h-891z" />
<glyph d="M635 653q57 -2 112.5 -21.5t97.5 -56t67.5 -91t25.5 -128.5q0 -100 -40 -172.5t-108.5 -121t-164 -71t-205.5 -22.5q-119 0 -222.5 28t-213.5 85l94 285q76 -37 167 -67t177 -30q27 0 58.5 5.5t58 19.5t44 38.5t17.5 63.5q0 37 -19.5 59.5t-54 35t-81 17.5t-101.5 5h-76 t-80 -4l37 244q14 2 50 3t81 6t92.5 15t86 27.5t64.5 43t26 62.5q0 53 -41 71.5t-101 18.5q-68 0 -136 -20t-128 -49l-59 285q94 43 188 66.5t195 23.5q68 0 145.5 -15.5t144 -51.5t109.5 -96.5t43 -152.5q0 -82 -32.5 -141t-83 -99t-113 -64t-121.5 -34z" />
<glyph d="M840 285l-56 -285h-329l55 285h-483l4 254l532 727h467l-135 -705h119l-49 -276h-125zM666 1022l-336 -475h243z" />
<glyph d="M512 791q76 0 152.5 -19.5t139 -61.5t101.5 -107.5t39 -160.5q0 -104 -36 -191t-102.5 -149.5t-162.5 -98.5t-215 -36q-55 0 -115.5 7.5t-121 22.5t-116 36.5t-100.5 50.5l72 291q31 -20 75 -43t91 -41.5t96 -29.5t90 -11q88 0 136.5 38t48.5 120q0 39 -22.5 66.5 t-59.5 44t-86 24.5t-105 8q-66 0 -118 -8t-93 -19l-28 74l196 664h781l-54 -299h-493l-53 -172h63z" />
<glyph d="M1034 1012q-70 -10 -149.5 -24.5t-157.5 -40t-149.5 -68.5t-122.5 -111l-2 -8q66 33 131 48t125 15q61 0 114.5 -22.5t93 -66.5t62 -107.5t22.5 -145.5q0 -98 -34.5 -191t-99 -165t-157 -116t-204.5 -44q-123 0 -210 39t-143.5 105.5t-83 153.5t-26.5 186 q0 68 12.5 151.5t46 171.5t96 174t164 158t245 123t341.5 69zM379 403q0 -84 31.5 -129t87.5 -45q41 0 70.5 20.5t49 52.5t28.5 70t9 72q0 74 -34.5 111t-90.5 37q-29 0 -65.5 -8.5t-65.5 -26.5q-10 -41 -15 -82t-5 -72z" />
<glyph d="M129 961l49 299h905l-39 -269l-653 -997h-362l649 967h-549z" />
<glyph d="M717 926q0 55 -32 90t-91 35q-63 0 -100 -47.5t-37 -110.5q0 -33 13 -58.5t33.5 -45t45 -34t47.5 -26.5q53 33 87 82t34 115zM647 367q0 37 -17.5 64.5t-42 50t-54 38t-54.5 27.5q-53 -27 -92 -74t-39 -115q0 -72 42 -105.5t106 -33.5q68 0 109.5 39t41.5 109zM985 377 q0 -104 -43 -181t-111.5 -127.5t-155.5 -74t-175 -23.5q-74 0 -163 15.5t-165 53.5t-127 102.5t-51 162.5q0 72 25.5 124t66.5 89t95.5 60.5t113.5 35.5q-78 43 -133.5 108.5t-55.5 160.5q0 100 39 176t103.5 125t149.5 73.5t180 24.5q74 0 158.5 -15.5t156.5 -53t119 -102 t47 -163.5q0 -68 -21.5 -118t-59.5 -85.5t-89 -58t-109 -35.5q39 -23 77 -49.5t65.5 -60t45 -74.5t17.5 -90z" />
<glyph d="M35 238q70 10 148.5 24t157.5 40t149.5 69t123.5 110l2 8q-66 -33 -131 -48t-125 -15q-61 0 -114 24.5t-93 70.5t-62.5 110.5t-22.5 146.5q0 98 34.5 189.5t99 162t157 112.5t204.5 42q123 0 210 -39t143.5 -105.5t83 -153.5t26.5 -185q0 -68 -12.5 -152t-46 -172 t-96 -174t-164 -157.5t-245 -123t-341.5 -69.5zM690 846q0 84 -31.5 129t-87.5 45q-41 0 -70.5 -18.5t-49 -48t-28.5 -66.5t-9 -72q0 -74 34.5 -116t90.5 -42q29 0 65.5 8.5t65.5 26.5q10 41 15 82t5 72z" />
<glyph d="M498 264q131 0 131 88q0 53 -64 92zM799 1497h166l-84 -231q66 -23 122 -51.5t99 -61.5l-121 -307q-47 35 -101.5 64.5t-107.5 50.5l-72 -197q53 -27 105.5 -61.5t92.5 -78.5t64.5 -101.5t24.5 -131.5q0 -88 -36 -164.5t-102.5 -134t-162.5 -91.5t-217 -34q-20 0 -39.5 1 t-40.5 3l-84 -225h-166l94 254q-86 23 -160.5 57.5t-123.5 73.5l117 336q57 -47 129.5 -94t148.5 -76l80 215q-53 25 -106.5 55.5t-97.5 73.5t-72.5 100.5t-28.5 130.5q0 96 33.5 178.5t96 140.5t151.5 90t202 32q33 0 64.5 -3t62.5 -7zM618 999q-8 2 -16 2h-16 q-51 0 -79 -24.5t-28 -58.5q0 -27 21.5 -47.5t58.5 -39.5z" />
<glyph d="M903 954q88 -27 152 -63l-127 -277q-33 23 -65 39.5t-62 30.5l-166 -434h8q55 0 115.5 17.5t118.5 39.5l47 -274q-66 -27 -149 -46.5t-193 -19.5h-27.5t-26.5 2l-100 -262h-162l111 289q-145 45 -235.5 151.5t-90.5 270.5q0 123 45 228.5t125 181t188.5 118.5t235.5 43 q53 0 107 -6l82 213h161zM647 707q-57 -4 -98 -31t-68.5 -66t-41 -86t-13.5 -96q0 -92 61 -137q12 29 25 63q10 29 24.5 66t30.5 78q35 92 80 209z" />
<glyph d="M190 719q-6 55 -6 110q0 98 34 185.5t97.5 153t152.5 104.5t200 39q98 0 209.5 -32t199.5 -91l-127 -283q-63 47 -138 76t-138 29q-90 -2 -134 -59.5t-44 -147.5q0 -20 1 -41t3 -43h311l-10 -158h-289q4 -35 3 -68.5t-7 -68.5l-19 -92q35 -23 78 -38t78 -15q23 0 42.5 6 t36.5 23.5t31.5 50t28.5 87.5l242 -69q-20 -115 -59 -191.5t-90.5 -125t-109.5 -69t-116 -20.5q-104 0 -174.5 39t-118.5 92q-59 -53 -147 -85.5t-229 -45.5l-19 283q104 12 168 50t78 108q6 35 5 71.5t-5 77.5h-166l-10 158h157v0z" />
<glyph d="M96 557l-10 158h236l-216 565h416l64 -399l215 399h428l-434 -565h202l-10 -158h-270l-23 -121h240l10 -157h-272l-56 -279h-395l55 279h-243l10 157h272l23 121h-242z" />
<glyph horiz-adv-x="1177" d="M127 715l-6 155h164q72 217 210 338t373 121q51 0 109.5 -8t115 -22.5t106.5 -35t87 -46.5l-119 -291q-53 37 -124.5 65.5t-143.5 28.5q-74 0 -126 -42t-81 -108h371l-6 -155h-422q-4 -18 -7 -37t-7 -37q0 -16 -4.5 -34.5t-4.5 -37.5h314l6 -155h-316q6 -35 21.5 -63.5 t42.5 -49t67.5 -31t100.5 -10.5q104 0 205 41v-291q-53 -23 -139.5 -36t-174.5 -13q-260 0 -391 122t-139 331h-162l6 155h168q-2 18 2 35t2 33q4 20 7.5 38.5t9.5 39.5h-115z" />
<glyph d="M954 999q0 -76 -30.5 -142t-83 -116.5t-122 -79t-147.5 -28.5q-70 0 -127 22.5t-97 63.5t-62.5 98t-22.5 125q0 74 30 140.5t82 116.5t120.5 80t146.5 30q70 0 128 -22.5t99 -62.5t63.5 -97.5t22.5 -127.5zM842 995q0 98 -59.5 152.5t-153.5 54.5q-53 0 -99.5 -20.5 t-81 -55t-54 -81t-19.5 -99.5q0 -94 57 -150.5t156 -56.5q53 0 99 20.5t81 56.5t54.5 82t19.5 97z" />
<glyph d="M666 352v-348h-308v348h-344l6 285h338v348h308v-348h338l6 -285h-344z" />
<glyph d="M666 600v-276h-308v276h-344l6 285h338v276h308v-276h338l6 -285h-344zM14 0l6 285h984l6 -285h-996z" />
<glyph d="M989 160h-280v274h-689l7 285h962v-559z" />
<glyph d="M76 582l-10 280h895l-11 -280h-874zM66 98l10 281h874l11 -281h-895z" />
<glyph d="M805 0l-293 295l-293 -295l-201 201l297 291l-299 294l201 201l295 -299l295 299l201 -201l-299 -292l297 -293z" />
<glyph d="M14 352l6 285h984l6 -285h-996zM692 82q0 -80 -49 -126t-131 -46t-131 46t-49 126t49 126t131 46t131 -46t49 -126zM692 907q0 -80 -49 -126t-131 -46t-131 46t-49 126t49 126t131 46t131 -46t49 -126z" />
<glyph d="M918 -6l-822 364v246l822 367v-295l-447 -184v-21l447 -180v-297z" />
<glyph d="M109 -6v297l444 180v21l-444 184v295l819 -367v-246z" />
<glyph horiz-adv-x="512" d="M84 1436h344v-1846h-344v1846z" />
<glyph horiz-adv-x="512" d="M84 1315h344v-686h-344v686zM84 401h344v-686h-344v686z" />
<glyph d="M905 475q0 -23 -12 -63.5t-29.5 -83.5t-37 -80t-35.5 -53t-53.5 -36t-80.5 -37.5t-84 -29.5t-63 -12q-23 0 -62.5 12t-82.5 29.5t-80 37t-52 36.5q-16 16 -35.5 53t-38 80t-30.5 84t-12 63q0 23 12 63t30.5 83t38 79.5t35.5 53.5q14 14 52.5 34.5t81.5 38t82.5 29.5 t62.5 12t62.5 -12t82.5 -29.5t80 -38t54 -34.5q14 -16 34.5 -53t38 -80t29.5 -83t12 -63z" />
<glyph d="M924 727q-10 -104 -33 -171t-53.5 -104.5t-68.5 -51t-83 -13.5q-49 0 -95 16.5t-86 36t-73 36t-55 16.5q-25 0 -38 -17.5t-20 -75.5h-225q10 104 31.5 171t52.5 105t70 51t84 13q49 0 95 -16t86 -35.5t72.5 -36t55.5 -16.5q25 0 38 17.5t19 74.5h226v0z" />
<glyph horiz-adv-x="512" d="M2 815l236 506l335 -74l-299 -432h-272z" />
<glyph d="M504 815l235 506l336 -74l-299 -432h-272zM12 815l236 506l336 -74l-299 -432h-273z" />
<glyph d="M772 -551q-117 63 -229.5 164.5t-200.5 235t-141.5 297t-53.5 352.5q0 188 53.5 351t141.5 297t200.5 235.5t229.5 164.5l213 -270q-96 -61 -179 -142t-146.5 -179.5t-99.5 -213t-36 -243.5t36 -244t99.5 -213t146.5 -179t179 -143l-213 -270v0z" />
<glyph d="M41 -281q94 61 178 142.5t147.5 179.5t99.5 213t36 244t-36 243.5t-99.5 213t-147.5 179t-178 142.5l213 270q117 -63 229.5 -164.5t200.5 -235.5t141.5 -297t53.5 -351t-53.5 -352t-141.5 -297.5t-200.5 -234.5t-229.5 -165z" />
<glyph d="M184 -403v1837h768v-285h-415v-1268h415v-284h-768z" />
<glyph d="M72 -119h415v1268h-415v285h768v-1837h-768v284z" />
<glyph d="M276 508l-178 248l318 110v23l-318 108l181 248l198 -270l21 8l12 338l291 -96l-203 -277l14 -16l322 102v-309l-322 104l-12 -20l197 -279l-293 -94l-4 340l-23 6z" />
<glyph d="M924 -418q-145 2 -266 11.5t-209.5 38t-136.5 82t-48 145.5q0 63 8.5 114.5t17.5 94.5t17 79.5t8 73.5q0 66 -60 100.5t-189 45.5l-7 157l7 158q129 10 189 40t60 97q0 37 -8 76t-17 83t-17.5 96t-8.5 116q0 92 48 146.5t136.5 82t209 36.5t266.5 13v-231 q-82 -6 -136.5 -15.5t-87 -23.5t-46 -36.5t-13.5 -53.5q0 -51 16.5 -128t16.5 -204q0 -49 -23.5 -91t-65.5 -74.5t-98.5 -52t-124.5 -23.5v-21q68 -4 124.5 -24.5t98.5 -53.5t65.5 -75t23.5 -91q0 -63 -5 -110t-11.5 -84t-11.5 -68t-5 -61q0 -35 13.5 -57.5t46 -38t87 -24.5 t136.5 -15v-230v0z" />
<glyph d="M956 367q-129 -10 -189 -45t-60 -101q0 -37 8 -73.5t17 -79.5t17.5 -94.5t8.5 -114.5q0 -92 -48 -145.5t-135.5 -82t-209 -38t-267.5 -11.5v230q82 6 136.5 15t87 24.5t46 38t13.5 57.5q0 31 -5 61.5t-11.5 67.5t-11.5 84t-5 110q0 49 23.5 91t65.5 75t98.5 53.5 t123.5 24.5v21q-68 4 -124 23.5t-98 52t-65.5 74.5t-23.5 91q0 127 16.5 204t16.5 128q0 31 -13.5 53.5t-46 36.5t-87 23.5t-136.5 15.5v231q145 -4 267 -13t209.5 -36.5t135.5 -82t48 -146.5q0 -63 -8.5 -115.5t-17.5 -96.5t-17 -83t-8 -76q0 -68 60 -97.5t189 -39.5 l7 -158z" />
<glyph d="M1040 608q0 -102 -64.5 -166.5t-150.5 -89.5q35 -33 56.5 -72.5t21.5 -91.5q0 -84 -39 -144t-100.5 -100t-135 -59.5t-143.5 -19.5q-53 0 -117.5 8t-131 25.5t-127 42t-103.5 59.5l125 252q96 -59 182 -94t174 -35q20 0 45 9t25 38q0 31 -58.5 56.5t-138.5 54.5 q-55 18 -114.5 41.5t-107.5 57.5t-78.5 80t-30.5 111q0 117 67.5 181.5t165.5 87.5q-57 68 -57 151q0 82 34.5 143.5t91 102.5t130.5 60.5t151 19.5q49 0 115 -9.5t130.5 -26.5t123.5 -44t96 -61l-127 -248q-92 55 -168.5 93t-158.5 38q-23 0 -45.5 -9.5t-22.5 -37.5 q0 -16 15.5 -30.5t42 -28t61.5 -27t74 -29.5q51 -23 103 -49.5t94 -61t68.5 -79t26.5 -99.5zM750 526q0 31 -31 57.5t-71 48t-82 37t-62 25.5q-33 14 -65.5 29.5t-63.5 36.5q-20 -23 -38 -46.5t-18 -49.5q0 -31 31 -57.5t71 -50.5t81 -41t61 -26q33 -14 67 -29.5t66 -31.5 q16 18 35 44.5t19 53.5z" />
<glyph d="M612 346h-4q-2 0 -5 1t-7 1q-90 0 -182 19.5t-166 69.5t-121 136t-47 218q0 98 40 187t121 155.5t204.5 106.5t291.5 40h406l-283 -1432h-350l98 498h4z" />
<glyph horiz-adv-x="512" d="M420 184q0 -100 -61.5 -157.5t-163.5 -57.5t-164 57.5t-62 157.5t61.5 157.5t164.5 57.5q102 0 163.5 -57.5t61.5 -157.5z" />
<glyph horiz-adv-x="512" d="M-55 188q16 94 78.5 151.5t164.5 57.5q57 0 104.5 -22.5t82.5 -60.5t54.5 -88t19.5 -107q0 -90 -44.5 -166t-112 -134.5t-148.5 -99.5t-154 -65l-142 156q27 10 68 32.5t80 53t66.5 66.5t27.5 71q0 61 -39.5 93.5t-105.5 61.5z" />
<glyph horiz-adv-x="512" d="M537 733q0 -100 -61.5 -157.5t-164.5 -57.5q-102 0 -163.5 57.5t-61.5 157.5t61.5 157.5t163.5 57.5t164 -57.5t62 -157.5zM428 184q0 -100 -61.5 -157.5t-163.5 -57.5t-164 57.5t-62 157.5t61.5 157.5t164.5 57.5q102 0 163.5 -57.5t61.5 -157.5z" />
<glyph horiz-adv-x="512" d="M537 733q0 -100 -61.5 -157.5t-164.5 -57.5q-102 0 -163.5 57.5t-61.5 157.5t61.5 157.5t163.5 57.5t164 -57.5t62 -157.5zM-55 188q16 94 78.5 151.5t164.5 57.5q57 0 104.5 -22.5t82.5 -60.5t54.5 -88t19.5 -107q0 -90 -44.5 -166t-112 -134.5t-148.5 -99.5t-154 -65 l-140 156q27 10 67 32.5t79 53t66.5 66.5t27.5 71q0 61 -39.5 93.5t-105.5 61.5z" />
<glyph horiz-adv-x="765" d="M539 10l-516 326l55 282l643 326l22 -242l-350 -227v-4l260 -227z" />
<glyph horiz-adv-x="765" d="M49 10l-22 242l350 227v4l-262 228l116 233l517 -326l-56 -282z" />
<glyph horiz-adv-x="1265" d="M1069 10l-459 326l56 282l585 326l25 -242l-283 -231v-4l193 -223zM457 33l-453 309l55 274l572 310l31 -242l-277 -213v-4l188 -209z" />
<glyph horiz-adv-x="1275" d="M649 33l-31 237l275 213v4l-188 209l118 230l453 -310l-55 -274zM29 10l-21 246l277 227v4l-191 228l117 229l459 -326l-56 -282z" />
<glyph horiz-adv-x="512" d="M496 555q0 -100 -61.5 -157.5t-164.5 -57.5q-102 0 -163.5 57.5t-61.5 157.5t61.5 157.5t163.5 57.5t164 -57.5t62 -157.5z" />
<glyph horiz-adv-x="827" d="M51 346v301h727v-301h-727z" />
<glyph horiz-adv-x="1144" d="M47 346l6 301h1043l6 -301h-1055z" />
<glyph horiz-adv-x="2107" d="M47 346l6 301h2005l6 -301h-2017z" />
<glyph horiz-adv-x="1536" d="M770 1196l586 -1104h-1176zM768 815l-260 -534h520z" />
<glyph horiz-adv-x="1536" d="M1401 639l-1104 -586v1176zM1020 641l-535 260v-520z" />
<glyph horiz-adv-x="1536" d="M1356 1196l-586 -1104l-590 1104h1176zM508 1008l260 -535l260 535h-520z" />
<glyph horiz-adv-x="1536" d="M1237 53l-1104 586l1104 590v-1176zM1049 901l-535 -260l535 -260v520z" />
<glyph horiz-adv-x="1536" d="M770 1196l586 -1104h-1176z" />
<glyph horiz-adv-x="1536" d="M1401 639l-1104 -586v1176z" />
<glyph horiz-adv-x="1536" d="M1356 1196l-586 -1104l-590 1104h1176z" />
<glyph horiz-adv-x="1536" d="M1237 53l-1104 586l1104 590v-1176z" />
<glyph horiz-adv-x="1536" d="M616 782l-225 -385l-358 267l717 684h38l715 -684l-356 -267l-225 385l86 -843h-478z" />
<glyph horiz-adv-x="1536" d="M518 260l385 225l-844 -86v478l844 -86l-385 225l266 356l684 -715v-39l-684 -716z" />
<glyph horiz-adv-x="1536" d="M33 616l358 267l223 -385l-86 843h480l-86 -843l225 385l356 -267l-715 -684h-40z" />
<glyph horiz-adv-x="1536" d="M59 618v39l684 715l265 -356l-383 -225l843 86v-478l-843 86l383 -225l-265 -358z" />
<glyph d="M940 854v-854h-856v854h856zM831 750h-641v-641h641v641z" />
<glyph d="M940 854v-854h-856v854h856zM754 670h-484v-484h484v484z" />
<glyph d="M940 854v-854h-856v854h856zM772 764l76 -76v76h-76zM715 764h-133l266 -266v131zM524 764h-131l455 -455v131zM336 764h-131l643 -643v131zM176 735v-133l512 -508h131zM176 545v-131l322 -320h131zM176 354v-131l131 -129h131zM176 168v-74h74z" />
<glyph d="M84 854h856v-854h-856v854z" />
<glyph horiz-adv-x="1536" d="M1409 0h-1282v1282h1282v-1282zM1296 1169h-1056v-1056h1056v1056z" />
<glyph horiz-adv-x="1536" d="M1409 0h-1282v1282h1282v-1282zM362 236h812v811h-812v-811z" />
<glyph horiz-adv-x="1536" d="M1409 0h-1282v1282h1282v-1282zM1296 1169h-159l159 -159v159zM1296 956l-213 213h-237l450 -450v237zM1296 666l-503 503h-238l741 -741v238zM1296 377l-792 792h-238l1030 -1030v238zM1272 113l-1032 1032v-238l794 -794h238zM240 616l503 -503h238l-741 741v-238z M690 113l-450 450v-237l213 -213h237zM240 113h163l-163 163v-163z" />
<glyph horiz-adv-x="1536" d="M1409 0h-1282v1282h1282v-1282z" />
<glyph d="M512 -20q-94 0 -176 34.5t-142.5 95t-95.5 142.5t-35 176t35 175t95.5 141.5t142.5 95t176 34.5t176 -34.5t142.5 -95t95.5 -141.5t35 -175t-35 -176t-95.5 -142.5t-142.5 -95t-176 -34.5zM852 428q0 72 -25.5 134.5t-71.5 109.5t-108.5 73.5t-134.5 26.5t-134.5 -26.5 t-108.5 -73.5t-71.5 -109.5t-25.5 -134.5t25.5 -134.5t71.5 -109.5t108.5 -73.5t134.5 -26.5t134.5 26.5t108.5 73.5t71.5 109.5t25.5 134.5z" />
<glyph d="M512 -20q-94 0 -176 34.5t-142.5 95t-95.5 142.5t-35 176t35 175t95.5 141.5t142.5 95t176 34.5t176 -34.5t142.5 -95t95.5 -141.5t35 -175t-35 -176t-95.5 -142.5t-142.5 -95t-176 -34.5zM770 428q0 53 -19.5 101.5t-54 84t-82 56t-102.5 20.5t-102.5 -20.5t-82 -56 t-54 -84t-19.5 -101.5q0 -55 19.5 -102t54 -83t82 -56.5t102.5 -20.5t102.5 20.5t82 56.5t54 83t19.5 102z" />
<glyph d="M512 -20q-94 0 -176 34.5t-142.5 95t-95.5 142.5t-35 176t35 175t95.5 141.5t142.5 95t176 34.5t176 -34.5t142.5 -95t95.5 -141.5t35 -175t-35 -176t-95.5 -142.5t-142.5 -95t-176 -34.5zM770 690q-41 41 -93 67.5t-114 35.5l309 -310q-8 61 -34.5 113.5t-67.5 93.5z M500 797q-29 -2 -57.5 -7.5t-55.5 -15.5l467 -469q10 29 15 57.5t8 57.5zM346 758q-23 -10 -42 -24.5t-36 -31.5l518 -520q35 35 54 80zM238 674q-35 -35 -54 -82l496 -494q23 10 42 24.5t36 31.5zM168 549q-16 -49 -21 -113l377 -377q63 0 113 21zM152 373 q8 -63 36.5 -117.5t71.5 -95.5q41 -39 91 -64.5t110 -34.5z" />
<glyph d="M512 -20q-94 0 -176 34.5t-142.5 95t-95.5 142.5t-35 176t35 175t95.5 141.5t142.5 95t176 34.5t176 -34.5t142.5 -95t95.5 -141.5t35 -175t-35 -176t-95.5 -142.5t-142.5 -95t-176 -34.5z" />
<glyph horiz-adv-x="1536" d="M1440 641q0 -141 -51.5 -263t-142.5 -213t-214 -143.5t-264 -52.5t-264 52.5t-214 143.5t-142.5 213t-51.5 263t51.5 263t142.5 213t214 143.5t264 52.5t264 -52.5t214 -143.5t142.5 -213t51.5 -263zM768 76q119 0 221.5 44t177 120.5t117.5 180t43 220.5t-43 220.5 t-117.5 180t-177 120.5t-221.5 44t-221.5 -44t-177 -120.5t-117.5 -180t-43 -220.5t43 -220.5t117.5 -180t177 -120.5t221.5 -44z" />
<glyph horiz-adv-x="1536" d="M1440 641q0 -141 -51.5 -263t-142.5 -213t-214 -143.5t-264 -52.5t-264 52.5t-214 143.5t-142.5 213t-51.5 263t51.5 263t142.5 213t214 143.5t264 52.5t264 -52.5t214 -143.5t142.5 -213t51.5 -263zM768 1083q-92 0 -172 -34.5t-138.5 -95t-92 -140.5t-33.5 -172 t33.5 -172t92 -140.5t138.5 -95t172 -34.5t172 34.5t138.5 95t92 140.5t33.5 172t-33.5 172t-92 140.5t-138.5 95t-172 34.5z" />
<glyph horiz-adv-x="1536" d="M1440 641q0 -141 -51.5 -263t-142.5 -213t-214 -143.5t-264 -52.5t-264 52.5t-214 143.5t-142.5 213t-51.5 263t51.5 264t142.5 214t214 144.5t264 53.5t264 -53.5t214 -144.5t142.5 -214t51.5 -264zM1325 690q-8 104 -50 194.5t-109.5 159t-159 110.5t-195.5 50z M1288 434q35 92 39 201l-571 571q-109 -4 -199 -39l367 -366q68 -70 133 -135.5t117 -116.5q59 -62 114 -115zM1180 256q57 59 94 141q-55 53 -117 117q-53 53 -119.5 120.5t-138.5 139.5l-377 377q-78 -37 -139 -98zM1016 131q78 37 139 98l-799 799q-29 -31 -52 -66.5 t-42 -76.5zM246 848q-33 -92 -37 -201l571 -571q53 0 102.5 10t96.5 29zM211 592q8 -104 50 -194.5t109.5 -159t159 -110.5t195.5 -50z" />
<glyph horiz-adv-x="1536" d="M1440 641q0 -141 -51.5 -263t-142.5 -213t-214 -143.5t-264 -52.5t-264 52.5t-214 143.5t-142.5 213t-51.5 263t51.5 263t142.5 213t214 143.5t264 52.5t264 -52.5t214 -143.5t142.5 -213t51.5 -263z" />
<glyph horiz-adv-x="1552" d="M1194 303l141 -387l-387 141l-174 -370l-172 368l-383 -139l139 383l-370 176l370 170l-139 387l383 -141l176 371l170 -371l387 141l-141 -387l369 -168zM1087 602l103 285l-285 -103l-129 273l-129 -273l-285 103l105 -285l-274 -129l274 -129l-105 -283l285 105 l127 -277l131 277l285 -105l-103 287l271 127z" />
</font>
</defs>
</svg>
