<?xml version="1.0" standalone="no"?>
<!DOCTYPE svg PUBLIC "-//W3C//DTD SVG 1.1//EN" "http://www.w3.org/Graphics/SVG/1.1/DTD/svg11.dtd" >
<svg xmlns="http://www.w3.org/2000/svg" xmlns:xlink="http://www.w3.org/1999/xlink" version="1.1">
<metadata></metadata>
<defs>
<font id="freightsans_promedium" horiz-adv-x="1024" >
<font-face units-per-em="2048" ascent="1638" descent="-410" />
<missing-glyph horiz-adv-x="466" />
<glyph unicode="&#xfb00;" horiz-adv-x="1314" d="M348 0h-168v784l-164 13l9 106l153 45l2 99q2 98 24.5 166.5t62.5 110.5t96.5 61.5t125.5 19.5q53 0 103.5 -14.5t85.5 -30.5q0 -2 -6 -26.5t-14.5 -53.5t-14.5 -52.5t-6 -21.5q-33 14 -74 27.5t-76 13.5q-72 0 -105.5 -46t-33.5 -152v-111h498l2 129q2 98 24.5 167 t62.5 110.5t96 61t126 19.5q53 0 103.5 -14t85.5 -31q0 -2 -6.5 -26.5t-14.5 -53t-14 -52t-6 -21.5q-33 14 -74 27.5t-76 13.5q-72 0 -105.5 -46t-33.5 -153v-131h297l-6 -152h-291v-786h-168v786h-500v-786z" />
<glyph unicode="&#xfb01;" horiz-adv-x="1099" d="M987 1266q0 -47 -26.5 -84t-83.5 -37t-84 37t-27 84t26.5 83.5t84.5 36.5q57 0 83.5 -36.5t26.5 -83.5zM678 1380q0 -2 -6 -26.5t-14.5 -53t-14.5 -52t-6 -21.5q-33 14 -74 27.5t-76 13.5q-72 0 -105.5 -46t-33.5 -153v-131h297l-6 -152h-291v-786h-168v784l-164 13 l9 106l153 45l2 119q2 98 24.5 167t62.5 110.5t96.5 61t125.5 19.5q53 0 103.5 -14.5t85.5 -30.5zM793 0v942l168 27v-969h-168z" />
<glyph unicode="&#xfb02;" horiz-adv-x="1105" d="M678 1380q0 -2 -6 -26.5t-14.5 -53t-14.5 -52t-6 -21.5q-33 14 -74 27.5t-76 13.5q-72 0 -105.5 -46t-33.5 -153v-131h297l-6 -152h-291v-786h-168v784l-164 13l9 106l153 45l2 119q2 98 24.5 167t62.5 110.5t96.5 61t125.5 19.5q53 0 103.5 -14.5t85.5 -30.5zM793 0 v1380l168 27v-1407h-168z" />
<glyph unicode="&#xfb03;" horiz-adv-x="1767" d="M1655 1266q0 -47 -26.5 -84t-84.5 -37q-57 0 -83.5 37t-26.5 84t26.5 83.5t83.5 36.5t84 -36.5t27 -83.5zM348 0h-168v784l-164 13l9 106l153 45l2 99q2 98 24.5 166.5t62.5 110.5t96.5 61.5t125.5 19.5q53 0 103.5 -14.5t85.5 -30.5q0 -2 -6 -26.5t-14.5 -53.5 t-14.5 -52.5t-6 -21.5q-33 14 -74 27.5t-76 13.5q-72 0 -105.5 -46t-33.5 -152v-111h498l2 129q2 98 24.5 167t62.5 110.5t96 61t126 19.5q53 0 103.5 -14t85.5 -31q0 -2 -6.5 -26.5t-14.5 -53t-14 -52t-6 -21.5q-33 14 -74 27.5t-76 13.5q-72 0 -105.5 -46t-33.5 -153v-131 h297l-6 -152h-291v-786h-168v786h-500v-786zM1460 0v942l168 27v-969h-168z" />
<glyph unicode="&#xfb04;" horiz-adv-x="1773" d="M348 0h-168v784l-164 13l9 106l153 45l2 99q2 98 24.5 166.5t62.5 110.5t96.5 61.5t125.5 19.5q53 0 103.5 -14.5t85.5 -30.5q0 -2 -6 -26.5t-14.5 -53.5t-14.5 -52.5t-6 -21.5q-33 14 -74 27.5t-76 13.5q-72 0 -105.5 -46t-33.5 -152v-111h498l2 129q2 98 24.5 167 t62.5 110.5t96 61t126 19.5q53 0 103.5 -14t85.5 -31q0 -2 -6.5 -26.5t-14.5 -53t-14 -52t-6 -21.5q-33 14 -74 27.5t-76 13.5q-72 0 -105.5 -46t-33.5 -153v-131h297l-6 -152h-291v-786h-168v786h-500v-786zM1460 0v1380l168 27v-1407h-168z" />
<glyph horiz-adv-x="0" />
<glyph unicode="&#xd;" horiz-adv-x="466" />
<glyph horiz-adv-x="0" />
<glyph horiz-adv-x="0" />
<glyph unicode=" "  horiz-adv-x="466" />
<glyph unicode="&#x09;" horiz-adv-x="466" />
<glyph unicode="&#xa0;" horiz-adv-x="466" />
<glyph unicode="!" horiz-adv-x="563" d="M182 1335h203l-51 -938h-98zM414 102q0 -53 -36 -93t-93 -40q-59 0 -97 40t-38 93t37.5 91t97.5 38q57 0 93 -38t36 -91z" />
<glyph unicode="&#x22;" horiz-adv-x="622" d="M297 815l235 506l154 -74l-319 -432h-70zM-10 815l235 506l154 -74l-320 -432h-69z" />
<glyph unicode="#" horiz-adv-x="1146" d="M78 745v119h284l121 451h123l-121 -451h328l121 451h123l-121 -451h182v-119h-215l-80 -299h254v-118h-284l-129 -480h-123l129 480h-328l-129 -480h-123l129 480h-182v118h213l82 299h-254zM453 745l-80 -299h327l82 299h-329z" />
<glyph unicode="$" horiz-adv-x="1034" d="M473 125h21q123 0 200.5 59.5t77.5 155.5q0 88 -58.5 134t-183.5 83zM569 1495h99l-27 -195q74 -12 142.5 -36.5t131.5 -65.5l-61 -151q-51 35 -111.5 59t-121.5 37l-56 -410q70 -18 137.5 -46t119.5 -72t85 -108.5t33 -154.5q0 -84 -33 -153.5t-92 -120.5t-142 -80 t-184 -29h-38q-2 -16 -5 -35q-2 -16 -4 -35.5t-6 -39.5q-8 -49 -14 -111h-98l30 234q-162 25 -291 108l58 158q59 -39 120.5 -67.5t133.5 -45.5l61 449q-66 18 -129 44.5t-112.5 68.5t-80 103.5t-30.5 149.5q0 80 30.5 146.5t87 115t134.5 74t174 25.5h35zM524 1153h-12 q-139 0 -198.5 -55.5t-59.5 -134.5q0 -80 54 -125t163 -78z" />
<glyph unicode="%" horiz-adv-x="1515" d="M709 987q0 -68 -23.5 -129t-68 -107t-106.5 -74t-142 -28q-78 0 -141.5 28t-107.5 74t-67.5 107.5t-23.5 128.5q0 70 23.5 132.5t67.5 108.5t107.5 73.5t141.5 27.5q80 0 142 -27.5t106.5 -73.5t68 -108.5t23.5 -132.5zM313 -31h-129l1020 1340h129zM1487 291 q0 -70 -23.5 -132.5t-67.5 -108.5t-107.5 -73.5t-141.5 -27.5q-80 0 -142.5 27.5t-106.5 73.5t-67.5 108.5t-23.5 132.5q0 68 23.5 129t67.5 107t106.5 74t142.5 28q78 0 141.5 -28t107.5 -74t67.5 -107t23.5 -129zM598 987q0 98 -60.5 167t-168.5 69q-109 0 -169.5 -69 t-60.5 -167q0 -47 15.5 -88t45 -73.5t72.5 -51t97 -18.5q53 0 96 18.5t72.5 51t45 73.5t15.5 88zM1376 291q0 45 -15 87t-45 74.5t-73 51t-96 18.5t-96 -18.5t-73 -51t-45 -74.5t-15 -87q0 -98 60 -167t169 -69t169 69t60 167z" />
<glyph unicode="&#x26;" horiz-adv-x="1273" d="M885 258q-92 -131 -203 -210t-246 -79q-92 0 -164.5 29t-123 78t-76 114.5t-25.5 139.5q0 63 24.5 118.5t66.5 100.5t98.5 76.5t121.5 50.5q-211 113 -211 301q0 61 26 120.5t74 106.5t118.5 76t162.5 29q86 0 151.5 -27t110 -70t67 -99t22.5 -118q0 -104 -70 -181 t-174 -120q57 -29 130 -92t136 -135l197 307h196l-313 -399l311 -375l-182 -31zM528 745q82 35 133.5 92.5t51.5 143.5q0 80 -53.5 132t-145.5 52t-143.5 -53t-51.5 -123q0 -88 52.5 -143.5t156.5 -100.5zM811 348q-86 98 -175 172t-177 105q-104 -49 -172 -119t-68 -162 t61.5 -159.5t178.5 -67.5q100 0 189 62.5t163 168.5z" />
<glyph unicode="'" horiz-adv-x="315" d="M-10 815l235 506l154 -74l-320 -432h-69z" />
<glyph unicode="(" horiz-adv-x="745" d="M711 -526q-92 45 -192.5 131t-185.5 210t-140.5 283.5t-55.5 350.5q0 190 55.5 349.5t139.5 283.5t185 211t192 132l73 -106q-84 -45 -172 -126t-159.5 -192.5t-118.5 -251t-47 -300.5q0 -162 47 -300.5t118.5 -250t159.5 -192.5t172 -126l-71 -106v0z" />
<glyph unicode=")" horiz-adv-x="745" d="M-37 -420q84 45 172 126t161 192.5t119 250t46 300.5t-46 301t-119 250.5t-161 192.5t-172 126l74 106q90 -45 190.5 -132t185.5 -211t140 -283.5t55 -349.5t-55 -350t-140 -284t-185.5 -210t-192.5 -131z" />
<glyph unicode="*" horiz-adv-x="702" d="M133 702l-113 144l289 125v10l-280 129l102 145l209 -237l8 2l39 307l166 -53l-160 -270l6 -7l295 60v-172l-295 61l-6 -6l154 -272l-166 -50l-35 310l-6 2z" />
<glyph unicode="+" horiz-adv-x="991" d="M571 408v-349h-143v349h-346l6 145h340v346h143v-346h336l6 -145h-342z" />
<glyph unicode="," horiz-adv-x="450" d="M84 129q6 49 40 85t99 36q31 0 62.5 -14.5t56.5 -39t40 -59.5t15 -76q0 -63 -25.5 -118.5t-68.5 -105.5t-97 -93t-112 -82l-71 72q209 152 208 260q0 39 -31.5 67.5t-115.5 67.5z" />
<glyph unicode="-" horiz-adv-x="634" d="M68 418v157h503v-157h-503z" />
<glyph unicode="." horiz-adv-x="450" d="M358 102q0 -53 -35.5 -93t-93.5 -40q-59 0 -96 40t-37 93t37 91t96 38q57 0 93 -38t36 -91z" />
<glyph unicode="/" horiz-adv-x="444" d="M16 -408h-122l497 1846h123z" />
<glyph unicode="0" horiz-adv-x="1181" d="M1085 483q0 -115 -36.5 -209t-102 -161.5t-157 -105.5t-199.5 -38q-109 0 -200 38t-156.5 105.5t-101.5 162t-36 208.5q0 115 36 209t101.5 162t156.5 105.5t200 37.5t200 -37.5t156.5 -105.5t102 -162t36.5 -209zM918 483q0 76 -24 141.5t-67 112.5t-103 74t-134 27 t-133.5 -27t-102.5 -74t-66.5 -112.5t-23.5 -141.5q0 -78 23.5 -142.5t66.5 -111.5t102.5 -73.5t133.5 -26.5t134 26.5t103 73.5t67 111.5t24 142.5z" />
<glyph unicode="1" horiz-adv-x="702" d="M330 786l-238 -75l-6 153l410 135v-999h-166v786z" />
<glyph unicode="2" horiz-adv-x="935" d="M94 0v145q106 80 205.5 151t175.5 135.5t121 125.5t45 121q0 72 -51 117t-144 45q-78 0 -148.5 -32t-141.5 -85l-60 143q72 57 163 94t206 37q78 0 143.5 -21.5t112.5 -60t72.5 -94t25.5 -123.5q0 -84 -35.5 -151.5t-99 -129t-148.5 -124t-186 -133.5h514v-160h-770z" />
<glyph unicode="3" horiz-adv-x="894" d="M553 348q76 -12 132 -44t94 -76t56.5 -96t18.5 -107q0 -96 -37 -172t-100.5 -128.5t-149.5 -80t-184 -27.5q-94 0 -188.5 19.5t-157.5 58.5l31 158q57 -39 139 -60.5t178 -21.5q129 0 211 60t82 181q0 106 -78 158.5t-201 56.5q-43 2 -89 -2t-99 -14v145q80 18 153.5 44 t132 61t93.5 82t35 106q0 92 -60.5 141.5t-171.5 49.5q-78 0 -150.5 -33t-144.5 -86l-59 143q72 57 165 95t208 38q94 0 167.5 -24.5t125 -67.5t78 -102.5t26.5 -128.5q0 -57 -20.5 -107.5t-56.5 -92.5t-82 -74t-97 -52z" />
<glyph unicode="4" horiz-adv-x="1071" d="M848 20v-397h-164v397h-631l-16 99l661 880h150v-819h194l7 -160h-201zM684 737l-412 -557h412v557z" />
<glyph unicode="5" horiz-adv-x="878" d="M258 440q31 4 62.5 7.5t82.5 3.5q100 0 182.5 -29t139.5 -80t88 -124t31 -161q0 -98 -36 -180t-97.5 -139t-143.5 -89t-174 -32q-102 0 -197.5 25.5t-158.5 62.5l31 166q59 -33 147 -63.5t180 -30.5q121 0 199 73.5t78 198.5q0 51 -18.5 97.5t-55.5 81t-91 56t-124 21.5 q-45 0 -80 -2t-63.5 -7t-54 -11t-54.5 -15l-45 41l84 658h639l6 -166h-508l-49 -363v0z" />
<glyph unicode="6" horiz-adv-x="1056" d="M88 502q0 133 43 260t131 234.5t220 188.5t309 122l51 -160q-223 -55 -371.5 -172t-200.5 -307l4 -2q63 59 139 93t187 34q76 0 144.5 -29t119.5 -81t81 -125t30 -163t-31 -167.5t-88 -135t-137 -90.5t-180 -33q-109 0 -193 42t-141.5 115t-87 170t-29.5 206zM266 449 q0 -66 19.5 -124.5t55.5 -102.5t88 -70.5t118 -26.5q119 0 188.5 72.5t69.5 189.5t-69.5 186.5t-180.5 69.5q-88 0 -163 -35t-116 -73q-10 -37 -10 -86z" />
<glyph unicode="7" horiz-adv-x="933" d="M35 803l6 166h850v-146l-578 -1200h-172l568 1180h-674z" />
<glyph unicode="8" horiz-adv-x="1038" d="M586 692q78 33 125 91.5t47 140.5q0 102 -67.5 158.5t-166.5 56.5q-119 0 -181 -57.5t-62 -137.5q0 -47 25.5 -84t67.5 -65.5t97.5 -53t114.5 -49.5zM463 578q-92 -31 -147.5 -93.5t-55.5 -150.5q0 -98 75 -156.5t191 -58.5q123 0 186.5 50t63.5 142q0 51 -26.5 90 t-70.5 70t-100.5 56.5t-115.5 50.5zM713 635q49 -25 91 -53.5t74.5 -65.5t51 -82t18.5 -102q0 -74 -27.5 -139.5t-82 -114.5t-135 -79t-185.5 -30q-109 0 -188.5 28t-133 76t-80 110.5t-26.5 131.5q0 61 23.5 114.5t59.5 95.5t79 70t84 38q-47 25 -88 52.5t-72 62t-48 78.5 t-17 100q0 78 28.5 144.5t82.5 114.5t133 75.5t177 27.5q102 0 177 -28.5t123.5 -76.5t72 -110.5t23.5 -130.5q0 -57 -19.5 -106.5t-50.5 -89t-68.5 -68.5t-76.5 -43z" />
<glyph unicode="9" horiz-adv-x="1056" d="M969 465q0 -133 -44 -260t-131 -234.5t-219.5 -188.5t-308.5 -122l-51 160q223 55 371.5 172t199.5 307l-4 2q-63 -59 -139 -93t-186 -34q-78 0 -145.5 28.5t-119 81t-81 125t-29.5 162.5t30.5 168t87 135.5t137.5 90t181 32.5q109 0 193 -42t141 -114.5t87 -169.5 t30 -206zM791 518q0 63 -19.5 122.5t-55.5 103.5t-88.5 71t-117.5 27q-119 0 -188.5 -73t-69.5 -189q0 -117 69.5 -186.5t180.5 -69.5q88 0 162.5 34.5t115.5 73.5q11 37 11 86z" />
<glyph unicode=":" horiz-adv-x="450" d="M358 733q0 -53 -35.5 -93t-93.5 -40q-59 0 -96 40t-37 93t37 91t96 38q57 0 93 -38t36 -91zM358 102q0 -53 -35.5 -93t-93.5 -40q-59 0 -96 40t-37 93t37 91t96 38q57 0 93 -38t36 -91z" />
<glyph unicode=";" horiz-adv-x="450" d="M358 733q0 -53 -35.5 -93t-93.5 -40q-59 0 -96 40t-37 93t37 91t96 38q57 0 93 -38t36 -91zM84 129q6 49 40 85t99 36q31 0 62.5 -14.5t56.5 -39t40 -59.5t15 -76q0 -63 -25.5 -118.5t-68.5 -105.5t-97 -93t-112 -82l-71 72q209 152 208 260q0 39 -31.5 67.5t-115.5 67.5 z" />
<glyph unicode="&#x3c;" horiz-adv-x="970" d="M891 35l-823 387v121l821 387v-162l-608 -276v-21l610 -274v-162z" />
<glyph unicode="=" horiz-adv-x="950" d="M80 594l-10 145h815l-11 -145h-794zM70 221l10 146h794l11 -146h-815z" />
<glyph unicode="&#x3e;" horiz-adv-x="970" d="M59 35v162l611 274v21l-609 276v162l822 -387v-121z" />
<glyph unicode="?" horiz-adv-x="729" d="M649 979q0 -68 -19.5 -113t-50 -75.5t-68.5 -49t-77 -32.5q-66 -25 -112 -50.5t-46 -80.5q0 -47 35 -90.5t78 -84.5l-80 -24q-29 16 -57.5 39.5t-51 53.5t-36.5 64.5t-14 73.5q0 51 17 87t47 61.5t66.5 43t73.5 32.5q33 12 62.5 24t53.5 28.5t37 38t13 52.5 q0 70 -67.5 121t-204.5 51q-41 0 -78 -6t-66 -10v157q29 8 66 13.5t90 5.5q86 0 156.5 -27t123 -72t81 -105t28.5 -126zM440 102q0 -53 -35.5 -93t-95.5 -40q-57 0 -95 40t-38 93t38 91t95 38q59 0 95 -38t36 -91z" />
<glyph unicode="@" horiz-adv-x="1695" d="M1120 422q-20 -104 9.5 -161.5t115.5 -57.5q59 0 112.5 27.5t93.5 81t63.5 132t23.5 183.5q0 137 -56.5 247.5t-148.5 188.5t-212 121t-247 43q-147 0 -277 -59.5t-225.5 -159t-150.5 -231.5t-55 -279q0 -139 48 -262t134 -214.5t205 -144.5t262 -53q66 0 128.5 11 t123.5 30l23 -76q-72 -23 -137.5 -35t-141.5 -12q-160 0 -295 58.5t-233.5 159.5t-152.5 239.5t-54 296.5q0 166 61.5 313t169 258t254 175.5t313.5 64.5q150 0 287 -47.5t240.5 -136.5t165 -215t61.5 -281q0 -129 -33.5 -229.5t-90 -169t-130.5 -103.5t-151 -35 q-84 0 -145.5 39t-90.5 111q-53 -61 -115.5 -91t-126.5 -30q-66 0 -120 25.5t-93.5 71.5t-61 106.5t-21.5 132.5q0 94 33.5 179t92 148.5t137.5 100.5t171 37q49 0 101 -14.5t93 -33.5l142 48zM1047 725q-31 33 -78 54.5t-103 21.5q-61 0 -112.5 -29t-88 -76t-56 -105.5 t-19.5 -119.5q0 -106 57.5 -168.5t140.5 -62.5q53 0 94.5 20.5t82.5 54.5z" />
<glyph unicode="A" horiz-adv-x="1175" d="M1165 0h-178l-121 336h-555l-121 -336h-180l482 1280h198zM590 1100l-221 -606h440z" />
<glyph unicode="B" horiz-adv-x="1159" d="M813 659q129 -33 194.5 -110.5t65.5 -186.5q0 -82 -27.5 -148.5t-86 -114.5t-148.5 -73.5t-213 -25.5h-436v1280h424q117 0 200.5 -24.5t138 -69.5t81 -107.5t26.5 -138.5q0 -199 -219 -281zM858 926q0 92 -65.5 143t-192.5 51h-264v-401h237q139 0 212 56.5t73 150.5z M899 360q0 111 -88 156t-223 45h-252v-401h278q285 -1 285 200z" />
<glyph unicode="C" horiz-adv-x="1230" d="M1085 1047q-86 55 -167.5 81.5t-182.5 26.5q-104 0 -190 -35t-146.5 -101.5t-94.5 -160.5t-34 -213t34 -215t95.5 -163.5t148.5 -104.5t191 -37t199.5 36t163.5 89l28 -174q-78 -49 -182 -78t-213 -29q-141 0 -259 47t-203 134.5t-132 210t-47 276.5t48 277.5t133 211.5 t203 136.5t257 48.5q111 0 219.5 -29t186.5 -78z" />
<glyph unicode="D" horiz-adv-x="1318" d="M1225 649q0 -147 -45 -268t-133.5 -205t-215 -130t-292.5 -46h-377v1280h385q160 0 284.5 -45t213 -128t134.5 -199t46 -259zM1051 637q0 238 -134.5 359.5t-377.5 121.5h-203v-956h211q115 0 208 29.5t158.5 90t101.5 149.5t36 206z" />
<glyph unicode="E" horiz-adv-x="1071" d="M162 0v1280h811v-162h-637v-395h530v-162h-530v-399h637v-162h-811z" />
<glyph unicode="F" horiz-adv-x="1013" d="M162 1280h790v-164h-616v-416h510v-161h-510v-539h-174v1280z" />
<glyph unicode="G" horiz-adv-x="1310" d="M1186 92q-100 -61 -223 -92t-228 -31q-141 0 -259 47t-203 134.5t-132 210t-47 276.5t48 277.5t133 211.5t203 136.5t257 48.5q113 0 229.5 -30t196.5 -81l-57 -160q-78 49 -174 82t-195 33q-104 0 -190 -35t-146.5 -101.5t-94.5 -160.5t-34 -213t34 -215t95.5 -163.5 t148.5 -104.5t191 -37q80 0 151 18.5t128 46.5v304h-359v161h527v-563v0z" />
<glyph unicode="H" horiz-adv-x="1372" d="M1038 0v565h-702v-565h-174v1280h174v-557h702v557h172v-1280h-172z" />
<glyph unicode="I" horiz-adv-x="505" d="M166 0v1280h172v-1280h-172z" />
<glyph unicode="J" horiz-adv-x="856" d="M696 389q0 -94 -22.5 -171t-69.5 -132t-119.5 -86t-173.5 -31q-84 0 -157.5 23.5t-124.5 56.5l26 168q59 -41 121 -65.5t133 -24.5q111 0 163 67.5t52 202.5v883h172v-891v0z" />
<glyph unicode="K" horiz-adv-x="1122" d="M338 670l543 610h219l-592 -633l598 -647h-223l-545 608h-2v-608h-174v1280h174v-610h2z" />
<glyph unicode="L" horiz-adv-x="1011" d="M162 0v1280h174v-1116h618v-164h-792z" />
<glyph unicode="M" horiz-adv-x="1581" d="M1266 1065l-389 -1047h-175l-391 1049l-14 -1067h-170l43 1280h231l394 -1053l391 1053h227l41 -1280h-176z" />
<glyph unicode="N" horiz-adv-x="1368" d="M1036 1280h170v-1292h-188l-686 1044v-1032h-170v1280h192l682 -1032v1032z" />
<glyph unicode="O" horiz-adv-x="1474" d="M1380 645q0 -143 -47 -267t-133 -214t-203.5 -142.5t-259.5 -52.5q-141 0 -259 47t-203 134.5t-133 211t-48 275.5q0 143 47 266t133 214t204 142.5t259 51.5t259 -47t203 -134.5t133 -210t48 -274.5zM1206 637q0 119 -34.5 214t-97 162.5t-149.5 104.5t-192 37 q-102 0 -187 -37t-146.5 -103.5t-95.5 -160.5t-34 -209q0 -119 34 -215t96.5 -163.5t149.5 -104.5t191 -37q102 0 187.5 37t147 104.5t96 161.5t34.5 209z" />
<glyph unicode="P" horiz-adv-x="1099" d="M1024 866q0 -217 -140.5 -327.5t-379.5 -112.5l-168 -2v-424h-174v1280h354q131 0 227.5 -30.5t159 -86t92 -131.5t29.5 -166zM848 858q0 260 -340 260h-172v-530l186 4q162 4 244 72.5t82 193.5z" />
<glyph unicode="Q" horiz-adv-x="1474" d="M1419 -166l-76 -151l-550 290q-12 -2 -26.5 -3t-29.5 -1q-141 0 -259 47t-203 134.5t-133 211t-48 275.5q0 143 47 266t133 214t204 142.5t259 51.5t259 -47t203 -134.5t133 -210t48 -274.5q0 -104 -25.5 -197.5t-73.5 -172t-115.5 -140t-149.5 -100.5zM1206 637 q0 119 -34.5 214t-97 162.5t-149.5 104.5t-192 37q-102 0 -187 -37t-146.5 -103.5t-95.5 -160.5t-34 -209q0 -119 34 -215t96.5 -164.5t149.5 -105.5t191 -37q102 0 187.5 37t147 104.5t96 162.5t34.5 210z" />
<glyph unicode="R" horiz-adv-x="1116" d="M336 0h-174v1280h383q233 0 352 -101.5t119 -273.5q0 -145 -78 -235t-211 -133l346 -537h-207l-311 508l-219 -14v-494zM547 653q63 2 116.5 18.5t93.5 47.5t62.5 75t22.5 103q0 115 -85 169t-233 54h-188v-473z" />
<glyph unicode="S" horiz-adv-x="1042" d="M506 125q123 0 200.5 59.5t77.5 155.5q0 98 -74.5 146.5t-232.5 88.5q-68 18 -136.5 44t-123.5 69t-89 106.5t-34 155.5q0 80 31 146.5t88 115t135 74t174 25.5q221 0 404 -113l-62 -151q-74 49 -164 77.5t-176 28.5q-139 0 -199.5 -55.5t-60.5 -134.5q0 -96 80 -142.5 t231 -87.5q70 -18 137.5 -46t121 -72t86 -108.5t32.5 -154.5q0 -84 -32.5 -153.5t-92 -120.5t-142.5 -80t-183 -29q-113 0 -224.5 31t-203.5 90l57 158q82 -53 172 -88t203 -35z" />
<glyph unicode="T" horiz-adv-x="1146" d="M659 1116v-1116h-172v1116h-448v164h1069v-164h-449z" />
<glyph unicode="U" horiz-adv-x="1323" d="M1163 494q0 -244 -126 -384.5t-378 -140.5q-121 0 -214 36t-156.5 101.5t-96 159.5t-32.5 209v805h172v-778q0 -174 83 -271.5t255 -97.5q150 0 235.5 88t85.5 268v791h172v-786v0z" />
<glyph unicode="V" horiz-adv-x="1153" d="M674 0h-201l-473 1280h178l397 -1094l398 1094h180z" />
<glyph unicode="W" horiz-adv-x="1839" d="M598 0h-170l-365 1280h183l276 -1042l301 1042h201l309 -1042l273 1042h170l-363 -1280h-174l-317 1065z" />
<glyph unicode="X" horiz-adv-x="1175" d="M229 0h-204l458 643l-444 637h213l334 -502l344 502h207l-449 -627l463 -653h-217l-350 526z" />
<glyph unicode="Y" horiz-adv-x="1105" d="M641 508v-508h-174v510l-447 770h197l340 -598l336 598h192z" />
<glyph unicode="Z" horiz-adv-x="1067" d="M47 0v131l725 987h-713v162h930v-135l-723 -983h721v-162h-940z" />
<glyph unicode="[" horiz-adv-x="749" d="M170 -455v1837h561v-133h-416v-1571h416v-133h-561z" />
<glyph unicode="\" horiz-adv-x="444" d="M53 1438l498 -1846h-123l-498 1846h123z" />
<glyph unicode="]" horiz-adv-x="749" d="M20 -322h416v1571h-416v133h562v-1837h-562v133z" />
<glyph unicode="^" horiz-adv-x="806" d="M612 1065l-200 260h-2l-203 -260h-123l235 383h181l235 -383h-123z" />
<glyph unicode="_" horiz-adv-x="944" d="M-25 -121v121h994v-121h-994z" />
<glyph unicode="`" horiz-adv-x="806" d="M444 1065l-299 371h205l217 -371h-123z" />
<glyph unicode="a" horiz-adv-x="923" d="M627 467q-104 -14 -177 -32.5t-118 -43t-65.5 -57.5t-20.5 -76q0 -63 44 -104t122 -41q66 0 120 28.5t95 71.5v254zM625 100q-53 -63 -118 -97t-140 -34q-66 0 -121.5 20.5t-95 56.5t-61 85t-21.5 107q0 63 25.5 120.5t89 102.5t172 74.5t272.5 37.5v27q0 115 -48.5 164 t-162.5 49q-72 0 -155 -29.5t-148 -74.5l-33 151q61 43 156.5 76t195.5 33q193 0 280 -86t83 -279v-393q0 -29 3 -47.5t12 -28.5t27.5 -13t49.5 -3l-10 -142q-115 -10 -170.5 26t-73.5 97h-8z" />
<glyph unicode="b" horiz-adv-x="1071" d="M993 473q0 -106 -34.5 -198.5t-98 -160t-151.5 -106.5t-193 -39q-41 0 -99.5 8.5t-103.5 22.5l-168 -31v1411l168 27v-555q51 47 115 82t147 35q98 0 176 -38t132.5 -104.5t82 -157t27.5 -196.5zM819 469q0 156 -73.5 250t-204.5 94q-66 0 -123.5 -24.5t-104.5 -65.5 v-535q82 -68 209 -67q72 0 127.5 27.5t93 74.5t57 110.5t19.5 135.5z" />
<glyph unicode="c" horiz-adv-x="933" d="M854 47q-127 -78 -309 -78q-111 0 -197 36t-144.5 102.5t-89 158.5t-30.5 203q0 113 35 205t98.5 157.5t150.5 101.5t189 36q92 0 165 -19.5t138 -60.5l-43 -154q-115 78 -260 78t-222 -91t-77 -251q0 -164 81 -255t214 -91q74 0 143.5 19.5t126.5 58.5l31 -156v0z" />
<glyph unicode="d" horiz-adv-x="1077" d="M764 1380l168 27v-1407h-168v86q-51 -47 -114.5 -82t-147.5 -35q-98 0 -176 38t-132.5 104.5t-82 156.5t-27.5 197q0 106 35 198.5t98.5 160t151.5 106.5t192 39q51 0 104.5 -8.5t98.5 -22.5v442zM764 750q-84 68 -209 67q-72 0 -127 -27.5t-93 -74.5t-57.5 -110.5 t-19.5 -135.5q0 -156 74 -250t205 -94q66 0 123 24.5t104 65.5v535z" />
<glyph unicode="e" horiz-adv-x="983" d="M254 440q2 -70 25.5 -127t63.5 -99t96.5 -65.5t123.5 -23.5q74 0 148.5 19.5t132.5 58.5l30 -156q-63 -39 -144 -58.5t-171 -19.5q-106 0 -193 36t-149.5 101.5t-97.5 154.5t-35 198q0 113 36 207t97.5 161.5t146.5 104.5t183 37q172 0 265 -99.5t93 -267.5q0 -39 -5 -79 t-15 -70h-28t-72 -1t-100 -1h-116q-139 -2 -315 -2v-9zM743 575v15q0 104 -51 167.5t-162 63.5q-59 0 -107 -21.5t-82 -57t-53.5 -81t-25.5 -90.5z" />
<glyph unicode="f" horiz-adv-x="647" d="M678 1380q0 -2 -6 -26.5t-14.5 -53t-14.5 -52t-6 -21.5q-33 14 -74 27.5t-76 13.5q-72 0 -105.5 -46t-33.5 -153v-131h297l-6 -152h-291v-786h-168v784l-164 13l9 106l153 45l2 119q2 98 24.5 167t62.5 110.5t96.5 61t125.5 19.5q53 0 103.5 -14.5t85.5 -30.5z" />
<glyph unicode="g" horiz-adv-x="974" d="M260 612q0 -94 58.5 -151.5t160.5 -57.5q92 0 146.5 60.5t54.5 159.5q0 92 -53.5 151.5t-161.5 59.5q-92 0 -148.5 -62t-56.5 -160zM342 -45q-72 -20 -117 -59t-45 -93q0 -76 81 -125t216 -49q66 0 123 13.5t100 39t68 60.5t25 78q0 78 -70 102.5t-211 24.5q-45 0 -92 2 t-78 6zM215 -14q-59 27 -91 67.5t-32 89.5q0 59 42 108.5t114 74.5q-74 43 -115 116.5t-41 171.5q0 70 25.5 133.5t74 112.5t119 79t162.5 30q76 0 136.5 -16.5t105.5 -37.5l241 23l7 -166l-181 33q29 -27 46.5 -83t17.5 -110q0 -72 -27.5 -134t-78 -108t-119 -74 t-150.5 -28q-35 0 -62.5 5.5t-68.5 17.5q-29 -10 -60.5 -37t-31.5 -61q0 -20 8 -37t31.5 -28t65.5 -17.5t108 -6.5h86q211 0 310 -63.5t99 -187.5q0 -78 -38.5 -143.5t-107.5 -114t-161 -76t-198 -27.5q-92 0 -172 19.5t-138.5 55.5t-92.5 86t-34 114q0 80 51.5 140.5 t149.5 78.5z" />
<glyph unicode="h" horiz-adv-x="1058" d="M754 0v590q0 123 -46 170t-139 47q-82 0 -148.5 -32t-107.5 -70v-705h-168v1380l168 27v-576q66 66 146 102t170 36q135 0 214 -85t79 -239v-645h-168z" />
<glyph unicode="i" horiz-adv-x="458" d="M340 1266q0 -47 -26.5 -84t-84.5 -37q-57 0 -83.5 37t-26.5 84t26.5 83.5t83.5 36.5t84 -36.5t27 -83.5zM145 0v942l168 27v-969h-168z" />
<glyph unicode="j" horiz-adv-x="452" d="M340 1266q0 -47 -26.5 -84t-84.5 -37q-57 0 -83.5 37t-26.5 84t26.5 83.5t83.5 36.5t84 -36.5t27 -83.5zM-18 -391q43 20 74.5 48t51 66.5t28.5 94t9 131.5v993l168 27v-1008q0 -100 -12 -174t-37.5 -129t-67.5 -95t-102 -73z" />
<glyph unicode="k" horiz-adv-x="933" d="M313 463v-463h-168v1380l168 27v-899h4l388 430h213l-431 -444l433 -494h-215l-388 463h-4z" />
<glyph unicode="l" horiz-adv-x="458" d="M145 0v1380l168 27v-1407h-168z" />
<glyph unicode="m" horiz-adv-x="1622" d="M1317 0v586q0 123 -44 173t-136 50q-78 0 -137.5 -34t-100.5 -73v-57v-645h-168v586q0 123 -44 173t-136 50q-78 0 -137.5 -28.5t-100.5 -67.5v-713h-168v942l168 27v-129q135 129 301 129q82 0 146.5 -39t99.5 -117q76 76 159 116t181 40q129 0 207 -86t78 -242v-641 h-168z" />
<glyph unicode="n" horiz-adv-x="1058" d="M754 0v590q0 123 -47.5 170t-147.5 47q-74 0 -139.5 -32t-106.5 -70v-705h-168v942l168 27v-142q66 66 145 104t160 38q143 0 223.5 -85t80.5 -239v-645h-168z" />
<glyph unicode="o" horiz-adv-x="1081" d="M997 469q0 -113 -34.5 -205t-96 -157.5t-146.5 -101.5t-183 -36q-100 0 -183.5 36t-143.5 100.5t-93 156.5t-33 207q0 113 34 205t95 158.5t146 102.5t188 36q100 0 183 -36t142.5 -101.5t92 -158.5t32.5 -206zM831 467q0 76 -19 140.5t-57 111.5t-92.5 73.5t-123.5 26.5 q-70 0 -124.5 -25.5t-91 -71.5t-55 -110.5t-18.5 -140.5t19.5 -139.5t57.5 -110.5t92 -73.5t124 -26.5t124 25.5t91 71.5t55 109.5t18 139.5z" />
<glyph unicode="p" horiz-adv-x="1077" d="M313 852q51 47 115 82t147 35q98 0 176 -38t132.5 -104.5t82 -156.5t27.5 -197q0 -106 -34.5 -198.5t-98 -160t-151.5 -106.5t-193 -39q-41 0 -99.5 6.5t-103.5 18.5v-471h-168v1419l168 27v-117zM313 188q82 -68 209 -67q72 0 127.5 27.5t93 74.5t57 110.5t19.5 135.5 q0 156 -73.5 250t-204.5 94q-66 0 -123.5 -24.5t-104.5 -65.5v-535z" />
<glyph unicode="q" horiz-adv-x="1077" d="M764 -477v563q-51 -47 -114.5 -82t-147.5 -35q-98 0 -176 38t-132.5 104.5t-82 156.5t-27.5 197q0 106 35 198.5t98.5 160t151.5 106.5t192 39q66 0 130.5 -11.5t109.5 -23.5l131 35v-1446h-168zM764 750q-41 35 -94.5 53t-114.5 18q-72 0 -127 -27.5t-93 -75.5 t-57.5 -112.5t-19.5 -136.5q0 -156 74 -252t205 -96q66 0 123 26.5t104 67.5v535z" />
<glyph unicode="r" horiz-adv-x="780" d="M313 0h-168v942l168 27v-166q49 78 110.5 122t151.5 44q100 0 177 -47l-43 -158q-39 23 -77 33t-73 10q-68 0 -130 -48t-116 -147v-612z" />
<glyph unicode="s" horiz-adv-x="821" d="M745 266q0 -68 -26.5 -122t-73.5 -94t-112.5 -61.5t-141.5 -21.5q-86 0 -174 23.5t-154 64.5l43 154q59 -41 138.5 -64.5t150.5 -23.5q80 0 133.5 34.5t53.5 98.5q0 35 -19.5 59.5t-50.5 42t-71 29.5t-81 25q-49 14 -99 34.5t-90 52t-64.5 76.5t-24.5 111t25.5 118 t71.5 89t106.5 57.5t132.5 20.5q82 0 159.5 -18.5t143.5 -51.5l-43 -154q-59 33 -134 51.5t-134 18.5q-76 0 -121 -29.5t-45 -87.5q0 -35 17.5 -58.5t47 -39.5t69.5 -28.5t83 -24.5q51 -14 102 -34.5t91 -52.5t65.5 -79t25.5 -115z" />
<glyph unicode="t" horiz-adv-x="694" d="M639 10q-106 -41 -211 -41q-137 0 -206.5 70t-65.5 223l14 524l-156 11l6 106l156 47l4 203h162l-6 -215h293l-6 -152h-293l-15 -530q-4 -133 123 -133q43 0 86 9t84 26l17 -74q8 -33 14 -74z" />
<glyph unicode="u" horiz-adv-x="1058" d="M305 938v-590q0 -123 46 -170t138 -47q82 0 149 32t107 70v705h168v-942l-168 -27v137q-66 -66 -145.5 -101.5t-169.5 -35.5q-135 0 -214 85t-79 239v645h168z" />
<glyph unicode="v" horiz-adv-x="903" d="M530 -2h-155l-371 940h180l275 -729l262 729h178z" />
<glyph unicode="w" horiz-adv-x="1400" d="M317 -4l-288 942h180l199 -696l217 692h153l240 -694l172 698h186l-282 -942h-154l-240 700l-229 -700h-154z" />
<glyph unicode="x" horiz-adv-x="847" d="M657 0l-233 367l-229 -367h-193l322 479l-304 459h189l215 -338l205 338h192l-297 -455l322 -483h-189z" />
<glyph unicode="y" horiz-adv-x="903" d="M524 -10l-63 -168q-35 -90 -70 -149.5t-75 -94.5t-85 -50t-100 -15q-53 0 -102 13t-97 36l50 155q37 -18 75.5 -31.5t73.5 -13.5q27 0 49.5 8.5t44 32t42 62.5t44.5 100l58 145l-365 918h180l273 -729l264 729h178z" />
<glyph unicode="z" horiz-adv-x="839" d="M43 0v143l545 641h-527v154h730v-139l-545 -645h545v-154h-748z" />
<glyph unicode="{" horiz-adv-x="694" d="M659 -469q-221 10 -338.5 71.5t-117.5 202.5q0 61 15 116.5t32.5 106t33 98.5t15.5 97q0 88 -59.5 123t-190.5 45l-6 82l6 82q131 10 190.5 44t59.5 124q0 49 -15.5 96t-33 98.5t-32.5 106.5t-15 117q0 141 117.5 203.5t338.5 72.5v-117q-166 -12 -235.5 -47.5 t-69.5 -101.5q0 -47 15.5 -93t34 -94.5t34 -100.5t15.5 -111q0 -117 -71 -188.5t-206 -80.5v-20q135 -10 206 -82t71 -188q0 -59 -15.5 -110.5t-34 -98.5t-34 -92.5t-15.5 -90.5q0 -70 70 -107.5t235 -47.5v-115v0z" />
<glyph unicode="|" horiz-adv-x="464" d="M164 1438h137v-1846h-137v1846z" />
<glyph unicode="}" horiz-adv-x="694" d="M645 391q-131 -10 -191.5 -45t-60.5 -123q0 -49 15.5 -97t34 -98.5t34 -105.5t15.5 -117q0 -141 -117 -202.5t-340 -71.5v115q166 10 235.5 48t69.5 105q0 45 -15.5 90t-33 93.5t-32.5 99.5t-15 111q0 117 68.5 188.5t205.5 81.5v20q-137 8 -205.5 80t-68.5 189 q0 59 15 111t32.5 100.5t33 94.5t15.5 93q0 66 -69.5 101.5t-235.5 47.5v117q223 -10 340 -72.5t117 -203.5q0 -61 -15.5 -116.5t-34 -107t-34 -98.5t-15.5 -96q0 -90 60.5 -124t191.5 -44l6 -82z" />
<glyph unicode="~" horiz-adv-x="806" d="M760 623q-14 -131 -59.5 -194.5t-139.5 -63.5q-47 0 -91 22.5t-84 48t-75 48t-63 22.5q-29 0 -48.5 -27.5t-29.5 -99.5h-113q14 133 59.5 196.5t139.5 63.5q47 0 91 -22.5t84 -49t75 -49t63 -22.5q29 0 47.5 27.5t28.5 99.5h115v0z" />
<glyph unicode="&#xa1;" horiz-adv-x="563" d="M150 1176q0 53 35.5 93t95.5 40q57 0 95 -40t38 -93t-38 -91t-95 -38q-59 0 -95 38t-36 91zM383 -57h-205l53 938h99z" />
<glyph unicode="&#xa2;" horiz-adv-x="911" d="M670 958q53 -8 100 -25.5t90 -43.5l-43 -154q-76 51 -168 68l-90 -678q72 0 140.5 19.5t123.5 58.5l31 -156q-127 -78 -305 -78h-12q-2 -16 -5 -35q-2 -16 -4 -35.5t-6 -39.5q-8 -49 -14 -111h-100l30 232q-164 35 -259 165.5t-95 323.5q0 113 35 205t97.5 157.5 t148.5 101.5t188 36h18l25 184h100zM551 813q-143 -2 -218 -92t-75 -250q0 -133 53.5 -219t147.5 -115z" />
<glyph unicode="&#xa3;" horiz-adv-x="1044" d="M254 672q-6 111 -6 200q0 113 31.5 195t86 136t129 81t160.5 27q90 0 165 -23.5t138 -64.5l-40 -150q-53 35 -120 60.5t-145 25.5q-123 0 -180 -76.5t-57 -193.5q0 -45 2 -99.5t6 -117.5h401l-6 -111h-391q2 -47 3 -92t1 -92q0 -80 -14 -137q70 -57 147.5 -87t134.5 -30 q70 0 126.5 46t78.5 173l129 -29q-6 -84 -34.5 -148.5t-71.5 -107.5t-98.5 -65.5t-114.5 -22.5q-92 0 -182.5 46t-163.5 112q-41 -55 -108.5 -95t-176.5 -67q-12 41 -21 72q-8 27 -13 47t-5 16q66 18 109 40t67.5 52.5t33.5 71.5t9 96q0 96 -6 201h-190l-7 111h193v0z" />
<glyph unicode="&#xa4;" horiz-adv-x="919" d="M731 905q20 -35 32.5 -82t12.5 -88q0 -94 -45 -172l131 -131l-98 -98l-129 129q-76 -47 -174 -47q-53 0 -95 10t-79 35l-119 -119l-96 96l118 119q-47 76 -47 178q0 98 47 174l-124 123l98 98l123 -122q76 47 174 47q53 0 96 -11.5t82 -37.5l117 116l96 -96zM651 735 q0 80 -50 138.5t-140 58.5q-92 0 -142.5 -58.5t-50.5 -138.5q0 -39 13.5 -74.5t38 -62.5t60.5 -43t81 -16t79.5 16t59.5 43t38 62.5t13 74.5z" />
<glyph unicode="&#xa5;" horiz-adv-x="1112" d="M117 539l-6 112h315l-401 629h194l338 -563l336 563h188l-397 -629h313l-6 -112h-356v-160h356l6 -111h-360v-268h-166v268h-360l6 111h356v160h-356z" />
<glyph unicode="&#xa6;" horiz-adv-x="464" d="M164 1315h137v-686h-137v686zM164 401h137v-686h-137v686z" />
<glyph unicode="&#xa7;" horiz-adv-x="964" d="M932 604q0 -92 -53.5 -156.5t-143.5 -97.5q43 -33 69.5 -77t26.5 -105q0 -68 -26.5 -123t-73.5 -95t-112.5 -62.5t-141.5 -22.5q-86 0 -174 23.5t-153 64.5l43 153q59 -41 138 -64.5t150 -23.5q80 0 133.5 35t53.5 99q0 33 -22.5 57t-59.5 42.5t-86 34t-101 29.5 q-61 18 -123.5 39t-111.5 51.5t-80 75.5t-31 111q0 45 17.5 84t46 70.5t67.5 56t80 39.5q-49 33 -79.5 77t-30.5 109q0 66 25.5 119t71.5 91t106.5 58.5t131.5 20.5q82 0 160 -18.5t144 -51.5l-43 -153q-59 33 -134 51t-135 18q-76 0 -121 -29.5t-45 -86.5q0 -33 21.5 -55.5 t58.5 -39t85 -31t102 -28.5q61 -18 123.5 -40t112.5 -54.5t82 -79.5t32 -115zM774 567q0 49 -42 81t-105.5 55.5t-139 45t-143.5 52.5q-49 -31 -92 -74t-43 -96q0 -47 44 -78t110.5 -54.5t145.5 -46t146 -55.5q47 29 83 70t36 100z" />
<glyph unicode="&#xa8;" horiz-adv-x="806" d="M741 1202q0 -53 -33.5 -91t-89.5 -38q-55 0 -88.5 38t-33.5 91q0 51 33.5 89t88.5 38t89 -38t34 -89zM324 1202q0 -53 -35 -91t-90 -38q-53 0 -88 38t-35 91q0 51 34.5 89t88.5 38q55 0 90 -38t35 -89z" />
<glyph unicode="&#xa9;" horiz-adv-x="1490" d="M745 -33q-139 0 -261 53.5t-213 143.5t-143 212t-52 261t52 261t143 213t213 144.5t261 53.5t261 -53.5t213.5 -144.5t143.5 -213t52 -261t-52 -261t-143.5 -212t-213.5 -143.5t-261 -53.5zM1354 637q0 125 -48.5 237.5t-130 195.5t-193.5 132t-237 49q-127 0 -237.5 -49 t-192.5 -132t-130 -195.5t-48 -237.5q0 -127 48 -237.5t130 -194.5t192.5 -132t237.5 -48q125 0 237 48t193.5 132t130 194.5t48.5 237.5zM971 848q-90 57 -193 57q-113 0 -179.5 -70.5t-66.5 -193.5q0 -125 68 -198.5t180 -73.5q57 0 109.5 19.5t91.5 47.5l25 -121 q-45 -29 -106.5 -43t-123.5 -14q-82 0 -150.5 25.5t-117.5 75t-75.5 119t-26.5 157.5q0 86 27.5 156.5t76.5 121t117.5 77t150.5 26.5q61 0 124 -14.5t110 -43.5z" />
<glyph unicode="&#xaa;" horiz-adv-x="720" d="M549 508q-39 45 -66 110h-2q-41 -43 -94 -75.5t-125 -32.5q-98 0 -157.5 60.5t-59.5 152.5q0 55 22.5 102t72.5 84t132 59.5t201 26.5v47q0 70 -38 105t-105 35q-59 0 -116.5 -23.5t-113.5 -66.5l-49 114q63 47 135 76t158 29q53 0 100.5 -12.5t83 -43t57 -81 t21.5 -125.5v-295q0 -72 28 -124t56 -89zM473 893q-86 -4 -143.5 -18.5t-91 -36t-47 -47t-13.5 -50.5q0 -59 37 -84.5t84 -25.5q53 0 99 19.5t75 47.5v195z" />
<glyph unicode="&#xab;" horiz-adv-x="1187" d="M1120 51l-536 332v192l536 332l15 -123l-398 -303v-4l398 -303zM551 74l-510 313v184l510 314l16 -115l-379 -289v-4l379 -289z" />
<glyph unicode="&#xac;" horiz-adv-x="991" d="M909 240h-143v290h-684l6 146h821v-436z" />
<glyph unicode="&#xad;" horiz-adv-x="634" d="M68 418v157h503v-157h-503z" />
<glyph unicode="&#xae;" horiz-adv-x="1490" d="M745 -33q-139 0 -261 53.5t-213 143.5t-143 212t-52 261t52 261t143 213t213 144.5t261 53.5t261 -53.5t213.5 -144.5t143.5 -213t52 -261t-52 -261t-143.5 -212t-213.5 -143.5t-261 -53.5zM1354 637q0 125 -48.5 237.5t-130 195.5t-193.5 132t-237 49q-127 0 -237.5 -49 t-192.5 -132t-130 -195.5t-48 -237.5q0 -127 48 -237.5t130 -194.5t192.5 -132t237.5 -48q125 0 237 48t193.5 132t130 194.5t48.5 237.5zM614 283h-127v725h263q135 0 206.5 -59.5t71.5 -168.5q0 -78 -37 -131t-102 -80l178 -286h-145l-158 258l-150 -9v-249zM735 641 q90 2 128 37t38 94q0 66 -41 94.5t-125 28.5h-123v-256z" />
<glyph unicode="&#xaf;" horiz-adv-x="806" d="M127 1102l8 108h545l10 -108h-563z" />
<glyph unicode="&#xb0;" horiz-adv-x="763" d="M717 975q0 -68 -23.5 -128.5t-66.5 -106.5t-105.5 -72.5t-140.5 -26.5t-139.5 26.5t-104.5 72.5t-66.5 106.5t-23.5 128.5t23.5 129t66.5 107t104.5 73t139.5 27t140.5 -27t105.5 -73t66.5 -107t23.5 -129zM608 975q0 98 -59.5 165.5t-167.5 67.5q-53 0 -95 -18.5 t-71 -50t-44 -73.5t-15 -91q0 -47 15 -88t44 -73t71 -50.5t95 -18.5t95 18.5t72 50.5t45 73t15 88z" />
<glyph unicode="&#xb1;" horiz-adv-x="991" d="M571 469v-287h-143v287h-346l6 145h340v287h143v-287h336l6 -145h-342zM82 0l6 145h819l6 -145h-831z" />
<glyph unicode="&#xb2;" horiz-adv-x="675" d="M59 559l-4 111q94 82 167 143t123 111.5t75.5 94.5t25.5 91q0 57 -39.5 92t-105.5 35q-53 0 -104.5 -22.5t-92.5 -57.5l-45 103q43 35 112 61.5t146 26.5q123 0 194 -63.5t71 -166.5q0 -53 -23.5 -101t-71 -99.5t-117 -112t-163.5 -135.5q-2 0 14.5 0h44h63.5h72h201 l4 -111h-547z" />
<glyph unicode="&#xb3;" horiz-adv-x="675" d="M367 967q127 0 186 -56.5t59 -130.5q0 -55 -24.5 -99t-67.5 -76t-100.5 -48t-122.5 -16q-66 0 -131.5 15t-110.5 38l23 106q41 -18 99.5 -34.5t119.5 -16.5q72 0 126 31t54 94q0 53 -47 88t-139 35q-31 -2 -64.5 -5t-60.5 -7v96q125 27 201.5 62.5t76.5 97.5 q0 45 -34.5 71.5t-104.5 26.5q-49 0 -103.5 -19.5t-95.5 -54.5l-49 105q47 33 116 55.5t140 22.5q119 0 193 -48.5t74 -140.5q0 -70 -54.5 -117.5t-158.5 -74.5z" />
<glyph unicode="&#xb4;" horiz-adv-x="806" d="M375 1065h-123l217 371h205z" />
<glyph unicode="&#xb5;" horiz-adv-x="1067" d="M313 340q0 -66 23.5 -106.5t58.5 -63.5t73 -31t69 -8q27 0 63.5 6t70.5 27.5t58.5 62.5t24.5 111v600h168v-938h-168v90q-35 -61 -93.5 -91t-125.5 -30q-63 0 -122 28t-100 91v-565h-168v1415h168v-598z" />
<glyph unicode="&#xb6;" horiz-adv-x="1019" d="M692 535q-29 -6 -59.5 -10.5t-65.5 -4.5q-121 0 -211 29t-148 79t-87 117.5t-29 147.5q0 96 36 169t100.5 121t154.5 72.5t199 24.5h252v-1411h-142v666v0z" />
<glyph unicode="&#xb7;" horiz-adv-x="450" d="M358 467q0 -53 -35.5 -93t-93.5 -40q-59 0 -96 40t-37 93t37 91t96 38q57 0 93 -38t36 -91z" />
<glyph unicode="&#xb8;" horiz-adv-x="806" d="M395 -139q121 0 186.5 -45t65.5 -123q0 -86 -77.5 -145.5t-258.5 -82.5l-12 107q115 6 166 36t51 75q0 47 -58.5 68.5t-187.5 0.5l-16 86l246 242h121l-226 -219v0z" />
<glyph unicode="&#xb9;" horiz-adv-x="675" d="M326 1196l-207 -47l-4 113l344 79v-782h-133v637z" />
<glyph unicode="&#xba;" horiz-adv-x="862" d="M797 909q0 -90 -28 -163.5t-77 -126t-116.5 -81t-147.5 -28.5t-146.5 28.5t-114.5 81t-74.5 126t-26.5 163.5t27.5 165t76.5 127t116.5 81t149.5 29q80 0 146.5 -29t114.5 -81t74 -126t26 -166zM664 907q0 61 -15.5 112.5t-46.5 89.5t-74 59.5t-98 21.5q-113 0 -172 -78 t-59 -201q0 -59 15 -110t46 -89t74 -59.5t98 -21.5q113 0 172.5 76.5t59.5 199.5z" />
<glyph unicode="&#xbb;" horiz-adv-x="1200" d="M649 74l-16 114l379 289v4l-379 289l16 115l510 -314v-184zM80 51l-14 123l397 303v4l-397 303l14 123l536 -332v-192z" />
<glyph unicode="&#xbc;" horiz-adv-x="1464" d="M1325 -100v-193h-121v193h-375l-12 86l357 499h151v-483h119l4 -102h-123zM1204 358l-254 -356h254v356zM295 -238h-129l1087 1518h129zM326 1196l-207 -47l-4 113l344 79v-782h-133v637z" />
<glyph unicode="&#xbd;" horiz-adv-x="1464" d="M264 -238h-129l1088 1518h129zM326 1196l-207 -47l-4 113l344 79v-782h-133v637zM848 -293l-4 111q94 82 166.5 143.5t123 111.5t76 94t25.5 91q0 57 -40 92t-105 35q-53 0 -104.5 -22.5t-92.5 -57.5l-45 103q43 35 111.5 61.5t146.5 26.5q123 0 193.5 -63.5t70.5 -166.5 q0 -53 -23.5 -101t-70.5 -99.5t-116.5 -111.5t-164.5 -136q-2 0 14.5 0h44h63.5h73h201l4 -111h-547z" />
<glyph unicode="&#xbe;" horiz-adv-x="1464" d="M1325 -100v-193h-121v193h-375l-12 86l357 499h151v-483h119l4 -102h-123zM1204 358l-254 -356h254v356zM295 -238h-129l1087 1518h129zM367 967q127 0 186 -56.5t59 -130.5q0 -55 -24.5 -99t-67.5 -76t-100.5 -48t-122.5 -16q-66 0 -131.5 15t-110.5 38l23 106 q41 -18 99.5 -34.5t119.5 -16.5q72 0 126 31t54 94q0 53 -47 88t-139 35q-31 -2 -64.5 -5t-60.5 -7v96q125 27 201.5 62.5t76.5 97.5q0 45 -34.5 71.5t-104.5 26.5q-49 0 -103.5 -19.5t-95.5 -54.5l-49 105q47 33 116 55.5t140 22.5q119 0 193 -48.5t74 -140.5 q0 -70 -54.5 -117.5t-158.5 -74.5z" />
<glyph unicode="&#xbf;" horiz-adv-x="729" d="M78 299q0 68 19.5 113t50 75.5t69.5 49t78 32.5q66 25 111 50.5t45 80.5q0 47 -34 90.5t-77 83.5l78 25q29 -16 57.5 -39.5t52 -53.5t38 -64.5t14.5 -73.5q0 -51 -17.5 -87t-47.5 -61.5t-66.5 -43t-73.5 -32.5q-33 -12 -62.5 -24t-53 -28.5t-37 -38t-13.5 -52.5 q0 -70 67.5 -121t204.5 -51q41 0 78 6t64 10v-157q-29 -8 -66 -13.5t-90 -5.5q-86 0 -156.5 27t-123 72t-81 105t-28.5 126zM289 1176q0 53 35.5 93t93.5 40q59 0 97 -40t38 -93t-38 -91t-97 -38q-57 0 -93 38t-36 91z" />
<glyph unicode="&#xc0;" horiz-adv-x="1175" d="M1165 0h-178l-121 336h-555l-121 -336h-180l482 1280h198zM590 1100l-221 -606h440zM526 1407l-299 371h205l217 -371h-123z" />
<glyph unicode="&#xc1;" horiz-adv-x="1175" d="M1165 0h-178l-121 336h-555l-121 -336h-180l482 1280h198zM590 1100l-221 -606h440zM641 1407h-123l217 371h205z" />
<glyph unicode="&#xc2;" horiz-adv-x="1175" d="M1165 0h-178l-121 336h-555l-121 -336h-180l482 1280h198zM590 1100l-221 -606h440zM797 1407l-201 260h-2l-203 -260h-123l236 383h180l236 -383h-123z" />
<glyph unicode="&#xc3;" horiz-adv-x="1175" d="M1165 0h-178l-121 336h-555l-121 -336h-180l482 1280h198zM590 1100l-221 -606h440zM944 1671q-14 -131 -59 -194.5t-140 -63.5q-47 0 -91 22.5t-84 48t-74.5 48t-63.5 22.5t-48 -27.5t-30 -99.5h-112q14 133 59 197t139 64q47 0 91 -23t84 -49.5t75 -49t64 -22.5 t47 27.5t28 99.5h115z" />
<glyph unicode="&#xc4;" horiz-adv-x="1175" d="M1165 0h-178l-121 336h-555l-121 -336h-180l482 1280h198zM590 1100l-221 -606h440zM921 1544q0 -53 -33.5 -91t-89.5 -38q-55 0 -88.5 38t-33.5 91q0 51 33.5 89t88.5 38t89 -38t34 -89zM504 1544q0 -53 -35 -91t-90 -38q-53 0 -88 38t-35 91q0 51 34.5 89t88.5 38 q55 0 90 -38t35 -89z" />
<glyph unicode="&#xc5;" horiz-adv-x="1175" d="M590 1100l-221 -606h440zM461 1202q-57 29 -90 80t-33 115q0 45 17.5 86t50 71.5t78.5 48t106 17.5q59 0 105 -17.5t79 -48t50.5 -71.5t17.5 -86q2 -61 -31 -113.5t-92 -81.5l446 -1202h-178l-121 336h-555l-121 -336h-180zM739 1399q0 55 -40 95t-109 40q-68 0 -107 -40 t-39 -95t39 -96t107 -41q70 0 109.5 41t39.5 96z" />
<glyph unicode="&#xc6;" horiz-adv-x="1703" d="M807 496v624l-352 -624h352zM176 0h-192l731 1280h903v-162h-639v-395h532v-162h-532v-399h639v-162h-811v334h-445z" />
<glyph unicode="&#xc7;" horiz-adv-x="1230" d="M670 -139q121 0 186.5 -45t65.5 -123q0 -86 -78 -145.5t-258 -82.5l-13 107q115 6 166.5 36t51.5 75q0 47 -58.5 68.5t-187.5 0.5l-17 86l136 135q-127 10 -231.5 61.5t-179.5 137.5t-117 204t-42 261q0 154 48 277.5t133 211.5t203 136.5t257 48.5q111 0 219.5 -29 t186.5 -78l-56 -157q-86 55 -167.5 81.5t-182.5 26.5q-104 0 -190 -35t-146.5 -101.5t-94.5 -160.5t-34 -213t34 -215t95.5 -163.5t148.5 -104.5t191 -37t199.5 36t163.5 89l28 -174q-72 -45 -161.5 -72t-186.5 -33l-112 -110v0z" />
<glyph unicode="&#xc8;" horiz-adv-x="1071" d="M162 0v1280h811v-162h-637v-395h530v-162h-530v-399h637v-162h-811zM535 1407l-299 371h204l217 -371h-122z" />
<glyph unicode="&#xc9;" horiz-adv-x="1071" d="M162 0v1280h811v-162h-637v-395h530v-162h-530v-399h637v-162h-811zM586 1407h-123l217 371h205z" />
<glyph unicode="&#xca;" horiz-adv-x="1071" d="M162 0v1280h811v-162h-637v-395h530v-162h-530v-399h637v-162h-811zM764 1407l-201 260h-2l-203 -260h-122l235 383h180l236 -383h-123z" />
<glyph unicode="&#xcb;" horiz-adv-x="1071" d="M162 0v1280h811v-162h-637v-395h530v-162h-530v-399h637v-162h-811zM893 1544q0 -53 -34 -91t-89 -38t-89 38t-34 91q0 51 34 89t89 38t89 -38t34 -89zM475 1544q0 -53 -34.5 -91t-90.5 -38q-53 0 -88 38t-35 91q0 51 35 89t88 38q55 0 90 -38t35 -89z" />
<glyph unicode="&#xcc;" horiz-adv-x="505" d="M166 0v1280h172v-1280h-172zM211 1407l-299 371h205l217 -371h-123z" />
<glyph unicode="&#xcd;" horiz-adv-x="505" d="M166 0v1280h172v-1280h-172zM305 1407h-123l217 371h205z" />
<glyph unicode="&#xce;" horiz-adv-x="505" d="M166 0v1280h172v-1280h-172zM461 1407l-201 260h-2l-203 -260h-123l236 383h180l236 -383h-123z" />
<glyph unicode="&#xcf;" horiz-adv-x="505" d="M166 0v1280h172v-1280h-172zM590 1544q0 -53 -34 -91t-89 -38t-89 38t-34 91q0 51 34 89t89 38t89 -38t34 -89zM172 1544q0 -53 -35 -91t-90 -38q-53 0 -88 38t-35 91q0 51 35 89t88 38q55 0 90 -38t35 -89z" />
<glyph unicode="&#xd0;" horiz-adv-x="1349" d="M702 723v-150h-325v-411h211q115 0 208 29.5t158.5 90t101.5 149.5t36 206q0 238 -134.5 359.5t-377.5 121.5h-203v-395h325zM33 573v150h170v557h385q160 0 284.5 -45t213 -128t134.5 -198.5t46 -259.5q0 -147 -45 -268t-133.5 -205t-215.5 -130t-292 -46h-377v573h-170 z" />
<glyph unicode="&#xd1;" horiz-adv-x="1368" d="M1036 1280h170v-1292h-188l-686 1044v-1032h-170v1280h192l682 -1032v1032zM1039 1671q-14 -131 -59.5 -194.5t-139.5 -63.5q-47 0 -91 22.5t-84 48t-75 48t-63 22.5q-29 0 -48.5 -27.5t-29.5 -99.5h-113q14 133 59.5 197t139.5 64q47 0 91 -23t84 -49.5t75 -49t63 -22.5 q29 0 47.5 27.5t28.5 99.5h115v0z" />
<glyph unicode="&#xd2;" horiz-adv-x="1474" d="M1380 645q0 -143 -47 -267t-133 -214t-203.5 -142.5t-259.5 -52.5q-141 0 -259 47t-203 134.5t-133 211t-48 275.5q0 143 47 266t133 214t204 142.5t259 51.5t259 -47t203 -134.5t133 -210t48 -274.5zM1206 637q0 119 -34.5 214t-97 162.5t-149.5 104.5t-192 37 q-102 0 -187 -37t-146.5 -103.5t-95.5 -160.5t-34 -209q0 -119 34 -215t96.5 -163.5t149.5 -104.5t191 -37q102 0 187.5 37t147 104.5t96 161.5t34.5 209zM696 1407l-299 371h205l217 -371h-123z" />
<glyph unicode="&#xd3;" horiz-adv-x="1474" d="M1380 645q0 -143 -47 -267t-133 -214t-203.5 -142.5t-259.5 -52.5q-141 0 -259 47t-203 134.5t-133 211t-48 275.5q0 143 47 266t133 214t204 142.5t259 51.5t259 -47t203 -134.5t133 -210t48 -274.5zM1206 637q0 119 -34.5 214t-97 162.5t-149.5 104.5t-192 37 q-102 0 -187 -37t-146.5 -103.5t-95.5 -160.5t-34 -209q0 -119 34 -215t96.5 -163.5t149.5 -104.5t191 -37q102 0 187.5 37t147 104.5t96 161.5t34.5 209zM791 1407h-123l217 371h205z" />
<glyph unicode="&#xd4;" horiz-adv-x="1474" d="M1380 645q0 -143 -47 -267t-133 -214t-203.5 -142.5t-259.5 -52.5q-141 0 -259 47t-203 134.5t-133 211t-48 275.5q0 143 47 266t133 214t204 142.5t259 51.5t259 -47t203 -134.5t133 -210t48 -274.5zM1206 637q0 119 -34.5 214t-97 162.5t-149.5 104.5t-192 37 q-102 0 -187 -37t-146.5 -103.5t-95.5 -160.5t-34 -209q0 -119 34 -215t96.5 -163.5t149.5 -104.5t191 -37q102 0 187.5 37t147 104.5t96 161.5t34.5 209zM946 1407l-201 260h-2l-202 -260h-123l235 383h181l235 -383h-123z" />
<glyph unicode="&#xd5;" horiz-adv-x="1474" d="M1380 645q0 -143 -47 -267t-133 -214t-203.5 -142.5t-259.5 -52.5q-141 0 -259 47t-203 134.5t-133 211t-48 275.5q0 143 47 266t133 214t204 142.5t259 51.5t259 -47t203 -134.5t133 -210t48 -274.5zM1206 637q0 119 -34.5 214t-97 162.5t-149.5 104.5t-192 37 q-102 0 -187 -37t-146.5 -103.5t-95.5 -160.5t-34 -209q0 -119 34 -215t96.5 -163.5t149.5 -104.5t191 -37q102 0 187.5 37t147 104.5t96 161.5t34.5 209zM1094 1671q-14 -131 -59.5 -194.5t-139.5 -63.5q-47 0 -91 22.5t-84 48t-75 48t-63 22.5q-29 0 -48.5 -27.5 t-29.5 -99.5h-113q14 133 59.5 197t139.5 64q47 0 91 -23t84 -49.5t74.5 -49t63.5 -22.5t47.5 27.5t28.5 99.5h115z" />
<glyph unicode="&#xd6;" horiz-adv-x="1474" d="M1380 645q0 -143 -47 -267t-133 -214t-203.5 -142.5t-259.5 -52.5q-141 0 -259 47t-203 134.5t-133 211t-48 275.5q0 143 47 266t133 214t204 142.5t259 51.5t259 -47t203 -134.5t133 -210t48 -274.5zM1206 637q0 119 -34.5 214t-97 162.5t-149.5 104.5t-192 37 q-102 0 -187 -37t-146.5 -103.5t-95.5 -160.5t-34 -209q0 -119 34 -215t96.5 -163.5t149.5 -104.5t191 -37q102 0 187.5 37t147 104.5t96 161.5t34.5 209zM1075 1544q0 -53 -33.5 -91t-89.5 -38q-55 0 -88.5 38t-33.5 91q0 51 33.5 89t88.5 38t89 -38t34 -89zM658 1544 q0 -53 -35 -91t-90 -38q-53 0 -88 38t-35 91q0 51 34.5 89t88.5 38q55 0 90 -38t35 -89z" />
<glyph unicode="&#xd7;" horiz-adv-x="991" d="M823 59l-321 326l-322 -326l-98 99l326 321l-326 322l98 98l322 -326l321 326l99 -98l-326 -322l326 -321z" />
<glyph unicode="&#xd8;" horiz-adv-x="1474" d="M1386 645q0 -143 -47 -266t-133 -214t-203.5 -143.5t-259.5 -52.5q-78 0 -150.5 15.5t-135.5 44.5l-95 -166h-131l127 221q-121 86 -189.5 226.5t-68.5 326.5q0 143 47.5 266t133.5 214t203.5 142.5t258.5 51.5q78 0 150 -15.5t137 -44.5l96 166h131l-127 -221 q119 -86 187.5 -225.5t68.5 -325.5zM950 1110q-92 45 -211 45q-102 0 -187 -37t-146.5 -103.5t-96.5 -160.5t-35 -209q0 -135 45.5 -240.5t122.5 -173.5zM537 170q92 -45 211 -45q102 0 187 37t146.5 104.5t95 161.5t33.5 209q0 135 -44 239.5t-122 172.5z" />
<glyph unicode="&#xd9;" horiz-adv-x="1323" d="M1163 494q0 -244 -126 -384.5t-378 -140.5q-121 0 -214 36t-156.5 101.5t-96 159.5t-32.5 209v805h172v-778q0 -174 83 -271.5t255 -97.5q150 0 235.5 88t85.5 268v791h172v-786zM639 1407l-299 371h205l217 -371h-123z" />
<glyph unicode="&#xda;" horiz-adv-x="1323" d="M1163 494q0 -244 -126 -384.5t-378 -140.5q-121 0 -214 36t-156.5 101.5t-96 159.5t-32.5 209v805h172v-778q0 -174 83 -271.5t255 -97.5q150 0 235.5 88t85.5 268v791h172v-786zM692 1407h-123l217 371h205z" />
<glyph unicode="&#xdb;" horiz-adv-x="1323" d="M1163 494q0 -244 -126 -384.5t-378 -140.5q-121 0 -214 36t-156.5 101.5t-96 159.5t-32.5 209v805h172v-778q0 -174 83 -271.5t255 -97.5q150 0 235.5 88t85.5 268v791h172v-786zM868 1407l-200 260h-2l-203 -260h-123l235 383h181l235 -383h-123z" />
<glyph unicode="&#xdc;" horiz-adv-x="1323" d="M1163 494q0 -244 -126 -384.5t-378 -140.5q-121 0 -214 36t-156.5 101.5t-96 159.5t-32.5 209v805h172v-778q0 -174 83 -271.5t255 -97.5q150 0 235.5 88t85.5 268v791h172v-786v0zM997 1544q0 -53 -33.5 -91t-89.5 -38q-55 0 -88.5 38t-33.5 91q0 51 33.5 89t88.5 38 t89 -38t34 -89zM580 1544q0 -53 -35 -91t-90 -38q-53 0 -88 38t-35 91q0 51 34.5 89t88.5 38q55 0 90 -38t35 -89z" />
<glyph unicode="&#xdd;" horiz-adv-x="1105" d="M641 508v-508h-174v510l-447 770h197l340 -598l336 598h192zM604 1407h-123l217 371h205z" />
<glyph unicode="&#xde;" horiz-adv-x="1087" d="M1024 657q0 -217 -140.5 -327.5t-379.5 -112.5l-168 -2v-215h-174v1280h174v-209h180q131 0 227.5 -30.5t159 -86t92 -131.5t29.5 -166zM848 649q0 260 -340 260h-172v-530l186 4q162 4 244 72.5t82 193.5z" />
<glyph unicode="&#xdf;" horiz-adv-x="1187" d="M180 784l-164 13l9 106l153 45v58q0 23 1 39t1 12q2 102 33 172.5t81 113.5t116.5 62.5t140.5 19.5q78 0 143.5 -23.5t112.5 -66.5t73.5 -101t26.5 -128q0 -66 -27.5 -113t-59.5 -84t-59.5 -67.5t-27.5 -63.5q0 -53 30 -90t74 -65.5t96 -57t96 -66.5t74 -92.5t30 -134.5 q0 -141 -92.5 -223t-252.5 -82q-78 0 -154.5 23.5t-141.5 64.5l43 154q59 -41 124.5 -67.5t131.5 -26.5q86 0 130 36.5t44 102.5q0 57 -30 95t-74 67.5t-95 55.5t-95 61.5t-74 85t-30 124.5q0 63 25.5 105.5t55.5 78.5t55.5 73.5t25.5 95.5q0 80 -49 131t-131 51 q-96 0 -148.5 -53.5t-52.5 -155.5v-1069h-168v784z" />
<glyph unicode="&#xe0;" horiz-adv-x="923" d="M627 467q-104 -14 -177 -32.5t-118 -43t-65.5 -57.5t-20.5 -76q0 -63 44 -104t122 -41q66 0 120 28.5t95 71.5v254zM625 100q-53 -63 -118 -97t-140 -34q-66 0 -121.5 20.5t-95 56.5t-61 85t-21.5 107q0 63 25.5 120.5t89 102.5t172 74.5t272.5 37.5v27q0 115 -48.5 164 t-162.5 49q-72 0 -155 -29.5t-148 -74.5l-33 151q61 43 156.5 76t195.5 33q193 0 280 -86t83 -279v-393q0 -29 3 -47.5t12 -28.5t27.5 -13t49.5 -3l-10 -142q-115 -10 -170.5 26t-73.5 97h-8zM391 1065l-299 371h205l217 -371h-123z" />
<glyph unicode="&#xe1;" horiz-adv-x="923" d="M627 467q-104 -14 -177 -32.5t-118 -43t-65.5 -57.5t-20.5 -76q0 -63 44 -104t122 -41q66 0 120 28.5t95 71.5v254zM625 100q-53 -63 -118 -97t-140 -34q-66 0 -121.5 20.5t-95 56.5t-61 85t-21.5 107q0 63 25.5 120.5t89 102.5t172 74.5t272.5 37.5v27q0 115 -48.5 164 t-162.5 49q-72 0 -155 -29.5t-148 -74.5l-33 151q61 43 156.5 76t195.5 33q193 0 280 -86t83 -279v-393q0 -29 3 -47.5t12 -28.5t27.5 -13t49.5 -3l-10 -142q-115 -10 -170.5 26t-73.5 97h-8zM465 1065h-123l217 371h205z" />
<glyph unicode="&#xe2;" horiz-adv-x="923" d="M627 467q-104 -14 -177 -32.5t-118 -43t-65.5 -57.5t-20.5 -76q0 -63 44 -104t122 -41q66 0 120 28.5t95 71.5v254zM625 100q-53 -63 -118 -97t-140 -34q-66 0 -121.5 20.5t-95 56.5t-61 85t-21.5 107q0 63 25.5 120.5t89 102.5t172 74.5t272.5 37.5v27q0 115 -48.5 164 t-162.5 49q-72 0 -155 -29.5t-148 -74.5l-33 151q61 43 156.5 76t195.5 33q193 0 280 -86t83 -279v-393q0 -29 3 -47.5t12 -28.5t27.5 -13t49.5 -3l-10 -142q-115 -10 -170.5 26t-73.5 97h-8zM641 1065l-200 260h-2l-203 -260h-123l235 383h181l235 -383h-123z" />
<glyph unicode="&#xe3;" horiz-adv-x="923" d="M627 467q-104 -14 -177 -32.5t-118 -43t-65.5 -57.5t-20.5 -76q0 -63 44 -104t122 -41q66 0 120 28.5t95 71.5v254zM625 100q-53 -63 -118 -97t-140 -34q-66 0 -121.5 20.5t-95 56.5t-61 85t-21.5 107q0 63 25.5 120.5t89 102.5t172 74.5t272.5 37.5v27q0 115 -48.5 164 t-162.5 49q-72 0 -155 -29.5t-148 -74.5l-33 151q61 43 156.5 76t195.5 33q193 0 280 -86t83 -279v-393q0 -29 3 -47.5t12 -28.5t27.5 -13t49.5 -3l-10 -142q-115 -10 -170.5 26t-73.5 97h-8zM789 1329q-14 -131 -59.5 -194.5t-139.5 -63.5q-47 0 -91 22.5t-84 48t-75 48 t-63 22.5q-29 0 -48.5 -27.5t-29.5 -99.5h-113q14 133 59.5 197t139.5 64q47 0 91 -23t84 -49.5t75 -49t63 -22.5q29 0 47.5 27.5t28.5 99.5h115v0z" />
<glyph unicode="&#xe4;" horiz-adv-x="923" d="M627 467q-104 -14 -177 -32.5t-118 -43t-65.5 -57.5t-20.5 -76q0 -63 44 -104t122 -41q66 0 120 28.5t95 71.5v254zM625 100q-53 -63 -118 -97t-140 -34q-66 0 -121.5 20.5t-95 56.5t-61 85t-21.5 107q0 63 25.5 120.5t89 102.5t172 74.5t272.5 37.5v27q0 115 -48.5 164 t-162.5 49q-72 0 -155 -29.5t-148 -74.5l-33 151q61 43 156.5 76t195.5 33q193 0 280 -86t83 -279v-393q0 -29 3 -47.5t12 -28.5t27.5 -13t49.5 -3l-10 -142q-115 -10 -170.5 26t-73.5 97h-8zM770 1202q0 -53 -33.5 -91t-89.5 -38q-55 0 -88.5 38t-33.5 91q0 51 33.5 89 t88.5 38t89 -38t34 -89zM353 1202q0 -53 -35 -91t-90 -38q-53 0 -88 38t-35 91q0 51 34.5 89t88.5 38q55 0 90 -38t35 -89z" />
<glyph unicode="&#xe5;" horiz-adv-x="923" d="M627 467q-104 -14 -177 -32.5t-118 -43t-65.5 -57.5t-20.5 -76q0 -63 44 -104t122 -41q66 0 120 28.5t95 71.5v254zM625 100q-53 -63 -118 -97t-140 -34q-66 0 -121.5 20.5t-95 56.5t-61 85t-21.5 107q0 63 25.5 120.5t89 102.5t172 74.5t272.5 37.5v27q0 115 -48.5 164 t-162.5 49q-72 0 -155 -29.5t-148 -74.5l-33 151q61 43 156.5 76t195.5 33q193 0 280 -86t83 -279v-393q0 -29 3 -47.5t12 -28.5t27.5 -13t49.5 -3l-10 -142q-115 -10 -170.5 26t-73.5 97h-8zM693 1292q0 -47 -17.5 -87t-50.5 -70.5t-80 -48t-106 -17.5q-119 0 -186.5 65.5 t-67.5 157.5t67.5 159t186.5 67t185.5 -67t68.5 -159zM586 1294q0 55 -39 95.5t-108 40.5q-68 0 -107 -40t-39 -96q0 -55 39 -96t107 -41q70 0 108.5 41t38.5 96z" />
<glyph unicode="&#xe6;" horiz-adv-x="1544" d="M725 162q-49 -76 -139 -134.5t-219 -58.5q-66 0 -121.5 20.5t-95 56.5t-61 85t-21.5 107q0 63 26.5 120.5t92 103.5t178 75.5t282.5 35.5v21q0 127 -58.5 173t-172.5 46q-72 0 -155 -29.5t-148 -74.5l-33 151q61 43 156.5 76t195.5 33q145 0 220 -43t110 -115 q55 72 143 115t199 43q172 0 265 -99.5t93 -267.5q0 -39 -5 -79t-15 -70h-28t-72 -1t-100 -1h-116q-139 -2 -315 -2v-9q2 -70 25.5 -127t63.5 -99t96.5 -65.5t123.5 -23.5q74 0 148.5 19.5t132.5 58.5l31 -156q-63 -39 -144.5 -58.5t-171.5 -19.5q-129 0 -229.5 52.5 t-161.5 140.5zM1300 575v15q0 104 -51 167.5t-162 63.5q-59 0 -107 -21.5t-82 -57t-53.5 -81t-25.5 -90.5zM647 467q-219 -20 -310 -71.5t-91 -137.5q0 -63 45 -104t131 -41q33 0 69.5 10t71.5 28.5t64.5 43t50.5 53.5q-6 14 -11 44t-9.5 62.5t-7.5 63.5t-3 49z" />
<glyph unicode="&#xe7;" horiz-adv-x="933" d="M494 -139q121 0 186 -45t65 -123q0 -86 -77.5 -145.5t-257.5 -82.5l-13 107q115 6 166 36t51 75q0 47 -58 68.5t-187 0.5l-17 86l135 133q-197 18 -300 153.5t-103 344.5q0 113 35 205t98.5 157.5t150.5 101.5t189 36q92 0 165 -19.5t138 -60.5l-43 -154q-115 78 -260 78 t-222 -91t-77 -251q0 -164 81 -255t214 -91q74 0 143.5 19.5t126.5 58.5l31 -156q-102 -63 -248 -76l-112 -110v0z" />
<glyph unicode="&#xe8;" horiz-adv-x="983" d="M254 440q2 -70 25.5 -127t63.5 -99t96.5 -65.5t123.5 -23.5q74 0 148.5 19.5t132.5 58.5l30 -156q-63 -39 -144 -58.5t-171 -19.5q-106 0 -193 36t-149.5 101.5t-97.5 154.5t-35 198q0 113 36 207t97.5 161.5t146.5 104.5t183 37q172 0 265 -99.5t93 -267.5q0 -39 -5 -79 t-15 -70h-28t-72 -1t-100 -1h-116q-139 -2 -315 -2v-9zM743 575v15q0 104 -51 167.5t-162 63.5q-59 0 -107 -21.5t-82 -57t-53.5 -81t-25.5 -90.5zM477 1065l-299 371h205l217 -371h-123z" />
<glyph unicode="&#xe9;" horiz-adv-x="983" d="M254 440q2 -70 25.5 -127t63.5 -99t96.5 -65.5t123.5 -23.5q74 0 148.5 19.5t132.5 58.5l30 -156q-63 -39 -144 -58.5t-171 -19.5q-106 0 -193 36t-149.5 101.5t-97.5 154.5t-35 198q0 113 36 207t97.5 161.5t146.5 104.5t183 37q172 0 265 -99.5t93 -267.5q0 -39 -5 -79 t-15 -70h-28t-72 -1t-100 -1h-116q-139 -2 -315 -2v-9zM743 575v15q0 104 -51 167.5t-162 63.5q-59 0 -107 -21.5t-82 -57t-53.5 -81t-25.5 -90.5zM551 1065h-123l217 371h205z" />
<glyph unicode="&#xea;" horiz-adv-x="983" d="M254 440q2 -70 25.5 -127t63.5 -99t96.5 -65.5t123.5 -23.5q74 0 148.5 19.5t132.5 58.5l30 -156q-63 -39 -144 -58.5t-171 -19.5q-106 0 -193 36t-149.5 101.5t-97.5 154.5t-35 198q0 113 36 207t97.5 161.5t146.5 104.5t183 37q172 0 265 -99.5t93 -267.5q0 -39 -5 -79 t-15 -70h-28t-72 -1t-100 -1h-116q-139 -2 -315 -2v-9zM743 575v15q0 104 -51 167.5t-162 63.5q-59 0 -107 -21.5t-82 -57t-53.5 -81t-25.5 -90.5zM686 1065l-200 260h-2l-203 -260h-123l235 383h181l235 -383h-123z" />
<glyph unicode="&#xeb;" horiz-adv-x="983" d="M254 440q2 -70 25.5 -127t63.5 -99t96.5 -65.5t123.5 -23.5q74 0 148.5 19.5t132.5 58.5l30 -156q-63 -39 -144 -58.5t-171 -19.5q-106 0 -193 36t-149.5 101.5t-97.5 154.5t-35 198q0 113 36 207t97.5 161.5t146.5 104.5t183 37q172 0 265 -99.5t93 -267.5q0 -39 -5 -79 t-15 -70h-28t-72 -1t-100 -1h-116q-139 -2 -315 -2v-9zM743 575v15q0 104 -51 167.5t-162 63.5q-59 0 -107 -21.5t-82 -57t-53.5 -81t-25.5 -90.5zM825 1202q0 -53 -33.5 -91t-89.5 -38q-55 0 -88.5 38t-33.5 91q0 51 33.5 89t88.5 38t89 -38t34 -89zM408 1202 q0 -53 -35 -91t-90 -38q-53 0 -88 38t-35 91q0 51 34.5 89t88.5 38q55 0 90 -38t35 -89z" />
<glyph unicode="&#xec;" horiz-adv-x="458" d="M152 0v924l167 26v-950h-167zM188 1065l-299 371h205l217 -371h-123z" />
<glyph unicode="&#xed;" horiz-adv-x="458" d="M152 0v924l167 26v-950h-167zM283 1065h-123l217 371h205z" />
<glyph unicode="&#xee;" horiz-adv-x="458" d="M152 0v924l167 26v-950h-167zM438 1065l-200 260h-2l-203 -260h-123l235 383h181l235 -383h-123z" />
<glyph unicode="&#xef;" horiz-adv-x="458" d="M152 0v924l167 26v-950h-167zM567 1202q0 -53 -33.5 -91t-89.5 -38q-55 0 -88.5 38t-33.5 91q0 51 33.5 89t88.5 38t89 -38t34 -89zM150 1202q0 -53 -35 -91t-90 -38q-53 0 -88 38t-35 91q0 51 34.5 89t88.5 38q55 0 90 -38t35 -89z" />
<glyph unicode="&#xf0;" horiz-adv-x="1093" d="M1010 498q0 -113 -30 -209t-87 -167t-144 -112t-200 -41q-104 0 -190.5 35t-147.5 95.5t-94 142.5t-33 178q0 113 38 200t97.5 147t131 91t141.5 31q111 0 179 -39t120 -100l4 2q-14 39 -46 89t-73 102t-87 104.5t-89 95.5l-211 -58l-29 113l143 39q-39 37 -78.5 73 t-82.5 70l190 45q41 -35 80 -68.5t74 -68.5l211 55l28 -112l-147 -39q147 -164 239.5 -342t92.5 -352zM844 459q0 59 -11.5 103t-25.5 75q-29 45 -106.5 73.5t-174.5 28.5q-53 0 -100 -20.5t-83 -58t-57.5 -93t-21.5 -123.5q0 -156 81 -239.5t210 -83.5q127 0 208 87t81 251 z" />
<glyph unicode="&#xf1;" horiz-adv-x="1058" d="M754 0v590q0 123 -47.5 170t-147.5 47q-74 0 -139.5 -32t-106.5 -70v-705h-168v942l168 27v-142q66 66 145 104t160 38q143 0 223.5 -85t80.5 -239v-645h-168zM885 1329q-14 -131 -59.5 -194.5t-139.5 -63.5q-47 0 -91 22.5t-84 48t-75 48t-63 22.5q-29 0 -48.5 -27.5 t-29.5 -99.5h-113q14 133 59.5 197t139.5 64q47 0 91 -23t84 -49.5t75 -49t63 -22.5q29 0 47.5 27.5t28.5 99.5h115v0z" />
<glyph unicode="&#xf2;" horiz-adv-x="1081" d="M997 469q0 -113 -34.5 -205t-96 -157.5t-146.5 -101.5t-183 -36q-100 0 -183.5 36t-143.5 100.5t-93 156.5t-33 207q0 113 34 205t95 158.5t146 102.5t188 36q100 0 183 -36t142.5 -101.5t92 -158.5t32.5 -206zM831 467q0 76 -19 140.5t-57 111.5t-92.5 73.5t-123.5 26.5 q-70 0 -124.5 -25.5t-91 -71.5t-55 -110.5t-18.5 -140.5t19.5 -139.5t57.5 -110.5t92 -73.5t124 -26.5t124 25.5t91 71.5t55 109.5t18 139.5zM540 1065l-299 371h205l217 -371h-123z" />
<glyph unicode="&#xf3;" horiz-adv-x="1081" d="M997 469q0 -113 -34.5 -205t-96 -157.5t-146.5 -101.5t-183 -36q-100 0 -183.5 36t-143.5 100.5t-93 156.5t-33 207q0 113 34 205t95 158.5t146 102.5t188 36q100 0 183 -36t142.5 -101.5t92 -158.5t32.5 -206zM831 467q0 76 -19 140.5t-57 111.5t-92.5 73.5t-123.5 26.5 q-70 0 -124.5 -25.5t-91 -71.5t-55 -110.5t-18.5 -140.5t19.5 -139.5t57.5 -110.5t92 -73.5t124 -26.5t124 25.5t91 71.5t55 109.5t18 139.5zM553 1065h-123l217 371h205z" />
<glyph unicode="&#xf4;" horiz-adv-x="1081" d="M997 469q0 -113 -34.5 -205t-96 -157.5t-146.5 -101.5t-183 -36q-100 0 -183.5 36t-143.5 100.5t-93 156.5t-33 207q0 113 34 205t95 158.5t146 102.5t188 36q100 0 183 -36t142.5 -101.5t92 -158.5t32.5 -206zM831 467q0 76 -19 140.5t-57 111.5t-92.5 73.5t-123.5 26.5 q-70 0 -124.5 -25.5t-91 -71.5t-55 -110.5t-18.5 -140.5t19.5 -139.5t57.5 -110.5t92 -73.5t124 -26.5t124 25.5t91 71.5t55 109.5t18 139.5zM749 1065l-200 260h-2l-203 -260h-123l235 383h181l235 -383h-123z" />
<glyph unicode="&#xf5;" horiz-adv-x="1081" d="M997 469q0 -113 -34.5 -205t-96 -157.5t-146.5 -101.5t-183 -36q-100 0 -183.5 36t-143.5 100.5t-93 156.5t-33 207q0 113 34 205t95 158.5t146 102.5t188 36q100 0 183 -36t142.5 -101.5t92 -158.5t32.5 -206zM831 467q0 76 -19 140.5t-57 111.5t-92.5 73.5t-123.5 26.5 q-70 0 -124.5 -25.5t-91 -71.5t-55 -110.5t-18.5 -140.5t19.5 -139.5t57.5 -110.5t92 -73.5t124 -26.5t124 25.5t91 71.5t55 109.5t18 139.5zM897 1329q-14 -131 -59.5 -194.5t-139.5 -63.5q-47 0 -91 22.5t-84 48t-75 48t-63 22.5q-29 0 -48.5 -27.5t-29.5 -99.5h-113 q14 133 59.5 197t139.5 64q47 0 91 -23t84 -49.5t75 -49t63 -22.5q29 0 47.5 27.5t28.5 99.5h115v0z" />
<glyph unicode="&#xf6;" horiz-adv-x="1081" d="M997 469q0 -113 -34.5 -205t-96 -157.5t-146.5 -101.5t-183 -36q-100 0 -183.5 36t-143.5 100.5t-93 156.5t-33 207q0 113 34 205t95 158.5t146 102.5t188 36q100 0 183 -36t142.5 -101.5t92 -158.5t32.5 -206zM831 467q0 76 -19 140.5t-57 111.5t-92.5 73.5t-123.5 26.5 q-70 0 -124.5 -25.5t-91 -71.5t-55 -110.5t-18.5 -140.5t19.5 -139.5t57.5 -110.5t92 -73.5t124 -26.5t124 25.5t91 71.5t55 109.5t18 139.5zM878 1202q0 -53 -33.5 -91t-89.5 -38q-55 0 -88.5 38t-33.5 91q0 51 33.5 89t88.5 38t89 -38t34 -89zM461 1202q0 -53 -35 -91 t-90 -38q-53 0 -88 38t-35 91q0 51 34.5 89t88.5 38q55 0 90 -38t35 -89z" />
<glyph unicode="&#xf7;" horiz-adv-x="991" d="M82 408l6 145h819l6 -145h-831zM637 168q0 -53 -38 -95t-97 -42t-99.5 42t-40.5 95t40 93t100 40q59 0 97 -40t38 -93zM637 793q0 -53 -40 -93.5t-99 -40.5t-97.5 40t-38.5 94q0 53 38 95t98 42q59 0 99 -42t40 -95z" />
<glyph unicode="&#xf8;" horiz-adv-x="1081" d="M1004 469q0 -113 -35 -205t-96.5 -157.5t-146.5 -101.5t-183 -36q-102 0 -193 39l-84 -145h-135q33 57 59 104q10 18 21.5 37t19.5 35q8 18 19 33q-76 66 -118 167t-42 230q0 113 34 205t95.5 158.5t146.5 102.5t187 36t192 -39l84 145h136l-121 -209q76 -66 118 -168 t42 -231zM668 795q-53 25 -123 24q-70 0 -124 -25.5t-91 -71.5t-55.5 -110.5t-18.5 -140.5q0 -164 76 -258zM838 467q0 164 -76 258l-334 -582q55 -23 121 -22q70 0 124 25.5t91 71.5t55.5 109.5t18.5 139.5z" />
<glyph unicode="&#xf9;" horiz-adv-x="1058" d="M305 938v-590q0 -123 46 -170t138 -47q82 0 149 32t107 70v705h168v-942l-168 -27v137q-66 -66 -145.5 -101.5t-169.5 -35.5q-135 0 -214 85t-79 239v645h168zM507 1065l-299 371h205l217 -371h-123z" />
<glyph unicode="&#xfa;" horiz-adv-x="1058" d="M305 938v-590q0 -123 46 -170t138 -47q82 0 149 32t107 70v705h168v-942l-168 -27v137q-66 -66 -145.5 -101.5t-169.5 -35.5q-135 0 -214 85t-79 239v645h168zM561 1065h-123l217 371h205z" />
<glyph unicode="&#xfb;" horiz-adv-x="1058" d="M305 938v-590q0 -123 46 -170t138 -47q82 0 149 32t107 70v705h168v-942l-168 -27v137q-66 -66 -145.5 -101.5t-169.5 -35.5q-135 0 -214 85t-79 239v645h168zM737 1065l-200 260h-2l-203 -260h-123l235 383h181l235 -383h-123z" />
<glyph unicode="&#xfc;" horiz-adv-x="1058" d="M305 938v-590q0 -123 46 -170t138 -47q82 0 149 32t107 70v705h168v-942l-168 -27v137q-66 -66 -145.5 -101.5t-169.5 -35.5q-135 0 -214 85t-79 239v645h168zM856 1202q0 -53 -33.5 -91t-89.5 -38q-55 0 -88.5 38t-33.5 91q0 51 33.5 89t88.5 38t89 -38t34 -89z M439 1202q0 -53 -35 -91t-90 -38q-53 0 -88 38t-35 91q0 51 34.5 89t88.5 38q55 0 90 -38t35 -89z" />
<glyph unicode="&#xfd;" horiz-adv-x="903" d="M524 -10l-63 -168q-35 -90 -70 -149.5t-75 -94.5t-85 -50t-100 -15q-53 0 -102 13t-97 36l50 155q37 -18 75.5 -31.5t73.5 -13.5q27 0 49.5 8.5t44 32t42 62.5t44.5 100l58 145l-365 918h180l273 -729l264 729h178zM504 1065h-123l217 371h205z" />
<glyph unicode="&#xfe;" horiz-adv-x="1064" d="M313 -504h-168v1884l168 27v-545q51 41 113.5 74t138.5 33q102 0 182 -38t134.5 -104.5t83 -156.5t28.5 -197q0 -106 -34.5 -198.5t-98 -160t-151.5 -106.5t-193 -39q-41 0 -99.5 6.5t-103.5 18.5v-498zM313 188q82 -68 209 -67q72 0 127.5 27.5t93 74.5t57 110.5 t19.5 135.5q0 156 -73.5 250t-204.5 94q-66 0 -123.5 -24.5t-104.5 -65.5v-535z" />
<glyph unicode="&#xff;" horiz-adv-x="903" d="M524 -10l-63 -168q-35 -90 -70 -149.5t-75 -94.5t-85 -50t-100 -15q-53 0 -102 13t-97 36l50 155q37 -18 75.5 -31.5t73.5 -13.5q27 0 49.5 8.5t44 32t42 62.5t44.5 100l58 145l-365 918h180l273 -729l264 729h178zM788 1202q0 -53 -33.5 -91t-88.5 -38t-89 38t-34 91 q0 51 33.5 89t89.5 38q55 0 88.5 -38t33.5 -89zM371 1202q0 -53 -35 -91t-90 -38q-53 0 -88 38t-35 91q0 51 35 89t88 38q55 0 90 -38t35 -89z" />
<glyph unicode="&#x100;" horiz-adv-x="1175" d="M1165 0h-178l-121 336h-555l-121 -336h-180l482 1280h198zM590 1100l-221 -606h440zM307 1444l8 108h545l10 -108h-563z" />
<glyph unicode="&#x101;" horiz-adv-x="923" d="M627 467q-104 -14 -177 -32.5t-118 -43t-65.5 -57.5t-20.5 -76q0 -63 44 -104t122 -41q66 0 120 28.5t95 71.5v254zM625 100q-53 -63 -118 -97t-140 -34q-66 0 -121.5 20.5t-95 56.5t-61 85t-21.5 107q0 63 25.5 120.5t89 102.5t172 74.5t272.5 37.5v27q0 115 -48.5 164 t-162.5 49q-72 0 -155 -29.5t-148 -74.5l-33 151q61 43 156.5 76t195.5 33q193 0 280 -86t83 -279v-393q0 -29 3 -47.5t12 -28.5t27.5 -13t49.5 -3l-10 -142q-115 -10 -170.5 26t-73.5 97h-8zM156 1102l8 108h545l10 -108h-563z" />
<glyph unicode="&#x102;" horiz-adv-x="1175" d="M1165 0h-178l-121 336h-555l-121 -336h-180l482 1280h198zM590 1100l-221 -606h440zM917 1788q-10 -82 -34.5 -151.5t-64.5 -121t-97.5 -81t-130.5 -29.5q-74 0 -131.5 29.5t-97.5 81t-64.5 121t-34.5 151.5h137q8 -51 24.5 -96t39 -79t54.5 -54.5t73 -20.5t72.5 20.5 t55 54.5t39 79t23.5 96h137v0z" />
<glyph unicode="&#x103;" horiz-adv-x="923" d="M627 467q-104 -14 -177 -32.5t-118 -43t-65.5 -57.5t-20.5 -76q0 -63 44 -104t122 -41q66 0 120 28.5t95 71.5v254zM625 100q-53 -63 -118 -97t-140 -34q-66 0 -121.5 20.5t-95 56.5t-61 85t-21.5 107q0 63 25.5 120.5t89 102.5t172 74.5t272.5 37.5v27q0 115 -48.5 164 t-162.5 49q-72 0 -155 -29.5t-148 -74.5l-33 151q61 43 156.5 76t195.5 33q193 0 280 -86t83 -279v-393q0 -29 3 -47.5t12 -28.5t27.5 -13t49.5 -3l-10 -142q-115 -10 -170.5 26t-73.5 97h-8zM805 1446q-10 -82 -34.5 -151.5t-64.5 -121t-97.5 -81t-130.5 -29.5 q-74 0 -131.5 29.5t-97.5 81t-64.5 121t-34.5 151.5h137q8 -51 24.5 -96t39 -79t54.5 -54.5t73 -20.5t72.5 20.5t55 54.5t39 79t23.5 96h137v0z" />
<glyph unicode="&#x104;" horiz-adv-x="1175" d="M1165 0q-47 -10 -89 -30.5t-72.5 -46t-49 -56.5t-18.5 -62q0 -47 23.5 -73.5t68.5 -26.5q29 0 56.5 8t48.5 25l36 -127q-33 -23 -77.5 -39t-106.5 -16q-96 0 -156.5 52t-60.5 144q0 49 19.5 90t50 73t69.5 54.5t78 32.5l-119 334h-555l-121 -336h-180l482 1280h198z M590 1100l-221 -606h440z" />
<glyph unicode="&#x105;" horiz-adv-x="923" d="M625 100q-53 -63 -118 -97t-140 -34q-66 0 -121.5 20.5t-95 56.5t-61 85t-21.5 107q0 63 25.5 120.5t89 102.5t172 74.5t272.5 37.5v27q0 115 -48.5 164t-162.5 49q-72 0 -155 -29.5t-148 -74.5l-33 151q61 43 156.5 76t195.5 33q193 0 280 -86t83 -279v-393 q0 -29 3 -47.5t12 -28.5t27.5 -13t49.5 -3l-10 -142q-104 -4 -168 -47t-64 -125q0 -47 23.5 -73.5t68.5 -26.5q29 0 56.5 8t48.5 25l37 -127q-33 -23 -78 -39t-107 -16q-96 0 -156.5 52t-60.5 144t59.5 162t143.5 109q-35 31 -47 77h-8zM627 467q-104 -14 -177 -32.5 t-118 -43t-65.5 -57.5t-20.5 -76q0 -63 44 -104t122 -41q66 0 120 28.5t95 71.5v254z" />
<glyph unicode="&#x106;" horiz-adv-x="1230" d="M1085 1047q-86 55 -167.5 81.5t-182.5 26.5q-104 0 -190 -35t-146.5 -101.5t-94.5 -160.5t-34 -213t34 -215t95.5 -163.5t148.5 -104.5t191 -37t199.5 36t163.5 89l28 -174q-78 -49 -182 -78t-213 -29q-141 0 -259 47t-203 134.5t-132 210t-47 276.5t48 277.5t133 211.5 t203 136.5t257 48.5q111 0 219.5 -29t186.5 -78zM647 1407h-123l217 371h205z" />
<glyph unicode="&#x107;" horiz-adv-x="933" d="M854 47q-127 -78 -309 -78q-111 0 -197 36t-144.5 102.5t-89 158.5t-30.5 203q0 113 35 205t98.5 157.5t150.5 101.5t189 36q92 0 165 -19.5t138 -60.5l-43 -154q-115 78 -260 78t-222 -91t-77 -251q0 -164 81 -255t214 -91q74 0 143.5 19.5t126.5 58.5l31 -156v0z M494 1065h-123l217 371h205z" />
<glyph unicode="&#x108;" horiz-adv-x="1230" d="M1085 1047q-86 55 -167.5 81.5t-182.5 26.5q-104 0 -190 -35t-146.5 -101.5t-94.5 -160.5t-34 -213t34 -215t95.5 -163.5t148.5 -104.5t191 -37t199.5 36t163.5 89l28 -174q-78 -49 -182 -78t-213 -29q-141 0 -259 47t-203 134.5t-132 210t-47 276.5t48 277.5t133 211.5 t203 136.5t257 48.5q111 0 219.5 -29t186.5 -78zM864 1407l-200 260h-2l-203 -260h-123l235 383h181l235 -383h-123z" />
<glyph unicode="&#x109;" horiz-adv-x="933" d="M854 47q-127 -78 -309 -78q-111 0 -197 36t-144.5 102.5t-89 158.5t-30.5 203q0 113 35 205t98.5 157.5t150.5 101.5t189 36q92 0 165 -19.5t138 -60.5l-43 -154q-115 78 -260 78t-222 -91t-77 -251q0 -164 81 -255t214 -91q74 0 143.5 19.5t126.5 58.5l31 -156v0z M733 1065l-200 260h-2l-203 -260h-123l235 383h181l235 -383h-123z" />
<glyph unicode="&#x10a;" horiz-adv-x="1230" d="M1085 1047q-86 55 -167.5 81.5t-182.5 26.5q-104 0 -190 -35t-146.5 -101.5t-94.5 -160.5t-34 -213t34 -215t95.5 -163.5t148.5 -104.5t191 -37t199.5 36t163.5 89l28 -174q-78 -49 -182 -78t-213 -29q-141 0 -259 47t-203 134.5t-132 210t-47 276.5t48 277.5t133 211.5 t203 136.5t257 48.5q111 0 219.5 -29t186.5 -78zM811 1540q0 -49 -32.5 -86t-85.5 -37t-85 37t-32 86q0 51 31.5 88t85.5 37q53 0 85.5 -37t32.5 -88z" />
<glyph unicode="&#x10b;" horiz-adv-x="933" d="M854 47q-127 -78 -309 -78q-111 0 -197 36t-144.5 102.5t-89 158.5t-30.5 203q0 113 35 205t98.5 157.5t150.5 101.5t189 36q92 0 165 -19.5t138 -60.5l-43 -154q-115 78 -260 78t-222 -91t-77 -251q0 -164 81 -255t214 -91q74 0 143.5 19.5t126.5 58.5l31 -156v0z M671 1198q0 -49 -32.5 -86t-85.5 -37t-85 37t-32 86q0 51 31.5 88t85.5 37q53 0 85.5 -37t32.5 -88z" />
<glyph unicode="&#x10c;" horiz-adv-x="1230" d="M1085 1047q-86 55 -167.5 81.5t-182.5 26.5q-104 0 -190 -35t-146.5 -101.5t-94.5 -160.5t-34 -213t34 -215t95.5 -163.5t148.5 -104.5t191 -37t199.5 36t163.5 89l28 -174q-78 -49 -182 -78t-213 -29q-141 0 -259 47t-203 134.5t-132 210t-47 276.5t48 277.5t133 211.5 t203 136.5t257 48.5q111 0 219.5 -29t186.5 -78zM752 1407h-181l-235 383h123l201 -260h2l202 260h123z" />
<glyph unicode="&#x10d;" horiz-adv-x="933" d="M854 47q-127 -78 -309 -78q-111 0 -197 36t-144.5 102.5t-89 158.5t-30.5 203q0 113 35 205t98.5 157.5t150.5 101.5t189 36q92 0 165 -19.5t138 -60.5l-43 -154q-115 78 -260 78t-222 -91t-77 -251q0 -164 81 -255t214 -91q74 0 143.5 19.5t126.5 58.5l31 -156v0z M617 1065h-181l-235 383h123l201 -260h2l202 260h123z" />
<glyph unicode="&#x10e;" horiz-adv-x="1318" d="M1225 649q0 -147 -45 -268t-133.5 -205t-215 -130t-292.5 -46h-377v1280h385q160 0 284.5 -45t213 -128t134.5 -199t46 -259zM1051 637q0 238 -134.5 359.5t-377.5 121.5h-203v-956h211q115 0 208 29.5t158.5 90t101.5 149.5t36 206zM678 1407h-181l-235 383h123 l201 -260h2l202 260h123z" />
<glyph unicode="&#x10f;" horiz-adv-x="1525" d="M764 1380l168 27v-1407h-168v86q-51 -47 -114.5 -82t-147.5 -35q-98 0 -176 38t-132.5 104.5t-82 156.5t-27.5 197q0 106 35 198.5t98.5 160t151.5 106.5t192 39q51 0 104.5 -8.5t98.5 -22.5v442zM764 750q-84 68 -209 67q-72 0 -127 -27.5t-93 -74.5t-57.5 -110.5 t-19.5 -135.5q0 -156 74 -250t205 -94q66 0 123 24.5t104 65.5v535zM1161 1298q6 49 40 85t99 36q31 0 62.5 -14.5t56.5 -39t40 -58t15 -74.5q0 -63 -25.5 -119.5t-68.5 -106t-97 -93.5t-112 -81l-71 70q209 152 208 260q0 39 -31.5 67.5t-115.5 67.5z" />
<glyph unicode="&#x110;" horiz-adv-x="1349" d="M702 723v-150h-325v-411h211q115 0 208 29.5t158.5 90t101.5 149.5t36 206q0 238 -134.5 359.5t-377.5 121.5h-203v-395h325zM33 573v150h170v557h385q160 0 284.5 -45t213 -128t134.5 -198.5t46 -259.5q0 -147 -45 -268t-133.5 -205t-215.5 -130t-292 -46h-377v573h-170 z" />
<glyph unicode="&#x111;" horiz-adv-x="1077" d="M764 1102h-223l10 108h213v170l168 27v-199l131 2l8 -108h-139v-1102h-168v86q-51 -47 -114.5 -82t-147.5 -35q-98 0 -176 38t-132.5 104.5t-82 156.5t-27.5 197q0 106 35 198.5t98.5 160t151.5 106.5t192 39q51 0 104.5 -8.5t98.5 -22.5v164zM764 750q-84 68 -209 67 q-72 0 -127 -27.5t-93 -74.5t-57.5 -110.5t-19.5 -135.5q0 -156 74 -250t205 -94q66 0 123 24.5t104 65.5v535z" />
<glyph unicode="&#x112;" horiz-adv-x="1071" d="M162 0v1280h811v-162h-637v-395h530v-162h-530v-399h637v-162h-811zM283 1444l8 108h545l10 -108h-563z" />
<glyph unicode="&#x113;" horiz-adv-x="983" d="M254 440q2 -70 25.5 -127t63.5 -99t96.5 -65.5t123.5 -23.5q74 0 148.5 19.5t132.5 58.5l30 -156q-63 -39 -144 -58.5t-171 -19.5q-106 0 -193 36t-149.5 101.5t-97.5 154.5t-35 198q0 113 36 207t97.5 161.5t146.5 104.5t183 37q172 0 265 -99.5t93 -267.5q0 -39 -5 -79 t-15 -70h-28t-72 -1t-100 -1h-116q-139 -2 -315 -2v-9zM743 575v15q0 104 -51 167.5t-162 63.5q-59 0 -107 -21.5t-82 -57t-53.5 -81t-25.5 -90.5zM236 1102l8 108h545l10 -108h-563z" />
<glyph unicode="&#x114;" horiz-adv-x="1071" d="M162 0v1280h811v-162h-637v-395h530v-162h-530v-399h637v-162h-811zM917 1788q-10 -82 -34.5 -151.5t-64.5 -121t-97.5 -81t-130.5 -29.5q-74 0 -131.5 29.5t-97.5 81t-64.5 121t-34.5 151.5h137q8 -51 24.5 -96t39 -79t54.5 -54.5t73 -20.5t72.5 20.5t55 54.5t39 79 t23.5 96h137v0z" />
<glyph unicode="&#x115;" horiz-adv-x="983" d="M254 440q2 -70 25.5 -127t63.5 -99t96.5 -65.5t123.5 -23.5q74 0 148.5 19.5t132.5 58.5l30 -156q-63 -39 -144 -58.5t-171 -19.5q-106 0 -193 36t-149.5 101.5t-97.5 154.5t-35 198q0 113 36 207t97.5 161.5t146.5 104.5t183 37q172 0 265 -99.5t93 -267.5q0 -39 -5 -79 t-15 -70h-28t-72 -1t-100 -1h-116q-139 -2 -315 -2v-9zM743 575v15q0 104 -51 167.5t-162 63.5q-59 0 -107 -21.5t-82 -57t-53.5 -81t-25.5 -90.5zM843 1446q-10 -82 -34.5 -151.5t-64.5 -121t-97.5 -81t-130.5 -29.5q-74 0 -131.5 29.5t-97.5 81t-64.5 121t-34.5 151.5h137 q8 -51 24.5 -96t39 -79t54.5 -54.5t73 -20.5t72.5 20.5t55 54.5t39 79t23.5 96h137v0z" />
<glyph unicode="&#x116;" horiz-adv-x="1071" d="M162 0v1280h811v-162h-637v-395h530v-162h-530v-399h637v-162h-811zM694 1540q0 -49 -32.5 -86t-85.5 -37t-85 37t-32 86q0 51 31.5 88t85.5 37q53 0 85.5 -37t32.5 -88z" />
<glyph unicode="&#x117;" horiz-adv-x="983" d="M254 440q2 -70 25.5 -127t63.5 -99t96.5 -65.5t123.5 -23.5q74 0 148.5 19.5t132.5 58.5l30 -156q-63 -39 -144 -58.5t-171 -19.5q-106 0 -193 36t-149.5 101.5t-97.5 154.5t-35 198q0 113 36 207t97.5 161.5t146.5 104.5t183 37q172 0 265 -99.5t93 -267.5q0 -39 -5 -79 t-15 -70h-28t-72 -1t-100 -1h-116q-139 -2 -315 -2v-9zM743 575v15q0 104 -51 167.5t-162 63.5q-59 0 -107 -21.5t-82 -57t-53.5 -81t-25.5 -90.5zM637 1198q0 -49 -32.5 -86t-85.5 -37t-85 37t-32 86q0 51 31.5 88t85.5 37q53 0 85.5 -37t32.5 -88z" />
<glyph unicode="&#x118;" horiz-adv-x="1071" d="M862 0q-59 -45 -91 -92t-32 -103q0 -47 23.5 -73.5t68.5 -26.5q29 0 56.5 8t48.5 25l37 -127q-33 -23 -78 -39t-107 -16q-96 0 -156.5 52t-60.5 144q0 80 47.5 143.5t114.5 104.5h-571v1280h811v-162h-637v-395h530v-162h-530v-399h637v-162h-111z" />
<glyph unicode="&#x119;" horiz-adv-x="983" d="M254 440q2 -70 25.5 -127t63.5 -99t96.5 -65.5t123.5 -23.5q74 0 148.5 19.5t132.5 58.5l30 -156q-43 -12 -86 -35.5t-75.5 -55.5t-53 -71t-20.5 -80q0 -47 23.5 -73.5t68.5 -26.5q29 0 56.5 8t48.5 25l36 -127q-33 -23 -77.5 -39t-106.5 -16q-96 0 -156.5 52t-60.5 144 q0 68 33 122t86 95h-31q-106 0 -193 36t-149.5 101.5t-97.5 154.5t-35 198q0 113 36 207t97.5 161.5t146.5 104.5t183 37q172 0 265 -99.5t93 -267.5q0 -39 -5 -79t-15 -70h-28t-72 -1t-100 -1h-116q-139 -2 -315 -2v-9zM743 575v15q0 104 -51 167.5t-162 63.5 q-59 0 -107 -21.5t-82 -57t-53.5 -81t-25.5 -90.5z" />
<glyph unicode="&#x11a;" horiz-adv-x="1071" d="M162 0v1280h811v-162h-637v-395h530v-162h-530v-399h637v-162h-811zM678 1407h-181l-235 383h123l201 -260h2l202 260h123z" />
<glyph unicode="&#x11b;" horiz-adv-x="983" d="M254 440q2 -70 25.5 -127t63.5 -99t96.5 -65.5t123.5 -23.5q74 0 148.5 19.5t132.5 58.5l30 -156q-63 -39 -144 -58.5t-171 -19.5q-106 0 -193 36t-149.5 101.5t-97.5 154.5t-35 198q0 113 36 207t97.5 161.5t146.5 104.5t183 37q172 0 265 -99.5t93 -267.5q0 -39 -5 -79 t-15 -70h-28t-72 -1t-100 -1h-116q-139 -2 -315 -2v-9zM743 575v15q0 104 -51 167.5t-162 63.5q-59 0 -107 -21.5t-82 -57t-53.5 -81t-25.5 -90.5zM606 1065h-181l-235 383h123l201 -260h2l202 260h123z" />
<glyph unicode="&#x11c;" horiz-adv-x="1310" d="M1186 92q-100 -61 -223 -92t-228 -31q-141 0 -259 47t-203 134.5t-132 210t-47 276.5t48 277.5t133 211.5t203 136.5t257 48.5q113 0 229.5 -30t196.5 -81l-57 -160q-78 49 -174 82t-195 33q-104 0 -190 -35t-146.5 -101.5t-94.5 -160.5t-34 -213t34 -215t95.5 -163.5 t148.5 -104.5t191 -37q80 0 151 18.5t128 46.5v304h-359v161h527v-563v0zM880 1407l-200 260h-2l-203 -260h-123l235 383h181l235 -383h-123z" />
<glyph unicode="&#x11d;" horiz-adv-x="974" d="M260 612q0 -94 58.5 -151.5t160.5 -57.5q92 0 146.5 60.5t54.5 159.5q0 92 -53.5 151.5t-161.5 59.5q-92 0 -148.5 -62t-56.5 -160zM342 -45q-72 -20 -117 -59t-45 -93q0 -76 81 -125t216 -49q66 0 123 13.5t100 39t68 60.5t25 78q0 78 -70 102.5t-211 24.5q-45 0 -92 2 t-78 6zM215 -14q-59 27 -91 67.5t-32 89.5q0 59 42 108.5t114 74.5q-74 43 -115 116.5t-41 171.5q0 70 25.5 133.5t74 112.5t119 79t162.5 30q76 0 136.5 -16.5t105.5 -37.5l241 23l7 -166l-181 33q29 -27 46.5 -83t17.5 -110q0 -72 -27.5 -134t-78 -108t-119 -74 t-150.5 -28q-35 0 -62.5 5.5t-68.5 17.5q-29 -10 -60.5 -37t-31.5 -61q0 -20 8 -37t31.5 -28t65.5 -17.5t108 -6.5h86q211 0 310 -63.5t99 -187.5q0 -78 -38.5 -143.5t-107.5 -114t-161 -76t-198 -27.5q-92 0 -172 19.5t-138.5 55.5t-92.5 86t-34 114q0 80 51.5 140.5 t149.5 78.5zM673 1065l-200 260h-2l-203 -260h-123l235 383h181l235 -383h-123z" />
<glyph unicode="&#x11e;" horiz-adv-x="1310" d="M1186 92q-100 -61 -223 -92t-228 -31q-141 0 -259 47t-203 134.5t-132 210t-47 276.5t48 277.5t133 211.5t203 136.5t257 48.5q113 0 229.5 -30t196.5 -81l-57 -160q-78 49 -174 82t-195 33q-104 0 -190 -35t-146.5 -101.5t-94.5 -160.5t-34 -213t34 -215t95.5 -163.5 t148.5 -104.5t191 -37q80 0 151 18.5t128 46.5v304h-359v161h527v-563v0zM983 1788q-10 -82 -34.5 -151.5t-64.5 -121t-97.5 -81t-130.5 -29.5q-74 0 -131.5 29.5t-97.5 81t-64.5 121t-34.5 151.5h137q8 -51 24.5 -96t39 -79t54.5 -54.5t73 -20.5t72.5 20.5t55 54.5t39 79 t23.5 96h137v0z" />
<glyph unicode="&#x11f;" horiz-adv-x="974" d="M260 612q0 -94 58.5 -151.5t160.5 -57.5q92 0 146.5 60.5t54.5 159.5q0 92 -53.5 151.5t-161.5 59.5q-92 0 -148.5 -62t-56.5 -160zM342 -45q-72 -20 -117 -59t-45 -93q0 -76 81 -125t216 -49q66 0 123 13.5t100 39t68 60.5t25 78q0 78 -70 102.5t-211 24.5q-45 0 -92 2 t-78 6zM215 -14q-59 27 -91 67.5t-32 89.5q0 59 42 108.5t114 74.5q-74 43 -115 116.5t-41 171.5q0 70 25.5 133.5t74 112.5t119 79t162.5 30q76 0 136.5 -16.5t105.5 -37.5l241 23l7 -166l-181 33q29 -27 46.5 -83t17.5 -110q0 -72 -27.5 -134t-78 -108t-119 -74 t-150.5 -28q-35 0 -62.5 5.5t-68.5 17.5q-29 -10 -60.5 -37t-31.5 -61q0 -20 8 -37t31.5 -28t65.5 -17.5t108 -6.5h86q211 0 310 -63.5t99 -187.5q0 -78 -38.5 -143.5t-107.5 -114t-161 -76t-198 -27.5q-92 0 -172 19.5t-138.5 55.5t-92.5 86t-34 114q0 80 51.5 140.5 t149.5 78.5zM819 1446q-10 -82 -34.5 -151.5t-64.5 -121t-97.5 -81t-130.5 -29.5q-74 0 -131.5 29.5t-97.5 81t-64.5 121t-34.5 151.5h137q8 -51 24.5 -96t39 -79t54.5 -54.5t73 -20.5t72.5 20.5t55 54.5t39 79t23.5 96h137v0z" />
<glyph unicode="&#x120;" horiz-adv-x="1310" d="M1186 92q-100 -61 -223 -92t-228 -31q-141 0 -259 47t-203 134.5t-132 210t-47 276.5t48 277.5t133 211.5t203 136.5t257 48.5q113 0 229.5 -30t196.5 -81l-57 -160q-78 49 -174 82t-195 33q-104 0 -190 -35t-146.5 -101.5t-94.5 -160.5t-34 -213t34 -215t95.5 -163.5 t148.5 -104.5t191 -37q80 0 151 18.5t128 46.5v304h-359v161h527v-563v0zM835 1540q0 -49 -32.5 -86t-85.5 -37t-85 37t-32 86q0 51 31.5 88t85.5 37q53 0 85.5 -37t32.5 -88z" />
<glyph unicode="&#x121;" horiz-adv-x="974" d="M260 612q0 -94 58.5 -151.5t160.5 -57.5q92 0 146.5 60.5t54.5 159.5q0 92 -53.5 151.5t-161.5 59.5q-92 0 -148.5 -62t-56.5 -160zM342 -45q-72 -20 -117 -59t-45 -93q0 -76 81 -125t216 -49q66 0 123 13.5t100 39t68 60.5t25 78q0 78 -70 102.5t-211 24.5q-45 0 -92 2 t-78 6zM215 -14q-59 27 -91 67.5t-32 89.5q0 59 42 108.5t114 74.5q-74 43 -115 116.5t-41 171.5q0 70 25.5 133.5t74 112.5t119 79t162.5 30q76 0 136.5 -16.5t105.5 -37.5l241 23l7 -166l-181 33q29 -27 46.5 -83t17.5 -110q0 -72 -27.5 -134t-78 -108t-119 -74 t-150.5 -28q-35 0 -62.5 5.5t-68.5 17.5q-29 -10 -60.5 -37t-31.5 -61q0 -20 8 -37t31.5 -28t65.5 -17.5t108 -6.5h86q211 0 310 -63.5t99 -187.5q0 -78 -38.5 -143.5t-107.5 -114t-161 -76t-198 -27.5q-92 0 -172 19.5t-138.5 55.5t-92.5 86t-34 114q0 80 51.5 140.5 t149.5 78.5zM600 1198q0 -49 -32.5 -86t-85.5 -37t-85 37t-32 86q0 51 31.5 88t85.5 37q53 0 85.5 -37t32.5 -88z" />
<glyph unicode="&#x122;" horiz-adv-x="1310" d="M1186 92q-100 -61 -223 -92t-228 -31q-141 0 -259 47t-203 134.5t-132 210t-47 276.5t48 277.5t133 211.5t203 136.5t257 48.5q113 0 229.5 -30t196.5 -81l-57 -160q-78 49 -174 82t-195 33q-104 0 -190 -35t-146.5 -101.5t-94.5 -160.5t-34 -213t34 -215t95.5 -163.5 t148.5 -104.5t191 -37q80 0 151 18.5t128 46.5v304h-359v161h527v-563v0zM612 -205q4 35 34 68t83 33q61 0 103.5 -44.5t42.5 -109.5q0 -96 -62.5 -165t-159.5 -126l-61 53q45 29 70.5 54.5t40 47t18.5 40t4 35.5q0 37 -21.5 61t-91.5 53z" />
<glyph unicode="&#x123;" horiz-adv-x="974" d="M260 612q0 -94 58.5 -151.5t160.5 -57.5q92 0 146.5 60.5t54.5 159.5q0 92 -53.5 151.5t-161.5 59.5q-92 0 -148.5 -62t-56.5 -160zM342 -45q-72 -20 -117 -59t-45 -93q0 -76 81 -125t216 -49q66 0 123 13.5t100 39t68 60.5t25 78q0 78 -70 102.5t-211 24.5q-45 0 -92 2 t-78 6zM215 -14q-59 27 -91 67.5t-32 89.5q0 59 42 108.5t114 74.5q-74 43 -115 116.5t-41 171.5q0 70 25.5 133.5t74 112.5t119 79t162.5 30q76 0 136.5 -16.5t105.5 -37.5l241 23l7 -166l-181 33q29 -27 46.5 -83t17.5 -110q0 -72 -27.5 -134t-78 -108t-119 -74 t-150.5 -28q-35 0 -62.5 5.5t-68.5 17.5q-29 -10 -60.5 -37t-31.5 -61q0 -20 8 -37t31.5 -28t65.5 -17.5t108 -6.5h86q211 0 310 -63.5t99 -187.5q0 -78 -38.5 -143.5t-107.5 -114t-161 -76t-198 -27.5q-92 0 -172 19.5t-138.5 55.5t-92.5 86t-34 114q0 80 51.5 140.5 t149.5 78.5zM601.017 1162.99q-3.99902 -34.998 -33.998 -67.9961q-29.998 -32.9971 -82.9941 -32.9971q-60.9971 0 -103.494 44.4971t-42.4971 109.493q0 95.9941 62.4961 164.99q62.4961 68.9951 159.49 125.992l60.9961 -52.9971q-44.9971 -28.998 -70.4961 -54.4971 q-25.498 -25.498 -39.9971 -46.9971q-14.499 -21.498 -18.499 -39.9971t-4 -35.498q0 -36.998 21.499 -60.9961q21.499 -23.999 91.4941 -52.9971z" />
<glyph unicode="&#x124;" horiz-adv-x="1372" d="M1038 0v565h-702v-565h-174v1280h174v-557h702v557h172v-1280h-172zM895 1407l-200 260h-2l-203 -260h-123l235 383h181l235 -383h-123z" />
<glyph unicode="&#x125;" horiz-adv-x="1058" d="M754 0v590q0 123 -46 170t-139 47q-82 0 -148.5 -32t-107.5 -70v-705h-168v1380l168 27v-576q66 66 146 102t170 36q135 0 214 -85t79 -239v-645h-168zM442 1407l-200 260h-2l-203 -260h-123l235 383h181l235 -383h-123z" />
<glyph unicode="&#x126;" horiz-adv-x="1372" d="M1038 0v565h-702v-565h-174v918h-164l8 108h156v254h174v-254h702v254h172v-254h144l10 -108h-154v-918h-172zM1038 723v195h-702v-195h702z" />
<glyph unicode="&#x127;" horiz-adv-x="1058" d="M754 0v590q0 123 -46 170t-139 47q-82 0 -148.5 -32t-107.5 -70v-705h-168v1102h-139l8 108h131v170l168 27v-197h213l11 -108h-224v-271q66 66 146 102t170 36q135 0 214 -85t79 -239v-645h-168z" />
<glyph unicode="&#x12a;" horiz-adv-x="505" d="M166 0v1280h172v-1280h-172zM-25 1444l8 108h545l10 -108h-563z" />
<glyph unicode="&#x12b;" horiz-adv-x="458" d="M152 0v924l167 26v-950h-167zM-47 1102l8 108h545l10 -108h-563z" />
<glyph unicode="&#x12c;" horiz-adv-x="505" d="M166 0v1280h172v-1280h-172zM585 1788q-10 -82 -34.5 -151.5t-64.5 -121t-97.5 -81t-130.5 -29.5q-74 0 -131.5 29.5t-97.5 81t-64.5 121t-34.5 151.5h137q8 -51 24.5 -96t39 -79t54.5 -54.5t73 -20.5t72.5 20.5t55 54.5t39 79t23.5 96h137v0z" />
<glyph unicode="&#x12d;" horiz-adv-x="458" d="M152 0v924l167 26v-950h-167zM563 1446q-10 -82 -34.5 -151.5t-64.5 -121t-97.5 -81t-130.5 -29.5q-74 0 -131.5 29.5t-97.5 81t-64.5 121t-34.5 151.5h137q8 -51 24.5 -96t39 -79t54.5 -54.5t73 -20.5t72.5 20.5t55 54.5t39 79t23.5 96h137v0z" />
<glyph unicode="&#x12e;" horiz-adv-x="505" d="M264 -444q-96 0 -156.5 52t-60.5 144q0 80 46 143.5t114 104.5h-41v1280h172v-1280q-59 -47 -91 -94t-32 -101q0 -47 23.5 -73.5t68.5 -26.5q29 0 56.5 8t48.5 25l37 -127q-33 -23 -78.5 -39t-106.5 -16z" />
<glyph unicode="&#x12f;" horiz-adv-x="458" d="M240 -444q-96 0 -156.5 52t-60.5 144q0 80 46 143.5t115 104.5h-39v942l168 27v-969q-59 -47 -91 -94t-32 -101q0 -47 24 -73.5t69 -26.5q29 0 56.5 8t47.5 25l37 -127q-33 -23 -78 -39t-106 -16zM340 1266q0 -47 -26.5 -84t-84.5 -37q-57 0 -83.5 37t-26.5 84t26.5 83.5 t83.5 36.5t84 -36.5t27 -83.5z" />
<glyph unicode="&#x130;" horiz-adv-x="505" d="M166 0v1280h172v-1280h-172zM374 1540q0 -49 -32.5 -86t-85.5 -37t-85 37t-32 86q0 51 31.5 88t85.5 37q53 0 85.5 -37t32.5 -88z" />
<glyph unicode="&#x131;" horiz-adv-x="458" d="M152 0v924l167 26v-950h-167z" />
<glyph unicode="&#x134;" horiz-adv-x="856" d="M696 389q0 -94 -22.5 -171t-69.5 -132t-119.5 -86t-173.5 -31q-84 0 -157.5 23.5t-124.5 56.5l26 168q59 -41 121 -65.5t133 -24.5q111 0 163 67.5t52 202.5v883h172v-891v0zM807 1407l-200 260h-2l-203 -260h-123l235 383h181l235 -383h-123z" />
<glyph unicode="&#x135;" horiz-adv-x="452" d="M-18 -391q43 20 74.5 48t51 66.5t28.5 94t9 131.5v993l168 27v-1008q0 -100 -12 -174t-37.5 -129t-67.5 -95t-102 -73zM434 1065l-200 260h-2l-203 -260h-123l235 383h181l235 -383h-123z" />
<glyph unicode="&#x136;" horiz-adv-x="1122" d="M338 670l543 610h219l-592 -633l598 -647h-223l-545 608h-2v-608h-174v1280h174v-610h2zM473 -205q4 35 34 68t83 33q61 0 103.5 -44.5t42.5 -109.5q0 -96 -62.5 -165t-159.5 -126l-61 53q45 29 70.5 54.5t40 47t18.5 40t4 35.5q0 37 -21.5 61t-91.5 53z" />
<glyph unicode="&#x137;" horiz-adv-x="933" d="M313 463v-463h-168v1380l168 27v-899h4l388 430h213l-431 -444l433 -494h-215l-388 463h-4zM360 -205q4 35 34 68t83 33q61 0 103.5 -44.5t42.5 -109.5q0 -96 -62.5 -165t-159.5 -126l-61 53q45 29 70.5 54.5t40 47t18.5 40t4 35.5q0 37 -21.5 61t-91.5 53z" />
<glyph unicode="&#x139;" horiz-adv-x="1011" d="M162 0v1280h174v-1116h618v-164h-792zM283 1407h-123l217 371h205z" />
<glyph unicode="&#x13a;" horiz-adv-x="458" d="M145 0v1380l168 27v-1407h-168zM258 1471h-123l217 371h205z" />
<glyph unicode="&#x13b;" horiz-adv-x="1011" d="M162 0v1280h174v-1116h618v-164h-792zM401 -205q4 35 34 68t83 33q61 0 103.5 -44.5t42.5 -109.5q0 -96 -62.5 -165t-159.5 -126l-61 53q45 29 70.5 54.5t40 47t18.5 40t4 35.5q0 37 -21.5 61t-91.5 53z" />
<glyph unicode="&#x13c;" horiz-adv-x="458" d="M145 0v1380l168 27v-1407h-168zM102 -205q4 35 34 68t83 33q61 0 103.5 -44.5t42.5 -109.5q0 -96 -62.5 -165t-159.5 -126l-61 53q45 29 70.5 54.5t40 47t18.5 40t4 35.5q0 37 -21.5 61t-91.5 53z" />
<glyph unicode="&#x13d;" horiz-adv-x="1236" d="M162 0v1280h174v-1116h618v-164h-792zM969 1186q6 49 40 85t99 36q31 0 62.5 -14.5t56.5 -39t40 -58t15 -74.5q0 -63 -25.5 -119.5t-68.5 -106t-97 -93.5t-112 -81l-71 70q209 152 208 260q0 39 -31.5 67.5t-115.5 67.5z" />
<glyph unicode="&#x13e;" horiz-adv-x="909" d="M145 0v1380l168 27v-1407h-168zM543 1304q6 49 40 85t99 36q31 0 62.5 -14.5t56.5 -39t40 -58t15 -74.5q0 -63 -25.5 -119.5t-68.5 -106t-97 -93.5t-112 -81l-71 70q209 152 208 260q0 39 -31.5 67.5t-115.5 67.5z" />
<glyph unicode="&#x13f;" horiz-adv-x="1140" d="M162 0v1280h174v-1116h618v-164h-792zM1255 641q0 -53 -35.5 -93t-93.5 -40q-59 0 -96 40t-37 93t37 91t96 38q57 0 93 -38t36 -91z" />
<glyph unicode="&#x140;" horiz-adv-x="813" d="M145 0v1380l168 27v-1407h-168zM761 641q0 -53 -35.5 -93t-93.5 -40q-59 0 -96 40t-37 93t37 91t96 38q57 0 93 -38t36 -91z" />
<glyph unicode="&#x141;" horiz-adv-x="1046" d="M381 168h618v-168h-790v502l-172 -45v149l172 47v627h172v-582l319 86v-149l-319 -86v-381z" />
<glyph unicode="&#x142;" horiz-adv-x="534" d="M360 0h-167v500l-173 -45v155q49 12 86 23q31 8 60 16q14 4 27 6v725l167 27v-707l86 25q37 10 86 23v-156l-172 -47v-545z" />
<glyph unicode="&#x143;" horiz-adv-x="1368" d="M1036 1280h170v-1292h-188l-686 1044v-1032h-170v1280h192l682 -1032v1032zM676 1407h-123l217 371h205z" />
<glyph unicode="&#x144;" horiz-adv-x="1058" d="M754 0v590q0 123 -47.5 170t-147.5 47q-74 0 -139.5 -32t-106.5 -70v-705h-168v942l168 27v-142q66 66 145 104t160 38q143 0 223.5 -85t80.5 -239v-645h-168zM498 1065h-123l217 371h205z" />
<glyph unicode="&#x145;" horiz-adv-x="1368" d="M1036 1280h170v-1292h-188l-686 1044v-1032h-170v1280h192l682 -1032v1032zM557 -205q4 35 34 68t83 33q61 0 103.5 -44.5t42.5 -109.5q0 -96 -62.5 -165t-159.5 -126l-61 53q45 29 70.5 54.5t40 47t18.5 40t4 35.5q0 37 -21.5 61t-91.5 53z" />
<glyph unicode="&#x146;" horiz-adv-x="1058" d="M754 0v590q0 123 -47.5 170t-147.5 47q-74 0 -139.5 -32t-106.5 -70v-705h-168v942l168 27v-142q66 66 145 104t160 38q143 0 223.5 -85t80.5 -239v-645h-168zM407 -205q4 35 34 68t83 33q61 0 103.5 -44.5t42.5 -109.5q0 -96 -62.5 -165t-159.5 -126l-61 53 q45 29 70.5 54.5t40 47t18.5 40t4 35.5q0 37 -21.5 61t-91.5 53z" />
<glyph unicode="&#x147;" horiz-adv-x="1368" d="M1036 1280h170v-1292h-188l-686 1044v-1032h-170v1280h192l682 -1032v1032zM781 1407h-181l-235 383h123l201 -260h2l202 260h123z" />
<glyph unicode="&#x148;" horiz-adv-x="1058" d="M754 0v590q0 123 -47.5 170t-147.5 47q-74 0 -139.5 -32t-106.5 -70v-705h-168v942l168 27v-142q66 66 145 104t160 38q143 0 223.5 -85t80.5 -239v-645h-168zM613 1065h-181l-235 383h123l201 -260h2l202 260h123z" />
<glyph unicode="&#x14c;" horiz-adv-x="1474" d="M1380 645q0 -143 -47 -267t-133 -214t-203.5 -142.5t-259.5 -52.5q-141 0 -259 47t-203 134.5t-133 211t-48 275.5q0 143 47 266t133 214t204 142.5t259 51.5t259 -47t203 -134.5t133 -210t48 -274.5zM1206 637q0 119 -34.5 214t-97 162.5t-149.5 104.5t-192 37 q-102 0 -187 -37t-146.5 -103.5t-95.5 -160.5t-34 -209q0 -119 34 -215t96.5 -163.5t149.5 -104.5t191 -37q102 0 187.5 37t147 104.5t96 161.5t34.5 209zM444 1444l8 108h545l10 -108h-563z" />
<glyph unicode="&#x14d;" horiz-adv-x="1081" d="M997 469q0 -113 -34.5 -205t-96 -157.5t-146.5 -101.5t-183 -36q-100 0 -183.5 36t-143.5 100.5t-93 156.5t-33 207q0 113 34 205t95 158.5t146 102.5t188 36q100 0 183 -36t142.5 -101.5t92 -158.5t32.5 -206zM831 467q0 76 -19 140.5t-57 111.5t-92.5 73.5t-123.5 26.5 q-70 0 -124.5 -25.5t-91 -71.5t-55 -110.5t-18.5 -140.5t19.5 -139.5t57.5 -110.5t92 -73.5t124 -26.5t124 25.5t91 71.5t55 109.5t18 139.5zM252 1102l8 108h545l10 -108h-563z" />
<glyph unicode="&#x14e;" horiz-adv-x="1474" d="M1380 645q0 -143 -47 -267t-133 -214t-203.5 -142.5t-259.5 -52.5q-141 0 -259 47t-203 134.5t-133 211t-48 275.5q0 143 47 266t133 214t204 142.5t259 51.5t259 -47t203 -134.5t133 -210t48 -274.5zM1206 637q0 119 -34.5 214t-97 162.5t-149.5 104.5t-192 37 q-102 0 -187 -37t-146.5 -103.5t-95.5 -160.5t-34 -209q0 -119 34 -215t96.5 -163.5t149.5 -104.5t191 -37q102 0 187.5 37t147 104.5t96 161.5t34.5 209zM1046 1788q-10 -82 -34.5 -151.5t-64.5 -121t-97.5 -81t-130.5 -29.5q-74 0 -131.5 29.5t-97.5 81t-64.5 121 t-34.5 151.5h137q8 -51 24.5 -96t39 -79t54.5 -54.5t73 -20.5t72.5 20.5t55 54.5t39 79t23.5 96h137v0z" />
<glyph unicode="&#x14f;" horiz-adv-x="1081" d="M997 469q0 -113 -34.5 -205t-96 -157.5t-146.5 -101.5t-183 -36q-100 0 -183.5 36t-143.5 100.5t-93 156.5t-33 207q0 113 34 205t95 158.5t146 102.5t188 36q100 0 183 -36t142.5 -101.5t92 -158.5t32.5 -206zM831 467q0 76 -19 140.5t-57 111.5t-92.5 73.5t-123.5 26.5 q-70 0 -124.5 -25.5t-91 -71.5t-55 -110.5t-18.5 -140.5t19.5 -139.5t57.5 -110.5t92 -73.5t124 -26.5t124 25.5t91 71.5t55 109.5t18 139.5zM850 1446q-10 -82 -34.5 -151.5t-64.5 -121t-97.5 -81t-130.5 -29.5q-74 0 -131.5 29.5t-97.5 81t-64.5 121t-34.5 151.5h137 q8 -51 24.5 -96t39 -79t54.5 -54.5t73 -20.5t72.5 20.5t55 54.5t39 79t23.5 96h137v0z" />
<glyph unicode="&#x150;" horiz-adv-x="1474" d="M1380 645q0 -143 -47 -267t-133 -214t-203.5 -142.5t-259.5 -52.5q-141 0 -259 47t-203 134.5t-133 211t-48 275.5q0 143 47 266t133 214t204 142.5t259 51.5t259 -47t203 -134.5t133 -210t48 -274.5zM1206 637q0 119 -34.5 214t-97 162.5t-149.5 104.5t-192 37 q-102 0 -187 -37t-146.5 -103.5t-95.5 -160.5t-34 -209q0 -119 34 -215t96.5 -163.5t149.5 -104.5t191 -37q102 0 187.5 37t147 104.5t96 161.5t34.5 209zM883 1407h-146l275 362h172zM549 1407h-144l228 362h170z" />
<glyph unicode="&#x151;" horiz-adv-x="1081" d="M997 469q0 -113 -34.5 -205t-96 -157.5t-146.5 -101.5t-183 -36q-100 0 -183.5 36t-143.5 100.5t-93 156.5t-33 207q0 113 34 205t95 158.5t146 102.5t188 36q100 0 183 -36t142.5 -101.5t92 -158.5t32.5 -206zM831 467q0 76 -19 140.5t-57 111.5t-92.5 73.5t-123.5 26.5 q-70 0 -124.5 -25.5t-91 -71.5t-55 -110.5t-18.5 -140.5t19.5 -139.5t57.5 -110.5t92 -73.5t124 -26.5t124 25.5t91 71.5t55 109.5t18 139.5zM697 1065h-146l275 362h172zM363 1065h-144l228 362h170z" />
<glyph unicode="&#x152;" horiz-adv-x="1888" d="M1800 1118h-637v-395h531v-162h-531v-399h637v-162h-1022q-160 0 -284.5 45t-212.5 128t-134.5 198.5t-46.5 259.5q0 147 45 268t133.5 205t215.5 130t292 46h1014v-162zM274 643q0 -238 134.5 -359.5t377.5 -121.5h203v956h-211q-115 0 -208 -29.5t-158.5 -90 t-101.5 -149.5t-36 -206z" />
<glyph unicode="&#x153;" horiz-adv-x="1740" d="M1501 575v15q0 104 -51 167.5t-162 63.5q-59 0 -107 -21.5t-82 -57t-53.5 -81t-25.5 -90.5zM250 471q0 -76 19.5 -139.5t57.5 -110.5t92 -73.5t124 -26.5t124 25.5t91 71.5t55 109.5t18 139.5t-19 140.5t-57 111.5t-92.5 73.5t-123.5 26.5q-70 0 -124.5 -25.5t-91 -71.5 t-55 -110.5t-18.5 -140.5zM915 180q-59 -100 -156 -155.5t-222 -55.5q-100 0 -183.5 36t-143.5 100.5t-93 156.5t-33 207q0 113 34 205t95 158.5t146 102.5t188 36q129 0 224 -56.5t151 -158.5q61 100 160.5 156.5t222.5 56.5q172 0 265 -99.5t93 -267.5q0 -39 -5 -79 t-16 -70h-28q-27 0 -71 -1t-100.5 -1h-115.5q-139 -2 -315 -2v-9q2 -70 25.5 -127t63.5 -99t96 -65.5t124 -23.5q74 0 148.5 19.5t132.5 58.5l30 -156q-63 -39 -144 -58.5t-171 -19.5q-135 0 -238 56.5t-164 154.5z" />
<glyph unicode="&#x154;" horiz-adv-x="1116" d="M336 0h-174v1280h383q233 0 352 -101.5t119 -273.5q0 -145 -78 -235t-211 -133l346 -537h-207l-311 508l-219 -14v-494zM547 653q63 2 116.5 18.5t93.5 47.5t62.5 75t22.5 103q0 115 -85 169t-233 54h-188v-473zM492 1407h-123l217 371h205z" />
<glyph unicode="&#x155;" horiz-adv-x="780" d="M313 0h-168v942l168 27v-166q49 78 110.5 122t151.5 44q100 0 177 -47l-43 -158q-39 23 -77 33t-73 10q-68 0 -130 -48t-116 -147v-612zM432 1065h-123l217 371h205z" />
<glyph unicode="&#x156;" horiz-adv-x="1116" d="M336 0h-174v1280h383q233 0 352 -101.5t119 -273.5q0 -145 -78 -235t-211 -133l346 -537h-207l-311 508l-219 -14v-494zM547 653q63 2 116.5 18.5t93.5 47.5t62.5 75t22.5 103q0 115 -85 169t-233 54h-188v-473zM430 -205q4 35 34 68t83 33q61 0 103.5 -44.5t42.5 -109.5 q0 -96 -62.5 -165t-159.5 -126l-61 53q45 29 70.5 54.5t40 47t18.5 40t4 35.5q0 37 -21.5 61t-91.5 53z" />
<glyph unicode="&#x157;" horiz-adv-x="780" d="M313 0h-168v942l168 27v-166q49 78 110.5 122t151.5 44q100 0 177 -47l-43 -158q-39 23 -77 33t-73 10q-68 0 -130 -48t-116 -147v-612zM110 -205q4 35 34 68t83 33q61 0 103.5 -44.5t42.5 -109.5q0 -96 -62.5 -165t-159.5 -126l-61 53q45 29 70.5 54.5t40 47t18.5 40 t4 35.5q0 37 -21.5 61t-91.5 53z" />
<glyph unicode="&#x158;" horiz-adv-x="1116" d="M336 0h-174v1280h383q233 0 352 -101.5t119 -273.5q0 -145 -78 -235t-211 -133l346 -537h-207l-311 508l-219 -14v-494zM547 653q63 2 116.5 18.5t93.5 47.5t62.5 75t22.5 103q0 115 -85 169t-233 54h-188v-473zM625 1407h-181l-235 383h123l201 -260h2l202 260h123z" />
<glyph unicode="&#x159;" horiz-adv-x="780" d="M313 0h-168v942l168 27v-166q49 78 110.5 122t151.5 44q100 0 177 -47l-43 -158q-39 23 -77 33t-73 10q-68 0 -130 -48t-116 -147v-612zM494 1065h-181l-235 383h123l201 -260h2l202 260h123z" />
<glyph unicode="&#x15a;" horiz-adv-x="1042" d="M506 125q123 0 200.5 59.5t77.5 155.5q0 98 -74.5 146.5t-232.5 88.5q-68 18 -136.5 44t-123.5 69t-89 106.5t-34 155.5q0 80 31 146.5t88 115t135 74t174 25.5q221 0 404 -113l-62 -151q-74 49 -164 77.5t-176 28.5q-139 0 -199.5 -55.5t-60.5 -134.5q0 -96 80 -142.5 t231 -87.5q70 -18 137.5 -46t121 -72t86 -108.5t32.5 -154.5q0 -84 -32.5 -153.5t-92 -120.5t-142.5 -80t-183 -29q-113 0 -224.5 31t-203.5 90l57 158q82 -53 172 -88t203 -35zM484 1407h-123l217 371h205z" />
<glyph unicode="&#x15b;" horiz-adv-x="821" d="M745 266q0 -68 -26.5 -122t-73.5 -94t-112.5 -61.5t-141.5 -21.5q-86 0 -174 23.5t-154 64.5l43 154q59 -41 138.5 -64.5t150.5 -23.5q80 0 133.5 34.5t53.5 98.5q0 35 -19.5 59.5t-50.5 42t-71 29.5t-81 25q-49 14 -99 34.5t-90 52t-64.5 76.5t-24.5 111t25.5 118 t71.5 89t106.5 57.5t132.5 20.5q82 0 159.5 -18.5t143.5 -51.5l-43 -154q-59 33 -134 51.5t-134 18.5q-76 0 -121 -29.5t-45 -87.5q0 -35 17.5 -58.5t47 -39.5t69.5 -28.5t83 -24.5q51 -14 102 -34.5t91 -52.5t65.5 -79t25.5 -115zM414 1065h-123l217 371h205z" />
<glyph unicode="&#x15c;" horiz-adv-x="1042" d="M506 125q123 0 200.5 59.5t77.5 155.5q0 98 -74.5 146.5t-232.5 88.5q-68 18 -136.5 44t-123.5 69t-89 106.5t-34 155.5q0 80 31 146.5t88 115t135 74t174 25.5q221 0 404 -113l-62 -151q-74 49 -164 77.5t-176 28.5q-139 0 -199.5 -55.5t-60.5 -134.5q0 -96 80 -142.5 t231 -87.5q70 -18 137.5 -46t121 -72t86 -108.5t32.5 -154.5q0 -84 -32.5 -153.5t-92 -120.5t-142.5 -80t-183 -29q-113 0 -224.5 31t-203.5 90l57 158q82 -53 172 -88t203 -35zM725 1407l-200 260h-2l-203 -260h-123l235 383h181l235 -383h-123z" />
<glyph unicode="&#x15d;" horiz-adv-x="821" d="M745 266q0 -68 -26.5 -122t-73.5 -94t-112.5 -61.5t-141.5 -21.5q-86 0 -174 23.5t-154 64.5l43 154q59 -41 138.5 -64.5t150.5 -23.5q80 0 133.5 34.5t53.5 98.5q0 35 -19.5 59.5t-50.5 42t-71 29.5t-81 25q-49 14 -99 34.5t-90 52t-64.5 76.5t-24.5 111t25.5 118 t71.5 89t106.5 57.5t132.5 20.5q82 0 159.5 -18.5t143.5 -51.5l-43 -154q-59 33 -134 51.5t-134 18.5q-76 0 -121 -29.5t-45 -87.5q0 -35 17.5 -58.5t47 -39.5t69.5 -28.5t83 -24.5q51 -14 102 -34.5t91 -52.5t65.5 -79t25.5 -115zM635 1065l-200 260h-2l-203 -260h-123 l235 383h181l235 -383h-123z" />
<glyph unicode="&#x15e;" horiz-adv-x="1042" d="M469 -139q121 0 186.5 -45t65.5 -123q0 -86 -78 -145.5t-258 -82.5l-12 107q115 6 166 36t51 75q0 47 -58.5 68.5t-187.5 0.5l-16 86l133 133q-104 4 -203.5 35t-183.5 84l57 158q82 -53 172 -88t203 -35q123 0 200.5 59.5t77.5 155.5q0 98 -74.5 146.5t-232.5 88.5 q-68 18 -136.5 44t-123.5 69t-89 106.5t-34 155.5q0 80 31 146.5t88 115t135 74t174 25.5q221 0 404 -113l-62 -151q-74 49 -164 77.5t-176 28.5q-139 0 -199.5 -55.5t-60.5 -134.5q0 -96 80 -142.5t231 -87.5q70 -18 137.5 -46t121 -72t86 -108.5t32.5 -154.5 q0 -74 -26.5 -137t-73.5 -112.5t-115.5 -82t-150.5 -45.5l-117 -114v0z" />
<glyph unicode="&#x15f;" horiz-adv-x="821" d="M354 -139q121 0 186.5 -45t65.5 -123q0 -86 -77.5 -145.5t-258.5 -82.5l-12 107q115 6 166 36t51 75q0 47 -58.5 68.5t-187.5 0.5l-16 86l133 131q-78 6 -152.5 28.5t-130.5 57.5l43 154q59 -41 138.5 -64.5t150.5 -23.5q80 0 133.5 34.5t53.5 98.5q0 35 -19.5 59.5 t-50.5 42t-71 29.5t-81 25q-49 14 -99 34.5t-90 52t-64.5 76.5t-24.5 111t25.5 118t71.5 89t106.5 57.5t132.5 20.5q82 0 159.5 -18.5t143.5 -51.5l-43 -154q-59 33 -134 51.5t-134 18.5q-76 0 -121 -29.5t-45 -87.5q0 -35 17.5 -58.5t47 -39.5t69.5 -28.5t83 -24.5 q51 -14 102 -34.5t91 -52.5t65.5 -79t25.5 -115q0 -117 -76.5 -194.5t-199.5 -98.5l-115 -112v0z" />
<glyph unicode="&#x160;" horiz-adv-x="1042" d="M506 125q123 0 200.5 59.5t77.5 155.5q0 98 -74.5 146.5t-232.5 88.5q-68 18 -136.5 44t-123.5 69t-89 106.5t-34 155.5q0 80 31 146.5t88 115t135 74t174 25.5q221 0 404 -113l-62 -151q-74 49 -164 77.5t-176 28.5q-139 0 -199.5 -55.5t-60.5 -134.5q0 -96 80 -142.5 t231 -87.5q70 -18 137.5 -46t121 -72t86 -108.5t32.5 -154.5q0 -84 -32.5 -153.5t-92 -120.5t-142.5 -80t-183 -29q-113 0 -224.5 31t-203.5 90l57 158q82 -53 172 -88t203 -35zM616 1407h-180l-235 383h123l200 -260h2l203 260h123z" />
<glyph unicode="&#x161;" horiz-adv-x="821" d="M745 266q0 -68 -26.5 -122t-73.5 -94t-112.5 -61.5t-141.5 -21.5q-86 0 -174 23.5t-154 64.5l43 154q59 -41 138.5 -64.5t150.5 -23.5q80 0 133.5 34.5t53.5 98.5q0 35 -19.5 59.5t-50.5 42t-71 29.5t-81 25q-49 14 -99 34.5t-90 52t-64.5 76.5t-24.5 111t25.5 118 t71.5 89t106.5 57.5t132.5 20.5q82 0 159.5 -18.5t143.5 -51.5l-43 -154q-59 33 -134 51.5t-134 18.5q-76 0 -121 -29.5t-45 -87.5q0 -35 17.5 -58.5t47 -39.5t69.5 -28.5t83 -24.5q51 -14 102 -34.5t91 -52.5t65.5 -79t25.5 -115zM506 1065h-180l-236 383h123l201 -260h2 l202 260h123z" />
<glyph unicode="&#x162;" horiz-adv-x="1146" d="M659 1116v-1116h-172v1116h-448v164h1069v-164h-449zM446 -205q4 35 34 68t83 33q61 0 103.5 -44.5t42.5 -109.5q0 -96 -62.5 -165t-159.5 -126l-61 53q45 29 70.5 54.5t40 47t18.5 40t4 35.5q0 37 -21.5 61t-91.5 53z" />
<glyph unicode="&#x163;" horiz-adv-x="694" d="M639 10q-106 -41 -211 -41q-137 0 -206.5 70t-65.5 223l14 524l-156 11l6 106l156 47l4 203h162l-6 -215h293l-6 -152h-293l-15 -530q-4 -133 123 -133q43 0 86 9t84 26l17 -74q8 -33 14 -74zM266 -205q4 35 34 68t83 33q61 0 103.5 -44.5t42.5 -109.5q0 -96 -62.5 -165 t-159.5 -126l-61 53q45 29 70.5 54.5t40 47t18.5 40t4 35.5q0 37 -21.5 61t-91.5 53z" />
<glyph unicode="&#x164;" horiz-adv-x="1146" d="M659 1116v-1116h-172v1116h-448v164h1069v-164h-449zM670 1407h-181l-235 383h123l201 -260h2l202 260h123z" />
<glyph unicode="&#x165;" horiz-adv-x="776" d="M639 10q-106 -41 -211 -41q-137 0 -206.5 70t-65.5 223l14 524l-156 11l6 106l156 47l4 203h162l-6 -215h293l-6 -152h-293l-15 -530q-4 -133 123 -133q43 0 86 9t84 26l17 -74q8 -33 14 -74zM470.199 1364.98q4.7998 39.2002 31.999 67.999 q27.2002 28.7998 79.1992 28.7998q24.7998 0 49.999 -11.5996t45.1992 -31.1992t32 -46.3994q11.999 -26.7998 11.999 -59.5996q0 -50.3994 -20.3994 -95.5986t-54.7988 -84.7988q-34.3994 -39.5986 -77.5986 -74.7988q-43.2002 -35.1992 -89.5986 -64.7988l-56.7998 55.999 q167.198 121.599 166.397 207.997q0 31.1992 -25.1992 53.999t-92.3984 53.999z" />
<glyph unicode="&#x16a;" horiz-adv-x="1323" d="M1163 494q0 -244 -126 -384.5t-378 -140.5q-121 0 -214 36t-156.5 101.5t-96 159.5t-32.5 209v805h172v-778q0 -174 83 -271.5t255 -97.5q150 0 235.5 88t85.5 268v791h172v-786v0zM385 1444l8 108h545l10 -108h-563z" />
<glyph unicode="&#x16b;" horiz-adv-x="1058" d="M305 938v-590q0 -123 46 -170t138 -47q82 0 149 32t107 70v705h168v-942l-168 -27v137q-66 -66 -145.5 -101.5t-169.5 -35.5q-135 0 -214 85t-79 239v645h168zM244 1102l8 108h545l10 -108h-563z" />
<glyph unicode="&#x16c;" horiz-adv-x="1323" d="M1163 494q0 -244 -126 -384.5t-378 -140.5q-121 0 -214 36t-156.5 101.5t-96 159.5t-32.5 209v805h172v-778q0 -174 83 -271.5t255 -97.5q150 0 235.5 88t85.5 268v791h172v-786v0zM995 1788q-10 -82 -34.5 -151.5t-64.5 -121t-97.5 -81t-130.5 -29.5q-74 0 -131.5 29.5 t-97.5 81t-64.5 121t-34.5 151.5h137q8 -51 24.5 -96t39 -79t54.5 -54.5t73 -20.5t72.5 20.5t55 54.5t39 79t23.5 96h137v0z" />
<glyph unicode="&#x16d;" horiz-adv-x="1058" d="M305 938v-590q0 -123 46 -170t138 -47q82 0 149 32t107 70v705h168v-942l-168 -27v137q-66 -66 -145.5 -101.5t-169.5 -35.5q-135 0 -214 85t-79 239v645h168zM848 1446q-10 -82 -34.5 -151.5t-64.5 -121t-97.5 -81t-130.5 -29.5q-74 0 -131.5 29.5t-97.5 81t-64.5 121 t-34.5 151.5h137q8 -51 24.5 -96t39 -79t54.5 -54.5t73 -20.5t72.5 20.5t55 54.5t39 79t23.5 96h137v0z" />
<glyph unicode="&#x16e;" horiz-adv-x="1323" d="M1163 494q0 -244 -126 -384.5t-378 -140.5q-121 0 -214 36t-156.5 101.5t-96 159.5t-32.5 209v805h172v-778q0 -174 83 -271.5t255 -97.5q150 0 235.5 88t85.5 268v791h172v-786v0zM922 1593q0 -47 -17.5 -87t-50.5 -70.5t-80 -48t-106 -17.5q-119 0 -186.5 65.5 t-67.5 157.5t67.5 159t186.5 67t185.5 -67t68.5 -159zM815 1595q0 55 -39 95.5t-108 40.5q-68 0 -107 -40t-39 -96q0 -55 39 -96t107 -41q70 0 108.5 41t38.5 96z" />
<glyph unicode="&#x16f;" horiz-adv-x="1058" d="M305 938v-590q0 -123 46 -170t138 -47q82 0 149 32t107 70v705h168v-942l-168 -27v137q-66 -66 -145.5 -101.5t-169.5 -35.5q-135 0 -214 85t-79 239v645h168zM783 1292q0 -47 -17.5 -87t-50.5 -70.5t-80 -48t-106 -17.5q-119 0 -186.5 65.5t-67.5 157.5t67.5 159 t186.5 67t185.5 -67t68.5 -159zM676 1294q0 55 -39 95.5t-108 40.5q-68 0 -107 -40t-39 -96q0 -55 39 -96t107 -41q70 0 108.5 41t38.5 96z" />
<glyph unicode="&#x170;" horiz-adv-x="1323" d="M1163 494q0 -244 -126 -384.5t-378 -140.5q-121 0 -214 36t-156.5 101.5t-96 159.5t-32.5 209v805h172v-778q0 -174 83 -271.5t255 -97.5q150 0 235.5 88t85.5 268v791h172v-786v0zM834 1407h-146l275 362h172zM500 1407h-144l228 362h170z" />
<glyph unicode="&#x171;" horiz-adv-x="1058" d="M305 938v-590q0 -123 46 -170t138 -47q82 0 149 32t107 70v705h168v-942l-168 -27v137q-66 -66 -145.5 -101.5t-169.5 -35.5q-135 0 -214 85t-79 239v645h168zM686 1065h-146l275 362h172zM352 1065h-144l228 362h170z" />
<glyph unicode="&#x172;" horiz-adv-x="1323" d="M1163 494q0 -334 -233 -471q-78 -47 -121 -101.5t-43 -116.5q0 -47 23.5 -73.5t68.5 -26.5q29 0 56.5 8t48.5 25l36 -127q-33 -23 -77.5 -39t-106.5 -16q-96 0 -156.5 52t-60.5 144q0 68 34 123t87 96q-16 0 -29.5 -1t-30.5 -1q-121 0 -214 36t-156.5 101.5t-96 159.5 t-32.5 209v805h172v-778q0 -174 83 -271.5t255 -97.5q150 0 235.5 88t85.5 268v791h172v-786v0z" />
<glyph unicode="&#x173;" horiz-adv-x="1058" d="M305 938v-590q0 -123 46 -170t138 -47q82 0 149 32t107 70v705h168v-942q-43 -8 -88 -28.5t-81.5 -47t-59 -56.5t-22.5 -59q0 -47 23.5 -73.5t68.5 -26.5q29 0 56.5 8t47.5 25l37 -127q-33 -23 -78 -39t-106 -16q-96 0 -156.5 52t-60.5 144q0 51 21.5 97.5t56 83 t79.5 64.5t94 44v65q-66 -66 -145.5 -101.5t-169.5 -35.5q-135 0 -214 85t-79 239v645h168z" />
<glyph unicode="&#x174;" horiz-adv-x="1839" d="M598 0h-170l-365 1280h183l276 -1042l301 1042h201l309 -1042l273 1042h170l-363 -1280h-174l-317 1065zM1128 1407l-200 260h-2l-203 -260h-123l235 383h181l235 -383h-123z" />
<glyph unicode="&#x175;" horiz-adv-x="1400" d="M317 -4l-288 942h180l199 -696l217 692h153l240 -694l172 698h186l-282 -942h-154l-240 700l-229 -700h-154zM909 1065l-200 260h-2l-203 -260h-123l235 383h181l235 -383h-123z" />
<glyph unicode="&#x176;" horiz-adv-x="1105" d="M641 508v-508h-174v510l-447 770h197l340 -598l336 598h192zM766 1407l-200 260h-2l-203 -260h-123l235 383h181l235 -383h-123z" />
<glyph unicode="&#x177;" horiz-adv-x="903" d="M524 -10l-63 -168q-35 -90 -70 -149.5t-75 -94.5t-85 -50t-100 -15q-53 0 -102 13t-97 36l50 155q37 -18 75.5 -31.5t73.5 -13.5q27 0 49.5 8.5t44 32t42 62.5t44.5 100l58 145l-365 918h180l273 -729l264 729h178zM653 1065l-200 260h-2l-203 -260h-123l235 383h181 l235 -383h-123z" />
<glyph unicode="&#x178;" horiz-adv-x="1105" d="M641 508v-508h-174v510l-447 770h197l340 -598l336 598h192zM889 1544q0 -53 -34 -91t-89 -38t-89 38t-34 91q0 51 34 89t89 38t89 -38t34 -89zM471 1544q0 -53 -35 -91t-90 -38q-53 0 -88 38t-35 91q0 51 35 89t88 38q55 0 90 -38t35 -89z" />
<glyph unicode="&#x179;" horiz-adv-x="1067" d="M47 0v131l725 987h-713v162h930v-135l-723 -983h721v-162h-940zM525 1407h-123l217 371h205z" />
<glyph unicode="&#x17a;" horiz-adv-x="839" d="M43 0v143l545 641h-527v154h730v-139l-545 -645h545v-154h-748zM398 1065h-123l217 371h205z" />
<glyph unicode="&#x17b;" horiz-adv-x="1067" d="M47 0v131l725 987h-713v162h930v-135l-723 -983h721v-162h-940zM637 1540q0 -49 -32.5 -86t-85.5 -37t-85 37t-32 86q0 51 31.5 88t85.5 37q53 0 85.5 -37t32.5 -88z" />
<glyph unicode="&#x17c;" horiz-adv-x="839" d="M43 0v143l545 641h-527v154h730v-139l-545 -645h545v-154h-748zM532 1198q0 -49 -32.5 -86t-85.5 -37t-85 37t-32 86q0 51 31.5 88t85.5 37q53 0 85.5 -37t32.5 -88z" />
<glyph unicode="&#x17d;" horiz-adv-x="1067" d="M47 0v131l725 987h-713v162h930v-135l-723 -983h721v-162h-940zM602 1407h-180l-236 383h123l201 -260h2l203 260h123z" />
<glyph unicode="&#x17e;" horiz-adv-x="839" d="M43 0v143l545 641h-527v154h730v-139l-545 -645h545v-154h-748zM496 1065h-181l-235 383h123l200 -260h3l202 260h123z" />
<glyph unicode="&#x192;" horiz-adv-x="729" d="M252 676l-223 12l28 107l226 45l30 149q29 145 95.5 224t197.5 79q68 0 124 -21.5t93 -49.5q0 -2 -11 -23.5t-26 -48.5q-16 -31 -34 -70q-35 23 -72 39.5t-74 16.5q-55 0 -87 -35t-50 -129l-27 -142h244l-22 -151h-250l-78 -406q-27 -137 -104.5 -211.5t-225.5 -97.5 l-39 154q98 10 147.5 53t63.5 117z" />
<glyph unicode="&#x1fa;" horiz-adv-x="1175" d="M590 1100l-221 -606h440zM461 1202q-57 29 -90 80t-33 115q0 45 17.5 86t50 71.5t78.5 48t106 17.5q59 0 105 -17.5t79 -48t50.5 -71.5t17.5 -86q2 -61 -31 -113.5t-92 -81.5l446 -1202h-178l-121 336h-555l-121 -336h-180zM739 1399q0 55 -40 95t-109 40q-68 0 -107 -40 t-39 -95t39 -96t107 -41q70 0 109.5 41t39.5 96zM518 1669h-123l217 371h205z" />
<glyph unicode="&#x1fb;" horiz-adv-x="923" d="M416 1573h-123l217 371h205zM627 467q-104 -14 -177 -32.5t-118 -43t-65.5 -57.5t-20.5 -76q0 -63 44 -104t122 -41q66 0 120 28.5t95 71.5v254zM625 100q-53 -63 -118 -97t-140 -34q-66 0 -121.5 20.5t-95 56.5t-61 85t-21.5 107q0 63 25.5 120.5t89 102.5t172 74.5 t272.5 37.5v27q0 115 -48.5 164t-162.5 49q-72 0 -155 -29.5t-148 -74.5l-33 151q61 43 156.5 76t195.5 33q193 0 280 -86t83 -279v-393q0 -29 3 -47.5t12 -28.5t27.5 -13t49.5 -3l-10 -142q-115 -10 -170.5 26t-73.5 97h-8zM693 1292q0 -47 -17.5 -87t-50.5 -70.5t-80 -48 t-106 -17.5q-119 0 -186.5 65.5t-67.5 157.5t67.5 159t186.5 67t185.5 -67t68.5 -159zM586 1294q0 55 -39 95.5t-108 40.5q-68 0 -107 -40t-39 -96q0 -55 39 -96t107 -41q70 0 108.5 41t38.5 96z" />
<glyph unicode="&#x1fc;" horiz-adv-x="1703" d="M807 496v624l-352 -624h352zM176 0h-192l731 1280h903v-162h-639v-395h532v-162h-532v-399h639v-162h-811v334h-445zM1037 1407h-123l217 371h205z" />
<glyph unicode="&#x1fd;" horiz-adv-x="1544" d="M725 162q-49 -76 -139 -134.5t-219 -58.5q-66 0 -121.5 20.5t-95 56.5t-61 85t-21.5 107q0 63 26.5 120.5t92 103.5t178 75.5t282.5 35.5v21q0 127 -58.5 173t-172.5 46q-72 0 -155 -29.5t-148 -74.5l-33 151q61 43 156.5 76t195.5 33q145 0 220 -43t110 -115 q55 72 143 115t199 43q172 0 265 -99.5t93 -267.5q0 -39 -5 -79t-15 -70h-28t-72 -1t-100 -1h-116q-139 -2 -315 -2v-9q2 -70 25.5 -127t63.5 -99t96.5 -65.5t123.5 -23.5q74 0 148.5 19.5t132.5 58.5l31 -156q-63 -39 -144.5 -58.5t-171.5 -19.5q-129 0 -229.5 52.5 t-161.5 140.5zM1300 575v15q0 104 -51 167.5t-162 63.5q-59 0 -107 -21.5t-82 -57t-53.5 -81t-25.5 -90.5zM647 467q-219 -20 -310 -71.5t-91 -137.5q0 -63 45 -104t131 -41q33 0 69.5 10t71.5 28.5t64.5 43t50.5 53.5q-6 14 -11 44t-9.5 62.5t-7.5 63.5t-3 49zM785 1065 h-123l217 371h205z" />
<glyph unicode="&#x1fe;" horiz-adv-x="1474" d="M1386 645q0 -143 -47 -266t-133 -214t-203.5 -143.5t-259.5 -52.5q-78 0 -150.5 15.5t-135.5 44.5l-95 -166h-131l127 221q-121 86 -189.5 226.5t-68.5 326.5q0 143 47.5 266t133.5 214t203.5 142.5t258.5 51.5q78 0 150 -15.5t137 -44.5l96 166h131l-127 -221 q119 -86 187.5 -225.5t68.5 -325.5zM950 1110q-92 45 -211 45q-102 0 -187 -37t-146.5 -103.5t-96.5 -160.5t-35 -209q0 -135 45.5 -240.5t122.5 -173.5zM537 170q92 -45 211 -45q102 0 187 37t146.5 104.5t95 161.5t33.5 209q0 135 -44 239.5t-122 172.5zM787 1407h-123 l217 371h205z" />
<glyph unicode="&#x1ff;" horiz-adv-x="1081" d="M1004 469q0 -113 -35 -205t-96.5 -157.5t-146.5 -101.5t-183 -36q-102 0 -193 39l-84 -145h-135q33 57 59 104q10 18 21.5 37t19.5 35q8 18 19 33q-76 66 -118 167t-42 230q0 113 34 205t95.5 158.5t146.5 102.5t187 36t192 -39l84 145h136l-121 -209q76 -66 118 -168 t42 -231zM668 795q-53 25 -123 24q-70 0 -124 -25.5t-91 -71.5t-55.5 -110.5t-18.5 -140.5q0 -164 76 -258zM838 467q0 164 -76 258l-334 -582q55 -23 121 -22q70 0 124 25.5t91 71.5t55.5 109.5t18.5 139.5zM488 1065h-123l217 371h205z" />
<glyph unicode="&#x218;" horiz-adv-x="1042" d="M506 125q123 0 200.5 59.5t77.5 155.5q0 98 -74.5 146.5t-232.5 88.5q-68 18 -136.5 44t-123.5 69t-89 106.5t-34 155.5q0 80 31 146.5t88 115t135 74t174 25.5q221 0 404 -113l-62 -151q-74 49 -164 77.5t-176 28.5q-139 0 -199.5 -55.5t-60.5 -134.5q0 -96 80 -142.5 t231 -87.5q70 -18 137.5 -46t121 -72t86 -108.5t32.5 -154.5q0 -84 -32.5 -153.5t-92 -120.5t-142.5 -80t-183 -29q-113 0 -224.5 31t-203.5 90l57 158q82 -53 172 -88t203 -35zM395 -205q4 35 34 68t83 33q61 0 103.5 -44.5t42.5 -109.5q0 -96 -62.5 -165t-159.5 -126 l-61 53q45 29 70.5 54.5t40 47t18.5 40t4 35.5q0 37 -21.5 61t-91.5 53z" />
<glyph unicode="&#x219;" horiz-adv-x="821" d="M745 266q0 -68 -26.5 -122t-73.5 -94t-112.5 -61.5t-141.5 -21.5q-86 0 -174 23.5t-154 64.5l43 154q59 -41 138.5 -64.5t150.5 -23.5q80 0 133.5 34.5t53.5 98.5q0 35 -19.5 59.5t-50.5 42t-71 29.5t-81 25q-49 14 -99 34.5t-90 52t-64.5 76.5t-24.5 111t25.5 118 t71.5 89t106.5 57.5t132.5 20.5q82 0 159.5 -18.5t143.5 -51.5l-43 -154q-59 33 -134 51.5t-134 18.5q-76 0 -121 -29.5t-45 -87.5q0 -35 17.5 -58.5t47 -39.5t69.5 -28.5t83 -24.5q51 -14 102 -34.5t91 -52.5t65.5 -79t25.5 -115zM262 -205q4 35 34 68t83 33 q61 0 103.5 -44.5t42.5 -109.5q0 -96 -62.5 -165t-159.5 -126l-61 53q45 29 70.5 54.5t40 47t18.5 40t4 35.5q0 37 -21.5 61t-91.5 53z" />
<glyph unicode="&#x21a;" horiz-adv-x="1146" d="M659 1116v-1116h-172v1116h-448v164h1069v-164h-449zM446 -205q4 35 34 68t83 33q61 0 103.5 -44.5t42.5 -109.5q0 -96 -62.5 -165t-159.5 -126l-61 53q45 29 70.5 54.5t40 47t18.5 40t4 35.5q0 37 -21.5 61t-91.5 53z" />
<glyph unicode="&#x21b;" horiz-adv-x="694" d="M639 10q-106 -41 -211 -41q-137 0 -206.5 70t-65.5 223l14 524l-156 11l6 106l156 47l4 203h162l-6 -215h293l-6 -152h-293l-15 -530q-4 -133 123 -133q43 0 86 9t84 26l17 -74q8 -33 14 -74zM266 -205q4 35 34 68t83 33q61 0 103.5 -44.5t42.5 -109.5q0 -96 -62.5 -165 t-159.5 -126l-61 53q45 29 70.5 54.5t40 47t18.5 40t4 35.5q0 37 -21.5 61t-91.5 53z" />
<glyph unicode="&#x237;" horiz-adv-x="452" d="M-18 -391q43 20 74.5 48t51 66.5t28.5 94t9 131.5v993l168 27v-1008q0 -100 -12 -174t-37.5 -129t-67.5 -95t-102 -73z" />
<glyph unicode="&#x2c6;" horiz-adv-x="806" d="M612 1065l-200 260h-2l-203 -260h-123l235 383h181l235 -383h-123z" />
<glyph unicode="&#x2c7;" horiz-adv-x="806" d="M500 1065h-181l-235 383h123l201 -260h2l202 260h123z" />
<glyph unicode="&#x2d8;" horiz-adv-x="806" d="M737 1446q-10 -82 -34.5 -151.5t-64.5 -121t-97.5 -81t-130.5 -29.5q-74 0 -131.5 29.5t-97.5 81t-64.5 121t-34.5 151.5h137q8 -51 24.5 -96t39 -79t54.5 -54.5t73 -20.5t72.5 20.5t55 54.5t39 79t23.5 96h137v0z" />
<glyph unicode="&#x2d9;" horiz-adv-x="806" d="M526 1198q0 -49 -32.5 -86t-85.5 -37t-85 37t-32 86q0 51 31.5 88t85.5 37q53 0 85.5 -37t32.5 -88z" />
<glyph unicode="&#x2da;" horiz-adv-x="806" d="M664 1292q0 -47 -17.5 -87t-50.5 -70.5t-80 -48t-106 -17.5q-119 0 -186.5 65.5t-67.5 157.5t67.5 159t186.5 67t185.5 -67t68.5 -159zM557 1294q0 55 -39 95.5t-108 40.5q-68 0 -107 -40t-39 -96q0 -55 39 -96t107 -41q70 0 108.5 41t38.5 96z" />
<glyph unicode="&#x2db;" horiz-adv-x="819" d="M459 -444q-96 0 -156.5 52t-60.5 144q0 55 23.5 102.5t62.5 86.5t88 65.5t100 42.5h88q-92 -59 -143 -116.5t-51 -127.5q0 -47 23.5 -73.5t68.5 -26.5q29 0 56.5 8t47.5 25l37 -127q-33 -23 -78 -39t-106 -16z" />
<glyph unicode="&#x2dc;" horiz-adv-x="806" d="M760 1329q-14 -131 -59.5 -194.5t-139.5 -63.5q-47 0 -91 22.5t-84 48t-75 48t-63 22.5q-29 0 -48.5 -27.5t-29.5 -99.5h-113q14 133 59.5 197t139.5 64q47 0 91 -23t84 -49.5t75 -49t63 -22.5q29 0 47.5 27.5t28.5 99.5h115v0z" />
<glyph unicode="&#x2dd;" horiz-adv-x="806" d="M623 1065h-146l275 362h172zM289 1065h-144l228 362h170z" />
<glyph unicode="&#x1e80;" horiz-adv-x="1839" d="M598 0h-170l-365 1280h183l276 -1042l301 1042h201l309 -1042l273 1042h170l-363 -1280h-174l-317 1065zM890 1407l-299 371h205l217 -371h-123z" />
<glyph unicode="&#x1e81;" horiz-adv-x="1400" d="M317 -4l-288 942h180l199 -696l217 692h153l240 -694l172 698h186l-282 -942h-154l-240 700l-229 -700h-154zM651 1065l-299 371h205l217 -371h-123z" />
<glyph unicode="&#x1e82;" horiz-adv-x="1839" d="M598 0h-170l-365 1280h183l276 -1042l301 1042h201l309 -1042l273 1042h170l-363 -1280h-174l-317 1065zM959 1407h-123l217 371h205z" />
<glyph unicode="&#x1e83;" horiz-adv-x="1400" d="M317 -4l-288 942h180l199 -696l217 692h153l240 -694l172 698h186l-282 -942h-154l-240 700l-229 -700h-154zM733 1065h-123l217 371h205z" />
<glyph unicode="&#x1e84;" horiz-adv-x="1839" d="M598 0h-170l-365 1280h183l276 -1042l301 1042h201l309 -1042l273 1042h170l-363 -1280h-174l-317 1065zM1257 1544q0 -53 -33.5 -91t-89.5 -38q-55 0 -88.5 38t-33.5 91q0 51 33.5 89t88.5 38t89 -38t34 -89zM840 1544q0 -53 -35 -91t-90 -38q-53 0 -88 38t-35 91 q0 51 34.5 89t88.5 38q55 0 90 -38t35 -89z" />
<glyph unicode="&#x1e85;" horiz-adv-x="1400" d="M317 -4l-288 942h180l199 -696l217 692h153l240 -694l172 698h186l-282 -942h-154l-240 700l-229 -700h-154zM1038 1202q0 -53 -33.5 -91t-89.5 -38q-55 0 -88.5 38t-33.5 91q0 51 33.5 89t88.5 38t89 -38t34 -89zM621 1202q0 -53 -35 -91t-90 -38q-53 0 -88 38t-35 91 q0 51 34.5 89t88.5 38q55 0 90 -38t35 -89z" />
<glyph unicode="&#x2000;" horiz-adv-x="1020" />
<glyph unicode="&#x2001;" horiz-adv-x="2040" />
<glyph unicode="&#x2002;" horiz-adv-x="1020" />
<glyph unicode="&#x2003;" horiz-adv-x="2040" />
<glyph unicode="&#x2004;" horiz-adv-x="680" />
<glyph unicode="&#x2005;" horiz-adv-x="510" />
<glyph unicode="&#x2006;" horiz-adv-x="340" />
<glyph unicode="&#x2007;" horiz-adv-x="340" />
<glyph unicode="&#x2008;" horiz-adv-x="255" />
<glyph unicode="&#x2009;" horiz-adv-x="155" />
<glyph unicode="&#x200a;" horiz-adv-x="113" />
<glyph unicode="&#x2010;" horiz-adv-x="634" d="M68 418v157h503v-157h-503z" />
<glyph unicode="&#x2011;" horiz-adv-x="634" d="M68 418v157h503v-157h-503z" />
<glyph unicode="&#x2012;" horiz-adv-x="634" d="M68 418v157h503v-157h-503z" />
<glyph unicode="&#x2013;" horiz-adv-x="944" d="M61 424l7 121h813l6 -121h-826z" />
<glyph unicode="&#x2014;" horiz-adv-x="1906" d="M61 424l7 121h1775l6 -121h-1788z" />
<glyph unicode="&#x2018;" horiz-adv-x="450" d="M367 897q-6 -49 -40 -85t-100 -36q-31 0 -62.5 14.5t-56 39t-40 58.5t-15.5 75q0 63 25.5 119.5t68.5 105.5t98.5 93t112.5 81l70 -70q-106 -78 -156.5 -142.5t-50.5 -117.5q0 -39 31 -67.5t115 -67.5z" />
<glyph unicode="&#x2019;" horiz-adv-x="450" d="M84 1245q6 49 40 85t99 36q31 0 62.5 -14.5t56.5 -39t40 -58t15 -74.5q0 -63 -25.5 -119.5t-68.5 -106t-97 -93.5t-112 -81l-71 70q209 152 208 260q0 39 -31.5 67.5t-115.5 67.5z" />
<glyph unicode="&#x201a;" horiz-adv-x="450" d="M84 147q6 49 40 85t99 36q31 0 62.5 -14t56.5 -39t40 -58.5t15 -74.5q0 -63 -25.5 -119.5t-68.5 -106t-97 -93.5t-112 -80l-71 69q209 152 208 260q0 39 -31.5 67.5t-115.5 67.5z" />
<glyph unicode="&#x201c;" horiz-adv-x="888" d="M805 897q-6 -49 -40 -85t-99 -36q-31 0 -63 14.5t-56.5 39t-39.5 58.5t-15 75q0 63 25.5 119.5t68.5 105.5t98 93t113 81l69 -70q-106 -78 -156.5 -142.5t-50.5 -117.5q0 -39 31 -67.5t115 -67.5zM367 897q-6 -49 -40 -85t-100 -36q-31 0 -62.5 14.5t-56 39t-40 58.5 t-15.5 75q0 63 25.5 119.5t68.5 105.5t98.5 93t112.5 81l70 -70q-106 -78 -156.5 -142.5t-50.5 -117.5q0 -39 31 -67.5t115 -67.5z" />
<glyph unicode="&#x201d;" horiz-adv-x="888" d="M522 1245q6 49 40 85t100 36q31 0 62.5 -14.5t56 -39t40 -58t15.5 -74.5q0 -63 -26 -119.5t-69 -106t-97 -93.5t-112 -81l-71 70q209 152 209 260q0 39 -32 67.5t-116 67.5zM84 1245q6 49 40 85t99 36q31 0 62.5 -14.5t56.5 -39t40 -58t15 -74.5q0 -63 -25.5 -119.5 t-68.5 -106t-97 -93.5t-112 -81l-71 70q209 152 208 260q0 39 -31.5 67.5t-115.5 67.5z" />
<glyph unicode="&#x201e;" horiz-adv-x="860" d="M522 147q6 49 40 85t100 36q31 0 62.5 -14t56 -39t40 -58.5t15.5 -74.5q0 -63 -26 -119.5t-69 -106t-97 -93.5t-112 -80l-71 69q209 152 209 260q0 39 -32 67.5t-116 67.5zM84 147q6 49 40 85t99 36q31 0 62.5 -14t56.5 -39t40 -58.5t15 -74.5q0 -63 -25.5 -119.5 t-68.5 -106t-97 -93.5t-112 -80l-71 69q209 152 208 260q0 39 -31.5 67.5t-115.5 67.5z" />
<glyph unicode="&#x2020;" horiz-adv-x="948" d="M72 791l-6 114h346v375h123v-375h348l-6 -114h-342v-1049h-123v1049h-340z" />
<glyph unicode="&#x2021;" horiz-adv-x="948" d="M72 821l-6 115h346v344h123v-344h348l-6 -115h-342v-622h342l6 -115h-348v-342h-123v342h-346l6 115h340v622h-340z" />
<glyph unicode="&#x2022;" horiz-adv-x="919" d="M854 475q0 -23 -12.5 -63.5t-29.5 -83.5t-36.5 -80t-36.5 -53q-16 -16 -53 -36t-80 -37.5t-84 -29.5t-63 -12q-23 0 -63 12t-83 29.5t-79.5 37t-51.5 36.5q-16 16 -35.5 53t-38 80t-30.5 84t-12 63q0 23 12 63t30.5 83t38 79.5t35.5 53.5q14 14 52 34.5t81 38t83 29.5 t63 12t62.5 -12t82.5 -29.5t80 -38t53 -34.5q14 -16 35 -53t38 -80t29.5 -83t12.5 -63z" />
<glyph unicode="&#x2026;" horiz-adv-x="1376" d="M1284 102q0 -53 -36 -93t-95 -40q-57 0 -95 40t-38 93t38 91t95 38q59 0 95 -38t36 -91zM821 102q0 -53 -35.5 -93t-93.5 -40q-59 0 -97 40t-38 93t38 91t97 38q57 0 93 -38t36 -91zM358 102q0 -53 -35.5 -93t-93.5 -40q-59 0 -96 40t-37 93t37 91t96 38q57 0 93 -38 t36 -91z" />
<glyph unicode="&#x202f;" horiz-adv-x="408" />
<glyph unicode="&#x2030;" horiz-adv-x="2293" d="M709 987q0 -68 -23.5 -129t-68 -107t-106.5 -74t-142 -28q-78 0 -141.5 28t-107.5 74t-67.5 107.5t-23.5 128.5q0 70 23.5 132.5t67.5 108.5t107.5 73.5t141.5 27.5q80 0 142 -27.5t106.5 -73.5t68 -108.5t23.5 -132.5zM313 -31h-129l1020 1340h129zM1487 291 q0 -70 -23.5 -132.5t-67.5 -108.5t-107.5 -73.5t-141.5 -27.5q-80 0 -142.5 27.5t-106.5 73.5t-67.5 108.5t-23.5 132.5q0 68 23.5 129t67.5 107t106.5 74t142.5 28q78 0 141.5 -28t107.5 -74t67.5 -107t23.5 -129zM598 987q0 98 -60.5 167t-168.5 69q-109 0 -169.5 -69 t-60.5 -167q0 -47 15.5 -88t45 -73.5t72.5 -51t97 -18.5q53 0 96 18.5t72.5 51t45 73.5t15.5 88zM1376 291q0 45 -15 87t-45 74.5t-73 51t-96 18.5t-96 -18.5t-73 -51t-45 -74.5t-15 -87q0 -98 60 -167t169 -69t169 69t60 167zM2265 291q0 -70 -23.5 -132.5t-67.5 -108.5 t-107.5 -73.5t-141.5 -27.5q-80 0 -142.5 27.5t-106.5 73.5t-67.5 108.5t-23.5 132.5q0 68 23.5 129t67.5 107t106.5 74t142.5 28q78 0 141.5 -28t107.5 -74t67.5 -107t23.5 -129zM2154 291q0 45 -15 87t-45 74.5t-73 51t-96 18.5t-96 -18.5t-73 -51t-45 -74.5t-15 -87 q0 -98 60.5 -167t168.5 -69q109 0 169 69t60 167z" />
<glyph unicode="&#x2039;" horiz-adv-x="700" d="M598 51l-537 332v192l537 332l16 -123l-409 -303v-4l409 -303z" />
<glyph unicode="&#x203a;" horiz-adv-x="700" d="M102 51l-16 123l410 303v4l-410 303l16 123l537 -332v-192z" />
<glyph unicode="&#x2044;" horiz-adv-x="1177" d="M141 -31h-127l1024 1340h125z" />
<glyph unicode="&#x205f;" horiz-adv-x="510" />
<glyph unicode="&#x2070;" horiz-adv-x="675" d="M633 946q0 -190 -79 -297.5t-218 -107.5q-141 0 -217 106.5t-76 296.5q0 188 79 296t218 108t216 -106t77 -296zM500 942q0 164 -47 234.5t-117 70.5t-115 -69.5t-45 -233.5q0 -160 47 -228.5t117 -68.5t115 67.5t45 227.5z" />
<glyph unicode="&#x2074;" horiz-adv-x="675" d="M537 752v-193h-121v193h-375l-12 86l356 499h152v-483h118l4 -102h-122zM416 1210l-254 -356h254v356z" />
<glyph unicode="&#x2075;" horiz-adv-x="675" d="M219 1018q16 2 39 5t53 3q129 0 210 -60.5t81 -168.5q0 -113 -81 -184.5t-222 -71.5q-66 0 -130.5 14t-107.5 37l21 113q39 -23 97.5 -39.5t117.5 -16.5q76 0 124 36t48 108q0 59 -47 96t-135 37q-57 0 -104.5 -9.5t-76.5 -21.5l-22 20l55 416h449l4 -112h-344l-29 -201 v0z" />
<glyph unicode="&#x2076;" horiz-adv-x="675" d="M49 868q0 82 30 159t88 140.5t146 111.5t205 71l33 -105q-143 -29 -240.5 -100.5t-128.5 -177.5l6 -2q41 35 95.5 56t113.5 21q100 0 168 -63.5t68 -173.5q0 -113 -77 -188.5t-210 -75.5q-74 0 -130 25.5t-93 70.5t-55.5 104t-18.5 127zM182 831q0 -76 42 -131t128 -55 q66 0 107 42t41 110t-39 104.5t-105 36.5q-53 0 -98 -18.5t-70 -40.5q-6 -23 -6 -48z" />
<glyph unicode="&#x2077;" horiz-adv-x="675" d="M49 1219l4 112h559l11 -100l-371 -672h-133l366 660h-436z" />
<glyph unicode="&#x2078;" horiz-adv-x="675" d="M631 766q0 -92 -74 -158.5t-221 -66.5q-145 0 -218 61.5t-73 151.5q0 37 14.5 67.5t38 54t52 41t59.5 29.5q-59 29 -104.5 71t-45.5 107q0 98 74 162t211 64t204.5 -61.5t67.5 -151.5q0 -68 -45 -114t-102 -71q33 -16 61.5 -33.5t51 -40t36 -50t13.5 -62.5zM487 1126 q0 57 -42 91t-105 34q-72 0 -109.5 -34.5t-37.5 -81.5q0 -53 53 -90t135 -58q49 23 77.5 57.5t28.5 81.5zM500 756q0 59 -59.5 97t-141.5 60q-55 -23 -89 -59.5t-34 -85.5q0 -57 46 -92t120 -35q78 0 118 31t40 84z" />
<glyph unicode="&#x2079;" horiz-adv-x="675" d="M627 1024q0 -82 -30 -160t-89 -142.5t-147.5 -111.5t-204.5 -69l-31 104q143 31 239.5 100.5t127.5 178.5h-5q-41 -35 -95 -55.5t-116 -20.5q-98 0 -165.5 63.5t-67.5 171.5q0 115 76 191t209 76q74 0 130 -26t94 -71t56.5 -103t18.5 -126zM492 1059q0 74 -42 130 t-126 56q-68 0 -108 -42t-40 -109q0 -66 38 -105t105 -39q51 0 96.5 18.5t71.5 41.5q4 12 4.5 24.5t0.5 24.5z" />
<glyph unicode="&#x207a;" horiz-adv-x="675" d="M403 901v-215h-88v215h-213l2 88h211v213h88v-213h207l4 -88h-211z" />
<glyph unicode="&#x207b;" horiz-adv-x="675" d="M102 901l2 88h506l4 -88h-512z" />
<glyph unicode="&#x2080;" horiz-adv-x="675" d="M633 94q0 -190 -79 -297.5t-218 -107.5q-141 0 -217 106.5t-76 296.5q0 188 79 296t218 108t216 -106t77 -296zM500 90q0 164 -47 234.5t-117 70.5t-115 -69.5t-45 -233.5q0 -160 47 -228.5t117 -68.5t115 67.5t45 227.5z" />
<glyph unicode="&#x2081;" horiz-adv-x="675" d="M326 344l-207 -47l-4 113l344 79v-782h-133v637z" />
<glyph unicode="&#x2082;" horiz-adv-x="675" d="M59 -293l-4 111q94 82 167 143.5t123 111.5t75.5 94t25.5 91q0 57 -39.5 92t-105.5 35q-53 0 -104.5 -22.5t-92.5 -57.5l-45 103q43 35 112 61.5t146 26.5q123 0 194 -63.5t71 -166.5q0 -53 -23.5 -101t-71 -99.5t-117 -111.5t-163.5 -136q-2 0 14.5 0h44h63.5h72h201 l4 -111h-547z" />
<glyph unicode="&#x2083;" horiz-adv-x="675" d="M367 115q127 0 186 -56.5t59 -130.5q0 -55 -24.5 -99t-67.5 -76t-100.5 -48t-122.5 -16q-66 0 -131.5 15t-110.5 38l23 106q41 -18 99.5 -34.5t119.5 -16.5q72 0 126 31t54 94q0 53 -47 88t-139 35q-31 -2 -64.5 -5t-60.5 -7v96q125 27 201.5 62.5t76.5 97.5 q0 45 -34.5 71.5t-104.5 26.5q-49 0 -103.5 -19.5t-95.5 -54.5l-49 105q47 33 116 55.5t140 22.5q119 0 193 -48.5t74 -140.5q0 -70 -54.5 -117.5t-158.5 -74.5z" />
<glyph unicode="&#x2084;" horiz-adv-x="675" d="M537 -100v-193h-121v193h-375l-12 86l356 499h152v-483h118l4 -102h-122zM416 358l-254 -356h254v356z" />
<glyph unicode="&#x2085;" horiz-adv-x="675" d="M219 166q16 2 39 5t53 3q129 0 210 -60.5t81 -168.5q0 -113 -81 -184.5t-222 -71.5q-66 0 -130.5 14t-107.5 37l21 113q39 -23 97.5 -39.5t117.5 -16.5q76 0 124 36t48 108q0 59 -47 96t-135 37q-57 0 -104.5 -9.5t-76.5 -21.5l-22 20l55 416h449l4 -112h-344l-29 -201v0 z" />
<glyph unicode="&#x2086;" horiz-adv-x="675" d="M49 16q0 82 30 159t88 140.5t146 111.5t205 71l33 -105q-143 -29 -240.5 -100.5t-128.5 -177.5l6 -2q41 35 95.5 56t113.5 21q100 0 168 -63.5t68 -173.5q0 -113 -77 -188.5t-210 -75.5q-74 0 -130 25.5t-93 70.5t-55.5 104t-18.5 127zM182 -20q0 -76 42 -131.5 t128 -55.5q66 0 107 42t41 110t-39 104.5t-105 36.5q-53 0 -98 -18.5t-70 -40.5q-6 -22 -6 -47z" />
<glyph unicode="&#x2087;" horiz-adv-x="675" d="M49 367l4 112h559l11 -100l-371 -672h-133l366 660h-436z" />
<glyph unicode="&#x2088;" horiz-adv-x="675" d="M631 -86q0 -92 -74 -158.5t-221 -66.5q-145 0 -218 61.5t-73 151.5q0 37 14.5 67.5t38 54t52 41t59.5 29.5q-59 29 -104.5 71t-45.5 107q0 98 74 162t211 64t204.5 -61.5t67.5 -151.5q0 -68 -45 -114t-102 -71q33 -16 61.5 -33.5t51 -40t36 -50t13.5 -62.5zM487 274 q0 57 -42 91t-105 34q-72 0 -109.5 -34.5t-37.5 -81.5q0 -53 53 -90t135 -58q49 23 77.5 57.5t28.5 81.5zM500 -96q0 59 -59.5 97t-141.5 60q-55 -23 -89 -59.5t-34 -85.5q0 -57 46 -92t120 -35q78 0 118 31t40 84z" />
<glyph unicode="&#x2089;" horiz-adv-x="675" d="M627 172q0 -82 -30 -160t-89 -142.5t-147.5 -111.5t-204.5 -69l-31 104q143 31 239.5 100.5t127.5 178.5h-5q-41 -35 -95 -55.5t-116 -20.5q-98 0 -165.5 63.5t-67.5 171.5q0 115 76 191t209 76q74 0 130 -26t94 -71t56.5 -103t18.5 -126zM492 207q0 74 -42 130t-126 56 q-68 0 -108 -42t-40 -109q0 -66 38 -105t105 -39q51 0 96.5 18.5t71.5 41.5q4 12 4.5 24.5t0.5 24.5z" />
<glyph unicode="&#x208a;" horiz-adv-x="675" d="M403 49v-215h-88v215h-213l2 88h211v213h88v-213h207l4 -88h-211z" />
<glyph unicode="&#x20ac;" horiz-adv-x="1028" d="M68 756l-7 112h170q23 117 67 201t105.5 138.5t136 79t156.5 24.5q186 0 314 -78l-41 -150q-59 39 -128 57.5t-145 18.5q-117 0 -190.5 -70.5t-104.5 -220.5h465l-6 -112h-473q-2 -25 -3 -51.5t-1 -55.5q0 -66 6 -121h410l6 -112h-399q35 -154 109.5 -224.5t178.5 -70.5 q164 0 281 76l29 -152q-127 -76 -314 -76q-88 0 -163.5 23.5t-136 77t-102.5 138.5t-61 208h-166l7 112h147q-2 25 -3 50.5t-1 54.5q0 33 1 63.5t3 59.5h-147z" />
<glyph unicode="&#x2122;" horiz-adv-x="1943" d="M1636 516l2 625h-22l-217 -602h-144l-190 600h-23l-10 -623h-119l15 766h233l164 -592h23l188 592h221l10 -766h-131zM502 1157v-641h-129v641h-285v125h721v-125h-307z" />
<glyph unicode="&#x25fc;" horiz-adv-x="942" d="M0 942h942v-942h-942v942z" />
<glyph unicode="&#xf6c3;" horiz-adv-x="806" d="M276 -205q4 35 34 68t83 33q61 0 103.5 -44.5t42.5 -109.5q0 -96 -62.5 -165t-159.5 -126l-61 53q45 29 70.5 54.5t40 47t18.5 40t4 35.5q0 37 -21.5 61t-91.5 53z" />
<glyph horiz-adv-x="759" d="M631 362q0 -197 -90 -295t-265 -98q-70 0 -132 19.5t-109 48.5l24 166q111 -74 213 -74q96 0 141.5 55.5t45.5 180.5v915h172v-918v0z" />
<glyph horiz-adv-x="1077" d="M764 750q-41 35 -94.5 53t-114.5 18q-72 0 -127 -27.5t-93 -75.5t-57.5 -112.5t-19.5 -136.5q0 -156 74 -252t205 -96q66 0 123 26.5t104 67.5v535zM502 -31q-98 0 -176 38t-132.5 104.5t-82 156.5t-27.5 197q0 106 35 198.5t98.5 160t151.5 106.5t192 39 q66 0 130.5 -11.5t109.5 -23.5l131 35v-758q0 -29 3 -47.5t12 -28.5t27.5 -13t49.5 -3l-10 -142q-57 -4 -100.5 4.5t-74 26t-50 42t-25.5 50.5q-53 -63 -115.5 -97t-146.5 -34z" />
<glyph horiz-adv-x="1081" d="M936 -8q0 -250 -113.5 -364.5t-318.5 -114.5q-96 0 -176 20.5t-152 56.5l43 156q133 -76 285 -76q135 0 199.5 76t64.5 231v113q-51 -47 -114.5 -82t-147.5 -35q-98 0 -177 37t-133.5 102.5t-83 155.5t-28.5 197q0 106 36 198.5t99.5 160t152.5 106.5t193 39 q66 0 130.5 -11.5t109.5 -23.5l131 35v-977zM768 750q-41 35 -94 53t-115 18q-72 0 -128 -27.5t-94 -75.5t-58.5 -112.5t-20.5 -136.5q0 -156 76 -250t207 -94q66 0 123 26.5t104 67.5v531z" />
<glyph horiz-adv-x="1077" d="M764 750q-41 35 -94.5 53t-114.5 18q-72 0 -127 -27.5t-93 -75.5t-57.5 -112.5t-19.5 -136.5q0 -156 74 -252t205 -96q66 0 123 26.5t104 67.5v535zM502 -31q-98 0 -176 38t-132.5 104.5t-82 156.5t-27.5 197q0 106 35 198.5t98.5 160t151.5 106.5t192 39 q66 0 130.5 -11.5t109.5 -23.5l131 35v-758q0 -29 3 -47.5t12 -28.5t27.5 -13t49.5 -3l-10 -142q-57 -4 -100.5 4.5t-74 26t-50 42t-25.5 50.5q-53 -63 -115.5 -97t-146.5 -34zM579 1065l-299 371h205l217 -371h-123z" />
<glyph horiz-adv-x="1077" d="M764 750q-41 35 -94.5 53t-114.5 18q-72 0 -127 -27.5t-93 -75.5t-57.5 -112.5t-19.5 -136.5q0 -156 74 -252t205 -96q66 0 123 26.5t104 67.5v535zM502 -31q-98 0 -176 38t-132.5 104.5t-82 156.5t-27.5 197q0 106 35 198.5t98.5 160t151.5 106.5t192 39 q66 0 130.5 -11.5t109.5 -23.5l131 35v-758q0 -29 3 -47.5t12 -28.5t27.5 -13t49.5 -3l-10 -142q-57 -4 -100.5 4.5t-74 26t-50 42t-25.5 50.5q-53 -63 -115.5 -97t-146.5 -34zM643 1065h-123l217 371h205z" />
<glyph horiz-adv-x="1077" d="M764 750q-41 35 -94.5 53t-114.5 18q-72 0 -127 -27.5t-93 -75.5t-57.5 -112.5t-19.5 -136.5q0 -156 74 -252t205 -96q66 0 123 26.5t104 67.5v535zM502 -31q-98 0 -176 38t-132.5 104.5t-82 156.5t-27.5 197q0 106 35 198.5t98.5 160t151.5 106.5t192 39 q66 0 130.5 -11.5t109.5 -23.5l131 35v-758q0 -29 3 -47.5t12 -28.5t27.5 -13t49.5 -3l-10 -142q-57 -4 -100.5 4.5t-74 26t-50 42t-25.5 50.5q-53 -63 -115.5 -97t-146.5 -34zM782 1065l-200 260h-2l-203 -260h-123l235 383h181l235 -383h-123z" />
<glyph horiz-adv-x="1077" d="M764 750q-41 35 -94.5 53t-114.5 18q-72 0 -127 -27.5t-93 -75.5t-57.5 -112.5t-19.5 -136.5q0 -156 74 -252t205 -96q66 0 123 26.5t104 67.5v535zM502 -31q-98 0 -176 38t-132.5 104.5t-82 156.5t-27.5 197q0 106 35 198.5t98.5 160t151.5 106.5t192 39 q66 0 130.5 -11.5t109.5 -23.5l131 35v-758q0 -29 3 -47.5t12 -28.5t27.5 -13t49.5 -3l-10 -142q-57 -4 -100.5 4.5t-74 26t-50 42t-25.5 50.5q-53 -63 -115.5 -97t-146.5 -34zM928 1329q-14 -131 -59.5 -194.5t-139.5 -63.5q-47 0 -91 22.5t-84 48t-75 48t-63 22.5 q-29 0 -48.5 -27.5t-29.5 -99.5h-113q14 133 59.5 197t139.5 64q47 0 91 -23t84 -49.5t75 -49t63 -22.5q29 0 47.5 27.5t28.5 99.5h115v0z" />
<glyph horiz-adv-x="1077" d="M764 750q-41 35 -94.5 53t-114.5 18q-72 0 -127 -27.5t-93 -75.5t-57.5 -112.5t-19.5 -136.5q0 -156 74 -252t205 -96q66 0 123 26.5t104 67.5v535zM502 -31q-98 0 -176 38t-132.5 104.5t-82 156.5t-27.5 197q0 106 35 198.5t98.5 160t151.5 106.5t192 39 q66 0 130.5 -11.5t109.5 -23.5l131 35v-758q0 -29 3 -47.5t12 -28.5t27.5 -13t49.5 -3l-10 -142q-57 -4 -100.5 4.5t-74 26t-50 42t-25.5 50.5q-53 -63 -115.5 -97t-146.5 -34zM919 1202q0 -53 -33.5 -91t-89.5 -38q-55 0 -88.5 38t-33.5 91q0 51 33.5 89t88.5 38t89 -38 t34 -89zM502 1202q0 -53 -35 -91t-90 -38q-53 0 -88 38t-35 91q0 51 34.5 89t88.5 38q55 0 90 -38t35 -89z" />
<glyph horiz-adv-x="1077" d="M764 750q-41 35 -94.5 53t-114.5 18q-72 0 -127 -27.5t-93 -75.5t-57.5 -112.5t-19.5 -136.5q0 -156 74 -252t205 -96q66 0 123 26.5t104 67.5v535zM502 -31q-98 0 -176 38t-132.5 104.5t-82 156.5t-27.5 197q0 106 35 198.5t98.5 160t151.5 106.5t192 39 q66 0 130.5 -11.5t109.5 -23.5l131 35v-758q0 -29 3 -47.5t12 -28.5t27.5 -13t49.5 -3l-10 -142q-57 -4 -100.5 4.5t-74 26t-50 42t-25.5 50.5q-53 -63 -115.5 -97t-146.5 -34zM830 1292q0 -47 -17.5 -87t-50.5 -70.5t-80 -48t-106 -17.5q-119 0 -186.5 65.5t-67.5 157.5 t67.5 159t186.5 67t185.5 -67t68.5 -159zM723 1294q0 55 -39 95.5t-108 40.5q-68 0 -107 -40t-39 -96q0 -55 39 -96t107 -41q70 0 108.5 41t38.5 96z" />
<glyph horiz-adv-x="1077" d="M539 1573h-123l217 371h205zM764 750q-41 35 -94.5 53t-114.5 18q-72 0 -127 -27.5t-93 -75.5t-57.5 -112.5t-19.5 -136.5q0 -156 74 -252t205 -96q66 0 123 26.5t104 67.5v535zM502 -31q-98 0 -176 38t-132.5 104.5t-82 156.5t-27.5 197q0 106 35 198.5t98.5 160 t151.5 106.5t192 39q66 0 130.5 -11.5t109.5 -23.5l131 35v-758q0 -29 3 -47.5t12 -28.5t27.5 -13t49.5 -3l-10 -142q-57 -4 -100.5 4.5t-74 26t-50 42t-25.5 50.5q-53 -63 -115.5 -97t-146.5 -34zM830 1292q0 -47 -17.5 -87t-50.5 -70.5t-80 -48t-106 -17.5 q-119 0 -186.5 65.5t-67.5 157.5t67.5 159t186.5 67t185.5 -67t68.5 -159zM723 1294q0 55 -39 95.5t-108 40.5q-68 0 -107 -40t-39 -96q0 -55 39 -96t107 -41q70 0 108.5 41t38.5 96z" />
<glyph horiz-adv-x="1077" d="M764 750q-41 35 -94.5 53t-114.5 18q-72 0 -127 -27.5t-93 -75.5t-57.5 -112.5t-19.5 -136.5q0 -156 74 -252t205 -96q66 0 123 26.5t104 67.5v535zM502 -31q-98 0 -176 38t-132.5 104.5t-82 156.5t-27.5 197q0 106 35 198.5t98.5 160t151.5 106.5t192 39 q66 0 130.5 -11.5t109.5 -23.5l131 35v-758q0 -29 3 -47.5t12 -28.5t27.5 -13t49.5 -3l-10 -142q-57 -4 -100.5 4.5t-74 26t-50 42t-25.5 50.5q-53 -63 -115.5 -97t-146.5 -34zM311 1102l8 108h545l10 -108h-563z" />
<glyph horiz-adv-x="1077" d="M764 750q-41 35 -94.5 53t-114.5 18q-72 0 -127 -27.5t-93 -75.5t-57.5 -112.5t-19.5 -136.5q0 -156 74 -252t205 -96q66 0 123 26.5t104 67.5v535zM502 -31q-98 0 -176 38t-132.5 104.5t-82 156.5t-27.5 197q0 106 35 198.5t98.5 160t151.5 106.5t192 39 q66 0 130.5 -11.5t109.5 -23.5l131 35v-758q0 -29 3 -47.5t12 -28.5t27.5 -13t49.5 -3l-10 -142q-57 -4 -100.5 4.5t-74 26t-50 42t-25.5 50.5q-53 -63 -115.5 -97t-146.5 -34zM923 1446q-10 -82 -34.5 -151.5t-64.5 -121t-97.5 -81t-130.5 -29.5q-74 0 -131.5 29.5 t-97.5 81t-64.5 121t-34.5 151.5h137q8 -51 24.5 -96t39 -79t54.5 -54.5t73 -20.5t72.5 20.5t55 54.5t39 79t23.5 96h137v0z" />
<glyph horiz-adv-x="1077" d="M502 -31q-98 0 -176 38t-132.5 104.5t-82 156.5t-27.5 197q0 106 35 198.5t98.5 160t151.5 106.5t192 39q66 0 130.5 -11.5t109.5 -23.5l131 35v-758q0 -29 3 -47.5t12 -28.5t27.5 -13t49.5 -3l-10 -142q-104 0 -169 -46t-65 -126q0 -47 23.5 -73.5t68.5 -26.5 q29 0 56.5 8t48.5 25l37 -127q-33 -23 -78 -39t-107 -16q-96 0 -156.5 52t-60.5 144t59.5 162t143.5 109q-41 33 -51 77q-53 -63 -115.5 -97t-146.5 -34zM764 750q-41 35 -94.5 53t-114.5 18q-72 0 -127 -27.5t-93 -75.5t-57.5 -112.5t-19.5 -136.5q0 -156 74 -252t205 -96 q66 0 123 26.5t104 67.5v535z" />
<glyph horiz-adv-x="1081" d="M936 -8q0 -250 -113.5 -364.5t-318.5 -114.5q-96 0 -176 20.5t-152 56.5l43 156q133 -76 285 -76q135 0 199.5 76t64.5 231v113q-51 -47 -114.5 -82t-147.5 -35q-98 0 -177 37t-133.5 102.5t-83 155.5t-28.5 197q0 106 36 198.5t99.5 160t152.5 106.5t193 39 q66 0 130.5 -11.5t109.5 -23.5l131 35v-977zM768 750q-41 35 -94 53t-115 18q-72 0 -128 -27.5t-94 -75.5t-58.5 -112.5t-20.5 -136.5q0 -156 76 -250t207 -94q66 0 123 26.5t104 67.5v531zM768 1065l-200 260h-2l-203 -260h-123l235 383h181l235 -383h-123z" />
<glyph horiz-adv-x="1081" d="M936 -8q0 -250 -113.5 -364.5t-318.5 -114.5q-96 0 -176 20.5t-152 56.5l43 156q133 -76 285 -76q135 0 199.5 76t64.5 231v113q-51 -47 -114.5 -82t-147.5 -35q-98 0 -177 37t-133.5 102.5t-83 155.5t-28.5 197q0 106 36 198.5t99.5 160t152.5 106.5t193 39 q66 0 130.5 -11.5t109.5 -23.5l131 35v-977zM768 750q-41 35 -94 53t-115 18q-72 0 -128 -27.5t-94 -75.5t-58.5 -112.5t-20.5 -136.5q0 -156 76 -250t207 -94q66 0 123 26.5t104 67.5v531zM911 1446q-10 -82 -34.5 -151.5t-64.5 -121t-97.5 -81t-130.5 -29.5 q-74 0 -131.5 29.5t-97.5 81t-64.5 121t-34.5 151.5h137q8 -51 24.5 -96t39 -79t54.5 -54.5t73 -20.5t72.5 20.5t55 54.5t39 79t23.5 96h137v0z" />
<glyph horiz-adv-x="1081" d="M936 -8q0 -250 -113.5 -364.5t-318.5 -114.5q-96 0 -176 20.5t-152 56.5l43 156q133 -76 285 -76q135 0 199.5 76t64.5 231v113q-51 -47 -114.5 -82t-147.5 -35q-98 0 -177 37t-133.5 102.5t-83 155.5t-28.5 197q0 106 36 198.5t99.5 160t152.5 106.5t193 39 q66 0 130.5 -11.5t109.5 -23.5l131 35v-977zM768 750q-41 35 -94 53t-115 18q-72 0 -128 -27.5t-94 -75.5t-58.5 -112.5t-20.5 -136.5q0 -156 76 -250t207 -94q66 0 123 26.5t104 67.5v531zM682 1198q0 -49 -32.5 -86t-85.5 -37t-85 37t-32 86q0 51 31.5 88t85.5 37 q53 0 85.5 -37t32.5 -88z" />
<glyph horiz-adv-x="1081" d="M936 -8q0 -250 -113.5 -364.5t-318.5 -114.5q-96 0 -176 20.5t-152 56.5l43 156q133 -76 285 -76q135 0 199.5 76t64.5 231v113q-51 -47 -114.5 -82t-147.5 -35q-98 0 -177 37t-133.5 102.5t-83 155.5t-28.5 197q0 106 36 198.5t99.5 160t152.5 106.5t193 39 q66 0 130.5 -11.5t109.5 -23.5l131 35v-977zM768 750q-41 35 -94 53t-115 18q-72 0 -128 -27.5t-94 -75.5t-58.5 -112.5t-20.5 -136.5q0 -156 76 -250t207 -94q66 0 123 26.5t104 67.5v531zM689.017 1162.99q-3.99902 -34.998 -33.998 -67.9961 q-29.998 -32.9971 -82.9941 -32.9971q-60.9971 0 -103.494 44.4971t-42.4971 109.493q0 95.9941 62.4961 164.99q62.4961 68.9951 159.49 125.992l60.9961 -52.9971q-44.9971 -28.998 -70.4961 -54.4971q-25.498 -25.498 -39.9971 -46.9971 q-14.499 -21.498 -18.499 -39.9971t-4 -35.498q0 -36.998 21.499 -60.9961q21.499 -23.999 91.4941 -52.9971z" />
<glyph horiz-adv-x="759" d="M631 362q0 -197 -90 -295t-265 -98q-70 0 -132 19.5t-109 48.5l24 166q111 -74 213 -74q96 0 141.5 55.5t45.5 180.5v915h172v-918v0zM745 1407l-200 260h-2l-203 -260h-123l235 383h181l235 -383h-123z" />
<glyph horiz-adv-x="450" d="M358 467q0 -53 -35.5 -93t-93.5 -40q-59 0 -96 40t-37 93t37 91t96 38q57 0 93 -38t36 -91z" />
<glyph horiz-adv-x="1011" d="M956 0h-163l-86 240h-404l-84 -240h-168l361 967h192zM506 817l-154 -436h307z" />
<glyph horiz-adv-x="985" d="M709 498q86 -23 134 -83.5t48 -140.5q0 -123 -81 -198.5t-273 -75.5h-385v967h376q180 0 256 -72t76 -186q0 -74 -39.5 -128t-111.5 -83zM696 694q0 133 -182 133h-203v-278h195q100 0 145 38.5t45 106.5zM727 279q0 78 -55.5 108.5t-153.5 30.5h-207v-279h215 q104 0 152.5 37t48.5 103z" />
<glyph horiz-adv-x="989" d="M848 770q-61 37 -125 57.5t-135 20.5q-150 0 -237 -96.5t-87 -264.5q0 -170 87 -269t239 -99q78 0 147.5 25.5t120.5 64.5l33 -156q-59 -35 -141 -55.5t-164 -20.5q-109 0 -198 35t-152.5 99.5t-98.5 159t-35 210.5q0 115 35 209t98.5 161t153.5 102.5t199 35.5 q86 0 168 -20.5t143 -57.5z" />
<glyph horiz-adv-x="1081" d="M979 489q0 -223 -135 -356t-391 -133h-301v967h311q121 0 217 -34t162.5 -96.5t101.5 -150.5t35 -197zM815 481q0 172 -96 257t-270 85h-136v-680h144q162 0 260 85t98 253z" />
<glyph horiz-adv-x="894" d="M152 0v967h634v-144h-475v-266h396v-145h-396v-269h475v-143h-634z" />
<glyph horiz-adv-x="854" d="M152 967h620v-146h-461v-280h381v-148h-381v-393h-159v967z" />
<glyph horiz-adv-x="1071" d="M262 487q0 -174 91 -272t245 -98q57 0 107.5 12t89.5 33v203h-248v145h401v-442q-78 -47 -172 -69t-180 -22q-109 0 -200 35t-156.5 99.5t-101.5 159t-36 210.5q0 117 36 210t101.5 160t156.5 102.5t200 35.5q88 0 179 -21.5t155 -60.5l-53 -145q-59 41 -132 63.5 t-147 22.5q-152 0 -244 -96.5t-92 -264.5z" />
<glyph horiz-adv-x="1116" d="M803 0v414h-490v-414h-161v967h161v-408h490v408h162v-967h-162z" />
<glyph horiz-adv-x="468" d="M154 0v967h161v-967h-161z" />
<glyph horiz-adv-x="720" d="M590 307q0 -152 -73 -241t-232 -89q-70 0 -129.5 17.5t-100.5 44.5l21 149q43 -29 95 -49t99 -20q84 0 121 49t37 149v650h162v-660v0z" />
<glyph horiz-adv-x="940" d="M315 514l383 453h199l-428 -475l432 -492h-201l-385 451h-2v-451h-161v967h161v-453h2z" />
<glyph horiz-adv-x="831" d="M152 0v967h161v-822h459v-145h-620z" />
<glyph horiz-adv-x="1294" d="M1008 0l-13 760l-264 -760h-170l-268 762l-10 -762h-160l31 967h225l270 -781l271 781h221l30 -967h-163z" />
<glyph horiz-adv-x="1118" d="M813 967h156v-977h-174l-492 741l4 -731h-155v967h178l487 -731z" />
<glyph horiz-adv-x="1187" d="M1085 487q0 -111 -36.5 -204t-102 -161.5t-156 -106.5t-196.5 -38t-196.5 35t-156 100.5t-102.5 159t-37 209.5q0 111 37 204t101.5 160.5t154.5 105.5t199 38q106 0 196.5 -34.5t156 -99t102 -158t36.5 -210.5zM922 481q0 168 -91.5 268.5t-240.5 100.5 q-72 0 -132.5 -26.5t-103.5 -74t-66.5 -114t-23.5 -148.5q0 -170 91 -270t241 -100q147 0 236.5 99t89.5 265z" />
<glyph horiz-adv-x="942" d="M854 649q0 -170 -106.5 -254t-296.5 -84h-138v-311h-161v967h313q98 0 172 -23.5t122 -65.5t71.5 -100.5t23.5 -128.5zM690 643q0 180 -237 180h-142v-372l150 4q229 6 229 188z" />
<glyph horiz-adv-x="1187" d="M1110 -104l-66 -138l-415 219q-8 4 -17.5 2t-17.5 -2q-106 0 -196.5 35t-156 100.5t-102.5 159t-37 209.5q0 111 37 204t101.5 160.5t154.5 105.5t199 38q106 0 196.5 -34.5t156 -99t102 -158t36.5 -210.5q0 -154 -71.5 -272.5t-190.5 -177.5zM922 481q0 168 -91.5 268.5 t-240.5 100.5q-72 0 -132.5 -26.5t-103.5 -74t-66.5 -114t-23.5 -148.5q0 -170 91 -270t241 -100q147 0 236.5 99t89.5 265z" />
<glyph horiz-adv-x="1001" d="M313 0h-161v967h340q180 0 276 -80t96 -221q0 -106 -50 -177t-138 -106l239 -383h-186l-213 348l-203 -12v-336zM477 475q119 2 171 50t52 130q0 88 -55 128t-170 40h-164v-350z" />
<glyph horiz-adv-x="878" d="M424 117q86 0 140 40t54 103q0 68 -54 99.5t-169 64.5q-51 14 -103 33.5t-95 52.5t-70 82t-27 121q0 125 91.5 200.5t244.5 75.5q182 0 322 -84l-47 -139q-61 39 -134 60.5t-139 21.5q-94 0 -136 -37t-42 -90q0 -66 59.5 -97.5t167.5 -60.5q53 -14 104.5 -35.5 t92.5 -55.5t66.5 -82t25.5 -118q0 -66 -25.5 -119t-71.5 -93t-111.5 -61.5t-145.5 -21.5q-92 0 -179 25t-159 66l43 141q66 -41 138.5 -66.5t158.5 -25.5z" />
<glyph horiz-adv-x="950" d="M557 821v-821h-164v821h-332v146h828v-146h-332z" />
<glyph horiz-adv-x="1040" d="M911 379q0 -193 -99 -297.5t-292 -104.5q-186 0 -288.5 100.5t-102.5 284.5v605h162v-582q0 -125 56 -193.5t177 -68.5q109 0 167.5 62.5t58.5 191.5v590h161v-588v0z" />
<glyph horiz-adv-x="993" d="M592 0h-195l-346 967h170l275 -803l282 803h162z" />
<glyph horiz-adv-x="1509" d="M524 0h-162l-270 967h170l189 -756l215 756h184l217 -756l188 756h162l-270 -967h-166l-225 772z" />
<glyph horiz-adv-x="985" d="M238 0h-187l346 483l-336 484h195l236 -363l243 363h189l-336 -473l344 -494h-195l-248 379z" />
<glyph horiz-adv-x="933" d="M549 377v-377h-162v379l-336 588h176l242 -435l238 435h178z" />
<glyph horiz-adv-x="905" d="M74 0v117l532 704h-524v146h725v-119l-528 -703h526v-145h-731z" />
<glyph horiz-adv-x="1757" d="M1307 117q86 0 140 40t54 103q0 68 -54 99.5t-169 64.5q-51 14 -103.5 33.5t-95.5 52.5t-69.5 82t-26.5 121q0 125 91 200.5t245 75.5q182 0 321 -84l-47 -139q-61 39 -134 60.5t-138 21.5q-94 0 -136 -37t-42 -90q0 -66 59.5 -97.5t167.5 -60.5q53 -14 104.5 -35.5 t92.5 -55.5t66.5 -82t25.5 -118q0 -66 -25.5 -119t-71.5 -93t-112 -61.5t-145 -21.5q-92 0 -179.5 25t-158.5 66l43 141q66 -41 138.5 -66.5t158.5 -25.5zM428 117q86 0 140.5 40t54.5 103q0 68 -54.5 99.5t-169.5 64.5q-51 14 -103 33.5t-95 52.5t-70 82t-27 121 q0 125 91.5 200.5t244.5 75.5q182 0 322 -84l-47 -139q-61 39 -134 60.5t-139 21.5q-94 0 -136 -37t-42 -90q0 -66 59.5 -97.5t168.5 -60.5q53 -14 104 -35.5t92 -55.5t66.5 -82t25.5 -118q0 -66 -25.5 -119t-71.5 -93t-111.5 -61.5t-145.5 -21.5q-92 0 -179 25t-159 66 l43 141q66 -41 138.5 -66.5t158.5 -25.5z" />
<glyph horiz-adv-x="999" d="M956 0h-163l-86 240h-404l-84 -240h-168l361 967h192zM506 817l-154 -436h307zM453 1065l-299 371h204l217 -371h-122z" />
<glyph horiz-adv-x="999" d="M956 0h-163l-86 240h-404l-84 -240h-168l361 967h192zM506 817l-154 -436h307zM547 1065h-123l217 371h205z" />
<glyph horiz-adv-x="999" d="M956 0h-163l-86 240h-404l-84 -240h-168l361 967h192zM506 817l-154 -436h307zM700 1065l-200 260h-2l-203 -260h-123l236 383h180l235 -383h-123z" />
<glyph horiz-adv-x="999" d="M956 0h-163l-86 240h-404l-84 -240h-168l361 967h192zM506 817l-154 -436h307zM848 1329q-14 -131 -59.5 -194.5t-139.5 -63.5q-47 0 -91 22.5t-84 48t-74.5 48t-63.5 22.5t-48.5 -27.5t-29.5 -99.5h-113q14 133 59.5 197t139.5 64q47 0 91 -23t84 -49.5t75 -49t63 -22.5 q29 0 47.5 27.5t28.5 99.5h115z" />
<glyph horiz-adv-x="999" d="M956 0h-163l-86 240h-404l-84 -240h-168l361 967h192zM506 817l-154 -436h307zM829 1202q0 -53 -33.5 -91t-88.5 -38t-89 38t-34 91q0 51 33.5 89t89.5 38q55 0 88.5 -38t33.5 -89zM412 1202q0 -53 -35 -91t-90 -38q-53 0 -88 38t-35 91q0 51 34.5 89t88.5 38 q55 0 90 -38t35 -89z" />
<glyph horiz-adv-x="999" d="M381 903q-63 27 -98 80t-35 119q0 92 66.5 157.5t185.5 65.5q117 0 183.5 -65.5t68.5 -157.5q2 -66 -33 -118t-101 -81l332 -903h-164l-86 240h-403l-84 -240h-168zM647 1104q0 55 -39 95t-108 40q-70 0 -109 -40t-39 -95t39 -96t109 -41t108.5 41t38.5 96zM500 817 l-154 -436h307z" />
<glyph horiz-adv-x="999" d="M381 903q-63 27 -98 80t-35 119q0 92 66.5 157.5t185.5 65.5q117 0 183.5 -65.5t68.5 -157.5q2 -66 -33 -118t-101 -81l332 -903h-164l-86 240h-403l-84 -240h-168zM647 1104q0 55 -39 95t-108 40q-70 0 -109 -40t-39 -95t39 -96t109 -41t108.5 41t38.5 96zM500 817 l-154 -436h307zM485 1372h-123l218 371h204z" />
<glyph horiz-adv-x="1011" d="M956 0h-163l-86 240h-404l-84 -240h-168l361 967h192zM506 817l-154 -436h307zM225 1102l8 108h545l10 -108h-563z" />
<glyph horiz-adv-x="1011" d="M956 0h-163l-86 240h-404l-84 -240h-168l361 967h192zM506 817l-154 -436h307zM834 1446q-10 -82 -35 -151.5t-65 -121t-97 -81t-131 -29.5t-131.5 29.5t-97 81t-64.5 121t-35 151.5h137q8 -51 24.5 -96t39 -79t54.5 -54.5t73 -20.5t72.5 20.5t55 54.5t39 79t23.5 96h138 z" />
<glyph horiz-adv-x="1011" d="M956 0q-72 -29 -114.5 -85t-42.5 -110q0 -47 23.5 -73.5t68.5 -26.5q29 0 56.5 8t47.5 25l37 -127q-33 -23 -78 -39t-106 -16q-96 0 -156.5 52t-60.5 144q0 80 46 143.5t116 104.5l-86 240h-404l-84 -240h-168l361 967h192zM506 817l-154 -436h307z" />
<glyph horiz-adv-x="1417" d="M223 0h-178l530 967h734v-144h-478v-266h398v-145h-398v-269h478v-143h-637v240h-320zM672 383v451l-246 -451h246z" />
<glyph horiz-adv-x="1417" d="M223 0h-178l530 967h734v-144h-478v-266h398v-145h-398v-269h478v-143h-637v240h-320zM672 383v451l-246 -451h246zM844 1065h-123l217 371h205z" />
<glyph horiz-adv-x="1003" d="M510 -18q-92 12 -168 51t-129 103.5t-82 151.5t-29 193q0 115 35 209t98.5 161t153.5 102.5t199 35.5q86 0 168 -20.5t143 -57.5l-51 -141q-61 37 -125 57.5t-135 20.5q-150 0 -237 -96.5t-87 -264.5q0 -170 87 -269t239 -99q78 0 147.5 25.5t120.5 64.5l33 -156 q-53 -31 -123 -50t-141 -23l-121 -119q121 0 186.5 -45t65.5 -123q0 -86 -78 -145.5t-258 -82.5l-12 107q115 6 166 36t51 75q0 47 -58.5 68.5t-187.5 0.5l-16 86l145 144v0z" />
<glyph horiz-adv-x="989" d="M848 770q-61 37 -125 57.5t-135 20.5q-150 0 -237 -96.5t-87 -264.5q0 -170 87 -269t239 -99q78 0 147.5 25.5t120.5 64.5l33 -156q-59 -35 -141 -55.5t-164 -20.5q-109 0 -198 35t-152.5 99.5t-98.5 159t-35 210.5q0 115 35 209t98.5 161t153.5 102.5t199 35.5 q86 0 168 -20.5t143 -57.5zM567 1065h-123l218 371h204z" />
<glyph horiz-adv-x="989" d="M848 770q-61 37 -125 57.5t-135 20.5q-150 0 -237 -96.5t-87 -264.5q0 -170 87 -269t239 -99q78 0 147.5 25.5t120.5 64.5l33 -156q-59 -35 -141 -55.5t-164 -20.5q-109 0 -198 35t-152.5 99.5t-98.5 159t-35 210.5q0 115 35 209t98.5 161t153.5 102.5t199 35.5 q86 0 168 -20.5t143 -57.5zM768 1065l-201 260h-2l-203 -260h-122l235 383h180l236 -383h-123z" />
<glyph horiz-adv-x="989" d="M848 770q-61 37 -125 57.5t-135 20.5q-150 0 -237 -96.5t-87 -264.5q0 -170 87 -269t239 -99q78 0 147.5 25.5t120.5 64.5l33 -156q-59 -35 -141 -55.5t-164 -20.5q-109 0 -198 35t-152.5 99.5t-98.5 159t-35 210.5q0 115 35 209t98.5 161t153.5 102.5t199 35.5 q86 0 168 -20.5t143 -57.5zM686 1198q0 -49 -32.5 -86t-86.5 -37q-53 0 -84.5 37t-31.5 86q0 51 31.5 88t84.5 37t86 -37t33 -88z" />
<glyph horiz-adv-x="989" d="M848 770q-61 37 -125 57.5t-135 20.5q-150 0 -237 -96.5t-87 -264.5q0 -170 87 -269t239 -99q78 0 147.5 25.5t120.5 64.5l33 -156q-59 -35 -141 -55.5t-164 -20.5q-109 0 -198 35t-152.5 99.5t-98.5 159t-35 210.5q0 115 35 209t98.5 161t153.5 102.5t199 35.5 q86 0 168 -20.5t143 -57.5zM672 1065h-180l-236 383h123l201 -260h2l202 260h123z" />
<glyph horiz-adv-x="1081" d="M567 1065h-180l-235 383h122l201 -260h2l203 260h123zM979 489q0 -223 -135 -356t-391 -133h-301v967h311q121 0 217 -34t162.5 -96.5t101.5 -150.5t35 -197zM815 481q0 172 -96 257t-270 85h-136v-680h144q162 0 260 85t98 253z" />
<glyph horiz-adv-x="1161" d="M1059 489q0 -111 -35 -201.5t-101.5 -154t-165 -98.5t-225.5 -35h-303v414h-159v147h159v406h312q123 0 219 -34t162.5 -96.5t101.5 -150.5t35 -197zM895 481q0 172 -96.5 257t-272.5 85h-135v-262h266v-147h-266v-271h144q164 0 262 85t98 253z" />
<glyph horiz-adv-x="1161" d="M1059 489q0 -111 -35 -201.5t-101.5 -154t-165 -98.5t-225.5 -35h-303v414h-159v147h159v406h312q123 0 219 -34t162.5 -96.5t101.5 -150.5t35 -197zM895 481q0 172 -96.5 257t-272.5 85h-135v-262h266v-147h-266v-271h144q164 0 262 85t98 253z" />
<glyph horiz-adv-x="894" d="M152 0v967h634v-144h-475v-266h396v-145h-396v-269h475v-143h-634zM422 1065l-299 371h205l217 -371h-123z" />
<glyph horiz-adv-x="894" d="M152 0v967h634v-144h-475v-266h396v-145h-396v-269h475v-143h-634zM516 1065h-123l217 371h205z" />
<glyph horiz-adv-x="894" d="M152 0v967h634v-144h-475v-266h396v-145h-396v-269h475v-143h-634zM672 1065l-201 260h-2l-203 -260h-123l236 383h180l236 -383h-123z" />
<glyph horiz-adv-x="894" d="M152 0v967h634v-144h-475v-266h396v-145h-396v-269h475v-143h-634zM807 1202q0 -53 -34 -91t-89 -38t-89 38t-34 91q0 51 34 89t89 38t89 -38t34 -89zM389 1202q0 -53 -35 -91t-90 -38q-53 0 -88 38t-35 91q0 51 35 89t88 38q55 0 90 -38t35 -89z" />
<glyph horiz-adv-x="894" d="M152 0v967h634v-144h-475v-266h396v-145h-396v-269h475v-143h-634zM188 1102l9 108h544l11 -108h-564z" />
<glyph horiz-adv-x="894" d="M152 0v967h634v-144h-475v-266h396v-145h-396v-269h475v-143h-634zM805 1446q-10 -82 -35 -151.5t-64.5 -121t-97 -81t-131.5 -29.5t-131 29.5t-97 81t-64.5 121t-34.5 151.5h137q8 -51 24.5 -96t39 -79t54 -54.5t72.5 -20.5t73 20.5t55.5 54.5t38.5 79t24 96h137z" />
<glyph horiz-adv-x="894" d="M152 0v967h634v-144h-475v-266h396v-145h-396v-269h475v-143h-634zM602 1198q0 -49 -32.5 -86t-86.5 -37q-53 0 -84.5 37t-31.5 86q0 51 31.5 88t84.5 37t86 -37t33 -88z" />
<glyph horiz-adv-x="894" d="M707 0q-72 -51 -111 -102.5t-39 -112.5q0 -47 23.5 -73.5t68.5 -26.5q29 0 56.5 8t48.5 24l37 -127q-33 -23 -78 -39t-107 -16q-96 0 -156.5 52.5t-60.5 144.5t59.5 159.5t141.5 108.5h-438v967h634v-144h-475v-266h396v-145h-396v-269h475v-143h-79z" />
<glyph horiz-adv-x="894" d="M152 0v967h634v-144h-475v-266h396v-145h-396v-269h475v-143h-634zM575 1065h-180l-235 383h123l200 -260h2l203 260h123z" />
<glyph horiz-adv-x="1071" d="M262 487q0 -174 91 -272t245 -98q57 0 107.5 12t89.5 33v203h-248v145h401v-442q-78 -47 -172 -69t-180 -22q-109 0 -200 35t-156.5 99.5t-101.5 159t-36 210.5q0 117 36 210t101.5 160t156.5 102.5t200 35.5q88 0 179 -21.5t155 -60.5l-53 -145q-59 41 -132 63.5 t-147 22.5q-152 0 -244 -96.5t-92 -264.5zM764 1065l-201 260h-2l-203 -260h-122l235 383h180l236 -383h-123z" />
<glyph horiz-adv-x="1071" d="M262 487q0 -174 91 -272t245 -98q57 0 107.5 12t89.5 33v203h-248v145h401v-442q-78 -47 -172 -69t-180 -22q-109 0 -200 35t-156.5 99.5t-101.5 159t-36 210.5q0 117 36 210t101.5 160t156.5 102.5t200 35.5q88 0 179 -21.5t155 -60.5l-53 -145q-59 41 -132 63.5 t-147 22.5q-152 0 -244 -96.5t-92 -264.5zM889 1446q-10 -82 -35 -151.5t-64.5 -121t-97 -81t-131.5 -29.5t-131 29.5t-97 81t-64.5 121t-35.5 151.5h138q8 -51 24.5 -96t39 -79t54 -54.5t72.5 -20.5t73 20.5t55.5 54.5t38.5 79t24 96h137z" />
<glyph horiz-adv-x="1071" d="M262 487q0 -174 91 -272t245 -98q57 0 107.5 12t89.5 33v203h-248v145h401v-442q-78 -47 -172 -69t-180 -22q-109 0 -200 35t-156.5 99.5t-101.5 159t-36 210.5q0 117 36 210t101.5 160t156.5 102.5t200 35.5q88 0 179 -21.5t155 -60.5l-53 -145q-59 41 -132 63.5 t-147 22.5q-152 0 -244 -96.5t-92 -264.5zM678 1198q0 -49 -33 -86t-86 -37t-85 37t-32 86q0 51 32 88t85 37t86 -37t33 -88z" />
<glyph horiz-adv-x="1071" d="M262 487q0 -174 91 -272t245 -98q57 0 107.5 12t89.5 33v203h-248v145h401v-442q-78 -47 -172 -69t-180 -22q-109 0 -200 35t-156.5 99.5t-101.5 159t-36 210.5q0 117 36 210t101.5 160t156.5 102.5t200 35.5q88 0 179 -21.5t155 -60.5l-53 -145q-59 41 -132 63.5 t-147 22.5q-152 0 -244 -96.5t-92 -264.5zM434 -207q4 35 34 68t83 33q61 0 103 -44.5t42 -109.5q0 -96 -62.5 -165t-158.5 -126l-61 53q45 29 70.5 54.5t40 47t18.5 40t4 34.5q0 37 -21.5 61.5t-91.5 53.5z" />
<glyph horiz-adv-x="1116" d="M803 0v414h-490v-414h-161v967h161v-408h490v408h162v-967h-162zM766 1069l-201 260h-2l-203 -260h-122l235 383h180l236 -383h-123z" />
<glyph horiz-adv-x="1116" d="M803 0v414h-490v-414h-161v694h-156l8 109h148v164h161v-164h490v164h162v-164h143l10 -109h-153v-694h-162zM803 559v135h-490v-135h490z" />
<glyph horiz-adv-x="468" d="M154 0v967h161v-967h-161zM201 1065l-299 371h204l218 -371h-123z" />
<glyph horiz-adv-x="468" d="M154 0v967h161v-967h-161zM272 1065h-122l217 371h204z" />
<glyph horiz-adv-x="468" d="M154 0v967h161v-967h-161zM436 1065l-200 260h-3l-202 -260h-123l235 383h181l235 -383h-123z" />
<glyph horiz-adv-x="468" d="M154 0v967h161v-967h-161zM565 1202q0 -53 -33.5 -91t-89.5 -38q-55 0 -89 38t-34 91q0 51 34 89t89 38t89 -38t34 -89zM147 1202q0 -53 -34.5 -91t-89.5 -38q-53 0 -88 38t-35 91q0 51 34.5 89t88.5 38q55 0 89.5 -38t34.5 -89z" />
<glyph horiz-adv-x="468" d="M154 0v967h161v-967h-161zM-43 1102l8 108h545l10 -108h-563z" />
<glyph horiz-adv-x="468" d="M154 0v967h161v-967h-161zM567 1446q-10 -82 -34.5 -151.5t-64.5 -121t-97.5 -81t-130.5 -29.5q-74 0 -131.5 29.5t-97.5 81t-64.5 121t-34.5 151.5h137q8 -51 24.5 -96t39 -79t54.5 -54.5t73 -20.5t72.5 20.5t55 54.5t39 79t23.5 96h137z" />
<glyph horiz-adv-x="468" d="M315 0q-59 -47 -90.5 -94t-31.5 -101q0 -47 23.5 -73.5t68.5 -26.5q29 0 56.5 8t47.5 25l37 -127q-33 -23 -78 -39t-106 -16q-96 0 -156.5 52t-60.5 144q0 82 47 144.5t114 103.5h-32v967h161v-967v0z" />
<glyph horiz-adv-x="468" d="M154 0v967h161v-967h-161zM356 1227q0 -49 -32.5 -86t-85.5 -37t-85 37t-32 86q0 51 31.5 88t85.5 37q53 0 85.5 -37t32.5 -88z" />
<glyph horiz-adv-x="468" d="M154 0v967h161v-967h-161z" />
<glyph horiz-adv-x="720" d="M590 307q0 -152 -73 -241t-232 -89q-70 0 -129.5 17.5t-100.5 44.5l21 149q43 -29 95 -49t99 -20q84 0 121 49t37 149v650h162v-660zM715 1063l-201 260h-2l-203 -260h-123l236 383h180l236 -383h-123z" />
<glyph horiz-adv-x="720" d="M590 307q0 -152 -73 -241t-232 -89q-70 0 -129.5 17.5t-100.5 44.5l21 149q43 -29 95 -49t99 -20q84 0 121 49t37 149v650h162v-660v0z" />
<glyph horiz-adv-x="940" d="M315 514l383 453h199l-428 -475l432 -492h-201l-385 451h-2v-451h-161v967h161v-453h2zM330 -205q4 35 33.5 68t82.5 33q61 0 103.5 -44.5t42.5 -109.5q0 -96 -62.5 -165t-158.5 -126l-62 53q45 29 71 54.5t40 47t18 40t4 35.5q0 37 -21 61t-91 53z" />
<glyph horiz-adv-x="831" d="M152 0v967h161v-822h459v-145h-620zM276 1061h-122l217 371h204z" />
<glyph horiz-adv-x="831" d="M152 0v967h161v-822h459v-145h-620zM332 -205q4 35 33.5 68t83.5 33q61 0 103 -44.5t42 -109.5q0 -96 -62.5 -165t-158.5 -126l-62 53q45 29 71 54.5t40 47t18 40t4 35.5q0 37 -21 61t-91 53z" />
<glyph horiz-adv-x="1282" d="M152 0v967h161v-822h459v-145h-620zM897 870q6 49 40 85t99 36q31 0 62.5 -14t56.5 -39t40 -58.5t15 -74.5q0 -63 -25.5 -119.5t-68.5 -106t-97 -93.5t-112 -80l-71 69q209 152 208 260q0 39 -31.5 67.5t-115.5 67.5z" />
<glyph horiz-adv-x="1185" d="M1155 494q0 -53 -36 -93.5t-93 -40.5q-59 0 -96 40t-37 94q0 53 37 91t96 38q57 0 93 -38t36 -91zM152 0v967h161v-822h459v-145h-620z" />
<glyph horiz-adv-x="872" d="M354 145h459v-145h-620v356l-78 -20l-78 -21v150l78 20l78 21v461h161v-416l242 65v-149l-242 -66v-256z" />
<glyph horiz-adv-x="1118" d="M813 967h156v-977h-174l-492 741l4 -731h-155v967h178l487 -731zM907 1329q-14 -131 -59 -194.5t-139 -63.5q-47 0 -91.5 22.5t-84 48t-74.5 48t-64 22.5t-48 -27.5t-30 -99.5h-112q14 133 59 197t139 64q47 0 91.5 -23t84 -49.5t74.5 -49t64 -22.5t47 27.5t29 99.5h114z " />
<glyph horiz-adv-x="1118" d="M813 967h156v-977h-174l-492 741l4 -731h-155v967h178l487 -731zM592 1065h-123l217 371h205z" />
<glyph horiz-adv-x="1118" d="M813 967h156v-977h-174l-492 741l4 -731h-155v967h178l487 -731zM397 -205q4 35 34 68t83 33q61 0 103 -44.5t42 -109.5q0 -96 -62 -165t-159 -126l-61 53q45 29 70.5 54.5t40 47t18.5 40t4 35.5q0 37 -21.5 61t-91.5 53z" />
<glyph horiz-adv-x="1118" d="M813 967h156v-977h-174l-492 741l4 -731h-155v967h178l487 -731zM678 1065h-180l-236 383h123l201 -260h2l203 260h122z" />
<glyph horiz-adv-x="1187" d="M1085 487q0 -111 -36.5 -204t-102 -161.5t-156 -106.5t-196.5 -38t-196.5 35t-156 100.5t-102.5 159t-37 209.5q0 111 37 204t101.5 160.5t154.5 105.5t199 38q106 0 196.5 -34.5t156 -99t102 -158t36.5 -210.5zM922 481q0 168 -91.5 268.5t-240.5 100.5 q-72 0 -132.5 -26.5t-103.5 -74t-66.5 -114t-23.5 -148.5q0 -170 91 -270t241 -100q147 0 236.5 99t89.5 265zM565 1065l-299 371h205l217 -371h-123z" />
<glyph horiz-adv-x="1187" d="M1085 487q0 -111 -36.5 -204t-102 -161.5t-156 -106.5t-196.5 -38t-196.5 35t-156 100.5t-102.5 159t-37 209.5q0 111 37 204t101.5 160.5t154.5 105.5t199 38q106 0 196.5 -34.5t156 -99t102 -158t36.5 -210.5zM922 481q0 168 -91.5 268.5t-240.5 100.5 q-72 0 -132.5 -26.5t-103.5 -74t-66.5 -114t-23.5 -148.5q0 -170 91 -270t241 -100q147 0 236.5 99t89.5 265zM623 1065h-123l217 371h205z" />
<glyph horiz-adv-x="1187" d="M1085 487q0 -111 -36.5 -204t-102 -161.5t-156 -106.5t-196.5 -38t-196.5 35t-156 100.5t-102.5 159t-37 209.5q0 111 37 204t101.5 160.5t154.5 105.5t199 38q106 0 196.5 -34.5t156 -99t102 -158t36.5 -210.5zM922 481q0 168 -91.5 268.5t-240.5 100.5 q-72 0 -132.5 -26.5t-103.5 -74t-66.5 -114t-23.5 -148.5q0 -170 91 -270t241 -100q147 0 236.5 99t89.5 265zM797 1065l-201 260h-2l-203 -260h-123l236 383h180l236 -383h-123z" />
<glyph horiz-adv-x="1187" d="M1085 487q0 -111 -36.5 -204t-102 -161.5t-156 -106.5t-196.5 -38t-196.5 35t-156 100.5t-102.5 159t-37 209.5q0 111 37 204t101.5 160.5t154.5 105.5t199 38q106 0 196.5 -34.5t156 -99t102 -158t36.5 -210.5zM922 481q0 168 -91.5 268.5t-240.5 100.5 q-72 0 -132.5 -26.5t-103.5 -74t-66.5 -114t-23.5 -148.5q0 -170 91 -270t241 -100q147 0 236.5 99t89.5 265zM944 1329q-14 -131 -59 -194.5t-140 -63.5q-47 0 -91 22.5t-84 48t-74.5 48t-63.5 22.5t-48 -27.5t-30 -99.5h-112q14 133 59 197t139 64q47 0 91 -23t84 -49.5 t75 -49t64 -22.5t47 27.5t28 99.5h115z" />
<glyph horiz-adv-x="1187" d="M1085 487q0 -111 -36.5 -204t-102 -161.5t-156 -106.5t-196.5 -38t-196.5 35t-156 100.5t-102.5 159t-37 209.5q0 111 37 204t101.5 160.5t154.5 105.5t199 38q106 0 196.5 -34.5t156 -99t102 -158t36.5 -210.5zM922 481q0 168 -91.5 268.5t-240.5 100.5 q-72 0 -132.5 -26.5t-103.5 -74t-66.5 -114t-23.5 -148.5q0 -170 91 -270t241 -100q147 0 236.5 99t89.5 265zM926 1202q0 -53 -34 -91t-89 -38t-89 38t-34 91q0 51 34 89t89 38t89 -38t34 -89zM508 1202q0 -53 -35 -91t-90 -38q-53 0 -88 38t-35 91q0 51 35 89t88 38 q55 0 90 -38t35 -89z" />
<glyph horiz-adv-x="1187" d="M1085 487q0 -111 -36.5 -204t-102 -161.5t-156 -106.5t-196.5 -38t-196.5 35t-156 100.5t-102.5 159t-37 209.5q0 111 37 204t101.5 160.5t154.5 105.5t199 38q106 0 196.5 -34.5t156 -99t102 -158t36.5 -210.5zM922 481q0 168 -91.5 268.5t-240.5 100.5 q-72 0 -132.5 -26.5t-103.5 -74t-66.5 -114t-23.5 -148.5q0 -170 91 -270t241 -100q147 0 236.5 99t89.5 265zM311 1102l8 108h545l10 -108h-563z" />
<glyph horiz-adv-x="1187" d="M1085 487q0 -111 -36.5 -204t-102 -161.5t-156 -106.5t-196.5 -38t-196.5 35t-156 100.5t-102.5 159t-37 209.5q0 111 37 204t101.5 160.5t154.5 105.5t199 38q106 0 196.5 -34.5t156 -99t102 -158t36.5 -210.5zM922 481q0 168 -91.5 268.5t-240.5 100.5 q-72 0 -132.5 -26.5t-103.5 -74t-66.5 -114t-23.5 -148.5q0 -170 91 -270t241 -100q147 0 236.5 99t89.5 265zM944 1446q-10 -82 -34.5 -151.5t-64.5 -121t-97.5 -81t-131.5 -29.5t-131 29.5t-97 81t-64.5 121t-34.5 151.5h137q8 -51 24.5 -96t39 -79t54 -54.5t72.5 -20.5 t73 20.5t55.5 54.5t39 79t23.5 96h137z" />
<glyph horiz-adv-x="1187" d="M1085 487q0 -111 -36.5 -204t-102 -161.5t-156 -106.5t-196.5 -38t-196.5 35t-156 100.5t-102.5 159t-37 209.5q0 111 37 204t101.5 160.5t154.5 105.5t199 38q106 0 196.5 -34.5t156 -99t102 -158t36.5 -210.5zM922 481q0 168 -91.5 268.5t-240.5 100.5 q-72 0 -132.5 -26.5t-103.5 -74t-66.5 -114t-23.5 -148.5q0 -170 91 -270t241 -100q147 0 236.5 99t89.5 265zM799 1065h-146l275 362h172zM465 1065h-143l227 362h170z" />
<glyph horiz-adv-x="1187" d="M455 145q63 -29 141 -28q147 0 236.5 99t89.5 265q0 92 -28 164t-81 121zM733 821q-68 29 -143 29q-72 0 -132.5 -26.5t-103.5 -74t-66.5 -114t-23.5 -148.5q0 -184 109 -286zM295 68q-90 63 -141.5 167.5t-51.5 245.5q0 111 37 204t101.5 160.5t154.5 105.5t199 38 q115 0 213 -41l33 58h112l-61 -105q92 -63 143 -167.5t51 -246.5q0 -111 -36.5 -204t-102 -161.5t-156 -106.5t-196.5 -38q-115 0 -213 41l-33 -57h-115z" />
<glyph horiz-adv-x="1187" d="M455 145q63 -29 141 -28q147 0 236.5 99t89.5 265q0 92 -28 164t-81 121zM733 821q-68 29 -143 29q-72 0 -132.5 -26.5t-103.5 -74t-66.5 -114t-23.5 -148.5q0 -184 109 -286zM295 68q-90 63 -141.5 167.5t-51.5 245.5q0 111 37 204t101.5 160.5t154.5 105.5t199 38 q115 0 213 -41l33 58h112l-61 -105q92 -63 143 -167.5t51 -246.5q0 -111 -36.5 -204t-102 -161.5t-156 -106.5t-196.5 -38q-115 0 -213 41l-33 -57h-115zM614 1063h-122l217 371h204z" />
<glyph horiz-adv-x="1517" d="M1409 823h-477v-266h397v-145h-397v-269h477v-143h-788q-123 0 -219.5 34t-163 96.5t-101.5 150.5t-35 196q0 223 134.5 356.5t390.5 133.5h782v-144zM266 485q0 -172 96.5 -257t270.5 -85h137v680h-143q-162 0 -261.5 -85t-99.5 -253z" />
<glyph horiz-adv-x="942" d="M854 487q0 -168 -106.5 -252.5t-296.5 -84.5h-138v-150h-161v967h161v-162h152q199 0 294 -88.5t95 -229.5zM690 481q0 180 -237 181h-142v-373l150 4q229 6 229 188z" />
<glyph horiz-adv-x="1001" d="M313 0h-161v967h340q180 0 276 -80t96 -221q0 -106 -50 -177t-138 -106l239 -383h-186l-213 348l-203 -12v-336zM477 475q119 2 171 50t52 130q0 88 -55 128t-170 40h-164v-350zM469 1065h-123l217 371h205z" />
<glyph horiz-adv-x="1001" d="M313 0h-161v967h340q180 0 276 -80t96 -221q0 -106 -50 -177t-138 -106l239 -383h-186l-213 348l-203 -12v-336zM477 475q119 2 171 50t52 130q0 88 -55 128t-170 40h-164v-350zM354 -205q4 35 34 68t83 33q61 0 103 -44.5t42 -109.5q0 -96 -62 -165t-159 -126l-61 53 q45 29 70.5 54.5t40 47t18.5 40t4 35.5q0 37 -21.5 61t-91.5 53z" />
<glyph horiz-adv-x="1001" d="M313 0h-161v967h340q180 0 276 -80t96 -221q0 -106 -50 -177t-138 -106l239 -383h-186l-213 348l-203 -12v-336zM477 475q119 2 171 50t52 130q0 88 -55 128t-170 40h-164v-350zM551 1065h-180l-236 383h123l201 -260h2l203 260h122z" />
<glyph horiz-adv-x="878" d="M424 117q86 0 140 40t54 103q0 68 -54 99.5t-169 64.5q-51 14 -103 33.5t-95 52.5t-70 82t-27 121q0 125 91.5 200.5t244.5 75.5q182 0 322 -84l-47 -139q-61 39 -134 60.5t-139 21.5q-94 0 -136 -37t-42 -90q0 -66 59.5 -97.5t167.5 -60.5q53 -14 104.5 -35.5 t92.5 -55.5t66.5 -82t25.5 -118q0 -66 -25.5 -119t-71.5 -93t-111.5 -61.5t-145.5 -21.5q-92 0 -179 25t-159 66l43 141q66 -41 138.5 -66.5t158.5 -25.5zM446 1065h-122l217 371h204z" />
<glyph horiz-adv-x="878" d="M424 117q86 0 140 40t54 103q0 68 -54 99.5t-169 64.5q-51 14 -103 33.5t-95 52.5t-70 82t-27 121q0 125 91.5 200.5t244.5 75.5q182 0 322 -84l-47 -139q-61 39 -134 60.5t-139 21.5q-94 0 -136 -37t-42 -90q0 -66 59.5 -97.5t167.5 -60.5q53 -14 104.5 -35.5 t92.5 -55.5t66.5 -82t25.5 -118q0 -66 -25.5 -119t-71.5 -93t-111.5 -61.5t-145.5 -21.5q-92 0 -179 25t-159 66l43 141q66 -41 138.5 -66.5t158.5 -25.5zM645 1065l-201 260h-2l-202 -260h-123l235 383h180l236 -383h-123z" />
<glyph horiz-adv-x="878" d="M389 -139q121 0 186.5 -45t65.5 -123q0 -86 -78 -145.5t-258 -82.5l-12 107q115 6 166 36t51 75q0 47 -58.5 68.5t-187.5 0.5l-16 86l141 142q-84 4 -161.5 26.5t-143.5 61.5l43 141q66 -41 138.5 -66.5t158.5 -25.5t140 40t54 103q0 68 -54 99.5t-169 64.5 q-51 14 -103 33.5t-95 52.5t-70 82t-27 121q0 125 91.5 200.5t244.5 75.5q182 0 322 -84l-47 -139q-61 39 -134 60.5t-139 21.5q-94 0 -136 -37t-42 -90q0 -66 59.5 -97.5t167.5 -60.5q53 -14 104.5 -35.5t92.5 -55.5t66.5 -82t25.5 -118q0 -111 -69.5 -186.5t-188.5 -97.5 l-129 -127v0z" />
<glyph horiz-adv-x="878" d="M424 117q86 0 140 40t54 103q0 68 -54 99.5t-169 64.5q-51 14 -103 33.5t-95 52.5t-70 82t-27 121q0 125 91.5 200.5t244.5 75.5q182 0 322 -84l-47 -139q-61 39 -134 60.5t-139 21.5q-94 0 -136 -37t-42 -90q0 -66 59.5 -97.5t167.5 -60.5q53 -14 104.5 -35.5 t92.5 -55.5t66.5 -82t25.5 -118q0 -66 -25.5 -119t-71.5 -93t-111.5 -61.5t-145.5 -21.5q-92 0 -179 25t-159 66l43 141q66 -41 138.5 -66.5t158.5 -25.5zM309 -205q4 35 34 68t83 33q61 0 103 -44.5t42 -109.5q0 -96 -62.5 -165t-158.5 -126l-61 53q45 29 70.5 54.5t40 47 t18.5 40t4 35.5q0 37 -21.5 61t-91.5 53z" />
<glyph horiz-adv-x="878" d="M424 117q86 0 140 40t54 103q0 68 -54 99.5t-169 64.5q-51 14 -103 33.5t-95 52.5t-70 82t-27 121q0 125 91.5 200.5t244.5 75.5q182 0 322 -84l-47 -139q-61 39 -134 60.5t-139 21.5q-94 0 -136 -37t-42 -90q0 -66 59.5 -97.5t167.5 -60.5q53 -14 104.5 -35.5 t92.5 -55.5t66.5 -82t25.5 -118q0 -66 -25.5 -119t-71.5 -93t-111.5 -61.5t-145.5 -21.5q-92 0 -179 25t-159 66l43 141q66 -41 138.5 -66.5t158.5 -25.5zM549 1067h-180l-236 383h123l201 -260h2l203 260h122z" />
<glyph horiz-adv-x="950" d="M557 821v-821h-164v821h-332v146h828v-146h-332zM340 -205q4 35 33.5 68t83.5 33q61 0 103 -44.5t42 -109.5q0 -96 -62.5 -165t-158.5 -126l-62 53q45 29 71 54.5t40 47t18.5 40t4.5 35.5q0 37 -21.5 61t-91.5 53z" />
<glyph horiz-adv-x="950" d="M561 1065h-180l-236 383h123l201 -260h2l203 260h123zM557 821v-821h-164v821h-332v146h828v-146h-332z" />
<glyph horiz-adv-x="1040" d="M911 379q0 -193 -99 -297.5t-292 -104.5q-186 0 -288.5 100.5t-102.5 284.5v605h162v-582q0 -125 56 -193.5t177 -68.5q109 0 167.5 62.5t58.5 191.5v590h161v-588zM492 1065l-299 371h204l217 -371h-122z" />
<glyph horiz-adv-x="1040" d="M911 379q0 -193 -99 -297.5t-292 -104.5q-186 0 -288.5 100.5t-102.5 284.5v605h162v-582q0 -125 56 -193.5t177 -68.5q109 0 167.5 62.5t58.5 191.5v590h161v-588zM549 1065h-123l217 371h205z" />
<glyph horiz-adv-x="1040" d="M911 379q0 -193 -99 -297.5t-292 -104.5q-186 0 -288.5 100.5t-102.5 284.5v605h162v-582q0 -125 56 -193.5t177 -68.5q109 0 167.5 62.5t58.5 191.5v590h161v-588zM723 1065l-201 260h-2l-203 -260h-122l235 383h180l236 -383h-123z" />
<glyph horiz-adv-x="1040" d="M911 379q0 -193 -99 -297.5t-292 -104.5q-186 0 -288.5 100.5t-102.5 284.5v605h162v-582q0 -125 56 -193.5t177 -68.5q109 0 167.5 62.5t58.5 191.5v590h161v-588zM852 1202q0 -53 -34 -91t-89 -38t-89 38t-34 91q0 51 34 89t89 38t89 -38t34 -89zM434 1202 q0 -53 -34.5 -91t-90.5 -38q-53 0 -88 38t-35 91q0 51 35 89t88 38q55 0 90 -38t35 -89z" />
<glyph horiz-adv-x="1040" d="M911 379q0 -193 -99 -297.5t-292 -104.5q-186 0 -288.5 100.5t-102.5 284.5v605h162v-582q0 -125 56 -193.5t177 -68.5q109 0 167.5 62.5t58.5 191.5v590h161v-588zM264 1102l8 108h545l10 -108h-563z" />
<glyph horiz-adv-x="1040" d="M911 379q0 -193 -99 -297.5t-292 -104.5q-186 0 -288.5 100.5t-102.5 284.5v605h162v-582q0 -125 56 -193.5t177 -68.5q109 0 167.5 62.5t58.5 191.5v590h161v-588zM874 1446q-10 -82 -34.5 -151.5t-64.5 -121t-97 -81t-131 -29.5t-131.5 29.5t-97 81t-64.5 121 t-35 151.5h137q8 -51 24.5 -96t39 -79t54.5 -54.5t73 -20.5t72.5 20.5t55 54.5t39 79t23.5 96h137z" />
<glyph horiz-adv-x="1040" d="M911 379q0 -193 -99 -297.5t-292 -104.5q-186 0 -288.5 100.5t-102.5 284.5v605h162v-582q0 -125 56 -193.5t177 -68.5q109 0 167.5 62.5t58.5 191.5v590h161v-588zM784 1292q0 -47 -17 -87t-50 -70.5t-80 -48t-107 -17.5q-119 0 -186.5 65.5t-67.5 157.5t68 159t186 67 q119 0 185.5 -67t68.5 -159zM678 1294q0 55 -39 95.5t-109 40.5q-68 0 -106.5 -40t-38.5 -96q0 -55 39 -96t106 -41q70 0 109 41t39 96z" />
<glyph horiz-adv-x="1040" d="M911 379q0 -193 -99 -297.5t-292 -104.5q-186 0 -288.5 100.5t-102.5 284.5v605h162v-582q0 -125 56 -193.5t177 -68.5q109 0 167.5 62.5t58.5 191.5v590h161v-588zM745 1065h-145l274 362h173zM412 1065h-144l228 362h170z" />
<glyph horiz-adv-x="1040" d="M911 379q0 -131 -45 -218t-131 -141q-72 -45 -116 -99t-44 -116q0 -47 24 -73.5t69 -26.5q29 0 56.5 8t47.5 25l37 -127q-33 -23 -78 -39t-106 -16q-96 0 -156.5 52t-60.5 144q0 72 35.5 128.5t93.5 96.5h-17q-186 0 -288.5 100.5t-102.5 284.5v605h162v-582 q0 -125 56 -193.5t177 -68.5q109 0 167.5 62.5t58.5 191.5v590h161v-588v0z" />
<glyph horiz-adv-x="1509" d="M524 0h-162l-270 967h170l189 -756l215 756h184l217 -756l188 756h162l-270 -967h-166l-225 772zM963 1065l-201 260h-2l-203 -260h-123l236 383h180l235 -383h-122z" />
<glyph horiz-adv-x="1509" d="M524 0h-162l-270 967h170l189 -756l215 756h184l217 -756l188 756h162l-270 -967h-166l-225 772zM713 1065l-299 371h204l218 -371h-123z" />
<glyph horiz-adv-x="1509" d="M524 0h-162l-270 967h170l189 -756l215 756h184l217 -756l188 756h162l-270 -967h-166l-225 772zM801 1065h-123l217 371h205z" />
<glyph horiz-adv-x="1509" d="M524 0h-162l-270 967h170l189 -756l215 756h184l217 -756l188 756h162l-270 -967h-166l-225 772zM1092 1202q0 -53 -34 -91t-89 -38t-89 38t-34 91q0 51 33.5 89t89.5 38q55 0 89 -38t34 -89zM674 1202q0 -53 -35 -91t-90 -38q-53 0 -88 38t-35 91q0 51 35 89t88 38 q55 0 90 -38t35 -89z" />
<glyph horiz-adv-x="933" d="M549 377v-377h-162v379l-336 588h176l242 -435l238 435h178zM512 1065h-123l217 371h205z" />
<glyph horiz-adv-x="933" d="M549 377v-377h-162v379l-336 588h176l242 -435l238 435h178zM676 1065l-201 260h-2l-203 -260h-123l236 383h180l236 -383h-123z" />
<glyph horiz-adv-x="933" d="M549 377v-377h-162v379l-336 588h176l242 -435l238 435h178zM797 1202q0 -53 -34 -91t-89 -38t-89 38t-34 91q0 51 33.5 89t89.5 38q55 0 89 -38t34 -89zM379 1202q0 -53 -35 -91t-90 -38q-53 0 -88 38t-35 91q0 51 35 89t88 38q55 0 90 -38t35 -89z" />
<glyph horiz-adv-x="905" d="M74 0v117l532 704h-524v146h725v-119l-528 -703h526v-145h-731zM449 1065h-123l217 371h205z" />
<glyph horiz-adv-x="905" d="M74 0v117l532 704h-524v146h725v-119l-528 -703h526v-145h-731zM573 1198q0 -49 -32.5 -86t-85.5 -37t-85 37t-32 86q0 51 31.5 88t85.5 37q53 0 85.5 -37t32.5 -88z" />
<glyph horiz-adv-x="905" d="M74 0v117l532 704h-524v146h725v-119l-528 -703h526v-145h-731zM522 1065h-180l-236 383h123l201 -260h2l203 260h123z" />
<glyph horiz-adv-x="405" d="M-276 -238h-130l1088 1518h129z" />
<glyph horiz-adv-x="675" d="M102 49l2 88h506l4 -88h-512z" />
<glyph d="M952 643q0 -156 -31.5 -280.5t-89 -212t-140.5 -134.5t-183 -47q-102 0 -182 46t-137.5 133.5t-87 211t-29.5 279.5q0 154 31.5 278.5t89 212t139.5 134.5t184 47q100 0 181 -46t138.5 -133.5t87 -211t29.5 -277.5zM784 637q0 137 -21.5 237.5t-58 164t-88 94 t-108.5 30.5t-106.5 -29.5t-85 -93t-56 -163t-20.5 -236.5q0 -135 21.5 -233.5t58 -162t87 -94t109.5 -30.5q117 0 192.5 123t75.5 393z" />
<glyph d="M514 1092l-319 -86l-7 155l486 135v-1296h-160v1092z" />
<glyph d="M100 0l-8 166q145 137 260 240.5t194 190.5t121 165t42 162q0 104 -68 167.5t-174 63.5q-82 0 -163 -39t-142 -98l-60 147q31 27 72 53.5t90 46t103.5 32t109.5 12.5q90 0 164 -28t127 -78t83 -119.5t30 -155.5q0 -92 -39 -174t-116 -170t-190.5 -191.5t-263.5 -238.5 h639l9 -154h-820z" />
<glyph d="M543 678q98 0 168.5 -26.5t116.5 -69.5t68 -99.5t22 -115.5q0 -92 -37 -165t-99.5 -125t-146.5 -80t-178 -28q-47 0 -97.5 7.5t-99.5 18.5t-92 27.5t-74 34.5l31 156q59 -33 147 -62.5t187 -29.5q57 0 108 14.5t91 44t63.5 71.5t23.5 97q0 98 -74.5 160.5t-215.5 62.5 q-43 0 -95.5 -5t-93.5 -13v139q94 23 174 49.5t137.5 61.5t89 78t31.5 98q0 80 -57 129t-168 49q-76 0 -160 -35t-149 -94l-64 150q68 53 169.5 93t205.5 40q86 0 159 -21.5t125 -61.5t80.5 -97.5t28.5 -131.5q0 -115 -84.5 -195.5t-240.5 -125.5z" />
<glyph d="M799 326v-326h-152v326h-581l-19 114l578 850h174v-819h194l6 -145h-200zM647 1090l-420 -619h420v619z" />
<glyph d="M311 752q27 6 63 11t87 5q96 0 177 -25.5t140.5 -73.5t92 -119t32.5 -161q0 -92 -32.5 -170t-91 -133t-141.5 -86t-181 -31q-100 0 -196.5 25.5t-156.5 62.5l31 160q59 -37 146.5 -65.5t177.5 -28.5q123 0 200.5 64.5t77.5 193.5q0 109 -74.5 174.5t-213.5 65.5 q-86 0 -159 -16.5t-116 -39.5l-35 31l88 684h654l6 -160h-529l-47 -368v0z" />
<glyph d="M86 500q0 131 43 259t130 235.5t218 189.5t309 123l41 -138q-227 -57 -376.5 -186t-198.5 -321l6 -3q63 59 149.5 95.5t180.5 36.5q76 0 141.5 -28t114.5 -80t76.5 -125t27.5 -163t-29.5 -167.5t-85 -135t-133 -90.5t-172.5 -33q-113 0 -195.5 43t-138 116t-82 169.5 t-26.5 202.5zM248 453q0 -68 18.5 -128.5t55 -106.5t90 -72.5t125.5 -26.5q113 0 180 75.5t67 192.5q0 121 -64.5 187.5t-174.5 66.5q-88 0 -165 -35t-122 -76q-10 -36 -10 -77z" />
<glyph d="M80 1120l6 160h829l19 -139l-574 -1141h-167l569 1120h-682z" />
<glyph d="M942 338q0 -74 -27.5 -141.5t-82 -117.5t-135.5 -80t-187 -30q-111 0 -191.5 29t-134 77t-79 111.5t-25.5 135.5q0 66 23.5 119t60.5 92.5t81 69.5t85 48q-92 47 -160 116t-68 177q0 80 29 147.5t83 116.5t132 77t176 28q102 0 178 -29t125 -78t73 -112.5t24 -132.5 q0 -59 -19.5 -108.5t-51.5 -88.5t-72 -69.5t-79 -51.5q49 -25 92.5 -54.5t77 -66.5t53 -82t19.5 -102zM760 944q0 104 -71 163.5t-173 59.5q-123 0 -186.5 -60t-63.5 -144q0 -49 25.5 -90.5t68.5 -74t100.5 -57t123.5 -41.5q78 37 127 97.5t49 146.5zM778 317 q0 55 -26.5 98.5t-71.5 78t-105.5 59.5t-125.5 43q-90 -37 -148.5 -101.5t-58.5 -156.5q0 -102 76.5 -162.5t199.5 -60.5q129 0 194.5 53t65.5 149z" />
<glyph d="M936 780q0 -133 -43 -260t-130 -234.5t-218 -189.5t-309 -123l-41 138q229 57 377.5 186t197.5 321l-6 3q-63 -59 -149.5 -95.5t-180.5 -36.5q-76 0 -141.5 28t-113.5 80t-75.5 125t-27.5 163t29.5 167.5t84 135t131 90.5t173.5 33q113 0 195.5 -43t138 -116t82 -169.5 t26.5 -202.5zM774 827q0 68 -18.5 128.5t-55 106.5t-90 72.5t-123.5 26.5q-115 0 -182 -75.5t-67 -192.5q0 -121 64.5 -187.5t174.5 -66.5q88 0 165 35t122 76q10 36 10 77z" />
<glyph d="M487 125q123 0 201 59.5t78 155.5q0 88 -58.5 134t-183.5 83l-57 -432h20zM565 1495h99l-27 -195q72 -12 140.5 -36.5t131.5 -65.5l-61 -151q-51 35 -110.5 58t-121.5 36q-2 -31 -8 -64q-4 -29 -10 -64.5t-10 -74.5q-12 -90 -27 -205q70 -18 137.5 -46t119.5 -73 t85 -108.5t33 -153.5q0 -84 -33 -153.5t-93 -120.5t-143 -80t-184 -29h-39q-2 -16 -4 -35q-2 -16 -4 -35.5t-6 -39.5q-8 -49 -14 -111h-99l31 234q-162 25 -291 108l58 158q57 -39 119.5 -67.5t134.5 -43.5l61 447q-66 18 -129 44.5t-112.5 68.5t-80 103.5t-30.5 149.5 q0 80 30.5 146.5t87 115t135.5 74t173 25.5h37zM520 1153h-14q-137 0 -197.5 -55.5t-60.5 -134.5q0 -82 55 -125t164 -78z" />
<glyph d="M723 958q106 -18 190 -69l-41 -148q-39 25 -80.5 42.5t-89.5 25.5l-92 -690q74 0 142.5 20.5t126.5 57.5l28 -150q-61 -37 -137 -57.5t-164 -20.5h-16l-29 -221h-96l31 232q-166 35 -260.5 165.5t-94.5 323.5q0 111 35 203t96.5 158.5t147.5 102.5t188 36h21l24 184h97z M608 819q-147 0 -223 -94t-76 -254q0 -135 54.5 -223t152.5 -117z" />
<glyph d="M242 672q-6 111 -6 200q0 113 31.5 195t86 136t129 81t160.5 27q90 0 165 -23.5t138 -64.5l-41 -150q-53 35 -119.5 60.5t-142.5 25.5q-125 0 -182.5 -76.5t-57.5 -193.5q0 -45 2.5 -99.5t6.5 -117.5h401l-6 -111h-391q2 -47 3 -92t1 -92q0 -80 -14 -137 q70 -57 148.5 -87t133.5 -30q70 0 126 46t79 173l129 -29q-6 -84 -33.5 -148.5t-72 -107.5t-99.5 -65.5t-115 -22.5q-92 0 -181 46t-165 112q-39 -55 -107.5 -95t-176.5 -67q-10 41 -19 72q-8 27 -13 47t-5 16q66 18 107.5 40t66 52.5t34 71.5t9.5 96q0 96 -6 201h-189 l-6 111h191v0z" />
<glyph d="M72 539l-6 112h313l-399 629h194l338 -563l336 563h188l-397 -629h313l-6 -112h-356v-160h356l6 -111h-360v-268h-166v268h-360l6 111h356v160h-356z" />
<glyph horiz-adv-x="1028" d="M68 756l-7 112h170q23 117 67 201t105.5 138.5t136 79t156.5 24.5q186 0 314 -78l-41 -150q-59 39 -128 57.5t-145 18.5q-117 0 -190.5 -70.5t-104.5 -220.5h465l-6 -112h-473q-2 -25 -3 -51.5t-1 -55.5q0 -66 6 -121h410l6 -112h-399q35 -154 109.5 -224.5t178.5 -70.5 q164 0 281 76l29 -152q-127 -76 -314 -76q-88 0 -163.5 23.5t-136 77t-102.5 138.5t-61 208h-166l7 112h147q-2 25 -3 50.5t-1 54.5q0 33 1 63.5t3 59.5h-147z" />
<glyph d="M846 975q0 -68 -23.5 -128.5t-66.5 -106.5t-105.5 -72.5t-140.5 -26.5t-139.5 26.5t-104.5 72.5t-66.5 106.5t-23.5 128.5t23.5 129t66.5 107t104.5 73t139.5 27t140.5 -27t105.5 -73t66.5 -107t23.5 -129zM737 975q0 98 -59.5 165.5t-167.5 67.5q-53 0 -95 -18.5 t-71 -50t-44 -73.5t-15 -91q0 -47 15 -88t44 -73t71 -50.5t95 -18.5t95 18.5t72 50.5t45 73t15 88z" />
<glyph d="M588 408v-349h-144v349h-346l6 145h340v346h144v-346h336l6 -145h-342z" />
<glyph d="M588 469v-287h-144v287h-346l6 145h340v287h144v-287h336l6 -145h-342zM98 0l6 145h820l6 -145h-832z" />
<glyph d="M926 240h-144v290h-684l6 146h822v-436z" />
<glyph d="M117 594l-11 145h816l-11 -145h-794zM106 221l11 146h794l11 -146h-816z" />
<glyph d="M840 59l-322 326l-321 -326l-99 99l326 321l-326 322l99 98l321 -326l322 326l98 -98l-326 -322l326 -321z" />
<glyph d="M98 408l6 145h820l6 -145h-832zM653 168q0 -53 -37.5 -95t-97.5 -42q-59 0 -99 42t-40 95t40 93t99 40t97 -40t38 -93zM653 793q0 -53 -40 -93.5t-99 -40.5t-97 40t-38 94q0 53 38 95t97 42t99 -42t40 -95z" />
<glyph d="M918 35l-824 387v121l821 387v-162l-608 -276v-21l611 -274v-162z" />
<glyph d="M86 35v162l610 274v21l-608 276v162l821 -387v-121z" />
<glyph horiz-adv-x="512" d="M188 1438h138v-1846h-138v1846z" />
<glyph horiz-adv-x="512" d="M188 1315h138v-686h-138v686zM188 401h138v-686h-138v686z" />
<glyph d="M905 475q0 -23 -12 -63.5t-29.5 -83.5t-37 -80t-35.5 -53t-53.5 -36t-80.5 -37.5t-84 -29.5t-63 -12q-23 0 -62.5 12t-82.5 29.5t-80 37t-52 36.5q-16 16 -35.5 53t-38 80t-30.5 84t-12 63q0 23 12 63t30.5 83t38 79.5t35.5 53.5q14 14 52.5 34.5t81.5 38t82.5 29.5 t62.5 12t62.5 -12t82.5 -29.5t80 -38t54 -34.5q14 -16 34.5 -53t38 -80t29.5 -83t12 -63z" />
<glyph d="M868 623q-14 -131 -59 -194.5t-139 -63.5q-47 0 -91 22.5t-84 48t-75 48t-64 22.5t-48 -27.5t-29 -99.5h-113q14 133 59 196.5t140 63.5q47 0 91 -22.5t84 -49t74.5 -49t63.5 -22.5t47 27.5t29 99.5h114v0z" />
<glyph horiz-adv-x="512" d="M88 815l236 506l153 -74l-319 -432h-70z" />
<glyph d="M498 815l235 506l154 -74l-320 -432h-69zM190 815l236 506l154 -74l-320 -432h-70z" />
<glyph d="M850 -526q-92 45 -192.5 131t-185.5 210t-140.5 283.5t-55.5 350.5q0 190 55.5 349.5t139.5 283.5t185.5 211t191.5 132l74 -106q-84 -45 -172 -126t-160 -192.5t-119 -251t-47 -300.5q0 -162 47 -300.5t119 -250t160 -192.5t172 -126l-72 -106v0z" />
<glyph d="M102 -420q84 45 172 126t161 192.5t119 250t46 300.5t-46 301t-119 250.5t-161 192.5t-172 126l74 106q90 -45 190.5 -132t185.5 -211t140.5 -283.5t55.5 -349.5t-55.5 -350t-140.5 -284t-185.5 -210t-192.5 -131z" />
<glyph d="M307 -455v1837h561v-133h-415v-1571h415v-133h-561z" />
<glyph d="M158 -322h415v1571h-415v133h561v-1837h-561v133z" />
<glyph d="M293 702l-113 144l289 125v10l-281 129l103 145l209 -237l8 2l39 307l166 -53l-160 -270l6 -7l295 60v-172l-295 61l-6 -6l154 -272l-166 -50l-35 310l-6 2z" />
<glyph d="M823 -469q-221 10 -338.5 71.5t-117.5 202.5q0 61 15 116.5t32.5 106t33 98.5t15.5 97q0 88 -59.5 123t-190.5 45l-6 82l6 82q131 10 190.5 44t59.5 124q0 49 -15.5 96t-33 98.5t-32.5 106.5t-15 117q0 141 117.5 203.5t338.5 72.5v-117q-166 -12 -235.5 -47.5 t-69.5 -101.5q0 -47 15.5 -93t34 -94.5t33.5 -100.5t15 -111q0 -117 -70.5 -188.5t-205.5 -80.5v-20q135 -10 205.5 -82t70.5 -188q0 -59 -15 -110.5t-33.5 -98.5t-34 -92.5t-15.5 -90.5q0 -70 69.5 -107.5t235.5 -47.5v-115v0z" />
<glyph d="M809 391q-131 -10 -191.5 -45t-60.5 -123q0 -49 15.5 -97t34 -98.5t33.5 -105.5t15 -117q0 -141 -116.5 -202.5t-339.5 -71.5v115q166 10 235.5 48t69.5 105q0 45 -15.5 90t-33 93.5t-32.5 99.5t-15 111q0 117 68.5 188.5t205.5 81.5v20q-137 8 -205.5 80t-68.5 189 q0 59 15 111t32.5 100.5t33 94.5t15.5 93q0 66 -69.5 101.5t-235.5 47.5v117q223 -10 339.5 -72.5t116.5 -203.5q0 -61 -15 -116.5t-33.5 -107t-34 -98.5t-15.5 -96q0 -90 60.5 -124t191.5 -44l6 -82z" />
<glyph d="M961 602q0 -92 -55.5 -157.5t-147.5 -96.5q45 -33 71.5 -77t26.5 -107q0 -66 -26.5 -121t-73.5 -95t-111.5 -61.5t-140.5 -21.5q-86 0 -173 23.5t-151 64.5l41 147q59 -41 137 -64.5t150 -23.5q82 0 136 36t54 102q0 35 -22.5 59t-60 43.5t-87 35t-100.5 29.5 q-61 18 -123.5 39t-112 51.5t-80 75.5t-30.5 111q0 45 17.5 84t47 71.5t68.5 56t82 38.5q-49 33 -81 77t-32 109q0 66 26 119t71 90t106.5 57.5t130.5 20.5q82 0 159 -18.5t142 -51.5l-43 -147q-59 33 -133 51t-133 18q-78 0 -124 -30.5t-46 -89.5q0 -33 22.5 -56.5 t59.5 -41t85 -32t101 -28.5q63 -18 126 -40t113 -54.5t82 -79.5t32 -115zM809 567q0 51 -42 83t-105.5 56.5t-140.5 46t-144 52.5q-53 -31 -99.5 -75t-46.5 -99q0 -49 44 -80t111 -55.5t145.5 -47t148.5 -55.5q49 29 89 72t40 102z" />
<glyph d="M698 535q-29 -6 -61.5 -10.5t-67.5 -4.5q-121 0 -211 29t-148 79t-87 117.5t-29 147.5q0 96 36 169t100.5 121t153.5 72.5t196 24.5h256v-1411h-138v666v0z" />
<glyph horiz-adv-x="512" d="M389 102q0 -53 -36 -93t-93 -40q-59 0 -96 40t-37 93t37 91t96 38q57 0 93 -38t36 -91z" />
<glyph horiz-adv-x="512" d="M115 129q6 49 39.5 85t99.5 36q31 0 62.5 -14.5t56 -39t40 -59.5t15.5 -76q0 -63 -25.5 -118.5t-68.5 -105.5t-97.5 -93t-111.5 -82l-72 72q209 152 209 260q0 39 -31.5 67.5t-115.5 67.5z" />
<glyph horiz-adv-x="512" d="M389 733q0 -53 -36 -93t-93 -40q-59 0 -96 40t-37 93t37 91t96 38q57 0 93 -38t36 -91zM389 102q0 -53 -36 -93t-93 -40q-59 0 -96 40t-37 93t37 91t96 38q57 0 93 -38t36 -91z" />
<glyph horiz-adv-x="512" d="M389 733q0 -53 -36 -93t-93 -40q-59 0 -96 40t-37 93t37 91t96 38q57 0 93 -38t36 -91zM115 129q6 49 39.5 85t99.5 36q31 0 62.5 -14.5t56 -39t40 -59.5t15.5 -76q0 -63 -25.5 -118.5t-68.5 -105.5t-97.5 -93t-111.5 -82l-72 72q209 152 209 260q0 39 -31.5 67.5 t-115.5 67.5z" />
<glyph horiz-adv-x="700" d="M598 51l-537 332v192l537 332l16 -123l-409 -303v-4l409 -303z" />
<glyph horiz-adv-x="700" d="M102 51l-16 123l410 303v4l-410 303l16 123l537 -332v-192z" />
<glyph horiz-adv-x="1187" d="M1120 51l-536 332v192l536 332l15 -123l-398 -303v-4l398 -303zM551 74l-510 313v184l510 314l16 -115l-379 -289v-4l379 -289z" />
<glyph horiz-adv-x="1200" d="M649 74l-16 114l379 289v4l-379 289l16 115l510 -314v-184zM80 51l-14 123l397 303v4l-397 303l14 123l536 -332v-192z" />
<glyph horiz-adv-x="512" d="M389 467q0 -53 -36 -93t-93 -40q-59 0 -96 40t-37 93t37 91t96 38q57 0 93 -38t36 -91z" />
<glyph horiz-adv-x="634" d="M68 418v157h503v-157h-503z" />
<glyph horiz-adv-x="944" d="M61 424l7 121h813l6 -121h-826z" />
<glyph horiz-adv-x="1906" d="M61 424l7 121h1775l6 -121h-1788z" />
<glyph horiz-adv-x="1536" d="M770 1196l586 -1104h-1176zM768 815l-260 -534h520z" />
<glyph horiz-adv-x="1536" d="M1401 639l-1104 -586v1176zM1020 641l-535 260v-520z" />
<glyph horiz-adv-x="1536" d="M1356 1196l-586 -1104l-590 1104h1176zM508 1008l260 -535l260 535h-520z" />
<glyph horiz-adv-x="1536" d="M1237 53l-1104 586l1104 590v-1176zM1049 901l-535 -260l535 -260v520z" />
<glyph horiz-adv-x="1536" d="M770 1196l586 -1104h-1176z" />
<glyph horiz-adv-x="1536" d="M1401 639l-1104 -586v1176z" />
<glyph horiz-adv-x="1536" d="M1356 1196l-586 -1104l-590 1104h1176z" />
<glyph horiz-adv-x="1536" d="M1237 53l-1104 586l1104 590v-1176z" />
<glyph horiz-adv-x="1536" d="M694 1028l-452 -473l-121 111l639 645h14l641 -645l-121 -111l-454 473l12 -1048h-170z" />
<glyph horiz-adv-x="1536" d="M688 113l473 452l-1048 -12v170l1048 -12l-473 454l111 121l645 -641v-14l-645 -639z" />
<glyph horiz-adv-x="1536" d="M117 614l121 111l454 -473l-12 1048h170l-12 -1048l452 473l121 -111l-639 -645h-14z" />
<glyph horiz-adv-x="1536" d="M92 631v14l645 641l111 -121l-473 -454l1048 12v-170l-1048 12l473 -452l-111 -121z" />
<glyph d="M940 854v-854h-856v854h856zM831 750h-641v-641h641v641z" />
<glyph d="M940 854v-854h-856v854h856zM754 670h-484v-484h484v484z" />
<glyph d="M940 854v-854h-856v854h856zM772 764l76 -76v76h-76zM715 764h-133l266 -266v131zM524 764h-131l455 -455v131zM336 764h-131l643 -643v131zM176 735v-133l512 -508h131zM176 545v-131l322 -320h131zM176 354v-131l131 -129h131zM176 168v-74h74z" />
<glyph d="M84 854h856v-854h-856v854z" />
<glyph horiz-adv-x="1536" d="M1409 0h-1282v1282h1282v-1282zM1296 1169h-1056v-1056h1056v1056z" />
<glyph horiz-adv-x="1536" d="M1409 0h-1282v1282h1282v-1282zM362 236h812v811h-812v-811z" />
<glyph horiz-adv-x="1536" d="M1409 0h-1282v1282h1282v-1282zM1296 1169h-159l159 -159v159zM1296 956l-213 213h-237l450 -450v237zM1296 666l-503 503h-238l741 -741v238zM1296 377l-792 792h-238l1030 -1030v238zM1272 113l-1032 1032v-238l794 -794h238zM240 616l503 -503h238l-741 741v-238z M690 113l-450 450v-237l213 -213h237zM240 113h163l-163 163v-163z" />
<glyph horiz-adv-x="1536" d="M1409 0h-1282v1282h1282v-1282z" />
<glyph d="M512 -20q-94 0 -176 34.5t-142.5 95t-95.5 142.5t-35 176t35 175t95.5 141.5t142.5 95t176 34.5t176 -34.5t142.5 -95t95.5 -141.5t35 -175t-35 -176t-95.5 -142.5t-142.5 -95t-176 -34.5zM852 428q0 72 -25.5 134.5t-71.5 109.5t-108.5 73.5t-134.5 26.5t-134.5 -26.5 t-108.5 -73.5t-71.5 -109.5t-25.5 -134.5t25.5 -134.5t71.5 -109.5t108.5 -73.5t134.5 -26.5t134.5 26.5t108.5 73.5t71.5 109.5t25.5 134.5z" />
<glyph d="M512 -20q-94 0 -176 34.5t-142.5 95t-95.5 142.5t-35 176t35 175t95.5 141.5t142.5 95t176 34.5t176 -34.5t142.5 -95t95.5 -141.5t35 -175t-35 -176t-95.5 -142.5t-142.5 -95t-176 -34.5zM770 428q0 53 -19.5 101.5t-54 84t-82 56t-102.5 20.5t-102.5 -20.5t-82 -56 t-54 -84t-19.5 -101.5q0 -55 19.5 -102t54 -83t82 -56.5t102.5 -20.5t102.5 20.5t82 56.5t54 83t19.5 102z" />
<glyph d="M512 -20q-94 0 -176 34.5t-142.5 95t-95.5 142.5t-35 176t35 175t95.5 141.5t142.5 95t176 34.5t176 -34.5t142.5 -95t95.5 -141.5t35 -175t-35 -176t-95.5 -142.5t-142.5 -95t-176 -34.5zM770 690q-41 41 -93 67.5t-114 35.5l309 -310q-8 61 -34.5 113.5t-67.5 93.5z M500 797q-29 -2 -57.5 -7.5t-55.5 -15.5l467 -469q10 29 15 57.5t8 57.5zM346 758q-23 -10 -42 -24.5t-36 -31.5l518 -520q35 35 54 80zM238 674q-35 -35 -54 -82l496 -494q23 10 42 24.5t36 31.5zM168 549q-16 -49 -21 -113l377 -377q63 0 113 21zM152 373 q8 -63 36.5 -117.5t71.5 -95.5q41 -39 91 -64.5t110 -34.5z" />
<glyph d="M512 -20q-94 0 -176 34.5t-142.5 95t-95.5 142.5t-35 176t35 175t95.5 141.5t142.5 95t176 34.5t176 -34.5t142.5 -95t95.5 -141.5t35 -175t-35 -176t-95.5 -142.5t-142.5 -95t-176 -34.5z" />
<glyph horiz-adv-x="1536" d="M1440 641q0 -141 -51.5 -263t-142.5 -213t-214 -143.5t-264 -52.5t-264 52.5t-214 143.5t-142.5 213t-51.5 263t51.5 263t142.5 213t214 143.5t264 52.5t264 -52.5t214 -143.5t142.5 -213t51.5 -263zM768 76q119 0 221.5 44t177 120.5t117.5 180t43 220.5t-43 220.5 t-117.5 180t-177 120.5t-221.5 44t-221.5 -44t-177 -120.5t-117.5 -180t-43 -220.5t43 -220.5t117.5 -180t177 -120.5t221.5 -44z" />
<glyph horiz-adv-x="1536" d="M1440 641q0 -141 -51.5 -263t-142.5 -213t-214 -143.5t-264 -52.5t-264 52.5t-214 143.5t-142.5 213t-51.5 263t51.5 263t142.5 213t214 143.5t264 52.5t264 -52.5t214 -143.5t142.5 -213t51.5 -263zM768 1083q-92 0 -172 -34.5t-138.5 -95t-92 -140.5t-33.5 -172 t33.5 -172t92 -140.5t138.5 -95t172 -34.5t172 34.5t138.5 95t92 140.5t33.5 172t-33.5 172t-92 140.5t-138.5 95t-172 34.5z" />
<glyph horiz-adv-x="1536" d="M1440 641q0 -141 -51.5 -263t-142.5 -213t-214 -143.5t-264 -52.5t-264 52.5t-214 143.5t-142.5 213t-51.5 263t51.5 264t142.5 214t214 144.5t264 53.5t264 -53.5t214 -144.5t142.5 -214t51.5 -264zM1325 690q-8 104 -50 194.5t-109.5 159t-159 110.5t-195.5 50z M1288 434q35 92 39 201l-571 571q-109 -4 -199 -39l367 -366q68 -70 133 -135.5t117 -116.5q59 -62 114 -115zM1180 256q57 59 94 141q-55 53 -117 117q-53 53 -119.5 120.5t-138.5 139.5l-377 377q-78 -37 -139 -98zM1016 131q78 37 139 98l-799 799q-29 -31 -52 -66.5 t-42 -76.5zM246 848q-33 -92 -37 -201l571 -571q53 0 102.5 10t96.5 29zM211 592q8 -104 50 -194.5t109.5 -159t159 -110.5t195.5 -50z" />
<glyph horiz-adv-x="1536" d="M1440 641q0 -141 -51.5 -263t-142.5 -213t-214 -143.5t-264 -52.5t-264 52.5t-214 143.5t-142.5 213t-51.5 263t51.5 263t142.5 213t214 143.5t264 52.5t264 -52.5t214 -143.5t142.5 -213t51.5 -263z" />
<glyph horiz-adv-x="1552" d="M1194 303l141 -387l-387 141l-174 -370l-172 368l-383 -139l139 383l-370 176l370 170l-139 387l383 -141l176 371l170 -371l387 141l-141 -387l369 -168zM1087 602l103 285l-285 -103l-129 273l-129 -273l-285 103l105 -285l-274 -129l274 -129l-105 -283l285 105 l127 -277l131 277l285 -105l-103 287l271 127z" />
</font>
</defs>
</svg>
