<?xml version="1.0" standalone="no"?>
<!DOCTYPE svg PUBLIC "-//W3C//DTD SVG 1.1//EN" "http://www.w3.org/Graphics/SVG/1.1/DTD/svg11.dtd" >
<svg xmlns="http://www.w3.org/2000/svg" xmlns:xlink="http://www.w3.org/1999/xlink" version="1.1">
<metadata></metadata>
<defs>
<font id="freightsans_prolight" horiz-adv-x="1024" >
<font-face units-per-em="2048" ascent="1638" descent="-410" />
<missing-glyph horiz-adv-x="466" />
<glyph unicode="&#xfb00;" horiz-adv-x="1146" d="M250 0h-84v854l-135 8l6 51l127 17l2 157q2 88 21.5 148.5t54 98.5t81 54.5t99.5 16.5q45 0 86 -10.5t72 -26.5l-21 -76q-33 16 -64.5 26.5t-74.5 10.5q-170 0 -170 -237v-164l489 2l2 178q2 88 21.5 148.5t54.5 98.5t81 54t99 16q45 0 86 -10t72 -26l-20 -76 q-33 16 -65 26.5t-75 10.5q-170 0 -170 -238v-184h291l-6 -74h-285v-854h-84v854h-491v-854z" />
<glyph unicode="&#xfb01;" horiz-adv-x="942" d="M805 1227q0 -25 -16.5 -45.5t-45.5 -20.5t-44 20.5t-15 45.5q0 23 15.5 42t43.5 19q29 0 45.5 -19t16.5 -42zM559 1313q-33 16 -64.5 26.5t-74.5 10.5q-170 0 -170 -238v-184h291l-6 -72h-285v-856h-84v852l-135 8l6 53l127 17l2 178q2 88 21.5 148.5t54 98.5t81 54 t99.5 16q45 0 86 -10t72 -26zM702 0v932l84 26v-958h-84z" />
<glyph unicode="&#xfb02;" horiz-adv-x="935" d="M559 1313q-33 16 -64.5 26.5t-74.5 10.5q-170 0 -170 -238v-184h291l-6 -74h-285v-854h-84v854l-135 8l6 51l127 17l2 178q2 88 21.5 148.5t54 98.5t81 54t99.5 16q45 0 86 -10t72 -26zM702 0v1380l84 27v-1407h-84z" />
<glyph unicode="&#xfb03;" horiz-adv-x="1517" d="M250 0h-84v854l-135 8l6 51l127 17l2 157q0 88 20.5 148.5t54 98.5t81 54.5t100.5 16.5q45 0 86 -10.5t72 -26.5l-21 -76q-33 16 -64.5 26.5t-74.5 10.5q-170 0 -170 -237v-164l489 2l2 178q2 88 21.5 148.5t54.5 98.5t81 54t99 16q45 0 86 -10t72 -26l-20 -76 q-33 16 -65 26.5t-75 10.5q-170 0 -170 -238v-184h441l96 30v-958h-84v854h-453v-854h-84v854h-491v-854z" />
<glyph unicode="&#xfb04;" horiz-adv-x="1511" d="M1278 0v1380l84 27v-1407h-84zM250 0h-84v854l-135 8l6 51l127 17l2 157q2 88 21.5 148.5t54 98.5t81 54.5t99.5 16.5q45 0 86 -10.5t72 -26.5l-21 -76q-33 16 -64.5 26.5t-74.5 10.5q-170 0 -170 -237v-164l489 2l2 178q2 88 21.5 148.5t54.5 98.5t81 54t99 16 q45 0 86 -10t72 -26l-20 -76q-33 16 -65 26.5t-75 10.5q-170 0 -170 -238v-184h291l-6 -74h-285v-854h-84v854h-491v-854z" />
<glyph horiz-adv-x="0" />
<glyph unicode="&#xd;" horiz-adv-x="466" />
<glyph horiz-adv-x="0" />
<glyph horiz-adv-x="0" />
<glyph unicode=" "  horiz-adv-x="466" />
<glyph unicode="&#x09;" horiz-adv-x="466" />
<glyph unicode="&#xa0;" horiz-adv-x="466" />
<glyph unicode="!" horiz-adv-x="501" d="M201 1325h102l-27 -963h-47zM324 57q0 -31 -20.5 -54t-53.5 -23t-52.5 23.5t-19.5 53.5q0 29 19.5 51.5t52.5 22.5t53.5 -22.5t20.5 -51.5z" />
<glyph unicode="&#x22;" horiz-adv-x="618" d="M299 815l285 512l90 -45l-307 -467h-68zM-2 815l285 512l90 -45l-307 -467h-68z" />
<glyph unicode="#" horiz-adv-x="1159" d="M84 770v70h278l127 475h74l-127 -475h375l127 475h74l-127 -475h188v-70h-209l-92 -348h260v-70h-280l-134 -504h-73l135 504h-377l-135 -504h-72l135 504h-188v70h207l94 348h-260zM416 770l-94 -348h376l95 348h-377z" />
<glyph unicode="$" horiz-adv-x="974" d="M453 55h20q74 0 134.5 21.5t103.5 58.5t66.5 85t23.5 102q0 57 -20.5 100t-56.5 75.5t-86 57.5t-112 47zM580 1495h75l-28 -209q68 -12 126 -35.5t105 -56.5l-33 -76q-96 68 -209 92l-71 -526q63 -23 124.5 -51.5t107.5 -69.5t75 -97t29 -136q0 -74 -30 -138.5 t-84 -111.5t-130 -73.5t-168 -26.5h-27l-30 -232h-76l33 238q-86 12 -158 39.5t-133 68.5l33 74q57 -39 123.5 -66.5t144.5 -40.5l78 566q-68 23 -131.5 49t-112.5 65t-79 93.5t-30 134.5q0 70 29 131t81 105t123 69.5t155 25.5h30.5t30.5 -2zM543 1223q-12 0 -25.5 1 t-25.5 1q-76 0 -133.5 -20.5t-95.5 -55.5t-57.5 -80t-19.5 -92q0 -55 20.5 -96t58.5 -72t90.5 -55.5t117.5 -46.5z" />
<glyph unicode="%" horiz-adv-x="1527" d="M715 987q0 -68 -23.5 -129t-67.5 -107t-106.5 -74t-142.5 -28q-78 0 -141.5 28t-107.5 74t-67.5 107.5t-23.5 128.5q0 70 23.5 132.5t67.5 108.5t107.5 73.5t141.5 27.5q80 0 142.5 -27.5t106.5 -73.5t67.5 -108.5t23.5 -132.5zM285 -31h-95l1057 1340h92zM1493 291 q0 -70 -23.5 -132.5t-67.5 -108.5t-107.5 -73.5t-141.5 -27.5q-80 0 -142.5 27.5t-106.5 73.5t-67.5 108.5t-23.5 132.5q0 68 23.5 129t67.5 107t106.5 74t142.5 28q78 0 141.5 -28t107.5 -74t67.5 -107t23.5 -129zM641 987q0 57 -18.5 106.5t-52 86.5t-84 58.5t-111.5 21.5 t-111.5 -21.5t-84.5 -58.5t-52 -86.5t-18 -106.5q0 -53 18 -102t52 -86t84 -58.5t112 -21.5q61 0 111.5 21.5t84 58.5t52 86t18.5 102zM1419 291q0 53 -18.5 102t-52 86t-84 58.5t-111.5 21.5t-111.5 -21.5t-84 -58.5t-52 -86t-18.5 -102q0 -57 18.5 -106.5t52 -86.5 t84 -58.5t111.5 -21.5t111.5 21.5t84 58.5t52 86.5t18.5 106.5z" />
<glyph unicode="&#x26;" horiz-adv-x="1282" d="M895 295q-86 -139 -204 -227t-251 -88q-84 0 -151.5 28.5t-114.5 74.5t-72.5 106.5t-25.5 125.5q0 70 24.5 127.5t68.5 103.5t103.5 81t126.5 61q-45 23 -85 52.5t-70.5 67.5t-48 83t-17.5 98q0 59 25.5 115.5t70.5 99.5t108.5 68.5t137.5 25.5q68 0 126.5 -22.5t100 -61 t66.5 -91t25 -113.5q0 -111 -73 -194t-202 -130q86 -43 172 -113.5t164 -166.5l240 382h104l-301 -432l272 -340l-67 -41zM498 713q123 51 189.5 118.5t66.5 169.5q0 45 -18.5 86t-51.5 72t-77 48.5t-95 17.5q-57 0 -103.5 -18.5t-78 -51.5t-49 -75t-17.5 -87 q0 -53 20.5 -97t53.5 -78t75 -60.5t85 -44.5zM854 342q-102 127 -199.5 200.5t-197.5 112.5q-57 -25 -110.5 -57.5t-94.5 -75.5t-65.5 -94t-24.5 -113q0 -51 20.5 -98t57 -84t90 -58.5t119.5 -21.5q106 0 209.5 78t195.5 211z" />
<glyph unicode="'" horiz-adv-x="354" d="M-2 815l285 512l90 -45l-307 -467h-68z" />
<glyph unicode="(" horiz-adv-x="686" d="M670 -459q-82 43 -174.5 128t-171 205t-131 272.5t-52.5 332.5t52.5 333t131 272.5t171 204.5t174.5 128l45 -71q-80 -41 -167 -120t-159 -190.5t-119 -252t-47 -304.5t47 -304t119 -251.5t159 -190.5t167 -120l-45 -72v0z" />
<glyph unicode=")" horiz-adv-x="686" d="M-29 -387q80 41 167 120t159 190.5t119 251.5t47 304t-47 304.5t-119 252t-159 190.5t-167 120l45 71q82 -43 174.5 -128t171 -204.5t131 -272.5t52.5 -333t-52.5 -332.5t-131 -272.5t-171 -205t-174.5 -128z" />
<glyph unicode="*" horiz-adv-x="684" d="M84 733l-51 72l258 166v10l-258 166l51 72l235 -207l7 2l80 301l83 -27l-122 -287l6 -6l299 27v-92l-299 26l-6 -6l122 -286l-83 -27l-80 301l-7 2z" />
<glyph unicode="+" horiz-adv-x="999" d="M543 442v-387h-82v387h-375l6 78h369v383h82v-383h364l6 -78h-370z" />
<glyph unicode="," horiz-adv-x="313" d="M66 57q0 29 23.5 55.5t60.5 26.5q47 0 81.5 -36.5t34.5 -100.5q0 -78 -55 -162t-150 -143l-38 35q86 63 118.5 118.5t32.5 110.5q0 41 -27.5 61.5t-80.5 34.5z" />
<glyph unicode="-" horiz-adv-x="561" d="M74 459v78h420v-78h-420z" />
<glyph unicode="." horiz-adv-x="313" d="M229 57q0 -31 -20.5 -54t-52.5 -23q-33 0 -52.5 23.5t-19.5 53.5q0 29 19.5 51.5t52.5 22.5t53 -22.5t20 -51.5z" />
<glyph unicode="/" horiz-adv-x="403" d="M-29 -408h-75l497 1846h78z" />
<glyph unicode="0" horiz-adv-x="1185" d="M1083 483q0 -109 -38.5 -201t-105.5 -159.5t-157 -105t-190 -37.5q-102 0 -191.5 37.5t-155 105t-104.5 160t-39 200.5q0 109 39 201t104.5 159.5t154.5 105.5t192 38q100 0 190 -38t157 -105.5t105.5 -159.5t38.5 -201zM999 483q0 88 -30.5 166t-84 136.5t-129 91 t-163.5 32.5q-90 0 -164 -32.5t-128 -91t-84 -136.5t-30 -166q0 -90 30 -166.5t84 -135t128 -91.5t164 -33q88 0 163.5 33t129 91.5t84 135t30.5 166.5z" />
<glyph unicode="1" horiz-adv-x="630" d="M336 877l-238 -105l-6 80l326 135v-987h-82v877z" />
<glyph unicode="2" horiz-adv-x="864" d="M100 0v88q147 113 253 197t173.5 152.5t99 128t31.5 122.5q0 92 -64.5 156.5t-170.5 64.5q-78 0 -152.5 -34.5t-138.5 -86.5l-31 72q72 57 153 92t173 35q70 0 129 -21.5t101 -60.5t65.5 -91t23.5 -114q0 -86 -45 -161.5t-119.5 -149.5t-173 -148.5t-204.5 -160.5h590 v-80h-693z" />
<glyph unicode="3" horiz-adv-x="821" d="M426 334q78 0 143.5 -24.5t111.5 -68.5t71.5 -103.5t25.5 -129.5q0 -84 -33.5 -153.5t-91 -120.5t-134.5 -79t-163 -28q-84 0 -168 22.5t-141 57.5l33 76q47 -29 121.5 -53.5t160.5 -24.5q70 0 130.5 21.5t105.5 59.5t69.5 92t24.5 122q0 129 -84 202.5t-215 73.5 q-45 0 -91 -5t-89 -15v63q211 53 321.5 143.5t110.5 213.5q0 115 -72.5 174t-187.5 59q-86 0 -169 -37.5t-144 -89.5l-33 68q66 55 161 96t189 41q78 0 141.5 -22.5t107.5 -62.5t68.5 -95t24.5 -123q0 -61 -24.5 -115.5t-66.5 -98.5t-97.5 -78.5t-116.5 -57.5z" />
<glyph unicode="4" horiz-adv-x="978" d="M750 43v-420h-84v420h-627l-16 74l655 882h72v-878h194l6 -78h-200zM666 858l-551 -737h551v737z" />
<glyph unicode="5" horiz-adv-x="837" d="M172 412q39 14 85 21t114 7q92 0 167.5 -28.5t130 -80.5t83 -123t28.5 -153q0 -94 -33.5 -173t-92 -135t-139.5 -88t-175 -32q-76 0 -157 22.5t-142 57.5l18 82q66 -37 136.5 -60.5t150.5 -23.5q76 0 139.5 24.5t110.5 69.5t73.5 109.5t26.5 144.5q0 68 -23.5 125.5 t-66.5 99t-104.5 65.5t-136.5 24q-43 0 -76 -3.5t-59.5 -8.5t-50 -13t-50.5 -16l-37 39l78 604h575l7 -80h-512l-68 -477v0z" />
<glyph unicode="6" horiz-adv-x="1003" d="M94 471q0 123 42 252t130 244.5t224.5 206t324.5 133.5l23 -76q-147 -35 -261 -99.5t-195 -149.5t-130 -182.5t-68 -197.5l2 -2q74 66 167 112t198 46q70 0 135.5 -21.5t116.5 -65.5t81.5 -111.5t30.5 -162.5q0 -92 -28.5 -168.5t-80.5 -132t-127 -86t-167 -30.5 q-98 0 -176 38.5t-131 105t-82 156t-29 191.5zM178 473q0 -84 22.5 -159.5t65.5 -134t105.5 -92.5t142.5 -34q74 0 132.5 25.5t100 71t63 107.5t21.5 136q0 70 -23.5 124t-62 91t-90 56.5t-108.5 19.5q-102 0 -191.5 -39t-175.5 -125q-2 -12 -2 -23.5v-23.5z" />
<glyph unicode="7" horiz-adv-x="862" d="M41 887l6 82h766v-60l-582 -1286h-86l576 1264h-680z" />
<glyph unicode="8" horiz-adv-x="968" d="M524 672q47 18 91 43.5t78 60.5t54.5 79t20.5 99q0 57 -20.5 106.5t-57.5 86.5t-89 57.5t-116 20.5q-68 0 -121 -22.5t-88.5 -58.5t-55 -83t-19.5 -96q0 -59 27.5 -103.5t72.5 -77t103.5 -59t119.5 -53.5zM457 618q-51 -18 -101.5 -44.5t-89.5 -62.5t-62.5 -83 t-23.5 -104q0 -123 76 -197t229 -74q80 0 137.5 20.5t94.5 55.5t54 82t17 102q0 63 -28.5 109.5t-74.5 81.5t-105.5 61t-122.5 53zM590 641q55 -25 106.5 -53.5t90 -65.5t62 -85t23.5 -111q0 -66 -23.5 -128.5t-70.5 -110.5t-120.5 -77.5t-174.5 -29.5q-102 0 -174.5 26.5 t-120 72.5t-70 106.5t-22.5 125.5q0 76 30 131.5t75 96.5t96 67.5t92 42.5q-55 23 -104 50.5t-86 62.5t-59.5 82t-22.5 110q0 78 28.5 141.5t78.5 108.5t118 69.5t143 24.5q76 0 142.5 -22.5t117 -64.5t79 -103t28.5 -141q0 -66 -25.5 -118t-64.5 -92t-85 -69t-87 -47z" />
<glyph unicode="9" horiz-adv-x="1003" d="M909 496q0 -123 -42 -252t-130 -245t-224 -206t-325 -133l-22 76q147 35 261 99.5t194.5 149.5t130 182t67.5 198l-2 2q-74 -66 -167 -112t-197 -46q-70 0 -135.5 21.5t-116.5 65.5t-82 111.5t-31 161.5q0 92 28.5 169t81 132.5t127 86t167.5 30.5q98 0 175.5 -39 t131 -105.5t82 -155.5t28.5 -191zM825 494q0 86 -21.5 162.5t-63.5 134t-105.5 90t-145.5 32.5q-74 0 -132 -25.5t-100 -70.5t-63.5 -107.5t-21.5 -136.5q0 -72 23.5 -126t62.5 -91t90 -55t109 -18q102 0 191 38.5t175 124.5q2 12 2 24v24z" />
<glyph unicode=":" horiz-adv-x="313" d="M229 731q0 -31 -20.5 -54.5t-52.5 -23.5q-33 0 -52.5 23.5t-19.5 54.5q0 29 19.5 51.5t52.5 22.5t53 -22.5t20 -51.5zM229 57q0 -31 -20.5 -54t-52.5 -23q-33 0 -52.5 23.5t-19.5 53.5q0 29 19.5 51.5t52.5 22.5t53 -22.5t20 -51.5z" />
<glyph unicode=";" horiz-adv-x="313" d="M229 731q0 -31 -20.5 -54.5t-52.5 -23.5q-33 0 -52.5 23.5t-19.5 54.5q0 29 19.5 51.5t52.5 22.5t53 -22.5t20 -51.5zM66 57q0 29 23.5 55.5t60.5 26.5q47 0 81.5 -36.5t34.5 -100.5q0 -78 -55 -162t-150 -143l-38 35q86 63 118.5 118.5t32.5 110.5q0 41 -27.5 61.5 t-80.5 34.5z" />
<glyph unicode="&#x3c;" horiz-adv-x="894" d="M811 39l-739 393v98l739 394v-86l-666 -349v-18l666 -348v-84z" />
<glyph unicode="=" horiz-adv-x="876" d="M80 614l-6 78h731l-6 -78h-719zM74 268l6 78h719l6 -78h-731z" />
<glyph unicode="&#x3e;" horiz-adv-x="894" d="M98 39v84l666 348v18l-666 349v86l740 -394v-98z" />
<glyph unicode="?" horiz-adv-x="698" d="M614 969q0 -61 -17 -104.5t-47 -76t-69 -55t-82 -43.5q-84 -39 -122.5 -68.5t-38.5 -76.5q0 -49 34.5 -92t98.5 -84l-52 -21q-63 39 -109 89t-46 108q0 78 50 124t140 85q39 16 73 34.5t58.5 43t38 57.5t13.5 78q0 51 -20.5 100t-57.5 86t-90.5 59.5t-118.5 22.5 q-41 0 -73 -5t-66 -16v76q27 6 60.5 12.5t74.5 6.5q92 0 161.5 -32t115.5 -81t68.5 -109.5t22.5 -117.5zM369 57q0 -31 -20.5 -54t-53.5 -23t-52.5 23.5t-19.5 53.5q0 29 19.5 51.5t52.5 22.5t53.5 -22.5t20.5 -51.5z" />
<glyph unicode="@" horiz-adv-x="1708" d="M1104 428q-27 -125 17 -189.5t136 -64.5q53 0 105.5 28.5t94.5 85t67.5 141.5t25.5 198q0 139 -56 252.5t-149.5 193.5t-214 124t-249.5 44q-150 0 -280 -60.5t-227.5 -163t-152.5 -236.5t-55 -283q0 -143 48 -268.5t135 -218.5t207 -147t265 -54q59 0 129 13t121 30 l12 -58q-66 -20 -135 -30.5t-131 -10.5q-158 0 -289 57.5t-226 158t-148.5 235.5t-53.5 291q0 164 60.5 309t166 253.5t248 172t306.5 63.5q147 0 280 -47t234.5 -133t161 -210t59.5 -277q0 -127 -31 -223.5t-82 -162t-116.5 -99t-133.5 -33.5q-90 0 -149.5 46t-79.5 105 q-70 -86 -131.5 -118.5t-126.5 -32.5q-66 0 -119 25.5t-90 71.5t-57.5 106.5t-20.5 131.5q0 98 34 187.5t92.5 155t134 104.5t159.5 39q68 0 120 -24.5t93 -55.5l92 59zM1096 772q-35 35 -87.5 62.5t-117.5 27.5q-66 0 -125 -33.5t-103.5 -91t-71 -133.5t-26.5 -160 q0 -55 14.5 -103t42 -84t68.5 -56.5t94 -20.5t109.5 32t110.5 103z" />
<glyph unicode="A" horiz-adv-x="1179" d="M1128 0h-88l-149 399h-604l-150 -399h-86l490 1280h106zM592 1204l-275 -727h543z" />
<glyph unicode="B" horiz-adv-x="1093" d="M692 649q156 -20 235 -101t79 -198q0 -76 -25 -139.5t-79 -110.5t-138 -73.5t-203 -26.5h-393v1280h373q115 0 195.5 -24.5t131 -67.5t74 -103.5t23.5 -132.5q0 -45 -15.5 -93t-47.5 -90t-84 -75t-126 -45zM879 946q0 117 -80 186.5t-262 69.5h-283v-522h270 q76 0 140.5 16.5t111.5 50t75 82.5t28 117zM920 352q0 113 -93.5 181.5t-302.5 68.5h-270v-524h309q98 0 166 20.5t111 57.5t61.5 87t18.5 109z" />
<glyph unicode="C" horiz-adv-x="1169" d="M1051 1124q-68 43 -163 71t-198 28q-104 0 -195.5 -38t-160 -113t-107.5 -184.5t-39 -250.5q0 -135 36 -242.5t102.5 -182.5t160 -115t207.5 -40q104 0 196.5 29t158.5 76l20 -80q-66 -43 -163 -72.5t-214 -29.5q-137 0 -246.5 46t-186.5 131t-118 206.5t-41 273.5 t44 274.5t124 208.5t188.5 133t237.5 47q125 0 223.5 -32.5t159.5 -69.5z" />
<glyph unicode="D" horiz-adv-x="1251" d="M1155 649q0 -156 -47 -276.5t-136 -203.5t-217 -126t-290 -43h-297v1280h309q156 0 281 -46t213 -129t136 -200t48 -256zM1067 641q0 127 -41 230.5t-118 177t-187.5 113.5t-251.5 40h-215v-1124h215q131 0 240.5 32.5t189.5 102.5t124 176.5t44 251.5z" />
<glyph unicode="E" horiz-adv-x="1003" d="M168 0v1280h733v-78h-647v-524h541v-76h-541v-524h647v-78h-733z" />
<glyph unicode="F" horiz-adv-x="948" d="M168 1280h715v-80h-629v-541h522v-77h-522v-582h-86v1280z" />
<glyph unicode="G" horiz-adv-x="1249" d="M1114 109q-88 -63 -196.5 -96t-225.5 -33q-137 0 -246.5 46t-186.5 131t-118 206.5t-41 273.5t44 274.5t124 208.5t188.5 133t237.5 47q125 0 223.5 -32.5t159.5 -69.5l-26 -74q-68 43 -163 71t-198 28q-104 0 -195.5 -38t-160 -113t-107.5 -184.5t-39 -250.5 q0 -135 36 -242.5t102.5 -182.5t160 -115t207.5 -40q100 0 185.5 26t150.5 67v393h-383v75h467v-509v0z" />
<glyph unicode="H" horiz-adv-x="1306" d="M1053 0v604h-799v-604h-86v1280h86v-600h799v600h86v-1280h-86z" />
<glyph unicode="I" horiz-adv-x="425" d="M170 0v1280h86v-1280h-86z" />
<glyph unicode="J" horiz-adv-x="837" d="M700 397q0 -195 -92 -306t-291 -111q-88 0 -164.5 25.5t-123.5 53.5l18 84q63 -39 133 -63.5t142 -24.5q143 0 217.5 88t74.5 256v881h86v-883v0z" />
<glyph unicode="K" horiz-adv-x="1075" d="M256 662l643 618h115l-674 -637l686 -643h-115l-655 616h-2v-616h-86v1280h86v-618h2z" />
<glyph unicode="L" horiz-adv-x="944" d="M168 0v1280h86v-1200h647v-80h-733z" />
<glyph unicode="M" horiz-adv-x="1536" d="M1280 1171l-455 -1173h-110l-459 1176l-29 -1174h-88l43 1280h121l469 -1210l465 1210h119l39 -1280h-86z" />
<glyph unicode="N" horiz-adv-x="1292" d="M1042 1280h82v-1292h-94l-780 1173v-1161h-82v1280h100l774 -1163v1163z" />
<glyph unicode="O" horiz-adv-x="1429" d="M1329 643q0 -150 -46 -271.5t-129 -208.5t-195.5 -135t-245.5 -48q-127 0 -239 49t-194.5 136t-131 208t-48.5 266q0 150 46.5 271.5t129 208.5t195.5 134t246 47q127 0 238.5 -48t194.5 -136t131 -209t48 -264zM1241 639q0 129 -41 236.5t-111.5 185.5t-168 121 t-209.5 43q-113 0 -209 -43t-166 -120t-109 -183.5t-39 -235.5t41 -236.5t112 -185.5t168 -122t210 -44t209 43t165.5 121t108.5 184.5t39 235.5z" />
<glyph unicode="P" d="M944 895q0 -205 -137 -308.5t-375 -107.5l-178 -2v-477h-86v1280h287q244 0 366.5 -104.5t122.5 -280.5zM854 893q0 145 -104.5 227t-294.5 82h-201v-647l178 2q201 4 311.5 81t110.5 255z" />
<glyph unicode="Q" horiz-adv-x="1429" d="M1370 -207l-39 -74l-497 271q-29 -4 -60 -7t-61 -3q-127 0 -239 49t-194.5 136t-131 208t-48.5 266q0 150 46.5 271.5t129 208.5t195.5 134t246 47q127 0 238.5 -48t194.5 -136t131 -209t48 -264q0 -117 -28.5 -216t-80 -179t-125 -138.5t-161.5 -91.5zM1241 639 q0 129 -41 236.5t-111.5 185.5t-168 121t-209.5 43q-113 0 -209 -43t-166 -120t-109 -183.5t-39 -235.5t41 -236.5t112 -185.5t168 -122t210 -44t209 43t165.5 121t108.5 184.5t39 235.5z" />
<glyph unicode="R" horiz-adv-x="1050" d="M254 0h-86v1280h303q240 0 349.5 -99.5t109.5 -262.5q0 -72 -25.5 -130.5t-68.5 -101.5t-98.5 -72.5t-114.5 -46.5l364 -567h-96l-346 551l-291 -19v-532zM502 618q63 2 124.5 24t109.5 59.5t77 92t29 121.5q0 137 -94.5 212t-286.5 75h-207v-592z" />
<glyph unicode="S" horiz-adv-x="964" d="M471 55q74 0 135.5 21.5t104.5 58.5t66.5 85t23.5 102q0 63 -26.5 110t-73 82t-109 60.5t-133.5 50.5q-66 23 -130.5 50t-115.5 66t-82 94.5t-31 133.5q0 70 30 131t82 105t123 69.5t154 25.5q111 0 203 -29.5t164 -76.5l-33 -76q-72 49 -158.5 78t-175.5 29 q-76 0 -133 -20.5t-96 -55.5t-58.5 -80t-19.5 -94q0 -59 25.5 -101.5t70 -74t105.5 -57t133 -50.5q68 -23 133.5 -51.5t116.5 -70.5t83 -100t32 -140q0 -74 -31 -138.5t-85 -111.5t-130 -73.5t-168 -26.5q-117 0 -214 30.5t-177 83.5l33 74q72 -49 164 -81t198 -32z" />
<glyph unicode="T" horiz-adv-x="1105" d="M596 1200v-1200h-86v1200h-453v80h992v-80h-453z" />
<glyph unicode="U" horiz-adv-x="1200" d="M1063 483q0 -115 -29.5 -208t-89 -158.5t-146.5 -101t-200 -35.5q-223 0 -342 128t-119 355v817h84v-811q0 -193 95.5 -303.5t283.5 -110.5q193 0 286 113t93 317v795h84v-797v0z" />
<glyph unicode="V" horiz-adv-x="1120" d="M610 0h-102l-467 1280h88l432 -1196l432 1196h86z" />
<glyph unicode="W" horiz-adv-x="1826" d="M549 0h-80l-365 1280h89l321 -1147l350 1147h109l356 -1147l303 1147h90l-354 -1280h-80l-370 1188z" />
<glyph unicode="X" horiz-adv-x="1124" d="M129 0h-100l481 659l-447 621h99l401 -567l402 567h98l-451 -618l482 -662h-101l-434 608z" />
<glyph unicode="Y" horiz-adv-x="1038" d="M563 520v-520h-86v518l-448 762h96l397 -678l393 678h95z" />
<glyph unicode="Z" horiz-adv-x="1019" d="M53 0v61l795 1143h-764v76h870v-61l-794 -1143h792v-76h-899z" />
<glyph unicode="[" horiz-adv-x="837" d="M233 -455v1837h502v-73h-416v-1690h416v-74h-502z" />
<glyph unicode="\" horiz-adv-x="403" d="M14 1438l498 -1846h-76l-499 1846h77z" />
<glyph unicode="]" horiz-adv-x="837" d="M102 -381h416v1690h-416v73h502v-1837h-502v74z" />
<glyph unicode="^" horiz-adv-x="735" d="M623 1055l-211 295h-4l-211 -295h-68l229 362h103l229 -362h-67z" />
<glyph unicode="_" horiz-adv-x="878" d="M-18 -78v78h915v-78h-915z" />
<glyph unicode="`" horiz-adv-x="817" d="M471 1055l-324 362h119l269 -362h-64z" />
<glyph unicode="a" horiz-adv-x="874" d="M647 498q-137 -14 -231 -38t-152.5 -56.5t-84 -74.5t-25.5 -93q0 -88 64.5 -135.5t154.5 -47.5q88 0 158.5 46t115.5 100v299zM655 127q-23 -29 -53.5 -54.5t-69 -47t-81.5 -33.5t-89 -12q-61 0 -115 18t-93 50t-61.5 78t-22.5 101q0 66 28.5 122.5t96 99.5t178 71.5 t274.5 38.5v86q0 109 -54 172.5t-175 63.5q-43 0 -87 -11.5t-85 -28t-79 -39t-65 -42.5l-20 84q66 47 161 80.5t181 33.5q68 0 124 -16t97 -53t63.5 -95.5t22.5 -140.5v-508q0 -43 17.5 -71.5t80.5 -26.5l-6 -63q-70 -4 -115.5 30.5t-50.5 112.5h-2z" />
<glyph unicode="b" horiz-adv-x="1021" d="M940 492q0 -117 -34 -211.5t-94 -161t-142 -103t-181 -36.5q-72 0 -140 21.5t-116 49.5l-81 -80v1411l84 25v-580q20 20 51.5 42t70.5 39.5t84 28.5t95 11q86 0 160.5 -32.5t128 -92t84 -143.5t30.5 -188zM854 483q0 82 -23.5 153t-66.5 123t-104.5 82.5t-137.5 30.5 q-86 0 -159.5 -33.5t-126.5 -84.5v-621q45 -35 116.5 -56.5t143.5 -21.5q80 0 145.5 30t112.5 86t73.5 135t26.5 177z" />
<glyph unicode="c" horiz-adv-x="911" d="M815 59q-57 -35 -127 -57t-143 -22q-100 0 -183 35.5t-143.5 100t-94.5 153.5t-34 196q0 106 33 196.5t92 157t141 103t179 36.5q84 0 155.5 -20t126.5 -57l-20 -76q-51 33 -118 54.5t-144 21.5q-80 0 -145.5 -31t-113 -86t-74 -131t-26.5 -164q0 -90 26.5 -166t75 -130 t116 -85t151.5 -31q68 0 133 22.5t117 55.5l20 -76v0z" />
<glyph unicode="d" horiz-adv-x="1028" d="M795 1380l84 27v-1407h-84v92q-43 -41 -117 -76.5t-166 -35.5q-90 0 -168 33.5t-134 96t-88 149.5t-32 196q0 113 34 204t94.5 155.5t142 99t180.5 34.5q70 0 138.5 -21.5t115.5 -49.5v503zM795 795q-45 35 -117 56t-143 21q-80 0 -145.5 -29.5t-113 -85t-74 -132 t-26.5 -170.5q0 -86 24.5 -159t68.5 -127t107.5 -85t141.5 -31t150.5 35t126.5 86v621z" />
<glyph unicode="e" horiz-adv-x="942" d="M176 469q0 -90 23.5 -165t68.5 -130t109.5 -86t144.5 -31t145.5 22.5t116.5 55.5l19 -76q-55 -35 -128 -57t-159 -22q-96 0 -175 35.5t-134 100t-86 153.5t-31 196q0 106 31 196.5t87 157t133 103t169 36.5q70 0 129 -22.5t103 -64.5t69 -101t25 -135q0 -35 -6.5 -76 t-14.5 -72l-639 -4v-14zM743 559q6 33 7 70q0 111 -64.5 181.5t-177.5 70.5q-131 0 -217 -89.5t-109 -232.5h561z" />
<glyph unicode="f" horiz-adv-x="571" d="M559 1313q-33 16 -64.5 26.5t-74.5 10.5q-170 0 -170 -238v-184h291l-6 -72h-285v-856h-84v852l-135 8l6 53l127 17l2 178q2 88 21.5 148.5t54 98.5t81 54t99.5 16q45 0 86 -10t72 -26z" />
<glyph unicode="g" horiz-adv-x="942" d="M178 608q0 -55 17.5 -104t51.5 -87t83 -59.5t112 -21.5q123 0 195 79t72 195q0 117 -68 198t-197 81q-127 0 -196.5 -80t-69.5 -201zM317 -8q-98 -25 -159.5 -87.5t-61.5 -131.5q0 -92 88 -151.5t254 -59.5q80 0 152 20.5t125 54t84.5 79.5t31.5 100q0 92 -75.5 132 t-214.5 40h-112t-112 4zM225 12q-61 16 -98 51t-37 89q0 59 47 103t105 71q-59 41 -102.5 113.5t-43.5 168.5q0 80 28 145.5t76 110.5t112.5 69.5t138.5 24.5q72 0 119.5 -16t82.5 -39l279 17l6 -86l-233 10q41 -41 64.5 -105.5t23.5 -124.5q0 -80 -28 -144t-76 -108.5 t-112.5 -69t-140.5 -24.5q-41 0 -79 9.5t-66 21.5q-45 -23 -81 -53.5t-36 -75.5q0 -47 46 -75.5t165 -28.5h156q199 0 284.5 -67t85.5 -173q0 -78 -42 -139.5t-109.5 -104.5t-153.5 -66.5t-176 -23.5q-96 0 -173 20.5t-130 57.5t-81 86t-28 108q0 41 16.5 79t44 71 t65.5 58.5t81 39.5z" />
<glyph unicode="h" horiz-adv-x="1007" d="M780 0v623q0 125 -53 191.5t-168 66.5q-80 0 -163 -42t-160 -120v-719h-84v1380l84 27v-610q82 84 174 122.5t159 38.5q139 0 217 -80.5t78 -236.5v-641h-84z" />
<glyph unicode="i" horiz-adv-x="395" d="M258 1227q0 -25 -16.5 -45.5t-44.5 -20.5q-29 0 -44.5 20.5t-15.5 45.5q0 23 15.5 42t44.5 19t45 -19t16 -42zM156 0v932l84 26v-958h-84z" />
<glyph unicode="j" horiz-adv-x="395" d="M258 1227q0 -25 -16.5 -45.5t-44.5 -20.5q-29 0 -44.5 20.5t-15.5 45.5q0 23 15.5 42t44.5 19t45 -19t16 -42zM-45 -455q59 33 98 68t61.5 78t32 98t9.5 129v1014l84 26v-1052q0 -160 -52.5 -258.5t-173.5 -161.5z" />
<glyph unicode="k" horiz-adv-x="843" d="M236 473v-473h-84v1380l84 27v-905h4l454 436h109l-473 -451l475 -487h-111l-454 473h-4z" />
<glyph unicode="l" horiz-adv-x="385" d="M152 0v1380l84 27v-1407h-84z" />
<glyph unicode="m" horiz-adv-x="1550" d="M1323 0v623q0 125 -53 191.5t-168 66.5q-72 0 -146.5 -36t-144.5 -100q10 -45 10 -114v-631h-84v623q0 125 -53 191.5t-168 66.5q-70 0 -141.5 -32t-138.5 -91v-758h-84v932l84 26v-127q76 66 153.5 96.5t136.5 30.5q94 0 162 -38.5t103 -116.5q80 82 168 118.5t153 36.5 q139 0 217 -80.5t78 -236.5v-641h-84z" />
<glyph unicode="n" horiz-adv-x="1007" d="M780 0v623q0 125 -53 191.5t-168 66.5q-80 0 -163 -42t-160 -120v-719h-84v932l84 26v-163q82 84 174 123.5t159 39.5q139 0 217 -80.5t78 -236.5v-641h-84z" />
<glyph unicode="o" horiz-adv-x="1093" d="M1004 473q0 -111 -36 -202t-99.5 -155.5t-147.5 -100t-178 -35.5q-96 0 -178 33.5t-143.5 97t-96.5 153.5t-35 201t36 202t99.5 155.5t146.5 100t179 35.5q94 0 177 -33.5t144.5 -97t96.5 -153.5t35 -201zM920 469q0 96 -29 173t-78 130t-117.5 82t-148.5 29t-148.5 -31 t-118 -86t-78 -131t-28.5 -166q0 -96 27.5 -173t78 -130t119 -82t148.5 -29t148.5 31t117.5 86t78 131t29 166z" />
<glyph unicode="p" horiz-adv-x="1030" d="M236 836q43 41 116.5 76.5t165.5 35.5q90 0 168 -33.5t134.5 -96t88 -150.5t31.5 -195q0 -113 -34 -204t-94 -155.5t-142 -99t-181 -34.5q-70 0 -138 21.5t-115 49.5v-528h-84v1421l84 25v-133zM236 133q45 -35 116.5 -56.5t143.5 -21.5q80 0 145.5 30t112.5 85t73.5 132 t26.5 171q0 86 -24.5 159t-68.5 126t-107.5 83.5t-141.5 30.5t-150.5 -33.5t-125.5 -84.5v-621z" />
<glyph unicode="q" horiz-adv-x="1028" d="M795 -477v569q-43 -41 -117 -76.5t-166 -35.5q-90 0 -168 33.5t-134 96t-88 149.5t-32 196q0 113 34 204t94.5 155.5t142 99t180.5 34.5q72 0 140.5 -21.5t115.5 -49.5l82 81v-1435h-84zM795 795q-45 35 -117 56t-143 21q-80 0 -145.5 -29.5t-113 -85t-74 -132 t-26.5 -170.5q0 -86 24.5 -159t68.5 -126t107.5 -84t141.5 -31t150.5 34t126.5 85v621z" />
<glyph unicode="r" horiz-adv-x="675" d="M236 0h-84v932l84 26v-233q41 104 116.5 168.5t171.5 64.5q45 0 85 -11t69 -27l-25 -76q-23 14 -57.5 25.5t-79.5 11.5q-80 0 -150.5 -65.5t-129.5 -225.5v-590z" />
<glyph unicode="s" horiz-adv-x="761" d="M674 244q0 -61 -25.5 -110.5t-68.5 -83.5t-100.5 -52t-123.5 -18q-80 0 -154.5 22.5t-129.5 56.5l26 78q59 -39 125 -61.5t137 -22.5q45 0 87 11.5t76 35t54.5 57t20.5 79.5q0 51 -21.5 83.5t-56.5 56t-80 39t-92 31.5t-94 37t-85 50.5t-61.5 70.5t-23.5 101 q0 63 23.5 110t63.5 79t93 48t115 16q74 0 142.5 -19t123.5 -48l-29 -76q-59 33 -119.5 52.5t-125.5 19.5q-96 0 -153.5 -47t-57.5 -125q0 -47 21.5 -78t55 -53.5t77.5 -39t92 -30.5q49 -16 96 -35.5t86 -50.5t62.5 -76t23.5 -108z" />
<glyph unicode="t" horiz-adv-x="653" d="M590 29q-47 -29 -102.5 -44.5t-106.5 -15.5q-131 0 -183.5 78t-47.5 221l16 584l-129 8l6 53l125 17l6 223h82l-6 -225h334l-6 -72h-330l-17 -590q-4 -117 32 -169t120 -52q51 0 99 16.5t91 38.5l17 -71v0z" />
<glyph unicode="u" horiz-adv-x="1005" d="M227 938v-623q0 -125 53.5 -191.5t168.5 -66.5q80 0 162.5 42t160.5 120v719h84v-932l-84 -26v165q-82 -84 -174 -124.5t-160 -40.5q-139 0 -217 80.5t-78 236.5v641h84z" />
<glyph unicode="v" horiz-adv-x="831" d="M453 -2h-72l-371 940h90l320 -819l313 819h88z" />
<glyph unicode="w" horiz-adv-x="1310" d="M317 -2l-284 940h88l235 -801l275 801h74l270 -805l221 805h88l-274 -940h-72l-270 813l-283 -813h-68z" />
<glyph unicode="x" horiz-adv-x="765" d="M655 0l-272 424l-274 -424h-95l326 483l-303 455h92l254 -393l254 393h90l-301 -451l326 -487h-97z" />
<glyph unicode="y" horiz-adv-x="831" d="M467 31l-88 -240q-31 -82 -62.5 -136t-65.5 -86t-72 -44t-79 -12q-53 0 -90 10t-71 26l24 76q33 -16 64.5 -26.5t72.5 -10.5q27 0 52.5 9.5t51 35t51.5 70.5t52 117l70 188l-367 930h90l320 -821l313 821h88z" />
<glyph unicode="z" horiz-adv-x="765" d="M43 0v57l573 809h-555v72h656v-57l-574 -809h574v-72h-674z" />
<glyph unicode="{" horiz-adv-x="663" d="M633 -469q-104 6 -184 21.5t-135.5 44t-84 72.5t-28.5 108q0 66 17.5 123t37.5 110t37.5 103.5t17.5 99.5q0 51 -13 88t-46 61.5t-85 39t-128 20.5l-6 53l6 53q154 12 213 57.5t59 149.5q0 51 -17.5 101.5t-37.5 103.5t-37.5 109.5t-17.5 121.5q0 125 112.5 179.5 t319.5 66.5v-69q-96 -8 -161.5 -21.5t-106.5 -33t-59.5 -47t-18.5 -64.5q0 -49 17.5 -105.5t37.5 -115t37.5 -113.5t17.5 -100q0 -47 -15 -94.5t-50 -85.5t-90.5 -63.5t-132.5 -29.5v-2q78 -4 133 -29.5t90 -63.5t50 -85t15 -96q0 -47 -17.5 -101.5t-37.5 -111t-37.5 -111.5 t-17.5 -102q0 -78 76.5 -118t269.5 -54v-70v0z" />
<glyph unicode="|" horiz-adv-x="548" d="M231 1438h86v-1846h-86v1846z" />
<glyph unicode="}" horiz-adv-x="663" d="M625 418q-154 -12 -214.5 -57.5t-60.5 -149.5q0 -51 17.5 -101.5t39 -103.5t39 -110.5t17.5 -120.5t-28.5 -107.5t-84 -73t-136.5 -44t-185 -21.5v70q193 14 270.5 53t77.5 112q0 49 -17.5 105.5t-38 115t-38 113t-17.5 101.5t15.5 94t50.5 85t90 63.5t133 29.5v2 q-78 4 -133 29.5t-90 63.5t-50.5 85t-15.5 97q0 45 17.5 100t38 111.5t38 112.5t17.5 104q0 76 -78 114.5t-270 55.5v69q104 -6 185 -21.5t136.5 -44t84 -72.5t28.5 -108q0 -66 -17.5 -123t-39 -110t-39 -103.5t-17.5 -99.5q0 -53 14.5 -89t46 -60.5t84 -39t130.5 -20.5 l4 -53z" />
<glyph unicode="~" horiz-adv-x="735" d="M723 571q-39 -213 -166 -213q-41 0 -82 24t-81 52.5t-74.5 52t-63.5 23.5q-35 0 -56.5 -26.5t-52.5 -114.5h-51q39 213 166 213q41 0 83 -23.5t82 -52.5t75 -52.5t61 -23.5q33 0 55.5 26.5t51.5 114.5h53v0z" />
<glyph unicode="&#xa1;" horiz-adv-x="501" d="M178 1223q0 31 20.5 54t53.5 23t52.5 -23.5t19.5 -53.5q0 -29 -19.5 -51.5t-52.5 -22.5t-53.5 22.5t-20.5 51.5zM301 -45h-102l26 963h47z" />
<glyph unicode="&#xa2;" horiz-adv-x="911" d="M635 950q102 -18 182 -69l-20 -76q-35 23 -79 40t-93 27l-111 -815h31q68 0 133 22.5t117 55.5l20 -76q-57 -35 -127 -57t-143 -22h-20.5t-20.5 2q0 -2 -5 -38t-12 -79q-8 -51 -14 -117h-76l17 123q6 47 11 84t5 39q-78 18 -140.5 59t-106.5 102.5t-68.5 140.5t-24.5 169 q0 106 33 196.5t92 157t141 103t179 36.5h24l27 191h76zM535 881q-80 0 -145.5 -31t-113 -86t-74 -131t-26.5 -164q0 -152 70.5 -258.5t193.5 -140.5l109 811h-14z" />
<glyph unicode="&#xa3;" horiz-adv-x="980" d="M268 649q-4 66 -6 126.5t-2 111.5q0 197 88 311.5t275 114.5q143 0 256 -66l-25 -73q-51 27 -105.5 44t-132.5 17q-76 0 -128 -24.5t-84.5 -67.5t-47 -103.5t-14.5 -134.5q0 -51 2 -115.5t6 -140.5h400l-7 -76h-389q2 -53 3 -109t1 -116q0 -41 -3 -76.5t-13 -66.5 q35 -33 79 -62.5t88 -51t86 -34t73 -12.5q39 0 72.5 10.5t63.5 36t52.5 68.5t38.5 108l61 -14q-20 -139 -96 -211t-180 -72q-92 0 -186.5 46t-176.5 124q-31 -57 -93 -99t-173 -77l-18 72q72 25 119 52.5t74.5 63t38.5 82t11 105.5q0 113 -6 233h-192l-6 76h196v0z" />
<glyph unicode="&#xa4;" horiz-adv-x="878" d="M676 911q53 -76 53 -176q0 -98 -55 -176l127 -127l-58 -57l-125 125q-74 -57 -178 -58q-53 0 -98 14.5t-80 41.5l-115 -115l-55 55l115 115q-57 80 -57 182q0 49 13 95.5t42 82.5l-119 119l57 58l119 -119q74 57 178 57q53 0 100.5 -15.5t82.5 -43.5l112 112l56 -55z M657 735q0 45 -15 86t-43 72t-67.5 48t-91.5 17q-51 0 -92 -17t-68.5 -48t-43 -72t-15.5 -86t15.5 -85t43 -70.5t68.5 -49t92 -18.5t91 18.5t68 49t43 70.5t15 85z" />
<glyph unicode="&#xa5;" horiz-adv-x="1120" d="M119 543l-6 73h325l-409 664h94l399 -664l396 664h92l-205 -332l-205 -332h326l-6 -73h-357v-201h357l6 -74h-363v-268h-86v268h-364l6 74h358v201h-358z" />
<glyph unicode="&#xa6;" horiz-adv-x="548" d="M231 1315h86v-686h-86v686zM231 401h86v-686h-86v686z" />
<glyph unicode="&#xa7;" horiz-adv-x="958" d="M915 580q0 -51 -20.5 -93.5t-55 -76t-81.5 -57t-103 -38.5q53 -31 86 -75.5t33 -112.5q0 -61 -26.5 -110.5t-71.5 -83t-104.5 -51t-122.5 -17.5q-80 0 -155 22.5t-130 57.5l26 73q59 -37 125 -58t138 -21q45 0 89 12t78.5 35.5t55 56.5t20.5 76q0 47 -26.5 80.5 t-69.5 58.5t-99.5 43t-115.5 37q-63 18 -124.5 39.5t-110 52.5t-78 75t-29.5 105q0 51 21.5 95.5t58.5 78t86 58t106 37.5q-59 31 -95 73.5t-36 110.5q0 63 24.5 111.5t66.5 79t97.5 46t114.5 15.5q74 0 142.5 -19.5t124.5 -48.5l-29 -71q-59 31 -119.5 49t-126.5 18 q-96 0 -156.5 -46t-60.5 -124q0 -43 25.5 -73.5t66.5 -53t95.5 -40t111.5 -36.5q63 -18 127 -40.5t115 -55.5t81.5 -79.5t30.5 -114.5zM838 569q0 68 -44 109t-111 68.5t-146.5 49t-151.5 50.5q-43 -14 -89 -34.5t-85 -48.5t-64.5 -62.5t-25.5 -77.5q0 -66 46 -105 t116.5 -66.5t153.5 -50t157 -53.5q41 14 84 34.5t79 47.5t58.5 61.5t22.5 77.5z" />
<glyph unicode="&#xa8;" horiz-adv-x="819" d="M666 1227q0 -29 -19.5 -52.5t-50.5 -23.5q-33 0 -53.5 23.5t-20.5 52.5t20.5 50t53.5 21q31 0 50.5 -21t19.5 -50zM295 1227q0 -29 -19.5 -52.5t-52.5 -23.5t-51 23.5t-18 52.5t18 50t51 21t52.5 -21t19.5 -50z" />
<glyph unicode="&#xa9;" horiz-adv-x="1497" d="M750 -33q-139 0 -261 53.5t-213.5 143.5t-143.5 212t-52 261t52 261t143.5 213t213 144.5t261.5 53.5q139 0 261 -53.5t213 -144.5t143 -213t52 -261t-52 -261t-143 -212t-213 -143.5t-261 -53.5zM1364 639q0 125 -48 237.5t-131 196.5t-195.5 133t-239.5 49t-239 -49 t-195 -133t-131 -196.5t-48 -237.5q0 -127 48 -238.5t131 -194.5t195 -132t239 -49t239.5 49t195.5 132t131 194.5t48 238.5zM971 883q-90 57 -197 57q-119 0 -194.5 -79t-75.5 -224q0 -139 73.5 -221t196.5 -82q59 0 111.5 18.5t91.5 46.5l14 -80q-41 -29 -98 -44t-121 -15 q-160 0 -256 100.5t-96 274.5q0 86 25.5 155.5t72.5 120t112.5 77t143.5 26.5q66 0 124 -16.5t99 -43.5z" />
<glyph unicode="&#xaa;" horiz-adv-x="671" d="M559 516q-43 33 -59 113h-2q-16 -18 -43 -39t-60 -37t-68.5 -26.5t-70.5 -10.5q-98 0 -152.5 60.5t-54.5 140.5q0 117 104.5 183.5t338.5 82.5v49q0 94 -37 145.5t-136 51.5q-68 0 -128 -29t-105 -63l-33 59q51 39 122 71.5t149 32.5q109 0 174 -59t65 -203v-327 q0 -66 21.5 -109t50.5 -72zM492 924q-106 -10 -177 -28.5t-114 -44.5t-61.5 -58.5t-18.5 -69.5q0 -66 44 -101.5t103 -35.5q55 0 119 28.5t105 73.5v236z" />
<glyph unicode="&#xab;" horiz-adv-x="1159" d="M1057 57l-467 385v74l467 385l16 -72l-407 -348v-2l407 -350zM508 78l-445 366v70l445 367l16 -72l-385 -328v-2l385 -329z" />
<glyph unicode="&#xac;" horiz-adv-x="999" d="M913 199h-82v346h-745l6 78h821v-424z" />
<glyph unicode="&#xad;" horiz-adv-x="561" d="M74 459v78h420v-78h-420z" />
<glyph unicode="&#xae;" horiz-adv-x="1497" d="M750 -33q-139 0 -261 53.5t-213.5 143.5t-143.5 212t-52 261t52 261t143.5 213t213 144.5t261.5 53.5q139 0 261 -53.5t213 -144.5t143 -213t52 -261t-52 -261t-143 -212t-213 -143.5t-261 -53.5zM1364 639q0 125 -48 237.5t-131 196.5t-195.5 133t-239.5 49t-239 -49 t-195 -133t-131 -196.5t-48 -237.5q0 -127 48 -238.5t131 -194.5t195 -132t239 -49t239.5 49t195.5 132t131 194.5t48 238.5zM602 283h-78v725h205q139 0 207 -58.5t68 -161.5q0 -80 -42 -131t-108 -75l188 -299h-92l-174 280l-174 -10v-270zM733 627q92 4 143.5 45 t51.5 112q0 154 -205 154h-123v-317z" />
<glyph unicode="&#xaf;" horiz-adv-x="819" d="M172 1092l6 77h469l6 -77h-481z" />
<glyph unicode="&#xb0;" horiz-adv-x="694" d="M616 1034q0 -55 -18 -104t-53 -86t-85 -59.5t-114 -22.5q-61 0 -111.5 22.5t-86 59.5t-54 86t-18.5 104t18.5 105.5t54 88.5t86 59.5t111.5 21.5q63 0 113.5 -21.5t85.5 -59.5t53 -88.5t18 -105.5zM549 1034q0 86 -53.5 147.5t-149.5 61.5t-149.5 -61.5t-53.5 -147.5 q0 -84 53.5 -145.5t149.5 -61.5t149.5 61.5t53.5 145.5z" />
<glyph unicode="&#xb1;" horiz-adv-x="999" d="M543 483v-313h-82v313h-375l6 78h369v342h82v-342h364l6 -78h-370zM86 55l6 74h817l6 -74h-829z" />
<glyph unicode="&#xb2;" horiz-adv-x="675" d="M66 559l-5 72q102 94 182.5 163.5t134.5 126t81.5 104.5t27.5 99q0 74 -49 115t-131 41q-55 0 -110.5 -25.5t-94.5 -60.5l-28 63q41 35 104.5 63t138.5 28q113 0 182.5 -59.5t69.5 -162.5q0 -55 -26.5 -106t-78.5 -107.5t-131 -125t-183 -160.5h446l4 -68h-534z" />
<glyph unicode="&#xb3;" horiz-adv-x="675" d="M346 965q123 2 186.5 -54.5t63.5 -136.5q0 -55 -23.5 -97t-64.5 -72t-94.5 -45t-114.5 -15q-57 0 -117.5 14t-101.5 37l18 66q39 -20 92.5 -35t114.5 -15q41 0 79 10.5t66.5 30t46 48t17.5 67.5q0 66 -53 108t-152 42q-27 0 -56.5 -3.5t-57.5 -9.5v64q141 33 215.5 77 t74.5 111q0 59 -47 91t-123 32q-53 0 -108 -20.5t-96 -53.5l-31 62q45 35 109.5 57.5t129.5 22.5q113 0 180.5 -49.5t67.5 -133.5q0 -137 -221 -200z" />
<glyph unicode="&#xb4;" horiz-adv-x="817" d="M348 1055h-63l268 362h119z" />
<glyph unicode="&#xb5;" d="M240 303q0 -66 24.5 -112t64.5 -75.5t90 -44t99 -14.5q39 0 86 12.5t87 40t66.5 74.5t26.5 117v637h84v-938h-84v129q-51 -84 -125.5 -116.5t-142.5 -32.5q-35 0 -69.5 4t-69.5 19t-70 45t-67 79v-604h-84v1415h84v-635z" />
<glyph unicode="&#xb6;" horiz-adv-x="1032" d="M758 543q-16 -4 -39 -8.5t-48.5 -7.5t-51 -5t-44.5 -2q-121 0 -211 29t-149 79t-88 117.5t-29 147.5q0 96 34 169t95.5 121t145.5 72.5t184 24.5h283v-1411h-82v674v0z" />
<glyph unicode="&#xb7;" horiz-adv-x="313" d="M229 469q0 -31 -20.5 -54.5t-52.5 -23.5q-33 0 -52.5 23.5t-19.5 54.5q0 29 19.5 51.5t52.5 22.5t53 -22.5t20 -51.5z" />
<glyph unicode="&#xb8;" horiz-adv-x="819" d="M381 -137q49 4 95 -4.5t80 -30t54.5 -55t20.5 -82.5q0 -80 -82 -144.5t-236 -74.5l-8 61q123 8 187.5 47t64.5 105q0 84 -84 106.5t-207 -4.5l-6 33l223 221h82l-184 -178v0z" />
<glyph unicode="&#xb9;" horiz-adv-x="675" d="M352 1245l-205 -55l-4 70l285 79v-780h-76v686z" />
<glyph unicode="&#xba;" horiz-adv-x="872" d="M803 913q0 -90 -29 -162.5t-79 -124t-117.5 -80t-143.5 -28.5q-78 0 -143.5 27.5t-114.5 78t-76.5 122t-27.5 161.5q0 88 28.5 161t78.5 125t116.5 79.5t144.5 27.5q76 0 142.5 -26.5t116 -77.5t77 -123t27.5 -160zM729 909q0 152 -82 240t-209 88q-63 0 -117.5 -24.5 t-93.5 -67.5t-60.5 -103.5t-21.5 -132.5q0 -152 82 -238.5t211 -86.5q63 0 116.5 24.5t92.5 67.5t60.5 102t21.5 131z" />
<glyph unicode="&#xbb;" horiz-adv-x="1159" d="M651 78l-16 72l387 329v2l-387 328l16 72l447 -367v-70zM104 57l-16 72l406 350v2l-406 348l16 72l467 -385v-74z" />
<glyph unicode="&#xbc;" horiz-adv-x="1464" d="M1311 -94v-203h-72v203h-403l-11 55l404 526h82v-518h129l4 -63h-133zM1239 397l-328 -428h328v428zM264 -238h-92l1110 1518h92zM352 1245l-205 -55l-4 70l285 79v-780h-76v686z" />
<glyph unicode="&#xbd;" horiz-adv-x="1464" d="M233 -238h-92l1110 1518h92zM352 1245l-205 -55l-4 70l285 79v-780h-76v686zM854 -293l-4 72q102 94 182 163.5t134.5 126t82 104.5t27.5 99q0 74 -49 115t-131 41q-55 0 -110.5 -25.5t-94.5 -60.5l-29 64q41 35 104.5 62.5t139.5 27.5q113 0 182.5 -59.5t69.5 -162.5 q0 -55 -26.5 -106t-79 -107.5t-131.5 -125t-183 -160.5h446l5 -68h-535z" />
<glyph unicode="&#xbe;" horiz-adv-x="1464" d="M1311 -94v-203h-72v203h-403l-11 55l404 526h82v-518h129l4 -63h-133zM1239 397l-328 -428h328v428zM264 -238h-92l1110 1518h92zM346 965q123 2 186.5 -54.5t63.5 -136.5q0 -55 -23.5 -97t-64.5 -72t-94.5 -45t-114.5 -15q-57 0 -117.5 14t-101.5 37l18 66 q39 -20 92.5 -35t114.5 -15q41 0 79 10.5t66.5 30t46 48t17.5 67.5q0 66 -53 108t-152 42q-27 0 -56.5 -3.5t-57.5 -9.5v64q141 33 215.5 77t74.5 111q0 59 -47 91t-123 32q-53 0 -108 -20.5t-96 -53.5l-31 62q45 35 109.5 57.5t129.5 22.5q113 0 180.5 -49.5t67.5 -133.5 q0 -137 -221 -200z" />
<glyph unicode="&#xbf;" horiz-adv-x="698" d="M84 309q0 61 17.5 104.5t47 76t68.5 55t82 43.5q84 41 123 69.5t39 75.5q0 49 -35 92t-98 84l51 21q63 -39 109.5 -89t46.5 -108q0 -78 -50.5 -124t-140.5 -85q-41 -16 -73.5 -35.5t-57.5 -44t-38 -56.5t-13 -77q0 -53 20.5 -101t57 -85t90 -59.5t119.5 -22.5 q41 0 72.5 5t66.5 15v-75q-27 -6 -60.5 -12.5t-74.5 -6.5q-92 0 -162 31t-116 80t-68.5 109.5t-22.5 119.5zM330 1221q0 31 20.5 54t52.5 23q33 0 52.5 -23.5t19.5 -53.5q0 -29 -19.5 -51.5t-52.5 -22.5t-53 22.5t-20 51.5z" />
<glyph unicode="&#xc0;" horiz-adv-x="1179" d="M1128 0h-88l-149 399h-604l-150 -399h-86l490 1280h106zM592 1204l-275 -727h543zM551 1397l-324 362h119l268 -362h-63z" />
<glyph unicode="&#xc1;" horiz-adv-x="1179" d="M1128 0h-88l-149 399h-604l-150 -399h-86l490 1280h106zM592 1204l-275 -727h543zM610 1397h-63l268 362h119z" />
<glyph unicode="&#xc2;" horiz-adv-x="1179" d="M1128 0h-88l-149 399h-604l-150 -399h-86l490 1280h106zM592 1204l-275 -727h543zM803 1397l-211 295h-4l-211 -295h-68l230 362h102l229 -362h-67z" />
<glyph unicode="&#xc3;" horiz-adv-x="1179" d="M1128 0h-88l-149 399h-604l-150 -399h-86l490 1280h106zM592 1204l-275 -727h543zM903 1620q-39 -213 -166 -213q-41 0 -82 23.5t-80.5 52t-74.5 52.5t-64 24q-35 0 -56.5 -27t-51.5 -115h-52q39 213 166 213q41 0 83 -23.5t82 -52t75 -52t61 -23.5q33 0 55.5 26.5 t51.5 114.5h53z" />
<glyph unicode="&#xc4;" horiz-adv-x="1179" d="M1128 0h-88l-149 399h-604l-150 -399h-86l490 1280h106zM592 1204l-275 -727h543zM842 1569q0 -29 -19.5 -52.5t-50.5 -23.5q-33 0 -53.5 23.5t-20.5 52.5t20.5 50t53.5 21q31 0 50.5 -21t19.5 -50zM471 1569q0 -29 -19.5 -52.5t-52.5 -23.5t-51 23.5t-18 52.5t18 50 t51 21t52.5 -21t19.5 -50z" />
<glyph unicode="&#xc5;" horiz-adv-x="1179" d="M594 1204l-275 -727h543zM520 1227q-74 20 -114.5 72.5t-40.5 117.5q0 82 61 141.5t168 59.5q106 0 167.5 -59.5t61.5 -141.5q0 -66 -41 -118t-114 -72l460 -1227h-86l-149 399h-604l-152 -399h-86l234 614q43 117 85 226.5t76 195.5q39 101 74 191zM752 1413 q0 57 -43 101.5t-115 44.5t-115 -41t-43 -99q0 -57 43 -99t115 -42t115 39t43 96z" />
<glyph unicode="&#xc6;" horiz-adv-x="1644" d="M809 457v753l-438 -753h438zM106 0h-86l738 1280h784v-78h-647v-522h541v-78h-541v-524h647v-78h-733v379h-483z" />
<glyph unicode="&#xc7;" horiz-adv-x="1169" d="M606 -137q49 4 95.5 -4.5t80 -30t54 -55t20.5 -82.5q0 -80 -82 -144.5t-235 -74.5l-9 61q123 8 187.5 47t64.5 105q0 84 -84 106.5t-206 -4.5l-7 33l162 162q-127 6 -228.5 55t-172 134t-108.5 203t-38 263q0 152 44 274.5t124 208.5t188.5 133t237.5 47 q125 0 223.5 -32.5t159.5 -69.5l-26 -74q-68 43 -163 71t-198 28q-104 0 -195.5 -38t-160 -113t-107.5 -184.5t-39 -250.5q0 -135 36 -242.5t102.5 -182.5t160 -115t207.5 -40q104 0 196.5 29t158.5 76l20 -80q-59 -41 -147 -68.5t-195 -31.5l-121 -119v0z" />
<glyph unicode="&#xc8;" horiz-adv-x="1003" d="M168 0v1280h733v-78h-647v-524h541v-76h-541v-524h647v-78h-733zM516 1397l-323 362h118l269 -362h-64z" />
<glyph unicode="&#xc9;" horiz-adv-x="1003" d="M168 0v1280h733v-78h-647v-524h541v-76h-541v-524h647v-78h-733zM498 1397h-63l268 362h119z" />
<glyph unicode="&#xca;" horiz-adv-x="1003" d="M168 0v1280h733v-78h-647v-524h541v-76h-541v-524h647v-78h-733zM758 1397l-211 295h-4l-211 -295h-68l230 362h102l229 -362h-67z" />
<glyph unicode="&#xcb;" horiz-adv-x="1003" d="M168 0v1280h733v-78h-647v-524h541v-76h-541v-524h647v-78h-733zM780 1569q0 -29 -19.5 -52.5t-49.5 -23.5q-33 0 -53.5 23.5t-20.5 52.5t20.5 50t53.5 21q31 0 50 -21t19 -50zM410 1569q0 -29 -19.5 -52.5t-52.5 -23.5t-51.5 23.5t-18.5 52.5t18.5 50t51.5 21t52.5 -21 t19.5 -50z" />
<glyph unicode="&#xcc;" horiz-adv-x="425" d="M170 0v1280h86v-1280h-86zM190 1397l-323 362h119l268 -362h-64z" />
<glyph unicode="&#xcd;" horiz-adv-x="425" d="M170 0v1280h86v-1280h-86zM242 1397h-64l268 362h119z" />
<glyph unicode="&#xce;" horiz-adv-x="425" d="M170 0v1280h86v-1280h-86zM426 1397l-211 295h-4l-211 -295h-68l230 362h102l230 -362h-68z" />
<glyph unicode="&#xcf;" horiz-adv-x="425" d="M170 0v1280h86v-1280h-86zM469 1569q0 -29 -19.5 -52.5t-50.5 -23.5q-33 0 -53 23.5t-20 52.5t20.5 50t52.5 21q31 0 50.5 -21t19.5 -50zM98 1569q0 -29 -19.5 -52.5t-51.5 -23.5q-33 0 -51.5 23.5t-18.5 52.5t18.5 50t51.5 21t52 -21t19 -50z" />
<glyph unicode="&#xd0;" horiz-adv-x="1296" d="M684 680v-76h-389v-526h215q131 0 240.5 32.5t189.5 102.5t124 176.5t44 251.5q0 127 -41 230.5t-118 177t-187.5 113.5t-251.5 40h-215v-522h389zM33 604v76h176v600h309q156 0 281 -46t213 -129t136 -200t48 -256q0 -156 -47 -276.5t-136 -203.5t-217 -126t-290 -43 h-297v604h-176z" />
<glyph unicode="&#xd1;" horiz-adv-x="1292" d="M1042 1280h82v-1292h-94l-780 1173v-1161h-82v1280h100l774 -1163v1163zM959 1620q-39 -213 -166 -213q-41 0 -82 23.5t-81 52t-74.5 52.5t-63.5 24q-35 0 -56.5 -27t-52.5 -115h-51q39 213 166 213q41 0 83 -23.5t82 -52t75 -52t61 -23.5q33 0 55.5 26.5t51.5 114.5h53 v0z" />
<glyph unicode="&#xd2;" horiz-adv-x="1429" d="M1329 643q0 -150 -46 -271.5t-129 -208.5t-195.5 -135t-245.5 -48q-127 0 -239 49t-194.5 136t-131 208t-48.5 266q0 150 46.5 271.5t129 208.5t195.5 134t246 47q127 0 238.5 -48t194.5 -136t131 -209t48 -264zM1241 639q0 129 -41 236.5t-111.5 185.5t-168 121 t-209.5 43q-113 0 -209 -43t-166 -120t-109 -183.5t-39 -235.5t41 -236.5t112 -185.5t168 -122t210 -44t209 43t165.5 121t108.5 184.5t39 235.5zM702 1397l-323 362h119l268 -362h-64z" />
<glyph unicode="&#xd3;" horiz-adv-x="1429" d="M1329 643q0 -150 -46 -271.5t-129 -208.5t-195.5 -135t-245.5 -48q-127 0 -239 49t-194.5 136t-131 208t-48.5 266q0 150 46.5 271.5t129 208.5t195.5 134t246 47q127 0 238.5 -48t194.5 -136t131 -209t48 -264zM1241 639q0 129 -41 236.5t-111.5 185.5t-168 121 t-209.5 43q-113 0 -209 -43t-166 -120t-109 -183.5t-39 -235.5t41 -236.5t112 -185.5t168 -122t210 -44t209 43t165.5 121t108.5 184.5t39 235.5zM729 1397h-63l268 362h119z" />
<glyph unicode="&#xd4;" horiz-adv-x="1429" d="M1329 643q0 -150 -46 -271.5t-129 -208.5t-195.5 -135t-245.5 -48q-127 0 -239 49t-194.5 136t-131 208t-48.5 266q0 150 46.5 271.5t129 208.5t195.5 134t246 47q127 0 238.5 -48t194.5 -136t131 -209t48 -264zM1241 639q0 129 -41 236.5t-111.5 185.5t-168 121 t-209.5 43q-113 0 -209 -43t-166 -120t-109 -183.5t-39 -235.5t41 -236.5t112 -185.5t168 -122t210 -44t209 43t165.5 121t108.5 184.5t39 235.5zM928 1397l-211 295h-4l-211 -295h-68l230 362h102l229 -362h-67z" />
<glyph unicode="&#xd5;" horiz-adv-x="1429" d="M1329 643q0 -150 -46 -271.5t-129 -208.5t-195.5 -135t-245.5 -48q-127 0 -239 49t-194.5 136t-131 208t-48.5 266q0 150 46.5 271.5t129 208.5t195.5 134t246 47q127 0 238.5 -48t194.5 -136t131 -209t48 -264zM1241 639q0 129 -41 236.5t-111.5 185.5t-168 121 t-209.5 43q-113 0 -209 -43t-166 -120t-109 -183.5t-39 -235.5t41 -236.5t112 -185.5t168 -122t210 -44t209 43t165.5 121t108.5 184.5t39 235.5zM1028 1620q-39 -213 -166 -213q-41 0 -82 23.5t-81 52t-74.5 52.5t-63.5 24q-35 0 -56.5 -27t-51.5 -115h-52q39 213 166 213 q41 0 83 -23.5t82 -52t75 -52t61 -23.5q33 0 55.5 26.5t51.5 114.5h53z" />
<glyph unicode="&#xd6;" horiz-adv-x="1429" d="M1329 643q0 -150 -46 -271.5t-129 -208.5t-195.5 -135t-245.5 -48q-127 0 -239 49t-194.5 136t-131 208t-48.5 266q0 150 46.5 271.5t129 208.5t195.5 134t246 47q127 0 238.5 -48t194.5 -136t131 -209t48 -264zM1241 639q0 129 -41 236.5t-111.5 185.5t-168 121 t-209.5 43q-113 0 -209 -43t-166 -120t-109 -183.5t-39 -235.5t41 -236.5t112 -185.5t168 -122t210 -44t209 43t165.5 121t108.5 184.5t39 235.5zM971 1569q0 -29 -19.5 -52.5t-50.5 -23.5q-33 0 -53.5 23.5t-20.5 52.5t20.5 50t53.5 21q31 0 50.5 -21t19.5 -50zM600 1569 q0 -29 -19.5 -52.5t-52.5 -23.5t-51 23.5t-18 52.5t18 50t51 21t52.5 -21t19.5 -50z" />
<glyph unicode="&#xd7;" horiz-adv-x="999" d="M868 55l-368 369l-369 -369l-53 54l368 368l-368 369l53 53l369 -369l372 373l54 -53l-373 -373l369 -368z" />
<glyph unicode="&#xd8;" horiz-adv-x="1429" d="M1329 643q0 -150 -46 -271.5t-129 -208.5t-195.5 -135t-245.5 -48q-82 0 -157 20t-140 57l-113 -194h-80q37 66 68 117q12 23 23.5 42t21.5 35q10 18 22 37q-117 88 -187.5 227.5t-70.5 317.5q0 150 46.5 271.5t129 208.5t195.5 134t246 47q82 0 156.5 -20t140.5 -57 l112 194h80l-135 -231q117 -86 187.5 -225.5t70.5 -317.5zM975 1155q-57 35 -124 53.5t-140 18.5q-113 0 -209 -43t-166 -121t-109 -184.5t-39 -235.5q0 -154 56.5 -276.5t154.5 -200.5zM455 125q59 -35 124.5 -53.5t139.5 -18.5q113 0 209 43t165.5 121t108.5 185.5 t39 236.5q0 154 -56.5 276.5t-154.5 200.5z" />
<glyph unicode="&#xd9;" horiz-adv-x="1200" d="M1063 483q0 -115 -29.5 -208t-89 -158.5t-146.5 -101t-200 -35.5q-223 0 -342 128t-119 355v817h84v-811q0 -193 95.5 -303.5t283.5 -110.5q193 0 286 113t93 317v795h84v-797zM596 1397l-324 362h119l268 -362h-63z" />
<glyph unicode="&#xda;" horiz-adv-x="1200" d="M1063 483q0 -115 -29.5 -208t-89 -158.5t-146.5 -101t-200 -35.5q-223 0 -342 128t-119 355v817h84v-811q0 -193 95.5 -303.5t283.5 -110.5q193 0 286 113t93 317v795h84v-797zM586 1397h-64l269 362h118z" />
<glyph unicode="&#xdb;" horiz-adv-x="1200" d="M1063 483q0 -115 -29.5 -208t-89 -158.5t-146.5 -101t-200 -35.5q-223 0 -342 128t-119 355v817h84v-811q0 -193 95.5 -303.5t283.5 -110.5q193 0 286 113t93 317v795h84v-797zM813 1397l-211 295h-4l-211 -295h-68l230 362h102l230 -362h-68z" />
<glyph unicode="&#xdc;" horiz-adv-x="1200" d="M1063 483q0 -115 -29.5 -208t-89 -158.5t-146.5 -101t-200 -35.5q-223 0 -342 128t-119 355v817h84v-811q0 -193 95.5 -303.5t283.5 -110.5q193 0 286 113t93 317v795h84v-797v0zM856 1569q0 -29 -19.5 -52.5t-50.5 -23.5q-33 0 -53.5 23.5t-20.5 52.5t20.5 50t53.5 21 q31 0 50.5 -21t19.5 -50zM485 1569q0 -29 -19.5 -52.5t-52.5 -23.5t-51 23.5t-18 52.5t18 50t51 21t52.5 -21t19.5 -50z" />
<glyph unicode="&#xdd;" horiz-adv-x="1038" d="M563 520v-520h-86v518l-448 762h96l397 -678l393 678h95zM518 1397h-63l268 362h119z" />
<glyph unicode="&#xde;" d="M944 664q0 -205 -137 -308.5t-375 -107.5l-178 -2v-246h-86v1280h86v-231h201q244 0 366.5 -104.5t122.5 -280.5zM854 662q0 145 -104.5 227t-294.5 82h-201v-647l178 2q201 4 311.5 81t110.5 255z" />
<glyph unicode="&#xdf;" horiz-adv-x="1058" d="M166 852l-135 8l6 53l127 17l2 133q0 96 25.5 164.5t70.5 112.5t101.5 64.5t117.5 20.5q74 0 130.5 -22.5t95 -62.5t59 -94t20.5 -116q0 -68 -31.5 -118.5t-68.5 -91.5t-68.5 -77t-31.5 -75q0 -51 29.5 -89t73.5 -71t95.5 -64.5t95.5 -70.5t73.5 -91t29.5 -126 q0 -68 -23.5 -119t-64.5 -87t-96.5 -53t-120.5 -17q-80 0 -157 22.5t-132 56.5l27 78q59 -39 124.5 -61.5t137.5 -22.5q45 0 84 11.5t68.5 36t47 62.5t17.5 89q0 66 -28.5 110t-71.5 77.5t-92.5 62t-92.5 63.5t-71.5 80t-28.5 111q0 63 30.5 106t66.5 80t67 78t31 102 q0 100 -56.5 165t-167.5 65q-109 0 -170 -73t-61 -204v-1075h-84v852z" />
<glyph unicode="&#xe0;" horiz-adv-x="874" d="M647 498q-137 -14 -231 -38t-152.5 -56.5t-84 -74.5t-25.5 -93q0 -88 64.5 -135.5t154.5 -47.5q88 0 158.5 46t115.5 100v299zM655 127q-23 -29 -53.5 -54.5t-69 -47t-81.5 -33.5t-89 -12q-61 0 -115 18t-93 50t-61.5 78t-22.5 101q0 66 28.5 122.5t96 99.5t178 71.5 t274.5 38.5v86q0 109 -54 172.5t-175 63.5q-43 0 -87 -11.5t-85 -28t-79 -39t-65 -42.5l-20 84q66 47 161 80.5t181 33.5q68 0 124 -16t97 -53t63.5 -95.5t22.5 -140.5v-508q0 -43 17.5 -71.5t80.5 -26.5l-6 -63q-70 -4 -115.5 30.5t-50.5 112.5h-2zM448 1055l-324 362h119 l269 -362h-64z" />
<glyph unicode="&#xe1;" horiz-adv-x="874" d="M647 498q-137 -14 -231 -38t-152.5 -56.5t-84 -74.5t-25.5 -93q0 -88 64.5 -135.5t154.5 -47.5q88 0 158.5 46t115.5 100v299zM655 127q-23 -29 -53.5 -54.5t-69 -47t-81.5 -33.5t-89 -12q-61 0 -115 18t-93 50t-61.5 78t-22.5 101q0 66 28.5 122.5t96 99.5t178 71.5 t274.5 38.5v86q0 109 -54 172.5t-175 63.5q-43 0 -87 -11.5t-85 -28t-79 -39t-65 -42.5l-20 84q66 47 161 80.5t181 33.5q68 0 124 -16t97 -53t63.5 -95.5t22.5 -140.5v-508q0 -43 17.5 -71.5t80.5 -26.5l-6 -63q-70 -4 -115.5 30.5t-50.5 112.5h-2zM385 1055h-63l268 362 h119z" />
<glyph unicode="&#xe2;" horiz-adv-x="874" d="M647 498q-137 -14 -231 -38t-152.5 -56.5t-84 -74.5t-25.5 -93q0 -88 64.5 -135.5t154.5 -47.5q88 0 158.5 46t115.5 100v299zM655 127q-23 -29 -53.5 -54.5t-69 -47t-81.5 -33.5t-89 -12q-61 0 -115 18t-93 50t-61.5 78t-22.5 101q0 66 28.5 122.5t96 99.5t178 71.5 t274.5 38.5v86q0 109 -54 172.5t-175 63.5q-43 0 -87 -11.5t-85 -28t-79 -39t-65 -42.5l-20 84q66 47 161 80.5t181 33.5q68 0 124 -16t97 -53t63.5 -95.5t22.5 -140.5v-508q0 -43 17.5 -71.5t80.5 -26.5l-6 -63q-70 -4 -115.5 30.5t-50.5 112.5h-2zM633 1055l-211 295h-4 l-211 -295h-68l229 362h103l229 -362h-67z" />
<glyph unicode="&#xe3;" horiz-adv-x="874" d="M647 498q-137 -14 -231 -38t-152.5 -56.5t-84 -74.5t-25.5 -93q0 -88 64.5 -135.5t154.5 -47.5q88 0 158.5 46t115.5 100v299zM655 127q-23 -29 -53.5 -54.5t-69 -47t-81.5 -33.5t-89 -12q-61 0 -115 18t-93 50t-61.5 78t-22.5 101q0 66 28.5 122.5t96 99.5t178 71.5 t274.5 38.5v86q0 109 -54 172.5t-175 63.5q-43 0 -87 -11.5t-85 -28t-79 -39t-65 -42.5l-20 84q66 47 161 80.5t181 33.5q68 0 124 -16t97 -53t63.5 -95.5t22.5 -140.5v-508q0 -43 17.5 -71.5t80.5 -26.5l-6 -63q-70 -4 -115.5 30.5t-50.5 112.5h-2zM733 1278 q-39 -213 -166 -213q-41 0 -82 23.5t-81 52t-74.5 52.5t-63.5 24q-35 0 -56.5 -27t-52.5 -115h-51q39 213 166 213q41 0 83 -23.5t82 -52t75 -52t61 -23.5q33 0 55.5 26.5t51.5 114.5h53v0z" />
<glyph unicode="&#xe4;" horiz-adv-x="874" d="M647 498q-137 -14 -231 -38t-152.5 -56.5t-84 -74.5t-25.5 -93q0 -88 64.5 -135.5t154.5 -47.5q88 0 158.5 46t115.5 100v299zM655 127q-23 -29 -53.5 -54.5t-69 -47t-81.5 -33.5t-89 -12q-61 0 -115 18t-93 50t-61.5 78t-22.5 101q0 66 28.5 122.5t96 99.5t178 71.5 t274.5 38.5v86q0 109 -54 172.5t-175 63.5q-43 0 -87 -11.5t-85 -28t-79 -39t-65 -42.5l-20 84q66 47 161 80.5t181 33.5q68 0 124 -16t97 -53t63.5 -95.5t22.5 -140.5v-508q0 -43 17.5 -71.5t80.5 -26.5l-6 -63q-70 -4 -115.5 30.5t-50.5 112.5h-2zM676 1227 q0 -29 -19.5 -52.5t-50.5 -23.5q-33 0 -53.5 23.5t-20.5 52.5t20.5 50t53.5 21q31 0 50.5 -21t19.5 -50zM305 1227q0 -29 -19.5 -52.5t-52.5 -23.5t-51 23.5t-18 52.5t18 50t51 21t52.5 -21t19.5 -50z" />
<glyph unicode="&#xe5;" horiz-adv-x="874" d="M647 498q-137 -14 -231 -38t-152.5 -56.5t-84 -74.5t-25.5 -93q0 -88 64.5 -135.5t154.5 -47.5q88 0 158.5 46t115.5 100v299zM655 127q-23 -29 -53.5 -54.5t-69 -47t-81.5 -33.5t-89 -12q-61 0 -115 18t-93 50t-61.5 78t-22.5 101q0 66 28.5 122.5t96 99.5t178 71.5 t274.5 38.5v86q0 109 -54 172.5t-175 63.5q-43 0 -87 -11.5t-85 -28t-79 -39t-65 -42.5l-20 84q66 47 161 80.5t181 33.5q68 0 124 -16t97 -53t63.5 -95.5t22.5 -140.5v-508q0 -43 17.5 -71.5t80.5 -26.5l-6 -63q-70 -4 -115.5 30.5t-50.5 112.5h-2zM651 1237 q0 -82 -61.5 -140.5t-167.5 -58.5t-168 58.5t-62 140.5t61.5 141.5t168.5 59.5q106 0 167.5 -59.5t61.5 -141.5zM579 1233q0 57 -43 101t-114 44q-72 0 -115 -41t-43 -98t43 -99t115 -42t114.5 39t42.5 96z" />
<glyph unicode="&#xe6;" horiz-adv-x="1474" d="M690 186q-31 -47 -76 -85t-94 -64.5t-98 -41.5t-92 -15q-125 0 -192.5 69.5t-67.5 167.5q0 147 132 228t425 96l4 84q4 119 -48.5 185.5t-176.5 66.5q-86 0 -161 -37t-130 -80l-39 69q61 47 149 88t187 41q109 0 185.5 -46t98.5 -154q55 92 144.5 146t201.5 54 q70 0 129.5 -22.5t103.5 -64.5t68.5 -101t24.5 -135q0 -35 -6 -76t-14 -72l-639 -4v-14q0 -90 23.5 -165t68.5 -130t109.5 -86t144.5 -31t145.5 22.5t116.5 55.5l18 -76q-57 -35 -128.5 -57t-157.5 -22q-121 0 -213.5 54t-145.5 152zM1276 559q6 33 6 70q0 111 -64.5 181.5 t-177.5 70.5q-131 0 -217 -89.5t-108 -232.5h561zM623 473q-135 -8 -225.5 -29.5t-144.5 -55.5t-77.5 -76t-23.5 -89q0 -84 55 -123t133 -39q70 0 159 43t165 138q-41 104 -41 231z" />
<glyph unicode="&#xe7;" horiz-adv-x="911" d="M457 -137q49 4 95 -4.5t80 -30t54.5 -55t20.5 -82.5q0 -80 -82 -144.5t-236 -74.5l-8 61q123 8 187.5 47t64.5 105q0 84 -84 106.5t-207 -4.5l-6 33l162 162q-90 8 -166 47t-129 102.5t-83 148.5t-30 185q0 106 33 196.5t92 157t141 103t179 36.5q84 0 155.5 -20 t126.5 -57l-20 -76q-51 33 -118 54.5t-144 21.5q-80 0 -145.5 -31t-113 -86t-74 -131t-26.5 -164q0 -90 26.5 -166t75 -130t116 -85t151.5 -31q68 0 133 22.5t117 55.5l20 -76q-51 -33 -111.5 -53t-125.5 -24l-121 -119v0z" />
<glyph unicode="&#xe8;" horiz-adv-x="942" d="M176 469q0 -90 23.5 -165t68.5 -130t109.5 -86t144.5 -31t145.5 22.5t116.5 55.5l19 -76q-55 -35 -128 -57t-159 -22q-96 0 -175 35.5t-134 100t-86 153.5t-31 196q0 106 31 196.5t87 157t133 103t169 36.5q70 0 129 -22.5t103 -64.5t69 -101t25 -135q0 -35 -6.5 -76 t-14.5 -72l-639 -4v-14zM743 559q6 33 7 70q0 111 -64.5 181.5t-177.5 70.5q-131 0 -217 -89.5t-109 -232.5h561zM498 1055l-324 362h119l269 -362h-64z" />
<glyph unicode="&#xe9;" horiz-adv-x="942" d="M176 469q0 -90 23.5 -165t68.5 -130t109.5 -86t144.5 -31t145.5 22.5t116.5 55.5l19 -76q-55 -35 -128 -57t-159 -22q-96 0 -175 35.5t-134 100t-86 153.5t-31 196q0 106 31 196.5t87 157t133 103t169 36.5q70 0 129 -22.5t103 -64.5t69 -101t25 -135q0 -35 -6.5 -76 t-14.5 -72l-639 -4v-14zM743 559q6 33 7 70q0 111 -64.5 181.5t-177.5 70.5q-131 0 -217 -89.5t-109 -232.5h561zM500 1055h-63l268 362h119z" />
<glyph unicode="&#xea;" horiz-adv-x="942" d="M176 469q0 -90 23.5 -165t68.5 -130t109.5 -86t144.5 -31t145.5 22.5t116.5 55.5l19 -76q-55 -35 -128 -57t-159 -22q-96 0 -175 35.5t-134 100t-86 153.5t-31 196q0 106 31 196.5t87 157t133 103t169 36.5q70 0 129 -22.5t103 -64.5t69 -101t25 -135q0 -35 -6.5 -76 t-14.5 -72l-639 -4v-14zM743 559q6 33 7 70q0 111 -64.5 181.5t-177.5 70.5q-131 0 -217 -89.5t-109 -232.5h561zM684 1055l-211 295h-4l-211 -295h-68l229 362h103l229 -362h-67z" />
<glyph unicode="&#xeb;" horiz-adv-x="942" d="M176 469q0 -90 23.5 -165t68.5 -130t109.5 -86t144.5 -31t145.5 22.5t116.5 55.5l19 -76q-55 -35 -128 -57t-159 -22q-96 0 -175 35.5t-134 100t-86 153.5t-31 196q0 106 31 196.5t87 157t133 103t169 36.5q70 0 129 -22.5t103 -64.5t69 -101t25 -135q0 -35 -6.5 -76 t-14.5 -72l-639 -4v-14zM743 559q6 33 7 70q0 111 -64.5 181.5t-177.5 70.5q-131 0 -217 -89.5t-109 -232.5h561zM736 1227q0 -29 -19.5 -52.5t-50.5 -23.5q-33 0 -53.5 23.5t-20.5 52.5t20.5 50t53.5 21q31 0 50.5 -21t19.5 -50zM365 1227q0 -29 -19.5 -52.5t-52.5 -23.5 t-51 23.5t-18 52.5t18 50t51 21t52.5 -21t19.5 -50z" />
<glyph unicode="&#xec;" horiz-adv-x="395" d="M156 0v932l84 26v-958h-84zM170 1055l-324 362h119l269 -362h-64z" />
<glyph unicode="&#xed;" horiz-adv-x="395" d="M156 0v932l84 26v-958h-84zM219 1055h-63l268 362h119z" />
<glyph unicode="&#xee;" horiz-adv-x="395" d="M156 0v932l84 26v-958h-84zM416 1055l-211 295h-4l-211 -295h-68l229 362h103l229 -362h-67z" />
<glyph unicode="&#xef;" horiz-adv-x="395" d="M156 0v932l84 26v-958h-84zM459 1227q0 -29 -19.5 -52.5t-50.5 -23.5q-33 0 -53.5 23.5t-20.5 52.5t20.5 50t53.5 21q31 0 50.5 -21t19.5 -50zM88 1227q0 -29 -19.5 -52.5t-52.5 -23.5t-51 23.5t-18 52.5t18 50t51 21t52.5 -21t19.5 -50z" />
<glyph unicode="&#xf0;" horiz-adv-x="1054" d="M965 508q0 -113 -28 -209t-83 -167t-139 -111.5t-197 -40.5q-92 0 -171 32.5t-136 92t-89 142.5t-32 183q0 109 35 194t94.5 143t138 89t168.5 31q82 0 157 -25.5t124 -54.5h2q-43 92 -107.5 183t-146.5 179l-272 -73l-19 73l230 62q-47 45 -96.5 88t-102.5 82l45 12 q16 4 29.5 8t15.5 4q98 -72 197 -170l221 60l18 -74l-90 -24l-90 -25q68 -76 127 -160t103 -172t69 -177t25 -175zM881 504q0 100 -37 209q-59 41 -140 69.5t-163 28.5q-174 0 -269.5 -103.5t-95.5 -277.5q0 -80 25.5 -149.5t71.5 -119.5t108.5 -79t138.5 -29 q180 0 270.5 124t90.5 327z" />
<glyph unicode="&#xf1;" horiz-adv-x="1007" d="M780 0v623q0 125 -53 191.5t-168 66.5q-80 0 -163 -42t-160 -120v-719h-84v932l84 26v-163q82 84 174 123.5t159 39.5q139 0 217 -80.5t78 -236.5v-641h-84zM817 1278q-39 -213 -166 -213q-41 0 -82 23.5t-81 52t-74.5 52.5t-63.5 24q-35 0 -56.5 -27t-52.5 -115h-51 q39 213 166 213q41 0 83 -23.5t82 -52t75 -52t61 -23.5q33 0 55.5 26.5t51.5 114.5h53v0z" />
<glyph unicode="&#xf2;" horiz-adv-x="1093" d="M1004 473q0 -111 -36 -202t-99.5 -155.5t-147.5 -100t-178 -35.5q-96 0 -178 33.5t-143.5 97t-96.5 153.5t-35 201t36 202t99.5 155.5t146.5 100t179 35.5q94 0 177 -33.5t144.5 -97t96.5 -153.5t35 -201zM920 469q0 96 -29 173t-78 130t-117.5 82t-148.5 29t-148.5 -31 t-118 -86t-78 -131t-28.5 -166q0 -96 27.5 -173t78 -130t119 -82t148.5 -29t148.5 31t117.5 86t78 131t29 166zM547 1055l-324 362h119l269 -362h-64z" />
<glyph unicode="&#xf3;" horiz-adv-x="1093" d="M1004 473q0 -111 -36 -202t-99.5 -155.5t-147.5 -100t-178 -35.5q-96 0 -178 33.5t-143.5 97t-96.5 153.5t-35 201t36 202t99.5 155.5t146.5 100t179 35.5q94 0 177 -33.5t144.5 -97t96.5 -153.5t35 -201zM920 469q0 96 -29 173t-78 130t-117.5 82t-148.5 29t-148.5 -31 t-118 -86t-78 -131t-28.5 -166q0 -96 27.5 -173t78 -130t119 -82t148.5 -29t148.5 31t117.5 86t78 131t29 166zM549 1055h-63l268 362h119z" />
<glyph unicode="&#xf4;" horiz-adv-x="1093" d="M1004 473q0 -111 -36 -202t-99.5 -155.5t-147.5 -100t-178 -35.5q-96 0 -178 33.5t-143.5 97t-96.5 153.5t-35 201t36 202t99.5 155.5t146.5 100t179 35.5q94 0 177 -33.5t144.5 -97t96.5 -153.5t35 -201zM920 469q0 96 -29 173t-78 130t-117.5 82t-148.5 29t-148.5 -31 t-118 -86t-78 -131t-28.5 -166q0 -96 27.5 -173t78 -130t119 -82t148.5 -29t148.5 31t117.5 86t78 131t29 166zM760 1055l-211 295h-4l-211 -295h-68l229 362h103l229 -362h-67z" />
<glyph unicode="&#xf5;" horiz-adv-x="1093" d="M1004 473q0 -111 -36 -202t-99.5 -155.5t-147.5 -100t-178 -35.5q-96 0 -178 33.5t-143.5 97t-96.5 153.5t-35 201t36 202t99.5 155.5t146.5 100t179 35.5q94 0 177 -33.5t144.5 -97t96.5 -153.5t35 -201zM920 469q0 96 -29 173t-78 130t-117.5 82t-148.5 29t-148.5 -31 t-118 -86t-78 -131t-28.5 -166q0 -96 27.5 -173t78 -130t119 -82t148.5 -29t148.5 31t117.5 86t78 131t29 166zM860 1278q-39 -213 -166 -213q-41 0 -82 23.5t-81 52t-74.5 52.5t-63.5 24q-35 0 -56.5 -27t-52.5 -115h-51q39 213 166 213q41 0 83 -23.5t82 -52t75 -52 t61 -23.5q33 0 55.5 26.5t51.5 114.5h53v0z" />
<glyph unicode="&#xf6;" horiz-adv-x="1093" d="M1004 473q0 -111 -36 -202t-99.5 -155.5t-147.5 -100t-178 -35.5q-96 0 -178 33.5t-143.5 97t-96.5 153.5t-35 201t36 202t99.5 155.5t146.5 100t179 35.5q94 0 177 -33.5t144.5 -97t96.5 -153.5t35 -201zM920 469q0 96 -29 173t-78 130t-117.5 82t-148.5 29t-148.5 -31 t-118 -86t-78 -131t-28.5 -166q0 -96 27.5 -173t78 -130t119 -82t148.5 -29t148.5 31t117.5 86t78 131t29 166zM803 1227q0 -29 -19.5 -52.5t-50.5 -23.5q-33 0 -53.5 23.5t-20.5 52.5t20.5 50t53.5 21q31 0 50.5 -21t19.5 -50zM432 1227q0 -29 -19.5 -52.5t-52.5 -23.5 t-51 23.5t-18 52.5t18 50t51 21t52.5 -21t19.5 -50z" />
<glyph unicode="&#xf7;" horiz-adv-x="999" d="M86 444l6 74h817l6 -74h-829zM575 219q0 -31 -20 -54.5t-53 -23.5t-52.5 23.5t-19.5 54.5q0 29 19.5 51.5t52.5 22.5t53 -22.5t20 -51.5zM575 739q0 -31 -20 -54t-53 -23t-52.5 23.5t-19.5 53.5q0 29 19.5 51.5t52.5 22.5t53 -22.5t20 -51.5z" />
<glyph unicode="&#xf8;" horiz-adv-x="1093" d="M1004 473q0 -111 -36 -202t-99.5 -155.5t-147.5 -100t-178 -35.5q-117 0 -211 49l-96 -166h-80l116 203q-84 61 -133 162.5t-49 236.5q0 111 36 202t99.5 155.5t146.5 100t179 35.5q115 0 211 -49q16 27 31.5 56.5t31.5 54.5q16 29 35 57h80l-119 -205 q84 -61 133.5 -162.5t49.5 -236.5zM723 840q-78 43 -176 43q-80 0 -148.5 -31t-118 -86t-78 -131t-28.5 -166q0 -111 37 -196t102 -138l205 352zM920 469q0 111 -37 196t-103 138l-409 -707q82 -41 176 -41q80 0 148.5 31t117.5 86t78 131t29 166z" />
<glyph unicode="&#xf9;" horiz-adv-x="1005" d="M227 938v-623q0 -125 53.5 -191.5t168.5 -66.5q80 0 162.5 42t160.5 120v719h84v-932l-84 -26v165q-82 -84 -174 -124.5t-160 -40.5q-139 0 -217 80.5t-78 236.5v641h84zM498 1055l-324 362h119l269 -362h-64z" />
<glyph unicode="&#xfa;" horiz-adv-x="1005" d="M227 938v-623q0 -125 53.5 -191.5t168.5 -66.5q80 0 162.5 42t160.5 120v719h84v-932l-84 -26v165q-82 -84 -174 -124.5t-160 -40.5q-139 0 -217 80.5t-78 236.5v641h84zM487 1055h-63l268 362h119z" />
<glyph unicode="&#xfb;" horiz-adv-x="1005" d="M227 938v-623q0 -125 53.5 -191.5t168.5 -66.5q80 0 162.5 42t160.5 120v719h84v-932l-84 -26v165q-82 -84 -174 -124.5t-160 -40.5q-139 0 -217 80.5t-78 236.5v641h84zM715 1055l-211 295h-4l-211 -295h-68l229 362h103l229 -362h-67z" />
<glyph unicode="&#xfc;" horiz-adv-x="1005" d="M227 938v-623q0 -125 53.5 -191.5t168.5 -66.5q80 0 162.5 42t160.5 120v719h84v-932l-84 -26v165q-82 -84 -174 -124.5t-160 -40.5q-139 0 -217 80.5t-78 236.5v641h84zM750 1227q0 -29 -19.5 -52.5t-50.5 -23.5q-33 0 -53.5 23.5t-20.5 52.5t20.5 50t53.5 21 q31 0 50.5 -21t19.5 -50zM379 1227q0 -29 -19.5 -52.5t-52.5 -23.5t-51 23.5t-18 52.5t18 50t51 21t52.5 -21t19.5 -50z" />
<glyph unicode="&#xfd;" horiz-adv-x="831" d="M467 31l-88 -240q-31 -82 -62.5 -136t-65.5 -86t-72 -44t-79 -12q-53 0 -90 10t-71 26l24 76q33 -16 64.5 -26.5t72.5 -10.5q27 0 52.5 9.5t51 35t51.5 70.5t52 117l70 188l-367 930h90l320 -821l313 821h88zM385 1055h-63l268 362h119z" />
<glyph unicode="&#xfe;" horiz-adv-x="1030" d="M236 -477h-84v1859l84 25v-571q43 41 116.5 76.5t165.5 35.5q90 0 168 -33.5t134.5 -96t88 -150.5t31.5 -195q0 -113 -34 -204t-94 -155.5t-142 -99t-181 -34.5q-70 0 -138 21.5t-115 49.5v-528zM236 133q45 -35 116.5 -56.5t143.5 -21.5q80 0 145.5 30t112.5 85 t73.5 132t26.5 171q0 86 -24.5 159t-68.5 126t-107.5 83.5t-141.5 30.5t-150.5 -33.5t-125.5 -84.5v-621z" />
<glyph unicode="&#xff;" horiz-adv-x="831" d="M467 31l-88 -240q-31 -82 -62.5 -136t-65.5 -86t-72 -44t-79 -12q-53 0 -90 10t-71 26l24 76q33 -16 64.5 -26.5t72.5 -10.5q27 0 52.5 9.5t51 35t51.5 70.5t52 117l70 188l-367 930h90l320 -821l313 821h88zM670 1227q0 -29 -19.5 -52.5t-50.5 -23.5q-33 0 -53.5 23.5 t-20.5 52.5t20.5 50t53.5 21q31 0 50.5 -21t19.5 -50zM299 1227q0 -29 -19.5 -52.5t-52.5 -23.5t-51 23.5t-18 52.5t18.5 50t50.5 21q33 0 52.5 -21t19.5 -50z" />
<glyph unicode="&#x100;" horiz-adv-x="1179" d="M1128 0h-88l-149 399h-604l-150 -399h-86l490 1280h106zM592 1204l-275 -727h543zM346 1434l6 77h469l6 -77h-481z" />
<glyph unicode="&#x101;" horiz-adv-x="874" d="M647 498q-137 -14 -231 -38t-152.5 -56.5t-84 -74.5t-25.5 -93q0 -88 64.5 -135.5t154.5 -47.5q88 0 158.5 46t115.5 100v299zM655 127q-23 -29 -53.5 -54.5t-69 -47t-81.5 -33.5t-89 -12q-61 0 -115 18t-93 50t-61.5 78t-22.5 101q0 66 28.5 122.5t96 99.5t178 71.5 t274.5 38.5v86q0 109 -54 172.5t-175 63.5q-43 0 -87 -11.5t-85 -28t-79 -39t-65 -42.5l-20 84q66 47 161 80.5t181 33.5q68 0 124 -16t97 -53t63.5 -95.5t22.5 -140.5v-508q0 -43 17.5 -71.5t80.5 -26.5l-6 -63q-70 -4 -115.5 30.5t-50.5 112.5h-2zM180 1092l6 77h469 l6 -77h-481z" />
<glyph unicode="&#x102;" horiz-adv-x="1179" d="M1128 0h-88l-149 399h-604l-150 -399h-86l490 1280h106zM592 1204l-275 -727h543zM862 1757q-14 -59 -34.5 -122.5t-53.5 -117t-80 -88t-112 -34.5q-66 0 -113 34.5t-80 88t-53.5 117t-34.5 122.5h59q45 -160 97.5 -227.5t124.5 -67.5t124 67.5t97 227.5h59v0z" />
<glyph unicode="&#x103;" horiz-adv-x="874" d="M647 498q-137 -14 -231 -38t-152.5 -56.5t-84 -74.5t-25.5 -93q0 -88 64.5 -135.5t154.5 -47.5q88 0 158.5 46t115.5 100v299zM655 127q-23 -29 -53.5 -54.5t-69 -47t-81.5 -33.5t-89 -12q-61 0 -115 18t-93 50t-61.5 78t-22.5 101q0 66 28.5 122.5t96 99.5t178 71.5 t274.5 38.5v86q0 109 -54 172.5t-175 63.5q-43 0 -87 -11.5t-85 -28t-79 -39t-65 -42.5l-20 84q66 47 161 80.5t181 33.5q68 0 124 -16t97 -53t63.5 -95.5t22.5 -140.5v-508q0 -43 17.5 -71.5t80.5 -26.5l-6 -63q-70 -4 -115.5 30.5t-50.5 112.5h-2zM694 1415 q-14 -59 -34.5 -122.5t-53.5 -117t-80 -88t-112 -34.5q-66 0 -113 34.5t-80 88t-53.5 117t-34.5 122.5h59q45 -160 97.5 -227.5t124.5 -67.5t124 67.5t97 227.5h59v0z" />
<glyph unicode="&#x104;" horiz-adv-x="1179" d="M1128 0q-47 -8 -89 -34.5t-72.5 -62.5t-48 -75t-17.5 -72q0 -51 27.5 -81.5t72.5 -30.5q27 0 54.5 11t48.5 28l26 -66q-23 -18 -58.5 -33.5t-78.5 -15.5q-72 0 -122 47t-50 127q0 49 18.5 93t47 81t65.5 67.5t74 53.5l-135 362h-604l-150 -399h-86l490 1280h106z M592 1204l-275 -727h543z" />
<glyph unicode="&#x105;" horiz-adv-x="874" d="M655 127q-23 -29 -53.5 -54.5t-69 -47t-81.5 -33.5t-89 -12q-61 0 -115 18t-93 50t-61.5 78t-22.5 101q0 66 28.5 122.5t96 99.5t178 71.5t274.5 38.5v86q0 109 -54 172.5t-175 63.5q-43 0 -87 -11.5t-85 -28t-79 -39t-65 -42.5l-20 84q66 47 161 80.5t181 33.5 q68 0 124 -16t97 -53t63.5 -95.5t22.5 -140.5v-508q0 -43 17.5 -71.5t80.5 -26.5l-6 -63q-45 0 -86 -18.5t-72.5 -50.5t-51 -73t-19.5 -86q0 -51 27.5 -81.5t72.5 -30.5q27 0 54.5 11t48.5 28l26 -66q-23 -18 -58.5 -33.5t-78.5 -15.5q-72 0 -122 47t-50 127q0 45 17.5 89 t46 80t66.5 61.5t79 31.5q-59 29 -66 123h-2zM647 498q-137 -14 -231 -38t-152.5 -56.5t-84 -74.5t-25.5 -93q0 -88 64.5 -135.5t154.5 -47.5q88 0 158.5 46t115.5 100v299z" />
<glyph unicode="&#x106;" horiz-adv-x="1169" d="M1051 1124q-68 43 -163 71t-198 28q-104 0 -195.5 -38t-160 -113t-107.5 -184.5t-39 -250.5q0 -135 36 -242.5t102.5 -182.5t160 -115t207.5 -40q104 0 196.5 29t158.5 76l20 -80q-66 -43 -163 -72.5t-214 -29.5q-137 0 -246.5 46t-186.5 131t-118 206.5t-41 273.5 t44 274.5t124 208.5t188.5 133t237.5 47q125 0 223.5 -32.5t159.5 -69.5zM534 1397h-63l268 362h119z" />
<glyph unicode="&#x107;" horiz-adv-x="911" d="M815 59q-57 -35 -127 -57t-143 -22q-100 0 -183 35.5t-143.5 100t-94.5 153.5t-34 196q0 106 33 196.5t92 157t141 103t179 36.5q84 0 155.5 -20t126.5 -57l-20 -76q-51 33 -118 54.5t-144 21.5q-80 0 -145.5 -31t-113 -86t-74 -131t-26.5 -164q0 -90 26.5 -166t75 -130 t116 -85t151.5 -31q68 0 133 22.5t117 55.5l20 -76v0zM407 1055h-63l268 362h119z" />
<glyph unicode="&#x108;" horiz-adv-x="1169" d="M1051 1124q-68 43 -163 71t-198 28q-104 0 -195.5 -38t-160 -113t-107.5 -184.5t-39 -250.5q0 -135 36 -242.5t102.5 -182.5t160 -115t207.5 -40q104 0 196.5 29t158.5 76l20 -80q-66 -43 -163 -72.5t-214 -29.5q-137 0 -246.5 46t-186.5 131t-118 206.5t-41 273.5 t44 274.5t124 208.5t188.5 133t237.5 47q125 0 223.5 -32.5t159.5 -69.5zM873 1397l-211 295h-4l-211 -295h-68l229 362h103l229 -362h-67z" />
<glyph unicode="&#x109;" horiz-adv-x="911" d="M815 59q-57 -35 -127 -57t-143 -22q-100 0 -183 35.5t-143.5 100t-94.5 153.5t-34 196q0 106 33 196.5t92 157t141 103t179 36.5q84 0 155.5 -20t126.5 -57l-20 -76q-51 33 -118 54.5t-144 21.5q-80 0 -145.5 -31t-113 -86t-74 -131t-26.5 -164q0 -90 26.5 -166t75 -130 t116 -85t151.5 -31q68 0 133 22.5t117 55.5l20 -76v0zM715 1055l-211 295h-4l-211 -295h-68l229 362h103l229 -362h-67z" />
<glyph unicode="&#x10a;" horiz-adv-x="1169" d="M1051 1124q-68 43 -163 71t-198 28q-104 0 -195.5 -38t-160 -113t-107.5 -184.5t-39 -250.5q0 -135 36 -242.5t102.5 -182.5t160 -115t207.5 -40q104 0 196.5 29t158.5 76l20 -80q-66 -43 -163 -72.5t-214 -29.5q-137 0 -246.5 46t-186.5 131t-118 206.5t-41 273.5 t44 274.5t124 208.5t188.5 133t237.5 47q125 0 223.5 -32.5t159.5 -69.5zM731 1569q0 -29 -19.5 -52.5t-51.5 -23.5q-33 0 -51.5 23.5t-18.5 52.5t18.5 50t51.5 21t52 -21t19 -50z" />
<glyph unicode="&#x10b;" horiz-adv-x="911" d="M815 59q-57 -35 -127 -57t-143 -22q-100 0 -183 35.5t-143.5 100t-94.5 153.5t-34 196q0 106 33 196.5t92 157t141 103t179 36.5q84 0 155.5 -20t126.5 -57l-20 -76q-51 33 -118 54.5t-144 21.5q-80 0 -145.5 -31t-113 -86t-74 -131t-26.5 -164q0 -90 26.5 -166t75 -130 t116 -85t151.5 -31q68 0 133 22.5t117 55.5l20 -76v0zM579 1227q0 -29 -19.5 -52.5t-51.5 -23.5q-33 0 -51.5 23.5t-18.5 52.5t18.5 50t51.5 21t52 -21t19 -50z" />
<glyph unicode="&#x10c;" horiz-adv-x="1169" d="M1051 1124q-68 43 -163 71t-198 28q-104 0 -195.5 -38t-160 -113t-107.5 -184.5t-39 -250.5q0 -135 36 -242.5t102.5 -182.5t160 -115t207.5 -40q104 0 196.5 29t158.5 76l20 -80q-66 -43 -163 -72.5t-214 -29.5q-137 0 -246.5 46t-186.5 131t-118 206.5t-41 273.5 t44 274.5t124 208.5t188.5 133t237.5 47q125 0 223.5 -32.5t159.5 -69.5zM688 1376h-103l-229 363h68l211 -295h4l211 295h67z" />
<glyph unicode="&#x10d;" horiz-adv-x="911" d="M815 59q-57 -35 -127 -57t-143 -22q-100 0 -183 35.5t-143.5 100t-94.5 153.5t-34 196q0 106 33 196.5t92 157t141 103t179 36.5q84 0 155.5 -20t126.5 -57l-20 -76q-51 33 -118 54.5t-144 21.5q-80 0 -145.5 -31t-113 -86t-74 -131t-26.5 -164q0 -90 26.5 -166t75 -130 t116 -85t151.5 -31q68 0 133 22.5t117 55.5l20 -76v0zM518 1034h-103l-229 363h68l211 -295h4l211 295h67z" />
<glyph unicode="&#x10e;" horiz-adv-x="1251" d="M1155 649q0 -156 -47 -276.5t-136 -203.5t-217 -126t-290 -43h-297v1280h309q156 0 281 -46t213 -129t136 -200t48 -256zM1067 641q0 127 -41 230.5t-118 177t-187.5 113.5t-251.5 40h-215v-1124h215q131 0 240.5 32.5t189.5 102.5t124 176.5t44 251.5zM586 1376h-103 l-229 363h68l211 -295h4l211 295h67z" />
<glyph unicode="&#x10f;" horiz-adv-x="1341" d="M795 1380l84 27v-1407h-84v92q-43 -41 -117 -76.5t-166 -35.5q-90 0 -168 33.5t-134 96t-88 149.5t-32 196q0 113 34 204t94.5 155.5t142 99t180.5 34.5q70 0 138.5 -21.5t115.5 -49.5v503zM795 795q-45 35 -117 56t-143 21q-80 0 -145.5 -29.5t-113 -85t-74 -132 t-26.5 -170.5q0 -86 24.5 -159t68.5 -127t107.5 -85t141.5 -31t150.5 35t126.5 86v621zM1094 1333q0 29 23.5 55.5t60.5 26.5q47 0 81.5 -37t34.5 -100q0 -78 -55 -162t-150 -143l-38 35q86 63 118.5 118.5t32.5 110.5q0 41 -27.5 61.5t-80.5 34.5z" />
<glyph unicode="&#x110;" horiz-adv-x="1296" d="M684 680v-76h-389v-526h215q131 0 240.5 32.5t189.5 102.5t124 176.5t44 251.5q0 127 -41 230.5t-118 177t-187.5 113.5t-251.5 40h-215v-522h389zM33 604v76h176v600h309q156 0 281 -46t213 -129t136 -200t48 -256q0 -156 -47 -276.5t-136 -203.5t-217 -126t-290 -43 h-297v604h-176z" />
<glyph unicode="&#x111;" horiz-adv-x="1028" d="M795 1112h-297l6 57h291v211l84 27v-238h129l6 -57h-135v-1112h-84v92q-43 -41 -117 -76.5t-166 -35.5q-90 0 -168 33.5t-134 96t-88 149.5t-32 196q0 113 34 204t94.5 155.5t142 99t180.5 34.5q70 0 138.5 -21.5t115.5 -49.5v235zM795 795q-45 35 -117 56t-143 21 q-80 0 -145.5 -29.5t-113 -85t-74 -132t-26.5 -170.5q0 -86 24.5 -159t68.5 -127t107.5 -85t141.5 -31t150.5 35t126.5 86v621z" />
<glyph unicode="&#x112;" horiz-adv-x="1003" d="M168 0v1280h733v-78h-647v-524h541v-76h-541v-524h647v-78h-733zM305 1434l6 77h469l6 -77h-481z" />
<glyph unicode="&#x113;" horiz-adv-x="942" d="M176 469q0 -90 23.5 -165t68.5 -130t109.5 -86t144.5 -31t145.5 22.5t116.5 55.5l19 -76q-55 -35 -128 -57t-159 -22q-96 0 -175 35.5t-134 100t-86 153.5t-31 196q0 106 31 196.5t87 157t133 103t169 36.5q70 0 129 -22.5t103 -64.5t69 -101t25 -135q0 -35 -6.5 -76 t-14.5 -72l-639 -4v-14zM743 559q6 33 7 70q0 111 -64.5 181.5t-177.5 70.5q-131 0 -217 -89.5t-109 -232.5h561zM256 1092l6 77h469l6 -77h-481z" />
<glyph unicode="&#x114;" horiz-adv-x="1003" d="M168 0v1280h733v-78h-647v-524h541v-76h-541v-524h647v-78h-733zM825 1757q-14 -59 -34.5 -122.5t-53.5 -117t-80 -88t-112 -34.5q-66 0 -113 34.5t-80 88t-53.5 117t-34.5 122.5h59q45 -160 97.5 -227.5t124.5 -67.5t124 67.5t97 227.5h59v0z" />
<glyph unicode="&#x115;" horiz-adv-x="942" d="M176 469q0 -90 23.5 -165t68.5 -130t109.5 -86t144.5 -31t145.5 22.5t116.5 55.5l19 -76q-55 -35 -128 -57t-159 -22q-96 0 -175 35.5t-134 100t-86 153.5t-31 196q0 106 31 196.5t87 157t133 103t169 36.5q70 0 129 -22.5t103 -64.5t69 -101t25 -135q0 -35 -6.5 -76 t-14.5 -72l-639 -4v-14zM743 559q6 33 7 70q0 111 -64.5 181.5t-177.5 70.5q-131 0 -217 -89.5t-109 -232.5h561zM782 1415q-14 -59 -34.5 -122.5t-53.5 -117t-80 -88t-112 -34.5q-66 0 -113 34.5t-80 88t-53.5 117t-34.5 122.5h59q45 -160 97.5 -227.5t124.5 -67.5 t124 67.5t97 227.5h59v0z" />
<glyph unicode="&#x116;" horiz-adv-x="1003" d="M168 0v1280h733v-78h-647v-524h541v-76h-541v-524h647v-78h-733zM624 1569q0 -29 -19.5 -52.5t-51.5 -23.5q-33 0 -51.5 23.5t-18.5 52.5t18.5 50t51.5 21t52 -21t19 -50z" />
<glyph unicode="&#x117;" horiz-adv-x="942" d="M176 469q0 -90 23.5 -165t68.5 -130t109.5 -86t144.5 -31t145.5 22.5t116.5 55.5l19 -76q-55 -35 -128 -57t-159 -22q-96 0 -175 35.5t-134 100t-86 153.5t-31 196q0 106 31 196.5t87 157t133 103t169 36.5q70 0 129 -22.5t103 -64.5t69 -101t25 -135q0 -35 -6.5 -76 t-14.5 -72l-639 -4v-14zM743 559q6 33 7 70q0 111 -64.5 181.5t-177.5 70.5q-131 0 -217 -89.5t-109 -232.5h561zM588 1227q0 -29 -19.5 -52.5t-51.5 -23.5q-33 0 -51.5 23.5t-18.5 52.5t18.5 50t51.5 21t52 -21t19 -50z" />
<glyph unicode="&#x118;" horiz-adv-x="1003" d="M811 0q-139 -119 -139 -244q0 -51 27.5 -81.5t72.5 -30.5q27 0 54.5 11t47.5 28l27 -66q-23 -18 -58.5 -33.5t-78.5 -15.5q-72 0 -122 47t-50 127t46 145.5t105 112.5h-575v1280h733v-78h-647v-524h541v-76h-541v-524h647v-78h-90z" />
<glyph unicode="&#x119;" horiz-adv-x="942" d="M176 469q0 -90 23.5 -165t68.5 -130t109.5 -86t144.5 -31t145.5 22.5t116.5 55.5l19 -76q-27 -14 -66 -46.5t-75.5 -75.5t-63.5 -90.5t-27 -90.5q0 -51 28 -81.5t73 -30.5q27 0 54.5 11t47.5 28l27 -66q-23 -18 -58.5 -33.5t-78.5 -15.5q-72 0 -122 47t-50 127 q0 39 14 75t36.5 67.5t51.5 60t57 51.5q-29 -4 -66.5 -10t-68.5 -6q-96 0 -175 35.5t-134 100t-86 153.5t-31 196q0 106 31 196.5t87 157t133 103t169 36.5q70 0 129 -22.5t103 -64.5t69 -101t25 -135q0 -35 -6.5 -76t-14.5 -72l-639 -4v-14zM743 559q6 33 7 70 q0 111 -64.5 181.5t-177.5 70.5q-131 0 -217 -89.5t-109 -232.5h561z" />
<glyph unicode="&#x11a;" horiz-adv-x="1003" d="M168 0v1280h733v-78h-647v-524h541v-76h-541v-524h647v-78h-733zM590 1376h-103l-229 363h68l211 -295h4l211 295h67z" />
<glyph unicode="&#x11b;" horiz-adv-x="942" d="M176 469q0 -90 23.5 -165t68.5 -130t109.5 -86t144.5 -31t145.5 22.5t116.5 55.5l19 -76q-55 -35 -128 -57t-159 -22q-96 0 -175 35.5t-134 100t-86 153.5t-31 196q0 106 31 196.5t87 157t133 103t169 36.5q70 0 129 -22.5t103 -64.5t69 -101t25 -135q0 -35 -6.5 -76 t-14.5 -72l-639 -4v-14zM743 559q6 33 7 70q0 111 -64.5 181.5t-177.5 70.5q-131 0 -217 -89.5t-109 -232.5h561zM549 1034h-103l-229 363h68l211 -295h4l211 295h67z" />
<glyph unicode="&#x11c;" horiz-adv-x="1249" d="M1114 109q-88 -63 -196.5 -96t-225.5 -33q-137 0 -246.5 46t-186.5 131t-118 206.5t-41 273.5t44 274.5t124 208.5t188.5 133t237.5 47q125 0 223.5 -32.5t159.5 -69.5l-26 -74q-68 43 -163 71t-198 28q-104 0 -195.5 -38t-160 -113t-107.5 -184.5t-39 -250.5 q0 -135 36 -242.5t102.5 -182.5t160 -115t207.5 -40q100 0 185.5 26t150.5 67v393h-383v75h467v-509v0zM842 1397l-211 295h-4l-211 -295h-68l229 362h103l229 -362h-67z" />
<glyph unicode="&#x11d;" horiz-adv-x="942" d="M178 608q0 -55 17.5 -104t51.5 -87t83 -59.5t112 -21.5q123 0 195 79t72 195q0 117 -68 198t-197 81q-127 0 -196.5 -80t-69.5 -201zM317 -8q-98 -25 -159.5 -87.5t-61.5 -131.5q0 -92 88 -151.5t254 -59.5q80 0 152 20.5t125 54t84.5 79.5t31.5 100q0 92 -75.5 132 t-214.5 40h-112t-112 4zM225 12q-61 16 -98 51t-37 89q0 59 47 103t105 71q-59 41 -102.5 113.5t-43.5 168.5q0 80 28 145.5t76 110.5t112.5 69.5t138.5 24.5q72 0 119.5 -16t82.5 -39l279 17l6 -86l-233 10q41 -41 64.5 -105.5t23.5 -124.5q0 -80 -28 -144t-76 -108.5 t-112.5 -69t-140.5 -24.5q-41 0 -79 9.5t-66 21.5q-45 -23 -81 -53.5t-36 -75.5q0 -47 46 -75.5t165 -28.5h156q199 0 284.5 -67t85.5 -173q0 -78 -42 -139.5t-109.5 -104.5t-153.5 -66.5t-176 -23.5q-96 0 -173 20.5t-130 57.5t-81 86t-28 108q0 41 16.5 79t44 71 t65.5 58.5t81 39.5zM650 1055l-211 295h-4l-211 -295h-68l229 362h103l229 -362h-67z" />
<glyph unicode="&#x11e;" horiz-adv-x="1249" d="M1114 109q-88 -63 -196.5 -96t-225.5 -33q-137 0 -246.5 46t-186.5 131t-118 206.5t-41 273.5t44 274.5t124 208.5t188.5 133t237.5 47q125 0 223.5 -32.5t159.5 -69.5l-26 -74q-68 43 -163 71t-198 28q-104 0 -195.5 -38t-160 -113t-107.5 -184.5t-39 -250.5 q0 -135 36 -242.5t102.5 -182.5t160 -115t207.5 -40q100 0 185.5 26t150.5 67v393h-383v75h467v-509v0zM950 1757q-14 -59 -34.5 -122.5t-53.5 -117t-80 -88t-112 -34.5q-66 0 -113 34.5t-80 88t-53.5 117t-34.5 122.5h59q45 -160 97.5 -227.5t124.5 -67.5t124 67.5 t97 227.5h59v0z" />
<glyph unicode="&#x11f;" horiz-adv-x="942" d="M178 608q0 -55 17.5 -104t51.5 -87t83 -59.5t112 -21.5q123 0 195 79t72 195q0 117 -68 198t-197 81q-127 0 -196.5 -80t-69.5 -201zM317 -8q-98 -25 -159.5 -87.5t-61.5 -131.5q0 -92 88 -151.5t254 -59.5q80 0 152 20.5t125 54t84.5 79.5t31.5 100q0 92 -75.5 132 t-214.5 40h-112t-112 4zM225 12q-61 16 -98 51t-37 89q0 59 47 103t105 71q-59 41 -102.5 113.5t-43.5 168.5q0 80 28 145.5t76 110.5t112.5 69.5t138.5 24.5q72 0 119.5 -16t82.5 -39l279 17l6 -86l-233 10q41 -41 64.5 -105.5t23.5 -124.5q0 -80 -28 -144t-76 -108.5 t-112.5 -69t-140.5 -24.5q-41 0 -79 9.5t-66 21.5q-45 -23 -81 -53.5t-36 -75.5q0 -47 46 -75.5t165 -28.5h156q199 0 284.5 -67t85.5 -173q0 -78 -42 -139.5t-109.5 -104.5t-153.5 -66.5t-176 -23.5q-96 0 -173 20.5t-130 57.5t-81 86t-28 108q0 41 16.5 79t44 71 t65.5 58.5t81 39.5zM745 1415q-14 -59 -34.5 -122.5t-53.5 -117t-80 -88t-112 -34.5q-66 0 -113 34.5t-80 88t-53.5 117t-34.5 122.5h59q45 -160 97.5 -227.5t124.5 -67.5t124 67.5t97 227.5h59v0z" />
<glyph unicode="&#x120;" horiz-adv-x="1249" d="M1114 109q-88 -63 -196.5 -96t-225.5 -33q-137 0 -246.5 46t-186.5 131t-118 206.5t-41 273.5t44 274.5t124 208.5t188.5 133t237.5 47q125 0 223.5 -32.5t159.5 -69.5l-26 -74q-68 43 -163 71t-198 28q-104 0 -195.5 -38t-160 -113t-107.5 -184.5t-39 -250.5 q0 -135 36 -242.5t102.5 -182.5t160 -115t207.5 -40q100 0 185.5 26t150.5 67v393h-383v75h467v-509v0zM741 1569q0 -29 -19.5 -52.5t-51.5 -23.5q-33 0 -51.5 23.5t-18.5 52.5t18.5 50t51.5 21t52 -21t19 -50z" />
<glyph unicode="&#x121;" horiz-adv-x="942" d="M178 608q0 -55 17.5 -104t51.5 -87t83 -59.5t112 -21.5q123 0 195 79t72 195q0 117 -68 198t-197 81q-127 0 -196.5 -80t-69.5 -201zM317 -8q-98 -25 -159.5 -87.5t-61.5 -131.5q0 -92 88 -151.5t254 -59.5q80 0 152 20.5t125 54t84.5 79.5t31.5 100q0 92 -75.5 132 t-214.5 40h-112t-112 4zM225 12q-61 16 -98 51t-37 89q0 59 47 103t105 71q-59 41 -102.5 113.5t-43.5 168.5q0 80 28 145.5t76 110.5t112.5 69.5t138.5 24.5q72 0 119.5 -16t82.5 -39l279 17l6 -86l-233 10q41 -41 64.5 -105.5t23.5 -124.5q0 -80 -28 -144t-76 -108.5 t-112.5 -69t-140.5 -24.5q-41 0 -79 9.5t-66 21.5q-45 -23 -81 -53.5t-36 -75.5q0 -47 46 -75.5t165 -28.5h156q199 0 284.5 -67t85.5 -173q0 -78 -42 -139.5t-109.5 -104.5t-153.5 -66.5t-176 -23.5q-96 0 -173 20.5t-130 57.5t-81 86t-28 108q0 41 16.5 79t44 71 t65.5 58.5t81 39.5zM526 1227q0 -29 -19.5 -52.5t-51.5 -23.5q-33 0 -51.5 23.5t-18.5 52.5t18.5 50t51.5 21t52 -21t19 -50z" />
<glyph unicode="&#x122;" horiz-adv-x="1249" d="M1114 109q-88 -63 -196.5 -96t-225.5 -33q-137 0 -246.5 46t-186.5 131t-118 206.5t-41 273.5t44 274.5t124 208.5t188.5 133t237.5 47q125 0 223.5 -32.5t159.5 -69.5l-26 -74q-68 43 -163 71t-198 28q-104 0 -195.5 -38t-160 -113t-107.5 -184.5t-39 -250.5 q0 -135 36 -242.5t102.5 -182.5t160 -115t207.5 -40q100 0 185.5 26t150.5 67v393h-383v75h467v-509v0zM592 -184q0 31 22.5 50t59.5 19q41 0 69.5 -32.5t28.5 -79.5q0 -63 -42 -130t-112 -116l-35 29q61 51 83 92t22 80t-24.5 58.5t-71.5 29.5z" />
<glyph unicode="&#x123;" horiz-adv-x="942" d="M178 608q0 -55 17.5 -104t51.5 -87t83 -59.5t112 -21.5q123 0 195 79t72 195q0 117 -68 198t-197 81q-127 0 -196.5 -80t-69.5 -201zM317 -8q-98 -25 -159.5 -87.5t-61.5 -131.5q0 -92 88 -151.5t254 -59.5q80 0 152 20.5t125 54t84.5 79.5t31.5 100q0 92 -75.5 132 t-214.5 40h-112t-112 4zM225 12q-61 16 -98 51t-37 89q0 59 47 103t105 71q-59 41 -102.5 113.5t-43.5 168.5q0 80 28 145.5t76 110.5t112.5 69.5t138.5 24.5q72 0 119.5 -16t82.5 -39l279 17l6 -86l-233 10q41 -41 64.5 -105.5t23.5 -124.5q0 -80 -28 -144t-76 -108.5 t-112.5 -69t-140.5 -24.5q-41 0 -79 9.5t-66 21.5q-45 -23 -81 -53.5t-36 -75.5q0 -47 46 -75.5t165 -28.5h156q199 0 284.5 -67t85.5 -173q0 -78 -42 -139.5t-109.5 -104.5t-153.5 -66.5t-176 -23.5q-96 0 -173 20.5t-130 57.5t-81 86t-28 108q0 41 16.5 79t44 71 t65.5 58.5t81 39.5zM516.02 1123.99q0 -30.998 -22.498 -49.9961q-22.499 -18.999 -59.4971 -18.999q-40.9971 0 -69.4951 32.498t-28.498 79.4951q0 62.9961 41.9971 129.992t111.993 115.992l34.998 -28.998q-60.9961 -50.9971 -82.9951 -91.9941t-21.999 -79.9951 t24.499 -58.4961q24.498 -19.499 71.4951 -29.499z" />
<glyph unicode="&#x124;" horiz-adv-x="1306" d="M1053 0v604h-799v-604h-86v1280h86v-600h799v600h86v-1280h-86zM867 1397l-211 295h-4l-211 -295h-68l229 362h103l229 -362h-67z" />
<glyph unicode="&#x125;" horiz-adv-x="1007" d="M780 0v623q0 125 -53 191.5t-168 66.5q-80 0 -163 -42t-160 -120v-719h-84v1380l84 27v-610q82 84 174 122.5t159 38.5q139 0 217 -80.5t78 -236.5v-641h-84zM414 1397l-211 295h-4l-211 -295h-68l229 362h103l229 -362h-67z" />
<glyph unicode="&#x126;" horiz-adv-x="1306" d="M1053 0v604h-799v-604h-86v934h-174l6 65h168v281h86v-281h799v281h86v-281h166l6 -65h-172v-934h-86zM1053 680v254h-799v-254h799z" />
<glyph unicode="&#x127;" horiz-adv-x="1007" d="M780 0v623q0 125 -53 191.5t-168 66.5q-80 0 -163 -42t-160 -120v-719h-84v1112h-136l7 57h129v211l84 27v-238h290l6 -57h-296v-315q82 84 174 122.5t159 38.5q139 0 217 -80.5t78 -236.5v-641h-84z" />
<glyph unicode="&#x12a;" horiz-adv-x="425" d="M170 0v1280h86v-1280h-86zM-0.492188 1433.3l5.28516 66.8672h413.123l5.28516 -66.8672h-423.693z" />
<glyph unicode="&#x12b;" horiz-adv-x="395" d="M156 0v932l84 26v-958h-84zM-0.279297 1091.85l4.97852 62.8154h389.164l4.97852 -62.8154h-399.121z" />
<glyph unicode="&#x12c;" horiz-adv-x="425" d="M170 0v1280h86v-1280h-86zM493 1757q-14 -59 -34.5 -122.5t-53.5 -117t-80 -88t-112 -34.5q-66 0 -113 34.5t-80 88t-53.5 117t-34.5 122.5h59q45 -160 97.5 -227.5t124.5 -67.5t124 67.5t97 227.5h59v0z" />
<glyph unicode="&#x12d;" horiz-adv-x="395" d="M156 0v932l84 26v-958h-84zM477 1415q-14 -59 -34.5 -122.5t-53.5 -117t-80 -88t-112 -34.5q-66 0 -113 34.5t-80 88t-53.5 117t-34.5 122.5h59q45 -160 97.5 -227.5t124.5 -67.5t124 67.5t97 227.5h59v0z" />
<glyph unicode="&#x12e;" horiz-adv-x="425" d="M209 -432q-72 0 -122 47t-50 127t47 145.5t106 112.5h-20v1280h86v-1280q-72 -61 -105.5 -119.5t-33.5 -124.5q0 -51 27.5 -81.5t72.5 -30.5q27 0 54.5 11t47.5 28l27 -66q-23 -18 -58.5 -33.5t-78.5 -15.5z" />
<glyph unicode="&#x12f;" horiz-adv-x="395" d="M193 -432q-72 0 -122.5 47t-50.5 127t45.5 145.5t104.5 112.5h-14v932l84 26v-958q-72 -61 -106 -119.5t-34 -124.5q0 -51 28 -81.5t73 -30.5q27 0 54.5 11t47.5 28l27 -66q-23 -18 -58.5 -33.5t-78.5 -15.5zM258 1227q0 -25 -16.5 -45.5t-44.5 -20.5q-29 0 -44.5 20.5 t-15.5 45.5q0 23 15.5 42t44.5 19t45 -19t16 -42z" />
<glyph unicode="&#x130;" horiz-adv-x="425" d="M170 0v1280h86v-1280h-86zM282 1569q0 -29 -19.5 -52.5t-51.5 -23.5q-33 0 -51.5 23.5t-18.5 52.5t18.5 50t51.5 21t52 -21t19 -50z" />
<glyph unicode="&#x131;" horiz-adv-x="395" d="M156 0v932l84 26v-958h-84z" />
<glyph unicode="&#x134;" horiz-adv-x="837" d="M700 397q0 -195 -92 -306t-291 -111q-88 0 -164.5 25.5t-123.5 53.5l18 84q63 -39 133 -63.5t142 -24.5q143 0 217.5 88t74.5 256v881h86v-883v0zM865 1397l-211 295h-4l-211 -295h-68l229 362h103l229 -362h-67z" />
<glyph unicode="&#x135;" horiz-adv-x="395" d="M-45 -455q59 33 98 68t61.5 78t32 98t9.5 129v1014l84 26v-1052q0 -160 -52.5 -258.5t-173.5 -161.5zM410 1055l-211 295h-4l-211 -295h-68l229 362h103l229 -362h-67z" />
<glyph unicode="&#x136;" horiz-adv-x="1075" d="M256 662l643 618h115l-674 -637l686 -643h-115l-655 616h-2v-616h-86v1280h86v-618h2zM471 -184q0 31 22.5 50t59.5 19q41 0 69.5 -32.5t28.5 -79.5q0 -63 -42 -130t-112 -116l-35 29q61 51 83 92t22 80t-24.5 58.5t-71.5 29.5z" />
<glyph unicode="&#x137;" horiz-adv-x="843" d="M236 473v-473h-84v1380l84 27v-905h4l454 436h109l-473 -451l475 -487h-111l-454 473h-4zM373 -184q0 31 22.5 50t59.5 19q41 0 69.5 -32.5t28.5 -79.5q0 -63 -42 -130t-112 -116l-35 29q61 51 83 92t22 80t-24.5 58.5t-71.5 29.5z" />
<glyph unicode="&#x139;" horiz-adv-x="944" d="M168 0v1280h86v-1200h647v-80h-733zM231 1397h-63l268 362h119z" />
<glyph unicode="&#x13a;" horiz-adv-x="385" d="M152 0v1380l84 27v-1407h-84zM219 1444h-63l268 362h119z" />
<glyph unicode="&#x13b;" horiz-adv-x="944" d="M168 0v1280h86v-1200h647v-80h-733zM455 -184q0 31 22.5 50t59.5 19q41 0 69.5 -32.5t28.5 -79.5q0 -63 -42 -130t-112 -116l-35 29q61 51 83 92t22 80t-24.5 58.5t-71.5 29.5z" />
<glyph unicode="&#x13c;" horiz-adv-x="385" d="M152 0v1380l84 27v-1407h-84zM107 -184q0 31 22.5 50t59.5 19q41 0 69.5 -32.5t28.5 -79.5q0 -63 -42 -130t-112 -116l-35 29q61 51 83 92t22 80t-24.5 58.5t-71.5 29.5z" />
<glyph unicode="&#x13d;" horiz-adv-x="1101" d="M168 0v1280h86v-1200h647v-80h-733zM875 1224q0 29 23.5 55.5t60.5 26.5q47 0 81.5 -37t34.5 -100q0 -78 -55 -162t-150 -143l-38 35q86 63 118.5 118.5t32.5 110.5q0 41 -27.5 61.5t-80.5 34.5z" />
<glyph unicode="&#x13e;" horiz-adv-x="698" d="M152 0v1380l84 27v-1407h-84zM451 1323q0 29 23.5 55.5t60.5 26.5q47 0 81.5 -37t34.5 -100q0 -78 -55 -162t-150 -143l-38 35q86 63 118.5 118.5t32.5 110.5q0 41 -27.5 61.5t-80.5 34.5z" />
<glyph unicode="&#x13f;" horiz-adv-x="1060" d="M168 0v1280h86v-1200h647v-80h-733zM1118 641q0 -31 -20.5 -54.5t-52.5 -23.5q-33 0 -52.5 23.5t-19.5 54.5q0 29 19.5 51.5t52.5 22.5t53 -22.5t20 -51.5z" />
<glyph unicode="&#x140;" horiz-adv-x="614" d="M152 0v1380l84 27v-1407h-84zM571 641q0 -31 -20.5 -54.5t-52.5 -23.5q-33 0 -52.5 23.5t-19.5 54.5q0 29 19.5 51.5t52.5 22.5t53 -22.5t20 -51.5z" />
<glyph unicode="&#x141;" horiz-adv-x="985" d="M295 80h627v-80h-713v530l-176 -49v76l176 49v674h86v-651l307 84v-76l-307 -84v-473z" />
<glyph unicode="&#x142;" horiz-adv-x="466" d="M276 0h-83v530l-177 -49v76l177 47v776l83 27v-780l177 49v-76l-177 -47v-553z" />
<glyph unicode="&#x143;" horiz-adv-x="1292" d="M1042 1280h82v-1292h-94l-780 1173v-1161h-82v1280h100l774 -1163v1163zM579 1397h-63l268 362h119z" />
<glyph unicode="&#x144;" horiz-adv-x="1007" d="M780 0v623q0 125 -53 191.5t-168 66.5q-80 0 -163 -42t-160 -120v-719h-84v932l84 26v-163q82 84 174 123.5t159 39.5q139 0 217 -80.5t78 -236.5v-641h-84zM448 1055h-63l268 362h119z" />
<glyph unicode="&#x145;" horiz-adv-x="1292" d="M1042 1280h82v-1292h-94l-780 1173v-1161h-82v1280h100l774 -1163v1163zM553 -184q0 31 22.5 50t59.5 19q41 0 69.5 -32.5t28.5 -79.5q0 -63 -42 -130t-112 -116l-35 29q61 51 83 92t22 80t-24.5 58.5t-71.5 29.5z" />
<glyph unicode="&#x146;" horiz-adv-x="1007" d="M780 0v623q0 125 -53 191.5t-168 66.5q-80 0 -163 -42t-160 -120v-719h-84v932l84 26v-163q82 84 174 123.5t159 39.5q139 0 217 -80.5t78 -236.5v-641h-84zM418 -184q0 31 22.5 50t59.5 19q41 0 69.5 -32.5t28.5 -79.5q0 -63 -42 -130t-112 -116l-35 29q61 51 83 92 t22 80t-24.5 58.5t-71.5 29.5z" />
<glyph unicode="&#x147;" horiz-adv-x="1292" d="M1042 1280h82v-1292h-94l-780 1173v-1161h-82v1280h100l774 -1163v1163zM697 1376h-103l-229 363h68l211 -295h4l211 295h67z" />
<glyph unicode="&#x148;" horiz-adv-x="1007" d="M780 0v623q0 125 -53 191.5t-168 66.5q-80 0 -163 -42t-160 -120v-719h-84v932l84 26v-163q82 84 174 123.5t159 39.5q139 0 217 -80.5t78 -236.5v-641h-84zM588 1034h-103l-229 363h68l211 -295h4l211 295h67z" />
<glyph unicode="&#x14c;" horiz-adv-x="1429" d="M1329 643q0 -150 -46 -271.5t-129 -208.5t-195.5 -135t-245.5 -48q-127 0 -239 49t-194.5 136t-131 208t-48.5 266q0 150 46.5 271.5t129 208.5t195.5 134t246 47q127 0 238.5 -48t194.5 -136t131 -209t48 -264zM1241 639q0 129 -41 236.5t-111.5 185.5t-168 121 t-209.5 43q-113 0 -209 -43t-166 -120t-109 -183.5t-39 -235.5t41 -236.5t112 -185.5t168 -122t210 -44t209 43t165.5 121t108.5 184.5t39 235.5zM457 1434l6 77h469l6 -77h-481z" />
<glyph unicode="&#x14d;" horiz-adv-x="1093" d="M1004 473q0 -111 -36 -202t-99.5 -155.5t-147.5 -100t-178 -35.5q-96 0 -178 33.5t-143.5 97t-96.5 153.5t-35 201t36 202t99.5 155.5t146.5 100t179 35.5q94 0 177 -33.5t144.5 -97t96.5 -153.5t35 -201zM920 469q0 96 -29 173t-78 130t-117.5 82t-148.5 29t-148.5 -31 t-118 -86t-78 -131t-28.5 -166q0 -96 27.5 -173t78 -130t119 -82t148.5 -29t148.5 31t117.5 86t78 131t29 166zM289 1092l6 77h469l6 -77h-481z" />
<glyph unicode="&#x14e;" horiz-adv-x="1429" d="M1329 643q0 -150 -46 -271.5t-129 -208.5t-195.5 -135t-245.5 -48q-127 0 -239 49t-194.5 136t-131 208t-48.5 266q0 150 46.5 271.5t129 208.5t195.5 134t246 47q127 0 238.5 -48t194.5 -136t131 -209t48 -264zM1241 639q0 129 -41 236.5t-111.5 185.5t-168 121 t-209.5 43q-113 0 -209 -43t-166 -120t-109 -183.5t-39 -235.5t41 -236.5t112 -185.5t168 -122t210 -44t209 43t165.5 121t108.5 184.5t39 235.5zM981 1757q-14 -59 -34.5 -122.5t-53.5 -117t-80 -88t-112 -34.5q-66 0 -113 34.5t-80 88t-53.5 117t-34.5 122.5h59 q45 -160 97.5 -227.5t124.5 -67.5t124 67.5t97 227.5h59v0z" />
<glyph unicode="&#x14f;" horiz-adv-x="1093" d="M1004 473q0 -111 -36 -202t-99.5 -155.5t-147.5 -100t-178 -35.5q-96 0 -178 33.5t-143.5 97t-96.5 153.5t-35 201t36 202t99.5 155.5t146.5 100t179 35.5q94 0 177 -33.5t144.5 -97t96.5 -153.5t35 -201zM920 469q0 96 -29 173t-78 130t-117.5 82t-148.5 29t-148.5 -31 t-118 -86t-78 -131t-28.5 -166q0 -96 27.5 -173t78 -130t119 -82t148.5 -29t148.5 31t117.5 86t78 131t29 166zM823 1415q-14 -59 -34.5 -122.5t-53.5 -117t-80 -88t-112 -34.5q-66 0 -113 34.5t-80 88t-53.5 117t-34.5 122.5h59q45 -160 97.5 -227.5t124.5 -67.5t124 67.5 t97 227.5h59v0z" />
<glyph unicode="&#x150;" horiz-adv-x="1429" d="M1329 643q0 -150 -46 -271.5t-129 -208.5t-195.5 -135t-245.5 -48q-127 0 -239 49t-194.5 136t-131 208t-48.5 266q0 150 46.5 271.5t129 208.5t195.5 134t246 47q127 0 238.5 -48t194.5 -136t131 -209t48 -264zM1241 639q0 129 -41 236.5t-111.5 185.5t-168 121 t-209.5 43q-113 0 -209 -43t-166 -120t-109 -183.5t-39 -235.5t41 -236.5t112 -185.5t168 -122t210 -44t209 43t165.5 121t108.5 184.5t39 235.5zM844 1376h-66l242 363h100zM541 1376h-66l242 363h100z" />
<glyph unicode="&#x151;" horiz-adv-x="1093" d="M1004 473q0 -111 -36 -202t-99.5 -155.5t-147.5 -100t-178 -35.5q-96 0 -178 33.5t-143.5 97t-96.5 153.5t-35 201t36 202t99.5 155.5t146.5 100t179 35.5q94 0 177 -33.5t144.5 -97t96.5 -153.5t35 -201zM920 469q0 96 -29 173t-78 130t-117.5 82t-148.5 29t-148.5 -31 t-118 -86t-78 -131t-28.5 -166q0 -96 27.5 -173t78 -130t119 -82t148.5 -29t148.5 31t117.5 86t78 131t29 166zM674 1034h-66l242 363h100zM371 1034h-66l242 363h100z" />
<glyph unicode="&#x152;" horiz-adv-x="1837" d="M1735 1202h-648v-522h541v-78h-541v-524h648v-78h-957q-156 0 -280.5 46t-212.5 129t-136.5 200t-48.5 256q0 156 47.5 276.5t136.5 203.5t217 126t290 43h944v-78zM188 639q0 -127 41 -230.5t118 -177t187.5 -113.5t251.5 -40h215v1124h-215q-131 0 -240.5 -33.5 t-189.5 -102.5t-124 -175.5t-44 -251.5z" />
<glyph unicode="&#x153;" horiz-adv-x="1769" d="M1571 559q6 33 6 70q0 111 -64.5 181.5t-177.5 70.5q-131 0 -217 -89.5t-108 -232.5h561zM174 469q0 -96 27.5 -173t78 -130t119 -82t148.5 -29t148.5 31t117.5 86t78 131t29 166q0 96 -29 173t-78 130t-117.5 82t-148.5 29t-148.5 -31t-118 -86t-78 -131t-28.5 -166z M956 254q-53 -129 -163.5 -201.5t-249.5 -72.5q-96 0 -178 33.5t-143.5 97t-96.5 153.5t-35 201t36 202t99.5 155.5t146.5 100t179 35.5q141 0 248.5 -71.5t161.5 -200.5q47 125 145 198.5t231 73.5q70 0 129.5 -22.5t103.5 -64.5t68.5 -101t24.5 -135q0 -35 -6 -76t-15 -72 l-638 -4v-14q0 -90 23.5 -165t68.5 -130t109.5 -86t144.5 -31t145.5 22.5t116.5 55.5l18 -76q-57 -35 -128.5 -57t-158.5 -22q-141 0 -240.5 73.5t-146.5 200.5z" />
<glyph unicode="&#x154;" horiz-adv-x="1050" d="M254 0h-86v1280h303q240 0 349.5 -99.5t109.5 -262.5q0 -72 -25.5 -130.5t-68.5 -101.5t-98.5 -72.5t-114.5 -46.5l364 -567h-96l-346 551l-291 -19v-532zM502 618q63 2 124.5 24t109.5 59.5t77 92t29 121.5q0 137 -94.5 212t-286.5 75h-207v-592zM407 1397h-63l268 362 h119z" />
<glyph unicode="&#x155;" horiz-adv-x="675" d="M236 0h-84v932l84 26v-233q41 104 116.5 168.5t171.5 64.5q45 0 85 -11t69 -27l-25 -76q-23 14 -57.5 25.5t-79.5 11.5q-80 0 -150.5 -65.5t-129.5 -225.5v-590zM342 1055h-63l268 362h119z" />
<glyph unicode="&#x156;" horiz-adv-x="1050" d="M254 0h-86v1280h303q240 0 349.5 -99.5t109.5 -262.5q0 -72 -25.5 -130.5t-68.5 -101.5t-98.5 -72.5t-114.5 -46.5l364 -567h-96l-346 551l-291 -19v-532zM502 618q63 2 124.5 24t109.5 59.5t77 92t29 121.5q0 137 -94.5 212t-286.5 75h-207v-592zM467 -184q0 31 22.5 50 t59.5 19q41 0 69.5 -32.5t28.5 -79.5q0 -63 -42 -130t-112 -116l-35 29q61 51 83 92t22 80t-24.5 58.5t-71.5 29.5z" />
<glyph unicode="&#x157;" horiz-adv-x="675" d="M236 0h-84v932l84 26v-233q41 104 116.5 168.5t171.5 64.5q45 0 85 -11t69 -27l-25 -76q-23 14 -57.5 25.5t-79.5 11.5q-80 0 -150.5 -65.5t-129.5 -225.5v-590zM109 -184q0 31 22.5 50t59.5 19q41 0 69.5 -32.5t28.5 -79.5q0 -63 -42 -130t-112 -116l-35 29q61 51 83 92 t22 80t-24.5 58.5t-71.5 29.5z" />
<glyph unicode="&#x158;" horiz-adv-x="1050" d="M254 0h-86v1280h303q240 0 349.5 -99.5t109.5 -262.5q0 -72 -25.5 -130.5t-68.5 -101.5t-98.5 -72.5t-114.5 -46.5l364 -567h-96l-346 551l-291 -19v-532zM502 618q63 2 124.5 24t109.5 59.5t77 92t29 121.5q0 137 -94.5 212t-286.5 75h-207v-592zM531 1376h-103 l-229 363h68l211 -295h4l211 295h67z" />
<glyph unicode="&#x159;" horiz-adv-x="675" d="M236 0h-84v932l84 26v-233q41 104 116.5 168.5t171.5 64.5q45 0 85 -11t69 -27l-25 -76q-23 14 -57.5 25.5t-79.5 11.5q-80 0 -150.5 -65.5t-129.5 -225.5v-590zM447 1034h-103l-229 363h68l211 -295h4l211 295h67z" />
<glyph unicode="&#x15a;" horiz-adv-x="964" d="M471 55q74 0 135.5 21.5t104.5 58.5t66.5 85t23.5 102q0 63 -26.5 110t-73 82t-109 60.5t-133.5 50.5q-66 23 -130.5 50t-115.5 66t-82 94.5t-31 133.5q0 70 30 131t82 105t123 69.5t154 25.5q111 0 203 -29.5t164 -76.5l-33 -76q-72 49 -158.5 78t-175.5 29 q-76 0 -133 -20.5t-96 -55.5t-58.5 -80t-19.5 -94q0 -59 25.5 -101.5t70 -74t105.5 -57t133 -50.5q68 -23 133.5 -51.5t116.5 -70.5t83 -100t32 -140q0 -74 -31 -138.5t-85 -111.5t-130 -73.5t-168 -26.5q-117 0 -214 30.5t-177 83.5l33 74q72 -49 164 -81t198 -32z M430 1397h-63l268 362h119z" />
<glyph unicode="&#x15b;" horiz-adv-x="761" d="M674 244q0 -61 -25.5 -110.5t-68.5 -83.5t-100.5 -52t-123.5 -18q-80 0 -154.5 22.5t-129.5 56.5l26 78q59 -39 125 -61.5t137 -22.5q45 0 87 11.5t76 35t54.5 57t20.5 79.5q0 51 -21.5 83.5t-56.5 56t-80 39t-92 31.5t-94 37t-85 50.5t-61.5 70.5t-23.5 101 q0 63 23.5 110t63.5 79t93 48t115 16q74 0 142.5 -19t123.5 -48l-29 -76q-59 33 -119.5 52.5t-125.5 19.5q-96 0 -153.5 -47t-57.5 -125q0 -47 21.5 -78t55 -53.5t77.5 -39t92 -30.5q49 -16 96 -35.5t86 -50.5t62.5 -76t23.5 -108zM317 1055h-63l268 362h119z" />
<glyph unicode="&#x15c;" horiz-adv-x="964" d="M471 55q74 0 135.5 21.5t104.5 58.5t66.5 85t23.5 102q0 63 -26.5 110t-73 82t-109 60.5t-133.5 50.5q-66 23 -130.5 50t-115.5 66t-82 94.5t-31 133.5q0 70 30 131t82 105t123 69.5t154 25.5q111 0 203 -29.5t164 -76.5l-33 -76q-72 49 -158.5 78t-175.5 29 q-76 0 -133 -20.5t-96 -55.5t-58.5 -80t-19.5 -94q0 -59 25.5 -101.5t70 -74t105.5 -57t133 -50.5q68 -23 133.5 -51.5t116.5 -70.5t83 -100t32 -140q0 -74 -31 -138.5t-85 -111.5t-130 -73.5t-168 -26.5q-117 0 -214 30.5t-177 83.5l33 74q72 -49 164 -81t198 -32z M678 1397l-211 295h-4l-211 -295h-68l229 362h103l229 -362h-67z" />
<glyph unicode="&#x15d;" horiz-adv-x="761" d="M674 244q0 -61 -25.5 -110.5t-68.5 -83.5t-100.5 -52t-123.5 -18q-80 0 -154.5 22.5t-129.5 56.5l26 78q59 -39 125 -61.5t137 -22.5q45 0 87 11.5t76 35t54.5 57t20.5 79.5q0 51 -21.5 83.5t-56.5 56t-80 39t-92 31.5t-94 37t-85 50.5t-61.5 70.5t-23.5 101 q0 63 23.5 110t63.5 79t93 48t115 16q74 0 142.5 -19t123.5 -48l-29 -76q-59 33 -119.5 52.5t-125.5 19.5q-96 0 -153.5 -47t-57.5 -125q0 -47 21.5 -78t55 -53.5t77.5 -39t92 -30.5q49 -16 96 -35.5t86 -50.5t62.5 -76t23.5 -108zM578 1055l-211 295h-4l-211 -295h-68 l229 362h103l229 -362h-67z" />
<glyph unicode="&#x15e;" horiz-adv-x="964" d="M453 -137q49 4 95 -4.5t80 -30t54 -55t20 -82.5q0 -80 -81.5 -144.5t-235.5 -74.5l-8 61q123 8 187.5 47t64.5 105q0 84 -84 106.5t-207 -4.5l-6 33l162 160h-27q-117 0 -214 30.5t-177 83.5l33 74q72 -49 164 -81t198 -32q74 0 135.5 21.5t104.5 58.5t66.5 85t23.5 102 q0 63 -26.5 110t-73 82t-109 60.5t-133.5 50.5q-66 23 -130.5 50t-115.5 66t-82 94.5t-31 133.5q0 70 30 131t82 105t123 69.5t154 25.5q111 0 203 -29.5t164 -76.5l-33 -76q-72 49 -158.5 78t-175.5 29q-76 0 -133 -20.5t-96 -55.5t-58.5 -80t-19.5 -94q0 -59 25.5 -101.5 t70 -74t105.5 -57t133 -50.5q68 -23 133.5 -51.5t116.5 -70.5t83 -100t32 -140q0 -123 -80 -215t-215 -121l-133 -131v0z" />
<glyph unicode="&#x15f;" horiz-adv-x="761" d="M279 -137q49 4 95 -4.5t79.5 -30t54 -55t20.5 -82.5q0 -80 -81.5 -144.5t-235.5 -74.5l-8 61q123 8 187.5 47t64.5 105q0 84 -84 106.5t-207 -4.5l-6 33l161 162q-72 4 -135 24.5t-112 52.5l26 78q59 -39 125 -61.5t137 -22.5q45 0 87 11.5t76 35t54.5 57t20.5 79.5 q0 51 -21.5 83.5t-56.5 56t-80 39t-92 31.5t-94 37t-85 50.5t-61.5 70.5t-23.5 101q0 63 23.5 110t63.5 79t93 48t115 16q74 0 142.5 -19t123.5 -48l-29 -76q-59 33 -119.5 52.5t-125.5 19.5q-96 0 -153.5 -47t-57.5 -125q0 -47 21.5 -78t55 -53.5t77.5 -39t92 -30.5 q49 -16 96 -35.5t86 -50.5t62.5 -76t23.5 -108q0 -55 -20.5 -101.5t-57.5 -79t-87 -53t-108 -26.5l-122 -121v0z" />
<glyph unicode="&#x160;" horiz-adv-x="964" d="M471 55q74 0 135.5 21.5t104.5 58.5t66.5 85t23.5 102q0 63 -26.5 110t-73 82t-109 60.5t-133.5 50.5q-66 23 -130.5 50t-115.5 66t-82 94.5t-31 133.5q0 70 30 131t82 105t123 69.5t154 25.5q111 0 203 -29.5t164 -76.5l-33 -76q-72 49 -158.5 78t-175.5 29 q-76 0 -133 -20.5t-96 -55.5t-58.5 -80t-19.5 -94q0 -59 25.5 -101.5t70 -74t105.5 -57t133 -50.5q68 -23 133.5 -51.5t116.5 -70.5t83 -100t32 -140q0 -74 -31 -138.5t-85 -111.5t-130 -73.5t-168 -26.5q-117 0 -214 30.5t-177 83.5l33 74q72 -49 164 -81t198 -32z M532 1376h-102l-229 363h67l211 -295h4l211 295h68z" />
<glyph unicode="&#x161;" horiz-adv-x="761" d="M674 244q0 -61 -25.5 -110.5t-68.5 -83.5t-100.5 -52t-123.5 -18q-80 0 -154.5 22.5t-129.5 56.5l26 78q59 -39 125 -61.5t137 -22.5q45 0 87 11.5t76 35t54.5 57t20.5 79.5q0 51 -21.5 83.5t-56.5 56t-80 39t-92 31.5t-94 37t-85 50.5t-61.5 70.5t-23.5 101 q0 63 23.5 110t63.5 79t93 48t115 16q74 0 142.5 -19t123.5 -48l-29 -76q-59 33 -119.5 52.5t-125.5 19.5q-96 0 -153.5 -47t-57.5 -125q0 -47 21.5 -78t55 -53.5t77.5 -39t92 -30.5q49 -16 96 -35.5t86 -50.5t62.5 -76t23.5 -108zM426 1034h-102l-230 363h68l211 -295h4 l211 295h67z" />
<glyph unicode="&#x162;" horiz-adv-x="1105" d="M596 1200v-1200h-86v1200h-453v80h992v-80h-453zM467 -184q0 31 22.5 50t59.5 19q41 0 69.5 -32.5t28.5 -79.5q0 -63 -42 -130t-112 -116l-35 29q61 51 83 92t22 80t-24.5 58.5t-71.5 29.5z" />
<glyph unicode="&#x163;" horiz-adv-x="653" d="M590 29q-47 -29 -102.5 -44.5t-106.5 -15.5q-131 0 -183.5 78t-47.5 221l16 584l-129 8l6 53l125 17l6 223h82l-6 -225h334l-6 -72h-330l-17 -590q-4 -117 32 -169t120 -52q51 0 99 16.5t91 38.5l17 -71v0zM289 -184q0 31 22.5 50t59.5 19q41 0 69.5 -32.5t28.5 -79.5 q0 -63 -42 -130t-112 -116l-35 29q61 51 83 92t22 80t-24.5 58.5t-71.5 29.5z" />
<glyph unicode="&#x164;" horiz-adv-x="1105" d="M596 1200v-1200h-86v1200h-453v80h992v-80h-453zM604 1376h-103l-229 363h68l211 -295h4l211 295h67z" />
<glyph unicode="&#x165;" horiz-adv-x="653" d="M590 29q-47 -29 -102.5 -44.5t-106.5 -15.5q-131 0 -183.5 78t-47.5 221l16 584l-129 8l6 53l125 17l6 223h82l-6 -225h334l-6 -72h-330l-17 -590q-4 -117 32 -169t120 -52q51 0 99 16.5t91 38.5l17 -71v0zM392.099 1301.92q0 24.6484 19.9746 47.1729 q19.9736 22.5244 51.4229 22.5244q39.9492 0 69.2734 -31.4492q29.3242 -31.4482 29.3242 -84.9971q0 -66.2979 -46.749 -137.696q-46.749 -71.3975 -127.496 -121.546l-32.2988 29.749q73.0977 53.5479 100.722 100.722t27.624 93.9229q0 34.8486 -23.374 52.2734 q-23.374 17.4238 -68.4229 29.3242z" />
<glyph unicode="&#x16a;" horiz-adv-x="1200" d="M1063 483q0 -115 -29.5 -208t-89 -158.5t-146.5 -101t-200 -35.5q-223 0 -342 128t-119 355v817h84v-811q0 -193 95.5 -303.5t283.5 -110.5q193 0 286 113t93 317v795h84v-797v0zM362 1434l6 77h469l6 -77h-481z" />
<glyph unicode="&#x16b;" horiz-adv-x="1005" d="M227 938v-623q0 -125 53.5 -191.5t168.5 -66.5q80 0 162.5 42t160.5 120v719h84v-932l-84 -26v165q-82 -84 -174 -124.5t-160 -40.5q-139 0 -217 80.5t-78 236.5v641h84zM254 1092l6 77h469l6 -77h-481z" />
<glyph unicode="&#x16c;" horiz-adv-x="1200" d="M1063 483q0 -115 -29.5 -208t-89 -158.5t-146.5 -101t-200 -35.5q-223 0 -342 128t-119 355v817h84v-811q0 -193 95.5 -303.5t283.5 -110.5q193 0 286 113t93 317v795h84v-797v0zM883 1757q-14 -59 -34.5 -122.5t-53.5 -117t-80 -88t-112 -34.5q-66 0 -113 34.5t-80 88 t-53.5 117t-34.5 122.5h59q45 -160 97.5 -227.5t124.5 -67.5t124 67.5t97 227.5h59v0z" />
<glyph unicode="&#x16d;" horiz-adv-x="1005" d="M227 938v-623q0 -125 53.5 -191.5t168.5 -66.5q80 0 162.5 42t160.5 120v719h84v-932l-84 -26v165q-82 -84 -174 -124.5t-160 -40.5q-139 0 -217 80.5t-78 236.5v641h84zM768 1415q-14 -59 -34.5 -122.5t-53.5 -117t-80 -88t-112 -34.5q-66 0 -113 34.5t-80 88t-53.5 117 t-34.5 122.5h59q45 -160 97.5 -227.5t124.5 -67.5t124 67.5t97 227.5h59v0z" />
<glyph unicode="&#x16e;" horiz-adv-x="1200" d="M1063 483q0 -115 -29.5 -208t-89 -158.5t-146.5 -101t-200 -35.5q-223 0 -342 128t-119 355v817h84v-811q0 -193 95.5 -303.5t283.5 -110.5q193 0 286 113t93 317v795h84v-797v0zM831 1579q0 -82 -61.5 -140.5t-167.5 -58.5t-168 58.5t-62 140.5t61.5 141.5t168.5 59.5 q106 0 167.5 -59.5t61.5 -141.5zM759 1575q0 57 -43 101t-114 44q-72 0 -115 -41t-43 -98t43 -99t115 -42t114.5 39t42.5 96z" />
<glyph unicode="&#x16f;" horiz-adv-x="1005" d="M227 938v-623q0 -125 53.5 -191.5t168.5 -66.5q80 0 162.5 42t160.5 120v719h84v-932l-84 -26v165q-82 -84 -174 -124.5t-160 -40.5q-139 0 -217 80.5t-78 236.5v641h84zM719 1237q0 -82 -61.5 -140.5t-167.5 -58.5t-168 58.5t-62 140.5t61.5 141.5t168.5 59.5 q106 0 167.5 -59.5t61.5 -141.5zM647 1233q0 57 -43 101t-114 44q-72 0 -115 -41t-43 -98t43 -99t115 -42t114.5 39t42.5 96z" />
<glyph unicode="&#x170;" horiz-adv-x="1200" d="M1063 483q0 -115 -29.5 -208t-89 -158.5t-146.5 -101t-200 -35.5q-223 0 -342 128t-119 355v817h84v-811q0 -193 95.5 -303.5t283.5 -110.5q193 0 286 113t93 317v795h84v-797v0zM729 1376h-66l242 363h100zM426 1376h-66l242 363h100z" />
<glyph unicode="&#x171;" horiz-adv-x="1005" d="M227 938v-623q0 -125 53.5 -191.5t168.5 -66.5q80 0 162.5 42t160.5 120v719h84v-932l-84 -26v165q-82 -84 -174 -124.5t-160 -40.5q-139 0 -217 80.5t-78 236.5v641h84zM635 1034h-66l242 363h100zM332 1034h-66l242 363h100z" />
<glyph unicode="&#x172;" horiz-adv-x="1200" d="M1063 483q0 -168 -59.5 -279.5t-172.5 -180.5q-92 -55 -137 -125t-45 -142q0 -51 28 -81.5t73 -30.5q27 0 54 11t48 28l27 -66q-23 -18 -59 -33.5t-79 -15.5q-72 0 -122 47t-50 127q0 76 41 138.5t97 109.5q-27 -4 -53.5 -7t-55.5 -3q-223 0 -342 128t-119 355v817h84 v-811q0 -193 95.5 -303.5t283.5 -110.5q193 0 286 113t93 317v795h84v-797v0z" />
<glyph unicode="&#x173;" horiz-adv-x="1005" d="M227 938v-623q0 -125 53.5 -191.5t168.5 -66.5q80 0 162.5 42t160.5 120v719h84v-932q-47 -14 -89 -41.5t-72.5 -63.5t-49 -74t-18.5 -71q0 -51 27.5 -81.5t72.5 -30.5q27 0 54.5 11t47.5 28l27 -66q-23 -18 -58.5 -33.5t-78.5 -15.5q-72 0 -122 47t-50 127q0 51 20.5 96 t53 82t72.5 65.5t79 51.5v108q-82 -84 -174 -124.5t-160 -40.5q-139 0 -217 80.5t-78 236.5v641h84z" />
<glyph unicode="&#x174;" horiz-adv-x="1826" d="M549 0h-80l-365 1280h89l321 -1147l350 1147h109l356 -1147l303 1147h90l-354 -1280h-80l-370 1188zM1133 1397l-211 295h-4l-211 -295h-68l229 362h103l229 -362h-67z" />
<glyph unicode="&#x175;" horiz-adv-x="1310" d="M317 -2l-284 940h88l235 -801l275 801h74l270 -805l221 805h88l-274 -940h-72l-270 813l-283 -813h-68zM885 1055l-211 295h-4l-211 -295h-68l229 362h103l229 -362h-67z" />
<glyph unicode="&#x176;" horiz-adv-x="1038" d="M563 520v-520h-86v518l-448 762h96l397 -678l393 678h95zM734 1397l-211 295h-4l-211 -295h-68l229 362h103l229 -362h-67z" />
<glyph unicode="&#x177;" horiz-adv-x="831" d="M467 31l-88 -240q-31 -82 -62.5 -136t-65.5 -86t-72 -44t-79 -12q-53 0 -90 10t-71 26l24 76q33 -16 64.5 -26.5t72.5 -10.5q27 0 52.5 9.5t51 35t51.5 70.5t52 117l70 188l-367 930h90l320 -821l313 821h88zM639 1055l-211 295h-4l-211 -295h-68l229 362h103l229 -362 h-67z" />
<glyph unicode="&#x178;" horiz-adv-x="1038" d="M563 520v-520h-86v518l-448 762h96l397 -678l393 678h95zM774 1569q0 -29 -19.5 -52.5t-49.5 -23.5q-33 0 -53.5 23.5t-20.5 52.5t20.5 50t53.5 21q31 0 50 -21t19 -50zM403 1569q0 -29 -19 -52.5t-52 -23.5t-51.5 23.5t-18.5 52.5t18.5 50t51.5 21t52 -21t19 -50z" />
<glyph unicode="&#x179;" horiz-adv-x="1019" d="M53 0v61l795 1143h-764v76h870v-61l-794 -1143h792v-76h-899zM434 1397h-63l268 362h119z" />
<glyph unicode="&#x17a;" horiz-adv-x="765" d="M43 0v57l573 809h-555v72h656v-57l-574 -809h574v-72h-674zM366 1055h-63l268 362h119z" />
<glyph unicode="&#x17b;" horiz-adv-x="1019" d="M53 0v61l795 1143h-764v76h870v-61l-794 -1143h792v-76h-899zM579 1569q0 -29 -19.5 -52.5t-51.5 -23.5q-33 0 -51.5 23.5t-18.5 52.5t18.5 50t51.5 21t52 -21t19 -50z" />
<glyph unicode="&#x17c;" horiz-adv-x="765" d="M43 0v57l573 809h-555v72h656v-57l-574 -809h574v-72h-674zM467 1227q0 -29 -19.5 -52.5t-51.5 -23.5q-33 0 -51.5 23.5t-18.5 52.5t18.5 50t51.5 21t52 -21t19 -50z" />
<glyph unicode="&#x17d;" horiz-adv-x="1019" d="M53 0v61l795 1143h-764v76h870v-61l-794 -1143h792v-76h-899zM578 1376h-103l-229 363h67l211 -295h4l211 295h68z" />
<glyph unicode="&#x17e;" horiz-adv-x="765" d="M43 0v57l573 809h-555v72h656v-57l-574 -809h574v-72h-674zM436 1034h-102l-230 363h68l211 -295h4l211 295h68z" />
<glyph unicode="&#x192;" horiz-adv-x="741" d="M274 731l-194 8l6 52l203 16l37 190q35 162 109.5 228.5t174.5 66.5q51 0 99.5 -15t85.5 -44l-35 -72q-33 23 -71 38t-85 15q-78 0 -125 -59t-69 -162l-41 -188h243l-8 -74h-250l-96 -493q-12 -61 -30.5 -106.5t-46 -78.5t-65.5 -54.5t-91 -33.5l-19 76q88 23 123 72 t51 135z" />
<glyph unicode="&#x1fa;" horiz-adv-x="1179" d="M594 1204l-275 -727h543zM520 1227q-74 20 -114.5 72.5t-40.5 117.5q0 82 61 141.5t168 59.5q106 0 167.5 -59.5t61.5 -141.5q0 -66 -41 -118t-114 -72l460 -1227h-86l-149 399h-604l-152 -399h-86l234 614q43 117 85 226.5t76 195.5q39 101 74 191zM752 1413 q0 57 -43 101.5t-115 44.5t-115 -41t-43 -99q0 -57 43 -99t115 -42t115 39t43 96zM477 1663h-63l268 362h119z" />
<glyph unicode="&#x1fb;" horiz-adv-x="874" d="M323 1467h-63l268 362h119zM647 498q-137 -14 -231 -38t-152.5 -56.5t-84 -74.5t-25.5 -93q0 -88 64.5 -135.5t154.5 -47.5q88 0 158.5 46t115.5 100v299zM655 127q-23 -29 -53.5 -54.5t-69 -47t-81.5 -33.5t-89 -12q-61 0 -115 18t-93 50t-61.5 78t-22.5 101 q0 66 28.5 122.5t96 99.5t178 71.5t274.5 38.5v86q0 109 -54 172.5t-175 63.5q-43 0 -87 -11.5t-85 -28t-79 -39t-65 -42.5l-20 84q66 47 161 80.5t181 33.5q68 0 124 -16t97 -53t63.5 -95.5t22.5 -140.5v-508q0 -43 17.5 -71.5t80.5 -26.5l-6 -63q-70 -4 -115.5 30.5 t-50.5 112.5h-2zM651 1237q0 -82 -61.5 -140.5t-167.5 -58.5t-168 58.5t-62 140.5t61.5 141.5t168.5 59.5q106 0 167.5 -59.5t61.5 -141.5zM579 1233q0 57 -43 101t-114 44q-72 0 -115 -41t-43 -98t43 -99t115 -42t114.5 39t42.5 96z" />
<glyph unicode="&#x1fc;" horiz-adv-x="1644" d="M809 457v753l-438 -753h438zM106 0h-86l738 1280h784v-78h-647v-522h541v-78h-541v-524h647v-78h-733v379h-483zM1069 1397h-63l268 362h119z" />
<glyph unicode="&#x1fd;" horiz-adv-x="1474" d="M690 186q-31 -47 -76 -85t-94 -64.5t-98 -41.5t-92 -15q-125 0 -192.5 69.5t-67.5 167.5q0 147 132 228t425 96l4 84q4 119 -48.5 185.5t-176.5 66.5q-86 0 -161 -37t-130 -80l-39 69q61 47 149 88t187 41q109 0 185.5 -46t98.5 -154q55 92 144.5 146t201.5 54 q70 0 129.5 -22.5t103.5 -64.5t68.5 -101t24.5 -135q0 -35 -6 -76t-14 -72l-639 -4v-14q0 -90 23.5 -165t68.5 -130t109.5 -86t144.5 -31t145.5 22.5t116.5 55.5l18 -76q-57 -35 -128.5 -57t-157.5 -22q-121 0 -213.5 54t-145.5 152zM1276 559q6 33 6 70q0 111 -64.5 181.5 t-177.5 70.5q-131 0 -217 -89.5t-108 -232.5h561zM623 473q-135 -8 -225.5 -29.5t-144.5 -55.5t-77.5 -76t-23.5 -89q0 -84 55 -123t133 -39q70 0 159 43t165 138q-41 104 -41 231zM698 1055h-63l268 362h119z" />
<glyph unicode="&#x1fe;" horiz-adv-x="1429" d="M1329 643q0 -150 -46 -271.5t-129 -208.5t-195.5 -135t-245.5 -48q-82 0 -157 20t-140 57l-113 -194h-80q37 66 68 117q12 23 23.5 42t21.5 35q10 18 22 37q-117 88 -187.5 227.5t-70.5 317.5q0 150 46.5 271.5t129 208.5t195.5 134t246 47q82 0 156.5 -20t140.5 -57 l112 194h80l-135 -231q117 -86 187.5 -225.5t70.5 -317.5zM975 1155q-57 35 -124 53.5t-140 18.5q-113 0 -209 -43t-166 -121t-109 -184.5t-39 -235.5q0 -154 56.5 -276.5t154.5 -200.5zM455 125q59 -35 124.5 -53.5t139.5 -18.5q113 0 209 43t165.5 121t108.5 185.5 t39 236.5q0 154 -56.5 276.5t-154.5 200.5zM731 1397h-63l268 362h119z" />
<glyph unicode="&#x1ff;" horiz-adv-x="1093" d="M1004 473q0 -111 -36 -202t-99.5 -155.5t-147.5 -100t-178 -35.5q-117 0 -211 49l-96 -166h-80l116 203q-84 61 -133 162.5t-49 236.5q0 111 36 202t99.5 155.5t146.5 100t179 35.5q115 0 211 -49q16 27 31.5 56.5t31.5 54.5q16 29 35 57h80l-119 -205 q84 -61 133.5 -162.5t49.5 -236.5zM723 840q-78 43 -176 43q-80 0 -148.5 -31t-118 -86t-78 -131t-28.5 -166q0 -111 37 -196t102 -138l205 352zM920 469q0 111 -37 196t-103 138l-409 -707q82 -41 176 -41q80 0 148.5 31t117.5 86t78 131t29 166zM549 1055h-63l268 362h119 z" />
<glyph unicode="&#x218;" horiz-adv-x="964" d="M471 55q74 0 135.5 21.5t104.5 58.5t66.5 85t23.5 102q0 63 -26.5 110t-73 82t-109 60.5t-133.5 50.5q-66 23 -130.5 50t-115.5 66t-82 94.5t-31 133.5q0 70 30 131t82 105t123 69.5t154 25.5q111 0 203 -29.5t164 -76.5l-33 -76q-72 49 -158.5 78t-175.5 29 q-76 0 -133 -20.5t-96 -55.5t-58.5 -80t-19.5 -94q0 -59 25.5 -101.5t70 -74t105.5 -57t133 -50.5q68 -23 133.5 -51.5t116.5 -70.5t83 -100t32 -140q0 -74 -31 -138.5t-85 -111.5t-130 -73.5t-168 -26.5q-117 0 -214 30.5t-177 83.5l33 74q72 -49 164 -81t198 -32z M396 -184q0 31 22.5 50t59.5 19q41 0 69.5 -32.5t28.5 -79.5q0 -63 -42 -130t-112 -116l-35 29q61 51 83 92t22 80t-24.5 58.5t-71.5 29.5z" />
<glyph unicode="&#x219;" horiz-adv-x="761" d="M674 244q0 -61 -25.5 -110.5t-68.5 -83.5t-100.5 -52t-123.5 -18q-80 0 -154.5 22.5t-129.5 56.5l26 78q59 -39 125 -61.5t137 -22.5q45 0 87 11.5t76 35t54.5 57t20.5 79.5q0 51 -21.5 83.5t-56.5 56t-80 39t-92 31.5t-94 37t-85 50.5t-61.5 70.5t-23.5 101 q0 63 23.5 110t63.5 79t93 48t115 16q74 0 142.5 -19t123.5 -48l-29 -76q-59 33 -119.5 52.5t-125.5 19.5q-96 0 -153.5 -47t-57.5 -125q0 -47 21.5 -78t55 -53.5t77.5 -39t92 -30.5q49 -16 96 -35.5t86 -50.5t62.5 -76t23.5 -108zM295 -184q0 31 22.5 50t59.5 19 q41 0 69.5 -32.5t28.5 -79.5q0 -63 -42 -130t-112 -116l-35 29q61 51 83 92t22 80t-24.5 58.5t-71.5 29.5z" />
<glyph unicode="&#x21a;" horiz-adv-x="1105" d="M596 1200v-1200h-86v1200h-453v80h992v-80h-453zM467 -184q0 31 22.5 50t59.5 19q41 0 69.5 -32.5t28.5 -79.5q0 -63 -42 -130t-112 -116l-35 29q61 51 83 92t22 80t-24.5 58.5t-71.5 29.5z" />
<glyph unicode="&#x21b;" horiz-adv-x="653" d="M590 29q-47 -29 -102.5 -44.5t-106.5 -15.5q-131 0 -183.5 78t-47.5 221l16 584l-129 8l6 53l125 17l6 223h82l-6 -225h334l-6 -72h-330l-17 -590q-4 -117 32 -169t120 -52q51 0 99 16.5t91 38.5l17 -71v0zM289 -184q0 31 22.5 50t59.5 19q41 0 69.5 -32.5t28.5 -79.5 q0 -63 -42 -130t-112 -116l-35 29q61 51 83 92t22 80t-24.5 58.5t-71.5 29.5z" />
<glyph unicode="&#x237;" horiz-adv-x="395" d="M-45 -455q59 33 98 68t61.5 78t32 98t9.5 129v1014l84 26v-1052q0 -160 -52.5 -258.5t-173.5 -161.5z" />
<glyph unicode="&#x2c6;" horiz-adv-x="819" d="M623 1055l-211 295h-4l-211 -295h-68l229 362h103l229 -362h-67z" />
<glyph unicode="&#x2c7;" horiz-adv-x="819" d="M461 1034h-103l-229 363h68l211 -295h4l211 295h67z" />
<glyph unicode="&#x2d8;" horiz-adv-x="819" d="M690 1415q-14 -59 -34.5 -122.5t-53.5 -117t-80 -88t-112 -34.5q-66 0 -113 34.5t-80 88t-53.5 117t-34.5 122.5h59q45 -160 97.5 -227.5t124.5 -67.5t124 67.5t97 227.5h59v0z" />
<glyph unicode="&#x2d9;" horiz-adv-x="819" d="M479 1227q0 -29 -19.5 -52.5t-51.5 -23.5q-33 0 -51.5 23.5t-18.5 52.5t18.5 50t51.5 21t52 -21t19 -50z" />
<glyph unicode="&#x2da;" horiz-adv-x="819" d="M641 1237q0 -82 -61.5 -140.5t-167.5 -58.5t-168 58.5t-62 140.5t61.5 141.5t168.5 59.5q106 0 167.5 -59.5t61.5 -141.5zM569 1233q0 57 -43 101t-114 44q-72 0 -115 -41t-43 -98t43 -99t115 -42t114.5 39t42.5 96z" />
<glyph unicode="&#x2db;" horiz-adv-x="819" d="M467 -432q-72 0 -122 47t-50 127q0 53 21.5 100t55.5 86t74.5 71t79.5 54h56q-104 -78 -155.5 -148.5t-51.5 -148.5q0 -51 27.5 -81.5t72.5 -30.5q27 0 54.5 11t48.5 28l26 -66q-23 -18 -58.5 -33.5t-78.5 -15.5z" />
<glyph unicode="&#x2dc;" horiz-adv-x="819" d="M723 1278q-39 -213 -166 -213q-41 0 -82 23.5t-81 52t-74.5 52.5t-63.5 24q-35 0 -56.5 -27t-52.5 -115h-51q39 213 166 213q41 0 83 -23.5t82 -52t75 -52t61 -23.5q33 0 55.5 26.5t51.5 114.5h53v0z" />
<glyph unicode="&#x2dd;" horiz-adv-x="819" d="M496 1034h-66l242 363h100zM193 1034h-66l242 363h100z" />
<glyph unicode="&#x1e80;" horiz-adv-x="1826" d="M549 0h-80l-365 1280h89l321 -1147l350 1147h109l356 -1147l303 1147h90l-354 -1280h-80l-370 1188zM917 1356l-324 362h119l269 -362h-64z" />
<glyph unicode="&#x1e81;" horiz-adv-x="1310" d="M317 -2l-284 940h88l235 -801l275 801h74l270 -805l221 805h88l-274 -940h-72l-270 813l-283 -813h-68zM635 1055l-324 362h119l269 -362h-64z" />
<glyph unicode="&#x1e82;" horiz-adv-x="1826" d="M549 0h-80l-365 1280h89l321 -1147l350 1147h109l356 -1147l303 1147h90l-354 -1280h-80l-370 1188zM944 1397h-63l268 362h119z" />
<glyph unicode="&#x1e83;" horiz-adv-x="1310" d="M317 -2l-284 940h88l235 -801l275 801h74l270 -805l221 805h88l-274 -940h-72l-270 813l-283 -813h-68zM680 1055h-63l268 362h119z" />
<glyph unicode="&#x1e84;" horiz-adv-x="1826" d="M549 0h-80l-365 1280h89l321 -1147l350 1147h109l356 -1147l303 1147h90l-354 -1280h-80l-370 1188zM1176 1569q0 -29 -19.5 -52.5t-50.5 -23.5q-33 0 -53.5 23.5t-20.5 52.5t20.5 50t53.5 21q31 0 50.5 -21t19.5 -50zM805 1569q0 -29 -19.5 -52.5t-52.5 -23.5t-51 23.5 t-18 52.5t18 50t51 21t52.5 -21t19.5 -50z" />
<glyph unicode="&#x1e85;" horiz-adv-x="1310" d="M317 -2l-284 940h88l235 -801l275 801h74l270 -805l221 805h88l-274 -940h-72l-270 813l-283 -813h-68zM924 1227q0 -29 -19.5 -52.5t-50.5 -23.5q-33 0 -53.5 23.5t-20.5 52.5t20.5 50t53.5 21q31 0 50.5 -21t19.5 -50zM553 1227q0 -29 -19.5 -52.5t-52.5 -23.5 t-51 23.5t-18 52.5t18 50t51 21t52.5 -21t19.5 -50z" />
<glyph unicode="&#x2000;" horiz-adv-x="1012" />
<glyph unicode="&#x2001;" horiz-adv-x="2025" />
<glyph unicode="&#x2002;" horiz-adv-x="1012" />
<glyph unicode="&#x2003;" horiz-adv-x="2025" />
<glyph unicode="&#x2004;" horiz-adv-x="675" />
<glyph unicode="&#x2005;" horiz-adv-x="506" />
<glyph unicode="&#x2006;" horiz-adv-x="337" />
<glyph unicode="&#x2007;" horiz-adv-x="337" />
<glyph unicode="&#x2008;" horiz-adv-x="253" />
<glyph unicode="&#x2009;" horiz-adv-x="155" />
<glyph unicode="&#x200a;" horiz-adv-x="112" />
<glyph unicode="&#x2010;" horiz-adv-x="561" d="M74 459v78h420v-78h-420z" />
<glyph unicode="&#x2011;" horiz-adv-x="561" d="M74 459v78h420v-78h-420z" />
<glyph unicode="&#x2012;" horiz-adv-x="561" d="M74 459v78h420v-78h-420z" />
<glyph unicode="&#x2013;" horiz-adv-x="876" d="M66 459l6 78h735l6 -78h-747z" />
<glyph unicode="&#x2014;" horiz-adv-x="1839" d="M66 459l6 78h1697l7 -78h-1710z" />
<glyph unicode="&#x2018;" horiz-adv-x="313" d="M248 965q0 -29 -23.5 -55.5t-60.5 -26.5q-47 0 -82 36.5t-35 100.5q0 78 55.5 162t149.5 143l39 -35q-86 -63 -119 -118.5t-33 -110.5q0 -41 28 -61.5t81 -34.5z" />
<glyph unicode="&#x2019;" horiz-adv-x="313" d="M66 1247q0 29 23.5 55.5t60.5 26.5q47 0 81.5 -37t34.5 -100q0 -78 -55 -162t-150 -143l-38 35q86 63 118.5 118.5t32.5 110.5q0 41 -27.5 61.5t-80.5 34.5z" />
<glyph unicode="&#x201a;" horiz-adv-x="313" d="M66 57q0 29 23.5 55.5t60.5 26.5q47 0 81.5 -36.5t34.5 -100.5q0 -78 -55 -162t-150 -143l-38 35q86 63 118.5 118.5t32.5 110.5q0 41 -27.5 61.5t-80.5 34.5z" />
<glyph unicode="&#x201c;" horiz-adv-x="681" d="M616 965q0 -29 -23.5 -55.5t-60.5 -26.5q-47 0 -81.5 36.5t-34.5 100.5q0 78 55 162t150 143l38 -35q-86 -63 -118.5 -118.5t-32.5 -110.5q0 -41 27.5 -61.5t80.5 -34.5zM248 965q0 -29 -23.5 -55.5t-60.5 -26.5q-47 0 -82 36.5t-35 100.5q0 78 55.5 162t149.5 143 l39 -35q-86 -63 -119 -118.5t-33 -110.5q0 -41 28 -61.5t81 -34.5z" />
<glyph unicode="&#x201d;" horiz-adv-x="681" d="M434 1247q0 29 23.5 55.5t60.5 26.5q47 0 82 -37t35 -100q0 -78 -55.5 -162t-149.5 -143l-39 35q86 63 119 118.5t33 110.5q0 41 -28 61.5t-81 34.5zM66 1247q0 29 23.5 55.5t60.5 26.5q47 0 81.5 -37t34.5 -100q0 -78 -55 -162t-150 -143l-38 35q86 63 118.5 118.5 t32.5 110.5q0 41 -27.5 61.5t-80.5 34.5z" />
<glyph unicode="&#x201e;" horiz-adv-x="681" d="M434 57q0 29 23.5 55.5t60.5 26.5q47 0 82 -36.5t35 -100.5q0 -78 -55.5 -162t-149.5 -143l-39 35q86 63 119 118.5t33 110.5q0 41 -28 61.5t-81 34.5zM66 57q0 29 23.5 55.5t60.5 26.5q47 0 81.5 -36.5t34.5 -100.5q0 -78 -55 -162t-150 -143l-38 35q86 63 118.5 118.5 t32.5 110.5q0 41 -27.5 61.5t-80.5 34.5z" />
<glyph unicode="&#x2020;" horiz-adv-x="960" d="M78 813l-6 74h366v393h82v-393h369l-6 -74h-363v-1071h-82v1071h-360z" />
<glyph unicode="&#x2021;" horiz-adv-x="960" d="M78 844l-6 74h366v362h82v-362h369l-6 -74h-363v-668h363l6 -74h-369v-360h-82v360h-366l6 74h360v668h-360z" />
<glyph unicode="&#x2022;" horiz-adv-x="931" d="M860 475q0 -23 -12 -63.5t-29.5 -83.5t-37 -80t-36.5 -53q-16 -16 -53 -36t-80 -37.5t-84 -29.5t-63 -12q-23 0 -63 12t-83 29.5t-79.5 37t-51.5 36.5q-16 16 -35.5 53t-38 80t-30.5 84t-12 63q0 23 12 63t30.5 83t38 79.5t35.5 53.5q14 14 52.5 34.5t81.5 38t82.5 29.5 t62.5 12t62.5 -12t82.5 -29.5t80 -38t53 -34.5q14 -16 35 -53t38.5 -80t29.5 -83t12 -63z" />
<glyph unicode="&#x2026;" horiz-adv-x="940" d="M856 57q0 -31 -20.5 -54t-53.5 -23t-52 23.5t-19 53.5q0 29 19.5 51.5t51.5 22.5q33 0 53.5 -22.5t20.5 -51.5zM543 57q0 -31 -20.5 -54t-53.5 -23t-52.5 23.5t-19.5 53.5q0 29 19.5 51.5t52.5 22.5t53.5 -22.5t20.5 -51.5zM229 57q0 -31 -20.5 -54t-52.5 -23 q-33 0 -52.5 23.5t-19.5 53.5q0 29 19.5 51.5t52.5 22.5t53 -22.5t20 -51.5z" />
<glyph unicode="&#x202f;" horiz-adv-x="405" />
<glyph unicode="&#x2030;" horiz-adv-x="2287" d="M715 987q0 -68 -23.5 -129t-67.5 -107t-106.5 -74t-142.5 -28q-78 0 -141.5 28t-107.5 74t-67.5 107.5t-23.5 128.5q0 70 23.5 132.5t67.5 108.5t107.5 73.5t141.5 27.5q80 0 142.5 -27.5t106.5 -73.5t67.5 -108.5t23.5 -132.5zM285 -31h-95l1057 1340h92zM1493 291 q0 -70 -23.5 -132.5t-67.5 -108.5t-107.5 -73.5t-141.5 -27.5q-80 0 -142.5 27.5t-106.5 73.5t-67.5 108.5t-23.5 132.5q0 68 23.5 129t67.5 107t106.5 74t142.5 28q78 0 141.5 -28t107.5 -74t67.5 -107t23.5 -129zM641 987q0 57 -18.5 106.5t-52 86.5t-84 58.5t-111.5 21.5 t-111.5 -21.5t-84.5 -58.5t-52 -86.5t-18 -106.5q0 -53 18 -102t52 -86t84 -58.5t112 -21.5q61 0 111.5 21.5t84 58.5t52 86t18.5 102zM1419 291q0 53 -18.5 102t-52 86t-84 58.5t-111.5 21.5t-111.5 -21.5t-84 -58.5t-52 -86t-18.5 -102q0 -57 18.5 -106.5t52 -86.5 t84 -58.5t111.5 -21.5t111.5 21.5t84 58.5t52 86.5t18.5 106.5zM2253 291q0 -70 -23.5 -132.5t-67.5 -108.5t-107.5 -73.5t-141.5 -27.5q-80 0 -142.5 27.5t-106.5 73.5t-67.5 108.5t-23.5 132.5q0 68 23.5 129t67.5 107t106.5 74t142.5 28q78 0 141.5 -28t107.5 -74 t67.5 -107t23.5 -129zM2179 291q0 53 -18.5 102t-52 86t-84 58.5t-111.5 21.5t-111.5 -21.5t-84.5 -58.5t-52 -86t-18 -102q0 -57 18 -106.5t52 -86.5t84 -58.5t112 -21.5q61 0 111.5 21.5t84 58.5t52 86.5t18.5 106.5z" />
<glyph unicode="&#x2039;" horiz-adv-x="641" d="M532 57l-466 385v74l466 385l17 -72l-408 -348v-2l408 -350z" />
<glyph unicode="&#x203a;" horiz-adv-x="641" d="M109 57l-17 72l408 350v2l-408 348l17 72l466 -385v-74z" />
<glyph unicode="&#x2044;" horiz-adv-x="1189" d="M115 -31h-95l1057 1340h92z" />
<glyph unicode="&#x205f;" horiz-adv-x="506" />
<glyph unicode="&#x2070;" horiz-adv-x="675" d="M631 946q0 -92 -21.5 -165.5t-61.5 -126t-94.5 -81t-117.5 -28.5q-66 0 -119 27.5t-92 80t-59.5 126t-20.5 165.5t21.5 167t60.5 127t93 81t120 29q129 0 210 -108t81 -294zM545 944q0 176 -60.5 258t-148.5 82q-90 0 -148.5 -81t-58.5 -257q0 -172 60.5 -253t150.5 -81 q88 0 146.5 80t58.5 252z" />
<glyph unicode="&#x2074;" horiz-adv-x="675" d="M522 758v-203h-71v203h-404l-10 55l403 526h82v-518h129l4 -63h-133zM451 1249l-328 -428h328v428z" />
<glyph unicode="&#x2075;" horiz-adv-x="675" d="M184 1008q23 4 49.5 8t69.5 4q125 0 203 -60.5t78 -168.5q0 -106 -77 -177t-210 -71q-57 0 -115.5 14t-99.5 37l16 72q41 -23 92.5 -39.5t106.5 -16.5q92 0 150.5 45t58.5 131q0 78 -54.5 123t-156.5 45q-53 0 -94 -8t-74 -18l-25 20l54 385h411l4 -69h-350l-37 -256v0z " />
<glyph unicode="&#x2076;" horiz-adv-x="675" d="M63 852q0 76 28 153.5t85 145.5t145.5 120t208.5 79l21 -64q-176 -37 -275.5 -132t-128.5 -214l3 -2q45 39 104 63.5t125 24.5q47 0 91 -14.5t78 -43t54.5 -71.5t20.5 -98q0 -113 -77 -183.5t-200 -70.5q-68 0 -121 23.5t-89 64.5t-54.5 97t-18.5 122zM143 840 q0 -92 52.5 -161t154.5 -69q86 0 139.5 51.5t53.5 133.5t-52.5 124t-125.5 42q-63 0 -119 -21.5t-101 -62.5q-2 -10 -2 -18.5v-18.5z" />
<glyph unicode="&#x2077;" horiz-adv-x="675" d="M55 1262l4 71h531l12 -57l-371 -717h-79l366 703h-463z" />
<glyph unicode="&#x2078;" horiz-adv-x="675" d="M608 760q0 -86 -68.5 -150.5t-203.5 -64.5q-143 0 -206.5 60.5t-63.5 146.5q0 43 18 75.5t46 57t59.5 41t58.5 26.5q-68 27 -119 69t-51 114q0 98 72.5 156.5t189.5 58.5t186.5 -56.5t69.5 -150.5q0 -39 -15.5 -70t-40 -54.5t-53 -39.5t-55.5 -29q33 -16 64.5 -33.5 t56.5 -40t40 -51t15 -65.5zM518 1135q0 68 -50 108.5t-130 40.5q-90 0 -135 -42t-45 -99q0 -33 17.5 -59.5t47 -47t68.5 -36t82 -25.5q57 23 101 62t44 98zM530 750q0 37 -18 64.5t-49 49t-71 36.5t-83 28q-66 -23 -116 -64t-50 -104q0 -72 49.5 -112t145.5 -40 q98 0 145 39.5t47 102.5z" />
<glyph unicode="&#x2079;" horiz-adv-x="675" d="M612 1040q0 -78 -27.5 -154.5t-85 -144t-145.5 -120t-209 -78.5l-20 63q176 37 275.5 133.5t127.5 212.5l-4 2q-45 -39 -104.5 -63.5t-122.5 -24.5q-47 0 -91 14.5t-78 44t-54.5 71.5t-20.5 98q0 113 76 183.5t201 70.5q68 0 121 -24t88.5 -64.5t54 -97t18.5 -122.5z M532 1053q0 92 -53 160.5t-153 68.5q-88 0 -140.5 -51t-52.5 -133q0 -80 52.5 -123t125.5 -43q63 0 118.5 21.5t100.5 62.5q2 10 2 18.5v18.5z" />
<glyph unicode="&#x207a;" horiz-adv-x="675" d="M385 924v-240h-51v240h-232l4 47h228v237h51v-237h225l4 -47h-229z" />
<glyph unicode="&#x207b;" horiz-adv-x="675" d="M102 924l2 47h506l4 -47h-512z" />
<glyph unicode="&#x2080;" horiz-adv-x="675" d="M631 94q0 -92 -21.5 -165.5t-61.5 -126t-94.5 -81t-117.5 -28.5q-66 0 -119 27.5t-92 80t-59.5 126t-20.5 165.5t21.5 167t60.5 127t93 81t120 29q129 0 210 -108t81 -294zM545 92q0 176 -60.5 258t-148.5 82q-90 0 -148.5 -81t-58.5 -257q0 -172 60.5 -253t150.5 -81 q88 0 146.5 80t58.5 252z" />
<glyph unicode="&#x2081;" horiz-adv-x="675" d="M352 393l-205 -55l-4 70l285 79v-780h-76v686z" />
<glyph unicode="&#x2082;" horiz-adv-x="675" d="M66 -293l-5 72q102 94 182.5 163.5t134.5 126t81.5 104.5t27.5 99q0 74 -49 115t-131 41q-55 0 -110.5 -25.5t-94.5 -60.5l-28 64q41 35 104.5 62.5t138.5 27.5q113 0 182.5 -59.5t69.5 -162.5q0 -55 -26.5 -106t-78.5 -107.5t-131 -125t-183 -160.5h446l4 -68h-534z" />
<glyph unicode="&#x2083;" horiz-adv-x="675" d="M346 113q123 2 186.5 -54.5t63.5 -136.5q0 -55 -23.5 -97t-64.5 -71.5t-94.5 -45t-114.5 -15.5q-57 0 -117.5 14t-101.5 37l18 66q39 -20 92.5 -35t114.5 -15q41 0 79 10.5t66.5 30t46 48t17.5 67.5q0 66 -53 108t-152 42q-27 0 -56.5 -3.5t-57.5 -9.5v64 q141 33 215.5 77t74.5 111q0 59 -47 91t-123 32q-53 0 -108 -20.5t-96 -53.5l-31 62q45 35 109.5 57.5t129.5 22.5q113 0 180.5 -49.5t67.5 -133.5q0 -137 -221 -200z" />
<glyph unicode="&#x2084;" horiz-adv-x="675" d="M522 -94v-203h-71v203h-404l-10 55l403 526h82v-518h129l4 -63h-133zM451 397l-328 -428h328v428z" />
<glyph unicode="&#x2085;" horiz-adv-x="675" d="M184 156q23 4 49.5 8t69.5 4q125 0 203 -60.5t78 -168.5q0 -106 -77 -177t-210 -71q-57 0 -115.5 14t-99.5 37l16 72q41 -23 92.5 -39.5t106.5 -16.5q92 0 150.5 45t58.5 131q0 78 -54.5 123t-156.5 45q-53 0 -94 -8t-74 -18l-25 20l54 385h411l4 -69h-350l-37 -256v0z " />
<glyph unicode="&#x2086;" horiz-adv-x="675" d="M63 0q0 76 28 153.5t85 145.5t145.5 120t208.5 79l21 -64q-176 -37 -275.5 -132t-128.5 -214l3 -2q45 39 104 63.5t125 24.5q47 0 91 -14.5t78 -43t54.5 -71.5t20.5 -98q0 -113 -77 -183.5t-200 -70.5q-68 0 -121 23.5t-89 64.5t-54.5 97t-18.5 122zM143 -12 q0 -92 52.5 -161t154.5 -69q86 0 139.5 51.5t53.5 133.5t-52.5 124t-125.5 42q-63 0 -119 -21.5t-101 -62.5q-2 -10 -2 -18.5v-18.5z" />
<glyph unicode="&#x2087;" horiz-adv-x="675" d="M55 410l4 71h531l12 -57l-371 -717h-79l366 703h-463z" />
<glyph unicode="&#x2088;" horiz-adv-x="675" d="M608 -92q0 -86 -68.5 -150.5t-203.5 -64.5q-143 0 -206.5 60.5t-63.5 146.5q0 43 18 75.5t46 57t59.5 41t58.5 26.5q-68 27 -119 69t-51 114q0 98 72.5 156.5t189.5 58.5t186.5 -56.5t69.5 -150.5q0 -39 -15.5 -70t-40 -54.5t-53 -39.5t-55.5 -29q33 -16 64.5 -33.5 t56.5 -40t40 -51t15 -65.5zM518 283q0 68 -50 108.5t-130 40.5q-90 0 -135 -42t-45 -99q0 -33 17.5 -59.5t47 -47t68.5 -36t82 -25.5q57 23 101 62t44 98zM530 -102q0 37 -18 64.5t-49 49t-71 36.5t-83 28q-66 -23 -116 -64t-50 -104q0 -72 49.5 -112t145.5 -40 q98 0 145 39.5t47 102.5z" />
<glyph unicode="&#x2089;" horiz-adv-x="675" d="M612 188q0 -78 -27.5 -154.5t-85 -144t-145.5 -120t-209 -78.5l-20 63q176 37 275.5 133.5t127.5 212.5l-4 2q-45 -39 -104.5 -63.5t-122.5 -24.5q-47 0 -91 14.5t-78 44t-54.5 71.5t-20.5 98q0 113 76 183.5t201 70.5q68 0 121 -23.5t88.5 -64.5t54 -97.5t18.5 -122.5z M532 201q0 92 -53 160.5t-153 68.5q-88 0 -140.5 -51t-52.5 -133q0 -80 52.5 -123t125.5 -43q63 0 118.5 21.5t100.5 62.5q2 10 2 18.5v18.5z" />
<glyph unicode="&#x208a;" horiz-adv-x="675" d="M385 72v-240h-51v240h-232l4 47h228v237h51v-237h225l4 -47h-229z" />
<glyph unicode="&#x20ac;" horiz-adv-x="1036" d="M80 768l-6 72h151q35 221 152 347t313 126q86 0 155.5 -16.5t123.5 -45.5l-19 -75q-55 29 -120.5 46t-139.5 17q-164 0 -259 -100.5t-124 -298.5h498l-6 -72h-500q-2 -29 -3 -59.5t-1 -63.5q0 -35 1 -66.5t3 -62.5h438l6 -72h-436q29 -199 121 -300t254 -101 q84 0 149.5 15.5t120.5 41.5l13 -73q-55 -27 -125 -42.5t-162 -15.5q-199 0 -310.5 125t-144.5 350h-149l6 72h135q-2 29 -3 58.5t-1 62.5q0 70 6 131h-137z" />
<glyph unicode="&#x2122;" horiz-adv-x="1775" d="M1554 514l-38 678h-7l-262 -678h-88l-237 678h-7l-36 -678h-70l47 766h107l241 -696h6l265 696h102l45 -766h-68zM408 1214v-700h-70v700h-291v66h649v-66h-288z" />
<glyph unicode="&#x25fc;" horiz-adv-x="942" d="M0 942h942v-942h-942v942z" />
<glyph unicode="&#xf6c3;" horiz-adv-x="819" d="M324 -184q0 31 22.5 50t59.5 19q41 0 69.5 -32.5t28.5 -79.5q0 -63 -42 -130t-112 -116l-35 29q61 51 83 92t22 80t-24.5 58.5t-71.5 29.5z" />
<glyph horiz-adv-x="768" d="M629 369q0 -389 -350 -389q-70 0 -138.5 21.5t-109.5 45.5l16 86q51 -35 115.5 -56.5t120.5 -21.5q260 0 260 320v905h86v-911v0z" />
<glyph horiz-adv-x="1028" d="M795 795q-45 35 -117 56t-143 21q-80 0 -145.5 -29.5t-113 -85t-74 -132t-26.5 -170.5q0 -86 24.5 -159t68.5 -126t107.5 -84t141.5 -31t150.5 34t126.5 85v621zM512 -20q-90 0 -168 33.5t-134 96t-88 149.5t-32 196q0 113 34 204t94.5 155.5t142 99t180.5 34.5 q72 0 140.5 -21.5t115.5 -49.5l82 81l-2 -813q0 -43 17 -71.5t81 -26.5l-6 -63q-43 -2 -72 8t-47.5 26.5t-28.5 40t-14 47.5q-53 -47 -128 -86.5t-167 -39.5z" />
<glyph horiz-adv-x="1028" d="M879 -27q0 -123 -28 -210t-79 -143t-124 -81.5t-161 -25.5q-100 0 -167.5 16t-120.5 39l20 78q47 -23 111.5 -40.5t156.5 -17.5q70 0 127.5 20.5t97.5 66.5t61.5 120t21.5 180v117q-43 -41 -117 -76.5t-166 -35.5q-90 0 -168 33.5t-134 96t-88 149.5t-32 196 q0 113 34 204t94.5 155.5t142 99t180.5 34.5q72 0 140.5 -21.5t115.5 -49.5l82 81v-985zM795 795q-45 35 -117 56t-143 21q-80 0 -145.5 -29.5t-113 -85t-74 -132t-26.5 -170.5q0 -86 24.5 -159t68.5 -126t107.5 -84t141.5 -31t150.5 34t126.5 85v621z" />
<glyph horiz-adv-x="1028" d="M795 795q-45 35 -117 56t-143 21q-80 0 -145.5 -29.5t-113 -85t-74 -132t-26.5 -170.5q0 -86 24.5 -159t68.5 -126t107.5 -84t141.5 -31t150.5 34t126.5 85v621zM512 -20q-90 0 -168 33.5t-134 96t-88 149.5t-32 196q0 113 34 204t94.5 155.5t142 99t180.5 34.5 q72 0 140.5 -21.5t115.5 -49.5l82 81l-2 -813q0 -43 17 -71.5t81 -26.5l-6 -63q-43 -2 -72 8t-47.5 26.5t-28.5 40t-14 47.5q-53 -47 -128 -86.5t-167 -39.5zM647 1055l-324 362h119l269 -362h-64z" />
<glyph horiz-adv-x="1028" d="M795 795q-45 35 -117 56t-143 21q-80 0 -145.5 -29.5t-113 -85t-74 -132t-26.5 -170.5q0 -86 24.5 -159t68.5 -126t107.5 -84t141.5 -31t150.5 34t126.5 85v621zM512 -20q-90 0 -168 33.5t-134 96t-88 149.5t-32 196q0 113 34 204t94.5 155.5t142 99t180.5 34.5 q72 0 140.5 -21.5t115.5 -49.5l82 81l-2 -813q0 -43 17 -71.5t81 -26.5l-6 -63q-43 -2 -72 8t-47.5 26.5t-28.5 40t-14 47.5q-53 -47 -128 -86.5t-167 -39.5zM543 1055h-63l268 362h119z" />
<glyph horiz-adv-x="1028" d="M795 795q-45 35 -117 56t-143 21q-80 0 -145.5 -29.5t-113 -85t-74 -132t-26.5 -170.5q0 -86 24.5 -159t68.5 -126t107.5 -84t141.5 -31t150.5 34t126.5 85v621zM512 -20q-90 0 -168 33.5t-134 96t-88 149.5t-32 196q0 113 34 204t94.5 155.5t142 99t180.5 34.5 q72 0 140.5 -21.5t115.5 -49.5l82 81l-2 -813q0 -43 17 -71.5t81 -26.5l-6 -63q-43 -2 -72 8t-47.5 26.5t-28.5 40t-14 47.5q-53 -47 -128 -86.5t-167 -39.5zM791 1055l-211 295h-4l-211 -295h-68l229 362h103l229 -362h-67z" />
<glyph horiz-adv-x="1028" d="M795 795q-45 35 -117 56t-143 21q-80 0 -145.5 -29.5t-113 -85t-74 -132t-26.5 -170.5q0 -86 24.5 -159t68.5 -126t107.5 -84t141.5 -31t150.5 34t126.5 85v621zM512 -20q-90 0 -168 33.5t-134 96t-88 149.5t-32 196q0 113 34 204t94.5 155.5t142 99t180.5 34.5 q72 0 140.5 -21.5t115.5 -49.5l82 81l-2 -813q0 -43 17 -71.5t81 -26.5l-6 -63q-43 -2 -72 8t-47.5 26.5t-28.5 40t-14 47.5q-53 -47 -128 -86.5t-167 -39.5zM870 1278q-39 -213 -166 -213q-41 0 -82 23.5t-81 52t-74.5 52.5t-63.5 24q-35 0 -56.5 -27t-52.5 -115h-51 q39 213 166 213q41 0 83 -23.5t82 -52t75 -52t61 -23.5q33 0 55.5 26.5t51.5 114.5h53v0z" />
<glyph horiz-adv-x="1028" d="M795 795q-45 35 -117 56t-143 21q-80 0 -145.5 -29.5t-113 -85t-74 -132t-26.5 -170.5q0 -86 24.5 -159t68.5 -126t107.5 -84t141.5 -31t150.5 34t126.5 85v621zM512 -20q-90 0 -168 33.5t-134 96t-88 149.5t-32 196q0 113 34 204t94.5 155.5t142 99t180.5 34.5 q72 0 140.5 -21.5t115.5 -49.5l82 81l-2 -813q0 -43 17 -71.5t81 -26.5l-6 -63q-43 -2 -72 8t-47.5 26.5t-28.5 40t-14 47.5q-53 -47 -128 -86.5t-167 -39.5zM840 1227q0 -29 -19.5 -52.5t-50.5 -23.5q-33 0 -53.5 23.5t-20.5 52.5t20.5 50t53.5 21q31 0 50.5 -21t19.5 -50z M469 1227q0 -29 -19.5 -52.5t-52.5 -23.5t-51 23.5t-18 52.5t18 50t51 21t52.5 -21t19.5 -50z" />
<glyph horiz-adv-x="1028" d="M795 795q-45 35 -117 56t-143 21q-80 0 -145.5 -29.5t-113 -85t-74 -132t-26.5 -170.5q0 -86 24.5 -159t68.5 -126t107.5 -84t141.5 -31t150.5 34t126.5 85v621zM512 -20q-90 0 -168 33.5t-134 96t-88 149.5t-32 196q0 113 34 204t94.5 155.5t142 99t180.5 34.5 q72 0 140.5 -21.5t115.5 -49.5l82 81l-2 -813q0 -43 17 -71.5t81 -26.5l-6 -63q-43 -2 -72 8t-47.5 26.5t-28.5 40t-14 47.5q-53 -47 -128 -86.5t-167 -39.5zM768 1237q0 -82 -61.5 -140.5t-167.5 -58.5t-168 58.5t-62 140.5t61.5 141.5t168.5 59.5q106 0 167.5 -59.5 t61.5 -141.5zM696 1233q0 57 -43 101t-114 44q-72 0 -115 -41t-43 -98t43 -99t115 -42t114.5 39t42.5 96z" />
<glyph horiz-adv-x="1028" d="M495 1467h-63l268 362h119zM795 795q-45 35 -117 56t-143 21q-80 0 -145.5 -29.5t-113 -85t-74 -132t-26.5 -170.5q0 -86 24.5 -159t68.5 -126t107.5 -84t141.5 -31t150.5 34t126.5 85v621zM512 -20q-90 0 -168 33.5t-134 96t-88 149.5t-32 196q0 113 34 204t94.5 155.5 t142 99t180.5 34.5q72 0 140.5 -21.5t115.5 -49.5l82 81l-2 -813q0 -43 17 -71.5t81 -26.5l-6 -63q-43 -2 -72 8t-47.5 26.5t-28.5 40t-14 47.5q-53 -47 -128 -86.5t-167 -39.5zM768 1237q0 -82 -61.5 -140.5t-167.5 -58.5t-168 58.5t-62 140.5t61.5 141.5t168.5 59.5 q106 0 167.5 -59.5t61.5 -141.5zM696 1233q0 57 -43 101t-114 44q-72 0 -115 -41t-43 -98t43 -99t115 -42t114.5 39t42.5 96z" />
<glyph horiz-adv-x="1028" d="M795 795q-45 35 -117 56t-143 21q-80 0 -145.5 -29.5t-113 -85t-74 -132t-26.5 -170.5q0 -86 24.5 -159t68.5 -126t107.5 -84t141.5 -31t150.5 34t126.5 85v621zM512 -20q-90 0 -168 33.5t-134 96t-88 149.5t-32 196q0 113 34 204t94.5 155.5t142 99t180.5 34.5 q72 0 140.5 -21.5t115.5 -49.5l82 81l-2 -813q0 -43 17 -71.5t81 -26.5l-6 -63q-43 -2 -72 8t-47.5 26.5t-28.5 40t-14 47.5q-53 -47 -128 -86.5t-167 -39.5zM324 1092l6 77h469l6 -77h-481z" />
<glyph horiz-adv-x="1028" d="M795 795q-45 35 -117 56t-143 21q-80 0 -145.5 -29.5t-113 -85t-74 -132t-26.5 -170.5q0 -86 24.5 -159t68.5 -126t107.5 -84t141.5 -31t150.5 34t126.5 85v621zM512 -20q-90 0 -168 33.5t-134 96t-88 149.5t-32 196q0 113 34 204t94.5 155.5t142 99t180.5 34.5 q72 0 140.5 -21.5t115.5 -49.5l82 81l-2 -813q0 -43 17 -71.5t81 -26.5l-6 -63q-43 -2 -72 8t-47.5 26.5t-28.5 40t-14 47.5q-53 -47 -128 -86.5t-167 -39.5zM852 1415q-14 -59 -34.5 -122.5t-53.5 -117t-80 -88t-112 -34.5q-66 0 -113 34.5t-80 88t-53.5 117t-34.5 122.5 h59q45 -160 97.5 -227.5t124.5 -67.5t124 67.5t97 227.5h59v0z" />
<glyph horiz-adv-x="1028" d="M969 -16q-45 0 -86 -18.5t-73 -50.5t-51.5 -73t-19.5 -86q0 -51 28 -81.5t73 -30.5q27 0 54.5 11t47.5 28l27 -64q-18 -18 -59.5 -34.5t-78.5 -16.5q-72 0 -122 47t-50 127q0 45 16.5 87t45.5 77t66.5 61.5t80.5 38.5q-16 10 -34.5 32.5t-26.5 67.5q-53 -47 -128 -86.5 t-167 -39.5q-90 0 -168 33.5t-134 96t-88 149.5t-32 196q0 113 34 204t94.5 155.5t142 99t180.5 34.5q72 0 140.5 -21.5t115.5 -49.5l80 81v-813q0 -43 17 -71.5t81 -26.5zM795 795q-45 35 -117 56t-143 21q-80 0 -145.5 -29.5t-113 -85t-74 -132t-26.5 -170.5 q0 -86 24.5 -159t68.5 -126t107.5 -84t141.5 -31t150.5 34t126.5 85v621z" />
<glyph horiz-adv-x="1028" d="M879 -27q0 -123 -28 -210t-79 -143t-124 -81.5t-161 -25.5q-100 0 -167.5 16t-120.5 39l20 78q47 -23 111.5 -40.5t156.5 -17.5q70 0 127.5 20.5t97.5 66.5t61.5 120t21.5 180v117q-43 -41 -117 -76.5t-166 -35.5q-90 0 -168 33.5t-134 96t-88 149.5t-32 196 q0 113 34 204t94.5 155.5t142 99t180.5 34.5q72 0 140.5 -21.5t115.5 -49.5l82 81v-985zM795 795q-45 35 -117 56t-143 21q-80 0 -145.5 -29.5t-113 -85t-74 -132t-26.5 -170.5q0 -86 24.5 -159t68.5 -126t107.5 -84t141.5 -31t150.5 34t126.5 85v621zM770 1055l-211 295h-4 l-211 -295h-68l229 362h103l229 -362h-67z" />
<glyph horiz-adv-x="1028" d="M879 -27q0 -123 -28 -210t-79 -143t-124 -81.5t-161 -25.5q-100 0 -167.5 16t-120.5 39l20 78q47 -23 111.5 -40.5t156.5 -17.5q70 0 127.5 20.5t97.5 66.5t61.5 120t21.5 180v117q-43 -41 -117 -76.5t-166 -35.5q-90 0 -168 33.5t-134 96t-88 149.5t-32 196 q0 113 34 204t94.5 155.5t142 99t180.5 34.5q72 0 140.5 -21.5t115.5 -49.5l82 81v-985zM795 795q-45 35 -117 56t-143 21q-80 0 -145.5 -29.5t-113 -85t-74 -132t-26.5 -170.5q0 -86 24.5 -159t68.5 -126t107.5 -84t141.5 -31t150.5 34t126.5 85v621zM835 1415 q-14 -59 -34.5 -122.5t-53.5 -117t-80 -88t-112 -34.5q-66 0 -113 34.5t-80 88t-53.5 117t-34.5 122.5h59q45 -160 97.5 -227.5t124.5 -67.5t124 67.5t97 227.5h59v0z" />
<glyph horiz-adv-x="1028" d="M879 -27q0 -123 -28 -210t-79 -143t-124 -81.5t-161 -25.5q-100 0 -167.5 16t-120.5 39l20 78q47 -23 111.5 -40.5t156.5 -17.5q70 0 127.5 20.5t97.5 66.5t61.5 120t21.5 180v117q-43 -41 -117 -76.5t-166 -35.5q-90 0 -168 33.5t-134 96t-88 149.5t-32 196 q0 113 34 204t94.5 155.5t142 99t180.5 34.5q72 0 140.5 -21.5t115.5 -49.5l82 81v-985zM795 795q-45 35 -117 56t-143 21q-80 0 -145.5 -29.5t-113 -85t-74 -132t-26.5 -170.5q0 -86 24.5 -159t68.5 -126t107.5 -84t141.5 -31t150.5 34t126.5 85v621zM616 1227 q0 -29 -19.5 -52.5t-51.5 -23.5q-33 0 -51.5 23.5t-18.5 52.5t18.5 50t51.5 21t52 -21t19 -50z" />
<glyph horiz-adv-x="1028" d="M879 -27q0 -123 -28 -210t-79 -143t-124 -81.5t-161 -25.5q-100 0 -167.5 16t-120.5 39l20 78q47 -23 111.5 -40.5t156.5 -17.5q70 0 127.5 20.5t97.5 66.5t61.5 120t21.5 180v117q-43 -41 -117 -76.5t-166 -35.5q-90 0 -168 33.5t-134 96t-88 149.5t-32 196 q0 113 34 204t94.5 155.5t142 99t180.5 34.5q72 0 140.5 -21.5t115.5 -49.5l82 81v-985zM795 795q-45 35 -117 56t-143 21q-80 0 -145.5 -29.5t-113 -85t-74 -132t-26.5 -170.5q0 -86 24.5 -159t68.5 -126t107.5 -84t141.5 -31t150.5 34t126.5 85v621zM620.02 1123.99 q0 -30.998 -22.498 -49.9961q-22.499 -18.999 -59.4971 -18.999q-40.9971 0 -69.4951 32.498t-28.498 79.4951q0 62.9961 41.9971 129.992t111.993 115.992l34.998 -28.998q-60.9961 -50.9971 -82.9951 -91.9941t-21.999 -79.9951t24.499 -58.4961 q24.498 -19.499 71.4951 -29.499z" />
<glyph horiz-adv-x="768" d="M629 369q0 -389 -350 -389q-70 0 -138.5 21.5t-109.5 45.5l16 86q51 -35 115.5 -56.5t120.5 -21.5q260 0 260 320v905h86v-911v0zM799 1397l-211 295h-4l-211 -295h-68l229 362h103l229 -362h-67z" />
<glyph horiz-adv-x="313" d="M229 469q0 -31 -20.5 -54.5t-52.5 -23.5q-33 0 -52.5 23.5t-19.5 54.5q0 29 19.5 51.5t52.5 22.5t53 -22.5t20 -51.5z" />
<glyph horiz-adv-x="925" d="M879 0h-88l-103 276h-452l-105 -276h-86l369 967h102zM465 885l-201 -531h395z" />
<glyph horiz-adv-x="927" d="M616 489q111 -18 164.5 -81.5t53.5 -141.5q0 -57 -19.5 -106t-61.5 -84t-107.5 -55.5t-158.5 -20.5h-335v967h323q174 0 251 -73t77 -183q0 -70 -44.5 -133.5t-142.5 -88.5zM717 707q0 82 -59.5 131t-184.5 49h-235v-365h231q111 0 179.5 46.5t68.5 138.5zM748 268 q0 78 -67 127t-208 49h-235v-364h254q135 0 195.5 51t60.5 137z" />
<glyph horiz-adv-x="944" d="M821 831q-55 35 -123.5 55.5t-144.5 20.5q-80 0 -147.5 -27.5t-117.5 -82t-79 -133t-29 -181.5q0 -199 102.5 -311.5t272.5 -112.5q82 0 151.5 22.5t118.5 61.5l17 -84q-53 -35 -128 -56t-161 -21q-104 0 -189 34.5t-144.5 100t-92.5 158t-33 206.5q0 115 34 208 t95.5 158.5t145.5 101.5t184 36q92 0 168 -23.5t127 -54.5z" />
<glyph horiz-adv-x="1009" d="M915 489q0 -231 -137 -360t-385 -129h-241v967h251q119 0 213.5 -35t161 -97.5t102 -151t35.5 -194.5zM827 483q0 188 -112.5 296t-317.5 108h-159v-807h161q94 0 173 24.5t135.5 74.5t88 126t31.5 178z" />
<glyph horiz-adv-x="831" d="M152 0v967h571v-80h-485v-365h405v-78h-405v-364h485v-80h-571z" />
<glyph horiz-adv-x="790" d="M152 967h557v-80h-471v-381h391v-78h-391v-428h-86v967z" />
<glyph horiz-adv-x="1001" d="M180 483q0 -199 102.5 -311.5t272.5 -112.5q143 0 240 62v274h-256v80h340v-397q-70 -47 -155 -71.5t-171 -24.5q-104 0 -189 34.5t-144.5 100t-92.5 158t-33 206.5q0 115 35 208t96.5 158.5t146.5 101.5t187 36q94 0 174 -23.5t131 -56.5l-26 -76q-53 35 -124 56.5 t-157 21.5q-80 0 -149.5 -27.5t-119.5 -82t-79 -133.5t-29 -181z" />
<glyph horiz-adv-x="1054" d="M817 0v446h-579v-446h-86v967h86v-443h579v443h86v-967h-86z" />
<glyph horiz-adv-x="393" d="M154 0v967h86v-967h-86z" />
<glyph horiz-adv-x="690" d="M559 299q0 -141 -68.5 -229t-218.5 -88q-63 0 -121.5 19t-95.5 42l15 84q47 -31 97 -49.5t105 -18.5q203 0 203 242v666h84v-668v0z" />
<glyph horiz-adv-x="858" d="M240 502l460 465h113l-489 -478l495 -489h-112l-467 465h-2v-465h-86v967h86v-465h2z" />
<glyph horiz-adv-x="786" d="M152 0v967h86v-887h471v-80h-557z" />
<glyph horiz-adv-x="1212" d="M1001 0l-20 852l-324 -852h-98l-330 854l-20 -854h-86l31 967h116l340 -881l332 881h117l31 -967h-89z" />
<glyph horiz-adv-x="1044" d="M811 967h84v-977h-94l-568 854v-844h-81v967h98l561 -846v846z" />
<glyph horiz-adv-x="1130" d="M1036 485q0 -111 -35.5 -203t-98 -159.5t-149.5 -104t-188 -36.5q-100 0 -186 36.5t-149.5 102t-99.5 159t-36 203.5q0 111 35 203t98.5 158.5t149.5 103.5t188 37q98 0 184.5 -36t150 -102.5t100 -158.5t36.5 -203zM948 483q0 94 -28.5 172t-81 134.5t-123 87 t-154.5 30.5q-82 0 -151.5 -30.5t-120.5 -86t-80 -133t-29 -172.5q0 -94 30 -173t81 -135t121.5 -87t154.5 -31q82 0 153 31t121 87t78.5 134t28.5 172z" />
<glyph horiz-adv-x="866" d="M778 670q0 -160 -104.5 -238t-284.5 -82l-151 -2v-348h-86v967h254q188 0 280 -82t92 -215zM690 666q0 106 -73.5 163.5t-213.5 57.5h-165v-459h155q143 2 220 58.5t77 179.5z" />
<glyph horiz-adv-x="1130" d="M1065 -147l-37 -74l-387 209q-37 -6 -76 -6q-100 0 -186 36.5t-149.5 102t-99.5 159t-36 203.5q0 111 35 203t98.5 158.5t149.5 103.5t188 37q98 0 184.5 -36t150 -102.5t100 -158.5t36.5 -203q0 -168 -79.5 -291.5t-211.5 -177.5zM948 483q0 94 -28.5 172t-81 134.5 t-123 87t-154.5 30.5q-82 0 -151.5 -30.5t-120.5 -86t-80 -133t-29 -172.5q0 -94 30 -173t81 -135t121.5 -87t154.5 -31q82 0 153 31t121 87t78.5 134t28.5 172z" />
<glyph horiz-adv-x="899" d="M238 0h-86v967h251q188 0 277.5 -78t89.5 -211q0 -109 -58.5 -176.5t-144.5 -98.5l254 -403h-102l-238 383l-243 -14v-369zM418 453q121 4 193.5 61t72.5 160q0 104 -68.5 158.5t-216.5 54.5h-161v-441z" />
<glyph horiz-adv-x="811" d="M395 59q106 0 170 55.5t64 133.5q0 45 -17.5 76.5t-49.5 56.5t-78 43t-101 35q-51 16 -101.5 36.5t-89 51.5t-62.5 74t-24 106q0 55 23 103.5t62.5 82t95 53t121.5 19.5q84 0 156.5 -22.5t129.5 -59.5l-30 -78q-53 37 -121 58.5t-133 21.5q-111 0 -164 -51t-53 -121 q0 -43 17 -72.5t49 -52t77 -40t100 -36.5q51 -16 101.5 -37.5t89.5 -53t62.5 -77t23.5 -108.5q0 -61 -23.5 -111.5t-66.5 -86t-101.5 -56t-128.5 -20.5q-84 0 -162.5 24.5t-142.5 63.5l31 77q63 -41 128.5 -64.5t147.5 -23.5z" />
<glyph horiz-adv-x="888" d="M487 887v-887h-86v887h-340v80h766v-80h-340z" />
<glyph horiz-adv-x="974" d="M846 367q0 -178 -90 -281.5t-271 -103.5q-172 0 -264 99t-92 271v615h84v-607q0 -141 68.5 -220t207.5 -79q137 0 205 79t68 227v600h84v-600v0z" />
<glyph horiz-adv-x="899" d="M500 0h-103l-352 967h86l320 -875l315 875h86z" />
<glyph horiz-adv-x="1429" d="M451 0h-84l-275 967h88l234 -838l252 838h104l258 -838l221 838h88l-270 -967h-84l-264 866z" />
<glyph horiz-adv-x="921" d="M152 0h-101l359 496q-27 35 -54 73q-23 33 -53.5 75t-60.5 87q-74 102 -170 236h102l287 -410l289 410h100l-340 -471l358 -496h-102l-307 436z" />
<glyph horiz-adv-x="860" d="M475 387v-387h-88v389l-336 578h94l289 -494l281 494h96z" />
<glyph horiz-adv-x="849" d="M74 0v63l573 824h-567v80h672v-66l-572 -821h572v-80h-678z" />
<glyph horiz-adv-x="1622" d="M1206 57q53 0 96.5 15.5t74 41t48 60.5t17.5 74q0 45 -17.5 76.5t-50.5 56.5t-79 43t-101 35q-51 16 -101.5 36.5t-89 51.5t-62 74t-23.5 106q0 55 22.5 103.5t62 82t95 53t121.5 19.5q84 0 156.5 -22.5t129.5 -59.5l-30 -76q-53 37 -121 58.5t-133 21.5 q-111 0 -165.5 -52t-54.5 -122q0 -43 17.5 -72.5t49.5 -52t78 -40t101 -36.5q51 -16 101.5 -37.5t89.5 -53t62.5 -77t23.5 -108.5q0 -61 -23.5 -111.5t-66.5 -86t-101.5 -56t-128.5 -20.5q-84 0 -162.5 24.5t-142.5 63.5l31 75q63 -41 128.5 -64.5t147.5 -23.5zM395 57 q53 0 96.5 15.5t74 41t48 60.5t17.5 74q0 45 -17.5 76.5t-50.5 56.5t-79 43t-101 35q-51 16 -101.5 36.5t-89 51.5t-62.5 74t-24 106q0 55 23 103.5t62.5 82t95 53t121.5 19.5q84 0 156.5 -22.5t129.5 -59.5l-30 -76q-53 37 -121 58.5t-133 21.5q-111 0 -165.5 -52 t-54.5 -122q0 -43 17.5 -72.5t49.5 -52t78 -40t101 -36.5q51 -16 101.5 -37.5t89.5 -53t62.5 -77t23.5 -108.5q0 -61 -23.5 -111.5t-66.5 -86t-101.5 -56t-128.5 -20.5q-84 0 -162.5 24.5t-142.5 63.5l31 75q63 -41 128.5 -64.5t147.5 -23.5z" />
<glyph horiz-adv-x="925" d="M879 0h-88l-103 276h-452l-105 -276h-86l369 967h102zM465 885l-201 -531h395zM526 1084l-324 362h119l269 -362h-64z" />
<glyph horiz-adv-x="925" d="M879 0h-88l-103 276h-452l-105 -276h-86l369 967h102zM465 885l-201 -531h395zM403 1084h-63l268 362h119z" />
<glyph horiz-adv-x="925" d="M879 0h-88l-103 276h-452l-105 -276h-86l369 967h102zM465 885l-201 -531h395zM676 1084l-211 295h-4l-211 -295h-68l229 362h103l229 -362h-67z" />
<glyph horiz-adv-x="925" d="M879 0h-88l-103 276h-452l-105 -276h-86l369 967h102zM465 885l-201 -531h395zM776 1307q-39 -213 -166 -213q-41 0 -82 23.5t-81 52t-74.5 52.5t-63.5 24q-35 0 -56.5 -27t-52.5 -115h-51q39 213 166 213q41 0 83 -23.5t82 -52t75 -52t61 -23.5q33 0 55.5 26.5 t51.5 114.5h53v0z" />
<glyph horiz-adv-x="925" d="M879 0h-88l-103 276h-452l-105 -276h-86l369 967h102zM465 885l-201 -531h395zM719 1256q0 -29 -19.5 -52.5t-50.5 -23.5q-33 0 -53.5 23.5t-20.5 52.5t20.5 50t53.5 21q31 0 50.5 -21t19.5 -50zM348 1256q0 -29 -19.5 -52.5t-52.5 -23.5t-51 23.5t-18 52.5t18 50t51 21 t52.5 -21t19.5 -50z" />
<glyph horiz-adv-x="925" d="M393 915q-74 18 -115.5 70.5t-41.5 120.5q0 82 61 141.5t168 59.5q106 0 167.5 -59.5t61.5 -141.5q0 -68 -42 -120t-117 -71l342 -915h-86l-103 276h-452l-105 -276h-86zM623 1102q0 57 -43 101t-115 44t-115 -41t-43 -98t43 -99t115 -42t115 39t43 96zM465 885 l-201 -531h395z" />
<glyph horiz-adv-x="925" d="M879 0h-88l-103 276h-452l-105 -276h-86l369 967h102zM465 885l-201 -531h395zM366 1495h-63l268 362h119zM694 1266q0 -82 -61.5 -140.5t-167.5 -58.5t-168 58.5t-62 140.5t61.5 141.5t168.5 59.5q106 0 167.5 -59.5t61.5 -141.5zM622 1262q0 57 -43 101t-114 44 q-72 0 -115 -41t-43 -98t43 -99t115 -42t114.5 39t42.5 96z" />
<glyph horiz-adv-x="925" d="M879 0h-88l-103 276h-452l-105 -276h-86l369 967h102zM465 885l-201 -531h395zM225 1121l6 77h469l6 -77h-481z" />
<glyph horiz-adv-x="925" d="M879 0h-88l-103 276h-452l-105 -276h-86l369 967h102zM465 885l-201 -531h395zM743 1444q-14 -59 -34.5 -122.5t-53.5 -117t-80 -88t-112 -34.5q-66 0 -113 34.5t-80 88t-53.5 117t-34.5 122.5h59q45 -160 97.5 -227.5t124.5 -67.5t124 67.5t97 227.5h59v0z" />
<glyph horiz-adv-x="925" d="M877 0q-45 -6 -86 -32.5t-72 -62.5t-49.5 -76t-18.5 -73q0 -51 28 -81.5t73 -30.5q27 0 54.5 11t47.5 28l27 -66q-23 -18 -59 -33.5t-79 -15.5q-72 0 -122 47t-50 127q0 49 18.5 92t47.5 81t65.5 69.5t73.5 54.5l-88 237h-452l-105 -276h-86l369 967h102zM465 885 l-201 -531h395z" />
<glyph horiz-adv-x="1331" d="M135 0h-90l555 967h623v-80h-488v-363h406v-80h-406v-364h488v-80h-574v276h-356zM649 354v537l-309 -537h309z" />
<glyph horiz-adv-x="1331" d="M135 0h-90l555 967h623v-80h-488v-363h406v-80h-406v-364h488v-80h-574v276h-356zM649 354v537l-309 -537h309zM852 1084h-63l268 362h119z" />
<glyph horiz-adv-x="944" d="M502 -16q-94 8 -169 47t-128 103.5t-82 151.5t-29 195q0 115 34 208t95.5 158.5t145.5 101.5t184 36q92 0 168 -23.5t127 -54.5l-27 -76q-55 35 -123.5 55.5t-144.5 20.5q-80 0 -147.5 -27.5t-117.5 -82t-79 -133t-29 -181.5q0 -199 102.5 -311.5t272.5 -112.5 q82 0 151.5 22.5t118.5 61.5l17 -84q-47 -31 -116 -52t-146 -25l-123 -119q49 4 95 -4.5t80 -30t54.5 -55t20.5 -82.5q0 -80 -82 -144.5t-236 -74.5l-8 61q123 8 187.5 47t64.5 105q0 84 -84 106.5t-207 -4.5l-6 33l166 164v0z" />
<glyph horiz-adv-x="944" d="M821 831q-55 35 -123.5 55.5t-144.5 20.5q-80 0 -147.5 -27.5t-117.5 -82t-79 -133t-29 -181.5q0 -199 102.5 -311.5t272.5 -112.5q82 0 151.5 22.5t118.5 61.5l17 -84q-53 -35 -128 -56t-161 -21q-104 0 -189 34.5t-144.5 100t-92.5 158t-33 206.5q0 115 34 208 t95.5 158.5t145.5 101.5t184 36q92 0 168 -23.5t127 -54.5zM411 1084h-63l268 362h119z" />
<glyph horiz-adv-x="944" d="M821 831q-55 35 -123.5 55.5t-144.5 20.5q-80 0 -147.5 -27.5t-117.5 -82t-79 -133t-29 -181.5q0 -199 102.5 -311.5t272.5 -112.5q82 0 151.5 22.5t118.5 61.5l17 -84q-53 -35 -128 -56t-161 -21q-104 0 -189 34.5t-144.5 100t-92.5 158t-33 206.5q0 115 34 208 t95.5 158.5t145.5 101.5t184 36q92 0 168 -23.5t127 -54.5zM746 1084l-211 295h-4l-211 -295h-68l229 362h103l229 -362h-67z" />
<glyph horiz-adv-x="944" d="M821 831q-55 35 -123.5 55.5t-144.5 20.5q-80 0 -147.5 -27.5t-117.5 -82t-79 -133t-29 -181.5q0 -199 102.5 -311.5t272.5 -112.5q82 0 151.5 22.5t118.5 61.5l17 -84q-53 -35 -128 -56t-161 -21q-104 0 -189 34.5t-144.5 100t-92.5 158t-33 206.5q0 115 34 208 t95.5 158.5t145.5 101.5t184 36q92 0 168 -23.5t127 -54.5zM602 1256q0 -29 -19.5 -52.5t-51.5 -23.5q-33 0 -51.5 23.5t-18.5 52.5t18.5 50t51.5 21t52 -21t19 -50z" />
<glyph horiz-adv-x="944" d="M821 831q-55 35 -123.5 55.5t-144.5 20.5q-80 0 -147.5 -27.5t-117.5 -82t-79 -133t-29 -181.5q0 -199 102.5 -311.5t272.5 -112.5q82 0 151.5 22.5t118.5 61.5l17 -84q-53 -35 -128 -56t-161 -21q-104 0 -189 34.5t-144.5 100t-92.5 158t-33 206.5q0 115 34 208 t95.5 158.5t145.5 101.5t184 36q92 0 168 -23.5t127 -54.5zM584 1063h-103l-229 363h68l211 -295h4l211 295h67z" />
<glyph horiz-adv-x="1009" d="M915 489q0 -231 -137 -360t-385 -129h-241v967h251q119 0 213.5 -35t161 -97.5t102 -151t35.5 -194.5zM827 483q0 188 -112.5 296t-317.5 108h-159v-807h161q94 0 173 24.5t135.5 74.5t88 126t31.5 178zM514 1063h-103l-229 363h68l211 -295h4l211 295h67z" />
<glyph horiz-adv-x="1058" d="M956 489q0 -231 -137 -360t-385 -129h-241v451h-160v75h160v441h251q119 0 213.5 -35t161 -97.5t102 -151t35.5 -194.5zM868 483q0 188 -112.5 296t-317.5 108h-159v-361h303v-75h-303v-371h161q94 0 173 24.5t135.5 74.5t88 126t31.5 178z" />
<glyph horiz-adv-x="1058" d="M956 489q0 -231 -137 -360t-385 -129h-241v451h-160v75h160v441h251q119 0 213.5 -35t161 -97.5t102 -151t35.5 -194.5zM868 483q0 188 -112.5 296t-317.5 108h-159v-361h303v-75h-303v-371h161q94 0 173 24.5t135.5 74.5t88 126t31.5 178z" />
<glyph horiz-adv-x="831" d="M152 0v967h571v-80h-485v-365h405v-78h-405v-364h485v-80h-571zM479 1084l-324 362h119l269 -362h-64z" />
<glyph horiz-adv-x="831" d="M152 0v967h571v-80h-485v-365h405v-78h-405v-364h485v-80h-571zM356 1084h-63l268 362h119z" />
<glyph horiz-adv-x="831" d="M152 0v967h571v-80h-485v-365h405v-78h-405v-364h485v-80h-571zM629 1084l-211 295h-4l-211 -295h-68l229 362h103l229 -362h-67z" />
<glyph horiz-adv-x="831" d="M152 0v967h571v-80h-485v-365h405v-78h-405v-364h485v-80h-571zM672 1256q0 -29 -19.5 -52.5t-50.5 -23.5q-33 0 -53.5 23.5t-20.5 52.5t20.5 50t53.5 21q31 0 50.5 -21t19.5 -50zM301 1256q0 -29 -19.5 -52.5t-52.5 -23.5t-51 23.5t-18 52.5t18 50t51 21t52.5 -21 t19.5 -50z" />
<glyph horiz-adv-x="831" d="M152 0v967h571v-80h-485v-365h405v-78h-405v-364h485v-80h-571zM178 1121l6 77h469l6 -77h-481z" />
<glyph horiz-adv-x="831" d="M152 0v967h571v-80h-485v-365h405v-78h-405v-364h485v-80h-571zM696 1444q-14 -59 -34.5 -122.5t-53.5 -117t-80 -88t-112 -34.5q-66 0 -113 34.5t-80 88t-53.5 117t-34.5 122.5h59q45 -160 97.5 -227.5t124.5 -67.5t124 67.5t97 227.5h59v0z" />
<glyph horiz-adv-x="831" d="M152 0v967h571v-80h-485v-365h405v-78h-405v-364h485v-80h-571zM485 1256q0 -29 -19.5 -52.5t-51.5 -23.5q-33 0 -51.5 23.5t-18.5 52.5t18.5 50t51.5 21t52 -21t19 -50z" />
<glyph horiz-adv-x="831" d="M633 0q-139 -119 -139 -244q0 -51 27.5 -81.5t72.5 -30.5q27 0 54.5 11t47.5 28l27 -66q-23 -18 -58.5 -33.5t-78.5 -15.5q-72 0 -122 47t-50 127t46 145.5t105 112.5h-413v967h571v-80h-485v-365h405v-78h-405v-364h485v-80h-90z" />
<glyph horiz-adv-x="831" d="M152 0v967h571v-80h-485v-365h405v-78h-405v-364h485v-80h-571zM481 1063h-103l-229 363h68l211 -295h4l211 295h67z" />
<glyph horiz-adv-x="1001" d="M180 483q0 -199 102.5 -311.5t272.5 -112.5q143 0 240 62v274h-256v80h340v-397q-70 -47 -155 -71.5t-171 -24.5q-104 0 -189 34.5t-144.5 100t-92.5 158t-33 206.5q0 115 35 208t96.5 158.5t146.5 101.5t187 36q94 0 174 -23.5t131 -56.5l-26 -76q-53 35 -124 56.5 t-157 21.5q-80 0 -149.5 -27.5t-119.5 -82t-79 -133.5t-29 -181zM754 1084l-211 295h-4l-211 -295h-68l229 362h103l229 -362h-67z" />
<glyph horiz-adv-x="1001" d="M180 483q0 -199 102.5 -311.5t272.5 -112.5q143 0 240 62v274h-256v80h340v-397q-70 -47 -155 -71.5t-171 -24.5q-104 0 -189 34.5t-144.5 100t-92.5 158t-33 206.5q0 115 35 208t96.5 158.5t146.5 101.5t187 36q94 0 174 -23.5t131 -56.5l-26 -76q-53 35 -124 56.5 t-157 21.5q-80 0 -149.5 -27.5t-119.5 -82t-79 -133.5t-29 -181zM821 1444q-14 -59 -34.5 -122.5t-53.5 -117t-80 -88t-112 -34.5q-66 0 -113 34.5t-80 88t-53.5 117t-34.5 122.5h59q45 -160 97.5 -227.5t124.5 -67.5t124 67.5t97 227.5h59v0z" />
<glyph horiz-adv-x="1001" d="M180 483q0 -199 102.5 -311.5t272.5 -112.5q143 0 240 62v274h-256v80h340v-397q-70 -47 -155 -71.5t-171 -24.5q-104 0 -189 34.5t-144.5 100t-92.5 158t-33 206.5q0 115 35 208t96.5 158.5t146.5 101.5t187 36q94 0 174 -23.5t131 -56.5l-26 -76q-53 35 -124 56.5 t-157 21.5q-80 0 -149.5 -27.5t-119.5 -82t-79 -133.5t-29 -181zM610 1256q0 -29 -19.5 -52.5t-51.5 -23.5q-33 0 -51.5 23.5t-18.5 52.5t18.5 50t51.5 21t52 -21t19 -50z" />
<glyph horiz-adv-x="1001" d="M180 483q0 -199 102.5 -311.5t272.5 -112.5q143 0 240 62v274h-256v80h340v-397q-70 -47 -155 -71.5t-171 -24.5q-104 0 -189 34.5t-144.5 100t-92.5 158t-33 206.5q0 115 35 208t96.5 158.5t146.5 101.5t187 36q94 0 174 -23.5t131 -56.5l-26 -76q-53 35 -124 56.5 t-157 21.5q-80 0 -149.5 -27.5t-119.5 -82t-79 -133.5t-29 -181zM435 -184q0 31 22.5 50t59.5 19q41 0 69.5 -32.5t28.5 -79.5q0 -63 -42 -130t-112 -116l-35 29q61 51 83 92t22 80t-24.5 58.5t-71.5 29.5z" />
<glyph horiz-adv-x="1054" d="M817 0v446h-579v-446h-86v967h86v-443h579v443h86v-967h-86zM740 1084l-211 295h-4l-211 -295h-68l229 362h103l229 -362h-67z" />
<glyph horiz-adv-x="1054" d="M817 0v446h-579v-446h-86v707h-148l6 59h142v201h86v-201h579v201h86v-201h129l6 -59h-135v-707h-86zM817 524v183h-579v-183h579z" />
<glyph horiz-adv-x="393" d="M154 0v967h86v-967h-86zM260 1084l-324 362h119l269 -362h-64z" />
<glyph horiz-adv-x="393" d="M154 0v967h86v-967h-86zM137 1084h-63l268 362h119z" />
<glyph horiz-adv-x="393" d="M154 0v967h86v-967h-86zM410 1084l-211 295h-4l-211 -295h-68l229 362h103l229 -362h-67z" />
<glyph horiz-adv-x="393" d="M154 0v967h86v-967h-86zM453 1256q0 -29 -19.5 -52.5t-50.5 -23.5q-33 0 -53.5 23.5t-20.5 52.5t20.5 50t53.5 21q31 0 50.5 -21t19.5 -50zM82 1256q0 -29 -19.5 -52.5t-52.5 -23.5t-51 23.5t-18 52.5t18 50t51 21t52.5 -21t19.5 -50z" />
<glyph horiz-adv-x="393" d="M154 0v967h86v-967h-86zM-41 1121l6 77h469l6 -77h-481z" />
<glyph horiz-adv-x="393" d="M154 0v967h86v-967h-86zM477 1444q-14 -59 -34.5 -122.5t-53.5 -117t-80 -88t-112 -34.5q-66 0 -113 34.5t-80 88t-53.5 117t-34.5 122.5h59q45 -160 97.5 -227.5t124.5 -67.5t124 67.5t97 227.5h59v0z" />
<glyph horiz-adv-x="393" d="M193 -432q-72 0 -122.5 47t-50.5 127t45.5 145.5t106.5 112.5h-18v967h86v-967q-72 -61 -106 -119.5t-34 -124.5q0 -51 28 -81.5t73 -30.5q27 0 54.5 11t47.5 28l27 -66q-23 -18 -58.5 -33.5t-78.5 -15.5z" />
<glyph horiz-adv-x="393" d="M266 1227q0 -29 -19.5 -52.5t-51.5 -23.5q-33 0 -51.5 23.5t-18.5 52.5t18.5 50t51.5 21t52 -21t19 -50zM154 0v967h86v-967h-86z" />
<glyph horiz-adv-x="393" d="M154 0v967h86v-967h-86z" />
<glyph horiz-adv-x="690" d="M559 299q0 -141 -68.5 -229t-218.5 -88q-63 0 -121.5 19t-95.5 42l15 84q47 -31 97 -49.5t105 -18.5q203 0 203 242v666h84v-668v0zM732 1084l-211 295h-4l-211 -295h-68l229 362h103l229 -362h-67z" />
<glyph horiz-adv-x="690" d="M559 299q0 -141 -68.5 -229t-218.5 -88q-63 0 -121.5 19t-95.5 42l15 84q47 -31 97 -49.5t105 -18.5q203 0 203 242v666h84v-668v0z" />
<glyph horiz-adv-x="858" d="M240 502l460 465h113l-489 -478l495 -489h-112l-467 465h-2v-465h-86v967h86v-465h2zM342 -184q0 31 22.5 50t59.5 19q41 0 69.5 -32.5t28.5 -79.5q0 -63 -42 -130t-112 -116l-35 29q61 51 83 92t22 80t-24.5 58.5t-71.5 29.5z" />
<glyph horiz-adv-x="786" d="M152 0v967h86v-887h471v-80h-557zM231 1084h-63l268 362h119z" />
<glyph horiz-adv-x="786" d="M152 0v967h86v-887h471v-80h-557zM308 -184q0 31 22.5 50t59.5 19q41 0 69.5 -32.5t28.5 -79.5q0 -63 -42 -130t-112 -116l-35 29q61 51 83 92t22 80t-24.5 58.5t-71.5 29.5z" />
<glyph horiz-adv-x="1099" d="M760 901q0 29 23.5 55.5t60.5 26.5q47 0 82 -37t35 -100q0 -78 -55.5 -162t-149.5 -143l-39 34q86 63 118.5 119t32.5 111q0 41 -27.5 61.5t-80.5 34.5zM152 0v967h86v-887h471v-80h-557z" />
<glyph horiz-adv-x="1015" d="M944 559q0 -31 -20.5 -54.5t-53.5 -23.5t-52 23.5t-19 54.5q0 29 19.5 51.5t51.5 22.5q33 0 53.5 -22.5t20.5 -51.5zM152 0v967h86v-887h471v-80h-557z" />
<glyph horiz-adv-x="827" d="M279 80h471v-80h-557v418l-156 -43v76l156 43v473h86v-451l102 29l102 28v-75l-204 -58v-360z" />
<glyph horiz-adv-x="1044" d="M811 967h84v-977h-94l-568 854v-844h-81v967h98l561 -846v846zM836 1307q-39 -213 -166 -213q-41 0 -82 23.5t-81 52t-74.5 52.5t-63.5 24q-35 0 -56.5 -27t-52.5 -115h-51q39 213 166 213q41 0 83 -23.5t82 -52t75 -52t61 -23.5q33 0 55.5 26.5t51.5 114.5h53v0z" />
<glyph horiz-adv-x="1044" d="M811 967h84v-977h-94l-568 854v-844h-81v967h98l561 -846v846zM463 1084h-63l268 362h119z" />
<glyph horiz-adv-x="1044" d="M811 967h84v-977h-94l-568 854v-844h-81v967h98l561 -846v846zM437 -184q0 31 22.5 50t59.5 19q41 0 69.5 -32.5t28.5 -79.5q0 -63 -42 -130t-112 -116l-35 29q61 51 83 92t22 80t-24.5 58.5t-71.5 29.5z" />
<glyph horiz-adv-x="1044" d="M811 967h84v-977h-94l-568 854v-844h-81v967h98l561 -846v846zM574 1063h-103l-229 363h68l211 -295h4l211 295h67z" />
<glyph horiz-adv-x="1130" d="M1036 485q0 -111 -35.5 -203t-98 -159.5t-149.5 -104t-188 -36.5q-100 0 -186 36.5t-149.5 102t-99.5 159t-36 203.5q0 111 35 203t98.5 158.5t149.5 103.5t188 37q98 0 184.5 -36t150 -102.5t100 -158.5t36.5 -203zM948 483q0 94 -28.5 172t-81 134.5t-123 87 t-154.5 30.5q-82 0 -151.5 -30.5t-120.5 -86t-80 -133t-29 -172.5q0 -94 30 -173t81 -135t121.5 -87t154.5 -31q82 0 153 31t121 87t78.5 134t28.5 172zM629 1084l-324 362h119l269 -362h-64z" />
<glyph horiz-adv-x="1130" d="M1036 485q0 -111 -35.5 -203t-98 -159.5t-149.5 -104t-188 -36.5q-100 0 -186 36.5t-149.5 102t-99.5 159t-36 203.5q0 111 35 203t98.5 158.5t149.5 103.5t188 37q98 0 184.5 -36t150 -102.5t100 -158.5t36.5 -203zM948 483q0 94 -28.5 172t-81 134.5t-123 87 t-154.5 30.5q-82 0 -151.5 -30.5t-120.5 -86t-80 -133t-29 -172.5q0 -94 30 -173t81 -135t121.5 -87t154.5 -31q82 0 153 31t121 87t78.5 134t28.5 172zM506 1084h-63l268 362h119z" />
<glyph horiz-adv-x="1130" d="M1036 485q0 -111 -35.5 -203t-98 -159.5t-149.5 -104t-188 -36.5q-100 0 -186 36.5t-149.5 102t-99.5 159t-36 203.5q0 111 35 203t98.5 158.5t149.5 103.5t188 37q98 0 184.5 -36t150 -102.5t100 -158.5t36.5 -203zM948 483q0 94 -28.5 172t-81 134.5t-123 87 t-154.5 30.5q-82 0 -151.5 -30.5t-120.5 -86t-80 -133t-29 -172.5q0 -94 30 -173t81 -135t121.5 -87t154.5 -31q82 0 153 31t121 87t78.5 134t28.5 172zM779 1084l-211 295h-4l-211 -295h-68l229 362h103l229 -362h-67z" />
<glyph horiz-adv-x="1130" d="M1036 485q0 -111 -35.5 -203t-98 -159.5t-149.5 -104t-188 -36.5q-100 0 -186 36.5t-149.5 102t-99.5 159t-36 203.5q0 111 35 203t98.5 158.5t149.5 103.5t188 37q98 0 184.5 -36t150 -102.5t100 -158.5t36.5 -203zM948 483q0 94 -28.5 172t-81 134.5t-123 87 t-154.5 30.5q-82 0 -151.5 -30.5t-120.5 -86t-80 -133t-29 -172.5q0 -94 30 -173t81 -135t121.5 -87t154.5 -31q82 0 153 31t121 87t78.5 134t28.5 172zM879 1307q-39 -213 -166 -213q-41 0 -82 23.5t-81 52t-74.5 52.5t-63.5 24q-35 0 -56.5 -27t-52.5 -115h-51 q39 213 166 213q41 0 83 -23.5t82 -52t75 -52t61 -23.5q33 0 55.5 26.5t51.5 114.5h53v0z" />
<glyph horiz-adv-x="1130" d="M1036 485q0 -111 -35.5 -203t-98 -159.5t-149.5 -104t-188 -36.5q-100 0 -186 36.5t-149.5 102t-99.5 159t-36 203.5q0 111 35 203t98.5 158.5t149.5 103.5t188 37q98 0 184.5 -36t150 -102.5t100 -158.5t36.5 -203zM948 483q0 94 -28.5 172t-81 134.5t-123 87 t-154.5 30.5q-82 0 -151.5 -30.5t-120.5 -86t-80 -133t-29 -172.5q0 -94 30 -173t81 -135t121.5 -87t154.5 -31q82 0 153 31t121 87t78.5 134t28.5 172zM822 1256q0 -29 -19.5 -52.5t-50.5 -23.5q-33 0 -53.5 23.5t-20.5 52.5t20.5 50t53.5 21q31 0 50.5 -21t19.5 -50z M451 1256q0 -29 -19.5 -52.5t-52.5 -23.5t-51 23.5t-18 52.5t18 50t51 21t52.5 -21t19.5 -50z" />
<glyph horiz-adv-x="1130" d="M1036 485q0 -111 -35.5 -203t-98 -159.5t-149.5 -104t-188 -36.5q-100 0 -186 36.5t-149.5 102t-99.5 159t-36 203.5q0 111 35 203t98.5 158.5t149.5 103.5t188 37q98 0 184.5 -36t150 -102.5t100 -158.5t36.5 -203zM948 483q0 94 -28.5 172t-81 134.5t-123 87 t-154.5 30.5q-82 0 -151.5 -30.5t-120.5 -86t-80 -133t-29 -172.5q0 -94 30 -173t81 -135t121.5 -87t154.5 -31q82 0 153 31t121 87t78.5 134t28.5 172zM328 1121l6 77h469l6 -77h-481z" />
<glyph horiz-adv-x="1130" d="M1036 485q0 -111 -35.5 -203t-98 -159.5t-149.5 -104t-188 -36.5q-100 0 -186 36.5t-149.5 102t-99.5 159t-36 203.5q0 111 35 203t98.5 158.5t149.5 103.5t188 37q98 0 184.5 -36t150 -102.5t100 -158.5t36.5 -203zM948 483q0 94 -28.5 172t-81 134.5t-123 87 t-154.5 30.5q-82 0 -151.5 -30.5t-120.5 -86t-80 -133t-29 -172.5q0 -94 30 -173t81 -135t121.5 -87t154.5 -31q82 0 153 31t121 87t78.5 134t28.5 172zM846 1444q-14 -59 -34.5 -122.5t-53.5 -117t-80 -88t-112 -34.5q-66 0 -113 34.5t-80 88t-53.5 117t-34.5 122.5h59 q45 -160 97.5 -227.5t124.5 -67.5t124 67.5t97 227.5h59v0z" />
<glyph horiz-adv-x="1130" d="M1036 485q0 -111 -35.5 -203t-98 -159.5t-149.5 -104t-188 -36.5q-100 0 -186 36.5t-149.5 102t-99.5 159t-36 203.5q0 111 35 203t98.5 158.5t149.5 103.5t188 37q98 0 184.5 -36t150 -102.5t100 -158.5t36.5 -203zM948 483q0 94 -28.5 172t-81 134.5t-123 87 t-154.5 30.5q-82 0 -151.5 -30.5t-120.5 -86t-80 -133t-29 -172.5q0 -94 30 -173t81 -135t121.5 -87t154.5 -31q82 0 153 31t121 87t78.5 134t28.5 172zM693 1063h-66l242 363h100zM390 1063h-66l242 363h100z" />
<glyph horiz-adv-x="1130" d="M383 104q84 -47 184 -47q82 0 153 32t121 88t78.5 134t28.5 172q0 111 -39 198t-108 144zM743 864q-84 45 -182 45q-82 0 -151.5 -30.5t-120.5 -87t-80 -134t-29 -172.5q0 -111 39 -197.5t107 -144.5zM285 72q-88 66 -139.5 171t-51.5 240q0 111 35 203t98.5 158.5 t149.5 103.5t188 37q119 0 217 -51l101 170h80l-121 -207q90 -66 142 -171t52 -241q0 -111 -35.5 -203t-98 -159.5t-149.5 -104t-188 -36.5q-121 0 -221 53l-100 -172h-80z" />
<glyph horiz-adv-x="1130" d="M383 104q84 -47 184 -47q82 0 153 32t121 88t78.5 134t28.5 172q0 111 -39 198t-108 144zM743 864q-84 45 -182 45q-82 0 -151.5 -30.5t-120.5 -87t-80 -134t-29 -172.5q0 -111 39 -197.5t107 -144.5zM285 72q-88 66 -139.5 171t-51.5 240q0 111 35 203t98.5 158.5 t149.5 103.5t188 37q119 0 217 -51l101 170h80l-121 -207q90 -66 142 -171t52 -241q0 -111 -35.5 -203t-98 -159.5t-149.5 -104t-188 -36.5q-121 0 -221 53l-100 -172h-80zM506 1084h-63l268 362h119z" />
<glyph horiz-adv-x="1452" d="M1343 887h-485v-363h406v-80h-406v-364h485v-80h-737q-119 0 -213 35t-160.5 97.5t-102.5 150.5t-36 194q0 231 137.5 360.5t384.5 129.5h727v-80zM182 483q0 -188 113 -295.5t317 -107.5h160v807h-162q-94 0 -173 -24.5t-135 -75t-88 -126.5t-32 -178z" />
<glyph horiz-adv-x="866" d="M778 494q0 -160 -104.5 -238t-284.5 -82l-151 -2v-172h-86v967h86v-176h168q188 0 280 -82t92 -215zM690 489q0 106 -73.5 164t-213.5 58h-165v-459h155q143 2 220 58t77 179z" />
<glyph horiz-adv-x="899" d="M238 0h-86v967h251q188 0 277.5 -78t89.5 -211q0 -109 -58.5 -176.5t-144.5 -98.5l254 -403h-102l-238 383l-243 -14v-369zM418 453q121 4 193.5 61t72.5 160q0 104 -68.5 158.5t-216.5 54.5h-161v-441zM389 1084h-63l268 362h119z" />
<glyph horiz-adv-x="899" d="M238 0h-86v967h251q188 0 277.5 -78t89.5 -211q0 -109 -58.5 -176.5t-144.5 -98.5l254 -403h-102l-238 383l-243 -14v-369zM418 453q121 4 193.5 61t72.5 160q0 104 -68.5 158.5t-216.5 54.5h-161v-441zM363 -184q0 31 22.5 50t59.5 19q41 0 69.5 -32.5t28.5 -79.5 q0 -63 -42 -130t-112 -116l-35 29q61 51 83 92t22 80t-24.5 58.5t-71.5 29.5z" />
<glyph horiz-adv-x="899" d="M238 0h-86v967h251q188 0 277.5 -78t89.5 -211q0 -109 -58.5 -176.5t-144.5 -98.5l254 -403h-102l-238 383l-243 -14v-369zM418 453q121 4 193.5 61t72.5 160q0 104 -68.5 158.5t-216.5 54.5h-161v-441zM500 1063h-103l-229 363h68l211 -295h4l211 295h67z" />
<glyph horiz-adv-x="811" d="M395 59q106 0 170 55.5t64 133.5q0 45 -17.5 76.5t-49.5 56.5t-78 43t-101 35q-51 16 -101.5 36.5t-89 51.5t-62.5 74t-24 106q0 55 23 103.5t62.5 82t95 53t121.5 19.5q84 0 156.5 -22.5t129.5 -59.5l-30 -78q-53 37 -121 58.5t-133 21.5q-111 0 -164 -51t-53 -121 q0 -43 17 -72.5t49 -52t77 -40t100 -36.5q51 -16 101.5 -37.5t89.5 -53t62.5 -77t23.5 -108.5q0 -61 -23.5 -111.5t-66.5 -86t-101.5 -56t-128.5 -20.5q-84 0 -162.5 24.5t-142.5 63.5l31 77q63 -41 128.5 -64.5t147.5 -23.5zM346 1084h-63l268 362h119z" />
<glyph horiz-adv-x="811" d="M395 59q106 0 170 55.5t64 133.5q0 45 -17.5 76.5t-49.5 56.5t-78 43t-101 35q-51 16 -101.5 36.5t-89 51.5t-62.5 74t-24 106q0 55 23 103.5t62.5 82t95 53t121.5 19.5q84 0 156.5 -22.5t129.5 -59.5l-30 -78q-53 37 -121 58.5t-133 21.5q-111 0 -164 -51t-53 -121 q0 -43 17 -72.5t49 -52t77 -40t100 -36.5q51 -16 101.5 -37.5t89.5 -53t62.5 -77t23.5 -108.5q0 -61 -23.5 -111.5t-66.5 -86t-101.5 -56t-128.5 -20.5q-84 0 -162.5 24.5t-142.5 63.5l31 77q63 -41 128.5 -64.5t147.5 -23.5zM619 1084l-211 295h-4l-211 -295h-68l229 362 h103l229 -362h-67z" />
<glyph horiz-adv-x="811" d="M377 -137q49 4 95 -4.5t80 -30t54.5 -55t20.5 -82.5q0 -80 -82 -144.5t-236 -74.5l-8 61q123 8 187.5 47t64.5 105q0 84 -84 106.5t-207 -4.5l-6 33l164 164q-6 -2 -13.5 -2h-13.5q-84 0 -162.5 24.5t-142.5 63.5l31 77q63 -41 128.5 -64.5t147.5 -23.5q106 0 170 55.5 t64 133.5q0 45 -17.5 76.5t-49.5 56.5t-78 43t-101 35q-51 16 -101.5 36.5t-89 51.5t-62.5 74t-24 106q0 55 23 103.5t62.5 82t95 53t121.5 19.5q84 0 156.5 -22.5t129.5 -59.5l-30 -78q-53 37 -121 58.5t-133 21.5q-111 0 -164 -51t-53 -121q0 -43 17 -72.5t49 -52t77 -40 t100 -36.5q51 -16 101.5 -37.5t89.5 -53t62.5 -77t23.5 -108.5q0 -92 -52.5 -158.5t-140.5 -95.5l-143 -139v0z" />
<glyph horiz-adv-x="811" d="M395 59q106 0 170 55.5t64 133.5q0 45 -17.5 76.5t-49.5 56.5t-78 43t-101 35q-51 16 -101.5 36.5t-89 51.5t-62.5 74t-24 106q0 55 23 103.5t62.5 82t95 53t121.5 19.5q84 0 156.5 -22.5t129.5 -59.5l-30 -78q-53 37 -121 58.5t-133 21.5q-111 0 -164 -51t-53 -121 q0 -43 17 -72.5t49 -52t77 -40t100 -36.5q51 -16 101.5 -37.5t89.5 -53t62.5 -77t23.5 -108.5q0 -61 -23.5 -111.5t-66.5 -86t-101.5 -56t-128.5 -20.5q-84 0 -162.5 24.5t-142.5 63.5l31 77q63 -41 128.5 -64.5t147.5 -23.5zM320 -184q0 31 22.5 50t59.5 19 q41 0 69.5 -32.5t28.5 -79.5q0 -63 -42 -130t-112 -116l-35 29q61 51 83 92t22 80t-24.5 58.5t-71.5 29.5z" />
<glyph horiz-adv-x="811" d="M395 59q106 0 170 55.5t64 133.5q0 45 -17.5 76.5t-49.5 56.5t-78 43t-101 35q-51 16 -101.5 36.5t-89 51.5t-62.5 74t-24 106q0 55 23 103.5t62.5 82t95 53t121.5 19.5q84 0 156.5 -22.5t129.5 -59.5l-30 -78q-53 37 -121 58.5t-133 21.5q-111 0 -164 -51t-53 -121 q0 -43 17 -72.5t49 -52t77 -40t100 -36.5q51 -16 101.5 -37.5t89.5 -53t62.5 -77t23.5 -108.5q0 -61 -23.5 -111.5t-66.5 -86t-101.5 -56t-128.5 -20.5q-84 0 -162.5 24.5t-142.5 63.5l31 77q63 -41 128.5 -64.5t147.5 -23.5zM457 1063h-103l-229 363h68l211 -295h4l211 295 h67z" />
<glyph horiz-adv-x="888" d="M487 887v-887h-86v887h-340v80h766v-80h-340zM359 -184q0 31 22.5 50t59.5 19q41 0 69.5 -32.5t28.5 -79.5q0 -63 -42 -130t-112 -116l-35 29q61 51 83 92t22 80t-24.5 58.5t-71.5 29.5z" />
<glyph horiz-adv-x="888" d="M487 887v-887h-86v887h-340v80h766v-80h-340zM496 1063h-103l-229 363h68l211 -295h4l211 295h67z" />
<glyph horiz-adv-x="974" d="M846 367q0 -178 -90 -281.5t-271 -103.5q-172 0 -264 99t-92 271v615h84v-607q0 -141 68.5 -220t207.5 -79q137 0 205 79t68 227v600h84v-600v0zM551 1084l-324 362h119l269 -362h-64z" />
<glyph horiz-adv-x="974" d="M846 367q0 -178 -90 -281.5t-271 -103.5q-172 0 -264 99t-92 271v615h84v-607q0 -141 68.5 -220t207.5 -79q137 0 205 79t68 227v600h84v-600v0zM428 1084h-63l268 362h119z" />
<glyph horiz-adv-x="974" d="M846 367q0 -178 -90 -281.5t-271 -103.5q-172 0 -264 99t-92 271v615h84v-607q0 -141 68.5 -220t207.5 -79q137 0 205 79t68 227v600h84v-600v0zM701 1084l-211 295h-4l-211 -295h-68l229 362h103l229 -362h-67z" />
<glyph horiz-adv-x="974" d="M846 367q0 -178 -90 -281.5t-271 -103.5q-172 0 -264 99t-92 271v615h84v-607q0 -141 68.5 -220t207.5 -79q137 0 205 79t68 227v600h84v-600v0zM744 1256q0 -29 -19.5 -52.5t-50.5 -23.5q-33 0 -53.5 23.5t-20.5 52.5t20.5 50t53.5 21q31 0 50.5 -21t19.5 -50zM373 1256 q0 -29 -19.5 -52.5t-52.5 -23.5t-51 23.5t-18 52.5t18 50t51 21t52.5 -21t19.5 -50z" />
<glyph horiz-adv-x="974" d="M846 367q0 -178 -90 -281.5t-271 -103.5q-172 0 -264 99t-92 271v615h84v-607q0 -141 68.5 -220t207.5 -79q137 0 205 79t68 227v600h84v-600v0zM250 1121l6 77h469l6 -77h-481z" />
<glyph horiz-adv-x="974" d="M846 367q0 -178 -90 -281.5t-271 -103.5q-172 0 -264 99t-92 271v615h84v-607q0 -141 68.5 -220t207.5 -79q137 0 205 79t68 227v600h84v-600v0zM768 1444q-14 -59 -34.5 -122.5t-53.5 -117t-80 -88t-112 -34.5q-66 0 -113 34.5t-80 88t-53.5 117t-34.5 122.5h59 q45 -160 97.5 -227.5t124.5 -67.5t124 67.5t97 227.5h59v0z" />
<glyph horiz-adv-x="974" d="M846 367q0 -178 -90 -281.5t-271 -103.5q-172 0 -264 99t-92 271v615h84v-607q0 -141 68.5 -220t207.5 -79q137 0 205 79t68 227v600h84v-600v0zM719 1266q0 -82 -61.5 -140.5t-167.5 -58.5t-168 58.5t-62 140.5t61.5 141.5t168.5 59.5q106 0 167.5 -59.5t61.5 -141.5z M647 1262q0 57 -43 101t-114 44q-72 0 -115 -41t-43 -98t43 -99t115 -42t114.5 39t42.5 96z" />
<glyph horiz-adv-x="974" d="M846 367q0 -178 -90 -281.5t-271 -103.5q-172 0 -264 99t-92 271v615h84v-607q0 -141 68.5 -220t207.5 -79q137 0 205 79t68 227v600h84v-600v0zM615 1063h-66l242 363h100zM312 1063h-66l242 363h100z" />
<glyph horiz-adv-x="974" d="M586 -432q-72 0 -122 47t-50 127q0 74 40 139.5t93 104.5q-16 -2 -30.5 -3t-31.5 -1q-172 0 -264 99t-92 271v615h84v-607q0 -141 68.5 -220t207.5 -79q137 0 205 79t68 227v600h84v-600q0 -133 -50.5 -219.5t-138.5 -139.5q-84 -49 -123.5 -116.5t-39.5 -135.5 q0 -51 27.5 -81.5t72.5 -30.5q27 0 54.5 11t47.5 28l27 -66q-23 -18 -58.5 -33.5t-78.5 -15.5z" />
<glyph horiz-adv-x="1429" d="M451 0h-84l-275 967h88l234 -838l252 838h104l258 -838l221 838h88l-270 -967h-84l-264 866zM928 1084l-211 295h-4l-211 -295h-68l229 362h103l229 -362h-67z" />
<glyph horiz-adv-x="1429" d="M451 0h-84l-275 967h88l234 -838l252 838h104l258 -838l221 838h88l-270 -967h-84l-264 866zM778 1084l-324 362h119l269 -362h-64z" />
<glyph horiz-adv-x="1429" d="M451 0h-84l-275 967h88l234 -838l252 838h104l258 -838l221 838h88l-270 -967h-84l-264 866zM655 1084h-63l268 362h119z" />
<glyph horiz-adv-x="1429" d="M451 0h-84l-275 967h88l234 -838l252 838h104l258 -838l221 838h88l-270 -967h-84l-264 866zM971 1256q0 -29 -19.5 -52.5t-50.5 -23.5q-33 0 -53.5 23.5t-20.5 52.5t20.5 50t53.5 21q31 0 50.5 -21t19.5 -50zM600 1256q0 -29 -19.5 -52.5t-52.5 -23.5t-51 23.5t-18 52.5 t18 50t51 21t52.5 -21t19.5 -50z" />
<glyph horiz-adv-x="860" d="M475 387v-387h-88v389l-336 578h94l289 -494l281 494h96zM371 1084h-63l268 362h119z" />
<glyph horiz-adv-x="860" d="M475 387v-387h-88v389l-336 578h94l289 -494l281 494h96zM643 1084l-211 295h-4l-211 -295h-68l229 362h103l229 -362h-67z" />
<glyph horiz-adv-x="860" d="M475 387v-387h-88v389l-336 578h94l289 -494l281 494h96zM686 1256q0 -29 -19.5 -52.5t-50.5 -23.5q-33 0 -53.5 23.5t-20.5 52.5t20.5 50t53.5 21q31 0 50.5 -21t19.5 -50zM315 1256q0 -29 -19.5 -52.5t-52.5 -23.5t-51 23.5t-18 52.5t18 50t51 21t52.5 -21t19.5 -50z " />
<glyph horiz-adv-x="849" d="M74 0v63l573 824h-567v80h672v-66l-572 -821h572v-80h-678zM364 1084h-63l268 362h119z" />
<glyph horiz-adv-x="849" d="M74 0v63l573 824h-567v80h672v-66l-572 -821h572v-80h-678zM493 1256q0 -29 -19.5 -52.5t-51.5 -23.5q-33 0 -51.5 23.5t-18.5 52.5t18.5 50t51.5 21t52 -21t19 -50z" />
<glyph horiz-adv-x="849" d="M74 0v63l573 824h-567v80h672v-66l-572 -821h572v-80h-678zM475 1063h-103l-229 363h68l211 -295h4l211 295h67z" />
<glyph horiz-adv-x="399" d="M-309 -238h-92l1110 1518h92z" />
<glyph horiz-adv-x="675" d="M102 72l2 47h506l4 -47h-512z" />
<glyph d="M954 639q0 -150 -33.5 -271.5t-94 -207.5t-142.5 -132t-176 -46q-96 0 -177 46t-139.5 131t-91 205.5t-32.5 270.5q0 152 33.5 274.5t93 209.5t142.5 134t179 47q94 0 175 -47t139.5 -133t91 -207.5t32.5 -273.5zM860 635q0 152 -26.5 263.5t-74.5 184t-112.5 107.5 t-138.5 35t-138.5 -35t-111.5 -106.5t-73.5 -182t-26.5 -262.5q0 -147 27.5 -257t75.5 -181.5t113.5 -107.5t141.5 -36q74 0 137.5 35t109.5 106.5t71.5 180.5t25.5 256z" />
<glyph d="M545 1171l-299 -98l-6 84l389 129v-1286h-84v1171z" />
<glyph d="M98 0l-4 82q166 168 291 293t210 223t127 179t42 165q0 135 -80 208t-217 73q-45 0 -90 -12.5t-87 -34t-79 -48t-64 -55.5l-26 70q59 63 152.5 110t207.5 47q82 0 149.5 -24.5t117 -70.5t76 -111.5t26.5 -147.5q0 -92 -41 -177t-123 -182.5t-207 -219t-291 -287.5h705 l6 -80h-801z" />
<glyph d="M508 666q88 4 158.5 -17.5t121 -64.5t77 -103.5t26.5 -130.5q0 -90 -35 -158.5t-95.5 -115.5t-140 -71.5t-167.5 -24.5q-84 0 -167 22.5t-145 56.5l31 72q57 -33 129 -53.5t160 -20.5q68 0 131 18.5t110.5 55.5t76 90t28.5 125q0 119 -88 189.5t-238 70.5q-39 0 -80 -3 t-86 -13v74q236 63 343.5 141t107.5 194q0 111 -81 167.5t-200 56.5q-86 0 -170 -35t-145 -88l-31 67q66 57 160 95t190 38q82 0 150 -21.5t114 -61t71.5 -95t25.5 -121.5q0 -117 -82 -196.5t-260 -138.5z" />
<glyph d="M788 328v-338h-77v338h-633l-17 73l641 889h86v-889h195l6 -73h-201zM711 1186l-559 -785h559v785z" />
<glyph d="M250 733q45 10 88 17.5t119 7.5q190 0 302.5 -100.5t112.5 -280.5q0 -84 -28.5 -157t-83.5 -126t-135 -85t-183 -32q-74 0 -158.5 23t-144.5 57l19 84q66 -39 135 -62.5t151 -23.5q76 0 139.5 21.5t109.5 61.5t72 99.5t26 135.5q0 147 -90.5 229t-256.5 82 q-76 0 -131 -11t-108 -30l-37 39l78 598h594l6 -80h-531l-65 -467v0z" />
<glyph d="M104 471q0 123 41 252t127 244.5t221.5 206t323.5 133.5l23 -74q-147 -35 -260 -100.5t-191 -149.5t-125 -182.5t-65 -198.5l2 -2q74 66 168 112t192 46q70 0 136.5 -21.5t119.5 -66.5t86 -113t33 -162q0 -92 -31 -168.5t-85 -131t-130 -85t-168 -30.5q-98 0 -176 35.5 t-131 100t-82 155.5t-29 200zM188 473q0 -84 22.5 -159.5t65.5 -132t105.5 -90.5t142.5 -34q74 0 134.5 24.5t103.5 70t66.5 106.5t23.5 135q0 70 -24.5 124t-65.5 90t-94.5 54.5t-110.5 18.5q-102 0 -191.5 -37t-175.5 -123q-2 -12 -2 -23.5v-23.5z" />
<glyph d="M84 1196l6 84h784l21 -59l-553 -1221h-86l545 1196h-717z" />
<glyph d="M907 328q0 -68 -25.5 -131.5t-75.5 -111.5t-125 -76.5t-173 -28.5q-106 0 -181 25.5t-123 70.5t-70.5 105.5t-22.5 131.5q0 76 31.5 131.5t77.5 95.5t99.5 66.5t94.5 42.5q-55 23 -105.5 50.5t-90.5 63.5t-63.5 83t-23.5 110q0 80 29.5 144.5t80 108.5t120 67.5 t149.5 23.5q76 0 144.5 -20t120.5 -61t82 -103.5t30 -146.5q0 -66 -28 -118t-68.5 -91t-88 -67.5t-88.5 -47.5q55 -25 107.5 -53.5t94.5 -65.5t66.5 -86t24.5 -112zM803 956q0 119 -79 195t-214 76q-72 0 -127 -21.5t-92 -57.5t-56.5 -83t-19.5 -98q0 -59 28.5 -105.5 t76 -81.5t106.5 -60.5t123 -45.5q47 18 92 43.5t81 60.5t58.5 79t22.5 99zM823 315q0 63 -29.5 110.5t-77.5 83.5t-109.5 62.5t-125.5 49.5q-51 -18 -102 -45t-92 -63t-66.5 -83t-25.5 -104q0 -129 74.5 -201t240.5 -72q164 0 238.5 73.5t74.5 188.5z" />
<glyph d="M920 809q0 -123 -41 -252t-127 -244.5t-221.5 -206t-323.5 -133.5l-23 74q147 35 260 100.5t191 149.5t125 182.5t65 198.5l-2 2q-74 -66 -168 -112t-192 -46q-70 0 -136.5 21.5t-119.5 65.5t-86 113t-33 163q0 92 31 168.5t85 131t130 85t168 30.5q98 0 176 -35.5 t131 -100t82 -155.5t29 -200zM836 807q0 84 -22.5 159.5t-65.5 132t-105.5 90.5t-142.5 34q-74 0 -134.5 -24.5t-103.5 -70t-66.5 -106.5t-23.5 -135q0 -72 24.5 -125t65.5 -89t94.5 -54.5t110.5 -18.5q102 0 191.5 37t175.5 123q2 12 2 23.5v23.5z" />
<glyph d="M498 55q74 0 134 21.5t103 58.5t66.5 85t23.5 102q0 57 -20.5 100t-57 75.5t-87 57.5t-109.5 47l-74 -547h21zM614 1495h66q-8 -59 -14 -104q-4 -20 -6.5 -38t-4.5 -34q-2 -18 -4 -33q68 -12 126.5 -36.5t105.5 -55.5l-33 -76q-90 63 -209 92l-72 -526q63 -23 125 -51.5 t108 -69.5t74.5 -97t28.5 -136q0 -74 -29.5 -138.5t-84 -111.5t-130 -73.5t-167.5 -26.5h-27l-31 -232h-65l16 119q6 45 11 81t5 38q-88 10 -162.5 38.5t-138.5 69.5l33 74q57 -39 128 -67.5t151 -39.5l75 562l-4 2q-68 23 -132 49t-113.5 65t-80 94.5t-30.5 135.5 q0 70 28.5 131t81 105t123 69.5t154.5 25.5q18 0 36.5 -1t35.5 -3zM578 1221q-16 2 -31 3t-31 1q-76 0 -133 -20.5t-95 -55.5t-57.5 -80t-19.5 -92q0 -57 21.5 -99t60.5 -73t94 -54.5t121 -45.5z" />
<glyph d="M711 950q102 -23 180 -71l-19 -76q-74 49 -172 69l-110 -815h31q68 0 134 22.5t117 55.5l19 -76q-57 -35 -127 -57t-143 -22h-20.5t-20.5 2q0 -2 -5.5 -38t-11.5 -79q-8 -51 -14 -117h-70l33 244q-78 18 -141.5 59t-109.5 102.5t-70.5 140.5t-24.5 171q0 106 32.5 196.5 t92 157t141.5 103t178 36.5h31l27 191h69zM610 881q-80 0 -145.5 -31t-112.5 -86t-73.5 -131t-26.5 -164q0 -154 72.5 -260.5t197.5 -138.5l109 811h-21z" />
<glyph d="M289 649q-4 66 -6 126.5t-2 111.5q0 197 88 311.5t274 114.5q143 0 256 -66l-25 -73q-51 27 -105 44t-132 17q-76 0 -128 -24.5t-85 -67.5t-47.5 -103.5t-14.5 -134.5q0 -51 2.5 -115.5t6.5 -140.5h399l-6 -76h-389q2 -53 3 -109t1 -116q0 -41 -3 -76.5t-14 -66.5 q35 -33 79 -62.5t88 -51t86 -34t73 -12.5q39 0 73 10.5t63.5 36t52 68.5t38.5 108l62 -14q-20 -139 -96 -211t-181 -72q-92 0 -186 46t-176 124q-31 -57 -93.5 -99t-172.5 -77l-19 72q72 25 119 52.5t74.5 63t39 82t11.5 105.5q0 113 -6 233h-193l-6 76h197v0z" />
<glyph d="M70 543l-7 73h326l-409 664h94l399 -664l395 664h93l-205 -332l-205 -332h326l-7 -73h-356v-201h356l7 -74h-363v-268h-86v268h-365l7 74h358v201h-358z" />
<glyph horiz-adv-x="1036" d="M80 768l-6 72h151q35 221 152 347t313 126q86 0 155.5 -16.5t123.5 -45.5l-19 -75q-55 29 -120.5 46t-139.5 17q-164 0 -259 -100.5t-124 -298.5h498l-6 -72h-500q-2 -29 -3 -59.5t-1 -63.5q0 -35 1 -66.5t3 -62.5h438l6 -72h-436q29 -199 121 -300t254 -101 q84 0 149.5 15.5t120.5 41.5l13 -73q-55 -27 -125 -42.5t-162 -15.5q-199 0 -310.5 125t-144.5 350h-149l6 72h135q-2 29 -3 58.5t-1 62.5q0 70 6 131h-137z" />
<glyph d="M780 1034q0 -55 -18.5 -104t-53 -86t-85 -59.5t-113.5 -22.5q-61 0 -111.5 22.5t-86.5 59.5t-54 86t-18 104t18 105.5t54 88.5t86.5 59.5t111.5 21.5q63 0 113.5 -21.5t85 -59.5t53 -88.5t18.5 -105.5zM713 1034q0 86 -53.5 147.5t-149.5 61.5t-149.5 -61.5t-53.5 -147.5 q0 -84 53.5 -145.5t149.5 -61.5t149.5 61.5t53.5 145.5z" />
<glyph d="M555 442v-387h-82v387h-375l6 78h369v383h82v-383h365l6 -78h-371z" />
<glyph d="M555 483v-313h-82v313h-375l6 78h369v342h82v-342h365l6 -78h-371zM98 55l6 74h818l6 -74h-830z" />
<glyph d="M926 199h-82v346h-746l6 78h822v-424z" />
<glyph d="M154 614l-7 78h732l-7 -78h-718zM147 268l7 78h718l7 -78h-732z" />
<glyph d="M881 55l-369 369l-369 -369l-53 54l369 368l-369 369l53 53l369 -369l373 373l53 -53l-373 -373l369 -368z" />
<glyph d="M98 444l6 74h818l6 -74h-830zM588 219q0 -31 -20.5 -54.5t-53.5 -23.5t-52.5 23.5t-19.5 54.5q0 29 19.5 51.5t52.5 22.5t53.5 -22.5t20.5 -51.5zM588 739q0 -31 -20.5 -54t-53.5 -23t-52.5 23.5t-19.5 53.5q0 29 19.5 51.5t52.5 22.5t53.5 -22.5t20.5 -51.5z" />
<glyph d="M874 39l-739 393v98l739 394v-86l-665 -349v-18l665 -348v-84z" />
<glyph d="M162 39v84l665 348v18l-665 349v86l739 -394v-98z" />
<glyph horiz-adv-x="512" d="M213 1438h86v-1846h-86v1846z" />
<glyph horiz-adv-x="512" d="M213 1315h86v-686h-86v686zM213 401h86v-686h-86v686z" />
<glyph d="M905 475q0 -23 -12 -63.5t-29.5 -83.5t-37 -80t-35.5 -53t-53.5 -36t-80.5 -37.5t-84 -29.5t-63 -12q-23 0 -62.5 12t-82.5 29.5t-80 37t-52 36.5q-16 16 -35.5 53t-38 80t-30.5 84t-12 63q0 23 12 63t30.5 83t38 79.5t35.5 53.5q14 14 52.5 34.5t81.5 38t82.5 29.5 t62.5 12t62.5 -12t82.5 -29.5t80 -38t54 -34.5q14 -16 34.5 -53t38 -80t29.5 -83t12 -63z" />
<glyph d="M866 571q-39 -213 -166 -213q-41 0 -81.5 24t-80.5 52.5t-75 52t-64 23.5q-35 0 -56 -26.5t-52 -114.5h-51q39 213 166 213q41 0 82.5 -23.5t81.5 -52.5t75 -52.5t62 -23.5q33 0 55 26.5t51 114.5h53v0z" />
<glyph horiz-adv-x="512" d="M78 815l284 512l91 -45l-308 -467h-67z" />
<glyph d="M502 815l284 512l91 -45l-308 -467h-67zM201 815l284 512l90 -45l-307 -467h-67z" />
<glyph d="M838 -459q-82 43 -174.5 128t-171 205t-131 272.5t-52.5 332.5t52.5 333t131 272.5t171 204.5t174.5 128l45 -71q-80 -41 -167 -120t-159 -190.5t-119 -252t-47 -304.5t47 -304t119 -251.5t159 -190.5t167 -120l-45 -72v0z" />
<glyph d="M139 -387q80 41 167 120t159 190.5t119 251.5t47 304t-47 304.5t-119 252t-159 190.5t-167 120l45 71q82 -43 174.5 -128t171 -204.5t131 -272.5t52.5 -333t-52.5 -332.5t-131 -272.5t-171 -205t-174.5 -128z" />
<glyph d="M326 -455v1837h501v-73h-415v-1690h415v-74h-501z" />
<glyph d="M195 -381h415v1690h-415v73h501v-1837h-501v74z" />
<glyph d="M254 733l-51 72l258 166v10l-258 166l51 72l235 -207l7 2l79 301l84 -27l-122 -287l6 -6l299 27v-92l-299 26l-6 -6l122 -286l-84 -27l-79 301l-7 2z" />
<glyph d="M813 -469q-104 6 -184 21.5t-135.5 44t-84 72.5t-28.5 108q0 66 17.5 123t38 110t38 103.5t17.5 99.5q0 51 -13.5 88t-46.5 61.5t-85 39t-128 20.5l-6 53l6 53q154 12 213.5 57.5t59.5 149.5q0 51 -17.5 101.5t-38 103.5t-38 109.5t-17.5 121.5q0 125 112.5 179.5 t319.5 66.5v-69q-96 -8 -161.5 -21.5t-106.5 -33t-59.5 -47t-18.5 -64.5q0 -49 17.5 -105.5t38 -115t38 -113.5t17.5 -100q0 -47 -15.5 -94.5t-50.5 -85.5t-90 -63.5t-133 -29.5v-2q78 -4 133 -29.5t90 -63.5t50.5 -85t15.5 -96q0 -47 -17.5 -101.5t-38 -111t-38 -111.5 t-17.5 -102q0 -78 77 -118t269 -54v-70v0z" />
<glyph d="M805 418q-154 -12 -214.5 -57.5t-60.5 -149.5q0 -51 17.5 -101.5t39 -103.5t39 -110.5t17.5 -120.5t-28.5 -107.5t-84 -73t-136.5 -44t-185 -21.5v70q193 14 270.5 53t77.5 112q0 49 -17.5 105.5t-38 115t-38 113t-17.5 101.5t15.5 94t50.5 85t90 63.5t133 29.5v2 q-78 4 -133 29.5t-90 63.5t-50.5 85t-15.5 97q0 45 17.5 100t38 111.5t38 112.5t17.5 104q0 76 -78 114.5t-270 55.5v69q104 -6 185 -21.5t136.5 -44t84 -72.5t28.5 -108q0 -66 -17.5 -123t-39 -110t-39 -103.5t-17.5 -99.5q0 -53 14.5 -89t46.5 -60.5t84 -39t130 -20.5 l4 -53z" />
<glyph d="M948 580q0 -51 -20.5 -93.5t-55 -76t-82 -57t-102.5 -38.5q53 -31 86 -75.5t33 -112.5q0 -61 -26.5 -110.5t-71.5 -83t-104.5 -51t-123.5 -17.5q-80 0 -154.5 22.5t-129.5 57.5l26 73q59 -37 125 -58t137 -21q45 0 89 12t79 35.5t55.5 56.5t20.5 76q0 47 -26.5 80.5 t-69.5 58.5t-99.5 43t-115.5 37q-63 18 -125 39.5t-110 52.5t-77.5 75t-29.5 105q0 51 21.5 95.5t58.5 78t86 58t106 37.5q-59 31 -95 73.5t-36 110.5q0 63 24.5 111.5t66.5 79t97.5 46t114.5 15.5q74 0 142.5 -19.5t123.5 -48.5l-28 -71q-59 31 -119.5 49t-126.5 18 q-96 0 -156.5 -46t-60.5 -124q0 -43 25.5 -73.5t66.5 -53t95.5 -40t111.5 -36.5q63 -18 126.5 -40.5t115 -55.5t82 -79.5t30.5 -114.5zM870 569q0 68 -44 109t-110.5 68.5t-146.5 49t-151 50.5q-43 -14 -89 -34.5t-85 -48.5t-64.5 -62.5t-25.5 -77.5q0 -66 46 -105 t116.5 -66.5t153.5 -50t157 -53.5q41 14 84 34.5t78.5 47.5t58 61.5t22.5 77.5z" />
<glyph d="M754 543q-16 -4 -39 -8.5t-48.5 -7.5t-51 -5t-44.5 -2q-121 0 -211 29t-149 79t-88 117.5t-29 147.5q0 96 35 169t95.5 121t139 72.5t168.5 24.5h304v-1411h-82v674v0z" />
<glyph horiz-adv-x="512" d="M330 57q0 -31 -20.5 -54t-53.5 -23t-52.5 23.5t-19.5 53.5q0 29 19.5 51.5t52.5 22.5t53.5 -22.5t20.5 -51.5z" />
<glyph horiz-adv-x="512" d="M166 57q0 29 23.5 55.5t60.5 26.5q47 0 82 -36.5t35 -100.5q0 -78 -55.5 -162t-149.5 -143l-39 35q86 63 118.5 118.5t32.5 110.5q0 41 -27.5 61.5t-80.5 34.5z" />
<glyph horiz-adv-x="512" d="M330 731q0 -31 -20.5 -54.5t-53.5 -23.5t-52.5 23.5t-19.5 54.5q0 29 19.5 51.5t52.5 22.5t53.5 -22.5t20.5 -51.5zM330 57q0 -31 -20.5 -54t-53.5 -23t-52.5 23.5t-19.5 53.5q0 29 19.5 51.5t52.5 22.5t53.5 -22.5t20.5 -51.5z" />
<glyph horiz-adv-x="512" d="M330 731q0 -31 -20.5 -54.5t-53.5 -23.5t-52.5 23.5t-19.5 54.5q0 29 19.5 51.5t52.5 22.5t53.5 -22.5t20.5 -51.5zM166 57q0 29 23.5 55.5t60.5 26.5q47 0 82 -36.5t35 -100.5q0 -78 -55.5 -162t-149.5 -143l-39 35q86 63 118.5 118.5t32.5 110.5q0 41 -27.5 61.5 t-80.5 34.5z" />
<glyph horiz-adv-x="641" d="M532 57l-466 385v74l466 385l17 -72l-408 -348v-2l408 -350z" />
<glyph horiz-adv-x="641" d="M109 57l-17 72l408 350v2l-408 348l17 72l466 -385v-74z" />
<glyph horiz-adv-x="1159" d="M1057 57l-467 385v74l467 385l16 -72l-407 -348v-2l407 -350zM508 78l-445 366v70l445 367l16 -72l-385 -328v-2l385 -329z" />
<glyph horiz-adv-x="1159" d="M651 78l-16 72l387 329v2l-387 328l16 72l447 -367v-70zM104 57l-16 72l406 350v2l-406 348l16 72l467 -385v-74z" />
<glyph horiz-adv-x="512" d="M330 469q0 -31 -20.5 -54.5t-53.5 -23.5t-52.5 23.5t-19.5 54.5q0 29 19.5 51.5t52.5 22.5t53.5 -22.5t20.5 -51.5z" />
<glyph horiz-adv-x="561" d="M74 459v78h420v-78h-420z" />
<glyph horiz-adv-x="876" d="M66 459l6 78h735l6 -78h-747z" />
<glyph horiz-adv-x="1839" d="M66 459l6 78h1697l7 -78h-1710z" />
<glyph horiz-adv-x="1536" d="M770 1196l586 -1104h-1176zM768 815l-260 -534h520z" />
<glyph horiz-adv-x="1536" d="M1401 639l-1104 -586v1176zM1020 641l-535 260v-520z" />
<glyph horiz-adv-x="1536" d="M1356 1196l-586 -1104l-590 1104h1176zM508 1008l260 -535l260 535h-520z" />
<glyph horiz-adv-x="1536" d="M1237 53l-1104 586l1104 590v-1176zM1049 901l-535 -260l535 -260v520z" />
<glyph horiz-adv-x="1536" d="M770 1196l586 -1104h-1176z" />
<glyph horiz-adv-x="1536" d="M1401 639l-1104 -586v1176z" />
<glyph horiz-adv-x="1536" d="M1356 1196l-586 -1104l-590 1104h1176z" />
<glyph horiz-adv-x="1536" d="M1237 53l-1104 586l1104 590v-1176z" />
<glyph horiz-adv-x="1536" d="M729 1155l-530 -575l-68 53l631 670h10l633 -670l-68 -53l-532 577l6 -1188h-88z" />
<glyph horiz-adv-x="1536" d="M713 68l577 532l-1188 -6v88l1186 -6l-575 530l53 68l670 -631v-10l-670 -633z" />
<glyph horiz-adv-x="1536" d="M131 647l68 53l530 -575l-6 1186h88l-6 -1188l532 577l68 -53l-633 -670h-10z" />
<glyph horiz-adv-x="1536" d="M100 633v10l670 631l53 -68l-575 -530l1186 6v-88l-1188 6l577 -532l-53 -68z" />
<glyph d="M940 854v-854h-856v854h856zM831 750h-641v-641h641v641z" />
<glyph d="M940 854v-854h-856v854h856zM754 670h-484v-484h484v484z" />
<glyph d="M940 854v-854h-856v854h856zM772 764l76 -76v76h-76zM715 764h-133l266 -266v131zM524 764h-131l455 -455v131zM336 764h-131l643 -643v131zM176 735v-133l512 -508h131zM176 545v-131l322 -320h131zM176 354v-131l131 -129h131zM176 168v-74h74z" />
<glyph d="M84 854h856v-854h-856v854z" />
<glyph horiz-adv-x="1536" d="M1409 0h-1282v1282h1282v-1282zM1296 1169h-1056v-1056h1056v1056z" />
<glyph horiz-adv-x="1536" d="M1409 0h-1282v1282h1282v-1282zM362 236h812v811h-812v-811z" />
<glyph horiz-adv-x="1536" d="M1409 0h-1282v1282h1282v-1282zM1296 1169h-159l159 -159v159zM1296 956l-213 213h-237l450 -450v237zM1296 666l-503 503h-238l741 -741v238zM1296 377l-792 792h-238l1030 -1030v238zM1272 113l-1032 1032v-238l794 -794h238zM240 616l503 -503h238l-741 741v-238z M690 113l-450 450v-237l213 -213h237zM240 113h163l-163 163v-163z" />
<glyph horiz-adv-x="1536" d="M1409 0h-1282v1282h1282v-1282z" />
<glyph d="M512 -20q-94 0 -176 34.5t-142.5 95t-95.5 142.5t-35 176t35 175t95.5 141.5t142.5 95t176 34.5t176 -34.5t142.5 -95t95.5 -141.5t35 -175t-35 -176t-95.5 -142.5t-142.5 -95t-176 -34.5zM852 428q0 72 -25.5 134.5t-71.5 109.5t-108.5 73.5t-134.5 26.5t-134.5 -26.5 t-108.5 -73.5t-71.5 -109.5t-25.5 -134.5t25.5 -134.5t71.5 -109.5t108.5 -73.5t134.5 -26.5t134.5 26.5t108.5 73.5t71.5 109.5t25.5 134.5z" />
<glyph d="M512 -20q-94 0 -176 34.5t-142.5 95t-95.5 142.5t-35 176t35 175t95.5 141.5t142.5 95t176 34.5t176 -34.5t142.5 -95t95.5 -141.5t35 -175t-35 -176t-95.5 -142.5t-142.5 -95t-176 -34.5zM770 428q0 53 -19.5 101.5t-54 84t-82 56t-102.5 20.5t-102.5 -20.5t-82 -56 t-54 -84t-19.5 -101.5q0 -55 19.5 -102t54 -83t82 -56.5t102.5 -20.5t102.5 20.5t82 56.5t54 83t19.5 102z" />
<glyph d="M512 -20q-94 0 -176 34.5t-142.5 95t-95.5 142.5t-35 176t35 175t95.5 141.5t142.5 95t176 34.5t176 -34.5t142.5 -95t95.5 -141.5t35 -175t-35 -176t-95.5 -142.5t-142.5 -95t-176 -34.5zM770 690q-41 41 -93 67.5t-114 35.5l309 -310q-8 61 -34.5 113.5t-67.5 93.5z M500 797q-29 -2 -57.5 -7.5t-55.5 -15.5l467 -469q10 29 15 57.5t8 57.5zM346 758q-23 -10 -42 -24.5t-36 -31.5l518 -520q35 35 54 80zM238 674q-35 -35 -54 -82l496 -494q23 10 42 24.5t36 31.5zM168 549q-16 -49 -21 -113l377 -377q63 0 113 21zM152 373 q8 -63 36.5 -117.5t71.5 -95.5q41 -39 91 -64.5t110 -34.5z" />
<glyph d="M512 -20q-94 0 -176 34.5t-142.5 95t-95.5 142.5t-35 176t35 175t95.5 141.5t142.5 95t176 34.5t176 -34.5t142.5 -95t95.5 -141.5t35 -175t-35 -176t-95.5 -142.5t-142.5 -95t-176 -34.5z" />
<glyph horiz-adv-x="1536" d="M1440 641q0 -141 -51.5 -263t-142.5 -213t-214 -143.5t-264 -52.5t-264 52.5t-214 143.5t-142.5 213t-51.5 263t51.5 263t142.5 213t214 143.5t264 52.5t264 -52.5t214 -143.5t142.5 -213t51.5 -263zM768 76q119 0 221.5 44t177 120.5t117.5 180t43 220.5t-43 220.5 t-117.5 180t-177 120.5t-221.5 44t-221.5 -44t-177 -120.5t-117.5 -180t-43 -220.5t43 -220.5t117.5 -180t177 -120.5t221.5 -44z" />
<glyph horiz-adv-x="1536" d="M1440 641q0 -141 -51.5 -263t-142.5 -213t-214 -143.5t-264 -52.5t-264 52.5t-214 143.5t-142.5 213t-51.5 263t51.5 263t142.5 213t214 143.5t264 52.5t264 -52.5t214 -143.5t142.5 -213t51.5 -263zM768 1083q-92 0 -172 -34.5t-138.5 -95t-92 -140.5t-33.5 -172 t33.5 -172t92 -140.5t138.5 -95t172 -34.5t172 34.5t138.5 95t92 140.5t33.5 172t-33.5 172t-92 140.5t-138.5 95t-172 34.5z" />
<glyph horiz-adv-x="1536" d="M1440 641q0 -141 -51.5 -263t-142.5 -213t-214 -143.5t-264 -52.5t-264 52.5t-214 143.5t-142.5 213t-51.5 263t51.5 264t142.5 214t214 144.5t264 53.5t264 -53.5t214 -144.5t142.5 -214t51.5 -264zM1325 690q-8 104 -50 194.5t-109.5 159t-159 110.5t-195.5 50z M1288 434q35 92 39 201l-571 571q-109 -4 -199 -39l367 -366q68 -70 133 -135.5t117 -116.5q59 -62 114 -115zM1180 256q57 59 94 141q-55 53 -117 117q-53 53 -119.5 120.5t-138.5 139.5l-377 377q-78 -37 -139 -98zM1016 131q78 37 139 98l-799 799q-29 -31 -52 -66.5 t-42 -76.5zM246 848q-33 -92 -37 -201l571 -571q53 0 102.5 10t96.5 29zM211 592q8 -104 50 -194.5t109.5 -159t159 -110.5t195.5 -50z" />
<glyph horiz-adv-x="1536" d="M1440 641q0 -141 -51.5 -263t-142.5 -213t-214 -143.5t-264 -52.5t-264 52.5t-214 143.5t-142.5 213t-51.5 263t51.5 263t142.5 213t214 143.5t264 52.5t264 -52.5t214 -143.5t142.5 -213t51.5 -263z" />
<glyph horiz-adv-x="1552" d="M1194 303l141 -387l-387 141l-174 -370l-172 368l-383 -139l139 383l-370 176l370 170l-139 387l383 -141l176 371l170 -371l387 141l-141 -387l369 -168zM1087 602l103 285l-285 -103l-129 273l-129 -273l-285 103l105 -285l-274 -129l274 -129l-105 -283l285 105 l127 -277l131 277l285 -105l-103 287l271 127z" />
</font>
</defs>
</svg>
