<?xml version="1.0" standalone="no"?>
<!DOCTYPE svg PUBLIC "-//W3C//DTD SVG 1.1//EN" "http://www.w3.org/Graphics/SVG/1.1/DTD/svg11.dtd" >
<svg xmlns="http://www.w3.org/2000/svg" xmlns:xlink="http://www.w3.org/1999/xlink" version="1.1">
<metadata></metadata>
<defs>
<font id="freighttext_probook" horiz-adv-x="1024" >
<font-face units-per-em="2048" ascent="1638" descent="-410" />
<missing-glyph horiz-adv-x="466" />
<glyph unicode="&#xfb00;" horiz-adv-x="1228" d="M1380 1305q0 -43 -25.5 -68t-64.5 -25q-41 0 -76.5 33t-50.5 94l-2 11l-53 4q-86 -35 -131 -129.5t-45 -247.5v-66h282l-14 -94h-268v-711q0 -12 10 -19t47 -9l133 -8l6 -70h-485l6 70l84 8q18 2 34.5 8t16.5 23v710h-442v-692q0 -33 37 -39l162 -18l6 -70h-494l6 70 l103 18q35 6 35 39v686l-172 8l12 90h149l2 33q8 102 45 187.5t94.5 146.5t130 95t154.5 34q72 0 125.5 -34t53.5 -89q0 -43 -26 -67.5t-63 -24.5q-43 0 -77.5 32.5t-51.5 94.5l-2 10l-51 4q-86 -35 -132 -129t-46 -248v-45h432l2 52q6 102 42 188t93.5 147.5t132 95 t158.5 33.5q72 0 125 -33.5t53 -88.5z" />
<glyph unicode="&#xfb01;" horiz-adv-x="1130" d="M643 0l6 70l84 8q51 2 51 31v708h-442v-711q0 -12 11.5 -19t45.5 -9l136 -8l6 -70h-488l6 70l86 8q51 2 52 31v704l-172 8l12 90h149l2 52q6 104 41 189t95.5 146.5t142.5 95t182 33.5q35 0 72 -9t66.5 -26.5t49 -44t19.5 -61.5q0 -41 -25.5 -66.5t-66.5 -25.5 q-98 0 -125 119l-2 10l-119 23q-86 -35 -131 -125.5t-45 -243.5v-66h358l232 31v-836q0 -12 10 -19t47 -9l86 -8l6 -70h-438z" />
<glyph unicode="&#xfb02;" horiz-adv-x="1134" d="M342 817v-711q0 -12 11.5 -19t45.5 -9l136 -8l6 -70h-488l6 70l86 8q51 2 52 31v704l-172 8l12 90h149l2 52q6 104 41 189t95.5 146.5t142.5 95t182 33.5q78 0 144 -38l139 38v-1321q0 -12 10 -19t47 -9l86 -8l6 -70h-438l6 70l84 8q51 2 51 31v708h-442zM784 1196 q-6 -2 -20 -2q-98 0 -125 119l-2 10l-119 23q-86 -35 -131 -125.5t-45 -243.5v-66h442v285z" />
<glyph unicode="&#xfb03;" horiz-adv-x="1718" d="M1520 942v-836q0 -12 11 -19t46 -9l86 -8l6 -70h-438l6 70l86 8q51 2 51 31v708h-442v-711q0 -12 10 -19t47 -9l133 -8l6 -70h-485l6 70l84 8q18 2 34.5 8t16.5 23v710h-442v-692q0 -33 37 -39l162 -18l6 -70h-494l6 70l103 18q35 6 35 39v686l-172 8l12 90h149l2 33 q8 102 45 187.5t94.5 146.5t130 95t154.5 34q72 0 125.5 -34t53.5 -89q0 -43 -26 -67.5t-63 -24.5q-43 0 -77.5 34t-51.5 93l-2 10l-51 4q-86 -35 -132 -129t-46 -248v-45h432l2 52q6 102 41 188t95.5 147.5t142.5 95t182 33.5q35 0 72 -9t66.5 -26.5t49 -44t19.5 -61.5 q0 -41 -25.5 -66.5t-64.5 -25.5q-98 0 -127 119l-2 10l-117 23q-86 -35 -131 -125.5t-45 -243.5v-66h356z" />
<glyph unicode="&#xfb04;" horiz-adv-x="1722" d="M932 817v-711q0 -12 10 -19t47 -9l133 -8l6 -70h-485l6 70l84 8q18 2 34.5 8t16.5 23v710h-442v-692q0 -33 37 -39l162 -18l6 -70h-494l6 70l103 18q35 6 35 39v686l-172 8l12 90h149l2 33q8 102 45 187.5t94.5 146.5t130 95t154.5 34q72 0 125.5 -34t53.5 -89 q0 -43 -26 -67.5t-63 -24.5q-43 0 -77.5 34t-51.5 93l-2 10l-51 4q-86 -35 -132 -129t-46 -248v-45h432l2 52q6 102 41 188t95.5 147.5t142.5 95t182 33.5q78 0 143 -38l140 38v-1321q0 -12 11 -19t46 -9l86 -8l6 -70h-438l6 70l86 8q51 2 51 31v708h-442zM1374 1196 q-6 -2 -20 -2q-98 0 -127 119l-2 10l-117 23q-86 -35 -131 -125.5t-45 -243.5v-66h442v285z" />
<glyph horiz-adv-x="0" />
<glyph horiz-adv-x="682" />
<glyph horiz-adv-x="0" />
<glyph horiz-adv-x="0" />
<glyph unicode=" "  horiz-adv-x="466" />
<glyph unicode="&#x09;" horiz-adv-x="466" />
<glyph unicode="&#xa0;" horiz-adv-x="466" />
<glyph unicode="!" horiz-adv-x="575" d="M309 406q-2 -12 -20.5 -12.5t-20.5 12.5l-75 827q-4 35 11 55.5t70 20.5h31q55 0 70.5 -20.5t11.5 -55.5zM403 86q0 -47 -30.5 -82t-83.5 -35q-51 0 -85 35t-34 82q0 45 34 79t85 34q53 0 83.5 -34t30.5 -79z" />
<glyph unicode="&#x22;" horiz-adv-x="727" d="M424 825h-68l215 500h2l150 -53zM102 825h-67l215 500h2l151 -53z" />
<glyph unicode="#" horiz-adv-x="1148" d="M891 831l-105 -389h267v-71h-285l-104 -383h-74l104 383h-360l-103 -383h-73l102 383h-264v71h285l104 389h-264v72h282l107 389h74l-105 -389h357l106 389h74l-107 -389h267v-72h-285zM817 831h-356l-107 -389h359z" />
<glyph unicode="$" horiz-adv-x="1019" d="M276 -340h-73l86 324q-43 8 -83 19t-77 26l-27 358h68l94 -281q10 -6 23.5 -11t29.5 -9l140 516q-68 27 -128.5 56.5t-104.5 70.5t-70.5 97.5t-26.5 134.5q0 68 25.5 130t77 109t130 77t183.5 30h53.5t46.5 -2l55 206h76q-16 -61 -29 -108q-6 -20 -11 -38.5t-9 -35.5 q-6 -18 -10 -33q16 -2 29.5 -4t25.5 -6l109 31v-404h-74l-62 254q-12 4 -26.5 10.5t-30.5 10.5l-121 -455q74 -29 141.5 -59.5t119 -73.5t82 -104.5t30.5 -149.5q0 -74 -32 -142.5t-91 -119.5t-145 -83t-195 -32q-59 0 -115 6zM616 1208q-29 6 -56.5 10.5t-53.5 4.5 q-59 0 -104.5 -17.5t-75 -45t-45 -65.5t-15.5 -77q0 -55 18.5 -95t50.5 -70t74 -52.5t89 -40.5zM455 322q-14 -47 -25.5 -94.5t-21.5 -82.5q-10 -43 -23 -79q35 -6 67.5 -10.5t63.5 -2.5q68 0 119 19.5t87 52.5t54.5 75t18.5 87q0 63 -21.5 109t-58.5 78t-86 55.5t-105 45.5 z" />
<glyph unicode="%" horiz-adv-x="1527" d="M715 987q0 -68 -23.5 -129t-67.5 -107t-106.5 -74t-142.5 -28q-78 0 -141.5 28t-107.5 74t-67.5 107.5t-23.5 128.5q0 70 23.5 132.5t67.5 108.5t107.5 73.5t141.5 27.5q80 0 142.5 -27.5t106.5 -73.5t67.5 -108.5t23.5 -132.5zM297 -31h-107l1045 1340h104zM1493 291 q0 -70 -23.5 -132.5t-67.5 -108.5t-107.5 -73.5t-141.5 -27.5q-80 0 -142.5 27.5t-106.5 73.5t-67.5 108.5t-23.5 132.5q0 68 23.5 129t67.5 107t106.5 74t142.5 28q78 0 141.5 -28t107.5 -74t67.5 -107t23.5 -129zM618 987q0 106 -63 180t-180 74t-180.5 -73.5 t-63.5 -180.5q0 -49 16.5 -94t48 -80t76.5 -55.5t103 -20.5q57 0 102 20.5t77 55.5t48 80t16 94zM1397 291q0 49 -16.5 94t-48.5 80t-77 55.5t-102 20.5t-102 -20.5t-77 -55.5t-48.5 -80t-16.5 -94q0 -106 63.5 -180t180.5 -74t180.5 74t63.5 180z" />
<glyph unicode="&#x26;" horiz-adv-x="1413" d="M1411 102q-59 -63 -121.5 -99t-134.5 -36q-104 0 -172 65.5t-129 196.5q-39 -51 -87 -98t-103.5 -83t-118 -57.5t-129.5 -21.5q-86 0 -153.5 28t-114 74t-71 107.5t-24.5 126.5q0 63 23.5 121.5t63.5 108t95.5 88.5t118.5 63q-88 41 -142 116t-54 173q0 66 26.5 126 t75.5 106t119 73t153 27q76 0 135.5 -22.5t100.5 -60.5t62.5 -87.5t21.5 -102.5q0 -94 -62.5 -180t-199.5 -141q96 -41 183 -119t140 -170q39 55 72 102q29 41 50.5 78t23.5 51q2 33 -45 39l-72 11l-4 67h428l-8 -67l-66 -11q-41 -10 -82 -34.5t-73 -69.5q-53 -66 -93 -117 q-16 -23 -32.5 -43t-28.5 -37q-14 -20 -29 -37q70 -141 126.5 -203.5t133.5 -62.5q39 0 80 19.5t86 46.5zM705 1012q0 43 -13.5 82t-39 68.5t-63.5 48t-85 18.5q-98 0 -154.5 -60.5t-56.5 -142.5q0 -102 57.5 -168.5t171.5 -114.5q183 85 183 269zM815 303q-37 72 -81 125 t-93 94t-105.5 71t-119.5 56q-96 -49 -153.5 -121.5t-57.5 -167.5q0 -53 20.5 -101t59.5 -85t91 -58.5t113 -21.5q82 0 167 53.5t159 155.5z" />
<glyph unicode="'" horiz-adv-x="405" d="M102 825h-67l215 500h2l151 -53z" />
<glyph unicode="(" horiz-adv-x="808" d="M733 -516q-82 41 -177 124t-176 202.5t-135.5 275.5t-54.5 342t54.5 342t135.5 275.5t176 202.5t177 124l25 -33q10 -12 17 -23t7 -13q-78 -41 -164 -121t-157.5 -192.5t-119.5 -254t-48 -307.5t48 -307t119.5 -254t158 -193t163.5 -118q0 -2 -7 -13.5t-17 -23.5 q-11 -17 -25 -35z" />
<glyph unicode=")" horiz-adv-x="808" d="M78 -516q-16 18 -27 33q-10 12 -17 23t-7 14q76 41 162.5 120.5t158.5 192.5t120 254t48 307t-48 307.5t-120 254t-159 192.5t-162 121q0 2 7 13t17 23q10 14 27 33q82 -41 176 -124t175 -202.5t135 -275.5t54 -342t-54 -342t-135 -275.5t-175 -202.5t-176 -124z" />
<glyph unicode="*" horiz-adv-x="710" d="M588 893l-182 63l-21 -26l115 -152l-17 -127l-43 -10l-86 94l4 189l-30 8l-107 -150l-125 -26l-28 37l65 116l176 49v35l-176 54l-67 110l24 37l131 -25l107 -155l32 10v190l82 93l45 -15l17 -127l-119 -151l21 -27l182 62l112 -56v-45z" />
<glyph unicode="+" horiz-adv-x="983" d="M545 430v-381h-105v381h-374l6 100h368v379h105v-379h366l7 -100h-373z" />
<glyph unicode="," horiz-adv-x="462" d="M397 43q0 -63 -25.5 -119.5t-66.5 -105.5t-92 -92t-100 -80l-45 32q33 25 63.5 54.5t55 63.5t39 73t14.5 80q0 43 -23.5 73.5t-52.5 50t-52.5 30t-23.5 12.5q0 47 34 80.5t95 33.5q33 0 65.5 -14t58.5 -38.5t41 -58.5t15 -75z" />
<glyph unicode="-" horiz-adv-x="671" d="M70 428l6 104h524l6 -104h-536z" />
<glyph unicode="." horiz-adv-x="466" d="M360 96q0 -49 -34.5 -88t-89.5 -39q-57 0 -93.5 39t-36.5 88t36 86t94 37q55 0 89.5 -37t34.5 -86z" />
<glyph unicode="/" horiz-adv-x="571" d="M457 1358h92l-438 -1790h-93z" />
<glyph unicode="0" horiz-adv-x="1146" d="M1065 483q0 -115 -37 -209t-102.5 -161.5t-155.5 -105.5t-199 -38t-198.5 37t-155 104.5t-101.5 161t-36 207.5q0 113 37 207t102.5 161.5t156.5 104.5t199 37q109 0 199 -37t154.5 -102.5t100.5 -159.5t36 -207zM948 479q0 88 -27.5 161t-77.5 125t-120 82t-152 30 q-84 0 -152.5 -29t-117.5 -81t-76.5 -124t-27.5 -160t27.5 -161.5t77.5 -127t120 -83t153 -29.5q82 0 151 29.5t118 82t76.5 125t27.5 160.5z" />
<glyph unicode="1" horiz-adv-x="749" d="M131 0l6 70l146 20q35 12 34 37v725l-231 12l6 60l369 59v-856q0 -31 37 -37l149 -20l6 -70h-522z" />
<glyph unicode="2" horiz-adv-x="954" d="M874 0h-798l-8 106q106 82 201.5 156t166 141.5t111.5 132t41 126.5q0 39 -14.5 74.5t-42 62t-68.5 43t-92 16.5q-76 0 -138.5 -43t-101.5 -98l-39 24q47 117 141.5 182.5t219.5 65.5q61 0 115.5 -19.5t96.5 -55t66.5 -86t24.5 -111.5q0 -78 -37 -143.5t-107.5 -132 t-172 -140.5t-232.5 -166v-10h117q147 0 233 3t135 15.5t69.5 35t37.5 59.5l37 92h63z" />
<glyph unicode="3" horiz-adv-x="856" d="M438 369q76 0 141.5 -22.5t112.5 -62.5t74 -97.5t27 -129.5q0 -90 -43 -174t-116 -149.5t-169 -105.5t-203 -40q-113 0 -175 43t-62 99q0 43 27.5 69.5t68.5 26.5q55 0 95 -46t50 -102q27 -6 58 -6q57 0 112.5 22.5t98.5 63.5t69.5 97.5t26.5 126.5q0 125 -73 199.5 t-198 74.5q-41 0 -85 -8t-87 -29l-22 53q68 43 134.5 86t120.5 88.5t88 95.5t34 111q0 41 -15.5 79t-43 66.5t-66.5 46t-88 17.5q-80 0 -141.5 -44t-102.5 -99q-2 0 -10 4t-15.5 8t-12.5 8t-3 4q47 117 150.5 181.5t226.5 64.5q63 0 117.5 -20.5t93.5 -55t60.5 -83 t21.5 -103.5q0 -104 -67.5 -187t-209.5 -167v-4z" />
<glyph unicode="4" horiz-adv-x="952" d="M735 47v-424h-145v424h-570l-6 72l652 862h69v-811h230l-15 -123h-215zM590 760h-6l-443 -590h449v590z" />
<glyph unicode="5" horiz-adv-x="858" d="M223 522q285 -78 412 -200.5t127 -272.5q0 -92 -40 -176t-109.5 -146.5t-161 -100.5t-193.5 -38q-104 0 -169.5 39t-65.5 97q0 45 28.5 70.5t67.5 25.5q57 0 95 -43t48 -101q16 -4 28.5 -4h28.5q63 0 119 24.5t96.5 67.5t65.5 99.5t25 122.5q0 145 -138.5 247.5 t-382.5 167.5l144 562h540l-4 -154h-489l-72 -287v0z" />
<glyph unicode="6" d="M942 401q0 -98 -34 -179t-93 -138t-140 -89t-173 -32q-102 0 -181 42t-132.5 111.5t-82 160t-28.5 188.5q0 170 70.5 322.5t191.5 269.5t278.5 190.5t333.5 87.5l15 -59q-145 -20 -261 -76.5t-203 -137.5t-146.5 -183.5t-90.5 -214.5l4 -2q59 55 140.5 90.5t160.5 35.5 q88 0 157 -30.5t116 -83.5t72.5 -124t25.5 -149zM791 346q0 76 -23 138.5t-60.5 107.5t-90 69.5t-109.5 24.5q-78 0 -142.5 -30.5t-105.5 -69.5q-8 -10 -13 -49t-5 -78q0 -80 20.5 -155t60 -133t95 -94t127.5 -36q57 0 103 25.5t78 67.5t48.5 97.5t16.5 114.5z" />
<glyph unicode="7" horiz-adv-x="946" d="M274 -379h-106l614 1188v10h-360q-80 0 -126 -1t-70.5 -7t-35 -18.5t-18.5 -32.5q-14 -35 -25 -60q-10 -23 -18 -41t-8 -22h-66l41 326h803l10 -89z" />
<glyph unicode="8" horiz-adv-x="997" d="M915 326q0 -74 -29.5 -139.5t-86 -113.5t-138 -76t-186.5 -28q-80 0 -151.5 24.5t-125 70t-85 105.5t-31.5 132q0 61 22.5 112.5t60.5 92.5t89 73.5t111 57.5v2q-51 27 -97.5 57.5t-80 69.5t-54 87t-20.5 110q0 61 25.5 122.5t75.5 110.5t125 80t171 31q74 0 139.5 -23.5 t114.5 -66.5t77.5 -101.5t28.5 -126.5q0 -109 -66.5 -185.5t-174.5 -125.5v-2q57 -29 108 -60.5t91 -73.5t63.5 -94t23.5 -122zM725 977q0 49 -17.5 97t-50 86t-80 61.5t-104.5 23.5q-51 0 -92 -18.5t-70.5 -49t-45 -70.5t-15.5 -85q0 -59 26.5 -105.5t71.5 -83t103.5 -68.5 t121.5 -63q76 53 114 118t38 157zM780 268q0 70 -31.5 120t-84 89t-117 71t-131.5 64q-78 -55 -131.5 -132t-53.5 -169q0 -59 20.5 -109t59.5 -87t92.5 -58.5t118.5 -21.5q61 0 109.5 18.5t81 50t50 73.5t17.5 91z" />
<glyph unicode="9" d="M944 496q0 -172 -70.5 -324t-191.5 -268.5t-279.5 -190t-332.5 -88.5l-15 60q145 20 261 76.5t203 137.5t146.5 183t92.5 215l-6 2q-59 -57 -140.5 -92t-160.5 -35q-86 0 -156 30.5t-117 84t-72.5 123t-25.5 149.5q0 98 33.5 179t93 138.5t140.5 88t173 30.5 q102 0 181 -42t133.5 -110.5t82 -158.5t27.5 -188zM780 502q0 78 -20.5 152.5t-59 133t-95 94.5t-126.5 36q-59 0 -105 -25t-77 -67t-47.5 -97t-16.5 -117q0 -76 21.5 -138t60.5 -107t89.5 -70t109.5 -25q78 0 142.5 32t105.5 71q8 10 13 48t5 79z" />
<glyph unicode=":" horiz-adv-x="462" d="M360 731q0 -49 -34.5 -87t-89.5 -38q-57 0 -93.5 38t-36.5 87t36 86t94 37q55 0 89.5 -37t34.5 -86zM360 96q0 -49 -34.5 -88t-89.5 -39q-57 0 -93.5 39t-36.5 88t36 86t94 37q55 0 89.5 -37t34.5 -86z" />
<glyph unicode=";" horiz-adv-x="462" d="M360 731q0 -49 -34.5 -87t-89.5 -38q-57 0 -93.5 38t-36.5 87t36 86t94 37q55 0 89.5 -37t34.5 -86zM397 43q0 -63 -25.5 -119.5t-66.5 -105.5t-92 -92t-100 -80l-45 32q33 25 63.5 54.5t55 63.5t39 73t14.5 80q0 43 -23.5 73.5t-52.5 50t-52.5 30t-23.5 12.5 q0 47 34 80.5t95 33.5q33 0 65.5 -14t58.5 -38.5t41 -58.5t15 -75z" />
<glyph unicode="&#x3c;" horiz-adv-x="983" d="M59 457v49l820 385l24 -92l-667 -312v-10l667 -313l-24 -92z" />
<glyph unicode="=" horiz-adv-x="983" d="M92 606l-6 101h811l-6 -101h-799zM86 250l6 100h799l6 -100h-811z" />
<glyph unicode="&#x3e;" horiz-adv-x="983" d="M104 72l-24 92l668 313v10l-668 312l24 92l820 -385v-49z" />
<glyph unicode="?" horiz-adv-x="731" d="M649 971q0 -63 -16.5 -105.5t-46 -71t-69.5 -49t-85 -38.5q-35 -12 -65.5 -25.5t-54 -31t-38 -41t-14.5 -56.5q0 -51 31 -93t76 -83h-62q-18 14 -42.5 37.5t-46 53.5t-37 64.5t-15.5 73.5q0 53 18.5 90t50 64.5t73.5 48t89 41.5q33 14 65 27.5t56.5 30t38.5 36t14 45.5 q0 68 -87 116t-228 48q-39 0 -71.5 -4t-55.5 -8q-8 10 -13 27.5t-5 33.5q0 47 42 77t109 30q84 0 154.5 -30t123 -77t82 -107.5t29.5 -123.5zM426 86q0 -47 -32 -82t-83 -35q-53 0 -85.5 35t-32.5 82q0 45 32.5 79t85.5 34q51 0 83 -34t32 -79z" />
<glyph unicode="@" horiz-adv-x="1708" d="M1057 547h-27q-43 -84 -91 -164t-96 -141.5t-94.5 -98.5t-89.5 -37q-41 0 -78.5 17.5t-66.5 46.5t-45 64.5t-16 70.5q0 61 19.5 138t52 154t75.5 146.5t90 116.5t99.5 70.5t101.5 23.5q74 0 128 -45t77 -116h22l51 137h97l-117 -334l-45 -365q-6 -35 19.5 -59.5 t90.5 -24.5q72 0 133.5 35t107.5 95.5t73.5 141.5t32.5 175q6 139 -42.5 255t-137.5 201t-211.5 133t-262.5 52q-145 2 -275 -52.5t-229.5 -149.5t-160 -223t-66.5 -271q-8 -158 41 -290t138 -228.5t213 -150.5t266 -54q66 0 129 11t122 30l21 -68q-74 -25 -138.5 -36 t-140.5 -11q-158 0 -296 59.5t-237 165t-153.5 250.5t-46.5 320q6 162 74 304t178.5 246.5t256 164t308.5 55.5q156 -4 293 -57.5t236.5 -147.5t155 -223t46.5 -285q-6 -115 -43.5 -210t-99 -163.5t-141.5 -106.5t-168 -38q-76 0 -119 16.5t-64.5 41t-24.5 52t3 47.5z M1051 719q-10 20 -30 46t-46.5 48.5t-59 37.5t-65.5 15q-55 0 -88 -32q-29 -29 -59.5 -90.5t-55 -135t-40 -147.5t-15.5 -127q0 -37 11 -61.5t27.5 -41t37 -23.5t37.5 -7q23 0 59.5 40t80.5 102.5t91 140t90 153.5q10 20 17.5 49t7.5 33z" />
<glyph unicode="A" horiz-adv-x="1222" d="M729 0l6 70l117 14q20 4 30.5 11t11.5 23.5t-6 45.5t-22 74l-75 225h-443l-74 -223q-29 -84 -29.5 -116t36.5 -40l102 -14l6 -70h-422l6 70l82 14q23 6 40.5 16.5t36 40t40 85t55.5 151.5l285 803v65l170 72l395 -1188q10 -33 51 -39l121 -20l6 -70h-526zM582 1122h-11 l-194 -575h387z" />
<glyph unicode="B" horiz-adv-x="1181" d="M1104 348q0 -172 -133 -260t-371 -88h-514l6 70l107 12q53 6 53 29v1060q0 12 -10.5 17.5t-42.5 9.5l-107 12l-6 70h522q127 0 213 -23.5t138.5 -62.5t75 -90t22.5 -107q0 -61 -22.5 -115.5t-63.5 -98.5t-98.5 -73.5t-127.5 -41.5v-9q186 -20 272.5 -108t86.5 -203z M926 334q0 72 -28 125t-79 89t-120.5 53t-151.5 17h-127v-516l160 -28l59 2q57 2 108.5 19.5t91.5 50t63.5 80t23.5 108.5zM877 946q0 121 -78 190.5t-250 69.5h-129v-512l162 2q76 0 132 23.5t92 58.5t53.5 80t17.5 88z" />
<glyph unicode="C" horiz-adv-x="1359" d="M1202 -2l-94 20q-57 -18 -144 -33.5t-171 -15.5q-147 0 -275.5 44t-221.5 128t-147.5 205t-54.5 275q0 160 54.5 286.5t149.5 215.5t224 137.5t279 48.5q90 0 164.5 -12.5t119.5 -26.5l156 33v-416h-86l-53 266q-53 31 -126 53.5t-188 22.5q-113 0 -206 -44t-160.5 -121 t-104 -184.5t-36.5 -232.5q0 -133 35.5 -242.5t103 -189.5t166 -124t225.5 -44q76 0 143.5 16.5t120.5 45.5l86 276h90z" />
<glyph unicode="D" horiz-adv-x="1390" d="M1298 666q0 -133 -47 -254t-142 -212t-237.5 -145.5t-332.5 -54.5h-453l6 70l107 12q53 6 53 29v1060q0 12 -10.5 17.5t-42.5 9.5l-107 12l-6 70l455 6q174 2 314 -44t238.5 -129t151.5 -197.5t53 -249.5zM1114 618q0 131 -40 240t-117.5 186.5t-192.5 119.5t-266 42h-78 v-1104l164 -26q127 2 225 45t165.5 115.5t103.5 169.5t36 212z" />
<glyph unicode="E" horiz-adv-x="1193" d="M1069 0h-983l6 70l107 12q53 6 53 29v1060q0 12 -10.5 17.5t-42.5 9.5l-107 12l-6 70h983v-371h-88l-45 207q-8 31 -21.5 48.5t-56.5 26.5t-127 11t-233 2h-78v-514h78q63 0 102 1t60.5 5t30.5 11.5t14 21.5l45 137h71l-43 -426h-67l-17 131q0 12 -6 20.5t-25.5 14.5 t-59.5 8t-109 2h-74v-540h55q162 0 254 3t139 12t62.5 26.5t25.5 46.5l52 198h100z" />
<glyph unicode="F" horiz-adv-x="1140" d="M965 909l-43 207q-10 31 -23.5 48.5t-56.5 26.5t-126 11t-233 2h-63v-526h94q63 0 102 1t60.5 5t30 11t14.5 22l47 137h70l-43 -426h-68l-14 131q-2 12 -8.5 20.5t-26 14.5t-59 8t-109.5 2h-90v-495q0 -12 11 -17.5t42 -9.5l148 -12l6 -70h-541l6 70l107 12q53 6 53 29 v1060q0 12 -10.5 17.5t-42.5 9.5l-107 12l-6 70h969v-371h-90z" />
<glyph unicode="G" horiz-adv-x="1449" d="M1391 496l-107 -13q-53 -8 -53 -30v-320l119 -10l4 -53q-127 -43 -276.5 -72t-282.5 -29q-150 0 -278 44t-222 128t-147.5 205t-53.5 275q0 160 56.5 286.5t154.5 215.5t229.5 137.5t278.5 48.5q92 0 166 -12.5t117 -26.5l155 33v-416h-86l-53 266q-53 31 -126 53.5 t-189 22.5q-111 0 -205 -44t-164 -121t-108.5 -184.5t-38.5 -232.5q0 -133 34.5 -242.5t101 -189.5t164 -124t222.5 -44q74 0 144.5 15.5t117.5 35.5v359q0 12 -10.5 17t-42.5 9l-129 13l-6 67h520z" />
<glyph unicode="H" horiz-adv-x="1501" d="M915 0l7 70l106 12q53 6 53 29v503h-661v-505q0 -12 11 -17.5t42 -9.5l107 -12l6 -70h-500l6 70l107 12q53 6 53 29v1060q0 12 -10.5 17.5t-42.5 9.5l-107 12l-6 70h500l-6 -70l-107 -12q-53 -6 -53 -29v-471h661v473q0 14 -10 18.5t-43 8.5l-106 12l-7 70h500l-6 -70 l-106 -12q-53 -6 -54 -29v-1060q0 -12 10.5 -17.5t43.5 -9.5l106 -12l6 -70h-500z" />
<glyph unicode="I" horiz-adv-x="718" d="M90 0l6 70l127 12q53 6 53 29v1060q0 12 -10 17.5t-43 9.5l-127 12l-6 70h541l-6 -70l-127 -12q-53 -6 -54 -29v-1060q0 -12 11.5 -17.5t42.5 -9.5l127 -12l6 -70h-541z" />
<glyph unicode="J" horiz-adv-x="796" d="M743 1210l-118 -12q-31 -4 -42.5 -10t-11.5 -19v-665q0 -258 -96 -396.5t-276 -138.5q-90 0 -143.5 36t-53.5 91q0 41 26.5 64.5t67.5 23.5q53 0 94 -39q37 -37 56 -106h2q39 10 67.5 33.5t48 72t28.5 127t9 201.5v698q0 14 -10 18.5t-43 8.5l-141 12l-6 70h549z" />
<glyph unicode="K" horiz-adv-x="1296" d="M834 0l6 70l80 12q12 4 11 16.5t-11 28.5l-361 508l-139 -137v-389q0 -12 11 -17.5t42 -9.5l107 -12l6 -70h-500l6 70l107 12q53 6 53 29v1060q0 12 -10.5 17.5t-42.5 9.5l-107 12l-6 70h500l-6 -70l-107 -12q-53 -6 -53 -29v-561l440 443q80 78 85 110.5t-42 36.5 l-104 12l-6 70h489l-6 -70l-86 -10q-35 -6 -67.5 -26.5t-86.5 -73.5l-364 -363l440 -590q27 -41 45.5 -52t48.5 -15l74 -10l6 -70h-452z" />
<glyph unicode="L" horiz-adv-x="1157" d="M1036 0h-950l6 70l107 12q53 6 53 29v1060q0 12 -10.5 17.5t-42.5 9.5l-107 12l-6 70h518l-6 -70l-125 -12q-53 -6 -53 -29v-1093h51q152 0 239 3t132 12t60.5 26.5t23.5 46.5l61 244h94z" />
<glyph unicode="M" horiz-adv-x="1728" d="M1151 0l6 70l133 10q12 2 19.5 15.5t10.5 47t3 89t-2 139.5l-29 794h-14l-412 -1124h-86l-399 1083h-21l-34 -747q-4 -98 -6.5 -156.5t-1.5 -88.5t7.5 -39t18.5 -9l135 -14l6 -70h-456l8 70l137 14q12 2 20.5 10t16.5 38t13 87t12 158l34 674q6 121 -59 137l-145 22 l-7 70h439l362 -987h10l355 987h428l-4 -70l-152 -10q-20 -2 -27.5 -17.5t-9.5 -31.5l29 -780q2 -90 6 -145.5t10 -87.5t14.5 -44t18.5 -14l129 -10l6 -70h-522z" />
<glyph unicode="N" horiz-adv-x="1507" d="M1454 1210l-123 -16q-23 -4 -36 -12t-20 -38t-9 -86.5t-2 -154.5v-919h-99l-805 1126h-8v-733q0 -98 2 -154.5t8.5 -86.5t19.5 -38t36 -12l123 -16l6 -70h-471l6 70l123 16q23 4 36 12t19 38t8 86.5t2 154.5v676q0 66 -14 94.5t-49 44.5l-117 18l-6 70h354l738 -1032h6 v655q0 98 -2 154.5t-8.5 86.5t-19.5 38t-36 12l-123 16l-6 70h473z" />
<glyph unicode="O" horiz-adv-x="1513" d="M1419 645q0 -137 -50 -260t-139 -215t-211 -146.5t-265 -54.5q-141 0 -262 48.5t-209 134.5t-138.5 207.5t-50.5 269.5q0 137 50.5 260t139.5 216t210.5 147.5t265.5 54.5q141 0 261 -48.5t209 -135.5t139 -209t50 -269zM1233 623q0 143 -40 256.5t-105.5 191.5 t-153.5 120t-182 42q-96 0 -181.5 -39t-150 -113.5t-102 -183.5t-37.5 -246q0 -143 38.5 -256.5t105.5 -191.5t153 -120t182 -42q94 0 180 39t151.5 113.5t103.5 182.5t38 247z" />
<glyph unicode="P" horiz-adv-x="1146" d="M1087 930q0 -98 -38.5 -175t-105 -129.5t-157 -80t-192.5 -27.5q-45 0 -89 3t-85 7v-419q0 -12 11 -17.5t42 -9.5l145 -12l7 -70h-539l6 70l107 12q53 6 53 29v1060q0 12 -10.5 17.5t-42.5 9.5l-107 12l-6 70h496q129 0 223 -27.5t157.5 -75t94 -110.5t30.5 -137z M907 897q0 145 -89 227t-243 80q-31 0 -58.5 -1t-49.5 -1h-47v-592q39 -10 80 -15t86 -5q147 0 234 82t87 225z" />
<glyph unicode="Q" horiz-adv-x="1513" d="M1524 -332q-43 -14 -115 -25.5t-145 -11.5q-98 0 -176 18.5t-140.5 59.5t-115 104.5t-99.5 155.5q-135 2 -251.5 51.5t-202.5 135.5t-135.5 206.5t-49.5 266.5q0 137 50.5 260t139.5 216t210.5 147.5t265.5 54.5q141 0 261 -48.5t209 -135.5t139 -208.5t50 -269.5 q0 -117 -35.5 -222.5t-100 -191.5t-156 -148.5t-199.5 -90.5q53 -92 113.5 -148.5t133 -85t157.5 -33t186 8.5zM1233 623q0 143 -40 256.5t-105.5 191.5t-153.5 120t-182 42q-96 0 -181.5 -39t-150 -113.5t-102 -183.5t-37.5 -246q0 -143 38.5 -256.5t105.5 -191.5t153 -120 t182 -42q94 0 180 39t151.5 113.5t103.5 182.5t38 247z" />
<glyph unicode="R" horiz-adv-x="1210" d="M1036 170q37 -53 56.5 -67.5t42.5 -18.5l84 -14l6 -70h-301l-78 141l-250 426q-51 -2 -88 -2q-35 0 -61.5 -1t-26.5 1v-456q0 -12 11 -17.5t42 -9.5l117 -12l6 -70h-510l6 70l107 12q53 6 53 29v1060q0 12 -10.5 17.5t-42.5 9.5l-107 12l-6 70h524q117 0 202 -23.5 t140.5 -64.5t82 -98.5t26.5 -126.5q0 -139 -83 -229.5t-220 -137.5zM879 930q0 139 -79 209.5t-243 60.5q-10 0 -32.5 -1t-45.5 -1q-27 -2 -59 -2v-545q0 -2 26.5 -3t59.5 -5q37 -4 88 -6q129 14 207 86t78 207z" />
<glyph unicode="S" horiz-adv-x="1032" d="M948 346q0 -76 -32.5 -143.5t-93 -119.5t-147.5 -83t-196 -31q-104 -2 -192 14.5t-166 41.5l-31 362h82l86 -283q51 -23 122 -39t130 -16q70 0 123 20.5t90 54.5t55.5 77t18.5 90q0 63 -22.5 108t-64.5 79t-101.5 59.5t-133.5 54.5t-139.5 59.5t-114.5 72.5t-76.5 99.5 t-27.5 137.5q0 68 25.5 131t77.5 110t132 77t187 30q84 2 140 -5.5t99 -17.5l107 31v-404h-82l-58 263q-51 23 -114.5 37t-118.5 14q-61 0 -108.5 -17.5t-78 -47t-46 -68.5t-15.5 -80q0 -61 23.5 -104.5t66.5 -76t100.5 -57t125.5 -51.5q78 -29 145.5 -59.5t116.5 -73.5 t77.5 -102.5t28.5 -143.5z" />
<glyph unicode="T" horiz-adv-x="1253" d="M1094 887l-45 215q-6 29 -17.5 48t-43.5 30.5t-93 17.5t-170 6h-14v-1095q0 -12 11 -17.5t42 -9.5l139 -12l6 -70h-565l6 70l139 12q53 6 54 29v1093h-15q-104 0 -165.5 -3t-95.5 -12t-47 -26.5t-21 -46.5l-56 -229h-92l35 393h1096v-393h-88z" />
<glyph unicode="U" horiz-adv-x="1456" d="M1399 1210l-121 -16q-23 -4 -36 -12t-20.5 -38t-9.5 -86.5t-2 -154.5v-479q0 -106 -33.5 -190t-97 -142.5t-154.5 -90.5t-204 -32t-203 28t-152.5 85t-96 146t-33.5 212v731q0 12 -10.5 17.5t-43.5 9.5l-106 12l-6 70h499l-6 -70l-106 -12q-53 -6 -54 -29v-708 q0 -111 29 -184.5t79 -118.5t118.5 -64.5t148.5 -19.5q174 0 262 99t88 261v469q0 98 -2 154.5t-8 86.5t-19.5 38t-35.5 12l-123 16l-6 70h471z" />
<glyph unicode="V" horiz-adv-x="1257" d="M1284 1210l-80 -14q-25 -6 -43 -16.5t-35.5 -40t-40 -85t-55.5 -151.5l-315 -907h-168l-404 1155q-4 16 -15 25.5t-34 13.5l-123 20l-6 70h527l-7 -70l-116 -14q-20 -4 -29.5 -11t-8.5 -23.5t10 -45.5t24 -74l301 -899h18l256 760q31 90 43 146.5t9 89t-20.5 45 t-43.5 16.5l-78 10l-6 70h446z" />
<glyph unicode="W" horiz-adv-x="1880" d="M1898 1210l-73 -14q-25 -8 -40.5 -17.5t-31.5 -38t-36.5 -84t-53.5 -153.5l-287 -907h-119l-296 885h-5l-309 -885h-121l-381 1155q-4 16 -15 25.5t-34 13.5l-121 20l-6 70h527l-7 -70l-116 -14q-39 -6 -37 -34.5t33 -119.5l256 -831h8l278 790l-49 150q-4 16 -15 25.5 t-36 13.5l-117 20l-6 70h520l-6 -70l-121 -14q-35 -6 -33.5 -37t29.5 -117l271 -833l6 2l207 692q31 96 45 151.5t13 85t-16.5 39t-41.5 15.5l-107 16l-6 70h457z" />
<glyph unicode="X" horiz-adv-x="1265" d="M762 0l6 70l102 12q47 6 34 40t-68 118l-228 342h-8l-256 -387q-39 -53 -35 -79t41 -32l90 -14l9 -70h-447l6 70l92 14q37 10 62.5 33.5t62.5 72.5l326 453l-356 508q-10 14 -26.5 25.5t-31.5 13.5l-106 20l-8 70h509l-6 -70l-100 -12q-51 -8 -38 -41t67 -117l198 -295h9 l225 342q68 98 -4 111l-95 12l-6 70h443l-6 -70l-91 -14q-37 -10 -64.5 -33.5t-62.5 -72.5l-290 -408l391 -553q10 -14 25.5 -24.5t31.5 -14.5l107 -20l6 -70h-510z" />
<glyph unicode="Y" horiz-adv-x="1228" d="M1231 1210l-62 -10q-41 -12 -71.5 -32.5t-67.5 -77.5l-321 -533v-448q0 -12 10 -17.5t43 -9.5l139 -12l6 -70h-567l6 70l141 12q53 6 54 29v426l-381 602q-12 16 -34 33.5t-50 23.5l-84 14l-6 70h499l-6 -70l-102 -12q-35 -4 -31 -39t55 -119l246 -407h10l267 454 q33 53 27.5 79t-44.5 34l-78 10l-6 70h414z" />
<glyph unicode="Z" horiz-adv-x="1136" d="M1053 0h-985v70l806 1126v8h-231q-139 0 -217 -6t-118 -18.5t-54 -35t-25 -57.5l-41 -186h-82v379h967v-72l-805 -1126l-2 -8l234 2q150 0 234.5 5t129.5 16.5t60.5 32t25.5 50.5l51 203h95z" />
<glyph unicode="[" horiz-adv-x="753" d="M195 -451v1784h516v-86h-416v-1612h416v-86h-516z" />
<glyph unicode="\" horiz-adv-x="571" d="M459 -432l-439 1790h93l438 -1790h-92z" />
<glyph unicode="]" horiz-adv-x="753" d="M43 -365h416v1612h-416v86h516v-1784h-516v86z" />
<glyph unicode="^" horiz-adv-x="819" d="M621 1040l-209 252h-4l-209 -252h-56l228 398h78l227 -398h-55z" />
<glyph unicode="_" horiz-adv-x="962" d="M-16 -106l6 104h983l6 -104h-995z" />
<glyph unicode="`" horiz-adv-x="819" d="M465 1040l-338 377h186l197 -377h-45z" />
<glyph unicode="a" horiz-adv-x="913" d="M911 96q-47 -59 -94 -93t-96 -34q-55 0 -93 36t-38 116h-8q-59 -63 -121 -107.5t-135 -44.5q-51 0 -96.5 17.5t-79 49.5t-54 76t-20.5 95q0 63 29.5 114.5t93 94.5t163 77.5t236.5 69.5v19q0 82 -13.5 135t-40 85t-66.5 44t-89 12q-29 0 -58.5 -5t-52 -13.5t-37 -17.5 t-14.5 -17t20.5 -31.5t20.5 -62.5q0 -35 -27.5 -64t-72.5 -29q-43 0 -70.5 25t-27.5 66q0 37 35.5 78.5t91 76.5t123 58.5t129.5 23.5q86 0 144 -19.5t93 -65.5t48.5 -122.5t8.5 -191.5l-16 -391q-4 -72 45 -72q23 0 47.5 15.5t57.5 41.5zM594 498q-102 -27 -173 -55.5 t-114 -59.5t-62.5 -65.5t-19.5 -75.5q0 -74 45 -116t111 -42q53 0 101 29.5t100 76.5z" />
<glyph unicode="b" horiz-adv-x="1050" d="M979 487q0 -104 -33 -197t-94 -165t-149.5 -114t-198.5 -42q-23 0 -52.5 4t-61.5 10.5t-62.5 14.5t-51.5 18h-4l-92 -59h-22v1262q0 33 -21 38l-153 46l6 51l313 73v-639h8q55 59 132 102.5t165 43.5q84 0 152.5 -34t117 -94.5t75 -142.5t26.5 -176zM821 430 q0 86 -19.5 156.5t-56 120t-87 77t-111.5 27.5q-78 0 -140.5 -38t-103.5 -85v-526q47 -45 104.5 -79t131.5 -34q59 0 110 27.5t90 77t60.5 120t21.5 156.5z" />
<glyph unicode="c" horiz-adv-x="905" d="M850 201q-55 -111 -151.5 -170.5t-217.5 -59.5q-90 0 -164.5 34t-130 95.5t-86 145.5t-30.5 184q0 113 37.5 207t103 162.5t153 106.5t183.5 38q70 0 124 -16.5t92 -43t57.5 -60t19.5 -70.5q0 -59 -34 -82t-71 -23q-55 0 -86 51.5t-8 128.5v5q-23 16 -55.5 26t-73.5 10 q-61 0 -113.5 -26.5t-90.5 -74.5t-60.5 -116.5t-22.5 -150.5q0 -86 23.5 -160t66.5 -127t102.5 -84t129.5 -31q72 0 139.5 30t122.5 95l41 -24v0z" />
<glyph unicode="d" horiz-adv-x="1077" d="M1053 6l-305 -37v137h-7q-51 -55 -124.5 -95t-163.5 -40q-80 0 -151 34t-122 95.5t-80.5 145.5t-29.5 184q0 104 34.5 197.5t99 162t155 108.5t200.5 40q45 0 94 -10t90 -27h5v359q0 31 -19 36l-160 37l9 49l315 45v-1300q0 -35 20 -39l146 -33zM748 737 q-47 47 -103.5 83t-132.5 36q-63 0 -115.5 -27.5t-89.5 -77t-57.5 -118t-20.5 -150.5q0 -178 80 -283.5t213 -105.5q72 0 126 26.5t100 67.5v549z" />
<glyph unicode="e" horiz-adv-x="935" d="M850 201q-55 -111 -151.5 -170.5t-217.5 -59.5q-90 0 -164.5 34t-130 95.5t-86 145.5t-30.5 184q0 113 37.5 207t101 162.5t148.5 106.5t182 38q145 0 230 -82t85 -215q0 -27 -3 -56.5t-7 -51.5l-617 8q-2 -6 -2 -24.5v-24.5q0 -86 23.5 -160t66.5 -126t102.5 -82 t129.5 -30q72 0 139.5 30t122.5 95zM690 610q8 121 -44 191.5t-144 70.5q-43 0 -85 -18t-78 -52t-63.5 -83t-39.5 -111h229h84t72.5 1t51 1t17.5 0z" />
<glyph unicode="f" horiz-adv-x="638" d="M791 1305q0 -43 -26 -68t-63 -25q-43 0 -77.5 33t-51.5 94l-2 11l-51 4q-86 -35 -132 -129.5t-46 -247.5v-66h285l-15 -94h-270v-711q0 -12 11.5 -19t45.5 -9l136 -8l6 -70h-488l6 70l86 8q51 2 52 31v704l-172 8l12 90h149l2 52q4 102 40 188t94.5 147.5t133 95 t156.5 33.5q72 0 125.5 -33.5t53.5 -88.5z" />
<glyph unicode="g" horiz-adv-x="940" d="M727 811v-10q29 -35 46.5 -78t17.5 -105q0 -68 -28 -126t-77 -103t-114.5 -70.5t-141.5 -25.5q-29 0 -60.5 3t-52.5 9q-12 -6 -28.5 -16t-31.5 -24.5t-25.5 -31t-10.5 -34.5q0 -41 36 -68t93 -27q25 0 59.5 1t68.5 1t63.5 1.5t46.5 1.5q70 0 125 -20.5t94 -56.5t60.5 -83 t21.5 -103q0 -80 -38 -147.5t-105.5 -115.5t-160.5 -74.5t-202 -26.5q-166 0 -264.5 67.5t-98.5 176.5q0 47 16.5 84.5t44.5 67.5t61.5 51.5t70.5 37.5v8q-57 10 -94 53.5t-37 94.5q0 61 50 113.5t116 82.5q0 4 1 4.5t1 2.5q-78 35 -126 106.5t-48 175.5q0 70 27.5 131.5 t75.5 107.5t114.5 71.5t144.5 25.5q68 0 124 -14.5t106 -36.5l278 -2v-119zM752 -219q0 78 -48.5 128t-173.5 54h-50t-41.5 -1t-55.5 -2t-90 -1q-16 -6 -40 -22.5t-44.5 -40t-34.5 -54t-14 -69.5q0 -51 23.5 -91t63.5 -68t94 -42t118 -14q63 0 117.5 17t93.5 47t60.5 71 t21.5 88zM639 614q0 70 -18.5 124.5t-55.5 88.5q-55 51 -129 52q-94 0 -150.5 -69t-56.5 -175q0 -78 23.5 -137.5t64.5 -96.5q53 -43 115 -43q86 0 133 45q37 33 55.5 86t18.5 125z" />
<glyph unicode="h" horiz-adv-x="1081" d="M621 0l6 70l84 8q33 2 42 9t9 22v446q0 152 -52.5 208t-144.5 56q-72 0 -136 -33.5t-107 -68.5v-611q0 -12 10 -19t45 -9l94 -8l6 -70h-442l6 70l82 8q51 2 51 31v1105q0 37 -22 43l-144 46l6 51l308 73v-630h10q78 66 159.5 106.5t167.5 40.5q47 0 92.5 -15.5 t79.5 -49.5q41 -41 58.5 -97.5t17.5 -130.5v-542q0 -12 10.5 -19.5t51.5 -11.5l80 -8l6 -70h-434z" />
<glyph unicode="i" horiz-adv-x="544" d="M356 1243q0 -45 -25.5 -80t-78.5 -35t-79 35t-26 80t26 80t79 35t78.5 -34t25.5 -81zM57 0l6 70l87 8q51 2 51 31v575q0 37 -3 59.5t-10.5 35t-21.5 18.5t-35 12l-82 12l4 56l293 67v-838q0 -12 11.5 -19t45.5 -9l86 -8l7 -70h-439z" />
<glyph unicode="j" horiz-adv-x="516" d="M350 1243q0 -45 -25.5 -80t-78.5 -35t-79 35t-26 80t26 80t79 35t78.5 -34t25.5 -81zM340 -68q-6 -109 -36 -195.5t-75 -147t-100 -92.5t-113 -32q-59 0 -103 30t-44 91q0 41 30.5 69t67.5 28q49 0 81 -33t48 -88q53 16 76 87.5t23 186.5v848q0 37 -3.5 59.5t-10.5 35 t-21.5 18.5t-34.5 12l-82 12l4 56l293 67v-1012z" />
<glyph unicode="k" horiz-adv-x="993" d="M713 0l-107 174l-192 277l-92 -84v-261q0 -12 10 -18t45 -10l80 -8l6 -70h-428l6 70l82 8q29 4 40 9t11 22v1105q0 37 -22 43l-144 46l6 51l308 73v-964l217 203q47 43 80.5 77.5t33.5 57.5q0 18 -16 26.5t-41 12.5l-66 6l-6 67h426l-6 -67l-51 -8q-41 -6 -84 -36 t-125 -106l-166 -151l293 -400q23 -29 40 -47t40 -20l80 -8l6 -70h-264z" />
<glyph unicode="l" horiz-adv-x="546" d="M55 0l6 70l86 8q51 2 52 31v1105q0 37 -23 43l-149 46l6 51l311 73v-1321q0 -12 11.5 -19t45.5 -9l86 -8l7 -70h-439z" />
<glyph unicode="m" horiz-adv-x="1654" d="M1188 0l6 70l80 8q33 2 42 9t9 22v452q0 74 -14.5 124t-40 80t-60 42t-73.5 12q-63 0 -125 -32.5t-105 -71.5q0 -6 1 -23.5t1 -37v-37v-23.5v-485q0 -12 9.5 -19.5t50.5 -11.5l86 -8l6 -70h-436l6 70l80 8q33 2 42 9t9 22v452q0 74 -14.5 124t-40 80t-60.5 42t-74 12 q-63 0 -124.5 -32.5t-102.5 -67.5v-613q0 -12 10.5 -19t44.5 -9l99 -8l6 -70h-447l7 70l81 8q51 2 52 31v575q0 37 -3 59.5t-10.5 35t-20.5 18.5t-34 12l-82 12l2 56l295 67v-147h6q76 66 155 106.5t159 40.5q45 0 89 -15.5t76 -45.5q41 -41 60 -101h8q78 72 161 117t165 45 q47 0 92 -15.5t80 -49.5q76 -76 76 -224v-546q0 -12 9 -19.5t50 -11.5l80 -8l6 -70h-430z" />
<glyph unicode="n" horiz-adv-x="1110" d="M645 0l6 70l84 8q33 2 42 9t9 22v446q0 152 -52 208t-144 56q-72 0 -136.5 -33.5t-107.5 -68.5v-611q0 -12 10.5 -19t44.5 -9l95 -8l6 -70h-443l7 70l81 8q51 2 52 31v579q0 70 -12.5 90.5t-51.5 30.5l-86 12l2 56l295 67v-147h10q78 66 160 106.5t168 40.5 q47 0 92 -15.5t80 -49.5q41 -41 58.5 -97.5t17.5 -130.5v-542q0 -12 10 -19.5t51 -11.5l82 -8l6 -70h-436z" />
<glyph unicode="o" horiz-adv-x="1060" d="M991 477q0 -106 -35.5 -199.5t-99 -162t-151 -107.5t-187.5 -39t-183 37t-141.5 101.5t-90 152.5t-31.5 193q0 104 36.5 194t101 156.5t152 103.5t185.5 37t180 -35t140.5 -97t91 -148.5t32.5 -186.5zM831 416q0 113 -26.5 210t-83.5 156q-29 29 -78 56.5t-117 27.5 q-63 0 -116.5 -26.5t-92 -74.5t-61.5 -115.5t-23 -151.5q0 -115 28 -211.5t85 -155.5q29 -29 76 -55.5t117 -26.5q61 0 114.5 25.5t93 74t62 116t22.5 151.5z" />
<glyph unicode="p" horiz-adv-x="1073" d="M1001 487q0 -104 -32.5 -197t-94 -165t-148.5 -114t-198 -42q-47 0 -102 10.5t-96 26.5h-4v-403q0 -12 10 -19.5t47 -9.5l106 -8l7 -70h-459l6 70l84 8q51 2 51 31v1083q0 70 -12 90.5t-51 30.5l-86 12l4 56l293 67v-156h8q55 59 132 102.5t165 43.5q84 0 152.5 -34 t116.5 -94.5t74.5 -142.5t26.5 -176zM844 430q0 86 -19.5 156.5t-56.5 120t-87 77t-112 27.5q-78 0 -140 -38t-103 -85v-526q47 -45 104 -79t131 -34q57 0 109.5 27.5t90.5 77t60.5 120t22.5 156.5z" />
<glyph unicode="q" horiz-adv-x="1052" d="M584 -504l6 70l106 8q33 2 42.5 9t9.5 22v501h-7q-51 -55 -124.5 -95t-163.5 -40q-80 0 -151 34t-122 95.5t-80.5 145.5t-29.5 184q0 104 34.5 197.5t99 162t155 108.5t200.5 40q53 0 112.5 -14.5t102.5 -34.5h4l92 57h23v-1341q0 -12 10 -19.5t51 -11.5l82 -8l6 -70 h-458zM748 737q-47 47 -103.5 83t-132.5 36q-63 0 -115.5 -27.5t-89.5 -77t-57.5 -118t-20.5 -150.5q0 -178 80 -283.5t213 -105.5q72 0 126 26.5t100 67.5v549z" />
<glyph unicode="r" horiz-adv-x="757" d="M750 842q0 -43 -25 -74t-72 -31q-33 0 -58.5 19.5t-39.5 46.5q-25 -14 -52.5 -39t-56 -55.5t-55 -66.5t-45.5 -75v-461q0 -12 10.5 -19t44.5 -9l109 -8l6 -70h-457l7 70l81 8q51 2 52 31v579q0 70 -12.5 90.5t-51.5 30.5l-84 12l4 56l291 67v-266h8q88 150 151.5 209 t129.5 59q55 0 85 -30.5t30 -73.5z" />
<glyph unicode="s" horiz-adv-x="823" d="M735 260q0 -55 -22.5 -108.5t-67.5 -93.5t-111.5 -64.5t-154.5 -24.5q-72 0 -141.5 10.5t-124.5 32.5l-13 264h93l43 -182q35 -25 76.5 -39t90.5 -14q37 0 74 12.5t65.5 35t46 54t17.5 70.5t-19.5 66.5t-51 49t-72.5 38t-86 32.5q-51 18 -99.5 41t-86 54.5t-61.5 76.5 t-24 111q0 51 20.5 99t61.5 85t100.5 59.5t137.5 22.5q68 0 114 -10t85 -23l61 21l16 -287h-90l-39 178q-35 23 -78.5 36.5t-84.5 13.5q-78 0 -126 -41t-48 -105q0 -37 16 -63.5t46 -48t72 -39t91 -35.5q51 -18 100 -41t88 -55.5t62.5 -77.5t23.5 -111z" />
<glyph unicode="t" horiz-adv-x="702" d="M662 86q-49 -51 -121 -84t-140 -33q-104 0 -169.5 62.5t-63.5 204.5l12 577l-162 8l2 60l140 84l96 129l72 -9l-2 -174h331l-14 -94h-317l-13 -545q-4 -102 39 -144t125 -42q41 0 86 15.5t86 37.5l13 -53v0z" />
<glyph unicode="u" horiz-adv-x="1077" d="M1059 6l-307 -37v150h-11q-78 -66 -159.5 -108t-167.5 -42q-47 0 -92.5 16.5t-79.5 51.5q-41 39 -58.5 96t-17.5 129l4 545q0 23 -12.5 23.5t-53.5 7.5l-77 8l-7 67h306l-15 -553q0 -154 52.5 -210t144.5 -56q72 0 136.5 34t107.5 71v608q0 14 -10.5 20.5t-45.5 10.5 l-102 8l-6 67h311v-786q0 -33 19 -39l147 -33z" />
<glyph unicode="v" horiz-adv-x="942" d="M971 846l-68 -15q-16 -2 -28.5 -7t-22.5 -16t-19.5 -31.5t-21.5 -53.5l-283 -737h-102l-311 786q-14 33 -28.5 43t-51.5 16l-64 13l-8 69h428l-6 -67l-76 -10q-25 -4 -36 -15.5t-1 -40.5l242 -626l211 577q18 51 15 73.5t-44 26.5l-80 15l-6 67h367z" />
<glyph unicode="w" horiz-adv-x="1413" d="M1438 846l-64 -10q-18 -4 -31.5 -9.5t-23.5 -16.5t-19.5 -32.5t-21.5 -54.5l-238 -737h-100l-223 596l-236 -596h-100l-270 786q-10 33 -24.5 45t-47.5 17l-62 10l-6 69h410l-6 -67l-68 -10q-25 -4 -37 -18.5t-2 -41.5l207 -614l199 524l-31 86q-12 33 -27.5 44t-50.5 15 l-63 15l-6 67h415l-6 -67l-65 -10q-27 -4 -39.5 -17.5t-1.5 -42.5l221 -618l172 563q16 55 9 81.5t-54 33.5l-64 10l-6 67h367z" />
<glyph unicode="x" horiz-adv-x="974" d="M561 0l6 68l60 12q35 8 36 25.5t-30 62.5l-166 227h-2l-174 -225q-35 -47 -36 -66.5t40 -23.5l67 -12l7 -68h-375l6 68l70 12q33 4 56.5 25.5t70.5 74.5l221 269l-221 286q-41 53 -66 72.5t-59 23.5l-60 15l-6 67h418l-6 -67l-60 -12q-35 -4 -33.5 -22.5t33.5 -63.5 l148 -203h2l154 200q35 45 35.5 64.5t-40.5 24.5l-67 12l-6 67h379l-7 -67l-69 -12q-39 -4 -61.5 -25t-67.5 -74l-203 -243l238 -312q41 -53 65.5 -72.5t54.5 -25.5l58 -12l6 -70h-416z" />
<glyph unicode="y" horiz-adv-x="925" d="M967 846l-68 -15q-33 -4 -50.5 -23.5t-43.5 -84.5l-250 -680l-98 -311q-43 -133 -96.5 -201t-143.5 -68q-61 0 -97 30t-36 77q0 43 23.5 72.5t72.5 29.5q47 0 74 -20.5t43 -52.5q27 12 47.5 50t42.5 107l78 224v2l-356 790q-14 31 -26.5 42t-51.5 17l-60 13l-8 69h422 l-6 -67l-70 -10q-25 -2 -36 -14.5t1 -41.5l254 -604l195 555q16 53 9 74.5t-48 25.5l-76 15l-6 67h371z" />
<glyph unicode="z" horiz-adv-x="917" d="M240 72h88q115 0 185.5 4t111.5 14t61.5 30.5t36.5 55.5l76 170h86l-82 -346h-746v61l592 783h-65q-115 0 -184.5 -4t-107.5 -15.5t-54.5 -32t-22.5 -53.5l-33 -172h-90v346h737v-61z" />
<glyph unicode="{" horiz-adv-x="681" d="M616 -477q-188 10 -288.5 90t-100.5 217q0 66 17.5 116t39 94t40 88t18.5 97q0 43 -23.5 73t-61.5 48.5t-86 27.5t-97 11l-23 57l23 56q49 2 97 10t86 26.5t61.5 48t23.5 74.5q0 51 -18.5 96.5t-40 90.5t-39 95t-17.5 116q0 137 100.5 216t288.5 91v-68 q-123 -10 -187 -65t-64 -127q0 -53 17 -97t38.5 -89.5t40 -96.5t18.5 -117q0 -51 -25.5 -96t-64.5 -78.5t-85 -53t-87 -21.5v-25q41 -4 87 -23.5t85 -53.5t64.5 -78t25.5 -95q0 -66 -18.5 -115t-40 -94t-38.5 -89t-17 -95q0 -35 16 -68.5t49 -60.5t79 -45.5t107 -24.5v-63v0 z" />
<glyph unicode="|" horiz-adv-x="569" d="M240 1409h90v-1790h-90v1790z" />
<glyph unicode="}" horiz-adv-x="681" d="M608 385q-49 -2 -97 -11t-86 -27.5t-61.5 -48.5t-23.5 -73q0 -53 17.5 -97t39 -88t40 -94t18.5 -116q0 -137 -100.5 -217t-288.5 -90v63q121 10 186 68.5t65 130.5q0 51 -18 95t-39.5 89t-39 94.5t-17.5 114.5q0 51 25.5 95t64.5 78t85 53.5t87 23.5v25q-41 2 -87 21.5 t-85 53t-64.5 78.5t-25.5 96q0 66 17.5 117t39 96.5t39.5 89.5t18 97q0 72 -65.5 127t-185.5 65v68q188 -12 288.5 -91t100.5 -216q0 -66 -18.5 -116t-40 -95t-39 -90t-17.5 -97q0 -45 23.5 -74.5t61.5 -48t86 -26.5t97 -10l23 -56z" />
<glyph unicode="~" horiz-adv-x="819" d="M741 580q-20 -117 -67 -178.5t-129 -61.5q-47 0 -90 22.5t-81 50t-72 51t-60 23.5q-33 0 -56.5 -26.5t-54.5 -106.5h-53q20 119 67.5 179.5t128.5 60.5q47 0 90.5 -23.5t81 -51t70.5 -50.5t62 -23q33 0 56 27t54 107h53v0z" />
<glyph unicode="&#xa1;" horiz-adv-x="575" d="M403 1192q0 -45 -30.5 -79t-83.5 -34q-51 0 -85 34t-34 79q0 47 34 82t85 35q53 0 83.5 -35t30.5 -82zM387 45q4 -33 -11.5 -54.5t-70.5 -21.5h-31q-55 0 -70.5 21.5t-10.5 54.5l75 829q2 12 20.5 12.5t20.5 -12.5z" />
<glyph unicode="&#xa2;" horiz-adv-x="903" d="M371 -340h-74l86 326q-72 18 -129 62t-98 105.5t-63.5 136.5t-22.5 156q0 111 37.5 202t103 156.5t152 102.5t184.5 37q25 0 47 -2t43 -6q6 27 14 57q6 27 15.5 58.5t19.5 66.5q23 80 49 182h74l-102 -385q63 -29 96 -70.5t33 -88.5q0 -41 -27 -65.5t-55 -24.5 q-70 0 -99 59l-166 -619q27 -8 66 -8q70 0 136.5 33t119.5 94l41 -22q-59 -113 -153.5 -173.5t-209.5 -60.5h-18t-16 2zM612 844q-43 23 -106 22q-59 0 -110.5 -24.5t-89.5 -70.5t-59.5 -113.5t-21.5 -153.5q0 -131 53.5 -230.5t143.5 -144.5z" />
<glyph unicode="&#xa3;" horiz-adv-x="946" d="M274 610q-4 61 -6 116.5t-2 96.5q0 104 28 190.5t80 148t128 95t170 33.5q100 0 159.5 -41t59.5 -112q0 -41 -28.5 -69t-67.5 -28q-51 0 -82 40t-19 104q-16 10 -39.5 18t-54.5 8q-39 0 -72.5 -15t-58.5 -53t-38 -100.5t-13 -156.5q0 -47 3 -119t7 -156h334l6 -80h-338 q2 -23 2 -45v-45q-2 -78 -20.5 -148.5t-49.5 -123.5v-10q29 -6 67 -18.5t79 -26t83 -22.5t79 -9q80 0 110 35q29 29 49.5 68.5t38.5 86.5l45 -12q2 -55 -11 -110.5t-43 -99.5t-78 -71.5t-117 -27.5q-55 0 -104.5 19.5t-92.5 45t-80 54t-65 47.5q-47 -59 -119 -104.5 t-172 -67.5l-23 69q154 47 214.5 140.5t60.5 228.5q0 35 -1 72t-3 75h-207l6 80h196v0z" />
<glyph unicode="&#xa4;" horiz-adv-x="886" d="M688 911q49 -78 49 -176q0 -96 -51 -176l127 -127l-70 -70l-125 125q-37 -25 -80.5 -39t-97.5 -14q-102 0 -178 51l-115 -114l-67 67l115 115q-53 78 -54 182q0 49 12.5 95.5t39.5 82.5l-119 119l69 70l119 -119q37 25 81 39t97 14q104 0 183 -55l112 113l68 -68z M649 735q0 43 -14 82t-42 68.5t-66 47t-87 17.5q-98 0 -154.5 -64.5t-56.5 -150.5q0 -43 14.5 -82t42 -68.5t66.5 -47t88 -17.5t87 17.5t66 47t42 68.5t14 82z" />
<glyph unicode="&#xa5;" horiz-adv-x="1253" d="M1219 1210l-60 -10q-41 -12 -71.5 -32.5t-65.5 -77.5l-272 -463h346l6 -82h-387v-174h381l6 -82h-387v-162q0 -31 37 -37l159 -20l7 -70h-564l6 70l160 20q37 6 37 37v162h-377l6 82h371v174h-377l6 82h332l-321 512q-10 16 -33 33.5t-51 23.5l-86 14l-7 70h488l-6 -70 l-103 -12q-35 -4 -30.5 -39t57.5 -119l233 -389h9l247 436q29 53 24 79t-42 34l-78 10l-6 70h412z" />
<glyph unicode="&#xa6;" horiz-adv-x="569" d="M240 1315h90v-686h-90v686zM240 401h90v-686h-90v686z" />
<glyph unicode="&#xa7;" horiz-adv-x="880" d="M817 522q0 -84 -51 -147.5t-123 -100.5q43 -66 43 -141q0 -49 -23.5 -97t-64.5 -86t-99.5 -60.5t-125.5 -22.5q-43 0 -83 10t-72 28.5t-51.5 46.5t-19.5 62q0 41 26 66.5t65 25.5q49 0 80.5 -37.5t46.5 -107.5q20 -10 40.5 -12t43.5 -2q57 0 90.5 36.5t33.5 102.5 q0 41 -20.5 77t-54 67.5t-77.5 60t-89 57.5q-49 31 -97.5 62.5t-87 69.5t-62.5 83t-24 103q0 82 51.5 145t123.5 100q-43 68 -43 144q0 45 22.5 90t63 82t95 59.5t120.5 22.5q43 0 83.5 -10.5t71.5 -29t50.5 -46t19.5 -62.5q0 -41 -25.5 -66.5t-64.5 -25.5q-49 0 -81 38 t-46 107q-31 14 -74 15q-51 0 -87 -33t-36 -96q0 -41 20.5 -76t54.5 -66.5t78 -60.5t89 -57q49 -31 97 -63t87 -68.5t62.5 -83t23.5 -103.5zM707 457q0 76 -55.5 129t-131.5 104q-66 43 -135.5 85t-116.5 97q-39 -23 -67.5 -61.5t-28.5 -79.5q0 -39 15.5 -70.5t41 -59.5 t59.5 -53.5t70 -49.5q66 -41 135.5 -85t118.5 -100q95 58 95 144z" />
<glyph unicode="&#xa8;" horiz-adv-x="819" d="M727 1223q0 -47 -29.5 -84t-83.5 -37q-53 0 -82.5 37t-29.5 84t29.5 83.5t82.5 36.5t83 -36.5t30 -83.5zM317 1223q0 -47 -29.5 -84t-82.5 -37t-83 37t-30 84t30 83.5t83 36.5t82.5 -36.5t29.5 -83.5z" />
<glyph unicode="&#xa9;" horiz-adv-x="1503" d="M1421 639q0 -139 -52 -261t-143 -213t-213 -143.5t-261 -52.5t-261 52.5t-213.5 143.5t-143.5 213t-52 261t52 261t143.5 213t213 144.5t261.5 53.5q139 0 261 -53.5t213 -144.5t143 -213t52 -261zM1348 639q0 123 -47.5 233.5t-128 192.5t-189.5 130t-231 48 q-123 0 -231.5 -48t-189.5 -130t-128 -192.5t-47 -233.5t47 -232.5t128 -191.5t189.5 -130t231.5 -48t231.5 48t189 130t128 191.5t47.5 232.5zM1014 274l-58 13q-35 -12 -86 -20.5t-94 -8.5q-92 0 -163.5 27.5t-121 77t-76 117t-26.5 147.5q0 86 27.5 157.5t79 124t122 82 t154.5 29.5q51 0 93 -6t73 -17l92 23v-260h-53l-43 151q-27 18 -70 30.5t-102 12.5q-55 0 -102.5 -21.5t-82 -59t-54 -93t-19.5 -123.5q0 -147 74.5 -241t214.5 -94q37 0 71.5 8t57.5 24l63 162h55z" />
<glyph unicode="&#xaa;" horiz-adv-x="692" d="M696 664q-23 -31 -63.5 -54.5t-85.5 -23.5q-49 0 -75 28.5t-32 77.5h-4q-49 -45 -105.5 -75.5t-103.5 -30.5q-63 0 -115.5 43t-52.5 116q0 98 100.5 157t286.5 93l3 68q6 80 -43.5 126t-120.5 46q-37 0 -69 -15.5t-32 -25.5q0 -4 12.5 -22.5t12.5 -45.5q0 -29 -19.5 -47 t-54.5 -18t-56.5 20.5t-21.5 55.5q0 29 29 58.5t74 54t99 40t106 15.5q115 0 166 -60.5t47 -163.5l-13 -327q-2 -39 9.5 -57.5t43.5 -18.5q33 0 72 22zM444 948q-111 -23 -182.5 -59.5t-71.5 -97.5q0 -45 29 -76t76 -31q35 0 76 20.5t67 43.5z" />
<glyph unicode="&#xab;" horiz-adv-x="997" d="M895 94l-442 316v86l442 315l18 -41l-315 -317l315 -318zM512 115l-444 295v86l444 295l18 -41l-297 -297l297 -297z" />
<glyph unicode="&#xac;" horiz-adv-x="983" d="M911 199h-104v329h-735l6 101h833v-430z" />
<glyph unicode="&#xad;" horiz-adv-x="671" d="M70 428l6 104h524l6 -104h-536z" />
<glyph unicode="&#xae;" horiz-adv-x="1503" d="M1421 639q0 -139 -52 -261t-143 -213t-213 -143.5t-261 -52.5t-261 52.5t-213.5 143.5t-143.5 213t-52 261t52 261t143.5 213t213 144.5t261.5 53.5q139 0 261 -53.5t213 -144.5t143 -213t52 -261zM1348 639q0 123 -47.5 233.5t-128 192.5t-189.5 130t-231 48 q-123 0 -231.5 -48t-189.5 -130t-128 -192.5t-47 -233.5t47 -232.5t128 -191.5t189.5 -130t231.5 -48t231.5 48t189 130t128 191.5t47.5 232.5zM934 281l-45 81l-141 224l-97 4v-215q0 -20 21 -23l88 -12l4 -59h-324l6 59l76 12q20 2 21 23v538q0 20 -21 23l-76 12l-6 60 h324q70 0 120 -15.5t82.5 -42t48 -59.5t15.5 -70q0 -78 -47 -131t-131 -80l145 -221q20 -25 29.5 -31t22.5 -10l69 -8l6 -59h-190zM911 803q0 150 -198 141l-62 -2v-287l94 -10q72 6 119 44t47 114z" />
<glyph unicode="&#xaf;" horiz-adv-x="819" d="M160 1104l6 84h493l7 -84h-506z" />
<glyph unicode="&#xb0;" horiz-adv-x="841" d="M760 987q0 -68 -23.5 -129t-67.5 -107t-106.5 -74t-142.5 -28q-78 0 -141.5 28t-107.5 74t-67.5 107.5t-23.5 128.5q0 70 23.5 132.5t67.5 108.5t107.5 73.5t141.5 27.5q80 0 142.5 -27.5t106.5 -73.5t67.5 -108.5t23.5 -132.5zM420 1245q-57 0 -103.5 -20.5t-78 -55 t-48 -82t-16.5 -100.5q0 -49 16.5 -95t48 -82t77.5 -56.5t104 -20.5q57 0 103 20.5t78 56.5t49.5 82t17.5 95q0 53 -17.5 100.5t-49.5 82t-78 55t-103 20.5z" />
<glyph unicode="&#xb1;" horiz-adv-x="983" d="M545 471v-305h-105v305h-374l6 100h368v338h105v-338h366l7 -100h-373zM66 29l6 100h839l7 -100h-852z" />
<glyph unicode="&#xb2;" horiz-adv-x="675" d="M41 625q88 80 163 146.5t128 123.5t83.5 109.5t30.5 105.5q0 70 -45 106.5t-110 36.5q-121 0 -211 -104l-21 27q43 70 115 123t170 53q55 0 99 -16.5t76 -45t49.5 -66.5t17.5 -81q0 -61 -34 -115.5t-93.5 -111t-141 -120t-176.5 -141.5l9 -4q4 -2 6 -2h100q92 0 146.5 2 t83 8.5t40 17.5t21.5 32l26 59h58l-41 -209h-543z" />
<glyph unicode="&#xb3;" horiz-adv-x="675" d="M238 530q-86 0 -136.5 28t-50.5 73q0 27 19.5 44t48.5 17q45 0 72.5 -31.5t35.5 -72.5q6 -2 19.5 -2h23.5q82 0 138.5 50t56.5 126q0 74 -51.5 112.5t-118.5 38.5q-31 0 -61.5 -8t-59.5 -20l-18 35q51 29 98 55t84 54t58.5 56.5t21.5 63.5q0 51 -39 78.5t-109 27.5 q-53 0 -101 -24.5t-93 -67.5l-25 29q49 61 120 110.5t169 49.5q90 0 154.5 -41t64.5 -113q0 -39 -19.5 -70.5t-53 -59.5t-79 -52.5t-94.5 -48.5v-2q53 14 104.5 10t91.5 -27.5t64.5 -62.5t24.5 -90t-28.5 -99.5t-78 -85.5t-114.5 -58.5t-139 -21.5z" />
<glyph unicode="&#xb4;" horiz-adv-x="819" d="M354 1040h-47l193 377h192z" />
<glyph unicode="&#xb5;" horiz-adv-x="1077" d="M166 227l4 580q0 23 -12.5 23.5t-53.5 7.5l-77 8l-7 67h306l-9 -622q-4 -102 47.5 -149.5t143.5 -47.5q72 0 136.5 37t107.5 74v602q0 14 -10.5 20.5t-45.5 10.5l-102 8l-6 67h311v-786q0 -33 19 -39l147 -33l-6 -49l-307 -37v156h-11q-25 -31 -50 -58.5t-54 -49 t-62.5 -35t-76.5 -13.5q-47 0 -79 12.5t-54.5 31t-36 39t-21.5 36.5h-6l16 -573l-180 -19z" />
<glyph unicode="&#xb6;" horiz-adv-x="1011" d="M737 -66v627q-53 -16 -101 -22.5t-85 -6.5q-121 0 -209 29t-145.5 80t-86 118.5t-28.5 145.5q0 92 31.5 163t90 118t140.5 70.5t180 23.5h312v-1346h-99z" />
<glyph unicode="&#xb7;" horiz-adv-x="462" d="M360 465q0 -49 -34.5 -88t-89.5 -39q-57 0 -93.5 39t-36.5 88t36 86t94 37q55 0 89.5 -37t34.5 -86z" />
<glyph unicode="&#xb8;" horiz-adv-x="819" d="M643 -301q0 -98 -107.5 -163.5t-310.5 -82.5l-16 45q164 23 241.5 67t77.5 113q0 49 -43 80t-131 31q-29 0 -58.5 -3t-59.5 -7v35l213 225h81l-151 -160q117 4 190.5 -43t73.5 -137z" />
<glyph unicode="&#xb9;" horiz-adv-x="675" d="M123 610l141 17q31 8 31 28v586l-186 12l4 37l305 62v-697q0 -23 31 -28l118 -17l4 -51h-452z" />
<glyph unicode="&#xba;" horiz-adv-x="788" d="M737 946q0 -74 -25.5 -139.5t-70.5 -114.5t-109.5 -77.5t-140.5 -28.5q-78 0 -141.5 27.5t-108.5 76.5t-68.5 113.5t-23.5 138.5t25.5 140.5t72 115.5t111 78t139.5 29q78 0 141.5 -29t107.5 -77t67.5 -113.5t23.5 -139.5zM596 909q0 90 -21.5 162t-62.5 113 q-23 23 -56.5 40t-74.5 17q-84 0 -137.5 -69.5t-53.5 -192.5q0 -92 24 -165t65 -114q23 -23 55.5 -36t73.5 -13q82 0 135 67.5t53 190.5z" />
<glyph unicode="&#xbb;" horiz-adv-x="997" d="M487 115l-18 41l299 297l-299 297l18 41l445 -295v-86zM106 94l-20 41l315 318l-315 317l20 41l441 -315v-86z" />
<glyph unicode="&#xbc;" horiz-adv-x="1464" d="M1182 -66h-363l-6 50l401 508h84v-496h140l-8 -62h-132v-227h-116v227zM1182 -4v364h-6l-289 -364h295zM1272 1280h104l-1102 -1518h-102zM123 610l141 17q31 8 31 28v586l-186 12l4 37l305 62v-697q0 -23 31 -28l118 -17l4 -51h-452z" />
<glyph unicode="&#xbd;" horiz-adv-x="1464" d="M1241 1280h105l-1102 -1518h-103zM123 610l141 17q31 8 31 28v586l-186 12l4 37l305 62v-697q0 -23 31 -28l118 -17l4 -51h-452zM829 -227q88 80 163 146.5t128.5 123.5t84 109.5t30.5 105.5q0 70 -45 106.5t-111 36.5q-121 0 -211 -104l-20 27q43 70 114.5 123t170.5 53 q55 0 99 -16.5t75.5 -45t49 -66.5t17.5 -81q0 -61 -33.5 -115.5t-93 -111t-141.5 -120t-176 -141.5l8 -4q4 -2 6 -2h100q92 0 146.5 2t83.5 8.5t40 17.5t21 32l27 59h57l-41 -209h-542z" />
<glyph unicode="&#xbe;" horiz-adv-x="1464" d="M1182 -66h-363l-6 50l401 508h84v-496h140l-8 -62h-132v-227h-116v227zM1182 -4v364h-6l-289 -364h295zM1272 1280h104l-1102 -1518h-102zM238 530q-86 0 -136.5 28t-50.5 73q0 27 19.5 44t48.5 17q45 0 72.5 -31.5t35.5 -72.5q6 -2 19.5 -2h23.5q82 0 138.5 50t56.5 126 q0 74 -51.5 112.5t-118.5 38.5q-31 0 -61.5 -8t-59.5 -20l-18 35q51 29 98 55t84 54t58.5 56.5t21.5 63.5q0 51 -39 78.5t-109 27.5q-53 0 -101 -24.5t-93 -67.5l-25 29q49 61 120 110.5t169 49.5q90 0 154.5 -41t64.5 -113q0 -39 -19.5 -70.5t-53 -59.5t-79 -52.5 t-94.5 -48.5v-2q53 14 104.5 10t91.5 -27.5t64.5 -62.5t24.5 -90t-28.5 -99.5t-78 -85.5t-114.5 -58.5t-139 -21.5z" />
<glyph unicode="&#xbf;" horiz-adv-x="731" d="M543 1192q0 -45 -34 -79t-87 -34q-51 0 -83 34t-32 79q0 47 32 82t83 35q53 0 87 -35t34 -82zM625 76q0 -47 -41 -77t-111 -30q-84 0 -154.5 29t-123 77t-81 108.5t-28.5 123.5t16.5 105.5t45 71t67.5 49t86 38.5q33 12 64.5 25.5t56 31t39 40t14.5 57.5q0 51 -31.5 93 t-76.5 83h61q18 -16 44 -38.5t47.5 -52.5t36.5 -64.5t15 -73.5q0 -53 -18 -90t-50 -65t-74 -48t-89 -41q-35 -14 -66.5 -27.5t-56 -30t-39 -36t-14.5 -45.5q0 -68 87 -116t230 -48q37 0 70 4t55 8q10 -10 14.5 -27.5t4.5 -33.5z" />
<glyph unicode="&#xc0;" horiz-adv-x="1222" d="M729 0l6 70l117 14q20 4 30.5 11t11.5 23.5t-6 45.5t-22 74l-75 225h-443l-74 -223q-29 -84 -29.5 -116t36.5 -40l102 -14l6 -70h-422l6 70l82 14q23 6 40.5 16.5t36 40t40 85t55.5 151.5l285 803v65l170 72l395 -1188q10 -33 51 -39l121 -20l6 -70h-526zM582 1122h-11 l-194 -575h387zM616 1386l-337 377h186l197 -377h-46z" />
<glyph unicode="&#xc1;" horiz-adv-x="1222" d="M729 0l6 70l117 14q20 4 30.5 11t11.5 23.5t-6 45.5t-22 74l-75 225h-443l-74 -223q-29 -84 -29.5 -116t36.5 -40l102 -14l6 -70h-422l6 70l82 14q23 6 40.5 16.5t36 40t40 85t55.5 151.5l285 803v65l170 72l395 -1188q10 -33 51 -39l121 -20l6 -70h-526zM582 1122h-11 l-194 -575h387zM571 1386h-47l193 377h192z" />
<glyph unicode="&#xc2;" horiz-adv-x="1222" d="M729 0l6 70l117 14q20 4 30.5 11t11.5 23.5t-6 45.5t-22 74l-75 225h-443l-74 -223q-29 -84 -29.5 -116t36.5 -40l102 -14l6 -70h-422l6 70l82 14q23 6 40.5 16.5t36 40t40 85t55.5 151.5l285 803v65l170 72l395 -1188q10 -33 51 -39l121 -20l6 -70h-526zM582 1122h-11 l-194 -575h387zM811 1386l-209 252h-4l-209 -252h-55l227 398h78l227 -398h-55z" />
<glyph unicode="&#xc3;" horiz-adv-x="1222" d="M729 0l6 70l117 14q20 4 30.5 11t11.5 23.5t-6 45.5t-22 74l-75 225h-443l-74 -223q-29 -84 -29.5 -116t36.5 -40l102 -14l6 -70h-422l6 70l82 14q23 6 40.5 16.5t36 40t40 85t55.5 151.5l285 803v65l170 72l395 -1188q10 -33 51 -39l121 -20l6 -70h-526zM582 1122h-11 l-194 -575h387zM932 1651q-20 -117 -67.5 -178.5t-129.5 -61.5q-47 0 -90 22.5t-81 50t-71.5 51.5t-60.5 24q-33 0 -56.5 -27t-53.5 -107h-54q20 119 67.5 179.5t129.5 60.5q47 0 90 -23.5t81 -51t70.5 -50t61.5 -22.5q33 0 56.5 26.5t54.5 106.5h53z" />
<glyph unicode="&#xc4;" horiz-adv-x="1222" d="M729 0l6 70l117 14q20 4 30.5 11t11.5 23.5t-6 45.5t-22 74l-75 225h-443l-74 -223q-29 -84 -29.5 -116t36.5 -40l102 -14l6 -70h-422l6 70l82 14q23 6 40.5 16.5t36 40t40 85t55.5 151.5l285 803v65l170 72l395 -1188q10 -33 51 -39l121 -20l6 -70h-526zM582 1122h-11 l-194 -575h387zM918 1556q0 -47 -30 -83.5t-83 -36.5t-83 36.5t-30 83.5t30 84t83 37t83 -37t30 -84zM508 1556q0 -47 -29.5 -83.5t-83.5 -36.5q-53 0 -82.5 36.5t-29.5 83.5t29.5 84t82.5 37t83 -37t30 -84z" />
<glyph unicode="&#xc5;" horiz-adv-x="1222" d="M535 1241q-51 20 -80 66.5t-29 103.5q0 76 48 130t134 54t134.5 -54t48.5 -130q0 -51 -23 -94t-63 -68l372 -1120q10 -33 51 -39l121 -20l6 -70h-526l6 70l117 14q20 4 30.5 11t11.5 23.5t-6 45.5t-22 74l-75 225h-443l-74 -223q-29 -84 -29.5 -116t36.5 -40l102 -14 l6 -70h-422l6 70l82 14q23 6 40.5 16.5t36 40t40 85t55.5 151.5zM582 1124h-11l-194 -577h387zM731 1411q0 51 -31.5 90t-91.5 39q-57 0 -89 -39t-32 -90q0 -53 32 -92t89 -39q59 0 91 39t32 92z" />
<glyph unicode="&#xc6;" horiz-adv-x="1646" d="M1538 0h-950l6 70l125 20q37 6 37 37v336h-396l-102 -201q-29 -55 -42 -89t-16 -52.5t4 -25.5t23 -9l103 -16l6 -70h-442l6 70l86 14q25 6 44 15.5t42.5 38t56.5 83.5t84 158l381 725q43 80 -41 94l-88 12l-6 70h1079v-371h-80l-45 207q-8 31 -20.5 48.5t-55.5 26.5 t-127 11t-235 2h-62v-514h60q68 0 106.5 1t60 5t30 11.5t12.5 21.5l47 137h65l-41 -426h-65l-14 131q-2 12 -7.5 20.5t-26 14.5t-60.5 8t-111 2h-56v-540h35q166 0 259 3t140.5 12t61.5 26.5t25 46.5l51 198h92zM756 1194h-19l-334 -647h353v647z" />
<glyph unicode="&#xc7;" horiz-adv-x="1359" d="M745 -29q-139 6 -257.5 53.5t-206.5 130.5t-137.5 200.5t-49.5 265.5q0 160 54.5 286.5t149.5 215.5t224 137.5t279 48.5q90 0 164.5 -12.5t119.5 -26.5l156 33v-416h-86l-53 266q-53 31 -126 53.5t-188 22.5q-113 0 -206 -44t-160.5 -121t-104 -184.5t-36.5 -232.5 q0 -133 35.5 -242.5t103 -189.5t166 -124t225.5 -44q76 0 143.5 16.5t120.5 45.5l86 276h90l-49 -387l-94 20q-51 -16 -127 -30.5t-154 -18.5l-86 -90q117 4 191 -43t74 -137q0 -98 -107.5 -163.5t-310.5 -82.5l-17 45q164 23 242 67t78 113q0 49 -43 80t-131 31 q-29 0 -58.5 -3t-60.5 -7v35l147 157v0z" />
<glyph unicode="&#xc8;" horiz-adv-x="1193" d="M1069 0h-983l6 70l107 12q53 6 53 29v1060q0 12 -10.5 17.5t-42.5 9.5l-107 12l-6 70h983v-371h-88l-45 207q-8 31 -21.5 48.5t-56.5 26.5t-127 11t-233 2h-78v-514h78q63 0 102 1t60.5 5t30.5 11.5t14 21.5l45 137h71l-43 -426h-67l-17 131q0 12 -6 20.5t-25.5 14.5 t-59.5 8t-109 2h-74v-540h55q162 0 254 3t139 12t62.5 26.5t25.5 46.5l52 198h100zM639 1386l-338 377h186l197 -377h-45z" />
<glyph unicode="&#xc9;" horiz-adv-x="1193" d="M1069 0h-983l6 70l107 12q53 6 53 29v1060q0 12 -10.5 17.5t-42.5 9.5l-107 12l-6 70h983v-371h-88l-45 207q-8 31 -21.5 48.5t-56.5 26.5t-127 11t-233 2h-78v-514h78q63 0 102 1t60.5 5t30.5 11.5t14 21.5l45 137h71l-43 -426h-67l-17 131q0 12 -6 20.5t-25.5 14.5 t-59.5 8t-109 2h-74v-540h55q162 0 254 3t139 12t62.5 26.5t25.5 46.5l52 198h100zM586 1386h-47l192 377h193z" />
<glyph unicode="&#xca;" horiz-adv-x="1193" d="M1069 0h-983l6 70l107 12q53 6 53 29v1060q0 12 -10.5 17.5t-42.5 9.5l-107 12l-6 70h983v-371h-88l-45 207q-8 31 -21.5 48.5t-56.5 26.5t-127 11t-233 2h-78v-514h78q63 0 102 1t60.5 5t30.5 11.5t14 21.5l45 137h71l-43 -426h-67l-17 131q0 12 -6 20.5t-25.5 14.5 t-59.5 8t-109 2h-74v-540h55q162 0 254 3t139 12t62.5 26.5t25.5 46.5l52 198h100zM809 1386l-209 252h-4l-209 -252h-55l227 398h78l227 -398h-55z" />
<glyph unicode="&#xcb;" horiz-adv-x="1193" d="M1069 0h-983l6 70l107 12q53 6 53 29v1060q0 12 -10.5 17.5t-42.5 9.5l-107 12l-6 70h983v-371h-88l-45 207q-8 31 -21.5 48.5t-56.5 26.5t-127 11t-233 2h-78v-514h78q63 0 102 1t60.5 5t30.5 11.5t14 21.5l45 137h71l-43 -426h-67l-17 131q0 12 -6 20.5t-25.5 14.5 t-59.5 8t-109 2h-74v-540h55q162 0 254 3t139 12t62.5 26.5t25.5 46.5l52 198h100zM915 1556q0 -47 -29.5 -83.5t-82.5 -36.5t-83 36.5t-30 83.5t30 84t83 37t82.5 -37t29.5 -84zM506 1556q0 -47 -30 -83.5t-83 -36.5t-82.5 36.5t-29.5 83.5t29.5 84t82.5 37t83 -37t30 -84z " />
<glyph unicode="&#xcc;" horiz-adv-x="718" d="M90 0l6 70l127 12q53 6 53 29v1060q0 12 -10 17.5t-43 9.5l-127 12l-6 70h541l-6 -70l-127 -12q-53 -6 -54 -29v-1060q0 -12 11.5 -17.5t42.5 -9.5l127 -12l6 -70h-541zM354 1386l-338 377h187l196 -377h-45z" />
<glyph unicode="&#xcd;" horiz-adv-x="718" d="M90 0l6 70l127 12q53 6 53 29v1060q0 12 -10 17.5t-43 9.5l-127 12l-6 70h541l-6 -70l-127 -12q-53 -6 -54 -29v-1060q0 -12 11.5 -17.5t42.5 -9.5l127 -12l6 -70h-541zM369 1386h-47l192 377h193z" />
<glyph unicode="&#xce;" horiz-adv-x="718" d="M90 0l6 70l127 12q53 6 53 29v1060q0 12 -10 17.5t-43 9.5l-127 12l-6 70h541l-6 -70l-127 -12q-53 -6 -54 -29v-1060q0 -12 11.5 -17.5t42.5 -9.5l127 -12l6 -70h-541zM569 1386l-209 252h-4l-209 -252h-55l227 398h78l228 -398h-56z" />
<glyph unicode="&#xcf;" horiz-adv-x="718" d="M90 0l6 70l127 12q53 6 53 29v1060q0 12 -10 17.5t-43 9.5l-127 12l-6 70h541l-6 -70l-127 -12q-53 -6 -54 -29v-1060q0 -12 11.5 -17.5t42.5 -9.5l127 -12l6 -70h-541zM676 1563q0 -47 -30 -84t-83 -37t-82.5 37t-29.5 84t29.5 83.5t82.5 36.5t83 -36.5t30 -83.5z M266 1563q0 -47 -29.5 -84t-82.5 -37t-83 37t-30 84t29.5 83.5t83.5 36.5q53 0 82.5 -36.5t29.5 -83.5z" />
<glyph unicode="&#xd0;" horiz-adv-x="1370" d="M68 614l6 80h178v459q0 31 -37 37l-125 20l-6 70l444 6q172 2 311.5 -44t239 -129t153.5 -197.5t54 -249.5q0 -143 -47 -265t-141 -211.5t-237.5 -139.5t-334.5 -50h-442l6 70l125 20q37 6 37 37v487h-184zM664 694l6 -80h-260v-512l165 -26q125 -2 225.5 38t170 112.5 t106.5 172t37 213.5q0 135 -41 245t-120 187.5t-195.5 119.5t-270.5 42h-77v-512h254z" />
<glyph unicode="&#xd1;" horiz-adv-x="1507" d="M1454 1210l-123 -16q-23 -4 -36 -12t-20 -38t-9 -86.5t-2 -154.5v-919h-99l-805 1126h-8v-733q0 -98 2 -154.5t8.5 -86.5t19.5 -38t36 -12l123 -16l6 -70h-471l6 70l123 16q23 4 36 12t19 38t8 86.5t2 154.5v676q0 66 -14 94.5t-49 44.5l-117 18l-6 70h354l738 -1032h6 v655q0 98 -2 154.5t-8.5 86.5t-19.5 38t-36 12l-123 16l-6 70h473zM1085 1651q-20 -117 -67 -178.5t-129 -61.5q-47 0 -90 22.5t-81 50t-72 51.5t-60 24q-33 0 -56.5 -27t-54.5 -107h-53q20 119 67.5 179.5t128.5 60.5q47 0 90.5 -23.5t81 -51t70.5 -50t62 -22.5 q33 0 56 26.5t54 106.5h53z" />
<glyph unicode="&#xd2;" horiz-adv-x="1513" d="M1419 645q0 -137 -50 -260t-139 -215t-211 -146.5t-265 -54.5q-141 0 -262 48.5t-209 134.5t-138.5 207.5t-50.5 269.5q0 137 50.5 260t139.5 216t210.5 147.5t265.5 54.5q141 0 261 -48.5t209 -135.5t139 -209t50 -269zM1233 623q0 143 -40 256.5t-105.5 191.5 t-153.5 120t-182 42q-96 0 -181.5 -39t-150 -113.5t-102 -183.5t-37.5 -246q0 -143 38.5 -256.5t105.5 -191.5t153 -120t182 -42q94 0 180 39t151.5 113.5t103.5 182.5t38 247zM791 1386l-338 377h186l197 -377h-45z" />
<glyph unicode="&#xd3;" horiz-adv-x="1513" d="M1419 645q0 -137 -50 -260t-139 -215t-211 -146.5t-265 -54.5q-141 0 -262 48.5t-209 134.5t-138.5 207.5t-50.5 269.5q0 137 50.5 260t139.5 216t210.5 147.5t265.5 54.5q141 0 261 -48.5t209 -135.5t139 -209t50 -269zM1233 623q0 143 -40 256.5t-105.5 191.5 t-153.5 120t-182 42q-96 0 -181.5 -39t-150 -113.5t-102 -183.5t-37.5 -246q0 -143 38.5 -256.5t105.5 -191.5t153 -120t182 -42q94 0 180 39t151.5 113.5t103.5 182.5t38 247zM700 1386h-47l193 377h192z" />
<glyph unicode="&#xd4;" horiz-adv-x="1513" d="M1419 645q0 -137 -50 -260t-139 -215t-211 -146.5t-265 -54.5q-141 0 -262 48.5t-209 134.5t-138.5 207.5t-50.5 269.5q0 137 50.5 260t139.5 216t210.5 147.5t265.5 54.5q141 0 261 -48.5t209 -135.5t139 -209t50 -269zM1233 623q0 143 -40 256.5t-105.5 191.5 t-153.5 120t-182 42q-96 0 -181.5 -39t-150 -113.5t-102 -183.5t-37.5 -246q0 -143 38.5 -256.5t105.5 -191.5t153 -120t182 -42q94 0 180 39t151.5 113.5t103.5 182.5t38 247zM967 1386l-209 252h-4l-209 -252h-56l228 398h78l227 -398h-55z" />
<glyph unicode="&#xd5;" horiz-adv-x="1513" d="M1419 645q0 -137 -50 -260t-139 -215t-211 -146.5t-265 -54.5q-141 0 -262 48.5t-209 134.5t-138.5 207.5t-50.5 269.5q0 137 50.5 260t139.5 216t210.5 147.5t265.5 54.5q141 0 261 -48.5t209 -135.5t139 -209t50 -269zM1233 623q0 143 -40 256.5t-105.5 191.5 t-153.5 120t-182 42q-96 0 -181.5 -39t-150 -113.5t-102 -183.5t-37.5 -246q0 -143 38.5 -256.5t105.5 -191.5t153 -120t182 -42q94 0 180 39t151.5 113.5t103.5 182.5t38 247zM1087 1651q-20 -117 -67 -178.5t-129 -61.5q-47 0 -90 22.5t-81 50t-72 51.5t-60 24 q-33 0 -56.5 -27t-54.5 -107h-53q20 119 67.5 179.5t129.5 60.5q47 0 90 -23.5t80.5 -51t70.5 -50t62 -22.5q33 0 56.5 26.5t53.5 106.5h53z" />
<glyph unicode="&#xd6;" horiz-adv-x="1513" d="M1419 645q0 -137 -50 -260t-139 -215t-211 -146.5t-265 -54.5q-141 0 -262 48.5t-209 134.5t-138.5 207.5t-50.5 269.5q0 137 50.5 260t139.5 216t210.5 147.5t265.5 54.5q141 0 261 -48.5t209 -135.5t139 -209t50 -269zM1233 623q0 143 -40 256.5t-105.5 191.5 t-153.5 120t-182 42q-96 0 -181.5 -39t-150 -113.5t-102 -183.5t-37.5 -246q0 -143 38.5 -256.5t105.5 -191.5t153 -120t182 -42q94 0 180 39t151.5 113.5t103.5 182.5t38 247zM1073 1556q0 -47 -29.5 -83.5t-82.5 -36.5t-83 36.5t-30 83.5t29.5 84t83.5 37q53 0 82.5 -37 t29.5 -84zM664 1556q0 -47 -30 -83.5t-83 -36.5t-83 36.5t-30 83.5t30 84t83 37t83 -37t30 -84z" />
<glyph unicode="&#xd7;" horiz-adv-x="983" d="M563 481l346 -348l-69 -72l-348 349l-349 -349l-69 72l346 348l-346 346l69 70l349 -346l348 346l69 -70z" />
<glyph unicode="&#xd8;" horiz-adv-x="1513" d="M1384 649q0 -135 -45 -258t-129 -216t-204.5 -149.5t-272.5 -56.5q-82 0 -157.5 17.5t-143.5 50.5q-18 -31 -36.5 -63.5t-35.5 -61.5q-18 -33 -36 -64h-91l132 228q-129 84 -204 225t-75 328q0 135 45 258t129 216t204 149.5t271 56.5q170 0 307 -72l99 172h90l-121 -209 q127 -86 200.5 -226.5t73.5 -324.5zM983 1137q-115 90 -264 90q-98 0 -183 -39t-147.5 -111.5t-98.5 -176t-36 -234.5q0 -158 48 -278t128 -200zM1217 612q0 154 -48.5 274t-126.5 199q-156 -266 -276 -475q-53 -90 -102.5 -175t-88.5 -150q-45 -78 -86 -148 q119 -82 261 -82q98 0 184 38t148.5 109.5t98.5 175t36 234.5z" />
<glyph unicode="&#xd9;" horiz-adv-x="1456" d="M1399 1210l-121 -16q-23 -4 -36 -12t-20.5 -38t-9.5 -86.5t-2 -154.5v-479q0 -106 -33.5 -190t-97 -142.5t-154.5 -90.5t-204 -32t-203 28t-152.5 85t-96 146t-33.5 212v731q0 12 -10.5 17.5t-43.5 9.5l-106 12l-6 70h499l-6 -70l-106 -12q-53 -6 -54 -29v-708 q0 -111 29 -184.5t79 -118.5t118.5 -64.5t148.5 -19.5q174 0 262 99t88 261v469q0 98 -2 154.5t-8 86.5t-19.5 38t-35.5 12l-123 16l-6 70h471zM760 1386l-338 377h186l197 -377h-45z" />
<glyph unicode="&#xda;" horiz-adv-x="1456" d="M1399 1210l-121 -16q-23 -4 -36 -12t-20.5 -38t-9.5 -86.5t-2 -154.5v-479q0 -106 -33.5 -190t-97 -142.5t-154.5 -90.5t-204 -32t-203 28t-152.5 85t-96 146t-33.5 212v731q0 12 -10.5 17.5t-43.5 9.5l-106 12l-6 70h499l-6 -70l-106 -12q-53 -6 -54 -29v-708 q0 -111 29 -184.5t79 -118.5t118.5 -64.5t148.5 -19.5q174 0 262 99t88 261v469q0 98 -2 154.5t-8 86.5t-19.5 38t-35.5 12l-123 16l-6 70h471zM731 1386h-47l193 377h192z" />
<glyph unicode="&#xdb;" horiz-adv-x="1456" d="M1399 1210l-121 -16q-23 -4 -36 -12t-20.5 -38t-9.5 -86.5t-2 -154.5v-479q0 -106 -33.5 -190t-97 -142.5t-154.5 -90.5t-204 -32t-203 28t-152.5 85t-96 146t-33.5 212v731q0 12 -10.5 17.5t-43.5 9.5l-106 12l-6 70h499l-6 -70l-106 -12q-53 -6 -54 -29v-708 q0 -111 29 -184.5t79 -118.5t118.5 -64.5t148.5 -19.5q174 0 262 99t88 261v469q0 98 -2 154.5t-8 86.5t-19.5 38t-35.5 12l-123 16l-6 70h471zM967 1386l-209 252h-4l-209 -252h-56l228 398h78l227 -398h-55z" />
<glyph unicode="&#xdc;" horiz-adv-x="1456" d="M1399 1210l-121 -16q-23 -4 -36 -12t-20.5 -38t-9.5 -86.5t-2 -154.5v-479q0 -106 -33.5 -190t-97 -142.5t-154.5 -90.5t-204 -32t-203 28t-152.5 85t-96 146t-33.5 212v731q0 12 -10.5 17.5t-43.5 9.5l-106 12l-6 70h499l-6 -70l-106 -12q-53 -6 -54 -29v-708 q0 -111 29 -184.5t79 -118.5t118.5 -64.5t148.5 -19.5q174 0 262 99t88 261v469q0 98 -2 154.5t-8 86.5t-19.5 38t-35.5 12l-123 16l-6 70h471zM635 1556q0 -47 -30 -83.5t-83 -36.5t-82.5 36.5t-29.5 83.5t29.5 84t82.5 37t83 -37t30 -84zM1044 1556q0 -47 -29.5 -83.5 t-82.5 -36.5t-83 36.5t-30 83.5t30 84t83 37t82.5 -37t29.5 -84z" />
<glyph unicode="&#xdd;" horiz-adv-x="1228" d="M1231 1210l-62 -10q-41 -12 -71.5 -32.5t-67.5 -77.5l-321 -533v-448q0 -12 10 -17.5t43 -9.5l139 -12l6 -70h-567l6 70l141 12q53 6 54 29v426l-381 602q-12 16 -34 33.5t-50 23.5l-84 14l-6 70h499l-6 -70l-102 -12q-35 -4 -31 -39t55 -119l246 -407h10l267 454 q33 53 27.5 79t-44.5 34l-78 10l-6 70h414zM565 1393h-47l193 376h192z" />
<glyph unicode="&#xde;" horiz-adv-x="1181" d="M1087 674q0 -96 -38.5 -171t-105 -127t-157 -79t-192.5 -27q-49 0 -88 3t-86 8v-172q0 -12 11 -17.5t42 -9.5l145 -12l7 -70h-539l6 70l107 12q53 6 53 29v1060q0 12 -10.5 17.5t-42.5 9.5l-107 12l-6 70h500l-6 -70l-107 -12q-16 -2 -34.5 -9t-18.5 -20v-137h162 q129 0 223 -27.5t157.5 -75.5t94 -113.5t30.5 -141.5zM907 641q0 152 -99 234.5t-282 78.5h-106v-589q43 -10 84 -15.5t96 -5.5q147 0 227 79t80 218z" />
<glyph unicode="&#xdf;" horiz-adv-x="1054" d="M649 862q61 -35 127 -88t118 -120.5t86 -147.5t34 -166q0 -74 -26.5 -141.5t-71 -118.5t-103.5 -82t-127 -31q-106 0 -174 50.5t-68 123.5q0 47 31 80t78 33q45 0 70.5 -23.5t33 -55.5t-3 -64.5t-37.5 -53.5q14 -6 35 -12t41 -6q37 0 71 18.5t59.5 50t41 75.5t15.5 93 q0 68 -25 140.5t-74 144.5t-122.5 138.5t-174.5 121.5v49q137 25 202 89.5t65 187.5q0 41 -15.5 78t-41 64.5t-61.5 44t-75 16.5q-215 0 -215 -312v-1038h-289l6 70l95 8q43 0 43 31v700l-172 12l10 84l151 13l2 47q16 223 119 339.5t271 116.5q147 0 232 -76.5t85 -201.5 q0 -113 -71 -181.5t-175 -99.5z" />
<glyph unicode="&#xe0;" horiz-adv-x="913" d="M465 1040l-338 377h186l197 -377h-45zM913 96q-47 -59 -94 -93t-96 -34q-55 0 -93 36t-38 116h-8q-59 -63 -121 -107.5t-135 -44.5q-51 0 -96.5 17.5t-79 49.5t-54 76t-20.5 95q0 63 29.5 114.5t93 94.5t163 77.5t236.5 69.5v19q0 82 -13.5 135t-40 85t-66.5 44t-89 12 q-29 0 -58.5 -5t-52 -13.5t-37 -17.5t-14.5 -17t20.5 -31.5t20.5 -62.5q0 -35 -27.5 -64t-72.5 -29q-43 0 -70.5 25t-27.5 66q0 37 35.5 78.5t91 76.5t123 58.5t129.5 23.5q86 0 144 -19.5t93 -65.5t48.5 -122.5t8.5 -191.5l-16 -391q-4 -72 45 -72q23 0 47.5 15.5 t57.5 41.5zM596 498q-102 -27 -173 -55.5t-114 -59.5t-62.5 -65.5t-19.5 -75.5q0 -74 45 -116t111 -42q53 0 101 29.5t100 76.5z" />
<glyph unicode="&#xe1;" horiz-adv-x="913" d="M911 96q-47 -59 -94 -93t-96 -34q-55 0 -93 36t-38 116h-8q-59 -63 -121 -107.5t-135 -44.5q-51 0 -96.5 17.5t-79 49.5t-54 76t-20.5 95q0 63 29.5 114.5t93 94.5t163 77.5t236.5 69.5v19q0 82 -13.5 135t-40 85t-66.5 44t-89 12q-29 0 -58.5 -5t-52 -13.5t-37 -17.5 t-14.5 -17t20.5 -31.5t20.5 -62.5q0 -35 -27.5 -64t-72.5 -29q-43 0 -70.5 25t-27.5 66q0 37 35.5 78.5t91 76.5t123 58.5t129.5 23.5q86 0 144 -19.5t93 -65.5t48.5 -122.5t8.5 -191.5l-16 -391q-4 -72 45 -72q23 0 47.5 15.5t57.5 41.5zM594 498q-102 -27 -173 -55.5 t-114 -59.5t-62.5 -65.5t-19.5 -75.5q0 -74 45 -116t111 -42q53 0 101 29.5t100 76.5zM395 1040h-47l193 377h192z" />
<glyph unicode="&#xe2;" horiz-adv-x="913" d="M911 96q-47 -59 -94 -93t-96 -34q-55 0 -93 36t-38 116h-8q-59 -63 -121 -107.5t-135 -44.5q-51 0 -96.5 17.5t-79 49.5t-54 76t-20.5 95q0 63 29.5 114.5t93 94.5t163 77.5t236.5 69.5v19q0 82 -13.5 135t-40 85t-66.5 44t-89 12q-29 0 -58.5 -5t-52 -13.5t-37 -17.5 t-14.5 -17t20.5 -31.5t20.5 -62.5q0 -35 -27.5 -64t-72.5 -29q-43 0 -70.5 25t-27.5 66q0 37 35.5 78.5t91 76.5t123 58.5t129.5 23.5q86 0 144 -19.5t93 -65.5t48.5 -122.5t8.5 -191.5l-16 -391q-4 -72 45 -72q23 0 47.5 15.5t57.5 41.5zM594 498q-102 -27 -173 -55.5 t-114 -59.5t-62.5 -65.5t-19.5 -75.5q0 -74 45 -116t111 -42q53 0 101 29.5t100 76.5zM625 1040l-209 252h-4l-209 -252h-56l228 398h78l227 -398h-55z" />
<glyph unicode="&#xe3;" horiz-adv-x="913" d="M911 96q-47 -59 -94 -93t-96 -34q-55 0 -93 36t-38 116h-8q-59 -63 -121 -107.5t-135 -44.5q-51 0 -96.5 17.5t-79 49.5t-54 76t-20.5 95q0 63 29.5 114.5t93 94.5t163 77.5t236.5 69.5v19q0 82 -13.5 135t-40 85t-66.5 44t-89 12q-29 0 -58.5 -5t-52 -13.5t-37 -17.5 t-14.5 -17t20.5 -31.5t20.5 -62.5q0 -35 -27.5 -64t-72.5 -29q-43 0 -70.5 25t-27.5 66q0 37 35.5 78.5t91 76.5t123 58.5t129.5 23.5q86 0 144 -19.5t93 -65.5t48.5 -122.5t8.5 -191.5l-16 -391q-4 -72 45 -72q23 0 47.5 15.5t57.5 41.5zM594 498q-102 -27 -173 -55.5 t-114 -59.5t-62.5 -65.5t-19.5 -75.5q0 -74 45 -116t111 -42q53 0 101 29.5t100 76.5zM750 1305q-20 -117 -67.5 -178.5t-129.5 -61.5q-47 0 -90 22.5t-81 50t-72 51t-60 23.5q-33 0 -56.5 -26.5t-54.5 -106.5h-53q20 119 67.5 179.5t129.5 60.5q47 0 90 -23.5t81 -51 t70.5 -50.5t61.5 -23q33 0 56.5 27t53.5 107h54z" />
<glyph unicode="&#xe4;" horiz-adv-x="913" d="M911 96q-47 -59 -94 -93t-96 -34q-55 0 -93 36t-38 116h-8q-59 -63 -121 -107.5t-135 -44.5q-51 0 -96.5 17.5t-79 49.5t-54 76t-20.5 95q0 63 29.5 114.5t93 94.5t163 77.5t236.5 69.5v19q0 82 -13.5 135t-40 85t-66.5 44t-89 12q-29 0 -58.5 -5t-52 -13.5t-37 -17.5 t-14.5 -17t20.5 -31.5t20.5 -62.5q0 -35 -27.5 -64t-72.5 -29q-43 0 -70.5 25t-27.5 66q0 37 35.5 78.5t91 76.5t123 58.5t129.5 23.5q86 0 144 -19.5t93 -65.5t48.5 -122.5t8.5 -191.5l-16 -391q-4 -72 45 -72q23 0 47.5 15.5t57.5 41.5zM594 498q-102 -27 -173 -55.5 t-114 -59.5t-62.5 -65.5t-19.5 -75.5q0 -74 45 -116t111 -42q53 0 101 29.5t100 76.5zM748 1223q0 -47 -30 -84t-83 -37t-83 37t-30 84t30 83.5t83 36.5t83 -36.5t30 -83.5zM338 1223q0 -47 -29.5 -84t-83.5 -37q-53 0 -82.5 37t-29.5 84t29.5 83.5t82.5 36.5t83 -36.5 t30 -83.5z" />
<glyph unicode="&#xe5;" horiz-adv-x="913" d="M625 1239q0 -76 -48.5 -130t-134.5 -54t-134 54t-48 130t48 130t134 54t134.5 -54t48.5 -130zM911 96q-47 -59 -94 -93t-96 -34q-55 0 -93 36t-38 116h-8q-59 -63 -121 -107.5t-135 -44.5q-51 0 -96.5 17.5t-79 49.5t-54 76t-20.5 95q0 63 29.5 114.5t93 94.5t163 77.5 t236.5 69.5v19q0 82 -13.5 135t-40 85t-66.5 44t-89 12q-29 0 -58.5 -5t-52 -13.5t-37 -17.5t-14.5 -17t20.5 -31.5t20.5 -62.5q0 -35 -27.5 -64t-72.5 -29q-43 0 -70.5 25t-27.5 66q0 37 35.5 78.5t91 76.5t123 58.5t129.5 23.5q86 0 144 -19.5t93 -65.5t48.5 -122.5 t8.5 -191.5l-16 -391q-4 -72 45 -72q23 0 47.5 15.5t57.5 41.5zM563 1239q0 53 -31.5 92t-89.5 39q-57 0 -88.5 -39t-31.5 -92q0 -51 31.5 -90t88.5 -39t89 39t32 90zM594 498q-102 -27 -173 -55.5t-114 -59.5t-62.5 -65.5t-19.5 -75.5q0 -74 45 -116t111 -42q53 0 101 29.5 t100 76.5z" />
<glyph unicode="&#xe6;" horiz-adv-x="1456" d="M649 178q-29 -43 -65.5 -81t-79.5 -66.5t-89 -45t-91 -16.5q-49 0 -94.5 17.5t-79 49.5t-54 76t-20.5 95q0 127 124 208t398 148v25q10 150 -49.5 210t-159.5 60q-29 0 -58.5 -5t-52 -13.5t-37 -17.5t-14.5 -17t20.5 -31.5t20.5 -62.5q0 -35 -27.5 -64t-72.5 -29 q-43 0 -70.5 25t-27.5 66q0 37 35.5 78.5t91 76.5t123 58.5t129.5 23.5q115 0 183 -37t91 -116q66 72 152 111.5t184 39.5q145 0 230 -82t85 -215q0 -27 -3 -56.5t-9 -51.5l-617 8q0 -6 -1 -24.5t-1 -24.5q0 -86 24 -160t67 -126t102 -82t129 -30q72 0 140.5 30t121.5 95 l41 -24q-55 -111 -151.5 -170.5t-215.5 -59.5q-117 0 -208 55.5t-144 151.5zM1210 610q6 121 -45 191.5t-145 70.5q-43 0 -85 -18t-78 -52t-63.5 -83t-39.5 -111h231h84t73 1t41 1h27zM594 498q-102 -27 -173 -55.5t-114 -59.5t-62.5 -65.5t-19.5 -75.5q0 -74 45 -116 t115 -42t129 38t111 103q-16 47 -26.5 98.5t-10.5 106.5q0 12 2 34t4 34z" />
<glyph unicode="&#xe7;" horiz-adv-x="905" d="M457 -29q-84 6 -156 42t-123 96.5t-79.5 142.5t-28.5 178q0 113 37.5 207t103 162.5t153 106.5t183.5 38q70 0 124 -16.5t92 -43t57.5 -60t19.5 -70.5q0 -59 -34 -82t-71 -23q-55 0 -86 51.5t-8 128.5v5q-23 16 -55.5 26t-73.5 10q-61 0 -113.5 -26.5t-90.5 -74.5 t-60.5 -116.5t-22.5 -150.5q0 -86 23.5 -160t66.5 -127t102.5 -84t129.5 -31q72 0 139.5 30t122.5 95l41 -24q-47 -96 -127 -153.5t-180 -72.5l-92 -96q117 4 190.5 -43t73.5 -137q0 -98 -107.5 -163.5t-310.5 -82.5l-16 45q164 23 241.5 67t77.5 113q0 49 -43 80t-131 31 q-29 0 -58.5 -3t-60.5 -7v35l150 157v0z" />
<glyph unicode="&#xe8;" horiz-adv-x="935" d="M850 201q-55 -111 -151.5 -170.5t-217.5 -59.5q-90 0 -164.5 34t-130 95.5t-86 145.5t-30.5 184q0 113 37.5 207t101 162.5t148.5 106.5t182 38q145 0 230 -82t85 -215q0 -27 -3 -56.5t-7 -51.5l-617 8q-2 -6 -2 -24.5v-24.5q0 -86 23.5 -160t66.5 -126t102.5 -82 t129.5 -30q72 0 139.5 30t122.5 95zM690 610q8 121 -44 191.5t-144 70.5q-43 0 -85 -18t-78 -52t-63.5 -83t-39.5 -111h229h84t72.5 1t51 1t17.5 0zM520 1040l-338 377h187l196 -377h-45z" />
<glyph unicode="&#xe9;" horiz-adv-x="935" d="M850 201q-55 -111 -151.5 -170.5t-217.5 -59.5q-90 0 -164.5 34t-130 95.5t-86 145.5t-30.5 184q0 113 37.5 207t101 162.5t148.5 106.5t182 38q145 0 230 -82t85 -215q0 -27 -3 -56.5t-7 -51.5l-617 8q-2 -6 -2 -24.5v-24.5q0 -86 23.5 -160t66.5 -126t102.5 -82 t129.5 -30q72 0 139.5 30t122.5 95zM690 610q8 121 -44 191.5t-144 70.5q-43 0 -85 -18t-78 -52t-63.5 -83t-39.5 -111h229h84t72.5 1t51 1t17.5 0zM422 1040h-47l192 377h193z" />
<glyph unicode="&#xea;" horiz-adv-x="935" d="M850 201q-55 -111 -151.5 -170.5t-217.5 -59.5q-90 0 -164.5 34t-130 95.5t-86 145.5t-30.5 184q0 113 37.5 207t101 162.5t148.5 106.5t182 38q145 0 230 -82t85 -215q0 -27 -3 -56.5t-7 -51.5l-617 8q-2 -6 -2 -24.5v-24.5q0 -86 23.5 -160t66.5 -126t102.5 -82 t129.5 -30q72 0 139.5 30t122.5 95zM690 610q8 121 -44 191.5t-144 70.5q-43 0 -85 -18t-78 -52t-63.5 -83t-39.5 -111h229h84t72.5 1t51 1t17.5 0zM686 1040l-209 252h-4l-209 -252h-55l227 398h78l227 -398h-55z" />
<glyph unicode="&#xeb;" horiz-adv-x="935" d="M850 201q-55 -111 -151.5 -170.5t-217.5 -59.5q-90 0 -164.5 34t-130 95.5t-86 145.5t-30.5 184q0 113 37.5 207t101 162.5t148.5 106.5t182 38q145 0 230 -82t85 -215q0 -27 -3 -56.5t-7 -51.5l-617 8q-2 -6 -2 -24.5v-24.5q0 -86 23.5 -160t66.5 -126t102.5 -82 t129.5 -30q72 0 139.5 30t122.5 95zM690 610q8 121 -44 191.5t-144 70.5q-43 0 -85 -18t-78 -52t-63.5 -83t-39.5 -111h229h84t72.5 1t51 1t17.5 0zM793 1223q0 -47 -30 -84t-83 -37t-83 37t-30 84t30 83.5t83 36.5t83 -36.5t30 -83.5zM383 1223q0 -47 -29.5 -84t-83.5 -37 q-53 0 -82.5 37t-29.5 84t29.5 83.5t82.5 36.5t83 -36.5t30 -83.5z" />
<glyph unicode="&#xec;" horiz-adv-x="544" d="M57 0l6 70l87 8q51 2 51 31v575q0 37 -3 59.5t-10.5 35t-21.5 18.5t-35 12l-82 12l4 56l293 67v-838q0 -12 11.5 -19t45.5 -9l86 -8l7 -70h-439zM303 1040l-338 377h187l196 -377h-45z" />
<glyph unicode="&#xed;" horiz-adv-x="544" d="M57 0l6 70l87 8q51 2 51 31v575q0 37 -3 59.5t-10.5 35t-21.5 18.5t-35 12l-82 12l4 56l293 67v-838q0 -12 11.5 -19t45.5 -9l86 -8l7 -70h-439zM217 1040h-47l192 377h193z" />
<glyph unicode="&#xee;" horiz-adv-x="544" d="M57 0l6 70l87 8q51 2 51 31v575q0 37 -3 59.5t-10.5 35t-21.5 18.5t-35 12l-82 12l4 56l293 67v-838q0 -12 11.5 -19t45.5 -9l86 -8l7 -70h-439zM479 1040l-209 252h-4l-209 -252h-55l227 398h78l228 -398h-56z" />
<glyph unicode="&#xef;" horiz-adv-x="544" d="M57 0l6 70l87 8q51 2 51 31v575q0 37 -3 59.5t-10.5 35t-21.5 18.5t-35 12l-82 12l4 56l293 67v-838q0 -12 11.5 -19t45.5 -9l86 -8l7 -70h-439zM586 1223q0 -47 -30 -84t-83 -37t-83 37t-30 84t30 83.5t83 36.5t83 -36.5t30 -83.5zM176 1223q0 -47 -29.5 -84t-83.5 -37 q-53 0 -82.5 37t-29.5 84t29.5 83.5t82.5 36.5t83 -36.5t30 -83.5z" />
<glyph unicode="&#xf0;" d="M262 1055v84l225 75q-102 68 -229 103l31 53q84 -16 159.5 -48t141.5 -75q18 6 41 15q18 6 41.5 13t50.5 17l135 45v-84l-188 -63q141 -117 222 -284t81 -363q0 -121 -32 -225.5t-91 -182.5t-145.5 -122t-196.5 -44q-102 0 -186 38t-143.5 104.5t-92.5 154.5t-33 189 q0 109 36 197.5t95.5 152t136 98.5t160.5 35q96 0 182.5 -49t139.5 -152q-27 119 -84 226.5t-154 191.5zM215 508q0 -119 35 -219.5t94 -159.5q29 -29 75 -54.5t111 -25.5q121 0 200 92t79 267q0 117 -32 215t-91 157q-31 31 -79 57.5t-113 26.5q-123 0 -201 -91t-78 -265z " />
<glyph unicode="&#xf1;" horiz-adv-x="1110" d="M645 0l6 70l84 8q33 2 42 9t9 22v446q0 152 -52 208t-144 56q-72 0 -136.5 -33.5t-107.5 -68.5v-611q0 -12 10.5 -19t44.5 -9l95 -8l6 -70h-443l7 70l81 8q51 2 52 31v579q0 70 -12.5 90.5t-51.5 30.5l-86 12l2 56l295 67v-147h10q78 66 160 106.5t168 40.5 q47 0 92 -15.5t80 -49.5q41 -41 58.5 -97.5t17.5 -130.5v-542q0 -12 10 -19.5t51 -11.5l82 -8l6 -70h-436zM887 1305q-20 -117 -67.5 -178.5t-129.5 -61.5q-47 0 -90 22.5t-81 50t-71.5 51t-60.5 23.5q-33 0 -56.5 -26.5t-54.5 -106.5h-53q20 119 67.5 179.5t129.5 60.5 q47 0 90 -23.5t81 -51t70.5 -50.5t61.5 -23q33 0 56.5 27t54.5 107h53z" />
<glyph unicode="&#xf2;" horiz-adv-x="1060" d="M991 477q0 -106 -35.5 -199.5t-99 -162t-151 -107.5t-187.5 -39t-183 37t-141.5 101.5t-90 152.5t-31.5 193q0 104 36.5 194t101 156.5t152 103.5t185.5 37t180 -35t140.5 -97t91 -148.5t32.5 -186.5zM831 416q0 113 -26.5 210t-83.5 156q-29 29 -78 56.5t-117 27.5 q-63 0 -116.5 -26.5t-92 -74.5t-61.5 -115.5t-23 -151.5q0 -115 28 -211.5t85 -155.5q29 -29 76 -55.5t117 -26.5q61 0 114.5 25.5t93 74t62 116t22.5 151.5zM571 1040l-338 377h187l196 -377h-45z" />
<glyph unicode="&#xf3;" horiz-adv-x="1060" d="M991 477q0 -106 -35.5 -199.5t-99 -162t-151 -107.5t-187.5 -39t-183 37t-141.5 101.5t-90 152.5t-31.5 193q0 104 36.5 194t101 156.5t152 103.5t185.5 37t180 -35t140.5 -97t91 -148.5t32.5 -186.5zM831 416q0 113 -26.5 210t-83.5 156q-29 29 -78 56.5t-117 27.5 q-63 0 -116.5 -26.5t-92 -74.5t-61.5 -115.5t-23 -151.5q0 -115 28 -211.5t85 -155.5q29 -29 76 -55.5t117 -26.5q61 0 114.5 25.5t93 74t62 116t22.5 151.5zM489 1040h-47l193 377h192z" />
<glyph unicode="&#xf4;" horiz-adv-x="1060" d="M991 477q0 -106 -35.5 -199.5t-99 -162t-151 -107.5t-187.5 -39t-183 37t-141.5 101.5t-90 152.5t-31.5 193q0 104 36.5 194t101 156.5t152 103.5t185.5 37t180 -35t140.5 -97t91 -148.5t32.5 -186.5zM831 416q0 113 -26.5 210t-83.5 156q-29 29 -78 56.5t-117 27.5 q-63 0 -116.5 -26.5t-92 -74.5t-61.5 -115.5t-23 -151.5q0 -115 28 -211.5t85 -155.5q29 -29 76 -55.5t117 -26.5q61 0 114.5 25.5t93 74t62 116t22.5 151.5zM741 1040l-209 252h-4l-209 -252h-55l228 398h77l228 -398h-56z" />
<glyph unicode="&#xf5;" horiz-adv-x="1060" d="M991 477q0 -106 -35.5 -199.5t-99 -162t-151 -107.5t-187.5 -39t-183 37t-141.5 101.5t-90 152.5t-31.5 193q0 104 36.5 194t101 156.5t152 103.5t185.5 37t180 -35t140.5 -97t91 -148.5t32.5 -186.5zM831 416q0 113 -26.5 210t-83.5 156q-29 29 -78 56.5t-117 27.5 q-63 0 -116.5 -26.5t-92 -74.5t-61.5 -115.5t-23 -151.5q0 -115 28 -211.5t85 -155.5q29 -29 76 -55.5t117 -26.5q61 0 114.5 25.5t93 74t62 116t22.5 151.5zM862 1305q-20 -117 -67 -178.5t-129 -61.5q-47 0 -90.5 22.5t-81 50t-71.5 51t-61 23.5q-33 0 -56 -26.5 t-54 -106.5h-53q20 119 67 179.5t129 60.5q47 0 90 -23.5t81 -51t71 -50.5t61 -23q33 0 56.5 27t54.5 107h53z" />
<glyph unicode="&#xf6;" horiz-adv-x="1060" d="M991 477q0 -106 -35.5 -199.5t-99 -162t-151 -107.5t-187.5 -39t-183 37t-141.5 101.5t-90 152.5t-31.5 193q0 104 36.5 194t101 156.5t152 103.5t185.5 37t180 -35t140.5 -97t91 -148.5t32.5 -186.5zM831 416q0 113 -26.5 210t-83.5 156q-29 29 -78 56.5t-117 27.5 q-63 0 -116.5 -26.5t-92 -74.5t-61.5 -115.5t-23 -151.5q0 -115 28 -211.5t85 -155.5q29 -29 76 -55.5t117 -26.5q61 0 114.5 25.5t93 74t62 116t22.5 151.5zM848 1223q0 -47 -30 -84t-83 -37t-82.5 37t-29.5 84t29.5 83.5t82.5 36.5t83 -36.5t30 -83.5zM438 1223 q0 -47 -29.5 -84t-82.5 -37t-83 37t-30 84t29.5 83.5t83.5 36.5q53 0 82.5 -36.5t29.5 -83.5z" />
<glyph unicode="&#xf7;" horiz-adv-x="983" d="M66 430l6 100h839l7 -100h-852zM600 193q0 -41 -28.5 -74t-75.5 -33t-77 33t-30 74t30 72.5t77 31.5t75.5 -31.5t28.5 -72.5zM600 766q0 -41 -29.5 -74t-76.5 -33t-76 33t-29 74t28.5 73.5t76.5 32.5q47 0 76.5 -32.5t29.5 -73.5z" />
<glyph unicode="&#xf8;" horiz-adv-x="1060" d="M801 856q86 -66 133 -170t47 -227q0 -102 -35 -191.5t-96.5 -155t-145 -104.5t-182.5 -39q-57 0 -108.5 13.5t-98.5 35.5l-141 -247h-80l164 282q-86 66 -134 171.5t-48 230.5q0 100 34.5 190t96 155.5t145.5 104.5t183 39q59 0 110 -13t98 -36l162 279h78zM684 793 q-37 35 -85 53t-101 18q-119 0 -196 -92t-77 -266q0 -104 27 -188.5t74 -147.5zM829 408q0 102 -24.5 186t-71.5 145l-360 -622q80 -68 184 -68q57 0 107.5 23.5t87 69.5t57 113t20.5 153z" />
<glyph unicode="&#xf9;" horiz-adv-x="1077" d="M1059 6l-307 -37v150h-11q-78 -66 -159.5 -108t-167.5 -42q-47 0 -92.5 16.5t-79.5 51.5q-41 39 -58.5 96t-17.5 129l4 545q0 23 -12.5 23.5t-53.5 7.5l-77 8l-7 67h306l-15 -553q0 -154 52.5 -210t144.5 -56q72 0 136.5 34t107.5 71v608q0 14 -10.5 20.5t-45.5 10.5 l-102 8l-6 67h311v-786q0 -33 19 -39l147 -33zM553 1040l-338 377h186l197 -377h-45z" />
<glyph unicode="&#xfa;" horiz-adv-x="1077" d="M1059 6l-307 -37v150h-11q-78 -66 -159.5 -108t-167.5 -42q-47 0 -92.5 16.5t-79.5 51.5q-41 39 -58.5 96t-17.5 129l4 545q0 23 -12.5 23.5t-53.5 7.5l-77 8l-7 67h306l-15 -553q0 -154 52.5 -210t144.5 -56q72 0 136.5 34t107.5 71v608q0 14 -10.5 20.5t-45.5 10.5 l-102 8l-6 67h311v-786q0 -33 19 -39l147 -33zM489 1040h-47l193 377h192z" />
<glyph unicode="&#xfb;" horiz-adv-x="1077" d="M1059 6l-307 -37v150h-11q-78 -66 -159.5 -108t-167.5 -42q-47 0 -92.5 16.5t-79.5 51.5q-41 39 -58.5 96t-17.5 129l4 545q0 23 -12.5 23.5t-53.5 7.5l-77 8l-7 67h306l-15 -553q0 -154 52.5 -210t144.5 -56q72 0 136.5 34t107.5 71v608q0 14 -10.5 20.5t-45.5 10.5 l-102 8l-6 67h311v-786q0 -33 19 -39l147 -33zM725 1040l-209 252h-4l-209 -252h-55l227 398h78l227 -398h-55z" />
<glyph unicode="&#xfc;" horiz-adv-x="1077" d="M1059 6l-307 -37v150h-11q-78 -66 -159.5 -108t-167.5 -42q-47 0 -92.5 16.5t-79.5 51.5q-41 39 -58.5 96t-17.5 129l4 545q0 23 -12.5 23.5t-53.5 7.5l-77 8l-7 67h306l-15 -553q0 -154 52.5 -210t144.5 -56q72 0 136.5 34t107.5 71v608q0 14 -10.5 20.5t-45.5 10.5 l-102 8l-6 67h311v-786q0 -33 19 -39l147 -33zM416 1223q0 -47 -30 -84t-83 -37t-83 37t-30 84t30 83.5t83 36.5t83 -36.5t30 -83.5zM825 1223q0 -47 -29.5 -84t-82.5 -37t-83 37t-30 84t29.5 83.5t83.5 36.5q53 0 82.5 -36.5t29.5 -83.5z" />
<glyph unicode="&#xfd;" horiz-adv-x="925" d="M967 846l-68 -15q-33 -4 -50.5 -23.5t-43.5 -84.5l-250 -680l-98 -311q-43 -133 -96.5 -201t-143.5 -68q-61 0 -97 30t-36 77q0 43 23.5 72.5t72.5 29.5q47 0 74 -20.5t43 -52.5q27 12 47.5 50t42.5 107l78 224v2l-356 790q-14 31 -26.5 42t-51.5 17l-60 13l-8 69h422 l-6 -67l-70 -10q-25 -2 -36 -14.5t1 -41.5l254 -604l195 555q16 53 9 74.5t-48 25.5l-76 15l-6 67h371zM408 1040h-48l193 377h192z" />
<glyph unicode="&#xfe;" horiz-adv-x="1050" d="M979 496q0 -102 -33 -197.5t-94 -168.5t-150.5 -117t-199.5 -44q-43 0 -98.5 9.5t-96.5 25.5h-4v-401q0 -12 10.5 -19.5t46.5 -9.5l107 -8l6 -70h-459l6 70l86 8q51 2 52 31v1609q0 37 -23 43l-151 46l6 51l313 73v-643h8q59 63 135 106.5t162 43.5t154.5 -34t117 -93 t74 -139t25.5 -172zM819 428q0 84 -20.5 153.5t-56 120t-86 78t-111.5 27.5q-74 0 -137.5 -38t-104.5 -89v-518q47 -47 106.5 -80t131.5 -33q55 0 105 26.5t88 77t61.5 120t23.5 155.5z" />
<glyph unicode="&#xff;" horiz-adv-x="925" d="M967 846l-68 -15q-33 -4 -50.5 -23.5t-43.5 -84.5l-250 -680l-98 -311q-43 -133 -96.5 -201t-143.5 -68q-61 0 -97 30t-36 77q0 43 23.5 72.5t72.5 29.5q47 0 74 -20.5t43 -52.5q27 12 47.5 50t42.5 107l78 224v2l-356 790q-14 31 -26.5 42t-51.5 17l-60 13l-8 69h422 l-6 -67l-70 -10q-25 -2 -36 -14.5t1 -41.5l254 -604l195 555q16 53 9 74.5t-48 25.5l-76 15l-6 67h371zM799 1223q0 -47 -30 -84t-83 -37t-83 37t-30 84t30 83.5t83 36.5t83 -36.5t30 -83.5zM389 1223q0 -47 -29.5 -84t-83.5 -37q-53 0 -82.5 37t-29.5 84t29.5 83.5 t82.5 36.5t83 -36.5t30 -83.5z" />
<glyph unicode="&#x100;" horiz-adv-x="1222" d="M729 0l6 70l117 14q20 4 30.5 11t11.5 23.5t-6 45.5t-22 74l-75 225h-443l-74 -223q-29 -84 -29.5 -116t36.5 -40l102 -14l6 -70h-422l6 70l82 14q23 6 40.5 16.5t36 40t40 85t55.5 151.5l285 803v65l170 72l395 -1188q10 -33 51 -39l121 -20l6 -70h-526zM582 1122h-11 l-194 -575h387zM369 1468l6 84h493l6 -84h-505z" />
<glyph unicode="&#x101;" horiz-adv-x="913" d="M911 96q-47 -59 -94 -93t-96 -34q-55 0 -93 36t-38 116h-8q-59 -63 -121 -107.5t-135 -44.5q-51 0 -96.5 17.5t-79 49.5t-54 76t-20.5 95q0 63 29.5 114.5t93 94.5t163 77.5t236.5 69.5v19q0 82 -13.5 135t-40 85t-66.5 44t-89 12q-29 0 -58.5 -5t-52 -13.5t-37 -17.5 t-14.5 -17t20.5 -31.5t20.5 -62.5q0 -35 -27.5 -64t-72.5 -29q-43 0 -70.5 25t-27.5 66q0 37 35.5 78.5t91 76.5t123 58.5t129.5 23.5q86 0 144 -19.5t93 -65.5t48.5 -122.5t8.5 -191.5l-16 -391q-4 -72 45 -72q23 0 47.5 15.5t57.5 41.5zM594 498q-102 -27 -173 -55.5 t-114 -59.5t-62.5 -65.5t-19.5 -75.5q0 -74 45 -116t111 -42q53 0 101 29.5t100 76.5zM188 1104l7 84h493l6 -84h-506z" />
<glyph unicode="&#x102;" horiz-adv-x="1222" d="M729 0l6 70l117 14q20 4 30.5 11t11.5 23.5t-6 45.5t-22 74l-75 225h-443l-74 -223q-29 -84 -29.5 -116t36.5 -40l102 -14l6 -70h-422l6 70l82 14q23 6 40.5 16.5t36 40t40 85t55.5 151.5l285 803v65l170 72l395 -1188q10 -33 51 -39l121 -20l6 -70h-526zM582 1122h-11 l-194 -575h387zM895 1782q-14 -68 -33.5 -135.5t-50.5 -123t-78 -90t-119 -34.5t-118.5 34.5t-77.5 90t-50.5 123t-33.5 135.5h47q23 -57 46.5 -108.5t52 -90.5t61 -61.5t73.5 -22.5t74 22.5t61.5 61.5t52 90t46.5 109h47z" />
<glyph unicode="&#x103;" horiz-adv-x="913" d="M911 96q-47 -59 -94 -93t-96 -34q-55 0 -93 36t-38 116h-8q-59 -63 -121 -107.5t-135 -44.5q-51 0 -96.5 17.5t-79 49.5t-54 76t-20.5 95q0 63 29.5 114.5t93 94.5t163 77.5t236.5 69.5v19q0 82 -13.5 135t-40 85t-66.5 44t-89 12q-29 0 -58.5 -5t-52 -13.5t-37 -17.5 t-14.5 -17t20.5 -31.5t20.5 -62.5q0 -35 -27.5 -64t-72.5 -29q-43 0 -70.5 25t-27.5 66q0 37 35.5 78.5t91 76.5t123 58.5t129.5 23.5q86 0 144 -19.5t93 -65.5t48.5 -122.5t8.5 -191.5l-16 -391q-4 -72 45 -72q23 0 47.5 15.5t57.5 41.5zM594 498q-102 -27 -173 -55.5 t-114 -59.5t-62.5 -65.5t-19.5 -75.5q0 -74 45 -116t111 -42q53 0 101 29.5t100 76.5zM725 1417q-14 -68 -33.5 -135.5t-50.5 -122.5t-78 -90t-119 -35t-118.5 35t-77.5 90t-50.5 123t-33.5 135h47q23 -57 46.5 -108.5t52 -90t61 -61t73.5 -22.5t74 22.5t61.5 61t52 90 t46.5 108.5h47z" />
<glyph unicode="&#x104;" horiz-adv-x="1222" d="M1079 -434q-76 0 -127 45t-51 131q0 78 53.5 144.5t130.5 113.5h-356l6 70l117 14q20 4 29.5 11t11.5 23.5t-5 45.5t-22 74l-75 225h-443l-72 -223q-31 -84 -31.5 -116t36.5 -38l102 -16l6 -70h-422l6 70l82 14q23 6 40.5 16.5t36 40t40 85t55.5 151.5l285 803v65l170 72 l395 -1188q10 -33 51 -39l121 -20l6 -70q-102 -23 -165.5 -81t-63.5 -138q0 -47 26.5 -79t73.5 -32q29 0 57.5 11.5t47.5 31.5l22 -24q-10 -45 -56 -84t-118 -39zM582 1122h-11l-194 -575h387z" />
<glyph unicode="&#x105;" horiz-adv-x="913" d="M731 -434q-82 0 -134 45t-52 135q0 82 47 142.5t106 93.5q-53 0 -81.5 33.5t-26.5 105.5h-8q-59 -63 -121 -107.5t-135 -44.5q-51 0 -96.5 17.5t-79 49.5t-54 76t-20.5 95q0 63 29.5 114.5t93 94.5t163 77.5t236.5 69.5v19q0 82 -13.5 135t-40 85t-66.5 44t-89 12 q-29 0 -58.5 -5t-52 -13.5t-37 -17.5t-14.5 -17t20.5 -31.5t20.5 -62.5q0 -35 -26.5 -64t-73.5 -29q-43 0 -70.5 25t-27.5 66q0 37 35.5 78.5t91 76.5t123 58.5t129.5 23.5q86 0 144 -19.5t93 -65.5t48.5 -122.5t8.5 -191.5l-16 -391q-4 -72 47 -72q20 0 45 15.5t58 41.5 l34 -45q-18 -31 -46.5 -55.5t-69.5 -52.5q-55 -39 -91 -94.5t-36 -114.5q0 -45 30.5 -77t79.5 -32q66 0 105 43l22 -24q-10 -45 -56 -84t-118 -39zM594 498q-102 -27 -173 -55.5t-114 -59.5t-61.5 -65.5t-18.5 -75.5q0 -74 45 -116t109 -42q53 0 101 29.5t100 76.5z" />
<glyph unicode="&#x106;" horiz-adv-x="1359" d="M719 1405h-47l192 377h193zM1202 -2l-94 20q-57 -18 -144 -33.5t-171 -15.5q-147 0 -275.5 44t-221.5 128t-147.5 205t-54.5 275q0 160 54.5 286.5t149.5 215.5t224 137.5t279 48.5q90 0 164.5 -12.5t119.5 -26.5l156 33v-416h-86l-53 266q-53 31 -126 53.5t-188 22.5 q-113 0 -206 -44t-160.5 -121t-104 -184.5t-36.5 -232.5q0 -133 35.5 -242.5t103 -189.5t166 -124t225.5 -44q76 0 143.5 16.5t120.5 45.5l86 276h90z" />
<glyph unicode="&#x107;" horiz-adv-x="905" d="M446 1040h-47l193 377h192zM850 201q-55 -111 -151.5 -170.5t-217.5 -59.5q-90 0 -164.5 34t-130 95.5t-86 145.5t-30.5 184q0 113 37.5 207t103 162.5t153 106.5t183.5 38q70 0 124 -16.5t92 -43t57.5 -60t19.5 -70.5q0 -59 -34 -82t-71 -23q-55 0 -86 51.5t-8 128.5v5 q-23 16 -55.5 26t-73.5 10q-61 0 -113.5 -26.5t-90.5 -74.5t-60.5 -116.5t-22.5 -150.5q0 -86 23.5 -160t66.5 -127t102.5 -84t129.5 -31q72 0 139.5 30t122.5 95z" />
<glyph unicode="&#x108;" horiz-adv-x="1359" d="M958 1405l-208 252h-5l-208 -252h-56l228 397h77l228 -397h-56zM1202 -2l-94 20q-57 -18 -144 -33.5t-171 -15.5q-147 0 -275.5 44t-221.5 128t-147.5 205t-54.5 275q0 160 54.5 286.5t149.5 215.5t224 137.5t279 48.5q90 0 164.5 -12.5t119.5 -26.5l156 33v-416h-86 l-53 266q-53 31 -126 53.5t-188 22.5q-113 0 -206 -44t-160.5 -121t-104 -184.5t-36.5 -232.5q0 -133 35.5 -242.5t103 -189.5t166 -124t225.5 -44q76 0 143.5 16.5t120.5 45.5l86 276h90z" />
<glyph unicode="&#x109;" horiz-adv-x="905" d="M717 1040l-209 252h-4l-209 -252h-55l227 398h78l227 -398h-55zM850 201q-55 -111 -151.5 -170.5t-217.5 -59.5q-90 0 -164.5 34t-130 95.5t-86 145.5t-30.5 184q0 113 37.5 207t103 162.5t153 106.5t183.5 38q70 0 124 -16.5t92 -43t57.5 -60t19.5 -70.5q0 -59 -34 -82 t-71 -23q-55 0 -86 51.5t-8 128.5v5q-23 16 -55.5 26t-73.5 10q-61 0 -113.5 -26.5t-90.5 -74.5t-60.5 -116.5t-22.5 -150.5q0 -86 23.5 -160t66.5 -127t102.5 -84t129.5 -31q72 0 139.5 30t122.5 95z" />
<glyph unicode="&#x10a;" horiz-adv-x="1359" d="M1202 -2l-94 20q-57 -18 -144 -33.5t-171 -15.5q-147 0 -275.5 44t-221.5 128t-147.5 205t-54.5 275q0 160 54.5 286.5t149.5 215.5t224 137.5t279 48.5q90 0 164.5 -12.5t119.5 -26.5l156 33v-416h-86l-53 266q-53 31 -126 53.5t-188 22.5q-113 0 -206 -44t-160.5 -121 t-104 -184.5t-36.5 -232.5q0 -133 35.5 -242.5t103 -189.5t166 -124t225.5 -44q76 0 143.5 16.5t120.5 45.5l86 276h90zM899 1599q0 -49 -30.5 -86.5t-84.5 -37.5q-55 0 -85.5 37.5t-30.5 86.5q0 47 30.5 85t85.5 38q53 0 84 -38t31 -85z" />
<glyph unicode="&#x10b;" horiz-adv-x="905" d="M850 201q-55 -111 -151.5 -170.5t-217.5 -59.5q-90 0 -164.5 34t-130 95.5t-86 145.5t-30.5 184q0 113 37.5 207t103 162.5t153 106.5t183.5 38q70 0 124 -16.5t92 -43t57.5 -60t19.5 -70.5q0 -59 -34 -82t-71 -23q-55 0 -86 51.5t-8 128.5v5q-23 16 -55.5 26t-73.5 10 q-61 0 -113.5 -26.5t-90.5 -74.5t-60.5 -116.5t-22.5 -150.5q0 -86 23.5 -160t66.5 -127t102.5 -84t129.5 -31q72 0 139.5 30t122.5 95zM627 1235q0 -49 -31 -87t-84 -38q-55 0 -86 38t-31 87q0 47 31 85t86 38q53 0 84 -38t31 -85z" />
<glyph unicode="&#x10c;" horiz-adv-x="1359" d="M778 1405h-78l-227 397h55l209 -252h4l209 252h56zM1202 -2l-94 20q-57 -18 -144 -33.5t-171 -15.5q-147 0 -275.5 44t-221.5 128t-147.5 205t-54.5 275q0 160 54.5 286.5t149.5 215.5t224 137.5t279 48.5q90 0 164.5 -12.5t119.5 -26.5l156 33v-416h-86l-53 266 q-53 31 -126 53.5t-188 22.5q-113 0 -206 -44t-160.5 -121t-104 -184.5t-36.5 -232.5q0 -133 35.5 -242.5t103 -189.5t166 -124t225.5 -44q76 0 143.5 16.5t120.5 45.5l86 276h90z" />
<glyph unicode="&#x10d;" horiz-adv-x="905" d="M545 1040h-78l-227 398h55l209 -252h4l209 252h55zM850 201q-55 -111 -151.5 -170.5t-217.5 -59.5q-90 0 -164.5 34t-130 95.5t-86 145.5t-30.5 184q0 113 37.5 207t103 162.5t153 106.5t183.5 38q70 0 124 -16.5t92 -43t57.5 -60t19.5 -70.5q0 -59 -34 -82t-71 -23 q-55 0 -86 51.5t-8 128.5v5q-23 16 -55.5 26t-73.5 10q-61 0 -113.5 -26.5t-90.5 -74.5t-60.5 -116.5t-22.5 -150.5q0 -86 23.5 -160t66.5 -127t102.5 -84t129.5 -31q72 0 139.5 30t122.5 95z" />
<glyph unicode="&#x10e;" horiz-adv-x="1390" d="M1298 666q0 -133 -47 -254t-142 -212t-237.5 -145.5t-332.5 -54.5h-453l6 70l107 12q53 6 53 29v1060q0 12 -10.5 17.5t-42.5 9.5l-107 12l-6 70l455 6q174 2 314 -44t238.5 -129t151.5 -197.5t53 -249.5zM1114 618q0 131 -40 240t-117.5 186.5t-192.5 119.5t-266 42h-78 v-1104l164 -26q127 2 225 45t165.5 115.5t103.5 169.5t36 212zM670 1405h-78l-227 397h55l209 -252h4l209 252h55z" />
<glyph unicode="&#x10f;" horiz-adv-x="1527" d="M1413 1249q0 -63 -25.5 -120.5t-66.5 -106.5t-92 -92t-101 -80l-45 33q33 25 64 54.5t55.5 64t38.5 72.5t14 79q0 45 -23.5 76t-52 50t-52 29.5t-23.5 12.5q0 47 33.5 81t95.5 34q33 0 65.5 -14.5t58 -39t41 -58.5t15.5 -75zM1053 6l-305 -37v137h-7q-51 -55 -124.5 -95 t-163.5 -40q-80 0 -151 34t-122 95.5t-80.5 145.5t-29.5 184q0 104 34.5 197.5t99 162t155 108.5t200.5 40q45 0 94 -10t90 -27h5v359q0 31 -19 36l-160 37l9 49l315 45v-1300q0 -35 20 -39l146 -33zM748 737q-47 47 -103.5 83t-132.5 36q-63 0 -115.5 -27.5t-89.5 -77 t-57.5 -118t-20.5 -150.5q0 -178 80 -283.5t213 -105.5q72 0 126 26.5t100 67.5v549z" />
<glyph unicode="&#x110;" horiz-adv-x="1370" d="M68 614l6 80h178v459q0 31 -37 37l-125 20l-6 70l444 6q172 2 311.5 -44t239 -129t153.5 -197.5t54 -249.5q0 -143 -47 -265t-141 -211.5t-237.5 -139.5t-334.5 -50h-442l6 70l125 20q37 6 37 37v487h-184zM664 694l6 -80h-260v-512l165 -26q125 -2 225.5 38t170 112.5 t106.5 172t37 213.5q0 135 -41 245t-120 187.5t-195.5 119.5t-270.5 42h-77v-512h254z" />
<glyph unicode="&#x111;" horiz-adv-x="1077" d="M1053 6l-305 -37v137h-7q-51 -55 -124.5 -95t-163.5 -40q-80 0 -151 34t-122 95.5t-80.5 145.5t-29.5 184q0 104 34.5 197.5t99 162t155 108.5t200.5 40q45 0 94 -10t90 -27h5v182h-236l8 80h228v97q0 31 -19 36l-160 37l9 49l315 45v-264h176l4 -80h-180v-956 q0 -35 20 -39l146 -33zM748 737q-47 47 -103.5 83t-132.5 36q-63 0 -115.5 -27.5t-89.5 -77t-57.5 -118t-20.5 -150.5q0 -178 80 -283.5t213 -105.5q72 0 126 26.5t100 67.5v549z" />
<glyph unicode="&#x112;" horiz-adv-x="1196" d="M1069 0h-983l6 70l107 12q53 6 53 29v1060q0 12 -10.5 17.5t-42.5 9.5l-107 12l-6 70h983v-371h-88l-45 207q-8 31 -21.5 48.5t-56.5 26.5t-127 11t-233 2h-78v-514h78q63 0 102 1t60.5 5t30.5 11.5t14 21.5l45 137h71l-43 -426h-67l-17 131q0 12 -6 20.5t-25.5 14.5 t-59.5 8t-109 2h-74v-540h55q162 0 254 3t139 12t62.5 26.5t25.5 46.5l52 198h100zM371 1468l6 84h493l7 -84h-506z" />
<glyph unicode="&#x113;" horiz-adv-x="935" d="M850 201q-55 -111 -151.5 -170.5t-217.5 -59.5q-90 0 -164.5 34t-130 95.5t-86 145.5t-30.5 184q0 113 37.5 207t101 162.5t148.5 106.5t182 38q145 0 230 -82t85 -215q0 -27 -3 -56.5t-7 -51.5l-617 8q-2 -6 -2 -24.5v-24.5q0 -86 23.5 -160t66.5 -126t102.5 -82 t129.5 -30q72 0 139.5 30t122.5 95zM690 610q8 121 -44 191.5t-144 70.5q-43 0 -85 -18t-78 -52t-63.5 -83t-39.5 -111h229h84t72.5 1t51 1t17.5 0zM244 1104l6 84h493l7 -84h-506z" />
<glyph unicode="&#x114;" horiz-adv-x="1196" d="M1069 0h-983l6 70l107 12q53 6 53 29v1060q0 12 -10.5 17.5t-42.5 9.5l-107 12l-6 70h983v-371h-88l-45 207q-8 31 -21.5 48.5t-56.5 26.5t-127 11t-233 2h-78v-514h78q63 0 102 1t60.5 5t30.5 11.5t14 21.5l45 137h71l-43 -426h-67l-17 131q0 12 -6 20.5t-25.5 14.5 t-59.5 8t-109 2h-74v-540h55q162 0 254 3t139 12t62.5 26.5t25.5 46.5l52 198h100zM903 1782q-14 -68 -33.5 -135.5t-50.5 -123t-78 -90t-118 -34.5q-72 0 -119 34.5t-78 90t-50.5 123t-33.5 135.5h47q23 -57 46.5 -108.5t52 -90.5t61.5 -61.5t74 -22.5t73.5 22.5t61 61.5 t52.5 90t46 109h47z" />
<glyph unicode="&#x115;" horiz-adv-x="935" d="M850 201q-55 -111 -151.5 -170.5t-217.5 -59.5q-90 0 -164.5 34t-130 95.5t-86 145.5t-30.5 184q0 113 37.5 207t101 162.5t148.5 106.5t182 38q145 0 230 -82t85 -215q0 -27 -3 -56.5t-7 -51.5l-617 8q-2 -6 -2 -24.5v-24.5q0 -86 23.5 -160t66.5 -126t102.5 -82 t129.5 -30q72 0 139.5 30t122.5 95zM690 610q8 121 -44 191.5t-144 70.5q-43 0 -85 -18t-78 -52t-63.5 -83t-39.5 -111h229h84t72.5 1t51 1t17.5 0zM793 1417q-14 -68 -34 -135.5t-50.5 -122.5t-77.5 -90t-119 -35t-119 35t-77.5 90t-50 123t-34.5 135h48q23 -57 46 -108.5 t52 -90t61.5 -61t73.5 -22.5t73.5 22.5t61.5 61t52.5 90t45.5 108.5h48z" />
<glyph unicode="&#x116;" horiz-adv-x="1196" d="M1069 0h-983l6 70l107 12q53 6 53 29v1060q0 12 -10.5 17.5t-42.5 9.5l-107 12l-6 70h983v-371h-88l-45 207q-8 31 -21.5 48.5t-56.5 26.5t-127 11t-233 2h-78v-514h78q63 0 102 1t60.5 5t30.5 11.5t14 21.5l45 137h71l-43 -426h-67l-17 131q0 12 -6 20.5t-25.5 14.5 t-59.5 8t-109 2h-74v-540h55q162 0 254 3t139 12t62.5 26.5t25.5 46.5l52 198h100zM733 1599q0 -49 -30.5 -86.5t-84.5 -37.5q-55 0 -85.5 37.5t-30.5 86.5q0 47 30.5 85t85.5 38q53 0 84 -38t31 -85z" />
<glyph unicode="&#x117;" horiz-adv-x="935" d="M850 201q-55 -111 -151.5 -170.5t-217.5 -59.5q-90 0 -164.5 34t-130 95.5t-86 145.5t-30.5 184q0 113 37.5 207t101 162.5t148.5 106.5t182 38q145 0 230 -82t85 -215q0 -27 -3 -56.5t-7 -51.5l-617 8q-2 -6 -2 -24.5v-24.5q0 -86 23.5 -160t66.5 -126t102.5 -82 t129.5 -30q72 0 139.5 30t122.5 95zM690 610q8 121 -44 191.5t-144 70.5q-43 0 -85 -18t-78 -52t-63.5 -83t-39.5 -111h229h84t72.5 1t51 1t17.5 0zM621 1235q0 -49 -31 -87t-84 -38q-55 0 -86 38t-31 87q0 47 31 85t86 38q53 0 84 -38t31 -85z" />
<glyph unicode="&#x118;" horiz-adv-x="1196" d="M895 -434q-76 0 -126 46t-50 132q0 78 51 143.5t119 112.5h-803l6 70l107 12q53 6 53 29v1060q0 12 -10.5 17.5t-42.5 9.5l-107 12l-6 70h983v-371h-88l-45 207q-8 31 -21.5 48.5t-56.5 26.5t-127 11t-231 2h-80v-514h78q63 0 102 1t60.5 5t30.5 11.5t14 21.5l45 137h71 l-43 -426h-67l-17 131q0 12 -6 20.5t-25.5 14.5t-59.5 8t-109 2h-74v-540h55q162 0 254 3t140.5 12t63.5 26.5t25 46.5l50 198h100l-39 -362h-104q-57 -51 -88 -107.5t-31 -109.5q0 -47 24.5 -80t73.5 -33q29 0 57.5 11.5t45.5 31.5l22 -24q-10 -45 -56 -84t-118 -39z" />
<glyph unicode="&#x119;" horiz-adv-x="935" d="M582 -434q-76 0 -127.5 46t-51.5 132q0 68 43 130.5t103 102.5q-14 -4 -32.5 -5t-35.5 -1q-90 0 -164.5 34t-130 95.5t-86 145.5t-30.5 184q0 113 37.5 207t102 162.5t149.5 106.5t182 38q143 0 228 -82t85 -215q0 -27 -3 -56.5t-7 -51.5l-617 8q-2 -6 -2 -24.5v-24.5 q0 -86 23.5 -160t66.5 -126t102.5 -82t129.5 -30q72 0 140.5 30t121.5 95l41 -24q-33 -63 -75 -107.5t-95 -81.5q-70 -47 -110 -109.5t-40 -119.5q0 -47 26 -80t73 -33q29 0 57.5 11.5t46.5 31.5l23 -24q-10 -45 -56 -84t-118 -39zM690 610q8 121 -44 191.5t-144 70.5 q-43 0 -85 -18t-78 -52t-63.5 -83t-39.5 -111z" />
<glyph unicode="&#x11a;" horiz-adv-x="1196" d="M676 1405h-78l-227 397h55l209 -252h4l209 252h55zM1069 0h-983l6 70l107 12q53 6 53 29v1060q0 12 -10.5 17.5t-42.5 9.5l-107 12l-6 70h983v-371h-88l-45 207q-8 31 -21.5 48.5t-56.5 26.5t-127 11t-233 2h-78v-514h78q63 0 102 1t60.5 5t30.5 11.5t14 21.5l45 137h71 l-43 -426h-67l-17 131q0 12 -6 20.5t-25.5 14.5t-59.5 8t-109 2h-74v-540h55q162 0 254 3t139 12t62.5 26.5t25.5 46.5l52 198h100z" />
<glyph unicode="&#x11b;" horiz-adv-x="935" d="M541 1040h-78l-227 398h55l209 -252h4l209 252h55zM850 201q-55 -111 -151.5 -170.5t-217.5 -59.5q-90 0 -164.5 34t-130 95.5t-86 145.5t-30.5 184q0 113 37.5 207t101 162.5t148.5 106.5t182 38q145 0 230 -82t85 -215q0 -27 -3 -56.5t-7 -51.5l-617 8q-2 -6 -2 -24.5 v-24.5q0 -86 23.5 -160t66.5 -126t102.5 -82t129.5 -30q72 0 139.5 30t122.5 95zM690 610q8 121 -44 191.5t-144 70.5q-43 0 -85 -18t-78 -52t-63.5 -83t-39.5 -111h229h84t72.5 1t51 1t17.5 0z" />
<glyph unicode="&#x11c;" horiz-adv-x="1449" d="M987 1405l-209 252h-4l-209 -252h-55l227 397h78l227 -397h-55zM1391 496l-107 -13q-53 -8 -53 -30v-320l119 -10l4 -53q-127 -43 -276.5 -72t-282.5 -29q-150 0 -278 44t-222 128t-147.5 205t-53.5 275q0 160 56.5 286.5t154.5 215.5t229.5 137.5t278.5 48.5 q92 0 166 -12.5t117 -26.5l155 33v-416h-86l-53 266q-53 31 -126 53.5t-189 22.5q-111 0 -205 -44t-164 -121t-108.5 -184.5t-38.5 -232.5q0 -133 34.5 -242.5t101 -189.5t164 -124t222.5 -44q74 0 144.5 15.5t117.5 35.5v359q0 12 -10.5 17t-42.5 9l-129 13l-6 67h520z" />
<glyph unicode="&#x11d;" horiz-adv-x="940" d="M727 811v-10q29 -35 46.5 -78t17.5 -105q0 -68 -28 -126t-77 -103t-114.5 -70.5t-141.5 -25.5q-29 0 -60.5 3t-52.5 9q-12 -6 -28.5 -16t-31.5 -24.5t-25.5 -31t-10.5 -34.5q0 -41 36 -68t93 -27q25 0 59.5 1t68.5 1t63.5 1.5t46.5 1.5q70 0 125 -20.5t94 -56.5t60.5 -83 t21.5 -103q0 -80 -38 -147.5t-105.5 -115.5t-160.5 -74.5t-202 -26.5q-166 0 -264.5 67.5t-98.5 176.5q0 47 16.5 84.5t44.5 67.5t61.5 51.5t70.5 37.5v8q-57 10 -94 53.5t-37 94.5q0 61 50 113.5t116 82.5q0 4 1 4.5t1 2.5q-78 35 -126 106.5t-48 175.5q0 70 27.5 131.5 t75.5 107.5t114.5 71.5t144.5 25.5q68 0 124 -14.5t106 -36.5l278 -2v-119zM752 -219q0 78 -48.5 128t-173.5 54h-50t-41.5 -1t-55.5 -2t-90 -1q-16 -6 -40 -22.5t-44.5 -40t-34.5 -54t-14 -69.5q0 -51 23.5 -91t63.5 -68t94 -42t118 -14q63 0 117.5 17t93.5 47t60.5 71 t21.5 88zM639 614q0 70 -18.5 124.5t-55.5 88.5q-55 51 -129 52q-94 0 -150.5 -69t-56.5 -175q0 -78 23.5 -137.5t64.5 -96.5q53 -43 115 -43q86 0 133 45q37 33 55.5 86t18.5 125zM651 1040l-209 252h-4l-209 -252h-55l227 398h78l228 -398h-56z" />
<glyph unicode="&#x11e;" horiz-adv-x="1449" d="M1391 496l-107 -13q-53 -8 -53 -30v-320l119 -10l4 -53q-127 -43 -276.5 -72t-282.5 -29q-150 0 -278 44t-222 128t-147.5 205t-53.5 275q0 160 56.5 286.5t154.5 215.5t229.5 137.5t278.5 48.5q92 0 166 -12.5t117 -26.5l155 33v-416h-86l-53 266q-53 31 -126 53.5 t-189 22.5q-111 0 -205 -44t-164 -121t-108.5 -184.5t-38.5 -232.5q0 -133 34.5 -242.5t101 -189.5t164 -124t222.5 -44q74 0 144.5 15.5t117.5 35.5v359q0 12 -10.5 17t-42.5 9l-129 13l-6 67h520zM1077 1782q-14 -68 -33.5 -135.5t-50 -123t-78 -90t-118.5 -34.5 q-72 0 -119 34.5t-78 90t-50.5 123t-33.5 135.5h47q23 -57 46.5 -108.5t52 -90.5t61.5 -61.5t74 -22.5t73.5 22.5t61.5 61.5t52.5 90t45.5 109h47z" />
<glyph unicode="&#x11f;" horiz-adv-x="940" d="M727 811v-10q29 -35 46.5 -78t17.5 -105q0 -68 -28 -126t-77 -103t-114.5 -70.5t-141.5 -25.5q-29 0 -60.5 3t-52.5 9q-12 -6 -28.5 -16t-31.5 -24.5t-25.5 -31t-10.5 -34.5q0 -41 36 -68t93 -27q25 0 59.5 1t68.5 1t63.5 1.5t46.5 1.5q70 0 125 -20.5t94 -56.5t60.5 -83 t21.5 -103q0 -80 -38 -147.5t-105.5 -115.5t-160.5 -74.5t-202 -26.5q-166 0 -264.5 67.5t-98.5 176.5q0 47 16.5 84.5t44.5 67.5t61.5 51.5t70.5 37.5v8q-57 10 -94 53.5t-37 94.5q0 61 50 113.5t116 82.5q0 4 1 4.5t1 2.5q-78 35 -126 106.5t-48 175.5q0 70 27.5 131.5 t75.5 107.5t114.5 71.5t144.5 25.5q68 0 124 -14.5t106 -36.5l278 -2v-119zM752 -219q0 78 -48.5 128t-173.5 54h-50t-41.5 -1t-55.5 -2t-90 -1q-16 -6 -40 -22.5t-44.5 -40t-34.5 -54t-14 -69.5q0 -51 23.5 -91t63.5 -68t94 -42t118 -14q63 0 117.5 17t93.5 47t60.5 71 t21.5 88zM639 614q0 70 -18.5 124.5t-55.5 88.5q-55 51 -129 52q-94 0 -150.5 -69t-56.5 -175q0 -78 23.5 -137.5t64.5 -96.5q53 -43 115 -43q86 0 133 45q37 33 55.5 86t18.5 125zM719 1417q-14 -68 -33.5 -135.5t-50.5 -122.5t-78 -90t-119 -35t-119 35t-77.5 90t-50 123 t-33.5 135h47q23 -57 46 -108.5t52 -90t61.5 -61t73.5 -22.5t74 22.5t61.5 61t52 90t46.5 108.5h47z" />
<glyph unicode="&#x120;" horiz-adv-x="1449" d="M1391 496l-107 -13q-53 -8 -53 -30v-320l119 -10l4 -53q-127 -43 -276.5 -72t-282.5 -29q-150 0 -278 44t-222 128t-147.5 205t-53.5 275q0 160 56.5 286.5t154.5 215.5t229.5 137.5t278.5 48.5q92 0 166 -12.5t117 -26.5l155 33v-416h-86l-53 266q-53 31 -126 53.5 t-189 22.5q-111 0 -205 -44t-164 -121t-108.5 -184.5t-38.5 -232.5q0 -133 34.5 -242.5t101 -189.5t164 -124t222.5 -44q74 0 144.5 15.5t117.5 35.5v359q0 12 -10.5 17t-42.5 9l-129 13l-6 67h520zM911 1599q0 -49 -30.5 -86.5t-83.5 -37.5q-55 0 -86 37.5t-31 86.5 q0 47 30.5 85t86.5 38q53 0 83.5 -38t30.5 -85z" />
<glyph unicode="&#x121;" horiz-adv-x="940" d="M727 811v-10q29 -35 46.5 -78t17.5 -105q0 -68 -28 -126t-77 -103t-114.5 -70.5t-141.5 -25.5q-29 0 -60.5 3t-52.5 9q-12 -6 -28.5 -16t-31.5 -24.5t-25.5 -31t-10.5 -34.5q0 -41 36 -68t93 -27q25 0 59.5 1t68.5 1t63.5 1.5t46.5 1.5q70 0 125 -20.5t94 -56.5t60.5 -83 t21.5 -103q0 -80 -38 -147.5t-105.5 -115.5t-160.5 -74.5t-202 -26.5q-166 0 -264.5 67.5t-98.5 176.5q0 47 16.5 84.5t44.5 67.5t61.5 51.5t70.5 37.5v8q-57 10 -94 53.5t-37 94.5q0 61 50 113.5t116 82.5q0 4 1 4.5t1 2.5q-78 35 -126 106.5t-48 175.5q0 70 27.5 131.5 t75.5 107.5t114.5 71.5t144.5 25.5q68 0 124 -14.5t106 -36.5l278 -2v-119zM752 -219q0 78 -48.5 128t-173.5 54h-50t-41.5 -1t-55.5 -2t-90 -1q-16 -6 -40 -22.5t-44.5 -40t-34.5 -54t-14 -69.5q0 -51 23.5 -91t63.5 -68t94 -42t118 -14q63 0 117.5 17t93.5 47t60.5 71 t21.5 88zM639 614q0 70 -18.5 124.5t-55.5 88.5q-55 51 -129 52q-94 0 -150.5 -69t-56.5 -175q0 -78 23.5 -137.5t64.5 -96.5q53 -43 115 -43q86 0 133 45q37 33 55.5 86t18.5 125zM563 1235q0 -49 -30.5 -87t-83.5 -38q-55 0 -86 38t-31 87q0 47 30.5 85t86.5 38 q53 0 83.5 -38t30.5 -85z" />
<glyph unicode="&#x122;" horiz-adv-x="1449" d="M958 -262q0 -51 -20 -94t-53 -78t-74 -60.5t-80 -42.5l-35 33q53 23 95.5 65t42.5 109q0 39 -19.5 64.5t-42 39t-42 19.5t-19.5 8q0 41 26.5 68t79.5 27q59 0 100 -47.5t41 -110.5zM1391 496l-107 -13q-53 -8 -53 -30v-320l119 -10l4 -53q-127 -43 -276.5 -72t-282.5 -29 q-150 0 -278 44t-222 128t-147.5 205t-53.5 275q0 160 56.5 286.5t154.5 215.5t229.5 137.5t278.5 48.5q92 0 166 -12.5t117 -26.5l155 33v-416h-86l-53 266q-53 31 -126 53.5t-189 22.5q-111 0 -205 -44t-164 -121t-108.5 -184.5t-38.5 -232.5q0 -133 34.5 -242.5 t101 -189.5t164 -124t222.5 -44q74 0 144.5 15.5t117.5 35.5v359q0 12 -10.5 17t-42.5 9l-129 13l-6 67h520z" />
<glyph unicode="&#x123;" horiz-adv-x="940" d="M727 811v-10q29 -35 46.5 -78t17.5 -105q0 -68 -28 -126t-77 -103t-114.5 -70.5t-141.5 -25.5q-29 0 -60.5 3t-52.5 9q-12 -6 -28.5 -16t-31.5 -24.5t-25.5 -31t-10.5 -34.5q0 -41 36 -68t93 -27q25 0 59.5 1t68.5 1t63.5 1.5t46.5 1.5q70 0 125 -20.5t94 -56.5t60.5 -83 t21.5 -103q0 -80 -38 -147.5t-105.5 -115.5t-160.5 -74.5t-202 -26.5q-166 0 -264.5 67.5t-98.5 176.5q0 47 16.5 84.5t44.5 67.5t61.5 51.5t70.5 37.5v8q-57 10 -94 53.5t-37 94.5q0 61 50 113.5t116 82.5q0 4 1 4.5t1 2.5q-78 35 -126 106.5t-48 175.5q0 70 27.5 131.5 t75.5 107.5t114.5 71.5t144.5 25.5q68 0 124 -14.5t106 -36.5l278 -2v-119zM752 -219q0 78 -48.5 128t-173.5 54h-50t-41.5 -1t-55.5 -2t-90 -1q-16 -6 -40 -22.5t-44.5 -40t-34.5 -54t-14 -69.5q0 -51 23.5 -91t63.5 -68t94 -42t118 -14q63 0 117.5 17t93.5 47t60.5 71 t21.5 88zM639 614q0 70 -18.5 124.5t-55.5 88.5q-55 51 -129 52q-94 0 -150.5 -69t-56.5 -175q0 -78 23.5 -137.5t64.5 -96.5q53 -43 115 -43q86 0 133 45q37 33 55.5 86t18.5 125zM317 1196q0 51 20.5 94t53.5 78t73 60.5t81 41.5l35 -32q-53 -23 -95.5 -65t-42.5 -109 q0 -41 19.5 -65.5t42 -38t42 -19.5t19.5 -8q0 -41 -26.5 -68t-79.5 -27q-59 0 -100.5 47.5t-41.5 110.5z" />
<glyph unicode="&#x124;" horiz-adv-x="1501" d="M958 1405l-208 252h-5l-208 -252h-56l228 397h77l228 -397h-56zM915 0l7 70l106 12q53 6 53 29v503h-661v-505q0 -12 11 -17.5t42 -9.5l107 -12l6 -70h-500l6 70l107 12q53 6 53 29v1060q0 12 -10.5 17.5t-42.5 9.5l-107 12l-6 70h500l-6 -70l-107 -12q-53 -6 -53 -29 v-471h661v473q0 14 -10 18.5t-43 8.5l-106 12l-7 70h500l-6 -70l-106 -12q-53 -6 -54 -29v-1060q0 -12 10.5 -17.5t43.5 -9.5l106 -12l6 -70h-500z" />
<glyph unicode="&#x125;" horiz-adv-x="1081" d="M621 0l6 70l84 8q33 2 42 9t9 22v446q0 152 -52.5 208t-144.5 56q-72 0 -136 -33.5t-107 -68.5v-611q0 -12 10 -19t45 -9l94 -8l6 -70h-442l6 70l82 8q51 2 51 31v1105q0 37 -22 43l-144 46l6 51l308 73v-630h10q78 66 159.5 106.5t167.5 40.5q47 0 92.5 -15.5 t79.5 -49.5q41 -41 58.5 -97.5t17.5 -130.5v-542q0 -12 10.5 -19.5t51.5 -11.5l80 -8l6 -70h-434zM668 1511l-209 252h-4l-209 -252h-56l228 398h78l227 -398h-55z" />
<glyph unicode="&#x126;" horiz-adv-x="1501" d="M31 999h221v172q0 12 -10.5 17.5t-42.5 9.5l-107 12l-6 70h500l-6 -70l-107 -12q-53 -6 -53 -29v-170h661v172q0 14 -10 18.5t-43 8.5l-106 12l-7 70h500l-6 -70l-106 -12q-53 -6 -54 -29v-170h221l7 -79h-228v-811q0 -12 10.5 -17.5t43.5 -9.5l106 -12l6 -70h-500l7 70 l106 12q53 6 53 29v503h-661v-505q0 -12 11 -17.5t42 -9.5l107 -12l6 -70h-500l6 70l107 12q53 6 53 29v809h-227zM1081 698v222h-661v-222h661z" />
<glyph unicode="&#x127;" horiz-adv-x="1081" d="M623 0l6 70l82 8q33 2 42 9t9 22v446q0 152 -52.5 208t-144.5 56q-72 0 -136 -33.5t-107 -68.5v-611q0 -12 10 -19t45 -9l94 -8l6 -70h-442l6 70l82 8q51 2 51 31v974h-180l6 80h174v51q0 37 -22 43l-144 46l6 51l308 73v-264h227l6 -80h-233v-286h10q80 66 160.5 106.5 t166.5 40.5q47 0 92.5 -15.5t79.5 -49.5q41 -41 58.5 -97.5t17.5 -130.5v-542q0 -12 10.5 -19.5t51.5 -11.5l80 -8l6 -70h-432z" />
<glyph unicode="&#x12a;" horiz-adv-x="718" d="M90 0l6 70l127 12q53 6 53 29v1060q0 12 -10 17.5t-43 9.5l-127 12l-6 70h541l-6 -70l-127 -12q-53 -6 -54 -29v-1060q0 -12 11.5 -17.5t42.5 -9.5l127 -12l6 -70h-541zM111 1468l6 84h493l6 -84h-505z" />
<glyph unicode="&#x12b;" horiz-adv-x="544" d="M57 0l6 70l87 8q51 2 51 31v575q0 37 -3 59.5t-10.5 35t-21.5 18.5t-35 12l-82 12l4 56l293 67v-838q0 -12 11.5 -19t45.5 -9l86 -8l7 -70h-439zM23 1104l6 84h493l6 -84h-505z" />
<glyph unicode="&#x12c;" horiz-adv-x="718" d="M90 0l6 70l127 12q53 6 53 29v1060q0 12 -10 17.5t-43 9.5l-127 12l-6 70h541l-6 -70l-127 -12q-53 -6 -54 -29v-1060q0 -12 11.5 -17.5t42.5 -9.5l127 -12l6 -70h-541zM641 1782q-14 -68 -33.5 -135.5t-50.5 -123t-78 -90t-119 -34.5t-118.5 34.5t-77.5 90t-50.5 123 t-33.5 135.5h47q23 -57 46.5 -108.5t52 -90.5t61 -61.5t73.5 -22.5t74 22.5t61.5 61.5t52 90t46.5 109h47z" />
<glyph unicode="&#x12d;" horiz-adv-x="544" d="M57 0l6 70l87 8q51 2 51 31v575q0 37 -3 59.5t-10.5 35t-21.5 18.5t-35 12l-82 12l4 56l293 67v-838q0 -12 11.5 -19t45.5 -9l86 -8l7 -70h-439zM553 1417q-14 -68 -33.5 -135.5t-50.5 -122.5t-78 -90t-119 -35t-119 35t-77.5 90t-50 123t-33.5 135h47 q23 -57 46.5 -108.5t52 -90t61 -61t73.5 -22.5t74 22.5t61.5 61t52 90t46.5 108.5h47z" />
<glyph unicode="&#x12e;" horiz-adv-x="718" d="M459 -434q-76 0 -127 44t-51 130q0 41 16 81t44 73.5t62.5 61.5t69.5 44h-383l6 70l127 12q53 6 53 29v1060q0 12 -10 17.5t-43 9.5l-127 12l-6 70h541l-6 -70l-127 -12q-53 -6 -54 -29v-1060q0 -12 11.5 -17.5t42.5 -9.5l127 -12l6 -70q-98 -14 -161.5 -75.5 t-63.5 -143.5q0 -47 26.5 -79t73.5 -32q29 0 57.5 11.5t46.5 31.5l21 -24q-10 -45 -55 -84t-117 -39z" />
<glyph unicode="&#x12f;" horiz-adv-x="544" d="M322 -434q-78 0 -132.5 41t-54.5 127q0 45 18.5 85t48 73.5t67.5 61.5t77 46h-289l6 70l87 8q51 2 51 31v575q0 37 -3 59.5t-10.5 35t-21.5 18.5t-35 12l-82 12l4 56l293 67v-838q0 -12 11.5 -19t45.5 -9l86 -8l7 -70q-47 -10 -90.5 -28.5t-75 -47t-50 -66.5t-18.5 -85 t27.5 -75t79.5 -28q29 0 57.5 11.5t46.5 31.5l23 -24q-10 -45 -56 -84t-118 -39zM252 1128q-53 0 -79 35t-26 80t26 80t79 35t78.5 -34t25.5 -81q0 -45 -25.5 -80t-78.5 -35z" />
<glyph unicode="&#x130;" horiz-adv-x="718" d="M90 0l6 70l127 12q53 6 53 29v1060q0 12 -10 17.5t-43 9.5l-127 12l-6 70h541l-6 -70l-127 -12q-53 -6 -54 -29v-1060q0 -12 11.5 -17.5t42.5 -9.5l127 -12l6 -70h-541zM475 1599q0 -49 -30.5 -86.5t-84.5 -37.5q-55 0 -85.5 37.5t-30.5 86.5q0 47 30.5 85t85.5 38 q53 0 84 -38t31 -85z" />
<glyph unicode="&#x131;" horiz-adv-x="544" d="M57 0l6 70l87 8q51 2 51 31v575q0 37 -3 59.5t-10.5 35t-21.5 18.5t-35 12l-82 12l4 56l293 67v-838q0 -12 11.5 -19t45.5 -9l86 -8l7 -70h-439z" />
<glyph unicode="&#x134;" horiz-adv-x="796" d="M684 1405l-209 252h-4l-209 -252h-55l227 397h78l227 -397h-55zM743 1210l-118 -12q-31 -4 -42.5 -10t-11.5 -19v-665q0 -258 -96 -396.5t-276 -138.5q-90 0 -143.5 36t-53.5 91q0 41 26.5 64.5t67.5 23.5q53 0 94 -39q37 -37 56 -106h2q39 10 67.5 33.5t48 72t28.5 127 t9 201.5v698q0 14 -10 18.5t-43 8.5l-141 12l-6 70h549z" />
<glyph unicode="&#x135;" horiz-adv-x="518" d="M340 -68q-6 -109 -36 -195.5t-75 -147t-100 -92.5t-113 -32q-59 0 -103 30t-44 91q0 41 30.5 69t67.5 28q49 0 81 -33t48 -88q53 16 76 87.5t23 186.5v848q0 37 -3.5 59.5t-10.5 35t-21.5 18.5t-34.5 12l-82 12l4 56l293 67v-1012zM459 1040l-209 252h-4l-209 -252h-55 l227 398h78l227 -398h-55z" />
<glyph unicode="&#x136;" horiz-adv-x="1296" d="M831 -262q0 -51 -20 -94t-53 -78t-74 -60.5t-80 -42.5l-35 33q53 23 95.5 65t42.5 109q0 39 -19.5 64.5t-42 39t-42 19.5t-19.5 8q0 41 26.5 68t79.5 27q59 0 100 -47.5t41 -110.5zM834 0l6 70l80 12q12 4 11 16.5t-11 28.5l-361 508l-139 -137v-389q0 -12 11 -17.5 t42 -9.5l107 -12l6 -70h-500l6 70l107 12q53 6 53 29v1060q0 12 -10.5 17.5t-42.5 9.5l-107 12l-6 70h500l-6 -70l-107 -12q-53 -6 -53 -29v-561l440 443q80 78 85 110.5t-42 36.5l-104 12l-6 70h489l-6 -70l-86 -10q-35 -6 -67.5 -26.5t-86.5 -73.5l-364 -363l440 -590 q27 -41 45.5 -52t48.5 -15l74 -10l6 -70h-452z" />
<glyph unicode="&#x137;" horiz-adv-x="993" d="M672 -262q0 -51 -20.5 -94t-53.5 -78t-74 -60.5t-80 -42.5l-34 33q53 23 95 65t42 109q0 39 -19.5 64.5t-42 39t-42 19.5t-19.5 8q0 41 26.5 68t79.5 27q59 0 100.5 -47.5t41.5 -110.5zM713 0l-107 174l-192 277l-92 -84v-261q0 -12 10 -18t45 -10l80 -8l6 -70h-428l6 70 l82 8q29 4 40 9t11 22v1105q0 37 -22 43l-144 46l6 51l308 73v-964l217 203q47 43 80.5 77.5t33.5 57.5q0 18 -16 26.5t-41 12.5l-66 6l-6 67h426l-6 -67l-51 -8q-41 -6 -84 -36t-125 -106l-166 -151l293 -400q23 -29 40 -47t40 -20l80 -8l6 -70h-264z" />
<glyph unicode="&#x139;" horiz-adv-x="1157" d="M332 1405h-47l192 377h193zM1036 0h-950l6 70l107 12q53 6 53 29v1060q0 12 -10.5 17.5t-42.5 9.5l-107 12l-6 70h518l-6 -70l-125 -12q-53 -6 -53 -29v-1093h51q152 0 239 3t132 12t60.5 26.5t23.5 46.5l61 244h94z" />
<glyph unicode="&#x13a;" horiz-adv-x="548" d="M213 1493h-47l192 377h193zM55 0l6 70l86 8q51 2 52 31v1105q0 37 -23 43l-149 46l6 51l311 73v-1321q0 -12 11.5 -19t45.5 -9l86 -8l7 -70h-439z" />
<glyph unicode="&#x13b;" horiz-adv-x="1157" d="M727 -262q0 -51 -20.5 -94t-53 -78t-73.5 -60.5t-80 -42.5l-35 33q53 23 95 65t42 109q0 39 -19.5 64.5t-42 39t-42 19.5t-19.5 8q0 41 26.5 68t80.5 27q59 0 100 -47.5t41 -110.5zM1036 0h-950l6 70l107 12q53 6 53 29v1060q0 12 -10.5 17.5t-42.5 9.5l-107 12l-6 70 h518l-6 -70l-125 -12q-53 -6 -53 -29v-1093h51q152 0 239 3t132 12t60.5 26.5t23.5 46.5l61 244h94z" />
<glyph unicode="&#x13c;" horiz-adv-x="548" d="M408 -262q0 -51 -20.5 -94t-53.5 -78t-74 -60.5t-80 -42.5l-35 33q53 23 95.5 65t42.5 109q0 39 -19.5 64.5t-42 39t-42 19.5t-19.5 8q0 41 26.5 68t79.5 27q59 0 100.5 -47.5t41.5 -110.5zM55 0l6 70l86 8q51 2 52 31v1105q0 37 -23 43l-149 46l6 51l311 73v-1321 q0 -12 11.5 -19t45.5 -9l86 -8l7 -70h-439z" />
<glyph unicode="&#x13d;" horiz-adv-x="1388" d="M1374 1118q0 -63 -25.5 -120.5t-66.5 -106.5t-92 -92t-100 -80l-46 33q33 25 64 54.5t55.5 64t39 72.5t14.5 79q0 45 -24 75.5t-52.5 50t-52 30t-23.5 12.5q0 47 34 81t95 34q33 0 65.5 -14.5t58 -39t41 -58.5t15.5 -75zM1036 0h-950l6 70l107 12q53 6 53 29v1060 q0 12 -10.5 17.5t-42.5 9.5l-107 12l-6 70h518l-6 -70l-125 -12q-53 -6 -53 -29v-1093h51q152 0 239 3t132 12t60.5 26.5t23.5 46.5l61 244h94z" />
<glyph unicode="&#x13e;" horiz-adv-x="980" d="M866 1247q0 -63 -25.5 -120.5t-66.5 -106.5t-92 -92t-100 -80l-45 33q33 25 63.5 54.5t55 64t39 72.5t14.5 79q0 45 -23.5 75.5t-52.5 50t-52.5 30t-23.5 12.5q0 47 34 81t95 34q33 0 65.5 -14.5t58.5 -39t41 -58.5t15 -75zM55 0l6 70l86 8q51 2 52 31v1105q0 37 -23 43 l-149 46l6 51l311 73v-1321q0 -12 11.5 -19t45.5 -9l86 -8l7 -70h-439z" />
<glyph unicode="&#x13f;" horiz-adv-x="1433" d="M1036 0h-950l6 70l107 12q53 6 53 29v1060q0 12 -10.5 17.5t-42.5 9.5l-107 12l-6 70h518l-6 -70l-125 -12q-53 -6 -53 -29v-1093h51q152 0 239 3t132 12t60.5 26.5t23.5 46.5l61 244h94zM1460 621q0 -49 -34.5 -87t-90.5 -38q-57 0 -93 37.5t-36 87.5q0 49 36 85.5 t93 36.5q55 0 90 -36.5t35 -85.5z" />
<glyph unicode="&#x140;" horiz-adv-x="880" d="M55 0l6 70l86 8q51 2 52 31v1105q0 37 -23 43l-149 46l6 51l311 73v-1321q0 -12 11.5 -19t45.5 -9l86 -8l7 -70h-439zM846 639q0 -49 -35 -87t-90 -38q-57 0 -93 38t-36 87t36 86t93 37q55 0 90 -37t35 -86z" />
<glyph unicode="&#x141;" horiz-adv-x="1157" d="M76 373v84l176 47v649q0 31 -37 37l-123 20l-6 70h518l-6 -70l-141 -20q-37 -6 -37 -37v-604l233 61v-86l-233 -61v-387h51q152 0 239 3t132 12t60.5 26.5t23.5 46.5l61 244h94l-45 -408h-950l6 70l123 20q37 6 37 37v293z" />
<glyph unicode="&#x142;" horiz-adv-x="546" d="M344 127q0 -33 37 -39l121 -18l6 -70h-453l6 70l103 18q35 12 35 39v291l-172 -47v84l172 47v706q0 35 -23 41l-149 45l6 52l311 81v-886l168 47v-86l-168 -45v-330z" />
<glyph unicode="&#x143;" horiz-adv-x="1507" d="M721 1405h-47l192 377h193zM1454 1210l-123 -16q-23 -4 -36 -12t-20 -38t-9 -86.5t-2 -154.5v-919h-99l-805 1126h-8v-733q0 -98 2 -154.5t8.5 -86.5t19.5 -38t36 -12l123 -16l6 -70h-471l6 70l123 16q23 4 36 12t19 38t8 86.5t2 154.5v676q0 66 -14 94.5t-49 44.5 l-117 18l-6 70h354l738 -1032h6v655q0 98 -2 154.5t-8.5 86.5t-19.5 38t-36 12l-123 16l-6 70h473z" />
<glyph unicode="&#x144;" horiz-adv-x="1110" d="M645 0l6 70l84 8q33 2 42 9t9 22v446q0 152 -52 208t-144 56q-72 0 -136.5 -33.5t-107.5 -68.5v-611q0 -12 10.5 -19t44.5 -9l95 -8l6 -70h-443l7 70l81 8q51 2 52 31v579q0 70 -12.5 90.5t-51.5 30.5l-86 12l2 56l295 67v-147h10q78 66 160 106.5t168 40.5 q47 0 92 -15.5t80 -49.5q41 -41 58.5 -97.5t17.5 -130.5v-542q0 -12 10 -19.5t51 -11.5l82 -8l6 -70h-436zM522 1040h-47l193 377h192z" />
<glyph unicode="&#x145;" horiz-adv-x="1507" d="M909 -262q0 -51 -20.5 -94t-53 -78t-73.5 -60.5t-80 -42.5l-35 33q53 23 95 65t42 109q0 39 -19.5 64.5t-42 39t-41.5 19.5t-19 8q0 41 26.5 68t79.5 27q59 0 100 -47.5t41 -110.5zM1454 1210l-123 -16q-23 -4 -36 -12t-20 -38t-9 -86.5t-2 -154.5v-919h-99l-805 1126h-8 v-733q0 -98 2 -154.5t8.5 -86.5t19.5 -38t36 -12l123 -16l6 -70h-471l6 70l123 16q23 4 36 12t19 38t8 86.5t2 154.5v676q0 66 -14 94.5t-49 44.5l-117 18l-6 70h354l738 -1032h6v655q0 98 -2 154.5t-8.5 86.5t-19.5 38t-36 12l-123 16l-6 70h473z" />
<glyph unicode="&#x146;" horiz-adv-x="1110" d="M645 0l6 70l84 8q33 2 42 9t9 22v446q0 152 -52 208t-144 56q-72 0 -136.5 -33.5t-107.5 -68.5v-611q0 -12 10.5 -19t44.5 -9l95 -8l6 -70h-443l7 70l81 8q51 2 52 31v579q0 70 -12.5 90.5t-51.5 30.5l-86 12l2 56l295 67v-147h10q78 66 160 106.5t168 40.5 q47 0 92 -15.5t80 -49.5q41 -41 58.5 -97.5t17.5 -130.5v-542q0 -12 10 -19.5t51 -11.5l82 -8l6 -70h-436zM696 -262q0 -51 -20.5 -94t-53 -78t-73.5 -60.5t-80 -42.5l-35 33q53 23 95 65t42 109q0 39 -19.5 64.5t-42 39t-41.5 19.5t-19 8q0 41 26.5 68t79.5 27 q59 0 100 -47.5t41 -110.5z" />
<glyph unicode="&#x147;" horiz-adv-x="1507" d="M805 1405h-78l-227 397h55l209 -252h4l209 252h55zM1454 1210l-123 -16q-23 -4 -36 -12t-20 -38t-9 -86.5t-2 -154.5v-919h-99l-805 1126h-8v-733q0 -98 2 -154.5t8.5 -86.5t19.5 -38t36 -12l123 -16l6 -70h-471l6 70l123 16q23 4 36 12t19 38t8 86.5t2 154.5v676 q0 66 -14 94.5t-49 44.5l-117 18l-6 70h354l738 -1032h6v655q0 98 -2 154.5t-8.5 86.5t-19.5 38t-36 12l-123 16l-6 70h473z" />
<glyph unicode="&#x148;" horiz-adv-x="1110" d="M575 1040h-77l-228 398h56l209 -252h4l209 252h55zM645 0l6 70l84 8q33 2 42 9t9 22v446q0 152 -52 208t-144 56q-72 0 -136.5 -33.5t-107.5 -68.5v-611q0 -12 10.5 -19t44.5 -9l95 -8l6 -70h-443l7 70l81 8q51 2 52 31v579q0 70 -12.5 90.5t-51.5 30.5l-86 12l2 56 l295 67v-147h10q78 66 160 106.5t168 40.5q47 0 92 -15.5t80 -49.5q41 -41 58.5 -97.5t17.5 -130.5v-542q0 -12 10 -19.5t51 -11.5l82 -8l6 -70h-436z" />
<glyph unicode="&#x14c;" horiz-adv-x="1513" d="M520 1468l6 84h494l6 -84h-506zM1419 645q0 -137 -50 -260t-139 -215t-211 -146.5t-265 -54.5q-141 0 -262 48.5t-209 134.5t-138.5 207.5t-50.5 269.5q0 137 50.5 260t139.5 216t210.5 147.5t265.5 54.5q141 0 261 -48.5t209 -135.5t139 -209t50 -269zM1233 623 q0 143 -40 256.5t-105.5 191.5t-153.5 120t-182 42q-96 0 -181.5 -39t-150 -113.5t-102 -183.5t-37.5 -246q0 -143 38.5 -256.5t105.5 -191.5t153 -120t182 -42q94 0 180 39t151.5 113.5t103.5 182.5t38 247z" />
<glyph unicode="&#x14d;" horiz-adv-x="1060" d="M287 1104l6 84h493l7 -84h-506zM991 477q0 -106 -35.5 -199.5t-99 -162t-151 -107.5t-187.5 -39t-183 37t-141.5 101.5t-90 152.5t-31.5 193q0 104 36.5 194t101 156.5t152 103.5t185.5 37t180 -35t140.5 -97t91 -148.5t32.5 -186.5zM831 416q0 113 -26.5 210t-83.5 156 q-29 29 -78 56.5t-117 27.5q-63 0 -116.5 -26.5t-92 -74.5t-61.5 -115.5t-23 -151.5q0 -115 28 -211.5t85 -155.5q29 -29 76 -55.5t117 -26.5q61 0 114.5 25.5t93 74t62 116t22.5 151.5z" />
<glyph unicode="&#x14e;" horiz-adv-x="1513" d="M1419 645q0 -137 -50 -260t-139 -215t-211 -146.5t-265 -54.5q-141 0 -262 48.5t-209 134.5t-138.5 207.5t-50.5 269.5q0 137 50.5 260t139.5 216t210.5 147.5t265.5 54.5q141 0 261 -48.5t209 -135.5t139 -209t50 -269zM1233 623q0 143 -40 256.5t-105.5 191.5 t-153.5 120t-182 42q-96 0 -181.5 -39t-150 -113.5t-102 -183.5t-37.5 -246q0 -143 38.5 -256.5t105.5 -191.5t153 -120t182 -42q94 0 180 39t151.5 113.5t103.5 182.5t38 247zM1053 1782q-14 -68 -34 -135.5t-50.5 -123t-77.5 -90t-119 -34.5t-119 34.5t-77.5 90t-50 123 t-33.5 135.5h47q23 -57 46 -108.5t52 -90.5t61.5 -61.5t73.5 -22.5t74 22.5t61.5 61.5t52 90t46.5 109h47z" />
<glyph unicode="&#x14f;" horiz-adv-x="1060" d="M991 477q0 -106 -35.5 -199.5t-99 -162t-151 -107.5t-187.5 -39t-183 37t-141.5 101.5t-90 152.5t-31.5 193q0 104 36.5 194t101 156.5t152 103.5t185.5 37t180 -35t140.5 -97t91 -148.5t32.5 -186.5zM831 416q0 113 -26.5 210t-83.5 156q-29 29 -78 56.5t-117 27.5 q-63 0 -116.5 -26.5t-92 -74.5t-61.5 -115.5t-23 -151.5q0 -115 28 -211.5t85 -155.5q29 -29 76 -55.5t117 -26.5q61 0 114.5 25.5t93 74t62 116t22.5 151.5zM817 1417q-14 -68 -33.5 -135.5t-50.5 -122.5t-78 -90t-118 -35q-72 0 -119 35t-78 90t-50.5 123t-33.5 135h47 q23 -57 46.5 -108.5t52 -90t61.5 -61t74 -22.5t73.5 22.5t61 61t52.5 90t46 108.5h47z" />
<glyph unicode="&#x150;" horiz-adv-x="1513" d="M879 1405h-45l178 377h170zM569 1405h-45l178 377h170zM1419 645q0 -137 -50 -260t-139 -215t-211 -146.5t-265 -54.5q-141 0 -262 48.5t-209 134.5t-138.5 207.5t-50.5 269.5q0 137 50.5 260t139.5 216t210.5 147.5t265.5 54.5q141 0 261 -48.5t209 -135.5t139 -209 t50 -269zM1233 623q0 143 -40 256.5t-105.5 191.5t-153.5 120t-182 42q-96 0 -181.5 -39t-150 -113.5t-102 -183.5t-37.5 -246q0 -143 38.5 -256.5t105.5 -191.5t153 -120t182 -42q94 0 180 39t151.5 113.5t103.5 182.5t38 247z" />
<glyph unicode="&#x151;" horiz-adv-x="1060" d="M645 1040h-45l178 377h170zM336 1040h-45l178 377h170zM991 477q0 -106 -35.5 -199.5t-99 -162t-151 -107.5t-187.5 -39t-183 37t-141.5 101.5t-90 152.5t-31.5 193q0 104 36.5 194t101 156.5t152 103.5t185.5 37t180 -35t140.5 -97t91 -148.5t32.5 -186.5zM831 416 q0 113 -26.5 210t-83.5 156q-29 29 -78 56.5t-117 27.5q-63 0 -116.5 -26.5t-92 -74.5t-61.5 -115.5t-23 -151.5q0 -115 28 -211.5t85 -155.5q29 -29 76 -55.5t117 -26.5q61 0 114.5 25.5t93 74t62 116t22.5 151.5z" />
<glyph unicode="&#x152;" horiz-adv-x="1910" d="M1784 0h-934q-170 0 -309.5 44t-238.5 126t-153.5 195.5t-54.5 252.5q0 133 47 254t141.5 212.5t238 144.5t333.5 53l932 -2v-371h-82l-45 207q-8 31 -20.5 48.5t-55.5 26.5t-127 11t-235 2h-93v-514h91q68 0 106.5 1t60 5t29.5 11.5t12 21.5l48 137h65l-41 -426h-65 l-15 131q-2 12 -7 20.5t-24.5 14.5t-59.5 8t-111 2h-89v-540h66q166 0 259 3t140 12t61.5 26.5t24.5 46.5l52 198h92zM971 1178l-166 32q-129 -2 -229.5 -45t-169 -115.5t-104.5 -171t-36 -210.5q0 -133 40 -241t120 -185.5t196.5 -119.5t270.5 -42h78v1098z" />
<glyph unicode="&#x153;" horiz-adv-x="1697" d="M897 168q-63 -92 -161.5 -145.5t-217.5 -53.5q-100 0 -183 37t-142.5 101.5t-91 153.5t-29.5 194q2 104 40 194t101 155.5t149.5 102.5t184.5 37q125 0 221 -55t154 -152q63 98 162.5 152.5t215.5 54.5q143 0 229.5 -82t86.5 -215q0 -27 -3 -56.5t-9 -51.5l-617 8 q-2 -6 -2 -24.5v-24.5q0 -86 23.5 -160t66.5 -126t102.5 -82t129.5 -30q72 0 140.5 30t121.5 95l41 -24q-55 -111 -151.5 -170.5t-217.5 -59.5q-111 0 -201 52.5t-143 144.5zM1450 610q8 121 -44 191.5t-144 70.5q-43 0 -85 -18t-78 -52t-63.5 -83t-40.5 -111h230h84t72.5 1 t51 1t17.5 0zM831 412q0 113 -26.5 212t-83.5 158q-29 29 -78 56.5t-117 27.5q-127 0 -208.5 -98t-84.5 -266q-2 -115 27 -213.5t86 -157.5q29 -29 76 -55.5t117 -26.5q61 0 114.5 25.5t92 73t61 114t24.5 150.5z" />
<glyph unicode="&#x154;" horiz-adv-x="1210" d="M537 1405h-48l193 377h192zM1036 170q37 -53 56.5 -67.5t42.5 -18.5l84 -14l6 -70h-301l-78 141l-250 426q-51 -2 -88 -2q-35 0 -61.5 -1t-26.5 1v-456q0 -12 11 -17.5t42 -9.5l117 -12l6 -70h-510l6 70l107 12q53 6 53 29v1060q0 12 -10.5 17.5t-42.5 9.5l-107 12l-6 70 h524q117 0 202 -23.5t140.5 -64.5t82 -98.5t26.5 -126.5q0 -139 -83 -229.5t-220 -137.5zM879 930q0 139 -79 209.5t-243 60.5q-10 0 -32.5 -1t-45.5 -1q-27 -2 -59 -2v-545q0 -2 26.5 -3t59.5 -5q37 -4 88 -6q129 14 207 86t78 207z" />
<glyph unicode="&#x155;" horiz-adv-x="757" d="M750 842q0 -43 -25 -74t-72 -31q-33 0 -58.5 19.5t-39.5 46.5q-25 -14 -52.5 -39t-56 -55.5t-55 -66.5t-45.5 -75v-461q0 -12 10.5 -19t44.5 -9l109 -8l6 -70h-457l7 70l81 8q51 2 52 31v579q0 70 -12.5 90.5t-51.5 30.5l-84 12l4 56l291 67v-266h8q88 150 151.5 209 t129.5 59q55 0 85 -30.5t30 -73.5zM412 1040h-47l192 377h193z" />
<glyph unicode="&#x156;" horiz-adv-x="1210" d="M1036 170q37 -53 56.5 -67.5t42.5 -18.5l84 -14l6 -70h-301l-78 141l-250 426q-51 -2 -88 -2q-35 0 -61.5 -1t-26.5 1v-456q0 -12 11 -17.5t42 -9.5l117 -12l6 -70h-510l6 70l107 12q53 6 53 29v1060q0 12 -10.5 17.5t-42.5 9.5l-107 12l-6 70h524q117 0 202 -23.5 t140.5 -64.5t82 -98.5t26.5 -126.5q0 -139 -83 -229.5t-220 -137.5zM879 930q0 139 -79 209.5t-243 60.5q-10 0 -32.5 -1t-45.5 -1q-27 -2 -59 -2v-545q0 -2 26.5 -3t59.5 -5q37 -4 88 -6q129 14 207 86t78 207zM817 -262q0 -51 -20.5 -94t-53 -78t-73.5 -60.5t-80 -42.5 l-35 33q53 23 95 65t42 109q0 39 -19.5 64.5t-42 39t-42 19.5t-19.5 8q0 41 27 68t80 27q59 0 100 -47.5t41 -110.5z" />
<glyph unicode="&#x157;" horiz-adv-x="757" d="M408 -262q0 -51 -20.5 -94t-53.5 -78t-74 -60.5t-80 -42.5l-35 33q53 23 95.5 65t42.5 109q0 39 -19.5 64.5t-42 39t-42 19.5t-19.5 8q0 41 26.5 68t79.5 27q59 0 100.5 -47.5t41.5 -110.5zM750 842q0 -43 -25 -74t-72 -31q-33 0 -58.5 19.5t-39.5 46.5 q-25 -14 -52.5 -39t-56 -55.5t-55 -66.5t-45.5 -75v-461q0 -12 10.5 -19t44.5 -9l109 -8l6 -70h-457l7 70l81 8q51 2 52 31v579q0 70 -12.5 90.5t-51.5 30.5l-84 12l4 56l291 67v-266h8q88 150 151.5 209t129.5 59q55 0 85 -30.5t30 -73.5z" />
<glyph unicode="&#x158;" horiz-adv-x="1210" d="M1036 170q37 -53 56.5 -67.5t42.5 -18.5l84 -14l6 -70h-301l-78 141l-250 426q-51 -2 -88 -2q-35 0 -61.5 -1t-26.5 1v-456q0 -12 11 -17.5t42 -9.5l117 -12l6 -70h-510l6 70l107 12q53 6 53 29v1060q0 12 -10.5 17.5t-42.5 9.5l-107 12l-6 70h524q117 0 202 -23.5 t140.5 -64.5t82 -98.5t26.5 -126.5q0 -139 -83 -229.5t-220 -137.5zM879 930q0 139 -79 209.5t-243 60.5q-10 0 -32.5 -1t-45.5 -1q-27 -2 -59 -2v-545q0 -2 26.5 -3t59.5 -5q37 -4 88 -6q129 14 207 86t78 207zM639 1405h-78l-227 397h55l209 -252h4l209 252h55z" />
<glyph unicode="&#x159;" horiz-adv-x="757" d="M750 842q0 -43 -25 -74t-72 -31q-33 0 -58.5 19.5t-39.5 46.5q-25 -14 -52.5 -39t-56 -55.5t-55 -66.5t-45.5 -75v-461q0 -12 10.5 -19t44.5 -9l109 -8l6 -70h-457l7 70l81 8q51 2 52 31v579q0 70 -12.5 90.5t-51.5 30.5l-84 12l4 56l291 67v-266h8q88 150 151.5 209 t129.5 59q55 0 85 -30.5t30 -73.5zM449 1040h-78l-228 398h56l209 -252h4l209 252h55z" />
<glyph unicode="&#x15a;" horiz-adv-x="1032" d="M492 1405h-48l193 377h192zM948 346q0 -76 -32.5 -143.5t-93 -119.5t-147.5 -83t-196 -31q-104 -2 -192 14.5t-166 41.5l-31 362h82l86 -283q51 -23 122 -39t130 -16q70 0 123 20.5t90 54.5t55.5 77t18.5 90q0 63 -22.5 108t-64.5 79t-101.5 59.5t-133.5 54.5 t-139.5 59.5t-114.5 72.5t-76.5 99.5t-27.5 137.5q0 68 25.5 131t77.5 110t132 77t187 30q84 2 140 -5.5t99 -17.5l107 31v-404h-82l-58 263q-51 23 -114.5 37t-118.5 14q-61 0 -108.5 -17.5t-78 -47t-46 -68.5t-15.5 -80q0 -61 23.5 -104.5t66.5 -76t100.5 -57t125.5 -51.5 q78 -29 145.5 -59.5t116.5 -73.5t77.5 -102.5t28.5 -143.5z" />
<glyph unicode="&#x15b;" horiz-adv-x="823" d="M371 1040h-47l192 377h193zM735 260q0 -55 -22.5 -108.5t-67.5 -93.5t-111.5 -64.5t-154.5 -24.5q-72 0 -141.5 10.5t-124.5 32.5l-13 264h93l43 -182q35 -25 76.5 -39t90.5 -14q37 0 74 12.5t65.5 35t46 54t17.5 70.5t-19.5 66.5t-51 49t-72.5 38t-86 32.5 q-51 18 -99.5 41t-86 54.5t-61.5 76.5t-24 111q0 51 20.5 99t61.5 85t100.5 59.5t137.5 22.5q68 0 114 -10t85 -23l61 21l16 -287h-90l-39 178q-35 23 -78.5 36.5t-84.5 13.5q-78 0 -126 -41t-48 -105q0 -37 16 -63.5t46 -48t72 -39t91 -35.5q51 -18 100 -41t88 -55.5 t62.5 -77.5t23.5 -111z" />
<glyph unicode="&#x15c;" horiz-adv-x="1032" d="M725 1405l-209 252h-4l-209 -252h-55l227 397h78l227 -397h-55zM948 346q0 -76 -32.5 -143.5t-93 -119.5t-147.5 -83t-196 -31q-104 -2 -192 14.5t-166 41.5l-31 362h82l86 -283q51 -23 122 -39t130 -16q70 0 123 20.5t90 54.5t55.5 77t18.5 90q0 63 -22.5 108t-64.5 79 t-101.5 59.5t-133.5 54.5t-139.5 59.5t-114.5 72.5t-76.5 99.5t-27.5 137.5q0 68 25.5 131t77.5 110t132 77t187 30q84 2 140 -5.5t99 -17.5l107 31v-404h-82l-58 263q-51 23 -114.5 37t-118.5 14q-61 0 -108.5 -17.5t-78 -47t-46 -68.5t-15.5 -80q0 -61 23.5 -104.5 t66.5 -76t100.5 -57t125.5 -51.5q78 -29 145.5 -59.5t116.5 -73.5t77.5 -102.5t28.5 -143.5z" />
<glyph unicode="&#x15d;" horiz-adv-x="823" d="M641 1040l-209 252h-4l-209 -252h-55l227 398h78l227 -398h-55zM735 260q0 -55 -22.5 -108.5t-67.5 -93.5t-111.5 -64.5t-154.5 -24.5q-72 0 -141.5 10.5t-124.5 32.5l-13 264h93l43 -182q35 -25 76.5 -39t90.5 -14q37 0 74 12.5t65.5 35t46 54t17.5 70.5t-19.5 66.5 t-51 49t-72.5 38t-86 32.5q-51 18 -99.5 41t-86 54.5t-61.5 76.5t-24 111q0 51 20.5 99t61.5 85t100.5 59.5t137.5 22.5q68 0 114 -10t85 -23l61 21l16 -287h-90l-39 178q-35 23 -78.5 36.5t-84.5 13.5q-78 0 -126 -41t-48 -105q0 -37 16 -63.5t46 -48t72 -39t91 -35.5 q51 -18 100 -41t88 -55.5t62.5 -77.5t23.5 -111z" />
<glyph unicode="&#x15e;" horiz-adv-x="1032" d="M748 -301q0 -98 -108 -163.5t-310 -82.5l-17 45q164 23 242 67t78 113q0 49 -43 80t-131 31q-29 0 -58.5 -3t-60.5 -7v35l147 155h-8q-104 -2 -192 14.5t-166 41.5l-31 362h82l86 -283q51 -23 122 -39t130 -16q70 0 123 20.5t90 54.5t55.5 77t18.5 90q0 63 -22.5 108 t-64.5 79t-101.5 59.5t-133.5 54.5t-139.5 59.5t-114.5 72.5t-76.5 99.5t-27.5 137.5q0 68 25.5 131t77.5 110t132 77t187 30q84 2 140 -5.5t99 -17.5l107 31v-404h-82l-58 263q-51 23 -114.5 37t-118.5 14q-61 0 -108.5 -17.5t-78 -47t-46 -68.5t-15.5 -80 q0 -61 23.5 -104.5t66.5 -76t100.5 -57t125.5 -51.5q78 -29 145.5 -59.5t116.5 -73.5t77.5 -102.5t28.5 -143.5q0 -68 -25.5 -129t-73.5 -110.5t-116.5 -83t-157.5 -46.5l-92 -98q117 4 191 -43t74 -137z" />
<glyph unicode="&#x15f;" horiz-adv-x="823" d="M639 -301q0 -98 -107.5 -163.5t-310.5 -82.5l-16 45q164 23 241.5 67t77.5 113q0 49 -43 80t-131 31q-29 0 -58.5 -3t-60.5 -7v35l148 155q-72 0 -141.5 10.5t-124.5 32.5l-13 264h93l43 -182q35 -25 76.5 -39t90.5 -14q37 0 74 12.5t65.5 35t46 54t17.5 70.5t-19.5 66.5 t-51 49t-72.5 38t-86 32.5q-51 18 -99.5 41t-86 54.5t-61.5 76.5t-24 111q0 51 20.5 99t61.5 85t100.5 59.5t137.5 22.5q68 0 114 -10t85 -23l61 21l16 -287h-90l-39 178q-35 23 -78.5 36.5t-84.5 13.5q-78 0 -126 -41t-48 -105q0 -37 16 -63.5t46 -48t72 -39t91 -35.5 q51 -18 100 -41t88 -55.5t62.5 -77.5t23.5 -111q0 -49 -17.5 -95t-51 -84t-84 -65.5t-115.5 -38.5l-92 -98q117 4 190.5 -43t73.5 -137z" />
<glyph unicode="&#x160;" horiz-adv-x="1032" d="M948 346q0 -76 -32.5 -143.5t-93 -119.5t-147.5 -83t-196 -31q-104 -2 -192 14.5t-166 41.5l-31 362h82l86 -283q51 -23 122 -39t130 -16q70 0 123 20.5t90 54.5t55.5 77t18.5 90q0 63 -22.5 108t-64.5 79t-101.5 59.5t-133.5 54.5t-139.5 59.5t-114.5 72.5t-76.5 99.5 t-27.5 137.5q0 68 25.5 131t77.5 110t132 77t187 30q84 2 140 -5.5t99 -17.5l107 31v-404h-82l-58 263q-51 23 -114.5 37t-118.5 14q-61 0 -108.5 -17.5t-78 -47t-46 -68.5t-15.5 -80q0 -61 23.5 -104.5t66.5 -76t100.5 -57t125.5 -51.5q78 -29 145.5 -59.5t116.5 -73.5 t77.5 -102.5t28.5 -143.5zM555 1393h-78l-227 397h55l209 -252h4l209 252h55z" />
<glyph unicode="&#x161;" horiz-adv-x="823" d="M735 260q0 -55 -22.5 -108.5t-67.5 -93.5t-111.5 -64.5t-154.5 -24.5q-72 0 -141.5 10.5t-124.5 32.5l-13 264h93l43 -182q35 -25 76.5 -39t90.5 -14q37 0 74 12.5t65.5 35t46 54t17.5 70.5t-19.5 66.5t-51 49t-72.5 38t-86 32.5q-51 18 -99.5 41t-86 54.5t-61.5 76.5 t-24 111q0 51 20.5 99t61.5 85t100.5 59.5t137.5 22.5q68 0 114 -10t85 -23l61 21l16 -287h-90l-39 178q-35 23 -78.5 36.5t-84.5 13.5q-78 0 -126 -41t-48 -105q0 -37 16 -63.5t46 -48t72 -39t91 -35.5q51 -18 100 -41t88 -55.5t62.5 -77.5t23.5 -111zM446 1040h-77 l-228 398h56l209 -252h4l208 252h56z" />
<glyph unicode="&#x162;" horiz-adv-x="1253" d="M1094 887l-45 215q-6 29 -17.5 48t-43.5 30.5t-93 17.5t-170 6h-14v-1095q0 -12 11 -17.5t42 -9.5l139 -12l6 -70h-565l6 70l139 12q53 6 54 29v1093h-15q-104 0 -165.5 -3t-95.5 -12t-47 -26.5t-21 -46.5l-56 -229h-92l35 393h1096v-393h-88zM756 -262q0 -51 -20.5 -94 t-53.5 -78t-74 -60.5t-80 -42.5l-34 33q53 23 95 65t42 109q0 39 -19.5 64.5t-42 39t-42 19.5t-19.5 8q0 41 26.5 68t79.5 27q59 0 100.5 -47.5t41.5 -110.5z" />
<glyph unicode="&#x163;" horiz-adv-x="702" d="M526 -262q0 -51 -20.5 -94t-53 -78t-73.5 -60.5t-80 -42.5l-35 33q53 23 95 65t42 109q0 39 -19.5 64.5t-42 39t-41.5 19.5t-19 8q0 41 26.5 68t79.5 27q59 0 100 -47.5t41 -110.5zM662 86q-49 -51 -121 -84t-140 -33q-104 0 -169.5 62.5t-63.5 204.5l12 577l-162 8l2 60 l140 84l96 129l72 -9l-2 -174h331l-14 -94h-317l-13 -545q-4 -102 39 -144t125 -42q41 0 86 15.5t86 37.5z" />
<glyph unicode="&#x164;" horiz-adv-x="1253" d="M1094 887l-45 215q-6 29 -17.5 48t-43.5 30.5t-93 17.5t-170 6h-14v-1095q0 -12 11 -17.5t42 -9.5l139 -12l6 -70h-565l6 70l139 12q53 6 54 29v1093h-15q-104 0 -165.5 -3t-95.5 -12t-47 -26.5t-21 -46.5l-56 -229h-92l35 393h1096v-393h-88zM664 1405h-78l-228 397h56 l209 -252h4l209 252h55z" />
<glyph unicode="&#x165;" horiz-adv-x="731" d="M692 1286q0 -53 -20.5 -99t-54 -87t-74.5 -76t-82 -63l-37 26q53 39 96 96.5t43 124.5q0 37 -19.5 61.5t-42 41t-42 23.5t-19.5 9q0 39 28 67t77 28q27 0 53.5 -11.5t47 -32t33.5 -48t13 -60.5zM662 86q-49 -51 -121 -84t-140 -33q-104 0 -169.5 62.5t-63.5 204.5l12 577 l-162 8l2 60l140 84l96 129l72 -9l-2 -174h331l-14 -94h-317l-13 -545q-4 -102 39 -144t125 -42q41 0 86 15.5t86 37.5z" />
<glyph unicode="&#x16a;" horiz-adv-x="1456" d="M1399 1210l-121 -16q-23 -4 -36 -12t-20.5 -38t-9.5 -86.5t-2 -154.5v-479q0 -106 -33.5 -190t-97 -142.5t-154.5 -90.5t-204 -32t-203 28t-152.5 85t-96 146t-33.5 212v731q0 12 -10.5 17.5t-43.5 9.5l-106 12l-6 70h499l-6 -70l-106 -12q-53 -6 -54 -29v-708 q0 -111 29 -184.5t79 -118.5t118.5 -64.5t148.5 -19.5q174 0 262 99t88 261v469q0 98 -2 154.5t-8 86.5t-19.5 38t-35.5 12l-123 16l-6 70h471zM506 1468l6 84h494l6 -84h-506z" />
<glyph unicode="&#x16b;" horiz-adv-x="1077" d="M1059 6l-307 -37v150h-11q-78 -66 -159.5 -108t-167.5 -42q-47 0 -92.5 16.5t-79.5 51.5q-41 39 -58.5 96t-17.5 129l4 545q0 23 -12.5 23.5t-53.5 7.5l-77 8l-7 67h306l-15 -553q0 -154 52.5 -210t144.5 -56q72 0 136.5 34t107.5 71v608q0 14 -10.5 20.5t-45.5 10.5 l-102 8l-6 67h311v-786q0 -33 19 -39l147 -33zM246 1104l6 84h493l7 -84h-506z" />
<glyph unicode="&#x16c;" horiz-adv-x="1456" d="M1399 1210l-121 -16q-23 -4 -36 -12t-20.5 -38t-9.5 -86.5t-2 -154.5v-479q0 -106 -33.5 -190t-97 -142.5t-154.5 -90.5t-204 -32t-203 28t-152.5 85t-96 146t-33.5 212v731q0 12 -10.5 17.5t-43.5 9.5l-106 12l-6 70h499l-6 -70l-106 -12q-53 -6 -54 -29v-708 q0 -111 29 -184.5t79 -118.5t118.5 -64.5t148.5 -19.5q174 0 262 99t88 261v469q0 98 -2 154.5t-8 86.5t-19.5 38t-35.5 12l-123 16l-6 70h471zM1036 1782q-14 -68 -33.5 -135.5t-50 -123t-78 -90t-118.5 -34.5q-72 0 -119 34.5t-78 90t-50.5 123t-33.5 135.5h47 q23 -57 46.5 -108.5t52 -90.5t61.5 -61.5t74 -22.5t73.5 22.5t61.5 61.5t52.5 90t45.5 109h47z" />
<glyph unicode="&#x16d;" horiz-adv-x="1077" d="M1059 6l-307 -37v150h-11q-78 -66 -159.5 -108t-167.5 -42q-47 0 -92.5 16.5t-79.5 51.5q-41 39 -58.5 96t-17.5 129l4 545q0 23 -12.5 23.5t-53.5 7.5l-77 8l-7 67h306l-15 -553q0 -154 52.5 -210t144.5 -56q72 0 136.5 34t107.5 71v608q0 14 -10.5 20.5t-45.5 10.5 l-102 8l-6 67h311v-786q0 -33 19 -39l147 -33zM776 1417q-14 -68 -33.5 -135.5t-50 -122.5t-78 -90t-118.5 -35q-72 0 -119 35t-78 90t-50.5 123t-33.5 135h47q23 -57 46.5 -108.5t52 -90t61.5 -61t74 -22.5t73.5 22.5t61 61t52.5 90t46 108.5h47z" />
<glyph unicode="&#x16e;" horiz-adv-x="1456" d="M1399 1210l-121 -16q-23 -4 -36 -12t-20.5 -38t-9.5 -86.5t-2 -154.5v-479q0 -106 -33.5 -190t-97 -142.5t-154.5 -90.5t-204 -32t-203 28t-152.5 85t-96 146t-33.5 212v731q0 12 -10.5 17.5t-43.5 9.5l-106 12l-6 70h499l-6 -70l-106 -12q-53 -6 -54 -29v-708 q0 -111 29 -184.5t79 -118.5t118.5 -64.5t148.5 -19.5q174 0 262 99t88 261v469q0 98 -2 154.5t-8 86.5t-19.5 38t-35.5 12l-123 16l-6 70h471zM940 1604q0 -76 -48 -130.5t-134 -54.5t-134.5 54.5t-48.5 130.5t48.5 130t134.5 54t134 -54t48 -130zM879 1604q0 53 -32 92 t-89 39t-89 -39t-32 -92q0 -51 31.5 -90t89.5 -39q57 0 89 39t32 90z" />
<glyph unicode="&#x16f;" horiz-adv-x="1077" d="M1059 6l-307 -37v150h-11q-78 -66 -159.5 -108t-167.5 -42q-47 0 -92.5 16.5t-79.5 51.5q-41 39 -58.5 96t-17.5 129l4 545q0 23 -12.5 23.5t-53.5 7.5l-77 8l-7 67h306l-15 -553q0 -154 52.5 -210t144.5 -56q72 0 136.5 34t107.5 71v608q0 14 -10.5 20.5t-45.5 10.5 l-102 8l-6 67h311v-786q0 -33 19 -39l147 -33zM694 1239q0 -76 -48 -130t-134 -54t-134 54t-48 130t48 130t134 54t134 -54t48 -130zM633 1239q0 53 -32 92t-89 39t-89 -39t-32 -92q0 -51 32 -90t89 -39t89 39t32 90z" />
<glyph unicode="&#x170;" horiz-adv-x="1456" d="M1399 1210l-121 -16q-23 -4 -36 -12t-20.5 -38t-9.5 -86.5t-2 -154.5v-479q0 -106 -33.5 -190t-97 -142.5t-154.5 -90.5t-204 -32t-203 28t-152.5 85t-96 146t-33.5 212v731q0 12 -10.5 17.5t-43.5 9.5l-106 12l-6 70h499l-6 -70l-106 -12q-53 -6 -54 -29v-708 q0 -111 29 -184.5t79 -118.5t118.5 -64.5t148.5 -19.5q174 0 262 99t88 261v469q0 98 -2 154.5t-8 86.5t-19.5 38t-35.5 12l-123 16l-6 70h471zM559 1405h-45l178 377h170zM868 1405h-45l178 377h170z" />
<glyph unicode="&#x171;" horiz-adv-x="1077" d="M1059 6l-307 -37v150h-11q-78 -66 -159.5 -108t-167.5 -42q-47 0 -92.5 16.5t-79.5 51.5q-41 39 -58.5 96t-17.5 129l4 545q0 23 -12.5 23.5t-53.5 7.5l-77 8l-7 67h306l-15 -553q0 -154 52.5 -210t144.5 -56q72 0 136.5 34t107.5 71v608q0 14 -10.5 20.5t-45.5 10.5 l-102 8l-6 67h311v-786q0 -33 19 -39l147 -33zM313 1040h-45l178 377h170zM623 1040h-45l178 377h170z" />
<glyph unicode="&#x172;" horiz-adv-x="1456" d="M885 -434q-76 0 -126 46t-50 132q0 70 43 130t102 108q-61 -12 -133 -13q-113 0 -203 28t-152.5 85t-96 146t-33.5 212v731q0 12 -10.5 17.5t-43.5 9.5l-106 12l-6 70h499l-6 -70l-106 -12q-53 -6 -54 -29v-708q0 -111 29 -184.5t79 -118.5t118.5 -64.5t148.5 -19.5 q174 0 262 99t88 261v469q0 98 -2 154.5t-8 86.5t-19.5 38t-35.5 12l-123 16l-6 70h471l-6 -70l-121 -16q-23 -4 -36 -12t-20.5 -38t-9.5 -86.5t-2 -154.5v-479q0 -141 -55 -237.5t-158 -161.5q-76 -49 -118.5 -116t-42.5 -126q0 -47 24.5 -80t73.5 -33q29 0 57.5 11.5 t44.5 31.5l23 -24q-10 -45 -56 -84t-118 -39z" />
<glyph unicode="&#x173;" horiz-adv-x="1077" d="M885 -434q-78 0 -131.5 41t-53.5 121q0 96 59.5 158.5t145.5 99.5l-153 -17v150h-11q-78 -66 -159.5 -108t-167.5 -42q-47 0 -92.5 16.5t-79.5 51.5q-41 39 -58.5 96t-17.5 129l4 545q0 23 -12.5 23.5t-53.5 7.5l-77 8l-7 69h306l-15 -555q0 -152 52.5 -208t144.5 -56 q72 0 136.5 33t107.5 70v608q0 14 -10.5 20.5t-45.5 10.5l-102 8l-6 69h311v-788q0 -33 19 -39l147 -33l-6 -49q-100 -33 -166 -96.5t-66 -145.5q0 -51 29 -72.5t78 -21.5q29 0 57.5 11.5t44.5 31.5l23 -24q-10 -45 -56 -84t-118 -39z" />
<glyph unicode="&#x174;" horiz-adv-x="1880" d="M1178 1405l-209 252h-4l-209 -252h-56l228 397h78l227 -397h-55zM1898 1210l-73 -14q-25 -8 -40.5 -17.5t-31.5 -38t-36.5 -84t-53.5 -153.5l-287 -907h-119l-296 885h-5l-309 -885h-121l-381 1155q-4 16 -15 25.5t-34 13.5l-121 20l-6 70h527l-7 -70l-116 -14 q-39 -6 -37 -34.5t33 -119.5l256 -831h8l278 790l-49 150q-4 16 -15 25.5t-36 13.5l-117 20l-6 70h520l-6 -70l-121 -14q-35 -6 -33.5 -37t29.5 -117l271 -833l6 2l207 692q31 96 45 151.5t13 85t-16.5 39t-41.5 15.5l-107 16l-6 70h457z" />
<glyph unicode="&#x175;" horiz-adv-x="1413" d="M913 1040l-208 252h-5l-208 -252h-56l228 398h77l228 -398h-56zM1438 846l-64 -10q-18 -4 -31.5 -9.5t-23.5 -16.5t-19.5 -32.5t-21.5 -54.5l-238 -737h-100l-223 596l-236 -596h-100l-270 786q-10 33 -24.5 45t-47.5 17l-62 10l-6 69h410l-6 -67l-68 -10 q-25 -4 -37 -18.5t-2 -41.5l207 -614l199 524l-31 86q-12 33 -27.5 44t-50.5 15l-63 15l-6 67h415l-6 -67l-65 -10q-27 -4 -39.5 -17.5t-1.5 -42.5l221 -618l172 563q16 55 9 81.5t-54 33.5l-64 10l-6 67h367z" />
<glyph unicode="&#x176;" horiz-adv-x="1230" d="M1231 1210l-62 -10q-41 -12 -71.5 -32.5t-67.5 -77.5l-321 -533v-448q0 -12 10 -17.5t43 -9.5l139 -12l6 -70h-567l6 70l141 12q53 6 54 29v426l-381 602q-12 16 -34 33.5t-50 23.5l-84 14l-6 70h499l-6 -70l-102 -12q-35 -4 -31 -39t55 -119l246 -407h10l267 454 q33 53 27.5 79t-44.5 34l-78 10l-6 70h414zM866 1405l-209 252h-4l-209 -252h-55l227 397h78l228 -397h-56z" />
<glyph unicode="&#x177;" horiz-adv-x="925" d="M967 846l-68 -15q-33 -4 -50.5 -23.5t-43.5 -84.5l-250 -680l-98 -311q-43 -133 -96.5 -201t-143.5 -68q-61 0 -97 30t-36 77q0 43 23.5 72.5t72.5 29.5q47 0 74 -20.5t43 -52.5q27 12 47.5 50t42.5 107l78 224v2l-356 790q-14 31 -26.5 42t-51.5 17l-60 13l-8 69h422 l-6 -67l-70 -10q-25 -2 -36 -14.5t1 -41.5l254 -604l195 555q16 53 9 74.5t-48 25.5l-76 15l-6 67h371zM711 1040l-209 252h-4l-209 -252h-56l228 398h78l227 -398h-55z" />
<glyph unicode="&#x178;" horiz-adv-x="1228" d="M1231 1210l-62 -10q-41 -12 -71.5 -32.5t-67.5 -77.5l-321 -533v-448q0 -12 10 -17.5t43 -9.5l139 -12l6 -70h-567l6 70l141 12q53 6 54 29v426l-381 602q-12 16 -34 33.5t-50 23.5l-84 14l-6 70h499l-6 -70l-102 -12q-35 -4 -31 -39t55 -119l246 -407h10l267 454 q33 53 27.5 79t-44.5 34l-78 10l-6 70h414zM965 1565q0 -47 -30 -84t-83 -37t-83 37t-30 84t30 84t83 37t83 -37t30 -84zM555 1565q0 -47 -29.5 -84t-83.5 -37q-53 0 -82.5 37t-29.5 84t29.5 84t82.5 37t83 -37t30 -84z" />
<glyph unicode="&#x179;" horiz-adv-x="1136" d="M545 1405h-47l192 377h193zM1053 0h-985v70l806 1126v8h-231q-139 0 -217 -6t-118 -18.5t-54 -35t-25 -57.5l-41 -186h-82v379h967v-72l-805 -1126l-2 -8l234 2q150 0 234.5 5t129.5 16.5t60.5 32t25.5 50.5l51 203h95z" />
<glyph unicode="&#x17a;" horiz-adv-x="917" d="M434 1040h-47l193 377h192zM240 72h88q115 0 185.5 4t111.5 14t61.5 30.5t36.5 55.5l76 170h86l-82 -346h-746v61l592 783h-65q-115 0 -184.5 -4t-107.5 -15.5t-54.5 -32t-22.5 -53.5l-33 -172h-90v346h737v-61z" />
<glyph unicode="&#x17b;" horiz-adv-x="1136" d="M1053 0h-985v70l806 1126v8h-231q-139 0 -217 -6t-118 -18.5t-54 -35t-25 -57.5l-41 -186h-82v379h967v-72l-805 -1126l-2 -8l234 2q150 0 234.5 5t129.5 16.5t60.5 32t25.5 50.5l51 203h95zM686 1599q0 -49 -30.5 -86.5t-84.5 -37.5q-55 0 -85.5 37.5t-30.5 86.5 q0 47 30.5 85t85.5 38q53 0 84 -38t31 -85z" />
<glyph unicode="&#x17c;" horiz-adv-x="917" d="M240 72h88q115 0 185.5 4t111.5 14t61.5 30.5t36.5 55.5l76 170h86l-82 -346h-746v61l592 783h-65q-115 0 -184.5 -4t-107.5 -15.5t-54.5 -32t-22.5 -53.5l-33 -172h-90v346h737v-61zM575 1235q0 -49 -30.5 -87t-83.5 -38q-55 0 -86 38t-31 87q0 47 31 85t86 38 q53 0 83.5 -38t30.5 -85z" />
<glyph unicode="&#x17d;" horiz-adv-x="1136" d="M1053 0h-985v70l806 1126v8h-231q-139 0 -217 -6t-118 -18.5t-54 -35t-25 -57.5l-41 -186h-82v379h967v-72l-805 -1126l-2 -8l234 2q150 0 234.5 5t129.5 16.5t60.5 32t25.5 50.5l51 203h95zM608 1393h-78l-227 397h55l209 -252h4l209 252h56z" />
<glyph unicode="&#x17e;" horiz-adv-x="917" d="M240 72h88q115 0 185.5 4t111.5 14t61.5 30.5t36.5 55.5l76 170h86l-82 -346h-746v61l592 783h-65q-115 0 -184.5 -4t-107.5 -15.5t-54.5 -32t-22.5 -53.5l-33 -172h-90v346h737v-61zM483 1040h-77l-228 398h55l209 -252h4l209 252h56z" />
<glyph unicode="&#x192;" horiz-adv-x="999" d="M1016 1165q0 -47 -25.5 -78.5t-66.5 -31.5q-51 0 -81 37.5t-34 97.5l-121 -31q-12 -23 -25.5 -61.5t-26.5 -89t-25.5 -105.5t-22.5 -108h252l8 -93h-268q-16 -82 -37 -175t-47.5 -181t-60.5 -162.5t-79 -120.5q-47 -47 -107.5 -71.5t-117.5 -24.5q-59 0 -102 34t-43 87 q0 43 25.5 71.5t66.5 28.5q49 0 78.5 -38.5t33.5 -92.5l123 58q10 23 23.5 64.5t26 95t23.5 112.5t22 115l30 194l-178 9l6 57l193 43q31 135 76 233.5t92 149.5q47 47 112.5 74.5t122.5 27.5q68 0 111 -36t43 -89z" />
<glyph unicode="&#x1fa;" horiz-adv-x="1202" d="M551 1630h-47l192 377h193zM535 1241q-51 20 -80 66.5t-29 103.5q0 76 48 130t134 54t134.5 -54t48.5 -130q0 -51 -23 -94t-63 -68l372 -1120q10 -33 51 -39l121 -20l6 -70h-526l6 70l117 14q20 4 30.5 11t11.5 23.5t-6 45.5t-22 74l-75 225h-443l-74 -223 q-29 -84 -29.5 -116t36.5 -40l102 -14l6 -70h-422l6 70l82 14q23 6 40.5 16.5t36 40t40 85t55.5 151.5zM582 1124h-11l-194 -577h387zM731 1411q0 51 -31.5 90t-91.5 39q-57 0 -89 -39t-32 -90q0 -53 32 -92t89 -39q59 0 91 39t32 92z" />
<glyph unicode="&#x1fb;" horiz-adv-x="899" d="M371 1503h-47l192 377h193zM625 1239q0 -76 -48.5 -130t-134.5 -54t-134 54t-48 130t48 130t134 54t134.5 -54t48.5 -130zM911 96q-47 -59 -94 -93t-96 -34q-55 0 -93 36t-38 116h-8q-59 -63 -121 -107.5t-135 -44.5q-51 0 -96.5 17.5t-79 49.5t-54 76t-20.5 95 q0 63 29.5 114.5t93 94.5t163 77.5t236.5 69.5v19q0 82 -13.5 135t-40 85t-66.5 44t-89 12q-29 0 -58.5 -5t-52 -13.5t-37 -17.5t-14.5 -17t20.5 -31.5t20.5 -62.5q0 -35 -27.5 -64t-72.5 -29q-43 0 -70.5 25t-27.5 66q0 37 35.5 78.5t91 76.5t123 58.5t129.5 23.5 q86 0 144 -19.5t93 -65.5t48.5 -122.5t8.5 -191.5l-16 -391q-4 -72 45 -72q23 0 47.5 15.5t57.5 41.5zM563 1239q0 53 -31.5 92t-89.5 39q-57 0 -88.5 -39t-31.5 -92q0 -51 31.5 -90t88.5 -39t89 39t32 90zM594 498q-102 -27 -173 -55.5t-114 -59.5t-62.5 -65.5t-19.5 -75.5 q0 -74 45 -116t111 -42q53 0 101 29.5t100 76.5z" />
<glyph unicode="&#x1fc;" horiz-adv-x="1646" d="M969 1405h-47l192 377h193zM1538 0h-950l6 70l125 20q37 6 37 37v336h-396l-102 -201q-29 -55 -42 -89t-16 -52.5t4 -25.5t23 -9l103 -16l6 -70h-442l6 70l86 14q25 6 44 15.5t42.5 38t56.5 83.5t84 158l381 725q43 80 -41 94l-88 12l-6 70h1079v-371h-80l-45 207 q-8 31 -20.5 48.5t-55.5 26.5t-127 11t-235 2h-62v-514h60q68 0 106.5 1t60 5t30 11.5t12.5 21.5l47 137h65l-41 -426h-65l-14 131q-2 12 -7.5 20.5t-26 14.5t-60.5 8t-111 2h-56v-540h35q166 0 259 3t140.5 12t61.5 26.5t25 46.5l51 198h92zM756 1194h-19l-334 -647h353 v647z" />
<glyph unicode="&#x1fd;" horiz-adv-x="1456" d="M727 1040h-47l192 377h193zM649 178q-29 -43 -65.5 -81t-79.5 -66.5t-89 -45t-91 -16.5q-49 0 -94.5 17.5t-79 49.5t-54 76t-20.5 95q0 127 124 208t398 148v25q10 150 -49.5 210t-159.5 60q-29 0 -58.5 -5t-52 -13.5t-37 -17.5t-14.5 -17t20.5 -31.5t20.5 -62.5 q0 -35 -27.5 -64t-72.5 -29q-43 0 -70.5 25t-27.5 66q0 37 35.5 78.5t91 76.5t123 58.5t129.5 23.5q115 0 183 -37t91 -116q66 72 152 111.5t184 39.5q145 0 230 -82t85 -215q0 -27 -3 -56.5t-9 -51.5l-617 8q0 -6 -1 -24.5t-1 -24.5q0 -86 24 -160t67 -126t102 -82t129 -30 q72 0 140.5 30t121.5 95l41 -24q-55 -111 -151.5 -170.5t-215.5 -59.5q-117 0 -208 55.5t-144 151.5zM1210 610q6 121 -45 191.5t-145 70.5q-43 0 -85 -18t-78 -52t-63.5 -83t-39.5 -111h231h84t73 1t41 1h27zM594 498q-102 -27 -173 -55.5t-114 -59.5t-62.5 -65.5 t-19.5 -75.5q0 -74 45 -116t115 -42t129 38t111 103q-16 47 -26.5 98.5t-10.5 106.5q0 12 2 34t4 34z" />
<glyph unicode="&#x1fe;" horiz-adv-x="1513" d="M1384 649q0 -135 -45 -258t-129 -216t-204.5 -149.5t-272.5 -56.5q-82 0 -157.5 17.5t-143.5 50.5q-18 -31 -36.5 -63.5t-35.5 -61.5q-18 -33 -36 -64h-91l132 228q-129 84 -204 225t-75 328q0 135 45 258t129 216t204 149.5t271 56.5q170 0 307 -72l99 172h90l-121 -209 q127 -86 200.5 -226.5t73.5 -324.5zM983 1137q-115 90 -264 90q-98 0 -183 -39t-147.5 -111.5t-98.5 -176t-36 -234.5q0 -158 48 -278t128 -200zM1217 612q0 154 -48.5 274t-126.5 199q-156 -266 -276 -475q-53 -90 -102.5 -175t-88.5 -150q-45 -78 -86 -148 q119 -82 261 -82q98 0 184 38t148.5 109.5t98.5 175t36 234.5zM692 1405h-47l193 377h192z" />
<glyph unicode="&#x1ff;" horiz-adv-x="1060" d="M801 856q86 -66 133 -170t47 -227q0 -102 -35 -191.5t-96.5 -155t-145 -104.5t-182.5 -39q-57 0 -108.5 13.5t-98.5 35.5l-141 -247h-80l164 282q-86 66 -134 171.5t-48 230.5q0 100 34.5 190t96 155.5t145.5 104.5t183 39q59 0 110 -13t98 -36l162 279h78zM684 793 q-37 35 -85 53t-101 18q-119 0 -196 -92t-77 -266q0 -104 27 -188.5t74 -147.5zM829 408q0 102 -24.5 186t-71.5 145l-360 -622q80 -68 184 -68q57 0 107.5 23.5t87 69.5t57 113t20.5 153zM479 1040h-47l193 377h192z" />
<glyph unicode="&#x218;" horiz-adv-x="1032" d="M670 -262q0 -51 -20.5 -94t-53.5 -78t-74 -60.5t-80 -42.5l-34 33q53 23 95 65t42 109q0 39 -19.5 64.5t-42 39t-42 19.5t-19.5 8q0 41 26.5 68t79.5 27q59 0 100.5 -47.5t41.5 -110.5zM948 346q0 -76 -32.5 -143.5t-93 -119.5t-147.5 -83t-196 -31q-104 -2 -192 14.5 t-166 41.5l-31 362h82l86 -283q51 -23 122 -39t130 -16q70 0 123 20.5t90 54.5t55.5 77t18.5 90q0 63 -22.5 108t-64.5 79t-101.5 59.5t-133.5 54.5t-139.5 59.5t-114.5 72.5t-76.5 99.5t-27.5 137.5q0 68 25.5 131t77.5 110t132 77t187 30q84 2 140 -5.5t99 -17.5l107 31 v-404h-82l-58 263q-51 23 -114.5 37t-118.5 14q-61 0 -108.5 -17.5t-78 -47t-46 -68.5t-15.5 -80q0 -61 23.5 -104.5t66.5 -76t100.5 -57t125.5 -51.5q78 -29 145.5 -59.5t116.5 -73.5t77.5 -102.5t28.5 -143.5z" />
<glyph unicode="&#x219;" horiz-adv-x="823" d="M535 -262q0 -51 -20.5 -94t-53.5 -78t-74 -60.5t-80 -42.5l-35 33q53 23 95.5 65t42.5 109q0 39 -19.5 64.5t-42 39t-42 19.5t-19.5 8q0 41 26.5 68t79.5 27q59 0 100.5 -47.5t41.5 -110.5zM735 260q0 -55 -22.5 -108.5t-67.5 -93.5t-111.5 -64.5t-154.5 -24.5 q-72 0 -141.5 10.5t-124.5 32.5l-13 264h93l43 -182q35 -25 76.5 -39t90.5 -14q37 0 74 12.5t65.5 35t46 54t17.5 70.5t-19.5 66.5t-51 49t-72.5 38t-86 32.5q-51 18 -99.5 41t-86 54.5t-61.5 76.5t-24 111q0 51 20.5 99t61.5 85t100.5 59.5t137.5 22.5q68 0 114 -10t85 -23 l61 21l16 -287h-90l-39 178q-35 23 -78.5 36.5t-84.5 13.5q-78 0 -126 -41t-48 -105q0 -37 16 -63.5t46 -48t72 -39t91 -35.5q51 -18 100 -41t88 -55.5t62.5 -77.5t23.5 -111z" />
<glyph unicode="&#x21a;" horiz-adv-x="1253" d="M1094 887l-45 215q-6 29 -17.5 48t-43.5 30.5t-93 17.5t-170 6h-14v-1095q0 -12 11 -17.5t42 -9.5l139 -12l6 -70h-565l6 70l139 12q53 6 54 29v1093h-15q-104 0 -165.5 -3t-95.5 -12t-47 -26.5t-21 -46.5l-56 -229h-92l35 393h1096v-393h-88zM756 -262q0 -51 -20.5 -94 t-53.5 -78t-74 -60.5t-80 -42.5l-34 33q53 23 95 65t42 109q0 39 -19.5 64.5t-42 39t-42 19.5t-19.5 8q0 41 26.5 68t79.5 27q59 0 100.5 -47.5t41.5 -110.5z" />
<glyph unicode="&#x21b;" horiz-adv-x="702" d="M526 -262q0 -51 -20.5 -94t-53 -78t-73.5 -60.5t-80 -42.5l-35 33q53 23 95 65t42 109q0 39 -19.5 64.5t-42 39t-41.5 19.5t-19 8q0 41 26.5 68t79.5 27q59 0 100 -47.5t41 -110.5zM662 86q-49 -51 -121 -84t-140 -33q-104 0 -169.5 62.5t-63.5 204.5l12 577l-162 8l2 60 l140 84l96 129l72 -9l-2 -174h331l-14 -94h-317l-13 -545q-4 -102 39 -144t125 -42q41 0 86 15.5t86 37.5z" />
<glyph unicode="&#x2c6;" horiz-adv-x="819" d="M621 1040l-209 252h-4l-209 -252h-56l228 398h78l227 -398h-55z" />
<glyph unicode="&#x2c7;" horiz-adv-x="819" d="M449 1040h-78l-228 398h56l209 -252h4l209 252h55z" />
<glyph unicode="&#x2d8;" horiz-adv-x="819" d="M690 1417q-14 -68 -33.5 -135.5t-50.5 -122.5t-78 -90t-118 -35q-72 0 -119 35t-78 90t-50.5 123t-33.5 135h47q23 -57 46.5 -108.5t52 -90t61.5 -61t74 -22.5t73.5 22.5t61 61t52.5 90t46 108.5h47v0z" />
<glyph unicode="&#x2d9;" horiz-adv-x="819" d="M524 1235q0 -49 -30.5 -87t-83.5 -38q-55 0 -86 38t-31 87q0 47 30.5 85t86.5 38q53 0 83.5 -38t30.5 -85z" />
<glyph unicode="&#x2da;" horiz-adv-x="819" d="M592 1239q0 -76 -48 -130t-134 -54t-134.5 54t-48.5 130t48.5 130t134.5 54t134 -54t48 -130zM530 1239q0 53 -31.5 92t-88.5 39t-89 -39t-32 -92q0 -51 31.5 -90t89.5 -39q57 0 88.5 39t31.5 90z" />
<glyph unicode="&#x2db;" horiz-adv-x="819" d="M444 -434q-76 0 -127 46t-51 132q0 53 26.5 101.5t66.5 89t89.5 74.5t96.5 57h53q-94 -59 -149.5 -135t-55.5 -148q0 -47 25.5 -80t73.5 -33q29 0 57.5 11.5t46.5 31.5l20 -24q-10 -45 -55 -84t-117 -39z" />
<glyph unicode="&#x2dc;" horiz-adv-x="819" d="M741 1305q-20 -117 -67 -178.5t-129 -61.5q-47 0 -90 22.5t-81 50t-72 51t-60 23.5q-33 0 -56.5 -26.5t-54.5 -106.5h-53q20 119 67.5 179.5t128.5 60.5q47 0 90.5 -23.5t81 -51t70.5 -50.5t62 -23q33 0 56 27t54 107h53v0z" />
<glyph unicode="&#x2dd;" horiz-adv-x="819" d="M510 1040h-45l178 377h170zM201 1040h-45l178 377h170z" />
<glyph unicode="&#x1e80;" horiz-adv-x="1880" d="M1898 1210l-73 -14q-25 -8 -40.5 -17.5t-31.5 -38t-36.5 -84t-53.5 -153.5l-287 -907h-119l-296 885h-5l-309 -885h-121l-381 1155q-4 16 -15 25.5t-34 13.5l-121 20l-6 70h527l-7 -70l-116 -14q-39 -6 -37 -34.5t33 -119.5l256 -831h8l278 790l-49 150q-4 16 -15 25.5 t-36 13.5l-117 20l-6 70h520l-6 -70l-121 -14q-35 -6 -33.5 -37t29.5 -117l271 -833l6 2l207 692q31 96 45 151.5t13 85t-16.5 39t-41.5 15.5l-107 16l-6 70h457zM1028 1405l-338 377h187l196 -377h-45z" />
<glyph unicode="&#x1e81;" horiz-adv-x="1413" d="M1438 846l-64 -10q-18 -4 -31.5 -9.5t-23.5 -16.5t-19.5 -32.5t-21.5 -54.5l-238 -737h-100l-223 596l-236 -596h-100l-270 786q-10 33 -24.5 45t-47.5 17l-62 10l-6 69h410l-6 -67l-68 -10q-25 -4 -37 -18.5t-2 -41.5l207 -614l199 524l-31 86q-12 33 -27.5 44t-50.5 15 l-63 15l-6 67h415l-6 -67l-65 -10q-27 -4 -39.5 -17.5t-1.5 -42.5l221 -618l172 563q16 55 9 81.5t-54 33.5l-64 10l-6 67h367zM768 1040l-338 377h186l197 -377h-45z" />
<glyph unicode="&#x1e82;" horiz-adv-x="1880" d="M918 1405h-48l193 377h192zM1898 1210l-73 -14q-25 -8 -40.5 -17.5t-31.5 -38t-36.5 -84t-53.5 -153.5l-287 -907h-119l-296 885h-5l-309 -885h-121l-381 1155q-4 16 -15 25.5t-34 13.5l-121 20l-6 70h527l-7 -70l-116 -14q-39 -6 -37 -34.5t33 -119.5l256 -831h8 l278 790l-49 150q-4 16 -15 25.5t-36 13.5l-117 20l-6 70h520l-6 -70l-121 -14q-35 -6 -33.5 -37t29.5 -117l271 -833l6 2l207 692q31 96 45 151.5t13 85t-16.5 39t-41.5 15.5l-107 16l-6 70h457z" />
<glyph unicode="&#x1e83;" horiz-adv-x="1413" d="M696 1040h-47l193 377h192zM1438 846l-64 -10q-18 -4 -31.5 -9.5t-23.5 -16.5t-19.5 -32.5t-21.5 -54.5l-238 -737h-100l-223 596l-236 -596h-100l-270 786q-10 33 -24.5 45t-47.5 17l-62 10l-6 69h410l-6 -67l-68 -10q-25 -4 -37 -18.5t-2 -41.5l207 -614l199 524 l-31 86q-12 33 -27.5 44t-50.5 15l-63 15l-6 67h415l-6 -67l-65 -10q-27 -4 -39.5 -17.5t-1.5 -42.5l221 -618l172 563q16 55 9 81.5t-54 33.5l-64 10l-6 67h367z" />
<glyph unicode="&#x1e84;" horiz-adv-x="1880" d="M1286 1587q0 -47 -29.5 -84t-82.5 -37t-83 37t-30 84t29.5 84t83.5 37q53 0 82.5 -37t29.5 -84zM877 1587q0 -47 -30 -84t-83 -37t-83 37t-30 84t30 84t83 37t83 -37t30 -84zM1898 1210l-73 -14q-25 -8 -40.5 -17.5t-31.5 -38t-36.5 -84t-53.5 -153.5l-287 -907h-119 l-296 885h-5l-309 -885h-121l-381 1155q-4 16 -15 25.5t-34 13.5l-121 20l-6 70h527l-7 -70l-116 -14q-39 -6 -37 -34.5t33 -119.5l256 -831h8l278 790l-49 150q-4 16 -15 25.5t-36 13.5l-117 20l-6 70h520l-6 -70l-121 -14q-35 -6 -33.5 -37t29.5 -117l271 -833l6 2 l207 692q31 96 45 151.5t13 85t-16.5 39t-41.5 15.5l-107 16l-6 70h457z" />
<glyph unicode="&#x1e85;" horiz-adv-x="1413" d="M1022 1223q0 -47 -29.5 -84t-83.5 -37q-53 0 -82.5 37t-29.5 84t29.5 83.5t82.5 36.5t83 -36.5t30 -83.5zM612 1223q0 -47 -29.5 -84t-82.5 -37t-83 37t-30 84t29.5 83.5t83.5 36.5q53 0 82.5 -36.5t29.5 -83.5zM1438 846l-64 -10q-18 -4 -31.5 -9.5t-23.5 -16.5 t-19.5 -32.5t-21.5 -54.5l-238 -737h-100l-223 596l-236 -596h-100l-270 786q-10 33 -24.5 45t-47.5 17l-62 10l-6 69h410l-6 -67l-68 -10q-25 -4 -37 -18.5t-2 -41.5l207 -614l199 524l-31 86q-12 33 -27.5 44t-50.5 15l-63 15l-6 67h415l-6 -67l-65 -10 q-27 -4 -39.5 -17.5t-1.5 -42.5l221 -618l172 563q16 55 9 81.5t-54 33.5l-64 10l-6 67h367z" />
<glyph unicode="&#x2000;" horiz-adv-x="1003" />
<glyph unicode="&#x2001;" horiz-adv-x="2007" />
<glyph unicode="&#x2002;" horiz-adv-x="1003" />
<glyph unicode="&#x2003;" horiz-adv-x="2007" />
<glyph unicode="&#x2004;" horiz-adv-x="669" />
<glyph unicode="&#x2005;" horiz-adv-x="501" />
<glyph unicode="&#x2006;" horiz-adv-x="334" />
<glyph unicode="&#x2007;" horiz-adv-x="334" />
<glyph unicode="&#x2008;" horiz-adv-x="250" />
<glyph unicode="&#x2009;" horiz-adv-x="155" />
<glyph unicode="&#x200a;" horiz-adv-x="111" />
<glyph unicode="&#x2010;" horiz-adv-x="671" d="M70 428l6 104h524l6 -104h-536z" />
<glyph unicode="&#x2011;" horiz-adv-x="671" d="M70 428l6 104h524l6 -104h-536z" />
<glyph unicode="&#x2012;" horiz-adv-x="671" d="M70 428l6 104h524l6 -104h-536z" />
<glyph unicode="&#x2013;" horiz-adv-x="962" d="M53 424l6 100h848l6 -100h-860z" />
<glyph unicode="&#x2014;" horiz-adv-x="1921" d="M53 424l6 100h1805l6 -100h-1817z" />
<glyph unicode="&#x2018;" horiz-adv-x="462" d="M381 897q0 -47 -34 -81t-95 -34q-33 0 -65.5 14.5t-58.5 39t-41 58.5t-15 75q0 63 25.5 119.5t66.5 105.5t92 92t100 80l45 -33q-33 -25 -63.5 -54.5t-55 -63t-40 -72.5t-15.5 -80q0 -43 23.5 -74t53.5 -50t53.5 -29.5t23.5 -12.5z" />
<glyph unicode="&#x2019;" horiz-adv-x="462" d="M397 1163q0 -63 -25.5 -120.5t-66.5 -106.5t-92 -92t-100 -80l-45 33q33 25 63.5 54.5t55 64t39 72.5t14.5 79q0 45 -23.5 76t-52.5 50t-52.5 29.5t-23.5 12.5q0 47 34 81t95 34q33 0 65.5 -14.5t58.5 -39t41 -58.5t15 -75z" />
<glyph unicode="&#x201a;" horiz-adv-x="462" d="M397 43q0 -63 -25.5 -120.5t-66.5 -106.5t-92 -92t-100 -80l-45 32q33 25 63.5 54.5t55 64.5t39 73t14.5 79q0 45 -23.5 75.5t-52.5 50t-52.5 30t-23.5 12.5q0 47 34 80.5t95 33.5q33 0 65.5 -14t58.5 -38.5t41 -58.5t15 -75z" />
<glyph unicode="&#x201c;" horiz-adv-x="868" d="M807 897q0 -47 -34 -81t-95 -34q-33 0 -65.5 14.5t-58.5 39t-41 58.5t-15 75q0 63 25.5 119.5t66.5 105.5t92 92t100 80l45 -33q-33 -25 -63.5 -54.5t-55 -63t-39 -72.5t-14.5 -80q0 -43 23.5 -74t52.5 -50t52.5 -29.5t23.5 -12.5zM381 897q0 -47 -34 -81t-95 -34 q-33 0 -65.5 14.5t-58.5 39t-41 58.5t-15 75q0 63 25.5 119.5t66.5 105.5t92 92t100 80l45 -33q-33 -25 -63.5 -54.5t-55 -63t-40 -72.5t-15.5 -80q0 -43 23.5 -74t53.5 -50t53.5 -29.5t23.5 -12.5z" />
<glyph unicode="&#x201d;" horiz-adv-x="868" d="M825 1163q0 -63 -25.5 -120.5t-66.5 -106.5t-92 -92t-100 -80l-45 33q33 25 63.5 54.5t55 64t39 72.5t14.5 79q0 45 -23.5 76t-52.5 50t-52.5 29.5t-23.5 12.5q0 47 33 81t96 34q33 0 65.5 -14.5t58.5 -39t41 -58.5t15 -75zM397 1163q0 -63 -25.5 -120.5t-66.5 -106.5 t-92 -92t-100 -80l-45 33q33 25 63.5 54.5t55 64t39 72.5t14.5 79q0 45 -23.5 76t-52.5 50t-52.5 29.5t-23.5 12.5q0 47 34 81t95 34q33 0 65.5 -14.5t58.5 -39t41 -58.5t15 -75z" />
<glyph unicode="&#x201e;" horiz-adv-x="868" d="M825 43q0 -63 -25.5 -120.5t-66.5 -106.5t-92 -92t-100 -80l-45 32q33 25 63.5 54.5t55 64.5t39 73t14.5 79q0 45 -23.5 75.5t-52.5 50t-52.5 30t-23.5 12.5q0 47 33 80.5t96 33.5q33 0 65.5 -14t58.5 -38.5t41 -58.5t15 -75zM397 43q0 -63 -25.5 -120.5t-66.5 -106.5 t-92 -92t-100 -80l-45 32q33 25 63.5 54.5t55 64.5t39 73t14.5 79q0 45 -23.5 75.5t-52.5 50t-52.5 30t-23.5 12.5q0 47 34 80.5t95 33.5q33 0 65.5 -14t58.5 -38.5t41 -58.5t15 -75z" />
<glyph unicode="&#x2020;" horiz-adv-x="962" d="M891 805h-369v-1124h-78v1124h-366l-8 80h374v395h78v-395h377z" />
<glyph unicode="&#x2021;" horiz-adv-x="962" d="M522 43v-362h-78v362h-374l8 80h366v713h-366l-8 79h374v365h78v-365h377l-8 -79h-369v-713h369l8 -80h-377z" />
<glyph unicode="&#x2022;" horiz-adv-x="931" d="M860 475q0 -23 -12 -63.5t-29.5 -83.5t-37 -80t-36.5 -53q-16 -16 -53 -36t-80 -37.5t-84 -29.5t-63 -12q-23 0 -63 12t-83 29.5t-79.5 37t-51.5 36.5q-16 16 -35.5 53t-38 80t-30.5 84t-12 63q0 23 12 63t30.5 83t38 79.5t35.5 53.5q14 14 52.5 34.5t81.5 38t82.5 29.5 t62.5 12t62.5 -12t82.5 -29.5t80 -38t53 -34.5q14 -16 35 -53t38.5 -80t29.5 -83t12 -63z" />
<glyph unicode="&#x2026;" horiz-adv-x="1392" d="M1288 96q0 -49 -34.5 -88t-90.5 -39q-57 0 -93 39t-36 88t36 86t93 37q55 0 90 -37t35 -86zM823 96q0 -49 -33.5 -88t-91.5 -39q-55 0 -91 39t-36 88t36 86t91 37q57 0 91 -37t34 -86zM360 96q0 -49 -34.5 -88t-89.5 -39q-57 0 -93.5 39t-36.5 88t36 86t94 37 q55 0 89.5 -37t34.5 -86z" />
<glyph unicode="&#x202f;" horiz-adv-x="401" />
<glyph unicode="&#x2030;" horiz-adv-x="2306" d="M715 987q0 -68 -23.5 -129t-67.5 -107t-106.5 -74t-142.5 -28q-78 0 -141.5 28t-107.5 74t-67.5 107.5t-23.5 128.5q0 70 23.5 132.5t67.5 108.5t107.5 73.5t141.5 27.5q80 0 142.5 -27.5t106.5 -73.5t67.5 -108.5t23.5 -132.5zM297 -31h-107l1045 1340h104zM2271 291 q0 -70 -23.5 -132.5t-67.5 -108.5t-107.5 -73.5t-141.5 -27.5q-80 0 -142.5 27.5t-106.5 73.5t-67.5 108.5t-23.5 132.5q0 68 23.5 129t67.5 107t106.5 74t142.5 28q78 0 141.5 -28t107.5 -74t67.5 -107t23.5 -129zM1493 291q0 -70 -23.5 -132.5t-67.5 -108.5t-107.5 -73.5 t-141.5 -27.5q-80 0 -142.5 27.5t-106.5 73.5t-67.5 108.5t-23.5 132.5q0 68 23.5 129t67.5 107t106.5 74t142.5 28q78 0 141.5 -28t107.5 -74t67.5 -107t23.5 -129zM618 987q0 106 -63 180t-180 74t-180.5 -73.5t-63.5 -180.5q0 -49 16.5 -94t48 -80t76.5 -55.5t103 -20.5 q57 0 102 20.5t77 55.5t48 80t16 94zM2175 291q0 49 -16.5 94t-48 80t-76.5 55.5t-103 20.5q-57 0 -102 -20.5t-77 -55.5t-48 -80t-16 -94q0 -106 63.5 -180t179.5 -74q117 0 180.5 74t63.5 180zM1397 291q0 49 -16.5 94t-48.5 80t-77 55.5t-102 20.5t-102 -20.5t-77 -55.5 t-48.5 -80t-16.5 -94q0 -106 63.5 -180t180.5 -74t180.5 74t63.5 180z" />
<glyph unicode="&#x2039;" horiz-adv-x="634" d="M520 94l-440 316v86l440 315l21 -41l-303 -317l303 -318z" />
<glyph unicode="&#x203a;" horiz-adv-x="634" d="M115 94l-19 41l303 318l-303 317l19 41l442 -315v-86z" />
<glyph unicode="&#x2044;" horiz-adv-x="1110" d="M119 -33h-113l987 1340h111z" />
<glyph unicode="&#x205f;" horiz-adv-x="501" />
<glyph unicode="&#x2070;" horiz-adv-x="675" d="M338 543q-63 0 -118.5 25.5t-95.5 74.5t-62.5 122t-22.5 169q0 92 22.5 168t62.5 130t96 84t124 30q63 0 116.5 -26t92.5 -76t61.5 -123.5t22.5 -168.5q0 -90 -20.5 -164.5t-59.5 -129t-94 -85t-125 -30.5zM348 590q72 0 114 79t42 259q0 193 -43 281.5t-125 88.5 q-74 0 -118 -78.5t-44 -258.5q0 -190 45 -280.5t129 -90.5z" />
<glyph unicode="&#x2074;" horiz-adv-x="675" d="M393 786h-362l-6 50l401 507h84v-495h139l-8 -62h-131v-227h-117v227zM393 848v364h-6l-289 -364h295z" />
<glyph unicode="&#x2075;" horiz-adv-x="675" d="M256 539q-104 0 -154.5 32.5t-50.5 79.5q0 29 19.5 46.5t48.5 17.5q45 0 73.5 -31t34.5 -76q33 -16 76 -16q76 0 126 48t50 124q0 86 -89 139t-292 78l88 348h404l-4 -108h-363l-39 -148q88 -10 162 -30.5t127 -53.5t83 -78t30 -104q0 -55 -27 -103.5t-72 -85t-104 -58 t-127 -21.5z" />
<glyph unicode="&#x2076;" horiz-adv-x="675" d="M342 541q-66 0 -120 23.5t-92 63.5t-58.5 95t-20.5 119q0 100 41 186t114 153.5t170 112.5t212 62l12 -41q-174 -41 -272.5 -134.5t-137.5 -215.5l5 -4q41 35 93 54t105 19q51 0 95 -18.5t76 -49t49.5 -73.5t17.5 -92q0 -59 -24.5 -107.5t-64.5 -82t-92.5 -52 t-107.5 -18.5zM356 584q72 0 112 53t40 131q0 92 -51 146.5t-123 54.5q-41 0 -81 -16.5t-63 -34.5q-4 -10 -6 -32t-2 -57q0 -45 12.5 -89t35 -78.5t54 -56t72.5 -21.5z" />
<glyph unicode="&#x2077;" horiz-adv-x="675" d="M543 1227v6h-203q-61 0 -97 -1t-55.5 -5t-27.5 -12.5t-15 -20.5l-36 -74h-48l29 213h549l6 -51l-391 -733h-96z" />
<glyph unicode="&#x2078;" horiz-adv-x="675" d="M324 539q-55 0 -104.5 14t-86.5 41t-58.5 63.5t-21.5 81.5q0 70 53.5 120t133.5 79v2q-68 31 -118 75t-50 120q0 39 17 77.5t53 69.5t88.5 50.5t119.5 19.5q53 0 98.5 -14.5t79 -41t53 -62.5t19.5 -79q0 -61 -46 -107.5t-118 -74.5v-2q37 -16 71 -36t59.5 -44.5t41 -56 t15.5 -74.5t-20.5 -83t-58.5 -71t-94 -49t-126 -18zM391 989q41 29 66.5 66t25.5 88q0 66 -43 115t-121 49q-66 0 -104.5 -37t-38.5 -90q0 -37 18.5 -65t48 -50.5t68.5 -40t80 -35.5zM354 584q78 0 121 40t43 95q0 39 -20.5 68.5t-54 53t-75.5 42t-85 37.5q-47 -29 -80 -73 t-33 -97q-2 -72 49 -119t135 -47z" />
<glyph unicode="&#x2079;" horiz-adv-x="675" d="M76 573q174 41 272 135.5t135 219.5l-2 2q-43 -35 -95 -54.5t-103 -19.5q-53 0 -96.5 18.5t-75 49t-49 72.5t-17.5 91q0 59 24.5 108.5t64.5 84.5t92.5 53.5t107.5 18.5q66 0 120 -23.5t92 -64.5t58.5 -96.5t20.5 -118.5q0 -100 -42 -186.5t-114 -154t-170 -112.5 t-211 -64zM342 920q41 0 80 17t61 36q10 16 11 88q0 45 -12.5 88t-35 78t-55.5 56.5t-74 21.5q-70 0 -109.5 -53.5t-39.5 -131.5q0 -92 51 -146t123 -54z" />
<glyph unicode="&#x207a;" horiz-adv-x="675" d="M381 915v-229h-64v229h-225l4 62h221v227h64v-227h219l4 -62h-223z" />
<glyph unicode="&#x207b;" horiz-adv-x="675" d="M102 911l2 68h506l4 -68h-512z" />
<glyph unicode="&#x2080;" horiz-adv-x="675" d="M338 -309q-63 0 -118.5 25.5t-95.5 74.5t-62.5 122t-22.5 169q0 92 22.5 168t62.5 130t96 84t124 30q63 0 116.5 -26t92.5 -76t61.5 -123.5t22.5 -168.5q0 -90 -20.5 -164.5t-59.5 -129t-94 -85t-125 -30.5zM348 -262q72 0 114 79t42 259q0 193 -43 281.5t-125 88.5 q-74 0 -118 -78.5t-44 -258.5q0 -190 45 -280.5t129 -90.5z" />
<glyph unicode="&#x2081;" horiz-adv-x="675" d="M123 -242l141 17q31 8 31 28v586l-186 12l4 37l305 62v-697q0 -23 31 -28l118 -17l4 -51h-452z" />
<glyph unicode="&#x2082;" horiz-adv-x="675" d="M41 -227q88 80 163 146.5t128 123.5t83.5 109.5t30.5 105.5q0 70 -45 106.5t-110 36.5q-121 0 -211 -104l-21 27q43 70 115 123t170 53q55 0 99 -16.5t76 -45t49.5 -66.5t17.5 -81q0 -61 -34 -115.5t-93.5 -111t-141 -120t-176.5 -141.5l9 -4q4 -2 6 -2h100q92 0 146.5 2 t83 8.5t40 17.5t21.5 32l26 59h58l-41 -209h-543z" />
<glyph unicode="&#x2083;" horiz-adv-x="675" d="M238 -322q-86 0 -136.5 28t-50.5 73q0 27 19.5 44t48.5 17q45 0 72.5 -31.5t35.5 -72.5q6 -2 19.5 -2h23.5q82 0 138.5 50t56.5 126q0 74 -51.5 112.5t-118.5 38.5q-31 0 -61.5 -8t-59.5 -20l-18 35q51 29 98 55.5t84 54t58.5 56t21.5 63.5q0 51 -39 78.5t-109 27.5 q-53 0 -101 -24.5t-93 -67.5l-25 29q49 61 120 110.5t169 49.5q90 0 154.5 -41t64.5 -113q0 -39 -19.5 -70.5t-53 -59.5t-79 -52.5t-94.5 -48.5v-2q53 14 104.5 10t91.5 -27.5t64.5 -62.5t24.5 -90t-28.5 -99.5t-78 -85.5t-114.5 -58.5t-139 -21.5z" />
<glyph unicode="&#x2084;" horiz-adv-x="675" d="M393 -66h-362l-6 50l401 508h84v-496h139l-8 -62h-131v-227h-117v227zM393 -4v364h-6l-289 -364h295z" />
<glyph unicode="&#x2085;" horiz-adv-x="675" d="M256 -313q-104 0 -154.5 32.5t-50.5 79.5q0 29 19.5 46.5t48.5 17.5q45 0 73.5 -31t34.5 -76q33 -16 76 -16q76 0 126 48t50 124q0 86 -89 139t-292 78l88 348h404l-4 -108h-363l-39 -148q88 -10 162 -30.5t127 -53.5t83 -78t30 -104q0 -55 -27 -103.5t-72 -85t-104 -58 t-127 -21.5z" />
<glyph unicode="&#x2086;" horiz-adv-x="675" d="M342 -311q-66 0 -120 23.5t-92 63.5t-58.5 95t-20.5 119q0 100 41 186t114 153.5t170 112.5t212 62l12 -41q-174 -41 -272.5 -134t-137.5 -216l5 -4q41 35 93 54t105 19q51 0 95 -18.5t76 -49t49.5 -73.5t17.5 -92q0 -59 -24.5 -107.5t-64.5 -82t-92.5 -52t-107.5 -18.5z M356 -268q72 0 112 53t40 131q0 92 -51 146.5t-123 54.5q-41 0 -81 -16.5t-63 -34.5q-4 -10 -6 -32t-2 -57q0 -45 12.5 -89t35 -78.5t54 -56t72.5 -21.5z" />
<glyph unicode="&#x2087;" horiz-adv-x="675" d="M543 375v6h-203q-61 0 -97 -1t-55.5 -5t-27.5 -12.5t-15 -20.5l-36 -74h-48l29 213h549l6 -51l-391 -733h-96z" />
<glyph unicode="&#x2088;" horiz-adv-x="675" d="M324 -313q-55 0 -104.5 14t-86.5 41t-58.5 63.5t-21.5 81.5q0 70 53.5 120t133.5 79v2q-68 31 -118 75t-50 120q0 39 17 77.5t53 69.5t88.5 50.5t119.5 19.5q53 0 98.5 -14.5t79 -41t53 -62.5t19.5 -79q0 -61 -46 -107t-118 -75v-2q37 -16 71 -36t59.5 -44.5t41 -56 t15.5 -74.5t-20.5 -83t-58.5 -70.5t-94 -49t-126 -18.5zM391 137q41 29 66.5 66t25.5 88q0 66 -43 115t-121 49q-66 0 -104.5 -37t-38.5 -90q0 -37 18.5 -64.5t48 -50.5t68.5 -40.5t80 -35.5zM354 -268q78 0 121 40t43 95q0 39 -20.5 68.5t-54 53t-75.5 42t-85 37.5 q-47 -29 -80 -73t-33 -97q-2 -72 49 -119t135 -47z" />
<glyph unicode="&#x2089;" horiz-adv-x="675" d="M76 -279q174 41 272 135.5t135 219.5l-2 2q-43 -35 -95 -54.5t-103 -19.5q-53 0 -96.5 18.5t-75 49t-49 72.5t-17.5 92q0 59 24.5 108t64.5 84t92.5 53.5t107.5 18.5q66 0 120 -23.5t92 -64.5t58.5 -96.5t20.5 -118.5q0 -100 -42 -186.5t-114 -154t-170 -112.5t-211 -63z M342 68q41 0 80 17t61 36q10 16 11 88q0 45 -12.5 88t-35 78t-55.5 56.5t-74 21.5q-70 0 -109.5 -53.5t-39.5 -131.5q0 -92 51 -146t123 -54z" />
<glyph unicode="&#x208a;" horiz-adv-x="675" d="M381 63v-229h-64v229h-225l4 62h221v227h64v-227h219l4 -62h-223z" />
<glyph unicode="&#x20ac;" horiz-adv-x="1056" d="M1026 217q-59 -113 -151.5 -180.5t-227.5 -67.5q-88 0 -164.5 34t-137 94.5t-102.5 146.5t-63 190h-137l6 80h119q-2 23 -2 46.5v45.5v42.5t2 41.5h-125l6 80h129q20 115 66.5 209t115 161.5t156.5 105.5t191 38q63 0 119.5 -13.5t98.5 -37t65.5 -54t23.5 -65.5 q0 -39 -24.5 -65.5t-65.5 -26.5q-53 0 -84 46t-39 101q-29 18 -58.5 25.5t-70.5 7.5q-143 0 -232.5 -117.5t-111.5 -314.5h424l6 -80h-436v-49q0 -35 2 -66.5t6 -60.5h422l6 -80h-414q39 -174 135 -259t217 -85q92 0 164 43t125 107l41 -23v0z" />
<glyph unicode="&#x2122;" horiz-adv-x="1865" d="M1493 518l4 55l78 13q14 4 17 21.5t3 70.5l-12 520h-20l-228 -655h-92l-186 659h-21l-16 -467q-2 -49 -2 -77.5t2 -44t6 -21.5t12 -8l82 -11l4 -55h-286l4 55l80 11q8 0 13 5t10 21.5t7 46t4 78.5l15 453q0 23 -17 24l-88 13l-4 55h289l156 -586h18l199 586h288l-4 -55 l-84 -13q-23 -2 -22 -24l12 -510q2 -57 10.5 -72.5t20.5 -19.5l80 -13l4 -55h-336zM750 1012h-60l-14 71q-12 43 -24.5 70t-34 42t-56.5 21.5t-92 6.5h-6v-615q0 -20 18 -22l105 -13l2 -55h-371l4 55l105 13q20 2 20 22v615h-8q-51 0 -84 -6.5t-54.5 -21.5t-35.5 -43 t-29 -69l-18 -71h-56l17 268h672v-268z" />
<glyph unicode="&#x25fc;" horiz-adv-x="911" d="M0 911h911v-911h-911v911z" />
<glyph horiz-adv-x="962" d="M944 1210l-137 -20q-35 -6 -35 -37v-723q0 -121 -31.5 -208t-87 -143t-130 -84t-161.5 -28q-90 0 -156.5 19.5t-109.5 52.5t-64.5 74t-21.5 82q0 57 33 89.5t78 32.5q41 0 70.5 -25.5t29.5 -66.5q0 -35 -11 -59.5t-28 -40.5q16 -27 61.5 -53.5t118.5 -26.5 q119 0 179.5 84t60.5 260v764q0 31 -35 37l-159 20l-7 70h549z" />
<glyph horiz-adv-x="962" d="M891 1405l-209 252h-4l-209 -252h-55l227 397h78l227 -397h-55zM944 1210l-137 -20q-35 -6 -35 -37v-723q0 -121 -31.5 -208t-87 -143t-130 -84t-161.5 -28q-90 0 -156.5 19.5t-109.5 52.5t-64.5 74t-21.5 82q0 57 33 89.5t78 32.5q41 0 70.5 -25.5t29.5 -66.5 q0 -35 -11 -59.5t-28 -40.5q16 -27 61.5 -53.5t118.5 -26.5q119 0 179.5 84t60.5 260v764q0 31 -35 37l-159 20l-7 70h549z" />
<glyph horiz-adv-x="983" d="M551 0l6 70l88 10q33 6 36 22.5t-19 83.5l-48 140h-331l-43 -131q-20 -63 -15.5 -86t33.5 -29l76 -10l4 -70h-350l4 70l69 10q18 4 31.5 10t27 25.5t30 58.5t40.5 109l207 591v39l164 50l285 -850q6 -16 17 -20.5t30 -8.5l86 -14l6 -70h-434zM459 813h-17l-137 -420h49 h94.5h94.5h49z" />
<glyph horiz-adv-x="976" d="M891 254q0 -123 -94.5 -188.5t-298.5 -65.5h-404l4 66l84 16q29 6 29 27v720q0 20 -29 29l-84 14l-4 66h414q96 0 162.5 -16.5t108.5 -44t60.5 -65.5t18.5 -83q0 -47 -18.5 -86t-51 -69.5t-75.5 -51t-95 -28.5v-11q131 -14 202 -75.5t71 -153.5zM727 246 q0 104 -74.5 153.5t-189.5 49.5h-98v-365l120 -18l35 2q96 4 151.5 46t55.5 132zM692 686q0 90 -57 138t-174 48h-96v-360l122 2q102 2 153.5 54t51.5 118z" />
<glyph horiz-adv-x="1060" d="M920 -4l-82 18q-43 -16 -108.5 -27.5t-133.5 -11.5q-111 0 -205 32t-163.5 93.5t-108.5 150.5t-39 204t40 209t109.5 160.5t164.5 102.5t208 36q70 0 126 -10.5t91 -20.5l127 26v-327h-82l-49 209q-39 20 -89 33.5t-124 13.5q-80 0 -144.5 -30t-111.5 -84t-72.5 -130 t-25.5 -168q0 -197 96 -311.5t270 -114.5q51 0 99.5 10.5t83.5 28.5l69 211h86z" />
<glyph horiz-adv-x="1081" d="M1010 483q0 -96 -35 -184t-105.5 -154.5t-175 -105.5t-241.5 -39h-371l4 70l98 14q27 6 27 29v712q0 23 -27 29l-98 16l-4 68l371 4q131 2 234.5 -33t175 -96t109.5 -145.5t38 -184.5zM844 451q0 193 -106.5 304t-317.5 111h-55v-770l116 -20q172 2 267.5 105.5 t95.5 269.5z" />
<glyph horiz-adv-x="1003" d="M874 0h-792l4 70l98 14q27 6 27 29v712q0 23 -27 29l-98 16l-4 68h795v-295h-82l-31 139q-6 31 -19.5 47.5t-45 25.5t-91 11t-159.5 2h-84v-360h73q82 0 108.5 6t35.5 31l34 102h64l-31 -338h-63l-13 99q-2 10 -6 17t-18 11t-42 6t-75 2h-67v-374h75q109 0 171.5 3t97 12 t48 25.5t23.5 45.5l35 131h88z" />
<glyph horiz-adv-x="948" d="M780 643l-30 139q-8 31 -20.5 47.5t-45.5 25.5t-92.5 11t-159.5 2h-67v-372h79q82 0 110 6t38 30l33 101h65l-35 -336h-59l-14 96q-2 10 -6.5 18.5t-18.5 13.5t-42 7t-73 2h-77v-321q0 -23 24 -29l127 -14l4 -70h-438l4 70l98 14q27 6 27 29v712q0 23 -27 29l-98 16 l-4 68h780v-295h-82z" />
<glyph horiz-adv-x="1118" d="M1053 350l-99 -16q-27 -2 -26 -29v-196l92 -9l4 -49q-43 -16 -96.5 -29.5t-109.5 -23.5t-113.5 -16.5t-108.5 -6.5q-113 0 -208 34t-163.5 96.5t-106.5 150.5t-38 199q0 117 40 211t110.5 159.5t166 101.5t205.5 36q68 0 123 -10.5t90 -20.5l123 26v-323h-88l-45 205 q-37 20 -87 33.5t-122 13.5q-78 0 -141.5 -30t-109.5 -84t-71.5 -130t-25.5 -168q0 -197 95 -311.5t261 -114.5q49 0 96.5 10.5t77.5 22.5v223q0 27 -26 29l-111 16l-4 68h420z" />
<glyph horiz-adv-x="1179" d="M688 0l6 70l97 14q27 6 26 29v333h-455v-333q0 -23 27 -29l96 -14l7 -70h-412l6 70l96 14q27 6 27 29v712q0 23 -27 29l-96 16l-6 68h412l-7 -68l-96 -16q-27 -6 -27 -29v-309h455v309q0 23 -26 29l-97 16l-6 68h412l-6 -68l-99 -16q-27 -6 -26 -29v-712q0 -23 26 -29 l99 -14l6 -70h-412z" />
<glyph horiz-adv-x="618" d="M88 0l6 70l113 14q27 6 26 29v712q0 27 -26 29l-113 16l-6 68h442l-4 -68l-112 -16q-27 -2 -27 -29v-712q0 -23 27 -29l112 -14l4 -70h-442z" />
<glyph horiz-adv-x="643" d="M590 870l-103 -16q-27 -6 -26 -29v-436q0 -211 -77 -312.5t-218 -101.5q-72 0 -116 34t-44 79q0 35 20.5 54.5t55.5 19.5q39 0 76 -31q33 -33 45 -92h4q27 12 46 31.5t31.5 54.5t17.5 86t5 127v487q0 27 -26 29l-123 16l-6 68h442z" />
<glyph horiz-adv-x="1052" d="M643 0l4 70l62 12q10 4 11 8t-9 19l-242 352l-104 -101v-247q0 -23 24 -29l98 -14l5 -70h-410l4 70l98 14q27 6 27 29v712q0 23 -27 29l-98 16l-4 68h410l-5 -68l-98 -16q-25 -6 -24 -29v-376l272 272l64.5 67.5t21.5 42.5q0 27 -35 33l-53 6l-6 68h393l-6 -68l-68 -10 q-37 -8 -71.5 -23.5t-69.5 -50.5l-234 -229l312 -434q18 -29 36.5 -34t34.5 -9l68 -10l4 -70h-385z" />
<glyph horiz-adv-x="915" d="M813 0h-731l4 70l98 14q27 6 27 29v712q0 23 -27 29l-98 16l-4 68h422l-6 -68l-109 -16q-25 -2 -24 -29v-749h32q104 0 164 2t92.5 11t44 25.5t21.5 45.5l41 155h88z" />
<glyph horiz-adv-x="1325" d="M870 0l4 70l101 14q8 2 14 8t8 26.5t2 57.5v98l-14 562h-18l-297 -805h-121l-256 815h-19l-18 -567q-2 -74 -3 -113t1 -56.5t7 -20.5t15 -5l105 -14l4 -70h-348l4 70l102 14q8 2 15.5 5t11.5 20.5t7 56.5t7 113l19 546q0 27 -23 31l-106 14l-6 68h352l227 -717h17 l266 717h340l-4 -68l-107 -16q-16 -2 -20 -9t-4 -20l14 -551q2 -66 4 -103.5t7 -56t11.5 -23.5t16.5 -7l100 -14l6 -70h-424z" />
<glyph horiz-adv-x="1175" d="M1124 870l-94 -14q-12 -4 -21.5 -10t-15.5 -27.5t-8 -62.5t-2 -113v-653h-119l-573 809h-17v-504q0 -72 2.5 -114t8.5 -63.5t14 -27.5t20 -8l99 -12l4 -70h-363l4 70l95 12q14 2 23 9t14.5 27.5t7.5 61.5t2 115v475q0 35 -9.5 52.5t-29.5 27.5l-94 20l-6 68h299l534 -750 h16v455q0 72 -2 113t-7 62.5t-14 27.5t-22 10l-98 14l-6 68h364z" />
<glyph horiz-adv-x="1146" d="M1069 473q0 -104 -39 -195.5t-105.5 -159t-157.5 -106.5t-196 -39q-109 0 -198.5 35t-154 99.5t-101.5 154.5t-37 199q0 104 38 195.5t105.5 159t158.5 107.5t196 40q106 0 196 -36t155.5 -100.5t102.5 -154.5t37 -199zM901 457q0 104 -26.5 185t-71.5 134t-105.5 81 t-126.5 28t-124 -25.5t-102 -77t-69.5 -128t-25.5 -177.5q0 -104 26.5 -185t71.5 -134.5t104.5 -81t125.5 -27.5t124 25.5t103 77t70.5 127.5t25.5 178z" />
<glyph horiz-adv-x="942" d="M877 664q0 -72 -31 -128.5t-83 -94.5t-122 -58.5t-145 -20.5q-33 0 -68 1.5t-63 5.5v-256q0 -23 24 -29l121 -14l4 -70h-432l4 70l98 14q27 6 27 29v712q0 23 -27 29l-98 16l-4 68h410q94 0 166.5 -21.5t120.5 -58.5t73 -87t25 -107zM711 639q0 111 -69 170t-191 57h-86 v-424q27 -6 61.5 -10t69.5 -4q98 0 156.5 56.5t58.5 154.5z" />
<glyph horiz-adv-x="1146" d="M1147 -242q-35 -10 -91.5 -19t-115.5 -9q-72 0 -129 13t-105.5 43t-87 77t-75.5 112q-100 4 -185.5 41t-146.5 100.5t-96 151.5t-35 193q0 104 38 195.5t105.5 159t158.5 107.5t196 40q106 0 196 -36t155.5 -100.5t102.5 -154.5t37 -199q0 -86 -25.5 -163t-72.5 -139 t-111.5 -107.5t-142.5 -67.5q35 -61 79 -98t96 -55.5t113.5 -21.5t135.5 3zM901 457q0 104 -26.5 185t-71.5 134t-105.5 81t-126.5 28t-124 -25.5t-102 -77t-69.5 -128t-25.5 -177.5q0 -104 26.5 -185t71.5 -134.5t104.5 -81t125.5 -27.5t124 25.5t103 77t70.5 127.5 t25.5 178z" />
<glyph horiz-adv-x="1005" d="M750 0l-68 111l-180 280l-140 4v-282q0 -23 27 -29l105 -14l4 -70h-418l6 70l98 14q25 6 25 29v712q0 23 -25 29l-98 16l-6 68h455q94 0 161.5 -19.5t112.5 -53.5t66.5 -79t21.5 -96q0 -98 -64.5 -166.5t-181.5 -103.5l203 -297q16 -25 32.5 -33t33.5 -12l63 -8l4 -70 h-237zM729 662q0 102 -63.5 154t-192.5 48l-111 -2v-393l148 -14q98 10 158.5 60.5t60.5 146.5z" />
<glyph horiz-adv-x="843" d="M760 258q0 -57 -24.5 -108.5t-73 -90.5t-116 -61.5t-153.5 -22.5t-157.5 11.5t-133.5 29.5l-18 283h78l67 -213q39 -16 91.5 -25.5t95.5 -9.5q104 0 156.5 48t52.5 114q0 43 -17.5 73.5t-49.5 53t-77 41t-100 37.5q-61 20 -112.5 43.5t-89.5 56.5t-59.5 76t-21.5 102 q0 53 21.5 101.5t63.5 84.5t105.5 58.5t147.5 22.5q66 0 113 -5.5t88 -15.5l84 23v-310h-76l-51 195q-37 16 -87 26.5t-91 10.5q-96 0 -142.5 -43t-46.5 -103q0 -41 17.5 -69.5t49.5 -50t75 -39t94 -33.5q66 -23 121 -47.5t94 -57t60.5 -78t21.5 -108.5z" />
<glyph horiz-adv-x="993" d="M848 627l-33 143q-6 31 -17.5 49.5t-34 28.5t-62 13t-107.5 3h-19v-751q0 -23 27 -29l119 -14l4 -70h-453l4 70l117 14q27 6 27 29v751q0 2 -7 1t-10 -1q-66 0 -106.5 -3t-64 -12t-35 -25.5t-19.5 -45.5l-39 -151h-86l27 311h850v-311h-82z" />
<glyph horiz-adv-x="1110" d="M1065 870l-96 -14q-12 -4 -21.5 -10t-15.5 -27.5t-8 -62.5t-2 -113v-330q0 -158 -98.5 -250t-266.5 -92t-267.5 84t-99.5 262v508q0 23 -26 29l-98 16l-7 68h412l-4 -68l-98 -16q-27 -6 -27 -29v-473q0 -78 19.5 -131t54.5 -87t83 -49t103 -15q125 0 187.5 70.5 t62.5 197.5v305q0 72 -2 113t-7 62.5t-13.5 27.5t-22.5 10l-98 14l-4 68h364z" />
<glyph horiz-adv-x="987" d="M991 868l-69 -10q-20 -4 -34 -10t-26 -25.5t-27.5 -58.5t-39.5 -109l-232 -659h-153l-289 831q-6 16 -15.5 19.5t-27.5 7.5l-90 14l-4 70h432l-4 -70l-90 -12q-33 -4 -33 -20.5t22 -83.5l211 -625h21l182 549q18 55 24.5 91t3.5 55.5t-15.5 27.5t-30.5 10l-68 8l-4 70 h360z" />
<glyph horiz-adv-x="1470" d="M1497 868l-65 -12q-18 -4 -32 -12t-28 -28.5t-30.5 -58.5t-38.5 -102l-224 -659h-135l-194 620h-17l-211 -620h-135l-283 831q-8 20 -45 27l-90 14l-6 70h438l-4 -70l-92 -12q-29 -4 -31 -21.5t19 -82.5l194 -592h19l186 571l-30 96q-4 12 -17.5 17.5t-28.5 9.5l-88 14 l-6 70h447l-6 -70l-91 -12q-18 -2 -24 -20.5t14 -83.5l185 -592h18l158 495q20 66 28.5 105t7 59.5t-9.5 27.5t-22 9l-72 12l-6 70h352z" />
<glyph horiz-adv-x="1052" d="M586 0l6 70l82 8q33 4 27.5 24.5t-44.5 75.5l-157 232h-4l-170 -244q-37 -45 -32 -62.5t36 -23.5l78 -10l4 -70h-381l6 70l82 14q29 6 51.5 21.5t46.5 48.5l238 307l-252 350q-16 23 -29.5 31t-30.5 12l-88 16l-6 68h438l-6 -68l-82 -10q-29 -4 -26.5 -23.5t43.5 -76.5 l141 -213h4l160 227q35 47 32 63.5t-36 22.5l-78 10l-6 68h383l-4 -68l-84 -14q-29 -6 -50.5 -22.5t-48.5 -49.5l-227 -288l270 -371q16 -23 31 -30t29 -11l86 -14l6 -70h-438z" />
<glyph horiz-adv-x="917" d="M934 868l-57 -10q-14 -4 -26.5 -10t-26 -16.5t-28 -29t-32.5 -46.5l-225 -369v-274q0 -23 26 -29l119 -14l4 -70h-455l7 70l118 14q27 6 27 29v266l-270 432q-20 31 -62 45l-71 12l-5 70h420l-6 -70l-82 -10q-25 -4 -27.5 -28.5t33.5 -88.5l168 -295h17l176 308 q31 53 27.5 76.5t-33.5 27.5l-74 10l-4 70h346z" />
<glyph horiz-adv-x="935" d="M838 0h-758v70l596 790v4h-191q-88 0 -139 -4t-78.5 -15t-40 -30.5t-20.5 -50.5l-31 -129h-80v303h760v-72l-598 -788v-4l184 2q98 0 154.5 4t87.5 15t43 28.5t18 44.5l37 135h88z" />
<glyph horiz-adv-x="1687" d="M1604 258q0 -57 -25 -108.5t-72 -90.5t-115.5 -61.5t-154.5 -22.5t-157.5 11.5t-133.5 29.5l-18 283h78l67 -213q39 -16 91.5 -25.5t95.5 -9.5q106 0 157 48t51 114q0 43 -17 73.5t-49 53t-77 41t-100 37.5q-61 20 -112.5 43.5t-89.5 56.5t-59.5 76t-21.5 102 q0 53 21.5 101.5t63.5 84.5t105.5 58.5t147.5 22.5q66 0 113 -5.5t88 -15.5l84 23v-310h-74l-53 195q-37 16 -87.5 26.5t-90.5 10.5q-96 0 -142.5 -43t-46.5 -103q0 -41 17.5 -69.5t49 -50t74.5 -39t95 -33.5q66 -23 121 -47.5t94 -57t60.5 -78t21.5 -108.5zM760 258 q0 -57 -24.5 -108.5t-73 -90.5t-116 -61.5t-153.5 -22.5t-157.5 11.5t-133.5 29.5l-18 283h78l67 -213q39 -16 91.5 -25.5t95.5 -9.5q104 0 156.5 48t52.5 114q0 43 -17.5 73.5t-49.5 53t-77 41t-100 37.5q-61 20 -112.5 43.5t-89.5 56.5t-59.5 76t-21.5 102 q0 53 21.5 101.5t63.5 84.5t105.5 58.5t147.5 22.5q66 0 113 -5.5t88 -15.5l84 23v-310h-76l-51 195q-37 16 -87 26.5t-91 10.5q-96 0 -142.5 -43t-46.5 -103q0 -41 17.5 -69.5t49.5 -50t75 -39t94 -33.5q66 -23 121 -47.5t94 -57t60.5 -78t21.5 -108.5z" />
<glyph horiz-adv-x="983" d="M551 0l6 70l88 10q33 6 36 22.5t-19 83.5l-48 140h-331l-43 -131q-20 -63 -15.5 -86t33.5 -29l76 -10l4 -70h-350l4 70l69 10q18 4 31.5 10t27 25.5t30 58.5t40.5 109l207 591v39l164 50l285 -850q6 -16 17 -20.5t30 -8.5l86 -14l6 -70h-434zM459 813h-17l-137 -420h49 h94.5h94.5h49zM481 1040l-338 377h187l196 -377h-45z" />
<glyph horiz-adv-x="983" d="M551 0l6 70l88 10q33 6 36 22.5t-19 83.5l-48 140h-331l-43 -131q-20 -63 -15.5 -86t33.5 -29l76 -10l4 -70h-350l4 70l69 10q18 4 31.5 10t27 25.5t30 58.5t40.5 109l207 591v39l164 50l285 -850q6 -16 17 -20.5t30 -8.5l86 -14l6 -70h-434zM459 813h-17l-137 -420h49 h94.5h94.5h49zM453 1040h-47l192 377h193z" />
<glyph horiz-adv-x="983" d="M551 0l6 70l88 10q33 6 36 22.5t-19 83.5l-48 140h-331l-43 -131q-20 -63 -15.5 -86t33.5 -29l76 -10l4 -70h-350l4 70l69 10q18 4 31.5 10t27 25.5t30 58.5t40.5 109l207 591v39l164 50l285 -850q6 -16 17 -20.5t30 -8.5l86 -14l6 -70h-434zM459 813h-17l-137 -420h49 h94.5h94.5h49zM692 1040l-209 252h-4l-209 -252h-55l227 398h78l228 -398h-56z" />
<glyph horiz-adv-x="983" d="M551 0l6 70l88 10q33 6 36 22.5t-19 83.5l-48 140h-331l-43 -131q-20 -63 -15.5 -86t33.5 -29l76 -10l4 -70h-350l4 70l69 10q18 4 31.5 10t27 25.5t30 58.5t40.5 109l207 591v39l164 50l285 -850q6 -16 17 -20.5t30 -8.5l86 -14l6 -70h-434zM823 1305 q-20 -117 -67 -178.5t-129 -61.5q-47 0 -90 22.5t-81 50t-72 51t-60 23.5q-33 0 -56.5 -26.5t-54.5 -106.5h-53q20 119 67 179.5t129 60.5q47 0 90 -23.5t81 -51t71 -50.5t61 -23q33 0 56.5 27t54.5 107h53zM459 813h-17l-137 -420h49h94.5h94.5h49z" />
<glyph horiz-adv-x="983" d="M551 0l6 70l88 10q33 6 36 22.5t-19 83.5l-48 140h-331l-43 -131q-20 -63 -15.5 -86t33.5 -29l76 -10l4 -70h-350l4 70l69 10q18 4 31.5 10t27 25.5t30 58.5t40.5 109l207 591v39l164 50l285 -850q6 -16 17 -20.5t30 -8.5l86 -14l6 -70h-434zM459 813h-17l-137 -420h49 h94.5h94.5h49zM801 1223q0 -47 -30 -84t-83 -37t-83 37t-30 84t30 83.5t83 36.5t83 -36.5t30 -83.5zM391 1223q0 -47 -29.5 -84t-82.5 -37t-83 37t-30 84t29.5 83.5t83.5 36.5q53 0 82.5 -36.5t29.5 -83.5z" />
<glyph horiz-adv-x="940" d="M385 899q-49 23 -76.5 68t-27.5 100q0 76 48 130t134 54t134 -54t48 -130q0 -51 -22.5 -93t-63.5 -67l266 -794q4 -16 15.5 -20.5t29.5 -8.5l88 -14l5 -70h-433l5 70l90 10q33 6 35 22.5t-21 83.5l-45 140h-332l-43 -131q-23 -63 -17.5 -86t34.5 -29l75 -10l6 -70h-350 l4 70l68 10q20 4 33.5 10t27 26.5t28.5 59.5t40 107zM586 1067q0 53 -32 92t-91 39q-57 0 -89 -39t-32 -92q0 -51 32 -90t89 -39q59 0 91 39t32 90zM438 813h-16l-139 -420h50h95h94h49z" />
<glyph horiz-adv-x="940" d="M418 1286h-47l192 377h193zM385 899q-49 23 -76.5 68t-27.5 100q0 76 48 130t134 54t134 -54t48 -130q0 -51 -22.5 -93t-63.5 -67l266 -794q4 -16 15.5 -20.5t29.5 -8.5l88 -14l5 -70h-433l5 70l90 10q33 6 35 22.5t-21 83.5l-45 140h-332l-43 -131q-23 -63 -17.5 -86 t34.5 -29l75 -10l6 -70h-350l4 70l68 10q20 4 33.5 10t27 26.5t28.5 59.5t40 107zM586 1067q0 53 -32 92t-91 39q-57 0 -89 -39t-32 -92q0 -51 32 -90t89 -39q59 0 91 39t32 90zM438 813h-16l-139 -420h50h95h94h49z" />
<glyph horiz-adv-x="983" d="M551 0l6 70l88 10q33 6 36 22.5t-19 83.5l-48 140h-331l-43 -131q-20 -63 -15.5 -86t33.5 -29l76 -10l4 -70h-350l4 70l69 10q18 4 31.5 10t27 25.5t30 58.5t40.5 109l207 591v39l164 50l285 -850q6 -16 17 -20.5t30 -8.5l86 -14l6 -70h-434zM459 813h-17l-137 -420h49 h94.5h94.5h49zM250 1104l6 84h494l6 -84h-506z" />
<glyph horiz-adv-x="983" d="M551 0l6 70l88 10q33 6 36 22.5t-19 83.5l-48 140h-331l-43 -131q-20 -63 -15.5 -86t33.5 -29l76 -10l4 -70h-350l4 70l69 10q18 4 31.5 10t27 25.5t30 58.5t40.5 109l207 591v39l164 50l285 -850q6 -16 17 -20.5t30 -8.5l86 -14l6 -70h-434zM776 1417 q-14 -68 -33.5 -135.5t-50 -122.5t-78 -90t-118.5 -35q-72 0 -119 35t-78 90t-50.5 123t-33.5 135h47q23 -57 46.5 -108.5t52 -90t61.5 -61t74 -22.5t73.5 22.5t61 61t52.5 90t46 108.5h47zM459 813h-17l-137 -420h49h94.5h94.5h49z" />
<glyph horiz-adv-x="983" d="M811 -434q-78 0 -129 43t-51 125q0 45 19.5 87t51 76.5t71.5 60.5t79 42h-301l6 70l88 10q33 6 36 22.5t-19 83.5l-48 140h-331l-43 -131q-20 -63 -15.5 -86t33.5 -29l76 -10l4 -70h-350l4 70l69 10q18 4 31.5 10t27 25.5t30 58.5t40.5 109l207 591v39l164 50l287 -850 q4 -16 15 -20.5t30 -8.5l86 -14l6 -70q-41 -8 -83 -30.5t-74.5 -54.5t-53 -68.5t-20.5 -73.5q0 -102 104 -103q66 0 103 43l22 -24q-10 -45 -55 -84t-117 -39zM459 813h-17l-137 -420h49h94.5h94.5h49z" />
<glyph horiz-adv-x="1388" d="M1260 0h-752l4 70l100 14q25 6 25 29v221h-295l-70 -127q-37 -72 -38 -97.5t26 -29.5l78 -10l4 -70h-354l6 70l65 10q20 4 37 11t35.5 28.5t41 59.5t56.5 104l275 508q14 29 9 46t-40 23l-76 10l-6 68h871v-293h-78l-33 139q-6 29 -18.5 46.5t-44 26.5t-91 11t-161.5 2 h-54v-362h52q43 0 68.5 1t39.5 5t20.5 10t10.5 19l35 102h61l-33 -334h-57l-14 97q-2 10 -5.5 17t-16.5 12t-39.5 7t-74.5 2h-47v-378h41q111 0 175.5 3t99.5 12t48 25.5t21 45.5l37 131h84zM637 874h-12l-248 -473h260v473z" />
<glyph horiz-adv-x="1388" d="M772 1040h-47l193 377h192zM1260 0h-752l4 70l100 14q25 6 25 29v221h-295l-70 -127q-37 -72 -38 -97.5t26 -29.5l78 -10l4 -70h-354l6 70l65 10q20 4 37 11t35.5 28.5t41 59.5t56.5 104l275 508q14 29 9 46t-40 23l-76 10l-6 68h871v-293h-78l-33 139q-6 29 -18.5 46.5 t-44 26.5t-91 11t-161.5 2h-54v-362h52q43 0 68.5 1t39.5 5t20.5 10t10.5 19l35 102h61l-33 -334h-57l-14 97q-2 10 -5.5 17t-16.5 12t-39.5 7t-74.5 2h-47v-378h41q111 0 175.5 3t99.5 12t48 25.5t21 45.5l37 131h84zM637 874h-12l-248 -473h260v473z" />
<glyph horiz-adv-x="1060" d="M551 -23q-102 6 -188.5 41t-149.5 95.5t-98 146.5t-35 195q0 115 40 209t109.5 160.5t164.5 102.5t208 36q70 0 126 -10.5t91 -20.5l127 26v-327h-82l-49 209q-39 20 -89 33.5t-124 13.5q-80 0 -144.5 -30t-111.5 -84t-72.5 -130t-25.5 -168q0 -197 96 -311.5t270 -114.5 q51 0 99.5 10.5t83.5 28.5l69 211h86l-32 -303l-82 18q-37 -14 -91.5 -24t-113.5 -15l-92 -96q117 4 190.5 -43t73.5 -137q0 -98 -107.5 -163.5t-310.5 -82.5l-16 45q164 23 241.5 67t77.5 113q0 49 -43 80t-131 31q-29 0 -58.5 -3t-60.5 -7v35l154 163v0z" />
<glyph horiz-adv-x="1060" d="M532 1040h-47l193 377h192zM920 -4l-82 18q-43 -16 -108.5 -27.5t-133.5 -11.5q-111 0 -205 32t-163.5 93.5t-108.5 150.5t-39 204t40 209t109.5 160.5t164.5 102.5t208 36q70 0 126 -10.5t91 -20.5l127 26v-327h-82l-49 209q-39 20 -89 33.5t-124 13.5q-80 0 -144.5 -30 t-111.5 -84t-72.5 -130t-25.5 -168q0 -197 96 -311.5t270 -114.5q51 0 99.5 10.5t83.5 28.5l69 211h86z" />
<glyph horiz-adv-x="1060" d="M786 1040l-208 252h-5l-208 -252h-56l228 398h77l228 -398h-56zM920 -4l-82 18q-43 -16 -108.5 -27.5t-133.5 -11.5q-111 0 -205 32t-163.5 93.5t-108.5 150.5t-39 204t40 209t109.5 160.5t164.5 102.5t208 36q70 0 126 -10.5t91 -20.5l127 26v-327h-82l-49 209 q-39 20 -89 33.5t-124 13.5q-80 0 -144.5 -30t-111.5 -84t-72.5 -130t-25.5 -168q0 -197 96 -311.5t270 -114.5q51 0 99.5 10.5t83.5 28.5l69 211h86z" />
<glyph horiz-adv-x="1060" d="M920 -4l-82 18q-43 -16 -108.5 -27.5t-133.5 -11.5q-111 0 -205 32t-163.5 93.5t-108.5 150.5t-39 204t40 209t109.5 160.5t164.5 102.5t208 36q70 0 126 -10.5t91 -20.5l127 26v-327h-82l-49 209q-39 20 -89 33.5t-124 13.5q-80 0 -144.5 -30t-111.5 -84t-72.5 -130 t-25.5 -168q0 -197 96 -311.5t270 -114.5q51 0 99.5 10.5t83.5 28.5l69 211h86zM707 1235q0 -49 -31 -87t-84 -38q-55 0 -86 38t-31 87q0 47 31 85t86 38q53 0 84 -38t31 -85z" />
<glyph horiz-adv-x="1060" d="M635 1040h-78l-227 398h55l209 -252h4l209 252h55zM920 -4l-82 18q-43 -16 -108.5 -27.5t-133.5 -11.5q-111 0 -205 32t-163.5 93.5t-108.5 150.5t-39 204t40 209t109.5 160.5t164.5 102.5t208 36q70 0 126 -10.5t91 -20.5l127 26v-327h-82l-49 209q-39 20 -89 33.5 t-124 13.5q-80 0 -144.5 -30t-111.5 -84t-72.5 -130t-25.5 -168q0 -197 96 -311.5t270 -114.5q51 0 99.5 10.5t83.5 28.5l69 211h86z" />
<glyph horiz-adv-x="1081" d="M1010 483q0 -96 -35 -184t-105.5 -154.5t-175 -105.5t-241.5 -39h-371l4 70l98 14q27 6 27 29v712q0 23 -27 29l-98 16l-4 68l371 4q131 2 234.5 -33t175 -96t109.5 -145.5t38 -184.5zM844 451q0 193 -106.5 304t-317.5 111h-55v-770l116 -20q172 2 267.5 105.5 t95.5 269.5zM555 1042h-80l-227 396h55l209 -252h4q14 18 33 39q16 16 34.5 38.5t39.5 47.5q47 55 104 127h53z" />
<glyph horiz-adv-x="1116" d="M82 438l6 80h158v307q0 23 -27 29l-98 16l-4 68l370 4q131 2 234.5 -33t175.5 -96t109.5 -145t37.5 -185q0 -96 -34.5 -184t-105 -154.5t-175 -105.5t-242.5 -39h-370l4 70l98 14q27 6 27 29v325h-164zM618 518l7 -80h-226v-342l117 -20q172 2 267.5 105.5t95.5 269.5 q0 193 -106.5 304t-317.5 111h-56v-348h219z" />
<glyph horiz-adv-x="1116" d="M82 438l6 80h158v307q0 23 -27 29l-98 16l-4 68l370 4q131 2 234.5 -33t175.5 -96t109.5 -145t37.5 -185q0 -96 -34.5 -184t-105 -154.5t-175 -105.5t-242.5 -39h-370l4 70l98 14q27 6 27 29v325h-164zM618 518l7 -80h-226v-342l117 -20q172 2 267.5 105.5t95.5 269.5 q0 193 -106.5 304t-317.5 111h-56v-348h219z" />
<glyph horiz-adv-x="1003" d="M874 0h-792l4 70l98 14q27 6 27 29v712q0 23 -27 29l-98 16l-4 68h795v-295h-82l-31 139q-6 31 -19.5 47.5t-45 25.5t-91 11t-159.5 2h-84v-360h73q82 0 108.5 6t35.5 31l34 102h64l-31 -338h-63l-13 99q-2 10 -6 17t-18 11t-42 6t-75 2h-67v-374h75q109 0 171.5 3t97 12 t48 25.5t23.5 45.5l35 131h88zM539 1040l-338 377h186l197 -377h-45z" />
<glyph horiz-adv-x="1003" d="M874 0h-792l4 70l98 14q27 6 27 29v712q0 23 -27 29l-98 16l-4 68h795v-295h-82l-31 139q-6 31 -19.5 47.5t-45 25.5t-91 11t-159.5 2h-84v-360h73q82 0 108.5 6t35.5 31l34 102h64l-31 -338h-63l-13 99q-2 10 -6 17t-18 11t-42 6t-75 2h-67v-374h75q109 0 171.5 3t97 12 t48 25.5t23.5 45.5l35 131h88zM463 1040h-47l192 377h193z" />
<glyph horiz-adv-x="1003" d="M874 0h-792l4 70l98 14q27 6 27 29v712q0 23 -27 29l-98 16l-4 68h795v-295h-82l-31 139q-6 31 -19.5 47.5t-45 25.5t-91 11t-159.5 2h-84v-360h73q82 0 108.5 6t35.5 31l34 102h64l-31 -338h-63l-13 99q-2 10 -6 17t-18 11t-42 6t-75 2h-67v-374h75q109 0 171.5 3t97 12 t48 25.5t23.5 45.5l35 131h88zM702 1040l-208 252h-5l-208 -252h-56l228 398h77l228 -398h-56z" />
<glyph horiz-adv-x="1003" d="M874 0h-792l4 70l98 14q27 6 27 29v712q0 23 -27 29l-98 16l-4 68h795v-295h-82l-31 139q-6 31 -19.5 47.5t-45 25.5t-91 11t-159.5 2h-84v-360h73q82 0 108.5 6t35.5 31l34 102h64l-31 -338h-63l-13 99q-2 10 -6 17t-18 11t-42 6t-75 2h-67v-374h75q109 0 171.5 3t97 12 t48 25.5t23.5 45.5l35 131h88zM803 1223q0 -47 -30 -84t-83 -37t-82.5 37t-29.5 84t29.5 83.5t82.5 36.5t83 -36.5t30 -83.5zM393 1223q0 -47 -29.5 -84t-82.5 -37t-83 37t-30 84t29.5 83.5t83.5 36.5q53 0 82.5 -36.5t29.5 -83.5z" />
<glyph horiz-adv-x="1003" d="M874 0h-792l4 70l98 14q27 6 27 29v712q0 23 -27 29l-98 16l-4 68h795v-295h-82l-31 139q-6 31 -19.5 47.5t-45 25.5t-91 11t-159.5 2h-84v-360h73q82 0 108.5 6t35.5 31l34 102h64l-31 -338h-63l-13 99q-2 10 -6 17t-18 11t-42 6t-75 2h-67v-374h75q109 0 171.5 3t97 12 t48 25.5t23.5 45.5l35 131h88zM264 1104l6 84h494l6 -84h-506z" />
<glyph horiz-adv-x="1003" d="M874 0h-792l4 70l98 14q27 6 27 29v712q0 23 -27 29l-98 16l-4 68h795v-295h-82l-31 139q-6 31 -19.5 47.5t-45 25.5t-91 11t-159.5 2h-84v-360h73q82 0 108.5 6t35.5 31l34 102h64l-31 -338h-63l-13 99q-2 10 -6 17t-18 11t-42 6t-75 2h-67v-374h75q109 0 171.5 3t97 12 t48 25.5t23.5 45.5l35 131h88zM807 1417q-14 -68 -33.5 -135.5t-50.5 -122.5t-78 -90t-119 -35t-119 35t-77.5 90t-50 123t-33.5 135h47q23 -57 46 -108.5t52 -90t61.5 -61t73.5 -22.5t74 22.5t61.5 61t52 90t46.5 108.5h47z" />
<glyph horiz-adv-x="1003" d="M874 0h-792l4 70l98 14q27 6 27 29v712q0 23 -27 29l-98 16l-4 68h795v-295h-82l-31 139q-6 31 -19.5 47.5t-45 25.5t-91 11t-159.5 2h-84v-360h73q82 0 108.5 6t35.5 31l34 102h64l-31 -338h-63l-13 99q-2 10 -6 17t-18 11t-42 6t-75 2h-67v-374h75q109 0 171.5 3t97 12 t48 25.5t23.5 45.5l35 131h88zM631 1235q0 -49 -31 -87t-84 -38q-55 0 -86 38t-31 87q0 47 31 85t86 38q53 0 84 -38t31 -85z" />
<glyph horiz-adv-x="1003" d="M700 -434q-76 0 -126 46t-50 132q0 78 51.5 143.5t116.5 112.5h-610l6 70l96 14q27 6 27 29v712q0 23 -27 29l-96 16l-6 68h795v-295h-82l-31 139q-6 31 -19.5 47.5t-45 25.5t-91 11t-159.5 2h-84v-360h73q82 0 108.5 6t35.5 31l34 102h64l-31 -338h-63l-13 99 q-2 10 -6 17t-18 11t-42 6t-75 2h-67v-374h75q109 0 171.5 3t97 12t48 25.5t23.5 45.5l35 131h88l-29 -287h-104q-57 -51 -89 -107.5t-32 -109.5q0 -47 25.5 -80t73.5 -33q66 0 104 43l22 -24q-10 -45 -56 -84t-118 -39z" />
<glyph horiz-adv-x="1003" d="M559 1040h-78l-227 398h55l209 -252h4l209 252h55zM874 0h-792l4 70l98 14q27 6 27 29v712q0 23 -27 29l-98 16l-4 68h795v-295h-82l-31 139q-6 31 -19.5 47.5t-45 25.5t-91 11t-159.5 2h-84v-360h73q82 0 108.5 6t35.5 31l34 102h64l-31 -338h-63l-13 99q-2 10 -6 17 t-18 11t-42 6t-75 2h-67v-374h75q109 0 171.5 3t97 12t48 25.5t23.5 45.5l35 131h88z" />
<glyph horiz-adv-x="1118" d="M1053 350l-99 -16q-27 -2 -26 -29v-196l92 -9l4 -49q-43 -16 -96.5 -29.5t-109.5 -23.5t-113.5 -16.5t-108.5 -6.5q-113 0 -208 34t-163.5 96.5t-106.5 150.5t-38 199q0 117 40 211t110.5 159.5t166 101.5t205.5 36q68 0 123 -10.5t90 -20.5l123 26v-323h-88l-45 205 q-37 20 -87 33.5t-122 13.5q-78 0 -141.5 -30t-109.5 -84t-71.5 -130t-25.5 -168q0 -197 95 -311.5t261 -114.5q49 0 96.5 10.5t77.5 22.5v223q0 27 -26 29l-111 16l-4 68h420zM803 1040l-209 252h-4l-209 -252h-55l227 398h78l227 -398h-55z" />
<glyph horiz-adv-x="1118" d="M1053 350l-99 -16q-27 -2 -26 -29v-196l92 -9l4 -49q-43 -16 -96.5 -29.5t-109.5 -23.5t-113.5 -16.5t-108.5 -6.5q-113 0 -208 34t-163.5 96.5t-106.5 150.5t-38 199q0 117 40 211t110.5 159.5t166 101.5t205.5 36q68 0 123 -10.5t90 -20.5l123 26v-323h-88l-45 205 q-37 20 -87 33.5t-122 13.5q-78 0 -141.5 -30t-109.5 -84t-71.5 -130t-25.5 -168q0 -197 95 -311.5t261 -114.5q49 0 96.5 10.5t77.5 22.5v223q0 27 -26 29l-111 16l-4 68h420zM856 1417q-14 -68 -33.5 -135.5t-50.5 -122.5t-78 -90t-119 -35t-118.5 35t-77.5 90t-50.5 123 t-33.5 135h47q23 -57 46.5 -108.5t52 -90t61.5 -61t73 -22.5q41 0 74 22.5t61.5 61t52 90t46.5 108.5h47z" />
<glyph horiz-adv-x="1118" d="M1053 350l-99 -16q-27 -2 -26 -29v-196l92 -9l4 -49q-43 -16 -96.5 -29.5t-109.5 -23.5t-113.5 -16.5t-108.5 -6.5q-113 0 -208 34t-163.5 96.5t-106.5 150.5t-38 199q0 117 40 211t110.5 159.5t166 101.5t205.5 36q68 0 123 -10.5t90 -20.5l123 26v-323h-88l-45 205 q-37 20 -87 33.5t-122 13.5q-78 0 -141.5 -30t-109.5 -84t-71.5 -130t-25.5 -168q0 -197 95 -311.5t261 -114.5q49 0 96.5 10.5t77.5 22.5v223q0 27 -26 29l-111 16l-4 68h420zM700 1235q0 -49 -30.5 -87t-83.5 -38q-55 0 -86 38t-31 87q0 47 30.5 85t86.5 38q53 0 83.5 -38 t30.5 -85z" />
<glyph horiz-adv-x="1118" d="M1053 350l-99 -16q-27 -2 -26 -29v-196l92 -9l4 -49q-43 -16 -96.5 -29.5t-109.5 -23.5t-113.5 -16.5t-108.5 -6.5q-113 0 -208 34t-163.5 96.5t-106.5 150.5t-38 199q0 117 40 211t110.5 159.5t166 101.5t205.5 36q68 0 123 -10.5t90 -20.5l123 26v-323h-88l-45 205 q-37 20 -87 33.5t-122 13.5q-78 0 -141.5 -30t-109.5 -84t-71.5 -130t-25.5 -168q0 -197 95 -311.5t261 -114.5q49 0 96.5 10.5t77.5 22.5v223q0 27 -26 29l-111 16l-4 68h420zM756 -262q0 -51 -20.5 -94t-53.5 -78t-74 -60.5t-80 -42.5l-34 33q53 23 95 65t42 109 q0 39 -19.5 64.5t-42 39t-42 19.5t-19.5 8q0 41 26.5 68t79.5 27q59 0 100.5 -47.5t41.5 -110.5z" />
<glyph horiz-adv-x="1179" d="M799 1047l-209 251h-4l-209 -251h-55l227 397h78l227 -397h-55zM688 0l6 70l97 14q27 6 26 29v333h-455v-333q0 -23 27 -29l96 -14l7 -70h-412l6 70l96 14q27 6 27 29v712q0 23 -27 29l-96 16l-6 68h412l-7 -68l-96 -16q-27 -6 -27 -29v-309h455v309q0 23 -26 29l-97 16 l-6 68h412l-6 -68l-99 -16q-27 -6 -26 -29v-712q0 -23 26 -29l99 -14l6 -70h-412z" />
<glyph horiz-adv-x="1179" d="M688 0l6 70l97 14q27 6 26 29v333h-455v-333q0 -23 27 -29l98 -14l5 -70h-410l4 70l96 14q27 6 27 29v534h-182l6 66h176v112q0 23 -27 29l-96 16l-4 68h410l-5 -68l-98 -16q-27 -6 -27 -29v-112h455v112q0 23 -26 29l-97 16l-6 68h412l-6 -68l-97 -16q-29 -6 -28 -29 v-112h190l6 -66h-196v-534q0 -23 28 -29l97 -14l6 -70h-412zM817 516v131h-455v-131h455z" />
<glyph horiz-adv-x="618" d="M88 0l6 70l113 14q27 6 26 29v712q0 27 -26 29l-113 16l-6 68h442l-4 -68l-112 -16q-27 -2 -27 -29v-712q0 -23 27 -29l112 -14l4 -70h-442zM319 1040l-337 377h186l197 -377h-46z" />
<glyph horiz-adv-x="618" d="M88 0l6 70l113 14q27 6 26 29v712q0 27 -26 29l-113 16l-6 68h442l-4 -68l-112 -16q-27 -2 -27 -29v-712q0 -23 27 -29l112 -14l4 -70h-442zM301 1040h-47l192 377h193z" />
<glyph horiz-adv-x="618" d="M88 0l6 70l113 14q27 6 26 29v712q0 27 -26 29l-113 16l-6 68h442l-4 -68l-112 -16q-27 -2 -27 -29v-712q0 -23 27 -29l112 -14l4 -70h-442zM518 1040l-209 252h-4l-209 -252h-55l227 398h78l227 -398h-55z" />
<glyph horiz-adv-x="618" d="M88 0l6 70l113 14q27 6 26 29v712q0 27 -26 29l-113 16l-6 68h442l-4 -68l-112 -16q-27 -2 -27 -29v-712q0 -23 27 -29l112 -14l4 -70h-442zM627 1223q0 -47 -30 -84t-83 -37t-83 37t-30 84t30 83.5t83 36.5t83 -36.5t30 -83.5zM217 1223q0 -47 -29.5 -84t-83.5 -37 q-53 0 -82.5 37t-29.5 84t29.5 83.5t82.5 36.5t83 -36.5t30 -83.5z" />
<glyph horiz-adv-x="618" d="M88 0l6 70l113 14q27 6 26 29v712q0 27 -26 29l-113 16l-6 68h442l-4 -68l-112 -16q-27 -2 -27 -29v-712q0 -23 27 -29l112 -14l4 -70h-442zM61 1104l7 84h493l6 -84h-506z" />
<glyph horiz-adv-x="618" d="M88 0l6 70l113 14q27 6 26 29v712q0 27 -26 29l-113 16l-6 68h442l-4 -68l-112 -16q-27 -2 -27 -29v-712q0 -23 27 -29l112 -14l4 -70h-442zM592 1417q-14 -68 -33.5 -135.5t-50.5 -122.5t-78 -90t-119 -35t-119 35t-77.5 90t-50 123t-33.5 135h47q23 -57 46 -108.5 t52 -90t61.5 -61t73.5 -22.5t74 22.5t61.5 61t52 90t46.5 108.5h47z" />
<glyph horiz-adv-x="618" d="M358 -434q-76 0 -127 44t-51 130q0 39 16.5 77t43 71.5t61.5 62.5t70 49h-283l6 70l113 14q27 6 26 29v712q0 27 -26 29l-113 16l-6 68h442l-4 -68l-112 -16q-27 -2 -27 -29v-712q0 -23 27 -29l112 -14l4 -70q-43 -10 -82.5 -32.5t-71.5 -53.5t-50.5 -66.5t-18.5 -70.5 q0 -47 24.5 -77t76.5 -30q63 0 100 43l22 -24q-10 -45 -55 -84t-117 -39z" />
<glyph horiz-adv-x="618" d="M88 0l6 70l113 14q27 6 26 29v712q0 27 -26 29l-113 16l-6 68h442l-4 -68l-112 -16q-27 -2 -27 -29v-712q0 -23 27 -29l112 -14l4 -70h-442zM426 1235q0 -49 -30.5 -87t-84.5 -38q-55 0 -85.5 38t-30.5 87q0 47 30.5 85t85.5 38q53 0 84 -38t31 -85z" />
<glyph horiz-adv-x="618" d="M88 0l6 70l113 14q27 6 26 29v712q0 27 -26 29l-113 16l-6 68h442l-4 -68l-112 -16q-27 -2 -27 -29v-712q0 -23 27 -29l112 -14l4 -70h-442z" />
<glyph horiz-adv-x="643" d="M590 870l-103 -16q-27 -6 -26 -29v-436q0 -211 -77 -312.5t-218 -101.5q-72 0 -116 34t-44 79q0 35 20.5 54.5t55.5 19.5q41 0 76 -31q31 -29 45 -92h4q53 23 76.5 86t23.5 215v485q0 27 -26 29l-123 16l-4 68h442zM594 1040l-209 252h-4l-209 -252h-55l227 398h78 l227 -398h-55z" />
<glyph horiz-adv-x="1052" d="M690 -262q0 -51 -20.5 -94t-53 -78t-73.5 -60.5t-80 -42.5l-35 33q53 23 95 65t42 109q0 39 -19.5 64.5t-42 39t-42 19.5t-19.5 8q0 41 27 68t80 27q59 0 100 -47.5t41 -110.5zM643 0l4 70l62 12q10 4 11 8t-9 19l-242 352l-104 -101v-247q0 -23 24 -29l98 -14l5 -70 h-410l4 70l98 14q27 6 27 29v712q0 23 -27 29l-98 16l-4 68h410l-5 -68l-98 -16q-25 -6 -24 -29v-376l272 272l64.5 67.5t21.5 42.5q0 27 -35 33l-53 6l-6 68h393l-6 -68l-68 -10q-37 -8 -71.5 -23.5t-69.5 -50.5l-234 -229l312 -434q18 -29 36.5 -34t34.5 -9l68 -10l4 -70 h-385z" />
<glyph horiz-adv-x="915" d="M236 997h-48l193 377h192zM813 0h-731l4 70l98 14q27 6 27 29v712q0 23 -27 29l-98 16l-4 68h422l-6 -68l-109 -16q-25 -2 -24 -29v-749h32q104 0 164 2t92.5 11t44 25.5t21.5 45.5l41 155h88z" />
<glyph horiz-adv-x="915" d="M600 -262q0 -51 -20.5 -94t-53 -78t-73.5 -60.5t-80 -42.5l-35 33q53 23 95 65t42 109q0 39 -19.5 64.5t-42 39t-42 19.5t-19.5 8q0 41 27 68t80 27q59 0 100 -47.5t41 -110.5zM813 0h-731l4 70l98 14q27 6 27 29v712q0 23 -27 29l-98 16l-4 68h422l-6 -68l-109 -16 q-25 -2 -24 -29v-749h32q104 0 164 2t92.5 11t44 25.5t21.5 45.5l41 155h88z" />
<glyph horiz-adv-x="1320" d="M1264 786q0 -63 -26 -120.5t-67 -106.5t-92 -92t-100 -80l-45 33q33 25 63.5 54.5t55 64t39 72.5t14.5 79q0 45 -23.5 76t-52.5 50.5t-52.5 29.5t-23.5 12q0 47 34 81t95 34q33 0 66 -14.5t58.5 -39t41 -58.5t15.5 -75zM813 0h-731l4 70l98 14q27 6 27 29v712 q0 23 -27 29l-98 16l-4 68h422l-6 -68l-109 -16q-25 -2 -24 -29v-749h32q104 0 164 2t92.5 11t44 25.5t21.5 45.5l41 155h88z" />
<glyph horiz-adv-x="1173" d="M1176 588q0 -49 -35 -87t-90 -38q-57 0 -93 38t-36 87t35.5 86t93.5 37q55 0 90 -37t35 -86zM813 0h-731l4 70l98 14q27 6 27 29v712q0 23 -27 29l-98 16l-4 68h422l-6 -68l-109 -16q-25 -2 -24 -29v-749h32q104 0 164 2t92.5 11t44 25.5t21.5 45.5l41 155h88z" />
<glyph horiz-adv-x="950" d="M82 336l2 86l162 45v358q0 23 -27 29l-98 16l-4 68h422l-7 -68l-108 -16q-25 -2 -25 -29v-317l187 51v-86l-187 -51v-346h33q104 0 163.5 2t92.5 11t44 25.5t22 45.5l41 155h88l-35 -315h-731l4 70l98 14q27 6 27 29v268z" />
<glyph horiz-adv-x="1175" d="M1124 870l-94 -14q-12 -4 -21.5 -10t-15.5 -27.5t-8 -62.5t-2 -113v-653h-119l-573 809h-17v-504q0 -72 2.5 -114t8.5 -63.5t14 -27.5t20 -8l99 -12l4 -70h-363l4 70l95 12q14 2 23 9t14.5 27.5t7.5 61.5t2 115v475q0 35 -9.5 52.5t-29.5 27.5l-94 20l-6 68h299l534 -750 h16v455q0 72 -2 113t-7 62.5t-14 27.5t-22 10l-98 14l-6 68h364zM936 1305q-20 -117 -67.5 -178.5t-129.5 -61.5q-47 0 -90 22.5t-81 50t-71.5 51t-60.5 23.5q-33 0 -56.5 -26.5t-53.5 -106.5h-54q20 119 67.5 179.5t129.5 60.5q47 0 90 -23.5t81 -51t70.5 -50.5t61.5 -23 q33 0 56.5 27t54.5 107h53z" />
<glyph horiz-adv-x="1175" d="M541 1040h-47l192 377h193zM1124 870l-94 -14q-12 -4 -21.5 -10t-15.5 -27.5t-8 -62.5t-2 -113v-653h-119l-573 809h-17v-504q0 -72 2.5 -114t8.5 -63.5t14 -27.5t20 -8l99 -12l4 -70h-363l4 70l95 12q14 2 23 9t14.5 27.5t7.5 61.5t2 115v475q0 35 -9.5 52.5t-29.5 27.5 l-94 20l-6 68h299l534 -750h16v455q0 72 -2 113t-7 62.5t-14 27.5t-22 10l-98 14l-6 68h364z" />
<glyph horiz-adv-x="1175" d="M1124 870l-94 -14q-12 -4 -21.5 -10t-15.5 -27.5t-8 -62.5t-2 -113v-653h-119l-573 809h-17v-504q0 -72 2.5 -114t8.5 -63.5t14 -27.5t20 -8l99 -12l4 -70h-363l4 70l95 12q14 2 23 9t14.5 27.5t7.5 61.5t2 115v475q0 35 -9.5 52.5t-29.5 27.5l-94 20l-6 68h299l534 -750 h16v455q0 72 -2 113t-7 62.5t-14 27.5t-22 10l-98 14l-6 68h364zM731 -262q0 -51 -20.5 -94t-53 -78t-73.5 -60.5t-80 -42.5l-35 33q53 23 95 65t42 109q0 39 -19.5 64.5t-42 39t-42 19.5t-19.5 8q0 41 27 68t80 27q59 0 100 -47.5t41 -110.5z" />
<glyph horiz-adv-x="1175" d="M633 1040h-78l-227 398h55l209 -252h4l209 252h55zM1124 870l-94 -14q-12 -4 -21.5 -10t-15.5 -27.5t-8 -62.5t-2 -113v-653h-119l-573 809h-17v-504q0 -72 2.5 -114t8.5 -63.5t14 -27.5t20 -8l99 -12l4 -70h-363l4 70l95 12q14 2 23 9t14.5 27.5t7.5 61.5t2 115v475 q0 35 -9.5 52.5t-29.5 27.5l-94 20l-6 68h299l534 -750h16v455q0 72 -2 113t-7 62.5t-14 27.5t-22 10l-98 14l-6 68h364z" />
<glyph horiz-adv-x="1146" d="M1069 473q0 -104 -39 -195.5t-105.5 -159t-157.5 -106.5t-196 -39q-109 0 -198.5 35t-154 99.5t-101.5 154.5t-37 199q0 104 38 195.5t105.5 159t158.5 107.5t196 40q106 0 196 -36t155.5 -100.5t102.5 -154.5t37 -199zM901 457q0 104 -26.5 185t-71.5 134t-105.5 81 t-126.5 28t-124 -25.5t-102 -77t-69.5 -128t-25.5 -177.5q0 -104 26.5 -185t71.5 -134.5t104.5 -81t125.5 -27.5t124 25.5t103 77t70.5 127.5t25.5 178zM590 1040l-338 377h186l197 -377h-45z" />
<glyph horiz-adv-x="1146" d="M1069 473q0 -104 -39 -195.5t-105.5 -159t-157.5 -106.5t-196 -39q-109 0 -198.5 35t-154 99.5t-101.5 154.5t-37 199q0 104 38 195.5t105.5 159t158.5 107.5t196 40q106 0 196 -36t155.5 -100.5t102.5 -154.5t37 -199zM901 457q0 104 -26.5 185t-71.5 134t-105.5 81 t-126.5 28t-124 -25.5t-102 -77t-69.5 -128t-25.5 -177.5q0 -104 26.5 -185t71.5 -134.5t104.5 -81t125.5 -27.5t124 25.5t103 77t70.5 127.5t25.5 178zM571 1040h-47l193 377h192z" />
<glyph horiz-adv-x="1146" d="M1069 473q0 -104 -39 -195.5t-105.5 -159t-157.5 -106.5t-196 -39q-109 0 -198.5 35t-154 99.5t-101.5 154.5t-37 199q0 104 38 195.5t105.5 159t158.5 107.5t196 40q106 0 196 -36t155.5 -100.5t102.5 -154.5t37 -199zM901 457q0 104 -26.5 185t-71.5 134t-105.5 81 t-126.5 28t-124 -25.5t-102 -77t-69.5 -128t-25.5 -177.5q0 -104 26.5 -185t71.5 -134.5t104.5 -81t125.5 -27.5t124 25.5t103 77t70.5 127.5t25.5 178zM795 1040l-209 252h-4l-209 -252h-56l228 398h78l227 -398h-55z" />
<glyph horiz-adv-x="1146" d="M1069 473q0 -104 -39 -195.5t-105.5 -159t-157.5 -106.5t-196 -39q-109 0 -198.5 35t-154 99.5t-101.5 154.5t-37 199q0 104 38 195.5t105.5 159t158.5 107.5t196 40q106 0 196 -36t155.5 -100.5t102.5 -154.5t37 -199zM901 457q0 104 -26.5 185t-71.5 134t-105.5 81 t-126.5 28t-124 -25.5t-102 -77t-69.5 -128t-25.5 -177.5q0 -104 26.5 -185t71.5 -134.5t104.5 -81t125.5 -27.5t124 25.5t103 77t70.5 127.5t25.5 178zM899 1305q-20 -117 -67.5 -178.5t-129.5 -61.5q-47 0 -90 22.5t-80.5 50t-71.5 51t-61 23.5q-33 0 -56.5 -26.5 t-53.5 -106.5h-53q20 119 67 179.5t129 60.5q47 0 90 -23.5t81 -51t71 -50.5t61 -23q33 0 56.5 27t54.5 107h53z" />
<glyph horiz-adv-x="1146" d="M1069 473q0 -104 -39 -195.5t-105.5 -159t-157.5 -106.5t-196 -39q-109 0 -198.5 35t-154 99.5t-101.5 154.5t-37 199q0 104 38 195.5t105.5 159t158.5 107.5t196 40q106 0 196 -36t155.5 -100.5t102.5 -154.5t37 -199zM901 457q0 104 -26.5 185t-71.5 134t-105.5 81 t-126.5 28t-124 -25.5t-102 -77t-69.5 -128t-25.5 -177.5q0 -104 26.5 -185t71.5 -134.5t104.5 -81t125.5 -27.5t124 25.5t103 77t70.5 127.5t25.5 178zM901 1223q0 -47 -29.5 -84t-83.5 -37q-53 0 -82.5 37t-29.5 84t29.5 83.5t82.5 36.5t83 -36.5t30 -83.5zM492 1223 q0 -47 -30 -84t-83 -37t-83 37t-30 84t30 83.5t83 36.5t83 -36.5t30 -83.5z" />
<glyph horiz-adv-x="1148" d="M342 1104l6 84h494l6 -84h-506zM1069 473q0 -104 -39 -195.5t-105.5 -159t-157.5 -106.5t-196 -39q-109 0 -198.5 35t-154 99.5t-101.5 154.5t-37 199q0 104 38 195.5t105.5 159t158.5 107.5t196 40q106 0 196 -36t155.5 -100.5t102.5 -154.5t37 -199zM901 457 q0 104 -26.5 185t-71.5 134t-105.5 81t-126.5 28t-124 -25.5t-102 -77t-69.5 -128t-25.5 -177.5q0 -104 26.5 -185t71.5 -134.5t104.5 -81t125.5 -27.5t124 25.5t103 77t70.5 127.5t25.5 178z" />
<glyph horiz-adv-x="1148" d="M1069 473q0 -104 -39 -195.5t-105.5 -159t-157.5 -106.5t-196 -39q-109 0 -198.5 35t-154 99.5t-101.5 154.5t-37 199q0 104 38 195.5t105.5 159t158.5 107.5t196 40q106 0 196 -36t155.5 -100.5t102.5 -154.5t37 -199zM901 457q0 104 -26.5 185t-71.5 134t-105.5 81 t-126.5 28t-124 -25.5t-102 -77t-69.5 -128t-25.5 -177.5q0 -104 26.5 -185t71.5 -134.5t104.5 -81t125.5 -27.5t124 25.5t103 77t70.5 127.5t25.5 178zM872 1417q-14 -68 -33.5 -135.5t-50 -122.5t-77.5 -90t-119 -35t-119 35t-77.5 90t-50 123t-34.5 135h47 q23 -57 46.5 -108.5t52 -90t61.5 -61t74 -22.5t73.5 22.5t61.5 61t52.5 90t45.5 108.5h47z" />
<glyph horiz-adv-x="1148" d="M702 1040h-45l179 377h170zM393 1040h-45l178 377h170zM1069 473q0 -104 -39 -195.5t-105.5 -159t-157.5 -106.5t-196 -39q-109 0 -198.5 35t-154 99.5t-101.5 154.5t-37 199q0 104 38 195.5t105.5 159t158.5 107.5t196 40q106 0 196 -36t155.5 -100.5t102.5 -154.5 t37 -199zM901 457q0 104 -26.5 185t-71.5 134t-105.5 81t-126.5 28t-124 -25.5t-102 -77t-69.5 -128t-25.5 -177.5q0 -104 26.5 -185t71.5 -134.5t104.5 -81t125.5 -27.5t124 25.5t103 77t70.5 127.5t25.5 178z" />
<glyph horiz-adv-x="1146" d="M1094 473q0 -104 -39 -195.5t-106.5 -159t-159 -106.5t-195.5 -39q-119 0 -219 47q-10 -16 -23.5 -38.5t-23.5 -42.5q-14 -23 -27 -50h-76l92 162q-100 61 -157.5 167t-57.5 243q0 104 39 195.5t106.5 159t159 107.5t195.5 40q119 0 219 -45l68 114h76q-20 -35 -39 -65 q-16 -27 -28.5 -50.5t-16.5 -31.5q98 -61 155.5 -167t57.5 -245zM770 829q-78 55 -176 56q-66 0 -124 -25.5t-101 -77t-69 -128t-26 -177.5q0 -109 28 -189.5t75 -135.5zM926 457q0 111 -29 191.5t-78 133.5l-29 -49q-28 -49 -72 -123.5t-95.5 -163t-95.5 -164t-73 -126.5 l-28 -50q39 -29 83 -43t91 -14q66 0 125 25.5t103 77t71 127.5t27 178z" />
<glyph horiz-adv-x="1148" d="M1094 473q0 -104 -39 -195.5t-106.5 -159t-159 -106.5t-195.5 -39q-119 0 -219 47q-10 -16 -23.5 -38.5t-23.5 -42.5q-14 -23 -27 -50h-76l92 162q-100 61 -157.5 167t-57.5 243q0 104 39 195.5t106.5 159t159 107.5t195.5 40q119 0 219 -45l68 114h76q-20 -35 -39 -65 q-16 -27 -28.5 -50.5t-16.5 -31.5q98 -61 155.5 -167t57.5 -245zM770 829q-78 55 -176 56q-66 0 -124 -25.5t-101 -77t-69 -128t-26 -177.5q0 -109 28 -189.5t75 -135.5zM926 457q0 111 -29 191.5t-78 133.5l-29 -49q-28 -49 -72 -123.5t-95.5 -163t-95.5 -164t-73 -126.5 l-28 -50q39 -29 83 -43t91 -14q66 0 125 25.5t103 77t71 127.5t27 178zM563 1040h-47l193 377h192z" />
<glyph horiz-adv-x="1497" d="M1368 0h-741q-127 0 -227.5 34t-172 94t-109.5 144t-38 185q0 96 35 184t104.5 154.5t174 105.5t243.5 39l731 -2v-293h-78l-30 139q-6 29 -18.5 46.5t-44.5 26.5t-91 11t-164 2h-74v-362h66q43 0 69.5 1t43 5t23.5 10t11 19l35 102h60l-31 -334h-60l-12 97q-2 10 -6 17 t-17.5 12t-41 7t-76.5 2h-64v-378h64q111 0 175 3t99 12t48.5 25.5t21.5 45.5l37 131h84zM725 852l-119 20q-88 -2 -156.5 -30.5t-116.5 -79.5t-72.5 -121t-24.5 -152q0 -193 108.5 -306t325.5 -113h55v782z" />
<glyph horiz-adv-x="970" d="M891 502q0 -72 -31 -128.5t-83 -95t-121.5 -59t-145.5 -20.5q-33 0 -67.5 1t-63.5 5v-92q0 -23 27 -29l118 -14l4 -70h-432l6 70l97 14q27 6 26 29v712q0 27 -26 29l-113 16l-6 68h442l-4 -68l-112 -16q-27 -2 -27 -27v-51h127q96 0 167.5 -21.5t120 -59.5t73 -88 t24.5 -105zM725 477q0 109 -68.5 169.5t-191.5 58.5h-86v-424q29 -8 63.5 -11.5t69.5 -3.5q98 0 155.5 55.5t57.5 155.5z" />
<glyph horiz-adv-x="1005" d="M408 1040h-48l193 377h192zM750 0l-68 111l-180 280l-140 4v-282q0 -23 27 -29l105 -14l4 -70h-418l6 70l98 14q25 6 25 29v712q0 23 -25 29l-98 16l-6 68h455q94 0 161.5 -19.5t112.5 -53.5t66.5 -79t21.5 -96q0 -98 -64.5 -166.5t-181.5 -103.5l203 -297 q16 -25 32.5 -33t33.5 -12l63 -8l4 -70h-237zM729 662q0 102 -63.5 154t-192.5 48l-111 -2v-393l148 -14q98 10 158.5 60.5t60.5 146.5z" />
<glyph horiz-adv-x="1005" d="M678 -262q0 -51 -20.5 -94t-53.5 -78t-74 -60.5t-79 -42.5l-35 33q53 23 95 65t42 109q0 39 -19.5 64.5t-42 39t-42 19.5t-19.5 8q0 41 26.5 68t80.5 27q59 0 100 -47.5t41 -110.5zM750 0l-68 111l-180 280l-140 4v-282q0 -23 27 -29l105 -14l4 -70h-418l6 70l98 14 q25 6 25 29v712q0 23 -25 29l-98 16l-6 68h455q94 0 161.5 -19.5t112.5 -53.5t66.5 -79t21.5 -96q0 -98 -64.5 -166.5t-181.5 -103.5l203 -297q16 -25 32.5 -33t33.5 -12l63 -8l4 -70h-237zM729 662q0 102 -63.5 154t-192.5 48l-111 -2v-393l148 -14q98 10 158.5 60.5 t60.5 146.5z" />
<glyph horiz-adv-x="1005" d="M516 1040h-78l-227 398h55l209 -252h4l209 252h55zM750 0l-68 111l-180 280l-140 4v-282q0 -23 27 -29l105 -14l4 -70h-418l6 70l98 14q25 6 25 29v712q0 23 -25 29l-98 16l-6 68h455q94 0 161.5 -19.5t112.5 -53.5t66.5 -79t21.5 -96q0 -98 -64.5 -166.5t-181.5 -103.5 l203 -297q16 -25 32.5 -33t33.5 -12l63 -8l4 -70h-237zM729 662q0 102 -63.5 154t-192.5 48l-111 -2v-393l148 -14q98 10 158.5 60.5t60.5 146.5z" />
</font>
</defs>
</svg>
