<?xml version="1.0" standalone="no"?>
<!DOCTYPE svg PUBLIC "-//W3C//DTD SVG 1.1//EN" "http://www.w3.org/Graphics/SVG/1.1/DTD/svg11.dtd" >
<svg xmlns="http://www.w3.org/2000/svg" xmlns:xlink="http://www.w3.org/1999/xlink" version="1.1">
<metadata></metadata>
<defs>
<font id="freighttext_proSBdIt" horiz-adv-x="1024" >
<font-face units-per-em="2048" ascent="1638" descent="-410" />
<missing-glyph horiz-adv-x="466" />
<glyph unicode="&#xfb00;" horiz-adv-x="1083" d="M895 1229q12 18 24.5 34.5t26.5 30.5q55 59 133 91t150 32q88 0 141 -46t53 -114q0 -53 -30.5 -91t-83.5 -38q-61 0 -97 49.5t-43 122.5l-114 -20q-12 -25 -24.5 -65.5t-24 -90t-21.5 -102.5t-20 -104h247l7 -109h-275l-106 -535q-20 -100 -44 -194t-51.5 -175 t-59.5 -144.5t-69 -100.5q-104 -104 -225 -104q-76 0 -129 41t-53 106q0 53 31.5 86t80.5 33q59 0 94.5 -46t41.5 -110l96 41q10 23 21.5 63t23.5 90t23.5 105t19.5 109l115 735h-338l-115 -598q-20 -100 -44 -194.5t-52.5 -174.5t-60 -143.5t-66.5 -99.5 q-49 -53 -113.5 -78t-130.5 -25q-76 0 -128 41t-52 107q0 53 30.5 85.5t79.5 32.5q59 0 94.5 -46t41.5 -109l110 39q8 23 19.5 62.5t24 89.5t22.5 105.5t20 108.5l133 787l-182 10l6 65l195 56q49 219 155 332q59 59 134 90.5t157 31.5q90 0 143.5 -44.5t57.5 -110.5z M831 1106q-16 -6 -34 -6q-59 0 -96 50t-46 122l-141 -27q-25 -55 -40 -140t-38 -187h338q12 53 26.5 100t30.5 88z" />
<glyph unicode="&#xfb01;" horiz-adv-x="1044" d="M301 211q-18 -100 -43 -194.5t-52.5 -174.5t-60 -143.5t-67.5 -99.5q-49 -53 -113.5 -78t-130.5 -25q-76 0 -128 41t-52 107q0 53 30.5 85.5t79.5 32.5q59 0 94.5 -46t41.5 -109l110 39q8 23 19.5 62.5t24 89.5t22.5 105.5t20 108.5l133 787l-182 10l6 65l195 56 q8 43 21.5 91t34 96t48 93t62.5 80q61 59 152 98t202 39q109 0 169 -51t60 -123q0 -53 -31.5 -90t-82.5 -37q-59 0 -98.5 51.5t-53.5 122.5l-205 -26q-31 -74 -52 -164t-38 -192h246q27 16 52.5 26t47.5 10q18 0 46 -13t54.5 -31.5t44 -38t15.5 -31.5l-194 -713l49 -18 l164 118l36 -39q-23 -39 -54.5 -77.5t-69 -70.5t-77.5 -51.5t-77 -19.5q-18 0 -45 14.5t-51.5 34t-42 39t-15.5 29.5l189 715l-17 8h-321z" />
<glyph unicode="&#xfb02;" horiz-adv-x="1067" d="M416 809l-115 -598q-18 -100 -43 -194.5t-52.5 -174.5t-60 -143.5t-67.5 -99.5q-49 -53 -113.5 -78t-130.5 -25q-76 0 -128 41t-52 107q0 53 30.5 85.5t79.5 32.5q59 0 94.5 -46t41.5 -109l114 39q10 23 22.5 62.5t25 89.5t23.5 105.5t19 108.5l119 787l-176 10l6 65 l195 56q8 43 21.5 91t34 96t48 93t62.5 80q61 59 152 98t202 39q86 0 145 -36l138 36l-275 -1300l47 -18l166 118l35 -39q-23 -39 -54.5 -77.5t-69.5 -70.5t-78 -51.5t-77 -19.5q-18 0 -44.5 14.5t-51 34t-41 39t-14.5 29.5l145 723h-323zM807 1151q-29 23 -47.5 62.5 t-28.5 86.5l-205 -26q-31 -74 -52 -164t-38 -192h324z" />
<glyph unicode="&#xfb03;" horiz-adv-x="1570" d="M942 1290q59 59 151.5 98t200.5 39q111 0 171.5 -51t60.5 -123q0 -53 -33 -90t-84 -37q-59 0 -97 51.5t-52 122.5l-207 -26q-31 -74 -51.5 -164t-36.5 -192h243q59 37 101 36q18 0 46.5 -13t54.5 -31.5t44.5 -38t13.5 -31.5l-192 -713l49 -18l164 118l35 -39 q-23 -39 -54.5 -77.5t-69.5 -70.5t-78 -51.5t-75 -19.5q-18 0 -44.5 14.5t-52.5 34t-43 39t-15 29.5l188 715l-16 8h-320l-106 -535q-20 -100 -44 -194t-51.5 -175t-59.5 -144.5t-69 -100.5q-104 -104 -225 -104q-76 0 -129 41t-53 106q0 53 31.5 86t80.5 33q59 0 94.5 -46 t41.5 -110l96 41q10 23 21.5 63t23.5 90t23.5 105t19.5 109l115 735h-338l-115 -598q-18 -100 -43 -194.5t-52.5 -174.5t-60 -143.5t-67.5 -99.5q-49 -53 -113.5 -78t-130.5 -25q-76 0 -128 41t-52 107q0 53 30.5 85.5t79.5 32.5q59 0 94.5 -46t41.5 -109l110 39 q8 23 19.5 62.5t24 89.5t22.5 105.5t20 108.5l133 787l-182 10l6 65l195 56q8 43 21.5 91t34 95t47 90t61.5 78q59 57 127.5 92t177.5 35q86 0 142 -40t73 -93zM821 1122q-57 0 -94 49.5t-49 120.5l-158 -26q-53 -150 -84 -348h338q10 61 23.5 111t31.5 93h-8z" />
<glyph unicode="&#xfb04;" horiz-adv-x="1595" d="M942 1290q59 59 151.5 98t200.5 39q86 0 146 -36l139 36l-276 -1300l49 -18l164 118l34 -39q-20 -39 -53 -77.5t-70.5 -70.5t-77.5 -51.5t-75 -19.5q-18 0 -45 14.5t-51.5 34t-42 39t-15.5 29.5l146 723h-322l-106 -535q-20 -100 -44 -194t-51.5 -175t-59.5 -144.5 t-69 -100.5q-104 -104 -225 -104q-76 0 -129 41t-53 106q0 53 31.5 86t80.5 33q59 0 94.5 -46t41.5 -110l96 41q10 23 21.5 63t23.5 90t23.5 105t19.5 109l115 735h-338l-115 -598q-18 -100 -43 -194.5t-52.5 -174.5t-60 -143.5t-67.5 -99.5q-49 -53 -113.5 -78t-130.5 -25 q-76 0 -128 41t-52 107q0 53 30.5 85.5t79.5 32.5q59 0 94.5 -46t41.5 -109l110 39q8 23 19.5 62.5t24 89.5t22.5 105.5t20 108.5l133 787l-182 10l6 65l195 56q8 43 21.5 91t34 95t47 90t61.5 78q59 57 127.5 92t177.5 35q86 0 142 -40t73 -93zM1335 1151q-29 23 -47 62.5 t-28 86.5l-207 -26q-31 -74 -51.5 -164t-36.5 -192h323zM821 1122q-57 0 -94 49.5t-49 120.5l-158 -26q-53 -150 -84 -348h338q10 61 23.5 111t31.5 93h-8z" />
<glyph horiz-adv-x="0" />
<glyph horiz-adv-x="682" />
<glyph horiz-adv-x="0" />
<glyph horiz-adv-x="0" />
<glyph unicode=" "  horiz-adv-x="466" />
<glyph unicode="&#x09;" horiz-adv-x="466" />
<glyph unicode="&#xa0;" horiz-adv-x="466" />
<glyph unicode="!" horiz-adv-x="591" d="M307 406q-4 -12 -24.5 -11.5t-20.5 15.5l12 807q2 43 30 68.5t81 25.5h8q74 0 104.5 -30t18.5 -79zM381 102q0 -53 -37 -93t-94 -40q-59 0 -97 40t-38 93t37.5 91t97.5 38q57 0 94 -38t37 -91z" />
<glyph unicode="&#x22;" horiz-adv-x="768" d="M492 825h-84l223 498h2l176 -61zM152 825h-86l223 498h4l174 -61z" />
<glyph unicode="#" horiz-adv-x="1175" d="M918 821l-99 -366h260l-2 -90h-282l-103 -377h-88l101 377h-336l-103 -377h-90l103 377h-259v90h283l98 366h-260l2 88h281l104 383h90l-102 -383h334l104 383h88l-102 -383h260v-88h-282zM827 821h-335l-99 -366h336z" />
<glyph unicode="$" horiz-adv-x="1073" d="M319 -340h-88l86 315q-80 8 -146.5 23.5t-127.5 34.5l31 381l106 -2l60 -295q23 -10 49 -19.5t57 -15.5l129 483q-70 37 -127 75t-98 84t-63.5 103.5t-22.5 130.5q0 76 37 139.5t99 109.5t143 73t169 27h31.5t30.5 -2l55 206h88l-29 -106l-28 -107q41 -4 79 -12t81 -18 l16 4t17.5 4t19.5 6q23 6 55 14l-53 -405l-111 2l-35 264q-23 10 -47 18.5t-51 16.5l-117 -432q66 -37 125.5 -76t105.5 -85t72.5 -103.5t26.5 -133.5q0 -90 -38 -161.5t-104.5 -123.5t-157.5 -80t-195 -28h-46zM430 68q12 -2 24.5 -2h26.5q123 0 188.5 59t65.5 154 q2 80 -49 136t-135 109zM649 1206q-16 0 -31.5 1t-31.5 1q-41 0 -80 -12t-68.5 -33.5t-47 -52.5t-17.5 -68q-2 -80 43 -135t123 -106z" />
<glyph unicode="%" horiz-adv-x="1527" d="M803 1024q0 -80 -30 -149.5t-80 -122t-118.5 -82t-148.5 -29.5q-66 0 -124 21.5t-101 61.5t-69 96.5t-26 125.5q0 78 30 146.5t80 121t117.5 82t145.5 29.5q68 0 126.5 -20.5t102.5 -59.5t69.5 -95t25.5 -126zM207 -31h-121l1290 1340h121zM1487 336q0 -80 -30 -149.5 t-81 -122t-119.5 -82t-146.5 -29.5q-137 0 -226 80t-89 221q0 80 28.5 149.5t78.5 122t117.5 82t147.5 29.5q66 0 124.5 -20.5t101.5 -59.5t68.5 -95t25.5 -126zM700 1004q0 102 -63.5 166.5t-165.5 64.5q-57 0 -105.5 -23.5t-84 -63.5t-56 -91t-20.5 -107 q0 -102 66.5 -162.5t162.5 -60.5q57 0 105.5 21.5t84 59.5t56 88.5t20.5 107.5zM1389 324q0 49 -18.5 90t-49.5 70.5t-73 46t-89 16.5q-57 0 -105 -23.5t-84 -63.5t-56.5 -91.5t-20.5 -106.5q0 -102 64.5 -162.5t160.5 -60.5q57 0 106.5 23.5t86.5 62.5t57.5 90.5 t20.5 108.5z" />
<glyph unicode="&#x26;" horiz-adv-x="1320" d="M760 248q-115 -133 -224.5 -206t-244.5 -73q-61 0 -113.5 24.5t-90.5 67.5t-59.5 101.5t-21.5 124.5q0 86 33 151.5t84 113.5t115.5 79t130.5 43v2q-59 57 -99.5 124.5t-40.5 160.5q0 82 35 146t93.5 109.5t133 69t154.5 23.5q74 0 136.5 -18.5t108.5 -53.5t72.5 -84 t26.5 -111q0 -129 -97 -209.5t-286 -125.5v-2l264 -287h2l232 203v4q-47 16 -69.5 46.5t-22.5 67.5q0 53 40 85t95 32q61 0 100 -41t39 -96q0 -78 -62.5 -147.5t-201.5 -143.5l-102 -59l307 -334l-219 -76l-246 289h-2zM786 1026q0 82 -39.5 141.5t-123.5 59.5 q-88 0 -138.5 -58.5t-50.5 -144.5q0 -51 9.5 -89t24.5 -68.5t36.5 -57.5t48.5 -55q119 59 176 124.5t57 147.5zM414 631q-90 -55 -147.5 -128t-57.5 -165t52 -145.5t128 -53.5q121 0 324 156z" />
<glyph unicode="'" horiz-adv-x="428" d="M152 825h-86l225 498h2l174 -61z" />
<glyph unicode="(" horiz-adv-x="808" d="M733 -520q-84 41 -179 125t-177 204.5t-136.5 276.5t-54.5 342t54.5 343t136.5 277.5t177 203.5t179 124l55 -76q-78 -41 -163.5 -120.5t-158.5 -192.5t-121 -254t-48 -305t48 -305t121 -254t159 -191.5t163 -119.5l-55 -78v0z" />
<glyph unicode=")" horiz-adv-x="808" d="M20 -444q78 41 164 120.5t159 192.5t121 254t48 305t-48 305t-121 254t-159 193t-164 120l58 76q82 -41 177 -124t177 -203.5t136.5 -277.5t54.5 -343t-54.5 -342t-136.5 -276.5t-177 -204.5t-177 -125z" />
<glyph unicode="*" horiz-adv-x="720" d="M680 879l-199 77l-20 -26l135 -164l-31 -121l-43 -12l-98 78l10 213l-31 8l-108 -176l-127 -13l-29 37l45 121l201 53v39l-201 58l-47 116l29 37l129 -10l108 -180l33 10l-6 211l94 78l45 -15l29 -120l-137 -164l20 -27l199 76l104 -70v-45z" />
<glyph unicode="+" horiz-adv-x="983" d="M549 424v-377h-113v377h-375l7 113h368v374h113v-374h366l7 -113h-373z" />
<glyph unicode="," horiz-adv-x="475" d="M346 63q0 -68 -32.5 -127t-85 -110t-118 -95t-130.5 -79l-50 45q41 23 81 53.5t71 64t49.5 71.5t18.5 77q0 43 -23 76t-48.5 55.5t-48 33.5t-22.5 13q0 49 45 85t105 36q39 0 72.5 -15.5t59 -43t41 -63.5t15.5 -77z" />
<glyph unicode="-" horiz-adv-x="677" d="M68 432l6 117h534l6 -117h-546z" />
<glyph unicode="." horiz-adv-x="475" d="M342 117q0 -59 -41 -103.5t-104 -44.5q-66 0 -109 44t-43 104q0 59 43 102t109 43q63 0 104 -43t41 -102z" />
<glyph unicode="/" horiz-adv-x="571" d="M453 1362h102l-440 -1796h-103z" />
<glyph unicode="0" horiz-adv-x="1042" d="M952 555q0 -111 -33.5 -216.5t-95 -187t-149.5 -132t-195 -50.5q-86 0 -158.5 30t-127 87t-85 139t-30.5 187q0 111 33.5 216t96 187t149.5 132t196 50q86 0 158.5 -29.5t126 -87t84 -139.5t30.5 -186zM803 555q0 68 -19.5 123t-54.5 95t-82 62.5t-100 22.5 q-86 0 -145.5 -44t-98.5 -111.5t-56.5 -145.5t-17.5 -145q0 -68 19.5 -124.5t53.5 -96t81 -61t100 -21.5q86 0 146.5 44t98.5 110.5t56.5 145t18.5 146.5z" />
<glyph unicode="1" horiz-adv-x="778" d="M47 0l10 78l144 22q29 4 40 17.5t13 29.5l92 684l-221 31l14 66l430 63l-112 -844q-2 -16 6 -29.5t35 -17.5l147 -22l2 -78h-600z" />
<glyph unicode="2" horiz-adv-x="946" d="M745 0h-727l7 137q119 82 221 150.5t176 130t117 120t45 119.5q2 88 -55.5 138.5t-147.5 52.5q-66 0 -136.5 -32t-129.5 -81l-17 53q39 43 89.5 80t106.5 65t115.5 44t116.5 14q59 0 112.5 -18.5t93.5 -52t61.5 -80.5t19.5 -109q-2 -86 -54 -157.5t-137 -138t-196 -131 t-229 -136.5l-2 -10h49q137 0 220 3t132 13t74.5 29.5t46.5 52.5l51 82h88z" />
<glyph unicode="3" horiz-adv-x="874" d="M762 68q0 -102 -53.5 -188.5t-134 -151t-180 -100.5t-191.5 -36q-35 0 -84 8.5t-93 27t-75 49t-31 75.5q0 47 33 82t80 35q35 0 63.5 -16.5t48 -42t29.5 -58.5t10 -63q31 -6 58 -6q63 0 118.5 25.5t94.5 68.5t61.5 100t22.5 119q0 111 -65.5 178.5t-176.5 67.5 q-37 0 -75 -8.5t-72 -22.5l-23 59q61 33 132 74t132.5 90t102.5 107.5t41 124.5q0 86 -54.5 134t-138.5 48q-74 0 -142.5 -35t-133.5 -78l-17 56q86 82 196.5 142t239.5 60q55 0 108.5 -15t95.5 -47t67.5 -78t25.5 -108q0 -74 -41 -135t-101 -112.5t-130 -90t-129 -65.5v-6 q47 10 90 10q61 0 113.5 -20.5t92.5 -57.5t62.5 -88t22.5 -112z" />
<glyph unicode="4" horiz-adv-x="1026" d="M739 70l-57 -447h-197l58 447h-561l-2 86l800 852l82 -13l-106 -819h239l-28 -106h-228zM639 719h-10l-510 -543h440z" />
<glyph unicode="5" horiz-adv-x="919" d="M844 776h-494l-94 -244q80 -31 165 -74.5t156.5 -103t117.5 -137.5t46 -176q0 -104 -45 -188t-118.5 -142.5t-168 -90.5t-190.5 -32q-35 0 -86 7.5t-98 26t-80 49t-33 77.5q0 49 34 84t81 35q37 0 63.5 -15.5t45 -40t27.5 -56t9 -64.5q39 -12 82 -13q57 0 108.5 19.5 t91.5 54.5t63.5 83t23.5 108q0 86 -47 153.5t-117 121.5t-150.5 93t-146.5 68l232 588h555z" />
<glyph unicode="6" horiz-adv-x="1083" d="M993 481q0 -109 -43 -202t-113.5 -161.5t-158.5 -107.5t-176 -39q-92 0 -169 35t-132.5 98.5t-86 152.5t-30.5 196q0 174 88 329.5t232.5 277.5t329 198.5t378.5 95.5l29 -70q-317 -70 -530.5 -233.5t-313.5 -409.5l22 -2q74 98 171.5 153.5t189.5 55.5q61 0 117.5 -23.5 t100.5 -70.5t69.5 -116t25.5 -157zM782 459q0 63 -16 115.5t-44 89t-63.5 56t-72.5 19.5q-92 0 -159 -58t-110 -138q-10 -33 -19 -77t-9 -91q0 -68 14 -127.5t42 -102.5t68 -68.5t93 -25.5q57 0 107.5 33t88 88t59 129t21.5 158z" />
<glyph unicode="7" horiz-adv-x="950" d="M152 -377h-132l750 1159v9h-205q-106 0 -165.5 -1.5t-91.5 -7.5t-44 -17t-24 -30l-76 -123h-74l94 355h760l-2 -90z" />
<glyph unicode="8" horiz-adv-x="1052" d="M946 342q0 -94 -38 -163.5t-100.5 -116t-143 -69t-164.5 -22.5q-78 0 -153 21.5t-134 64.5t-96 105.5t-37 142.5q0 70 25.5 125t68.5 95t99.5 68t117.5 44v4q-86 51 -139 125t-55 176q0 86 33.5 153.5t91 114.5t133 72t159.5 25q72 0 138.5 -21.5t119 -61.5t83 -99.5 t30.5 -135.5q0 -66 -22.5 -115t-59.5 -85.5t-88 -62.5t-108 -44l2 -4q47 -29 90 -62.5t75.5 -74.5t52 -90.5t19.5 -108.5zM788 991q0 47 -12 91t-36.5 78t-63.5 54.5t-90 20.5q-92 0 -144.5 -56.5t-52.5 -148.5q0 -53 22.5 -98t59.5 -83t83 -69.5t91 -58.5 q78 47 110.5 114.5t32.5 155.5zM752 254q0 61 -29 112.5t-74 93.5t-97 75.5t-99 62.5q-78 -51 -126 -125t-48 -172q0 -113 67.5 -183.5t183.5 -70.5q98 0 159 51.5t63 155.5z" />
<glyph unicode="9" horiz-adv-x="1083" d="M86 483q0 109 44 202t113.5 161.5t157.5 107.5t179 39q90 0 166.5 -34.5t132 -98t86 -153t30.5 -195.5q0 -174 -88 -329.5t-232.5 -277.5t-328.5 -199t-379 -95l-26 70q317 70 529 233.5t312 404.5h-22q-74 -96 -171 -151t-190 -55q-61 0 -117.5 24.5t-100.5 71.5 t-69.5 115.5t-25.5 158.5zM297 506q0 -63 16.5 -116.5t44 -91.5t63.5 -58.5t73 -20.5q92 0 158.5 58.5t109.5 138.5q10 39 19.5 83t9.5 91q0 68 -14.5 127t-42 103t-68.5 69.5t-93 25.5q-57 0 -107 -32.5t-88 -88t-59.5 -130t-21.5 -158.5z" />
<glyph unicode=":" horiz-adv-x="475" d="M426 739q0 -59 -41 -103t-104 -44q-66 0 -108 44t-42 103t42 102.5t108 43.5q63 0 104 -43.5t41 -102.5zM342 117q0 -59 -41 -103.5t-104 -44.5q-66 0 -109 44t-43 104q0 59 43 102t109 43q63 0 104 -43t41 -102z" />
<glyph unicode=";" horiz-adv-x="475" d="M428 739q0 -59 -41 -103t-104 -44q-66 0 -109 44t-43 103t43 102.5t109 43.5q63 0 104 -43.5t41 -102.5zM346 57q0 -66 -32.5 -125t-85 -111t-118 -95t-130.5 -78l-50 43q41 23 81 53.5t71 65t49.5 72.5t18.5 77q0 43 -23 76t-48.5 54.5t-48 32.5t-22.5 13q0 49 45 85 t105 36q78 0 133 -57.5t55 -141.5z" />
<glyph unicode="&#x3c;" horiz-adv-x="983" d="M55 453v57l828 385l26 -102l-667 -308v-6l667 -309l-26 -102z" />
<glyph unicode="=" horiz-adv-x="983" d="M88 600l-6 113h819l-6 -113h-807zM82 248l6 112h807l6 -112h-819z" />
<glyph unicode="&#x3e;" horiz-adv-x="983" d="M100 68l-26 102l667 309v6l-667 308l26 102l828 -385v-57z" />
<glyph unicode="?" horiz-adv-x="780" d="M766 956q0 -76 -23.5 -126t-62.5 -82.5t-86 -53t-94 -35.5q-37 -12 -72 -23t-61.5 -26.5t-42 -37t-15.5 -54.5q0 -39 18.5 -72.5t49.5 -68.5l-82 4q-16 14 -36.5 35.5t-38 49.5t-29 58.5t-11.5 63.5q0 59 25.5 100t65.5 69.5t89.5 47t98.5 33.5q39 12 73.5 22t61.5 23.5 t42 31t15 39.5q0 31 -24.5 60.5t-66.5 52.5t-99.5 36t-122.5 13q-35 0 -63.5 -3t-53.5 -7q-23 25 -22 65q0 57 45 96.5t137 39.5q80 0 149.5 -29t122 -77t83 -111.5t30.5 -133.5zM391 102q0 -53 -37 -93t-94 -40t-96 40t-39 93t39 91t96 38t94 -38t37 -91z" />
<glyph unicode="@" horiz-adv-x="1746" d="M985 256q0 6 9.5 42t20.5 79t21.5 81t12.5 44h-27q-47 -82 -91 -154t-87 -126t-87 -86t-87 -32q-45 0 -85 18.5t-70 47.5t-47 66.5t-17 76.5q0 61 18 136t51 150t75 142.5t89 114.5q53 53 114.5 83t116.5 30q145 0 191 -156h22l50 135h143l-121 -340l-53 -344 q-8 -41 21.5 -69.5t97.5 -28.5q66 0 122 31.5t99 89t69.5 136.5t32.5 173q8 141 -40 259t-137 203t-213 133t-271 52t-278.5 -50t-232 -150.5t-162.5 -226.5t-69 -275q-8 -164 41 -299.5t141.5 -231.5t219.5 -149.5t272 -53.5q66 0 130.5 11.5t125.5 27.5l23 -75 q-76 -25 -141.5 -36t-143.5 -11q-162 0 -304 60t-246.5 167.5t-162 258t-49.5 329.5q8 166 77 311t182.5 252.5t263 167t319.5 55.5q164 -4 304 -58.5t241.5 -150.5t156 -228t45.5 -292q-6 -121 -47 -218t-105.5 -165t-146.5 -104.5t-170 -36.5q-80 0 -128 18.5t-71.5 46 t-28.5 59t1 60.5zM1063 725q-10 20 -32.5 44t-50.5 43t-58.5 32.5t-61.5 13.5q-47 0 -72 -24q-25 -25 -51 -82.5t-47.5 -128t-36 -142t-14.5 -125.5q0 -59 34 -89.5t66 -30.5q23 0 56.5 34.5t72.5 89t79 120t77 126.5q6 10 12 28.5t12.5 38t10.5 35t4 17.5z" />
<glyph unicode="A" horiz-adv-x="1239" d="M629 0l6 78l92 14q45 8 51 36t-4 81l-37 235h-381l-51 -135q-78 -188 19 -213l82 -18l6 -78h-471l6 78l67 20q27 8 47.5 18.5t39 32t39 59.5t48.5 99l392 873v73l239 56l209 -1135q8 -33 20.5 -50.5t53.5 -25.5l92 -20l6 -78h-571zM639 1081h-14l-230 -544h328z" />
<glyph unicode="B" horiz-adv-x="1214" d="M1133 356q0 -131 -97 -223q-63 -66 -171.5 -99.5t-241.5 -33.5h-605l7 76l106 22q29 6 39 18.5t14 30.5l133 986q4 18 -4 29.5t-37 19.5l-98 22l-6 76h551q117 0 200 -22.5t135 -62.5t76.5 -93t24.5 -115q0 -66 -27.5 -119t-72.5 -94t-105.5 -69.5t-124.5 -45.5 q6 -6 7 -10q129 -25 213 -100.5t84 -192.5zM877 342q0 63 -23 113.5t-60.5 85t-90 54t-109.5 19.5h-113l-67 -503l127 -27h57q61 0 112.5 20.5t88.5 55.5t57.5 82t20.5 100zM913 948q0 119 -82.5 183.5t-216.5 64.5h-51l-69 -498h122q61 0 115.5 16.5t94.5 47.5t63.5 78 t23.5 108z" />
<glyph unicode="C" horiz-adv-x="1298" d="M1102 0l-113 20q-61 -20 -141 -36.5t-156 -16.5q-147 0 -257.5 42t-184.5 118t-111 182.5t-37 235.5q0 150 59.5 293t168.5 252q100 100 229 159.5t283 59.5q41 0 85 -4.5t84 -10.5t73.5 -14t56.5 -16l162 36l-60 -438h-117l-34 283q-47 31 -104.5 50t-135.5 19 q-98 0 -188.5 -51t-159 -143t-109.5 -219t-41 -277q0 -125 35 -219t98 -158q41 -41 100.5 -63.5t127.5 -22.5q117 0 219 56l133 291h131z" />
<glyph unicode="D" horiz-adv-x="1376" d="M1327 719q0 -147 -49 -269t-158 -229q-96 -98 -253.5 -159.5t-358.5 -61.5h-490l7 76l106 22q29 6 39 18.5t14 30.5l133 986q4 18 -4 29.5t-37 19.5l-98 22l-6 76h528q150 0 266.5 -41t196.5 -114.5t122 -177t42 -228.5zM1073 725q0 102 -24.5 188t-75.5 148.5t-130 97.5 t-186 35h-96l-145 -1077l139 -31q111 4 206 48t163.5 125t108.5 197.5t40 268.5z" />
<glyph unicode="E" horiz-adv-x="1234" d="M1059 0h-1041l7 76l106 22q29 6 39 18.5t14 30.5l135 986q4 18 -4 29.5t-36 19.5l-99 22l-6 76h1055l-53 -401h-121l-21 184q-6 45 -19.5 71.5t-54 40t-118.5 16.5t-209 3h-72l-67 -502h38q51 0 86 1t57.5 7.5t36 17.5t23.5 30l68 137h92l-109 -467h-90l6 129 q0 16 -6 27.5t-25.5 18.5t-56 10t-98.5 3h-35l-69 -520h67q139 0 222 4t131.5 17.5t71 40t42.5 69.5l74 170h129z" />
<glyph unicode="F" horiz-adv-x="1193" d="M1030 879l-22 184q-6 45 -20.5 71.5t-55.5 40t-119 16.5t-209 3h-43l-69 -520h55q51 0 85 1t57.5 6t36.5 16.5t24 31.5l67 139h92l-110 -469h-88l10 131q0 16 -6 27.5t-27.5 18t-59.5 9.5t-100 3h-49l-59 -441q-6 -39 41 -49l106 -22l6 -76h-555l7 76l106 22 q29 6 39 18.5t14 30.5l135 986q4 18 -4 29.5t-36 19.5l-99 22l-6 76h1030l-53 -401h-121z" />
<glyph unicode="G" horiz-adv-x="1396" d="M1333 498l-98 -23q-49 -12 -55 -49l-47 -293l118 -20l4 -64q-47 -12 -111.5 -26.5t-138 -26.5t-151.5 -20.5t-152 -8.5q-152 0 -264 42t-187 118t-112 182.5t-37 235.5q0 150 59.5 293t168.5 252q100 100 234 159.5t288 59.5q41 0 85 -4.5t84 -10.5t73.5 -14t56.5 -16 l162 36l-60 -434h-116l-35 279q-47 31 -109.5 50t-140.5 19q-98 0 -188.5 -51t-159 -143t-109.5 -219t-41 -277q0 -125 35 -219t98 -158q41 -41 101.5 -63.5t130.5 -22.5q98 0 184 35l49 330q4 23 -6 33t-39 16l-104 23l-6 75h542z" />
<glyph unicode="H" horiz-adv-x="1497" d="M813 0l6 76l105 22q29 6 39 16.5t14 32.5l63 461h-557l-61 -461q-6 -39 41 -49l100 -22l6 -76h-546l6 76l106 22q47 10 53 49l134 986q4 18 -4.5 29.5t-36.5 19.5l-99 22l-6 76h545l-6 -76l-107 -22q-47 -12 -53 -49l-57 -433h555l59 433q4 23 -4 32t-37 17l-98 22l-6 76 h546l-8 -76l-106 -22q-47 -12 -53 -49l-134 -986q-6 -39 41 -49l99 -22l6 -76h-545z" />
<glyph unicode="I" horiz-adv-x="749" d="M25 0l6 76l127 22q47 10 53 49l133 986q4 18 -4 30.5t-37 18.5l-119 22l-6 76h586l-6 -76l-127 -22q-47 -10 -53 -49l-134 -986q-6 -39 41 -49l121 -22l6 -76h-587z" />
<glyph unicode="J" horiz-adv-x="868" d="M911 1204l-120 -22q-47 -8 -54 -49l-82 -619q-39 -289 -156.5 -418t-297.5 -129q-51 0 -95.5 10.5t-78 31t-52 49t-18.5 65.5q0 45 33 75.5t82 30.5q59 0 104 -38.5t55 -149.5h2q33 12 59.5 35.5t48 71t39 123t32.5 190.5l92 672q6 41 -41 49l-141 22l-5 76h601z" />
<glyph unicode="K" horiz-adv-x="1341" d="M772 0l6 76l62 20q37 12 8 62l-242 456q-10 -10 -22 -18q-10 -8 -23.5 -19.5t-25.5 -21.5q-31 -27 -70 -59l-45 -349q-6 -39 41 -49l98 -22l6 -76h-547l7 76l106 22q29 6 39 18.5t14 30.5l133 986q4 18 -4 29.5t-37 19.5l-98 22l-6 76h547l-8 -76l-105 -22 q-47 -12 -53 -49l-70 -512l367 337q74 72 117 115t43 68q-2 18 -13.5 28.5t-42.5 20.5l-53 16l-6 76h520l-6 -76l-43 -8q-61 -12 -121.5 -49t-146.5 -107l-324 -286l324 -572q16 -29 29.5 -46t25.5 -26.5t26.5 -14.5t32.5 -9l48 -12l4 -76h-492z" />
<glyph unicode="L" horiz-adv-x="1163" d="M991 0h-973l7 76l106 22q29 6 39 18.5t14 30.5l131 986q6 39 -41 49l-100 22l-6 76h561l-6 -76l-119 -22q-29 -6 -39 -18.5t-14 -30.5l-139 -1047h59q117 0 188.5 5t113.5 19.5t64.5 40t41.5 66.5l86 199h125z" />
<glyph unicode="M" horiz-adv-x="1699" d="M1040 0l7 76l112 24q16 4 28.5 19.5t23 57.5t19.5 116t21 192l68 641h-16l-506 -1085h-197l-147 1104h-15l-106 -651q-23 -137 -34 -215t-12 -116t6 -49.5t21 -13.5l113 -24l6 -76h-448l6 76l112 24q16 4 29.5 14.5t28 48.5t32 114.5t39.5 216.5l105 639q4 18 -3 32.5 t-30 18.5l-121 20l-6 76h488l131 -987h16l459 987h467l-8 -76l-125 -22q-49 -8 -54 -52l-67 -645q-14 -127 -19.5 -200.5t-2.5 -113.5t13.5 -53.5t26.5 -17.5l107 -24l6 -76h-574z" />
<glyph unicode="N" horiz-adv-x="1466" d="M1507 1204l-98 -20q-27 -6 -46.5 -20.5t-35.5 -57.5t-30.5 -121t-30.5 -209l-109 -792h-153l-566 1067h-12l-74 -547q-18 -133 -25.5 -211t-4 -120t17.5 -57.5t41 -19.5l102 -20l6 -76h-483l6 76l99 20q27 6 46 21.5t34.5 58.5t30 121t30.5 207l72 526q10 72 -2.5 104.5 t-53.5 45.5l-90 24l-6 76h403l510 -971h13l65 467q18 135 26.5 214t6.5 120t-17.5 55.5t-41.5 18.5l-103 20l-6 76h485z" />
<glyph unicode="O" horiz-adv-x="1443" d="M1386 713q0 -160 -57 -301.5t-162 -245.5q-90 -92 -209.5 -144.5t-265.5 -52.5q-131 0 -239.5 44t-187.5 123t-122 188.5t-43 238.5q0 147 47.5 279.5t139.5 236.5t220 166t288 62q131 0 239.5 -44t186 -123t121.5 -188.5t44 -238.5zM1137 758q0 104 -26 201.5t-91 162.5 q-43 43 -101.5 67.5t-136.5 24.5t-140 -33.5t-110.5 -90t-82 -129t-55 -150.5t-32 -153.5t-10.5 -137.5q0 -104 24.5 -200.5t90.5 -161.5q43 -43 101.5 -67.5t138.5 -24.5q78 0 140 33.5t109.5 90t81 129t56 149.5t33 152t10.5 138z" />
<glyph unicode="P" horiz-adv-x="1177" d="M1165 924q0 -98 -44 -175t-119.5 -129.5t-174 -79t-206.5 -26.5q-37 0 -76 4t-74 8l-51 -379q-6 -41 41 -49l137 -22l4 -76h-584l7 76l106 22q29 6 39 18.5t14 30.5l135 986q4 18 -4 29.5t-36 19.5l-99 22l-6 76h520q106 0 193.5 -25.5t149 -71.5t95 -111.5t33.5 -147.5z M924 922q0 61 -21.5 112t-58.5 87t-88 55.5t-113 19.5h-80l-80 -584q61 -16 121 -16q141 0 230.5 85t89.5 241z" />
<glyph unicode="Q" horiz-adv-x="1447" d="M1315 -362q-47 -12 -117 -21.5t-162 -9.5q-111 0 -192.5 17.5t-147 63.5t-120 123.5t-107.5 196.5q-170 61 -269.5 209t-99.5 346q0 147 48.5 279.5t136.5 234.5q92 106 221 168t289 62q131 0 239.5 -44t186 -123t121.5 -188.5t44 -238.5q0 -160 -56 -301.5t-161 -245.5 q-76 -78 -180 -130t-229 -63q43 -76 96 -128t118.5 -83.5t149.5 -45t189 -11.5zM1135 760q0 102 -26 200.5t-89 163.5q-43 43 -101.5 68t-138.5 25q-117 0 -198.5 -74t-133 -181.5t-74 -228.5t-22.5 -215q0 -104 24.5 -200.5t90.5 -161.5q43 -43 101.5 -68t138.5 -25 q117 0 198.5 74t131.5 181.5t74 227.5t24 214z" />
<glyph unicode="R" horiz-adv-x="1269" d="M868 0l-69 152l-197 405l-125 6l-57 -416q-6 -35 41 -49l106 -22l6 -76h-553l7 76l104 22q29 6 39 18.5t14 30.5l131 986q6 35 -41 49l-98 22l-6 76h573q109 0 191 -23.5t137 -64.5t83 -97.5t28 -119.5q0 -147 -97.5 -242.5t-263.5 -140.5l219 -395q18 -35 32.5 -54.5 t28 -31t27 -15.5t25.5 -8l45 -12l6 -76h-336zM924 934q0 121 -75 191.5t-204 70.5h-86l-70 -534l138 -27q129 16 213 90t84 209z" />
<glyph unicode="S" horiz-adv-x="1060" d="M944 362q0 -90 -38 -161.5t-104.5 -123.5t-157.5 -80t-195 -28q-125 0 -222.5 18.5t-183.5 45.5l31 381l106 -2l60 -295q47 -23 105 -36t136 -13q123 0 187.5 58t64.5 153q0 49 -19.5 88t-55 72.5t-84 65.5t-105.5 64q-72 41 -129 80t-96 83t-59.5 98.5t-20.5 127.5 q0 76 37 139.5t99 109.5t143 73t169 27q53 0 93 -3.5t76 -8.5t69 -12t70 -15l16 4t17.5 4t19.5 6q23 6 55 14l-53 -405l-111 2l-35 264q-53 23 -112.5 36t-130.5 13q-41 0 -80 -11t-68.5 -32.5t-47 -51.5t-17.5 -67q0 -53 19.5 -93t55 -75.5t87 -67.5t112.5 -67t115.5 -71.5 t94.5 -80.5t63.5 -99.5t23.5 -127.5z" />
<glyph unicode="T" horiz-adv-x="1292" d="M1161 864l-22 185q-6 43 -18.5 71.5t-42 44t-82 22.5t-136.5 7h-8l-137 -1047q-6 -41 41 -49l131 -22l6 -76h-612l6 76l141 22q47 8 53 49l135 1047h-4q-80 0 -132 -4t-86 -17.5t-55.5 -40t-41.5 -69.5l-78 -199h-129l90 416h1149l-55 -416h-113z" />
<glyph unicode="U" horiz-adv-x="1456" d="M1505 1204l-98 -20q-27 -6 -45.5 -20.5t-33.5 -57.5t-30.5 -121t-33.5 -209l-50 -362q-16 -117 -63 -202t-116.5 -140.5t-159 -82t-193.5 -26.5q-102 0 -189 24.5t-150.5 75t-99.5 126t-36 178.5q0 29 2 59.5t6 56.5l90 650q4 18 -4 29.5t-37 19.5l-98 22l-6 76h547 l-7 -76l-106 -22q-47 -12 -53 -49l-88 -635q-4 -23 -7.5 -53.5t-3.5 -65.5q0 -147 87 -220t229 -73q70 0 129 18.5t106 60.5t79 109.5t46 167.5l45 334q18 133 26.5 212t5.5 121t-17.5 56.5t-40.5 18.5l-103 20l-6 76h483z" />
<glyph unicode="V" horiz-adv-x="1230" d="M1352 1202l-72 -20q-27 -8 -46.5 -18.5t-37.5 -32t-39.5 -59.5t-50.5 -99l-453 -973h-196l-219 1106q-6 33 -19.5 50.5t-54.5 25.5l-92 20l-6 78h571l-6 -78l-94 -14q-43 -8 -49.5 -36t4.5 -81l147 -858h12l359 815q59 135 -39 156l-78 18l-6 78h471z" />
<glyph unicode="W" horiz-adv-x="1841" d="M1972 1202l-71 -22q-29 -8 -51.5 -20.5t-44 -35t-42 -59.5t-45.5 -92l-391 -973h-209l-121 801h-12l-358 -801h-209l-180 1106q-6 33 -19.5 50.5t-54.5 25.5l-94 20l-7 78h578l-6 -78l-96 -14q-39 -8 -47.5 -37t2.5 -80l110 -864l10 -2l336 766l-20 135q-6 33 -20.5 50.5 t-55.5 25.5l-94 20l-6 78h575l-6 -78l-96 -14q-41 -8 -48.5 -36t1.5 -81l123 -862l12 -2l297 790q35 82 29.5 128t-56.5 59l-76 18l-6 78h475z" />
<glyph unicode="X" horiz-adv-x="1298" d="M680 0l6 76l76 14q49 8 53 45t-37 115l-151 299h-13l-256 -316q-98 -111 21 -139l70 -18l8 -76h-498l6 76l66 16q53 14 102 51t107 103l331 383l-227 403q-41 70 -65.5 102.5t-63.5 45.5l-78 24l-4 76h563l-8 -76l-76 -14q-47 -8 -52 -45t38 -115l125 -252h12l228 279 q43 51 39.5 82.5t-62.5 46.5l-70 18l-6 76h488l-6 -76l-66 -16q-53 -14 -109.5 -57.5t-111.5 -108.5l-279 -324l254 -456q39 -70 62.5 -99.5t64.5 -42.5l76 -24l4 -76h-561z" />
<glyph unicode="Y" horiz-adv-x="1218" d="M1331 1202l-53 -14q-27 -6 -51.5 -16.5t-49 -30t-53 -51t-63.5 -82.5l-318 -465l-53 -396q-6 -39 41 -49l131 -22l4 -76h-614l10 76l141 22q47 8 54 49l51 390l-248 522q-29 59 -53.5 83.5t-65.5 37.5l-71 22l-4 78h557l-9 -78l-82 -12q-53 -8 -52 -51t40 -131l164 -375 h12l265 399q45 66 44 104t-61 50l-82 16l-6 78h481z" />
<glyph unicode="Z" horiz-adv-x="1193" d="M1014 0h-1006l10 84l926 1096v12h-219q-111 0 -175.5 -7t-103 -24.5t-60 -48.5t-44.5 -78l-63 -164h-113l53 410h1014l-12 -86l-930 -1096v-12h215q123 0 194.5 8t112.5 25.5t61.5 45.5t40.5 68l70 164h125z" />
<glyph unicode="[" horiz-adv-x="753" d="M190 -455v1788h525v-94h-416v-1599h416v-95h-525z" />
<glyph unicode="\" horiz-adv-x="571" d="M455 -434l-441 1796h103l440 -1796h-102z" />
<glyph unicode="]" horiz-adv-x="753" d="M39 -360h416v1599h-416v94h524v-1788h-524v95z" />
<glyph unicode="^" horiz-adv-x="819" d="M666 1051l-174 252h-5l-247 -252h-70l227 376h215l123 -376h-69z" />
<glyph unicode="_" horiz-adv-x="962" d="M-63 -109l6 109h987l6 -109h-999z" />
<glyph unicode="`" horiz-adv-x="817" d="M510 1051l-303 376h233l140 -376h-70z" />
<glyph unicode="a" d="M735 805l47 149h179l-111 -358l-111 -477l60 -21l155 115l35 -39q-20 -37 -53 -74t-70 -66.5t-76.5 -47t-74.5 -17.5q-18 0 -46 6.5t-55.5 17.5t-47 24.5t-19.5 25.5t10 50t26.5 90.5t36 112.5t37.5 116h-18q-59 -104 -107.5 -187.5t-92.5 -139.5t-89 -86t-94 -30 q-88 0 -150.5 67.5t-62.5 196.5q0 80 18.5 162t51 159t75.5 143.5t93 115.5q61 61 133.5 102t146.5 41q70 0 107 -47t53 -104h14zM698 680q-16 29 -42.5 57.5t-57.5 52t-62.5 39t-62.5 15.5q-23 0 -37 -9.5t-30 -25.5q-29 -29 -59 -88t-54.5 -134t-39.5 -155t-15 -145 q0 -78 27.5 -118t76.5 -40q27 0 56.5 21.5t65.5 68.5t83 124t110 185z" />
<glyph unicode="b" horiz-adv-x="978" d="M913 659q0 -160 -57 -304t-156 -242q-61 -63 -145 -104.5t-176 -41.5q-53 0 -107.5 18.5t-99.5 43t-72.5 49t-23.5 37.5l203 1042q10 47 -17 60l-125 55l13 55l378 100l-114 -473l-109 -442h19q57 111 105 193.5t94 138t91 83t95 27.5q43 0 80.5 -21.5t65.5 -61.5 t43 -94.5t15 -117.5zM719 606q0 78 -24.5 133.5t-71.5 55.5q-29 0 -58.5 -22.5t-66.5 -72t-85 -126t-112 -187.5l-47 -197q25 -29 56.5 -53t63.5 -42.5t62.5 -30t52.5 -11.5q16 0 33 9.5t33 25.5q33 33 62.5 93.5t52 133t36 149t13.5 142.5z" />
<glyph unicode="c" horiz-adv-x="827" d="M631 803q-8 6 -26.5 15t-42 16.5t-49.5 12.5t-48 5q-10 0 -22.5 -9t-22.5 -20q-25 -25 -53.5 -79t-53 -123.5t-41 -146.5t-16.5 -148q0 -102 51 -161t127 -59q41 0 101.5 33t152.5 97l29 -41q-78 -96 -162 -161t-197 -65q-68 0 -123 25.5t-94 71t-60.5 105.5t-21.5 130 q0 113 41 229.5t112 211t167 153.5t205 59q51 0 95 -14t76.5 -40t51 -60.5t18.5 -73.5q0 -55 -33.5 -94t-80.5 -39q-53 0 -77 28.5t-24 69.5q0 20 6.5 40t14.5 32z" />
<glyph unicode="d" d="M989 174q-20 -37 -53 -74t-70 -66.5t-76.5 -47t-74.5 -17.5q-18 0 -46 8.5t-54.5 20.5t-46 27.5t-19.5 27.5t10 49t26.5 87.5t35 108.5t36.5 114h-18q-59 -104 -107.5 -187.5t-92.5 -139.5t-89 -86t-94 -30q-88 0 -150.5 67.5t-62.5 196.5q0 80 18.5 162t51 159 t75.5 143.5t93 115.5q61 61 133.5 102t146.5 41q70 0 102.5 -47t49.5 -104h14l72 352q10 47 -19 60l-123 55l11 55l381 100l-213 -876l-97 -432l60 -21l155 115zM698 680q-16 29 -42.5 57.5t-57.5 52t-62.5 39t-62.5 15.5q-23 0 -37 -9.5t-30 -25.5q-29 -29 -59 -88 t-54.5 -134t-39.5 -155t-15 -145q0 -78 27.5 -118t76.5 -40q27 0 56.5 21.5t65.5 68.5t83 124t110 185z" />
<glyph unicode="e" horiz-adv-x="819" d="M256 317q0 -96 51 -153.5t127 -57.5q41 0 101.5 33t152.5 97l29 -41q-78 -96 -162 -161t-197 -65q-70 0 -125 25.5t-94 71t-59.5 105.5t-20.5 130q0 117 41 233.5t112 210t163 151.5t196 58q111 0 173.5 -56t62.5 -140q0 -53 -31 -95t-97.5 -85t-171 -95.5t-251.5 -128.5 v-37zM262 420q109 57 180.5 101t113.5 82t59.5 74t17.5 77q0 20 -18.5 36.5t-44 28.5t-52 18.5t-43.5 6.5q-27 0 -42 -6.5t-25 -16.5q-18 -18 -40 -56t-43.5 -90t-39 -116.5t-29.5 -138.5h6z" />
<glyph unicode="f" horiz-adv-x="585" d="M926 1247q0 -51 -31 -88t-82 -37q-59 0 -96 50.5t-47 121.5l-148 -24q-27 -68 -49 -162t-35 -190h240l6 -109h-266l-117 -596q-18 -100 -43 -194.5t-52.5 -175.5t-59 -144.5t-66.5 -99.5q-51 -53 -115.5 -78t-130.5 -25q-76 0 -128 40t-52 106q0 53 30.5 86.5t79.5 33.5 q59 0 94.5 -46t41.5 -111l112 41q8 23 19.5 62.5t23 89.5t21.5 105.5t20 108.5l133 787l-182 10l6 65l199 56q18 96 59 194.5t107 163.5q59 59 129.5 92t165.5 33q98 0 155.5 -50t57.5 -116z" />
<glyph unicode="g" horiz-adv-x="921" d="M717 803v-21q92 -90 92 -196q0 -72 -33 -131.5t-85 -101.5t-116.5 -65.5t-130.5 -23.5q-35 0 -68.5 7.5t-68.5 17.5q-41 -10 -64.5 -40t-23.5 -54q0 -39 41 -61.5t127 -51.5l88 -31q66 -23 123 -46t100 -55t69 -74t26 -99q0 -53 -35 -106.5t-102.5 -95.5t-168 -68.5 t-231.5 -26.5q-82 0 -153.5 15.5t-124 46t-82 76.5t-29.5 106q0 47 26.5 86.5t67.5 70.5t90 53.5t96 36.5v13q-41 25 -67.5 57.5t-26.5 79.5q0 66 52.5 114t138.5 74v13q-63 41 -101.5 109.5t-38.5 146.5q0 86 34 155.5t92.5 118.5t134 76.5t159.5 27.5q74 0 138.5 -15 t103.5 -26l231 3l-47 -168zM637 715q0 27 -14.5 51.5t-37 44.5t-51 32.5t-57.5 12.5q-35 0 -51 -9t-27 -20q-27 -27 -47 -64.5t-34.5 -80.5t-21.5 -87t-7 -83q4 -51 18.5 -91t28.5 -56q14 -12 31.5 -20.5t38.5 -8.5q37 0 68.5 17.5t60.5 45.5q27 27 46 66t31.5 82t18.5 87 t6 81zM633 -285q0 53 -61.5 89t-165.5 71q-59 20 -108.5 36.5t-92.5 37.5q-72 -35 -121 -83t-49 -110q0 -39 24.5 -72.5t68.5 -59t104.5 -40t132.5 -14.5q55 0 103 10t85 29.5t58.5 46t21.5 59.5z" />
<glyph unicode="h" horiz-adv-x="1050" d="M973 174q-20 -37 -52 -74t-70 -66.5t-77 -47t-76 -17.5q-18 0 -45.5 6.5t-53.5 17.5t-45 24.5t-19 25.5q0 18 10 59t25.5 94.5t35 114t37.5 117.5q12 39 25.5 81t23.5 79t17.5 68.5t7.5 50.5q0 31 -29 55t-65 24q-47 0 -125 -122.5t-199 -372.5l-59 -299l-209 6l75 303 l173 856q10 47 -17 60l-125 55l13 55l378 100l-116 -475l-129 -553h20q84 182 147.5 301t116.5 172q43 43 88 62.5t93 19.5q66 0 113.5 -43t47.5 -108q0 -66 -27.5 -168.5t-62.5 -214.5q-10 -35 -23.5 -79t-27.5 -87t-25.5 -80t-17.5 -57l57 -19l156 115l35 -39v0z" />
<glyph unicode="i" horiz-adv-x="546" d="M582 1270q0 -70 -38 -116t-87 -46q-59 0 -90 36t-31 89q0 68 38 115t87 47q59 0 90 -37t31 -88zM510 174q-23 -37 -54.5 -74t-68.5 -66.5t-77 -47t-74 -17.5q-18 0 -47 8.5t-57 19.5t-46 24.5t-16 23.5l200 758l-61 12l-143 -156l-37 41q18 41 47.5 86t64.5 82t73 61.5 t75 24.5q18 0 49 -7t61.5 -18t51 -23.5t18.5 -24.5l-209 -762l57 -21l156 115z" />
<glyph unicode="j" horiz-adv-x="532" d="M586 1270q0 -70 -39 -116t-86 -46q-59 0 -91 36t-32 89q0 68 39 115t86 47q59 0 91 -37t32 -88zM307 184q-49 -217 -107.5 -378.5t-144.5 -247.5q-45 -43 -93 -69t-112 -26q-66 0 -116.5 38t-50.5 104q0 49 34.5 79.5t81.5 30.5q55 0 91 -38.5t53 -94.5l41 8 q20 49 48.5 158t76.5 318l161 737l-63 12l-144 -156l-38 41q18 41 47.5 86t65.5 82t74 61.5t73 24.5q18 0 50 -7t61.5 -17t51 -23.5t17.5 -25.5z" />
<glyph unicode="k" horiz-adv-x="931" d="M895 209q-18 -43 -49 -85t-68 -76t-78 -55.5t-77 -21.5q-10 0 -26.5 6.5t-32 13.5t-28 16t-14.5 16l-143 442l-74 -31l-67 -442l-207 6l75 303l173 856q10 47 -17 60l-125 55l13 55l376 100l-114 -473l-111 -452h14l406 215v20q-47 10 -68.5 39t-21.5 68q0 53 40 90 t93 37q59 0 100 -41t41 -94q0 -59 -21.5 -98.5t-65.5 -71t-109.5 -60t-153.5 -67.5q-4 -2 -7 -3t-7 -4l-9 -4l150 -401h43l131 121l39 -39v0z" />
<glyph unicode="l" horiz-adv-x="536" d="M489 174q-20 -37 -51.5 -74t-68.5 -66.5t-77 -47t-75 -17.5q-18 0 -47 8.5t-56.5 19.5t-46 24.5t-16.5 23.5l225 1112q10 47 -18 60l-123 55l10 55l373 100l-276 -1308l57 -21l156 115l34 -39v0z" />
<glyph unicode="m" horiz-adv-x="1589" d="M1540 174q-20 -37 -52 -74t-69 -66.5t-76.5 -47t-74.5 -17.5q-18 0 -46 6.5t-54.5 17.5t-46 24.5t-19.5 25.5q0 18 10 59t25.5 94.5t35 114t37.5 117.5q12 39 25.5 81t24 79t17.5 68.5t7 50.5q0 31 -28.5 55t-65.5 24q-47 0 -125 -122.5t-199 -372.5l-73 -299l-209 6 l110 389q12 43 27.5 91t28 93t20.5 81t8 55q0 31 -29.5 55t-64.5 24q-49 0 -127 -122.5t-197 -372.5l-61 -299l-209 6l74 303l104 502l-59 12l-146 -156l-36 41q18 41 47.5 86t64.5 82t73 61.5t75 24.5q18 0 48 -6t58.5 -15t49 -21.5t20.5 -24.5q0 -23 -15.5 -89.5 t-35 -144.5t-40 -149.5t-28.5 -104.5h18q86 182 148.5 301t118.5 172q43 43 87 62.5t91 19.5q66 0 103.5 -43t37.5 -114q0 -31 -12 -86.5t-28.5 -114.5t-33 -113.5t-24.5 -83.5h18q90 190 151.5 305t117.5 168q43 43 87 62.5t91 19.5q66 0 114 -43t48 -108q0 -66 -28 -169.5 t-63 -213.5q-10 -35 -23 -79t-26.5 -87t-26 -80t-18.5 -55l58 -21l155 115l35 -39v0z" />
<glyph unicode="n" horiz-adv-x="1081" d="M1034 174q-23 -37 -54.5 -74t-68.5 -66.5t-76.5 -47t-74.5 -17.5q-18 0 -46 6.5t-54.5 17.5t-46 24.5t-19.5 25.5q0 18 10 59t26.5 94.5t35 114t36.5 117.5q12 39 26.5 81t25 79t17.5 68.5t7 50.5q0 31 -29.5 55t-64.5 24q-49 0 -127 -122.5t-197 -372.5l-61 -299l-209 6 l74 303l104 496l-59 10l-146 -148l-36 41q18 41 46.5 86t63.5 82t73 61.5t75 24.5q18 0 47.5 -6t58.5 -15t50.5 -21.5t21.5 -24.5q0 -23 -15.5 -89.5t-35 -144.5t-40 -149.5t-28.5 -104.5h18q86 182 148.5 301t118.5 172q43 43 87 62.5t91 19.5q66 0 114 -43t48 -108 q0 -66 -27 -168.5t-61 -214.5l-97 -301l58 -21l155 115l37 -39v0z" />
<glyph unicode="o" horiz-adv-x="944" d="M877 547q0 -106 -37 -210t-101.5 -185.5t-150.5 -132t-187 -50.5q-84 0 -147.5 31t-105.5 85t-63.5 129t-21.5 165q0 104 37 207.5t101.5 185.5t151.5 132t188 50q84 0 146.5 -30.5t104.5 -84t63.5 -129t21.5 -163.5zM684 633q0 47 -8 90t-26.5 77t-45 53t-63.5 19 q-49 0 -91 -37.5t-76 -93t-57.5 -117t-35.5 -110.5q-12 -51 -18.5 -106.5t-6.5 -102.5t8 -92t26.5 -81t46.5 -58.5t64 -22.5q51 0 93.5 39t75 96.5t55 122t34.5 113.5q10 53 17.5 108.5t7.5 102.5z" />
<glyph unicode="p" horiz-adv-x="1030" d="M283 61l-84 -417q-6 -41 41 -50l135 -22l8 -76h-537l4 76l105 22q29 6 39 17.5t14 32.5l260 1157l-59 14l-146 -156l-36 41q18 41 47.5 86t64.5 82t73 61.5t75 24.5q18 0 48 -7t59.5 -18t51 -25.5t21.5 -29.5q0 -14 -9 -50t-24.5 -85t-34 -105t-37.5 -112h21 q55 111 103.5 192t92.5 134t89 79.5t94 26.5q43 0 81 -21.5t65.5 -61.5t43 -94t15.5 -118q0 -80 -16.5 -157.5t-47.5 -149t-71.5 -134t-90.5 -112.5q-61 -63 -133.5 -101t-144.5 -38q-55 0 -100.5 26.5t-73.5 67.5h-6zM315 217q23 -29 49.5 -57.5t54 -52t55.5 -39t52 -15.5 q16 0 31.5 9.5t32.5 25.5q33 33 65.5 93.5t58 133t42 149.5t16.5 142q0 78 -23.5 133.5t-72.5 55.5q-27 0 -55.5 -22.5t-65.5 -72t-85 -126t-112 -187.5z" />
<glyph unicode="q" horiz-adv-x="968" d="M639 412q-59 -104 -107.5 -187.5t-92.5 -139.5t-89 -86t-94 -30q-88 0 -150.5 67.5t-62.5 196.5q0 80 18.5 162t51 159t75.5 143.5t93 115.5q61 61 133.5 102t146.5 41q70 0 107 -47t53 -104h14l47 149h179l-111 -358l-203 -952q-8 -39 41 -50l111 -22l6 -76h-529l7 76 l116 22q27 6 38.5 18.5t15.5 31.5l112 465l92 303h-18zM698 680q-16 29 -42.5 57.5t-57.5 52t-62.5 39t-62.5 15.5q-23 0 -37 -9.5t-30 -25.5q-29 -29 -59 -88t-54.5 -134t-39.5 -155t-15 -145q0 -78 27.5 -118t76.5 -40q27 0 56.5 21.5t65.5 68.5t83 124t110 185z" />
<glyph unicode="r" horiz-adv-x="864" d="M688 807q-6 2 -12 6q-4 2 -9 4t-8 0q-25 -20 -66.5 -87.5t-86.5 -151.5t-87 -170t-67 -144l-53 -272l-209 6l74 303l104 502l-59 12l-146 -156l-36 41q18 41 47.5 86t64.5 82t73 61.5t75 24.5q18 0 48 -6t58.5 -15t49 -21.5t20.5 -24.5q0 -23 -16.5 -90.5t-38 -147.5 t-43 -155.5t-33.5 -114.5h28q20 55 50 125.5t63 139.5t65.5 126t61.5 86q39 55 74 78.5t94 23.5q57 0 98 -39.5t41 -107.5q0 -61 -34.5 -101t-81.5 -40q-55 0 -85 38t-18 99z" />
<glyph unicode="s" horiz-adv-x="747" d="M737 793q0 -53 -29.5 -85t-80.5 -32q-43 0 -67.5 28.5t-24.5 69.5q0 23 12 47q-33 16 -78 30.5t-90 18.5q-14 -6 -29.5 -21t-29 -33.5t-22.5 -37t-11 -33.5q-2 -27 12 -54t36.5 -55t51.5 -54.5t55 -53.5q31 -31 66 -65.5t62.5 -72.5t45 -77t15.5 -80q-4 -63 -39 -112 t-85 -83t-110.5 -51.5t-115.5 -17.5t-108.5 8.5t-93.5 28t-64.5 51t-24.5 80.5q0 51 30.5 83t81.5 32q43 0 67 -28.5t24 -69.5q0 -10 -4.5 -22.5t-8.5 -22.5q35 -16 90.5 -33t100.5 -21q27 16 58.5 57.5t35.5 73.5q2 27 -12.5 53.5t-37 53t-51 53.5t-55.5 53 q-33 31 -67.5 66t-62 71.5t-45 76.5t-13.5 81q4 66 38 115t83 81t107.5 48t113.5 16t105 -7t88 -25.5t59.5 -50t21.5 -78.5z" />
<glyph unicode="t" horiz-adv-x="649" d="M313 1206h189l-60 -288h258l7 -109h-285l-150 -690l58 -21l155 115l35 -39q-20 -37 -52 -74t-69 -66.5t-76.5 -47t-74.5 -17.5q-18 0 -47 6.5t-56.5 15.5t-47 21.5t-17.5 22.5l160 762l-168 12l6 68l94 36q16 6 33.5 13.5t32.5 11.5q16 6 28 10z" />
<glyph unicode="u" horiz-adv-x="1081" d="M55 700q18 41 48 86t65 82t73 61.5t74 24.5q18 0 47 -8t56.5 -20.5t48 -27.5t20.5 -28q0 -18 -10 -58t-25.5 -91t-34 -109.5t-36.5 -115.5q-12 -39 -25.5 -79t-23.5 -77t-17.5 -67.5t-7.5 -49.5q0 -33 29 -59.5t65 -26.5q47 0 125 123t201 373l64 299l208 -4l-79 -303 q-25 -129 -48 -236q-10 -45 -19 -90t-16.5 -82t-14.5 -64.5t-9 -35.5l59 -21l154 115l35 -41q-23 -37 -54.5 -73t-68.5 -64.5t-76 -46t-74 -17.5q-18 0 -45.5 6.5t-54 17.5t-46 24.5t-19.5 27.5t7 50t18 82t25.5 98.5t28 100.5t24.5 88t17 60h-18q-86 -182 -150.5 -301 t-117.5 -172q-82 -82 -181 -82q-33 0 -61.5 12.5t-50 34t-34.5 50t-13 61.5q0 63 26.5 164.5t61.5 212.5q27 86 52.5 172t39.5 127l-59 12l-146 -156l-37 41v0z" />
<glyph unicode="v" horiz-adv-x="927" d="M457 8l-215 -39l-9 834l-59 12l-141 -156l-39 41q18 41 48 86t64.5 82t72.5 61.5t75 24.5q18 0 48 -6t58.5 -17t50 -24.5t21.5 -25.5l-10 -768h20l236 387q76 119 76 190q0 43 -39 77t-99 46q12 70 56.5 107.5t101.5 37.5q61 0 109.5 -40.5t46.5 -120.5 q0 -88 -59.5 -188.5t-163.5 -243.5z" />
<glyph unicode="w" horiz-adv-x="1433" d="M750 600l-287 -592l-219 -39l-11 834l-57 12l-143 -156l-39 41q18 41 48 86t64.5 82t72.5 61.5t75 24.5q18 0 48 -6t58.5 -17t50 -24.5t21.5 -25.5v-768h14l302 647l-7 194l90 -18l97 -16l28 -807h15l207 387q33 59 53 105t20 85q0 43 -35.5 77t-95.5 46 q12 70 55.5 107.5t100.5 37.5q59 0 105 -40.5t46 -120.5q0 -43 -15 -89t-45 -97.5t-71 -112t-90 -133.5l-231 -357l-209 -39l-6 631h-10z" />
<glyph unicode="x" horiz-adv-x="1005" d="M1042 823q-2 -61 -33.5 -100t-78.5 -39q-53 0 -78 35t-18 94l-60 8l-188 -327l147 -377h43l111 137l35 -41q-20 -41 -45 -84t-54.5 -78t-61.5 -57.5t-69 -22.5q-12 0 -34.5 7.5t-46 17.5t-42 21.5t-20.5 17.5l-92 330h-13q-68 -141 -110.5 -220t-74.5 -118t-57.5 -47.5 t-58.5 -8.5q-74 0 -123 37t-47 94q2 61 33 100.5t78 39.5q53 0 78.5 -34t19.5 -93l56 -13l192 342l-147 367h-45l-109 -137l-35 41q20 41 45 84t53.5 77.5t60.5 57t69 22.5q12 0 34.5 -6t47 -16t43 -21.5t20.5 -19.5l90 -330h8q57 129 99.5 207t77 120t65.5 54t63 12 q74 0 124 -37t48 -96z" />
<glyph unicode="y" horiz-adv-x="927" d="M936 805q0 -43 -22.5 -99.5t-57.5 -117t-78 -120.5t-82 -116l-196 -272l-117 -230q-94 -182 -188.5 -275t-208.5 -93q-35 0 -67 10t-57.5 30.5t-41 48.5t-15.5 62q0 53 37 86t78 33q55 0 97 -42t40 -107h35l268 368l-120 33l-4 799l-60 12l-143 -156l-37 41q18 41 48 86 t64.5 82t72.5 61.5t75 24.5q18 0 48 -6t58.5 -17t49 -24.5t20.5 -25.5l-18 -777h24l332 566v22q-47 18 -79 52t-32 75q0 57 36 98t91 41q66 0 108 -40.5t42 -112.5z" />
<glyph unicode="z" horiz-adv-x="851" d="M621 670q-37 12 -83 37.5t-92.5 54.5t-88.5 57.5t-66 44.5l-37 -33q41 -53 41 -98q0 -41 -26.5 -67.5t-67.5 -26.5q-55 -2 -81 27.5t-26 68.5q0 37 18.5 75t53.5 68.5t85 51t114 24.5q76 0 124 -22.5t79.5 -55t50 -70.5t32.5 -69h23l51 219q61 0 103 -34.5t42 -81.5 q0 -66 -48 -112t-130 -79l-448 -383q39 -12 89 -41.5t99 -63.5t93 -66t71 -46l39 33q-49 55 -49 104q0 39 26.5 64.5t73.5 28.5q49 2 74.5 -28t25.5 -73q0 -37 -16 -74.5t-49 -68.5t-80 -52.5t-111 -27.5q-70 0 -121 19.5t-87.5 53t-62.5 78t-44 93.5h-22l-58 -230 q-59 -2 -101 35t-42 84q0 66 44 110t124 76l461 396v0z" />
<glyph unicode="{" horiz-adv-x="702" d="M639 -469q-207 10 -313.5 91t-106.5 218q0 61 17.5 111.5t39 95.5t40 89t18.5 93q0 43 -19.5 72t-54.5 47.5t-82 28.5t-104 14l-23 62l23 61q55 4 102 13.5t82 27.5t55.5 47t20.5 72q0 49 -18.5 93t-40 90t-39 96.5t-17.5 111.5q0 137 106.5 218t313.5 91v-74 q-121 -10 -180.5 -61t-59.5 -123q0 -51 18.5 -96t40 -91t40 -97.5t18.5 -114.5q0 -51 -24.5 -95t-64.5 -78t-92 -55.5t-108 -25.5v-23q55 -6 107.5 -26.5t92.5 -54t64.5 -77.5t24.5 -96q0 -61 -18.5 -112t-40 -97.5t-40 -91.5t-18.5 -94q0 -72 59.5 -125t180.5 -63v-72v0z " />
<glyph unicode="|" horiz-adv-x="563" d="M233 1444h99v-1796h-99v1796z" />
<glyph unicode="}" horiz-adv-x="702" d="M616 391q-115 -10 -188.5 -44t-73.5 -118q0 -49 18.5 -93t40 -89t40 -95t18.5 -112q0 -137 -106.5 -218t-313.5 -91v72q121 10 179.5 63t58.5 125q0 49 -18.5 94t-40 91.5t-39 97.5t-17.5 112q0 51 24.5 95.5t64.5 78t92.5 54t107.5 26.5v23q-55 4 -107.5 25.5 t-92.5 55.5t-64.5 78t-24.5 95q0 63 17.5 114.5t39 97.5t40 91t18.5 96q0 72 -58.5 123t-179.5 61v74q207 -10 313.5 -91t106.5 -218q0 -61 -18.5 -111.5t-40 -96.5t-40 -90t-18.5 -93q0 -43 20.5 -72t56.5 -47t83 -27.5t102 -13.5l23 -61z" />
<glyph unicode="~" horiz-adv-x="770" d="M549 475q33 0 58.5 28.5t60.5 100.5h69q-35 -135 -93 -192.5t-144 -57.5q-49 0 -90 22.5t-78 50.5t-69 51.5t-60 23.5q-33 0 -56.5 -29t-58.5 -100h-72q35 135 93.5 191.5t144.5 56.5q49 0 90 -23t77 -50.5t67.5 -50t60.5 -22.5z" />
<glyph unicode="&#xa1;" horiz-adv-x="591" d="M252 1176q0 53 37 93t94 40q59 0 97 -40t38 -93t-38 -91t-97 -38q-57 0 -94 38t-37 91zM326 870q4 14 24.5 13.5t20.5 -15.5l-15 -809q0 -41 -27.5 -66.5t-82.5 -25.5h-6q-76 0 -106 30t-17 77z" />
<glyph unicode="&#xa2;" horiz-adv-x="806" d="M307 -340h-86l80 313q-53 6 -98 35t-77 72t-49.5 100.5t-17.5 122.5q0 113 36 227.5t100.5 209t156.5 153.5t203 61h2l92 349h86l-96 -359q78 -20 124 -69.5t46 -110.5q0 -55 -36 -91t-83 -36q-37 0 -67.5 19.5t-40.5 41.5l-156 -589q18 0 45 10t60.5 28.5t71.5 41 t75 47.5l35 -41q-76 -92 -154 -150.5t-172 -69.5zM348 119q51 197 92 352q16 66 34 129.5t30 114.5q14 57 28 110q-16 8 -40.5 13.5t-47.5 5.5q-16 0 -38 -23q-25 -25 -51.5 -80t-48 -125.5t-36 -147.5t-14.5 -144q0 -78 24.5 -131.5t67.5 -73.5z" />
<glyph unicode="&#xa3;" horiz-adv-x="1028" d="M299 616q4 61 8 116.5t10 96.5q14 102 54.5 187.5t102 146t141 93t176.5 32.5q115 0 181 -46t66 -120q0 -51 -30.5 -87t-85.5 -36q-61 0 -94 51.5t-11 125.5q-14 12 -38.5 21t-55.5 9t-60.5 -13t-54 -48t-44 -94.5t-32.5 -149.5q-10 -72 -15 -143.5t-13 -141.5h305l6 -90 h-321q-4 -29 -8.5 -54.5t-8.5 -51.5q-14 -66 -35.5 -121t-54.5 -96v-10q31 -8 69 -20.5t77.5 -25t78.5 -20.5t74 -8q43 0 74 10t53 33q25 25 45.5 59.5t42.5 75.5l47 -14q-4 -70 -22.5 -130.5t-53 -105.5t-86 -70.5t-120.5 -25.5q-61 0 -111.5 19.5t-90.5 47t-71 59.5 t-57 56q-66 -72 -157 -120t-197 -64l-15 88q162 37 228.5 121t83.5 223q4 31 7 67.5t7 77.5h-223l6 90h223v0z" />
<glyph unicode="&#xa4;" horiz-adv-x="890" d="M702 911q20 -37 35 -82t15 -94q0 -45 -14.5 -92t-37.5 -84l127 -127l-77 -78l-125 125q-35 -23 -80 -38t-99 -15q-47 0 -95 14.5t-83 36.5l-114 -115l-76 76l115 115q-23 37 -38.5 85t-15.5 97q0 47 14.5 95.5t36.5 82.5l-118 119l78 78l118 -119q35 23 80 38t98 15 t100.5 -16t82.5 -39l112 113l76 -76zM647 735q0 84 -53 145.5t-148 61.5q-96 0 -149 -61.5t-53 -145.5q0 -82 53 -144.5t149 -62.5q47 0 84 17.5t64 46.5t40 65.5t13 77.5z" />
<glyph unicode="&#xa5;" horiz-adv-x="1253" d="M1323 1202l-33 -8q-29 -8 -53.5 -18.5t-50 -30t-54 -50t-63.5 -79.5l-274 -391h305l8 -90h-358l-23 -162h373l8 -90h-389l-19 -136q-6 -41 41 -49l140 -22l6 -76h-608l6 76l143 22q27 4 38 17.5t15 31.5l21 136h-334l4 90h342l23 162h-369l4 90h336l-244 491 q-10 23 -32.5 41.5t-55.5 28.5l-67 16l-7 78h543l-6 -78l-80 -12q-47 -8 -47 -56.5t51 -158.5l142 -313h8l239 350q61 90 64.5 130t-53.5 52l-43 8l-7 78h416z" />
<glyph unicode="&#xa6;" horiz-adv-x="563" d="M233 1315h99v-686h-99v686zM233 401h99v-686h-99v686z" />
<glyph unicode="&#xa7;" horiz-adv-x="899" d="M860 557q0 -47 -16.5 -89t-44 -77t-64.5 -62.5t-76 -45.5q41 -57 41 -125q0 -49 -24.5 -99.5t-71.5 -92.5t-113.5 -68.5t-150.5 -26.5q-45 0 -91 10t-83 29.5t-60.5 50.5t-23.5 72q0 53 36 86t83 33q59 0 97 -49.5t42 -127.5q20 -12 41.5 -16t40.5 -4q59 0 93 41t34 94 q0 35 -19.5 65.5t-50 59.5t-69.5 56.5t-80 56.5q-47 31 -91 63.5t-80 69.5t-57.5 79t-21.5 93q0 45 17.5 87t45 78t64.5 63.5t76 43.5q-41 59 -41 125q0 51 24.5 100.5t70.5 88t108.5 62.5t140.5 24q45 0 89 -10.5t80 -31t58.5 -50t22.5 -68.5q0 -51 -34 -86t-79 -35 q-59 0 -94 49t-37 129q-12 8 -32.5 12.5t-35.5 4.5q-72 0 -101.5 -39t-29.5 -80q0 -37 18.5 -68t49.5 -59.5t70.5 -56t82.5 -56.5q43 -31 87 -63.5t80 -69.5t57.5 -79t21.5 -91zM717 463q0 33 -13.5 61.5t-37 55t-53 50t-62.5 46.5q-59 43 -122.5 88t-109.5 98 q-39 -20 -66.5 -57t-27.5 -80q0 -66 51.5 -116t120.5 -99q59 -41 122 -86t108 -98q49 27 69.5 61.5t20.5 75.5z" />
<glyph unicode="&#xa8;" horiz-adv-x="819" d="M848 1241q0 -53 -34 -94t-93 -41t-93 41t-34 94q0 55 34 96t93 41t93 -41t34 -96zM422 1241q0 -53 -34 -94t-93 -41t-93 41t-34 94q0 55 34 96t93 41t93 -41t34 -96z" />
<glyph unicode="&#xa9;" horiz-adv-x="1538" d="M1460 639q0 -145 -54 -271t-147.5 -219.5t-219.5 -147.5t-269 -54q-145 0 -271 54t-220.5 147.5t-148.5 219.5t-54 271q0 143 54 270t148.5 221.5t220.5 148.5t271 54q143 0 269 -54t219.5 -148.5t147.5 -221.5t54 -270zM1380 639q0 127 -48 239.5t-131 197.5 t-193.5 134.5t-237.5 49.5t-238.5 -49.5t-194.5 -134.5t-131 -197.5t-48 -239.5t48 -239.5t131 -196.5t194.5 -133.5t238.5 -49.5t237.5 49.5t193.5 133.5t131 196.5t48 239.5zM1047 270l-70 15q-39 -16 -90 -24.5t-94 -8.5q-100 0 -175 29.5t-125.5 82t-75 121t-24.5 148.5 q0 86 30 157.5t83 124t126 81t156 28.5q53 0 97.5 -8t72.5 -19l101 27v-274h-72l-49 161q-57 41 -160 41q-100 0 -167.5 -75.5t-67.5 -212.5q0 -74 17.5 -136.5t51 -108.5t83.5 -71.5t116 -25.5q33 0 62.5 7t50.5 23l71 172h74z" />
<glyph unicode="&#xaa;" horiz-adv-x="747" d="M612 1198l27 111l123 -4l-68 -279l-71 -326l39 -10l129 115l20 -31q-18 -31 -45 -63.5t-57.5 -60t-61.5 -45t-57 -17.5q-12 0 -29.5 9t-33 22.5t-25.5 28t-10 24.5q0 29 28.5 103.5t69.5 201.5h-12q-100 -190 -173 -289.5t-139 -99.5q-68 0 -108.5 54t-40.5 153 q0 51 12 109.5t33.5 113.5t51.5 105.5t67 84.5q98 98 208 99q53 0 76 -34t35 -75h12zM582 1098q-31 39 -78 76.5t-90 37.5q-16 0 -26.5 -6t-22.5 -18q-16 -16 -35 -55t-34 -88.5t-25.5 -104.5t-10.5 -106q0 -59 22.5 -89t57.5 -30q12 0 35.5 24.5t52.5 65.5t61.5 91 t63.5 103z" />
<glyph unicode="&#xab;" horiz-adv-x="1013" d="M872 92l-419 314v102l514 321l16 -43l-369 -335l285 -316zM465 113l-418 293v102l506 301l16 -43l-338 -315l263 -295z" />
<glyph unicode="&#xac;" horiz-adv-x="983" d="M911 199h-112v323h-727l6 113h833v-436z" />
<glyph unicode="&#xad;" horiz-adv-x="677" d="M68 432l6 117h534l6 -117h-546z" />
<glyph unicode="&#xae;" horiz-adv-x="1538" d="M1462 641q0 -145 -54 -271t-148.5 -220.5t-220.5 -148.5t-269 -54q-145 0 -271 54t-220.5 148.5t-148.5 220.5t-54 271q0 143 54 269t148.5 220.5t220.5 148.5t271 54q143 0 269 -54t220.5 -148.5t148.5 -220.5t54 -269zM1380 641q0 127 -48 239.5t-131 197.5 t-193.5 134.5t-237.5 49.5t-238.5 -49.5t-194.5 -134.5t-131 -197.5t-48 -239.5t48 -240.5t131 -197.5t194.5 -133.5t238.5 -49.5t237.5 49.5t193.5 133.5t131 197.5t48 240.5zM932 274l-43 82l-141 228l-72 4v-207q0 -20 29 -27l61 -14l4 -66h-326l5 66l59 14q29 6 29 27 v522q0 23 -29 31l-59 12l-5 66h338q147 0 213 -57.5t66 -131.5q0 -78 -46 -130t-132 -79l145 -215q23 -31 36 -38t26 -11l53 -10l4 -66h-215zM909 801q0 76 -47 110.5t-137 30.5h-49v-283l76 -10q72 4 114.5 39t42.5 113z" />
<glyph unicode="&#xaf;" horiz-adv-x="819" d="M195 1114l20 100h543l-2 -100h-561z" />
<glyph unicode="&#xb0;" horiz-adv-x="839" d="M838 1026q0 -80 -30 -149.5t-80 -122t-118.5 -82t-148.5 -29.5q-66 0 -124 21.5t-101 61.5t-69 96.5t-26 125.5q0 78 30 146.5t80 121t117.5 82t145.5 29.5q68 0 126 -20.5t102 -59.5t70 -95t26 -126zM735 1006q2 102 -63.5 165.5t-167.5 65.5q-57 0 -105.5 -23.5 t-83 -63.5t-55 -91t-20.5 -107q0 -51 17 -92t48 -70.5t73 -45t89 -15.5q57 0 105.5 21.5t84 59.5t57 88.5t21.5 107.5z" />
<glyph unicode="&#xb1;" horiz-adv-x="983" d="M66 8l6 113h839l7 -113h-852zM549 485v-335h-113v335h-373l7 113h366v332h113v-332h364l7 -113h-371z" />
<glyph unicode="&#xb2;" horiz-adv-x="675" d="M-8 639q86 68 166 125t141 112.5t99 110.5t38 119q0 63 -44 93t-93 30q-61 0 -115.5 -25.5t-101.5 -58.5l-14 33q23 27 56.5 56.5t75.5 55t91 42t102 16.5q100 0 167 -53.5t67 -145.5q0 -63 -42 -121.5t-109.5 -114t-153.5 -110.5t-177 -113v-6h88q80 0 130.5 1t81 4 t46 11.5t27.5 20.5l39 53h57l-75 -215h-547v80z" />
<glyph unicode="&#xb3;" horiz-adv-x="675" d="M223 528q-29 0 -67.5 6.5t-72.5 21.5t-57.5 38.5t-23.5 58.5q0 33 24.5 56.5t59.5 23.5q31 0 52.5 -13t34.5 -33.5t18.5 -46.5t3.5 -48q4 0 16 -3t25 -3q41 0 72.5 16t53 44t33 63.5t11.5 72.5q0 53 -31 85t-86 32q-31 0 -52.5 -6t-43.5 -12l-21 45q59 29 108.5 53.5 t85 48t55 49t19.5 60.5q0 45 -37.5 68.5t-85.5 23.5q-57 0 -114.5 -25.5t-102.5 -60.5l-14 37q66 76 155 122t187 46q39 0 77 -10.5t68.5 -30t49 -47t18.5 -62.5q0 -55 -30.5 -93t-74.5 -64.5t-95.5 -45t-94.5 -32.5v-9q23 8 46.5 11.5t43.5 3.5q76 0 121 -42t45 -122 q0 -61 -33.5 -112.5t-88 -87.5t-122 -56.5t-135.5 -20.5z" />
<glyph unicode="&#xb4;" horiz-adv-x="817" d="M418 1051h-68l240 376h233z" />
<glyph unicode="&#xb5;" horiz-adv-x="1114" d="M1092 8l-347 -39v140h-10q-51 -72 -95 -106t-112 -34q-35 0 -62.5 11.5t-49 28t-39 34.5t-29.5 35h-10l16 -563l-231 -19l31 774l4 533q0 25 -16.5 28t-71.5 11l-45 6l-7 76h353l-15 -605q-2 -98 46.5 -143t138.5 -45q59 0 114.5 27.5t89.5 62.5v584q0 16 -14 24.5 t-63 12.5l-70 6l-8 76h358v-764q0 -51 29 -60l121 -37z" />
<glyph unicode="&#xb6;" horiz-adv-x="1013" d="M670 -66l78 586q-39 -6 -69 -10t-73 -4q-106 0 -193 27.5t-149.5 75.5t-96.5 115t-34 146q0 113 40 191t109.5 127t166 70.5t210.5 21.5h304l-177 -1346h-116z" />
<glyph unicode="&#xb7;" horiz-adv-x="475" d="M354 477q0 -59 -41 -103t-106 -44q-63 0 -106.5 44t-43.5 103t43 102.5t107 43.5q66 0 106.5 -43.5t40.5 -102.5z" />
<glyph unicode="&#xb8;" horiz-adv-x="819" d="M43 -506q172 20 259 67.5t87 114.5q0 43 -39 70t-121 27q-72 0 -135 -15l4 45l262 240h97l-176 -156q119 -4 186.5 -48t67.5 -124q0 -55 -34 -102t-97.5 -84t-151.5 -59.5t-197 -28.5z" />
<glyph unicode="&#xb9;" horiz-adv-x="675" d="M63 623l132 14q18 2 27 10t11 19l78 544l-157 25l10 43l350 76l-98 -688q-2 -10 5 -18.5t21 -10.5l99 -14l4 -64h-486z" />
<glyph unicode="&#xba;" horiz-adv-x="688" d="M719 1010q0 -78 -25.5 -153t-70.5 -135t-109.5 -97t-140.5 -37q-123 0 -184.5 83t-61.5 214q0 76 25.5 151.5t71.5 136t109.5 97.5t139.5 37q123 0 184.5 -82t61.5 -215zM578 1073q0 68 -26 118t-79 50q-35 0 -65.5 -27.5t-55 -67.5t-42 -86t-25.5 -81q-8 -37 -13.5 -74 t-5.5 -71q0 -70 25.5 -125.5t81.5 -55.5q37 0 68.5 29t55 71t40 88t24.5 83q10 39 13.5 76.5t3.5 72.5z" />
<glyph unicode="&#xbb;" horiz-adv-x="1013" d="M424 104l-16 43l340 316l-263 295l29 43l416 -293v-102zM10 84l-14 43l366 336l-284 315l26 43l422 -313v-102z" />
<glyph unicode="&#xbc;" horiz-adv-x="1464" d="M1100 -78h-340l-4 64l483 518l109 -27l-72 -479h137l-18 -76h-127l-35 -215h-168zM1108 -2l51 324h-12l-303 -324h264zM1331 1280h119l-1294 -1518h-119zM104 623l132 14q18 2 27 10t11 19l78 544l-157 25l10 43l350 76l-98 -688q-2 -10 5 -18.5t21 -10.5l99 -14l4 -64 h-486z" />
<glyph unicode="&#xbd;" horiz-adv-x="1464" d="M1331 1280h119l-1294 -1518h-119zM104 623l132 14q18 2 27 10t11 19l78 544l-157 25l10 43l350 76l-98 -688q-2 -10 5 -18.5t21 -10.5l99 -14l4 -64h-486zM739 -213q86 68 166 125t141.5 112.5t99.5 110.5t38 119q0 63 -44 93t-93 30q-61 0 -115.5 -25.5t-102.5 -58.5 l-14 33q23 27 56.5 56.5t75.5 55t91 42t103 16.5q100 0 166.5 -53.5t66.5 -145.5q0 -63 -42 -121.5t-109.5 -114t-153.5 -110.5t-176 -113v-6h88q80 0 130 1t81 4t46 11.5t28 20.5l39 53h57l-76 -215h-547v80z" />
<glyph unicode="&#xbe;" horiz-adv-x="1464" d="M1100 -78h-340l-4 64l483 518l109 -27l-72 -479h137l-18 -76h-127l-35 -215h-168zM1108 -2l51 324h-12l-303 -324h264zM1331 1280h119l-1294 -1518h-119zM264 528q-29 0 -67.5 6.5t-72.5 21.5t-57.5 38.5t-23.5 58.5q0 33 24.5 56.5t59.5 23.5q31 0 52.5 -13t34.5 -33.5 t18.5 -46.5t3.5 -48q4 0 16 -3t24 -3q41 0 73 16t53.5 44t32.5 63.5t11 72.5q0 53 -30.5 85t-85.5 32q-31 0 -52.5 -6t-44.5 -12l-20 45q59 29 108.5 53.5t85 48t55 49t19.5 60.5q0 45 -37.5 68.5t-85.5 23.5q-57 0 -114.5 -25.5t-102.5 -60.5l-14 37q66 76 155 122t187 46 q39 0 77 -10.5t68.5 -30t49 -47t18.5 -62.5q0 -55 -30.5 -93t-75 -64.5t-95.5 -45t-94 -32.5v-9q23 8 46.5 11.5t43.5 3.5q76 0 121 -42t45 -122q0 -61 -34 -112.5t-88 -87.5t-121.5 -56.5t-135.5 -20.5z" />
<glyph unicode="&#xbf;" horiz-adv-x="780" d="M412 1186q0 53 36.5 92t94.5 39q59 0 97 -39t38 -92t-38 -92t-97 -39q-57 0 -94 39t-37 92zM37 330q0 76 23.5 126t62.5 82.5t87 53t95 35.5q37 12 72 23.5t60.5 27.5t42 37.5t16.5 54.5q0 37 -18.5 70.5t-51.5 68.5l82 -2q18 -14 37.5 -36.5t37 -49t29 -58.5t11.5 -65 q0 -59 -25 -100t-64.5 -69.5t-89 -47t-98.5 -32.5q-39 -12 -73.5 -22.5t-61.5 -24t-43 -30t-16 -40.5q0 -31 24.5 -60.5t66.5 -52t99 -36t123 -13.5q35 0 64.5 3t52.5 7q25 -29 24 -63q0 -59 -46 -98t-136 -39q-80 0 -150.5 28.5t-123 76.5t-83 111.5t-30.5 133.5z" />
<glyph unicode="&#xc0;" horiz-adv-x="1239" d="M629 0l6 78l92 14q45 8 51 36t-4 81l-37 235h-381l-51 -135q-78 -188 19 -213l82 -18l6 -78h-471l6 78l67 20q27 8 47.5 18.5t39 32t39 59.5t48.5 99l392 873v73l239 56l209 -1135q8 -33 20.5 -50.5t53.5 -25.5l92 -20l6 -78h-571zM639 1081h-14l-230 -544h328zM721 1393 l-303 376h233l140 -376h-70z" />
<glyph unicode="&#xc1;" horiz-adv-x="1239" d="M629 0l6 78l92 14q45 8 51 36t-4 81l-37 235h-381l-51 -135q-78 -188 19 -213l82 -18l6 -78h-471l6 78l67 20q27 8 47.5 18.5t39 32t39 59.5t48.5 99l392 873v73l239 56l209 -1135q8 -33 20.5 -50.5t53.5 -25.5l92 -20l6 -78h-571zM639 1081h-14l-230 -544h328zM674 1393 h-68l240 376h233z" />
<glyph unicode="&#xc2;" horiz-adv-x="1239" d="M629 0l6 78l92 14q45 8 51 36t-4 81l-37 235h-381l-51 -135q-78 -188 19 -213l82 -18l6 -78h-471l6 78l67 20q27 8 47.5 18.5t39 32t39 59.5t48.5 99l392 873v73l239 56l209 -1135q8 -33 20.5 -50.5t53.5 -25.5l92 -20l6 -78h-571zM639 1081h-14l-230 -544h328zM918 1393 l-177 252h-4l-245 -252h-70l225 376h215l125 -376h-69z" />
<glyph unicode="&#xc3;" horiz-adv-x="1239" d="M629 0l6 78l92 14q45 8 51 36t-4 81l-37 235h-381l-51 -135q-78 -188 19 -213l82 -18l6 -78h-471l6 78l67 20q27 8 47.5 18.5t39 32t39 59.5t48.5 99l392 873v73l239 56l209 -1135q8 -33 20.5 -50.5t53.5 -25.5l92 -20l6 -78h-571zM639 1081h-14l-230 -544h328z M1104 1675q-35 -135 -94.5 -199.5t-147.5 -64.5q-47 0 -89 22.5t-78 50t-67.5 51.5t-60.5 24q-33 0 -56.5 -30t-57.5 -102h-72q68 264 240 265q47 0 88 -22.5t76.5 -50.5t67.5 -50.5t60 -22.5q31 0 56.5 29t64.5 100h70z" />
<glyph unicode="&#xc4;" horiz-adv-x="1239" d="M629 0l6 78l92 14q45 8 51 36t-4 81l-37 235h-381l-51 -135q-78 -188 19 -213l82 -18l6 -78h-471l6 78l67 20q27 8 47.5 18.5t39 32t39 59.5t48.5 99l392 873v73l239 56l209 -1135q8 -33 20.5 -50.5t53.5 -25.5l92 -20l6 -78h-571zM639 1081h-14l-230 -544h328z M1057 1583q0 -53 -34 -94t-93 -41t-93 41t-34 94q0 55 33.5 96t93.5 41q59 0 93 -41t34 -96zM631 1583q0 -53 -34 -94t-93 -41t-93 41t-34 94q0 55 33.5 96t93.5 41q59 0 93 -41t34 -96z" />
<glyph unicode="&#xc5;" horiz-adv-x="1239" d="M612 1255q-35 27 -55 69t-18 89q2 80 52 137.5t140 57.5t140.5 -57.5t50.5 -137.5q0 -53 -24 -97t-67 -71l197 -1071q6 -33 19.5 -50.5t54.5 -25.5l92 -20l6 -78h-571l6 78l92 14q45 8 51 36t-4 81l-37 235h-381l-51 -135q-78 -188 19 -213l82 -18l6 -78h-471l6 78l67 20 q27 8 47.5 18.5t39 32t39 59.5t48.5 99zM639 1081h-14l-232 -546h328zM856 1413q0 53 -32.5 94t-92.5 41q-59 0 -93 -41t-34 -94t34 -93t93 -40t92 40t33 93z" />
<glyph unicode="&#xc6;" horiz-adv-x="1712" d="M1544 0h-1005l8 76l108 22q29 4 39.5 17.5t14.5 31.5l43 310h-377l-76 -123q-35 -55 -58.5 -105.5t-23.5 -76.5q0 -27 15.5 -38.5t39.5 -17.5l82 -18l6 -78h-471l7 78l67 20q27 8 49.5 21.5t44 36t47 56.5t58.5 85l504 807q41 63 -35 80l-103 20l-2 76h1188l-53 -401 h-121l-20 184q-6 45 -19.5 71.5t-54.5 40t-119 16.5t-209 3h-45l-69 -502h14q51 0 86 1t57.5 7.5t35.5 17.5t24 30l67 137h92l-108 -467h-90l6 129q0 16 -6 27.5t-25.5 18.5t-56.5 10t-99 3h-10l-67 -520h41q139 0 222 4t131 17.5t70.5 40t43.5 69.5l73 170h129zM852 1200 h-14l-408 -653h334z" />
<glyph unicode="&#xc7;" horiz-adv-x="1298" d="M612 -29q-258 23 -384 177.5t-126 396.5q0 150 59.5 293t168.5 252q100 100 229 159.5t283 59.5q41 0 85 -4.5t84 -10.5t73.5 -14t56.5 -16l162 36l-60 -438h-117l-34 283q-47 31 -104.5 50t-135.5 19q-98 0 -188.5 -51t-159 -143t-109.5 -219t-41 -277q0 -125 35 -219 t98 -158q41 -41 100.5 -63.5t127.5 -22.5q117 0 219 56l133 291h131l-96 -408l-113 20q-59 -20 -136 -35.5t-151 -17.5l-90 -80q119 -4 186.5 -48t67.5 -124q0 -55 -33.5 -102t-97 -84t-151.5 -59.5t-197 -28.5l-12 53q172 20 259 67.5t87 114.5q0 43 -39 70t-121 27 q-72 0 -135 -15l4 45l182 168v0z" />
<glyph unicode="&#xc8;" horiz-adv-x="1234" d="M1059 0h-1041l7 76l106 22q29 6 39 18.5t14 30.5l135 986q4 18 -4 29.5t-36 19.5l-99 22l-6 76h1055l-53 -401h-121l-21 184q-6 45 -19.5 71.5t-54 40t-118.5 16.5t-209 3h-72l-67 -502h38q51 0 86 1t57.5 7.5t36 17.5t23.5 30l68 137h92l-109 -467h-90l6 129 q0 16 -6 27.5t-25.5 18.5t-56 10t-98.5 3h-35l-69 -520h67q139 0 222 4t131.5 17.5t71 40t42.5 69.5l74 170h129zM754 1393l-303 376h233l139 -376h-69z" />
<glyph unicode="&#xc9;" horiz-adv-x="1234" d="M1059 0h-1041l7 76l106 22q29 6 39 18.5t14 30.5l135 986q4 18 -4 29.5t-36 19.5l-99 22l-6 76h1055l-53 -401h-121l-21 184q-6 45 -19.5 71.5t-54 40t-118.5 16.5t-209 3h-72l-67 -502h38q51 0 86 1t57.5 7.5t36 17.5t23.5 30l68 137h92l-109 -467h-90l6 129 q0 16 -6 27.5t-25.5 18.5t-56 10t-98.5 3h-35l-69 -520h67q139 0 222 4t131.5 17.5t71 40t42.5 69.5l74 170h129zM651 1393h-67l239 376h234z" />
<glyph unicode="&#xca;" horiz-adv-x="1234" d="M1059 0h-1041l7 76l106 22q29 6 39 18.5t14 30.5l135 986q4 18 -4 29.5t-36 19.5l-99 22l-6 76h1055l-53 -401h-121l-21 184q-6 45 -19.5 71.5t-54 40t-118.5 16.5t-209 3h-72l-67 -502h38q51 0 86 1t57.5 7.5t36 17.5t23.5 30l68 137h92l-109 -467h-90l6 129 q0 16 -6 27.5t-25.5 18.5t-56 10t-98.5 3h-35l-69 -520h67q139 0 222 4t131.5 17.5t71 40t42.5 69.5l74 170h129zM932 1393l-176 252h-4l-246 -252h-70l226 376h215l124 -376h-69z" />
<glyph unicode="&#xcb;" horiz-adv-x="1234" d="M1059 0h-1041l7 76l106 22q29 6 39 18.5t14 30.5l135 986q4 18 -4 29.5t-36 19.5l-99 22l-6 76h1055l-53 -401h-121l-21 184q-6 45 -19.5 71.5t-54 40t-118.5 16.5t-209 3h-72l-67 -502h38q51 0 86 1t57.5 7.5t36 17.5t23.5 30l68 137h92l-109 -467h-90l6 129 q0 16 -6 27.5t-25.5 18.5t-56 10t-98.5 3h-35l-69 -520h67q139 0 222 4t131.5 17.5t71 40t42.5 69.5l74 170h129zM1075 1583q0 -53 -33.5 -94t-93.5 -41q-59 0 -93 41t-34 94q0 55 34 96t93 41t93 -41t34 -96zM649 1583q0 -53 -33.5 -94t-93.5 -41q-59 0 -93 41t-34 94 q0 55 34 96t93 41t93 -41t34 -96z" />
<glyph unicode="&#xcc;" horiz-adv-x="749" d="M25 0l6 76l127 22q47 10 53 49l133 986q4 18 -4 30.5t-37 18.5l-119 22l-6 76h586l-6 -76l-127 -22q-47 -10 -53 -49l-134 -986q-6 -39 41 -49l121 -22l6 -76h-587zM475 1393l-303 376h234l139 -376h-70z" />
<glyph unicode="&#xcd;" horiz-adv-x="749" d="M25 0l6 76l127 22q47 10 53 49l133 986q4 18 -4 30.5t-37 18.5l-119 22l-6 76h586l-6 -76l-127 -22q-47 -10 -53 -49l-134 -986q-6 -39 41 -49l121 -22l6 -76h-587zM510 1393h-68l240 376h233z" />
<glyph unicode="&#xce;" horiz-adv-x="749" d="M25 0l6 76l127 22q47 10 53 49l133 986q4 18 -4 30.5t-37 18.5l-119 22l-6 76h586l-6 -76l-127 -22q-47 -10 -53 -49l-134 -986q-6 -39 41 -49l121 -22l6 -76h-587zM692 1393l-176 252h-4l-246 -252h-69l225 376h215l125 -376h-70z" />
<glyph unicode="&#xcf;" horiz-adv-x="749" d="M25 0l6 76l127 22q47 10 53 49l133 986q4 18 -4 30.5t-37 18.5l-119 22l-6 76h586l-6 -76l-127 -22q-47 -10 -53 -49l-134 -986q-6 -39 41 -49l121 -22l6 -76h-587zM838 1583q0 -53 -34 -94t-93 -41t-93 41t-34 94q0 55 33.5 96t93.5 41q59 0 93 -41t34 -96zM412 1583 q0 -53 -34 -94t-93 -41t-93 41t-34 94q0 55 33.5 96t93.5 41q59 0 93 -41t34 -96z" />
<glyph unicode="&#xd0;" horiz-adv-x="1376" d="M90 604l6 90h162l59 439q4 18 -4 29.5t-37 19.5l-98 22l-6 76h528q150 0 266.5 -41t196.5 -114.5t122 -177t42 -228.5q0 -147 -49 -269t-158 -229q-96 -98 -253.5 -159.5t-358.5 -61.5h-490l7 76l106 22q29 6 39 18.5t14 30.5l62 457h-156zM717 694l6 -90h-242l-65 -487 l139 -31q111 4 206 48t163.5 125t108.5 197.5t40 268.5q0 102 -24.5 188t-75.5 148.5t-130 97.5t-186 35h-96l-67 -500h223z" />
<glyph unicode="&#xd1;" horiz-adv-x="1466" d="M1507 1204l-98 -20q-27 -6 -46.5 -20.5t-35.5 -57.5t-30.5 -121t-30.5 -209l-109 -792h-153l-566 1067h-12l-74 -547q-18 -133 -25.5 -211t-4 -120t17.5 -57.5t41 -19.5l102 -20l6 -76h-483l6 76l99 20q27 6 46 21.5t34.5 58.5t30 121t30.5 207l72 526q10 72 -2.5 104.5 t-53.5 45.5l-90 24l-6 76h403l510 -971h13l65 467q18 135 26.5 214t6.5 120t-17.5 55.5t-41.5 18.5l-103 20l-6 76h485zM1182 1675q-35 -135 -94.5 -199.5t-147.5 -64.5q-47 0 -89 22.5t-78 50t-67.5 51.5t-60.5 24q-33 0 -56.5 -30t-58.5 -102h-71q68 264 239 265 q47 0 88 -22.5t77 -50.5t68 -50.5t60 -22.5q31 0 56.5 29t64.5 100h70z" />
<glyph unicode="&#xd2;" horiz-adv-x="1443" d="M1386 713q0 -160 -57 -301.5t-162 -245.5q-90 -92 -209.5 -144.5t-265.5 -52.5q-131 0 -239.5 44t-187.5 123t-122 188.5t-43 238.5q0 147 47.5 279.5t139.5 236.5t220 166t288 62q131 0 239.5 -44t186 -123t121.5 -188.5t44 -238.5zM1137 758q0 104 -26 201.5t-91 162.5 q-43 43 -101.5 67.5t-136.5 24.5t-140 -33.5t-110.5 -90t-82 -129t-55 -150.5t-32 -153.5t-10.5 -137.5q0 -104 24.5 -200.5t90.5 -161.5q43 -43 101.5 -67.5t138.5 -24.5q78 0 140 33.5t109.5 90t81 129t56 149.5t33 152t10.5 138zM817 1393l-303 376h234l139 -376h-70z " />
<glyph unicode="&#xd3;" horiz-adv-x="1443" d="M1386 713q0 -160 -57 -301.5t-162 -245.5q-90 -92 -209.5 -144.5t-265.5 -52.5q-131 0 -239.5 44t-187.5 123t-122 188.5t-43 238.5q0 147 47.5 279.5t139.5 236.5t220 166t288 62q131 0 239.5 -44t186 -123t121.5 -188.5t44 -238.5zM1137 758q0 104 -26 201.5t-91 162.5 q-43 43 -101.5 67.5t-136.5 24.5t-140 -33.5t-110.5 -90t-82 -129t-55 -150.5t-32 -153.5t-10.5 -137.5q0 -104 24.5 -200.5t90.5 -161.5q43 -43 101.5 -67.5t138.5 -24.5q78 0 140 33.5t109.5 90t81 129t56 149.5t33 152t10.5 138zM780 1393h-67l239 376h234z" />
<glyph unicode="&#xd4;" horiz-adv-x="1443" d="M1386 713q0 -160 -57 -301.5t-162 -245.5q-90 -92 -209.5 -144.5t-265.5 -52.5q-131 0 -239.5 44t-187.5 123t-122 188.5t-43 238.5q0 147 47.5 279.5t139.5 236.5t220 166t288 62q131 0 239.5 -44t186 -123t121.5 -188.5t44 -238.5zM1137 758q0 104 -26 201.5t-91 162.5 q-43 43 -101.5 67.5t-136.5 24.5t-140 -33.5t-110.5 -90t-82 -129t-55 -150.5t-32 -153.5t-10.5 -137.5q0 -104 24.5 -200.5t90.5 -161.5q43 -43 101.5 -67.5t138.5 -24.5q78 0 140 33.5t109.5 90t81 129t56 149.5t33 152t10.5 138zM1051 1393l-177 252h-4l-245 -252h-70 l225 376h215l125 -376h-69z" />
<glyph unicode="&#xd5;" horiz-adv-x="1443" d="M1386 713q0 -160 -57 -301.5t-162 -245.5q-90 -92 -209.5 -144.5t-265.5 -52.5q-131 0 -239.5 44t-187.5 123t-122 188.5t-43 238.5q0 147 47.5 279.5t139.5 236.5t220 166t288 62q131 0 239.5 -44t186 -123t121.5 -188.5t44 -238.5zM1137 758q0 104 -26 201.5t-91 162.5 q-43 43 -101.5 67.5t-136.5 24.5t-140 -33.5t-110.5 -90t-82 -129t-55 -150.5t-32 -153.5t-10.5 -137.5q0 -104 24.5 -200.5t90.5 -161.5q43 -43 101.5 -67.5t138.5 -24.5q78 0 140 33.5t109.5 90t81 129t56 149.5t33 152t10.5 138zM1221 1675q-35 -135 -94.5 -199.5 t-147.5 -64.5q-47 0 -89 22.5t-78 50t-67.5 51.5t-60.5 24q-33 0 -56.5 -30t-58.5 -102h-71q68 264 239 265q47 0 88 -22.5t77 -50.5t67.5 -50.5t60.5 -22.5q31 0 56.5 29t64.5 100h70z" />
<glyph unicode="&#xd6;" horiz-adv-x="1443" d="M1386 713q0 -160 -57 -301.5t-162 -245.5q-90 -92 -209.5 -144.5t-265.5 -52.5q-131 0 -239.5 44t-187.5 123t-122 188.5t-43 238.5q0 147 47.5 279.5t139.5 236.5t220 166t288 62q131 0 239.5 -44t186 -123t121.5 -188.5t44 -238.5zM1137 758q0 104 -26 201.5t-91 162.5 q-43 43 -101.5 67.5t-136.5 24.5t-140 -33.5t-110.5 -90t-82 -129t-55 -150.5t-32 -153.5t-10.5 -137.5q0 -104 24.5 -200.5t90.5 -161.5q43 -43 101.5 -67.5t138.5 -24.5q78 0 140 33.5t109.5 90t81 129t56 149.5t33 152t10.5 138zM1169 1583q0 -53 -33.5 -94t-93.5 -41 q-59 0 -93 41t-34 94q0 55 34 96t93 41t93 -41t34 -96zM743 1583q0 -53 -33.5 -94t-93.5 -41q-59 0 -93 41t-34 94q0 55 34 96t93 41t93 -41t34 -96z" />
<glyph unicode="&#xd7;" horiz-adv-x="983" d="M571 481l342 -344l-77 -80l-344 344l-345 -344l-77 80l342 344l-342 342l77 80l345 -342l344 342l77 -80z" />
<glyph unicode="&#xd8;" horiz-adv-x="1443" d="M369 59q-123 78 -193 208t-70 296q0 147 47.5 279.5t139.5 236.5t220 166t288 62q145 0 260 -52l88 154h96q-31 -53 -55 -96l-57 -99q123 -76 191.5 -205.5t68.5 -295.5q0 -160 -57.5 -301.5t-161.5 -245.5q-90 -92 -210 -144.5t-266 -52.5q-141 0 -258 54l-102 -175h-94 zM999 1147q-41 35 -92 52.5t-119 17.5q-80 0 -142 -34t-110.5 -90.5t-82 -129t-56 -150.5t-33 -153.5t-10.5 -139.5q0 -92 20.5 -177t69.5 -148zM504 131q41 -31 91 -49.5t118 -18.5q78 0 140 34t110.5 90.5t82 129t56 150.5t33 152.5t10.5 138.5q0 92 -20.5 177t-67.5 148z " />
<glyph unicode="&#xd9;" horiz-adv-x="1456" d="M1505 1204l-98 -20q-27 -6 -45.5 -20.5t-33.5 -57.5t-30.5 -121t-33.5 -209l-50 -362q-16 -117 -63 -202t-116.5 -140.5t-159 -82t-193.5 -26.5q-102 0 -189 24.5t-150.5 75t-99.5 126t-36 178.5q0 29 2 59.5t6 56.5l90 650q4 18 -4 29.5t-37 19.5l-98 22l-6 76h547 l-7 -76l-106 -22q-47 -12 -53 -49l-88 -635q-4 -23 -7.5 -53.5t-3.5 -65.5q0 -147 87 -220t229 -73q70 0 129 18.5t106 60.5t79 109.5t46 167.5l45 334q18 133 26.5 212t5.5 121t-17.5 56.5t-40.5 18.5l-103 20l-6 76h483zM874 1393l-303 376h234l139 -376h-70z" />
<glyph unicode="&#xda;" horiz-adv-x="1456" d="M1505 1204l-98 -20q-27 -6 -45.5 -20.5t-33.5 -57.5t-30.5 -121t-33.5 -209l-50 -362q-16 -117 -63 -202t-116.5 -140.5t-159 -82t-193.5 -26.5q-102 0 -189 24.5t-150.5 75t-99.5 126t-36 178.5q0 29 2 59.5t6 56.5l90 650q4 18 -4 29.5t-37 19.5l-98 22l-6 76h547 l-7 -76l-106 -22q-47 -12 -53 -49l-88 -635q-4 -23 -7.5 -53.5t-3.5 -65.5q0 -147 87 -220t229 -73q70 0 129 18.5t106 60.5t79 109.5t46 167.5l45 334q18 133 26.5 212t5.5 121t-17.5 56.5t-40.5 18.5l-103 20l-6 76h483zM854 1393h-68l240 376h234z" />
<glyph unicode="&#xdb;" horiz-adv-x="1456" d="M1505 1204l-98 -20q-27 -6 -45.5 -20.5t-33.5 -57.5t-30.5 -121t-33.5 -209l-50 -362q-16 -117 -63 -202t-116.5 -140.5t-159 -82t-193.5 -26.5q-102 0 -189 24.5t-150.5 75t-99.5 126t-36 178.5q0 29 2 59.5t6 56.5l90 650q4 18 -4 29.5t-37 19.5l-98 22l-6 76h547 l-7 -76l-106 -22q-47 -12 -53 -49l-88 -635q-4 -23 -7.5 -53.5t-3.5 -65.5q0 -147 87 -220t229 -73q70 0 129 18.5t106 60.5t79 109.5t46 167.5l45 334q18 133 26.5 212t5.5 121t-17.5 56.5t-40.5 18.5l-103 20l-6 76h483zM1077 1393l-176 252h-4l-246 -252h-69l225 376h215 l125 -376h-70z" />
<glyph unicode="&#xdc;" horiz-adv-x="1456" d="M1505 1204l-98 -20q-27 -6 -45.5 -20.5t-33.5 -57.5t-30.5 -121t-33.5 -209l-50 -362q-16 -117 -63 -202t-116.5 -140.5t-159 -82t-193.5 -26.5q-102 0 -189 24.5t-150.5 75t-99.5 126t-36 178.5q0 29 2 59.5t6 56.5l90 650q4 18 -4 29.5t-37 19.5l-98 22l-6 76h547 l-7 -76l-106 -22q-47 -12 -53 -49l-88 -635q-4 -23 -7.5 -53.5t-3.5 -65.5q0 -147 87 -220t229 -73q70 0 129 18.5t106 60.5t79 109.5t46 167.5l45 334q18 133 26.5 212t5.5 121t-17.5 56.5t-40.5 18.5l-103 20l-6 76h483zM1178 1583q0 -53 -34 -94t-93 -41t-93 41t-34 94 q0 55 33.5 96t93.5 41q59 0 93 -41t34 -96zM752 1583q0 -53 -34 -94t-93 -41t-93 41t-34 94q0 55 33.5 96t93.5 41q59 0 93 -41t34 -96z" />
<glyph unicode="&#xdd;" horiz-adv-x="1218" d="M1331 1202l-53 -14q-27 -6 -51.5 -16.5t-49 -30t-53 -51t-63.5 -82.5l-318 -465l-53 -396q-6 -39 41 -49l131 -22l4 -76h-614l10 76l141 22q47 8 54 49l51 390l-248 522q-29 59 -53.5 83.5t-65.5 37.5l-71 22l-4 78h557l-9 -78l-82 -12q-53 -8 -52 -51t40 -131l164 -375 h12l265 399q45 66 44 104t-61 50l-82 16l-6 78h481zM735 1393h-67l239 376h234z" />
<glyph unicode="&#xde;" horiz-adv-x="1177" d="M1135 670q0 -98 -44 -175t-120 -129.5t-174.5 -79t-206.5 -26.5q-39 0 -77 4t-75 8l-18 -125q-6 -41 41 -49l137 -22l4 -76h-584l7 76l106 22q29 6 39 18.5t14 30.5l138 986q4 18 -4.5 29.5t-36.5 19.5l-99 22l-6 76h545l-6 -76l-107 -22q-47 -12 -53 -49l-14 -107h123 q106 0 193 -25.5t148.5 -71.5t95.5 -111.5t34 -147.5zM891 668q0 61 -21.5 112t-58.5 88t-88 56.5t-111 19.5h-82l-79 -586q29 -8 61.5 -12t58.5 -4q141 0 230.5 86t89.5 240z" />
<glyph unicode="&#xdf;" horiz-adv-x="1103" d="M756 856q53 -37 103 -86t89 -109.5t62.5 -130t23.5 -147.5q0 -80 -31.5 -153.5t-86 -132t-125 -93.5t-148.5 -35q-98 0 -165.5 52.5t-67.5 134.5q0 66 41 106.5t98 40.5q55 0 82.5 -28.5t31 -66.5t-16 -77t-58.5 -57q6 -6 25.5 -13.5t41.5 -7.5q39 0 75 18.5t63.5 50.5 t44 78t16.5 101q2 131 -73.5 271.5t-231.5 250.5l10 62q145 4 225 72.5t80 191.5q0 72 -40 124t-111 52q-57 0 -97.5 -26.5t-70 -78t-52 -128t-40.5 -174.5l-136 -705q-20 -100 -43.5 -194.5t-52 -175.5t-60.5 -144.5t-67 -99.5q-51 -51 -115.5 -77t-130.5 -26 q-76 0 -128 40t-52 106q0 53 32 86.5t79 33.5q59 0 95 -46t42 -111l111 41q8 23 19 62.5t22.5 89.5t22.5 105.5t22 108.5l125 787l-175 10l7 65l194 56q55 252 175 368.5t290 116.5q76 0 136.5 -21.5t102.5 -58.5t63.5 -87t21.5 -107q0 -123 -81 -190.5t-216 -94.5z" />
<glyph unicode="&#xe0;" d="M735 805l47 149h179l-111 -358l-111 -477l60 -21l155 115l35 -39q-20 -37 -53 -74t-70 -66.5t-76.5 -47t-74.5 -17.5q-18 0 -46 6.5t-55.5 17.5t-47 24.5t-19.5 25.5t10 50t26.5 90.5t36 112.5t37.5 116h-18q-59 -104 -107.5 -187.5t-92.5 -139.5t-89 -86t-94 -30 q-88 0 -150.5 67.5t-62.5 196.5q0 80 18.5 162t51 159t75.5 143.5t93 115.5q61 61 133.5 102t146.5 41q70 0 107 -47t53 -104h14zM698 680q-16 29 -42.5 57.5t-57.5 52t-62.5 39t-62.5 15.5q-23 0 -37 -9.5t-30 -25.5q-29 -29 -59 -88t-54.5 -134t-39.5 -155t-15 -145 q0 -78 27.5 -118t76.5 -40q27 0 56.5 21.5t65.5 68.5t83 124t110 185zM639 1051l-303 376h233l140 -376h-70z" />
<glyph unicode="&#xe1;" d="M735 805l47 149h179l-111 -358l-111 -477l60 -21l155 115l35 -39q-20 -37 -53 -74t-70 -66.5t-76.5 -47t-74.5 -17.5q-18 0 -46 6.5t-55.5 17.5t-47 24.5t-19.5 25.5t10 50t26.5 90.5t36 112.5t37.5 116h-18q-59 -104 -107.5 -187.5t-92.5 -139.5t-89 -86t-94 -30 q-88 0 -150.5 67.5t-62.5 196.5q0 80 18.5 162t51 159t75.5 143.5t93 115.5q61 61 133.5 102t146.5 41q70 0 107 -47t53 -104h14zM698 680q-16 29 -42.5 57.5t-57.5 52t-62.5 39t-62.5 15.5q-23 0 -37 -9.5t-30 -25.5q-29 -29 -59 -88t-54.5 -134t-39.5 -155t-15 -145 q0 -78 27.5 -118t76.5 -40q27 0 56.5 21.5t65.5 68.5t83 124t110 185zM547 1051h-68l240 376h233z" />
<glyph unicode="&#xe2;" d="M735 805l47 149h179l-111 -358l-111 -477l60 -21l155 115l35 -39q-20 -37 -53 -74t-70 -66.5t-76.5 -47t-74.5 -17.5q-18 0 -46 6.5t-55.5 17.5t-47 24.5t-19.5 25.5t10 50t26.5 90.5t36 112.5t37.5 116h-18q-59 -104 -107.5 -187.5t-92.5 -139.5t-89 -86t-94 -30 q-88 0 -150.5 67.5t-62.5 196.5q0 80 18.5 162t51 159t75.5 143.5t93 115.5q61 61 133.5 102t146.5 41q70 0 107 -47t53 -104h14zM698 680q-16 29 -42.5 57.5t-57.5 52t-62.5 39t-62.5 15.5q-23 0 -37 -9.5t-30 -25.5q-29 -29 -59 -88t-54.5 -134t-39.5 -155t-15 -145 q0 -78 27.5 -118t76.5 -40q27 0 56.5 21.5t65.5 68.5t83 124t110 185zM809 1051l-176 252h-4l-246 -252h-70l226 376h215l125 -376h-70z" />
<glyph unicode="&#xe3;" d="M735 805l47 149h179l-111 -358l-111 -477l60 -21l155 115l35 -39q-20 -37 -53 -74t-70 -66.5t-76.5 -47t-74.5 -17.5q-18 0 -46 6.5t-55.5 17.5t-47 24.5t-19.5 25.5t10 50t26.5 90.5t36 112.5t37.5 116h-18q-59 -104 -107.5 -187.5t-92.5 -139.5t-89 -86t-94 -30 q-88 0 -150.5 67.5t-62.5 196.5q0 80 18.5 162t51 159t75.5 143.5t93 115.5q61 61 133.5 102t146.5 41q70 0 107 -47t53 -104h14zM698 680q-16 29 -42.5 57.5t-57.5 52t-62.5 39t-62.5 15.5q-23 0 -37 -9.5t-30 -25.5q-29 -29 -59 -88t-54.5 -134t-39.5 -155t-15 -145 q0 -78 27.5 -118t76.5 -40q27 0 56.5 21.5t65.5 68.5t83 124t110 185zM973 1333q-35 -135 -94.5 -199.5t-147.5 -64.5q-47 0 -89 22.5t-78 50t-67.5 51.5t-60.5 24q-33 0 -56.5 -30t-57.5 -102h-72q68 264 239 265q47 0 88 -22.5t77 -50.5t68 -50.5t60 -22.5q31 0 56.5 29 t64.5 100h70z" />
<glyph unicode="&#xe4;" d="M735 805l47 149h179l-111 -358l-111 -477l60 -21l155 115l35 -39q-20 -37 -53 -74t-70 -66.5t-76.5 -47t-74.5 -17.5q-18 0 -46 6.5t-55.5 17.5t-47 24.5t-19.5 25.5t10 50t26.5 90.5t36 112.5t37.5 116h-18q-59 -104 -107.5 -187.5t-92.5 -139.5t-89 -86t-94 -30 q-88 0 -150.5 67.5t-62.5 196.5q0 80 18.5 162t51 159t75.5 143.5t93 115.5q61 61 133.5 102t146.5 41q70 0 107 -47t53 -104h14zM698 680q-16 29 -42.5 57.5t-57.5 52t-62.5 39t-62.5 15.5q-23 0 -37 -9.5t-30 -25.5q-29 -29 -59 -88t-54.5 -134t-39.5 -155t-15 -145 q0 -78 27.5 -118t76.5 -40q27 0 56.5 21.5t65.5 68.5t83 124t110 185zM961 1241q0 -53 -34 -94t-93 -41t-93 41t-34 94q0 55 33.5 96t93.5 41q59 0 93 -41t34 -96zM535 1241q0 -53 -34 -94t-93 -41t-93 41t-34 94q0 55 33.5 96t93.5 41q59 0 93 -41t34 -96z" />
<glyph unicode="&#xe5;" d="M823 1249q0 -78 -52 -136t-140 -58q-45 0 -81 15t-60.5 42t-38 62.5t-13.5 74.5q2 80 52.5 137.5t140.5 57.5t141 -57.5t51 -137.5zM735 805l47 149h179l-111 -358l-111 -477l60 -21l155 115l35 -39q-20 -37 -53 -74t-70 -66.5t-76.5 -47t-74.5 -17.5q-18 0 -46 6.5 t-55.5 17.5t-47 24.5t-19.5 25.5t10 50t26.5 90.5t36 112.5t37.5 116h-18q-59 -104 -107.5 -187.5t-92.5 -139.5t-89 -86t-94 -30q-88 0 -150.5 67.5t-62.5 196.5q0 80 18.5 162t51 159t75.5 143.5t93 115.5q61 61 133.5 102t146.5 41q70 0 107 -47t53 -104h14zM758 1249 q0 53 -34 94t-93 41t-93 -40.5t-34 -94.5q0 -53 33.5 -93t93.5 -40q59 0 93 40t34 93zM698 680q-16 29 -42.5 57.5t-57.5 52t-62.5 39t-62.5 15.5q-23 0 -37 -9.5t-30 -25.5q-29 -29 -59 -88t-54.5 -134t-39.5 -155t-15 -145q0 -78 27.5 -118t76.5 -40q27 0 56.5 21.5 t65.5 68.5t83 124t110 185z" />
<glyph unicode="&#xe6;" horiz-adv-x="1333" d="M731 723q78 113 161 172t193 59q111 0 173.5 -56t62.5 -140q0 -53 -30.5 -95t-97.5 -85t-171 -95.5t-252 -128.5v-37q0 -96 51 -153.5t129 -57.5q39 0 100.5 33t151.5 97l29 -41q-39 -49 -78 -90.5t-83 -71t-92 -47t-106 -17.5q-68 0 -122 25.5t-93 70t-60.5 104.5 t-23.5 128v16q-92 -158 -176 -251t-153 -93q-94 0 -147.5 83t-53.5 212q0 80 16.5 157t46 147.5t69.5 133t89 111.5q63 61 136 102t145 41q39 0 70.5 -20.5t54 -54t38 -75.5t23.5 -83zM688 639q-18 39 -46 77t-59.5 65.5t-64.5 45t-63 17.5q-23 0 -37.5 -9.5t-30.5 -25.5 q-29 -29 -55.5 -84t-47 -124t-33.5 -143.5t-13 -140.5q0 -78 24.5 -129t59.5 -51q37 0 75.5 39t78.5 99.5t81 134t82 143.5q10 16 25.5 43t23.5 43zM776 420q109 57 180.5 101t113.5 82t59.5 74t17.5 77q0 20 -18.5 36.5t-44 28.5t-52 18.5t-43.5 6.5q-27 0 -42 -6.5 t-25 -16.5q-18 -18 -40 -56t-42.5 -90t-39 -116.5t-30.5 -138.5h6z" />
<glyph unicode="&#xe7;" horiz-adv-x="827" d="M315 -29q-59 8 -106 36t-81 72t-51.5 100.5t-17.5 121.5q0 113 41 229.5t112 211t167 153.5t205 59q51 0 95 -14t76.5 -40t51 -60.5t18.5 -73.5q0 -55 -33.5 -94t-80.5 -39q-53 0 -77 28.5t-24 69.5q0 20 6.5 40t14.5 32q-8 6 -26.5 15t-42 16.5t-49.5 12.5t-48 5 q-10 0 -22.5 -9t-22.5 -20q-25 -25 -53.5 -79t-53 -123.5t-41 -146.5t-16.5 -148q0 -102 51 -161t127 -59q41 0 101.5 33t152.5 97l29 -41q-70 -86 -141.5 -145.5t-163.5 -76.5l-99 -86q119 -4 186.5 -48t67.5 -124q0 -55 -33.5 -102t-97 -84t-151.5 -59.5t-197 -28.5 l-12 53q172 20 259 67.5t87 114.5q0 43 -39 70t-121 27q-72 0 -135 -15l4 45l184 168v0z" />
<glyph unicode="&#xe8;" horiz-adv-x="819" d="M256 317q0 -96 51 -153.5t127 -57.5q41 0 101.5 33t152.5 97l29 -41q-78 -96 -162 -161t-197 -65q-70 0 -125 25.5t-94 71t-59.5 105.5t-20.5 130q0 117 41 233.5t112 210t163 151.5t196 58q111 0 173.5 -56t62.5 -140q0 -53 -31 -95t-97.5 -85t-171 -95.5t-251.5 -128.5 v-37zM262 420q109 57 180.5 101t113.5 82t59.5 74t17.5 77q0 20 -18.5 36.5t-44 28.5t-52 18.5t-43.5 6.5q-27 0 -42 -6.5t-25 -16.5q-18 -18 -40 -56t-43.5 -90t-39 -116.5t-29.5 -138.5h6zM582 1051l-303 376h233l139 -376h-69z" />
<glyph unicode="&#xe9;" horiz-adv-x="819" d="M256 317q0 -96 51 -153.5t127 -57.5q41 0 101.5 33t152.5 97l29 -41q-78 -96 -162 -161t-197 -65q-70 0 -125 25.5t-94 71t-59.5 105.5t-20.5 130q0 117 41 233.5t112 210t163 151.5t196 58q111 0 173.5 -56t62.5 -140q0 -53 -31 -95t-97.5 -85t-171 -95.5t-251.5 -128.5 v-37zM262 420q109 57 180.5 101t113.5 82t59.5 74t17.5 77q0 20 -18.5 36.5t-44 28.5t-52 18.5t-43.5 6.5q-27 0 -42 -6.5t-25 -16.5q-18 -18 -40 -56t-43.5 -90t-39 -116.5t-29.5 -138.5h6zM506 1051h-68l240 376h233z" />
<glyph unicode="&#xea;" horiz-adv-x="819" d="M256 317q0 -96 51 -153.5t127 -57.5q41 0 101.5 33t152.5 97l29 -41q-78 -96 -162 -161t-197 -65q-70 0 -125 25.5t-94 71t-59.5 105.5t-20.5 130q0 117 41 233.5t112 210t163 151.5t196 58q111 0 173.5 -56t62.5 -140q0 -53 -31 -95t-97.5 -85t-171 -95.5t-251.5 -128.5 v-37zM750 1051l-177 252h-4l-245 -252h-70l225 376h215l125 -376h-69zM262 420q109 57 180.5 101t113.5 82t59.5 74t17.5 77q0 20 -18.5 36.5t-44 28.5t-52 18.5t-43.5 6.5q-27 0 -42 -6.5t-25 -16.5q-18 -18 -40 -56t-43.5 -90t-39 -116.5t-29.5 -138.5h6z" />
<glyph unicode="&#xeb;" horiz-adv-x="819" d="M256 317q0 -96 51 -153.5t127 -57.5q41 0 101.5 33t152.5 97l29 -41q-78 -96 -162 -161t-197 -65q-70 0 -125 25.5t-94 71t-59.5 105.5t-20.5 130q0 117 41 233.5t112 210t163 151.5t196 58q111 0 173.5 -56t62.5 -140q0 -53 -31 -95t-97.5 -85t-171 -95.5t-251.5 -128.5 v-37zM262 420q109 57 180.5 101t113.5 82t59.5 74t17.5 77q0 20 -18.5 36.5t-44 28.5t-52 18.5t-43.5 6.5q-27 0 -42 -6.5t-25 -16.5q-18 -18 -40 -56t-43.5 -90t-39 -116.5t-29.5 -138.5h6zM905 1241q0 -53 -33.5 -94t-93.5 -41q-59 0 -93 41t-34 94q0 55 34 96t93 41 t93 -41t34 -96zM479 1241q0 -53 -33.5 -94t-93.5 -41q-59 0 -93 41t-34 94q0 55 34 96t93 41t93 -41t34 -96z" />
<glyph unicode="&#xec;" horiz-adv-x="546" d="M510 174q-23 -37 -54.5 -74t-68.5 -66.5t-77 -47t-74 -17.5q-18 0 -47 8.5t-57 19.5t-46 24.5t-16 23.5l200 758l-61 12l-143 -156l-37 41q18 41 47.5 86t64.5 82t73 61.5t75 24.5q18 0 49 -7t61.5 -18t51 -23.5t18.5 -24.5l-209 -762l57 -21l156 115zM383 1051l-303 376 h233l140 -376h-70z" />
<glyph unicode="&#xed;" horiz-adv-x="546" d="M510 174q-23 -37 -54.5 -74t-68.5 -66.5t-77 -47t-74 -17.5q-18 0 -47 8.5t-57 19.5t-46 24.5t-16 23.5l200 758l-61 12l-143 -156l-37 41q18 41 47.5 86t64.5 82t73 61.5t75 24.5q18 0 49 -7t61.5 -18t51 -23.5t18.5 -24.5l-209 -762l57 -21l156 115zM285 1051h-68 l240 376h233z" />
<glyph unicode="&#xee;" horiz-adv-x="546" d="M510 174q-23 -37 -54.5 -74t-68.5 -66.5t-77 -47t-74 -17.5q-18 0 -47 8.5t-57 19.5t-46 24.5t-16 23.5l200 758l-61 12l-143 -156l-37 41q18 41 47.5 86t64.5 82t73 61.5t75 24.5q18 0 49 -7t61.5 -18t51 -23.5t18.5 -24.5l-209 -762l57 -21l156 115zM561 1051l-176 252 h-4l-246 -252h-69l225 376h215l125 -376h-70z" />
<glyph unicode="&#xef;" horiz-adv-x="546" d="M510 174q-23 -37 -54.5 -74t-68.5 -66.5t-77 -47t-74 -17.5q-18 0 -47 8.5t-57 19.5t-46 24.5t-16 23.5l200 758l-61 12l-143 -156l-37 41q18 41 47.5 86t64.5 82t73 61.5t75 24.5q18 0 49 -7t61.5 -18t51 -23.5t18.5 -24.5l-209 -762l57 -21l156 115zM715 1241 q0 -53 -34 -94t-93 -41t-93 41t-34 94q0 55 33.5 96t93.5 41q59 0 93 -41t34 -96zM289 1241q0 -53 -34 -94t-93 -41t-93 41t-34 94q0 55 33.5 96t93.5 41q59 0 93 -41t34 -96z" />
<glyph unicode="&#xf0;" horiz-adv-x="944" d="M256 1059l23 92l225 66q-80 59 -191 96l43 84q80 -25 151 -62t128 -84q23 4 45 13q20 4 45 11t53 15q63 18 142 41l-23 -92l-186 -53q96 -98 146 -221t52 -265q0 -145 -41 -277t-110.5 -232.5t-161.5 -161t-195 -60.5q-84 0 -147.5 31t-105.5 85t-63.5 129t-21.5 165 q0 104 36 207.5t98.5 185.5t146.5 132t180 50q131 0 187 -108q-10 86 -42 161.5t-91 141.5zM281 514q-12 -51 -18.5 -106.5t-6.5 -102.5t8 -92t26.5 -81t46.5 -58.5t64 -22.5q51 0 93.5 39t75 96.5t55 122t34.5 113.5q6 27 10.5 57.5t7.5 59t5 54t2 40.5q0 47 -8 90 t-26.5 77t-45 53t-63.5 19q-49 0 -91 -37.5t-76 -93t-57.5 -117t-35.5 -110.5z" />
<glyph unicode="&#xf1;" horiz-adv-x="1081" d="M1034 174q-23 -37 -54.5 -74t-68.5 -66.5t-76.5 -47t-74.5 -17.5q-18 0 -46 6.5t-54.5 17.5t-46 24.5t-19.5 25.5q0 18 10 59t26.5 94.5t35 114t36.5 117.5q12 39 26.5 81t25 79t17.5 68.5t7 50.5q0 31 -29.5 55t-64.5 24q-49 0 -127 -122.5t-197 -372.5l-61 -299l-209 6 l74 303l104 496l-59 10l-146 -148l-36 41q18 41 46.5 86t63.5 82t73 61.5t75 24.5q18 0 47.5 -6t58.5 -15t50.5 -21.5t21.5 -24.5q0 -23 -15.5 -89.5t-35 -144.5t-40 -149.5t-28.5 -104.5h18q86 182 148.5 301t118.5 172q43 43 87 62.5t91 19.5q66 0 114 -43t48 -108 q0 -66 -27 -168.5t-61 -214.5l-97 -301l58 -21l155 115zM983 1333q-35 -135 -94.5 -199.5t-147.5 -64.5q-47 0 -89 22.5t-77.5 50t-67.5 51.5t-61 24q-33 0 -56 -30t-58 -102h-72q68 264 240 265q47 0 88 -22.5t76.5 -50.5t67.5 -50.5t61 -22.5q31 0 56 29t64 100h70z" />
<glyph unicode="&#xf2;" horiz-adv-x="944" d="M877 547q0 -106 -37 -210t-101.5 -185.5t-150.5 -132t-187 -50.5q-84 0 -147.5 31t-105.5 85t-63.5 129t-21.5 165q0 104 37 207.5t101.5 185.5t151.5 132t188 50q84 0 146.5 -30.5t104.5 -84t63.5 -129t21.5 -163.5zM684 633q0 47 -8 90t-26.5 77t-45 53t-63.5 19 q-49 0 -91 -37.5t-76 -93t-57.5 -117t-35.5 -110.5q-12 -51 -18.5 -106.5t-6.5 -102.5t8 -92t26.5 -81t46.5 -58.5t64 -22.5q51 0 93.5 39t75 96.5t55 122t34.5 113.5q10 53 17.5 108.5t7.5 102.5zM598 1051l-303 376h233l140 -376h-70z" />
<glyph unicode="&#xf3;" horiz-adv-x="944" d="M877 547q0 -106 -37 -210t-101.5 -185.5t-150.5 -132t-187 -50.5q-84 0 -147.5 31t-105.5 85t-63.5 129t-21.5 165q0 104 37 207.5t101.5 185.5t151.5 132t188 50q84 0 146.5 -30.5t104.5 -84t63.5 -129t21.5 -163.5zM684 633q0 47 -8 90t-26.5 77t-45 53t-63.5 19 q-49 0 -91 -37.5t-76 -93t-57.5 -117t-35.5 -110.5q-12 -51 -18.5 -106.5t-6.5 -102.5t8 -92t26.5 -81t46.5 -58.5t64 -22.5q51 0 93.5 39t75 96.5t55 122t34.5 113.5q10 53 17.5 108.5t7.5 102.5zM537 1051h-68l240 376h233z" />
<glyph unicode="&#xf4;" horiz-adv-x="944" d="M877 547q0 -106 -37 -210t-101.5 -185.5t-150.5 -132t-187 -50.5q-84 0 -147.5 31t-105.5 85t-63.5 129t-21.5 165q0 104 37 207.5t101.5 185.5t151.5 132t188 50q84 0 146.5 -30.5t104.5 -84t63.5 -129t21.5 -163.5zM684 633q0 47 -8 90t-26.5 77t-45 53t-63.5 19 q-49 0 -91 -37.5t-76 -93t-57.5 -117t-35.5 -110.5q-12 -51 -18.5 -106.5t-6.5 -102.5t8 -92t26.5 -81t46.5 -58.5t64 -22.5q51 0 93.5 39t75 96.5t55 122t34.5 113.5q10 53 17.5 108.5t7.5 102.5zM780 1051l-176 252h-4l-246 -252h-69l225 376h215l125 -376h-70z" />
<glyph unicode="&#xf5;" horiz-adv-x="944" d="M877 547q0 -106 -37 -210t-101.5 -185.5t-150.5 -132t-187 -50.5q-84 0 -147.5 31t-105.5 85t-63.5 129t-21.5 165q0 104 37 207.5t101.5 185.5t151.5 132t188 50q84 0 146.5 -30.5t104.5 -84t63.5 -129t21.5 -163.5zM684 633q0 47 -8 90t-26.5 77t-45 53t-63.5 19 q-49 0 -91 -37.5t-76 -93t-57.5 -117t-35.5 -110.5q-12 -51 -18.5 -106.5t-6.5 -102.5t8 -92t26.5 -81t46.5 -58.5t64 -22.5q51 0 93.5 39t75 96.5t55 122t34.5 113.5q10 53 17.5 108.5t7.5 102.5zM965 1333q-35 -135 -94.5 -199.5t-147.5 -64.5q-47 0 -89 22.5t-78 50 t-67.5 51.5t-60.5 24q-33 0 -56.5 -30t-58.5 -102h-71q68 264 239 265q47 0 88 -22.5t77 -50.5t67.5 -50.5t60.5 -22.5q31 0 56.5 29t64.5 100h70z" />
<glyph unicode="&#xf6;" horiz-adv-x="944" d="M877 547q0 -106 -37 -210t-101.5 -185.5t-150.5 -132t-187 -50.5q-84 0 -147.5 31t-105.5 85t-63.5 129t-21.5 165q0 104 37 207.5t101.5 185.5t151.5 132t188 50q84 0 146.5 -30.5t104.5 -84t63.5 -129t21.5 -163.5zM684 633q0 47 -8 90t-26.5 77t-45 53t-63.5 19 q-49 0 -91 -37.5t-76 -93t-57.5 -117t-35.5 -110.5q-12 -51 -18.5 -106.5t-6.5 -102.5t8 -92t26.5 -81t46.5 -58.5t64 -22.5q51 0 93.5 39t75 96.5t55 122t34.5 113.5q10 53 17.5 108.5t7.5 102.5zM950 1241q0 -53 -33.5 -94t-93.5 -41q-59 0 -93 41t-34 94q0 55 34 96 t93 41t93 -41t34 -96zM524 1241q0 -53 -33.5 -94t-93.5 -41q-59 0 -93 41t-34 94q0 55 34 96t93 41t93 -41t34 -96z" />
<glyph unicode="&#xf7;" horiz-adv-x="983" d="M76 424l6 113h817l6 -113h-829zM600 770q0 -43 -30.5 -75.5t-77.5 -32.5t-77 32.5t-30 75.5t29.5 76t77.5 33q47 0 77.5 -33t30.5 -76zM600 190q0 -43 -30.5 -75.5t-77.5 -32.5t-77 32.5t-30 75.5t29.5 76t77.5 33q47 0 77.5 -33t30.5 -76z" />
<glyph unicode="&#xf8;" horiz-adv-x="944" d="M184 45q-59 53 -90 140t-31 194q0 104 37 207.5t101.5 185.5t151.5 132t188 50q90 0 149 -32l176 303h84l-198 -344q61 -53 93 -139.5t32 -194.5q0 -106 -37 -210t-101.5 -185.5t-150.5 -132t-187 -50.5q-90 0 -155 35q-16 -31 -43 -76t-51 -88q-29 -51 -60 -104h-86z M635 825q-37 49 -94 49q-49 0 -92 -37.5t-77 -93t-57.5 -118t-35.5 -111.5q-12 -51 -19.5 -106.5t-7.5 -102.5q0 -57 16 -117zM489 422q-35 -59 -67.5 -116.5t-59.5 -102.5q-31 -53 -59 -99q39 -55 98 -55q51 0 94.5 39t76 96.5t55 122t35.5 115.5q10 51 17 107.5t7 103.5 q0 59 -12 108z" />
<glyph unicode="&#xf9;" horiz-adv-x="1081" d="M55 700q18 41 48 86t65 82t73 61.5t74 24.5q18 0 47 -8t56.5 -20.5t48 -27.5t20.5 -28q0 -18 -10 -58t-25.5 -91t-34 -109.5t-36.5 -115.5q-12 -39 -25.5 -79t-23.5 -77t-17.5 -67.5t-7.5 -49.5q0 -33 29 -59.5t65 -26.5q47 0 125 123t201 373l64 299l208 -4l-79 -303 q-25 -129 -48 -236q-10 -45 -19 -90t-16.5 -82t-14.5 -64.5t-9 -35.5l59 -21l154 115l35 -41q-23 -37 -54.5 -73t-68.5 -64.5t-76 -46t-74 -17.5q-18 0 -45.5 6.5t-54 17.5t-46 24.5t-19.5 27.5t7 50t18 82t25.5 98.5t28 100.5t24.5 88t17 60h-18q-86 -182 -150.5 -301 t-117.5 -172q-82 -82 -181 -82q-33 0 -61.5 12.5t-50 34t-34.5 50t-13 61.5q0 63 26.5 164.5t61.5 212.5q27 86 52.5 172t39.5 127l-59 12l-146 -156zM637 1051l-303 376h233l140 -376h-70z" />
<glyph unicode="&#xfa;" horiz-adv-x="1081" d="M55 700q18 41 48 86t65 82t73 61.5t74 24.5q18 0 47 -8t56.5 -20.5t48 -27.5t20.5 -28q0 -18 -10 -58t-25.5 -91t-34 -109.5t-36.5 -115.5q-12 -39 -25.5 -79t-23.5 -77t-17.5 -67.5t-7.5 -49.5q0 -33 29 -59.5t65 -26.5q47 0 125 123t201 373l64 299l208 -4l-79 -303 q-25 -129 -48 -236q-10 -45 -19 -90t-16.5 -82t-14.5 -64.5t-9 -35.5l59 -21l154 115l35 -41q-23 -37 -54.5 -73t-68.5 -64.5t-76 -46t-74 -17.5q-18 0 -45.5 6.5t-54 17.5t-46 24.5t-19.5 27.5t7 50t18 82t25.5 98.5t28 100.5t24.5 88t17 60h-18q-86 -182 -150.5 -301 t-117.5 -172q-82 -82 -181 -82q-33 0 -61.5 12.5t-50 34t-34.5 50t-13 61.5q0 63 26.5 164.5t61.5 212.5q27 86 52.5 172t39.5 127l-59 12l-146 -156zM580 1051h-68l240 376h233z" />
<glyph unicode="&#xfb;" horiz-adv-x="1081" d="M55 700q18 41 48 86t65 82t73 61.5t74 24.5q18 0 47 -8t56.5 -20.5t48 -27.5t20.5 -28q0 -18 -10 -58t-25.5 -91t-34 -109.5t-36.5 -115.5q-12 -39 -25.5 -79t-23.5 -77t-17.5 -67.5t-7.5 -49.5q0 -33 29 -59.5t65 -26.5q47 0 125 123t201 373l64 299l208 -4l-79 -303 q-25 -129 -48 -236q-10 -45 -19 -90t-16.5 -82t-14.5 -64.5t-9 -35.5l59 -21l154 115l35 -41q-23 -37 -54.5 -73t-68.5 -64.5t-76 -46t-74 -17.5q-18 0 -45.5 6.5t-54 17.5t-46 24.5t-19.5 27.5t7 50t18 82t25.5 98.5t28 100.5t24.5 88t17 60h-18q-86 -182 -150.5 -301 t-117.5 -172q-82 -82 -181 -82q-33 0 -61.5 12.5t-50 34t-34.5 50t-13 61.5q0 63 26.5 164.5t61.5 212.5q27 86 52.5 172t39.5 127l-59 12l-146 -156zM834 1051l-177 252h-4l-245 -252h-70l225 376h215l125 -376h-69z" />
<glyph unicode="&#xfc;" horiz-adv-x="1081" d="M55 700q18 41 48 86t65 82t73 61.5t74 24.5q18 0 47 -8t56.5 -20.5t48 -27.5t20.5 -28q0 -18 -10 -58t-25.5 -91t-34 -109.5t-36.5 -115.5q-12 -39 -25.5 -79t-23.5 -77t-17.5 -67.5t-7.5 -49.5q0 -33 29 -59.5t65 -26.5q47 0 125 123t201 373l64 299l208 -4l-79 -303 q-25 -129 -48 -236q-10 -45 -19 -90t-16.5 -82t-14.5 -64.5t-9 -35.5l59 -21l154 115l35 -41q-23 -37 -54.5 -73t-68.5 -64.5t-76 -46t-74 -17.5q-18 0 -45.5 6.5t-54 17.5t-46 24.5t-19.5 27.5t7 50t18 82t25.5 98.5t28 100.5t24.5 88t17 60h-18q-86 -182 -150.5 -301 t-117.5 -172q-82 -82 -181 -82q-33 0 -61.5 12.5t-50 34t-34.5 50t-13 61.5q0 63 26.5 164.5t61.5 212.5q27 86 52.5 172t39.5 127l-59 12l-146 -156zM999 1241q0 -53 -33.5 -94t-93.5 -41q-59 0 -93 41t-34 94q0 55 34 96t93 41t93 -41t34 -96zM573 1241q0 -53 -33.5 -94 t-93.5 -41q-59 0 -93 41t-34 94q0 55 34 96t93 41t93 -41t34 -96z" />
<glyph unicode="&#xfd;" horiz-adv-x="927" d="M936 805q0 -43 -22.5 -99.5t-57.5 -117t-78 -120.5t-82 -116l-196 -272l-117 -230q-94 -182 -188.5 -275t-208.5 -93q-35 0 -67 10t-57.5 30.5t-41 48.5t-15.5 62q0 53 37 86t78 33q55 0 97 -42t40 -107h35l268 368l-120 33l-4 799l-60 12l-143 -156l-37 41q18 41 48 86 t64.5 82t72.5 61.5t75 24.5q18 0 48 -6t58.5 -17t49 -24.5t20.5 -25.5l-18 -777h24l332 566v22q-47 18 -79 52t-32 75q0 57 36 98t91 41q66 0 108 -40.5t42 -112.5zM528 1051h-67l239 376h234z" />
<glyph unicode="&#xfe;" horiz-adv-x="974" d="M913 659q0 -80 -16 -157.5t-47 -149t-72 -134t-90 -112.5q-63 -63 -135 -101t-143 -38q-55 0 -101.5 26.5t-75.5 67.5h-6l-84 -417q-6 -41 41 -50l138 -22l6 -76h-537l4 76l107 22q29 6 39 17.5t14 32.5l324 1513q12 47 -17 60l-125 55l13 55l378 100l-114 -473 l-105 -432h19q57 111 105 192t92 134t89 79.5t95 26.5q43 0 80.5 -21.5t65.5 -61.5t43 -94.5t15 -117.5zM719 606q0 78 -24.5 133.5t-71.5 55.5q-27 0 -56.5 -22.5t-66.5 -72t-85 -126t-112 -187.5l-47 -180q23 -29 50.5 -56.5t56 -49t57.5 -35t51 -13.5q16 0 32.5 9.5 t33.5 25.5q33 33 65.5 93.5t58 133t42 149t16.5 142.5z" />
<glyph unicode="&#xff;" horiz-adv-x="927" d="M936 805q0 -43 -22.5 -99.5t-57.5 -117t-78 -120.5t-82 -116l-196 -272l-117 -230q-94 -182 -188.5 -275t-208.5 -93q-35 0 -67 10t-57.5 30.5t-41 48.5t-15.5 62q0 53 37 86t78 33q55 0 97 -42t40 -107h35l268 368l-120 33l-4 799l-60 12l-143 -156l-37 41q18 41 48 86 t64.5 82t72.5 61.5t75 24.5q18 0 48 -6t58.5 -17t49 -24.5t20.5 -25.5l-18 -777h24l332 566v22q-47 18 -79 52t-32 75q0 57 36 98t91 41q66 0 108 -40.5t42 -112.5zM926 1241q0 -53 -34 -94t-93 -41t-93 41t-34 94q0 55 33.5 96t93.5 41q59 0 93 -41t34 -96zM500 1241 q0 -53 -34 -94t-93 -41t-93 41t-34 94q0 55 33.5 96t93.5 41q59 0 93 -41t34 -96z" />
<glyph unicode="&#x100;" horiz-adv-x="1241" d="M629 0l6 78l92 14q45 8 51 36t-4 81l-37 235h-381l-51 -135q-78 -188 19 -213l82 -18l6 -78h-471l6 78l67 20q27 8 47.5 18.5t39 32t39 59.5t48.5 99l392 873v73l239 56l209 -1135q8 -33 20.5 -50.5t53.5 -25.5l92 -20l6 -78h-571zM639 1081h-14l-230 -544h328zM446 1436 l21 100h543l-2 -100h-562z" />
<glyph unicode="&#x101;" horiz-adv-x="1026" d="M735 805l47 149h179l-111 -358l-111 -477l60 -21l155 115l35 -39q-20 -37 -53 -74t-70 -66.5t-76.5 -47t-74.5 -17.5q-18 0 -46 6.5t-55.5 17.5t-47 24.5t-19.5 25.5t10 50t26.5 90.5t36 112.5t37.5 116h-18q-59 -104 -107.5 -187.5t-92.5 -139.5t-89 -86t-94 -30 q-88 0 -150.5 67.5t-62.5 196.5q0 80 18.5 162t51 159t75.5 143.5t93 115.5q61 61 133.5 102t146.5 41q70 0 107 -47t53 -104h14zM698 680q-16 29 -42.5 57.5t-57.5 52t-62.5 39t-62.5 15.5q-23 0 -37 -9.5t-30 -25.5q-29 -29 -59 -88t-54.5 -134t-39.5 -155t-15 -145 q0 -78 27.5 -118t76.5 -40q27 0 56.5 21.5t65.5 68.5t83 124t110 185zM385 1114l21 100h542l-2 -100h-561z" />
<glyph unicode="&#x102;" horiz-adv-x="1241" d="M629 0l6 78l92 14q45 8 51 36t-4 81l-37 235h-381l-51 -135q-78 -188 19 -213l82 -18l6 -78h-471l6 78l67 20q27 8 47.5 18.5t39 32t39 59.5t48.5 99l392 873v73l239 56l209 -1135q8 -33 20.5 -50.5t53.5 -25.5l92 -20l6 -78h-571zM639 1081h-14l-230 -544h328z M1061 1749q-23 -78 -53.5 -147.5t-72.5 -123t-96.5 -85t-125.5 -31.5q-72 0 -117 31.5t-70.5 85t-38 123t-16.5 147.5h68q14 -49 29.5 -97t38 -85t52 -59.5t70.5 -22.5t77 23.5t68.5 60.5t61.5 84t57 96h68z" />
<glyph unicode="&#x103;" horiz-adv-x="1026" d="M735 805l47 149h179l-111 -358l-111 -477l60 -21l155 115l35 -39q-20 -37 -53 -74t-70 -66.5t-76.5 -47t-74.5 -17.5q-18 0 -46 6.5t-55.5 17.5t-47 24.5t-19.5 25.5t10 50t26.5 90.5t36 112.5t37.5 116h-18q-59 -104 -107.5 -187.5t-92.5 -139.5t-89 -86t-94 -30 q-88 0 -150.5 67.5t-62.5 196.5q0 80 18.5 162t51 159t75.5 143.5t93 115.5q61 61 133.5 102t146.5 41q70 0 107 -47t53 -104h14zM698 680q-16 29 -42.5 57.5t-57.5 52t-62.5 39t-62.5 15.5q-23 0 -37 -9.5t-30 -25.5q-29 -29 -59 -88t-54.5 -134t-39.5 -155t-15 -145 q0 -78 27.5 -118t76.5 -40q27 0 56.5 21.5t65.5 68.5t83 124t110 185zM993 1427q-23 -78 -53.5 -147.5t-72.5 -122.5t-96 -85t-126 -32t-117 32t-70.5 85t-37.5 123t-17 147h68q14 -49 29.5 -97t38 -85t52.5 -59.5t71 -22.5t76.5 23.5t68.5 60.5t61.5 84t57.5 96h67z" />
<glyph unicode="&#x104;" horiz-adv-x="1241" d="M934 -444q-86 10 -133 61t-31 137q16 78 89 142.5t167 103.5h-397l6 78l92 14q45 8 51 36t-4 81l-37 233h-381l-51 -133q-78 -188 19 -213l82 -18l6 -78h-471l6 78l67 20q27 8 47.5 18.5t39 33t39 60.5t48.5 99l392 871v73l239 56l211 -1135q6 -33 19.5 -50.5t54.5 -25.5 l90 -20l6 -78q-45 -8 -89 -28.5t-79 -49t-58.5 -62.5t-29.5 -71q-4 -47 16.5 -77.5t65.5 -35.5q31 -4 60.5 4.5t54.5 24.5l14 -27q-16 -53 -76.5 -91.5t-144.5 -30.5zM639 1079h-14l-230 -542h328z" />
<glyph unicode="&#x105;" horiz-adv-x="1026" d="M635 -444q-86 10 -131 65t-27 146q14 66 65.5 118t119.5 92q-41 10 -78 29t-37 37q0 12 11 50t27.5 90.5t36 112.5t37.5 116h-18q-59 -104 -108.5 -186.5t-93.5 -139.5t-89 -87t-94 -30q-88 0 -150.5 67.5t-62.5 196.5q0 80 18.5 162t51 159t75.5 143.5t93 115.5 q61 61 134.5 102t145.5 41q70 0 107 -47t55 -104h14l47 149h181l-113 -358l-109 -477l58 -21l155 115l35 -39q-29 -53 -85 -106.5t-107 -83.5q-57 -35 -96 -86.5t-50 -98.5q-10 -47 7.5 -82.5t66.5 -40.5q31 -4 60.5 4.5t54.5 24.5l14 -27q-16 -53 -76.5 -91.5t-144.5 -30.5 zM700 680q-18 29 -44.5 57.5t-57.5 52t-62.5 39t-62.5 15.5q-20 0 -35.5 -9.5t-31.5 -25.5q-29 -29 -58 -88t-53.5 -134t-39.5 -154t-15 -144q0 -78 27.5 -119t74.5 -41q29 0 57.5 21.5t65.5 69.5t83 123t111 183z" />
<glyph unicode="&#x106;" horiz-adv-x="1300" d="M786 1372h-67l239 377h234zM1102 0l-113 20q-61 -20 -141 -36.5t-156 -16.5q-147 0 -257.5 42t-184.5 118t-111 182.5t-37 235.5q0 150 59.5 293t168.5 252q100 100 229 159.5t283 59.5q41 0 85 -4.5t84 -10.5t73.5 -14t56.5 -16l162 36l-60 -438h-117l-34 283 q-47 31 -104.5 50t-135.5 19q-98 0 -188.5 -51t-159 -143t-109.5 -219t-41 -277q0 -125 35 -219t98 -158q41 -41 100.5 -63.5t127.5 -22.5q117 0 219 56l133 291h131z" />
<glyph unicode="&#x107;" horiz-adv-x="829" d="M492 1051h-68l240 376h233zM631 803q-8 6 -26.5 15t-42 16.5t-49.5 12.5t-48 5q-10 0 -22.5 -9t-22.5 -20q-25 -25 -53.5 -79t-53 -123.5t-41 -146.5t-16.5 -148q0 -102 51 -161t127 -59q41 0 101.5 33t152.5 97l29 -41q-78 -96 -162 -161t-197 -65q-68 0 -123 25.5 t-94 71t-60.5 105.5t-21.5 130q0 113 41 229.5t112 211t167 153.5t205 59q51 0 95 -14t76.5 -40t51 -60.5t18.5 -73.5q0 -55 -33.5 -94t-80.5 -39q-53 0 -77 28.5t-24 69.5q0 20 6.5 40t14.5 32z" />
<glyph unicode="&#x108;" horiz-adv-x="1300" d="M1026 1372l-176 252h-4l-246 -252h-70l226 377h215l125 -377h-70zM1102 0l-113 20q-61 -20 -141 -36.5t-156 -16.5q-147 0 -257.5 42t-184.5 118t-111 182.5t-37 235.5q0 150 59.5 293t168.5 252q100 100 229 159.5t283 59.5q41 0 85 -4.5t84 -10.5t73.5 -14t56.5 -16 l162 36l-60 -438h-117l-34 283q-47 31 -104.5 50t-135.5 19q-98 0 -188.5 -51t-159 -143t-109.5 -219t-41 -277q0 -125 35 -219t98 -158q41 -41 100.5 -63.5t127.5 -22.5q117 0 219 56l133 291h131z" />
<glyph unicode="&#x109;" horiz-adv-x="829" d="M784 1051l-176 252h-4l-246 -252h-69l225 376h215l125 -376h-70zM631 803q-8 6 -26.5 15t-42 16.5t-49.5 12.5t-48 5q-10 0 -22.5 -9t-22.5 -20q-25 -25 -53.5 -79t-53 -123.5t-41 -146.5t-16.5 -148q0 -102 51 -161t127 -59q41 0 101.5 33t152.5 97l29 -41 q-78 -96 -162 -161t-197 -65q-68 0 -123 25.5t-94 71t-60.5 105.5t-21.5 130q0 113 41 229.5t112 211t167 153.5t205 59q51 0 95 -14t76.5 -40t51 -60.5t18.5 -73.5q0 -55 -33.5 -94t-80.5 -39q-53 0 -77 28.5t-24 69.5q0 20 6.5 40t14.5 32z" />
<glyph unicode="&#x10a;" horiz-adv-x="1300" d="M1102 0l-113 20q-61 -20 -141 -36.5t-156 -16.5q-147 0 -257.5 42t-184.5 118t-111 182.5t-37 235.5q0 150 59.5 293t168.5 252q100 100 229 159.5t283 59.5q41 0 85 -4.5t84 -10.5t73.5 -14t56.5 -16l162 36l-60 -438h-117l-34 283q-47 31 -104.5 50t-135.5 19 q-98 0 -188.5 -51t-159 -143t-109.5 -219t-41 -277q0 -125 35 -219t98 -158q41 -41 100.5 -63.5t127.5 -22.5q117 0 219 56l133 291h131zM973 1569q0 -55 -34 -96t-97 -41q-59 0 -93 40.5t-34 96.5q0 55 33.5 97t93.5 42q63 0 97 -42t34 -97z" />
<glyph unicode="&#x10b;" horiz-adv-x="829" d="M631 803q-8 6 -26.5 15t-42 16.5t-49.5 12.5t-48 5q-10 0 -22.5 -9t-22.5 -20q-25 -25 -53.5 -79t-53 -123.5t-41 -146.5t-16.5 -148q0 -102 51 -161t127 -59q41 0 101.5 33t152.5 97l29 -41q-78 -96 -162 -161t-197 -65q-68 0 -123 25.5t-94 71t-60.5 105.5t-21.5 130 q0 113 41 229.5t112 211t167 153.5t205 59q51 0 95 -14t76.5 -40t51 -60.5t18.5 -73.5q0 -55 -33.5 -94t-80.5 -39q-53 0 -77 28.5t-24 69.5q0 20 6.5 40t14.5 32zM733 1247q0 -55 -33.5 -96t-97.5 -41q-59 0 -93 41t-34 96t34 97t93 42q63 0 97 -42t34 -97z" />
<glyph unicode="&#x10c;" horiz-adv-x="1300" d="M913 1372h-215l-123 377h68l178 -254h4l244 254h70zM1102 0l-113 20q-61 -20 -141 -36.5t-156 -16.5q-147 0 -257.5 42t-184.5 118t-111 182.5t-37 235.5q0 150 59.5 293t168.5 252q100 100 229 159.5t283 59.5q41 0 85 -4.5t84 -10.5t73.5 -14t56.5 -16l162 36l-60 -438 h-117l-34 283q-47 31 -104.5 50t-135.5 19q-98 0 -188.5 -51t-159 -143t-109.5 -219t-41 -277q0 -125 35 -219t98 -158q41 -41 100.5 -63.5t127.5 -22.5q117 0 219 56l133 291h131z" />
<glyph unicode="&#x10d;" horiz-adv-x="829" d="M647 1051h-215l-123 376h68l178 -253h4l244 253h69zM631 803q-8 6 -26.5 15t-42 16.5t-49.5 12.5t-48 5q-10 0 -22.5 -9t-22.5 -20q-25 -25 -53.5 -79t-53 -123.5t-41 -146.5t-16.5 -148q0 -102 51 -161t127 -59q41 0 101.5 33t152.5 97l29 -41q-78 -96 -162 -161 t-197 -65q-68 0 -123 25.5t-94 71t-60.5 105.5t-21.5 130q0 113 41 229.5t112 211t167 153.5t205 59q51 0 95 -14t76.5 -40t51 -60.5t18.5 -73.5q0 -55 -33.5 -94t-80.5 -39q-53 0 -77 28.5t-24 69.5q0 20 6.5 40t14.5 32z" />
<glyph unicode="&#x10e;" horiz-adv-x="1378" d="M1327 719q0 -147 -49 -269t-158 -229q-96 -98 -253.5 -159.5t-358.5 -61.5h-490l7 76l106 22q29 6 39 18.5t14 30.5l133 986q4 18 -4 29.5t-37 19.5l-98 22l-6 76h528q150 0 266.5 -41t196.5 -114.5t122 -177t42 -228.5zM1073 725q0 102 -24.5 188t-75.5 148.5t-130 97.5 t-186 35h-96l-145 -1077l139 -31q111 4 206 48t163.5 125t108.5 197.5t40 268.5zM784 1372h-215l-123 377h68l178 -254h4l244 254h70z" />
<glyph unicode="&#x10f;" horiz-adv-x="1466" d="M1493 1233q0 -68 -33 -127t-85 -110.5t-117.5 -94.5t-131.5 -78l-49 43q41 23 80 53.5t69.5 65.5t49 73t18.5 77q0 43 -21.5 75.5t-48 54t-48 33t-21.5 13.5q0 49 45 85t105 36q78 0 133 -57.5t55 -141.5zM989 174q-20 -37 -53 -74t-70 -66.5t-76.5 -47t-74.5 -17.5 q-18 0 -46 8.5t-54.5 20.5t-46 27.5t-19.5 27.5t10 49t26.5 87.5t35 108.5t36.5 114h-18q-59 -104 -107.5 -187.5t-92.5 -139.5t-89 -86t-94 -30q-88 0 -150.5 67.5t-62.5 196.5q0 80 18.5 162t51 159t75.5 143.5t93 115.5q61 61 133.5 102t146.5 41q70 0 102.5 -47 t49.5 -104h14l72 352q10 47 -19 60l-123 55l11 55l381 100l-213 -876l-97 -432l60 -21l155 115zM698 680q-16 29 -42.5 57.5t-57.5 52t-62.5 39t-62.5 15.5q-23 0 -37 -9.5t-30 -25.5q-29 -29 -59 -88t-54.5 -134t-39.5 -155t-15 -145q0 -78 27.5 -118t76.5 -40 q27 0 56.5 21.5t65.5 68.5t83 124t110 185z" />
<glyph unicode="&#x110;" horiz-adv-x="1376" d="M90 604l6 90h162l59 439q4 18 -4 29.5t-37 19.5l-98 22l-6 76h528q150 0 266.5 -41t196.5 -114.5t122 -177t42 -228.5q0 -147 -49 -269t-158 -229q-96 -98 -253.5 -159.5t-358.5 -61.5h-490l7 76l106 22q29 6 39 18.5t14 30.5l62 457h-156zM717 694l6 -90h-242l-65 -487 l139 -31q111 4 206 48t163.5 125t108.5 197.5t40 268.5q0 102 -24.5 188t-75.5 148.5t-130 97.5t-186 35h-96l-67 -500h223z" />
<glyph unicode="&#x111;" d="M989 174q-20 -37 -53 -74t-70 -66.5t-76.5 -47t-74.5 -17.5q-18 0 -46 8.5t-54.5 20.5t-46 27.5t-19.5 27.5t10 49t26.5 87.5t35 108.5t36.5 114h-18q-59 -104 -107.5 -187.5t-92.5 -139.5t-89 -86t-94 -30q-88 0 -150.5 67.5t-62.5 196.5q0 80 18.5 162t51 159 t75.5 143.5t93 115.5q61 61 133.5 102t146.5 41q70 0 102.5 -47t49.5 -104h14l49 246h-250l19 96h252l2 10q10 47 -19 60l-123 55l11 55l381 100l-70 -280h143v-96h-166l-120 -500l-97 -432l60 -21l155 115zM698 680q-16 29 -42.5 57.5t-57.5 52t-62.5 39t-62.5 15.5 q-23 0 -37 -9.5t-30 -25.5q-29 -29 -59 -88t-54.5 -134t-39.5 -155t-15 -145q0 -78 27.5 -118t76.5 -40q27 0 56.5 21.5t65.5 68.5t83 124t110 185z" />
<glyph unicode="&#x112;" horiz-adv-x="1234" d="M1059 0h-1041l7 76l106 22q29 6 39 18.5t14 30.5l135 986q4 18 -4 29.5t-36 19.5l-99 22l-6 76h1055l-53 -401h-121l-21 184q-6 45 -19.5 71.5t-54 40t-118.5 16.5t-209 3h-72l-67 -502h38q51 0 86 1t57.5 7.5t36 17.5t23.5 30l68 137h92l-109 -467h-90l6 129 q0 16 -6 27.5t-25.5 18.5t-56 10t-98.5 3h-35l-69 -520h67q139 0 222 4t131.5 17.5t71 40t42.5 69.5l74 170h129zM471 1436l21 100h542l-2 -100h-561z" />
<glyph unicode="&#x113;" horiz-adv-x="821" d="M256 317q0 -96 51 -153.5t127 -57.5q41 0 101.5 33t152.5 97l29 -41q-78 -96 -162 -161t-197 -65q-70 0 -125 25.5t-94 71t-59.5 105.5t-20.5 130q0 117 41 233.5t112 210t163 151.5t196 58q111 0 173.5 -56t62.5 -140q0 -53 -31 -95t-97.5 -85t-171 -95.5t-251.5 -128.5 v-37zM262 420q109 57 180.5 101t113.5 82t59.5 74t17.5 77q0 20 -18.5 36.5t-44 28.5t-52 18.5t-43.5 6.5q-27 0 -42 -6.5t-25 -16.5q-18 -18 -40 -56t-43.5 -90t-39 -116.5t-29.5 -138.5h6zM229 1114l21 100h543l-2 -100h-562z" />
<glyph unicode="&#x114;" horiz-adv-x="1234" d="M1059 0h-1041l7 76l106 22q29 6 39 18.5t14 30.5l135 986q4 18 -4 29.5t-36 19.5l-99 22l-6 76h1055l-53 -401h-121l-21 184q-6 45 -19.5 71.5t-54 40t-118.5 16.5t-209 3h-72l-67 -502h38q51 0 86 1t57.5 7.5t36 17.5t23.5 30l68 137h92l-109 -467h-90l6 129 q0 16 -6 27.5t-25.5 18.5t-56 10t-98.5 3h-35l-69 -520h67q139 0 222 4t131.5 17.5t71 40t42.5 69.5l74 170h129zM1096 1749q-23 -78 -53.5 -147.5t-72.5 -123t-96.5 -85t-125.5 -31.5q-72 0 -117 31.5t-70.5 85t-38 123t-16.5 147.5h67q14 -49 29.5 -97t38.5 -85 t52.5 -59.5t70.5 -22.5t77 23.5t68.5 60.5t61 84t57.5 96h68z" />
<glyph unicode="&#x115;" horiz-adv-x="821" d="M256 317q0 -96 51 -153.5t127 -57.5q41 0 101.5 33t152.5 97l29 -41q-78 -96 -162 -161t-197 -65q-70 0 -125 25.5t-94 71t-59.5 105.5t-20.5 130q0 117 41 233.5t112 210t163 151.5t196 58q111 0 173.5 -56t62.5 -140q0 -53 -31 -95t-97.5 -85t-171 -95.5t-251.5 -128.5 v-37zM874 1427q-23 -78 -53 -147.5t-72 -122.5t-96.5 -85t-126.5 -32t-116.5 32t-70.5 85t-38 123t-16 147h67q14 -49 29.5 -97t38 -85t52.5 -59.5t71 -22.5t76.5 23.5t68.5 60.5t61.5 84t57.5 96h67zM262 420q109 57 180.5 101t113.5 82t59.5 74t17.5 77q0 20 -18.5 36.5 t-44 28.5t-52 18.5t-43.5 6.5q-27 0 -42 -6.5t-25 -16.5q-18 -18 -40 -56t-43.5 -90t-39 -116.5t-29.5 -138.5h6z" />
<glyph unicode="&#x116;" horiz-adv-x="1234" d="M1059 0h-1041l7 76l106 22q29 6 39 18.5t14 30.5l135 986q4 18 -4 29.5t-36 19.5l-99 22l-6 76h1055l-53 -401h-121l-21 184q-6 45 -19.5 71.5t-54 40t-118.5 16.5t-209 3h-72l-67 -502h38q51 0 86 1t57.5 7.5t36 17.5t23.5 30l68 137h92l-109 -467h-90l6 129 q0 16 -6 27.5t-25.5 18.5t-56 10t-98.5 3h-35l-69 -520h67q139 0 222 4t131.5 17.5t71 40t42.5 69.5l74 170h129zM901 1569q0 -55 -33.5 -96t-97.5 -41q-59 0 -93 40.5t-34 96.5q0 55 34 97t93 42q63 0 97 -42t34 -97z" />
<glyph unicode="&#x117;" horiz-adv-x="821" d="M256 317q0 -96 51 -153.5t127 -57.5q41 0 101.5 33t152.5 97l29 -41q-78 -96 -162 -161t-197 -65q-70 0 -125 25.5t-94 71t-59.5 105.5t-20.5 130q0 117 41 233.5t112 210t163 151.5t196 58q111 0 173.5 -56t62.5 -140q0 -53 -31 -95t-97.5 -85t-171 -95.5t-251.5 -128.5 v-37zM262 420q109 57 180.5 101t113.5 82t59.5 74t17.5 77q0 20 -18.5 36.5t-44 28.5t-52 18.5t-43.5 6.5q-27 0 -42 -6.5t-25 -16.5q-18 -18 -40 -56t-43.5 -90t-39 -116.5t-29.5 -138.5h6zM686 1247q0 -55 -34 -96t-97 -41q-59 0 -93 41t-34 96t34 97t93 42q63 0 97 -42 t34 -97z" />
<glyph unicode="&#x118;" horiz-adv-x="1234" d="M793 -444q-86 10 -130.5 65t-25.5 146q16 78 80.5 135t144.5 98h-844l7 76l106 22q29 6 39 18.5t14 30.5l135 986q4 18 -4 29.5t-36 19.5l-99 22l-6 76h1057l-53 -401h-121l-23 184q-6 45 -19.5 71.5t-54 40t-118.5 16.5t-209 3h-70l-69 -502h41q51 0 84.5 1t56 7.5 t36 17.5t23.5 30l68 137h94l-111 -469h-90l6 131q0 16 -6 27.5t-25.5 18.5t-56 10t-98.5 3h-35l-69 -520h69q139 0 221 4t130.5 17.5t71 40t42.5 71.5l74 168h131l-92 -387h-94q-63 -47 -103.5 -98.5t-50.5 -102.5q-10 -47 7.5 -82.5t66.5 -40.5q31 -4 61.5 4.5t52.5 24.5 l17 -27q-18 -53 -78.5 -91.5t-144.5 -30.5z" />
<glyph unicode="&#x119;" horiz-adv-x="821" d="M305 -444q-86 10 -131 60t-31 142q10 72 63.5 126.5t131.5 88.5q-61 0 -112.5 27t-88.5 71t-57.5 103t-20.5 127q0 117 41 233.5t112 210t163 151.5t196 58q113 0 174.5 -56t61.5 -140q0 -53 -31 -95t-96.5 -85t-169.5 -95.5t-252 -128.5v-37q0 -96 50 -153.5t128 -57.5 q39 0 100.5 33t151.5 97l31 -41q-61 -74 -119.5 -128.5t-124.5 -89.5q-63 -33 -105 -82t-53 -102q-10 -47 10.5 -79.5t69.5 -37.5q31 -4 60.5 4.5t54.5 24.5l14 -27q-16 -53 -76.5 -91.5t-144.5 -30.5zM262 420q109 57 180.5 101t113.5 82t59.5 74t17.5 77q0 20 -18.5 36.5 t-44 28.5t-52 18.5t-43.5 6.5q-47 0 -65 -23q-18 -18 -40 -56t-43.5 -90t-40 -116.5t-30.5 -138.5h6z" />
<glyph unicode="&#x11a;" horiz-adv-x="1234" d="M864 1372h-215l-123 377h68l178 -254h4l244 254h70zM1059 0h-1041l7 76l106 22q29 6 39 18.5t14 30.5l135 986q4 18 -4 29.5t-36 19.5l-99 22l-6 76h1055l-53 -401h-121l-21 184q-6 45 -19.5 71.5t-54 40t-118.5 16.5t-209 3h-72l-67 -502h38q51 0 86 1t57.5 7.5t36 17.5 t23.5 30l68 137h92l-109 -467h-90l6 129q0 16 -6 27.5t-25.5 18.5t-56 10t-98.5 3h-35l-69 -520h67q139 0 222 4t131.5 17.5t71 40t42.5 69.5l74 170h129z" />
<glyph unicode="&#x11b;" horiz-adv-x="821" d="M256 317q0 -96 51 -153.5t127 -57.5q41 0 101.5 33t152.5 97l29 -41q-78 -96 -162 -161t-197 -65q-70 0 -125 25.5t-94 71t-59.5 105.5t-20.5 130q0 117 41 233.5t112 210t163 151.5t196 58q111 0 173.5 -56t62.5 -140q0 -53 -31 -95t-97.5 -85t-171 -95.5t-251.5 -128.5 v-37zM637 1051h-215l-123 376h68l178 -253h4l244 253h69zM262 420q109 57 180.5 101t113.5 82t59.5 74t17.5 77q0 20 -18.5 36.5t-44 28.5t-52 18.5t-43.5 6.5q-27 0 -42 -6.5t-25 -16.5q-18 -18 -40 -56t-43.5 -90t-39 -116.5t-29.5 -138.5h6z" />
<glyph unicode="&#x11c;" horiz-adv-x="1398" d="M1053 1372l-176 252h-5l-245 -252h-70l225 377h215l125 -377h-69zM1333 498l-98 -23q-49 -12 -55 -49l-47 -293l118 -20l4 -64q-47 -12 -111.5 -26.5t-138 -26.5t-151.5 -20.5t-152 -8.5q-152 0 -264 42t-187 118t-112 182.5t-37 235.5q0 150 59.5 293t168.5 252 q100 100 234 159.5t288 59.5q41 0 85 -4.5t84 -10.5t73.5 -14t56.5 -16l162 36l-60 -434h-116l-35 279q-47 31 -109.5 50t-140.5 19q-98 0 -188.5 -51t-159 -143t-109.5 -219t-41 -277q0 -125 35 -219t98 -158q41 -41 101.5 -63.5t130.5 -22.5q98 0 184 35l49 330 q4 23 -6 33t-39 16l-104 23l-6 75h542z" />
<glyph unicode="&#x11d;" horiz-adv-x="921" d="M797 1051l-176 252h-5l-245 -252h-70l225 376h215l125 -376h-69zM717 803v-21q92 -90 92 -196q0 -72 -33 -131.5t-85 -101.5t-116.5 -65.5t-130.5 -23.5q-35 0 -68.5 7.5t-68.5 17.5q-41 -10 -64.5 -40t-23.5 -54q0 -39 41 -61.5t127 -51.5l88 -31q66 -23 123 -46 t100 -55t69 -74t26 -99q0 -53 -35 -106.5t-102.5 -95.5t-168 -68.5t-231.5 -26.5q-82 0 -153.5 15.5t-124 46t-82 76.5t-29.5 106q0 47 26.5 86.5t67.5 70.5t90 53.5t96 36.5v13q-41 25 -67.5 57.5t-26.5 79.5q0 66 52.5 114t138.5 74v13q-63 41 -101.5 109.5t-38.5 146.5 q0 86 34 155.5t92.5 118.5t134 76.5t159.5 27.5q74 0 138.5 -15t103.5 -26l231 3l-47 -168zM637 715q0 27 -14.5 51.5t-37 44.5t-51 32.5t-57.5 12.5q-35 0 -51 -9t-27 -20q-27 -27 -47 -64.5t-34.5 -80.5t-21.5 -87t-7 -83q4 -51 18.5 -91t28.5 -56q14 -12 31.5 -20.5 t38.5 -8.5q37 0 68.5 17.5t60.5 45.5q27 27 46 66t31.5 82t18.5 87t6 81zM633 -285q0 53 -61.5 89t-165.5 71q-59 20 -108.5 36.5t-92.5 37.5q-72 -35 -121 -83t-49 -110q0 -39 24.5 -72.5t68.5 -59t104.5 -40t132.5 -14.5q55 0 103 10t85 29.5t58.5 46t21.5 59.5z" />
<glyph unicode="&#x11e;" horiz-adv-x="1398" d="M1333 498l-98 -23q-49 -12 -55 -49l-47 -293l118 -20l4 -64q-47 -12 -111.5 -26.5t-138 -26.5t-151.5 -20.5t-152 -8.5q-152 0 -264 42t-187 118t-112 182.5t-37 235.5q0 150 59.5 293t168.5 252q100 100 234 159.5t288 59.5q41 0 85 -4.5t84 -10.5t73.5 -14t56.5 -16 l162 36l-60 -434h-116l-35 279q-47 31 -109.5 50t-140.5 19q-98 0 -188.5 -51t-159 -143t-109.5 -219t-41 -277q0 -125 35 -219t98 -158q41 -41 101.5 -63.5t130.5 -22.5q98 0 184 35l49 330q4 23 -6 33t-39 16l-104 23l-6 75h542zM1194 1749q-23 -78 -53.5 -147.5 t-72.5 -123t-96 -85t-126 -31.5t-117 31.5t-70.5 85t-38 123t-16.5 147.5h68q14 -49 29.5 -97t38 -85t52 -59.5t70.5 -22.5t77 23.5t68.5 60.5t61.5 84t57 96h68z" />
<glyph unicode="&#x11f;" horiz-adv-x="921" d="M717 803v-21q92 -90 92 -196q0 -72 -33 -131.5t-85 -101.5t-116.5 -65.5t-130.5 -23.5q-35 0 -68.5 7.5t-68.5 17.5q-41 -10 -64.5 -40t-23.5 -54q0 -39 41 -61.5t127 -51.5l88 -31q66 -23 123 -46t100 -55t69 -74t26 -99q0 -53 -35 -106.5t-102.5 -95.5t-168 -68.5 t-231.5 -26.5q-82 0 -153.5 15.5t-124 46t-82 76.5t-29.5 106q0 47 26.5 86.5t67.5 70.5t90 53.5t96 36.5v13q-41 25 -67.5 57.5t-26.5 79.5q0 66 52.5 114t138.5 74v13q-63 41 -101.5 109.5t-38.5 146.5q0 86 34 155.5t92.5 118.5t134 76.5t159.5 27.5q74 0 138.5 -15 t103.5 -26l231 3l-47 -168zM633 -285q0 53 -61.5 89t-165.5 71q-59 20 -108.5 36.5t-92.5 37.5q-72 -35 -121 -83t-49 -110q0 -39 24.5 -72.5t68.5 -59t104.5 -40t132.5 -14.5q55 0 103 10t85 29.5t58.5 46t21.5 59.5zM637 715q0 27 -14.5 51.5t-37 44.5t-51 32.5 t-57.5 12.5q-35 0 -51 -9t-27 -20q-27 -27 -47 -64.5t-34.5 -80.5t-21.5 -87t-7 -83q4 -51 18.5 -91t28.5 -56q14 -12 31.5 -20.5t38.5 -8.5q37 0 68.5 17.5t60.5 45.5q27 27 46 66t31.5 82t18.5 87t6 81zM930 1427q-23 -78 -53.5 -147.5t-72.5 -122.5t-96.5 -85t-125.5 -32 q-72 0 -117 32t-70.5 85t-38 123t-16.5 147h68q14 -49 29.5 -97t38 -85t52 -59.5t70.5 -22.5t77 23.5t68.5 60.5t61.5 84t57 96h68z" />
<glyph unicode="&#x120;" horiz-adv-x="1398" d="M1333 498l-98 -23q-49 -12 -55 -49l-47 -293l118 -20l4 -64q-47 -12 -111.5 -26.5t-138 -26.5t-151.5 -20.5t-152 -8.5q-152 0 -264 42t-187 118t-112 182.5t-37 235.5q0 150 59.5 293t168.5 252q100 100 234 159.5t288 59.5q41 0 85 -4.5t84 -10.5t73.5 -14t56.5 -16 l162 36l-60 -434h-116l-35 279q-47 31 -109.5 50t-140.5 19q-98 0 -188.5 -51t-159 -143t-109.5 -219t-41 -277q0 -125 35 -219t98 -158q41 -41 101.5 -63.5t130.5 -22.5q98 0 184 35l49 330q4 23 -6 33t-39 16l-104 23l-6 75h542zM1024 1569q0 -55 -34 -96t-97 -41 q-59 0 -93 40.5t-34 96.5q0 55 34 97t93 42q63 0 97 -42t34 -97z" />
<glyph unicode="&#x121;" horiz-adv-x="921" d="M717 803v-21q92 -90 92 -196q0 -72 -33 -131.5t-85 -101.5t-116.5 -65.5t-130.5 -23.5q-35 0 -68.5 7.5t-68.5 17.5q-41 -10 -64.5 -40t-23.5 -54q0 -39 41 -61.5t127 -51.5l88 -31q66 -23 123 -46t100 -55t69 -74t26 -99q0 -53 -35 -106.5t-102.5 -95.5t-168 -68.5 t-231.5 -26.5q-82 0 -153.5 15.5t-124 46t-82 76.5t-29.5 106q0 47 26.5 86.5t67.5 70.5t90 53.5t96 36.5v13q-41 25 -67.5 57.5t-26.5 79.5q0 66 52.5 114t138.5 74v13q-63 41 -101.5 109.5t-38.5 146.5q0 86 34 155.5t92.5 118.5t134 76.5t159.5 27.5q74 0 138.5 -15 t103.5 -26l231 3l-47 -168zM637 715q0 27 -14.5 51.5t-37 44.5t-51 32.5t-57.5 12.5q-35 0 -51 -9t-27 -20q-27 -27 -47 -64.5t-34.5 -80.5t-21.5 -87t-7 -83q4 -51 18.5 -91t28.5 -56q14 -12 31.5 -20.5t38.5 -8.5q37 0 68.5 17.5t60.5 45.5q27 27 46 66t31.5 82t18.5 87 t6 81zM633 -285q0 53 -61.5 89t-165.5 71q-59 20 -108.5 36.5t-92.5 37.5q-72 -35 -121 -83t-49 -110q0 -39 24.5 -72.5t68.5 -59t104.5 -40t132.5 -14.5q55 0 103 10t85 29.5t58.5 46t21.5 59.5zM750 1247q0 -55 -34 -96t-98 -41q-59 0 -92.5 41t-33.5 96t33.5 97t92.5 42 q63 0 97.5 -42t34.5 -97z" />
<glyph unicode="&#x122;" horiz-adv-x="1398" d="M778 -295q-10 -53 -39.5 -95t-71.5 -75t-93.5 -55.5t-102.5 -36.5l-31 45q59 16 111.5 52t66.5 102q8 43 -7 71.5t-37.5 46t-43 26.5t-20.5 11q10 45 49 75t98 22q68 -8 101.5 -64.5t19.5 -124.5zM1333 498l-98 -23q-49 -12 -55 -49l-47 -293l118 -20l4 -64 q-47 -12 -111.5 -26.5t-138 -26.5t-151.5 -20.5t-152 -8.5q-152 0 -264 42t-187 118t-112 182.5t-37 235.5q0 150 59.5 293t168.5 252q100 100 234 159.5t288 59.5q41 0 85 -4.5t84 -10.5t73.5 -14t56.5 -16l162 36l-60 -434h-116l-35 279q-47 31 -109.5 50t-140.5 19 q-98 0 -188.5 -51t-159 -143t-109.5 -219t-41 -277q0 -125 35 -219t98 -158q41 -41 101.5 -63.5t130.5 -22.5q98 0 184 35l49 330q4 23 -6 33t-39 16l-104 23l-6 75h542z" />
<glyph unicode="&#x123;" horiz-adv-x="921" d="M516 1245q23 100 112 165t210 103l26 -51q-76 -25 -123 -60.5t-61 -101.5q-8 -39 8.5 -65.5t40 -45t43 -27.5t19.5 -13q-8 -41 -49.5 -74t-98.5 -26q-72 8 -107.5 65t-19.5 131zM717 803v-21q92 -90 92 -196q0 -72 -33 -131.5t-85 -101.5t-116.5 -65.5t-130.5 -23.5 q-35 0 -68.5 7.5t-68.5 17.5q-41 -10 -64.5 -40t-23.5 -54q0 -39 41 -61.5t127 -51.5l88 -31q66 -23 123 -46t100 -55t69 -74t26 -99q0 -53 -35 -106.5t-102.5 -95.5t-168 -68.5t-231.5 -26.5q-82 0 -153.5 15.5t-124 46t-82 76.5t-29.5 106q0 47 26.5 86.5t67.5 70.5 t90 53.5t96 36.5v13q-41 25 -67.5 57.5t-26.5 79.5q0 66 52.5 114t138.5 74v13q-63 41 -101.5 109.5t-38.5 146.5q0 86 34 155.5t92.5 118.5t134 76.5t159.5 27.5q74 0 138.5 -15t103.5 -26l231 3l-47 -168zM637 715q0 27 -14.5 51.5t-37 44.5t-51 32.5t-57.5 12.5 q-35 0 -51 -9t-27 -20q-27 -27 -47 -64.5t-34.5 -80.5t-21.5 -87t-7 -83q4 -51 18.5 -91t28.5 -56q14 -12 31.5 -20.5t38.5 -8.5q37 0 68.5 17.5t60.5 45.5q27 27 46 66t31.5 82t18.5 87t6 81zM633 -285q0 53 -61.5 89t-165.5 71q-59 20 -108.5 36.5t-92.5 37.5 q-72 -35 -121 -83t-49 -110q0 -39 24.5 -72.5t68.5 -59t104.5 -40t132.5 -14.5q55 0 103 10t85 29.5t58.5 46t21.5 59.5z" />
<glyph unicode="&#x124;" horiz-adv-x="1497" d="M1065 1372l-176 252h-4l-246 -252h-70l226 377h215l125 -377h-70zM813 0l6 76l105 22q29 6 39 16.5t14 32.5l63 461h-557l-61 -461q-6 -39 41 -49l100 -22l6 -76h-546l6 76l106 22q47 10 53 49l134 986q4 18 -4.5 29.5t-36.5 19.5l-99 22l-6 76h545l-6 -76l-107 -22 q-47 -12 -53 -49l-57 -433h555l59 433q4 23 -4 32t-37 17l-98 22l-6 76h546l-8 -76l-106 -22q-47 -12 -53 -49l-134 -986q-6 -39 41 -49l99 -22l6 -76h-545z" />
<glyph unicode="&#x125;" horiz-adv-x="1052" d="M616 1475l-176 251h-4l-246 -251h-69l225 376h215l125 -376h-70zM973 174q-20 -37 -52 -74t-70 -66.5t-77 -47t-76 -17.5q-18 0 -45.5 6.5t-53.5 17.5t-45 24.5t-19 25.5q0 18 10 59t25.5 94.5t35 114t37.5 117.5q12 39 25.5 81t23.5 79t17.5 68.5t7.5 50.5q0 31 -29 55 t-65 24q-47 0 -125 -122.5t-199 -372.5l-59 -299l-209 6l75 303l173 856q10 47 -17 60l-125 55l13 55l378 100l-116 -475l-129 -553h20q84 182 147.5 301t116.5 172q43 43 88 62.5t93 19.5q66 0 113.5 -43t47.5 -108q0 -66 -27.5 -168.5t-62.5 -214.5q-10 -35 -23.5 -79 t-27.5 -87t-25.5 -80t-17.5 -57l57 -19l156 115z" />
<glyph unicode="&#x126;" horiz-adv-x="1497" d="M813 0l6 76l105 22q29 6 39 16.5t14 32.5l63 461h-557l-59 -461q-6 -39 41 -49l98 -22l6 -76h-546l6 76l106 22q47 10 53 49l99 736h-205l20 92h197l23 158q4 18 -4.5 29.5t-36.5 19.5l-99 22l-6 76h547l-6 -76l-109 -22q-47 -12 -53 -49l-20 -158h555l22 158q4 23 -4 32 t-37 17l-98 22l-6 76h549l-11 -76l-104 -22q-47 -12 -53 -49l-23 -158h170v-92h-182l-101 -736q-6 -39 41 -49l101 -22l6 -76h-547zM1053 700l24 183h-555l-22 -183h553z" />
<glyph unicode="&#x127;" horiz-adv-x="1052" d="M975 174q-23 -37 -54.5 -74t-68.5 -66.5t-76 -47t-76 -17.5q-18 0 -45.5 6.5t-54.5 17.5t-46 24.5t-19 25.5q0 18 10 59t25.5 94.5t35 114t37.5 117.5q12 39 25.5 81t25 79t17.5 68.5t6 50.5q0 31 -29 55t-65 24q-47 0 -125 -122.5t-197 -372.5l-61 -299l-209 6l75 303 l152 750h-141l18 96h141v4q0 4 3 6q0 4 2 10q2 37 -19 50l-125 55l13 55l380 100l-69 -280h252v-96h-275l-22 -93l-131 -559h20q84 182 146.5 301t117.5 172q43 43 87 62.5t92 19.5q66 0 114.5 -43t48.5 -108q0 -66 -27.5 -168.5t-62.5 -214.5q-10 -33 -23.5 -77t-26.5 -88 t-25.5 -81t-18.5 -57l57 -19l156 115l35 -39v0z" />
<glyph unicode="&#x12a;" horiz-adv-x="749" d="M25 0l6 76l127 22q47 10 53 49l133 986q4 18 -4 30.5t-37 18.5l-119 22l-6 76h586l-6 -76l-127 -22q-47 -10 -53 -49l-134 -986q-6 -39 41 -49l121 -22l6 -76h-587zM215 1436l21 100h542l-2 -100h-561z" />
<glyph unicode="&#x12b;" horiz-adv-x="546" d="M510 174q-23 -37 -54.5 -74t-68.5 -66.5t-77 -47t-74 -17.5q-18 0 -47 8.5t-57 19.5t-46 24.5t-16 23.5l200 758l-61 12l-143 -156l-37 41q18 41 47.5 86t64.5 82t73 61.5t75 24.5q18 0 49 -7t61.5 -18t51 -23.5t18.5 -24.5l-209 -762l57 -21l156 115zM104 1114l21 100 h543l-2 -100h-562z" />
<glyph unicode="&#x12c;" horiz-adv-x="749" d="M25 0l6 76l127 22q47 10 53 49l133 986q4 18 -4 30.5t-37 18.5l-119 22l-6 76h586l-6 -76l-127 -22q-47 -10 -53 -49l-134 -986q-6 -39 41 -49l121 -22l6 -76h-587zM834 1749q-23 -78 -53.5 -147.5t-72.5 -123t-96.5 -85t-126.5 -31.5t-116.5 31.5t-70.5 85t-38 123 t-16 147.5h67q14 -49 29.5 -97t38 -85t52.5 -59.5t71 -22.5t76.5 23.5t68.5 60.5t61.5 84t57.5 96h68z" />
<glyph unicode="&#x12d;" horiz-adv-x="546" d="M510 174q-23 -37 -54.5 -74t-68.5 -66.5t-77 -47t-74 -17.5q-18 0 -47 8.5t-57 19.5t-46 24.5t-16 23.5l200 758l-61 12l-143 -156l-37 41q18 41 47.5 86t64.5 82t73 61.5t75 24.5q18 0 49 -7t61.5 -18t51 -23.5t18.5 -24.5l-209 -762l57 -21l156 115zM725 1427 q-23 -78 -53.5 -147.5t-72.5 -122.5t-96 -85t-126 -32t-117 32t-70.5 85t-38 123t-16.5 147h68q14 -49 29.5 -97t38 -85t52 -59.5t70.5 -22.5t77 23.5t68.5 60.5t61.5 84t57 96h68z" />
<glyph unicode="&#x12e;" horiz-adv-x="749" d="M332 -444q-84 8 -134.5 56t-33.5 142q8 45 34.5 83t66.5 69t87 54.5t94 39.5h-421l6 76l127 22q47 10 53 49l133 986q4 18 -4 30.5t-37 18.5l-119 22l-6 76h586l-6 -76l-127 -22q-47 -10 -53 -49l-134 -986q-6 -37 41 -49l121 -22l6 -76q-47 -8 -93 -28.5t-85 -49 t-64.5 -62.5t-31.5 -71q-6 -53 16.5 -80.5t69.5 -32.5q66 -6 115 29l16 -27q-18 -53 -77.5 -91.5t-145.5 -30.5z" />
<glyph unicode="&#x12f;" horiz-adv-x="546" d="M133 -444q-86 10 -130 65t-26 146q14 70 74 127t129 88q-18 2 -38.5 10t-37 17t-26.5 19.5t-8 16.5l200 758l-61 12l-143 -156l-37 41q18 41 47.5 86t64.5 82t73 61.5t75 24.5q18 0 49 -7t61.5 -18t51 -23.5t18.5 -24.5l-209 -762l59 -21l156 115l35 -39 q-37 -66 -99.5 -121t-121.5 -84t-93 -77t-42 -93q-10 -47 6 -82.5t65 -40.5q31 -4 61.5 4.5t53.5 24.5l16 -27q-18 -53 -78.5 -91.5t-144.5 -30.5zM584 1270q0 -70 -39 -116t-86 -46q-59 0 -91 36t-32 89q0 68 38 115t87 47q59 0 91 -37t32 -88z" />
<glyph unicode="&#x130;" horiz-adv-x="749" d="M25 0l6 76l127 22q47 10 53 49l133 986q4 18 -4 30.5t-37 18.5l-119 22l-6 76h586l-6 -76l-127 -22q-47 -10 -53 -49l-134 -986q-6 -39 41 -49l121 -22l6 -76h-587zM635 1569q0 -55 -34 -96t-97 -41q-59 0 -93 40.5t-34 96.5q0 55 33.5 97t93.5 42q63 0 97 -42t34 -97z " />
<glyph unicode="&#x131;" horiz-adv-x="546" d="M510 174q-23 -37 -54.5 -74t-68.5 -66.5t-77 -47t-74 -17.5q-18 0 -47 8.5t-57 19.5t-46 24.5t-16 23.5l200 758l-61 12l-143 -156l-37 41q18 41 47.5 86t64.5 82t73 61.5t75 24.5q18 0 49 -7t61.5 -18t51 -23.5t18.5 -24.5l-209 -762l57 -21l156 115l37 -39v0z" />
<glyph unicode="&#x134;" horiz-adv-x="870" d="M842 1372l-176 252h-4l-246 -252h-70l225 377h215l125 -377h-69zM911 1204l-120 -22q-47 -8 -54 -49l-82 -619q-39 -289 -156.5 -418t-297.5 -129q-51 0 -95.5 10.5t-78 31t-52 49t-18.5 65.5q0 45 33 75.5t82 30.5q59 0 104 -38.5t55 -149.5h2q33 12 59.5 35.5t48 71 t39 123t32.5 190.5l92 672q6 41 -41 49l-141 22l-5 76h601z" />
<glyph unicode="&#x135;" horiz-adv-x="532" d="M307 184q-49 -217 -107.5 -378.5t-144.5 -247.5q-45 -43 -93 -69t-112 -26q-66 0 -116.5 38t-50.5 104q0 49 34.5 79.5t81.5 30.5q55 0 91 -38.5t53 -94.5l41 8q20 49 48.5 158t76.5 318l161 737l-63 12l-144 -156l-38 41q18 41 47.5 86t65.5 82t74 61.5t73 24.5 q18 0 50 -7t61.5 -17t51 -23.5t17.5 -25.5zM578 1051l-177 252h-4l-245 -252h-70l225 376h215l125 -376h-69z" />
<glyph unicode="&#x136;" horiz-adv-x="1341" d="M764 -303q-23 -102 -112 -165.5t-210 -102.5l-26 51q76 25 123 60.5t61 101.5q8 39 -8.5 65.5t-40 45t-43 27.5t-19.5 13q8 41 49.5 74t98.5 27q72 -8 107.5 -65.5t19.5 -131.5zM772 0l6 76l62 20q37 12 8 62l-242 456q-10 -10 -22 -18q-10 -8 -23.5 -19.5t-25.5 -21.5 q-31 -27 -70 -59l-45 -349q-6 -39 41 -49l98 -22l6 -76h-547l7 76l106 22q29 6 39 18.5t14 30.5l133 986q4 18 -4 29.5t-37 19.5l-98 22l-6 76h547l-8 -76l-105 -22q-47 -12 -53 -49l-70 -512l367 337q74 72 117 115t43 68q-2 18 -13.5 28.5t-42.5 20.5l-53 16l-6 76h520 l-6 -76l-43 -8q-61 -12 -121.5 -49t-146.5 -107l-324 -286l324 -572q16 -29 29.5 -46t25.5 -26.5t26.5 -14.5t32.5 -9l48 -12l4 -76h-492z" />
<glyph unicode="&#x137;" horiz-adv-x="931" d="M510 -303q-23 -102 -112 -165.5t-210 -102.5l-26 51q76 25 123 60.5t61 101.5q8 39 -8 65.5t-40 45t-43 27.5t-19 13q8 41 49 74t98 27q72 -8 107.5 -65.5t19.5 -131.5zM895 209q-18 -43 -49 -85t-68 -76t-78 -55.5t-77 -21.5q-10 0 -26.5 6.5t-32 13.5t-28 16t-14.5 16 l-143 442l-74 -31l-67 -442l-207 6l75 303l173 856q10 47 -17 60l-125 55l13 55l376 100l-114 -473l-111 -452h14l406 215v20q-47 10 -68.5 39t-21.5 68q0 53 40 90t93 37q59 0 100 -41t41 -94q0 -59 -21.5 -98.5t-65.5 -71t-109.5 -60t-153.5 -67.5q-4 -2 -7 -3t-7 -4 l-9 -4l150 -401h43l131 121z" />
<glyph unicode="&#x139;" horiz-adv-x="1165" d="M991 0h-973l7 76l106 22q29 6 39 18.5t14 30.5l131 986q6 39 -41 49l-100 22l-6 76h561l-6 -76l-119 -22q-29 -6 -39 -18.5t-14 -30.5l-139 -1047h59q117 0 188.5 5t113.5 19.5t64.5 40t41.5 66.5l86 199h125zM436 1372h-67l239 377h234z" />
<glyph unicode="&#x13a;" horiz-adv-x="536" d="M350 1468h-67l239 377h234zM489 174q-20 -37 -51.5 -74t-68.5 -66.5t-77 -47t-75 -17.5q-18 0 -47 8.5t-56.5 19.5t-46 24.5t-16.5 23.5l225 1112q10 47 -18 60l-123 55l10 55l373 100l-276 -1308l57 -21l156 115z" />
<glyph unicode="&#x13b;" horiz-adv-x="1165" d="M655 -303q-23 -102 -111.5 -165.5t-209.5 -102.5l-27 51q76 25 123 60.5t62 101.5q8 39 -8.5 65.5t-40 45t-43 27.5t-19.5 13q8 41 49 74t98 27q72 -8 107.5 -65.5t19.5 -131.5zM991 0h-973l7 76l106 22q29 6 39 18.5t14 30.5l131 986q6 39 -41 49l-100 22l-6 76h561 l-6 -76l-119 -22q-29 -6 -39 -18.5t-14 -30.5l-139 -1047h59q117 0 188.5 5t113.5 19.5t64.5 40t41.5 66.5l86 199h125z" />
<glyph unicode="&#x13c;" horiz-adv-x="536" d="M303 -303q-23 -102 -112 -165.5t-209 -102.5l-27 51q76 25 123 60.5t61 101.5q8 39 -8 65.5t-39.5 45t-43 27.5t-19.5 13q8 41 49 74t98 27q72 -8 107.5 -65.5t19.5 -131.5zM489 174q-20 -37 -51.5 -74t-68.5 -66.5t-77 -47t-75 -17.5q-18 0 -47 8.5t-56.5 19.5t-46 24.5 t-16.5 23.5l225 1112q10 47 -18 60l-123 55l10 55l373 100l-276 -1308l57 -21l156 115z" />
<glyph unicode="&#x13d;" horiz-adv-x="1435" d="M1475 1108q0 -68 -33 -127t-85 -110.5t-117.5 -94.5t-131.5 -78l-49 43q41 23 80 53.5t69.5 65.5t49 73t18.5 77q0 43 -21.5 75.5t-48 54t-48 33t-21.5 13.5q0 49 45 85t104 36q78 0 133.5 -57.5t55.5 -141.5zM991 0h-973l7 76l106 22q29 6 39 18.5t14 30.5l131 986 q6 39 -41 49l-100 22l-6 76h561l-6 -76l-119 -22q-29 -6 -39 -18.5t-14 -30.5l-139 -1047h59q117 0 188.5 5t113.5 19.5t64.5 40t41.5 66.5l86 199h125z" />
<glyph unicode="&#x13e;" horiz-adv-x="937" d="M967 1229q0 -68 -33 -127.5t-85 -110.5t-117.5 -94t-131.5 -78l-49 43q41 23 80 53.5t69.5 65.5t49 73t18.5 76q0 43 -21.5 76t-48 54.5t-48 33t-21.5 13.5q0 49 45 84.5t104 35.5q78 0 133.5 -57t55.5 -141zM489 174q-20 -37 -51.5 -74t-68.5 -66.5t-77 -47t-75 -17.5 q-18 0 -47 8.5t-56.5 19.5t-46 24.5t-16.5 23.5l225 1112q10 47 -18 60l-123 55l10 55l373 100l-276 -1308l57 -21l156 115z" />
<glyph unicode="&#x13f;" horiz-adv-x="1351" d="M991 0h-973l7 76l106 22q29 6 39 18.5t14 30.5l131 986q6 39 -41 49l-100 22l-6 76h561l-6 -76l-119 -22q-29 -6 -39 -18.5t-14 -30.5l-139 -1047h59q117 0 188.5 5t113.5 19.5t64.5 40t41.5 66.5l86 199h125zM1495 643q0 -61 -43 -106t-109 -45t-108.5 45t-42.5 106 t43 106.5t108 45.5q66 0 109 -46.5t43 -105.5z" />
<glyph unicode="&#x140;" horiz-adv-x="866" d="M944 653q0 -61 -43 -106t-108 -45q-66 0 -109 45t-43 106t43 106.5t109 45.5t108.5 -46.5t42.5 -105.5zM489 174q-20 -37 -51.5 -74t-68.5 -66.5t-77 -47t-75 -17.5q-18 0 -47 8.5t-56.5 19.5t-46 24.5t-16.5 23.5l225 1112q10 47 -18 60l-123 55l10 55l373 100 l-276 -1308l57 -21l156 115z" />
<glyph unicode="&#x141;" horiz-adv-x="1163" d="M70 362v93l161 43l84 635q6 39 -41 49l-100 22l-6 76h561l-6 -76l-119 -22q-29 -6 -39 -18.5t-14 -30.5l-76 -570l207 55v-92l-219 -59q-4 -29 -8 -59q-4 -27 -9.5 -62t-9.5 -70q-10 -84 -24 -190h59q117 0 188.5 5t113.5 19.5t64.5 40t41.5 66.5l86 199h125l-99 -416 h-973l7 76l106 22q29 6 39 18.5t14 30.5l35 254z" />
<glyph unicode="&#x142;" horiz-adv-x="577" d="M-2 356v93l182 51l21 102q10 47 22.5 105.5t24.5 119.5q29 143 65 330q10 47 -18 60l-123 55l10 55l375 100q-31 -145 -61 -294q-29 -129 -61 -283t-62 -297l168 45v-94l-189 -51q-29 -135 -49 -228.5t-24 -105.5l57 -21l156 115l36 -39q-23 -37 -54.5 -74t-68 -66.5 t-76.5 -47t-75 -17.5q-18 0 -45 14.5t-52.5 34t-43 39t-15.5 29.5l64 315z" />
<glyph unicode="&#x143;" horiz-adv-x="1466" d="M803 1372h-68l240 377h233zM1507 1204l-98 -20q-27 -6 -46.5 -20.5t-35.5 -57.5t-30.5 -121t-30.5 -209l-109 -792h-153l-566 1067h-12l-74 -547q-18 -133 -25.5 -211t-4 -120t17.5 -57.5t41 -19.5l102 -20l6 -76h-483l6 76l99 20q27 6 46 21.5t34.5 58.5t30 121 t30.5 207l72 526q10 72 -2.5 104.5t-53.5 45.5l-90 24l-6 76h403l510 -971h13l65 467q18 135 26.5 214t6.5 120t-17.5 55.5t-41.5 18.5l-103 20l-6 76h485z" />
<glyph unicode="&#x144;" horiz-adv-x="1083" d="M549 1051h-68l240 376h233zM1034 174q-23 -37 -54.5 -74t-68.5 -66.5t-76.5 -47t-74.5 -17.5q-18 0 -46 6.5t-54.5 17.5t-46 24.5t-19.5 25.5q0 18 10 59t26.5 94.5t35 114t36.5 117.5q12 39 26.5 81t25 79t17.5 68.5t7 50.5q0 31 -29.5 55t-64.5 24q-49 0 -127 -122.5 t-197 -372.5l-61 -299l-209 6l74 303l104 496l-59 10l-146 -148l-36 41q18 41 46.5 86t63.5 82t73 61.5t75 24.5q18 0 47.5 -6t58.5 -15t50.5 -21.5t21.5 -24.5q0 -23 -15.5 -89.5t-35 -144.5t-40 -149.5t-28.5 -104.5h18q86 182 148.5 301t118.5 172q43 43 87 62.5t91 19.5 q66 0 114 -43t48 -108q0 -66 -27 -168.5t-61 -214.5l-97 -301l58 -21l155 115z" />
<glyph unicode="&#x145;" horiz-adv-x="1466" d="M797 -303q-23 -102 -112 -165.5t-210 -102.5l-26 51q76 25 122.5 60.5t61.5 101.5q8 39 -8.5 65.5t-40 45t-43 27.5t-19.5 13q8 41 49 74t99 27q72 -8 107.5 -65.5t19.5 -131.5zM1507 1204l-98 -20q-27 -6 -46.5 -20.5t-35.5 -57.5t-30.5 -121t-30.5 -209l-109 -792h-153 l-566 1067h-12l-74 -547q-18 -133 -25.5 -211t-4 -120t17.5 -57.5t41 -19.5l102 -20l6 -76h-483l6 76l99 20q27 6 46 21.5t34.5 58.5t30 121t30.5 207l72 526q10 72 -2.5 104.5t-53.5 45.5l-90 24l-6 76h403l510 -971h13l65 467q18 135 26.5 214t6.5 120t-17.5 55.5 t-41.5 18.5l-103 20l-6 76h485z" />
<glyph unicode="&#x146;" horiz-adv-x="1083" d="M1034 174q-23 -37 -54.5 -74t-68.5 -66.5t-76.5 -47t-74.5 -17.5q-18 0 -46 6.5t-54.5 17.5t-46 24.5t-19.5 25.5q0 18 10 59t26.5 94.5t35 114t36.5 117.5q12 39 26.5 81t25 79t17.5 68.5t7 50.5q0 31 -29.5 55t-64.5 24q-49 0 -127 -122.5t-197 -372.5l-61 -299l-209 6 l74 303l104 496l-59 10l-146 -148l-36 41q18 41 46.5 86t63.5 82t73 61.5t75 24.5q18 0 47.5 -6t58.5 -15t50.5 -21.5t21.5 -24.5q0 -23 -15.5 -89.5t-35 -144.5t-40 -149.5t-28.5 -104.5h18q86 182 148.5 301t118.5 172q43 43 87 62.5t91 19.5q66 0 114 -43t48 -108 q0 -66 -27 -168.5t-61 -214.5l-97 -301l58 -21l155 115zM582 -303q-23 -102 -112 -165.5t-210 -102.5l-27 51q76 25 123 60.5t62 101.5q8 39 -8.5 65.5t-40 45t-43 27.5t-19.5 13q8 41 49 74t99 27q72 -8 107.5 -65.5t19.5 -131.5z" />
<glyph unicode="&#x147;" horiz-adv-x="1466" d="M944 1372h-215l-123 377h68l178 -254h4l244 254h69zM1507 1204l-98 -20q-27 -6 -46.5 -20.5t-35.5 -57.5t-30.5 -121t-30.5 -209l-109 -792h-153l-566 1067h-12l-74 -547q-18 -133 -25.5 -211t-4 -120t17.5 -57.5t41 -19.5l102 -20l6 -76h-483l6 76l99 20q27 6 46 21.5 t34.5 58.5t30 121t30.5 207l72 526q10 72 -2.5 104.5t-53.5 45.5l-90 24l-6 76h403l510 -971h13l65 467q18 135 26.5 214t6.5 120t-17.5 55.5t-41.5 18.5l-103 20l-6 76h485z" />
<glyph unicode="&#x148;" horiz-adv-x="1083" d="M702 1051h-215l-122 376h67l178 -253h4l244 253h70zM1034 174q-23 -37 -54.5 -74t-68.5 -66.5t-76.5 -47t-74.5 -17.5q-18 0 -46 6.5t-54.5 17.5t-46 24.5t-19.5 25.5q0 18 10 59t26.5 94.5t35 114t36.5 117.5q12 39 26.5 81t25 79t17.5 68.5t7 50.5q0 31 -29.5 55 t-64.5 24q-49 0 -127 -122.5t-197 -372.5l-61 -299l-209 6l74 303l104 496l-59 10l-146 -148l-36 41q18 41 46.5 86t63.5 82t73 61.5t75 24.5q18 0 47.5 -6t58.5 -15t50.5 -21.5t21.5 -24.5q0 -23 -15.5 -89.5t-35 -144.5t-40 -149.5t-28.5 -104.5h18q86 182 148.5 301 t118.5 172q43 43 87 62.5t91 19.5q66 0 114 -43t48 -108q0 -66 -27 -168.5t-61 -214.5l-97 -301l58 -21l155 115z" />
<glyph unicode="&#x14c;" horiz-adv-x="1443" d="M547 1436l20 100h543l-2 -100h-561zM1386 713q0 -160 -57 -301.5t-162 -245.5q-90 -92 -209.5 -144.5t-265.5 -52.5q-131 0 -239.5 44t-187.5 123t-122 188.5t-43 238.5q0 147 47.5 279.5t139.5 236.5t220 166t288 62q131 0 239.5 -44t186 -123t121.5 -188.5t44 -238.5z M1137 758q0 104 -26 201.5t-91 162.5q-43 43 -101.5 67.5t-136.5 24.5t-140 -33.5t-110.5 -90t-82 -129t-55 -150.5t-32 -153.5t-10.5 -137.5q0 -104 24.5 -200.5t90.5 -161.5q43 -43 101.5 -67.5t138.5 -24.5q78 0 140 33.5t109.5 90t81 129t56 149.5t33 152t10.5 138z" />
<glyph unicode="&#x14d;" horiz-adv-x="944" d="M311 1114l21 100h542l-2 -100h-561zM877 547q0 -106 -37 -210t-101.5 -185.5t-150.5 -132t-187 -50.5q-84 0 -147.5 31t-105.5 85t-63.5 129t-21.5 165q0 104 37 207.5t101.5 185.5t151.5 132t188 50q84 0 146.5 -30.5t104.5 -84t63.5 -129t21.5 -163.5zM684 633 q0 47 -8 90t-26.5 77t-45 53t-63.5 19q-49 0 -91 -37.5t-76 -93t-57.5 -117t-35.5 -110.5q-12 -51 -18.5 -106.5t-6.5 -102.5t8 -92t26.5 -81t46.5 -58.5t64 -22.5q51 0 93.5 39t75 96.5t55 122t34.5 113.5q10 53 17.5 108.5t7.5 102.5z" />
<glyph unicode="&#x14e;" horiz-adv-x="1443" d="M1386 713q0 -160 -57 -301.5t-162 -245.5q-90 -92 -209.5 -144.5t-265.5 -52.5q-131 0 -239.5 44t-187.5 123t-122 188.5t-43 238.5q0 147 47.5 279.5t139.5 236.5t220 166t288 62q131 0 239.5 -44t186 -123t121.5 -188.5t44 -238.5zM1137 758q0 104 -26 201.5t-91 162.5 q-43 43 -101.5 67.5t-136.5 24.5t-140 -33.5t-110.5 -90t-82 -129t-55 -150.5t-32 -153.5t-10.5 -137.5q0 -104 24.5 -200.5t90.5 -161.5q43 -43 101.5 -67.5t138.5 -24.5q78 0 140 33.5t109.5 90t81 129t56 149.5t33 152t10.5 138zM1178 1749q-23 -78 -53.5 -147.5 t-72.5 -123t-96.5 -85t-126.5 -31.5t-116.5 31.5t-70.5 85t-38 123t-16 147.5h67q14 -49 29.5 -97t38 -85t52.5 -59.5t71 -22.5t76.5 23.5t68.5 60.5t61.5 84t57.5 96h68z" />
<glyph unicode="&#x14f;" horiz-adv-x="944" d="M877 547q0 -106 -37 -210t-101.5 -185.5t-150.5 -132t-187 -50.5q-84 0 -147.5 31t-105.5 85t-63.5 129t-21.5 165q0 104 37 207.5t101.5 185.5t151.5 132t188 50q84 0 146.5 -30.5t104.5 -84t63.5 -129t21.5 -163.5zM684 633q0 47 -8 90t-26.5 77t-45 53t-63.5 19 q-49 0 -91 -37.5t-76 -93t-57.5 -117t-35.5 -110.5q-12 -51 -18.5 -106.5t-6.5 -102.5t8 -92t26.5 -81t46.5 -58.5t64 -22.5q51 0 93.5 39t75 96.5t55 122t34.5 113.5q10 53 17.5 108.5t7.5 102.5zM911 1427q-23 -78 -53.5 -147.5t-72.5 -122.5t-96 -85t-126 -32t-117 32 t-70.5 85t-37.5 123t-16 147h67q14 -49 29.5 -97t38 -85t52.5 -59.5t71 -22.5t76.5 23.5t68.5 60.5t61.5 84t57.5 96h67z" />
<glyph unicode="&#x150;" horiz-adv-x="1443" d="M936 1372h-66l234 377h215zM600 1372h-65l233 377h215zM1386 713q0 -160 -57 -301.5t-162 -245.5q-90 -92 -209.5 -144.5t-265.5 -52.5q-131 0 -239.5 44t-187.5 123t-122 188.5t-43 238.5q0 147 47.5 279.5t139.5 236.5t220 166t288 62q131 0 239.5 -44t186 -123 t121.5 -188.5t44 -238.5zM1137 758q0 104 -26 201.5t-91 162.5q-43 43 -101.5 67.5t-136.5 24.5t-140 -33.5t-110.5 -90t-82 -129t-55 -150.5t-32 -153.5t-10.5 -137.5q0 -104 24.5 -200.5t90.5 -161.5q43 -43 101.5 -67.5t138.5 -24.5q78 0 140 33.5t109.5 90t81 129 t56 149.5t33 152t10.5 138z" />
<glyph unicode="&#x151;" horiz-adv-x="944" d="M698 1051h-65l233 376h215zM362 1051h-65l233 376h215zM877 547q0 -106 -37 -210t-101.5 -185.5t-150.5 -132t-187 -50.5q-84 0 -147.5 31t-105.5 85t-63.5 129t-21.5 165q0 104 37 207.5t101.5 185.5t151.5 132t188 50q84 0 146.5 -30.5t104.5 -84t63.5 -129 t21.5 -163.5zM684 633q0 47 -8 90t-26.5 77t-45 53t-63.5 19q-49 0 -91 -37.5t-76 -93t-57.5 -117t-35.5 -110.5q-12 -51 -18.5 -106.5t-6.5 -102.5t8 -92t26.5 -81t46.5 -58.5t64 -22.5q51 0 93.5 39t75 96.5t55 122t34.5 113.5q10 53 17.5 108.5t7.5 102.5z" />
<glyph unicode="&#x152;" horiz-adv-x="1916" d="M1749 0h-1020q-150 0 -266.5 41t-197.5 114.5t-123 177t-42 228.5q0 147 49.5 269t157.5 229q98 98 256 159.5t357 61.5h999l-68 -401h-106l-21 184q-6 45 -19 71.5t-54 40t-119 16.5t-209 3h-72l-67 -502h39q104 0 150 13.5t69 52.5l51 127h92l-108 -467h-91l7 129 q0 16 -6.5 27.5t-26 18.5t-56 10t-98.5 3h-35l-69 -520h67q139 0 222.5 4t131.5 17.5t70.5 40t42.5 69.5l74 170h129zM872 1194q-111 -4 -206 -48t-163.5 -125t-108.5 -198.5t-40 -267.5q0 -104 26 -191.5t78 -148.5t131 -95t183 -34h96l144 1077z" />
<glyph unicode="&#x153;" horiz-adv-x="1406" d="M1395 758q0 -53 -31 -95t-97.5 -85t-171 -95.5t-251.5 -128.5v-37q0 -96 51 -153.5t127 -57.5q41 0 101.5 33t152.5 97l29 -41q-78 -96 -162 -161t-197 -65q-96 0 -154.5 43t-86.5 115q-55 -72 -132 -115t-172 -43q-84 0 -147.5 30t-105.5 84t-63.5 129t-21.5 165 q0 104 35 207.5t98.5 185.5t151.5 133t193 51q111 0 178 -52t100 -144q61 88 147.5 142t192.5 54q111 0 173.5 -56t62.5 -140zM684 633q0 47 -8 90t-26.5 77t-45 53t-63.5 19q-49 0 -91 -37.5t-76 -93t-57.5 -117t-35.5 -110.5q-12 -51 -18.5 -106.5t-6.5 -102.5t8 -92 t26.5 -81t46.5 -58.5t64 -22.5q51 0 93.5 39t75 96.5t55 122t34.5 113.5q10 53 17.5 108.5t7.5 102.5zM850 420q109 57 180.5 101t113.5 82t59.5 74t17.5 77q0 20 -18.5 36.5t-44 28.5t-52.5 18.5t-43 6.5q-27 0 -42 -6.5t-26 -16.5q-18 -18 -39.5 -56t-43 -90t-39 -116.5 t-29.5 -138.5h6z" />
<glyph unicode="&#x154;" horiz-adv-x="1269" d="M653 1372h-67l239 377h234zM868 0l-69 152l-197 405l-125 6l-57 -416q-6 -35 41 -49l106 -22l6 -76h-553l7 76l104 22q29 6 39 18.5t14 30.5l131 986q6 35 -41 49l-98 22l-6 76h573q109 0 191 -23.5t137 -64.5t83 -97.5t28 -119.5q0 -147 -97.5 -242.5t-263.5 -140.5 l219 -395q18 -35 32.5 -54.5t28 -31t27 -15.5t25.5 -8l45 -12l6 -76h-336zM924 934q0 121 -75 191.5t-204 70.5h-86l-70 -534l138 -27q129 16 213 90t84 209z" />
<glyph unicode="&#x155;" horiz-adv-x="866" d="M518 1051h-67l239 376h234zM688 807q-6 2 -12 6q-4 2 -9 4t-8 0q-25 -20 -66.5 -87.5t-86.5 -151.5t-87 -170t-67 -144l-53 -272l-209 6l74 303l104 502l-59 12l-146 -156l-36 41q18 41 47.5 86t64.5 82t73 61.5t75 24.5q18 0 48 -6t58.5 -15t49 -21.5t20.5 -24.5 q0 -23 -16.5 -90.5t-38 -147.5t-43 -155.5t-33.5 -114.5h28q20 55 50 125.5t63 139.5t65.5 126t61.5 86q39 55 74 78.5t94 23.5q57 0 98 -39.5t41 -107.5q0 -61 -34.5 -101t-81.5 -40q-55 0 -85 38t-18 99z" />
<glyph unicode="&#x156;" horiz-adv-x="1269" d="M782 -303q-23 -102 -111.5 -165.5t-209.5 -102.5l-27 51q76 25 123 60.5t61 101.5q8 39 -8 65.5t-39.5 45t-43 27.5t-19.5 13q8 41 49 74t98 27q72 -8 107.5 -65.5t19.5 -131.5zM868 0l-69 152l-197 405l-125 6l-57 -416q-6 -35 41 -49l106 -22l6 -76h-553l7 76l104 22 q29 6 39 18.5t14 30.5l131 986q6 35 -41 49l-98 22l-6 76h573q109 0 191 -23.5t137 -64.5t83 -97.5t28 -119.5q0 -147 -97.5 -242.5t-263.5 -140.5l219 -395q18 -35 32.5 -54.5t28 -31t27 -15.5t25.5 -8l45 -12l6 -76h-336zM924 934q0 121 -75 191.5t-204 70.5h-86l-70 -534 l138 -27q129 16 213 90t84 209z" />
<glyph unicode="&#x157;" horiz-adv-x="866" d="M311 -295q-10 -53 -39.5 -95t-71.5 -75t-93.5 -55.5t-102.5 -36.5l-31 45q59 16 111.5 52t67.5 102q8 43 -7.5 71.5t-38 46t-43 26.5t-20.5 11q10 45 49 75t98 22q68 -8 101.5 -64.5t19.5 -124.5zM688 807q-6 2 -12 6q-4 2 -9 4t-8 0q-25 -20 -66.5 -87.5t-86.5 -151.5 t-87 -170t-67 -144l-53 -272l-209 6l74 303l104 502l-59 12l-146 -156l-36 41q18 41 47.5 86t64.5 82t73 61.5t75 24.5q18 0 48 -6t58.5 -15t49 -21.5t20.5 -24.5q0 -23 -16.5 -90.5t-38 -147.5t-43 -155.5t-33.5 -114.5h28q20 55 50 125.5t63 139.5t65.5 126t61.5 86 q39 55 74 78.5t94 23.5q57 0 98 -39.5t41 -107.5q0 -61 -34.5 -101t-81.5 -40q-55 0 -85 38t-18 99z" />
<glyph unicode="&#x158;" horiz-adv-x="1269" d="M797 1372h-215l-123 377h67l179 -254h4l243 254h70zM868 0l-69 152l-197 405l-125 6l-57 -416q-6 -35 41 -49l106 -22l6 -76h-553l7 76l104 22q29 6 39 18.5t14 30.5l131 986q6 35 -41 49l-98 22l-6 76h573q109 0 191 -23.5t137 -64.5t83 -97.5t28 -119.5 q0 -147 -97.5 -242.5t-263.5 -140.5l219 -395q18 -35 32.5 -54.5t28 -31t27 -15.5t25.5 -8l45 -12l6 -76h-336zM924 934q0 121 -75 191.5t-204 70.5h-86l-70 -534l138 -27q129 16 213 90t84 209z" />
<glyph unicode="&#x159;" horiz-adv-x="866" d="M635 1051h-215l-123 376h68l178 -253h4l244 253h69zM688 807q-6 2 -12 6q-4 2 -9 4t-8 0q-25 -20 -66.5 -87.5t-86.5 -151.5t-87 -170t-67 -144l-53 -272l-209 6l74 303l104 502l-59 12l-146 -156l-36 41q18 41 47.5 86t64.5 82t73 61.5t75 24.5q18 0 48 -6t58.5 -15 t49 -21.5t20.5 -24.5q0 -23 -16.5 -90.5t-38 -147.5t-43 -155.5t-33.5 -114.5h28q20 55 50 125.5t63 139.5t65.5 126t61.5 86q39 55 74 78.5t94 23.5q57 0 98 -39.5t41 -107.5q0 -61 -34.5 -101t-81.5 -40q-55 0 -85 38t-18 99z" />
<glyph unicode="&#x15a;" horiz-adv-x="1062" d="M571 1372h-67l239 377h234zM944 362q0 -90 -38 -161.5t-104.5 -123.5t-157.5 -80t-195 -28q-125 0 -222.5 18.5t-183.5 45.5l31 381l106 -2l60 -295q47 -23 105 -36t136 -13q123 0 187.5 58t64.5 153q0 49 -19.5 88t-55 72.5t-84 65.5t-105.5 64q-72 41 -129 80t-96 83 t-59.5 98.5t-20.5 127.5q0 76 37 139.5t99 109.5t143 73t169 27q53 0 93 -3.5t76 -8.5t69 -12t70 -15l16 4t17.5 4t19.5 6q23 6 55 14l-53 -405l-111 2l-35 264q-53 23 -112.5 36t-130.5 13q-41 0 -80 -11t-68.5 -32.5t-47 -51.5t-17.5 -67q0 -53 19.5 -93t55 -75.5 t87 -67.5t112.5 -67t115.5 -71.5t94.5 -80.5t63.5 -99.5t23.5 -127.5z" />
<glyph unicode="&#x15b;" horiz-adv-x="747" d="M426 1051h-68l240 376h233zM737 793q0 -53 -29.5 -85t-80.5 -32q-43 0 -67.5 28.5t-24.5 69.5q0 23 12 47q-33 16 -78 30.5t-90 18.5q-14 -6 -29.5 -21t-29 -33.5t-22.5 -37t-11 -33.5q-2 -27 12 -54t36.5 -55t51.5 -54.5t55 -53.5q31 -31 66 -65.5t62.5 -72.5t45 -77 t15.5 -80q-4 -63 -39 -112t-85 -83t-110.5 -51.5t-115.5 -17.5t-108.5 8.5t-93.5 28t-64.5 51t-24.5 80.5q0 51 30.5 83t81.5 32q43 0 67 -28.5t24 -69.5q0 -10 -4.5 -22.5t-8.5 -22.5q35 -16 90.5 -33t100.5 -21q27 16 58.5 57.5t35.5 73.5q2 27 -12.5 53.5t-37 53 t-51 53.5t-55.5 53q-33 31 -67.5 66t-62 71.5t-45 76.5t-13.5 81q4 66 38 115t83 81t107.5 48t113.5 16t105 -7t88 -25.5t59.5 -50t21.5 -78.5z" />
<glyph unicode="&#x15c;" horiz-adv-x="1062" d="M842 1372l-176 252h-4l-246 -252h-70l225 377h215l125 -377h-69zM944 362q0 -90 -38 -161.5t-104.5 -123.5t-157.5 -80t-195 -28q-125 0 -222.5 18.5t-183.5 45.5l31 381l106 -2l60 -295q47 -23 105 -36t136 -13q123 0 187.5 58t64.5 153q0 49 -19.5 88t-55 72.5 t-84 65.5t-105.5 64q-72 41 -129 80t-96 83t-59.5 98.5t-20.5 127.5q0 76 37 139.5t99 109.5t143 73t169 27q53 0 93 -3.5t76 -8.5t69 -12t70 -15l16 4t17.5 4t19.5 6q23 6 55 14l-53 -405l-111 2l-35 264q-53 23 -112.5 36t-130.5 13q-41 0 -80 -11t-68.5 -32.5t-47 -51.5 t-17.5 -67q0 -53 19.5 -93t55 -75.5t87 -67.5t112.5 -67t115.5 -71.5t94.5 -80.5t63.5 -99.5t23.5 -127.5z" />
<glyph unicode="&#x15d;" horiz-adv-x="747" d="M715 1051l-176 252h-4l-246 -252h-70l225 376h215l125 -376h-69zM737 793q0 -53 -29.5 -85t-80.5 -32q-43 0 -67.5 28.5t-24.5 69.5q0 23 12 47q-33 16 -78 30.5t-90 18.5q-14 -6 -29.5 -21t-29 -33.5t-22.5 -37t-11 -33.5q-2 -27 12 -54t36.5 -55t51.5 -54.5t55 -53.5 q31 -31 66 -65.5t62.5 -72.5t45 -77t15.5 -80q-4 -63 -39 -112t-85 -83t-110.5 -51.5t-115.5 -17.5t-108.5 8.5t-93.5 28t-64.5 51t-24.5 80.5q0 51 30.5 83t81.5 32q43 0 67 -28.5t24 -69.5q0 -10 -4.5 -22.5t-8.5 -22.5q35 -16 90.5 -33t100.5 -21q27 16 58.5 57.5 t35.5 73.5q2 27 -12.5 53.5t-37 53t-51 53.5t-55.5 53q-33 31 -67.5 66t-62 71.5t-45 76.5t-13.5 81q4 66 38 115t83 81t107.5 48t113.5 16t105 -7t88 -25.5t59.5 -50t21.5 -78.5z" />
<glyph unicode="&#x15e;" horiz-adv-x="1062" d="M217 -506q172 20 259 67.5t87 114.5q0 43 -39 70t-121 27q-72 0 -135 -15l4 45l181 166h-4q-125 0 -222.5 18.5t-183.5 45.5l31 381l106 -2l60 -295q47 -23 105 -36t136 -13q123 0 187.5 58t64.5 153q0 49 -19.5 88t-55 72.5t-84 65.5t-105.5 64q-72 41 -129 80t-96 83 t-59.5 98.5t-20.5 127.5q0 76 37 139.5t99 109.5t143 73t169 27q53 0 93 -3.5t76 -8.5t69 -12t70 -15l16 4t17.5 4t19.5 6q23 6 55 14l-53 -405l-111 2l-35 264q-53 23 -112.5 36t-130.5 13q-41 0 -80 -11t-68.5 -32.5t-47 -51.5t-17.5 -67q0 -53 19.5 -93t55 -75.5 t87 -67.5t112.5 -67t115.5 -71.5t94.5 -80.5t63.5 -99.5t23.5 -127.5q0 -78 -28.5 -142t-80 -114.5t-123 -83t-155.5 -45.5l-102 -90q119 -4 186.5 -48t67.5 -124q0 -55 -34 -102t-97.5 -84t-151.5 -59.5t-197 -28.5z" />
<glyph unicode="&#x15f;" horiz-adv-x="747" d="M8 -506q172 20 259 67.5t87 114.5q0 43 -39 70t-120 27q-72 0 -136 -15l4 45l183 168q-51 2 -97.5 11.5t-82 29t-56 50t-20.5 75.5q0 51 30.5 83t81.5 32q43 0 67 -28.5t24 -69.5q0 -10 -4.5 -22.5t-8.5 -22.5q35 -16 90.5 -33t100.5 -21q27 16 58.5 57.5t35.5 73.5 q2 27 -12.5 53.5t-37 53t-51 53.5t-55.5 53q-33 31 -67.5 66t-62 71.5t-45 76.5t-13.5 81q4 66 38 115t83 81t107.5 48t113.5 16t105 -7t88 -25.5t59.5 -50t21.5 -78.5q0 -53 -29.5 -85t-80.5 -32q-43 0 -67.5 28.5t-24.5 69.5q0 23 12 47q-33 16 -78 30.5t-90 18.5 q-14 -6 -29.5 -21t-29 -33.5t-22.5 -37t-11 -33.5q-2 -27 12 -54t36.5 -55t51.5 -54.5t55 -53.5q31 -31 66 -65.5t62.5 -72.5t45 -77t15.5 -80q-4 -55 -31 -99t-66.5 -75.5t-89 -53t-100.5 -30.5l-98 -88q119 -4 186.5 -48t67.5 -124q0 -55 -34 -102t-97.5 -84t-151.5 -59.5 t-197 -28.5z" />
<glyph unicode="&#x160;" horiz-adv-x="1060" d="M944 362q0 -90 -38 -161.5t-104.5 -123.5t-157.5 -80t-195 -28q-125 0 -222.5 18.5t-183.5 45.5l31 381l106 -2l60 -295q47 -23 105 -36t136 -13q123 0 187.5 58t64.5 153q0 49 -19.5 88t-55 72.5t-84 65.5t-105.5 64q-72 41 -129 80t-96 83t-59.5 98.5t-20.5 127.5 q0 76 37 139.5t99 109.5t143 73t169 27q53 0 93 -3.5t76 -8.5t69 -12t70 -15l16 4t17.5 4t19.5 6q23 6 55 14l-53 -405l-111 2l-35 264q-53 23 -112.5 36t-130.5 13q-41 0 -80 -11t-68.5 -32.5t-47 -51.5t-17.5 -67q0 -53 19.5 -93t55 -75.5t87 -67.5t112.5 -67t115.5 -71.5 t94.5 -80.5t63.5 -99.5t23.5 -127.5zM760 1393h-215l-123 376h67l179 -253h4l243 253h70z" />
<glyph unicode="&#x161;" horiz-adv-x="747" d="M737 793q0 -53 -29.5 -85t-80.5 -32q-43 0 -67.5 28.5t-24.5 69.5q0 23 12 47q-33 16 -78 30.5t-90 18.5q-14 -6 -29.5 -21t-29 -33.5t-22.5 -37t-11 -33.5q-2 -27 12 -54t36.5 -55t51.5 -54.5t55 -53.5q31 -31 66 -65.5t62.5 -72.5t45 -77t15.5 -80q-4 -63 -39 -112 t-85 -83t-110.5 -51.5t-115.5 -17.5t-108.5 8.5t-93.5 28t-64.5 51t-24.5 80.5q0 51 30.5 83t81.5 32q43 0 67 -28.5t24 -69.5q0 -10 -4.5 -22.5t-8.5 -22.5q35 -16 90.5 -33t100.5 -21q27 16 58.5 57.5t35.5 73.5q2 27 -12.5 53.5t-37 53t-51 53.5t-55.5 53 q-33 31 -67.5 66t-62 71.5t-45 76.5t-13.5 81q4 66 38 115t83 81t107.5 48t113.5 16t105 -7t88 -25.5t59.5 -50t21.5 -78.5zM596 1051h-215l-123 376h68l178 -253h4l244 253h69z" />
<glyph unicode="&#x162;" horiz-adv-x="1292" d="M702 -303q-23 -102 -111.5 -165.5t-209.5 -102.5l-27 51q76 25 123 60.5t62 101.5q8 39 -8.5 65.5t-40 45t-43 27.5t-19.5 13q8 41 49 74t98 27q72 -8 107.5 -65.5t19.5 -131.5zM1161 864l-22 185q-6 43 -18.5 71.5t-42 44t-82 22.5t-136.5 7h-8l-137 -1047 q-6 -41 41 -49l131 -22l6 -76h-612l6 76l141 22q47 8 53 49l135 1047h-4q-80 0 -132 -4t-86 -17.5t-55.5 -40t-41.5 -69.5l-78 -199h-129l90 416h1149l-55 -416h-113z" />
<glyph unicode="&#x163;" horiz-adv-x="651" d="M340 -313q-23 -102 -112 -166t-210 -103l-26 52q76 25 123 60.5t61 100.5q8 39 -8 66t-40 45t-43 27.5t-19 13.5q8 41 49 73.5t98 26.5q72 -8 107.5 -65t19.5 -131zM313 1206h189l-60 -288h258l7 -109h-285l-150 -690l58 -21l155 115l35 -39q-20 -37 -52 -74t-69 -66.5 t-76.5 -47t-74.5 -17.5q-18 0 -47 6.5t-56.5 15.5t-47 21.5t-17.5 22.5l160 762l-168 12l6 68l94 36q16 6 33.5 13.5t32.5 11.5q16 6 28 10z" />
<glyph unicode="&#x164;" horiz-adv-x="1292" d="M864 1372h-215l-123 377h68l178 -254h4l244 254h70zM1161 864l-22 185q-6 43 -18.5 71.5t-42 44t-82 22.5t-136.5 7h-8l-137 -1047q-6 -41 41 -49l131 -22l6 -76h-612l6 76l141 22q47 8 53 49l135 1047h-4q-80 0 -132 -4t-86 -17.5t-55.5 -40t-41.5 -69.5l-78 -199h-129 l90 416h1149l-55 -416h-113z" />
<glyph unicode="&#x165;" horiz-adv-x="817" d="M872 1317q0 -53 -26.5 -101.5t-68.5 -89.5t-95 -75.5t-104 -61.5l-39 33q33 18 64.5 43t56 52.5t39 58t14.5 61.5q0 35 -17.5 60.5t-38 43t-38 26.5t-17.5 11q0 41 36 69t83 28q61 0 106 -46t45 -112zM313 1206h189l-60 -288h258l7 -109h-285l-150 -690l58 -21l155 115 l35 -39q-20 -37 -52 -74t-69 -66.5t-76.5 -47t-74.5 -17.5q-18 0 -47 6.5t-56.5 15.5t-47 21.5t-17.5 22.5l160 762l-168 12l6 68l94 36q16 6 33.5 13.5t32.5 11.5q16 6 28 10z" />
<glyph unicode="&#x16a;" horiz-adv-x="1456" d="M1505 1204l-98 -20q-27 -6 -45.5 -20.5t-33.5 -57.5t-30.5 -121t-33.5 -209l-50 -362q-16 -117 -63 -202t-116.5 -140.5t-159 -82t-193.5 -26.5q-102 0 -189 24.5t-150.5 75t-99.5 126t-36 178.5q0 29 2 59.5t6 56.5l90 650q4 18 -4 29.5t-37 19.5l-98 22l-6 76h547 l-7 -76l-106 -22q-47 -12 -53 -49l-88 -635q-4 -23 -7.5 -53.5t-3.5 -65.5q0 -147 87 -220t229 -73q70 0 129 18.5t106 60.5t79 109.5t46 167.5l45 334q18 133 26.5 212t5.5 121t-17.5 56.5t-40.5 18.5l-103 20l-6 76h483zM606 1436l21 100h542l-2 -100h-561z" />
<glyph unicode="&#x16b;" horiz-adv-x="1083" d="M55 700q18 41 48 86t65 82t73 61.5t74 24.5q18 0 47 -8t56.5 -20.5t48 -27.5t20.5 -28q0 -18 -10 -58t-25.5 -91t-34 -109.5t-36.5 -115.5q-12 -39 -25.5 -79t-23.5 -77t-17.5 -67.5t-7.5 -49.5q0 -33 29 -59.5t65 -26.5q47 0 125 123t201 373l64 299l208 -4l-79 -303 q-25 -129 -48 -236q-10 -45 -19 -90t-16.5 -82t-14.5 -64.5t-9 -35.5l59 -21l154 115l35 -41q-23 -37 -54.5 -73t-68.5 -64.5t-76 -46t-74 -17.5q-18 0 -45.5 6.5t-54 17.5t-46 24.5t-19.5 27.5t7 50t18 82t25.5 98.5t28 100.5t24.5 88t17 60h-18q-86 -182 -150.5 -301 t-117.5 -172q-82 -82 -181 -82q-33 0 -61.5 12.5t-50 34t-34.5 50t-13 61.5q0 63 26.5 164.5t61.5 212.5q27 86 52.5 172t39.5 127l-59 12l-146 -156zM373 1114l20 100h543l-2 -100h-561z" />
<glyph unicode="&#x16c;" horiz-adv-x="1456" d="M1505 1204l-98 -20q-27 -6 -45.5 -20.5t-33.5 -57.5t-30.5 -121t-33.5 -209l-50 -362q-16 -117 -63 -202t-116.5 -140.5t-159 -82t-193.5 -26.5q-102 0 -189 24.5t-150.5 75t-99.5 126t-36 178.5q0 29 2 59.5t6 56.5l90 650q4 18 -4 29.5t-37 19.5l-98 22l-6 76h547 l-7 -76l-106 -22q-47 -12 -53 -49l-88 -635q-4 -23 -7.5 -53.5t-3.5 -65.5q0 -147 87 -220t229 -73q70 0 129 18.5t106 60.5t79 109.5t46 167.5l45 334q18 133 26.5 212t5.5 121t-17.5 56.5t-40.5 18.5l-103 20l-6 76h483zM1221 1749q-23 -78 -53.5 -147.5t-72.5 -123 t-96.5 -85t-126.5 -31.5t-116.5 31.5t-70.5 85t-38 123t-16 147.5h67q14 -49 29.5 -97t38 -85t52.5 -59.5t71 -22.5t76.5 23.5t68.5 60.5t61.5 84t57.5 96h68z" />
<glyph unicode="&#x16d;" horiz-adv-x="1083" d="M55 700q18 41 48 86t65 82t73 61.5t74 24.5q18 0 47 -8t56.5 -20.5t48 -27.5t20.5 -28q0 -18 -10 -58t-25.5 -91t-34 -109.5t-36.5 -115.5q-12 -39 -25.5 -79t-23.5 -77t-17.5 -67.5t-7.5 -49.5q0 -33 29 -59.5t65 -26.5q47 0 125 123t201 373l64 299l208 -4l-79 -303 q-25 -129 -48 -236q-10 -45 -19 -90t-16.5 -82t-14.5 -64.5t-9 -35.5l59 -21l154 115l35 -41q-23 -37 -54.5 -73t-68.5 -64.5t-76 -46t-74 -17.5q-18 0 -45.5 6.5t-54 17.5t-46 24.5t-19.5 27.5t7 50t18 82t25.5 98.5t28 100.5t24.5 88t17 60h-18q-86 -182 -150.5 -301 t-117.5 -172q-82 -82 -181 -82q-33 0 -61.5 12.5t-50 34t-34.5 50t-13 61.5q0 63 26.5 164.5t61.5 212.5q27 86 52.5 172t39.5 127l-59 12l-146 -156zM979 1427q-23 -78 -53.5 -147.5t-72.5 -122.5t-96.5 -85t-125.5 -32q-72 0 -117 32t-70.5 85t-38 123t-16.5 147h68 q14 -49 29.5 -97t38 -85t52 -59.5t70.5 -22.5t77 23.5t68.5 60.5t61.5 84t57 96h68z" />
<glyph unicode="&#x16e;" horiz-adv-x="1456" d="M1083 1571q0 -78 -52 -136.5t-140 -58.5q-45 0 -81 15.5t-60.5 42t-38 62.5t-13.5 75q2 80 52.5 137t140.5 57t141 -57t51 -137zM1018 1571q0 53 -34 94t-93 41t-93 -41t-34 -94t33.5 -93t93.5 -40q59 0 93 40t34 93zM1505 1204l-98 -20q-27 -6 -45.5 -20.5t-33.5 -57.5 t-30.5 -121t-33.5 -209l-50 -362q-16 -117 -63 -202t-116.5 -140.5t-159 -82t-193.5 -26.5q-102 0 -189 24.5t-150.5 75t-99.5 126t-36 178.5q0 29 2 59.5t6 56.5l90 650q4 18 -4 29.5t-37 19.5l-98 22l-6 76h547l-7 -76l-106 -22q-47 -12 -53 -49l-88 -635 q-4 -23 -7.5 -53.5t-3.5 -65.5q0 -147 87 -220t229 -73q70 0 129 18.5t106 60.5t79 109.5t46 167.5l45 334q18 133 26.5 212t5.5 121t-17.5 56.5t-40.5 18.5l-103 20l-6 76h483z" />
<glyph unicode="&#x16f;" horiz-adv-x="1083" d="M842 1249q0 -78 -52.5 -136t-140.5 -58q-45 0 -81 15t-60.5 42t-37.5 62.5t-13 74.5q2 80 52 137.5t140 57.5t141.5 -57.5t51.5 -137.5zM776 1249q0 53 -33.5 94t-93.5 41q-59 0 -93 -40.5t-34 -94.5q0 -53 34 -93t93 -40t93 40t34 93zM55 700q18 41 48 86t65 82t73 61.5 t74 24.5q18 0 47 -8t56.5 -20.5t48 -27.5t20.5 -28q0 -18 -10 -58t-25.5 -91t-34 -109.5t-36.5 -115.5q-12 -39 -25.5 -79t-23.5 -77t-17.5 -67.5t-7.5 -49.5q0 -33 29 -59.5t65 -26.5q47 0 125 123t201 373l64 299l208 -4l-79 -303q-25 -129 -48 -236q-10 -45 -19 -90 t-16.5 -82t-14.5 -64.5t-9 -35.5l59 -21l154 115l35 -41q-23 -37 -54.5 -73t-68.5 -64.5t-76 -46t-74 -17.5q-18 0 -45.5 6.5t-54 17.5t-46 24.5t-19.5 27.5t7 50t18 82t25.5 98.5t28 100.5t24.5 88t17 60h-18q-86 -182 -150.5 -301t-117.5 -172q-82 -82 -181 -82 q-33 0 -61.5 12.5t-50 34t-34.5 50t-13 61.5q0 63 26.5 164.5t61.5 212.5q27 86 52.5 172t39.5 127l-59 12l-146 -156z" />
<glyph unicode="&#x170;" horiz-adv-x="1456" d="M1505 1204l-98 -20q-27 -6 -45.5 -20.5t-33.5 -57.5t-30.5 -121t-33.5 -209l-50 -362q-16 -117 -63 -202t-116.5 -140.5t-159 -82t-193.5 -26.5q-102 0 -189 24.5t-150.5 75t-99.5 126t-36 178.5q0 29 2 59.5t6 56.5l90 650q4 18 -4 29.5t-37 19.5l-98 22l-6 76h547 l-7 -76l-106 -22q-47 -12 -53 -49l-88 -635q-4 -23 -7.5 -53.5t-3.5 -65.5q0 -147 87 -220t229 -73q70 0 129 18.5t106 60.5t79 109.5t46 167.5l45 334q18 133 26.5 212t5.5 121t-17.5 56.5t-40.5 18.5l-103 20l-6 76h483zM1018 1372h-66l234 377h215zM682 1372h-66l234 377 h215z" />
<glyph unicode="&#x171;" horiz-adv-x="1083" d="M55 700q18 41 48 86t65 82t73 61.5t74 24.5q18 0 47 -8t56.5 -20.5t48 -27.5t20.5 -28q0 -18 -10 -58t-25.5 -91t-34 -109.5t-36.5 -115.5q-12 -39 -25.5 -79t-23.5 -77t-17.5 -67.5t-7.5 -49.5q0 -33 29 -59.5t65 -26.5q47 0 125 123t201 373l64 299l208 -4l-79 -303 q-25 -129 -48 -236q-10 -45 -19 -90t-16.5 -82t-14.5 -64.5t-9 -35.5l59 -21l154 115l35 -41q-23 -37 -54.5 -73t-68.5 -64.5t-76 -46t-74 -17.5q-18 0 -45.5 6.5t-54 17.5t-46 24.5t-19.5 27.5t7 50t18 82t25.5 98.5t28 100.5t24.5 88t17 60h-18q-86 -182 -150.5 -301 t-117.5 -172q-82 -82 -181 -82q-33 0 -61.5 12.5t-50 34t-34.5 50t-13 61.5q0 63 26.5 164.5t61.5 212.5q27 86 52.5 172t39.5 127l-59 12l-146 -156zM788 1051h-65l233 376h215zM453 1051h-66l234 376h215z" />
<glyph unicode="&#x172;" horiz-adv-x="1456" d="M729 -444q-86 10 -134 59t-32 141q12 70 70.5 123t130.5 88q-12 0 -41 -2t-41 -2q-102 0 -189 24.5t-150.5 75t-99.5 126t-36 178.5q0 29 2 59.5t6 56.5l90 650q4 18 -4 29.5t-37 19.5l-98 22l-6 76h547l-7 -76l-106 -22q-47 -12 -53 -49l-88 -635q-4 -25 -7.5 -54.5 t-3.5 -64.5q0 -147 87 -220t229 -73q70 0 129 18.5t106 60.5t79 110.5t46 168.5l45 332q18 133 26.5 212t5.5 121t-17.5 56.5t-40.5 18.5l-103 20l-6 76h483l-6 -76l-98 -20q-27 -6 -45.5 -20.5t-33.5 -57.5t-30.5 -121t-33.5 -209l-50 -362q-25 -164 -103.5 -263.5 t-192.5 -160.5q-70 -35 -120 -88.5t-61 -112.5q-18 -102 84 -113q31 -4 61.5 4.5t53.5 24.5l16 -27q-18 -53 -78.5 -91.5t-144.5 -30.5z" />
<glyph unicode="&#x173;" horiz-adv-x="1083" d="M688 -444q-86 10 -131 65t-27 146q14 68 73 124t128 91q-18 2 -36.5 9t-35 16t-26.5 18.5t-10 19.5q0 23 15 88.5t36.5 142t41 147.5t29.5 101h-20q-86 -182 -150.5 -301t-117.5 -172q-82 -82 -181 -82q-33 0 -61.5 12.5t-50 34t-34.5 50t-13 61.5q0 66 26.5 166 t61.5 211q27 86 52.5 172t39.5 127l-59 12l-146 -156l-37 41q18 41 48 86t65 82t73 61.5t74 24.5q18 0 47 -8t56.5 -20.5t48 -27.5t20.5 -28q0 -18 -10 -58t-25.5 -91t-34 -109.5t-36.5 -115.5q-12 -39 -24.5 -79t-23.5 -77t-17.5 -67.5t-6.5 -49.5q0 -31 29 -58.5t63 -27.5 q49 0 127 123t199 373l64 299l210 -4l-79 -303q-25 -129 -48 -236q-10 -45 -19 -90t-16.5 -82t-14.5 -64.5t-9 -35.5l59 -21l152 115l37 -41q-39 -66 -99.5 -120t-119.5 -83t-94 -76t-43 -92q-10 -47 7 -82.5t66 -40.5q31 -4 60.5 4.5t52.5 24.5l16 -27q-18 -53 -77.5 -91.5 t-143.5 -30.5z" />
<glyph unicode="&#x174;" horiz-adv-x="1843" d="M1266 1372l-176 252h-5l-245 -252h-70l225 377h215l125 -377h-69zM1972 1202l-71 -22q-29 -8 -51.5 -20.5t-44 -35t-42 -59.5t-45.5 -92l-391 -973h-209l-121 801h-12l-358 -801h-209l-180 1106q-6 33 -19.5 50.5t-54.5 25.5l-94 20l-7 78h578l-6 -78l-96 -14 q-39 -8 -47.5 -37t2.5 -80l110 -864l10 -2l336 766l-20 135q-6 33 -20.5 50.5t-55.5 25.5l-94 20l-6 78h575l-6 -78l-96 -14q-41 -8 -48.5 -36t1.5 -81l123 -862l12 -2l297 790q35 82 29.5 128t-56.5 59l-76 18l-6 78h475z" />
<glyph unicode="&#x175;" horiz-adv-x="1435" d="M1071 1051l-176 252h-4l-246 -252h-70l226 376h215l125 -376h-70zM750 600l-287 -592l-219 -39l-11 834l-57 12l-143 -156l-39 41q18 41 48 86t64.5 82t72.5 61.5t75 24.5q18 0 48 -6t58.5 -17t50 -24.5t21.5 -25.5v-768h14l302 647l-7 194l90 -18l97 -16l28 -807h15 l207 387q33 59 53 105t20 85q0 43 -35.5 77t-95.5 46q12 70 55.5 107.5t100.5 37.5q59 0 105 -40.5t46 -120.5q0 -43 -15 -89t-45 -97.5t-71 -112t-90 -133.5l-231 -357l-209 -39l-6 631h-10z" />
<glyph unicode="&#x176;" horiz-adv-x="1218" d="M1331 1202l-53 -14q-27 -6 -51.5 -16.5t-49 -30t-53 -51t-63.5 -82.5l-318 -465l-53 -396q-6 -39 41 -49l131 -22l4 -76h-614l10 76l141 22q47 8 54 49l51 390l-248 522q-29 59 -53.5 83.5t-65.5 37.5l-71 22l-4 78h557l-9 -78l-82 -12q-53 -8 -52 -51t40 -131l164 -375 h12l265 399q45 66 44 104t-61 50l-82 16l-6 78h481zM948 1372l-176 252h-4l-246 -252h-69l225 377h215l125 -377h-70z" />
<glyph unicode="&#x177;" horiz-adv-x="927" d="M936 805q0 -43 -22.5 -99.5t-57.5 -117t-78 -120.5t-82 -116l-196 -272l-117 -230q-94 -182 -188.5 -275t-208.5 -93q-35 0 -67 10t-57.5 30.5t-41 48.5t-15.5 62q0 53 37 86t78 33q55 0 97 -42t40 -107h35l268 368l-120 33l-4 799l-60 12l-143 -156l-37 41q18 41 48 86 t64.5 82t72.5 61.5t75 24.5q18 0 48 -6t58.5 -17t49 -24.5t20.5 -25.5l-18 -777h24l332 566v22q-47 18 -79 52t-32 75q0 57 36 98t91 41q66 0 108 -40.5t42 -112.5zM770 1051l-176 252h-4l-246 -252h-70l226 376h215l125 -376h-70z" />
<glyph unicode="&#x178;" horiz-adv-x="1218" d="M1331 1202l-53 -14q-27 -6 -51.5 -16.5t-49 -30t-53 -51t-63.5 -82.5l-318 -465l-53 -396q-6 -39 41 -49l131 -22l4 -76h-614l10 76l141 22q47 8 54 49l51 390l-248 522q-29 59 -53.5 83.5t-65.5 37.5l-71 22l-4 78h557l-9 -78l-82 -12q-53 -8 -52 -51t40 -131l164 -375 h12l265 399q45 66 44 104t-61 50l-82 16l-6 78h481zM1098 1583q0 -53 -34 -94t-93 -41t-93 41t-34 94q0 55 33.5 96t93.5 41q59 0 93 -41t34 -96zM672 1583q0 -53 -34 -94t-93 -41t-93 41t-34 94q0 55 33.5 96t93.5 41q59 0 93 -41t34 -96z" />
<glyph unicode="&#x179;" horiz-adv-x="1193" d="M651 1372h-67l239 377h234zM1014 0h-1006l10 84l926 1096v12h-219q-111 0 -175.5 -7t-103 -24.5t-60 -48.5t-44.5 -78l-63 -164h-113l53 410h1014l-12 -86l-930 -1096v-12h215q123 0 194.5 8t112.5 25.5t61.5 45.5t40.5 68l70 164h125z" />
<glyph unicode="&#x17a;" horiz-adv-x="854" d="M621 670q-37 12 -83 37.5t-92.5 54.5t-88.5 57.5t-66 44.5l-37 -33q41 -53 41 -98q0 -41 -26.5 -67.5t-67.5 -26.5q-55 -2 -81 27.5t-26 68.5q0 37 18.5 75t53.5 68.5t85 51t114 24.5q76 0 124 -22.5t79.5 -55t50 -70.5t32.5 -69h23l51 219q61 0 103 -34.5t42 -81.5 q0 -66 -48 -112t-130 -79l-448 -383q39 -12 89 -41.5t99 -63.5t93 -66t71 -46l39 33q-49 55 -49 104q0 39 26.5 64.5t73.5 28.5q49 2 74.5 -28t25.5 -73q0 -37 -16 -74.5t-49 -68.5t-80 -52.5t-111 -27.5q-70 0 -121 19.5t-87.5 53t-62.5 78t-44 93.5h-22l-58 -230 q-59 -2 -101 35t-42 84q0 66 44 110t124 76zM494 1051h-68l240 376h233z" />
<glyph unicode="&#x17b;" horiz-adv-x="1193" d="M1014 0h-1006l10 84l926 1096v12h-219q-111 0 -175.5 -7t-103 -24.5t-60 -48.5t-44.5 -78l-63 -164h-113l53 410h1014l-12 -86l-930 -1096v-12h215q123 0 194.5 8t112.5 25.5t61.5 45.5t40.5 68l70 164h125zM872 1569q0 -55 -33.5 -96t-97.5 -41q-59 0 -93 40.5t-34 96.5 q0 55 34 97t93 42q63 0 97 -42t34 -97z" />
<glyph unicode="&#x17c;" horiz-adv-x="854" d="M621 670q-37 12 -83 37.5t-92.5 54.5t-88.5 57.5t-66 44.5l-37 -33q41 -53 41 -98q0 -41 -26.5 -67.5t-67.5 -26.5q-55 -2 -81 27.5t-26 68.5q0 37 18.5 75t53.5 68.5t85 51t114 24.5q76 0 124 -22.5t79.5 -55t50 -70.5t32.5 -69h23l51 219q61 0 103 -34.5t42 -81.5 q0 -66 -48 -112t-130 -79l-448 -383q39 -12 89 -41.5t99 -63.5t93 -66t71 -46l39 33q-49 55 -49 104q0 39 26.5 64.5t73.5 28.5q49 2 74.5 -28t25.5 -73q0 -37 -16 -74.5t-49 -68.5t-80 -52.5t-111 -27.5q-70 0 -121 19.5t-87.5 53t-62.5 78t-44 93.5h-22l-58 -230 q-59 -2 -101 35t-42 84q0 66 44 110t124 76zM692 1247q0 -55 -33.5 -96t-97.5 -41q-59 0 -93 41t-34 96t34 97t93 42q63 0 97 -42t34 -97z" />
<glyph unicode="&#x17d;" horiz-adv-x="1193" d="M1014 0h-1006l10 84l926 1096v12h-219q-111 0 -175.5 -7t-103 -24.5t-60 -48.5t-44.5 -78l-63 -164h-113l53 410h1014l-12 -86l-930 -1096v-12h215q123 0 194.5 8t112.5 25.5t61.5 45.5t40.5 68l70 164h125zM854 1393h-215l-123 376h68l178 -253h4l244 253h69z" />
<glyph unicode="&#x17e;" horiz-adv-x="851" d="M621 670q-37 12 -83 37.5t-92.5 54.5t-88.5 57.5t-66 44.5l-37 -33q41 -53 41 -98q0 -41 -26.5 -67.5t-67.5 -26.5q-55 -2 -81 27.5t-26 68.5q0 37 18.5 75t53.5 68.5t85 51t114 24.5q76 0 124 -22.5t79.5 -55t50 -70.5t32.5 -69h23l51 219q61 0 103 -34.5t42 -81.5 q0 -66 -48 -112t-130 -79l-448 -383q39 -12 89 -41.5t99 -63.5t93 -66t71 -46l39 33q-49 55 -49 104q0 39 26.5 64.5t73.5 28.5q49 2 74.5 -28t25.5 -73q0 -37 -16 -74.5t-49 -68.5t-80 -52.5t-111 -27.5q-70 0 -121 19.5t-87.5 53t-62.5 78t-44 93.5h-22l-58 -230 q-59 -2 -101 35t-42 84q0 66 44 110t124 76zM633 1051h-215l-123 376h67l179 -253h4l243 253h70z" />
<glyph unicode="&#x192;" horiz-adv-x="1081" d="M1126 1137q0 -53 -31.5 -92t-84.5 -39q-61 0 -97 45t-43 118l-108 -20q-12 -23 -23.5 -62.5t-22.5 -89t-22.5 -102.5t-21.5 -100h252l8 -109h-273q-39 -199 -90 -358.5t-145 -257.5q-51 -51 -122 -77t-136 -26q-74 0 -127 41t-53 107q0 53 31.5 85.5t78.5 32.5 q59 0 95 -44t42 -107l115 41q10 23 22.5 61.5t24 88t22.5 102.5t19 106l27 195l-176 10l6 66l194 55q31 127 77 221t93 143q57 59 136 92t143 33q86 0 138 -44.5t52 -114.5z" />
<glyph unicode="&#x1fa;" horiz-adv-x="1241" d="M721 1640h-68l240 377h233zM612 1255q-35 27 -55 69t-18 89q2 80 52 137.5t140 57.5t140.5 -57.5t50.5 -137.5q0 -53 -24 -97t-67 -71l197 -1071q6 -33 19.5 -50.5t54.5 -25.5l92 -20l6 -78h-571l6 78l92 14q45 8 51 36t-4 81l-37 235h-381l-51 -135q-78 -188 19 -213 l82 -18l6 -78h-471l6 78l67 20q27 8 47.5 18.5t39 32t39 59.5t48.5 99zM639 1081h-14l-232 -546h328zM856 1413q0 53 -32.5 94t-92.5 41q-59 0 -93 -41t-34 -94t34 -93t93 -40t92 40t33 93z" />
<glyph unicode="&#x1fb;" horiz-adv-x="1026" d="M625 1501h-68l240 377h233zM823 1249q0 -78 -52 -136t-140 -58q-45 0 -81 15t-60.5 42t-38 62.5t-13.5 74.5q2 80 52.5 137.5t140.5 57.5t141 -57.5t51 -137.5zM735 805l47 149h179l-111 -358l-111 -477l60 -21l155 115l35 -39q-20 -37 -53 -74t-70 -66.5t-76.5 -47 t-74.5 -17.5q-18 0 -46 6.5t-55.5 17.5t-47 24.5t-19.5 25.5t10 50t26.5 90.5t36 112.5t37.5 116h-18q-59 -104 -107.5 -187.5t-92.5 -139.5t-89 -86t-94 -30q-88 0 -150.5 67.5t-62.5 196.5q0 80 18.5 162t51 159t75.5 143.5t93 115.5q61 61 133.5 102t146.5 41 q70 0 107 -47t53 -104h14zM758 1249q0 53 -34 94t-93 41t-93 -40.5t-34 -94.5q0 -53 33.5 -93t93.5 -40q59 0 93 40t34 93zM698 680q-16 29 -42.5 57.5t-57.5 52t-62.5 39t-62.5 15.5q-23 0 -37 -9.5t-30 -25.5q-29 -29 -59 -88t-54.5 -134t-39.5 -155t-15 -145 q0 -78 27.5 -118t76.5 -40q27 0 56.5 21.5t65.5 68.5t83 124t110 185z" />
<glyph unicode="&#x1fc;" horiz-adv-x="1714" d="M1108 1372h-68l240 377h233zM1544 0h-1005l8 76l108 22q29 4 39.5 17.5t14.5 31.5l43 310h-377l-76 -123q-35 -55 -58.5 -105.5t-23.5 -76.5q0 -27 15.5 -38.5t39.5 -17.5l82 -18l6 -78h-471l7 78l67 20q27 8 49.5 21.5t44 36t47 56.5t58.5 85l504 807q41 63 -35 80 l-103 20l-2 76h1188l-53 -401h-121l-20 184q-6 45 -19.5 71.5t-54.5 40t-119 16.5t-209 3h-45l-69 -502h14q51 0 86 1t57.5 7.5t35.5 17.5t24 30l67 137h92l-108 -467h-90l6 129q0 16 -6 27.5t-25.5 18.5t-56.5 10t-99 3h-10l-67 -520h41q139 0 222 4t131 17.5t70.5 40 t43.5 69.5l73 170h129zM852 1200h-14l-408 -653h334z" />
<glyph unicode="&#x1fd;" horiz-adv-x="1337" d="M731 723q78 113 161 172t193 59q111 0 173.5 -56t62.5 -140q0 -53 -30.5 -95t-97.5 -85t-171 -95.5t-252 -128.5v-37q0 -96 51 -153.5t129 -57.5q39 0 100.5 33t151.5 97l29 -41q-39 -49 -78 -90.5t-83 -71t-92 -47t-106 -17.5q-68 0 -122 25.5t-93 70t-60.5 104.5 t-23.5 128v16q-92 -158 -176 -251t-153 -93q-94 0 -147.5 83t-53.5 212q0 80 16.5 157t46 147.5t69.5 133t89 111.5q63 61 136 102t145 41q39 0 70.5 -20.5t54 -54t38 -75.5t23.5 -83zM688 639q-18 39 -46 77t-59.5 65.5t-64.5 45t-63 17.5q-23 0 -37.5 -9.5t-30.5 -25.5 q-29 -29 -55.5 -84t-47 -124t-33.5 -143.5t-13 -140.5q0 -78 24.5 -129t59.5 -51q37 0 75.5 39t78.5 99.5t81 134t82 143.5q10 16 25.5 43t23.5 43zM776 420q109 57 180.5 101t113.5 82t59.5 74t17.5 77q0 20 -18.5 36.5t-44 28.5t-52 18.5t-43.5 6.5q-27 0 -42 -6.5 t-25 -16.5q-18 -18 -40 -56t-42.5 -90t-39 -116.5t-30.5 -138.5h6zM772 1051h-67l239 376h234z" />
<glyph unicode="&#x1fe;" horiz-adv-x="1443" d="M369 59q-123 78 -193 208t-70 296q0 147 47.5 279.5t139.5 236.5t220 166t288 62q145 0 260 -52l88 154h96q-31 -53 -55 -96l-57 -99q123 -76 191.5 -205.5t68.5 -295.5q0 -160 -57.5 -301.5t-161.5 -245.5q-90 -92 -210 -144.5t-266 -52.5q-141 0 -258 54l-102 -175h-94 zM999 1147q-41 35 -92 52.5t-119 17.5q-80 0 -142 -34t-110.5 -90.5t-82 -129t-56 -150.5t-33 -153.5t-10.5 -139.5q0 -92 20.5 -177t69.5 -148zM504 131q41 -31 91 -49.5t118 -18.5q78 0 140 34t110.5 90.5t82 129t56 150.5t33 152.5t10.5 138.5q0 92 -20.5 177t-67.5 148z M739 1372h-67l239 377h234z" />
<glyph unicode="&#x1ff;" horiz-adv-x="944" d="M184 45q-59 53 -90 140t-31 194q0 104 37 207.5t101.5 185.5t151.5 132t188 50q90 0 149 -32l176 303h84l-198 -344q61 -53 93 -139.5t32 -194.5q0 -106 -37 -210t-101.5 -185.5t-150.5 -132t-187 -50.5q-90 0 -155 35q-16 -31 -43 -76t-51 -88q-29 -51 -60 -104h-86z M635 825q-37 49 -94 49q-49 0 -92 -37.5t-77 -93t-57.5 -118t-35.5 -111.5q-12 -51 -19.5 -106.5t-7.5 -102.5q0 -57 16 -117zM489 422q-35 -59 -67.5 -116.5t-59.5 -102.5q-31 -53 -59 -99q39 -55 98 -55q51 0 94.5 39t76 96.5t55 122t35.5 115.5q10 51 17 107.5t7 103.5 q0 59 -12 108zM479 1051h-67l239 376h234z" />
<glyph unicode="&#x218;" horiz-adv-x="1062" d="M580 -303q-23 -102 -112 -165.5t-210 -102.5l-27 51q76 25 123 60.5t62 101.5q8 39 -8.5 65.5t-40 45t-43 27.5t-19.5 13q8 41 49 74t99 27q72 -8 107.5 -65.5t19.5 -131.5zM944 362q0 -90 -38 -161.5t-104.5 -123.5t-157.5 -80t-195 -28q-125 0 -222.5 18.5t-183.5 45.5 l31 381l106 -2l60 -295q47 -23 105 -36t136 -13q123 0 187.5 58t64.5 153q0 49 -19.5 88t-55 72.5t-84 65.5t-105.5 64q-72 41 -129 80t-96 83t-59.5 98.5t-20.5 127.5q0 76 37 139.5t99 109.5t143 73t169 27q53 0 93 -3.5t76 -8.5t69 -12t70 -15l16 4t17.5 4t19.5 6 q23 6 55 14l-53 -405l-111 2l-35 264q-53 23 -112.5 36t-130.5 13q-41 0 -80 -11t-68.5 -32.5t-47 -51.5t-17.5 -67q0 -53 19.5 -93t55 -75.5t87 -67.5t112.5 -67t115.5 -71.5t94.5 -80.5t63.5 -99.5t23.5 -127.5z" />
<glyph unicode="&#x219;" horiz-adv-x="747" d="M377 -295q-10 -53 -40 -95t-72 -75t-93 -55.5t-102 -36.5l-31 45q59 16 111.5 52t66.5 102q8 43 -7 71.5t-37.5 46t-43 26.5t-20.5 11q10 45 49 75t98 22q68 -8 101.5 -64.5t19.5 -124.5zM737 793q0 -53 -29.5 -85t-80.5 -32q-43 0 -67.5 28.5t-24.5 69.5q0 23 12 47 q-33 16 -78 30.5t-90 18.5q-14 -6 -29.5 -21t-29 -33.5t-22.5 -37t-11 -33.5q-2 -27 12 -54t36.5 -55t51.5 -54.5t55 -53.5q31 -31 66 -65.5t62.5 -72.5t45 -77t15.5 -80q-4 -63 -39 -112t-85 -83t-110.5 -51.5t-115.5 -17.5t-108.5 8.5t-93.5 28t-64.5 51t-24.5 80.5 q0 51 30.5 83t81.5 32q43 0 67 -28.5t24 -69.5q0 -10 -4.5 -22.5t-8.5 -22.5q35 -16 90.5 -33t100.5 -21q27 16 58.5 57.5t35.5 73.5q2 27 -12.5 53.5t-37 53t-51 53.5t-55.5 53q-33 31 -67.5 66t-62 71.5t-45 76.5t-13.5 81q4 66 38 115t83 81t107.5 48t113.5 16t105 -7 t88 -25.5t59.5 -50t21.5 -78.5z" />
<glyph unicode="&#x21a;" horiz-adv-x="1292" d="M702 -303q-23 -102 -111.5 -165.5t-209.5 -102.5l-27 51q76 25 123 60.5t62 101.5q8 39 -8.5 65.5t-40 45t-43 27.5t-19.5 13q8 41 49 74t98 27q72 -8 107.5 -65.5t19.5 -131.5zM1161 864l-22 185q-6 43 -18.5 71.5t-42 44t-82 22.5t-136.5 7h-8l-137 -1047 q-6 -41 41 -49l131 -22l6 -76h-612l6 76l141 22q47 8 53 49l135 1047h-4q-80 0 -132 -4t-86 -17.5t-55.5 -40t-41.5 -69.5l-78 -199h-129l90 416h1149l-55 -416h-113z" />
<glyph unicode="&#x21b;" horiz-adv-x="651" d="M340 -313q-23 -102 -112 -166t-210 -103l-26 52q76 25 123 60.5t61 100.5q8 39 -8 66t-40 45t-43 27.5t-19 13.5q8 41 49 73.5t98 26.5q72 -8 107.5 -65t19.5 -131zM313 1206h189l-60 -288h258l7 -109h-285l-150 -690l58 -21l155 115l35 -39q-20 -37 -52 -74t-69 -66.5 t-76.5 -47t-74.5 -17.5q-18 0 -47 6.5t-56.5 15.5t-47 21.5t-17.5 22.5l160 762l-168 12l6 68l94 36q16 6 33.5 13.5t32.5 11.5q16 6 28 10z" />
<glyph unicode="&#x2c6;" horiz-adv-x="819" d="M678 1051l-176 252h-4l-246 -252h-70l226 376h215l125 -376h-70z" />
<glyph unicode="&#x2c7;" horiz-adv-x="819" d="M571 1051h-215l-123 376h68l178 -253h4l244 253h70z" />
<glyph unicode="&#x2d8;" horiz-adv-x="819" d="M811 1427q-23 -78 -53.5 -147.5t-72.5 -122.5t-96 -85t-126 -32t-117 32t-70.5 85t-38 123t-16.5 147h68q14 -49 29.5 -97t38 -85t52 -59.5t70.5 -22.5t77 23.5t68.5 60.5t61.5 84t57 96h68v0z" />
<glyph unicode="&#x2d9;" horiz-adv-x="819" d="M637 1247q0 -55 -34 -96t-97 -41q-59 0 -93 41t-34 96t33.5 97t93.5 42q63 0 97 -42t34 -97z" />
<glyph unicode="&#x2da;" horiz-adv-x="819" d="M700 1249q0 -78 -52 -136t-140 -58q-45 0 -81 15t-60.5 42t-38 62.5t-13.5 74.5q2 80 52.5 137.5t140.5 57.5t141 -57.5t51 -137.5zM635 1249q0 53 -34 94t-93 41t-93 -40.5t-34 -94.5q0 -53 34 -93t93 -40t93 40t34 93z" />
<glyph unicode="&#x2db;" horiz-adv-x="819" d="M252 -444q-86 10 -131 65t-27 146q12 55 52 102t94.5 84t116 65.5t116.5 47.5q-2 0 7 -1.5t20 -1.5q12 -2 28 -2q-106 -51 -174.5 -121.5t-83.5 -140.5q-10 -47 6.5 -82.5t65.5 -40.5q31 -4 61.5 4.5t53.5 24.5l16 -27q-18 -53 -77.5 -91.5t-143.5 -30.5z" />
<glyph unicode="&#x2dc;" horiz-adv-x="819" d="M848 1333q-35 -135 -94.5 -199.5t-147.5 -64.5q-47 0 -89 22.5t-78 50t-67.5 51.5t-60.5 24q-33 0 -56.5 -30t-57.5 -102h-72q68 264 240 265q47 0 88 -22.5t76.5 -50.5t67.5 -50.5t60 -22.5q31 0 56.5 29t64.5 100h70v0z" />
<glyph unicode="&#x2dd;" horiz-adv-x="819" d="M604 1051h-65l233 376h215zM268 1051h-65l233 376h215z" />
<glyph unicode="&#x1e80;" horiz-adv-x="1843" d="M1972 1202l-71 -22q-29 -8 -51.5 -20.5t-44 -35t-42 -59.5t-45.5 -92l-391 -973h-209l-121 801h-12l-358 -801h-209l-180 1106q-6 33 -19.5 50.5t-54.5 25.5l-94 20l-7 78h578l-6 -78l-96 -14q-39 -8 -47.5 -37t2.5 -80l110 -864l10 -2l336 766l-20 135q-6 33 -20.5 50.5 t-55.5 25.5l-94 20l-6 78h575l-6 -78l-96 -14q-41 -8 -48.5 -36t1.5 -81l123 -862l12 -2l297 790q35 82 29.5 128t-56.5 59l-76 18l-6 78h475zM1116 1372l-303 377h234l139 -377h-70z" />
<glyph unicode="&#x1e81;" horiz-adv-x="1435" d="M750 600l-287 -592l-219 -39l-11 834l-57 12l-143 -156l-39 41q18 41 48 86t64.5 82t72.5 61.5t75 24.5q18 0 48 -6t58.5 -17t50 -24.5t21.5 -25.5v-768h14l302 647l-7 194l90 -18l97 -16l28 -807h15l207 387q33 59 53 105t20 85q0 43 -35.5 77t-95.5 46 q12 70 55.5 107.5t100.5 37.5q59 0 105 -40.5t46 -120.5q0 -43 -15 -89t-45 -97.5t-71 -112t-90 -133.5l-231 -357l-209 -39l-6 631h-10zM850 1051l-303 376h233l140 -376h-70z" />
<glyph unicode="&#x1e82;" horiz-adv-x="1843" d="M987 1372h-67l239 377h234zM1972 1202l-71 -22q-29 -8 -51.5 -20.5t-44 -35t-42 -59.5t-45.5 -92l-391 -973h-209l-121 801h-12l-358 -801h-209l-180 1106q-6 33 -19.5 50.5t-54.5 25.5l-94 20l-7 78h578l-6 -78l-96 -14q-39 -8 -47.5 -37t2.5 -80l110 -864l10 -2 l336 766l-20 135q-6 33 -20.5 50.5t-55.5 25.5l-94 20l-6 78h575l-6 -78l-96 -14q-41 -8 -48.5 -36t1.5 -81l123 -862l12 -2l297 790q35 82 29.5 128t-56.5 59l-76 18l-6 78h475z" />
<glyph unicode="&#x1e83;" horiz-adv-x="1435" d="M807 1051h-68l240 376h233zM750 600l-287 -592l-219 -39l-11 834l-57 12l-143 -156l-39 41q18 41 48 86t64.5 82t72.5 61.5t75 24.5q18 0 48 -6t58.5 -17t50 -24.5t21.5 -25.5v-768h14l302 647l-7 194l90 -18l97 -16l28 -807h15l207 387q33 59 53 105t20 85 q0 43 -35.5 77t-95.5 46q12 70 55.5 107.5t100.5 37.5q59 0 105 -40.5t46 -120.5q0 -43 -15 -89t-45 -97.5t-71 -112t-90 -133.5l-231 -357l-209 -39l-6 631h-10z" />
<glyph unicode="&#x1e84;" horiz-adv-x="1843" d="M1397 1563q0 -53 -34 -94.5t-93 -41.5t-93 41t-34 95q0 55 33.5 96t93.5 41q59 0 93 -41t34 -96zM971 1563q0 -53 -34 -94.5t-93 -41.5t-93 41t-34 95q0 55 33.5 96t93.5 41q59 0 93 -41t34 -96zM1972 1202l-71 -22q-29 -8 -51.5 -20.5t-44 -35t-42 -59.5t-45.5 -92 l-391 -973h-209l-121 801h-12l-358 -801h-209l-180 1106q-6 33 -19.5 50.5t-54.5 25.5l-94 20l-7 78h578l-6 -78l-96 -14q-39 -8 -47.5 -37t2.5 -80l110 -864l10 -2l336 766l-20 135q-6 33 -20.5 50.5t-55.5 25.5l-94 20l-6 78h575l-6 -78l-96 -14q-41 -8 -48.5 -36t1.5 -81 l123 -862l12 -2l297 790q35 82 29.5 128t-56.5 59l-76 18l-6 78h475z" />
<glyph unicode="&#x1e85;" horiz-adv-x="1435" d="M1186 1241q0 -53 -34 -94t-93 -41t-93 41t-34 94q0 55 33.5 96t93.5 41q59 0 93 -41t34 -96zM760 1241q0 -53 -34 -94t-93 -41t-93 41t-34 94q0 55 33.5 96t93.5 41q59 0 93 -41t34 -96zM750 600l-287 -592l-219 -39l-11 834l-57 12l-143 -156l-39 41q18 41 48 86 t64.5 82t72.5 61.5t75 24.5q18 0 48 -6t58.5 -17t50 -24.5t21.5 -25.5v-768h14l302 647l-7 194l90 -18l97 -16l28 -807h15l207 387q33 59 53 105t20 85q0 43 -35.5 77t-95.5 46q12 70 55.5 107.5t100.5 37.5q59 0 105 -40.5t46 -120.5q0 -43 -15 -89t-45 -97.5t-71 -112 t-90 -133.5l-231 -357l-209 -39l-6 631h-10z" />
<glyph unicode="&#x2000;" horiz-adv-x="1008" />
<glyph unicode="&#x2001;" horiz-adv-x="2017" />
<glyph unicode="&#x2002;" horiz-adv-x="1008" />
<glyph unicode="&#x2003;" horiz-adv-x="2017" />
<glyph unicode="&#x2004;" horiz-adv-x="672" />
<glyph unicode="&#x2005;" horiz-adv-x="504" />
<glyph unicode="&#x2006;" horiz-adv-x="336" />
<glyph unicode="&#x2007;" horiz-adv-x="336" />
<glyph unicode="&#x2008;" horiz-adv-x="252" />
<glyph unicode="&#x2009;" horiz-adv-x="155" />
<glyph unicode="&#x200a;" horiz-adv-x="112" />
<glyph unicode="&#x2010;" horiz-adv-x="677" d="M68 432l6 117h534l6 -117h-546z" />
<glyph unicode="&#x2011;" horiz-adv-x="677" d="M68 432l6 117h534l6 -117h-546z" />
<glyph unicode="&#x2012;" horiz-adv-x="677" d="M68 432l6 117h534l6 -117h-546z" />
<glyph unicode="&#x2013;" horiz-adv-x="962" d="M61 432l7 117h837l6 -117h-850z" />
<glyph unicode="&#x2014;" horiz-adv-x="1925" d="M61 432l7 117h1800l6 -117h-1813z" />
<glyph unicode="&#x2018;" horiz-adv-x="485" d="M444 858q-10 -47 -53 -83t-102 -36q-41 0 -75 15.5t-57.5 41t-35.5 58.5t-12 70q0 68 34.5 132t95 121.5t140.5 105.5t170 85l35 -45q-45 -25 -91.5 -57.5t-83 -71.5t-60 -82t-23.5 -84q0 -39 18 -69.5t41 -52t41 -34t18 -14.5z" />
<glyph unicode="&#x2019;" horiz-adv-x="485" d="M506 1151q0 -68 -33 -127t-85 -110.5t-117.5 -94.5t-131.5 -78l-49 43q41 23 80 53.5t69.5 65.5t49 73t18.5 77q0 43 -21.5 75.5t-48 54t-48 33t-21.5 13.5q0 49 45 85t104 36q78 0 133.5 -57.5t55.5 -141.5z" />
<glyph unicode="&#x201a;" horiz-adv-x="485" d="M348 63q0 -68 -32.5 -127t-85 -111t-119 -95t-131.5 -78l-50 43q41 23 81 53.5t71 65t49.5 72.5t18.5 77q0 43 -22 76t-48.5 55.5t-48 33.5t-21.5 13q0 49 45 85t105 36q78 0 133 -57.5t55 -141.5z" />
<glyph unicode="&#x201c;" horiz-adv-x="913" d="M895 860q0 -49 -45 -85t-105 -36q-39 0 -72.5 15.5t-59 43t-40 63.5t-14.5 77q0 68 33 127t85 110.5t116.5 94.5t130.5 78l49 -43q-41 -23 -80 -53.5t-69.5 -64.5t-49 -72t-18.5 -77q0 -43 21.5 -75.5t48 -55t48 -34t21.5 -13.5zM446 860q0 -49 -45 -85t-104 -36 q-39 0 -73 15.5t-59.5 43t-40.5 63.5t-15 77q0 68 32.5 127t85 110.5t118 94.5t130.5 78l49 -43q-41 -23 -79.5 -53.5t-69.5 -64.5t-49.5 -72t-18.5 -77q0 -43 21.5 -75.5t48 -55t48 -34t21.5 -13.5z" />
<glyph unicode="&#x201d;" horiz-adv-x="913" d="M965 1151q0 -68 -33 -127t-85 -110.5t-116.5 -94.5t-130.5 -78l-51 43q41 23 81 53.5t70.5 65.5t49 73t18.5 77q0 43 -21.5 75.5t-48 54t-48 33t-21.5 13.5q0 49 44 85t103 36q78 0 133.5 -57.5t55.5 -141.5zM516 1151q0 -68 -32.5 -127t-85 -110.5t-118 -94.5 t-130.5 -78l-50 43q41 23 80 53.5t70 65.5t50 73t19 77q0 43 -22.5 75.5t-48 54t-48 33t-22.5 13.5q0 49 45 85t105 36q78 0 133 -57.5t55 -141.5z" />
<glyph unicode="&#x201e;" horiz-adv-x="913" d="M807 63q0 -68 -33 -127t-85 -111t-116.5 -95t-130.5 -78l-51 43q41 23 81 53.5t70.5 65t49 72.5t18.5 77q0 43 -21.5 76t-48 55.5t-48 33.5t-21.5 13q0 49 44 85t103 36q78 0 133.5 -57.5t55.5 -141.5zM358 63q0 -68 -32.5 -127t-85 -111t-119 -95t-131.5 -78l-49 43 q41 23 80.5 53.5t70.5 65t50.5 72.5t19.5 77q0 43 -22.5 76t-48 55.5t-48.5 33.5t-23 13q0 49 45.5 85t104.5 36q78 0 133 -57.5t55 -141.5z" />
<glyph unicode="&#x2020;" horiz-adv-x="962" d="M950 797h-368v-1114h-86v1114h-367l-8 90h375v395h86v-395h376z" />
<glyph unicode="&#x2021;" horiz-adv-x="962" d="M584 41v-358h-86v358h-375l8 90h367v696h-367l-8 91h375v364h86v-364h377l-9 -91h-368v-696h368l9 -90h-377z" />
<glyph unicode="&#x2022;" horiz-adv-x="931" d="M860 475q0 -23 -12 -63.5t-29.5 -83.5t-37 -80t-36.5 -53q-16 -16 -53 -36t-80 -37.5t-84 -29.5t-63 -12q-23 0 -63 12t-83 29.5t-79.5 37t-51.5 36.5q-16 16 -35.5 53t-38 80t-30.5 84t-12 63q0 23 12 63t30.5 83t38 79.5t35.5 53.5q14 14 52.5 34.5t81.5 38t82.5 29.5 t62.5 12t62.5 -12t82.5 -29.5t80 -38t53 -34.5q14 -16 35 -53t38.5 -80t29.5 -83t12 -63z" />
<glyph unicode="&#x2026;" horiz-adv-x="1425" d="M1292 117q0 -59 -41 -103.5t-104 -44.5q-66 0 -109 44t-43 104q0 59 43 102t109 43q63 0 104 -43t41 -102zM817 117q0 -59 -41 -103.5t-104 -44.5q-66 0 -109 44t-43 104q0 59 43 102t109 43q63 0 104 -43t41 -102zM342 117q0 -59 -41 -103.5t-104 -44.5q-66 0 -109 44 t-43 104q0 59 43 102t109 43q63 0 104 -43t41 -102z" />
<glyph unicode="&#x202f;" horiz-adv-x="403" />
<glyph unicode="&#x2030;" horiz-adv-x="2306" d="M803 1024q0 -80 -30 -149.5t-80 -122t-118.5 -82t-148.5 -29.5q-66 0 -124 21.5t-101 61.5t-69 96.5t-26 125.5q0 78 30 146.5t80 121t117.5 82t145.5 29.5q68 0 126.5 -20.5t102.5 -59.5t69.5 -95t25.5 -126zM207 -31h-121l1290 1340h121zM2267 336q0 -80 -29.5 -149.5 t-81 -122t-120 -82t-146.5 -29.5q-137 0 -226 80t-89 221q0 80 28.5 149.5t79 122t118 82t147.5 29.5q66 0 124 -20.5t101 -59.5t68.5 -95t25.5 -126zM1487 336q0 -80 -30 -149.5t-81 -122t-119.5 -82t-146.5 -29.5q-137 0 -226 80t-89 221q0 80 28.5 149.5t78.5 122 t117.5 82t147.5 29.5q66 0 124.5 -20.5t101.5 -59.5t68.5 -95t25.5 -126zM700 1004q0 102 -63.5 166.5t-165.5 64.5q-57 0 -105.5 -23.5t-84 -63.5t-56 -91t-20.5 -107q0 -102 66.5 -162.5t162.5 -60.5q57 0 105.5 21.5t84 59.5t56 88.5t20.5 107.5zM2169 324q0 49 -18.5 90 t-49 70.5t-72.5 46t-90 16.5q-57 0 -105 -23.5t-84 -63.5t-56.5 -91.5t-20.5 -106.5q0 -102 64.5 -162.5t160.5 -60.5q57 0 106.5 23.5t86.5 62.5t57.5 90.5t20.5 108.5zM1389 324q0 49 -18.5 90t-49.5 70.5t-73 46t-89 16.5q-57 0 -105 -23.5t-84 -63.5t-56.5 -91.5 t-20.5 -106.5q0 -102 64.5 -162.5t160.5 -60.5q57 0 106.5 23.5t86.5 62.5t57.5 90.5t20.5 108.5z" />
<glyph unicode="&#x2039;" horiz-adv-x="614" d="M473 92l-422 314v102l516 321l17 -43l-367 -335l283 -316z" />
<glyph unicode="&#x203a;" horiz-adv-x="614" d="M55 84l-14 43l336 326l-254 325l27 43l421 -313l-12 -111z" />
<glyph unicode="&#x2044;" horiz-adv-x="1075" d="M121 -33h-123l958 1340h121z" />
<glyph unicode="&#x205f;" horiz-adv-x="504" />
<glyph unicode="&#x2070;" horiz-adv-x="675" d="M299 541q-74 0 -125 23.5t-83 63.5t-47 94t-15 116q0 72 18.5 160.5t59 166.5t108.5 130.5t166 52.5q74 0 125 -25t83 -67t46 -97t14 -117q0 -72 -17.5 -158.5t-59.5 -163.5t-108.5 -128t-164.5 -51zM297 592q29 0 53.5 29.5t43 76.5t31.5 107.5t22.5 122t13.5 118 t4 97.5q0 18 -2 46t-10.5 52.5t-25.5 41.5t-48 17q-43 0 -75 -64.5t-52.5 -154.5t-30.5 -185t-10 -155q0 -20 2 -45.5t10 -49t25.5 -39t48.5 -15.5z" />
<glyph unicode="&#x2074;" horiz-adv-x="675" d="M352 774h-340l-4 64l484 518l108 -27l-72 -479h138l-19 -76h-127l-35 -215h-168zM360 850l52 324h-13l-303 -324h264z" />
<glyph unicode="&#x2075;" horiz-adv-x="675" d="M254 537q-41 0 -84 5t-79 19t-58.5 39t-22.5 66q0 35 24.5 58.5t59.5 23.5q66 0 90.5 -45.5t26.5 -98.5q10 -4 26.5 -7t32.5 -3q68 0 115 32.5t47 102.5q0 47 -24.5 82t-68.5 59.5t-104.5 42t-134.5 27.5l156 393h416l-19 -145h-377l-47 -119q61 -10 126 -27.5t117 -48 t86 -76t34 -108.5q0 -61 -30 -111.5t-78 -86.5t-108.5 -55t-121.5 -19z" />
<glyph unicode="&#x2076;" horiz-adv-x="675" d="M317 541q-66 0 -116.5 24.5t-86.5 67.5t-55.5 99t-19.5 118q0 86 38 171t117.5 155.5t201.5 118.5t288 59l14 -49q-197 -35 -308 -125t-154 -219h6q45 47 101 71.5t110 24.5q82 0 138 -55.5t56 -153.5q0 -59 -26.5 -114.5t-72.5 -98.5t-105.5 -68.5t-125.5 -25.5z M322 596q23 0 47 15.5t44.5 44t34 71.5t13.5 96q0 72 -25.5 112t-73.5 40q-31 0 -61.5 -18.5t-56.5 -47.5q-10 -29 -15.5 -61.5t-5.5 -69.5q0 -35 5 -67.5t16.5 -58t30 -41t47.5 -15.5z" />
<glyph unicode="&#x2077;" horiz-adv-x="675" d="M578 1196v2h-136q-82 0 -129 -2t-72.5 -6t-35.5 -12.5t-21 -20.5l-55 -74h-55l71 250h586l-2 -47l-498 -737h-137z" />
<glyph unicode="&#x2078;" horiz-adv-x="675" d="M307 543q-53 0 -105 11t-93 35.5t-68 61.5t-27 88q0 39 16.5 71t44 56.5t63.5 42t75 25.5v4q-53 31 -90 73t-39 105q0 55 25.5 98t66.5 73t93.5 46.5t107.5 16.5q51 0 100 -11.5t88 -35t61.5 -58.5t22.5 -84q0 -41 -14 -71.5t-41 -53t-60.5 -37t-70.5 -22.5v-2 q59 -33 106 -81t47 -120q0 -57 -27.5 -100t-72.5 -73t-99.5 -44t-109.5 -14zM410 1006q39 27 58 66.5t19 84.5q0 57 -30.5 98t-91.5 41q-55 0 -89 -29.5t-34 -82.5q0 -33 16 -59.5t41 -48t54.5 -39t56.5 -31.5zM326 596q55 0 93 28.5t38 84.5q0 37 -18.5 65.5t-46 51 t-60.5 42t-62 35.5q-41 -29 -66.5 -72t-25.5 -92q0 -61 39 -102t109 -41z" />
<glyph unicode="&#x2079;" horiz-adv-x="675" d="M6 584q195 35 308.5 125t156.5 219h-6q-45 -47 -101.5 -72t-109.5 -25q-82 0 -138.5 55.5t-56.5 153.5q0 61 27 116.5t72 97.5t104.5 68t124.5 26q66 0 118 -25t88 -67t55.5 -98t19.5 -120q0 -86 -38 -171t-118 -155.5t-202 -118.5t-287 -58zM342 915q33 0 63.5 18.5 t57.5 45.5q10 27 14 61.5t4 71.5q0 70 -20.5 125t-77.5 55q-23 0 -46.5 -15t-44 -44t-33.5 -71t-13 -97q0 -72 24.5 -111t71.5 -39z" />
<glyph unicode="&#x207a;" horiz-adv-x="675" d="M379 913v-225h-66v225h-223l4 66h219v223h66v-223h219l4 -66h-223z" />
<glyph unicode="&#x207b;" horiz-adv-x="675" d="M102 911l2 68h506l4 -68h-512z" />
<glyph unicode="&#x2080;" horiz-adv-x="675" d="M299 -311q-74 0 -125 23.5t-83 63.5t-47 94t-15 116q0 72 18.5 161t59 166.5t108.5 130t166 52.5q74 0 125 -25t83 -67t46 -97t14 -117q0 -72 -17.5 -158.5t-59.5 -163.5t-108.5 -128t-164.5 -51zM297 -260q29 0 53.5 29.5t43 77t31.5 107.5t22.5 121.5t13.5 118t4 97.5 q0 18 -2 46t-10.5 52.5t-25.5 42t-48 17.5q-43 0 -75 -65t-52.5 -155t-30.5 -185t-10 -155q0 -20 2 -45.5t10 -49t25.5 -39t48.5 -15.5z" />
<glyph unicode="&#x2081;" horiz-adv-x="675" d="M63 -229l132 14q18 2 27 10t11 19l78 544l-157 25l10 43l350 76l-98 -688q-2 -10 5 -18.5t21 -10.5l99 -14l4 -64h-486z" />
<glyph unicode="&#x2082;" horiz-adv-x="675" d="M-8 -213q86 68 166 125t141 112.5t99 110.5t38 119q0 63 -44 93t-93 30q-61 0 -115.5 -25.5t-101.5 -58.5l-14 33q23 27 56.5 56.5t75.5 55t91 42t102 16.5q100 0 167 -53.5t67 -145.5q0 -63 -42 -121.5t-109.5 -114t-153.5 -110.5t-177 -113v-6h88q80 0 130.5 1t81 4 t46 11.5t27.5 20.5l39 53h57l-75 -215h-547v80z" />
<glyph unicode="&#x2083;" horiz-adv-x="675" d="M223 -324q-29 0 -67.5 6.5t-72.5 21.5t-57.5 39t-23.5 58q0 33 24.5 56.5t59.5 23.5q31 0 52.5 -13t34.5 -33.5t18.5 -46.5t3.5 -48q4 0 16 -3t25 -3q41 0 72.5 16.5t53 44t33 63.5t11.5 72q0 53 -31 85t-86 32q-31 0 -52.5 -6t-43.5 -12l-21 45q59 29 108.5 53.5t85 48 t55 49t19.5 60.5q0 45 -37.5 68.5t-85.5 23.5q-57 0 -114.5 -25.5t-102.5 -60.5l-14 37q66 76 155 122t187 46q39 0 77 -10.5t68.5 -30t49 -47t18.5 -62.5q0 -55 -30.5 -93t-74.5 -64.5t-95.5 -45t-94.5 -32.5v-9q23 8 46.5 11.5t43.5 3.5q76 0 121 -42t45 -122 q0 -61 -33.5 -112.5t-88 -87.5t-122 -56.5t-135.5 -20.5z" />
<glyph unicode="&#x2084;" horiz-adv-x="675" d="M352 -78h-340l-4 64l484 518l108 -27l-72 -479h138l-19 -76h-127l-35 -215h-168zM360 -2l52 324h-13l-303 -324h264z" />
<glyph unicode="&#x2085;" horiz-adv-x="675" d="M254 -315q-41 0 -84 5t-79 19.5t-58.5 39t-22.5 65.5q0 35 24.5 58.5t59.5 23.5q66 0 90.5 -45.5t26.5 -98.5q10 -4 26.5 -7t32.5 -3q68 0 115 32.5t47 102.5q0 47 -24.5 82t-68.5 59.5t-104.5 42t-134.5 27.5l156 393h416l-19 -145h-377l-47 -119q61 -10 126 -27.5 t117 -48t86 -76t34 -108.5q0 -61 -30 -111.5t-78 -86t-108.5 -55t-121.5 -19.5z" />
<glyph unicode="&#x2086;" horiz-adv-x="675" d="M317 -311q-66 0 -116.5 24.5t-86.5 67.5t-55.5 99.5t-19.5 117.5q0 86 38 171t117.5 155.5t201.5 119t288 58.5l14 -49q-197 -35 -308 -125t-154 -219h6q45 47 101 71.5t110 24.5q82 0 138 -55.5t56 -153.5q0 -59 -26.5 -114.5t-72.5 -98.5t-105.5 -68.5t-125.5 -25.5z M322 -256q23 0 47 15.5t44.5 44t34 71.5t13.5 96q0 72 -25.5 112t-73.5 40q-31 0 -61.5 -18.5t-56.5 -47.5q-10 -29 -15.5 -61.5t-5.5 -69.5q0 -35 5 -67.5t16.5 -58t30 -41t47.5 -15.5z" />
<glyph unicode="&#x2087;" horiz-adv-x="675" d="M578 344v2h-136q-82 0 -129 -2t-72.5 -6t-35.5 -12.5t-21 -20.5l-55 -74h-55l71 250h586l-2 -47l-498 -737h-137z" />
<glyph unicode="&#x2088;" horiz-adv-x="675" d="M307 -309q-53 0 -105 11t-93 35.5t-68 61.5t-27 88q0 39 16.5 71t44 56.5t63.5 42t75 25.5v4q-53 31 -90 73t-39 105q0 55 25.5 98.5t66.5 73t93.5 46t107.5 16.5q51 0 100 -11.5t88 -35t61.5 -58.5t22.5 -84q0 -41 -14 -71.5t-41 -53t-60.5 -37t-70.5 -22.5v-2 q59 -33 106 -81t47 -120q0 -57 -27.5 -100t-72.5 -73t-99.5 -44t-109.5 -14zM410 154q39 27 58 66.5t19 84.5q0 57 -30.5 98t-91.5 41q-55 0 -89 -29.5t-34 -82.5q0 -33 16 -59.5t41 -48t54.5 -39t56.5 -31.5zM326 -256q55 0 93 28.5t38 84.5q0 37 -18.5 65.5t-46 51 t-60.5 42t-62 35.5q-41 -29 -66.5 -71.5t-25.5 -92.5q0 -61 39 -102t109 -41z" />
<glyph unicode="&#x2089;" horiz-adv-x="675" d="M6 -268q195 35 308.5 125t156.5 219h-6q-45 -47 -101.5 -71.5t-109.5 -24.5q-82 0 -138.5 55t-56.5 153q0 61 27 116.5t72 97.5t104.5 68t124.5 26q66 0 118 -25t88 -67t55.5 -98t19.5 -120q0 -86 -38 -171t-118 -155.5t-202 -118.5t-287 -58zM342 63q33 0 63.5 18.5 t57.5 45.5q10 27 14 61.5t4 71.5q0 70 -20.5 125t-77.5 55q-23 0 -46.5 -15t-44 -44t-33.5 -71t-13 -97q0 -72 24.5 -111t71.5 -39z" />
<glyph unicode="&#x208a;" horiz-adv-x="675" d="M379 61v-225h-66v225h-223l4 66h219v223h66v-223h219l4 -66h-223z" />
<glyph unicode="&#x20ac;" horiz-adv-x="1048" d="M360 440q23 -156 102 -246t218 -90q84 0 150.5 35t125.5 82l27 -45q-59 -90 -159.5 -148.5t-217.5 -58.5q-102 0 -181 37t-135.5 101.5t-89 149.5t-44.5 183h-140l7 90h127v17q2 37 5 73.5t9 71.5h-115l6 90h127q31 113 88.5 206t134 161t171 104.5t198.5 36.5 q154 0 232.5 -53t78.5 -127q0 -53 -28.5 -89t-81.5 -36q-59 0 -94 54.5t-35 123.5q-23 16 -59.5 26.5t-71.5 10.5q-125 0 -216 -108.5t-126 -309.5h413l7 -90h-433q-6 -68 -6 -137v-25h400l6 -90h-400v0z" />
<glyph unicode="&#x2122;" horiz-adv-x="1898" d="M1554 518l2 57l64 15q16 4 21.5 26.5t3.5 98.5l-9 475h-20l-211 -647h-121l-162 653h-20l-15 -399q-2 -68 -3 -109t2.5 -62.5t8.5 -28.5t15 -11l66 -11l4 -57h-279l6 57l62 11q10 2 18 9t13.5 28.5t9.5 61.5t6 112l12 383q0 10 -5 18t-22 12l-69 13l-4 57h321l127 -563 h21l172 563h323l-4 -57l-69 -13q-16 -4 -22.5 -12t-6.5 -18l8 -465q2 -78 13.5 -99.5t27.5 -25.5l64 -15l4 -57h-353zM815 993h-72l-12 39q-16 55 -29.5 91t-34 57.5t-51 30t-81.5 8.5h-3v-603q0 -8 5.5 -16t19.5 -12l86 -13l2 -57h-379l6 57l84 13q16 4 21.5 12t5.5 16v603 h-2q-43 0 -71.5 -9.5t-49 -31t-37 -57.5t-35.5 -89l-12 -39h-67l14 287h692v-287z" />
<glyph unicode="&#x25fc;" horiz-adv-x="952" d="M0 952h952v-952h-952v952z" />
<glyph horiz-adv-x="1009" d="M1090 1204l-125 -22q-47 -8 -54 -49l-102 -750q-14 -111 -57 -189.5t-105.5 -129t-140.5 -73t-164 -22.5q-72 0 -139.5 19.5t-119.5 56.5t-84 88t-32 115q0 63 41 105t101 40q49 -2 82.5 -31.5t33.5 -76.5q0 -37 -14 -67t-37 -48q25 -47 75 -78t101 -31q104 0 162.5 76 t81.5 238l100 758q2 18 -5 31.5t-36 17.5l-143 22l-6 76h592z" />
<glyph horiz-adv-x="1009" d="M1020 1372l-176 252h-4l-246 -252h-70l226 377h215l125 -377h-70zM1090 1204l-125 -22q-47 -8 -54 -49l-102 -750q-14 -111 -57 -189.5t-105.5 -129t-140.5 -73t-164 -22.5q-72 0 -139.5 19.5t-119.5 56.5t-84 88t-32 115q0 63 41 105t101 40q49 -2 82.5 -31.5 t33.5 -76.5q0 -37 -14 -67t-37 -48q25 -47 75 -78t101 -31q104 0 162.5 76t81.5 238l100 758q2 18 -5 31.5t-36 17.5l-143 22l-6 76h592z" />
<glyph horiz-adv-x="970" d="M211 244q-39 -88 -39 -119t45 -39l47 -10l4 -76h-354l6 76l37 8q31 6 51.5 15.5t42 37t50 81.5t75.5 151l246 503l2 46l223 53l168 -836q4 -23 20.5 -31t45.5 -16l53 -12l2 -76h-461l6 76l56 10q25 4 38 10t17 20.5t1 41t-11 73.5l-17 80h-325zM479 786h-24l-183 -401 h281z" />
<glyph horiz-adv-x="1030" d="M924 264q0 -51 -18.5 -91t-53.5 -75q-51 -53 -144.5 -75.5t-222.5 -22.5h-456l10 76l72 16q35 8 39 37l90 688q2 14 -4.5 22.5t-24.5 14.5l-68 16l-4 76h465q98 0 164 -16.5t105.5 -45t56 -68.5t16.5 -87q0 -98 -80 -157.5t-198 -73.5v-15q121 -12 188.5 -71.5 t67.5 -147.5zM705 262q0 92 -61.5 139.5t-164.5 47.5h-76l-47 -355l72 -20h66q90 0 150.5 51t60.5 137zM725 696q0 80 -54.5 128t-164.5 48h-47l-47 -356l102 2q92 4 151.5 47t59.5 131z" />
<glyph horiz-adv-x="1122" d="M897 0l-96 20q-41 -16 -114 -30.5t-150 -14.5q-102 0 -187.5 29t-147 83t-95 135t-33.5 186q0 104 43 206.5t121 178.5q78 80 182 127t239 47q78 0 143.5 -13.5t98.5 -23.5l139 33l-47 -342h-119l-32 215q-31 23 -80 36t-96 13q-86 0 -154 -40t-116 -107.5t-73.5 -159 t-25.5 -191.5q0 -92 26.5 -156.5t67.5 -105.5q35 -35 83 -51.5t97 -16.5q41 0 88.5 9.5t83.5 29.5l107 221h119z" />
<glyph horiz-adv-x="1140" d="M1065 539q0 -98 -40 -195.5t-118 -175.5q-82 -78 -201.5 -123t-273.5 -45h-403l10 76l72 16q35 8 39 37l90 688q2 14 -4.5 22.5t-24.5 14.5l-68 16l-6 76l426 4q119 0 212 -31.5t157.5 -87t98.5 -131t34 -161.5zM838 524q-2 156 -86 251t-244 95h-51l-99 -757l105 -31 q88 -4 157.5 28.5t117.5 92t74 142.5t26 179z" />
<glyph horiz-adv-x="1048" d="M879 0h-850l10 76l72 16q35 8 39 37l90 688q2 14 -4.5 22.5t-24.5 14.5l-68 16l-6 76h873l-39 -317h-111l-14 125q-6 39 -18.5 61.5t-44 34.5t-86 15t-142.5 3h-98l-45 -356h61q61 0 93 8t48 39l50 105h84l-84 -367h-80l-2 96q-2 27 -23.5 39t-101.5 12h-54l-47 -366h97 q90 0 146 4t92 16.5t56.5 35t38.5 59.5l48 116h114z" />
<glyph horiz-adv-x="1026" d="M848 629l-14 125q-6 39 -19.5 61.5t-44.5 34.5t-85 15t-142 3h-84l-49 -374h65q61 0 94 7t49 42l52 102h82l-84 -366h-78l-4 96q0 29 -21.5 40t-99.5 11h-66l-39 -297q-4 -29 29 -37l94 -16l2 -76h-456l10 76l72 16q35 8 39 37l90 688q2 14 -4.5 22.5t-24.5 14.5l-68 16 l-6 76h860l-41 -317h-108z" />
<glyph horiz-adv-x="1159" d="M1057 354l-78 -16q-35 -8 -39 -37l-25 -184l86 -11l5 -55q-41 -14 -96.5 -27.5t-117 -24.5t-126 -17.5t-123.5 -6.5q-104 0 -191.5 28t-149 83t-95 136t-33.5 186q0 104 43 206.5t121 180.5q80 78 183 125t238 47q78 0 143.5 -13.5t98.5 -23.5l139 33l-47 -342h-119 l-32 215q-31 23 -80 36t-96 13q-86 0 -154 -40t-116 -107.5t-73.5 -159t-25.5 -191.5q0 -92 24.5 -157.5t67.5 -108.5q35 -33 79 -48.5t97 -15.5q37 0 75 6.5t67 18.5l26 219q4 29 -35 37l-71 16l-6 76h442z" />
<glyph horiz-adv-x="1226" d="M649 0l6 76l74 16q20 6 28.5 13.5t10.5 23.5l41 315h-406l-43 -315q-4 -29 29 -37l72 -16l6 -76h-434l6 76l72 16q35 8 39 37l90 688q2 14 -4.5 22.5t-24.5 14.5l-68 16l-6 76h432l-4 -76l-76 -16q-35 -8 -38 -37l-39 -297h407l39 297q2 29 -31 37l-67 16l-6 76h432 l-4 -76l-76 -16q-39 -10 -41 -37l-90 -688q-2 -27 31 -37l71 -16l6 -76h-434z" />
<glyph horiz-adv-x="647" d="M35 0l6 76l90 16q35 8 39 37l90 688q4 29 -31 37l-84 16l-6 76h465l-6 -76l-88 -16q-37 -8 -41 -37l-90 -688q-4 -29 31 -37l84 -16l6 -76h-465z" />
<glyph horiz-adv-x="720" d="M700 870l-77 -16q-23 -6 -31 -14.5t-10 -22.5l-54 -391q-31 -242 -136 -346.5t-257 -104.5q-86 0 -132 38t-42 91q4 41 30.5 66t67.5 25q53 0 86 -39t33 -111h10q47 29 74 92.5t45 202.5l64 477q4 29 -29 37l-98 16l-4 76h467z" />
<glyph horiz-adv-x="1110" d="M625 0l4 76l39 12q27 8 8 45l-174 320l-58 -45q-25 -20 -55 -48l-29 -231q-4 -29 29 -37l72 -16l4 -76h-432l6 76l72 16q35 8 39 37l90 688q2 14 -4.5 22.5t-24.5 14.5l-68 16l-6 76h432l-4 -76l-76 -16q-35 -8 -38 -37l-48 -358l254 225q59 53 91 86t34 57q0 33 -41 39 l-28 6l-6 74h409l-6 -74l-51 -12q-55 -10 -107.5 -39.5t-124.5 -93.5l-168 -139l254 -441q23 -35 43.5 -44t42.5 -15l41 -12l7 -76h-422z" />
<glyph horiz-adv-x="983" d="M809 0h-776l6 76l72 16q35 8 39 37l90 688q2 14 -4.5 22.5t-24.5 14.5l-68 16l-6 76h445l-4 -76l-89 -16q-35 -6 -38 -37l-97 -735h45q88 0 142.5 5t88.5 17.5t52 36t37 60.5l53 131h113z" />
<glyph horiz-adv-x="1400" d="M844 0l4 76l78 16q12 2 20 10.5t14.5 30t11.5 61t13 107.5l57 530h-24l-375 -800h-172l-111 813h-22l-80 -475q-16 -98 -23.5 -153.5t-7.5 -81t6.5 -33t18.5 -9.5l82 -16l6 -76h-340l4 76l78 16q14 2 24.5 9.5t20.5 34t21.5 80.5t27.5 153l78 448q4 29 -27 37l-86 16 l-6 76h426l86 -682h23l319 682h385l-6 -76l-84 -16q-23 -4 -31 -13.5t-10 -23.5l-53 -516q-8 -72 -10 -111.5t1 -60t10 -28t19 -9.5l74 -16l6 -76h-446z" />
<glyph horiz-adv-x="1204" d="M1180 870l-72 -16q-18 -4 -30.5 -14.5t-24 -40t-21.5 -86t-24 -154.5l-76 -571h-174l-414 762h-22l-46 -363q-12 -96 -16 -153.5t-1 -88t12.5 -41t25.5 -12.5l76 -16l6 -76h-359l7 76l69 16q18 4 30.5 13.5t23 39t21.5 87t24 155.5l24 184q10 70 17.5 127.5t7.5 59.5 q4 41 -4.5 60.5t-32.5 29.5l-64 22l-6 76h340l387 -717h23l43 330q12 94 17 151.5t2 88t-13 41t-29 14.5l-73 16l-7 76h359z" />
<glyph horiz-adv-x="1130" d="M1055 535q0 -119 -45 -226.5t-125 -187.5q-72 -68 -162 -107t-199 -39q-98 0 -181 33t-142.5 91.5t-92 137t-32.5 171.5q0 113 38 217t111 182q72 74 168 117t211 43q98 0 181 -33t142.5 -91.5t93.5 -137t34 -170.5zM829 578q0 74 -17 140t-56 103q-25 29 -63 45.5 t-87 16.5q-82 0 -140 -53.5t-96 -133.5t-55.5 -171t-17.5 -165q0 -78 19.5 -142t60.5 -105q51 -55 147 -56q82 0 140.5 53.5t95.5 133.5t53 170t16 164z" />
<glyph horiz-adv-x="1015" d="M965 670q0 -78 -40 -137.5t-102.5 -98.5t-139.5 -57.5t-153 -18.5q-47 0 -80.5 2t-58.5 7l-31 -238q-4 -31 29 -37l96 -16l7 -76h-459l6 76l74 16q35 8 39 37l90 688q2 14 -4.5 22.5t-26.5 14.5l-68 16l-6 76h436q100 0 174 -20.5t122.5 -57.5t72 -88t23.5 -110zM735 666 q0 92 -57 148t-150 56h-71l-54 -424q23 -6 52.5 -9t60.5 -3q47 0 87 17.5t69.5 48t46 74t16.5 92.5z" />
<glyph horiz-adv-x="1130" d="M981 -266q-37 -10 -96.5 -17.5t-126.5 -7.5q-82 0 -139.5 13.5t-102.5 46t-82 90t-80 145.5q-129 47 -203.5 154.5t-74.5 249.5q0 113 38 217t111 182q72 74 168 117t211 43q98 0 181 -33t142.5 -91.5t93.5 -137t34 -170.5q0 -119 -45 -226.5t-125 -187.5 q-59 -55 -130 -91t-155 -50q33 -55 64.5 -90t72.5 -55.5t98.5 -27t141.5 -4.5zM829 578q0 74 -17 140t-56 103q-25 29 -63 45.5t-87 16.5q-82 0 -140 -53.5t-96 -133.5t-55.5 -171t-17.5 -165q0 -78 19.5 -142t60.5 -105q51 -55 147 -56q82 0 140.5 53.5t95.5 133.5t53 170 t16 164z" />
<glyph horiz-adv-x="1073" d="M692 0l-61 143l-121 254l-113 9l-37 -277q-4 -29 29 -37l72 -16l6 -76h-434l6 76l72 16q35 8 39 37l90 688q2 14 -4.5 22.5t-24.5 14.5l-68 16l-6 76h459q106 0 180 -20.5t120 -54t67.5 -78.5t21.5 -93q0 -106 -72.5 -177.5t-197.5 -104.5l143 -264q18 -35 44 -49.5 t50 -20.5l39 -8l6 -76h-305zM754 676q0 92 -55.5 145t-155.5 53h-86l-49 -389l131 -18q41 2 79.5 15.5t68.5 39t48.5 63.5t18.5 91z" />
<glyph horiz-adv-x="917" d="M786 279q0 -61 -26.5 -117t-76.5 -97.5t-124 -65.5t-168 -24q-104 0 -186 14.5t-152 33.5l29 296h104l47 -225q35 -14 77 -23.5t89 -9.5q98 0 148.5 44.5t50.5 105.5q0 63 -56.5 105t-144.5 83q-47 25 -93 51.5t-83 60.5t-59.5 77t-22.5 102q0 55 22.5 105.5t70 88.5 t118 60.5t166.5 22.5q72 0 130.5 -8.5t117.5 -20.5l88 23l-43 -316h-100l-41 205q-35 14 -81 23.5t-87 9.5q-88 0 -132 -35t-44 -88q0 -68 54 -112t159 -93q45 -25 91 -50.5t80.5 -58t56 -73.5t21.5 -94z" />
<glyph horiz-adv-x="1052" d="M899 614l-14 127q-4 39 -14.5 62.5t-31 37t-54 18.5t-85.5 5h-20l-96 -735q-4 -29 28 -37l90 -16l7 -76h-473l6 76l92 16q35 8 39 37l96 735h-16q-51 0 -86 -4t-59.5 -16.5t-42 -35t-32.5 -58.5l-53 -136h-114l71 332h914l-43 -332h-109z" />
<glyph horiz-adv-x="1140" d="M1139 870l-72 -16q-18 -4 -30.5 -12t-24 -38t-21.5 -87.5t-24 -159.5l-33 -256q-20 -154 -121.5 -242t-275.5 -88q-178 0 -280.5 80t-102.5 230q0 16 1 29.5t3 29.5l67 477q4 29 -30 37l-68 16l-8 76h436l-6 -76l-76 -16q-37 -8 -41 -37l-59 -438q-4 -18 -5 -33.5 t-1 -38.5q0 -117 64.5 -172t170.5 -55q104 0 172 62.5t84 193.5l31 223q12 96 17 153.5t2 87t-13 40t-29 14.5l-73 16l-7 76h359z" />
<glyph horiz-adv-x="972" d="M1061 868l-39 -8q-31 -6 -51.5 -14t-42 -36t-51 -82t-76.5 -150l-287 -580h-197l-176 813q-4 25 -19.5 32t-43.5 13l-53 12l-7 78h463l-6 -78l-57 -8q-25 -4 -37 -10t-15.5 -20.5t2 -42t15.5 -72.5l113 -553h22l215 461q33 70 48.5 114.5t15.5 71.5t-15.5 39t-42.5 16 l-34 4l-7 78h367z" />
<glyph horiz-adv-x="1517" d="M1587 868l-35 -10q-25 -6 -46 -17.5t-45.5 -40t-55.5 -80.5t-74 -142l-278 -580h-179l-100 596h-22l-279 -596h-180l-162 813q-8 33 -63 45l-58 12l-6 78h473l-6 -78l-61 -8q-23 -4 -34 -11t-15.5 -22.5t-1.5 -42t12 -69.5l94 -516h22l242 518l-14 94q-4 20 -22.5 29.5 t-43.5 15.5l-53 12l-6 78h477l-6 -78l-60 -8q-35 -6 -44 -33.5t6 -111.5l81 -516h25l180 403q37 80 55.5 129t21.5 76t-9 37t-33 14l-43 10l-6 78h358z" />
<glyph horiz-adv-x="1038" d="M514 0l6 76l47 8q35 4 37 28.5t-31 90.5l-102 198h-10l-162 -192q-55 -66 -55 -89.5t41 -33.5l47 -10l6 -76h-373l6 76l54 14q41 10 78.5 38t91.5 83l225 248l-213 348q-14 25 -27.5 35t-34.5 14l-55 14l-6 76h451l-7 -76l-47 -8q-35 -6 -37 -31.5t33 -91.5l92 -176h9 l147 172q53 66 54 90.5t-42 34.5l-45 10l-6 76h373l-6 -76l-54 -14q-41 -10 -78.5 -39t-91.5 -82l-213 -229l226 -371q14 -23 29.5 -32t33.5 -13l53 -14l7 -76h-451z" />
<glyph horiz-adv-x="948" d="M1020 868l-29 -8q-20 -6 -39.5 -16t-42 -28.5t-50.5 -49.5t-64 -78l-224 -301l-34 -258q-4 -29 30 -37l90 -16l7 -76h-478l7 76l94 16q35 8 39 37l32 242l-221 436q-16 39 -65 51l-39 10l-6 78h448l-6 -78l-53 -8q-37 -6 -43 -41t30 -121l107 -247h22l179 247 q55 78 58 116t-42 46l-41 8l-6 78h346z" />
<glyph horiz-adv-x="1005" d="M823 0h-809l11 78l694 776v10h-184q-66 0 -107 -5t-68.5 -19.5t-45 -40t-33.5 -64.5l-48 -117h-102l37 328h815l-10 -82l-701 -774v-10l164 2q80 0 131 6t83 20.5t50.5 38t34.5 58.5l49 112h115z" />
<glyph horiz-adv-x="1835" d="M1704 279q0 -61 -26.5 -117t-77 -97.5t-124 -65.5t-167.5 -24q-104 0 -186.5 14.5t-151.5 33.5l28 296h105l47 -225q35 -14 77 -23.5t89 -9.5q98 0 148.5 44.5t50.5 105.5q0 63 -56.5 105t-144.5 83q-47 25 -93 51.5t-83 60.5t-59.5 77t-22.5 102q0 55 22.5 105.5 t69.5 88.5t117.5 60.5t167.5 22.5q72 0 130 -8.5t117 -20.5l88 23l-43 -316h-100l-41 205q-35 14 -81 23.5t-87 9.5q-88 0 -132 -35t-44 -88q0 -68 54.5 -112t158.5 -93q45 -25 91 -50.5t81 -58t56.5 -73.5t21.5 -94zM786 279q0 -61 -26.5 -117t-76.5 -97.5t-124 -65.5 t-168 -24q-104 0 -186 14.5t-152 33.5l29 296h104l47 -225q35 -14 77 -23.5t89 -9.5q98 0 148.5 44.5t50.5 105.5q0 63 -56.5 105t-144.5 83q-47 25 -93 51.5t-83 60.5t-59.5 77t-22.5 102q0 55 22.5 105.5t70 88.5t118 60.5t166.5 22.5q72 0 130.5 -8.5t117.5 -20.5l88 23 l-43 -316h-100l-41 205q-35 14 -81 23.5t-87 9.5q-88 0 -132 -35t-44 -88q0 -68 54 -112t159 -93q45 -25 91 -50.5t80.5 -58t56 -73.5t21.5 -94z" />
<glyph horiz-adv-x="970" d="M545 1051l-303 376h233l139 -376h-69zM242 244q-39 -88 -39 -119t45 -39l47 -10l4 -76h-354l6 76l37 8q31 6 51 15.5t41.5 37t50.5 81.5t76 151l246 503l2 46l223 53l168 -836q4 -23 20.5 -31t44.5 -16l54 -12l2 -76h-461l6 76l55 10q25 4 38 10t17.5 20.5t1.5 41 t-12 73.5l-16 80h-326zM510 786h-25l-182 -401h281z" />
<glyph horiz-adv-x="970" d="M211 244q-39 -88 -39 -119t45 -39l47 -10l4 -76h-354l6 76l37 8q31 6 51.5 15.5t42 37t50 81.5t75.5 151l246 503l2 46l223 53l168 -836q4 -23 20.5 -31t45.5 -16l53 -12l2 -76h-461l6 76l56 10q25 4 38 10t17 20.5t1 41t-11 73.5l-17 80h-325zM479 786h-24l-183 -401 h281zM510 1051h-68l240 376h233z" />
<glyph horiz-adv-x="970" d="M211 244q-39 -88 -39 -119t45 -39l47 -10l4 -76h-354l6 76l37 8q31 6 51.5 15.5t42 37t50 81.5t75.5 151l246 503l2 46l223 53l168 -836q4 -23 20.5 -31t45.5 -16l53 -12l2 -76h-461l6 76l56 10q25 4 38 10t17 20.5t1 41t-11 73.5l-17 80h-325zM479 786h-24l-183 -401 h281zM754 1051l-176 252h-5l-245 -252h-70l225 376h215l125 -376h-69z" />
<glyph horiz-adv-x="970" d="M211 244q-39 -88 -39 -119t45 -39l47 -10l4 -76h-354l6 76l37 8q31 6 51.5 15.5t42 37t50 81.5t75.5 151l246 503l2 46l223 53l168 -836q4 -23 20.5 -31t45.5 -16l53 -12l2 -76h-461l6 76l56 10q25 4 38 10t17 20.5t1 41t-11 73.5l-17 80h-325zM479 786h-24l-183 -401 h281zM924 1333q-35 -135 -94.5 -199.5t-147.5 -64.5q-47 0 -89 22.5t-78 50t-67.5 51.5t-60.5 24q-33 0 -56.5 -30t-58.5 -102h-71q68 264 239 265q47 0 88 -22.5t77 -50.5t68 -50.5t60 -22.5q31 0 56.5 29t64.5 100h70z" />
<glyph horiz-adv-x="970" d="M211 244q-39 -88 -39 -119t45 -39l47 -10l4 -76h-354l6 76l37 8q31 6 51.5 15.5t42 37t50 81.5t75.5 151l246 503l2 46l223 53l168 -836q4 -23 20.5 -31t45.5 -16l53 -12l2 -76h-461l6 76l56 10q25 4 38 10t17 20.5t1 41t-11 73.5l-17 80h-325zM479 786h-24l-183 -401 h281zM924 1241q0 -53 -34 -94t-93 -41t-93 41t-34 94q0 55 33.5 96t93.5 41q59 0 93 -41t34 -96zM498 1241q0 -53 -34 -94t-93 -41t-93 41t-34 94q0 55 33.5 96t93.5 41q59 0 93 -41t34 -96z" />
<glyph horiz-adv-x="970" d="M737 520l78 -385q4 -23 20.5 -31t45.5 -16l53 -12l2 -76h-461l6 76l56 10q25 4 38 10t17 20.5t1 41t-11 73.5l-17 80h-325l-29 -67q-39 -88 -39 -119t45 -39l47 -10l4 -76h-354l6 76l37 8q31 6 50.5 15.5t41 37t51 81.5t76.5 151l270 555q-35 27 -55 67.5t-18 87.5 q2 78 52 136.5t140 58.5q88 0 140.5 -58.5t52.5 -136.5q0 -57 -25.5 -102t-73.5 -72zM692 1079q0 53 -33.5 93t-93.5 40q-59 0 -92 -39.5t-33 -93.5q0 -53 33 -93t92 -40t93 40t34 93zM479 786h-24l-183 -401h281z" />
<glyph horiz-adv-x="972" d="M535 1300h-68l240 377h233zM737 520l78 -385q4 -23 20.5 -31t45.5 -16l53 -12l2 -76h-461l6 76l56 10q25 4 38 10t17 20.5t1 41t-11 73.5l-17 80h-325l-29 -67q-39 -88 -39 -119t45 -39l47 -10l4 -76h-354l6 76l37 8q31 6 50.5 15.5t41 37t51 81.5t76.5 151l270 555 q-35 27 -55 67.5t-18 87.5q2 78 52 136.5t140 58.5q88 0 140.5 -58.5t52.5 -136.5q0 -57 -25.5 -102t-73.5 -72zM692 1079q0 53 -33.5 93t-93.5 40q-59 0 -92 -39.5t-33 -93.5q0 -53 33 -93t92 -40t93 40t34 93zM479 786h-24l-183 -401h281z" />
<glyph horiz-adv-x="972" d="M211 244q-39 -88 -39 -119t45 -39l47 -10l4 -76h-354l6 76l37 8q31 6 51.5 15.5t42 37t50 81.5t75.5 151l246 503l2 46l223 53l168 -836q4 -23 20.5 -31t45.5 -16l53 -12l2 -76h-461l6 76l56 10q25 4 38 10t17 20.5t1 41t-11 73.5l-17 80h-325zM479 786h-24l-183 -401 h281zM270 1114l21 100h543l-3 -100h-561z" />
<glyph horiz-adv-x="972" d="M211 244q-39 -88 -39 -119t45 -39l47 -10l4 -76h-354l6 76l37 8q31 6 51.5 15.5t42 37t50 81.5t75.5 151l246 503l2 46l223 53l168 -836q4 -23 20.5 -31t45.5 -16l53 -12l2 -76h-461l6 76l56 10q25 4 38 10t17 20.5t1 41t-11 73.5l-17 80h-325zM891 1427 q-23 -78 -53.5 -147.5t-72.5 -122.5t-96.5 -85t-125.5 -32q-72 0 -117 32t-70.5 85t-38 123t-16.5 147h68q14 -49 29.5 -97t38 -85t52 -59.5t70.5 -22.5t77 23.5t68.5 60.5t61.5 84t57 96h68zM479 786h-24l-183 -401h281z" />
<glyph horiz-adv-x="972" d="M700 -444q-86 10 -131 65t-26 146q8 37 30.5 71.5t55.5 64t70.5 54.5t78.5 43h-303l8 76l56 10q25 4 37 10t17 20.5t1 41t-12 73.5l-15 80h-325l-31 -67q-18 -43 -27.5 -72t-9.5 -46t10.5 -26.5t32.5 -13.5l49 -10l2 -76h-354l6 76l37 8q31 6 51.5 15.5t42 37t50 81.5 t75.5 151l246 503l2 46l223 53l170 -836q4 -23 20.5 -31t45.5 -16l53 -12l2 -76q-45 -8 -83 -27.5t-66.5 -47t-46 -60.5t-23.5 -66q-8 -47 8 -82.5t66 -40.5q31 -4 60.5 4.5t53.5 24.5l15 -27q-18 -53 -78 -91.5t-144 -30.5zM479 786h-22l-185 -401h281z" />
<glyph horiz-adv-x="1492" d="M1323 0h-844l10 76l76 16q33 8 37 37l25 193h-324l-45 -60q-41 -53 -56.5 -89t-15.5 -54q0 -25 31 -31l55 -12l7 -76h-365l8 76l39 10q20 6 41 16.5t50.5 39t73.5 81.5t110 146l286 399q27 37 25 59.5t-49 32.5l-64 10l-6 76h1026l-41 -317h-108l-17 125 q-6 39 -18.5 61.5t-43 34.5t-85 15t-142.5 3h-98l-47 -356h64q59 0 90.5 8t48.5 39l51 105h82l-84 -367h-80l-2 96q0 29 -21.5 40t-101.5 11h-57l-47 -368l98 2q90 0 147.5 4t92 16.5t55 35t39.5 59.5l47 116h117zM700 868h-14l-336 -473h287z" />
<glyph horiz-adv-x="1495" d="M926 1051h-68l240 376h233zM1323 0h-844l10 76l76 16q33 8 37 37l25 193h-324l-45 -60q-41 -53 -56.5 -89t-15.5 -54q0 -25 31 -31l55 -12l7 -76h-365l8 76l39 10q20 6 41 16.5t50.5 39t73.5 81.5t110 146l286 399q27 37 25 59.5t-49 32.5l-64 10l-6 76h1026l-41 -317 h-108l-17 125q-6 39 -18.5 61.5t-43 34.5t-85 15t-142.5 3h-98l-47 -356h64q59 0 90.5 8t48.5 39l51 105h82l-84 -367h-80l-2 96q0 29 -21.5 40t-101.5 11h-57l-47 -368l98 2q90 0 147.5 4t92 16.5t55 35t39.5 59.5l47 116h117zM700 868h-14l-336 -473h287z" />
<glyph horiz-adv-x="1122" d="M473 -23q-90 8 -162.5 41t-126 87.5t-82 130t-28.5 172.5q0 104 43 206.5t121 178.5q78 80 182 127t239 47q78 0 143.5 -13.5t98.5 -23.5l139 33l-47 -342h-119l-32 215q-31 23 -80 36t-96 13q-86 0 -154 -40t-116 -107.5t-73.5 -159t-25.5 -191.5q0 -92 26.5 -156.5 t67.5 -105.5q35 -35 83 -51.5t97 -16.5q41 0 88.5 9.5t83.5 29.5l107 221h119l-72 -317l-96 20q-37 -14 -100.5 -27t-135.5 -18l-100 -88q119 -4 186.5 -48t67.5 -124q0 -55 -34 -102t-97.5 -84t-151.5 -59.5t-196 -28.5l-13 53q172 20 259 67.5t87 114.5q0 43 -38.5 70 t-120.5 27q-72 0 -135 -15l4 45l190 174v0z" />
<glyph horiz-adv-x="1122" d="M614 1051h-67l239 376h234zM897 0l-96 20q-41 -16 -114 -30.5t-150 -14.5q-102 0 -187.5 29t-147 83t-95 135t-33.5 186q0 104 43 206.5t121 178.5q78 80 182 127t239 47q78 0 143.5 -13.5t98.5 -23.5l139 33l-47 -342h-119l-32 215q-31 23 -80 36t-96 13q-86 0 -154 -40 t-116 -107.5t-73.5 -159t-25.5 -191.5q0 -92 26.5 -156.5t67.5 -105.5q35 -35 83 -51.5t97 -16.5q41 0 88.5 9.5t83.5 29.5l107 221h119z" />
<glyph horiz-adv-x="1122" d="M842 1051l-176 252h-4l-246 -252h-70l225 376h215l125 -376h-69zM897 0l-96 20q-41 -16 -114 -30.5t-150 -14.5q-102 0 -187.5 29t-147 83t-95 135t-33.5 186q0 104 43 206.5t121 178.5q78 80 182 127t239 47q78 0 143.5 -13.5t98.5 -23.5l139 33l-47 -342h-119l-32 215 q-31 23 -80 36t-96 13q-86 0 -154 -40t-116 -107.5t-73.5 -159t-25.5 -191.5q0 -92 26.5 -156.5t67.5 -105.5q35 -35 83 -51.5t97 -16.5q41 0 88.5 9.5t83.5 29.5l107 221h119z" />
<glyph horiz-adv-x="1122" d="M897 0l-96 20q-41 -16 -114 -30.5t-150 -14.5q-102 0 -187.5 29t-147 83t-95 135t-33.5 186q0 104 43 206.5t121 178.5q78 80 182 127t239 47q78 0 143.5 -13.5t98.5 -23.5l139 33l-47 -342h-119l-32 215q-31 23 -80 36t-96 13q-86 0 -154 -40t-116 -107.5t-73.5 -159 t-25.5 -191.5q0 -92 26.5 -156.5t67.5 -105.5q35 -35 83 -51.5t97 -16.5q41 0 88.5 9.5t83.5 29.5l107 221h119zM813 1247q0 -55 -34 -96t-97 -41q-59 0 -93 41t-34 96t34 97t93 42q63 0 97 -42t34 -97z" />
<glyph horiz-adv-x="1122" d="M731 1051h-215l-123 376h68l178 -253h4l244 253h69zM897 0l-96 20q-41 -16 -114 -30.5t-150 -14.5q-102 0 -187.5 29t-147 83t-95 135t-33.5 186q0 104 43 206.5t121 178.5q78 80 182 127t239 47q78 0 143.5 -13.5t98.5 -23.5l139 33l-47 -342h-119l-32 215 q-31 23 -80 36t-96 13q-86 0 -154 -40t-116 -107.5t-73.5 -159t-25.5 -191.5q0 -92 26.5 -156.5t67.5 -105.5q35 -35 83 -51.5t97 -16.5q41 0 88.5 9.5t83.5 29.5l107 221h119z" />
<glyph horiz-adv-x="1140" d="M664 1051h-218l-122 376h67l178 -253h4l246 253h70zM1065 539q0 -98 -40 -195.5t-118 -175.5q-82 -78 -201.5 -123t-273.5 -45h-403l10 76l72 16q35 8 39 37l90 688q2 14 -4.5 22.5t-24.5 14.5l-68 16l-6 76l426 4q119 0 212 -31.5t157.5 -87t98.5 -131t34 -161.5z M838 524q-2 156 -86 251t-244 95h-51l-99 -757l105 -31q88 -4 157.5 28.5t117.5 92t74 142.5t26 179z" />
<glyph horiz-adv-x="1173" d="M82 436l6 90h150q2 23 6 45q4 20 7 46t7 55q8 63 18 145q2 14 -4 22.5t-24 14.5l-70 16l-4 76l426 4q117 0 210 -31.5t157.5 -87t98.5 -131t34 -161.5q0 -98 -40 -195.5t-118 -175.5q-82 -78 -200.5 -123t-272.5 -45h-403l8 76l73 16q35 8 39 37l41 307h-145zM653 526 l6 -90h-225l-41 -323l105 -31q88 -4 157.5 28.5t118.5 92t74.5 142.5t25.5 179q-2 156 -85.5 251t-243.5 95h-53l-46 -344h207z" />
<glyph horiz-adv-x="1173" d="M82 436l6 90h150q2 23 6 45q4 20 7 46t7 55q8 63 18 145q2 14 -4 22.5t-24 14.5l-70 16l-4 76l426 4q117 0 210 -31.5t157.5 -87t98.5 -131t34 -161.5q0 -98 -40 -195.5t-118 -175.5q-82 -78 -200.5 -123t-272.5 -45h-403l8 76l73 16q35 8 39 37l41 307h-145zM653 526 l6 -90h-225l-41 -323l105 -31q88 -4 157.5 28.5t118.5 92t74.5 142.5t25.5 179q-2 156 -85.5 251t-243.5 95h-53l-46 -344h207z" />
<glyph horiz-adv-x="1048" d="M582 1051l-303 376h233l139 -376h-69zM924 0h-850l10 76l72 16q35 8 39 37l90 688q2 14 -4.5 22.5t-24.5 14.5l-68 16l-6 76h873l-39 -317h-111l-14 125q-6 39 -18.5 61.5t-44 34.5t-86 15t-142.5 3h-98l-45 -356h61q61 0 93 8t48 39l50 105h84l-84 -367h-80l-2 96 q-2 27 -23.5 39t-101.5 12h-53l-48 -366h97q90 0 146 4t92 16.5t56.5 35t38.5 59.5l48 116h114z" />
<glyph horiz-adv-x="1048" d="M879 0h-850l10 76l72 16q35 8 39 37l90 688q2 14 -4.5 22.5t-24.5 14.5l-68 16l-6 76h873l-39 -317h-111l-14 125q-6 39 -18.5 61.5t-44 34.5t-86 15t-142.5 3h-98l-45 -356h61q61 0 93 8t48 39l50 105h84l-84 -367h-80l-2 96q-2 27 -23.5 39t-101.5 12h-54l-47 -366h97 q90 0 146 4t92 16.5t56.5 35t38.5 59.5l48 116h114zM584 1051h-68l240 376h233z" />
<glyph horiz-adv-x="1048" d="M879 0h-850l10 76l72 16q35 8 39 37l90 688q2 14 -4.5 22.5t-24.5 14.5l-68 16l-6 76h873l-39 -317h-111l-14 125q-6 39 -18.5 61.5t-44 34.5t-86 15t-142.5 3h-98l-45 -356h61q61 0 93 8t48 39l50 105h84l-84 -367h-80l-2 96q-2 27 -23.5 39t-101.5 12h-54l-47 -366h97 q90 0 146 4t92 16.5t56.5 35t38.5 59.5l48 116h114zM823 1051l-176 252h-4l-246 -252h-69l225 376h215l125 -376h-70z" />
<glyph horiz-adv-x="1048" d="M879 0h-850l10 76l72 16q35 8 39 37l90 688q2 14 -4.5 22.5t-24.5 14.5l-68 16l-6 76h873l-39 -317h-111l-14 125q-6 39 -18.5 61.5t-44 34.5t-86 15t-142.5 3h-98l-45 -356h61q61 0 93 8t48 39l50 105h84l-84 -367h-80l-2 96q-2 27 -23.5 39t-101.5 12h-54l-47 -366h97 q90 0 146 4t92 16.5t56.5 35t38.5 59.5l48 116h114zM963 1241q0 -53 -34 -94t-93 -41t-93 41t-34 94q0 55 33.5 96t93.5 41q59 0 93 -41t34 -96zM537 1241q0 -53 -34 -94t-93 -41t-93 41t-34 94q0 55 33.5 96t93.5 41q59 0 93 -41t34 -96z" />
<glyph horiz-adv-x="1050" d="M879 0h-850l10 76l72 16q35 8 39 37l90 688q2 14 -4.5 22.5t-24.5 14.5l-68 16l-6 76h873l-39 -317h-111l-14 125q-6 39 -18.5 61.5t-44 34.5t-86 15t-142.5 3h-98l-45 -356h61q61 0 93 8t48 39l50 105h84l-84 -367h-80l-2 96q-2 27 -23.5 39t-101.5 12h-54l-47 -366h97 q90 0 146 4t92 16.5t56.5 35t38.5 59.5l48 116h114zM346 1114l21 100h542l-2 -100h-561z" />
<glyph horiz-adv-x="1050" d="M879 0h-850l10 76l72 16q35 8 39 37l90 688q2 14 -4.5 22.5t-24.5 14.5l-68 16l-6 76h873l-39 -317h-111l-14 125q-6 39 -18.5 61.5t-44 34.5t-86 15t-142.5 3h-98l-45 -356h61q61 0 93 8t48 39l50 105h84l-84 -367h-80l-2 96q-2 27 -23.5 39t-101.5 12h-54l-47 -366h97 q90 0 146 4t92 16.5t56.5 35t38.5 59.5l48 116h114zM932 1427q-23 -78 -53.5 -147.5t-72.5 -122.5t-96.5 -85t-125.5 -32q-72 0 -117 32t-70.5 85t-38 123t-16.5 147h68q14 -49 29.5 -97t38 -85t52 -59.5t70.5 -22.5t77 23.5t68.5 60.5t61.5 84t57 96h68z" />
<glyph horiz-adv-x="1050" d="M879 0h-850l10 76l72 16q35 8 39 37l90 688q2 14 -4.5 22.5t-24.5 14.5l-68 16l-6 76h873l-39 -317h-111l-14 125q-6 39 -18.5 61.5t-44 34.5t-86 15t-142.5 3h-98l-45 -356h61q61 0 93 8t48 39l50 105h84l-84 -367h-80l-2 96q-2 27 -23.5 39t-101.5 12h-54l-47 -366h97 q90 0 146 4t92 16.5t56.5 35t38.5 59.5l48 116h114zM766 1247q0 -55 -34 -96t-97 -41q-59 0 -93 41t-34 96t33.5 97t93.5 42q63 0 97 -42t34 -97z" />
<glyph horiz-adv-x="1050" d="M635 -444q-86 10 -131 65t-27 146q16 76 81 134t142 99h-671l10 76l72 16q35 8 39 37l90 688q2 14 -4.5 22.5t-24.5 14.5l-68 16l-6 76h875l-41 -317h-109l-16 125q-6 39 -18.5 61.5t-43 34.5t-85 15t-142.5 3h-100l-45 -356h61q61 0 93 8t48 39l52 105h82l-84 -367h-80 l-2 96q-2 27 -23.5 39t-101.5 12h-54l-47 -366h97q90 0 146 4t92 16.5t56.5 35t38.5 59.5l48 116h116l-69 -309h-74q-63 -47 -103 -98.5t-51 -102.5q-10 -47 7.5 -82.5t66.5 -40.5q31 -4 60.5 4.5t54.5 24.5l14 -27q-16 -53 -76.5 -91.5t-144.5 -30.5z" />
</font>
</defs>
</svg>
