<?xml version="1.0" standalone="no"?>
<!DOCTYPE svg PUBLIC "-//W3C//DTD SVG 1.1//EN" "http://www.w3.org/Graphics/SVG/1.1/DTD/svg11.dtd" >
<svg xmlns="http://www.w3.org/2000/svg" xmlns:xlink="http://www.w3.org/1999/xlink" version="1.1">
<metadata></metadata>
<defs>
<font id="freighttext_prolight_italic" horiz-adv-x="1024" >
<font-face units-per-em="2048" ascent="1638" descent="-410" />
<missing-glyph horiz-adv-x="466" />
<glyph unicode="&#xfb00;" horiz-adv-x="1036" d="M-127 -504q-49 0 -82 31t-33 67q0 33 20.5 54.5t49.5 21.5q39 0 62.5 -28.5t27.5 -73.5l141 102q23 49 43.5 149.5t38.5 215.5l129 805l-178 6l4 55l189 29q23 133 62.5 220t92.5 144q41 45 101.5 71t111.5 26q57 0 95 -29t38 -70q0 -35 -18 -58.5t-47 -23.5 q-39 0 -61.5 28t-26.5 75l-166 -58q-35 -63 -61.5 -153t-43.5 -184h398q25 137 64.5 238t93.5 159q41 45 101 70.5t111 25.5q57 0 95.5 -28.5t38.5 -69.5q0 -35 -18.5 -58.5t-47.5 -23.5q-39 0 -61.5 27.5t-26.5 74.5l-166 -57q-35 -63 -61.5 -157.5t-42.5 -200.5h268l6 -76 h-285l-124 -744q-29 -178 -65 -292.5t-101 -180.5q-88 -88 -183 -88q-49 0 -81.5 31t-32.5 67q0 33 20.5 54.5t48.5 21.5q39 0 62.5 -28.5t27.5 -73.5l142 102q23 49 43 149.5t39 215.5l123 766h-396l-131 -785q-29 -178 -64.5 -292.5t-101.5 -180.5q-88 -88 -182 -88z" />
<glyph unicode="&#xfb01;" horiz-adv-x="1003" d="M-127 -504q-49 0 -82 31t-33 67q0 33 20.5 54.5t49.5 21.5q39 0 62.5 -28.5t27.5 -73.5l141 102q23 49 43.5 149.5t38.5 215.5l129 805l-178 6l4 55l189 29q25 137 70.5 235.5t105.5 157.5q37 37 99.5 62.5t113.5 25.5q57 0 95 -28.5t38 -69.5q0 -35 -18.5 -58.5 t-47.5 -23.5q-39 0 -61.5 31.5t-26.5 78.5l-166 -57q-49 -59 -78.5 -159.5t-46.5 -206.5h363q35 23 59 22q14 0 35 -7t37 -17.5t26.5 -22.5t8.5 -23l-236 -827l21 -10l235 182l27 -37q-23 -25 -57.5 -61.5t-73.5 -69.5t-76 -56.5t-61 -23.5q-16 0 -34 7.5t-33 18.5 t-24.5 22.5t-7.5 21.5l220 797l-9 8h-430l-131 -785q-29 -178 -64.5 -292.5t-101.5 -180.5q-88 -88 -182 -88z" />
<glyph unicode="&#xfb02;" horiz-adv-x="997" d="M-127 -504q-49 0 -82 31t-33 67q0 33 20.5 54.5t49.5 21.5q39 0 62.5 -28.5t27.5 -73.5l141 102q23 49 43.5 149.5t38.5 215.5l129 805l-178 6l4 55l189 29q25 137 70.5 235.5t105.5 157.5q37 37 99.5 62.5t113.5 25.5t86 -20l252 36l-353 -1364l56 -14l205 166l26 -37 q-23 -25 -57.5 -61.5t-73.5 -69.5t-76 -56.5t-61 -23.5q-16 0 -33.5 7.5t-32 17.5t-23.5 22.5t-7 22.5l198 805h-428l-131 -785q-29 -178 -64.5 -292.5t-101.5 -180.5q-88 -88 -182 -88zM799 918l104 423q-31 -41 -62.5 -58t-58 -14t-45 24.5t-22.5 56.5l-207 -45 q-31 -31 -53.5 -75t-41 -96.5t-30.5 -107.5t-21 -108h437z" />
<glyph unicode="&#xfb03;" horiz-adv-x="1480" d="M-127 -504q-49 0 -82 31t-33 67q0 33 20.5 54.5t49.5 21.5q39 0 62.5 -28.5t27.5 -73.5l141 102q23 49 43.5 149.5t38.5 215.5l129 805l-178 6l4 55l189 29q23 133 62.5 220t92.5 144q41 45 101.5 71t111.5 26q57 0 95 -29t38 -70q0 -35 -18 -58.5t-47 -23.5 q-39 0 -61.5 28t-26.5 75l-166 -58q-35 -63 -61.5 -153t-43.5 -184h398q27 147 73 246.5t105 158.5q37 37 99.5 62.5t113.5 25.5q57 0 95 -28.5t38 -69.5q0 -35 -18.5 -58.5t-46.5 -23.5q-39 0 -61.5 31.5t-27.5 78.5l-165 -57q-49 -59 -79 -159.5t-46 -206.5h362 q35 23 60 22q14 0 34.5 -7t37 -17.5t26.5 -22.5t8 -23l-235 -827l20 -10l236 182l26 -37q-23 -25 -57.5 -61.5t-73.5 -69.5t-76 -56.5t-61 -23.5q-16 0 -33.5 7.5t-33 18.5t-24.5 22.5t-7 21.5l219 797l-8 8h-431l-124 -744q-35 -178 -68 -292.5t-98 -180.5 q-88 -88 -183 -88q-49 0 -81.5 31t-32.5 67q0 33 20.5 54.5t48.5 21.5q39 0 62.5 -28.5t27.5 -73.5l142 102q23 49 43 149.5t39 215.5l123 766h-396l-131 -785q-29 -178 -64.5 -292.5t-101.5 -180.5q-88 -88 -182 -88z" />
<glyph unicode="&#xfb04;" horiz-adv-x="1474" d="M-127 -504q-49 0 -82 31t-33 67q0 33 20.5 54.5t49.5 21.5q39 0 62.5 -28.5t27.5 -73.5l141 102q23 49 43.5 149.5t38.5 215.5l129 805l-178 6l4 55l189 29q23 133 62.5 220t92.5 144q41 45 101.5 71t111.5 26q57 0 95 -29t38 -70q0 -35 -18 -58.5t-47 -23.5 q-39 0 -61.5 28t-26.5 75l-166 -58q-35 -63 -61.5 -153t-43.5 -184h398q27 147 73 246.5t105 158.5q37 37 99.5 62.5t113.5 25.5t86 -20l252 36l-352 -1364l55 -14l205 166l26 -37q-23 -25 -57.5 -61.5t-73.5 -69.5t-75.5 -56.5t-61.5 -23.5q-16 0 -33.5 7.5t-32 17.5 t-23.5 22.5t-7 22.5l198 805h-428l-124 -744q-25 -180 -63 -293.5t-103 -179.5q-88 -88 -183 -88q-49 0 -81.5 31t-32.5 67q0 33 20.5 54.5t48.5 21.5q39 0 62.5 -28.5t27.5 -73.5l142 102q23 49 43 149.5t39 215.5l123 766h-396l-131 -785q-29 -178 -64.5 -292.5 t-101.5 -180.5q-88 -88 -182 -88zM1276 918l104 423q-31 -41 -62.5 -58t-58 -14t-45 24.5t-22.5 56.5l-207 -45q-31 -31 -53.5 -75t-41 -96.5t-30.5 -107.5t-20 -108h436z" />
<glyph horiz-adv-x="0" />
<glyph horiz-adv-x="682" />
<glyph horiz-adv-x="0" />
<glyph horiz-adv-x="0" />
<glyph unicode=" "  horiz-adv-x="466" />
<glyph unicode="&#x09;" horiz-adv-x="466" />
<glyph unicode="&#xa0;" horiz-adv-x="466" />
<glyph unicode="!" horiz-adv-x="561" d="M311 1262q2 16 8.5 31.5t28.5 15.5h90q23 0 26 -15.5t-1 -31.5l-168 -850q-2 -6 -9 -9.5t-14.5 -3.5t-13.5 3.5t-6 9.5zM229 -29q-47 0 -76.5 31t-27.5 72q2 37 30.5 66.5t75.5 29.5t75 -28.5t26 -67.5q-2 -41 -29 -72t-74 -31z" />
<glyph unicode="&#x22;" horiz-adv-x="655" d="M664 1327h2l120 -43l-342 -459h-51zM369 1327h2l121 -43l-342 -459h-48z" />
<glyph unicode="#" horiz-adv-x="1128" d="M281 375h-269v57h285l109 408h-269v59h285l108 393h60l-107 -393h377l107 393h59l-106 -393h272v-59h-289l-108 -408h272v-57h-289l-104 -387h-60l105 387h-379l-102 -387h-60zM733 432l111 408h-375l-113 -408h377z" />
<glyph unicode="$" horiz-adv-x="960" d="M285 -27q-61 4 -121 13.5t-117 25.5l12 355h68l37 -287q59 -25 141 -35l160 578q-55 31 -108.5 64.5t-95.5 75.5t-67.5 95t-25.5 125q0 92 41 154.5t106.5 100.5t145.5 54.5t157 16.5h35l29 102l29 102h63l-57 -206q35 -4 66.5 -7.5t62.5 -11.5l112 31l-51 -391h-69 l-9 260q-27 16 -61.5 27.5t-71.5 17.5q-12 -41 -24 -84q-10 -39 -23.5 -86t-27.5 -98l-74 -271q57 -33 113.5 -66.5t100.5 -75.5t70.5 -94t26.5 -124q0 -100 -40 -170t-105.5 -113t-148.5 -62.5t-171 -19.5h-45l-86 -307h-63zM410 37q63 0 126.5 13t113.5 45t82 83t32 125 q0 55 -19.5 97t-53.5 76t-78 62.5t-93 55.5l-153 -555q10 -2 21.5 -2h21.5zM492 723q39 145 71 258q14 47 26.5 94t22.5 84q10 43 23 82q-10 2 -18.5 2h-18.5q-57 0 -115.5 -11t-105.5 -39t-77 -73t-30 -112q0 -53 17.5 -94.5t48.5 -75t71 -61t85 -54.5z" />
<glyph unicode="%" horiz-adv-x="1527" d="M432 641q-66 0 -124 21.5t-101 61.5t-68.5 96.5t-25.5 125.5q0 78 29.5 146.5t79.5 121t118 82t145 29.5q68 0 126.5 -20.5t102.5 -59.5t69.5 -95t25.5 -126q0 -80 -29.5 -149.5t-80 -122t-119 -82t-148.5 -29.5zM1397 1309h106l-1304 -1340h-107zM1116 -47 q-137 0 -226 80t-89 221q0 80 28.5 149.5t78.5 122t118 82t148 29.5q66 0 124 -20.5t101 -59.5t68.5 -95t25.5 -126q0 -80 -29.5 -149.5t-81 -122t-120 -82t-146.5 -29.5zM440 702q61 0 114.5 24t92.5 64.5t61.5 96t22.5 117.5q0 113 -70.5 184.5t-183.5 71.5 q-61 0 -114.5 -26t-92.5 -69t-61.5 -99t-22.5 -116q0 -55 19.5 -101t54.5 -79t81 -50.5t99 -17.5zM1124 14q61 0 115.5 24.5t94.5 68t62.5 99.5t22.5 118q0 55 -19.5 100t-54 78t-80.5 51t-100 18q-61 0 -114.5 -25.5t-92 -68.5t-61.5 -99t-23 -116q0 -113 72 -180.5 t178 -67.5z" />
<glyph unicode="&#x26;" horiz-adv-x="1222" d="M289 -33q-55 0 -103.5 20.5t-84 57.5t-55 86t-19.5 107q0 88 29.5 156.5t80.5 119.5t119 87t143 58v3q-66 78 -107.5 149.5t-41.5 161.5q0 66 27.5 127t74.5 107t111.5 74t136.5 28q59 0 114.5 -20.5t97.5 -56.5t67.5 -84t25.5 -101q0 -117 -96 -218.5t-285 -154.5v-2 l279 -307h4l274 299v2q-37 8 -60.5 33.5t-23.5 60.5q0 31 21.5 55.5t62.5 24.5q49 0 75 -39t26 -78q0 -37 -18.5 -76t-50.5 -77t-73 -74.5t-86 -67.5l-125 -88l306 -332l-113 -37l-264 295h-4q-53 -66 -104.5 -120t-107 -94t-117.5 -62.5t-136 -22.5zM504 700q66 31 121 68 t95 81t61.5 95t21.5 113q0 47 -18.5 83t-48 59.5t-68.5 35.5t-78 12q-51 0 -95 -19.5t-77 -54t-51.5 -80.5t-18.5 -100q0 -63 42 -134t114 -159zM303 47q104 0 202.5 60.5t223.5 187.5l-303 338q-143 -70 -221 -161t-78 -210q0 -98 52 -156.5t124 -58.5z" />
<glyph unicode="'" horiz-adv-x="360" d="M369 1327h2l121 -43l-342 -459h-52z" />
<glyph unicode="(" horiz-adv-x="808" d="M731 -510q-82 41 -175 124t-173 203t-133 273.5t-53 337.5t53 338t133 273.5t173 202.5t175 124q10 -16 19 -31q8 -12 14 -22t6 -15q-78 -41 -163 -119.5t-155.5 -191.5t-117.5 -254t-47 -305t47 -305t117.5 -254t155.5 -191.5t163 -117.5q0 -4 -6 -15.5t-14 -23.5 q-9 -15 -19 -31z" />
<glyph unicode=")" horiz-adv-x="808" d="M80 -510q-12 16 -21 31q-8 12 -14 22.5t-6 14.5q76 39 162 118.5t156.5 191.5t117.5 254t47 306t-47 305t-117.5 254t-156.5 191.5t-162 119.5q0 4 6 14.5t14 22.5q8 14 21 31q80 -41 173 -124t173 -202.5t133 -273.5t53 -338t-53 -337.5t-133 -273.5t-173 -203 t-173 -124z" />
<glyph unicode="*" horiz-adv-x="704" d="M395 756l19 168l-29 8l-123 -123l-129 -43l-22 39l100 108l160 48l4 32l-148 51l-73 105l28 37l125 -39l88 -133l35 10l33 170l82 106l43 -14l-17 -131l-118 -141l16 -27l174 45l115 -39l-6 -45l-125 -41l-162 49l-23 -26l76 -142l-20 -131l-43 -10z" />
<glyph unicode="+" horiz-adv-x="983" d="M539 436v-381h-93v381h-374l6 88h368v379h93v-379h366l6 -88h-372z" />
<glyph unicode="," horiz-adv-x="434" d="M-41 -309q84 59 137.5 123.5t65.5 152.5q6 39 -11.5 66.5t-39 44t-41 26t-19.5 11.5q4 35 28.5 64.5t78.5 29.5q72 0 109.5 -50t27.5 -122q-8 -59 -38 -114.5t-73 -102.5t-95 -88t-103 -74z" />
<glyph unicode="-" horiz-adv-x="671" d="M20 526h512l7 -92h-525z" />
<glyph unicode="." horiz-adv-x="438" d="M166 -29q-47 0 -75 32t-25 71q2 39 28.5 68.5t73.5 29.5t75.5 -29.5t26.5 -68.5q-2 -41 -29.5 -72t-74.5 -31z" />
<glyph unicode="/" horiz-adv-x="571" d="M461 1352h82l-437 -1780h-81z" />
<glyph unicode="0" horiz-adv-x="1042" d="M477 -31q-82 0 -151.5 32t-121.5 91.5t-82 145.5t-30 194q0 100 33 199.5t94.5 179.5t146.5 129t189 49q82 0 151.5 -30.5t121 -89t81 -142.5t29.5 -192q0 -100 -33 -202t-93 -182.5t-145.5 -131t-189.5 -50.5zM481 45q94 0 162 53.5t110 132t61.5 166.5t19.5 158 q0 172 -79 263t-208 91q-96 0 -163 -51t-107.5 -127t-60 -163t-19.5 -156q0 -172 77.5 -269.5t206.5 -97.5z" />
<glyph unicode="1" horiz-adv-x="690" d="M82 63l180 17q10 0 12 12l105 789l-248 16l12 53l340 29l-116 -887q-2 -12 8 -12l170 -17l-2 -63h-475z" />
<glyph unicode="2" horiz-adv-x="890" d="M23 80q100 76 214.5 155.5t210 161.5t159 165t63.5 165q0 84 -56.5 126t-134.5 42q-98 0 -185 -44t-157 -110l-31 41q35 37 79 75t95.5 66.5t106.5 47t113 18.5q59 0 111.5 -14t91 -44t61 -75t22.5 -104q0 -90 -61 -175t-156.5 -166t-211 -159t-222.5 -152v-10h119 q143 0 223 4t122 16.5t56.5 35t28.5 61.5l53 147h74l-84 -354h-707z" />
<glyph unicode="3" horiz-adv-x="835" d="M137 -414q-25 0 -57.5 4t-63 16.5t-51 34t-20.5 54.5q0 41 28.5 63.5t65.5 22.5q51 0 79.5 -34t43.5 -79q33 -6 67 -6q63 0 131 32t121.5 84t88 121.5t34.5 145.5q0 45 -15.5 85t-46 70.5t-75.5 49t-105 18.5q-59 0 -117.5 -11t-105.5 -30l-12 47q59 37 143 81t161 96.5 t131 116t54 137.5q0 96 -60 143t-144 47q-90 0 -176 -41t-156 -106l-31 40q33 37 78 73t95 64.5t104.5 46t107.5 17.5q59 0 113.5 -17.5t96.5 -50t66.5 -81.5t24.5 -113q0 -72 -38 -128t-95 -102t-125.5 -83t-128.5 -70v-6q12 2 32.5 4t41.5 2q57 0 110.5 -18.5t94.5 -53 t65.5 -86t24.5 -114.5q0 -102 -52.5 -190.5t-135.5 -154t-186.5 -103.5t-205.5 -38z" />
<glyph unicode="4" horiz-adv-x="899" d="M557 74h-577l4 63l731 852h59l-112 -842h221l-23 -73h-207l-59 -451h-96zM565 147l94 674h-4l-573 -674h483z" />
<glyph unicode="5" horiz-adv-x="839" d="M111 -414q-92 0 -146.5 37t-48.5 88q4 39 35 64.5t67 25.5q53 0 88 -37.5t39 -89.5q16 -4 30.5 -6t33.5 -2q72 0 133 26.5t108.5 70.5t76 100.5t36.5 116.5q18 139 -93.5 256.5t-352.5 201.5l205 533h491l-14 -115h-455l-127 -338q137 -51 228.5 -109.5t144.5 -122 t71.5 -131t10.5 -135.5q-12 -94 -59.5 -173.5t-122 -137t-171.5 -90.5t-208 -33z" />
<glyph unicode="6" horiz-adv-x="980" d="M449 -33q-74 0 -142.5 32t-121 92.5t-83 147.5t-30.5 197q0 152 76.5 300.5t210 272.5t309.5 211t376 115l43 -41q-154 -29 -296 -92t-261.5 -155.5t-209 -211t-136.5 -260.5l11 -2q33 47 76.5 89.5t95 74t105.5 50t108 18.5q70 0 129 -28.5t100 -78t64.5 -118 t23.5 -148.5q0 -88 -39 -172t-101.5 -148.5t-143 -104.5t-164.5 -40zM455 23q59 0 118.5 30.5t106.5 85t76.5 130t29.5 167.5q0 80 -22.5 136.5t-57 92t-75.5 53t-80 17.5q-104 0 -194.5 -62.5t-168.5 -160.5q-6 -31 -10 -64.5t-4 -68.5q0 -59 19.5 -121.5t56.5 -115t88 -86 t117 -33.5z" />
<glyph unicode="7" horiz-adv-x="888" d="M784 850v10h-417q-80 0 -111 -17.5t-51 -62.5q-12 -29 -23 -51q-10 -20 -18 -40.5t-12 -31.5h-62l80 314h721l2 -70l-772 -1282h-92z" />
<glyph unicode="8" horiz-adv-x="944" d="M377 -33q-76 6 -138.5 36t-105.5 78t-62.5 108.5t-11.5 125.5q8 66 40 117t78 91t102.5 70t111.5 52v2q-49 29 -93 62.5t-76 73.5t-47 86t-7 100q8 66 42 125t89 102t130 66.5t167 17.5q72 -4 132 -32.5t102 -73t63.5 -100.5t13.5 -118q-16 -123 -100 -205.5t-195 -127.5 l-2 -2q51 -29 96.5 -63t77 -74t47 -87t9.5 -102q-23 -164 -141.5 -253t-321.5 -75zM569 647q90 53 150.5 120t73.5 159q8 57 -5.5 109t-45 92t-79 66t-108.5 30q-57 4 -106.5 -12.5t-86 -47t-61.5 -73.5t-31 -93q-8 -61 11.5 -109t61.5 -90t100 -78t126 -73zM442 23 q63 -4 114.5 13t90.5 50t62.5 80t31.5 104q8 63 -14 113.5t-65.5 92.5t-101.5 76t-122 69q-47 -23 -91 -52.5t-81 -64.5t-62.5 -77t-31.5 -91q-8 -61 5 -116.5t47 -97.5t89 -68.5t129 -30.5z" />
<glyph unicode="9" horiz-adv-x="980" d="M-121 -338q154 29 296 92.5t262 155.5t209 211t136 260l-10 2q-33 -47 -77 -89t-95 -74t-106.5 -50t-106.5 -18q-72 0 -130 28.5t-99 77.5t-64.5 117.5t-23.5 148.5q0 88 38.5 172t101 148.5t143.5 104.5t165 40q74 0 141.5 -31.5t119.5 -92t84 -147.5t32 -198 q0 -100 -35 -201.5t-98.5 -194.5t-153.5 -176t-197.5 -149.5t-231.5 -112.5t-257 -65zM416 221q104 0 194 62.5t168 160.5q6 31 10.5 65t4.5 69q0 57 -19.5 120.5t-56.5 115.5t-89.5 86t-115.5 34q-59 0 -118.5 -31t-106.5 -85t-77 -130t-30 -168q0 -80 22.5 -136t57.5 -92 t76 -53.5t80 -17.5z" />
<glyph unicode=":" horiz-adv-x="436" d="M252 627q-47 0 -73.5 31.5t-26.5 70.5t27.5 68.5t74.5 29.5t75.5 -29.5t26.5 -68.5q-2 -41 -29.5 -71.5t-74.5 -30.5zM166 -29q-47 0 -75 32t-25 71q2 39 28.5 68.5t73.5 29.5t75.5 -29.5t26.5 -68.5q-2 -41 -29.5 -72t-74.5 -31z" />
<glyph unicode=";" horiz-adv-x="436" d="M252 627q-47 0 -73.5 31.5t-26.5 70.5t27.5 68.5t74.5 29.5t75.5 -29.5t26.5 -68.5q-2 -41 -29.5 -71.5t-74.5 -30.5zM-41 -309q84 59 137.5 123.5t65.5 152.5q6 39 -11.5 66.5t-39 44t-41 26t-19.5 11.5q4 35 28.5 64.5t78.5 29.5q72 0 109.5 -50t27.5 -122 q-8 -59 -38 -114.5t-73 -102.5t-95 -88t-103 -74z" />
<glyph unicode="&#x3c;" horiz-adv-x="983" d="M66 461v41l808 381l23 -80l-668 -311v-19l668 -313l-23 -80z" />
<glyph unicode="=" horiz-adv-x="983" d="M78 614l-6 88h839l-6 -88h-827zM72 260l6 88h827l6 -88h-839z" />
<glyph unicode="&#x3e;" horiz-adv-x="983" d="M109 80l-23 80l668 313v19l-668 311l23 80l809 -381v-41z" />
<glyph unicode="?" horiz-adv-x="641" d="M246 371q-18 18 -40 40.5t-39 49t-29.5 58.5t-12.5 69q0 55 22.5 95t58.5 69.5t82 51t93 38.5q39 14 75 28.5t63.5 33t43 42t15.5 53.5q0 35 -23 69t-63.5 60.5t-100 43t-135.5 16.5q-25 0 -45.5 -1t-32.5 -3q-4 12 -4 30q0 47 36 71t89 24q80 0 142.5 -27t106.5 -70 t67.5 -96t23.5 -108q0 -63 -19.5 -108.5t-51 -77t-75.5 -52t-94 -37.5q-37 -14 -73.5 -28.5t-64.5 -34t-45 -48t-17 -71.5q2 -51 36.5 -99.5t77.5 -84.5zM205 -29q-47 0 -78 31t-29 72q2 37 31 66.5t76 29.5t73.5 -28.5t26.5 -67.5q0 -41 -26.5 -72t-73.5 -31z" />
<glyph unicode="@" horiz-adv-x="1708" d="M817 -258q-160 0 -295 58.5t-233.5 159.5t-152.5 239.5t-54 296.5q0 166 62.5 313t171 258t257 175.5t318.5 64.5q145 0 279.5 -48.5t237.5 -135.5t164.5 -211t61.5 -277q0 -96 -29.5 -195.5t-86 -180.5t-140.5 -133t-190 -52q-41 0 -78 7t-65.5 18.5t-45 22.5t-14.5 21 l111 498h-21q-45 -88 -99 -182t-110.5 -172t-112 -128t-100.5 -50q-41 0 -76.5 17t-64.5 47t-45 71t-16 88q0 61 20.5 136t55 149.5t78.5 143t93 118.5q31 31 74 48t84 17q47 0 84 -17.5t66.5 -45t51 -62.5t36.5 -67h18l66 180h69l-112 -338l-62 -436q12 -8 31 -15 q16 -4 37.5 -8t50.5 -4q88 0 157.5 45t119 115.5t75 159t25.5 176.5q0 143 -56.5 257.5t-151.5 196.5t-220 126t-260 44q-154 0 -287 -60.5t-233.5 -163.5t-158 -237.5t-57.5 -281.5t50.5 -277.5t141.5 -225.5t217 -150.5t277 -55.5q59 0 122 11.5t128 33.5l15 -55 q-72 -23 -137.5 -35t-141.5 -12zM670 174q29 0 70.5 39t91 106.5t104.5 158.5t111 194l14 35q-14 27 -35.5 57.5t-48.5 58t-58.5 46t-64.5 18.5q-70 0 -121 -51q-33 -33 -67.5 -94.5t-63.5 -132t-47 -139.5t-18 -118q0 -51 13 -85t32.5 -54t43.5 -29.5t44 -9.5z" />
<glyph unicode="A" horiz-adv-x="1118" d="M-100 63l139 15q10 0 16 14l512 1131v41l150 41l233 -1211q2 -6 4 -10t13 -6l139 -15l6 -63h-450l6 63l157 13q6 0 11.5 4t3.5 10l-72 379h-459l-166 -373q-8 -14 4 -14l156 -19l6 -63h-415zM754 547l-119 633h-10l-281 -633h410z" />
<glyph unicode="B" horiz-adv-x="1140" d="M43 63l160 17q8 0 12 12l143 1096q2 12 -8 12l-155 17l-7 63h484q80 0 154.5 -16.5t131 -52t91 -91t34.5 -131.5q0 -125 -96 -216t-274 -116v-4q160 -29 241.5 -111.5t81.5 -187.5q0 -74 -26.5 -131t-65.5 -96t-89 -63.5t-108.5 -39t-120 -19.5t-122.5 -5h-467zM559 690 q86 0 162 17.5t132 51.5t89 86t33 124q0 127 -93.5 185t-244.5 58h-166l-70 -524zM512 63q23 0 43 1.5t43 1.5q66 2 126 19t105 52t72 88.5t27 126.5q0 72 -31 124t-84 85t-125 48.5t-153 15.5h-142l-69 -539q16 -2 42.5 -5t54.5 -7l52.5 -7.5t38.5 -3.5z" />
<glyph unicode="C" horiz-adv-x="1228" d="M647 -29q-123 0 -223 37t-172 105.5t-111 168t-39 224.5q0 154 49.5 298t141.5 255.5t226 180.5t306 69q68 0 129.5 -8.5t122.5 -24.5l144 35l-54 -404h-65l-10 275q-66 29 -136.5 45t-138.5 16q-141 0 -252.5 -64.5t-188.5 -169t-117 -234.5t-40 -259q0 -104 27.5 -192 t82 -151.5t136.5 -99.5t192 -36q72 0 137.5 16.5t129.5 42.5l114 269h70l-102 -369l-68 22q-72 -18 -144.5 -32.5t-146.5 -14.5z" />
<glyph unicode="D" horiz-adv-x="1288" d="M43 63l160 17q10 0 12 12l143 1096q2 12 -8 12l-155 17l-7 63h443q131 0 241.5 -38t191.5 -111.5t126 -182t45 -250.5q0 -158 -59.5 -286.5t-164 -220t-245.5 -141.5t-305 -50h-424zM494 66q127 6 239.5 48t197.5 119.5t135 191.5t50 267q0 129 -38 227.5t-105.5 164 t-163.5 99.5t-213 34h-125l-147 -1129z" />
<glyph unicode="E" horiz-adv-x="1155" d="M43 63l160 17q10 0 12 12l143 1096q2 12 -8 12l-155 17l-7 63h942l-45 -346h-63l-8 223q0 18 -10.5 29.5t-53.5 17.5t-133 8t-252 2h-94l-70 -526h131q76 0 119 1t64.5 4t28 8.5t10.5 15.5l61 135h49l-90 -395h-49l6 133q0 8 -3 15t-22.5 10t-62.5 5.5t-121 2.5h-129 l-74 -557h48q184 0 286.5 2t152.5 8t64.5 17t20.5 30l82 219h74l-82 -342h-928z" />
<glyph unicode="F" horiz-adv-x="1069" d="M43 63l160 17q10 0 12 12l143 1096q2 12 -8 12l-155 17l-7 63h932l-45 -346h-63l-8 223q0 18 -10.5 29.5t-53.5 17.5t-133 8t-252 2h-84l-72 -538h121q76 0 119 1t64.5 4t27.5 8t10 16l64 135h49l-92 -396h-49l6 134q0 8 -3 15t-22.5 10t-62.5 5t-121 2h-119l-67 -518 q-2 -12 8 -12l194 -17l6 -63h-495z" />
<glyph unicode="G" horiz-adv-x="1302" d="M655 -29q-123 0 -224 37t-174 105.5t-114 168t-41 224.5q0 168 57.5 325.5t172.5 272.5q94 94 218 149.5t275 55.5q57 0 113.5 -8.5t118.5 -24.5l143 35l-53 -404h-64l-10 275q-59 29 -125.5 45t-130.5 16q-133 0 -243.5 -62.5t-189.5 -165t-122 -233.5t-43 -266 q0 -231 131 -362q53 -53 137 -85t179 -32q66 0 135 14.5t117 30.5l49 383q2 12 -9 12l-180 17l-6 63h473l-6 -63l-160 -17q-10 0 -12 -12l-47 -352l104 -15l6 -49q-109 -33 -230.5 -55.5t-244.5 -22.5z" />
<glyph unicode="H" horiz-adv-x="1447" d="M43 63l160 17q10 0 12 12l143 1096q2 12 -8 12l-155 17l-7 63h457l-6 -63l-160 -17q-10 0 -12 -12l-64 -490h699l63 490q2 12 -8 12l-156 17l-6 63h457l-6 -63l-160 -17q-10 0 -12 -12l-144 -1096q-2 -12 9 -12l155 -17l6 -63h-456l6 63l160 17q10 0 12 12l70 529h-699 l-69 -529q-2 -12 8 -12l155 -17l7 -63h-457z" />
<glyph unicode="I" horiz-adv-x="675" d="M61 63l160 17q10 0 12 12l144 1096q2 12 -8 12l-156 17l-6 63h457l-7 -63l-159 -17q-10 0 -13 -12l-143 -1096q-2 -12 8 -12l156 -17l6 -63h-457z" />
<glyph unicode="J" horiz-adv-x="720" d="M94 -31q-80 0 -124 38t-38 89q4 39 29 58.5t55 17.5q53 -4 79 -44t36 -93h2q109 16 164 113.5t78 275.5l100 764q2 12 -8 12l-172 17l-6 63h473l-6 -63l-160 -17q-10 0 -12 -12l-101 -758q-12 -100 -43.5 -185t-80 -146.5t-115 -95.5t-150.5 -34z" />
<glyph unicode="K" horiz-adv-x="1267" d="M43 63l160 17q10 0 12 12l143 1096q2 12 -8 12l-155 17l-7 63h457l-6 -63l-160 -17q-10 0 -12 -12l-78 -604l662 608l2 4l-2 4l-146 17l-6 63h430l-6 -63l-127 -15q-6 0 -15.5 -6t-13.5 -10l-485 -438l367 -656q4 -4 12 -8t18 -6l105 -15l6 -63h-381l8 63l107 13q4 0 8 6 t0 10l-322 590l-237 -211l-49 -379q-2 -12 8 -12l155 -17l7 -63h-457z" />
<glyph unicode="L" horiz-adv-x="1081" d="M43 63l160 17q10 0 12 12l143 1096q2 12 -8 12l-155 17l-7 63h482l-6 -63l-185 -17q-10 0 -12 -12l-148 -1118h3q184 0 284.5 1t149.5 7t60 16t18 29l98 278h72l-97 -401h-870z" />
<glyph unicode="M" horiz-adv-x="1585" d="M-27 63l187 17q12 0 14 12l184 1096q2 12 -8 12l-178 17l-6 63h371l208 -1065h11l530 1065h340l-6 -63l-170 -17q-10 0 -10 -12l-107 -1096q0 -12 10 -12l156 -17l6 -63h-471l8 63l177 17q10 0 10 12l108 1092h-10l-579 -1143h-60l-237 1145h-11l-184 -1094q-2 -12 6 -12 l178 -17l6 -63h-479z" />
<glyph unicode="N" horiz-adv-x="1359" d="M442 1184h-6l-139 -1092q-2 -12 8 -12l176 -17l6 -63h-477l6 63l187 17q10 0 12 12l141 1082q2 10 -8 12l-158 31l-6 63h322l543 -1118h4l131 1026q2 12 -8 12l-177 17l-6 63h477l-6 -63l-186 -17q-10 0 -12 -12l-158 -1198h-84z" />
<glyph unicode="O" horiz-adv-x="1378" d="M672 -33q-127 0 -230.5 49.5t-179.5 132t-117 193.5t-41 231q0 135 44.5 263.5t127.5 232.5q86 109 208 174.5t272 65.5q125 0 230.5 -49.5t180 -132.5t116.5 -193.5t42 -231.5q0 -147 -52 -285t-151 -245q-86 -92 -199.5 -148.5t-250.5 -56.5zM686 35q129 0 225.5 63.5 t160 161.5t95 217t31.5 232q0 121 -36 228t-111 183q-57 57 -133 89t-175 32q-129 0 -225 -63.5t-159.5 -161.5t-95.5 -217t-32 -232q0 -123 39 -232.5t115 -184.5q115 -115 301 -115z" />
<glyph unicode="P" horiz-adv-x="1062" d="M43 63l160 17q8 0 12 12l143 1096q2 12 -8 12l-155 17l-7 63h424q102 0 188.5 -22.5t148 -67.5t96 -109.5t34.5 -150.5q0 -94 -37.5 -170t-104.5 -130.5t-156 -83t-189 -28.5q-66 0 -117 4t-94 8l-57 -438q-2 -12 8 -12l192 -17l6 -63h-493zM588 584q80 0 147.5 21.5 t116.5 63.5t77.5 105.5t28.5 147.5q0 76 -26.5 132t-73.5 92t-112.5 53.5t-145.5 17.5q-31 0 -64.5 -2.5t-66.5 -6.5l-78 -608q37 -6 87.5 -11t109.5 -5z" />
<glyph unicode="Q" horiz-adv-x="1378" d="M1075 -395q-86 0 -156.5 12t-133 52t-120 114t-116.5 197q-100 23 -182 72.5t-140.5 124.5t-90.5 175.5t-32 220.5q0 135 44.5 263.5t127.5 232.5q86 109 208 174.5t272 65.5q125 0 230.5 -49.5t180 -132.5t116.5 -193.5t42 -231.5q0 -147 -52 -285t-151 -245 q-86 -92 -205.5 -148.5t-240.5 -56.5q41 -98 92 -158.5t120.5 -93t164 -39t221.5 6.5q-2 -2 -1 -12.5t1 -20.5q0 -14 2 -31q-55 -8 -100.5 -11t-100.5 -3zM686 35q129 0 225.5 63.5t160 161.5t95 217t31.5 232q0 121 -36 228t-111 183q-57 57 -133 89t-175 32 q-129 0 -225 -63.5t-159.5 -161.5t-95.5 -217t-32 -232q0 -123 39 -232.5t115 -184.5q115 -115 301 -115z" />
<glyph unicode="R" horiz-adv-x="1148" d="M43 63l160 17q10 0 12 12l143 1096q2 12 -8 12l-155 17l-7 63h494q100 0 175 -24.5t125 -65.5t74.5 -97.5t24.5 -117.5q0 -154 -100 -258.5t-276 -151.5l245 -473q4 -10 17 -12l127 -17l6 -63h-234l-63 141l-203 418l-215 4l-61 -471q-2 -12 8 -12l155 -17l7 -63h-457z M641 614q68 12 127 41t102 72t68 99.5t25 123.5q0 59 -24 110.5t-70 87.5t-114.5 54.5t-158.5 14.5l-127 -9l-76 -567z" />
<glyph unicode="S" horiz-adv-x="970" d="M393 -31q-86 0 -174 10.5t-172 32.5l12 355h68l37 -287q51 -23 120.5 -33t125.5 -10q63 0 126.5 13t113.5 45t82 83t32 125q0 61 -24.5 106.5t-64.5 82t-91.5 66.5t-106.5 58q-57 31 -112.5 65t-99.5 77t-70.5 97t-26.5 128q0 92 41 154.5t106.5 100.5t145.5 54.5 t157 16.5q57 0 115 -4.5t113 -16.5l112 31l-51 -391h-69l-9 260q-45 29 -111.5 42t-119.5 13q-57 0 -115.5 -11t-105.5 -39t-77 -73t-30 -112q0 -61 24.5 -108.5t64.5 -84.5t91.5 -66.5t106.5 -60.5t109.5 -63.5t96.5 -74.5t68.5 -94.5t26.5 -121.5q0 -100 -40 -170 t-105.5 -113t-148.5 -62.5t-171 -19.5z" />
<glyph unicode="T" horiz-adv-x="1226" d="M315 63l181 17q10 0 12 12l147 1122h-39q-125 0 -192.5 -2t-99 -8t-40 -17t-14.5 -30l-86 -250h-73l86 373h1056l-49 -377h-61l-4 254q0 18 -5.5 29.5t-37 17.5t-100 8t-193.5 2h-39l-148 -1122q-2 -12 9 -12l176 -17l6 -63h-498z" />
<glyph unicode="U" horiz-adv-x="1445" d="M668 -31q-98 0 -180 24.5t-141.5 73t-92.5 119t-33 164.5q0 39 4 84t11 88l88 666q2 12 -9 12l-155 17l-6 63h456l-6 -63l-160 -17q-10 0 -12 -12l-92 -707q-4 -23 -7 -51.5t-3 -58.5q0 -154 93 -239t269 -85q76 0 143.5 22.5t121 68.5t89 116t48.5 164l100 770 q2 12 -8 12l-176 17l-6 63h477l-6 -63l-187 -17q-10 0 -12 -12l-102 -778q-14 -111 -58.5 -194t-110 -137t-151.5 -82t-186 -28z" />
<glyph unicode="V" horiz-adv-x="1146" d="M238 1186q-2 6 -4.5 10t-12.5 6l-139 15l-6 63h446l-6 -63l-158 -13q-6 0 -11 -4t-3 -10l201 -1090h4l481 1084q6 14 -4 14l-156 19l-6 63h424l-6 -63l-139 -15q-10 0 -17 -14l-544 -1196h-113z" />
<glyph unicode="W" horiz-adv-x="1722" d="M201 1186q-4 14 -15 16l-137 15l-6 63h444l-6 -63l-155 -13q-6 0 -12.5 -4t-4.5 -10l168 -1088h6l410 973l-16 111q-2 6 -4.5 10t-12.5 6l-141 15l-6 63h444l-6 -63l-160 -13q-6 0 -11 -4t-3 -10l149 -1088h2l494 1082q6 14 -4 14l-156 19l-6 63h426l-6 -63l-139 -15 q-8 0 -17 -14l-557 -1196h-106l-135 928h-4l-400 -928h-115z" />
<glyph unicode="X" horiz-adv-x="1239" d="M-49 63l137 15q8 2 13 4t12 10l475 561l-301 533q-8 14 -23 16l-125 15l-6 63h436l-6 -63l-149 -13q-8 0 -11.5 -7t0.5 -11l254 -463h5l376 465q4 4 2 9t-6 5l-149 15l-6 63h434l-6 -63l-136 -15q-8 -2 -13 -4t-11 -10l-442 -522l329 -572q8 -14 23 -16l127 -15l6 -63 h-442l6 63l147 13q8 0 11 7t-1 11l-276 504h-4l-408 -502q-4 -4 -2 -9t6 -5l146 -19l6 -63h-434z" />
<glyph unicode="Y" horiz-adv-x="1204" d="M315 63l183 17q8 0 10 12l59 451l-321 643q-8 14 -23 16l-125 15l-6 63h430l-6 -63l-147 -13q-18 0 -11 -18l275 -574h4l424 576q4 4 2 9t-6 5l-146 15l-6 63h420l-6 -63l-137 -15q-16 -4 -25 -14l-479 -641l-62 -455q-2 -12 11 -12l174 -17l6 -63h-498z" />
<glyph unicode="Z" horiz-adv-x="1032" d="M-16 57l983 1153v4h-224q-162 0 -253 -2t-136 -8t-57 -17t-18 -30l-66 -223h-70l45 346h922l-8 -61l-975 -1149l-2 -4h178q184 0 287.5 2t155 8t65.5 17t20 30l91 254h75l-92 -377h-928z" />
<glyph unicode="[" horiz-adv-x="753" d="M201 1331h504v-74h-416v-1624h416v-73h-504v1771z" />
<glyph unicode="\" horiz-adv-x="571" d="M27 1352h82l436 -1780h-82z" />
<glyph unicode="]" horiz-adv-x="753" d="M49 -367h416v1624h-416v74h504v-1771h-504v73z" />
<glyph unicode="^" horiz-adv-x="819" d="M449 1397h167l148 -363h-39l-98 144q-18 27 -36 53t-32 47q-16 23 -31 45h-4l-274 -289h-47z" />
<glyph unicode="_" horiz-adv-x="962" d="M-66 -8h971l6 -92h-983z" />
<glyph unicode="`" horiz-adv-x="817" d="M270 1397h164l158 -363h-47z" />
<glyph unicode="a" horiz-adv-x="964" d="M219 -33q-45 0 -76.5 24.5t-52 65.5t-30 93.5t-9.5 107.5q0 68 16.5 148.5t47 159.5t71.5 149.5t90 120.5q41 41 100.5 73.5t104.5 32.5t82 -22.5t64.5 -53t47 -62.5t32.5 -50h18l45 186h82l-96 -410l-109 -467l66 -14l166 166l32 -37q-16 -25 -45.5 -61.5t-62.5 -69.5 t-64.5 -56.5t-56.5 -23.5q-16 0 -37.5 7.5t-42 17.5t-35 22.5t-14.5 22.5q0 8 9 48t26.5 101.5t40 140.5t49.5 165h-21q-16 -25 -45.5 -73t-66.5 -106.5t-79 -120t-85 -111.5t-85 -82t-77 -32zM242 49q33 0 79 47t102 125t121.5 180.5t137.5 212.5l18 64q-20 25 -49.5 55.5 t-64.5 58t-73 46t-73 18.5q-29 0 -56.5 -15.5t-53.5 -41.5q-37 -37 -70 -100.5t-56.5 -137.5t-37.5 -147.5t-14 -130.5q0 -111 22.5 -172.5t67.5 -61.5z" />
<glyph unicode="b" horiz-adv-x="909" d="M379 -33q-51 0 -103.5 17.5t-93.5 42t-66.5 51t-21.5 43.5l260 1167q6 27 -20 31l-170 14l6 51l313 43l-114 -479l-150 -575h21q16 31 46.5 86t68.5 118.5t81 128t86 116.5t84 86t74 34q45 0 78 -24.5t54.5 -64.5t31.5 -89t10 -98q0 -68 -17.5 -150t-48 -163 t-71.5 -152.5t-86 -116.5q-117 -117 -252 -117zM410 27q37 0 77.5 22.5t79.5 61.5q37 37 71 101t59.5 139t41 152t15.5 140q0 82 -29 145.5t-82 69.5q-25 0 -66.5 -48t-98 -133t-125 -200t-144.5 -248l-23 -92q18 -18 45 -37.5t57.5 -36t61.5 -26.5t60 -10z" />
<glyph unicode="c" horiz-adv-x="718" d="M322 -33q-55 0 -102.5 23.5t-82.5 65.5t-54.5 100.5t-19.5 126.5q0 135 40 253.5t105.5 209t148.5 142.5t169 52q37 0 74 -7t67.5 -22.5t50 -40t19.5 -59.5q0 -39 -20.5 -63.5t-59.5 -24.5q-29 0 -47 15.5t-18 43.5q0 20 14 45q-10 14 -58 36t-102 22q-12 0 -39.5 -18.5 t-48.5 -39.5q-33 -33 -66.5 -89t-62 -125.5t-47 -147.5t-18.5 -154q0 -72 18.5 -123t47 -83.5t62.5 -47t66 -14.5q23 0 54.5 14.5t66.5 38t69 51t62 56.5l33 -37q-31 -35 -72 -70t-85 -63.5t-86.5 -47t-77.5 -18.5z" />
<glyph unicode="d" horiz-adv-x="964" d="M219 -33q-45 0 -76.5 24.5t-52 65.5t-30 93.5t-9.5 107.5q0 68 16.5 148.5t47 159.5t71.5 149.5t90 120.5q41 41 100.5 73.5t104.5 32.5t82 -22.5t64.5 -53t47 -62.5t32.5 -50h18l115 534q6 27 -21 31l-170 14l6 51l314 43l-213 -897l-109 -467l66 -14l166 166l32 -37 q-16 -25 -45.5 -61.5t-62.5 -69.5t-64.5 -56.5t-56.5 -23.5q-16 0 -37.5 7.5t-42 17.5t-35 22.5t-14.5 22.5q0 8 9 48t26.5 101.5t40 140.5t49.5 165h-21q-16 -25 -45.5 -73t-66.5 -106.5t-79 -120t-85 -111.5t-85 -82t-77 -32zM242 49q33 0 79 47t102 125t121.5 180.5 t137.5 212.5l18 64q-20 25 -49.5 55.5t-64.5 58t-73 46t-73 18.5q-29 0 -56.5 -15.5t-53.5 -41.5q-37 -37 -70 -100.5t-56.5 -137.5t-37.5 -147.5t-14 -130.5q0 -111 22.5 -172.5t67.5 -61.5z" />
<glyph unicode="e" horiz-adv-x="702" d="M322 -33q-55 0 -102.5 23.5t-82.5 65.5t-54.5 100.5t-19.5 126.5q0 135 41 253.5t105.5 209t146.5 142.5t164 52q49 0 87 -15.5t63.5 -39t40 -52t14.5 -53.5q0 -43 -19.5 -77.5t-79 -78.5t-169 -108.5t-291.5 -165.5q-2 -16 -2 -19v-20q0 -72 18.5 -123t47 -83.5 t62.5 -47t66 -14.5q23 0 54.5 14.5t66.5 38t69 51t62 56.5l33 -37q-31 -35 -72 -70t-85 -63.5t-86.5 -47t-77.5 -18.5zM176 410q129 72 214 122t135 88.5t70.5 71.5t20.5 72q0 51 -34.5 86t-85.5 35q-43 0 -82 -24.5t-68 -53.5q-23 -23 -47.5 -61.5t-49 -91t-45 -114 t-32.5 -126.5l2 -2q0 -2 1 -3t1 1z" />
<glyph unicode="f" horiz-adv-x="559" d="M-127 -504q-49 0 -82 31t-33 67q0 33 20.5 54.5t49.5 21.5q39 0 62.5 -28.5t27.5 -73.5l141 102q23 49 43.5 149.5t38.5 215.5l129 805l-178 6l4 55l189 29q49 272 155 385q41 45 101.5 70.5t111.5 25.5q57 0 95 -28.5t38 -69.5q0 -35 -18 -58.5t-47 -23.5 q-39 0 -61.5 27.5t-26.5 74.5l-166 -57q-35 -63 -61.5 -157.5t-43.5 -200.5h269l6 -76h-285l-131 -785q-29 -178 -64.5 -292.5t-101.5 -180.5q-88 -88 -182 -88z" />
<glyph unicode="g" horiz-adv-x="837" d="M256 -504q-68 0 -133.5 17.5t-116.5 50.5t-81.5 81t-30.5 109q0 43 21.5 82t56 72t78.5 58.5t89 41.5v8q-39 23 -62.5 58t-23.5 78q0 31 13.5 55t35 43.5t49 35t54.5 27.5v6q-41 35 -71 91.5t-30 140.5q0 72 29 141.5t81 124.5t123 89t157 34q63 0 118.5 -11t102.5 -26 h217l-35 -96l-279 45v-12q49 -47 81 -96.5t32 -118.5q0 -72 -31.5 -137.5t-82 -117t-113 -81t-123.5 -29.5q-35 0 -72 8t-65 25q-109 -45 -109 -119q0 -49 44 -81t149 -64l118 -37q129 -41 199 -95.5t70 -136.5q0 -55 -34 -104t-94.5 -84t-145.5 -55.5t-185 -20.5zM352 313 q49 0 97.5 18.5t87.5 57.5q53 53 80.5 130t27.5 161q0 39 -24.5 75t-60.5 61.5t-76 40.5t-70 15q-55 0 -115 -59q-41 -41 -70.5 -112.5t-29.5 -145.5q0 -61 15 -112.5t56 -92.5q10 -10 32.5 -23.5t49.5 -13.5zM303 -438q70 0 129.5 14t102.5 39t66.5 56.5t23.5 66.5 q0 61 -46.5 97t-121.5 65q-55 20 -123 39.5t-139 46.5q-37 -16 -75 -38t-69 -48.5t-50 -60.5t-19 -72q0 -49 23.5 -87t66.5 -64t102 -40t129 -14z" />
<glyph unicode="h" horiz-adv-x="993" d="M698 -33q-16 0 -36.5 7.5t-39 17.5t-31.5 22.5t-13 22.5q0 23 10 64.5t26.5 97t36 121t39.5 135.5q35 119 59.5 203.5t24.5 109.5q0 39 -36 67.5t-72 28.5q-23 0 -73 -63.5t-114.5 -164.5t-135.5 -225t-136 -247l-27 -172l-108 10l63 301l219 985q6 27 -20 31l-170 14 l6 51l313 43l-114 -479l-148 -624h21q43 86 94 173t100 162.5t90 133t64 86.5q12 16 37.5 38.5t60.5 22.5q33 0 64.5 -11t57.5 -31.5t41 -48.5t15 -58q0 -16 -8 -54.5t-22.5 -88.5t-31 -106.5t-30.5 -107.5l-110 -371l65 -14l166 166l33 -37q-16 -25 -46 -61.5t-63 -69.5 t-64.5 -56.5t-56.5 -23.5z" />
<glyph unicode="i" horiz-adv-x="532" d="M461 1149q-41 0 -62.5 24.5t-21.5 61.5q0 47 26.5 79t59.5 32q41 0 62.5 -25t21.5 -61q0 -47 -25.5 -79t-60.5 -32zM238 -33q-16 0 -38 7.5t-41.5 17.5t-32.5 22.5t-11 22.5l223 807l-66 14l-166 -166l-32 37q16 25 46 61.5t62.5 69.5t64.5 56.5t56 23.5q14 0 38 -7 t45.5 -17.5t35.5 -22.5t12 -23l-231 -807l65 -14l166 166l33 -37q-16 -25 -46 -61.5t-62.5 -69.5t-64 -56.5t-56.5 -23.5z" />
<glyph unicode="j" horiz-adv-x="458" d="M428 1149q-41 0 -62.5 24.5t-21.5 61.5q0 47 26.5 79t59.5 32q41 0 62.5 -25t21.5 -61q0 -47 -25.5 -79t-60.5 -32zM-143 -535q-47 0 -80 26t-35 60q-2 33 19.5 57.5t60.5 24.5t58.5 -20.5t27.5 -48.5l67 12q35 51 72 147.5t62 206.5l208 914l-65 14l-166 -166l-33 37 q16 25 46 61.5t63 69.5t64.5 56.5t56.5 23.5q14 0 37.5 -7t45 -17.5t36 -22.5t12.5 -23l-224 -927q-72 -299 -180 -408q-67 -70 -153 -70z" />
<glyph unicode="k" horiz-adv-x="858" d="M590 -33q-12 0 -30.5 7.5t-36 17.5t-32 22.5t-16.5 22.5l-137 446l-92 -47l-86 -446l-103 10l78 299l219 989q6 27 -20 31l-170 14l6 51l313 43l-114 -479l-119 -454h8l385 229l59 53q-63 33 -63 86q0 35 25.5 56.5t60.5 21.5q41 0 64.5 -29.5t23.5 -66.5 q0 -57 -42 -105.5t-155 -107.5l-204 -109l153 -479h41l160 176l33 -37q-16 -25 -42 -61.5t-55.5 -70.5t-58 -58.5t-53.5 -24.5z" />
<glyph unicode="l" horiz-adv-x="479" d="M184 -33q-16 0 -37.5 7.5t-41 17.5t-32 22.5t-10.5 22.5l310 1251q6 27 -21 31l-170 14l6 51l306 43l-353 -1364l66 -14l174 166l33 -37q-16 -25 -46 -61.5t-63 -69.5t-64.5 -56.5t-56.5 -23.5z" />
<glyph unicode="m" horiz-adv-x="1554" d="M1260 -33q-16 0 -37 7.5t-39.5 17.5t-31.5 22.5t-13 22.5q0 12 10 53t26.5 99.5t36 127t39.5 138.5q35 119 61.5 202.5t26.5 108.5q0 39 -35.5 68.5t-72.5 29.5q-23 0 -74 -63.5t-115.5 -164.5t-136 -225t-137.5 -247l-37 -172l-108 10l122 453q12 47 26.5 97t27 93 t19.5 76t7 45q0 39 -35.5 68.5t-72.5 29.5q-23 0 -72 -63.5t-110.5 -164.5t-131 -225t-135.5 -247l-26 -172l-109 10l64 301l129 541l-66 14l-174 -166l-33 37q16 25 46 61.5t63 69.5t64.5 56.5t56.5 23.5q14 0 36.5 -7t43 -17.5t35 -22.5t14.5 -23q0 -16 -35 -157.5 t-94 -388.5h20q43 86 93 173t96.5 162.5t86 133t62.5 86.5q12 16 38 38.5t60 22.5q33 0 64 -11t55.5 -31.5t39.5 -48.5t15 -58q0 -33 -36.5 -159t-94.5 -308h21q43 86 95 173t101.5 162.5t91.5 133t64 86.5q12 16 38 38.5t60 22.5q33 0 64 -11t55.5 -31.5t39.5 -48.5t15 -58 q0 -16 -8 -54.5t-22.5 -88.5t-30.5 -106.5t-31 -107.5q-16 -59 -35.5 -123.5t-35.5 -120.5q-20 -66 -39 -127l65 -14l166 166l33 -37q-16 -25 -46 -61.5t-62.5 -69.5t-64 -56.5t-56.5 -23.5z" />
<glyph unicode="n" horiz-adv-x="1054" d="M760 -33q-16 0 -37 7.5t-39 17.5t-31.5 22.5t-13.5 22.5q0 23 10 64.5t26.5 97t36 121t40.5 135.5q35 119 59.5 203.5t24.5 109.5q0 39 -36 67.5t-73 28.5q-23 0 -73 -63.5t-114.5 -164.5t-135 -225t-136.5 -247l-26 -172l-109 10l64 301l120 541l-65 14l-166 -166 l-33 37q16 25 46 61.5t63 69.5t64.5 56.5t56.5 23.5q14 0 36.5 -7t43 -17.5t35 -22.5t14.5 -23q0 -16 -35 -157.5t-94 -388.5h20q45 86 96.5 173t99.5 162.5t89 133t63 86.5q12 16 38 38.5t61 22.5q33 0 64.5 -11t57 -31.5t41 -48.5t15.5 -58q0 -16 -8.5 -54.5t-22.5 -88.5 t-30.5 -106.5t-30.5 -107.5l-111 -371l66 -14l165 166l33 -37q-16 -25 -46 -61.5t-62.5 -69.5t-64 -56.5t-56.5 -23.5z" />
<glyph unicode="o" horiz-adv-x="878" d="M356 -33q-78 0 -132 35t-88 89t-50 122t-16 133q0 92 30.5 195.5t88 192.5t141.5 147.5t188 58.5q76 0 131.5 -35t89 -90t50 -122.5t16.5 -133.5q0 -92 -31 -195.5t-88 -191.5t-141.5 -146.5t-188.5 -58.5zM373 27q57 0 104 30.5t84 79.5t64.5 111.5t46.5 126.5 q16 57 24.5 110.5t8.5 94.5q0 55 -10.5 109t-34 97t-62.5 69t-96 26q-55 0 -102.5 -31t-85.5 -80t-65.5 -111.5t-45.5 -126.5q-16 -59 -24.5 -112t-8.5 -94q0 -55 10 -109.5t34 -96.5t63 -67.5t96 -25.5z" />
<glyph unicode="p" horiz-adv-x="970" d="M-141 -440l164 14q4 -4 8 1t6 11l280 1258l-65 14l-166 -166l-33 37q16 25 46 61.5t63 69.5t64.5 56.5t56.5 23.5q14 0 36.5 -7t43 -17.5t35 -22.5t14.5 -23q0 -8 -14.5 -62t-35 -130t-44 -159t-39.5 -146h22q16 31 47 86t69 118.5t81 128t86 116.5t84 86t73 34 q45 0 78 -24.5t54.5 -64.5t31.5 -89t10 -98q0 -68 -17 -150t-48 -163t-72 -152.5t-86 -116.5q-117 -117 -252 -117q-61 0 -114.5 19.5t-94.5 46.5h-6l-92 -447q0 -4 1 -10t5 -2l187 -14l4 -64h-475zM471 27q37 0 78 22.5t80 61.5q37 37 70.5 101t59 139t41 152t15.5 140 q0 82 -28.5 145.5t-81.5 69.5q-25 0 -67 -48t-98.5 -133t-125 -200t-144.5 -248l-22 -92q18 -18 44.5 -37.5t57.5 -36t61.5 -26.5t59.5 -10z" />
<glyph unicode="q" horiz-adv-x="888" d="M254 -440l184 14q4 -4 8.5 1t6.5 11l102 451q14 68 35 141q16 63 38.5 144t49.5 170h-21q-16 -25 -45.5 -73t-66.5 -106.5t-79 -120t-85 -111.5t-85 -82t-77 -32q-45 0 -76.5 24.5t-52 65.5t-30 93.5t-9.5 107.5q0 68 16.5 148.5t47 159.5t71.5 149.5t90 120.5 q41 41 100.5 73.5t104.5 32.5t82 -22.5t64.5 -53t47 -62.5t32.5 -50h18l37 161l82 -10l-88 -375l-209 -944q0 -12 6 -12l166 -14l4 -64h-473zM242 49q33 0 79 47t102 125t121.5 180.5t137.5 212.5l18 64q-20 25 -49.5 55.5t-64.5 58t-73 46t-73 18.5q-29 0 -56.5 -15.5 t-53.5 -41.5q-37 -37 -70 -100.5t-56.5 -137.5t-37.5 -147.5t-14 -130.5q0 -111 22.5 -172.5t67.5 -61.5z" />
<glyph unicode="r" horiz-adv-x="804" d="M133 2l64 299l120 543l-65 14l-166 -166l-33 37q16 25 46 61.5t63 69.5t64.5 56.5t56.5 23.5q14 0 36.5 -7t43 -17.5t35 -22.5t14.5 -23q0 -16 -35 -157.5t-94 -388.5h20l174 323q47 88 79 144.5t58.5 89t54 46t66.5 13.5q53 0 87 -42t34 -85q0 -37 -20.5 -62.5 t-59.5 -25.5q-14 0 -29.5 6t-24.5 19.5t-10 33t13 45.5l-55 21l-398 -666l-30 -192z" />
<glyph unicode="s" horiz-adv-x="661" d="M227 -33q-102 0 -163.5 36t-61.5 95q0 37 21.5 61.5t58.5 24.5q29 0 49.5 -20.5t20.5 -48.5q0 -10 -2.5 -25.5t-4.5 -19.5q41 -18 90.5 -26.5t108.5 -12.5q66 29 95.5 74t29.5 106q0 59 -46 108.5t-124 116.5q-35 29 -66.5 59.5t-58.5 62.5t-42 66.5t-15 71.5 q0 57 27.5 103.5t71.5 77t101.5 47t116.5 16.5q33 0 72 -6t71.5 -20.5t54 -39t21.5 -63.5t-20.5 -63.5t-59.5 -24.5q-29 0 -47 20.5t-18 49.5q0 12 1 26.5t3 24.5q-47 16 -91 24.5t-91 10.5q-68 -20 -97.5 -62.5t-29.5 -103.5q0 -29 8 -52.5t27.5 -48t52.5 -53.5t82 -72 q70 -59 126 -124.5t56 -139.5q0 -51 -23.5 -97t-66.5 -82t-103.5 -56.5t-134.5 -20.5z" />
<glyph unicode="t" horiz-adv-x="569" d="M223 -33q-16 0 -36.5 7.5t-39 17.5t-31 22.5t-10.5 22.5l160 803l-174 6l4 55l191 29l51 266h82l-55 -278h241l6 -76h-264l-160 -779l66 -14l170 166l33 -37q-18 -25 -48 -61.5t-63 -69.5t-65.5 -56.5t-57.5 -23.5z" />
<glyph unicode="u" horiz-adv-x="1054" d="M283 -33q-66 0 -111 43t-45 107q0 16 8 54t22.5 88t30 106.5t31.5 107.5l111 371l-66 14l-166 -166l-32 37q16 25 45.5 61.5t62.5 69.5t64.5 56.5t56.5 23.5q14 0 35.5 -7t40 -17.5t32 -22.5t13.5 -23q0 -23 -10.5 -64.5t-27 -97t-35.5 -121t-40 -134.5 q-35 -119 -59.5 -203t-24.5 -109q0 -39 36 -68.5t73 -29.5q23 0 73 63.5t114.5 165t135 225.5t135.5 246l37 172l109 -10l-74 -301l-121 -541l66 -14l166 166l32 -37q-16 -25 -45.5 -61.5t-62.5 -69.5t-64.5 -56.5t-56.5 -23.5q-16 0 -37.5 7.5t-42 17.5t-35 22.5 t-14.5 22.5q0 16 35 157.5t94 389.5h-20q-43 -86 -94.5 -173t-100.5 -163t-90 -134.5t-64 -84.5q-12 -16 -42.5 -39t-77.5 -23z" />
<glyph unicode="v" horiz-adv-x="854" d="M264 829l-61 13l-160 -162l-35 35q14 27 42 64.5t59.5 73.5t62.5 61.5t55 25.5q14 0 36 -10t42.5 -23.5t33.5 -29t13 -27.5l6 -774h11l245 399q63 102 97 178t32 117q-2 49 -33.5 69.5t-72.5 28.5q16 29 34.5 50.5t63.5 21.5t78 -33t35 -86q2 -29 -10.5 -66.5t-41 -94 t-76.5 -134t-118 -182.5l-242 -362l-81 -13z" />
<glyph unicode="w" horiz-adv-x="1343" d="M264 829l-61 13l-160 -162l-35 35q14 27 42 64.5t59.5 73.5t62.5 61.5t55 25.5q14 0 36 -10t42.5 -23.5t33.5 -29t13 -27.5l4 -774h11l364 725l-4 114l98 -8l33 -831h14l218 399q57 102 84.5 177t25.5 116q-2 49 -33.5 69.5t-72.5 28.5q16 29 34.5 50.5t63.5 21.5 t76.5 -30.5t36.5 -84.5q2 -29 -7.5 -66.5t-36 -95t-70.5 -135t-108 -182.5l-217 -362l-86 -13l-37 717h-6l-370 -704l-86 -13z" />
<glyph unicode="x" horiz-adv-x="942" d="M666 -37q-10 0 -26.5 7t-32 17.5t-29 23t-15.5 22.5l-104 387h-6q-66 -129 -117 -217t-92 -140.5t-77 -75t-71 -22.5q-53 0 -89 26.5t-36 67.5q0 45 22.5 72t55.5 27q39 0 56.5 -29t13.5 -70h55l256 412l-121 381h-49l-139 -162l-33 37q18 25 44 61.5t53.5 69.5t54 56.5 t51.5 23.5q12 0 28.5 -6t32 -16.5t26.5 -22.5t15 -25l103 -374h4q66 127 112.5 213t84.5 138t71 73.5t70 21.5q55 0 86.5 -28.5t33.5 -69.5q2 -43 -21.5 -71t-55.5 -28q-80 0 -70 88h-55l-234 -378l125 -404h49l140 162l30 -37q-18 -25 -42.5 -61.5t-52.5 -69.5t-54 -56.5 t-51 -23.5z" />
<glyph unicode="y" horiz-adv-x="878" d="M-84 -524q-61 0 -108.5 31.5t-47.5 82.5q0 37 21.5 60.5t54.5 23.5q37 0 61.5 -30.5t14.5 -75.5l106 -23q4 2 19.5 21.5t36 50.5t46 70t52.5 80q61 94 137 213l-37 10l-8 839l-61 13l-160 -162l-35 35q14 27 42 64.5t59.5 73.5t62.5 61.5t55 25.5q14 0 36 -10t42.5 -23.5 t33.5 -29t13 -27.5v-774h17l370 620l25 68q-31 4 -62.5 24.5t-31.5 65.5q0 35 24.5 60.5t59.5 25.5q47 0 76.5 -29.5t29.5 -76.5q0 -53 -26.5 -106.5t-73.5 -127.5l-311 -491l-117 -179q-68 -135 -120 -223t-98 -139t-92.5 -71.5t-105.5 -20.5z" />
<glyph unicode="z" horiz-adv-x="759" d="M47 -33q-90 18 -90 74q0 47 35 92t80 74l530 506q-53 27 -107.5 56.5t-104.5 54t-90 44t-60 27.5l-37 -53q37 -53 37 -82t-19.5 -47.5t-48.5 -18.5q-37 0 -56.5 20.5t-19.5 47.5q0 31 15.5 61.5t43 56t65.5 42t81 18.5q59 0 111.5 -22.5t95.5 -55.5t72.5 -66.5 t46.5 -58.5l14 4l70 199q45 -8 66.5 -21.5t21.5 -41.5q0 -41 -35 -85t-78 -73l-526 -496q152 -86 243 -143t134 -70l45 60q-29 29 -40.5 50t-11.5 38q0 25 20.5 43t55.5 18q33 0 50.5 -19.5t17.5 -47.5q0 -31 -14.5 -62t-39 -56.5t-58.5 -44t-75 -22.5q-53 0 -110.5 26.5 t-106.5 63.5t-87 76t-52 66l-12 -9l-72 -223v0z" />
<glyph unicode="{" horiz-adv-x="667" d="M610 -467q-182 10 -272 88t-90 213q0 66 18.5 116t42 94t42 88t18.5 97q0 45 -23.5 75t-61.5 49.5t-87.5 28.5t-98.5 13l-20 51l20 50q49 2 98.5 11t87.5 28.5t61.5 50t23.5 76.5q0 51 -18.5 96t-42 90t-42 95t-18.5 116q0 135 90 212t272 89v-55q-123 -12 -187.5 -69.5 t-64.5 -129.5q0 -53 18.5 -97t42 -89.5t42 -96.5t18.5 -116q0 -51 -24.5 -95.5t-63.5 -77t-85 -54t-89 -25.5v-21q43 -6 89 -27.5t85 -54.5t63.5 -76t24.5 -94q0 -66 -18.5 -115t-42 -94t-42 -89t-18.5 -95q0 -72 64.5 -132t187.5 -73v-51v0z" />
<glyph unicode="|" horiz-adv-x="569" d="M244 1403h82v-1780h-82v1780z" />
<glyph unicode="}" horiz-adv-x="667" d="M57 -416q123 12 187.5 72.5t64.5 132.5q0 51 -18.5 95t-42 89t-42 94.5t-18.5 114.5q0 51 25 94t63.5 76t85 54.5t89.5 27.5v21q-43 4 -89.5 25.5t-85 54t-63.5 76.5t-25 96q0 66 18.5 116.5t42 96t42 89.5t18.5 97q0 72 -64.5 129t-187.5 70v55q182 -12 272.5 -89 t90.5 -212q0 -66 -18.5 -116t-42 -95t-42 -90t-18.5 -96q0 -45 23.5 -76t61.5 -50.5t87 -28.5t98 -11l21 -50l-21 -51q-49 -4 -98 -13t-87 -28.5t-61.5 -49.5t-23.5 -75q0 -53 18.5 -97t42 -88t42 -94t18.5 -116q0 -135 -90 -213t-273 -88v51z" />
<glyph unicode="~" horiz-adv-x="819" d="M530 340q-41 0 -77.5 22.5t-68.5 50t-60.5 50t-53.5 22.5q-20 0 -37.5 -5t-34 -19.5t-34 -41t-37.5 -69.5h-55q66 213 207 213q41 0 77.5 -22.5t69.5 -50t61.5 -50t51.5 -22.5q20 0 36.5 5t34 19.5t33.5 41t37 69.5h57q-66 -213 -207 -213z" />
<glyph unicode="&#xa1;" horiz-adv-x="561" d="M379 1110q-47 0 -76 29.5t-29 66.5q0 41 29 72t76 31t73.5 -31t28.5 -72q2 -39 -26.5 -67.5t-75.5 -28.5zM172 -29q-23 0 -26 15.5t1 31.5l166 850q2 6 9.5 9.5t14.5 3.5t13 -3.5t6 -9.5l-57 -850q-2 -16 -8 -31.5t-29 -15.5h-90z" />
<glyph unicode="&#xa2;" horiz-adv-x="712" d="M276 -29q-92 18 -152.5 103.5t-60.5 208.5q0 135 40 253.5t105.5 209t148.5 142.5t169 52q12 0 19 -2l100 365h64l-103 -371q53 -10 92 -40t39 -81q0 -39 -18.5 -61.5t-56.5 -22.5q-29 0 -44.5 14.5t-23.5 35t-9 44t1 41.5l-228 -819q23 0 54.5 14.5t66.5 38t69 51 t62 56.5l33 -37q-29 -33 -66.5 -65.5t-79.5 -60.5t-83 -47.5t-76 -23.5l-84 -307h-64zM526 870q-18 6 -38.5 10.5t-41.5 4.5q-12 0 -39.5 -18.5t-48.5 -39.5q-33 -33 -66.5 -89t-62 -125.5t-47 -147.5t-18.5 -154q0 -113 41 -174t94 -82z" />
<glyph unicode="&#xa3;" horiz-adv-x="874" d="M88 535l6 71h182l23 271q8 90 40 165.5t84 131t122.5 85t156.5 29.5q45 0 86 -10t73 -28.5t50.5 -45t18.5 -57.5q0 -33 -19.5 -59.5t-60.5 -26.5q-20 0 -38.5 10t-30 27.5t-13.5 41t10 48.5q-23 16 -52.5 27.5t-68.5 11.5q-92 0 -160.5 -78t-88.5 -260q-6 -63 -11.5 -135 t-11.5 -148h346l2 -71h-354q-4 -41 -9 -82t-14 -80q-14 -76 -37.5 -136.5t-56.5 -99.5v-6q27 -10 68 -25.5t89 -30t98 -24.5t95 -10q41 0 63.5 9t37.5 24q25 25 44 59.5t36 77.5l38 -16q-8 -49 -24 -93.5t-45 -78t-71 -53t-101 -19.5q-55 0 -112.5 20.5t-108 45t-86 47 t-47.5 26.5q-35 -39 -102.5 -79t-188.5 -60l-8 57q86 18 142 51t92 81t54.5 110.5t28.5 138.5q4 31 8 68t8 78h-182z" />
<glyph unicode="&#xa4;" horiz-adv-x="886" d="M680 911q51 -78 51 -176q0 -49 -14.5 -94t-38.5 -82l127 -127l-62 -61l-125 125q-35 -27 -79.5 -41.5t-98.5 -14.5q-53 0 -98 14.5t-80 39.5l-115 -115l-59 59l115 115q-27 39 -41.5 85t-14.5 97q0 102 54 178l-119 119l61 62l119 -119q35 27 80 41t98 14t100.5 -15.5 t82.5 -41.5l112 112l60 -59zM655 735q0 45 -15 85t-43 71t-68 48t-89 17q-51 0 -91 -17t-67.5 -48t-43 -71t-15.5 -85q0 -43 15.5 -83t43 -70.5t67.5 -49t91 -18.5q49 0 89 18.5t68 49t43 70.5t15 83z" />
<glyph unicode="&#xa5;" horiz-adv-x="1251" d="M330 63l182 17q10 0 12 12l27 195h-397l4 71h401l27 199h-432l6 72h397l-272 557q-6 12 -23 16l-125 15l-6 63h418l-6 -63l-146 -13q-8 0 -12 -6t0 -12l266 -549h11l389 551q4 4 1 9t-8 5l-147 15l-6 63h426l-6 -63l-137 -15q-14 -2 -23 -14l-418 -559h359l6 -72h-408 l-26 -199h426l8 -71h-443l-26 -195q-2 -12 8 -12l178 -17l6 -63h-497z" />
<glyph unicode="&#xa6;" horiz-adv-x="569" d="M244 1315h82v-686h-82v686zM244 401h82v-686h-82v686z" />
<glyph unicode="&#xa7;" horiz-adv-x="923" d="M350 -125q-31 0 -71.5 7t-77.5 23.5t-62.5 43t-25.5 65.5q0 35 21.5 55.5t55.5 20.5q23 0 39.5 -12t27.5 -30.5t16.5 -40t2.5 -40.5q25 -12 59 -19t62 -7q66 0 108 49t42 114q0 84 -61.5 144.5t-149.5 120.5q-45 31 -85 62.5t-70.5 66t-49 75.5t-18.5 91q0 51 18.5 92 t49 73.5t70.5 57t83 41.5q-18 43 -19 92q0 59 23.5 110.5t62.5 89t91.5 59t111.5 21.5q31 0 72 -7t78 -23.5t62.5 -43t25.5 -65.5q0 -35 -20.5 -55.5t-55.5 -20.5q-23 0 -40 12.5t-28.5 31t-16.5 40t-3 39.5q-25 12 -55.5 19.5t-59.5 7.5q-70 0 -112.5 -47t-42.5 -115 q0 -43 16 -79t46 -67.5t69 -60t82 -59.5q45 -31 84.5 -60.5t70.5 -63.5t48.5 -75t17.5 -92t-18.5 -93t-49.5 -76t-70.5 -58.5t-82.5 -42.5q18 -43 18 -92q0 -59 -23.5 -110.5t-62.5 -88.5t-92.5 -58.5t-110.5 -21.5zM602 283q55 29 99 71.5t44 110.5q0 43 -15 76.5 t-39.5 61.5t-52.5 49.5t-52 39.5q-100 70 -152.5 114t-79.5 87q-55 -27 -100 -71t-45 -109q0 -59 37 -112.5t129 -119.5q63 -43 125.5 -91t101.5 -107z" />
<glyph unicode="&#xa8;" horiz-adv-x="819" d="M707 1071q-45 0 -71 32t-26 71t26 69.5t71 30.5q43 0 67.5 -31t24.5 -69q0 -39 -24.5 -71t-67.5 -32zM297 1071q-45 0 -68.5 32t-23.5 71t23.5 69.5t68.5 30.5t69.5 -31t24.5 -69q0 -39 -24.5 -71t-69.5 -32z" />
<glyph unicode="&#xa9;" horiz-adv-x="1503" d="M752 -31q-139 0 -261 52.5t-213.5 143.5t-143.5 213t-52 261t52 261t143.5 213t213 144.5t261.5 53.5q139 0 261 -53.5t213 -144.5t143 -213t52 -261t-52 -261t-143 -213t-213 -143.5t-261 -52.5zM752 35q125 0 235.5 47t192.5 129t129 192.5t47 235.5t-47 235.5 t-129 192.5t-192.5 130t-235.5 48t-235.5 -48t-192.5 -130t-129.5 -192.5t-47.5 -235.5t47.5 -235.5t129.5 -192.5t192.5 -129t235.5 -47zM770 246q-84 0 -154.5 27.5t-123 76.5t-82 119t-29.5 154q0 88 29.5 163.5t82 130t125 85t158.5 30.5q53 0 93 -5t75 -13l90 18v-246 h-49l-31 160q-23 10 -66.5 23.5t-119.5 13.5q-66 0 -122 -25.5t-97 -71.5t-63.5 -109.5t-22.5 -139.5q0 -152 83 -247t230 -95q53 0 95 10t67 23l51 157h51l-30 -225l-49 12q-35 -10 -89.5 -18t-101.5 -8z" />
<glyph unicode="&#xaa;" horiz-adv-x="704" d="M221 596q-33 0 -56.5 18.5t-37.5 48t-21.5 67.5t-7.5 79q0 49 12.5 108.5t35 117t52 108.5t66.5 88q29 29 72 53.5t78 24.5q33 0 59.5 -16.5t47 -39t34.5 -45t23 -37.5h12l33 136h61l-72 -299l-77 -340l38 -11l144 121l20 -26q-16 -18 -41.5 -45t-54.5 -51.5t-55.5 -42 t-44.5 -17.5q-23 0 -49.5 17.5t-26.5 33.5q0 12 29.5 117.5t83.5 290.5h-15q-27 -55 -68.5 -134t-90 -151t-96.5 -123t-87 -51zM238 657q25 0 57.5 34t70 91.5t79.5 132t83 154.5l15 47q-10 18 -25.5 40t-37 42.5t-46 33.5t-51.5 13q-39 0 -80 -41q-29 -27 -52.5 -74 t-40.5 -100t-27.5 -107.5t-10.5 -95.5q0 -80 16.5 -125t49.5 -45z" />
<glyph unicode="&#xab;" horiz-adv-x="983" d="M414 416l8 73l477 322l14 -45l-364 -317l280 -318l-24 -37zM35 416l8 73l485 302l13 -46l-351 -296l273 -297l-25 -37z" />
<glyph unicode="&#xac;" horiz-adv-x="983" d="M911 199h-92v342h-747l6 88h833v-430z" />
<glyph unicode="&#xad;" horiz-adv-x="671" d="M20 526h512l7 -92h-525z" />
<glyph unicode="&#xae;" horiz-adv-x="1503" d="M752 -31q-139 0 -261 52.5t-213.5 143.5t-143.5 213t-52 261t52 261t143.5 213t213 144.5t261.5 53.5q139 0 261 -53.5t213 -144.5t143 -213t52 -261t-52 -261t-143 -213t-213 -143.5t-261 -52.5zM752 35q125 0 235.5 47t192.5 129t129 192.5t47 235.5t-47 235.5 t-129 192.5t-192.5 130t-235.5 48t-235.5 -48t-192.5 -130t-129.5 -192.5t-47.5 -235.5t47.5 -235.5t129.5 -192.5t192.5 -129t235.5 -47zM434 324l117 10q6 0 6 10v602q0 10 -6 10l-117 11l-6 49h350q129 0 193.5 -55.5t64.5 -133.5q0 -84 -52 -139t-138 -84l178 -264 q8 -8 12 -8l88 -8l6 -50h-159l-51 84l-148 230l-137 4v-248q0 -10 6 -10l135 -10l4 -50h-352zM770 633q72 10 127 54t55 122q0 80 -54 121t-165 37l-98 -4v-318z" />
<glyph unicode="&#xaf;" horiz-adv-x="819" d="M266 1176h469l8 -78h-481z" />
<glyph unicode="&#xb0;" horiz-adv-x="843" d="M496 641q-66 0 -124.5 21.5t-101.5 61.5t-68.5 96.5t-25.5 125.5q0 78 30 146.5t80 121t117.5 82t145.5 29.5q68 0 126 -20.5t102 -59.5t69.5 -95t25.5 -126q0 -80 -29.5 -149.5t-79.5 -122t-118.5 -82t-148.5 -29.5zM504 702q61 0 114.5 24t92.5 64.5t61.5 96 t22.5 117.5q0 113 -71 184.5t-183 71.5q-61 0 -114.5 -26t-92.5 -69t-61.5 -99t-22.5 -116q0 -55 19.5 -101t54 -79t81 -50.5t99.5 -17.5z" />
<glyph unicode="&#xb1;" horiz-adv-x="983" d="M539 477v-307h-93v307h-374l6 88h368v338h93v-338h366l6 -88h-372zM76 41l6 88h817l6 -88h-829z" />
<glyph unicode="&#xb2;" horiz-adv-x="675" d="M20 623q100 82 191.5 149.5t159 129t107.5 116.5t40 112q0 72 -51 111t-123 39t-129 -29.5t-104 -66.5l-11 26q23 23 53.5 47.5t67.5 46t80 35t90 13.5q43 0 83 -13.5t70.5 -39t50 -60.5t19.5 -78q0 -70 -48 -135t-122.5 -130t-166 -129.5t-179.5 -131.5l-2 -2q0 -2 2 -2 h121q90 0 145.5 2t87 9t47 20.5t27.5 35.5l33 68h55l-63 -207h-535z" />
<glyph unicode="&#xb3;" horiz-adv-x="675" d="M330 969q8 2 26.5 4t40.5 2q78 0 129.5 -45t51.5 -121q0 -59 -34 -109.5t-86 -87.5t-119 -57t-130 -20q-23 0 -54.5 4t-60 14t-49 27.5t-20.5 44.5q0 25 18 41t45 16q37 0 65.5 -27.5t28.5 -68.5q12 -4 27.5 -5t28.5 -1q55 0 99 18t74.5 47t47 67t16.5 76q0 57 -41 97.5 t-112 40.5q-47 0 -82 -9.5t-62 -19.5l-12 31q70 31 129 58.5t102 56t67.5 60.5t24.5 73q0 57 -43 82.5t-88 25.5q-68 0 -126 -24.5t-103 -57.5l-10 31q23 20 54.5 40.5t69.5 38t78.5 29t81.5 11.5q37 0 73 -10.5t64.5 -29t46 -46t17.5 -64.5q0 -49 -28.5 -86t-69.5 -64.5 t-89 -48t-87 -34.5z" />
<glyph unicode="&#xb4;" horiz-adv-x="817" d="M631 1397h164l-373 -363h-47z" />
<glyph unicode="&#xb5;" horiz-adv-x="1064" d="M186 819q0 12 -8 12l-149 13l-6 63h262l-4 -626q0 -63 19 -106.5t51 -69t70 -36t75 -10.5q39 0 78.5 13.5t76.5 34t70 46t57 50.5v616q0 12 -8 12l-149 13l-7 63h260v-821q0 -10 1.5 -17.5t9.5 -7.5l170 -12l-6 -43l-271 -37v156h-10q-41 -35 -75 -62.5t-65.5 -48 t-66.5 -32t-80 -11.5q-41 0 -73.5 11.5t-57 28t-43 38t-33.5 43.5h-6l8 -588l-108 -18l16 799z" />
<glyph unicode="&#xb6;" horiz-adv-x="980" d="M756 592q-49 -14 -101.5 -23.5t-105.5 -9.5q-76 0 -148.5 15.5t-131 51.5t-94.5 95t-36 147q0 104 41 182t109.5 128.5t158 76t185.5 25.5h295l-176 -1346h-82z" />
<glyph unicode="&#xb7;" horiz-adv-x="436" d="M166 360q-47 0 -75 32t-25 71q2 39 28.5 68.5t73.5 29.5t75.5 -29.5t26.5 -68.5q-2 -41 -29.5 -72t-74.5 -31z" />
<glyph unicode="&#xb8;" horiz-adv-x="819" d="M98 -498q176 27 260 77t84 130q0 43 -38.5 72t-120.5 29q-20 0 -48 -2.5t-55 -6.5l4 25l213 205h66l-168 -158q100 8 167.5 -33t67.5 -119q0 -51 -30.5 -94t-86 -75.5t-134 -55t-173.5 -31.5z" />
<glyph unicode="&#xb9;" horiz-adv-x="675" d="M88 604l158 14q20 4 26.5 11.5t8.5 17.5l90 619l-195 18l8 37l285 22l-102 -696q-2 -10 4 -18t24 -11l142 -14l4 -45h-455z" />
<glyph unicode="&#xba;" horiz-adv-x="641" d="M322 598q-55 0 -95.5 25.5t-66 65.5t-36.5 89t-11 96q0 68 22.5 144t64.5 140.5t102 107.5t138 43q55 0 95 -26t66 -65.5t37 -89t11 -98.5q0 -68 -22.5 -143.5t-64.5 -140t-103 -106.5t-137 -42zM334 641q41 0 75.5 22.5t62.5 58.5t47.5 82t31.5 93q12 41 18 80t6 70 q0 41 -7 79.5t-24.5 69.5t-46 50.5t-69.5 19.5t-75 -22.5t-61.5 -58.5t-48 -82t-34.5 -91q-12 -43 -17.5 -82t-5.5 -70q0 -41 7.5 -80t25 -69.5t45 -50t70.5 -19.5z" />
<glyph unicode="&#xbb;" horiz-adv-x="983" d="M430 160l352 297l-274 297l24 37l404 -302l-8 -73l-486 -301zM61 139l363 318l-279 317l23 37l389 -322l-8 -73l-475 -322z" />
<glyph unicode="&#xbc;" horiz-adv-x="1464" d="M1128 -57h-374l2 43l477 508h61l-69 -496h143l-18 -55h-133l-37 -236h-84zM1137 -2l55 381h-8l-361 -381h314zM1352 1280h92l-1311 -1518h-92zM129 604l158 14q20 4 26 11.5t9 17.5l90 619l-195 18l8 37l285 22l-102 -696q-2 -10 4 -18t24 -11l142 -14l4 -45h-455z" />
<glyph unicode="&#xbd;" horiz-adv-x="1464" d="M1352 1280h92l-1311 -1518h-92zM768 -229q100 82 191.5 149.5t159 129t107.5 116.5t40 113q0 72 -51.5 110.5t-122.5 38.5q-72 0 -129.5 -29.5t-104.5 -66.5l-10 26q23 23 53.5 47.5t67.5 46t80 35t90 13.5q43 0 83 -13.5t70.5 -39t50 -60.5t19.5 -78q0 -70 -48 -135 t-123 -129.5t-166 -129.5t-179 -132l-2 -2q0 -2 2 -2h121q90 0 145 2t87 9t47.5 20.5t27.5 35.5l33 68h55l-64 -207h-534zM129 604l158 14q20 4 26 11.5t9 17.5l90 619l-195 18l8 37l285 22l-102 -696q-2 -10 4 -18t24 -11l142 -14l4 -45h-455z" />
<glyph unicode="&#xbe;" horiz-adv-x="1464" d="M1128 -57h-374l2 43l477 508h61l-69 -496h143l-18 -55h-133l-37 -236h-84zM1137 -2l55 381h-8l-361 -381h314zM1352 1280h92l-1311 -1518h-92zM371 969q8 2 26.5 4t40.5 2q78 0 129 -45t51 -121q0 -59 -33.5 -109.5t-86 -87.5t-119 -57t-129.5 -20q-23 0 -54.5 4 t-60.5 14t-49 27.5t-20 44.5q0 25 18 41t45 16q37 0 65.5 -27.5t28.5 -68.5q12 -4 27.5 -5t28.5 -1q55 0 99 18t74.5 47t47 67t16.5 76q0 57 -41 97.5t-113 40.5q-47 0 -81.5 -9.5t-61.5 -19.5l-12 31q70 31 129 58.5t102 56t67.5 60.5t24.5 73q0 57 -43 82.5t-88 25.5 q-68 0 -126 -24.5t-103 -57.5l-10 31q23 20 54.5 40.5t69.5 38t78.5 29t81.5 11.5q37 0 73 -10.5t64.5 -29t46 -46t17.5 -64.5q0 -49 -28.5 -86t-69.5 -64.5t-89 -48t-87 -34.5z" />
<glyph unicode="&#xbf;" horiz-adv-x="641" d="M481 1108q-47 0 -73.5 28.5t-26.5 67.5q0 41 26.5 72t73.5 31t78 -31t29 -72q-2 -37 -31 -66.5t-76 -29.5zM387 -31q-80 0 -142.5 27t-106.5 70t-67.5 96t-23.5 108q0 63 19.5 108.5t51.5 77t76 52t93 37.5q37 14 73.5 28.5t64.5 34t45 48t17 71.5q-2 51 -36.5 99 t-77.5 85l67 -4q18 -18 40 -40.5t39.5 -49t29.5 -58.5t12 -69q0 -55 -22.5 -95t-58.5 -69.5t-82 -51t-93 -38.5q-41 -14 -75.5 -28.5t-62.5 -33t-43 -42t-15 -53.5q0 -35 21.5 -69t63.5 -60.5t101 -43t135 -16.5q25 0 45.5 1t32.5 3q4 -12 4 -31q0 -47 -36 -70.5t-89 -23.5z " />
<glyph unicode="&#xc0;" horiz-adv-x="1118" d="M-100 63l139 15q10 0 16 14l512 1131v41l150 41l233 -1211q2 -6 4 -10t13 -6l139 -15l6 -63h-450l6 63l157 13q6 0 11.5 4t3.5 10l-72 379h-459l-166 -373q-8 -14 4 -14l156 -19l6 -63h-415zM754 547l-119 633h-10l-281 -633h410zM422 1769h164l157 -362h-47z" />
<glyph unicode="&#xc1;" horiz-adv-x="1118" d="M-100 63l139 15q10 0 16 14l512 1131v41l150 41l233 -1211q2 -6 4 -10t13 -6l139 -15l6 -63h-450l6 63l157 13q6 0 11.5 4t3.5 10l-72 379h-459l-166 -373q-8 -14 4 -14l156 -19l6 -63h-415zM754 547l-119 633h-10l-281 -633h410zM885 1769h164l-373 -362h-47z" />
<glyph unicode="&#xc2;" horiz-adv-x="1118" d="M-100 63l139 15q10 0 16 14l512 1131v41l150 41l233 -1211q2 -6 4 -10t13 -6l139 -15l6 -63h-450l6 63l157 13q6 0 11.5 4t3.5 10l-72 379h-459l-166 -373q-8 -14 4 -14l156 -19l6 -63h-415zM754 547l-119 633h-10l-281 -633h410zM598 1769h168l147 -362h-39l-98 143 q-18 27 -35.5 53.5t-31.5 47.5q-16 23 -31 45h-4l-275 -289h-47z" />
<glyph unicode="&#xc3;" horiz-adv-x="1118" d="M-100 63l139 15q10 0 16 14l512 1131v41l150 41l233 -1211q2 -6 4 -10t13 -6l139 -15l6 -63h-450l6 63l157 13q6 0 11.5 4t3.5 10l-72 379h-459l-166 -373q-8 -14 4 -14l156 -19l6 -63h-415zM754 547l-119 633h-10l-281 -633h410zM788 1438q-41 0 -77.5 22.5t-68.5 50 t-60.5 50t-53.5 22.5q-20 0 -37.5 -5t-34 -19.5t-33.5 -41t-38 -69.5h-55q66 213 207 213q41 0 77.5 -22.5t69.5 -50t61.5 -50t51.5 -22.5q20 0 36.5 5t34 19t34 41t36.5 70h57q-66 -213 -207 -213z" />
<glyph unicode="&#xc4;" horiz-adv-x="1118" d="M-100 63l139 15q10 0 16 14l512 1131v41l150 41l233 -1211q2 -6 4 -10t13 -6l139 -15l6 -63h-450l6 63l157 13q6 0 11.5 4t3.5 10l-72 379h-459l-166 -373q-8 -14 4 -14l156 -19l6 -63h-415zM754 547l-119 633h-10l-281 -633h410zM856 1444q-45 0 -70.5 31.5t-25.5 70.5 t25.5 70t70.5 31q43 0 67.5 -31t24.5 -70t-24.5 -70.5t-67.5 -31.5zM446 1444q-45 0 -68.5 31.5t-23.5 70.5t23.5 70t68.5 31t70 -31t25 -70t-25 -70.5t-70 -31.5z" />
<glyph unicode="&#xc5;" horiz-adv-x="1118" d="M-100 63l139 15q10 0 16 14l523 1157q-45 23 -70 67t-25 97q0 76 48.5 130t134.5 54t135 -54t47 -130q-2 -59 -33 -107.5t-86 -66.5l221 -1145q2 -6 4 -10t13 -6l139 -15l6 -63h-450l6 63l157 13q6 0 11.5 4t3.5 10l-72 379h-459l-166 -373q-8 -14 4 -14l156 -19l6 -63 h-415zM668 1280q59 0 89.5 40t30.5 93t-31.5 93t-90.5 40t-90 -40t-33 -93t32 -93t93 -40zM754 547l-119 633h-10l-281 -633h410z" />
<glyph unicode="&#xc6;" horiz-adv-x="1662" d="M-160 63l144 15q4 0 12 7t12 15l740 1088q8 12 -7 12l-161 17l2 63h1056l-45 -346h-63l-8 223q0 18 -10.5 29.5t-53.5 17.5t-133 8t-252 2h-94l-70 -526h131q76 0 119 1t64.5 4t27.5 8.5t11 15.5l61 135h49l-90 -395h-49l6 133q0 8 -3 15t-22.5 10t-62.5 5.5t-121 2.5 h-129l-74 -557h47q184 0 287 2t153 8t64.5 17t20.5 30l82 219h73l-81 -342h-936l14 63l162 17q8 0 10 12l49 377h-428l-248 -373q-4 -4 -2 -9t6 -5l144 -19l6 -63h-416zM782 547l86 655h-28l-443 -655h385z" />
<glyph unicode="&#xc7;" horiz-adv-x="1228" d="M500 -127q100 8 167.5 -33t67.5 -119q0 -51 -30.5 -94t-86 -75.5t-134 -55t-173.5 -31.5l-8 37q176 27 260 77t84 130q0 43 -39 72t-121 29q-20 0 -47.5 -2.5t-54.5 -6.5l4 25q43 41 78 76q29 29 54.5 52t25.5 26q-203 27 -324 164t-121 362q0 154 49.5 298t141.5 255.5 t226 180.5t306 69q68 0 129.5 -8.5t122.5 -24.5l144 35l-54 -404h-65l-10 275q-66 29 -136.5 45t-138.5 16q-141 0 -252.5 -64.5t-188.5 -169t-117 -234.5t-40 -259q0 -104 27.5 -192t82 -151.5t136.5 -99.5t192 -36q72 0 137.5 16.5t129.5 42.5l114 269h70l-102 -369 l-68 22q-72 -18 -144.5 -32.5t-146.5 -14.5h-20.5t-20.5 2z" />
<glyph unicode="&#xc8;" horiz-adv-x="1155" d="M43 63l160 17q10 0 12 12l143 1096q2 12 -8 12l-155 17l-7 63h942l-45 -346h-63l-8 223q0 18 -10.5 29.5t-53.5 17.5t-133 8t-252 2h-94l-70 -526h131q76 0 119 1t64.5 4t28 8.5t10.5 15.5l61 135h49l-90 -395h-49l6 133q0 8 -3 15t-22.5 10t-62.5 5.5t-121 2.5h-129 l-74 -557h48q184 0 286.5 2t152.5 8t64.5 17t20.5 30l82 219h74l-82 -342h-928zM440 1769h164l158 -362h-47z" />
<glyph unicode="&#xc9;" horiz-adv-x="1155" d="M43 63l160 17q10 0 12 12l143 1096q2 12 -8 12l-155 17l-7 63h942l-45 -346h-63l-8 223q0 18 -10.5 29.5t-53.5 17.5t-133 8t-252 2h-94l-70 -526h131q76 0 119 1t64.5 4t28 8.5t10.5 15.5l61 135h49l-90 -395h-49l6 133q0 8 -3 15t-22.5 10t-62.5 5.5t-121 2.5h-129 l-74 -557h48q184 0 286.5 2t152.5 8t64.5 17t20.5 30l82 219h74l-82 -342h-928zM801 1769h164l-373 -362h-47z" />
<glyph unicode="&#xca;" horiz-adv-x="1155" d="M43 63l160 17q10 0 12 12l143 1096q2 12 -8 12l-155 17l-7 63h942l-45 -346h-63l-8 223q0 18 -10.5 29.5t-53.5 17.5t-133 8t-252 2h-94l-70 -526h131q76 0 119 1t64.5 4t28 8.5t10.5 15.5l61 135h49l-90 -395h-49l6 133q0 8 -3 15t-22.5 10t-62.5 5.5t-121 2.5h-129 l-74 -557h48q184 0 286.5 2t152.5 8t64.5 17t20.5 30l82 219h74l-82 -342h-928zM616 1769h168l148 -362h-39l-98 143q-18 27 -36 53.5t-32 47.5q-16 23 -31 45h-4l-274 -289h-47z" />
<glyph unicode="&#xcb;" horiz-adv-x="1155" d="M43 63l160 17q10 0 12 12l143 1096q2 12 -8 12l-155 17l-7 63h942l-45 -346h-63l-8 223q0 18 -10.5 29.5t-53.5 17.5t-133 8t-252 2h-94l-70 -526h131q76 0 119 1t64.5 4t28 8.5t10.5 15.5l61 135h49l-90 -395h-49l6 133q0 8 -3 15t-22.5 10t-62.5 5.5t-121 2.5h-129 l-74 -557h48q184 0 286.5 2t152.5 8t64.5 17t20.5 30l82 219h74l-82 -342h-928zM915 1444q-45 0 -70.5 31.5t-25.5 70.5t25.5 70t70.5 31q43 0 68 -31t25 -70t-25 -70.5t-68 -31.5zM506 1444q-45 0 -68.5 31.5t-23.5 70.5t23.5 70t68.5 31t69.5 -31t24.5 -70t-24.5 -70.5 t-69.5 -31.5z" />
<glyph unicode="&#xcc;" horiz-adv-x="675" d="M61 63l160 17q10 0 12 12l144 1096q2 12 -8 12l-156 17l-6 63h457l-7 -63l-159 -17q-10 0 -13 -12l-143 -1096q-2 -12 8 -12l156 -17l6 -63h-457zM139 1769h164l158 -362h-47z" />
<glyph unicode="&#xcd;" horiz-adv-x="675" d="M61 63l160 17q10 0 12 12l144 1096q2 12 -8 12l-156 17l-6 63h457l-7 -63l-159 -17q-10 0 -13 -12l-143 -1096q-2 -12 8 -12l156 -17l6 -63h-457zM664 1769h163l-372 -362h-47z" />
<glyph unicode="&#xce;" horiz-adv-x="675" d="M61 63l160 17q10 0 12 12l144 1096q2 12 -8 12l-156 17l-6 63h457l-7 -63l-159 -17q-10 0 -13 -12l-143 -1096q-2 -12 8 -12l156 -17l6 -63h-457zM418 1769h168l147 -362h-39l-98 143q-18 27 -35.5 53.5t-32.5 47.5q-16 23 -30 45h-4l-275 -289h-47z" />
<glyph unicode="&#xcf;" horiz-adv-x="675" d="M61 63l160 17q10 0 12 12l144 1096q2 12 -8 12l-156 17l-6 63h457l-7 -63l-159 -17q-10 0 -13 -12l-143 -1096q-2 -12 8 -12l156 -17l6 -63h-457zM655 1444q-45 0 -70.5 31.5t-25.5 70.5t25.5 70t70.5 31q43 0 68 -31t25 -70t-25 -70.5t-68 -31.5zM246 1444 q-45 0 -68.5 31.5t-23.5 70.5t23.5 70t68.5 31t69.5 -31t24.5 -70t-24.5 -70.5t-69.5 -31.5z" />
<glyph unicode="&#xd0;" horiz-adv-x="1288" d="M88 623l6 71h199l33 246q14 109 32 248q2 12 -8 12l-155 17l-7 63h443q131 0 241.5 -38t191.5 -111.5t126 -182t45 -250.5q0 -158 -59.5 -286.5t-164 -220t-245.5 -141.5t-305 -50h-424l6 63l160 17q10 0 12 12l70 531h-197zM682 694l6 -71h-295l-69 -535l170 -22 q127 6 239.5 48t197.5 119.5t135 191.5t50 267q0 129 -38 227.5t-105.5 164t-163.5 99.5t-213 34h-125l-68 -523h279z" />
<glyph unicode="&#xd1;" horiz-adv-x="1359" d="M442 1184h-6l-139 -1092q-2 -12 8 -12l176 -17l6 -63h-477l6 63l187 17q10 0 12 12l141 1082q2 10 -8 12l-158 31l-6 63h322l543 -1118h4l131 1026q2 12 -8 12l-177 17l-6 63h477l-6 -63l-186 -17q-10 0 -12 -12l-158 -1198h-84zM975 1438q-41 0 -78 22.5t-68.5 50 t-60.5 50t-53 22.5q-20 0 -38 -5t-34 -19.5t-33.5 -41t-38.5 -69.5h-55q66 213 207 213q41 0 78 -22.5t69.5 -50t61.5 -50t51 -22.5q20 0 36.5 5t34 19t34 41t36.5 70h58q-66 -213 -207 -213z" />
<glyph unicode="&#xd2;" horiz-adv-x="1378" d="M672 -33q-127 0 -230.5 49.5t-179.5 132t-117 193.5t-41 231q0 135 44.5 263.5t127.5 232.5q86 109 208 174.5t272 65.5q125 0 230.5 -49.5t180 -132.5t116.5 -193.5t42 -231.5q0 -147 -52 -285t-151 -245q-86 -92 -199.5 -148.5t-250.5 -56.5zM686 35q129 0 225.5 63.5 t160 161.5t95 217t31.5 232q0 121 -36 228t-111 183q-57 57 -133 89t-175 32q-129 0 -225 -63.5t-159.5 -161.5t-95.5 -217t-32 -232q0 -123 39 -232.5t115 -184.5q115 -115 301 -115zM489 1769h164l158 -362h-47z" />
<glyph unicode="&#xd3;" horiz-adv-x="1378" d="M672 -33q-127 0 -230.5 49.5t-179.5 132t-117 193.5t-41 231q0 135 44.5 263.5t127.5 232.5q86 109 208 174.5t272 65.5q125 0 230.5 -49.5t180 -132.5t116.5 -193.5t42 -231.5q0 -147 -52 -285t-151 -245q-86 -92 -199.5 -148.5t-250.5 -56.5zM686 35q129 0 225.5 63.5 t160 161.5t95 217t31.5 232q0 121 -36 228t-111 183q-57 57 -133 89t-175 32q-129 0 -225 -63.5t-159.5 -161.5t-95.5 -217t-32 -232q0 -123 39 -232.5t115 -184.5q115 -115 301 -115zM1034 1769h164l-373 -362h-47z" />
<glyph unicode="&#xd4;" horiz-adv-x="1378" d="M672 -33q-127 0 -230.5 49.5t-179.5 132t-117 193.5t-41 231q0 135 44.5 263.5t127.5 232.5q86 109 208 174.5t272 65.5q125 0 230.5 -49.5t180 -132.5t116.5 -193.5t42 -231.5q0 -147 -52 -285t-151 -245q-86 -92 -199.5 -148.5t-250.5 -56.5zM686 35q129 0 225.5 63.5 t160 161.5t95 217t31.5 232q0 121 -36 228t-111 183q-57 57 -133 89t-175 32q-129 0 -225 -63.5t-159.5 -161.5t-95.5 -217t-32 -232q0 -123 39 -232.5t115 -184.5q115 -115 301 -115zM768 1769h168l147 -362h-39l-98 143q-18 27 -35.5 53.5t-31.5 47.5q-16 23 -31 45h-4 l-275 -289h-47z" />
<glyph unicode="&#xd5;" horiz-adv-x="1378" d="M672 -33q-127 0 -230.5 49.5t-179.5 132t-117 193.5t-41 231q0 135 44.5 263.5t127.5 232.5q86 109 208 174.5t272 65.5q125 0 230.5 -49.5t180 -132.5t116.5 -193.5t42 -231.5q0 -147 -52 -285t-151 -245q-86 -92 -199.5 -148.5t-250.5 -56.5zM686 35q129 0 225.5 63.5 t160 161.5t95 217t31.5 232q0 121 -36 228t-111 183q-57 57 -133 89t-175 32q-129 0 -225 -63.5t-159.5 -161.5t-95.5 -217t-32 -232q0 -123 39 -232.5t115 -184.5q115 -115 301 -115zM907 1438q-41 0 -77.5 22.5t-68.5 50t-60.5 50t-53.5 22.5q-20 0 -37.5 -5t-34 -19.5 t-34 -41t-37.5 -69.5h-55q66 213 206 213q41 0 78 -22.5t70 -50t61.5 -50t50.5 -22.5q20 0 37 5t34.5 19t33.5 41t37 70h57q-66 -213 -207 -213z" />
<glyph unicode="&#xd6;" horiz-adv-x="1378" d="M672 -33q-127 0 -230.5 49.5t-179.5 132t-117 193.5t-41 231q0 135 44.5 263.5t127.5 232.5q86 109 208 174.5t272 65.5q125 0 230.5 -49.5t180 -132.5t116.5 -193.5t42 -231.5q0 -147 -52 -285t-151 -245q-86 -92 -199.5 -148.5t-250.5 -56.5zM686 35q129 0 225.5 63.5 t160 161.5t95 217t31.5 232q0 121 -36 228t-111 183q-57 57 -133 89t-175 32q-129 0 -225 -63.5t-159.5 -161.5t-95.5 -217t-32 -232q0 -123 39 -232.5t115 -184.5q115 -115 301 -115zM985 1444q-45 0 -70.5 31.5t-25.5 70.5t25.5 70t70.5 31q43 0 67.5 -31t24.5 -70 t-24.5 -70.5t-67.5 -31.5zM575 1444q-45 0 -68.5 31.5t-23.5 70.5t23.5 70t68.5 31t70 -31t25 -70t-25 -70.5t-70 -31.5z" />
<glyph unicode="&#xd7;" horiz-adv-x="983" d="M555 481l295 -293l-66 -65l-295 295l-292 -295l-64 61l295 295l-295 295l66 64l295 -293l292 293l64 -62z" />
<glyph unicode="&#xd8;" horiz-adv-x="1378" d="M303 106q-92 86 -145.5 208t-53.5 259q0 135 44.5 263.5t127.5 232.5q86 109 208 174.5t272 65.5q96 0 179 -29t150 -80l150 209h76q-51 -72 -88 -125q-16 -23 -32.5 -46.5t-29.5 -39.5q-14 -23 -26 -39q90 -86 140 -203.5t50 -253.5q0 -147 -52 -285t-151 -245 q-86 -92 -199.5 -148.5t-250.5 -56.5q-92 0 -173 26.5t-147 74.5q-12 -14 -24 -33q-10 -16 -25.5 -35.5t-30.5 -40.5l-77 -111h-76zM1036 1133q-55 51 -127.5 79.5t-165.5 28.5q-129 0 -225 -63.5t-159.5 -161.5t-95.5 -217t-32 -232q0 -111 32 -211t93 -176zM686 35 q129 0 225.5 63.5t160 161.5t95 217t31.5 232q0 109 -28.5 206t-88.5 172l-682 -952q53 -47 125 -73.5t162 -26.5z" />
<glyph unicode="&#xd9;" horiz-adv-x="1445" d="M668 -31q-98 0 -180 24.5t-141.5 73t-92.5 119t-33 164.5q0 39 4 84t11 88l88 666q2 12 -9 12l-155 17l-6 63h456l-6 -63l-160 -17q-10 0 -12 -12l-92 -707q-4 -23 -7 -51.5t-3 -58.5q0 -154 93 -239t269 -85q76 0 143.5 22.5t121 68.5t89 116t48.5 164l100 770 q2 12 -8 12l-176 17l-6 63h477l-6 -63l-187 -17q-10 0 -12 -12l-102 -778q-14 -111 -58.5 -194t-110 -137t-151.5 -82t-186 -28zM524 1769h164l158 -362h-47z" />
<glyph unicode="&#xda;" horiz-adv-x="1445" d="M668 -31q-98 0 -180 24.5t-141.5 73t-92.5 119t-33 164.5q0 39 4 84t11 88l88 666q2 12 -9 12l-155 17l-6 63h456l-6 -63l-160 -17q-10 0 -12 -12l-92 -707q-4 -23 -7 -51.5t-3 -58.5q0 -154 93 -239t269 -85q76 0 143.5 22.5t121 68.5t89 116t48.5 164l100 770 q2 12 -8 12l-176 17l-6 63h477l-6 -63l-187 -17q-10 0 -12 -12l-102 -778q-14 -111 -58.5 -194t-110 -137t-151.5 -82t-186 -28zM1049 1769h163l-372 -362h-47z" />
<glyph unicode="&#xdb;" horiz-adv-x="1445" d="M668 -31q-98 0 -180 24.5t-141.5 73t-92.5 119t-33 164.5q0 39 4 84t11 88l88 666q2 12 -9 12l-155 17l-6 63h456l-6 -63l-160 -17q-10 0 -12 -12l-92 -707q-4 -23 -7 -51.5t-3 -58.5q0 -154 93 -239t269 -85q76 0 143.5 22.5t121 68.5t89 116t48.5 164l100 770 q2 12 -8 12l-176 17l-6 63h477l-6 -63l-187 -17q-10 0 -12 -12l-102 -778q-14 -111 -58.5 -194t-110 -137t-151.5 -82t-186 -28zM793 1769h168l147 -362h-39l-98 143q-18 27 -35.5 53.5t-32.5 47.5q-16 23 -31 45h-4l-274 -289h-47z" />
<glyph unicode="&#xdc;" horiz-adv-x="1445" d="M668 -31q-98 0 -180 24.5t-141.5 73t-92.5 119t-33 164.5q0 39 4 84t11 88l88 666q2 12 -9 12l-155 17l-6 63h456l-6 -63l-160 -17q-10 0 -12 -12l-92 -707q-4 -23 -7 -51.5t-3 -58.5q0 -154 93 -239t269 -85q76 0 143.5 22.5t121 68.5t89 116t48.5 164l100 770 q2 12 -8 12l-176 17l-6 63h477l-6 -63l-187 -17q-10 0 -12 -12l-102 -778q-14 -111 -58.5 -194t-110 -137t-151.5 -82t-186 -28zM1020 1444q-45 0 -70.5 31.5t-25.5 70.5t25.5 70t70.5 31q43 0 67.5 -31t24.5 -70t-24.5 -70.5t-67.5 -31.5zM610 1444q-45 0 -68.5 31.5 t-23.5 70.5t23.5 70t68.5 31t70 -31t25 -70t-25 -70.5t-70 -31.5z" />
<glyph unicode="&#xdd;" horiz-adv-x="1204" d="M315 63l183 17q8 0 10 12l59 451l-321 643q-8 14 -23 16l-125 15l-6 63h430l-6 -63l-147 -13q-18 0 -11 -18l275 -574h4l424 576q4 4 2 9t-6 5l-146 15l-6 63h420l-6 -63l-137 -15q-16 -4 -25 -14l-479 -641l-62 -455q-2 -12 11 -12l174 -17l6 -63h-498zM928 1769h164 l-373 -362h-47z" />
<glyph unicode="&#xde;" horiz-adv-x="1062" d="M43 63l160 17q8 0 12 12l143 1096q2 12 -8 12l-155 17l-7 63h457l-6 -63l-160 -17q-10 0 -12 -12l-18 -154h131q102 0 188 -22.5t147.5 -67.5t96.5 -109.5t35 -150.5q0 -94 -38 -170t-104.5 -130t-156 -83t-189.5 -29q-66 0 -117 4.5t-94 8.5l-24 -193q-2 -12 8 -12 l192 -17l6 -63h-493zM555 338q80 0 147.5 21.5t116.5 63.5t78 105.5t29 147.5q0 76 -27 132t-74 92t-112.5 53.5t-145.5 17.5q-31 0 -63.5 -2t-65.5 -6l-80 -609q37 -6 87.5 -11t109.5 -5z" />
<glyph unicode="&#xdf;" horiz-adv-x="989" d="M651 850q55 -39 111.5 -96.5t97.5 -127t61.5 -149.5t6.5 -164q-14 -74 -48 -138t-83 -111.5t-109.5 -72t-124.5 -18.5q-127 10 -186.5 58.5t-44.5 118.5q4 27 27.5 46t52.5 15q47 -4 65.5 -46t5.5 -102q41 -29 97 -34q41 -4 79.5 14t71.5 51t56.5 78t33.5 94 q27 143 -40.5 295t-245.5 287l4 22q141 14 219 75t102 188q8 41 -4 80.5t-38.5 73.5t-65.5 55.5t-84 25.5q-55 4 -102.5 -18.5t-85.5 -75.5t-67.5 -141.5t-50.5 -214.5l-141 -861q-29 -178 -64.5 -292.5t-101.5 -180.5q-88 -88 -182 -88q-49 0 -82 31t-33 67q0 33 20.5 54.5 t49.5 21.5q39 0 62.5 -28.5t27.5 -73.5l141 102q23 49 43.5 149.5t38.5 215.5l129 805l-178 6l4 55l189 29q20 123 48.5 215t72 151.5t106.5 89t156 29.5q70 0 128 -24.5t97 -65.5t56.5 -93t6.5 -108q-25 -123 -106.5 -190.5t-198.5 -83.5z" />
<glyph unicode="&#xe0;" horiz-adv-x="964" d="M219 -33q-45 0 -76.5 24.5t-52 65.5t-30 93.5t-9.5 107.5q0 68 16.5 148.5t47 159.5t71.5 149.5t90 120.5q41 41 100.5 73.5t104.5 32.5t82 -22.5t64.5 -53t47 -62.5t32.5 -50h18l45 186h82l-96 -410l-109 -467l66 -14l166 166l32 -37q-16 -25 -45.5 -61.5t-62.5 -69.5 t-64.5 -56.5t-56.5 -23.5q-16 0 -37.5 7.5t-42 17.5t-35 22.5t-14.5 22.5q0 8 9 48t26.5 101.5t40 140.5t49.5 165h-21q-16 -25 -45.5 -73t-66.5 -106.5t-79 -120t-85 -111.5t-85 -82t-77 -32zM242 49q33 0 79 47t102 125t121.5 180.5t137.5 212.5l18 64q-20 25 -49.5 55.5 t-64.5 58t-73 46t-73 18.5q-29 0 -56.5 -15.5t-53.5 -41.5q-37 -37 -70 -100.5t-56.5 -137.5t-37.5 -147.5t-14 -130.5q0 -111 22.5 -172.5t67.5 -61.5zM303 1397h164l158 -363h-47z" />
<glyph unicode="&#xe1;" horiz-adv-x="964" d="M219 -33q-45 0 -76.5 24.5t-52 65.5t-30 93.5t-9.5 107.5q0 68 16.5 148.5t47 159.5t71.5 149.5t90 120.5q41 41 100.5 73.5t104.5 32.5t82 -22.5t64.5 -53t47 -62.5t32.5 -50h18l45 186h82l-96 -410l-109 -467l66 -14l166 166l32 -37q-16 -25 -45.5 -61.5t-62.5 -69.5 t-64.5 -56.5t-56.5 -23.5q-16 0 -37.5 7.5t-42 17.5t-35 22.5t-14.5 22.5q0 8 9 48t26.5 101.5t40 140.5t49.5 165h-21q-16 -25 -45.5 -73t-66.5 -106.5t-79 -120t-85 -111.5t-85 -82t-77 -32zM242 49q33 0 79 47t102 125t121.5 180.5t137.5 212.5l18 64q-20 25 -49.5 55.5 t-64.5 58t-73 46t-73 18.5q-29 0 -56.5 -15.5t-53.5 -41.5q-37 -37 -70 -100.5t-56.5 -137.5t-37.5 -147.5t-14 -130.5q0 -111 22.5 -172.5t67.5 -61.5zM725 1397h164l-373 -363h-47z" />
<glyph unicode="&#xe2;" horiz-adv-x="964" d="M219 -33q-45 0 -76.5 24.5t-52 65.5t-30 93.5t-9.5 107.5q0 68 16.5 148.5t47 159.5t71.5 149.5t90 120.5q41 41 100.5 73.5t104.5 32.5t82 -22.5t64.5 -53t47 -62.5t32.5 -50h18l45 186h82l-96 -410l-109 -467l66 -14l166 166l32 -37q-16 -25 -45.5 -61.5t-62.5 -69.5 t-64.5 -56.5t-56.5 -23.5q-16 0 -37.5 7.5t-42 17.5t-35 22.5t-14.5 22.5q0 8 9 48t26.5 101.5t40 140.5t49.5 165h-21q-16 -25 -45.5 -73t-66.5 -106.5t-79 -120t-85 -111.5t-85 -82t-77 -32zM242 49q33 0 79 47t102 125t121.5 180.5t137.5 212.5l18 64q-20 25 -49.5 55.5 t-64.5 58t-73 46t-73 18.5q-29 0 -56.5 -15.5t-53.5 -41.5q-37 -37 -70 -100.5t-56.5 -137.5t-37.5 -147.5t-14 -130.5q0 -111 22.5 -172.5t67.5 -61.5zM520 1397h168l148 -363h-39l-99 144q-18 27 -35.5 53t-31.5 47q-16 23 -31 45h-4l-274 -289h-48z" />
<glyph unicode="&#xe3;" horiz-adv-x="964" d="M219 -33q-45 0 -76.5 24.5t-52 65.5t-30 93.5t-9.5 107.5q0 68 16.5 148.5t47 159.5t71.5 149.5t90 120.5q41 41 100.5 73.5t104.5 32.5t82 -22.5t64.5 -53t47 -62.5t32.5 -50h18l45 186h82l-96 -410l-109 -467l66 -14l166 166l32 -37q-16 -25 -45.5 -61.5t-62.5 -69.5 t-64.5 -56.5t-56.5 -23.5q-16 0 -37.5 7.5t-42 17.5t-35 22.5t-14.5 22.5q0 8 9 48t26.5 101.5t40 140.5t49.5 165h-21q-16 -25 -45.5 -73t-66.5 -106.5t-79 -120t-85 -111.5t-85 -82t-77 -32zM242 49q33 0 79 47t102 125t121.5 180.5t137.5 212.5l18 64q-20 25 -49.5 55.5 t-64.5 58t-73 46t-73 18.5q-29 0 -56.5 -15.5t-53.5 -41.5q-37 -37 -70 -100.5t-56.5 -137.5t-37.5 -147.5t-14 -130.5q0 -111 22.5 -172.5t67.5 -61.5zM700 1065q-41 0 -77.5 22.5t-68.5 50t-60.5 50t-53.5 22.5q-20 0 -37.5 -5t-34 -19.5t-34 -41t-37.5 -69.5h-55 q66 213 207 213q41 0 77.5 -22.5t69.5 -50t61.5 -50t51.5 -22.5q20 0 36.5 5t34 19.5t33.5 41t37 69.5h57q-66 -213 -207 -213z" />
<glyph unicode="&#xe4;" horiz-adv-x="964" d="M219 -33q-45 0 -76.5 24.5t-52 65.5t-30 93.5t-9.5 107.5q0 68 16.5 148.5t47 159.5t71.5 149.5t90 120.5q41 41 100.5 73.5t104.5 32.5t82 -22.5t64.5 -53t47 -62.5t32.5 -50h18l45 186h82l-96 -410l-109 -467l66 -14l166 166l32 -37q-16 -25 -45.5 -61.5t-62.5 -69.5 t-64.5 -56.5t-56.5 -23.5q-16 0 -37.5 7.5t-42 17.5t-35 22.5t-14.5 22.5q0 8 9 48t26.5 101.5t40 140.5t49.5 165h-21q-16 -25 -45.5 -73t-66.5 -106.5t-79 -120t-85 -111.5t-85 -82t-77 -32zM242 49q33 0 79 47t102 125t121.5 180.5t137.5 212.5l18 64q-20 25 -49.5 55.5 t-64.5 58t-73 46t-73 18.5q-29 0 -56.5 -15.5t-53.5 -41.5q-37 -37 -70 -100.5t-56.5 -137.5t-37.5 -147.5t-14 -130.5q0 -111 22.5 -172.5t67.5 -61.5zM778 1071q-45 0 -70.5 32t-25.5 71t25.5 69.5t70.5 30.5q43 0 67.5 -31t24.5 -69q0 -39 -24.5 -71t-67.5 -32zM369 1071 q-45 0 -69 32t-24 71t24 69.5t69 30.5t69.5 -31t24.5 -69q0 -39 -24.5 -71t-69.5 -32z" />
<glyph unicode="&#xe5;" horiz-adv-x="964" d="M582 1049q-86 0 -134.5 54t-48.5 130t48.5 130t134.5 54t135 -54t47 -130t-49 -130t-133 -54zM219 -33q-45 0 -76.5 24.5t-52 65.5t-30 93.5t-9.5 107.5q0 68 16.5 148.5t47 159.5t71.5 149.5t90 120.5q41 41 100.5 73.5t104.5 32.5t82 -22.5t64.5 -53t47 -62.5t32.5 -50 h18l45 186h82l-96 -410l-109 -467l66 -14l166 166l32 -37q-16 -25 -45.5 -61.5t-62.5 -69.5t-64.5 -56.5t-56.5 -23.5q-16 0 -37.5 7.5t-42 17.5t-35 22.5t-14.5 22.5q0 8 9 48t26.5 101.5t40 140.5t49.5 165h-21q-16 -25 -45.5 -73t-66.5 -106.5t-79 -120t-85 -111.5 t-85 -82t-77 -32zM584 1100q59 0 90 40t31 93t-32 93t-91 40t-90 -40t-33 -93t32 -93t93 -40zM242 49q33 0 79 47t102 125t121.5 180.5t137.5 212.5l18 64q-20 25 -49.5 55.5t-64.5 58t-73 46t-73 18.5q-29 0 -56.5 -15.5t-53.5 -41.5q-37 -37 -70 -100.5t-56.5 -137.5 t-37.5 -147.5t-14 -130.5q0 -111 22.5 -172.5t67.5 -61.5z" />
<glyph unicode="&#xe6;" horiz-adv-x="1206" d="M219 -33q-45 0 -76.5 24.5t-52 65.5t-30 93.5t-9.5 107.5q0 68 16.5 148.5t47 159.5t71.5 149.5t90 120.5q41 41 100.5 73.5t104.5 32.5t83 -22.5t66.5 -54t48 -64.5t32.5 -51q66 86 147.5 138t167.5 52q45 0 83 -14.5t64.5 -37t41 -49t14.5 -51.5q0 -37 -20.5 -66.5 t-81 -71.5t-171 -105.5t-290.5 -169.5q-2 -16 -2 -31.5v-32.5q0 -72 18 -123t47 -83.5t62.5 -47t66.5 -14.5q23 0 54.5 14.5t66.5 38t68.5 51t62.5 56.5l33 -37q-31 -35 -72 -70t-85 -63.5t-87 -47t-78 -18.5q-55 0 -102 23.5t-82 65.5t-54.5 100.5t-19.5 126.5q0 23 1 43 t3 41q-41 -72 -86 -143.5t-91 -129t-90 -92.5t-81 -35zM676 440q141 84 230 134.5t139.5 83t67.5 56t17 54.5q0 20 -14 41.5t-37.5 38t-55.5 27t-67 10.5q-20 0 -48.5 -18.5t-49.5 -39.5q-25 -25 -52.5 -65.5t-53 -92t-47 -109.5t-33.5 -120h4zM242 49q33 0 79 47t98 125 t108.5 180.5t113.5 212.5l18 64q-12 25 -34.5 55.5t-52 58t-63.5 46t-69 18.5q-29 0 -56.5 -15.5t-53.5 -41.5q-37 -37 -70 -100.5t-56.5 -137.5t-37.5 -147.5t-14 -130.5q0 -111 22.5 -172.5t67.5 -61.5z" />
<glyph unicode="&#xe7;" horiz-adv-x="718" d="M281 -29q-94 16 -156 101.5t-62 210.5q0 135 40 253.5t105.5 209t148.5 142.5t169 52q37 0 74 -7t67.5 -22.5t50 -40t19.5 -59.5q0 -39 -20.5 -63.5t-59.5 -24.5q-29 0 -47 15.5t-18 43.5q0 20 14 45q-10 14 -58 36t-102 22q-12 0 -39.5 -18.5t-48.5 -39.5 q-33 -33 -66.5 -89t-62 -125.5t-47 -147.5t-18.5 -154q0 -72 18.5 -123t47 -83.5t62.5 -47t66 -14.5q23 0 54.5 14.5t66.5 38t69 51t62 56.5l33 -37q-29 -31 -65.5 -63.5t-77.5 -60.5t-81 -47.5t-75 -25.5l-102 -96q100 8 167.5 -33t67.5 -119q0 -51 -30.5 -94t-86 -75.5 t-134.5 -55t-173 -31.5l-8 37q176 27 260 77t84 130q0 43 -39 72t-121 29q-20 0 -47.5 -2.5t-54.5 -6.5l4 25l150 145v0z" />
<glyph unicode="&#xe8;" horiz-adv-x="702" d="M322 -33q-55 0 -102.5 23.5t-82.5 65.5t-54.5 100.5t-19.5 126.5q0 135 41 253.5t105.5 209t146.5 142.5t164 52q49 0 87 -15.5t63.5 -39t40 -52t14.5 -53.5q0 -43 -19.5 -77.5t-79 -78.5t-169 -108.5t-291.5 -165.5q-2 -16 -2 -19v-20q0 -72 18.5 -123t47 -83.5 t62.5 -47t66 -14.5q23 0 54.5 14.5t66.5 38t69 51t62 56.5l33 -37q-31 -35 -72 -70t-85 -63.5t-86.5 -47t-77.5 -18.5zM176 410q129 72 214 122t135 88.5t70.5 71.5t20.5 72q0 51 -34.5 86t-85.5 35q-43 0 -82 -24.5t-68 -53.5q-23 -23 -47.5 -61.5t-49 -91t-45 -114 t-32.5 -126.5l2 -2q0 -2 1 -3t1 1zM233 1397h164l158 -363h-47z" />
<glyph unicode="&#xe9;" horiz-adv-x="702" d="M322 -33q-55 0 -102.5 23.5t-82.5 65.5t-54.5 100.5t-19.5 126.5q0 135 41 253.5t105.5 209t146.5 142.5t164 52q49 0 87 -15.5t63.5 -39t40 -52t14.5 -53.5q0 -43 -19.5 -77.5t-79 -78.5t-169 -108.5t-291.5 -165.5q-2 -16 -2 -19v-20q0 -72 18.5 -123t47 -83.5 t62.5 -47t66 -14.5q23 0 54.5 14.5t66.5 38t69 51t62 56.5l33 -37q-31 -35 -72 -70t-85 -63.5t-86.5 -47t-77.5 -18.5zM176 410q129 72 214 122t135 88.5t70.5 71.5t20.5 72q0 51 -34.5 86t-85.5 35q-43 0 -82 -24.5t-68 -53.5q-23 -23 -47.5 -61.5t-49 -91t-45 -114 t-32.5 -126.5l2 -2q0 -2 1 -3t1 1zM655 1397h164l-373 -363h-47z" />
<glyph unicode="&#xea;" horiz-adv-x="702" d="M322 -33q-55 0 -102.5 23.5t-82.5 65.5t-54.5 100.5t-19.5 126.5q0 135 41 253.5t105.5 209t146.5 142.5t164 52q49 0 87 -15.5t63.5 -39t40 -52t14.5 -53.5q0 -43 -19.5 -77.5t-79 -78.5t-169 -108.5t-291.5 -165.5q-2 -16 -2 -19v-20q0 -72 18.5 -123t47 -83.5 t62.5 -47t66 -14.5q23 0 54.5 14.5t66.5 38t69 51t62 56.5l33 -37q-31 -35 -72 -70t-85 -63.5t-86.5 -47t-77.5 -18.5zM176 410q129 72 214 122t135 88.5t70.5 71.5t20.5 72q0 51 -34.5 86t-85.5 35q-43 0 -82 -24.5t-68 -53.5q-23 -23 -47.5 -61.5t-49 -91t-45 -114 t-32.5 -126.5l2 -2q0 -2 1 -3t1 1zM451 1397h167l148 -363h-39l-98 144q-18 27 -36 53t-32 47q-16 23 -31 45h-4l-274 -289h-47z" />
<glyph unicode="&#xeb;" horiz-adv-x="702" d="M322 -33q-55 0 -102.5 23.5t-82.5 65.5t-54.5 100.5t-19.5 126.5q0 135 41 253.5t105.5 209t146.5 142.5t164 52q49 0 87 -15.5t63.5 -39t40 -52t14.5 -53.5q0 -43 -19.5 -77.5t-79 -78.5t-169 -108.5t-291.5 -165.5q-2 -16 -2 -19v-20q0 -72 18.5 -123t47 -83.5 t62.5 -47t66 -14.5q23 0 54.5 14.5t66.5 38t69 51t62 56.5l33 -37q-31 -35 -72 -70t-85 -63.5t-86.5 -47t-77.5 -18.5zM176 410q129 72 214 122t135 88.5t70.5 71.5t20.5 72q0 51 -34.5 86t-85.5 35q-43 0 -82 -24.5t-68 -53.5q-23 -23 -47.5 -61.5t-49 -91t-45 -114 t-32.5 -126.5l2 -2q0 -2 1 -3t1 1zM709 1071q-45 0 -71 32t-26 71t26 69.5t71 30.5q43 0 67.5 -31t24.5 -69q0 -39 -24.5 -71t-67.5 -32zM299 1071q-45 0 -68.5 32t-23.5 71t23.5 69.5t68.5 30.5t69.5 -31t24.5 -69q0 -39 -24.5 -71t-69.5 -32z" />
<glyph unicode="&#xec;" horiz-adv-x="532" d="M238 -33q-16 0 -38 7.5t-41.5 17.5t-32.5 22.5t-11 22.5l223 807l-66 14l-166 -166l-32 37q16 25 46 61.5t62.5 69.5t64.5 56.5t56 23.5q14 0 38 -7t45.5 -17.5t35.5 -22.5t12 -23l-231 -807l65 -14l166 166l33 -37q-16 -25 -46 -61.5t-62.5 -69.5t-64 -56.5t-56.5 -23.5 zM109 1397h163l158 -363h-47z" />
<glyph unicode="&#xed;" horiz-adv-x="532" d="M238 -33q-16 0 -38 7.5t-41.5 17.5t-32.5 22.5t-11 22.5l223 807l-66 14l-166 -166l-32 37q16 25 46 61.5t62.5 69.5t64.5 56.5t56 23.5q14 0 38 -7t45.5 -17.5t35.5 -22.5t12 -23l-231 -807l65 -14l166 166l33 -37q-16 -25 -46 -61.5t-62.5 -69.5t-64 -56.5t-56.5 -23.5 zM551 1397h164l-373 -363h-47z" />
<glyph unicode="&#xee;" horiz-adv-x="532" d="M326 1397h168l147 -363h-39l-98 144q-18 27 -35.5 53t-32.5 47q-16 23 -30 45h-5l-274 -289h-47zM238 -33q-16 0 -38 7.5t-41.5 17.5t-32.5 22.5t-11 22.5l223 807l-66 14l-166 -166l-32 37q16 25 46 61.5t62.5 69.5t64.5 56.5t56 23.5q14 0 38 -7t45.5 -17.5t35.5 -22.5 t12 -23l-231 -807l65 -14l166 166l33 -37q-16 -25 -46 -61.5t-62.5 -69.5t-64 -56.5t-56.5 -23.5z" />
<glyph unicode="&#xef;" horiz-adv-x="532" d="M238 -33q-16 0 -38 7.5t-41.5 17.5t-32.5 22.5t-11 22.5l223 807l-66 14l-166 -166l-32 37q16 25 46 61.5t62.5 69.5t64.5 56.5t56 23.5q14 0 38 -7t45.5 -17.5t35.5 -22.5t12 -23l-231 -807l65 -14l166 166l33 -37q-16 -25 -46 -61.5t-62.5 -69.5t-64 -56.5t-56.5 -23.5 zM563 1071q-45 0 -70.5 32t-25.5 71t25.5 69.5t70.5 30.5q43 0 67.5 -31t24.5 -69q0 -39 -24.5 -71t-67.5 -32zM154 1071q-45 0 -69 32t-24 71t24 69.5t69 30.5t69.5 -31t24.5 -69q0 -39 -24.5 -71t-69.5 -32z" />
<glyph unicode="&#xf0;" horiz-adv-x="878" d="M356 -33q-78 0 -132 35t-88 89t-50 122t-16 133q0 92 30.5 195.5t88 192.5t141.5 147.5t188 58.5q98 0 150.5 -50t81.5 -136q-8 109 -46 211t-110 188l-322 -100l19 77l252 78q-90 90 -219 146l53 30q72 -25 132 -63.5t112 -87.5l311 96l-19 -78q-68 -20 -120 -37 q-23 -8 -44.5 -14t-37.5 -10q-20 -6 -39 -12q82 -100 125 -223.5t41 -258.5q0 -74 -14.5 -156.5t-43 -163.5t-69.5 -155t-94.5 -130t-119 -90t-141.5 -34zM373 27q57 0 104 30.5t84 79.5t64.5 111.5t46.5 126.5q16 57 24.5 110.5t8.5 94.5q0 55 -10.5 109t-34 97t-62.5 69 t-96 26q-55 0 -102.5 -31t-85.5 -80t-65.5 -111.5t-45.5 -126.5q-16 -59 -24.5 -112t-8.5 -94q0 -55 10 -109.5t34 -96.5t63 -67.5t96 -25.5z" />
<glyph unicode="&#xf1;" horiz-adv-x="1054" d="M760 -33q-16 0 -37 7.5t-39 17.5t-31.5 22.5t-13.5 22.5q0 23 10 64.5t26.5 97t36 121t40.5 135.5q35 119 59.5 203.5t24.5 109.5q0 39 -36 67.5t-73 28.5q-23 0 -73 -63.5t-114.5 -164.5t-135 -225t-136.5 -247l-26 -172l-109 10l64 301l120 541l-65 14l-166 -166 l-33 37q16 25 46 61.5t63 69.5t64.5 56.5t56.5 23.5q14 0 36.5 -7t43 -17.5t35 -22.5t14.5 -23q0 -16 -35 -157.5t-94 -388.5h20q45 86 96.5 173t99.5 162.5t89 133t63 86.5q12 16 38 38.5t61 22.5q33 0 64.5 -11t57 -31.5t41 -48.5t15.5 -58q0 -16 -8.5 -54.5t-22.5 -88.5 t-30.5 -106.5t-30.5 -107.5l-111 -371l66 -14l165 166l33 -37q-16 -25 -46 -61.5t-62.5 -69.5t-64 -56.5t-56.5 -23.5zM745 1065q-41 0 -77.5 22.5t-68.5 50t-60.5 50t-53.5 22.5q-20 0 -37.5 -5t-34 -19.5t-34 -41t-37.5 -69.5h-55q66 213 207 213q41 0 77.5 -22.5 t69.5 -50t61.5 -50t51.5 -22.5q20 0 36.5 5t34 19.5t33.5 41t37 69.5h57q-66 -213 -207 -213z" />
<glyph unicode="&#xf2;" horiz-adv-x="878" d="M356 -33q-78 0 -132 35t-88 89t-50 122t-16 133q0 92 30.5 195.5t88 192.5t141.5 147.5t188 58.5q76 0 131.5 -35t89 -90t50 -122.5t16.5 -133.5q0 -92 -31 -195.5t-88 -191.5t-141.5 -146.5t-188.5 -58.5zM373 27q57 0 104 30.5t84 79.5t64.5 111.5t46.5 126.5 q16 57 24.5 110.5t8.5 94.5q0 55 -10.5 109t-34 97t-62.5 69t-96 26q-55 0 -102.5 -31t-85.5 -80t-65.5 -111.5t-45.5 -126.5q-16 -59 -24.5 -112t-8.5 -94q0 -55 10 -109.5t34 -96.5t63 -67.5t96 -25.5zM301 1397h164l158 -363h-48z" />
<glyph unicode="&#xf3;" horiz-adv-x="878" d="M356 -33q-78 0 -132 35t-88 89t-50 122t-16 133q0 92 30.5 195.5t88 192.5t141.5 147.5t188 58.5q76 0 131.5 -35t89 -90t50 -122.5t16.5 -133.5q0 -92 -31 -195.5t-88 -191.5t-141.5 -146.5t-188.5 -58.5zM373 27q57 0 104 30.5t84 79.5t64.5 111.5t46.5 126.5 q16 57 24.5 110.5t8.5 94.5q0 55 -10.5 109t-34 97t-62.5 69t-96 26q-55 0 -102.5 -31t-85.5 -80t-65.5 -111.5t-45.5 -126.5q-16 -59 -24.5 -112t-8.5 -94q0 -55 10 -109.5t34 -96.5t63 -67.5t96 -25.5zM723 1397h164l-373 -363h-47z" />
<glyph unicode="&#xf4;" horiz-adv-x="878" d="M356 -33q-78 0 -132 35t-88 89t-50 122t-16 133q0 92 30.5 195.5t88 192.5t141.5 147.5t188 58.5q76 0 131.5 -35t89 -90t50 -122.5t16.5 -133.5q0 -92 -31 -195.5t-88 -191.5t-141.5 -146.5t-188.5 -58.5zM373 27q57 0 104 30.5t84 79.5t64.5 111.5t46.5 126.5 q16 57 24.5 110.5t8.5 94.5q0 55 -10.5 109t-34 97t-62.5 69t-96 26q-55 0 -102.5 -31t-85.5 -80t-65.5 -111.5t-45.5 -126.5q-16 -59 -24.5 -112t-8.5 -94q0 -55 10 -109.5t34 -96.5t63 -67.5t96 -25.5zM498 1397h168l147 -363h-39l-98 144q-18 27 -35.5 53t-32.5 47 q-16 23 -30 45h-5l-274 -289h-47z" />
<glyph unicode="&#xf5;" horiz-adv-x="878" d="M356 -33q-78 0 -132 35t-88 89t-50 122t-16 133q0 92 30.5 195.5t88 192.5t141.5 147.5t188 58.5q76 0 131.5 -35t89 -90t50 -122.5t16.5 -133.5q0 -92 -31 -195.5t-88 -191.5t-141.5 -146.5t-188.5 -58.5zM373 27q57 0 104 30.5t84 79.5t64.5 111.5t46.5 126.5 q16 57 24.5 110.5t8.5 94.5q0 55 -10.5 109t-34 97t-62.5 69t-96 26q-55 0 -102.5 -31t-85.5 -80t-65.5 -111.5t-45.5 -126.5q-16 -59 -24.5 -112t-8.5 -94q0 -55 10 -109.5t34 -96.5t63 -67.5t96 -25.5zM678 1065q-41 0 -78 22.5t-68.5 50t-60.5 50t-53 22.5q-20 0 -38 -5 t-34 -19.5t-33.5 -41t-38.5 -69.5h-55q66 213 207 213q41 0 78 -22.5t69.5 -50t61.5 -50t51 -22.5q20 0 36.5 5t34 19.5t34 41t36.5 69.5h58q-66 -213 -207 -213z" />
<glyph unicode="&#xf6;" horiz-adv-x="878" d="M356 -33q-78 0 -132 35t-88 89t-50 122t-16 133q0 92 30.5 195.5t88 192.5t141.5 147.5t188 58.5q76 0 131.5 -35t89 -90t50 -122.5t16.5 -133.5q0 -92 -31 -195.5t-88 -191.5t-141.5 -146.5t-188.5 -58.5zM373 27q57 0 104 30.5t84 79.5t64.5 111.5t46.5 126.5 q16 57 24.5 110.5t8.5 94.5q0 55 -10.5 109t-34 97t-62.5 69t-96 26q-55 0 -102.5 -31t-85.5 -80t-65.5 -111.5t-45.5 -126.5q-16 -59 -24.5 -112t-8.5 -94q0 -55 10 -109.5t34 -96.5t63 -67.5t96 -25.5zM756 1071q-45 0 -71 32t-26 71t26 69.5t71 30.5q43 0 67.5 -31 t24.5 -69q0 -39 -24.5 -71t-67.5 -32zM346 1071q-45 0 -68.5 32t-23.5 71t23.5 69.5t68.5 30.5t69.5 -31t24.5 -69q0 -39 -24.5 -71t-69.5 -32z" />
<glyph unicode="&#xf7;" horiz-adv-x="983" d="M72 436l6 88h827l6 -88h-839zM397 764q0 41 27 68.5t68 27.5t68.5 -27.5t27.5 -68.5t-28 -67.5t-68 -26.5q-41 0 -68 26.5t-27 67.5zM397 195q0 41 27 68.5t68 27.5t68.5 -27.5t27.5 -68.5t-28 -68t-68 -27q-41 0 -68 27t-27 68z" />
<glyph unicode="&#xf8;" horiz-adv-x="878" d="M137 88q-35 55 -51 124t-16 134q0 92 30.5 195.5t88 192.5t141.5 147.5t188 58.5q57 0 101.5 -19.5t76.5 -52.5l135 189h70q-47 -63 -84 -117q-16 -23 -30.5 -44.5t-26.5 -37.5q-14 -20 -27 -37q37 -55 54.5 -124.5t17.5 -137.5q0 -92 -31 -195.5t-88 -191.5t-141 -146.5 t-189 -58.5q-57 0 -101 19.5t-79 52.5l-135 -191h-76zM649 803q-25 35 -59.5 56.5t-87.5 21.5q-55 0 -102.5 -31t-85.5 -80t-65.5 -111.5t-45.5 -126.5q-16 -59 -24.5 -112t-8.5 -94t5 -82t18 -78zM373 27q57 0 104 30.5t84 79.5t64.5 111.5t46.5 126.5q16 57 24.5 110.5 t8.5 94.5q0 43 -6.5 85t-20.5 78l-455 -639q25 -35 61 -56t89 -21z" />
<glyph unicode="&#xf9;" horiz-adv-x="1054" d="M283 -33q-66 0 -111 43t-45 107q0 16 8 54t22.5 88t30 106.5t31.5 107.5l111 371l-66 14l-166 -166l-32 37q16 25 45.5 61.5t62.5 69.5t64.5 56.5t56.5 23.5q14 0 35.5 -7t40 -17.5t32 -22.5t13.5 -23q0 -23 -10.5 -64.5t-27 -97t-35.5 -121t-40 -134.5 q-35 -119 -59.5 -203t-24.5 -109q0 -39 36 -68.5t73 -29.5q23 0 73 63.5t114.5 165t135 225.5t135.5 246l37 172l109 -10l-74 -301l-121 -541l66 -14l166 166l32 -37q-16 -25 -45.5 -61.5t-62.5 -69.5t-64.5 -56.5t-56.5 -23.5q-16 0 -37.5 7.5t-42 17.5t-35 22.5 t-14.5 22.5q0 16 35 157.5t94 389.5h-20q-43 -86 -94.5 -173t-100.5 -163t-90 -134.5t-64 -84.5q-12 -16 -42.5 -39t-77.5 -23zM348 1397h164l158 -363h-47z" />
<glyph unicode="&#xfa;" horiz-adv-x="1054" d="M283 -33q-66 0 -111 43t-45 107q0 16 8 54t22.5 88t30 106.5t31.5 107.5l111 371l-66 14l-166 -166l-32 37q16 25 45.5 61.5t62.5 69.5t64.5 56.5t56.5 23.5q14 0 35.5 -7t40 -17.5t32 -22.5t13.5 -23q0 -23 -10.5 -64.5t-27 -97t-35.5 -121t-40 -134.5 q-35 -119 -59.5 -203t-24.5 -109q0 -39 36 -68.5t73 -29.5q23 0 73 63.5t114.5 165t135 225.5t135.5 246l37 172l109 -10l-74 -301l-121 -541l66 -14l166 166l32 -37q-16 -25 -45.5 -61.5t-62.5 -69.5t-64.5 -56.5t-56.5 -23.5q-16 0 -37.5 7.5t-42 17.5t-35 22.5 t-14.5 22.5q0 16 35 157.5t94 389.5h-20q-43 -86 -94.5 -173t-100.5 -163t-90 -134.5t-64 -84.5q-12 -16 -42.5 -39t-77.5 -23zM791 1397h163l-372 -363h-47z" />
<glyph unicode="&#xfb;" horiz-adv-x="1054" d="M283 -33q-66 0 -111 43t-45 107q0 16 8 54t22.5 88t30 106.5t31.5 107.5l111 371l-66 14l-166 -166l-32 37q16 25 45.5 61.5t62.5 69.5t64.5 56.5t56.5 23.5q14 0 35.5 -7t40 -17.5t32 -22.5t13.5 -23q0 -23 -10.5 -64.5t-27 -97t-35.5 -121t-40 -134.5 q-35 -119 -59.5 -203t-24.5 -109q0 -39 36 -68.5t73 -29.5q23 0 73 63.5t114.5 165t135 225.5t135.5 246l37 172l109 -10l-74 -301l-121 -541l66 -14l166 166l32 -37q-16 -25 -45.5 -61.5t-62.5 -69.5t-64.5 -56.5t-56.5 -23.5q-16 0 -37.5 7.5t-42 17.5t-35 22.5 t-14.5 22.5q0 16 35 157.5t94 389.5h-20q-43 -86 -94.5 -173t-100.5 -163t-90 -134.5t-64 -84.5q-12 -16 -42.5 -39t-77.5 -23zM586 1397h168l147 -363h-39l-98 144q-18 27 -35.5 53t-32.5 47q-16 23 -30 45h-4l-275 -289h-47z" />
<glyph unicode="&#xfc;" horiz-adv-x="1054" d="M283 -33q-66 0 -111 43t-45 107q0 16 8 54t22.5 88t30 106.5t31.5 107.5l111 371l-66 14l-166 -166l-32 37q16 25 45.5 61.5t62.5 69.5t64.5 56.5t56.5 23.5q14 0 35.5 -7t40 -17.5t32 -22.5t13.5 -23q0 -23 -10.5 -64.5t-27 -97t-35.5 -121t-40 -134.5 q-35 -119 -59.5 -203t-24.5 -109q0 -39 36 -68.5t73 -29.5q23 0 73 63.5t114.5 165t135 225.5t135.5 246l37 172l109 -10l-74 -301l-121 -541l66 -14l166 166l32 -37q-16 -25 -45.5 -61.5t-62.5 -69.5t-64.5 -56.5t-56.5 -23.5q-16 0 -37.5 7.5t-42 17.5t-35 22.5 t-14.5 22.5q0 16 35 157.5t94 389.5h-20q-43 -86 -94.5 -173t-100.5 -163t-90 -134.5t-64 -84.5q-12 -16 -42.5 -39t-77.5 -23zM844 1071q-45 0 -70.5 32t-25.5 71t25.5 69.5t70.5 30.5q43 0 67.5 -31t24.5 -69q0 -39 -24.5 -71t-67.5 -32zM434 1071q-45 0 -68.5 32 t-23.5 71t23.5 69.5t68.5 30.5t69.5 -31t24.5 -69q0 -39 -24.5 -71t-69.5 -32z" />
<glyph unicode="&#xfd;" horiz-adv-x="878" d="M-84 -524q-61 0 -108.5 31.5t-47.5 82.5q0 37 21.5 60.5t54.5 23.5q37 0 61.5 -30.5t14.5 -75.5l106 -23q4 2 19.5 21.5t36 50.5t46 70t52.5 80q61 94 137 213l-37 10l-8 839l-61 13l-160 -162l-35 35q14 27 42 64.5t59.5 73.5t62.5 61.5t55 25.5q14 0 36 -10t42.5 -23.5 t33.5 -29t13 -27.5v-774h17l370 620l25 68q-31 4 -62.5 24.5t-31.5 65.5q0 35 24.5 60.5t59.5 25.5q47 0 76.5 -29.5t29.5 -76.5q0 -53 -26.5 -106.5t-73.5 -127.5l-311 -491l-117 -179q-68 -135 -120 -223t-98 -139t-92.5 -71.5t-105.5 -20.5zM662 1397h163l-372 -363h-47z " />
<glyph unicode="&#xfe;" horiz-adv-x="907" d="M-205 -440l164 14q4 -4 8 1t6 11l381 1702q6 27 -20 31l-170 14l6 51l313 43l-114 -479l-176 -639h20q53 102 114.5 212t124 202t121 153.5t105.5 65.5q45 0 77.5 -24.5t54 -64.5t32 -89t10.5 -98q0 -68 -15.5 -147t-43 -156.5t-65.5 -146.5t-81 -112q-59 -59 -131 -98 t-139 -39q-61 0 -114.5 19.5t-94.5 46.5h-6l-92 -447q0 -4 1 -10t5 -2l186 -14l4 -64h-475zM408 27q20 0 63 16t74 47q43 43 80 110.5t65.5 145.5t45 156t16.5 141q0 82 -29 145.5t-82 69.5q-25 0 -67 -46t-96 -130t-120.5 -199.5t-140.5 -253.5l-22 -92q18 -18 43.5 -37.5 t53 -36t57.5 -26.5t59 -10z" />
<glyph unicode="&#xff;" horiz-adv-x="878" d="M-84 -524q-61 0 -108.5 31.5t-47.5 82.5q0 37 21.5 60.5t54.5 23.5q37 0 61.5 -30.5t14.5 -75.5l106 -23q4 2 19.5 21.5t36 50.5t46 70t52.5 80q61 94 137 213l-37 10l-8 839l-61 13l-160 -162l-35 35q14 27 42 64.5t59.5 73.5t62.5 61.5t55 25.5q14 0 36 -10t42.5 -23.5 t33.5 -29t13 -27.5v-774h17l370 620l25 68q-31 4 -62.5 24.5t-31.5 65.5q0 35 24.5 60.5t59.5 25.5q47 0 76.5 -29.5t29.5 -76.5q0 -53 -26.5 -106.5t-73.5 -127.5l-311 -491l-117 -179q-68 -135 -120 -223t-98 -139t-92.5 -71.5t-105.5 -20.5zM756 1071q-45 0 -71 32 t-26 71t26 69.5t71 30.5q43 0 67.5 -31t24.5 -69q0 -39 -24.5 -71t-67.5 -32zM346 1071q-45 0 -68.5 32t-23.5 71t23.5 69.5t68.5 30.5t69.5 -31t24.5 -69q0 -39 -24.5 -71t-69.5 -32z" />
<glyph unicode="&#x100;" horiz-adv-x="1118" d="M-100 63l139 15q10 0 16 14l512 1131v41l150 41l233 -1211q2 -6 4 -10t13 -6l139 -15l6 -63h-450l6 63l157 13q6 0 11.5 4t3.5 10l-72 379h-459l-166 -373q-8 -14 4 -14l156 -19l6 -63h-415zM754 547l-119 633h-10l-281 -633h410zM459 1516h469l8 -78h-481z" />
<glyph unicode="&#x101;" horiz-adv-x="964" d="M219 -33q-45 0 -76.5 24.5t-52 65.5t-30 93.5t-9.5 107.5q0 68 16.5 148.5t47 159.5t71.5 149.5t90 120.5q41 41 100.5 73.5t104.5 32.5t82 -22.5t64.5 -53t47 -62.5t32.5 -50h18l45 186h82l-96 -410l-109 -467l66 -14l166 166l32 -37q-16 -25 -45.5 -61.5t-62.5 -69.5 t-64.5 -56.5t-56.5 -23.5q-16 0 -37.5 7.5t-42 17.5t-35 22.5t-14.5 22.5q0 8 9 48t26.5 101.5t40 140.5t49.5 165h-21q-16 -25 -45.5 -73t-66.5 -106.5t-79 -120t-85 -111.5t-85 -82t-77 -32zM242 49q33 0 79 47t102 125t121.5 180.5t137.5 212.5l18 64q-20 25 -49.5 55.5 t-64.5 58t-73 46t-73 18.5q-29 0 -56.5 -15.5t-53.5 -41.5q-37 -37 -70 -100.5t-56.5 -137.5t-37.5 -147.5t-14 -130.5q0 -111 22.5 -172.5t67.5 -61.5zM403 1176h469l9 -78h-482z" />
<glyph unicode="&#x102;" horiz-adv-x="1118" d="M-100 63l139 15q10 0 16 14l512 1131v41l150 41l233 -1211q2 -6 4 -10t13 -6l139 -15l6 -63h-450l6 63l157 13q6 0 11.5 4t3.5 10l-72 379h-459l-166 -373q-8 -14 4 -14l156 -19l6 -63h-415zM754 547l-119 633h-10l-281 -633h410zM657 1374q-68 0 -110.5 35t-67 88 t-36 116.5t-17.5 123.5h49q23 -158 71 -220.5t120 -62.5t135 62.5t129 220.5h57q-23 -59 -50.5 -123t-65 -117t-91 -88t-123.5 -35z" />
<glyph unicode="&#x103;" horiz-adv-x="964" d="M219 -33q-45 0 -76.5 24.5t-52 65.5t-30 93.5t-9.5 107.5q0 68 16.5 148.5t47 159.5t71.5 149.5t90 120.5q41 41 100.5 73.5t104.5 32.5t82 -22.5t64.5 -53t47 -62.5t32.5 -50h18l45 186h82l-96 -410l-109 -467l66 -14l166 166l32 -37q-16 -25 -45.5 -61.5t-62.5 -69.5 t-64.5 -56.5t-56.5 -23.5q-16 0 -37.5 7.5t-42 17.5t-35 22.5t-14.5 22.5q0 8 9 48t26.5 101.5t40 140.5t49.5 165h-21q-16 -25 -45.5 -73t-66.5 -106.5t-79 -120t-85 -111.5t-85 -82t-77 -32zM242 49q33 0 79 47t102 125t121.5 180.5t137.5 212.5l18 64q-20 25 -49.5 55.5 t-64.5 58t-73 46t-73 18.5q-29 0 -56.5 -15.5t-53.5 -41.5q-37 -37 -70 -100.5t-56.5 -137.5t-37.5 -147.5t-14 -130.5q0 -111 22.5 -172.5t67.5 -61.5zM602 1034q-68 0 -110.5 35t-67.5 88t-36 116.5t-17 123.5h49q23 -158 71 -220.5t119 -62.5q72 0 135.5 62.5 t128.5 220.5h58q-23 -59 -50.5 -123t-65.5 -117t-91 -88t-123 -35z" />
<glyph unicode="&#x104;" horiz-adv-x="1118" d="M889 -408q-66 6 -102.5 48.5t-22.5 113.5q8 45 31.5 82t55.5 67.5t69.5 54.5t74.5 42h-333l6 63l157 13q6 0 11.5 4t3.5 10l-72 379h-459l-166 -373q-8 -14 4 -14l156 -19l6 -63h-415l6 63l139 15q10 0 16 14l512 1131v41l150 41l233 -1211q2 -6 4 -10t13 -6l139 -15 l6 -63q-43 -8 -85 -31.5t-79 -56.5t-62.5 -69t-33.5 -68q-10 -41 3 -78t60 -41q35 -4 65 6t46 31l23 -25q-29 -35 -66 -58.5t-94 -17.5zM635 1180h-10l-281 -633h410z" />
<glyph unicode="&#x105;" horiz-adv-x="964" d="M612 -408q-66 6 -100.5 49.5t-17.5 118.5q12 59 54 114.5t95 98.5q-31 10 -60.5 28.5t-29.5 35.5q0 8 9 48t26.5 101.5t40 140.5t49.5 165h-21q-16 -25 -45.5 -73t-66.5 -106.5t-79 -120t-85 -111.5t-85 -82t-77 -32q-45 0 -76.5 24.5t-52 65.5t-30 93.5t-9.5 107.5 q0 68 16.5 148.5t47 159.5t71.5 149.5t90 120.5q41 41 100.5 73.5t104.5 32.5t82 -22.5t64.5 -53t47 -62.5t32.5 -50h18l45 186h82l-96 -410l-109 -467l66 -14l166 166l32 -37q-14 -20 -34.5 -48t-45 -55.5t-50 -53t-48.5 -39.5q-61 -41 -101 -96.5t-50 -104.5t2 -85t55 -40 q35 -4 64.5 6t46.5 31l22 -25q-29 -35 -66 -58.5t-94 -17.5zM700 678q-20 25 -49.5 55.5t-64.5 58t-73 46t-73 18.5q-29 0 -56.5 -15.5t-53.5 -41.5q-37 -37 -70 -100.5t-56.5 -137.5t-37.5 -147.5t-14 -130.5q0 -111 22.5 -172.5t67.5 -61.5q33 0 79 47t102 125 t121.5 180.5t137.5 212.5z" />
<glyph unicode="&#x106;" horiz-adv-x="1228" d="M647 -29q-123 0 -223 37t-172 105.5t-111 168t-39 224.5q0 154 49.5 298t141.5 255.5t226 180.5t306 69q68 0 129.5 -8.5t122.5 -24.5l144 35l-54 -404h-65l-10 275q-66 29 -136.5 45t-138.5 16q-141 0 -252.5 -64.5t-188.5 -169t-117 -234.5t-40 -259q0 -104 27.5 -192 t82 -151.5t136.5 -99.5t192 -36q72 0 137.5 16.5t129.5 42.5l114 269h70l-102 -369l-68 22q-72 -18 -144.5 -32.5t-146.5 -14.5zM940 1737h164l-373 -363h-47z" />
<glyph unicode="&#x107;" horiz-adv-x="718" d="M322 -33q-55 0 -102.5 23.5t-82.5 65.5t-54.5 100.5t-19.5 126.5q0 135 40 253.5t105.5 209t148.5 142.5t169 52q37 0 74 -7t67.5 -22.5t50 -40t19.5 -59.5q0 -39 -20.5 -63.5t-59.5 -24.5q-29 0 -47 15.5t-18 43.5q0 20 14 45q-10 14 -58 36t-102 22q-12 0 -39.5 -18.5 t-48.5 -39.5q-33 -33 -66.5 -89t-62 -125.5t-47 -147.5t-18.5 -154q0 -72 18.5 -123t47 -83.5t62.5 -47t66 -14.5q23 0 54.5 14.5t66.5 38t69 51t62 56.5l33 -37q-31 -35 -72 -70t-85 -63.5t-86.5 -47t-77.5 -18.5zM643 1397h164l-373 -363h-47z" />
<glyph unicode="&#x108;" horiz-adv-x="1228" d="M647 -29q-123 0 -223 37t-172 105.5t-111 168t-39 224.5q0 154 49.5 298t141.5 255.5t226 180.5t306 69q68 0 129.5 -8.5t122.5 -24.5l144 35l-54 -404h-65l-10 275q-66 29 -136.5 45t-138.5 16q-141 0 -252.5 -64.5t-188.5 -169t-117 -234.5t-40 -259q0 -104 27.5 -192 t82 -151.5t136.5 -99.5t192 -36q72 0 137.5 16.5t129.5 42.5l114 269h70l-102 -369l-68 22q-72 -18 -144.5 -32.5t-146.5 -14.5zM756 1737h168l147 -363h-39l-98 144q-18 27 -35.5 53t-32.5 47q-16 23 -30 45h-5l-274 -289h-47z" />
<glyph unicode="&#x109;" horiz-adv-x="718" d="M322 -33q-55 0 -102.5 23.5t-82.5 65.5t-54.5 100.5t-19.5 126.5q0 135 40 253.5t105.5 209t148.5 142.5t169 52q37 0 74 -7t67.5 -22.5t50 -40t19.5 -59.5q0 -39 -20.5 -63.5t-59.5 -24.5q-29 0 -47 15.5t-18 43.5q0 20 14 45q-10 14 -58 36t-102 22q-12 0 -39.5 -18.5 t-48.5 -39.5q-33 -33 -66.5 -89t-62 -125.5t-47 -147.5t-18.5 -154q0 -72 18.5 -123t47 -83.5t62.5 -47t66 -14.5q23 0 54.5 14.5t66.5 38t69 51t62 56.5l33 -37q-31 -35 -72 -70t-85 -63.5t-86.5 -47t-77.5 -18.5zM418 1397h168l147 -363h-39l-98 144q-18 27 -35.5 53 t-32.5 47q-16 23 -30 45h-4l-275 -289h-47z" />
<glyph unicode="&#x10a;" horiz-adv-x="1228" d="M647 -29q-123 0 -223 37t-172 105.5t-111 168t-39 224.5q0 154 49.5 298t141.5 255.5t226 180.5t306 69q68 0 129.5 -8.5t122.5 -24.5l144 35l-54 -404h-65l-10 275q-66 29 -136.5 45t-138.5 16q-141 0 -252.5 -64.5t-188.5 -169t-117 -234.5t-40 -259q0 -104 27.5 -192 t82 -151.5t136.5 -99.5t192 -36q72 0 137.5 16.5t129.5 42.5l114 269h70l-102 -369l-68 22q-72 -18 -144.5 -32.5t-146.5 -14.5zM854 1442q-49 0 -75.5 34.5t-26.5 77.5t26.5 77t75.5 34t76.5 -34t27.5 -77t-27.5 -77.5t-76.5 -34.5z" />
<glyph unicode="&#x10b;" horiz-adv-x="718" d="M322 -33q-55 0 -102.5 23.5t-82.5 65.5t-54.5 100.5t-19.5 126.5q0 135 40 253.5t105.5 209t148.5 142.5t169 52q37 0 74 -7t67.5 -22.5t50 -40t19.5 -59.5q0 -39 -20.5 -63.5t-59.5 -24.5q-29 0 -47 15.5t-18 43.5q0 20 14 45q-10 14 -58 36t-102 22q-12 0 -39.5 -18.5 t-48.5 -39.5q-33 -33 -66.5 -89t-62 -125.5t-47 -147.5t-18.5 -154q0 -72 18.5 -123t47 -83.5t62.5 -47t66 -14.5q23 0 54.5 14.5t66.5 38t69 51t62 56.5l33 -37q-31 -35 -72 -70t-85 -63.5t-86.5 -47t-77.5 -18.5zM541 1102q-49 0 -76 34.5t-27 77.5t27 77t76 34t76.5 -34 t27.5 -77t-27.5 -77.5t-76.5 -34.5z" />
<glyph unicode="&#x10c;" horiz-adv-x="1228" d="M647 -29q-123 0 -223 37t-172 105.5t-111 168t-39 224.5q0 154 49.5 298t141.5 255.5t226 180.5t306 69q68 0 129.5 -8.5t122.5 -24.5l144 35l-54 -404h-65l-10 275q-66 29 -136.5 45t-138.5 16q-141 0 -252.5 -64.5t-188.5 -169t-117 -234.5t-40 -259q0 -104 27.5 -192 t82 -151.5t136.5 -99.5t192 -36q72 0 137.5 16.5t129.5 42.5l114 269h70l-102 -369l-68 22q-72 -18 -144.5 -32.5t-146.5 -14.5zM600 1737h39l197 -289h4l274 289h47l-246 -363h-167z" />
<glyph unicode="&#x10d;" horiz-adv-x="718" d="M322 -33q-55 0 -102.5 23.5t-82.5 65.5t-54.5 100.5t-19.5 126.5q0 135 40 253.5t105.5 209t148.5 142.5t169 52q37 0 74 -7t67.5 -22.5t50 -40t19.5 -59.5q0 -39 -20.5 -63.5t-59.5 -24.5q-29 0 -47 15.5t-18 43.5q0 20 14 45q-10 14 -58 36t-102 22q-12 0 -39.5 -18.5 t-48.5 -39.5q-33 -33 -66.5 -89t-62 -125.5t-47 -147.5t-18.5 -154q0 -72 18.5 -123t47 -83.5t62.5 -47t66 -14.5q23 0 54.5 14.5t66.5 38t69 51t62 56.5l33 -37q-31 -35 -72 -70t-85 -63.5t-86.5 -47t-77.5 -18.5zM221 1397h39l197 -289h4l274 289h47l-245 -363h-168z" />
<glyph unicode="&#x10e;" horiz-adv-x="1288" d="M43 63l160 17q10 0 12 12l143 1096q2 12 -8 12l-155 17l-7 63h443q131 0 241.5 -38t191.5 -111.5t126 -182t45 -250.5q0 -158 -59.5 -286.5t-164 -220t-245.5 -141.5t-305 -50h-424zM494 66q127 6 239.5 48t197.5 119.5t135 191.5t50 267q0 129 -38 227.5t-105.5 164 t-163.5 99.5t-213 34h-125l-147 -1129zM449 1737h38l197 -289h4l275 289h47l-246 -363h-168z" />
<glyph unicode="&#x10f;" horiz-adv-x="1306" d="M219 -33q-45 0 -76.5 24.5t-52 65.5t-30 93.5t-9.5 107.5q0 68 16.5 148.5t47 159.5t71.5 149.5t90 120.5q41 41 100.5 73.5t104.5 32.5t82 -22.5t64.5 -53t47 -62.5t32.5 -50h18l115 534q6 27 -21 31l-170 14l6 51l314 43l-213 -897l-109 -467l66 -14l166 166l32 -37 q-16 -25 -45.5 -61.5t-62.5 -69.5t-64.5 -56.5t-56.5 -23.5q-16 0 -37.5 7.5t-42 17.5t-35 22.5t-14.5 22.5q0 8 9 48t26.5 101.5t40 140.5t49.5 165h-21q-16 -25 -45.5 -73t-66.5 -106.5t-79 -120t-85 -111.5t-85 -82t-77 -32zM242 49q33 0 79 47t102 125t121.5 180.5 t137.5 212.5l18 64q-20 25 -49.5 55.5t-64.5 58t-73 46t-73 18.5q-29 0 -56.5 -15.5t-53.5 -41.5q-37 -37 -70 -100.5t-56.5 -137.5t-37.5 -147.5t-14 -130.5q0 -111 22.5 -172.5t67.5 -61.5zM1036 907q84 59 138.5 124t64.5 153q6 41 -10.5 67.5t-38 44t-41 25.5t-19.5 10 q4 35 29 64.5t78 29.5q72 0 109.5 -50t27.5 -122q-8 -59 -38.5 -114.5t-73.5 -102.5t-95.5 -88t-103.5 -74z" />
<glyph unicode="&#x110;" horiz-adv-x="1288" d="M88 623l6 71h199l33 246q14 109 32 248q2 12 -8 12l-155 17l-7 63h443q131 0 241.5 -38t191.5 -111.5t126 -182t45 -250.5q0 -158 -59.5 -286.5t-164 -220t-245.5 -141.5t-305 -50h-424l6 63l160 17q10 0 12 12l70 531h-197zM682 694l6 -71h-295l-69 -535l170 -22 q127 6 239.5 48t197.5 119.5t135 191.5t50 267q0 129 -38 227.5t-105.5 164t-163.5 99.5t-213 34h-125l-68 -523h279z" />
<glyph unicode="&#x111;" horiz-adv-x="964" d="M219 -33q-45 0 -76.5 24.5t-52 65.5t-30 93.5t-9.5 107.5q0 68 16.5 148.5t47 159.5t71.5 149.5t90 120.5q41 41 100.5 73.5t104.5 32.5t82 -22.5t64.5 -53t47 -62.5t32.5 -50h18l74 344h-166l10 51h166l31 139q6 27 -21 31l-170 14l6 51l314 43l-66 -278h127l2 -51h-141 l-135 -568l-109 -467l66 -14l166 166l32 -37q-16 -25 -45.5 -61.5t-62.5 -69.5t-64.5 -56.5t-56.5 -23.5q-16 0 -37.5 7.5t-42 17.5t-35 22.5t-14.5 22.5q0 8 9 48t26.5 101.5t40 140.5t49.5 165h-21q-16 -25 -45.5 -73t-66.5 -106.5t-79 -120t-85 -111.5t-85 -82t-77 -32z M242 49q33 0 79 47t102 125t121.5 180.5t137.5 212.5l18 64q-20 25 -49.5 55.5t-64.5 58t-73 46t-73 18.5q-29 0 -56.5 -15.5t-53.5 -41.5q-37 -37 -70 -100.5t-56.5 -137.5t-37.5 -147.5t-14 -130.5q0 -111 22.5 -172.5t67.5 -61.5z" />
<glyph unicode="&#x112;" horiz-adv-x="1155" d="M43 63l160 17q10 0 12 12l143 1096q2 12 -8 12l-155 17l-7 63h942l-45 -346h-63l-8 223q0 18 -10.5 29.5t-53.5 17.5t-133 8t-252 2h-94l-70 -526h131q76 0 119 1t64.5 4t28 8.5t10.5 15.5l61 135h49l-90 -395h-49l6 133q0 8 -3 15t-22.5 10t-62.5 5.5t-121 2.5h-129 l-74 -557h48q184 0 286.5 2t152.5 8t64.5 17t20.5 30l82 219h74l-82 -342h-928zM496 1516h469l8 -78h-481z" />
<glyph unicode="&#x113;" horiz-adv-x="702" d="M322 -33q-55 0 -102.5 23.5t-82.5 65.5t-54.5 100.5t-19.5 126.5q0 135 41 253.5t105.5 209t146.5 142.5t164 52q49 0 87 -15.5t63.5 -39t40 -52t14.5 -53.5q0 -43 -19.5 -77.5t-79 -78.5t-169 -108.5t-291.5 -165.5q-2 -16 -2 -19v-20q0 -72 18.5 -123t47 -83.5 t62.5 -47t66 -14.5q23 0 54.5 14.5t66.5 38t69 51t62 56.5l33 -37q-31 -35 -72 -70t-85 -63.5t-86.5 -47t-77.5 -18.5zM176 410q129 72 214 122t135 88.5t70.5 71.5t20.5 72q0 51 -34.5 86t-85.5 35q-43 0 -82 -24.5t-68 -53.5q-23 -23 -47.5 -61.5t-49 -91t-45 -114 t-32.5 -126.5l2 -2q0 -2 1 -3t1 1zM281 1176h469l8 -78h-482z" />
<glyph unicode="&#x114;" horiz-adv-x="1155" d="M43 63l160 17q10 0 12 12l143 1096q2 12 -8 12l-155 17l-7 63h942l-45 -346h-63l-8 223q0 18 -10.5 29.5t-53.5 17.5t-133 8t-252 2h-94l-70 -526h131q76 0 119 1t64.5 4t28 8.5t10.5 15.5l61 135h49l-90 -395h-49l6 133q0 8 -3 15t-22.5 10t-62.5 5.5t-121 2.5h-129 l-74 -557h48q184 0 286.5 2t152.5 8t64.5 17t20.5 30l82 219h74l-82 -342h-928zM692 1374q-68 0 -110.5 35t-67.5 88t-36 116.5t-17 123.5h49q23 -158 71 -220.5t119 -62.5q72 0 135.5 62.5t129.5 220.5h57q-23 -59 -50.5 -123t-65.5 -117t-91 -88t-123 -35z" />
<glyph unicode="&#x115;" horiz-adv-x="702" d="M322 -33q-55 0 -102.5 23.5t-82.5 65.5t-54.5 100.5t-19.5 126.5q0 135 41 253.5t105.5 209t146.5 142.5t164 52q49 0 87 -15.5t63.5 -39t40 -52t14.5 -53.5q0 -43 -19.5 -77.5t-79 -78.5t-169 -108.5t-291.5 -165.5q-2 -16 -2 -19v-20q0 -72 18.5 -123t47 -83.5 t62.5 -47t66 -14.5q23 0 54.5 14.5t66.5 38t69 51t62 56.5l33 -37q-31 -35 -72 -70t-85 -63.5t-86.5 -47t-77.5 -18.5zM176 410q129 72 214 122t135 88.5t70.5 71.5t20.5 72q0 51 -34.5 86t-85.5 35q-43 0 -82 -24.5t-68 -53.5q-23 -23 -47.5 -61.5t-49 -91t-45 -114 t-32.5 -126.5l2 -2q0 -2 1 -3t1 1zM492 1034q-68 0 -111 35t-67.5 88t-36 116.5t-17.5 123.5h49q23 -158 71 -220.5t120 -62.5t135 62.5t129 220.5h57q-23 -59 -50.5 -123t-65 -117t-90.5 -88t-123 -35z" />
<glyph unicode="&#x116;" horiz-adv-x="1155" d="M43 63l160 17q10 0 12 12l143 1096q2 12 -8 12l-155 17l-7 63h942l-45 -346h-63l-8 223q0 18 -10.5 29.5t-53.5 17.5t-133 8t-252 2h-94l-70 -526h131q76 0 119 1t64.5 4t28 8.5t10.5 15.5l61 135h49l-90 -395h-49l6 133q0 8 -3 15t-22.5 10t-62.5 5.5t-121 2.5h-129 l-74 -557h48q184 0 286.5 2t152.5 8t64.5 17t20.5 30l82 219h74l-82 -342h-928zM692 1442q-49 0 -75.5 34.5t-26.5 77.5t26.5 77t75.5 34t77 -34t28 -77t-28 -77.5t-77 -34.5z" />
<glyph unicode="&#x117;" horiz-adv-x="702" d="M322 -33q-55 0 -102.5 23.5t-82.5 65.5t-54.5 100.5t-19.5 126.5q0 135 41 253.5t105.5 209t146.5 142.5t164 52q49 0 87 -15.5t63.5 -39t40 -52t14.5 -53.5q0 -43 -19.5 -77.5t-79 -78.5t-169 -108.5t-291.5 -165.5q-2 -16 -2 -19v-20q0 -72 18.5 -123t47 -83.5 t62.5 -47t66 -14.5q23 0 54.5 14.5t66.5 38t69 51t62 56.5l33 -37q-31 -35 -72 -70t-85 -63.5t-86.5 -47t-77.5 -18.5zM176 410q129 72 214 122t135 88.5t70.5 71.5t20.5 72q0 51 -34.5 86t-85.5 35q-43 0 -82 -24.5t-68 -53.5q-23 -23 -47.5 -61.5t-49 -91t-45 -114 t-32.5 -126.5l2 -2q0 -2 1 -3t1 1zM563 1102q-49 0 -75.5 34.5t-26.5 77.5t26.5 77t75.5 34t77 -34t28 -77t-28 -77.5t-77 -34.5z" />
<glyph unicode="&#x118;" horiz-adv-x="1155" d="M741 -408q-66 6 -100.5 49.5t-17.5 118.5q14 72 67 133.5t119 106.5h-772l6 63l160 17q10 0 12 12l143 1096q2 12 -8 12l-155 17l-7 63h942l-45 -346h-63l-8 223q0 18 -10.5 29.5t-53.5 17.5t-133 8t-252 2h-94l-70 -526h131q76 0 119 1t64.5 4t28 8.5t10.5 15.5l61 135 h49l-90 -395h-49l6 133q0 8 -3 15t-22.5 10t-62.5 5.5t-121 2.5h-129l-74 -557h48q184 0 286.5 2t152.5 8t64.5 17t20.5 30l82 219h74l-82 -342h-86q-70 -49 -113 -106.5t-55 -112.5q-10 -49 2 -85t55 -40q35 -4 64.5 6t46.5 31l22 -25q-29 -35 -66 -58.5t-94 -17.5z" />
<glyph unicode="&#x119;" horiz-adv-x="702" d="M324 -408q-41 2 -64.5 22.5t-35 48.5t-11.5 59.5t8 60.5q12 47 44 97t73 85q-57 2 -107.5 24.5t-87.5 62.5t-58.5 98.5t-21.5 132.5q0 135 41 253.5t105.5 209t146.5 142.5t164 52q49 0 87 -15.5t63.5 -39t40 -52t14.5 -53.5q0 -43 -19.5 -77.5t-79 -78.5t-169 -108.5 t-291.5 -165.5q-2 -16 -2 -19v-20q0 -72 18.5 -123t47 -83.5t62.5 -47t66 -14.5q23 0 54.5 14.5t66.5 38t69 51t62 56.5l33 -37q-86 -98 -203 -178q-49 -35 -86 -91.5t-49 -103.5q-14 -53 -2 -90t57 -47q35 -8 63 3t44 34l22 -25q-29 -45 -73.5 -62.5t-91.5 -13.5zM174 412 q0 -2 1 -3t1 1q129 72 214 122t135 88.5t70.5 71.5t20.5 72q0 51 -34.5 86t-85.5 35q-43 0 -82 -24.5t-68 -53.5q-23 -23 -47.5 -61.5t-49 -91t-45 -114t-32.5 -126.5z" />
<glyph unicode="&#x11a;" horiz-adv-x="1155" d="M43 63l160 17q10 0 12 12l143 1096q2 12 -8 12l-155 17l-7 63h942l-45 -346h-63l-8 223q0 18 -10.5 29.5t-53.5 17.5t-133 8t-252 2h-94l-70 -526h131q76 0 119 1t64.5 4t28 8.5t10.5 15.5l61 135h49l-90 -395h-49l6 133q0 8 -3 15t-22.5 10t-62.5 5.5t-121 2.5h-129 l-74 -557h48q184 0 286.5 2t152.5 8t64.5 17t20.5 30l82 219h74l-82 -342h-928zM469 1737h39l197 -289h4l274 289h47l-246 -363h-168z" />
<glyph unicode="&#x11b;" horiz-adv-x="702" d="M322 -33q-55 0 -102.5 23.5t-82.5 65.5t-54.5 100.5t-19.5 126.5q0 135 41 253.5t105.5 209t146.5 142.5t164 52q49 0 87 -15.5t63.5 -39t40 -52t14.5 -53.5q0 -43 -19.5 -77.5t-79 -78.5t-169 -108.5t-291.5 -165.5q-2 -16 -2 -19v-20q0 -72 18.5 -123t47 -83.5 t62.5 -47t66 -14.5q23 0 54.5 14.5t66.5 38t69 51t62 56.5l33 -37q-31 -35 -72 -70t-85 -63.5t-86.5 -47t-77.5 -18.5zM176 410q129 72 214 122t135 88.5t70.5 71.5t20.5 72q0 51 -34.5 86t-85.5 35q-43 0 -82 -24.5t-68 -53.5q-23 -23 -47.5 -61.5t-49 -91t-45 -114 t-32.5 -126.5l2 -2q0 -2 1 -3t1 1zM291 1397h39l196 -289h4l275 289h47l-246 -363h-168z" />
<glyph unicode="&#x11c;" horiz-adv-x="1302" d="M655 -29q-123 0 -224 37t-174 105.5t-114 168t-41 224.5q0 168 57.5 325.5t172.5 272.5q94 94 218 149.5t275 55.5q57 0 113.5 -8.5t118.5 -24.5l143 35l-53 -404h-64l-10 275q-59 29 -125.5 45t-130.5 16q-133 0 -243.5 -62.5t-189.5 -165t-122 -233.5t-43 -266 q0 -231 131 -362q53 -53 137 -85t179 -32q66 0 135 14.5t117 30.5l49 383q2 12 -9 12l-180 17l-6 63h473l-6 -63l-160 -17q-10 0 -12 -12l-47 -352l104 -15l6 -49q-109 -33 -230.5 -55.5t-244.5 -22.5zM711 1737h168l147 -363h-39l-98 144q-18 27 -35.5 53t-32.5 47 q-16 23 -30 45h-5l-274 -289h-47z" />
<glyph unicode="&#x11d;" horiz-adv-x="837" d="M256 -504q-68 0 -133.5 17.5t-116.5 50.5t-81.5 81t-30.5 109q0 43 21.5 82t56 72t78.5 58.5t89 41.5v8q-39 23 -62.5 58t-23.5 78q0 31 13.5 55t35 43.5t49 35t54.5 27.5v6q-41 35 -71 91.5t-30 140.5q0 72 29 141.5t81 124.5t123 89t157 34q63 0 118.5 -11t102.5 -26 h217l-35 -96l-279 45v-12q49 -47 81 -96.5t32 -118.5q0 -72 -31.5 -137.5t-82 -117t-113 -81t-123.5 -29.5q-35 0 -72 8t-65 25q-109 -45 -109 -119q0 -49 44 -81t149 -64l118 -37q129 -41 199 -95.5t70 -136.5q0 -55 -34 -104t-94.5 -84t-145.5 -55.5t-185 -20.5zM352 313 q49 0 97.5 18.5t87.5 57.5q53 53 80.5 130t27.5 161q0 39 -24.5 75t-60.5 61.5t-76 40.5t-70 15q-55 0 -115 -59q-41 -41 -70.5 -112.5t-29.5 -145.5q0 -61 15 -112.5t56 -92.5q10 -10 32.5 -23.5t49.5 -13.5zM303 -438q70 0 129.5 14t102.5 39t66.5 56.5t23.5 66.5 q0 61 -46.5 97t-121.5 65q-55 20 -123 39.5t-139 46.5q-37 -16 -75 -38t-69 -48.5t-50 -60.5t-19 -72q0 -49 23.5 -87t66.5 -64t102 -40t129 -14zM487 1397h168l148 -363h-39l-98 144q-18 27 -36 53t-32 47q-16 23 -31 45h-4l-274 -289h-47z" />
<glyph unicode="&#x11e;" horiz-adv-x="1302" d="M655 -29q-123 0 -224 37t-174 105.5t-114 168t-41 224.5q0 168 57.5 325.5t172.5 272.5q94 94 218 149.5t275 55.5q57 0 113.5 -8.5t118.5 -24.5l143 35l-53 -404h-64l-10 275q-59 29 -125.5 45t-130.5 16q-133 0 -243.5 -62.5t-189.5 -165t-122 -233.5t-43 -266 q0 -231 131 -362q53 -53 137 -85t179 -32q66 0 135 14.5t117 30.5l49 383q2 12 -9 12l-180 17l-6 63h473l-6 -63l-160 -17q-10 0 -12 -12l-47 -352l104 -15l6 -49q-109 -33 -230.5 -55.5t-244.5 -22.5zM748 1374q-68 0 -111 35t-67.5 88t-36 116.5t-17.5 123.5h49 q23 -158 71 -220.5t120 -62.5t135 62.5t129 220.5h57q-23 -59 -50.5 -123t-65 -117t-90.5 -88t-123 -35z" />
<glyph unicode="&#x11f;" horiz-adv-x="837" d="M256 -504q-68 0 -133.5 17.5t-116.5 50.5t-81.5 81t-30.5 109q0 43 21.5 82t56 72t78.5 58.5t89 41.5v8q-39 23 -62.5 58t-23.5 78q0 31 13.5 55t35 43.5t49 35t54.5 27.5v6q-41 35 -71 91.5t-30 140.5q0 72 29 141.5t81 124.5t123 89t157 34q63 0 118.5 -11t102.5 -26 h217l-35 -96l-279 45v-12q49 -47 81 -96.5t32 -118.5q0 -72 -31.5 -137.5t-82 -117t-113 -81t-123.5 -29.5q-35 0 -72 8t-65 25q-109 -45 -109 -119q0 -49 44 -81t149 -64l118 -37q129 -41 199 -95.5t70 -136.5q0 -55 -34 -104t-94.5 -84t-145.5 -55.5t-185 -20.5zM303 -438 q70 0 129.5 14t102.5 39t66.5 56.5t23.5 66.5q0 61 -46.5 97t-121.5 65q-55 20 -123 39.5t-139 46.5q-37 -16 -75 -38t-69 -48.5t-50 -60.5t-19 -72q0 -49 23.5 -87t66.5 -64t102 -40t129 -14zM352 313q49 0 97.5 18.5t87.5 57.5q53 53 80.5 130t27.5 161q0 39 -24.5 75 t-60.5 61.5t-76 40.5t-70 15q-55 0 -115 -59q-41 -41 -70.5 -112.5t-29.5 -145.5q0 -61 15 -112.5t56 -92.5q10 -10 32.5 -23.5t49.5 -13.5zM520 1034q-68 0 -110.5 35t-67.5 88t-36 116.5t-17 123.5h49q23 -158 71 -220.5t119 -62.5q72 0 135.5 62.5t129.5 220.5h57 q-23 -59 -50.5 -123t-65.5 -117t-91 -88t-123 -35z" />
<glyph unicode="&#x120;" horiz-adv-x="1302" d="M655 -29q-123 0 -224 37t-174 105.5t-114 168t-41 224.5q0 168 57.5 325.5t172.5 272.5q94 94 218 149.5t275 55.5q57 0 113.5 -8.5t118.5 -24.5l143 35l-53 -404h-64l-10 275q-59 29 -125.5 45t-130.5 16q-133 0 -243.5 -62.5t-189.5 -165t-122 -233.5t-43 -266 q0 -231 131 -362q53 -53 137 -85t179 -32q66 0 135 14.5t117 30.5l49 383q2 12 -9 12l-180 17l-6 63h473l-6 -63l-160 -17q-10 0 -12 -12l-47 -352l104 -15l6 -49q-109 -33 -230.5 -55.5t-244.5 -22.5zM811 1442q-49 0 -75.5 34.5t-26.5 77.5t26.5 77t75.5 34t76.5 -34 t27.5 -77t-27.5 -77.5t-76.5 -34.5z" />
<glyph unicode="&#x121;" horiz-adv-x="837" d="M256 -504q-68 0 -133.5 17.5t-116.5 50.5t-81.5 81t-30.5 109q0 43 21.5 82t56 72t78.5 58.5t89 41.5v8q-39 23 -62.5 58t-23.5 78q0 31 13.5 55t35 43.5t49 35t54.5 27.5v6q-41 35 -71 91.5t-30 140.5q0 72 29 141.5t81 124.5t123 89t157 34q63 0 118.5 -11t102.5 -26 h217l-35 -96l-279 45v-12q49 -47 81 -96.5t32 -118.5q0 -72 -31.5 -137.5t-82 -117t-113 -81t-123.5 -29.5q-35 0 -72 8t-65 25q-109 -45 -109 -119q0 -49 44 -81t149 -64l118 -37q129 -41 199 -95.5t70 -136.5q0 -55 -34 -104t-94.5 -84t-145.5 -55.5t-185 -20.5zM352 313 q49 0 97.5 18.5t87.5 57.5q53 53 80.5 130t27.5 161q0 39 -24.5 75t-60.5 61.5t-76 40.5t-70 15q-55 0 -115 -59q-41 -41 -70.5 -112.5t-29.5 -145.5q0 -61 15 -112.5t56 -92.5q10 -10 32.5 -23.5t49.5 -13.5zM303 -438q70 0 129.5 14t102.5 39t66.5 56.5t23.5 66.5 q0 61 -46.5 97t-121.5 65q-55 20 -123 39.5t-139 46.5q-37 -16 -75 -38t-69 -48.5t-50 -60.5t-19 -72q0 -49 23.5 -87t66.5 -64t102 -40t129 -14zM545 1102q-49 0 -76 34.5t-27 77.5t27 77t76 34t76.5 -34t27.5 -77t-27.5 -77.5t-76.5 -34.5z" />
<glyph unicode="&#x122;" horiz-adv-x="1302" d="M655 -29q-123 0 -224 37t-174 105.5t-114 168t-41 224.5q0 168 57.5 325.5t172.5 272.5q94 94 218 149.5t275 55.5q57 0 113.5 -8.5t118.5 -24.5l143 35l-53 -404h-64l-10 275q-59 29 -125.5 45t-130.5 16q-133 0 -243.5 -62.5t-189.5 -165t-122 -233.5t-43 -266 q0 -231 131 -362q53 -53 137 -85t179 -32q66 0 135 14.5t117 30.5l49 383q2 12 -9 12l-180 17l-6 63h473l-6 -63l-160 -17q-10 0 -12 -12l-47 -352l104 -15l6 -49q-109 -33 -230.5 -55.5t-244.5 -22.5zM737 -266q-10 -49 -37.5 -88t-65.5 -68t-81 -50.5t-86 -35.5l-16 31 q68 25 112.5 63.5t61.5 110.5q6 33 -5.5 55.5t-29 36.5t-31.5 21.5t-14 9.5q8 33 34.5 55.5t67.5 18.5q51 -6 76.5 -53.5t13.5 -106.5z" />
<glyph unicode="&#x123;" horiz-adv-x="837" d="M256 -504q-68 0 -133.5 17.5t-116.5 50.5t-81.5 81t-30.5 109q0 43 21.5 82t56 72t78.5 58.5t89 41.5v8q-39 23 -62.5 58t-23.5 78q0 31 13.5 55t35 43.5t49 35t54.5 27.5v6q-41 35 -71 91.5t-30 140.5q0 72 29 141.5t81 124.5t123 89t157 34q63 0 118.5 -11t102.5 -26 h217l-35 -96l-279 45v-12q49 -47 81 -96.5t32 -118.5q0 -72 -31.5 -137.5t-82 -117t-113 -81t-123.5 -29.5q-35 0 -72 8t-65 25q-109 -45 -109 -119q0 -49 44 -81t149 -64l118 -37q129 -41 199 -95.5t70 -136.5q0 -55 -34 -104t-94.5 -84t-145.5 -55.5t-185 -20.5zM352 313 q49 0 97.5 18.5t87.5 57.5q53 53 80.5 130t27.5 161q0 39 -24.5 75t-60.5 61.5t-76 40.5t-70 15q-55 0 -115 -59q-41 -41 -70.5 -112.5t-29.5 -145.5q0 -61 15 -112.5t56 -92.5q10 -10 32.5 -23.5t49.5 -13.5zM303 -438q70 0 129.5 14t102.5 39t66.5 56.5t23.5 66.5 q0 61 -46.5 97t-121.5 65q-55 20 -123 39.5t-139 46.5q-37 -16 -75 -38t-69 -48.5t-50 -60.5t-19 -72q0 -49 23.5 -87t66.5 -64t102 -40t129 -14zM481 1219q10 49 38 88t66 67.5t81 50t86 35.5l16 -30q-68 -25 -113 -64t-61 -111q-6 -33 5 -55t28.5 -36.5t32 -21.5t14.5 -9 q-8 -33 -35 -55.5t-68 -18.5q-51 6 -76.5 53.5t-13.5 106.5z" />
<glyph unicode="&#x124;" horiz-adv-x="1447" d="M43 63l160 17q10 0 12 12l143 1096q2 12 -8 12l-155 17l-7 63h457l-6 -63l-160 -17q-10 0 -12 -12l-64 -490h699l63 490q2 12 -8 12l-156 17l-6 63h457l-6 -63l-160 -17q-10 0 -12 -12l-144 -1096q-2 -12 9 -12l155 -17l6 -63h-456l6 63l160 17q10 0 12 12l70 529h-699 l-69 -529q-2 -12 8 -12l155 -17l7 -63h-457zM803 1737h168l147 -363h-39l-98 144q-18 27 -35.5 53t-32.5 47q-16 23 -30 45h-4l-275 -289h-47z" />
<glyph unicode="&#x125;" horiz-adv-x="993" d="M698 -33q-16 0 -36.5 7.5t-39 17.5t-31.5 22.5t-13 22.5q0 23 10 64.5t26.5 97t36 121t39.5 135.5q35 119 59.5 203.5t24.5 109.5q0 39 -36 67.5t-72 28.5q-23 0 -73 -63.5t-114.5 -164.5t-135.5 -225t-136 -247l-27 -172l-108 10l63 301l219 985q6 27 -20 31l-170 14 l6 51l313 43l-114 -479l-148 -624h21q43 86 94 173t100 162.5t90 133t64 86.5q12 16 37.5 38.5t60.5 22.5q33 0 64.5 -11t57.5 -31.5t41 -48.5t15 -58q0 -16 -8 -54.5t-22.5 -88.5t-31 -106.5t-30.5 -107.5l-110 -371l65 -14l166 166l33 -37q-16 -25 -46 -61.5t-63 -69.5 t-64.5 -56.5t-56.5 -23.5zM324 1833h168l147 -363h-39l-98 144q-18 27 -35.5 53.5t-32.5 46.5q-16 23 -31 45h-4l-274 -289h-47z" />
<glyph unicode="&#x126;" horiz-adv-x="1447" d="M844 0l6 63l160 17q10 0 12 12l70 529h-699l-69 -529q-2 -12 8 -12l155 -17l7 -63h-457l6 63l160 17q10 0 12 12l111 854h-191l2 62h197l24 180q2 12 -8 12l-155 17l-7 63h457l-6 -63l-160 -17q-10 0 -12 -12l-25 -180h699l24 180q2 12 -8 12l-156 17l-6 63h457l-6 -63 l-160 -17q-10 0 -12 -12l-25 -180h162l10 -62h-180l-111 -854q-2 -12 9 -12l155 -17l6 -63h-456zM1102 698l31 248h-699l-31 -248h699z" />
<glyph unicode="&#x127;" horiz-adv-x="993" d="M928 178q-16 -25 -46 -61.5t-63 -69.5t-64.5 -56.5t-56.5 -23.5q-16 0 -36.5 7.5t-39 17.5t-31.5 22.5t-13 22.5q0 23 10 64.5t26.5 97t36 121t39.5 135.5q35 119 59.5 203.5t24.5 109.5q0 39 -36 67.5t-72 28.5q-23 0 -73 -63.5t-114.5 -164.5t-135.5 -225t-136 -247 l-27 -172l-108 10l63 301l172 795h-143l2 51h158l30 139q6 27 -20 31l-170 14l6 51l313 43l-67 -278h137l10 -51h-164l-30 -150l-148 -624h21q43 86 94 173t100 162.5t90 133t64 86.5q12 16 37.5 38.5t60.5 22.5q33 0 64.5 -11t57.5 -31.5t41 -48.5t15 -58q0 -16 -8 -54.5 t-22.5 -88.5t-31 -106.5t-30.5 -107.5l-110 -371l65 -14l166 166l33 -37v0z" />
<glyph unicode="&#x12a;" horiz-adv-x="675" d="M61 63l160 17q10 0 12 12l144 1096q2 12 -8 12l-156 17l-6 63h457l-7 -63l-159 -17q-10 0 -13 -12l-143 -1096q-2 -12 8 -12l156 -17l6 -63h-457zM215 1516h469l8 -78h-481z" />
<glyph unicode="&#x12b;" horiz-adv-x="532" d="M238 -33q-16 0 -38 7.5t-41.5 17.5t-32.5 22.5t-11 22.5l223 807l-66 14l-166 -166l-32 37q16 25 46 61.5t62.5 69.5t64.5 56.5t56 23.5q14 0 38 -7t45.5 -17.5t35.5 -22.5t12 -23l-231 -807l65 -14l166 166l33 -37q-16 -25 -46 -61.5t-62.5 -69.5t-64 -56.5t-56.5 -23.5 zM123 1176h469l8 -78h-481z" />
<glyph unicode="&#x12c;" horiz-adv-x="675" d="M61 63l160 17q10 0 12 12l144 1096q2 12 -8 12l-156 17l-6 63h457l-7 -63l-159 -17q-10 0 -13 -12l-143 -1096q-2 -12 8 -12l156 -17l6 -63h-457zM436 1374q-68 0 -110.5 35t-67.5 88t-36 116.5t-17 123.5h49q23 -158 71 -220.5t119 -62.5q72 0 135.5 62.5t129.5 220.5 h57q-23 -59 -50.5 -123t-65.5 -117t-91 -88t-123 -35z" />
<glyph unicode="&#x12d;" horiz-adv-x="532" d="M238 -33q-16 0 -38 7.5t-41.5 17.5t-32.5 22.5t-11 22.5l223 807l-66 14l-166 -166l-32 37q16 25 46 61.5t62.5 69.5t64.5 56.5t56 23.5q14 0 38 -7t45.5 -17.5t35.5 -22.5t12 -23l-231 -807l65 -14l166 166l33 -37q-16 -25 -46 -61.5t-62.5 -69.5t-64 -56.5t-56.5 -23.5 zM360 1034q-68 0 -110.5 35t-67 88t-36 116.5t-17.5 123.5h49q23 -158 71 -220.5t120 -62.5t135 62.5t129 220.5h57q-23 -59 -50.5 -123t-65 -117t-91 -88t-123.5 -35z" />
<glyph unicode="&#x12e;" horiz-adv-x="675" d="M322 -408q-66 6 -102 45t-25 115q6 37 25.5 74t49 68.5t66.5 59.5t76 46h-357l6 63l160 17q10 0 12 12l144 1096q2 12 -8 12l-156 17l-6 63h457l-7 -63l-159 -17q-10 0 -13 -12l-143 -1096q-2 -12 8 -12l156 -17l6 -63q-43 -12 -82 -37.5t-69.5 -57.5t-51 -67t-26.5 -65 q-10 -49 6 -81t59 -36q35 -4 64.5 6t46.5 31l22 -25q-29 -35 -65.5 -58.5t-93.5 -17.5z" />
<glyph unicode="&#x12f;" horiz-adv-x="532" d="M164 -408q-66 6 -100.5 49.5t-18.5 118.5q12 59 55 115.5t97 99.5q-31 10 -58.5 27.5t-23.5 34.5l223 807l-66 14l-166 -166l-32 37q16 25 46 61.5t62.5 69.5t64.5 56.5t56 23.5q14 0 38 -7t45.5 -17.5t35.5 -22.5t12 -23l-231 -807l65 -14l166 166l33 -37 q-14 -23 -36.5 -50.5t-49.5 -56t-53.5 -54t-48.5 -40.5q-61 -41 -98.5 -94t-47.5 -102t2 -85t55 -40q35 -4 65 6t46 31l23 -25q-29 -35 -66 -58.5t-94 -17.5zM547 1260q0 -47 -25.5 -79t-60.5 -32q-41 0 -62.5 24.5t-21.5 61.5q0 47 26.5 79t59.5 32q41 0 62.5 -24.5 t21.5 -61.5z" />
<glyph unicode="&#x130;" horiz-adv-x="675" d="M61 63l160 17q10 0 12 12l144 1096q2 12 -8 12l-156 17l-6 63h457l-7 -63l-159 -17q-10 0 -13 -12l-143 -1096q-2 -12 8 -12l156 -17l6 -63h-457zM477 1442q-49 0 -75.5 34.5t-26.5 77.5t26.5 77t75.5 34t77 -34t28 -77t-28 -77.5t-77 -34.5z" />
<glyph unicode="&#x131;" horiz-adv-x="532" d="M238 -33q-16 0 -38 7.5t-41.5 17.5t-32.5 22.5t-11 22.5l223 807l-66 14l-166 -166l-32 37q16 25 46 61.5t62.5 69.5t64.5 56.5t56 23.5q14 0 38 -7t45.5 -17.5t35.5 -22.5t12 -23l-231 -807l65 -14l166 166l33 -37q-16 -25 -46 -61.5t-62.5 -69.5t-64 -56.5t-56.5 -23.5 z" />
<glyph unicode="&#x134;" horiz-adv-x="720" d="M94 -31q-80 0 -124 38t-38 89q4 39 29 58.5t55 17.5q53 -4 79 -44t36 -93h2q109 16 164 113.5t78 275.5l100 764q2 12 -8 12l-172 17l-6 63h473l-6 -63l-160 -17q-10 0 -12 -12l-101 -758q-12 -100 -43.5 -185t-80 -146.5t-115 -95.5t-150.5 -34zM485 1737h168l148 -363 h-39l-98 144q-18 27 -36 53t-32 47q-16 23 -31 45h-4l-274 -289h-47z" />
<glyph unicode="&#x135;" horiz-adv-x="458" d="M190 -57q-72 -299 -180 -408q-68 -70 -153 -70q-47 0 -80 26t-35 60q-2 33 19.5 57.5t60.5 24.5t58.5 -20.5t27.5 -48.5l67 12q35 51 72 147.5t62 206.5l208 914l-65 14l-166 -166l-33 37q16 25 46 61.5t63 69.5t64.5 56.5t56.5 23.5q14 0 37.5 -7t45 -17.5t36 -22.5 t12.5 -23zM309 1397h168l148 -363h-39l-99 144q-18 27 -35.5 53t-31.5 47q-16 23 -31 45h-4l-274 -289h-48z" />
<glyph unicode="&#x136;" horiz-adv-x="1267" d="M43 63l160 17q10 0 12 12l143 1096q2 12 -8 12l-155 17l-7 63h457l-6 -63l-160 -17q-10 0 -12 -12l-78 -604l662 608l2 4l-2 4l-146 17l-6 63h430l-6 -63l-127 -15q-6 0 -15.5 -6t-13.5 -10l-485 -438l367 -656q4 -4 12 -8t18 -6l105 -15l6 -63h-381l8 63l107 13q4 0 8 6 t0 10l-322 590l-237 -211l-49 -379q-2 -12 8 -12l155 -17l7 -63h-457zM702 -266q-10 -49 -37.5 -88t-65.5 -68t-81 -50.5t-86 -35.5l-16 31q68 25 112.5 63.5t61.5 110.5q6 33 -5.5 55.5t-28.5 36.5t-31.5 21.5t-14.5 9.5q8 33 34.5 55.5t67.5 18.5q51 -6 76.5 -53.5 t13.5 -106.5z" />
<glyph unicode="&#x137;" horiz-adv-x="858" d="M590 -33q-12 0 -30.5 7.5t-36 17.5t-32 22.5t-16.5 22.5l-137 446l-92 -47l-86 -446l-103 10l78 299l219 989q6 27 -20 31l-170 14l6 51l313 43l-114 -479l-119 -454h8l385 229l59 53q-63 33 -63 86q0 35 25.5 56.5t60.5 21.5q41 0 64.5 -29.5t23.5 -66.5 q0 -57 -42 -105.5t-155 -107.5l-204 -109l153 -479h41l160 176l33 -37q-16 -25 -42 -61.5t-55.5 -70.5t-58 -58.5t-53.5 -24.5zM432 -266q-10 -49 -37.5 -88t-65.5 -68t-81 -50.5t-86 -35.5l-17 31q68 25 113 63.5t61 110.5q6 33 -5 55.5t-28.5 36.5t-31.5 21.5t-14 9.5 q8 33 34.5 55.5t67.5 18.5q51 -6 76.5 -53.5t13.5 -106.5z" />
<glyph unicode="&#x139;" horiz-adv-x="1081" d="M43 63l160 17q10 0 12 12l143 1096q2 12 -8 12l-155 17l-7 63h482l-6 -63l-185 -17q-10 0 -12 -12l-148 -1118h3q184 0 284.5 1t149.5 7t60 16t18 29l98 278h72l-97 -401h-870zM621 1737h163l-372 -363h-47z" />
<glyph unicode="&#x13a;" horiz-adv-x="479" d="M184 -33q-16 0 -37.5 7.5t-41 17.5t-32 22.5t-10.5 22.5l310 1251q6 27 -21 31l-170 14l6 51l306 43l-353 -1364l66 -14l174 166l33 -37q-16 -25 -46 -61.5t-63 -69.5t-64.5 -56.5t-56.5 -23.5zM586 1839h164l-373 -362h-47z" />
<glyph unicode="&#x13b;" horiz-adv-x="1081" d="M43 63l160 17q10 0 12 12l143 1096q2 12 -8 12l-155 17l-7 63h482l-6 -63l-185 -17q-10 0 -12 -12l-148 -1118h3q184 0 284.5 1t149.5 7t60 16t18 29l98 278h72l-97 -401h-870zM592 -266q-10 -49 -38 -88t-65.5 -68t-80.5 -50.5t-86 -35.5l-17 31q68 25 113 63.5 t61 110.5q6 33 -5 55.5t-28.5 36.5t-32 21.5t-14.5 9.5q8 33 35 55.5t68 18.5q51 -6 76.5 -53.5t13.5 -106.5z" />
<glyph unicode="&#x13c;" horiz-adv-x="479" d="M184 -33q-16 0 -37.5 7.5t-41 17.5t-32 22.5t-10.5 22.5l310 1251q6 27 -21 31l-170 14l6 51l306 43l-353 -1364l66 -14l174 166l33 -37q-16 -25 -46 -61.5t-63 -69.5t-64.5 -56.5t-56.5 -23.5zM229 -266q-10 -49 -37.5 -88t-65.5 -68t-81 -50.5t-86 -35.5l-16 31 q68 25 112.5 63.5t61.5 110.5q6 33 -5.5 55.5t-28.5 36.5t-31.5 21.5t-14.5 9.5q8 33 34.5 55.5t67.5 18.5q51 -6 76.5 -53.5t13.5 -106.5z" />
<glyph unicode="&#x13d;" horiz-adv-x="1202" d="M43 63l160 17q10 0 12 12l143 1096q2 12 -8 12l-155 17l-7 63h482l-6 -63l-185 -17q-10 0 -12 -12l-148 -1118h3q184 0 284.5 1t149.5 7t60 16t18 29l98 278h72l-97 -401h-870zM1100 788q84 59 138 124t65 153q6 41 -10.5 67.5t-38 44t-41 25.5t-19.5 10q4 35 28.5 65 t77.5 30q72 0 110 -50.5t28 -121.5q-8 -59 -39 -114.5t-74 -103t-95 -88.5t-104 -73z" />
<glyph unicode="&#x13e;" horiz-adv-x="829" d="M184 -33q-16 0 -37.5 7.5t-41 17.5t-32 22.5t-10.5 22.5l310 1251q6 27 -21 31l-170 14l6 51l306 43l-353 -1364l66 -14l174 166l33 -37q-16 -25 -46 -61.5t-63 -69.5t-64.5 -56.5t-56.5 -23.5zM559 909q84 59 138.5 124t64.5 153q6 41 -10.5 67.5t-38 44t-41 25.5 t-19.5 10q4 35 29 64.5t78 29.5q72 0 109.5 -50t27.5 -122q-8 -59 -39 -114.5t-74 -102.5t-95 -88t-103 -73z" />
<glyph unicode="&#x13f;" horiz-adv-x="1423" d="M43 63l160 17q10 0 12 12l143 1096q2 12 -8 12l-155 17l-7 63h482l-6 -63l-185 -17q-10 0 -12 -12l-148 -1118h3q184 0 284.5 1t149.5 7t60 16t18 29l98 278h72l-97 -401h-870zM1405 518q-2 -41 -29.5 -71.5t-75.5 -30.5q-47 0 -74.5 31.5t-25.5 70.5t28.5 68.5 t74.5 29.5q47 0 75.5 -29.5t26.5 -68.5z" />
<glyph unicode="&#x140;" horiz-adv-x="669" d="M184 -33q-16 0 -37.5 7.5t-41 17.5t-32 22.5t-10.5 22.5l310 1251q6 27 -21 31l-170 14l6 51l306 43l-353 -1364l66 -14l174 166l33 -37q-16 -25 -46 -61.5t-63 -69.5t-64.5 -56.5t-56.5 -23.5zM768 641q-2 -41 -29.5 -71.5t-74.5 -30.5t-75 31.5t-26 70.5t28.5 68.5 t74.5 29.5q47 0 75.5 -29.5t26.5 -68.5z" />
<glyph unicode="&#x141;" horiz-adv-x="1081" d="M90 379v78l178 47l90 684q2 12 -8 12l-155 17l-7 63h482l-6 -63l-185 -17q-10 0 -12 -12l-86 -653l244 65v-78l-254 -67l-52 -385h3q184 0 284.5 1t149.5 7t60 16t18 29l98 278h72l-97 -401h-870l6 63l160 17q10 0 12 12l43 332z" />
<glyph unicode="&#x142;" horiz-adv-x="520" d="M35 379v78l186 51l193 780q6 27 -21 31l-170 14l6 51l306 43l-232 -897l156 43v-77l-178 -50l-99 -383l66 -14l174 166l33 -37q-16 -25 -46 -61.5t-63 -69.5t-64.5 -56.5t-56.5 -23.5q-16 0 -37.5 7.5t-41 17.5t-32 22.5t-10.5 22.5l97 387z" />
<glyph unicode="&#x143;" horiz-adv-x="1359" d="M442 1184h-6l-139 -1092q-2 -12 8 -12l176 -17l6 -63h-477l6 63l187 17q10 0 12 12l141 1082q2 10 -8 12l-158 31l-6 63h322l543 -1118h4l131 1026q2 12 -8 12l-177 17l-6 63h477l-6 -63l-186 -17q-10 0 -12 -12l-158 -1198h-84zM987 1737h164l-373 -363h-47z" />
<glyph unicode="&#x144;" horiz-adv-x="1054" d="M760 -33q-16 0 -37 7.5t-39 17.5t-31.5 22.5t-13.5 22.5q0 23 10 64.5t26.5 97t36 121t40.5 135.5q35 119 59.5 203.5t24.5 109.5q0 39 -36 67.5t-73 28.5q-23 0 -73 -63.5t-114.5 -164.5t-135 -225t-136.5 -247l-26 -172l-109 10l64 301l120 541l-65 14l-166 -166 l-33 37q16 25 46 61.5t63 69.5t64.5 56.5t56.5 23.5q14 0 36.5 -7t43 -17.5t35 -22.5t14.5 -23q0 -16 -35 -157.5t-94 -388.5h20q45 86 96.5 173t99.5 162.5t89 133t63 86.5q12 16 38 38.5t61 22.5q33 0 64.5 -11t57 -31.5t41 -48.5t15.5 -58q0 -16 -8.5 -54.5t-22.5 -88.5 t-30.5 -106.5t-30.5 -107.5l-111 -371l66 -14l165 166l33 -37q-16 -25 -46 -61.5t-62.5 -69.5t-64 -56.5t-56.5 -23.5zM774 1397h164l-373 -363h-47z" />
<glyph unicode="&#x145;" horiz-adv-x="1359" d="M442 1184h-6l-139 -1092q-2 -12 8 -12l176 -17l6 -63h-477l6 63l187 17q10 0 12 12l141 1082q2 10 -8 12l-158 31l-6 63h322l543 -1118h4l131 1026q2 12 -8 12l-177 17l-6 63h477l-6 -63l-186 -17q-10 0 -12 -12l-158 -1198h-84zM743 -266q-10 -49 -37.5 -88t-65.5 -68 t-81 -50.5t-86 -35.5l-16 31q68 25 112.5 63.5t61.5 110.5q6 33 -5.5 55.5t-28.5 36.5t-31.5 21.5t-14.5 9.5q8 33 34.5 55.5t67.5 18.5q51 -6 76.5 -53.5t13.5 -106.5z" />
<glyph unicode="&#x146;" horiz-adv-x="1054" d="M760 -33q-16 0 -37 7.5t-39 17.5t-31.5 22.5t-13.5 22.5q0 23 10 64.5t26.5 97t36 121t40.5 135.5q35 119 59.5 203.5t24.5 109.5q0 39 -36 67.5t-73 28.5q-23 0 -73 -63.5t-114.5 -164.5t-135 -225t-136.5 -247l-26 -172l-109 10l64 301l120 541l-65 14l-166 -166 l-33 37q16 25 46 61.5t63 69.5t64.5 56.5t56.5 23.5q14 0 36.5 -7t43 -17.5t35 -22.5t14.5 -23q0 -16 -35 -157.5t-94 -388.5h20q45 86 96.5 173t99.5 162.5t89 133t63 86.5q12 16 38 38.5t61 22.5q33 0 64.5 -11t57 -31.5t41 -48.5t15.5 -58q0 -16 -8.5 -54.5t-22.5 -88.5 t-30.5 -106.5t-30.5 -107.5l-111 -371l66 -14l165 166l33 -37q-16 -25 -46 -61.5t-62.5 -69.5t-64 -56.5t-56.5 -23.5zM508 -266q-10 -49 -38 -88t-65.5 -68t-80.5 -50.5t-86 -35.5l-17 31q68 25 113 63.5t61 110.5q6 33 -5 55.5t-28.5 36.5t-32 21.5t-14.5 9.5 q8 33 35 55.5t68 18.5q51 -6 76.5 -53.5t13.5 -106.5z" />
<glyph unicode="&#x147;" horiz-adv-x="1359" d="M442 1184h-6l-139 -1092q-2 -12 8 -12l176 -17l6 -63h-477l6 63l187 17q10 0 12 12l141 1082q2 10 -8 12l-158 31l-6 63h322l543 -1118h4l131 1026q2 12 -8 12l-177 17l-6 63h477l-6 -63l-186 -17q-10 0 -12 -12l-158 -1198h-84zM582 1737h39l196 -289h4l275 289h47 l-246 -363h-168z" />
<glyph unicode="&#x148;" horiz-adv-x="1054" d="M760 -33q-16 0 -37 7.5t-39 17.5t-31.5 22.5t-13.5 22.5q0 23 10 64.5t26.5 97t36 121t40.5 135.5q35 119 59.5 203.5t24.5 109.5q0 39 -36 67.5t-73 28.5q-23 0 -73 -63.5t-114.5 -164.5t-135 -225t-136.5 -247l-26 -172l-109 10l64 301l120 541l-65 14l-166 -166 l-33 37q16 25 46 61.5t63 69.5t64.5 56.5t56.5 23.5q14 0 36.5 -7t43 -17.5t35 -22.5t14.5 -23q0 -16 -35 -157.5t-94 -388.5h20q45 86 96.5 173t99.5 162.5t89 133t63 86.5q12 16 38 38.5t61 22.5q33 0 64.5 -11t57 -31.5t41 -48.5t15.5 -58q0 -16 -8.5 -54.5t-22.5 -88.5 t-30.5 -106.5t-30.5 -107.5l-111 -371l66 -14l165 166l33 -37q-16 -25 -46 -61.5t-62.5 -69.5t-64 -56.5t-56.5 -23.5zM369 1397h39l196 -289h4l275 289h47l-246 -363h-168z" />
<glyph unicode="&#x14c;" horiz-adv-x="1378" d="M672 -33q-127 0 -230.5 49.5t-179.5 132t-117 193.5t-41 231q0 135 44.5 263.5t127.5 232.5q86 109 208 174.5t272 65.5q125 0 230.5 -49.5t180 -132.5t116.5 -193.5t42 -231.5q0 -147 -52 -285t-151 -245q-86 -92 -199.5 -148.5t-250.5 -56.5zM686 35q129 0 225.5 63.5 t160 161.5t95 217t31.5 232q0 121 -36 228t-111 183q-57 57 -133 89t-175 32q-129 0 -225 -63.5t-159.5 -161.5t-95.5 -217t-32 -232q0 -123 39 -232.5t115 -184.5q115 -115 301 -115zM545 1516h469l8 -78h-481z" />
<glyph unicode="&#x14d;" horiz-adv-x="878" d="M356 -33q-78 0 -132 35t-88 89t-50 122t-16 133q0 92 30.5 195.5t88 192.5t141.5 147.5t188 58.5q76 0 131.5 -35t89 -90t50 -122.5t16.5 -133.5q0 -92 -31 -195.5t-88 -191.5t-141.5 -146.5t-188.5 -58.5zM373 27q57 0 104 30.5t84 79.5t64.5 111.5t46.5 126.5 q16 57 24.5 110.5t8.5 94.5q0 55 -10.5 109t-34 97t-62.5 69t-96 26q-55 0 -102.5 -31t-85.5 -80t-65.5 -111.5t-45.5 -126.5q-16 -59 -24.5 -112t-8.5 -94q0 -55 10 -109.5t34 -96.5t63 -67.5t96 -25.5zM315 1176h469l9 -78h-482z" />
<glyph unicode="&#x14e;" horiz-adv-x="1378" d="M672 -33q-127 0 -230.5 49.5t-179.5 132t-117 193.5t-41 231q0 135 44.5 263.5t127.5 232.5q86 109 208 174.5t272 65.5q125 0 230.5 -49.5t180 -132.5t116.5 -193.5t42 -231.5q0 -147 -52 -285t-151 -245q-86 -92 -199.5 -148.5t-250.5 -56.5zM686 35q129 0 225.5 63.5 t160 161.5t95 217t31.5 232q0 121 -36 228t-111 183q-57 57 -133 89t-175 32q-129 0 -225 -63.5t-159.5 -161.5t-95.5 -217t-32 -232q0 -123 39 -232.5t115 -184.5q115 -115 301 -115zM803 1374q-68 0 -111 35t-67.5 88t-35.5 116.5t-18 123.5h50q23 -158 70.5 -220.5 t119.5 -62.5t135.5 62.5t128.5 220.5h58q-23 -59 -50.5 -123t-65.5 -117t-91 -88t-123 -35z" />
<glyph unicode="&#x14f;" horiz-adv-x="878" d="M356 -33q-78 0 -132 35t-88 89t-50 122t-16 133q0 92 30.5 195.5t88 192.5t141.5 147.5t188 58.5q76 0 131.5 -35t89 -90t50 -122.5t16.5 -133.5q0 -92 -31 -195.5t-88 -191.5t-141.5 -146.5t-188.5 -58.5zM373 27q57 0 104 30.5t84 79.5t64.5 111.5t46.5 126.5 q16 57 24.5 110.5t8.5 94.5q0 55 -10.5 109t-34 97t-62.5 69t-96 26q-55 0 -102.5 -31t-85.5 -80t-65.5 -111.5t-45.5 -126.5q-16 -59 -24.5 -112t-8.5 -94q0 -55 10 -109.5t34 -96.5t63 -67.5t96 -25.5zM532 1034q-68 0 -110.5 35t-67 88t-36 116.5t-17.5 123.5h49 q23 -158 71 -220.5t120 -62.5t135 62.5t129 220.5h57q-23 -59 -50.5 -123t-65 -117t-91 -88t-123.5 -35z" />
<glyph unicode="&#x150;" horiz-adv-x="1378" d="M672 -33q-127 0 -230.5 49.5t-179.5 132t-117 193.5t-41 231q0 135 44.5 263.5t127.5 232.5q86 109 208 174.5t272 65.5q125 0 230.5 -49.5t180 -132.5t116.5 -193.5t42 -231.5q0 -147 -52 -285t-151 -245q-86 -92 -199.5 -148.5t-250.5 -56.5zM686 35q129 0 225.5 63.5 t160 161.5t95 217t31.5 232q0 121 -36 228t-111 183q-57 57 -133 89t-175 32q-129 0 -225 -63.5t-159.5 -161.5t-95.5 -217t-32 -232q0 -123 39 -232.5t115 -184.5q115 -115 301 -115zM1053 1737h145l-326 -363h-49zM750 1737h145l-326 -363h-49z" />
<glyph unicode="&#x151;" horiz-adv-x="878" d="M356 -33q-78 0 -132 35t-88 89t-50 122t-16 133q0 92 30.5 195.5t88 192.5t141.5 147.5t188 58.5q76 0 131.5 -35t89 -90t50 -122.5t16.5 -133.5q0 -92 -31 -195.5t-88 -191.5t-141.5 -146.5t-188.5 -58.5zM373 27q57 0 104 30.5t84 79.5t64.5 111.5t46.5 126.5 q16 57 24.5 110.5t8.5 94.5q0 55 -10.5 109t-34 97t-62.5 69t-96 26q-55 0 -102.5 -31t-85.5 -80t-65.5 -111.5t-45.5 -126.5q-16 -59 -24.5 -112t-8.5 -94q0 -55 10 -109.5t34 -96.5t63 -67.5t96 -25.5zM799 1397h145l-326 -363h-49zM496 1397h145l-326 -363h-49z" />
<glyph unicode="&#x152;" horiz-adv-x="1812" d="M709 0q-131 0 -242 38t-191.5 111.5t-126 182t-45.5 250.5q0 141 50.5 265t144.5 218q57 57 127 98t145.5 66.5t153.5 38t154 12.5h909l-45 -346h-64l-8 223q0 18 -10 29.5t-53 17.5t-133.5 8t-251.5 2h-95l-69 -526h131q76 0 119 1t64.5 4t27.5 8.5t10 15.5l62 135h49 l-90 -395h-50l7 133q0 8 -3.5 15t-23 10t-62.5 5.5t-120 2.5h-129l-74 -557h47q184 0 286.5 2t152.5 8t64.5 17t20.5 30l82 219h74l-82 -342h-913zM868 63l148 1129l-170 22q-127 -6 -239.5 -48t-197.5 -119.5t-135.5 -191.5t-50.5 -267q0 -129 38 -227.5t105.5 -164 t164 -99.5t212.5 -34h125z" />
<glyph unicode="&#x153;" horiz-adv-x="1318" d="M356 -33q-78 0 -132 35t-88 89t-50 122t-16 133q0 92 30.5 195.5t88 192.5t141.5 147.5t188 58.5q57 0 101.5 -19.5t78 -53t56 -78t34.5 -93.5q66 111 159 177.5t192 66.5q45 0 83 -14.5t64.5 -37t40.5 -49t14 -51.5q0 -37 -20.5 -66.5t-80.5 -71.5t-171 -105.5 t-291 -169.5q-2 -16 -2 -31.5v-32.5q0 -72 18.5 -123t47 -83.5t62.5 -47t67 -14.5q23 0 54.5 14.5t66 38t68.5 51t63 56.5l32 -37q-31 -35 -71.5 -70t-84.5 -63.5t-87 -47t-78 -18.5q-86 0 -152.5 57.5t-91.5 153.5q-59 -92 -142 -151.5t-192 -59.5zM788 440 q141 84 230.5 134.5t139.5 83t67.5 56t17.5 54.5q0 20 -14.5 41.5t-38 38t-55 27t-66.5 10.5q-20 0 -49 -18.5t-49 -39.5q-25 -25 -52.5 -65.5t-53 -92t-47 -109.5t-34.5 -120h4zM373 27q57 0 104 30.5t84 79.5t64.5 111.5t46.5 126.5q16 57 24.5 110.5t8.5 94.5 q0 55 -10.5 109t-34 97t-62.5 69t-96 26q-55 0 -102.5 -31t-85.5 -80t-65.5 -111.5t-45.5 -126.5q-16 -59 -24.5 -112t-8.5 -94q0 -55 10 -109.5t34 -96.5t63 -67.5t96 -25.5z" />
<glyph unicode="&#x154;" horiz-adv-x="1148" d="M43 63l160 17q10 0 12 12l143 1096q2 12 -8 12l-155 17l-7 63h494q100 0 175 -24.5t125 -65.5t74.5 -97.5t24.5 -117.5q0 -154 -100 -258.5t-276 -151.5l245 -473q4 -10 17 -12l127 -17l6 -63h-234l-63 141l-203 418l-215 4l-61 -471q-2 -12 8 -12l155 -17l7 -63h-457z M641 614q68 12 127 41t102 72t68 99.5t25 123.5q0 59 -24 110.5t-70 87.5t-114.5 54.5t-158.5 14.5l-127 -9l-76 -567zM797 1737h164l-373 -363h-47z" />
<glyph unicode="&#x155;" horiz-adv-x="804" d="M133 2l64 299l120 543l-65 14l-166 -166l-33 37q16 25 46 61.5t63 69.5t64.5 56.5t56.5 23.5q14 0 36.5 -7t43 -17.5t35 -22.5t14.5 -23q0 -16 -35 -157.5t-94 -388.5h20l174 323q47 88 79 144.5t58.5 89t54 46t66.5 13.5q53 0 87 -42t34 -85q0 -37 -20.5 -62.5 t-59.5 -25.5q-14 0 -29.5 6t-24.5 19.5t-10 33t13 45.5l-55 21l-398 -666l-30 -192zM645 1397h164l-373 -363h-47z" />
<glyph unicode="&#x156;" horiz-adv-x="1148" d="M43 63l160 17q10 0 12 12l143 1096q2 12 -8 12l-155 17l-7 63h494q100 0 175 -24.5t125 -65.5t74.5 -97.5t24.5 -117.5q0 -154 -100 -258.5t-276 -151.5l245 -473q4 -10 17 -12l127 -17l6 -63h-234l-63 141l-203 418l-215 4l-61 -471q-2 -12 8 -12l155 -17l7 -63h-457z M641 614q68 12 127 41t102 72t68 99.5t25 123.5q0 59 -24 110.5t-70 87.5t-114.5 54.5t-158.5 14.5l-127 -9l-76 -567zM698 -266q-10 -49 -37.5 -88t-65.5 -68t-81 -50.5t-86 -35.5l-16 31q68 25 112.5 63.5t61.5 110.5q6 33 -5.5 55.5t-28.5 36.5t-31.5 21.5t-14.5 9.5 q8 33 34.5 55.5t67.5 18.5q51 -6 76.5 -53.5t13.5 -106.5z" />
<glyph unicode="&#x157;" horiz-adv-x="804" d="M133 2l64 299l120 543l-65 14l-166 -166l-33 37q16 25 46 61.5t63 69.5t64.5 56.5t56.5 23.5q14 0 36.5 -7t43 -17.5t35 -22.5t14.5 -23q0 -16 -35 -157.5t-94 -388.5h20l174 323q47 88 79 144.5t58.5 89t54 46t66.5 13.5q53 0 87 -42t34 -85q0 -37 -20.5 -62.5 t-59.5 -25.5q-14 0 -29.5 6t-24.5 19.5t-10 33t13 45.5l-55 21l-398 -666l-30 -192zM276 -266q-10 -49 -37.5 -88t-65.5 -68t-81 -50.5t-86 -35.5l-16 31q68 25 112.5 63.5t61.5 110.5q6 33 -5.5 55.5t-28.5 36.5t-31.5 21.5t-14.5 9.5q8 33 34.5 55.5t67.5 18.5 q51 -6 76.5 -53.5t13.5 -106.5z" />
<glyph unicode="&#x158;" horiz-adv-x="1148" d="M43 63l160 17q10 0 12 12l143 1096q2 12 -8 12l-155 17l-7 63h494q100 0 175 -24.5t125 -65.5t74.5 -97.5t24.5 -117.5q0 -154 -100 -258.5t-276 -151.5l245 -473q4 -10 17 -12l127 -17l6 -63h-234l-63 141l-203 418l-215 4l-61 -471q-2 -12 8 -12l155 -17l7 -63h-457z M641 614q68 12 127 41t102 72t68 99.5t25 123.5q0 59 -24 110.5t-70 87.5t-114.5 54.5t-158.5 14.5l-127 -9l-76 -567zM416 1737h39l196 -289h4l275 289h47l-246 -363h-168z" />
<glyph unicode="&#x159;" horiz-adv-x="804" d="M133 2l64 299l120 543l-65 14l-166 -166l-33 37q16 25 46 61.5t63 69.5t64.5 56.5t56.5 23.5q14 0 36.5 -7t43 -17.5t35 -22.5t14.5 -23q0 -16 -35 -157.5t-94 -388.5h20l174 323q47 88 79 144.5t58.5 89t54 46t66.5 13.5q53 0 87 -42t34 -85q0 -37 -20.5 -62.5 t-59.5 -25.5q-14 0 -29.5 6t-24.5 19.5t-10 33t13 45.5l-55 21l-398 -666l-30 -192zM264 1397h39l197 -289h4l274 289h47l-245 -363h-168z" />
<glyph unicode="&#x15a;" horiz-adv-x="970" d="M393 -31q-86 0 -174 10.5t-172 32.5l12 355h68l37 -287q51 -23 120.5 -33t125.5 -10q63 0 126.5 13t113.5 45t82 83t32 125q0 61 -24.5 106.5t-64.5 82t-91.5 66.5t-106.5 58q-57 31 -112.5 65t-99.5 77t-70.5 97t-26.5 128q0 92 41 154.5t106.5 100.5t145.5 54.5 t157 16.5q57 0 115 -4.5t113 -16.5l112 31l-51 -391h-69l-9 260q-45 29 -111.5 42t-119.5 13q-57 0 -115.5 -11t-105.5 -39t-77 -73t-30 -112q0 -61 24.5 -108.5t64.5 -84.5t91.5 -66.5t106.5 -60.5t109.5 -63.5t96.5 -74.5t68.5 -94.5t26.5 -121.5q0 -100 -40 -170 t-105.5 -113t-148.5 -62.5t-171 -19.5zM735 1737h164l-373 -363h-47z" />
<glyph unicode="&#x15b;" horiz-adv-x="661" d="M227 -33q-102 0 -163.5 36t-61.5 95q0 37 21.5 61.5t58.5 24.5q29 0 49.5 -20.5t20.5 -48.5q0 -10 -2.5 -25.5t-4.5 -19.5q41 -18 90.5 -26.5t108.5 -12.5q66 29 95.5 74t29.5 106q0 59 -46 108.5t-124 116.5q-35 29 -66.5 59.5t-58.5 62.5t-42 66.5t-15 71.5 q0 57 27.5 103.5t71.5 77t101.5 47t116.5 16.5q33 0 72 -6t71.5 -20.5t54 -39t21.5 -63.5t-20.5 -63.5t-59.5 -24.5q-29 0 -47 20.5t-18 49.5q0 12 1 26.5t3 24.5q-47 16 -91 24.5t-91 10.5q-68 -20 -97.5 -62.5t-29.5 -103.5q0 -29 8 -52.5t27.5 -48t52.5 -53.5t82 -72 q70 -59 126 -124.5t56 -139.5q0 -51 -23.5 -97t-66.5 -82t-103.5 -56.5t-134.5 -20.5zM582 1397h163l-372 -363h-47z" />
<glyph unicode="&#x15c;" horiz-adv-x="970" d="M393 -31q-86 0 -174 10.5t-172 32.5l12 355h68l37 -287q51 -23 120.5 -33t125.5 -10q63 0 126.5 13t113.5 45t82 83t32 125q0 61 -24.5 106.5t-64.5 82t-91.5 66.5t-106.5 58q-57 31 -112.5 65t-99.5 77t-70.5 97t-26.5 128q0 92 41 154.5t106.5 100.5t145.5 54.5 t157 16.5q57 0 115 -4.5t113 -16.5l112 31l-51 -391h-69l-9 260q-45 29 -111.5 42t-119.5 13q-57 0 -115.5 -11t-105.5 -39t-77 -73t-30 -112q0 -61 24.5 -108.5t64.5 -84.5t91.5 -66.5t106.5 -60.5t109.5 -63.5t96.5 -74.5t68.5 -94.5t26.5 -121.5q0 -100 -40 -170 t-105.5 -113t-148.5 -62.5t-171 -19.5zM565 1737h168l148 -363h-39l-99 144q-18 27 -35.5 53t-31.5 47q-16 23 -31 45h-4l-274 -289h-48z" />
<glyph unicode="&#x15d;" horiz-adv-x="661" d="M227 -33q-102 0 -163.5 36t-61.5 95q0 37 21.5 61.5t58.5 24.5q29 0 49.5 -20.5t20.5 -48.5q0 -10 -2.5 -25.5t-4.5 -19.5q41 -18 90.5 -26.5t108.5 -12.5q66 29 95.5 74t29.5 106q0 59 -46 108.5t-124 116.5q-35 29 -66.5 59.5t-58.5 62.5t-42 66.5t-15 71.5 q0 57 27.5 103.5t71.5 77t101.5 47t116.5 16.5q33 0 72 -6t71.5 -20.5t54 -39t21.5 -63.5t-20.5 -63.5t-59.5 -24.5q-29 0 -47 20.5t-18 49.5q0 12 1 26.5t3 24.5q-47 16 -91 24.5t-91 10.5q-68 -20 -97.5 -62.5t-29.5 -103.5q0 -29 8 -52.5t27.5 -48t52.5 -53.5t82 -72 q70 -59 126 -124.5t56 -139.5q0 -51 -23.5 -97t-66.5 -82t-103.5 -56.5t-134.5 -20.5zM360 1397h168l148 -363h-39l-98 144q-18 27 -36 53t-32 47q-16 23 -31 45h-4l-274 -289h-47z" />
<glyph unicode="&#x15e;" horiz-adv-x="970" d="M393 -31q-86 0 -174 10.5t-172 32.5l12 355h68l37 -287q51 -23 120.5 -33t125.5 -10q63 0 126.5 13t113.5 45t82 83t32 125q0 61 -24.5 106.5t-64.5 82t-91.5 66.5t-106.5 58q-57 31 -112.5 65t-99.5 77t-70.5 97t-26.5 128q0 92 41 154.5t106.5 100.5t145.5 54.5 t157 16.5q57 0 115 -4.5t113 -16.5l112 31l-51 -391h-69l-9 260q-45 29 -111.5 42t-119.5 13q-57 0 -115.5 -11t-105.5 -39t-77 -73t-30 -112q0 -61 24.5 -108.5t64.5 -84.5t91.5 -66.5t106.5 -60.5t109.5 -63.5t96.5 -74.5t68.5 -94.5t26.5 -121.5q0 -88 -30.5 -151.5 t-83 -107.5t-122 -67.5t-145.5 -32.5l-106 -102q100 8 167.5 -33t67.5 -119q0 -51 -30.5 -94t-86 -75.5t-134.5 -55t-173 -31.5l-8 37q176 27 260 77t84 130q0 43 -39 72t-121 29q-20 0 -47.5 -2.5t-54.5 -6.5l4 25l150 143h-17v0z" />
<glyph unicode="&#x15f;" horiz-adv-x="661" d="M18 -498q176 27 260 77t84 130q0 43 -38.5 72t-120.5 29q-20 0 -48 -2.5t-55 -6.5l4 25l148 143q-6 0 -12.5 -1t-12.5 -1q-102 0 -163.5 36t-61.5 95q0 37 21.5 61.5t58.5 24.5q29 0 49.5 -20.5t20.5 -48.5q0 -10 -2.5 -25.5t-4.5 -19.5q41 -18 90.5 -26.5t108.5 -12.5 q66 29 95.5 74t29.5 106q0 59 -46 108.5t-124 116.5q-35 29 -66.5 59.5t-58.5 62.5t-42 66.5t-15 71.5q0 57 27.5 103.5t71.5 77t101.5 47t116.5 16.5q33 0 72 -6t71.5 -20.5t54 -39t21.5 -63.5t-20.5 -63.5t-59.5 -24.5q-29 0 -47 20.5t-18 49.5q0 12 1 26.5t3 24.5 q-47 16 -91 24.5t-91 10.5q-68 -20 -97.5 -62.5t-29.5 -103.5q0 -29 8 -52.5t27.5 -48t52.5 -53.5t82 -72q70 -59 126 -124.5t56 -139.5q0 -84 -61.5 -152.5t-165.5 -90.5l-113 -107q100 8 168 -33t68 -119q0 -51 -31 -94t-86 -75.5t-134 -55t-173 -31.5z" />
<glyph unicode="&#x160;" horiz-adv-x="970" d="M393 -31q-86 0 -174 10.5t-172 32.5l12 355h68l37 -287q51 -23 120.5 -33t125.5 -10q63 0 126.5 13t113.5 45t82 83t32 125q0 61 -24.5 106.5t-64.5 82t-91.5 66.5t-106.5 58q-57 31 -112.5 65t-99.5 77t-70.5 97t-26.5 128q0 92 41 154.5t106.5 100.5t145.5 54.5 t157 16.5q57 0 115 -4.5t113 -16.5l112 31l-51 -391h-69l-9 260q-45 29 -111.5 42t-119.5 13q-57 0 -115.5 -11t-105.5 -39t-77 -73t-30 -112q0 -61 24.5 -108.5t64.5 -84.5t91.5 -66.5t106.5 -60.5t109.5 -63.5t96.5 -74.5t68.5 -94.5t26.5 -121.5q0 -100 -40 -170 t-105.5 -113t-148.5 -62.5t-171 -19.5zM369 1769h39l196 -288h4l275 288h47l-246 -362h-168z" />
<glyph unicode="&#x161;" horiz-adv-x="661" d="M227 -33q-102 0 -163.5 36t-61.5 95q0 37 21.5 61.5t58.5 24.5q29 0 49.5 -20.5t20.5 -48.5q0 -10 -2.5 -25.5t-4.5 -19.5q41 -18 90.5 -26.5t108.5 -12.5q66 29 95.5 74t29.5 106q0 59 -46 108.5t-124 116.5q-35 29 -66.5 59.5t-58.5 62.5t-42 66.5t-15 71.5 q0 57 27.5 103.5t71.5 77t101.5 47t116.5 16.5q33 0 72 -6t71.5 -20.5t54 -39t21.5 -63.5t-20.5 -63.5t-59.5 -24.5q-29 0 -47 20.5t-18 49.5q0 12 1 26.5t3 24.5q-47 16 -91 24.5t-91 10.5q-68 -20 -97.5 -62.5t-29.5 -103.5q0 -29 8 -52.5t27.5 -48t52.5 -53.5t82 -72 q70 -59 126 -124.5t56 -139.5q0 -51 -23.5 -97t-66.5 -82t-103.5 -56.5t-134.5 -20.5zM193 1397h38l197 -289h4l275 289h47l-246 -363h-168z" />
<glyph unicode="&#x162;" horiz-adv-x="1226" d="M315 63l181 17q10 0 12 12l147 1122h-39q-125 0 -192.5 -2t-99 -8t-40 -17t-14.5 -30l-86 -250h-73l86 373h1056l-49 -377h-61l-4 254q0 18 -5.5 29.5t-37 17.5t-100 8t-193.5 2h-39l-148 -1122q-2 -12 9 -12l176 -17l6 -63h-498zM629 -266q-10 -49 -38 -88t-66 -68 t-81 -50.5t-86 -35.5l-16 31q68 25 113 63.5t61 110.5q6 33 -5 55.5t-28.5 36.5t-32 21.5t-14.5 9.5q8 33 35 55.5t68 18.5q51 -6 76.5 -53.5t13.5 -106.5z" />
<glyph unicode="&#x163;" horiz-adv-x="569" d="M223 -33q-16 0 -36.5 7.5t-39 17.5t-31 22.5t-10.5 22.5l160 803l-174 6l4 55l191 29l51 266h82l-55 -278h241l6 -76h-264l-160 -779l66 -14l170 166l33 -37q-18 -25 -48 -61.5t-63 -69.5t-65.5 -56.5t-57.5 -23.5zM317 -266q-10 -49 -37.5 -88t-65.5 -68t-81 -50.5 t-86 -35.5l-16 31q68 25 112.5 63.5t61.5 110.5q6 33 -5.5 55.5t-28.5 36.5t-31.5 21.5t-14.5 9.5q8 33 34.5 55.5t67.5 18.5q51 -6 76.5 -53.5t13.5 -106.5z" />
<glyph unicode="&#x164;" horiz-adv-x="1226" d="M315 63l181 17q10 0 12 12l147 1122h-39q-125 0 -192.5 -2t-99 -8t-40 -17t-14.5 -30l-86 -250h-73l86 373h1056l-49 -377h-61l-4 254q0 18 -5.5 29.5t-37 17.5t-100 8t-193.5 2h-39l-148 -1122q-2 -12 9 -12l176 -17l6 -63h-498zM496 1737h39l196 -289h4l275 289h47 l-246 -363h-168z" />
<glyph unicode="&#x165;" horiz-adv-x="716" d="M223 -33q-16 0 -36.5 7.5t-39 17.5t-31 22.5t-10.5 22.5l160 803l-174 6l4 55l191 29l51 266h82l-55 -278h241l6 -76h-264l-160 -779l66 -14l170 166l33 -37q-18 -25 -48 -61.5t-63 -69.5t-65.5 -56.5t-57.5 -23.5zM471 1022q72 49 117 104.5t55 130.5q4 35 -9 57.5 t-31.5 37t-35 21.5t-16.5 9q4 31 24.5 55.5t65.5 24.5q59 0 93 -42t24 -103q-6 -51 -32 -98.5t-62.5 -88t-80.5 -75.5t-89 -62z" />
<glyph unicode="&#x16a;" horiz-adv-x="1445" d="M668 -31q-98 0 -180 24.5t-141.5 73t-92.5 119t-33 164.5q0 39 4 84t11 88l88 666q2 12 -9 12l-155 17l-6 63h456l-6 -63l-160 -17q-10 0 -12 -12l-92 -707q-4 -23 -7 -51.5t-3 -58.5q0 -154 93 -239t269 -85q76 0 143.5 22.5t121 68.5t89 116t48.5 164l100 770 q2 12 -8 12l-176 17l-6 63h477l-6 -63l-187 -17q-10 0 -12 -12l-102 -778q-14 -111 -58.5 -194t-110 -137t-151.5 -82t-186 -28zM602 1516h469l8 -78h-481z" />
<glyph unicode="&#x16b;" horiz-adv-x="1054" d="M283 -33q-66 0 -111 43t-45 107q0 16 8 54t22.5 88t30 106.5t31.5 107.5l111 371l-66 14l-166 -166l-32 37q16 25 45.5 61.5t62.5 69.5t64.5 56.5t56.5 23.5q14 0 35.5 -7t40 -17.5t32 -22.5t13.5 -23q0 -23 -10.5 -64.5t-27 -97t-35.5 -121t-40 -134.5 q-35 -119 -59.5 -203t-24.5 -109q0 -39 36 -68.5t73 -29.5q23 0 73 63.5t114.5 165t135 225.5t135.5 246l37 172l109 -10l-74 -301l-121 -541l66 -14l166 166l32 -37q-16 -25 -45.5 -61.5t-62.5 -69.5t-64.5 -56.5t-56.5 -23.5q-16 0 -37.5 7.5t-42 17.5t-35 22.5 t-14.5 22.5q0 16 35 157.5t94 389.5h-20q-43 -86 -94.5 -173t-100.5 -163t-90 -134.5t-64 -84.5q-12 -16 -42.5 -39t-77.5 -23zM387 1176h469l8 -78h-481z" />
<glyph unicode="&#x16c;" horiz-adv-x="1445" d="M668 -31q-98 0 -180 24.5t-141.5 73t-92.5 119t-33 164.5q0 39 4 84t11 88l88 666q2 12 -9 12l-155 17l-6 63h456l-6 -63l-160 -17q-10 0 -12 -12l-92 -707q-4 -23 -7 -51.5t-3 -58.5q0 -154 93 -239t269 -85q76 0 143.5 22.5t121 68.5t89 116t48.5 164l100 770 q2 12 -8 12l-176 17l-6 63h477l-6 -63l-187 -17q-10 0 -12 -12l-102 -778q-14 -111 -58.5 -194t-110 -137t-151.5 -82t-186 -28zM850 1374q-68 0 -111 35t-67.5 88t-35.5 116.5t-18 123.5h50q23 -158 70.5 -220.5t119.5 -62.5t135.5 62.5t128.5 220.5h58q-23 -59 -50.5 -123 t-65.5 -117t-91 -88t-123 -35z" />
<glyph unicode="&#x16d;" horiz-adv-x="1054" d="M283 -33q-66 0 -111 43t-45 107q0 16 8 54t22.5 88t30 106.5t31.5 107.5l111 371l-66 14l-166 -166l-32 37q16 25 45.5 61.5t62.5 69.5t64.5 56.5t56.5 23.5q14 0 35.5 -7t40 -17.5t32 -22.5t13.5 -23q0 -23 -10.5 -64.5t-27 -97t-35.5 -121t-40 -134.5 q-35 -119 -59.5 -203t-24.5 -109q0 -39 36 -68.5t73 -29.5q23 0 73 63.5t114.5 165t135 225.5t135.5 246l37 172l109 -10l-74 -301l-121 -541l66 -14l166 166l32 -37q-16 -25 -45.5 -61.5t-62.5 -69.5t-64.5 -56.5t-56.5 -23.5q-16 0 -37.5 7.5t-42 17.5t-35 22.5 t-14.5 22.5q0 16 35 157.5t94 389.5h-20q-43 -86 -94.5 -173t-100.5 -163t-90 -134.5t-64 -84.5q-12 -16 -42.5 -39t-77.5 -23zM614 1034q-68 0 -110.5 35t-67 88t-36 116.5t-17.5 123.5h49q23 -158 71 -220.5t120 -62.5t135 62.5t129 220.5h57q-23 -59 -50.5 -123t-65 -117 t-91 -88t-123.5 -35z" />
<glyph unicode="&#x16e;" horiz-adv-x="1445" d="M668 -31q-98 0 -180 24.5t-141.5 73t-92.5 119t-33 164.5q0 39 4 84t11 88l88 666q2 12 -9 12l-155 17l-6 63h456l-6 -63l-160 -17q-10 0 -12 -12l-92 -707q-4 -23 -7 -51.5t-3 -58.5q0 -154 93 -239t269 -85q76 0 143.5 22.5t121 68.5t89 116t48.5 164l100 770 q2 12 -8 12l-176 17l-6 63h477l-6 -63l-187 -17q-10 0 -12 -12l-102 -778q-14 -111 -58.5 -194t-110 -137t-151.5 -82t-186 -28zM823 1389q-86 0 -134 54t-48 130t48 130t134 54t135.5 -54t47.5 -130t-49.5 -130t-133.5 -54zM825 1440q59 0 90 40t31 93t-31.5 93t-91.5 40 q-59 0 -90 -40t-33 -93t32 -93t93 -40z" />
<glyph unicode="&#x16f;" horiz-adv-x="1054" d="M283 -33q-66 0 -111 43t-45 107q0 16 8 54t22.5 88t30 106.5t31.5 107.5l111 371l-66 14l-166 -166l-32 37q16 25 45.5 61.5t62.5 69.5t64.5 56.5t56.5 23.5q14 0 35.5 -7t40 -17.5t32 -22.5t13.5 -23q0 -23 -10.5 -64.5t-27 -97t-35.5 -121t-40 -134.5 q-35 -119 -59.5 -203t-24.5 -109q0 -39 36 -68.5t73 -29.5q23 0 73 63.5t114.5 165t135 225.5t135.5 246l37 172l109 -10l-74 -301l-121 -541l66 -14l166 166l32 -37q-16 -25 -45.5 -61.5t-62.5 -69.5t-64.5 -56.5t-56.5 -23.5q-16 0 -37.5 7.5t-42 17.5t-35 22.5 t-14.5 22.5q0 16 35 157.5t94 389.5h-20q-43 -86 -94.5 -173t-100.5 -163t-90 -134.5t-64 -84.5q-12 -16 -42.5 -39t-77.5 -23zM659 1049q-86 0 -134 54t-48 130t48 130t134 54t135.5 -54t47.5 -130t-49.5 -130t-133.5 -54zM662 1100q59 0 89.5 40t30.5 93t-31.5 93 t-91.5 40q-59 0 -89.5 -40t-32.5 -93t32 -93t93 -40z" />
<glyph unicode="&#x170;" horiz-adv-x="1445" d="M668 -31q-98 0 -180 24.5t-141.5 73t-92.5 119t-33 164.5q0 39 4 84t11 88l88 666q2 12 -9 12l-155 17l-6 63h456l-6 -63l-160 -17q-10 0 -12 -12l-92 -707q-4 -23 -7 -51.5t-3 -58.5q0 -154 93 -239t269 -85q76 0 143.5 22.5t121 68.5t89 116t48.5 164l100 770 q2 12 -8 12l-176 17l-6 63h477l-6 -63l-187 -17q-10 0 -12 -12l-102 -778q-14 -111 -58.5 -194t-110 -137t-151.5 -82t-186 -28zM1118 1737h146l-326 -363h-49zM815 1737h146l-326 -363h-49z" />
<glyph unicode="&#x171;" horiz-adv-x="1054" d="M283 -33q-66 0 -111 43t-45 107q0 16 8 54t22.5 88t30 106.5t31.5 107.5l111 371l-66 14l-166 -166l-32 37q16 25 45.5 61.5t62.5 69.5t64.5 56.5t56.5 23.5q14 0 35.5 -7t40 -17.5t32 -22.5t13.5 -23q0 -23 -10.5 -64.5t-27 -97t-35.5 -121t-40 -134.5 q-35 -119 -59.5 -203t-24.5 -109q0 -39 36 -68.5t73 -29.5q23 0 73 63.5t114.5 165t135 225.5t135.5 246l37 172l109 -10l-74 -301l-121 -541l66 -14l166 166l32 -37q-16 -25 -45.5 -61.5t-62.5 -69.5t-64.5 -56.5t-56.5 -23.5q-16 0 -37.5 7.5t-42 17.5t-35 22.5 t-14.5 22.5q0 16 35 157.5t94 389.5h-20q-43 -86 -94.5 -173t-100.5 -163t-90 -134.5t-64 -84.5q-12 -16 -42.5 -39t-77.5 -23zM618 1397h146l-326 -363h-49zM922 1397h145l-326 -363h-49z" />
<glyph unicode="&#x172;" horiz-adv-x="1445" d="M743 -408q-66 6 -100.5 49.5t-17.5 118.5q12 63 57 120t102 100q-29 -4 -57.5 -7.5t-58.5 -3.5q-98 0 -180 24.5t-141.5 73t-92.5 119t-33 164.5q0 39 4 84t11 88l88 666q2 12 -9 12l-155 17l-6 63h456l-6 -63l-160 -17q-10 0 -12 -12l-92 -707q-4 -23 -7 -51.5t-3 -58.5 q0 -154 93 -239t269 -85q76 0 143.5 22.5t121 68.5t89 116t48.5 164l100 770q2 12 -8 12l-176 17l-6 63h477l-6 -63l-187 -17q-10 0 -12 -12l-102 -778q-20 -150 -85 -244t-169 -150q-84 -45 -139.5 -110.5t-67.5 -124.5q-10 -49 2 -85t55 -40q35 -4 64.5 6t46.5 31l22 -25 q-29 -35 -66 -58.5t-94 -17.5z" />
<glyph unicode="&#x173;" horiz-adv-x="1054" d="M692 -408q-66 6 -100.5 49.5t-18.5 118.5q12 61 55.5 117.5t98.5 99.5q-31 10 -57.5 26.5t-26.5 33.5q0 16 35 157.5t94 389.5h-20q-43 -86 -94.5 -173t-100.5 -163t-90 -134.5t-64 -84.5q-12 -16 -42.5 -39t-77.5 -23q-66 0 -111 43t-45 107q0 16 8 54t22.5 88t30 106.5 t31.5 107.5l111 371l-66 14l-166 -166l-32 37q16 25 45.5 61.5t62.5 69.5t64.5 56.5t56.5 23.5q14 0 35.5 -7t40 -17.5t32 -22.5t13.5 -23q0 -23 -10.5 -64.5t-27 -97t-35.5 -121t-40 -134.5q-35 -119 -59.5 -203t-24.5 -109q0 -39 36 -68.5t73 -29.5q23 0 73 63.5 t114.5 165t135 225.5t135.5 246l37 172l109 -10l-74 -301l-121 -541l66 -14l166 166l32 -37q-16 -23 -38.5 -52.5t-48 -58t-52 -53t-49.5 -37.5q-59 -33 -100 -91t-51 -105q-10 -49 2 -85t55 -40q35 -4 64.5 6t45.5 31l23 -25q-29 -35 -66 -58.5t-94 -17.5z" />
<glyph unicode="&#x174;" horiz-adv-x="1722" d="M201 1186q-4 14 -15 16l-137 15l-6 63h444l-6 -63l-155 -13q-6 0 -12.5 -4t-4.5 -10l168 -1088h6l410 973l-16 111q-2 6 -4.5 10t-12.5 6l-141 15l-6 63h444l-6 -63l-160 -13q-6 0 -11 -4t-3 -10l149 -1088h2l494 1082q6 14 -4 14l-156 19l-6 63h426l-6 -63l-139 -15 q-8 0 -17 -14l-557 -1196h-106l-135 928h-4l-400 -928h-115zM932 1737h168l147 -363h-39l-98 144q-18 27 -35.5 53t-32.5 47q-16 23 -30 45h-4l-275 -289h-47z" />
<glyph unicode="&#x175;" horiz-adv-x="1343" d="M264 829l-61 13l-160 -162l-35 35q14 27 42 64.5t59.5 73.5t62.5 61.5t55 25.5q14 0 36 -10t42.5 -23.5t33.5 -29t13 -27.5l4 -774h11l364 725l-4 114l98 -8l33 -831h14l218 399q57 102 84.5 177t25.5 116q-2 49 -33.5 69.5t-72.5 28.5q16 29 34.5 50.5t63.5 21.5 t76.5 -30.5t36.5 -84.5q2 -29 -7.5 -66.5t-36 -95t-70.5 -135t-108 -182.5l-217 -362l-86 -13l-37 717h-6l-370 -704l-86 -13zM768 1397h168l147 -363h-39l-98 144q-18 27 -35.5 53t-31.5 47q-16 23 -31 45h-4l-275 -289h-47z" />
<glyph unicode="&#x176;" horiz-adv-x="1204" d="M315 63l183 17q8 0 10 12l59 451l-321 643q-8 14 -23 16l-125 15l-6 63h430l-6 -63l-147 -13q-18 0 -11 -18l275 -574h4l424 576q4 4 2 9t-6 5l-146 15l-6 63h420l-6 -63l-137 -15q-16 -4 -25 -14l-479 -641l-62 -455q-2 -12 11 -12l174 -17l6 -63h-498zM694 1737h168 l148 -363h-39l-99 144q-18 27 -35.5 53t-31.5 47q-16 23 -31 45h-4l-274 -289h-47z" />
<glyph unicode="&#x177;" horiz-adv-x="878" d="M-84 -524q-61 0 -108.5 31.5t-47.5 82.5q0 37 21.5 60.5t54.5 23.5q37 0 61.5 -30.5t14.5 -75.5l106 -23q4 2 19.5 21.5t36 50.5t46 70t52.5 80q61 94 137 213l-37 10l-8 839l-61 13l-160 -162l-35 35q14 27 42 64.5t59.5 73.5t62.5 61.5t55 25.5q14 0 36 -10t42.5 -23.5 t33.5 -29t13 -27.5v-774h17l370 620l25 68q-31 4 -62.5 24.5t-31.5 65.5q0 35 24.5 60.5t59.5 25.5q47 0 76.5 -29.5t29.5 -76.5q0 -53 -26.5 -106.5t-73.5 -127.5l-311 -491l-117 -179q-68 -135 -120 -223t-98 -139t-92.5 -71.5t-105.5 -20.5zM512 1397h168l147 -363h-39 l-98 144q-18 27 -35.5 53t-31.5 47q-16 23 -31 45h-4l-275 -289h-47z" />
<glyph unicode="&#x178;" horiz-adv-x="1204" d="M315 63l183 17q8 0 10 12l59 451l-321 643q-8 14 -23 16l-125 15l-6 63h430l-6 -63l-147 -13q-18 0 -11 -18l275 -574h4l424 576q4 4 2 9t-6 5l-146 15l-6 63h420l-6 -63l-137 -15q-16 -4 -25 -14l-479 -641l-62 -455q-2 -12 11 -12l174 -17l6 -63h-498zM961 1444 q-45 0 -71 31.5t-26 70.5t25.5 70t71.5 31q43 0 67.5 -31t24.5 -70t-24.5 -70.5t-67.5 -31.5zM551 1444q-45 0 -68.5 31.5t-23.5 70.5t23.5 70t68.5 31t69.5 -31t24.5 -70t-24.5 -70.5t-69.5 -31.5z" />
<glyph unicode="&#x179;" horiz-adv-x="1032" d="M-16 57l983 1153v4h-224q-162 0 -253 -2t-136 -8t-57 -17t-18 -30l-66 -223h-70l45 346h922l-8 -61l-975 -1149l-2 -4h178q184 0 287.5 2t155 8t65.5 17t20 30l91 254h75l-92 -377h-928zM780 1737h164l-373 -363h-47z" />
<glyph unicode="&#x17a;" horiz-adv-x="759" d="M47 -33q-90 18 -90 74q0 47 35 92t80 74l530 506q-53 27 -107.5 56.5t-104.5 54t-90 44t-60 27.5l-37 -53q37 -53 37 -82t-19.5 -47.5t-48.5 -18.5q-37 0 -56.5 20.5t-19.5 47.5q0 31 15.5 61.5t43 56t65.5 42t81 18.5q59 0 111.5 -22.5t95.5 -55.5t72.5 -66.5 t46.5 -58.5l14 4l70 199q45 -8 66.5 -21.5t21.5 -41.5q0 -41 -35 -85t-78 -73l-526 -496q152 -86 243 -143t134 -70l45 60q-29 29 -40.5 50t-11.5 38q0 25 20.5 43t55.5 18q33 0 50.5 -19.5t17.5 -47.5q0 -31 -14.5 -62t-39 -56.5t-58.5 -44t-75 -22.5q-53 0 -110.5 26.5 t-106.5 63.5t-87 76t-52 66l-12 -9zM700 1397h164l-372 -363h-48z" />
<glyph unicode="&#x17b;" horiz-adv-x="1032" d="M-16 57l983 1153v4h-224q-162 0 -253 -2t-136 -8t-57 -17t-18 -30l-66 -223h-70l45 346h922l-8 -61l-975 -1149l-2 -4h178q184 0 287.5 2t155 8t65.5 17t20 30l91 254h75l-92 -377h-928zM664 1442q-49 0 -76 34.5t-27 77.5t26.5 77t76.5 34q49 0 76.5 -34t27.5 -77 t-27.5 -77.5t-76.5 -34.5z" />
<glyph unicode="&#x17c;" horiz-adv-x="759" d="M47 -33q-90 18 -90 74q0 47 35 92t80 74l530 506q-53 27 -107.5 56.5t-104.5 54t-90 44t-60 27.5l-37 -53q37 -53 37 -82t-19.5 -47.5t-48.5 -18.5q-37 0 -56.5 20.5t-19.5 47.5q0 31 15.5 61.5t43 56t65.5 42t81 18.5q59 0 111.5 -22.5t95.5 -55.5t72.5 -66.5 t46.5 -58.5l14 4l70 199q45 -8 66.5 -21.5t21.5 -41.5q0 -41 -35 -85t-78 -73l-526 -496q152 -86 243 -143t134 -70l45 60q-29 29 -40.5 50t-11.5 38q0 25 20.5 43t55.5 18q33 0 50.5 -19.5t17.5 -47.5q0 -31 -14.5 -62t-39 -56.5t-58.5 -44t-75 -22.5q-53 0 -110.5 26.5 t-106.5 63.5t-87 76t-52 66l-12 -9zM520 1102q-49 0 -75.5 34.5t-26.5 77.5t26.5 77t75.5 34t77 -34t28 -77t-28 -77.5t-77 -34.5z" />
<glyph unicode="&#x17d;" horiz-adv-x="1032" d="M-16 57l983 1153v4h-224q-162 0 -253 -2t-136 -8t-57 -17t-18 -30l-66 -223h-70l45 346h922l-8 -61l-975 -1149l-2 -4h178q184 0 287.5 2t155 8t65.5 17t20 30l91 254h75l-92 -377h-928zM440 1769h39l197 -288h4l274 288h47l-245 -362h-168z" />
<glyph unicode="&#x17e;" horiz-adv-x="759" d="M47 -33q-90 18 -90 74q0 47 35 92t80 74l530 506q-53 27 -107.5 56.5t-104.5 54t-90 44t-60 27.5l-37 -53q37 -53 37 -82t-19.5 -47.5t-48.5 -18.5q-37 0 -56.5 20.5t-19.5 47.5q0 31 15.5 61.5t43 56t65.5 42t81 18.5q59 0 111.5 -22.5t95.5 -55.5t72.5 -66.5 t46.5 -58.5l14 4l70 199q45 -8 66.5 -21.5t21.5 -41.5q0 -41 -35 -85t-78 -73l-526 -496q152 -86 243 -143t134 -70l45 60q-29 29 -40.5 50t-11.5 38q0 25 20.5 43t55.5 18q33 0 50.5 -19.5t17.5 -47.5q0 -31 -14.5 -62t-39 -56.5t-58.5 -44t-75 -22.5q-53 0 -110.5 26.5 t-106.5 63.5t-87 76t-52 66l-12 -9zM262 1397h39l197 -289h4l274 289h47l-245 -363h-168z" />
<glyph unicode="&#x192;" horiz-adv-x="1021" d="M190 -33q-47 0 -80.5 32t-33.5 69q0 31 20.5 53t48.5 22q37 0 61.5 -29.5t29.5 -72.5l133 80q10 25 22 66.5t23.5 93t23 108.5t21.5 115l33 213l-179 4l6 55l187 31q35 166 79 260t91 141q33 33 85 58.5t99 25.5q43 0 77 -23.5t34 -66.5q0 -37 -19.5 -62.5t-48.5 -25.5 q-41 0 -65.5 28.5t-20.5 76.5l-121 -54q-16 -20 -30.5 -60t-28.5 -91t-27.5 -108.5t-25.5 -110.5h278l4 -78h-284q-6 -29 -15.5 -82t-23 -117.5t-30.5 -134.5t-37.5 -134.5t-45 -114.5t-51.5 -77q-45 -43 -95.5 -66.5t-93.5 -23.5z" />
<glyph unicode="&#x1fa;" horiz-adv-x="1118" d="M-100 63l139 15q10 0 16 14l523 1157q-45 23 -70 67t-25 97q0 76 48.5 130t134.5 54t135 -54t47 -130q-2 -59 -33 -107.5t-86 -66.5l221 -1145q2 -6 4 -10t13 -6l139 -15l6 -63h-450l6 63l157 13q6 0 11.5 4t3.5 10l-72 379h-459l-166 -373q-8 -14 4 -14l156 -19l6 -63 h-415zM668 1280q59 0 89.5 40t30.5 93t-31.5 93t-90.5 40t-90 -40t-33 -93t32 -93t93 -40zM754 547l-119 633h-10l-281 -633h410zM844 2003h164l-373 -363h-47z" />
<glyph unicode="&#x1fb;" horiz-adv-x="964" d="M582 1049q-86 0 -134.5 54t-48.5 130t48.5 130t134.5 54t135 -54t47 -130t-49 -130t-133 -54zM219 -33q-45 0 -76.5 24.5t-52 65.5t-30 93.5t-9.5 107.5q0 68 16.5 148.5t47 159.5t71.5 149.5t90 120.5q41 41 100.5 73.5t104.5 32.5t82 -22.5t64.5 -53t47 -62.5t32.5 -50 h18l45 186h82l-96 -410l-109 -467l66 -14l166 166l32 -37q-16 -25 -45.5 -61.5t-62.5 -69.5t-64.5 -56.5t-56.5 -23.5q-16 0 -37.5 7.5t-42 17.5t-35 22.5t-14.5 22.5q0 8 9 48t26.5 101.5t40 140.5t49.5 165h-21q-16 -25 -45.5 -73t-66.5 -106.5t-79 -120t-85 -111.5 t-85 -82t-77 -32zM584 1100q59 0 90 40t31 93t-32 93t-91 40t-90 -40t-33 -93t32 -93t93 -40zM242 49q33 0 79 47t102 125t121.5 180.5t137.5 212.5l18 64q-20 25 -49.5 55.5t-64.5 58t-73 46t-73 18.5q-29 0 -56.5 -15.5t-53.5 -41.5q-37 -37 -70 -100.5t-56.5 -137.5 t-37.5 -147.5t-14 -130.5q0 -111 22.5 -172.5t67.5 -61.5zM809 1839h164l-373 -362h-47z" />
<glyph unicode="&#x1fc;" horiz-adv-x="1662" d="M-160 63l144 15q4 0 12 7t12 15l740 1088q8 12 -7 12l-161 17l2 63h1056l-45 -346h-63l-8 223q0 18 -10.5 29.5t-53.5 17.5t-133 8t-252 2h-94l-70 -526h131q76 0 119 1t64.5 4t27.5 8.5t11 15.5l61 135h49l-90 -395h-49l6 133q0 8 -3 15t-22.5 10t-62.5 5.5t-121 2.5 h-129l-74 -557h47q184 0 287 2t153 8t64.5 17t20.5 30l82 219h73l-81 -342h-936l14 63l162 17q8 0 10 12l49 377h-428l-248 -373q-4 -4 -2 -9t6 -5l144 -19l6 -63h-416zM782 547l86 655h-28l-443 -655h385zM1280 1737h164l-373 -363h-47z" />
<glyph unicode="&#x1fd;" horiz-adv-x="1206" d="M219 -33q-45 0 -76.5 24.5t-52 65.5t-30 93.5t-9.5 107.5q0 68 16.5 148.5t47 159.5t71.5 149.5t90 120.5q41 41 100.5 73.5t104.5 32.5t83 -22.5t66.5 -54t48 -64.5t32.5 -51q66 86 147.5 138t167.5 52q45 0 83 -14.5t64.5 -37t41 -49t14.5 -51.5q0 -37 -20.5 -66.5 t-81 -71.5t-171 -105.5t-290.5 -169.5q-2 -16 -2 -31.5v-32.5q0 -72 18 -123t47 -83.5t62.5 -47t66.5 -14.5q23 0 54.5 14.5t66.5 38t68.5 51t62.5 56.5l33 -37q-31 -35 -72 -70t-85 -63.5t-87 -47t-78 -18.5q-55 0 -102 23.5t-82 65.5t-54.5 100.5t-19.5 126.5q0 23 1 43 t3 41q-41 -72 -86 -143.5t-91 -129t-90 -92.5t-81 -35zM676 440q141 84 230 134.5t139.5 83t67.5 56t17 54.5q0 20 -14 41.5t-37.5 38t-55.5 27t-67 10.5q-20 0 -48.5 -18.5t-49.5 -39.5q-25 -25 -52.5 -65.5t-53 -92t-47 -109.5t-33.5 -120h4zM242 49q33 0 79 47t98 125 t108.5 180.5t113.5 212.5l18 64q-12 25 -34.5 55.5t-52 58t-63.5 46t-69 18.5q-29 0 -56.5 -15.5t-53.5 -41.5q-37 -37 -70 -100.5t-56.5 -137.5t-37.5 -147.5t-14 -130.5q0 -111 22.5 -172.5t67.5 -61.5zM887 1397h164l-373 -363h-47z" />
<glyph unicode="&#x1fe;" horiz-adv-x="1378" d="M303 106q-92 86 -145.5 208t-53.5 259q0 135 44.5 263.5t127.5 232.5q86 109 208 174.5t272 65.5q96 0 179 -29t150 -80l150 209h76q-51 -72 -88 -125q-16 -23 -32.5 -46.5t-29.5 -39.5q-14 -23 -26 -39q90 -86 140 -203.5t50 -253.5q0 -147 -52 -285t-151 -245 q-86 -92 -199.5 -148.5t-250.5 -56.5q-92 0 -173 26.5t-147 74.5q-12 -14 -24 -33q-10 -16 -25.5 -35.5t-30.5 -40.5l-77 -111h-76zM1036 1133q-55 51 -127.5 79.5t-165.5 28.5q-129 0 -225 -63.5t-159.5 -161.5t-95.5 -217t-32 -232q0 -111 32 -211t93 -176zM686 35 q129 0 225.5 63.5t160 161.5t95 217t31.5 232q0 109 -28.5 206t-88.5 172l-682 -952q53 -47 125 -73.5t162 -26.5zM952 1737h164l-373 -363h-47z" />
<glyph unicode="&#x1ff;" horiz-adv-x="878" d="M137 88q-35 55 -51 124t-16 134q0 92 30.5 195.5t88 192.5t141.5 147.5t188 58.5q57 0 101.5 -19.5t76.5 -52.5l135 189h70q-47 -63 -84 -117q-16 -23 -30.5 -44.5t-26.5 -37.5q-14 -20 -27 -37q37 -55 54.5 -124.5t17.5 -137.5q0 -92 -31 -195.5t-88 -191.5t-141 -146.5 t-189 -58.5q-57 0 -101 19.5t-79 52.5l-135 -191h-76zM649 803q-25 35 -59.5 56.5t-87.5 21.5q-55 0 -102.5 -31t-85.5 -80t-65.5 -111.5t-45.5 -126.5q-16 -59 -24.5 -112t-8.5 -94t5 -82t18 -78zM373 27q57 0 104 30.5t84 79.5t64.5 111.5t46.5 126.5q16 57 24.5 110.5 t8.5 94.5q0 43 -6.5 85t-20.5 78l-455 -639q25 -35 61 -56t89 -21zM702 1397h164l-372 -363h-48z" />
<glyph unicode="&#x218;" horiz-adv-x="970" d="M393 -31q-86 0 -174 10.5t-172 32.5l12 355h68l37 -287q51 -23 120.5 -33t125.5 -10q63 0 126.5 13t113.5 45t82 83t32 125q0 61 -24.5 106.5t-64.5 82t-91.5 66.5t-106.5 58q-57 31 -112.5 65t-99.5 77t-70.5 97t-26.5 128q0 92 41 154.5t106.5 100.5t145.5 54.5 t157 16.5q57 0 115 -4.5t113 -16.5l112 31l-51 -391h-69l-9 260q-45 29 -111.5 42t-119.5 13q-57 0 -115.5 -11t-105.5 -39t-77 -73t-30 -112q0 -61 24.5 -108.5t64.5 -84.5t91.5 -66.5t106.5 -60.5t109.5 -63.5t96.5 -74.5t68.5 -94.5t26.5 -121.5q0 -100 -40 -170 t-105.5 -113t-148.5 -62.5t-171 -19.5zM528 -266q-10 -49 -37.5 -88t-65.5 -68t-81 -50.5t-86 -35.5l-16 31q68 25 112.5 63.5t61.5 110.5q6 33 -5.5 55.5t-28.5 36.5t-31.5 21.5t-14.5 9.5q8 33 34.5 55.5t67.5 18.5q51 -6 76.5 -53.5t13.5 -106.5z" />
<glyph unicode="&#x219;" horiz-adv-x="661" d="M227 -33q-102 0 -163.5 36t-61.5 95q0 37 21.5 61.5t58.5 24.5q29 0 49.5 -20.5t20.5 -48.5q0 -10 -2.5 -25.5t-4.5 -19.5q41 -18 90.5 -26.5t108.5 -12.5q66 29 95.5 74t29.5 106q0 59 -46 108.5t-124 116.5q-35 29 -66.5 59.5t-58.5 62.5t-42 66.5t-15 71.5 q0 57 27.5 103.5t71.5 77t101.5 47t116.5 16.5q33 0 72 -6t71.5 -20.5t54 -39t21.5 -63.5t-20.5 -63.5t-59.5 -24.5q-29 0 -47 20.5t-18 49.5q0 12 1 26.5t3 24.5q-47 16 -91 24.5t-91 10.5q-68 -20 -97.5 -62.5t-29.5 -103.5q0 -29 8 -52.5t27.5 -48t52.5 -53.5t82 -72 q70 -59 126 -124.5t56 -139.5q0 -51 -23.5 -97t-66.5 -82t-103.5 -56.5t-134.5 -20.5zM332 -266q-10 -49 -38 -88t-66 -68t-81 -50.5t-86 -35.5l-16 31q68 25 113 63.5t61 110.5q6 33 -5 55.5t-28.5 36.5t-32 21.5t-14.5 9.5q8 33 35 55.5t68 18.5q51 -6 76.5 -53.5 t13.5 -106.5z" />
<glyph unicode="&#x21a;" horiz-adv-x="1226" d="M315 63l181 17q10 0 12 12l147 1122h-39q-125 0 -192.5 -2t-99 -8t-40 -17t-14.5 -30l-86 -250h-73l86 373h1056l-49 -377h-61l-4 254q0 18 -5.5 29.5t-37 17.5t-100 8t-193.5 2h-39l-148 -1122q-2 -12 9 -12l176 -17l6 -63h-498zM629 -266q-10 -49 -38 -88t-66 -68 t-81 -50.5t-86 -35.5l-16 31q68 25 113 63.5t61 110.5q6 33 -5 55.5t-28.5 36.5t-32 21.5t-14.5 9.5q8 33 35 55.5t68 18.5q51 -6 76.5 -53.5t13.5 -106.5z" />
<glyph unicode="&#x21b;" horiz-adv-x="569" d="M223 -33q-16 0 -36.5 7.5t-39 17.5t-31 22.5t-10.5 22.5l160 803l-174 6l4 55l191 29l51 266h82l-55 -278h241l6 -76h-264l-160 -779l66 -14l170 166l33 -37q-18 -25 -48 -61.5t-63 -69.5t-65.5 -56.5t-57.5 -23.5zM317 -266q-10 -49 -37.5 -88t-65.5 -68t-81 -50.5 t-86 -35.5l-16 31q68 25 112.5 63.5t61.5 110.5q6 33 -5.5 55.5t-28.5 36.5t-31.5 21.5t-14.5 9.5q8 33 34.5 55.5t67.5 18.5q51 -6 76.5 -53.5t13.5 -106.5z" />
<glyph unicode="&#x2c6;" horiz-adv-x="819" d="M449 1397h167l148 -363h-39l-98 144q-18 27 -36 53t-32 47q-16 23 -31 45h-4l-274 -289h-47z" />
<glyph unicode="&#x2c7;" horiz-adv-x="819" d="M252 1397h39l196 -289h5l274 289h47l-246 -363h-168z" />
<glyph unicode="&#x2d8;" horiz-adv-x="819" d="M483 1034q-68 0 -110.5 35t-67 88t-36 116.5t-17.5 123.5h49q23 -158 71 -220.5t120 -62.5t135 62.5t129 220.5h57q-23 -59 -50.5 -123t-65.5 -117t-91 -88t-123 -35z" />
<glyph unicode="&#x2d9;" horiz-adv-x="817" d="M506 1102q-49 0 -76 34.5t-27 77.5t27 77t76 34t76.5 -34t27.5 -77t-27.5 -77.5t-76.5 -34.5z" />
<glyph unicode="&#x2da;" horiz-adv-x="819" d="M510 1049q-86 0 -134 54t-48 130t48 130t134 54t135 -54t47 -130t-49 -130t-133 -54zM512 1100q59 0 90 40t31 93t-32 93t-91 40t-90 -40t-33 -93t32 -93t93 -40z" />
<glyph unicode="&#x2db;" horiz-adv-x="819" d="M258 -408q-66 6 -100.5 49.5t-18.5 118.5q10 47 39 92.5t69 83t85 68.5t86 49h65q-106 -53 -172.5 -126.5t-83.5 -145.5q-10 -49 2.5 -85t55.5 -40q35 -4 64.5 6t45.5 31l23 -25q-29 -35 -66 -58.5t-94 -17.5z" />
<glyph unicode="&#x2dc;" horiz-adv-x="819" d="M629 1065q-41 0 -78 22.5t-68.5 50t-60.5 50t-53 22.5q-20 0 -38 -5t-34 -19.5t-33.5 -41t-38.5 -69.5h-55q66 213 207 213q41 0 78 -22.5t69.5 -50t61 -50t51.5 -22.5q20 0 36.5 5t34 19.5t34 41t36.5 69.5h58q-66 -213 -207 -213z" />
<glyph unicode="&#x2dd;" horiz-adv-x="819" d="M754 1397h145l-326 -363h-49zM451 1397h145l-326 -363h-49z" />
<glyph unicode="&#x1e80;" horiz-adv-x="1722" d="M201 1186q-4 14 -15 16l-137 15l-6 63h444l-6 -63l-155 -13q-6 0 -12.5 -4t-4.5 -10l168 -1088h6l410 973l-16 111q-2 6 -4.5 10t-12.5 6l-141 15l-6 63h444l-6 -63l-160 -13q-6 0 -11 -4t-3 -10l149 -1088h2l494 1082q6 14 -4 14l-156 19l-6 63h426l-6 -63l-139 -15 q-8 0 -17 -14l-557 -1196h-106l-135 928h-4l-400 -928h-115zM733 1737h164l158 -363h-47z" />
<glyph unicode="&#x1e81;" horiz-adv-x="1343" d="M264 829l-61 13l-160 -162l-35 35q14 27 42 64.5t59.5 73.5t62.5 61.5t55 25.5q14 0 36 -10t42.5 -23.5t33.5 -29t13 -27.5l4 -774h11l364 725l-4 114l98 -8l33 -831h14l218 399q57 102 84.5 177t25.5 116q-2 49 -33.5 69.5t-72.5 28.5q16 29 34.5 50.5t63.5 21.5 t76.5 -30.5t36.5 -84.5q2 -29 -7.5 -66.5t-36 -95t-70.5 -135t-108 -182.5l-217 -362l-86 -13l-37 717h-6l-370 -704l-86 -13zM494 1397h163l158 -363h-47z" />
<glyph unicode="&#x1e82;" horiz-adv-x="1722" d="M201 1186q-4 14 -15 16l-137 15l-6 63h444l-6 -63l-155 -13q-6 0 -12.5 -4t-4.5 -10l168 -1088h6l410 973l-16 111q-2 6 -4.5 10t-12.5 6l-141 15l-6 63h444l-6 -63l-160 -13q-6 0 -11 -4t-3 -10l149 -1088h2l494 1082q6 14 -4 14l-156 19l-6 63h426l-6 -63l-139 -15 q-8 0 -17 -14l-557 -1196h-106l-135 928h-4l-400 -928h-115zM1104 1737h164l-373 -363h-47z" />
<glyph unicode="&#x1e83;" horiz-adv-x="1343" d="M264 829l-61 13l-160 -162l-35 35q14 27 42 64.5t59.5 73.5t62.5 61.5t55 25.5q14 0 36 -10t42.5 -23.5t33.5 -29t13 -27.5l4 -774h11l364 725l-4 114l98 -8l33 -831h14l218 399q57 102 84.5 177t25.5 116q-2 49 -33.5 69.5t-72.5 28.5q16 29 34.5 50.5t63.5 21.5 t76.5 -30.5t36.5 -84.5q2 -29 -7.5 -66.5t-36 -95t-70.5 -135t-108 -182.5l-217 -362l-86 -13l-37 717h-6l-370 -704l-86 -13zM987 1397h164l-373 -363h-47z" />
<glyph unicode="&#x1e84;" horiz-adv-x="1722" d="M201 1186q-4 14 -15 16l-137 15l-6 63h444l-6 -63l-155 -13q-6 0 -12.5 -4t-4.5 -10l168 -1088h6l410 973l-16 111q-2 6 -4.5 10t-12.5 6l-141 15l-6 63h444l-6 -63l-160 -13q-6 0 -11 -4t-3 -10l149 -1088h2l494 1082q6 14 -4 14l-156 19l-6 63h426l-6 -63l-139 -15 q-8 0 -17 -14l-557 -1196h-106l-135 928h-4l-400 -928h-115zM1176 1411q-45 0 -71 32t-26 70q0 39 25.5 70t71.5 31q43 0 67.5 -31t24.5 -70t-24.5 -70.5t-67.5 -31.5zM766 1411q-45 0 -68.5 32t-23.5 70q0 39 23.5 70t68.5 31t69.5 -31t24.5 -70t-24.5 -70.5t-69.5 -31.5z " />
<glyph unicode="&#x1e85;" horiz-adv-x="1343" d="M264 829l-61 13l-160 -162l-35 35q14 27 42 64.5t59.5 73.5t62.5 61.5t55 25.5q14 0 36 -10t42.5 -23.5t33.5 -29t13 -27.5l4 -774h11l364 725l-4 114l98 -8l33 -831h14l218 399q57 102 84.5 177t25.5 116q-2 49 -33.5 69.5t-72.5 28.5q16 29 34.5 50.5t63.5 21.5 t76.5 -30.5t36.5 -84.5q2 -29 -7.5 -66.5t-36 -95t-70.5 -135t-108 -182.5l-217 -362l-86 -13l-37 717h-6l-370 -704l-86 -13zM1004 1071q-45 0 -71 32t-26 71t25.5 69.5t71.5 30.5q43 0 67.5 -31t24.5 -69q0 -39 -24.5 -71t-67.5 -32zM594 1071q-45 0 -68.5 32t-23.5 71 t23.5 69.5t68.5 30.5t69.5 -31t24.5 -69q0 -39 -24.5 -71t-69.5 -32z" />
<glyph unicode="&#x2000;" horiz-adv-x="1001" />
<glyph unicode="&#x2001;" horiz-adv-x="2003" />
<glyph unicode="&#x2002;" horiz-adv-x="1001" />
<glyph unicode="&#x2003;" horiz-adv-x="2003" />
<glyph unicode="&#x2004;" horiz-adv-x="667" />
<glyph unicode="&#x2005;" horiz-adv-x="500" />
<glyph unicode="&#x2006;" horiz-adv-x="333" />
<glyph unicode="&#x2007;" horiz-adv-x="333" />
<glyph unicode="&#x2008;" horiz-adv-x="250" />
<glyph unicode="&#x2009;" horiz-adv-x="155" />
<glyph unicode="&#x200a;" horiz-adv-x="111" />
<glyph unicode="&#x2010;" horiz-adv-x="671" d="M20 526h512l7 -92h-525z" />
<glyph unicode="&#x2011;" horiz-adv-x="671" d="M20 526h512l7 -92h-525z" />
<glyph unicode="&#x2012;" horiz-adv-x="671" d="M20 526h512l7 -92h-525z" />
<glyph unicode="&#x2013;" horiz-adv-x="962" d="M51 498h856l8 -78h-868z" />
<glyph unicode="&#x2014;" horiz-adv-x="1908" d="M51 498h1802l9 -78h-1815z" />
<glyph unicode="&#x2018;" horiz-adv-x="434" d="M289 817q-72 0 -110 50.5t-27 121.5q8 59 37.5 114.5t72.5 102.5t94.5 88t104.5 74l26 -33q-84 -59 -137 -123.5t-65 -152.5q-6 -39 11 -66.5t38.5 -44t41 -26t19.5 -11.5q-4 -35 -28.5 -64.5t-77.5 -29.5z" />
<glyph unicode="&#x2019;" horiz-adv-x="434" d="M109 831q84 59 138 124t64 153q6 41 -10 67.5t-37.5 44t-41 25.5t-19.5 10q4 35 28.5 65t77.5 30q72 0 110 -50.5t27 -121.5q-8 -59 -38.5 -114.5t-73.5 -103t-95.5 -88.5t-103.5 -73z" />
<glyph unicode="&#x201a;" horiz-adv-x="434" d="M-43 -309q84 59 138.5 123.5t64.5 152.5q6 41 -10.5 67.5t-38 44t-41 26t-19.5 10.5q4 35 28.5 64.5t78.5 29.5q72 0 109.5 -50t27.5 -122q-8 -59 -39 -114.5t-74 -102.5t-95 -88t-103 -74z" />
<glyph unicode="&#x201c;" horiz-adv-x="823" d="M678 817q-72 0 -110 50.5t-27 121.5q8 59 37.5 114.5t72.5 102.5t94.5 88t104.5 74l27 -33q-84 -59 -137.5 -123.5t-65.5 -152.5q-6 -39 11 -66.5t38.5 -44t41 -26t19.5 -11.5q-4 -35 -28.5 -64.5t-77.5 -29.5zM289 817q-72 0 -110 50.5t-27 121.5q8 59 37.5 114.5 t72.5 102.5t94.5 88t104.5 74l26 -33q-84 -59 -137 -123.5t-65 -152.5q-6 -39 11 -66.5t38.5 -44t41 -26t19.5 -11.5q-4 -35 -28.5 -64.5t-77.5 -29.5z" />
<glyph unicode="&#x201d;" horiz-adv-x="823" d="M498 831q84 59 138 124t64 153q6 41 -10 67.5t-37.5 44t-41 25.5t-19.5 10q4 35 28.5 65t77.5 30q72 0 110 -50.5t28 -121.5q-8 -59 -39 -114.5t-74 -103t-95.5 -88.5t-103.5 -73zM109 831q84 59 138 124t64 153q6 41 -10 67.5t-37.5 44t-41 25.5t-19.5 10q4 35 28.5 65 t77.5 30q72 0 110 -50.5t27 -121.5q-8 -59 -38.5 -114.5t-73.5 -103t-95.5 -88.5t-103.5 -73z" />
<glyph unicode="&#x201e;" horiz-adv-x="823" d="M346 -309q84 59 138.5 123.5t64.5 152.5q6 41 -10.5 67.5t-38 44t-41 26t-19.5 10.5q4 35 29 64.5t78 29.5q72 0 109.5 -50t27.5 -122q-8 -59 -39 -114.5t-74 -102.5t-95 -88t-103 -74zM-43 -309q84 59 138.5 123.5t64.5 152.5q6 41 -10.5 67.5t-38 44t-41 26t-19.5 10.5 q4 35 28.5 64.5t78.5 29.5q72 0 109.5 -50t27.5 -122q-8 -59 -39 -114.5t-74 -102.5t-95 -88t-103 -74z" />
<glyph unicode="&#x2020;" horiz-adv-x="962" d="M387 811h-367l-8 74h375v395h70v-395h377l-9 -74h-368v-1130h-70v1130z" />
<glyph unicode="&#x2021;" horiz-adv-x="962" d="M451 43h-375l8 74h367v725h-367l-8 73h375v365h69v-365h377l-8 -73h-369v-725h369l8 -74h-377l-2 -362h-69z" />
<glyph unicode="&#x2022;" horiz-adv-x="931" d="M465 80q-23 0 -63 12t-83 29.5t-79.5 37t-51.5 36.5q-16 16 -35.5 53t-38 80t-30.5 84t-12 63q0 23 12 63t30.5 83t38 79.5t35.5 53.5q14 14 52.5 34.5t81.5 38t82.5 29.5t62.5 12t62.5 -12t82.5 -29.5t80 -38t53 -34.5q14 -16 35 -53t38.5 -80t29.5 -83t12 -63 t-12 -63.5t-29.5 -83.5t-37 -80t-36.5 -53q-16 -16 -53 -36t-80 -37.5t-83.5 -29.5t-63.5 -12z" />
<glyph unicode="&#x2026;" horiz-adv-x="1314" d="M1042 -29q-47 0 -74.5 32t-25.5 71t28.5 68.5t73.5 29.5t76 -29.5t27 -68.5q-2 -41 -30 -72t-75 -31zM604 -29q-47 0 -74.5 32t-25.5 71t28.5 68.5t73.5 29.5t76 -29.5t27 -68.5q-2 -41 -30 -72t-75 -31zM166 -29q-47 0 -75 32t-25 71q2 39 28.5 68.5t73.5 29.5 t75.5 -29.5t26.5 -68.5q-2 -41 -29.5 -72t-74.5 -31z" />
<glyph unicode="&#x202f;" horiz-adv-x="400" />
<glyph unicode="&#x2030;" horiz-adv-x="2306" d="M432 641q-66 0 -124 21.5t-101 61.5t-68.5 96.5t-25.5 125.5q0 78 29.5 146.5t79.5 121t118 82t145 29.5q68 0 126.5 -20.5t102.5 -59.5t69.5 -95t25.5 -126q0 -80 -29.5 -149.5t-80 -122t-119 -82t-148.5 -29.5zM1397 1309h106l-1304 -1340h-107zM1894 -47 q-137 0 -226 80t-89 221q0 80 28.5 149.5t79 122t118 82t147.5 29.5q66 0 124 -20.5t101 -59.5t68.5 -95t25.5 -126q0 -80 -29.5 -149.5t-81 -122t-120 -82t-146.5 -29.5zM1116 -47q-137 0 -226 80t-89 221q0 80 28.5 149.5t78.5 122t118 82t148 29.5q66 0 124 -20.5 t101 -59.5t68.5 -95t25.5 -126q0 -80 -29.5 -149.5t-81 -122t-120 -82t-146.5 -29.5zM440 702q61 0 114.5 24t92.5 64.5t61.5 96t22.5 117.5q0 113 -70.5 184.5t-183.5 71.5q-61 0 -114.5 -26t-92.5 -69t-61.5 -99t-22.5 -116q0 -55 19.5 -101t54.5 -79t81 -50.5t99 -17.5z M1903 14q61 0 115.5 24.5t94 68t62.5 99.5t23 118q0 55 -19.5 100t-54.5 78t-81 51t-99 18q-61 0 -114.5 -25.5t-92.5 -68.5t-61.5 -99t-22.5 -116q0 -113 72 -180.5t178 -67.5zM1124 14q61 0 115.5 24.5t94.5 68t62.5 99.5t22.5 118q0 55 -19.5 100t-54 78t-80.5 51 t-100 18q-61 0 -114.5 -25.5t-92 -68.5t-61.5 -99t-23 -116q0 -113 72 -180.5t178 -67.5z" />
<glyph unicode="&#x2039;" horiz-adv-x="634" d="M76 416l8 73l477 322l14 -45l-368 -317l285 -318l-25 -37z" />
<glyph unicode="&#x203a;" horiz-adv-x="634" d="M47 139l367 318l-283 317l23 37l391 -322l-8 -73l-478 -322z" />
<glyph unicode="&#x2044;" horiz-adv-x="1189" d="M1229 1309h106l-1304 -1340h-107z" />
<glyph unicode="&#x205f;" horiz-adv-x="500" />
<glyph unicode="&#x2070;" horiz-adv-x="675" d="M297 545q-72 0 -119 28.5t-75.5 74.5t-41 101.5t-12.5 110.5q0 68 18.5 153t60.5 159.5t107.5 126t157.5 51.5q72 0 121 -29t79 -75t43 -102.5t13 -109.5q0 -68 -20.5 -152.5t-63.5 -159.5t-109.5 -126t-158.5 -51zM303 586q68 0 115 55t75.5 133t42 164t13.5 145 q0 37 -7 77t-25.5 72t-49.5 53.5t-78 21.5q-68 0 -115 -55.5t-74.5 -134.5t-40 -164t-12.5 -144q0 -35 6.5 -75t24 -72.5t47 -54t78.5 -21.5z" />
<glyph unicode="&#x2074;" horiz-adv-x="675" d="M381 795h-375l2 43l477 508h62l-70 -496h144l-19 -55h-133l-37 -236h-84zM389 850l55 381h-8l-360 -381h313z" />
<glyph unicode="&#x2075;" horiz-adv-x="675" d="M240 539q-33 0 -69 6t-65.5 18t-49 31.5t-19.5 46.5q0 25 18.5 42t44.5 17q41 0 64.5 -28.5t23.5 -69.5q16 -10 40 -14t46 -4q92 0 151.5 48t59.5 120q0 57 -28.5 100t-76.5 72.5t-111.5 46t-133.5 20.5l133 334h387l-14 -88h-350l-70 -176q37 -2 96.5 -14.5t118 -41 t100.5 -77.5t42 -125q0 -61 -29 -109.5t-76 -83.5t-108.5 -53t-124.5 -18z" />
<glyph unicode="&#x2076;" horiz-adv-x="675" d="M317 545q-59 0 -106 21.5t-81 59.5t-52.5 89t-18.5 110q0 104 51.5 195.5t136.5 163t196.5 119t232.5 61.5l6 -33q-193 -41 -326 -143.5t-194 -261.5h6q51 68 117.5 102.5t128.5 34.5q41 0 78.5 -14.5t67.5 -42t47.5 -68.5t17.5 -94q0 -61 -26 -116.5t-69 -95.5 t-98.5 -63.5t-114.5 -23.5zM324 586q41 0 78.5 18.5t65.5 51t44 77.5t16 98q0 41 -13 74t-34.5 56.5t-49.5 36t-54 12.5q-66 0 -119 -36t-92 -95q-4 -16 -8 -39t-4 -41q0 -90 46 -151.5t124 -61.5z" />
<glyph unicode="&#x2077;" horiz-adv-x="675" d="M621 1245v6h-256q-49 0 -78 -1t-46.5 -5t-25.5 -12t-14 -21q-10 -20 -19 -34q-8 -14 -13 -24.5t-7 -14.5h-43l53 194h533v-49l-504 -733h-76z" />
<glyph unicode="&#x2078;" horiz-adv-x="675" d="M315 539q-47 0 -92 14t-79.5 41t-56 65.5t-21.5 85.5q0 45 18 79t49 57.5t69 40t77 28.5v4q-59 31 -95.5 78t-38.5 105q0 53 21.5 93t58.5 66.5t85 40t98 13.5q43 0 81.5 -14.5t69.5 -39t49.5 -59.5t18.5 -78q-2 -86 -56.5 -131t-128.5 -70v-4q63 -33 107.5 -81 t42.5 -113q0 -55 -23.5 -97t-61.5 -70t-88.5 -41t-103.5 -13zM414 973q121 66 121 180q2 66 -37 113t-117 47q-72 0 -111 -38t-39 -104q0 -63 55.5 -112t127.5 -86zM340 578q72 0 117 35.5t47 113.5q0 35 -18.5 65.5t-47 56t-63.5 47.5t-68 40q-59 -31 -104 -76t-45 -112 q0 -76 46 -123t136 -47z" />
<glyph unicode="&#x2079;" horiz-adv-x="675" d="M25 563q195 41 326.5 143.5t193.5 260.5q2 0 -1 1t-5 1q-51 -70 -118 -105t-128 -35q-41 0 -79 14.5t-66.5 43t-46 69.5t-17.5 95q0 61 25.5 115.5t68.5 95.5t98.5 64.5t114.5 23.5q57 0 105.5 -21.5t81 -60.5t51 -90.5t18.5 -110.5q0 -102 -51 -193.5t-136 -163 t-195.5 -118.5t-231.5 -62zM332 885q66 0 118 35.5t91 93.5q6 18 10 39.5t4 42.5q0 90 -47 151.5t-125 61.5q-41 0 -78 -18.5t-64.5 -51.5t-44 -79t-16.5 -99q0 -82 48.5 -129t103.5 -47z" />
<glyph unicode="&#x207a;" horiz-adv-x="675" d="M328 920h-230l4 55h226v229h55v-229h223l4 -55h-227v-232h-55v232z" />
<glyph unicode="&#x207b;" horiz-adv-x="675" d="M102 913l2 68h506l4 -68h-512z" />
<glyph unicode="&#x2080;" horiz-adv-x="675" d="M297 -307q-72 0 -119 28.5t-75.5 74.5t-41 101.5t-12.5 110.5q0 68 18.5 153t60.5 159.5t107.5 126t157.5 51.5q72 0 121 -29t79 -75t43 -102t13 -110q0 -68 -20.5 -152.5t-63.5 -159.5t-109.5 -126t-158.5 -51zM303 -266q68 0 115 55t75.5 133t42 164t13.5 145 q0 37 -7 77t-25.5 72t-49.5 53.5t-78 21.5q-68 0 -115 -55.5t-74.5 -134.5t-40 -164t-12.5 -144q0 -35 6.5 -75t24 -72.5t47 -54t78.5 -21.5z" />
<glyph unicode="&#x2081;" horiz-adv-x="675" d="M88 -248l158 15q20 4 26.5 11t8.5 17l90 619l-195 18l8 37l285 23l-102 -697q-2 -10 4 -18t24 -10l142 -15l4 -45h-455z" />
<glyph unicode="&#x2082;" horiz-adv-x="675" d="M20 -229q100 82 191.5 149.5t159 129t107.5 116.5t40 113q0 72 -51 110.5t-123 38.5t-129 -29.5t-104 -66.5l-11 26q23 23 53.5 47.5t67.5 46t80 35t90 13.5q43 0 83 -13.5t70.5 -39t50 -60.5t19.5 -78q0 -70 -48 -135t-122.5 -129.5t-166 -129.5t-179.5 -132l-2 -2 q0 -2 2 -2h121q90 0 145.5 2t87 9t47 20.5t27.5 35.5l33 68h55l-63 -207h-535z" />
<glyph unicode="&#x2083;" horiz-adv-x="675" d="M330 117q8 2 26.5 4t40.5 2q78 0 129.5 -45t51.5 -121q0 -59 -34 -109.5t-86 -87t-119 -57t-130 -20.5q-23 0 -54.5 4t-60 14t-49 27.5t-20.5 44.5q0 25 18 41t45 16q37 0 65.5 -27.5t28.5 -68.5q12 -4 27.5 -5t28.5 -1q55 0 99 18t74.5 47t47 67t16.5 77q0 57 -41 97 t-112 40q-47 0 -82 -9.5t-62 -19.5l-12 31q70 31 129 58.5t102 56t67.5 60.5t24.5 73q0 57 -43 82.5t-88 25.5q-68 0 -126 -24.5t-103 -57.5l-10 31q23 20 54.5 40.5t69.5 38t78.5 29t81.5 11.5q37 0 73 -10.5t64.5 -29t46 -46t17.5 -64.5q0 -49 -28.5 -86t-69.5 -64.5 t-89 -48t-87 -34.5z" />
<glyph unicode="&#x2084;" horiz-adv-x="675" d="M381 -57h-375l2 43l477 508h62l-70 -496h144l-19 -55h-133l-37 -236h-84zM389 -2l55 381h-8l-360 -381h313z" />
<glyph unicode="&#x2085;" horiz-adv-x="675" d="M240 -313q-33 0 -69 6t-65.5 18.5t-49 31.5t-19.5 46q0 25 18.5 42t44.5 17q41 0 64.5 -28.5t23.5 -69.5q16 -10 40 -14t46 -4q92 0 151.5 48t59.5 120q0 57 -28.5 100t-76.5 72.5t-111.5 46t-133.5 20.5l133 334h387l-14 -88h-350l-70 -176q37 -2 96.5 -14.5t118 -41 t100.5 -77.5t42 -125q0 -61 -29 -109.5t-76 -83t-108.5 -53t-124.5 -18.5z" />
<glyph unicode="&#x2086;" horiz-adv-x="675" d="M317 -307q-59 0 -106 21.5t-81 59.5t-52.5 89t-18.5 110q0 104 51.5 195.5t136.5 163t196.5 119t232.5 61.5l6 -33q-193 -41 -326 -143.5t-194 -261.5h6q51 68 117.5 102.5t128.5 34.5q41 0 78.5 -14.5t67.5 -42t47.5 -68.5t17.5 -94q0 -61 -26 -116.5t-69 -95.5 t-98.5 -63.5t-114.5 -23.5zM324 -266q41 0 78.5 18.5t65.5 51t44 77.5t16 99q0 41 -13 73.5t-34.5 56t-49.5 36t-54 12.5q-66 0 -119 -36t-92 -95q-4 -16 -8 -39t-4 -41q0 -90 46 -151.5t124 -61.5z" />
<glyph unicode="&#x2087;" horiz-adv-x="675" d="M621 393v6h-256q-49 0 -78 -1t-46.5 -5t-25.5 -12t-14 -21q-10 -20 -19 -34q-8 -14 -13 -24.5t-7 -14.5h-43l53 194h533v-49l-504 -733h-76z" />
<glyph unicode="&#x2088;" horiz-adv-x="675" d="M315 -313q-47 0 -92 14t-79.5 41t-56 65.5t-21.5 86.5q0 45 18 78.5t49 57t69 40t77 28.5v4q-59 31 -95.5 78t-38.5 105q0 53 21.5 93t58.5 66.5t85 40t98 13.5q43 0 81.5 -14.5t69.5 -39t49.5 -59.5t18.5 -78q-2 -86 -56.5 -131t-128.5 -70v-4q63 -33 107.5 -81 t42.5 -113q0 -55 -23.5 -97t-61.5 -70t-88.5 -41t-103.5 -13zM414 121q121 66 121 180q2 66 -37 113t-117 47q-72 0 -111 -38t-39 -104q0 -63 55.5 -112t127.5 -86zM340 -274q72 0 117 35.5t47 113.5q0 35 -18.5 65.5t-47 56.5t-63.5 47.5t-68 39.5q-59 -31 -104 -76 t-45 -112q0 -76 46 -123t136 -47z" />
<glyph unicode="&#x2089;" horiz-adv-x="675" d="M25 -289q195 41 326.5 143.5t193.5 260.5q2 0 -1 1t-5 1q-51 -70 -118 -105t-128 -35q-41 0 -79 14.5t-66.5 43t-46 69.5t-17.5 95q0 61 25.5 115.5t68.5 95.5t98.5 64.5t114.5 23.5q57 0 105.5 -21.5t81 -60.5t51 -90.5t18.5 -110.5q0 -102 -51 -193.5t-136 -163 t-195.5 -118.5t-231.5 -62zM332 33q66 0 118 35.5t91 93.5q6 18 10 39.5t4 42.5q0 90 -47 151.5t-125 61.5q-41 0 -78 -18.5t-64.5 -51.5t-44 -79t-16.5 -99q0 -82 48.5 -129t103.5 -47z" />
<glyph unicode="&#x208a;" horiz-adv-x="675" d="M328 68h-230l4 55h226v229h55v-229h223l4 -55h-227v-232h-55v232z" />
<glyph unicode="&#x20ac;" horiz-adv-x="1015" d="M274 428q6 -66 29 -133.5t61.5 -120.5t94 -87t127.5 -34q111 0 192.5 51.5t145.5 126.5l39 -28q-70 -104 -172.5 -169t-231.5 -65q-96 0 -169 39t-122 103.5t-76.5 147.5t-33.5 169h-117l4 72h109v2q4 49 8 99t14 97h-135l6 72h148q29 102 80 194.5t123.5 161 t165.5 109.5t208 41q35 0 83 -7t92 -25.5t75 -49.5t31 -78q0 -31 -21.5 -55.5t-54.5 -24.5q-27 0 -44.5 13.5t-26.5 34t-11 45t2 49.5q-29 23 -76 29.5t-82 6.5q-92 0 -163.5 -39.5t-126 -103t-90 -142.5t-56.5 -159h440l7 -72h-463q-10 -49 -14.5 -98t-4.5 -98v-2h473 l9 -72h-476v0z" />
<glyph unicode="&#x2122;" horiz-adv-x="1835" d="M842 573l121 11q6 0 6 10l22 610q0 10 -4 10l-123 11l-2 55h266l191 -621h16l228 621h260l-4 -55l-121 -11q-4 0 -4 -10l20 -610q0 -10 8 -10l121 -11l6 -55h-342l4 55l121 11q6 0 6 10l-20 620h-16l-252 -671h-68l-215 676h-16l-25 -625q0 -10 6 -10l121 -11l4 -55h-321 zM252 573l135 11q6 0 6 10v633q0 2 -10 1t-12 -1q-68 0 -107 -2t-58.5 -6.5t-24.5 -13.5t-7 -21l-31 -146h-53l21 242h653v-242h-51l-23 144q-2 14 -7 22t-24.5 13.5t-57.5 7.5t-107 2h-21v-633q0 -10 6 -10l135 -11l4 -55h-370z" />
<glyph unicode="&#x25fc;" horiz-adv-x="942" d="M0 942h942v-942h-942v942z" />
<glyph horiz-adv-x="944" d="M997 1217l-159 -17q-10 0 -13 -12l-100 -782q-10 -86 -41 -166t-81 -140.5t-122.5 -96.5t-169.5 -36q-47 0 -103 13.5t-104.5 41t-81 69.5t-32.5 102q0 49 29.5 80.5t78.5 31.5q35 0 56.5 -23.5t21.5 -58.5t-12 -58.5t-43 -47.5q14 -25 36.5 -41.5t49 -25.5t54.5 -12 t50 -3q76 0 130.5 33.5t90 87t56 119t28.5 131.5l101 782q2 12 -8 12l-177 17l-6 63h478z" />
<glyph horiz-adv-x="944" d="M997 1217l-159 -17q-10 0 -13 -12l-100 -782q-10 -86 -41 -166t-81 -140.5t-122.5 -96.5t-169.5 -36q-47 0 -103 13.5t-104.5 41t-81 69.5t-32.5 102q0 49 29.5 80.5t78.5 31.5q35 0 56.5 -23.5t21.5 -58.5t-12 -58.5t-43 -47.5q14 -25 36.5 -41.5t49 -25.5t54.5 -12 t50 -3q76 0 130.5 33.5t90 87t56 119t28.5 131.5l101 782q2 12 -8 12l-177 17l-6 63h478zM743 1737h168l148 -363h-39l-98 144q-18 27 -36 53t-32 47q-16 23 -31 45h-4l-274 -289h-47z" />
<glyph horiz-adv-x="837" d="M123 111q-10 -25 -9 -34t11 -11l100 -13l4 -53h-311l4 53l88 10q14 2 24.5 12.5t33.5 59.5l342 756v33l131 37l168 -879q2 -14 22 -19l92 -10l6 -53h-356l4 53l105 8q14 2 17 9.5t-1 31.5l-45 236h-328zM461 850h-10l-201 -451h293z" />
<glyph horiz-adv-x="870" d="M784 262q0 -53 -20.5 -95t-48.5 -73q-55 -55 -144.5 -74.5t-187.5 -19.5h-354l4 53l110 13q14 2 15 14l102 780q2 12 -10 14l-107 13l-4 53h369q135 0 221 -54.5t86 -160.5q0 -92 -71.5 -157.5t-200.5 -82.5v-6q123 -18 182 -79.5t59 -137.5zM678 258q0 102 -79 150.5 t-196 48.5h-94l-49 -387q8 -2 26.5 -4.5t37 -5.5t36 -5t25.5 -2h59q47 0 90.5 13.5t75 39t50 63.5t18.5 89zM711 707q0 92 -65.5 135t-178.5 43h-100l-52 -377h109q61 0 113.5 12t90.5 37t60.5 62t22.5 88z" />
<glyph horiz-adv-x="946" d="M770 -2l-61 16q-47 -12 -104.5 -23t-115.5 -11q-92 0 -167.5 26.5t-130 77.5t-85 125t-30.5 170q0 119 43 231.5t123 194.5q72 72 166 114t210 42q55 0 103.5 -8.5t89.5 -18.5l113 27l-41 -306h-62l-10 203q-45 23 -96 35t-103 12q-100 0 -179 -46t-134 -120.5t-84 -169 t-29 -190.5q0 -84 23.5 -151.5t71.5 -112.5q39 -39 93 -60.5t126 -21.5q49 0 98 12t96 33l86 201h62z" />
<glyph horiz-adv-x="980" d="M936 518q0 -102 -38 -194.5t-110 -163.5q-84 -84 -198.5 -122t-237.5 -38h-323l4 53l110 13q12 2 15 14l102 780q2 12 -10 14l-107 13l-4 53h340q100 0 185.5 -27.5t144.5 -82t93 -133.5t34 -179zM823 512q0 182 -100 278.5t-274 96.5h-82l-107 -811l121 -21q94 2 175 34 t140.5 90.5t93 141t33.5 191.5z" />
<glyph horiz-adv-x="909" d="M741 0h-712l4 53l110 13q12 2 15 14l102 780q2 12 -10 14l-107 13l-4 53h725l-35 -266h-57l-6 155q0 18 -8 29.5t-40 18t-96.5 8.5t-177.5 2h-77l-52 -381h95q51 0 80.5 1t45 3t21.5 7t10 15l45 101h45l-69 -305h-43l2 98q0 8 -3 13t-16.5 8.5t-43 4.5t-85.5 1h-90 l-51 -398h49q127 0 199 2t108.5 7.5t48 15.5t19.5 29l57 153h64z" />
<glyph horiz-adv-x="845" d="M754 674l-9 155q-2 18 -10 29.5t-38.5 18t-95 8.5t-177.5 2h-57l-54 -391h82q51 0 81 1t45.5 3t21.5 7t10 15l47 99h43l-70 -304h-43l5 99q0 8 -3.5 13t-17.5 8t-44 5t-85 2h-78l-47 -364q-2 -12 12 -14l131 -13l5 -53h-379l4 53l110 13q12 2 15 14l102 780q2 12 -10 14 l-107 13l-4 53h707l-35 -266h-57z" />
<glyph horiz-adv-x="997" d="M938 360l-109 -14q-16 0 -16 -14l-33 -242l78 -10l4 -39q-78 -25 -177 -43t-193 -18q-92 0 -168 26.5t-131.5 77.5t-86 125t-30.5 170q0 119 43 231.5t123 194.5q72 72 166 114t210 42q49 0 95.5 -8.5t87.5 -18.5l110 27l-41 -306h-59l-10 203q-41 23 -90 35t-99 12 q-96 0 -175 -44t-134 -117.5t-86 -169t-31 -195.5q0 -170 95 -264q37 -37 95 -59.5t126 -22.5q47 0 96 10t84 23l35 266q0 14 -12 14l-121 14l-4 52h362z" />
<glyph horiz-adv-x="1093" d="M625 0l6 53l106 13q12 2 15 14l49 375h-492l-49 -375q-2 -12 12 -14l105 -13l4 -53h-352l4 53l110 13q12 2 15 14l102 780q2 12 -10 14l-107 13l-4 53h353l-7 -53l-106 -13q-16 -4 -19 -14l-43 -348h492l47 348q2 12 -12 14l-105 13l-4 53h352l-6 -53l-108 -13 q-14 -4 -17 -14l-102 -780q-2 -10 12 -14l105 -13l6 -53h-352z" />
<glyph horiz-adv-x="528" d="M41 0l4 53l111 13q16 2 18 14l100 780q2 10 -10 14l-108 13l-6 53h360l-4 -53l-113 -13q-14 -2 -16 -14l-101 -780q-2 -12 13 -14l106 -13l6 -53h-360z" />
<glyph horiz-adv-x="563" d="M578 887l-109 -13q-16 -4 -18 -14l-68 -522q-23 -166 -101.5 -265.5t-207.5 -92.5q-61 2 -94 29.5t-29 68.5q4 29 23.5 45t45.5 16q39 -4 62.5 -34.5t28.5 -75.5h2q72 16 109.5 85.5t56.5 204.5l69 541q2 12 -10 14l-121 13l-4 53h369z" />
<glyph horiz-adv-x="962" d="M596 0l6 53l70 8q12 4 6 19l-223 412l-160 -142l-35 -270q-2 -12 12 -14l105 -13l4 -53h-352l4 53l110 13q12 2 15 14l102 780q2 12 -10 14l-107 13l-4 53h353l-7 -53l-106 -13q-16 -4 -19 -14l-53 -426l430 393q31 27 31 39q0 10 -8 11l-88 10l-6 53h333l-6 -53l-80 -10 q-31 -2 -63 -33l-324 -289l265 -471q6 -10 17 -14t21 -7l68 -10l6 -53h-307z" />
<glyph horiz-adv-x="811" d="M692 0h-663l4 53l110 13q12 2 15 14l102 780q2 12 -10 14l-107 13l-4 53h367l-4 -53l-123 -13q-16 -4 -19 -14l-102 -803h12q125 0 196 1t105.5 7.5t45 16.5t16.5 29l69 190h64z" />
<glyph horiz-adv-x="1202" d="M772 0l4 53l119 13q8 2 12 12t8 55l74 725h-10l-416 -827h-65l-164 831h-10l-123 -727q-4 -27 -6 -40t-1 -19t3 -8t6 -2l119 -13l6 -53h-348l4 53l125 13q4 0 7 2t6 8t7 19.5t8 39.5l119 725q2 12 -10 14l-117 13l-6 53h295l143 -764h12l375 764h275l-4 -53l-117 -13 q-14 -2 -17 -16l-69 -725q-4 -47 -2 -56t10 -11l106 -13l7 -53h-365z" />
<glyph horiz-adv-x="1036" d="M1092 887l-123 -13q-10 -2 -16.5 -12t-14.5 -63l-107 -807h-77l-426 856h-9l-90 -707q-8 -53 -5 -63t14 -12l118 -13l4 -53h-350l4 53l123 13q10 2 15.5 12t13.5 63q25 195 45 346q8 63 16.5 126t15.5 111t11 79l4 31q2 23 -14 30l-105 23l-4 53h252l397 -801h7l86 660 q8 51 5 62t-14 13l-118 13l-5 53h351z" />
<glyph horiz-adv-x="1028" d="M985 520q0 -111 -39 -213t-112 -180q-66 -68 -150 -110t-186 -42q-94 0 -172 36t-133.5 96.5t-86 140.5t-30.5 170q0 102 33.5 198.5t99.5 171.5q63 78 153.5 125.5t200.5 47.5q92 0 170 -36t134.5 -95.5t87 -140.5t30.5 -169zM870 530q0 86 -24.5 162t-75.5 129 q-41 39 -92 60.5t-121 21.5q-92 0 -160.5 -47t-113.5 -119.5t-67.5 -162t-22.5 -171.5q0 -88 26.5 -163.5t79.5 -128.5q80 -80 207 -80q92 0 160.5 47t113.5 120.5t67.5 161.5t22.5 170z" />
<glyph horiz-adv-x="827" d="M823 676q0 -70 -30.5 -126t-80.5 -95t-118 -59.5t-141 -20.5q-47 0 -85 3t-67 7l-41 -305q-2 -12 12 -14l131 -13l5 -53h-379l4 53l110 13q14 2 15 14l102 780q2 10 -10 14l-107 13l-4 53h332q162 0 257 -69.5t95 -194.5zM711 672q0 111 -71 163t-181 52q-18 0 -47 -1 t-47 -5l-58 -439q29 -6 64 -10t78 -4q111 0 186.5 62.5t75.5 181.5z" />
<glyph horiz-adv-x="1028" d="M934 -279q-39 -4 -75 -8t-79 -4q-70 0 -123 10.5t-97 40t-85 85t-84 145.5q-143 35 -229 146.5t-86 281.5q0 102 33.5 198.5t99.5 171.5q63 78 153.5 125.5t200.5 47.5q92 0 170 -36t134.5 -95.5t87 -140.5t30.5 -169q0 -111 -39 -213t-112 -180q-61 -66 -145.5 -106.5 t-174.5 -43.5q31 -68 66.5 -110.5t84 -66t114 -28.5t153.5 3v-27q0 -11 2 -27zM870 530q0 86 -24.5 162t-75.5 129q-41 39 -92 60.5t-121 21.5q-92 0 -160.5 -47t-113.5 -119.5t-67.5 -162t-22.5 -171.5q0 -88 26.5 -163.5t79.5 -128.5q80 -80 207 -80q92 0 160.5 47 t113.5 120.5t67.5 161.5t22.5 170z" />
<glyph horiz-adv-x="886" d="M647 0l-51 115l-143 291l-150 6l-43 -332q-2 -12 12 -14l105 -13l4 -53h-352l4 53l110 13q12 2 15 14l102 780q2 12 -10 14l-107 13l-4 53h379q82 0 140.5 -18.5t97.5 -50t57 -72.5t18 -86q0 -113 -75.5 -188.5t-200.5 -108.5l170 -330q4 -10 13.5 -15t17.5 -5l80 -13 l6 -53h-195zM719 692q0 88 -64.5 145.5t-193.5 49.5l-96 -4l-54 -410l170 -20q98 16 168 76.5t70 162.5z" />
<glyph horiz-adv-x="749" d="M657 252q0 -70 -27.5 -122t-75.5 -86t-112.5 -50.5t-136.5 -16.5q-141 0 -268 35l12 267h57l31 -211q37 -16 88 -24.5t94 -8.5q47 0 92.5 10t80 32.5t55 58.5t20.5 85q0 41 -18.5 73t-47 57.5t-66.5 47t-77 43.5q-43 23 -85 48.5t-74.5 57.5t-53 73t-20.5 94 q0 63 27.5 109t74.5 77t108.5 45.5t127.5 14.5q47 0 93 -3.5t87 -13.5l84 23l-39 -293h-57l-15 190q-33 20 -82 30.5t-88 10.5q-43 0 -82.5 -8t-72.5 -27.5t-52.5 -51.5t-19.5 -77q0 -43 17.5 -74.5t46 -58t66.5 -49t81 -45.5t83 -47.5t72.5 -55t52 -69.5t19.5 -90z" />
<glyph horiz-adv-x="925" d="M846 653l-6 172q0 18 -5.5 30.5t-29 19t-70.5 8.5t-131 2h-24l-107 -805q-2 -12 12 -14l121 -13l4 -53h-383l4 53l125 13q12 2 15 14l106 805h-24q-84 0 -131.5 -2t-71 -8.5t-32.5 -16.5t-15 -29l-62 -176h-63l65 287h795l-35 -287h-57z" />
<glyph horiz-adv-x="1073" d="M1090 887l-123 -13q-10 -2 -16.5 -12t-12.5 -63l-68 -500q-20 -160 -120.5 -241t-253.5 -81q-150 0 -242 72t-92 213q0 25 2 53.5t6 55.5l66 489q2 12 -11 14l-106 13l-4 53h352l-4 -53l-109 -13q-14 -2 -16 -14l-66 -500q-4 -16 -6 -35.5t-2 -41.5q0 -117 68.5 -177.5 t191.5 -60.5q111 0 190 65.5t97 200.5l63 488q8 53 4 63t-14 12l-116 13l-5 53h351z" />
<glyph horiz-adv-x="860" d="M958 887l-88 -10q-8 -2 -14 -4.5t-12 -9.5t-13.5 -21.5t-19.5 -38.5l-371 -809h-104l-172 864q-2 14 -21 16l-94 13l-4 53h352l-4 -53l-104 -8q-14 -4 -17.5 -10.5t2.5 -30.5l140 -748h8l319 717q18 41 17.5 54t-15.5 16l-96 10l-6 53h322z" />
<glyph horiz-adv-x="1306" d="M1411 887l-88 -10q-12 -4 -24.5 -15.5t-34.5 -58.5l-375 -809h-94l-105 668h-6l-291 -668h-100l-154 864q-4 16 -20 16l-92 13l-7 53h355l-4 -53l-105 -8q-12 -2 -16 -10.5t0 -30.5l117 -736h8l289 670l-15 86q0 12 -20 16l-94 13l-5 53h355l-4 -53l-109 -8 q-8 -2 -13 -9.5t-1 -31.5l110 -736h6l316 699q20 47 20 59t-10 14l-100 13l-4 53h319z" />
<glyph horiz-adv-x="929" d="M539 0l4 53l96 8q25 0 4 41l-176 328h-6l-268 -330q-16 -18 -14.5 -26t14.5 -11l92 -10l4 -53h-328l4 53l94 10q20 2 43 31l326 379l-213 379q-12 23 -27 22l-86 13l-6 53h342l-4 -53l-96 -8q-25 -4 -4 -43l162 -299h4l248 305q16 18 14 25t-14 10l-95 10l-4 53h328 l-4 -53l-92 -10q-23 -6 -45 -31l-304 -354l234 -406q10 -18 27 -23l86 -10l6 -53h-346z" />
<glyph horiz-adv-x="886" d="M969 887l-84 -10q-12 -4 -24.5 -11.5t-29.5 -29.5l-327 -439l-43 -317q-2 -10 14 -14l119 -13l4 -53h-385l4 53l127 13q12 2 14 14l41 313l-229 461q-10 18 -29 23l-82 10l-4 53h340l-4 -53l-98 -8q-10 -2 -13.5 -12.5t7.5 -37.5l180 -380h6l283 387q27 39 2 41l-92 10 l-4 53h311z" />
<glyph horiz-adv-x="802" d="M682 0h-692l6 51l717 828v6h-168q-109 0 -171.5 -2t-95 -9.5t-43 -18.5t-16.5 -30l-49 -153h-59l36 268h697l-8 -53l-711 -828l-2 -4h135q123 0 193.5 3t105.5 9.5t47 17.5t19 28l63 170h66z" />
<glyph horiz-adv-x="1499" d="M1407 252q0 -70 -27.5 -122t-76 -86t-113 -50.5t-135.5 -16.5q-141 0 -269 35l13 267h57l31 -211q37 -16 88 -24.5t94 -8.5q47 0 92 10t80 32.5t55.5 58.5t20.5 85q0 41 -18.5 73t-47 57.5t-66.5 47t-77 43.5q-43 23 -85 48.5t-75 57.5t-53.5 73t-20.5 94q0 63 28 109 t75 77t108.5 45.5t126.5 14.5q47 0 93.5 -3.5t87.5 -13.5l84 23l-39 -293h-58l-14 190q-33 20 -82 30.5t-88 10.5q-43 0 -83 -8t-72.5 -27.5t-52 -51.5t-19.5 -77q0 -43 17.5 -74.5t46 -58t66.5 -49t81 -45.5t83 -47.5t72.5 -55t52 -69.5t19.5 -90zM657 252 q0 -70 -27.5 -122t-75.5 -86t-112.5 -50.5t-136.5 -16.5q-141 0 -268 35l12 267h57l31 -211q37 -16 88 -24.5t94 -8.5q47 0 92.5 10t80 32.5t55 58.5t20.5 85q0 41 -18.5 73t-47 57.5t-66.5 47t-77 43.5q-43 23 -85 48.5t-74.5 57.5t-53 73t-20.5 94q0 63 27.5 109t74.5 77 t108.5 45.5t127.5 14.5q47 0 93 -3.5t87 -13.5l84 23l-39 -293h-57l-15 190q-33 20 -82 30.5t-88 10.5q-43 0 -82.5 -8t-72.5 -27.5t-52.5 -51.5t-19.5 -77q0 -43 17.5 -74.5t46 -58t66.5 -49t81 -45.5t83 -47.5t72.5 -55t52 -69.5t19.5 -90z" />
<glyph horiz-adv-x="837" d="M123 111q-10 -25 -9 -34t11 -11l100 -13l4 -53h-311l4 53l88 10q14 2 24.5 12.5t33.5 59.5l342 756v33l131 37l168 -879q2 -14 22 -19l92 -10l6 -53h-356l4 53l105 8q14 2 17 9.5t-1 31.5l-45 236h-328zM461 850h-10l-201 -451h293zM494 1034l-275 363h164l158 -363h-47z " />
<glyph horiz-adv-x="837" d="M123 111q-10 -25 -9 -34t11 -11l100 -13l4 -53h-311l4 53l88 10q14 2 24.5 12.5t33.5 59.5l342 756v33l131 37l168 -879q2 -14 22 -19l92 -10l6 -53h-356l4 53l105 8q14 2 17 9.5t-1 31.5l-45 236h-328zM461 850h-10l-201 -451h293zM473 1034h-47l256 363h164z" />
<glyph horiz-adv-x="837" d="M123 111q-10 -25 -9 -34t11 -11l100 -13l4 -53h-311l4 53l88 10q14 2 24.5 12.5t33.5 59.5l342 756v33l131 37l168 -879q2 -14 22 -19l92 -10l6 -53h-356l4 53l105 8q14 2 17 9.5t-1 31.5l-45 236h-328zM461 850h-10l-201 -451h293zM733 1034l-98 144q-18 27 -35.5 53 t-32.5 47q-16 23 -30 45h-5l-274 -289h-47l246 363h168l147 -363h-39z" />
<glyph horiz-adv-x="837" d="M123 111q-10 -25 -9 -34t11 -11l100 -13l4 -53h-311l4 53l88 10q14 2 24.5 12.5t33.5 59.5l342 756v33l131 37l168 -879q2 -14 22 -19l92 -10l6 -53h-356l4 53l105 8q14 2 17 9.5t-1 31.5l-45 236h-328zM461 850h-10l-201 -451h293zM844 1278q-66 -213 -207 -213 q-41 0 -78 22.5t-68.5 50t-60.5 50t-53 22.5q-20 0 -37.5 -5t-34 -19.5t-34 -41t-38.5 -69.5h-55q66 213 207 213q41 0 78 -22.5t69.5 -50t61.5 -50t51 -22.5q20 0 36.5 5t34 19.5t34 41t36.5 69.5h58z" />
<glyph horiz-adv-x="837" d="M123 111q-10 -25 -9 -34t11 -11l100 -13l4 -53h-311l4 53l88 10q14 2 24.5 12.5t33.5 59.5l342 756v33l131 37l168 -879q2 -14 22 -19l92 -10l6 -53h-356l4 53l105 8q14 2 17 9.5t-1 31.5l-45 236h-328zM461 850h-10l-201 -451h293zM807 1174q0 -39 -24.5 -71t-67.5 -32 q-45 0 -71 32t-26 71t26 69.5t71 30.5q43 0 67.5 -30.5t24.5 -69.5zM399 1174q0 -39 -24.5 -71t-69.5 -32t-68.5 32t-23.5 71t23.5 69.5t68.5 30.5t69.5 -30.5t24.5 -69.5z" />
<glyph horiz-adv-x="837" d="M709 82q2 -14 22 -19l92 -10l6 -53h-356l4 53l105 8q14 2 17 9.5t-1 31.5l-45 236h-328l-102 -227q-10 -25 -9 -34t11 -11l100 -13l4 -53h-311l4 53l88 10q14 2 24.5 12.5t33.5 59.5l348 768q-49 23 -77 68t-28 102q0 76 48.5 130t134.5 54t135 -54t47 -130 q-2 -61 -33 -109.5t-90 -66.5zM616 1073q0 53 -31.5 93t-90.5 40t-90 -40t-33 -93t31.5 -93t93.5 -40q59 0 89.5 40t30.5 93zM461 850h-10l-201 -451h293z" />
<glyph horiz-adv-x="837" d="M709 82q2 -14 22 -19l92 -10l6 -53h-356l4 53l105 8q14 2 17 9.5t-1 31.5l-45 236h-328l-102 -227q-10 -25 -9 -34t11 -11l100 -13l4 -53h-311l4 53l88 10q14 2 24.5 12.5t33.5 59.5l348 768q-49 23 -77 68t-28 102q0 76 48.5 130t134.5 54t135 -54t47 -130 q-2 -61 -33 -109.5t-90 -66.5zM616 1073q0 53 -31.5 93t-90.5 40t-90 -40t-33 -93t31.5 -93t93.5 -40q59 0 89.5 40t30.5 93zM461 850h-10l-201 -451h293zM473 1300h-47l256 363h164z" />
<glyph horiz-adv-x="837" d="M123 111q-10 -25 -9 -34t11 -11l100 -13l4 -53h-311l4 53l88 10q14 2 24.5 12.5t33.5 59.5l342 756v33l131 37l168 -879q2 -14 22 -19l92 -10l6 -53h-356l4 53l105 8q14 2 17 9.5t-1 31.5l-45 236h-328zM461 850h-10l-201 -451h293zM281 1098l4 78h469l8 -78h-481z" />
<glyph horiz-adv-x="837" d="M123 111q-10 -25 -9 -34t11 -11l100 -13l4 -53h-311l4 53l88 10q14 2 24.5 12.5t33.5 59.5l342 756v33l131 37l168 -879q2 -14 22 -19l92 -10l6 -53h-356l4 53l105 8q14 2 17 9.5t-1 31.5l-45 236h-328zM461 850h-10l-201 -451h293zM821 1397q-23 -59 -50.5 -123 t-65 -117t-91 -88t-122.5 -35q-68 0 -111 35t-67.5 88t-36 116.5t-17.5 123.5h49q23 -158 71 -220.5t120 -62.5t135 62.5t129 220.5h57z" />
<glyph horiz-adv-x="837" d="M602 -408q-66 6 -102.5 48.5t-22.5 113.5q8 45 33 84t55.5 70t65.5 53.5t67 38.5h-225l4 53l105 8q14 2 17 9.5t-1 31.5l-45 236h-328l-102 -227q-10 -25 -9 -34t11 -11l100 -13l4 -53h-311l4 53l88 10q14 2 24.5 12.5t33.5 59.5l342 756v33l131 37l168 -879 q2 -14 22 -19l92 -10l6 -53q-55 -8 -100 -30.5t-79 -53.5t-55.5 -67.5t-29.5 -73.5q-23 -109 64 -119q70 -6 106 37l23 -25q-29 -35 -64 -58.5t-92 -17.5zM461 850h-10l-201 -451h293z" />
<glyph horiz-adv-x="1323" d="M1155 0h-715l11 53l110 13q12 2 14 14l33 262h-315l-80 -119q-4 -6 -18.5 -27.5t-29.5 -46t-27.5 -45t-12.5 -22.5q-6 -16 8 -16l92 -13l6 -53h-313l4 53l90 10q10 2 25.5 16.5t50.5 61.5l485 707q14 25 -8 26l-106 13v53h819l-35 -266h-57l-8 155q-2 18 -9.5 29.5 t-39 18t-96 8.5t-177.5 2h-76l-49 -381h90q51 0 82 1t46.5 3t20.5 7t9 15l45 101h45l-68 -305h-45l5 98q0 8 -3.5 13t-17.5 8.5t-44 4.5t-85 1l-88 2l-51 -400h49q127 0 198.5 2t108.5 7.5t48 15.5t20 29l55 153h66zM680 881h-18l-330 -480h286z" />
<glyph horiz-adv-x="1323" d="M1155 0h-715l11 53l110 13q12 2 14 14l33 262h-315l-80 -119q-4 -6 -18.5 -27.5t-29.5 -46t-27.5 -45t-12.5 -22.5q-6 -16 8 -16l92 -13l6 -53h-313l4 53l90 10q10 2 25.5 16.5t50.5 61.5l485 707q14 25 -8 26l-106 13v53h819l-35 -266h-57l-8 155q-2 18 -9.5 29.5 t-39 18t-96 8.5t-177.5 2h-76l-49 -381h90q51 0 82 1t46.5 3t20.5 7t9 15l45 101h45l-68 -305h-45l5 98q0 8 -3.5 13t-17.5 8.5t-44 4.5t-85 1l-88 2l-51 -400h49q127 0 198.5 2t108.5 7.5t48 15.5t20 29l55 153h66zM680 881h-18l-330 -480h286zM799 1034h-47l256 363h163z " />
<glyph horiz-adv-x="946" d="M426 -16q-158 16 -254 118.5t-96 276.5q0 119 43 231.5t123 194.5q72 72 166 114t210 42q55 0 103.5 -8.5t89.5 -18.5l113 27l-41 -306h-62l-10 203q-45 23 -96 35t-103 12q-100 0 -179 -46t-134 -120.5t-84 -169t-29 -190.5q0 -84 23.5 -151.5t71.5 -112.5 q39 -39 93 -60.5t126 -21.5q49 0 98 12t96 33l86 201h62l-72 -281l-61 16q-47 -12 -104.5 -23t-115.5 -11h-2l-112 -107q100 8 167.5 -33t67.5 -119q0 -51 -30.5 -94t-86 -75.5t-134 -55t-173.5 -31.5l-8 37q176 27 260 77t84 130q0 43 -39 72t-121 29q-20 0 -47.5 -2.5 t-54.5 -6.5l4 25l82 78q16 14 30.5 29.5t24.5 25.5l25 25v0z" />
<glyph horiz-adv-x="946" d="M770 -2l-61 16q-47 -12 -104.5 -23t-115.5 -11q-92 0 -167.5 26.5t-130 77.5t-85 125t-30.5 170q0 119 43 231.5t123 194.5q72 72 166 114t210 42q55 0 103.5 -8.5t89.5 -18.5l113 27l-41 -306h-62l-10 203q-45 23 -96 35t-103 12q-100 0 -179 -46t-134 -120.5t-84 -169 t-29 -190.5q0 -84 23.5 -151.5t71.5 -112.5q39 -39 93 -60.5t126 -21.5q49 0 98 12t96 33l86 201h62zM549 1034h-47l256 363h164z" />
<glyph horiz-adv-x="946" d="M770 -2l-61 16q-47 -12 -104.5 -23t-115.5 -11q-92 0 -167.5 26.5t-130 77.5t-85 125t-30.5 170q0 119 43 231.5t123 194.5q72 72 166 114t210 42q55 0 103.5 -8.5t89.5 -18.5l113 27l-41 -306h-62l-10 203q-45 23 -96 35t-103 12q-100 0 -179 -46t-134 -120.5t-84 -169 t-29 -190.5q0 -84 23.5 -151.5t71.5 -112.5q39 -39 93 -60.5t126 -21.5q49 0 98 12t96 33l86 201h62zM809 1034l-98 144q-18 27 -36 53t-32 47q-16 23 -31 45h-4l-274 -289h-47l245 363h168l148 -363h-39z" />
<glyph horiz-adv-x="946" d="M770 -2l-61 16q-47 -12 -104.5 -23t-115.5 -11q-92 0 -167.5 26.5t-130 77.5t-85 125t-30.5 170q0 119 43 231.5t123 194.5q72 72 166 114t210 42q55 0 103.5 -8.5t89.5 -18.5l113 27l-41 -306h-62l-10 203q-45 23 -96 35t-103 12q-100 0 -179 -46t-134 -120.5t-84 -169 t-29 -190.5q0 -84 23.5 -151.5t71.5 -112.5q39 -39 93 -60.5t126 -21.5q49 0 98 12t96 33l86 201h62zM713 1214q0 -43 -28 -77.5t-77 -34.5t-75.5 34.5t-26.5 77.5t26.5 77t75.5 34t77 -34t28 -77z" />
<glyph horiz-adv-x="946" d="M770 -2l-61 16q-47 -12 -104.5 -23t-115.5 -11q-92 0 -167.5 26.5t-130 77.5t-85 125t-30.5 170q0 119 43 231.5t123 194.5q72 72 166 114t210 42q55 0 103.5 -8.5t89.5 -18.5l113 27l-41 -306h-62l-10 203q-45 23 -96 35t-103 12q-100 0 -179 -46t-134 -120.5t-84 -169 t-29 -190.5q0 -84 23.5 -151.5t71.5 -112.5q39 -39 93 -60.5t126 -21.5q49 0 98 12t96 33l86 201h62zM692 1034h-168l-147 363h39l196 -289h4l275 289h47z" />
<glyph horiz-adv-x="991" d="M936 518q0 -102 -38 -194.5t-110 -163.5q-84 -84 -198.5 -122t-237.5 -38h-323l4 53l110 13q12 2 15 14l102 780q2 12 -10 14l-107 13l-4 53h340q100 0 185.5 -27.5t144.5 -82t93 -133.5t34 -179zM823 512q0 182 -100 278.5t-274 96.5h-82l-107 -811l121 -21q94 2 175 34 t140.5 90.5t93 141t33.5 191.5zM602 1034h-168l-147 363h39l196 -289h4l275 289h47z" />
<glyph horiz-adv-x="1001" d="M68 444l6 72h162l45 344q2 12 -11 14l-106 13l-4 53h340q100 0 185 -27.5t144.5 -82t93 -133.5t33.5 -179q0 -102 -37.5 -194.5t-109.5 -163.5q-84 -84 -198.5 -122t-237.5 -38h-324l4 53l111 13q12 2 14 14l47 364h-157zM559 516l6 -72h-237l-47 -368l120 -21 q94 2 175 34t140.5 90.5t93.5 141t34 191.5q0 182 -100.5 278.5t-274.5 96.5h-82l-49 -371h221z" />
<glyph horiz-adv-x="1001" d="M68 444l6 72h162l45 344q2 12 -11 14l-106 13l-4 53h340q100 0 185 -27.5t144.5 -82t93 -133.5t33.5 -179q0 -102 -37.5 -194.5t-109.5 -163.5q-84 -84 -198.5 -122t-237.5 -38h-324l4 53l111 13q12 2 14 14l47 364h-157zM559 516l6 -72h-237l-47 -368l120 -21 q94 2 175 34t140.5 90.5t93.5 141t34 191.5q0 182 -100.5 278.5t-274.5 96.5h-82l-49 -371h221z" />
<glyph horiz-adv-x="909" d="M741 0h-712l4 53l110 13q12 2 15 14l102 780q2 12 -10 14l-107 13l-4 53h725l-35 -266h-57l-6 155q0 18 -8 29.5t-40 18t-96.5 8.5t-177.5 2h-77l-52 -381h95q51 0 80.5 1t45 3t21.5 7t10 15l45 101h45l-69 -305h-43l2 98q0 8 -3 13t-16.5 8.5t-43 4.5t-85.5 1h-90 l-51 -398h49q127 0 199 2t108.5 7.5t48 15.5t19.5 29l57 153h64zM541 1034l-275 363h164l158 -363h-47z" />
<glyph horiz-adv-x="909" d="M741 0h-712l4 53l110 13q12 2 15 14l102 780q2 12 -10 14l-107 13l-4 53h725l-35 -266h-57l-6 155q0 18 -8 29.5t-40 18t-96.5 8.5t-177.5 2h-77l-52 -381h95q51 0 80.5 1t45 3t21.5 7t10 15l45 101h45l-69 -305h-43l2 98q0 8 -3 13t-16.5 8.5t-43 4.5t-85.5 1h-90 l-51 -398h49q127 0 199 2t108.5 7.5t48 15.5t19.5 29l57 153h64zM520 1034h-47l256 363h164z" />
<glyph horiz-adv-x="909" d="M741 0h-712l4 53l110 13q12 2 15 14l102 780q2 12 -10 14l-107 13l-4 53h725l-35 -266h-57l-6 155q0 18 -8 29.5t-40 18t-96.5 8.5t-177.5 2h-77l-52 -381h95q51 0 80.5 1t45 3t21.5 7t10 15l45 101h45l-69 -305h-43l2 98q0 8 -3 13t-16.5 8.5t-43 4.5t-85.5 1h-90 l-51 -398h49q127 0 199 2t108.5 7.5t48 15.5t19.5 29l57 153h64zM760 1034l-98 144q-18 27 -36 53t-32 47q-16 23 -31 45h-4l-274 -289h-47l245 363h168l148 -363h-39z" />
<glyph horiz-adv-x="909" d="M741 0h-712l4 53l110 13q12 2 15 14l102 780q2 12 -10 14l-107 13l-4 53h725l-35 -266h-57l-6 155q0 18 -8 29.5t-40 18t-96.5 8.5t-177.5 2h-77l-52 -381h95q51 0 80.5 1t45 3t21.5 7t10 15l45 101h45l-69 -305h-43l2 98q0 8 -3 13t-16.5 8.5t-43 4.5t-85.5 1h-90 l-51 -398h49q127 0 199 2t108.5 7.5t48 15.5t19.5 29l57 153h64zM834 1174q0 -39 -25 -71t-68 -32q-45 0 -70.5 32t-25.5 71t25.5 69.5t70.5 30.5q43 0 68 -30.5t25 -69.5zM426 1174q0 -39 -24.5 -71t-69.5 -32t-68.5 32t-23.5 71t23.5 69.5t68.5 30.5t69.5 -30.5 t24.5 -69.5z" />
<glyph horiz-adv-x="909" d="M741 0h-712l4 53l110 13q12 2 15 14l102 780q2 12 -10 14l-107 13l-4 53h725l-35 -266h-57l-6 155q0 18 -8 29.5t-40 18t-96.5 8.5t-177.5 2h-77l-52 -381h95q51 0 80.5 1t45 3t21.5 7t10 15l45 101h45l-69 -305h-43l2 98q0 8 -3 13t-16.5 8.5t-43 4.5t-85.5 1h-90 l-51 -398h49q127 0 199 2t108.5 7.5t48 15.5t19.5 29l57 153h64zM307 1098l4 78h469l8 -78h-481z" />
<glyph horiz-adv-x="909" d="M741 0h-712l4 53l110 13q12 2 15 14l102 780q2 12 -10 14l-107 13l-4 53h725l-35 -266h-57l-6 155q0 18 -8 29.5t-40 18t-96.5 8.5t-177.5 2h-77l-52 -381h95q51 0 80.5 1t45 3t21.5 7t10 15l45 101h45l-69 -305h-43l2 98q0 8 -3 13t-16.5 8.5t-43 4.5t-85.5 1h-90 l-51 -398h49q127 0 199 2t108.5 7.5t48 15.5t19.5 29l57 153h64zM879 1397q-23 -59 -50.5 -123t-65.5 -117t-91.5 -88t-122.5 -35q-68 0 -111 35t-67.5 88t-35.5 116.5t-18 123.5h50q23 -158 70.5 -220.5t119.5 -62.5t135.5 62.5t128.5 220.5h58z" />
<glyph horiz-adv-x="909" d="M741 0h-712l4 53l110 13q12 2 15 14l102 780q2 12 -10 14l-107 13l-4 53h725l-35 -266h-57l-6 155q0 18 -8 29.5t-40 18t-96.5 8.5t-177.5 2h-77l-52 -381h95q51 0 80.5 1t45 3t21.5 7t10 15l45 101h45l-69 -305h-43l2 98q0 8 -3 13t-16.5 8.5t-43 4.5t-85.5 1h-90 l-51 -398h49q127 0 199 2t108.5 7.5t48 15.5t19.5 29l57 153h64zM680 1214q0 -43 -27.5 -77.5t-77.5 -34.5q-49 0 -75.5 34.5t-26.5 77.5t26.5 77t75.5 34t77 -34t28 -77z" />
<glyph horiz-adv-x="909" d="M553 -408q-66 6 -100.5 49.5t-18.5 118.5q14 72 67.5 133.5t119.5 106.5h-592l4 53l110 13q12 2 15 14l102 780q2 12 -10 14l-107 13l-4 53h725l-35 -266h-57l-6 155q0 18 -8 29.5t-40 18t-96.5 8.5t-177.5 2h-77l-52 -381h95q51 0 80.5 1t45 3t21.5 7t10 15l45 101h45 l-69 -305h-43l2 98q0 8 -3 13t-16.5 8.5t-43 4.5t-85.5 1h-90l-51 -398h49q127 0 199 2t108.5 7.5t48 15.5t19.5 29l57 153h64l-62 -262h-51q-70 -49 -112.5 -106.5t-55.5 -112.5q-10 -49 2.5 -85t55.5 -40q35 -4 64.5 6t45.5 31l23 -25q-29 -35 -66 -58.5t-94 -17.5z" />
<glyph horiz-adv-x="909" d="M741 0h-712l4 53l110 13q12 2 15 14l102 780q2 12 -10 14l-107 13l-4 53h725l-35 -266h-57l-6 155q0 18 -8 29.5t-40 18t-96.5 8.5t-177.5 2h-77l-52 -381h95q51 0 80.5 1t45 3t21.5 7t10 15l45 101h45l-69 -305h-43l2 98q0 8 -3 13t-16.5 8.5t-43 4.5t-85.5 1h-90 l-51 -398h49q127 0 199 2t108.5 7.5t48 15.5t19.5 29l57 153h64zM633 1034h-168l-148 363h39l197 -289h4l274 289h48z" />
<glyph horiz-adv-x="997" d="M938 360l-109 -14q-16 0 -16 -14l-33 -242l78 -10l4 -39q-78 -25 -177 -43t-193 -18q-92 0 -168 26.5t-131.5 77.5t-86 125t-30.5 170q0 119 43 231.5t123 194.5q72 72 166 114t210 42q49 0 95.5 -8.5t87.5 -18.5l110 27l-41 -306h-59l-10 203q-41 23 -90 35t-99 12 q-96 0 -175 -44t-134 -117.5t-86 -169t-31 -195.5q0 -170 95 -264q37 -37 95 -59.5t126 -22.5q47 0 96 10t84 23l35 266q0 14 -12 14l-121 14l-4 52h362zM852 1034l-98 144q-18 27 -36 53t-32 47q-16 23 -31 45h-4l-274 -289h-47l245 363h168l148 -363h-39z" />
<glyph horiz-adv-x="997" d="M938 360l-109 -14q-16 0 -16 -14l-33 -242l78 -10l4 -39q-78 -25 -177 -43t-193 -18q-92 0 -168 26.5t-131.5 77.5t-86 125t-30.5 170q0 119 43 231.5t123 194.5q72 72 166 114t210 42q49 0 95.5 -8.5t87.5 -18.5l110 27l-41 -306h-59l-10 203q-41 23 -90 35t-99 12 q-96 0 -175 -44t-134 -117.5t-86 -169t-31 -195.5q0 -170 95 -264q37 -37 95 -59.5t126 -22.5q47 0 96 10t84 23l35 266q0 14 -12 14l-121 14l-4 52h362zM909 1397q-23 -59 -50.5 -123t-65 -117t-91 -88t-122.5 -35q-68 0 -111 35t-67.5 88t-36 116.5t-17.5 123.5h49 q23 -158 71 -220.5t120 -62.5t135 62.5t129 220.5h57z" />
<glyph horiz-adv-x="997" d="M938 360l-109 -14q-16 0 -16 -14l-33 -242l78 -10l4 -39q-78 -25 -177 -43t-193 -18q-92 0 -168 26.5t-131.5 77.5t-86 125t-30.5 170q0 119 43 231.5t123 194.5q72 72 166 114t210 42q49 0 95.5 -8.5t87.5 -18.5l110 27l-41 -306h-59l-10 203q-41 23 -90 35t-99 12 q-96 0 -175 -44t-134 -117.5t-86 -169t-31 -195.5q0 -170 95 -264q37 -37 95 -59.5t126 -22.5q47 0 96 10t84 23l35 266q0 14 -12 14l-121 14l-4 52h362zM719 1214q0 -43 -27.5 -77.5t-77.5 -34.5q-49 0 -75.5 34.5t-26.5 77.5t26.5 77t75.5 34t77 -34t28 -77z" />
</font>
</defs>
</svg>
