<?xml version="1.0" standalone="no"?>
<!DOCTYPE svg PUBLIC "-//W3C//DTD SVG 1.1//EN" "http://www.w3.org/Graphics/SVG/1.1/DTD/svg11.dtd" >
<svg xmlns="http://www.w3.org/2000/svg" xmlns:xlink="http://www.w3.org/1999/xlink" version="1.1">
<metadata></metadata>
<defs>
<font id="freighttext_prolight" horiz-adv-x="1024" >
<font-face units-per-em="2048" ascent="1638" descent="-410" />
<missing-glyph horiz-adv-x="466" />
<glyph unicode="&#xfb00;" horiz-adv-x="1165" d="M1325 1319q0 -27 -17.5 -49.5t-50.5 -22.5q-41 0 -68.5 30t-37.5 79l-2 10l-35 4q-117 -25 -181.5 -133.5t-64.5 -296.5v-45h291l-14 -76h-277v-731q0 -12 9 -12l190 -13l6 -63h-465l6 63l150 13q8 0 8 12v731h-471v-731q0 -12 8 -12l191 -13l6 -63h-465l6 63l150 13 q8 0 8 12v731l-180 8l14 68h154l4 61q8 92 38.5 174t83 143.5t124 97.5t157.5 36q59 0 108.5 -26.5t49.5 -82.5q0 -27 -17.5 -49t-50.5 -22q-41 0 -68.5 29.5t-37.5 78.5l-2 11l-35 4q-117 -25 -181.5 -133.5t-64.5 -296.5v-25h459l4 70q4 92 34.5 176t84 147.5t126 101 t158.5 37.5q59 0 108.5 -26.5t49.5 -81.5z" />
<glyph unicode="&#xfb01;" horiz-adv-x="1077" d="M608 0l6 63l150 13q8 0 8 12v731h-471v-731q0 -12 8 -12l191 -13l6 -63h-465l6 63l150 13q8 0 8 12v731l-180 8l14 68h154l4 70q6 96 37.5 181t87 147.5t133 98t174.5 35.5q92 0 153.5 -34.5t61.5 -89.5q0 -27 -17.5 -49.5t-50.5 -22.5q-41 0 -68.5 29.5t-37.5 78.5 l-2 11l-121 20q-117 -25 -181.5 -130t-64.5 -300v-45h406l161 41v-848q0 -12 9 -12l149 -13l6 -63h-424z" />
<glyph unicode="&#xfb02;" horiz-adv-x="1091" d="M301 819v-731q0 -12 8 -12l191 -13l6 -63h-465l6 63l150 13q8 0 8 12v731l-180 8l14 68h154l4 70q6 96 37.5 181t87 147.5t133 98t174.5 35.5q88 0 141 -28l98 28v-1339q0 -12 9 -12l149 -13l6 -63h-424l6 63l150 13q8 0 8 12v731h-471zM772 1231q-39 2 -65.5 31.5 t-36.5 76.5l-2 11l-121 20q-117 -25 -181.5 -130t-64.5 -300v-45h471v336z" />
<glyph unicode="&#xfb03;" horiz-adv-x="1644" d="M1436 936v-848q0 -12 8 -12l149 -13l6 -63h-423l6 63l149 13q8 0 8 12v731h-471v-731q0 -12 9 -12l190 -13l6 -63h-465l6 63l150 13q8 0 8 12v731h-471v-731q0 -12 8 -12l191 -13l6 -63h-465l6 63l150 13q8 0 8 12v731l-180 8l14 68h154l4 61q8 92 38.5 174t83 143.5 t124 97.5t157.5 36q59 0 108.5 -26.5t49.5 -82.5q0 -27 -17.5 -49t-50.5 -22q-41 0 -68.5 32.5t-37.5 75.5l-2 11l-35 4q-117 -25 -181.5 -133.5t-64.5 -296.5v-25h459l4 70q6 92 38 176t87 147.5t133 101t174 37.5q92 0 153.5 -34.5t61.5 -89.5q0 -27 -17.5 -49.5 t-50.5 -22.5q-41 0 -68.5 29.5t-37.5 78.5l-2 11l-121 20q-117 -25 -181.5 -133.5t-64.5 -296.5v-45h406z" />
<glyph unicode="&#xfb04;" horiz-adv-x="1658" d="M868 819v-731q0 -12 9 -12l190 -13l6 -63h-465l6 63l150 13q8 0 8 12v731h-471v-731q0 -12 8 -12l191 -13l6 -63h-465l6 63l150 13q8 0 8 12v731l-180 8l14 68h154l4 61q8 92 38.5 174t83 143.5t124 97.5t157.5 36q59 0 108.5 -26.5t49.5 -82.5q0 -27 -17.5 -49 t-50.5 -22q-41 0 -68.5 32.5t-37.5 75.5l-2 11l-35 4q-117 -25 -181.5 -133.5t-64.5 -296.5v-25h459l4 70q6 92 38 176t87 147.5t133 101t174 37.5q88 0 141 -28l99 28v-1339q0 -12 8 -12l149 -13l6 -63h-423l6 63l149 13q8 0 8 12v731h-471zM1339 1231q-39 2 -65.5 31.5 t-36.5 76.5l-2 11l-121 20q-117 -25 -181.5 -133.5t-64.5 -296.5v-45h471v336z" />
<glyph horiz-adv-x="0" />
<glyph horiz-adv-x="682" />
<glyph horiz-adv-x="0" />
<glyph horiz-adv-x="0" />
<glyph unicode=" "  horiz-adv-x="466" />
<glyph unicode="&#x09;" horiz-adv-x="466" />
<glyph unicode="&#xa0;" horiz-adv-x="466" />
<glyph unicode="!" horiz-adv-x="561" d="M303 412q-2 -12 -21.5 -12.5t-21.5 12.5l-53 850q-2 16 3 31.5t28 15.5h90q23 0 27.5 -15.5t2.5 -31.5zM383 74q0 -41 -26.5 -72t-73.5 -31t-77 31t-30 72q0 37 30 66.5t77 29.5t73.5 -28.5t26.5 -67.5z" />
<glyph unicode="&#x22;" horiz-adv-x="655" d="M393 825h-47l205 502h2l121 -43zM98 825h-47l205 502h2l121 -43z" />
<glyph unicode="#" horiz-adv-x="1128" d="M881 840l-109 -408h272v-57h-288l-105 -387h-59l104 387h-379l-102 -387h-59l102 387h-268v57h284l109 408h-268v59h284l109 393h59l-106 -393h377l106 393h60l-107 -393h272v-59h-288zM821 840h-375l-112 -408h377z" />
<glyph unicode="$" horiz-adv-x="960" d="M246 -338h-64l86 320q-47 8 -86 19t-73 24l-21 342h51l94 -281q10 -4 24.5 -10t33.5 -10l149 555q-78 31 -139 61.5t-104 70.5t-67 91t-24 123q0 76 29 138t83 106t130 69t168 25q31 0 55.5 -1t46.5 -4l29 107l29 106h63l-28 -110q-6 -23 -11.5 -41.5t-9.5 -34.5 q-6 -18 -10 -33l41 -6l108 31v-391h-55l-72 252q-8 4 -19 10t-28 10l-133 -502q86 -31 151.5 -62.5t110.5 -72.5t67.5 -95t22.5 -130q0 -82 -32.5 -149.5t-91 -116.5t-139.5 -76t-179 -27q-29 0 -53.5 1t-48.5 3zM350 53q31 -4 62.5 -7t64.5 -3q70 0 125 19.5t94 53.5 t60.5 79t21.5 98q0 72 -21.5 121t-60.5 83.5t-90 58.5t-108 46zM596 1214q-66 16 -131 17q-129 0 -198.5 -65.5t-69.5 -157.5q0 -61 21.5 -106.5t58 -79.5t85 -58.5t101.5 -44.5z" />
<glyph unicode="%" horiz-adv-x="1527" d="M715 987q0 -68 -23.5 -129t-67.5 -107t-106.5 -74t-142.5 -28q-78 0 -141.5 28t-107.5 74t-67.5 107.5t-23.5 128.5q0 70 23.5 132.5t67.5 108.5t107.5 73.5t141.5 27.5q80 0 142.5 -27.5t106.5 -73.5t67.5 -108.5t23.5 -132.5zM285 -31h-95l1057 1340h92zM1493 291 q0 -70 -23.5 -132.5t-67.5 -108.5t-107.5 -73.5t-141.5 -27.5q-80 0 -142.5 27.5t-106.5 73.5t-67.5 108.5t-23.5 132.5q0 68 23.5 129t67.5 107t106.5 74t142.5 28q78 0 141.5 -28t107.5 -74t67.5 -107t23.5 -129zM631 987q0 55 -17.5 103.5t-50.5 85t-81 57t-107 20.5 t-107.5 -20.5t-81 -57t-50 -85t-17.5 -103.5q0 -51 17.5 -98t50 -84t80.5 -58.5t108 -21.5q59 0 107 21.5t81 58.5t50.5 84t17.5 98zM1409 291q0 51 -17.5 98t-50 84t-81 58.5t-107.5 21.5t-107.5 -21.5t-81 -58.5t-50 -84t-17.5 -98q0 -55 17.5 -103.5t50 -85t81 -57 t107.5 -20.5t107.5 20.5t81 57t50 85t17.5 103.5z" />
<glyph unicode="&#x26;" horiz-adv-x="1388" d="M1380 86q-41 -45 -93 -81t-122 -36q-74 0 -149.5 67.5t-155.5 233.5q-47 -59 -94 -113.5t-100.5 -95.5t-116 -66.5t-135.5 -25.5q-78 0 -142.5 27t-110.5 74t-72 108.5t-26 132.5q0 63 27 125t71 113t103.5 90t124.5 57q-35 18 -71.5 46t-65.5 64t-47.5 81t-18.5 100 t21.5 111.5t64.5 100.5t107.5 72.5t150.5 28.5q63 0 116.5 -21.5t91.5 -59t58.5 -89t20.5 -108.5q0 -94 -73.5 -180t-196.5 -129q43 -14 93 -50t98 -81t88 -93.5t63 -87.5l201 277q4 4 0.5 9t-7.5 5l-143 19l-6 63h387l-6 -63l-115 -15q-4 0 -14 -14q-74 -90 -131 -162 q-25 -31 -48.5 -60.5t-42 -52t-29.5 -37.5l-11 -16q74 -145 134 -222t122 -77q47 0 91 28t79 52zM717 1014q0 100 -61.5 161.5t-157.5 61.5q-47 0 -86 -18.5t-67 -49t-43 -70.5t-15 -81q0 -102 50 -170t150 -113q111 41 170.5 110t59.5 169zM821 324q-84 143 -172 223 t-203 123q-131 -45 -201.5 -136.5t-70.5 -191.5q0 -53 18.5 -103.5t54.5 -89t88 -62.5t122 -24q49 0 96 20.5t93 55.5t90 82.5t85 102.5z" />
<glyph unicode="'" horiz-adv-x="360" d="M98 825h-47l205 502h2l121 -43z" />
<glyph unicode="(" horiz-adv-x="808" d="M731 -510q-82 41 -175 124t-173 203t-133 273.5t-53 337.5t53 338t133 273.5t173 202.5t175 124q10 -16 19 -31q8 -12 14 -22t6 -15q-78 -41 -163 -119.5t-155.5 -191.5t-117.5 -254t-47 -305t47 -305t117.5 -254t155.5 -191.5t163 -117.5q0 -4 -6 -15.5t-14 -23.5 q-9 -15 -19 -31z" />
<glyph unicode=")" horiz-adv-x="808" d="M80 -510q-12 16 -21 31q-8 12 -14 22.5t-6 14.5q76 39 162 118.5t156.5 191.5t117.5 254t47 306t-47 305t-117.5 254t-156.5 191.5t-162 119.5q0 4 6 14.5t14 22.5q8 14 21 31q80 -41 173 -124t173 -202.5t133 -273.5t53 -338t-53 -337.5t-133 -273.5t-173 -203 t-173 -124z" />
<glyph unicode="*" horiz-adv-x="704" d="M569 907l-168 49l-20 -26l94 -142l-2 -131l-43 -10l-74 109l-2 168l-30 8l-107 -123l-123 -43l-28 39l86 108l153 48v32l-153 51l-89 105l25 37l129 -39l107 -133l32 10l11 170l67 106l45 -14l2 -131l-100 -141l20 -27l168 45l119 -39v-45z" />
<glyph unicode="+" horiz-adv-x="983" d="M539 436v-381h-93v381h-374l6 88h368v379h93v-379h366l6 -88h-372z" />
<glyph unicode="," horiz-adv-x="434" d="M352 37q0 -59 -23.5 -114.5t-61.5 -102.5t-85 -88t-94 -74l-27 33q76 59 121 123.5t45 152.5q0 41 -20.5 67.5t-44 44t-44 26t-20.5 10.5q0 35 20.5 64.5t74.5 29.5q72 0 115.5 -49t43.5 -123z" />
<glyph unicode="-" horiz-adv-x="671" d="M76 434l6 92h512l6 -92h-524z" />
<glyph unicode="." horiz-adv-x="438" d="M322 74q0 -41 -28 -72t-75 -31t-74.5 32t-27.5 71t27.5 68.5t74.5 29.5t75 -29.5t28 -68.5z" />
<glyph unicode="/" horiz-adv-x="571" d="M461 1352h82l-437 -1780h-81z" />
<glyph unicode="0" horiz-adv-x="1153" d="M1061 487q0 -113 -36 -208t-100.5 -163.5t-154.5 -107.5t-197 -39q-106 0 -195 38t-152.5 106.5t-98.5 163t-35 206.5q0 113 36 206t100.5 159.5t153.5 103.5t196 37q106 0 195 -37t152.5 -102.5t99.5 -157.5t36 -205zM973 483q0 92 -30 170t-82 134.5t-125.5 88 t-162.5 31.5q-88 0 -160.5 -30.5t-123.5 -87t-80 -133t-29 -169.5q0 -92 29 -171.5t81 -138t125.5 -92.5t162.5 -34q88 0 160.5 33t124.5 91t81 137t29 171z" />
<glyph unicode="1" horiz-adv-x="690" d="M129 0l6 63l178 17q4 2 7.5 3t3.5 9v799l-250 -4l6 53l336 49v-897q0 -8 3 -9t7 -3l172 -17l6 -63h-475z" />
<glyph unicode="2" horiz-adv-x="942" d="M850 0h-768l-8 80q127 100 230.5 182t177 154.5t114.5 139.5t41 136q0 35 -15.5 72t-44 66.5t-70.5 49t-95 19.5q-90 0 -161 -43t-126 -125l-33 29q51 104 142.5 166.5t214.5 62.5q59 0 113 -20.5t96 -56t67 -87t25 -112.5q0 -80 -41 -150.5t-115 -141.5t-177.5 -148.5 t-230.5 -172.5v-10h179q143 0 225 3t124 15.5t56 36t23 62.5l32 123h56z" />
<glyph unicode="3" horiz-adv-x="835" d="M403 344q84 2 153 -19.5t118 -61.5t75.5 -96t26.5 -124q0 -84 -43 -166t-117.5 -146.5t-173 -104.5t-209.5 -40q-57 0 -97 11.5t-64.5 30t-34.5 40t-10 43.5q0 45 26.5 65.5t61.5 20.5q51 0 78.5 -39t33.5 -92q33 -6 70 -6q70 0 135.5 27.5t116.5 75t82 109.5t31 134 q0 111 -69 181.5t-210 70.5q-41 0 -92 -10t-101 -33l-18 45q94 63 171 114.5t130 100.5t82 101.5t29 117.5q0 35 -14.5 73t-43 68.5t-70.5 51t-96 20.5q-90 0 -157.5 -43t-122.5 -125l-41 29q25 51 65.5 92t90 69.5t102.5 44t106 15.5q61 0 115.5 -20.5t94.5 -55t62.5 -83 t22.5 -105.5q0 -63 -22.5 -115.5t-62.5 -96.5t-94 -84t-116 -81v-4z" />
<glyph unicode="4" horiz-adv-x="888" d="M694 63v-440h-96v440h-567l-4 74l616 846h51v-836h221l-14 -84h-207zM598 809h-2l-481 -662h483v662z" />
<glyph unicode="5" horiz-adv-x="829" d="M213 528q276 -80 400 -199.5t124 -281.5q0 -84 -37.5 -167t-106.5 -148.5t-162 -105.5t-204 -40q-92 0 -146 36t-54 89q0 45 26.5 65.5t61.5 20.5q51 0 78.5 -40t33.5 -93q16 -4 29.5 -5t32.5 -1q63 0 125.5 29.5t111.5 80t79 115t30 133.5q0 162 -136.5 264.5 t-377.5 168.5l135 522h512v-115h-475l-80 -328v0z" />
<glyph unicode="6" horiz-adv-x="970" d="M907 385q0 -92 -32.5 -168t-89 -131t-132 -86t-164.5 -31q-90 0 -165.5 37t-131 102.5t-86 154.5t-30.5 192q0 154 62.5 301t174 268t266 203t341.5 106l32 -43q-139 -25 -259 -83t-215 -144t-163.5 -197.5t-107.5 -240.5l10 -4q59 63 145.5 105t174.5 42 q86 0 154.5 -30.5t116.5 -84t73.5 -123t25.5 -145.5zM797 340q0 82 -26 146.5t-67.5 108.5t-96 66.5t-111.5 22.5q-88 0 -162 -34t-125 -75q-6 -18 -12.5 -58t-6.5 -81q0 -80 24 -153.5t67 -130t103 -90t134 -33.5q61 0 112.5 23.5t88.5 65.5t57.5 99t20.5 123z" />
<glyph unicode="7" horiz-adv-x="919" d="M272 -381h-92l615 1231v10h-480q-80 0 -108.5 -17.5t-42.5 -62.5q-8 -29 -17 -51q-6 -20 -11 -40.5t-9 -31.5h-61l38 314h783l10 -70z" />
<glyph unicode="8" horiz-adv-x="944" d="M860 330q0 -166 -106.5 -262.5t-309.5 -96.5q-76 0 -141 27t-114.5 72t-77 104t-27.5 125t24.5 118t64.5 94t90 73.5t104 58.5v2q-53 25 -100.5 55.5t-83.5 69.5t-56.5 86t-20.5 105q0 66 26 127t75 108t119.5 74.5t162.5 27.5q72 0 135.5 -24.5t111.5 -65.5t76 -96 t28 -117q0 -61 -19.5 -112.5t-52.5 -94.5t-78 -76.5t-96 -60.5v-2q55 -25 103 -55.5t85 -68.5t57.5 -86t20.5 -109zM731 958q0 57 -20.5 108.5t-56.5 89.5t-86 60.5t-111 22.5q-57 0 -104.5 -19.5t-80 -53t-51 -78t-18.5 -93.5q0 -57 26.5 -102t73.5 -84t109.5 -71.5 t136.5 -65.5q82 59 132 126.5t50 159.5zM766 299q0 63 -29.5 110.5t-78 84t-112 66.5t-130.5 61q-43 -27 -83 -56.5t-71 -65.5t-50 -79t-19 -92q0 -61 20 -115.5t59 -94.5t97.5 -63.5t132.5 -23.5q127 0 195.5 76.5t68.5 191.5z" />
<glyph unicode="9" horiz-adv-x="970" d="M895 504q0 -154 -62.5 -301.5t-174 -268t-266 -202.5t-341.5 -107l-33 43q139 25 259 83.5t215.5 144.5t164 197.5t107.5 240.5l-10 4q-59 -63 -145.5 -105.5t-174.5 -42.5q-86 0 -154.5 31t-116.5 84t-74 122t-26 146q0 92 33 168t89.5 131.5t132 86t163.5 30.5 q90 0 166 -37t131.5 -102.5t86 -154.5t30.5 -191zM780 522q0 80 -23.5 154t-66.5 130t-103.5 90t-133.5 34q-61 0 -112.5 -23.5t-88.5 -65.5t-57.5 -99.5t-20.5 -123.5q0 -84 25.5 -147t67.5 -107.5t96.5 -67t111.5 -22.5q88 0 162 34t125 75q6 18 12 58t6 81z" />
<glyph unicode=":" horiz-adv-x="436" d="M322 729q0 -41 -28 -71.5t-75 -30.5t-74.5 31.5t-27.5 70.5t27.5 68.5t74.5 29.5t75 -29.5t28 -68.5zM322 74q0 -41 -28 -72t-75 -31t-74.5 32t-27.5 71t27.5 68.5t74.5 29.5t75 -29.5t28 -68.5z" />
<glyph unicode=";" horiz-adv-x="436" d="M322 729q0 -41 -28 -71.5t-75 -30.5t-74.5 31.5t-27.5 70.5t27.5 68.5t74.5 29.5t75 -29.5t28 -68.5zM352 37q0 -59 -23.5 -114.5t-61.5 -102.5t-85 -88t-94 -74l-27 33q76 59 121 123.5t45 152.5q0 41 -20.5 67.5t-44 44t-44 26t-20.5 10.5q0 35 20.5 64.5t74.5 29.5 q72 0 115.5 -49t43.5 -123z" />
<glyph unicode="&#x3c;" horiz-adv-x="983" d="M66 461v41l808 381l23 -80l-668 -311v-19l668 -313l-23 -80z" />
<glyph unicode="=" horiz-adv-x="983" d="M78 614l-6 88h839l-6 -88h-827zM72 260l6 88h827l6 -88h-839z" />
<glyph unicode="&#x3e;" horiz-adv-x="983" d="M109 80l-23 80l668 313v19l-668 311l23 80l809 -381v-41z" />
<glyph unicode="?" horiz-adv-x="702" d="M608 991q0 -59 -17.5 -100t-47 -69.5t-66.5 -48t-74 -36.5q-35 -14 -66.5 -28.5t-56 -35t-40 -47t-15.5 -65.5q0 -55 43 -106.5t97 -87.5h-64q-23 18 -48.5 40.5t-48 52t-37.5 64.5t-15 76q0 53 19 91t52 66.5t72 50t80 40.5q33 14 64.5 29.5t56 34t39 40t14.5 49.5 q0 74 -84 127.5t-238 53.5q-31 0 -57.5 -3t-42.5 -8q-4 6 -6 23.5t-2 28.5q0 37 34.5 61.5t88.5 24.5q86 0 153.5 -29t114.5 -74t72.5 -102.5t25.5 -112.5zM397 74q0 -41 -26.5 -72t-73.5 -31t-77 31t-30 72q0 37 30 66.5t77 29.5t73.5 -28.5t26.5 -67.5z" />
<glyph unicode="@" horiz-adv-x="1708" d="M1096 641h-21q-45 -88 -99 -182t-110.5 -172t-112 -128t-100.5 -50q-41 0 -76.5 17t-64.5 47t-45 71t-16 88q0 61 20.5 136t55 149.5t78.5 143t93 118.5q31 31 74 48t84 17q47 0 84 -17.5t66.5 -45t51 -62.5t36.5 -67h18l66 180h69l-112 -338l-62 -436q12 -8 31 -15 q16 -4 37.5 -8t50.5 -4q88 0 157.5 45t119 115.5t75 159t25.5 176.5q0 143 -56.5 257.5t-151.5 196.5t-220 126t-260 44q-154 0 -287 -60.5t-233.5 -163.5t-158 -237.5t-57.5 -281.5t50.5 -277.5t141.5 -225.5t217 -150.5t277 -55.5q59 0 122 11.5t128 33.5l15 -55 q-72 -23 -137.5 -35t-141.5 -12q-160 0 -295 58.5t-233.5 159.5t-152.5 239.5t-54 296.5q0 166 62.5 313t171 258t257 175.5t318.5 64.5q145 0 279.5 -48.5t237.5 -135.5t164.5 -211t61.5 -277q0 -96 -29.5 -195.5t-86 -180.5t-140.5 -133t-190 -52q-41 0 -78 7t-65.5 18.5 t-45 22.5t-14.5 21zM1053 707q-12 27 -33 57.5t-46.5 58t-56 46t-63.5 18.5q-70 0 -121 -51q-33 -33 -67.5 -94.5t-63.5 -132t-47 -139.5t-18 -118q0 -51 13 -85t32.5 -54t43 -29.5t44.5 -9.5q29 0 70.5 39t91 106.5t102.5 158.5t108 194z" />
<glyph unicode="A" horiz-adv-x="1206" d="M784 0l7 63l155 13q16 0 12 14l-129 379h-489l-129 -377q-4 -14 6 -14l150 -15l6 -63h-406l6 63l138 15q8 0 14 14l397 1125v47l137 41l414 -1211q4 -14 19 -16l141 -15l6 -63h-455zM594 1180h-10l-217 -633h436z" />
<glyph unicode="B" horiz-adv-x="1161" d="M1059 350q0 -174 -124 -262t-360 -88h-485l6 63l158 17q4 2 7 3t3 9v1096q0 10 -10 12l-158 17l-6 63h490q123 0 207.5 -23.5t137 -63.5t76 -91t23.5 -107q0 -59 -20.5 -113.5t-58.5 -98.5t-91 -75.5t-117 -43.5v-7q145 -23 233.5 -103.5t88.5 -203.5zM918 956 q0 127 -88.5 191.5t-280.5 64.5h-176v-524l217 2q74 0 134 22.5t103 59.5t67 84t24 100zM952 340q0 70 -29.5 124t-82 89t-123 53.5t-154.5 18.5h-190v-539l202 -23l84 7q127 8 210 75.5t83 194.5z" />
<glyph unicode="C" horiz-adv-x="1275" d="M1151 -4l-70 22q-29 -8 -69.5 -16t-84.5 -15t-90 -11.5t-85 -4.5q-141 0 -261 46t-209 130t-139.5 201t-50.5 260q0 154 50.5 283t139.5 221t212.5 144.5t271.5 52.5q88 0 156.5 -8.5t132.5 -24.5l139 35v-404h-66l-47 275q-18 8 -46.5 18t-68.5 19.5t-94.5 16.5 t-123.5 7q-117 0 -215.5 -45t-171 -126t-113.5 -193.5t-41 -245.5q0 -129 38 -238.5t110.5 -188.5t175 -124t231.5 -45q104 0 176 21.5t117 37.5l82 269h69z" />
<glyph unicode="D" horiz-adv-x="1349" d="M1257 651q0 -127 -45 -243.5t-136 -207.5t-229 -145.5t-325 -54.5h-432l6 63l158 17q4 2 7 3t3 9v1096q0 10 -10 12l-158 17l-6 63l420 4q184 2 323.5 -45t233.5 -131t142 -201t48 -256zM1141 621q0 135 -42 244.5t-124 188.5t-205 122t-283 43h-114v-1133l205 -20 q131 6 235.5 51t177 118.5t111.5 172t39 213.5z" />
<glyph unicode="E" horiz-adv-x="1144" d="M1026 0h-936l6 63l160 17q8 2 8 12v1096q0 10 -8 12l-160 17l-6 63h934v-346h-68l-36 223q-4 18 -15.5 29.5t-55.5 17.5t-134 8t-252 2h-90v-526h131q76 0 119 1t63.5 4t25.5 8.5t9 15.5l45 135h49l-39 -395h-49l-12 133q0 8 -4 15t-24.5 10t-63.5 5.5t-121 2.5h-129 v-557h47q184 0 286.5 2t151.5 8t61.5 17t16.5 30l53 219h74z" />
<glyph unicode="F" horiz-adv-x="1110" d="M956 934l-36 223q-4 18 -15.5 29.5t-55.5 17.5t-134 8t-252 2h-90v-538h131q76 0 119 1t63.5 4t25.5 8t9 16l45 135h49l-39 -396h-49l-12 134q0 8 -4 15t-24.5 10t-63.5 5t-121 2h-129v-518q0 -8 3 -9t7 -3l199 -17l6 -63h-498l6 63l158 17q4 2 7 3t3 9v1096q0 10 -8 12 l-160 17l-6 63h934v-346h-68z" />
<glyph unicode="G" horiz-adv-x="1413" d="M1335 494l-151 -17q-4 -2 -7 -3t-3 -9v-350l106 -6l6 -52q-135 -41 -270 -63.5t-254 -22.5q-145 0 -267 46t-212 130t-140.5 201t-50.5 260q0 154 49 283t138.5 221t213 144.5t271.5 52.5q88 0 156.5 -8.5t132.5 -24.5l139 35v-404h-66l-47 275q-18 8 -46.5 18 t-68.5 19.5t-94.5 16.5t-124.5 7q-117 0 -215 -45t-169.5 -126t-112.5 -193.5t-41 -245.5q0 -129 39 -238.5t111.5 -188.5t177 -124t237.5 -45q88 0 165 17.5t130 35.5v375q0 12 -10 12l-187 17l-6 63h477z" />
<glyph unicode="H" horiz-adv-x="1480" d="M934 0l6 63l158 17q4 2 7 3t3 9v529h-735v-529q0 -8 3 -9t7 -3l158 -17l6 -63h-457l6 63l158 17q4 2 7 3t3 9v1096q0 10 -10 12l-158 17l-6 63h457l-6 -63l-158 -17q-4 -2 -7 -3t-3 -9v-490h735v490q0 10 -10 12l-158 17l-6 63h457l-7 -63l-157 -17q-4 -2 -7 -3t-3 -9 v-1096q0 -8 3 -9t7 -3l157 -17l7 -63h-457z" />
<glyph unicode="I" horiz-adv-x="677" d="M90 0l6 63l178 17q4 2 7.5 3t3.5 9v1096q0 10 -11 12l-178 17l-6 63h498l-6 -63l-179 -17q-4 -2 -7 -3t-3 -9v-1096q0 -8 3 -9t7 -3l179 -17l6 -63h-498z" />
<glyph unicode="J" horiz-adv-x="716" d="M655 1217l-157 -17q-4 -2 -7.5 -3t-3.5 -9v-758q0 -100 -21.5 -185t-63.5 -146.5t-105.5 -95.5t-146.5 -34q-80 0 -124 32t-44 83q0 39 21.5 59.5t51.5 20.5q45 0 78 -33q37 -37 53 -96h2q104 23 147.5 117t43.5 272v764q0 10 -10 12l-179 17l-6 63h478z" />
<glyph unicode="K" horiz-adv-x="1269" d="M860 0l8 63l105 13q4 0 7 6t-1 10l-426 563l-180 -184v-379q0 -8 3 -9t7 -3l158 -17l6 -63h-457l6 63l158 17q4 2 7 3t3 9v1096q0 10 -10 12l-158 17l-6 63h457l-6 -63l-158 -17q-4 -2 -7 -3t-3 -9v-613l590 617q2 2 3 5t-3 3l-148 17l-6 63h422l-6 -63l-125 -15 q-14 -4 -27 -16l-452 -461l493 -633q8 -12 25 -14l106 -15l6 -63h-391z" />
<glyph unicode="L" horiz-adv-x="1112" d="M991 0h-901l6 63l160 17q8 2 8 12v1096q0 10 -8 12l-160 17l-6 63h477l-6 -63l-178 -17q-4 -2 -7 -3t-3 -9v-1118h24q184 0 284.5 2t149 7t59.5 15t15 29l62 278h69z" />
<glyph unicode="M" horiz-adv-x="1677" d="M1165 0l6 63l177 5q4 -4 6 6t2 18l-39 1104h-14l-447 -1155h-57l-424 1124h-15l-55 -1073q0 -12 8 -12l174 -17l7 -63h-482l11 63l188 17q12 0 12 12l53 1075v13.5t-8 11.5l-200 25l-7 63h377l396 -1057h12l399 1057h371l-2 -63l-178 -7q-4 2 -4 -7t-2 -17l32 -1094 q0 -6 4 -17.5t9 -6.5l159 -5l6 -63h-475z" />
<glyph unicode="N" horiz-adv-x="1433" d="M1427 1217l-184 -17q-10 0 -10 -12v-1198h-84l-795 1177h-8v-1075q0 -8 3 -9t7 -3l179 -17l6 -63h-478l7 63l184 17q4 2 7 3t3 9v1082q0 10 -10 12l-162 31l-6 63h313l750 -1102h2v1010q0 12 -10 12l-178 17l-7 63h478z" />
<glyph unicode="O" horiz-adv-x="1482" d="M1391 647q0 -135 -46.5 -257t-130.5 -215t-205.5 -148.5t-271.5 -55.5q-137 0 -254.5 46t-205 132.5t-136.5 208t-49 273.5q0 135 46 258t131 216t206 148.5t273 55.5q135 0 252.5 -47.5t204.5 -133.5t136.5 -207.5t49.5 -273.5zM1274 625q0 150 -45 264.5t-120 193 t-172 118.5t-200 40q-104 0 -199.5 -40t-168 -115.5t-115.5 -185t-43 -247.5q0 -152 45 -266.5t119 -192t170 -117.5t200 -40t200.5 40t169.5 115.5t116 184.5t43 248z" />
<glyph unicode="P" horiz-adv-x="1085" d="M1038 913q0 -86 -36.5 -157.5t-101 -122.5t-153 -80t-188.5 -29q-49 0 -97 3t-89 8v-443q0 -12 10 -12l199 -17l6 -63h-498l6 63l158 17q10 0 10 12v1096q0 12 -8 12l-160 17l-6 63h426q135 0 233.5 -27.5t163 -77t95 -116t30.5 -146.5zM924 899q0 156 -108.5 238 t-313.5 75l-129 -4v-604q41 -8 92 -14t98 -6q176 0 268.5 84t92.5 231z" />
<glyph unicode="Q" horiz-adv-x="1482" d="M1477 -342q-53 -10 -119 -19.5t-129 -9.5q-80 0 -149.5 17.5t-129 57.5t-113 105.5t-102.5 161.5q-135 0 -251.5 47.5t-203.5 133.5t-137.5 207.5t-50.5 271.5q0 135 46 258t131 216t206 148.5t273 55.5q135 0 252.5 -47.5t204.5 -133.5t136.5 -207.5t49.5 -273.5 q0 -121 -38 -231.5t-107.5 -199.5t-168 -151.5t-219.5 -82.5q49 -92 105.5 -150.5t129 -87.5t165 -34t215.5 11v-11t2 -21q0 -15 2 -31zM1274 625q0 150 -45 264.5t-120 193t-172 118.5t-200 40q-104 0 -199.5 -40t-168 -115.5t-115.5 -185t-43 -247.5q0 -152 45 -266.5 t119 -192t170 -117.5t200 -40t200.5 40t169.5 115.5t116 184.5t43 248z" />
<glyph unicode="R" horiz-adv-x="1144" d="M997 92q6 -10 19 -12l129 -17l6 -63h-233l-82 141l-258 418h-103q-39 0 -70.5 1t-31.5 3v-471q0 -8 3 -9t7 -3l158 -17l6 -63h-457l6 63l158 17q4 2 7 3t3 9v1096q0 10 -10 12l-158 17l-6 63h512q104 0 181 -23.5t128.5 -65.5t76 -99.5t24.5 -122.5q0 -150 -88 -247 t-242 -144zM895 936q0 139 -88 211t-285 65l-149 -4v-567q0 -2 36.5 -5t84.5 -7q53 -4 120 -8q123 23 202 101.5t79 213.5z" />
<glyph unicode="S" horiz-adv-x="970" d="M905 334q0 -82 -32.5 -148.5t-92 -114.5t-140.5 -75t-179 -27q-92 0 -188.5 13.5t-159.5 29.5l-35 355h69l76 -287q23 -10 54.5 -17.5t65.5 -13.5t67.5 -9t64.5 -3q158 0 247 76.5t89 189.5q0 53 -15.5 94t-53 76t-103.5 67.5t-164 69.5q-88 31 -156.5 65t-115.5 75 t-72 94t-25 123q0 78 30 141t83 107.5t130 69t169 24.5q76 0 136.5 -7.5t88.5 -13.5l109 31v-391h-70l-43 260q-37 23 -106.5 39t-134.5 16q-74 0 -129.5 -20.5t-93 -54t-56 -77.5t-18.5 -94q0 -59 20.5 -102t62.5 -77t105.5 -63.5t149.5 -60.5q90 -33 158.5 -65.5 t114.5 -73.5t69.5 -94t23.5 -127z" />
<glyph unicode="T" horiz-adv-x="1222" d="M1083 903l-36 254q-4 18 -11.5 29.5t-39 17.5t-100.5 8t-194 2h-36v-1122q0 -8 3 -9t7 -3l178 -17l6 -63h-498l7 63l178 17q4 2 7 3t3 9v1122h-41q-125 0 -191.5 -2t-98 -8t-38 -17t-10.5 -30l-53 -250h-70l37 373h1057v-377h-66z" />
<glyph unicode="U" horiz-adv-x="1443" d="M1382 1217l-182 -17q-10 0 -10 -12v-750q0 -113 -34 -199.5t-96.5 -147t-151.5 -91.5t-197 -31q-106 0 -194.5 25.5t-151 84t-97.5 154t-35 236.5v719q0 12 -10 12l-157 17l-7 63h457l-6 -63l-158 -17q-10 0 -10 -12v-756q0 -111 30.5 -185.5t85 -118.5t126 -62.5 t151.5 -18.5q100 0 171 31t116 83t65.5 120.5t20.5 142.5v764q0 12 -10 12l-178 17l-7 63h476z" />
<glyph unicode="V" horiz-adv-x="1198" d="M1225 1217l-138 -15q-8 0 -14 -14l-407 -1196h-107l-426 1194q-4 14 -18 16l-142 15l-6 63h451l-6 -63l-156 -13q-14 -4 -12 -14l377 -1088h8l352 1082q4 14 -6 14l-144 19l-6 63h406z" />
<glyph unicode="W" horiz-adv-x="1845" d="M1860 1217l-138 -15q-8 0 -14 -14l-356 -1196h-107l-317 934h-2l-308 -934h-112l-369 1194q-4 14 -16 16l-139 15l-7 63h451l-6 -63l-154 -13q-6 0 -11 -4t-3 -10l323 -1088h3l307 940l-43 144q-4 14 -19 16l-143 15l-6 63h450l-6 -63l-157 -13q-16 0 -13 -14l359 -1088 h2l307 1082q4 14 -6 14l-158 19l-6 63h420z" />
<glyph unicode="X" horiz-adv-x="1222" d="M791 0l4 63l145 13q8 0 10 6t-2 12l-344 508h-2l-342 -506q-4 -4 -1 -9t7 -5l148 -19l8 -63h-428l4 63l135 15q14 2 23 14l397 561l-377 533q-8 12 -24 16l-127 15l-9 63h443l-4 -63l-148 -13q-8 0 -10 -6t2 -12l319 -467h3l315 469q4 4 1 9t-7 5l-152 15l-8 63h428 l-4 -63l-133 -15q-14 -2 -23 -14l-370 -522l409 -572q8 -12 25 -16l129 -15l8 -63h-448z" />
<glyph unicode="Y" horiz-adv-x="1222" d="M1219 1217l-136 -15q-14 -2 -22 -14l-395 -641v-455q0 -8 3 -9t7 -3l178 -17l6 -63h-498l7 63l178 17q4 2 7 3t3 9v451l-407 643q-8 12 -25 16l-127 15l-6 63h438l-6 -63l-145 -13q-18 0 -9 -18l344 -574h11l348 576q4 4 1 9t-7 5l-148 15l-6 63h412z" />
<glyph unicode="Z" horiz-adv-x="1058" d="M983 0h-944v57l829 1155v2h-223q-162 0 -252 -2t-135 -8t-56.5 -17t-13.5 -30l-36 -223h-68v346h917v-61l-825 -1151v-2h201q184 0 286.5 2t152.5 8t63.5 17t17.5 30l57 254h72z" />
<glyph unicode="[" horiz-adv-x="753" d="M201 -440v1771h504v-74h-416v-1624h416v-73h-504z" />
<glyph unicode="\" horiz-adv-x="571" d="M463 -428l-436 1780h82l436 -1780h-82z" />
<glyph unicode="]" horiz-adv-x="753" d="M49 -367h416v1624h-416v74h504v-1771h-504v73z" />
<glyph unicode="^" horiz-adv-x="819" d="M637 1034q-63 90 -113 160q-23 29 -42 58.5t-36 52.5q-18 27 -34 49h-4l-226 -320h-53l248 424h65l248 -424h-53z" />
<glyph unicode="_" horiz-adv-x="962" d="M-10 -100l6 92h971l6 -92h-983z" />
<glyph unicode="`" horiz-adv-x="817" d="M471 1034l-324 363h160l207 -363h-43z" />
<glyph unicode="a" horiz-adv-x="901" d="M895 80q-90 -109 -168 -109q-23 0 -45.5 8.5t-38.5 27t-24.5 48t-2.5 72.5h-8q-66 -66 -130 -112t-132 -46q-53 0 -100 16.5t-82 47t-55.5 74t-20.5 94.5q0 68 28.5 119t93 95t168 84t255.5 81v18q6 147 -50.5 207.5t-181.5 60.5q-37 0 -70.5 -7t-59 -17.5t-40 -22.5 t-14.5 -20t13.5 -24.5t13.5 -51.5q0 -29 -23.5 -51.5t-56.5 -22.5q-31 0 -55.5 17.5t-24.5 58.5q0 35 30.5 73t81 68.5t113 50t127.5 19.5q74 0 130.5 -16.5t93 -56.5t55 -107.5t14.5 -167.5l-18 -488q-2 -31 9 -42t32 -11q20 0 49.5 21.5t58.5 52.5zM629 518 q-106 -31 -188.5 -60.5t-137.5 -63.5t-84 -78t-29 -101q0 -78 47.5 -120t124.5 -42q37 0 70 13.5t63.5 35t60.5 48t60 53.5z" />
<glyph unicode="b" horiz-adv-x="1040" d="M958 475q0 -115 -36.5 -209t-99 -159.5t-147.5 -101.5t-183 -36q-66 0 -120.5 15.5t-101.5 38.5h-10l-74 -66h-22v1346q0 14 -10 14l-191 16l6 51l291 43v-622h6q41 43 119 87t188 44q78 0 149 -33t123 -92t82.5 -145.5t30.5 -190.5zM854 457q0 86 -22.5 159.5t-64.5 127 t-101.5 83t-130.5 29.5q-86 0 -155 -38t-120 -87v-606q57 -41 113.5 -64.5t128.5 -23.5q80 0 145.5 31.5t111.5 87t70.5 132.5t24.5 169z" />
<glyph unicode="c" horiz-adv-x="913" d="M848 199q-51 -104 -146.5 -163t-209.5 -59q-86 0 -161 32t-131.5 90.5t-89 142.5t-32.5 190t36 198.5t98 160t146 106.5t181 39q63 0 118.5 -14.5t94.5 -39t61.5 -56t22.5 -66.5q0 -43 -22.5 -68.5t-57.5 -25.5q-25 0 -45.5 11t-30.5 30.5t-8 49t22 66.5v4 q-23 16 -68.5 30.5t-101.5 14.5q-74 0 -135 -32.5t-107 -90t-72 -133t-26 -161.5q0 -84 24.5 -156t67.5 -125t104.5 -84t135.5 -31q174 0 291 168l41 -28v0z" />
<glyph unicode="d" horiz-adv-x="1083" d="M1051 6l-271 -35v129h-6q-41 -43 -118.5 -87t-188.5 -44q-78 0 -148.5 33t-123 92.5t-83 145.5t-30.5 190q0 115 37 208t99.5 159.5t147.5 102.5t183 36q66 0 120 -15.5t101 -37.5h10v428q0 14 -10 14l-190 23l6 43l291 36v-1341q0 -10 1 -17.5t9 -7.5l170 -12zM780 780 q-57 41 -113.5 64.5t-127.5 23.5q-80 0 -145.5 -31.5t-111.5 -87t-71 -132t-25 -168.5q0 -86 22.5 -160t64.5 -127t101.5 -83t131.5 -30q86 0 154.5 38t119.5 87v606z" />
<glyph unicode="e" horiz-adv-x="919" d="M848 199q-51 -104 -146.5 -163t-209.5 -59q-86 0 -161 32t-131.5 90.5t-89 142.5t-32.5 190t37 198.5t99 160t145 106.5t173 39q141 0 223.5 -78t82.5 -196q0 -31 -2 -59t-7 -44l-636 8q-4 -23 -6.5 -56.5t-2.5 -55.5q0 -84 24.5 -156t67.5 -125t104.5 -84t135.5 -31 q174 0 291 168zM729 627q6 111 -50 179t-169 68q-45 0 -91 -18t-87 -53t-74 -83t-51 -106z" />
<glyph unicode="f" horiz-adv-x="598" d="M758 1319q0 -27 -17.5 -49.5t-50.5 -22.5q-41 0 -68.5 30t-37.5 79l-2 10l-35 4q-117 -25 -181.5 -133.5t-64.5 -296.5v-45h291l-14 -76h-277v-731q0 -12 8 -12l191 -13l6 -63h-465l6 63l150 13q8 0 8 12v731l-180 8l14 68h154l4 70q4 92 34.5 176t84 147.5t126 101 t158.5 37.5q59 0 108.5 -26.5t49.5 -81.5z" />
<glyph unicode="g" horiz-adv-x="884" d="M678 829l-2 -6q35 -39 55.5 -90t20.5 -121q0 -66 -28 -123t-75 -101t-111.5 -69.5t-138.5 -25.5q-27 0 -53.5 1t-40.5 5q-14 -6 -33.5 -18.5t-37 -27.5t-29.5 -35.5t-12 -45.5q0 -41 32.5 -65.5t89.5 -24.5h232q82 0 139 -19.5t94 -52.5t53.5 -76t16.5 -90 q0 -78 -36 -142t-98.5 -110.5t-145.5 -72t-175 -25.5q-176 0 -275.5 72t-99.5 180q0 45 16.5 84t43 69.5t57.5 54t60 40.5v4q-45 10 -78 46t-33 89q0 29 15.5 56.5t39 52t51 44t54.5 31.5v2q-78 31 -132.5 108t-54.5 175q0 68 27 129.5t74 107.5t111.5 72.5t140.5 26.5 q55 0 106 -12.5t86 -28.5l279 -4v-102zM756 -193q0 82 -51.5 130.5t-180.5 52.5h-25h-9.5t-10.5 -1t-26.5 -1t-62.5 -1t-116 -1q-25 -10 -52 -29.5t-52 -47.5t-40 -62.5t-15 -75.5q0 -55 27.5 -95.5t71.5 -65t100.5 -36.5t113.5 -12q68 0 127 19.5t103 53t71 77.5t27 95z M643 616q0 145 -80 213q-63 51 -153 52q-59 0 -104.5 -21.5t-76 -57.5t-46 -84t-15.5 -104q0 -80 26.5 -137t73.5 -88q57 -41 138 -41q43 0 77.5 12.5t63.5 32.5q47 35 71.5 93t24.5 130z" />
<glyph unicode="h" horiz-adv-x="1064" d="M614 0l7 63l149 13q8 0 8 12v490q0 78 -16.5 130t-45 82.5t-68.5 44t-85 13.5q-41 0 -81 -13.5t-76.5 -34t-68.5 -46t-56 -49.5v-617q0 -12 8 -12l149 -13l6 -63h-413l6 63l139 13q8 0 8 12v1200q0 20 -6 24.5t-16 6.5l-158 14l6 51l271 43v-645h10q84 68 160.5 111 t166.5 43q51 0 98.5 -16.5t86.5 -55.5q35 -35 53 -92t18 -129v-555q0 -12 9 -12l139 -13l6 -63h-414z" />
<glyph unicode="i" horiz-adv-x="518" d="M328 1241q0 -41 -26 -71.5t-66 -30.5q-41 0 -65 29.5t-24 68.5q0 41 26 71.5t67 30.5t64.5 -29.5t23.5 -68.5zM49 0l6 63l150 13q8 0 8 12v709q0 20 -6 24t-17 6l-157 15l6 51l270 43v-848q0 -12 8 -12l150 -13l6 -63h-424z" />
<glyph unicode="j" horiz-adv-x="495" d="M322 1241q0 -41 -26 -71.5t-67 -30.5t-64.5 29.5t-23.5 68.5q0 41 26 71.5t66 30.5q41 0 65 -29.5t24 -68.5zM303 -109q-2 -92 -17.5 -169.5t-49 -134t-86 -89.5t-125.5 -33q-51 0 -96.5 27t-45.5 90q0 33 21.5 56.5t56.5 23.5q41 0 64.5 -36t25.5 -95q41 6 71 26.5 t48 60.5t27.5 101.5t9.5 149.5v928q0 20 -6 24t-17 6l-157 15l6 51l270 43v-1045z" />
<glyph unicode="k" horiz-adv-x="958" d="M741 0l-98 147l-244 326l-118 -104v-281q0 -12 8 -12l149 -13l6 -63h-413l6 63l139 13q8 0 8 12v1200q0 20 -6 24.5t-16 6.5l-158 14l6 51l271 43v-981l399 373l2 4l-2 4l-152 17l-6 61h393l-6 -63l-104 -15q-10 0 -19 -8l-323 -291l340 -440l9 -9t11 -5l107 -11l6 -63 h-195z" />
<glyph unicode="l" horiz-adv-x="526" d="M43 0l6 63l150 13q8 0 8 12v1200q0 20 -6 24.5t-17 6.5l-178 14l6 51l291 43v-1339q0 -12 8 -12l150 -13l6 -63h-424z" />
<glyph unicode="m" horiz-adv-x="1638" d="M1182 0l6 63l139 13q8 0 8 12v510q0 143 -54 197.5t-136 54.5q-41 0 -81 -12.5t-76 -33t-67.5 -44t-52.5 -43.5v-629q0 -12 9 -12l159 -13l6 -63h-424l7 63l139 13q8 0 8 12v510q0 143 -54 197.5t-136 54.5q-41 0 -81 -12.5t-76 -33t-67.5 -44t-52.5 -43.5v-629 q0 -12 8 -12l160 -13l6 -63h-424l6 63l140 13q8 0 8 12v709q0 20 -6 24t-17 6l-157 15l6 51l270 43v-156h10q72 66 153 112t163 46q47 0 90 -15.5t74 -45.5q43 -43 61 -109h4q72 70 158 120t166 50q106 0 180 -74q31 -31 49.5 -86t18.5 -123v-567q0 -12 8 -12l139 -13l6 -63 h-403z" />
<glyph unicode="n" horiz-adv-x="1085" d="M639 0l6 63l150 13q8 0 8 12v490q0 78 -16.5 130t-45 82.5t-68.5 44t-85 13.5q-41 0 -81 -13.5t-77 -34t-68.5 -46t-56.5 -49.5v-617q0 -12 8 -12l150 -13l6 -63h-414l6 63l140 13q8 0 8 12v723q0 14 -10 14l-170 17l6 51l270 43v-154h10q84 68 161 111t167 43 q51 0 98 -16.5t86 -55.5q35 -35 53.5 -92t18.5 -129v-555q0 -12 8 -12l150 -13l6 -63h-424z" />
<glyph unicode="o" horiz-adv-x="1060" d="M983 459q0 -111 -35 -201t-96 -154.5t-144 -99.5t-178 -35q-94 0 -175 34t-141 96.5t-94 150.5t-34 196q0 111 35 201t96.5 154.5t144 99.5t177.5 35q94 0 175 -34t140 -96.5t94 -150t35 -196.5zM881 455q0 98 -28 179t-83 136q-47 47 -105.5 72.5t-129.5 25.5 q-78 0 -141.5 -32.5t-108.5 -89t-71 -133t-26 -162.5q0 -205 117 -322q43 -43 101.5 -67.5t128.5 -24.5q76 0 140 32.5t109 89t71 133.5t26 163z" />
<glyph unicode="p" horiz-adv-x="1067" d="M985 475q0 -115 -37 -209t-99.5 -159.5t-147.5 -101.5t-183 -36q-66 0 -120 15.5t-101 38.5h-10v-439q0 -12 8 -12l170 -12l6 -64h-444l6 64l149 12q8 0 8 12v1227q0 14 -10 14l-170 17l6 51l271 43v-131h6q41 43 118.5 87t188.5 44q78 0 148.5 -33t123 -92t83 -145.5 t30.5 -190.5zM881 457q0 86 -22.5 159.5t-64.5 127t-101.5 83t-131.5 29.5q-86 0 -154.5 -38t-119.5 -87v-606q57 -41 113.5 -64.5t127.5 -23.5q80 0 145.5 31.5t111.5 87t71 132.5t25 169z" />
<glyph unicode="q" horiz-adv-x="1050" d="M596 -504l6 64l170 12q8 0 8 12v516h-6q-41 -43 -118.5 -87t-188.5 -44q-78 0 -148.5 33t-123 92.5t-83 145.5t-30.5 190q0 115 37 208t99.5 159.5t147.5 102.5t183 36q66 0 120 -15.5t101 -37.5h10l74 55h23v-1354q0 -12 8 -12l149 -12l6 -64h-444zM780 780 q-57 41 -113.5 64.5t-127.5 23.5q-80 0 -145.5 -31.5t-111.5 -87t-71 -132t-25 -168.5q0 -86 22.5 -160t64.5 -127t101.5 -83t131.5 -30q86 0 154.5 38t119.5 87v606z" />
<glyph unicode="r" horiz-adv-x="688" d="M690 858q0 -31 -21.5 -54.5t-50.5 -23.5t-52 17.5t-27 42.5q-29 -16 -64 -49t-66.5 -72t-59 -79t-44.5 -71v-481q0 -12 8 -12l170 -13l6 -63h-434l6 63l140 13q8 0 8 12v723q0 14 -10 14l-160 17l6 51l260 43v-279h4q51 88 93 143.5t77 87.5t64.5 44t54.5 12 q47 0 69.5 -28.5t22.5 -57.5z" />
<glyph unicode="s" horiz-adv-x="802" d="M707 248q0 -53 -20.5 -102.5t-62.5 -89.5t-108.5 -63.5t-159.5 -23.5q-59 0 -125.5 11.5t-119.5 29.5l-13 254h70l35 -190q39 -23 77.5 -34t96.5 -11q111 0 178.5 54t67.5 140q0 45 -19.5 77t-53.5 54.5t-77 39t-90 30.5q-51 16 -100.5 35.5t-88 49.5t-62 73t-23.5 106 q0 104 79.5 177t225.5 73q51 0 95 -8t85 -19l61 9l25 -277h-70l-35 191q-76 45 -182 45q-96 0 -148 -48.5t-52 -115.5q0 -45 20 -76t54 -53.5t77 -39t90 -30.5q51 -16 99.5 -36.5t87 -50.5t62.5 -74t24 -107z" />
<glyph unicode="t" horiz-adv-x="638" d="M592 47q-35 -27 -94.5 -52.5t-118.5 -25.5q-115 0 -165 54.5t-48 158.5l6 637l-156 6l7 54l149 24l14 170l82 -4l-2 -174h324l-15 -76h-309q-2 -174 -4 -309q-2 -59 -2 -114.5v-98.5q0 -51 -2 -96q-2 -78 28.5 -115t108.5 -37q47 0 92 16.5t88 38.5l17 -57v0z" />
<glyph unicode="u" horiz-adv-x="1064" d="M1049 6l-271 -37v156h-10q-84 -68 -161 -111t-167 -43q-51 0 -98 16.5t-86 55.5q-35 35 -53.5 92.5t-18.5 128.5l2 555q0 12 -8 12l-149 13l-6 63h262l-4 -577q0 -78 16 -130.5t45 -83t68 -44t86 -13.5q39 0 78.5 13.5t76.5 34t70 46t57 50.5v616q0 12 -8 12l-149 13 l-7 63h260v-821q0 -10 1.5 -17.5t9.5 -7.5l170 -12z" />
<glyph unicode="v" horiz-adv-x="901" d="M932 844l-105 -15q-8 0 -14 -14l-305 -823h-102l-304 821q-4 14 -18 16l-100 15l-7 63h351l-6 -63l-115 -13q-14 -4 -12 -14l274 -737l264 731q4 14 -6 14l-129 19l-6 63h346z" />
<glyph unicode="w" horiz-adv-x="1382" d="M1403 844l-109 -15q-8 0 -14 -14l-264 -823h-105l-213 602l-229 -602h-104l-265 821q-4 14 -18 16l-102 15l-7 63h355l-6 -63l-113 -13q-14 -4 -12 -14l233 -737l229 612l-43 121q-4 14 -18 16l-102 15l-7 63h359l-6 -63l-115 -13q-14 -4 -12 -14l260 -737l223 731 q4 14 -6 14l-113 19l-6 63h336z" />
<glyph unicode="x" horiz-adv-x="954" d="M600 0l6 63l103 13q10 2 2 14l-238 322h-2l-246 -316q-6 -10 6 -14l101 -19l6 -63h-330l6 63l90 15q12 0 23 14l301 363l-289 358q-4 4 -11 9t-17 7l-95 15l-6 63h350l-6 -63l-102 -13q-10 -2 -2 -14l233 -311h2l238 305q6 10 -6 14l-101 19l-6 63h330l-6 -63l-94 -15 q-8 0 -19 -14l-293 -352l295 -369q4 -4 11.5 -9t17.5 -7l94 -15l6 -63h-352z" />
<glyph unicode="y" horiz-adv-x="892" d="M102 813q-4 14 -18 16l-100 15l-7 63h353l-6 -63l-109 -13q-16 0 -12 -14l276 -747l250 741q4 14 -6 14l-123 19l-6 63h336l-6 -63l-103 -15q-8 0 -14 -14l-279 -792l-88 -308q-37 -131 -94 -194.5t-149 -63.5q-53 0 -89 28t-36 69q0 39 22.5 63.5t63.5 24.5 q76 0 104 -99q33 14 63.5 70.5t55.5 142.5l53 183z" />
<glyph unicode="z" horiz-adv-x="841" d="M166 61h98q135 0 214 1t120 6.5t55.5 15.5t20.5 29l86 221h61l-82 -334h-694v49l617 797h-95q-135 0 -215 -2t-121 -7.5t-52 -15.5t-13 -26l-23 -228h-61v340h700v-49z" />
<glyph unicode="{" horiz-adv-x="667" d="M610 -467q-182 10 -272 88t-90 213q0 66 15.5 116t34.5 94t34.5 88t15.5 97q0 45 -23.5 75t-61.5 49.5t-87 28.5t-98 13l-21 51l21 50q49 2 98 11t87 28.5t61.5 50t23.5 76.5q0 51 -15.5 96t-34.5 90t-34.5 95t-15.5 116q0 135 90 212t272 89v-55q-123 -12 -187.5 -69.5 t-64.5 -129.5q0 -53 15.5 -97t35 -89.5t35 -96.5t15.5 -116q0 -51 -24.5 -95.5t-63.5 -77t-85 -54t-89 -25.5v-21q43 -6 89 -27.5t85 -54.5t63.5 -76t24.5 -94q0 -66 -15.5 -115t-35 -94t-35 -89t-15.5 -95q0 -72 64.5 -132t187.5 -73v-51v0z" />
<glyph unicode="|" horiz-adv-x="569" d="M244 1403h82v-1780h-82v1780z" />
<glyph unicode="}" horiz-adv-x="667" d="M590 395q-49 -4 -98.5 -13t-87 -28.5t-61.5 -49.5t-24 -75q0 -53 15.5 -97t35 -88t35 -94t15.5 -116q0 -135 -90 -213t-273 -88v51q123 12 187.5 72.5t64.5 132.5q0 51 -15 95t-34.5 89t-35 94.5t-15.5 114.5q0 51 24.5 94t63.5 76t85 54.5t89 27.5v21q-43 4 -89 25.5 t-85 54t-63.5 76.5t-24.5 96q0 66 15.5 116.5t35 96t34.5 89.5t15 97q0 72 -64.5 129t-187.5 70v55q182 -12 272.5 -89t90.5 -212q0 -66 -15.5 -116t-35 -95t-35 -90t-15.5 -96q0 -45 24 -76t61.5 -50.5t87 -28.5t98.5 -11l20 -50z" />
<glyph unicode="~" horiz-adv-x="819" d="M729 553q-39 -213 -182 -213q-41 0 -81 22.5t-76 50t-67.5 50t-56.5 22.5q-20 0 -36.5 -5t-31 -19.5t-28.5 -41t-29 -69.5h-51q39 213 182 213q41 0 81 -22.5t77 -50t68.5 -50t54.5 -22.5q20 0 36.5 5t31 19.5t28 41t27.5 69.5h53v0z" />
<glyph unicode="&#xa1;" horiz-adv-x="561" d="M383 1206q0 -39 -26.5 -67.5t-73.5 -28.5t-77 29.5t-30 66.5q0 41 30 72t77 31t73.5 -31t26.5 -72zM358 18q2 -16 -3 -31.5t-27 -15.5h-90q-23 0 -28 15.5t-3 31.5l53 850q2 12 21.5 12.5t21.5 -12.5z" />
<glyph unicode="&#xa2;" horiz-adv-x="890" d="M367 -340h-64l86 324q-72 18 -130 61t-99 104.5t-62.5 136t-21.5 154.5q0 100 34.5 190.5t97 159t147.5 108.5t184 40q53 0 100 -10q8 27 16 57q8 27 16.5 60.5t18.5 68.5q23 82 49 186h64l-105 -393q59 -27 92 -65.5t33 -75.5q0 -27 -19.5 -47.5t-47.5 -20.5 q-35 0 -58.5 22.5t-33.5 59.5q-55 -203 -97 -360q-18 -68 -34.5 -133.5t-30.5 -116.5q-16 -59 -29 -113q10 -2 21.5 -2h21.5q98 0 171 50.5t124 121.5l41 -22q-59 -113 -154.5 -173.5t-208.5 -60.5h-19t-19 2zM623 860q-49 18 -115 19q-68 0 -127 -29t-102 -82t-68 -131 t-25 -178q0 -139 61.5 -242.5t166.5 -142.5z" />
<glyph unicode="&#xa3;" horiz-adv-x="874" d="M264 606q-4 68 -8 132.5t-4 113.5q0 86 22.5 166t68.5 139.5t117.5 95t168.5 35.5q90 0 153.5 -37t63.5 -104q0 -29 -23.5 -51.5t-52.5 -22.5q-18 0 -35.5 9.5t-30 24.5t-17.5 36.5t3 46.5q-20 12 -46 22.5t-60 10.5q-98 0 -160 -82t-62 -271q0 -57 5.5 -124.5 t9.5 -139.5h354l2 -71h-352q2 -23 2 -46.5v-46.5q-2 -84 -15.5 -159.5t-45.5 -130.5v-11q27 -8 65.5 -24.5t84.5 -33.5t93 -29.5t88 -12.5q80 0 107 27q29 29 44 68.5t27 86.5l41 -12q-2 -51 -14 -98t-39.5 -83t-70.5 -57.5t-105 -21.5q-53 0 -106.5 21.5t-102.5 49t-88 52 t-61 30.5q-29 -41 -88.5 -85t-176.5 -72l-14 45q139 39 204.5 144.5t65.5 238.5q0 70 -6 160h-182l6 71h170v0z" />
<glyph unicode="&#xa4;" horiz-adv-x="886" d="M680 911q51 -78 51 -176q0 -49 -14.5 -94t-38.5 -82l127 -127l-62 -61l-125 125q-35 -27 -79.5 -41.5t-98.5 -14.5q-53 0 -98 14.5t-80 39.5l-115 -115l-59 59l115 115q-27 39 -41.5 85t-14.5 97q0 102 54 178l-119 119l61 62l119 -119q35 27 80 41t98 14t100.5 -15.5 t82.5 -41.5l112 112l60 -59zM655 735q0 45 -15 85t-43 71t-68 48t-89 17q-51 0 -91 -17t-67.5 -48t-43 -71t-15.5 -85q0 -43 15.5 -83t43 -70.5t67.5 -49t91 -18.5q49 0 89 18.5t68 49t43 70.5t15 83z" />
<glyph unicode="&#xa5;" horiz-adv-x="1251" d="M1212 1217l-135 -15q-14 -2 -22 -14l-344 -559h381l6 -72h-420v-199h414l6 -71h-420v-195q0 -8 3 -9t7 -3l180 -17l6 -63h-497l6 63l180 17q4 2 7 3t3 9v195h-419l6 71h413v199h-419l6 72h375l-345 557q-8 12 -24 16l-127 15l-6 63h426l-6 -63l-146 -13q-18 0 -8 -18 l332 -549h6l326 551q4 4 1 9t-8 5l-149 15l-6 63h418z" />
<glyph unicode="&#xa6;" horiz-adv-x="569" d="M244 1315h82v-686h-82v686zM244 401h82v-686h-82v686z" />
<glyph unicode="&#xa7;" horiz-adv-x="923" d="M836 502q0 -80 -50.5 -141.5t-136.5 -104.5q16 -29 24.5 -59.5t8.5 -69.5q0 -47 -18.5 -94t-53.5 -84t-86 -60.5t-116 -23.5q-106 0 -170 40t-64 97q0 29 19.5 49.5t48.5 20.5q37 0 67.5 -34t34.5 -83q23 -10 51.5 -15.5t59.5 -5.5q59 0 100 40t41 106q0 51 -20.5 90 t-55.5 71.5t-79 60.5t-91 56q-49 29 -96 60t-84 67.5t-59.5 82.5t-22.5 106q0 80 50 140t136 104q-33 59 -32 131q0 47 18.5 94t53 84t86 60.5t116.5 23.5q106 0 170 -40t64 -97q0 -29 -19.5 -49.5t-48.5 -20.5q-37 0 -67.5 33.5t-34.5 83.5q-23 10 -51.5 15t-59.5 5 q-59 0 -100 -40t-41 -105q0 -51 21.5 -91t55 -73t77.5 -60.5t91 -54.5q49 -29 96.5 -59.5t84.5 -67.5t59.5 -83t22.5 -105zM745 457q0 41 -15 74.5t-40.5 63.5t-60.5 55.5t-74 47.5q-70 41 -139.5 84t-116.5 103q-53 -31 -87 -73t-34 -93q0 -82 58.5 -140.5t136.5 -103.5 q70 -41 137.5 -84t114.5 -100q53 31 86.5 73t33.5 93z" />
<glyph unicode="&#xa8;" horiz-adv-x="819" d="M707 1174q0 -39 -25 -71t-68 -32q-45 0 -70.5 32t-25.5 71t25.5 69.5t70.5 30.5q43 0 68 -30.5t25 -69.5zM299 1174q0 -39 -24.5 -71t-69.5 -32t-68.5 32t-23.5 71t23.5 69.5t68.5 30.5t69.5 -30.5t24.5 -69.5z" />
<glyph unicode="&#xa9;" horiz-adv-x="1503" d="M1421 639q0 -139 -52 -261t-143 -213t-213 -143.5t-261 -52.5t-261 52.5t-213.5 143.5t-143.5 213t-52 261t52 261t143.5 213t213 144.5t261.5 53.5q139 0 261 -53.5t213 -144.5t143 -213t52 -261zM1356 639q0 125 -47 235.5t-129 192.5t-192.5 130t-235.5 48t-235.5 -48 t-192.5 -130t-129.5 -192.5t-47.5 -235.5t47.5 -235.5t129.5 -192.5t192.5 -129t235.5 -47t235.5 47t192.5 129t129 192.5t47 235.5zM1010 260l-49 12q-35 -10 -89.5 -18t-101.5 -8q-84 0 -154.5 27.5t-123 76.5t-82 119t-29.5 154q0 88 29.5 163.5t82 130t125 85 t158.5 30.5q53 0 93 -5t75 -13l90 18v-246h-49l-31 160q-23 10 -66.5 23.5t-119.5 13.5q-66 0 -122 -25.5t-97 -71.5t-63.5 -109.5t-22.5 -139.5q0 -152 83 -247t230 -95q53 0 95 10t67 23l51 157h51z" />
<glyph unicode="&#xaa;" horiz-adv-x="651" d="M668 653q-23 -25 -55.5 -45t-67.5 -20q-86 0 -92 96h-7q-47 -41 -102 -68.5t-102 -27.5q-31 0 -58.5 11t-50 31.5t-36 49.5t-13.5 63q0 98 102.5 151.5t274.5 82.5l2 94q4 84 -37 127t-121 43q-20 0 -41.5 -4t-40 -10t-30 -13.5t-11.5 -13.5q0 -4 9.5 -19.5t9.5 -39.5 q0 -23 -16.5 -38.5t-45.5 -15.5t-45 17.5t-16 46.5q0 23 25.5 48.5t63.5 47t84 35.5t89 14q63 0 104 -14t64.5 -46t32 -82t6.5 -122l-10 -319q-2 -29 7 -42.5t38 -13.5q23 0 41 7.5t39 17.5zM459 936q-125 -23 -204 -59.5t-79 -108.5q0 -43 30 -74.5t83 -31.5q43 0 89 23.5 t75 41.5z" />
<glyph unicode="&#xab;" horiz-adv-x="983" d="M854 94l-434 322v73l434 322l18 -41l-321 -317l321 -318zM485 115l-444 301v73l444 302l19 -41l-311 -297l311 -297z" />
<glyph unicode="&#xac;" horiz-adv-x="983" d="M911 199h-92v342h-747l6 88h833v-430z" />
<glyph unicode="&#xad;" horiz-adv-x="671" d="M76 434l6 92h512l6 -92h-524z" />
<glyph unicode="&#xae;" horiz-adv-x="1503" d="M1421 639q0 -139 -52 -261t-143 -213t-213 -143.5t-261 -52.5t-261 52.5t-213.5 143.5t-143.5 213t-52 261t52 261t143.5 213t213 144.5t261.5 53.5q139 0 261 -53.5t213 -144.5t143 -213t52 -261zM1356 639q0 125 -47 235.5t-129 192.5t-192.5 130t-235.5 48t-235.5 -48 t-192.5 -130t-129.5 -192.5t-47.5 -235.5t47.5 -235.5t129.5 -192.5t192.5 -129t235.5 -47t235.5 47t192.5 129t129 192.5t47 235.5zM971 274l-51 84l-148 230l-137 4v-248q0 -10 6 -10l135 -10l4 -50h-352l6 50l117 10q6 0 6 10v602q0 10 -6 10l-117 11l-6 49h350 q129 0 193.5 -55.5t64.5 -133.5q0 -84 -52 -139t-138 -84l178 -264q8 -8 12 -8l88 -8l6 -50h-159zM952 809q0 80 -54 121t-165 37l-98 -4v-318l135 -12q72 10 127 54t55 122z" />
<glyph unicode="&#xaf;" horiz-adv-x="819" d="M172 1098l6 78h469l6 -78h-481z" />
<glyph unicode="&#xb0;" horiz-adv-x="843" d="M762 987q0 -68 -23.5 -129t-67.5 -107t-106.5 -74t-142.5 -28q-78 0 -141.5 28t-107.5 74t-67.5 107.5t-23.5 128.5q0 70 23.5 132.5t67.5 108.5t107.5 73.5t141.5 27.5q80 0 142.5 -27.5t106.5 -73.5t67.5 -108.5t23.5 -132.5zM422 1262q-61 0 -110.5 -21.5t-83 -58.5 t-52 -87.5t-18.5 -107.5q0 -53 18.5 -102t52 -86t82.5 -59.5t111 -22.5q61 0 110.5 22.5t83 59.5t52 86t18.5 102q0 57 -18.5 107.5t-52 87.5t-83 58.5t-110.5 21.5z" />
<glyph unicode="&#xb1;" horiz-adv-x="983" d="M539 477v-307h-93v307h-374l6 88h368v338h93v-338h366l6 -88h-372zM76 41l6 88h817l6 -88h-829z" />
<glyph unicode="&#xb2;" horiz-adv-x="675" d="M45 618q98 90 177 160t134.5 129.5t85 110.5t29.5 104q0 72 -46 111t-112 39q-74 0 -127 -29t-98 -96l-22 22q43 78 111.5 129.5t160.5 51.5q53 0 97 -16.5t76 -45t49.5 -66.5t17.5 -79q0 -66 -36 -122t-98.5 -114.5t-146.5 -124t-180 -149.5q2 -2 4 -2h10h14h103 q96 0 150.5 2t84 9t39.5 20.5t21 35.5l24 68h54l-35 -207h-537z" />
<glyph unicode="&#xb3;" horiz-adv-x="675" d="M233 535q-78 0 -126 23.5t-48 64.5q0 25 17.5 39t44.5 14q35 0 63.5 -24.5t36.5 -65.5q10 -4 23.5 -4h23.5q47 0 87 14t70 40t46 59.5t16 72.5q0 74 -53 115t-125 41q-37 0 -73.5 -9.5t-65.5 -23.5l-14 31q55 31 107 58.5t91 57t61.5 60t22.5 65.5q0 109 -155 109 q-55 0 -106.5 -29t-94.5 -82l-23 23q47 66 113 116t158 50q90 0 152.5 -39t62.5 -113t-65.5 -126t-172.5 -101v-2q119 23 199 -24.5t82 -149.5q0 -49 -28 -96.5t-76 -83t-112.5 -58t-138.5 -22.5z" />
<glyph unicode="&#xb4;" horiz-adv-x="817" d="M348 1034h-43l207 363h160z" />
<glyph unicode="&#xb5;" horiz-adv-x="1064" d="M186 819q0 12 -8 12l-149 13l-6 63h262l-4 -626q0 -63 19 -106.5t51 -69t70 -36t75 -10.5q39 0 78.5 13.5t76.5 34t70 46t57 50.5v616q0 12 -8 12l-149 13l-7 63h260v-821q0 -10 1.5 -17.5t9.5 -7.5l170 -12l-6 -43l-271 -37v156h-10q-41 -35 -75 -62.5t-65.5 -48 t-66.5 -32t-80 -11.5q-41 0 -73.5 11.5t-57 28t-43 38t-33.5 43.5h-6l8 -588l-108 -18l16 799z" />
<glyph unicode="&#xb6;" horiz-adv-x="980" d="M739 -66v658q-57 -16 -109 -24.5t-93 -8.5q-115 0 -200 27.5t-141.5 77t-84 115t-27.5 141.5q0 164 108.5 262t333.5 98h295v-1346h-82z" />
<glyph unicode="&#xb7;" horiz-adv-x="436" d="M322 463q0 -41 -28 -72t-75 -31t-74.5 32t-27.5 71t27.5 68.5t74.5 29.5t75 -29.5t28 -68.5z" />
<glyph unicode="&#xb8;" horiz-adv-x="819" d="M629 -299q0 -86 -95.5 -151.5t-295.5 -84.5l-13 37q166 25 243 71t77 122q0 49 -44 82t-132 33q-20 0 -47 -2.5t-54 -6.5v25l189 205h65l-149 -158q53 4 99 -6t81 -31.5t55.5 -55.5t20.5 -79z" />
<glyph unicode="&#xb9;" horiz-adv-x="675" d="M131 604l154 17q31 8 30 28v613l-198 10l4 35l280 41v-699q0 -27 31 -28l131 -17l4 -45h-440z" />
<glyph unicode="&#xba;" horiz-adv-x="759" d="M709 942q0 -72 -25 -136.5t-69 -113.5t-105 -77.5t-135 -28.5q-76 0 -135.5 27.5t-101.5 75.5t-64.5 111.5t-22.5 137.5q0 72 24.5 136.5t68.5 113.5t105.5 77.5t135.5 28.5q76 0 135.5 -27.5t101.5 -75.5t64.5 -111.5t22.5 -137.5zM610 924q0 168 -86 254 q-31 31 -69.5 50t-83.5 19q-100 0 -162 -76.5t-62 -212.5q0 -86 27 -153.5t70 -110.5q59 -59 145 -59q100 0 160.5 77t60.5 212z" />
<glyph unicode="&#xbb;" horiz-adv-x="983" d="M489 115l-18 41l313 297l-313 297l18 41l445 -302v-73zM123 94l-19 41l322 318l-322 317l19 41l432 -322v-73z" />
<glyph unicode="&#xbc;" horiz-adv-x="1464" d="M1198 -57h-375l-6 43l406 508h63v-496h141l-8 -55h-133v-236h-88v236zM1198 -2v383h-6l-307 -383h313zM1282 1280h92l-1110 -1518h-92zM131 604l154 17q31 8 30 28v613l-198 10l4 35l280 41v-699q0 -27 31 -28l131 -17l4 -45h-440z" />
<glyph unicode="&#xbd;" horiz-adv-x="1464" d="M1251 1280h92l-1110 -1518h-92zM131 604l154 17q31 8 30 28v613l-198 10l4 35l280 41v-699q0 -27 31 -28l131 -17l4 -45h-440zM834 -233q98 90 177 159.5t134 129t85 110.5t30 104q0 72 -46.5 111t-111.5 39q-74 0 -127 -29t-98 -96l-23 22q43 78 111.5 129.5t160.5 51.5 q53 0 97.5 -16.5t76 -45t49 -66.5t17.5 -79q0 -66 -36 -122t-98.5 -114.5t-146.5 -124t-180 -149.5q2 -2 4 -2h11h14h102q96 0 150.5 2t84 9t40 20.5t20.5 35.5l25 68h53l-35 -207h-536z" />
<glyph unicode="&#xbe;" horiz-adv-x="1464" d="M1198 -57h-375l-6 43l406 508h63v-496h141l-8 -55h-133v-236h-88v236zM1198 -2v383h-6l-307 -383h313zM1282 1280h92l-1110 -1518h-92zM233 535q-78 0 -126 23.5t-48 64.5q0 25 17.5 39t44.5 14q35 0 63.5 -24.5t36.5 -65.5q10 -4 23.5 -4h23.5q47 0 87 14t70 40t46 59.5 t16 72.5q0 74 -53 115t-125 41q-37 0 -73.5 -9.5t-65.5 -23.5l-14 31q55 31 107 58.5t91 57t61.5 60t22.5 65.5q0 109 -155 109q-55 0 -106.5 -29t-94.5 -82l-23 23q47 66 113 116t158 50q90 0 152.5 -39t62.5 -113t-65.5 -126t-172.5 -101v-2q119 23 199 -24.5t82 -149.5 q0 -49 -28 -96.5t-76 -83t-112.5 -58t-138.5 -22.5z" />
<glyph unicode="&#xbf;" horiz-adv-x="702" d="M512 1204q0 -37 -29.5 -66.5t-76.5 -29.5t-74 28.5t-27 67.5q0 41 26.5 72t74.5 31q47 0 76.5 -31t29.5 -72zM584 55q0 -37 -35 -61.5t-88 -24.5q-86 0 -153.5 29t-115 74t-73 102t-25.5 113q0 59 17.5 100t47 69.5t66.5 48t74 36.5q35 14 66.5 28.5t56 35t40 47 t15.5 65.5q0 55 -43 106t-96 88h63q23 -18 48.5 -41.5t48 -52.5t38 -63.5t15.5 -75.5q0 -53 -19.5 -91t-52.5 -66.5t-72.5 -50t-78.5 -40.5q-35 -16 -66 -30.5t-55.5 -33t-38.5 -40t-14 -50.5q0 -74 84 -127t237 -53q31 0 57.5 3t42.5 7q4 -6 6.5 -23.5t2.5 -27.5z" />
<glyph unicode="&#xc0;" horiz-adv-x="1206" d="M784 0l7 63l155 13q16 0 12 14l-129 379h-489l-129 -377q-4 -14 6 -14l150 -15l6 -63h-406l6 63l138 15q8 0 14 14l397 1125v47l137 41l414 -1211q4 -14 19 -16l141 -15l6 -63h-455zM594 1180h-10l-217 -633h436zM592 1386l-324 363h160l207 -363h-43z" />
<glyph unicode="&#xc1;" horiz-adv-x="1206" d="M784 0l7 63l155 13q16 0 12 14l-129 379h-489l-129 -377q-4 -14 6 -14l150 -15l6 -63h-406l6 63l138 15q8 0 14 14l397 1125v47l137 41l414 -1211q4 -14 19 -16l141 -15l6 -63h-455zM594 1180h-10l-217 -633h436zM545 1386h-43l207 363h159z" />
<glyph unicode="&#xc2;" horiz-adv-x="1206" d="M784 0l7 63l155 13q16 0 12 14l-129 379h-489l-129 -377q-4 -14 6 -14l150 -15l6 -63h-406l6 63l138 15q8 0 14 14l397 1125v47l137 41l414 -1211q4 -14 19 -16l141 -15l6 -63h-455zM594 1180h-10l-217 -633h436zM797 1386q-63 90 -113 160q-23 29 -42 58.5t-36 52.5 q-18 27 -35 49h-4l-225 -320h-53l248 424h65l248 -424h-53z" />
<glyph unicode="&#xc3;" horiz-adv-x="1206" d="M784 0l7 63l155 13q16 0 12 14l-129 379h-489l-129 -377q-4 -14 6 -14l150 -15l6 -63h-406l6 63l138 15q8 0 14 14l397 1125v47l137 41l414 -1211q4 -14 19 -16l141 -15l6 -63h-455zM594 1180h-10l-217 -633h436zM889 1630q-39 -213 -182 -213q-41 0 -81 22.5t-76 50.5 t-67.5 50.5t-56.5 22.5q-20 0 -36.5 -5.5t-31 -19.5t-29 -41t-28.5 -70h-51q39 213 182 213q41 0 81 -22.5t77 -50t68.5 -50t54.5 -22.5q20 0 36.5 5t31 19.5t27.5 41t28 69.5h53z" />
<glyph unicode="&#xc4;" horiz-adv-x="1206" d="M784 0l7 63l155 13q16 0 12 14l-129 379h-489l-129 -377q-4 -14 6 -14l150 -15l6 -63h-406l6 63l138 15q8 0 14 14l397 1125v47l137 41l414 -1211q4 -14 19 -16l141 -15l6 -63h-455zM594 1180h-10l-217 -633h436zM866 1487q0 -39 -24.5 -71t-67.5 -32q-45 0 -70.5 32 t-25.5 71t25.5 69.5t70.5 30.5q43 0 67.5 -30.5t24.5 -69.5zM459 1487q0 -39 -24.5 -71t-69.5 -32t-69 32t-24 71t23.5 69.5t69.5 30.5q45 0 69.5 -30.5t24.5 -69.5z" />
<glyph unicode="&#xc5;" horiz-adv-x="1206" d="M530 1239q-55 20 -85.5 67.5t-30.5 106.5q0 76 48 130t134 54t134 -54t48 -130q0 -53 -25.5 -98t-72.5 -68l393 -1153q4 -14 19 -16l141 -15l6 -63h-455l7 63l155 13q16 0 12 14l-129 379h-489l-129 -377q-4 -14 6 -14l150 -15l6 -63h-406l6 63l138 15q8 0 14 14z M719 1413q0 53 -32 93t-91 40t-91 -40t-32 -93t32 -93t91 -40t91 40t32 93zM594 1180h-10l-217 -633h436z" />
<glyph unicode="&#xc6;" horiz-adv-x="1652" d="M1534 0h-936l6 63l160 17q8 2 8 12v377h-414l-198 -373q-8 -14 6 -14l158 -19l6 -63h-443l7 63l141 15q4 0 11 7t11 15l605 1088q4 8 -0.5 10t-8.5 2l-164 17l-6 63h1049v-346h-62l-36 223q-4 18 -13.5 28.5t-52.5 16.5t-132 7t-251 1h-104v-522h131q76 0 119 1t63 4 t25.5 8.5t9.5 15.5l45 135h49l-39 -395h-49l-12 133q0 8 -4.5 15t-24.5 10t-63.5 5.5t-120.5 2.5h-129v-553h61q184 0 284.5 2t148.5 7t59.5 15t15.5 29l53 219h68zM772 1202h-14l-357 -655h371v655z" />
<glyph unicode="&#xc7;" horiz-adv-x="1275" d="M725 -29q-135 4 -252 52.5t-201 132.5t-132 198.5t-48 253.5q0 154 50.5 283t139.5 221t212.5 144.5t271.5 52.5q88 0 156.5 -8.5t132.5 -24.5l139 35v-404h-66l-47 275q-18 8 -46.5 18t-68.5 19.5t-94.5 16.5t-123.5 7q-117 0 -215.5 -45t-171 -126t-113.5 -193.5 t-41 -245.5q0 -129 38 -238.5t110.5 -188.5t175 -124t231.5 -45q104 0 176 21.5t117 37.5l82 269h69l-55 -369l-70 22q-53 -14 -135 -27.5t-158 -17.5l-94 -100q53 4 99.5 -6t81 -31.5t55 -55.5t20.5 -79q0 -86 -95 -151.5t-296 -84.5l-12 37q166 25 242.5 71t76.5 122 q0 49 -44 82t-132 33q-20 0 -47 -2.5t-53 -6.5v25l135 145v0z" />
<glyph unicode="&#xc8;" horiz-adv-x="1144" d="M1026 0h-936l6 63l160 17q8 2 8 12v1096q0 10 -8 12l-160 17l-6 63h934v-346h-68l-36 223q-4 18 -15.5 29.5t-55.5 17.5t-134 8t-252 2h-90v-526h131q76 0 119 1t63.5 4t25.5 8.5t9 15.5l45 135h49l-39 -395h-49l-12 133q0 8 -4 15t-24.5 10t-63.5 5.5t-121 2.5h-129 v-557h47q184 0 286.5 2t151.5 8t61.5 17t16.5 30l53 219h74zM635 1386l-324 363h160l207 -363h-43z" />
<glyph unicode="&#xc9;" horiz-adv-x="1144" d="M1026 0h-936l6 63l160 17q8 2 8 12v1096q0 10 -8 12l-160 17l-6 63h934v-346h-68l-36 223q-4 18 -15.5 29.5t-55.5 17.5t-134 8t-252 2h-90v-526h131q76 0 119 1t63.5 4t25.5 8.5t9 15.5l45 135h49l-39 -395h-49l-12 133q0 8 -4 15t-24.5 10t-63.5 5.5t-121 2.5h-129 v-557h47q184 0 286.5 2t151.5 8t61.5 17t16.5 30l53 219h74zM512 1386h-43l207 363h160z" />
<glyph unicode="&#xca;" horiz-adv-x="1144" d="M1026 0h-936l6 63l160 17q8 2 8 12v1096q0 10 -8 12l-160 17l-6 63h934v-346h-68l-36 223q-4 18 -15.5 29.5t-55.5 17.5t-134 8t-252 2h-90v-526h131q76 0 119 1t63.5 4t25.5 8.5t9 15.5l45 135h49l-39 -395h-49l-12 133q0 8 -4 15t-24.5 10t-63.5 5.5t-121 2.5h-129 v-557h47q184 0 286.5 2t151.5 8t61.5 17t16.5 30l53 219h74zM799 1386q-63 90 -113 160q-23 29 -42 58.5t-36 52.5q-18 27 -35 49h-4l-225 -320h-53l248 424h65l248 -424h-53z" />
<glyph unicode="&#xcb;" horiz-adv-x="1144" d="M1026 0h-936l6 63l160 17q8 2 8 12v1096q0 10 -8 12l-160 17l-6 63h934v-346h-68l-36 223q-4 18 -15.5 29.5t-55.5 17.5t-134 8t-252 2h-90v-526h131q76 0 119 1t63.5 4t25.5 8.5t9 15.5l45 135h49l-39 -395h-49l-12 133q0 8 -4 15t-24.5 10t-63.5 5.5t-121 2.5h-129 v-557h47q184 0 286.5 2t151.5 8t61.5 17t16.5 30l53 219h74zM868 1487q0 -39 -24.5 -71t-67.5 -32q-45 0 -70.5 32t-25.5 71t25.5 69.5t70.5 30.5q43 0 67.5 -30.5t24.5 -69.5zM461 1487q0 -39 -24.5 -71t-69.5 -32t-69 32t-24 71t24 69.5t69 30.5t69.5 -30.5t24.5 -69.5z " />
<glyph unicode="&#xcc;" horiz-adv-x="677" d="M90 0l6 63l178 17q4 2 7.5 3t3.5 9v1096q0 10 -11 12l-178 17l-6 63h498l-6 -63l-179 -17q-4 -2 -7 -3t-3 -9v-1096q0 -8 3 -9t7 -3l179 -17l6 -63h-498zM340 1386l-324 363h160l207 -363h-43z" />
<glyph unicode="&#xcd;" horiz-adv-x="677" d="M90 0l6 63l178 17q4 2 7.5 3t3.5 9v1096q0 10 -11 12l-178 17l-6 63h498l-6 -63l-179 -17q-4 -2 -7 -3t-3 -9v-1096q0 -8 3 -9t7 -3l179 -17l6 -63h-498zM346 1386h-43l207 363h160z" />
<glyph unicode="&#xce;" horiz-adv-x="677" d="M90 0l6 63l178 17q4 2 7.5 3t3.5 9v1096q0 10 -11 12l-178 17l-6 63h498l-6 -63l-179 -17q-4 -2 -7 -3t-3 -9v-1096q0 -8 3 -9t7 -3l179 -17l6 -63h-498zM565 1386l-112 160q-23 29 -42.5 58.5t-35.5 52.5q-18 27 -35 49h-4l-225 -320h-54l248 424h66l247 -424h-53z" />
<glyph unicode="&#xcf;" horiz-adv-x="677" d="M90 0l6 63l178 17q4 2 7.5 3t3.5 9v1096q0 10 -11 12l-178 17l-6 63h498l-6 -63l-179 -17q-4 -2 -7 -3t-3 -9v-1096q0 -8 3 -9t7 -3l179 -17l6 -63h-498zM635 1507q0 -39 -24.5 -70.5t-67.5 -31.5q-45 0 -71 31.5t-26 70.5t26 70t71 31q43 0 67.5 -31t24.5 -70zM227 1507 q0 -39 -24.5 -70.5t-69.5 -31.5t-68.5 31.5t-23.5 70.5t23.5 70t68.5 31t69.5 -31t24.5 -70z" />
<glyph unicode="&#xd0;" horiz-adv-x="1349" d="M68 623l6 71h190v494q0 10 -10 12l-158 17l-6 63l420 4q184 2 323.5 -45t233.5 -131t142 -200.5t48 -256.5q0 -127 -45 -243.5t-136 -207.5t-229 -145.5t-325 -54.5h-432l6 63l158 17q4 2 7 3t3 9v531h-196zM662 694l6 -71h-295v-537l205 -20q131 6 235.5 51t177 118.5 t111.5 172t39 213.5q0 135 -42 244.5t-124 188.5t-205 122t-283 43h-114v-525h289z" />
<glyph unicode="&#xd1;" horiz-adv-x="1433" d="M1427 1217l-184 -17q-10 0 -10 -12v-1198h-84l-795 1177h-8v-1075q0 -8 3 -9t7 -3l179 -17l6 -63h-478l7 63l184 17q4 2 7 3t3 9v1082q0 10 -10 12l-162 31l-6 63h313l750 -1102h2v1010q0 12 -10 12l-178 17l-7 63h478zM1032 1630q-39 -213 -182 -213q-41 0 -81 22.5 t-76 50.5t-67.5 50.5t-56.5 22.5q-20 0 -36.5 -5.5t-31 -19.5t-28.5 -41t-29 -70h-51q39 213 182 213q41 0 81 -22.5t77 -50t69 -50t54 -22.5q20 0 36.5 5t31 19.5t28 41t27.5 69.5h53z" />
<glyph unicode="&#xd2;" horiz-adv-x="1482" d="M1391 647q0 -135 -46.5 -257t-130.5 -215t-205.5 -148.5t-271.5 -55.5q-137 0 -254.5 46t-205 132.5t-136.5 208t-49 273.5q0 135 46 258t131 216t206 148.5t273 55.5q135 0 252.5 -47.5t204.5 -133.5t136.5 -207.5t49.5 -273.5zM1274 625q0 150 -45 264.5t-120 193 t-172 118.5t-200 40q-104 0 -199.5 -40t-168 -115.5t-115.5 -185t-43 -247.5q0 -152 45 -266.5t119 -192t170 -117.5t200 -40t200.5 40t169.5 115.5t116 184.5t43 248zM735 1386l-323 363h159l207 -363h-43z" />
<glyph unicode="&#xd3;" horiz-adv-x="1482" d="M1391 647q0 -135 -46.5 -257t-130.5 -215t-205.5 -148.5t-271.5 -55.5q-137 0 -254.5 46t-205 132.5t-136.5 208t-49 273.5q0 135 46 258t131 216t206 148.5t273 55.5q135 0 252.5 -47.5t204.5 -133.5t136.5 -207.5t49.5 -273.5zM1274 625q0 150 -45 264.5t-120 193 t-172 118.5t-200 40q-104 0 -199.5 -40t-168 -115.5t-115.5 -185t-43 -247.5q0 -152 45 -266.5t119 -192t170 -117.5t200 -40t200.5 40t169.5 115.5t116 184.5t43 248zM682 1386h-43l207 363h160z" />
<glyph unicode="&#xd4;" horiz-adv-x="1482" d="M1391 647q0 -135 -46.5 -257t-130.5 -215t-205.5 -148.5t-271.5 -55.5q-137 0 -254.5 46t-205 132.5t-136.5 208t-49 273.5q0 135 46 258t131 216t206 148.5t273 55.5q135 0 252.5 -47.5t204.5 -133.5t136.5 -207.5t49.5 -273.5zM1274 625q0 150 -45 264.5t-120 193 t-172 118.5t-200 40q-104 0 -199.5 -40t-168 -115.5t-115.5 -185t-43 -247.5q0 -152 45 -266.5t119 -192t170 -117.5t200 -40t200.5 40t169.5 115.5t116 184.5t43 248zM969 1386q-63 90 -113 160q-23 29 -42 58.5t-36 52.5q-18 27 -35 49h-4l-225 -320h-53l248 424h65 l248 -424h-53z" />
<glyph unicode="&#xd5;" horiz-adv-x="1482" d="M1391 647q0 -135 -46.5 -257t-130.5 -215t-205.5 -148.5t-271.5 -55.5q-137 0 -254.5 46t-205 132.5t-136.5 208t-49 273.5q0 135 46 258t131 216t206 148.5t273 55.5q135 0 252.5 -47.5t204.5 -133.5t136.5 -207.5t49.5 -273.5zM1274 625q0 150 -45 264.5t-120 193 t-172 118.5t-200 40q-104 0 -199.5 -40t-168 -115.5t-115.5 -185t-43 -247.5q0 -152 45 -266.5t119 -192t170 -117.5t200 -40t200.5 40t169.5 115.5t116 184.5t43 248zM1061 1630q-39 -213 -182 -213q-41 0 -81 22.5t-76 50.5t-67.5 50.5t-56.5 22.5q-20 0 -36.5 -5.5 t-31 -19.5t-29 -41t-28.5 -70h-51q39 213 182 213q41 0 81 -22.5t77 -50t68.5 -50t54.5 -22.5q20 0 36.5 5t31 19.5t27.5 41t28 69.5h53z" />
<glyph unicode="&#xd6;" horiz-adv-x="1482" d="M1391 647q0 -135 -46.5 -257t-130.5 -215t-205.5 -148.5t-271.5 -55.5q-137 0 -254.5 46t-205 132.5t-136.5 208t-49 273.5q0 135 46 258t131 216t206 148.5t273 55.5q135 0 252.5 -47.5t204.5 -133.5t136.5 -207.5t49.5 -273.5zM1274 625q0 150 -45 264.5t-120 193 t-172 118.5t-200 40q-104 0 -199.5 -40t-168 -115.5t-115.5 -185t-43 -247.5q0 -152 45 -266.5t119 -192t170 -117.5t200 -40t200.5 40t169.5 115.5t116 184.5t43 248zM1038 1487q0 -39 -24.5 -71t-67.5 -32q-45 0 -70.5 32t-25.5 71t25.5 69.5t70.5 30.5q43 0 67.5 -30.5 t24.5 -69.5zM631 1487q0 -39 -24.5 -71t-69.5 -32t-69 32t-24 71t24 69.5t69 30.5t69.5 -30.5t24.5 -69.5z" />
<glyph unicode="&#xd7;" horiz-adv-x="983" d="M555 481l295 -293l-66 -65l-295 295l-292 -295l-64 61l295 295l-295 295l66 64l295 -293l292 293l64 -62z" />
<glyph unicode="&#xd8;" horiz-adv-x="1482" d="M1391 647q0 -135 -47.5 -257t-132.5 -215t-205.5 -148.5t-268.5 -55.5q-164 0 -303 70q-18 -31 -37.5 -64.5t-36.5 -62.5q-20 -35 -38 -66h-76q37 61 65 113q12 20 22.5 41t20.5 37q10 18 21 35q-129 84 -206 225t-77 332q0 135 47 258t133 216t207 148.5t269 55.5 q84 0 161.5 -18.5t145.5 -55.5l100 174h76l-119 -205q127 -86 203 -227.5t76 -329.5zM1010 1157q-125 78 -273 78q-104 0 -198.5 -39t-165 -113.5t-112.5 -183t-42 -246.5q0 -174 56.5 -298t148.5 -199zM1266 625q0 172 -55.5 294.5t-147.5 198.5q-166 -283 -293 -502 q-55 -94 -107.5 -183t-93.5 -161q-49 -82 -92 -155q59 -37 128 -55.5t140 -18.5q104 0 199.5 39t166.5 113.5t113 182.5t42 247z" />
<glyph unicode="&#xd9;" horiz-adv-x="1443" d="M1382 1217l-182 -17q-10 0 -10 -12v-750q0 -113 -34 -199.5t-96.5 -147t-151.5 -91.5t-197 -31q-106 0 -194.5 25.5t-151 84t-97.5 154t-35 236.5v719q0 12 -10 12l-157 17l-7 63h457l-6 -63l-158 -17q-10 0 -10 -12v-756q0 -111 30.5 -185.5t85 -118.5t126 -62.5 t151.5 -18.5q100 0 171 31t116 83t65.5 120.5t20.5 142.5v764q0 12 -10 12l-178 17l-7 63h476zM705 1386l-324 363h160l207 -363h-43z" />
<glyph unicode="&#xda;" horiz-adv-x="1443" d="M1382 1217l-182 -17q-10 0 -10 -12v-750q0 -113 -34 -199.5t-96.5 -147t-151.5 -91.5t-197 -31q-106 0 -194.5 25.5t-151 84t-97.5 154t-35 236.5v719q0 12 -10 12l-157 17l-7 63h457l-6 -63l-158 -17q-10 0 -10 -12v-756q0 -111 30.5 -185.5t85 -118.5t126 -62.5 t151.5 -18.5q100 0 171 31t116 83t65.5 120.5t20.5 142.5v764q0 12 -10 12l-178 17l-7 63h476zM666 1386h-43l206 363h160z" />
<glyph unicode="&#xdb;" horiz-adv-x="1443" d="M1382 1217l-182 -17q-10 0 -10 -12v-750q0 -113 -34 -199.5t-96.5 -147t-151.5 -91.5t-197 -31q-106 0 -194.5 25.5t-151 84t-97.5 154t-35 236.5v719q0 12 -10 12l-157 17l-7 63h457l-6 -63l-158 -17q-10 0 -10 -12v-756q0 -111 30.5 -185.5t85 -118.5t126 -62.5 t151.5 -18.5q100 0 171 31t116 83t65.5 120.5t20.5 142.5v764q0 12 -10 12l-178 17l-7 63h476zM946 1386l-112 160q-23 29 -42.5 58.5t-35.5 52.5q-18 27 -35 49h-4l-225 -320h-54l248 424h66l247 -424h-53z" />
<glyph unicode="&#xdc;" horiz-adv-x="1443" d="M1382 1217l-182 -17q-10 0 -10 -12v-750q0 -113 -34 -199.5t-96.5 -147t-151.5 -91.5t-197 -31q-106 0 -194.5 25.5t-151 84t-97.5 154t-35 236.5v719q0 12 -10 12l-157 17l-7 63h457l-6 -63l-158 -17q-10 0 -10 -12v-756q0 -111 30.5 -185.5t85 -118.5t126 -62.5 t151.5 -18.5q100 0 171 31t116 83t65.5 120.5t20.5 142.5v764q0 12 -10 12l-178 17l-7 63h476zM1016 1487q0 -39 -24.5 -71t-67.5 -32q-45 0 -71 32t-26 71t26 69.5t71 30.5q43 0 67.5 -30.5t24.5 -69.5zM608 1487q0 -39 -24.5 -71t-69.5 -32t-68.5 32t-23.5 71t23.5 69.5 t68.5 30.5t69.5 -30.5t24.5 -69.5z" />
<glyph unicode="&#xdd;" horiz-adv-x="1222" d="M1219 1217l-136 -15q-14 -2 -22 -14l-395 -641v-455q0 -8 3 -9t7 -3l178 -17l6 -63h-498l7 63l178 17q4 2 7 3t3 9v451l-407 643q-8 12 -25 16l-127 15l-6 63h438l-6 -63l-145 -13q-18 0 -9 -18l344 -574h11l348 576q4 4 1 9t-7 5l-148 15l-6 63h412zM567 1407h-43 l207 362h160z" />
<glyph unicode="&#xde;" horiz-adv-x="1130" d="M1038 668q0 -86 -36.5 -158t-101 -123t-153 -79.5t-188.5 -28.5q-49 0 -97 3t-89 7v-197q0 -12 10 -12l199 -17l6 -63h-498l6 63l158 17q10 0 10 12v1096q0 12 -8 12l-160 17l-6 63h457l-6 -63l-158 -17q-4 -2 -7 -3t-3 -9v-154h143q135 0 233.5 -27.5t163 -76.5 t95 -115.5t30.5 -146.5zM924 653q0 156 -108.5 238t-313.5 76l-129 -4v-605q41 -8 92 -14t98 -6q176 0 268.5 84t92.5 231z" />
<glyph unicode="&#xdf;" horiz-adv-x="1032" d="M592 852q61 -35 127.5 -89t122 -124t91.5 -150.5t36 -169.5q0 -76 -23.5 -139t-63.5 -110t-96.5 -74t-119.5 -27q-127 0 -193.5 42t-66.5 114q0 27 19 47.5t48 20.5q47 0 73.5 -41t24.5 -101q45 -27 101 -26q41 0 76.5 21.5t61.5 57t41 82.5t15 99q0 72 -23.5 144.5 t-70.5 142t-120.5 132t-174.5 115.5v43q137 29 201.5 95.5t64.5 195.5q0 43 -15 83t-43 70.5t-65.5 49t-82.5 18.5q-111 0 -173.5 -83t-62.5 -249v-1042h-260l6 63l150 13q8 0 8 12v721l-180 16l6 52l164 26l4 103q2 86 26.5 161.5t68.5 132t107.5 90t145.5 33.5 q141 0 218 -76.5t77 -193.5q0 -125 -69.5 -198.5t-180.5 -102.5z" />
<glyph unicode="&#xe0;" horiz-adv-x="901" d="M895 80q-90 -109 -168 -109q-23 0 -45.5 8.5t-38.5 27t-24.5 48t-2.5 72.5h-8q-66 -66 -130 -112t-132 -46q-53 0 -100 16.5t-82 47t-55.5 74t-20.5 94.5q0 68 28.5 119t93 95t168 84t255.5 81v18q6 147 -50.5 207.5t-181.5 60.5q-37 0 -70.5 -7t-59 -17.5t-40 -22.5 t-14.5 -20t13.5 -24.5t13.5 -51.5q0 -29 -23.5 -51.5t-56.5 -22.5q-31 0 -55.5 17.5t-24.5 58.5q0 35 30.5 73t81 68.5t113 50t127.5 19.5q74 0 130.5 -16.5t93 -56.5t55 -107.5t14.5 -167.5l-18 -488q-2 -31 9 -42t32 -11q20 0 49.5 21.5t58.5 52.5zM629 518 q-106 -31 -188.5 -60.5t-137.5 -63.5t-84 -78t-29 -101q0 -78 47.5 -120t124.5 -42q37 0 70 13.5t63.5 35t60.5 48t60 53.5zM469 1034l-324 363h160l207 -363h-43z" />
<glyph unicode="&#xe1;" horiz-adv-x="901" d="M895 80q-90 -109 -168 -109q-23 0 -45.5 8.5t-38.5 27t-24.5 48t-2.5 72.5h-8q-66 -66 -130 -112t-132 -46q-53 0 -100 16.5t-82 47t-55.5 74t-20.5 94.5q0 68 28.5 119t93 95t168 84t255.5 81v18q6 147 -50.5 207.5t-181.5 60.5q-37 0 -70.5 -7t-59 -17.5t-40 -22.5 t-14.5 -20t13.5 -24.5t13.5 -51.5q0 -29 -23.5 -51.5t-56.5 -22.5q-31 0 -55.5 17.5t-24.5 58.5q0 35 30.5 73t81 68.5t113 50t127.5 19.5q74 0 130.5 -16.5t93 -56.5t55 -107.5t14.5 -167.5l-18 -488q-2 -31 9 -42t32 -11q20 0 49.5 21.5t58.5 52.5zM629 518 q-106 -31 -188.5 -60.5t-137.5 -63.5t-84 -78t-29 -101q0 -78 47.5 -120t124.5 -42q37 0 70 13.5t63.5 35t60.5 48t60 53.5zM377 1034h-43l207 363h159z" />
<glyph unicode="&#xe2;" horiz-adv-x="901" d="M895 80q-90 -109 -168 -109q-23 0 -45.5 8.5t-38.5 27t-24.5 48t-2.5 72.5h-8q-66 -66 -130 -112t-132 -46q-53 0 -100 16.5t-82 47t-55.5 74t-20.5 94.5q0 68 28.5 119t93 95t168 84t255.5 81v18q6 147 -50.5 207.5t-181.5 60.5q-37 0 -70.5 -7t-59 -17.5t-40 -22.5 t-14.5 -20t13.5 -24.5t13.5 -51.5q0 -29 -23.5 -51.5t-56.5 -22.5q-31 0 -55.5 17.5t-24.5 58.5q0 35 30.5 73t81 68.5t113 50t127.5 19.5q74 0 130.5 -16.5t93 -56.5t55 -107.5t14.5 -167.5l-18 -488q-2 -31 9 -42t32 -11q20 0 49.5 21.5t58.5 52.5zM629 518 q-106 -31 -188.5 -60.5t-137.5 -63.5t-84 -78t-29 -101q0 -78 47.5 -120t124.5 -42q37 0 70 13.5t63.5 35t60.5 48t60 53.5zM643 1034q-63 90 -113 160q-23 29 -42 58.5t-35 52.5q-18 27 -35 49h-4l-226 -320h-53l248 424h66l247 -424h-53z" />
<glyph unicode="&#xe3;" horiz-adv-x="901" d="M895 80q-90 -109 -168 -109q-23 0 -45.5 8.5t-38.5 27t-24.5 48t-2.5 72.5h-8q-66 -66 -130 -112t-132 -46q-53 0 -100 16.5t-82 47t-55.5 74t-20.5 94.5q0 68 28.5 119t93 95t168 84t255.5 81v18q6 147 -50.5 207.5t-181.5 60.5q-37 0 -70.5 -7t-59 -17.5t-40 -22.5 t-14.5 -20t13.5 -24.5t13.5 -51.5q0 -29 -23.5 -51.5t-56.5 -22.5q-31 0 -55.5 17.5t-24.5 58.5q0 35 30.5 73t81 68.5t113 50t127.5 19.5q74 0 130.5 -16.5t93 -56.5t55 -107.5t14.5 -167.5l-18 -488q-2 -31 9 -42t32 -11q20 0 49.5 21.5t58.5 52.5zM629 518 q-106 -31 -188.5 -60.5t-137.5 -63.5t-84 -78t-29 -101q0 -78 47.5 -120t124.5 -42q37 0 70 13.5t63.5 35t60.5 48t60 53.5zM745 1278q-39 -213 -182 -213q-41 0 -81 22.5t-75.5 50t-67.5 50t-56 22.5q-20 0 -37 -5t-31 -19.5t-28.5 -41t-28.5 -69.5h-52q39 213 183 213 q41 0 81 -22.5t76.5 -50t68.5 -50t54 -22.5q20 0 37 5t31 19.5t27.5 41t27.5 69.5h53z" />
<glyph unicode="&#xe4;" horiz-adv-x="901" d="M895 80q-90 -109 -168 -109q-23 0 -45.5 8.5t-38.5 27t-24.5 48t-2.5 72.5h-8q-66 -66 -130 -112t-132 -46q-53 0 -100 16.5t-82 47t-55.5 74t-20.5 94.5q0 68 28.5 119t93 95t168 84t255.5 81v18q6 147 -50.5 207.5t-181.5 60.5q-37 0 -70.5 -7t-59 -17.5t-40 -22.5 t-14.5 -20t13.5 -24.5t13.5 -51.5q0 -29 -23.5 -51.5t-56.5 -22.5q-31 0 -55.5 17.5t-24.5 58.5q0 35 30.5 73t81 68.5t113 50t127.5 19.5q74 0 130.5 -16.5t93 -56.5t55 -107.5t14.5 -167.5l-18 -488q-2 -31 9 -42t32 -11q20 0 49.5 21.5t58.5 52.5zM629 518 q-106 -31 -188.5 -60.5t-137.5 -63.5t-84 -78t-29 -101q0 -78 47.5 -120t124.5 -42q37 0 70 13.5t63.5 35t60.5 48t60 53.5zM719 1174q0 -39 -24.5 -71t-67.5 -32q-45 0 -71 32t-26 71t26 69.5t71 30.5q43 0 67.5 -30.5t24.5 -69.5zM311 1174q0 -39 -24.5 -71t-69.5 -32 t-68.5 32t-23.5 71t23.5 69.5t68.5 30.5t69.5 -30.5t24.5 -69.5z" />
<glyph unicode="&#xe5;" horiz-adv-x="901" d="M618 1233q0 -76 -48 -130t-134 -54t-134 54t-48 130t48 130t134 54t134 -54t48 -130zM895 80q-90 -109 -168 -109q-23 0 -45.5 8.5t-38.5 27t-24.5 48t-2.5 72.5h-8q-66 -66 -130 -112t-132 -46q-53 0 -100 16.5t-82 47t-55.5 74t-20.5 94.5q0 68 28.5 119t93 95t168 84 t255.5 81v18q6 147 -50.5 207.5t-181.5 60.5q-37 0 -70.5 -7t-59 -17.5t-40 -22.5t-14.5 -20t13.5 -24.5t13.5 -51.5q0 -29 -23.5 -51.5t-56.5 -22.5q-31 0 -55.5 17.5t-24.5 58.5q0 35 30.5 73t81 68.5t113 50t127.5 19.5q74 0 130.5 -16.5t93 -56.5t55 -107.5t14.5 -167.5 l-18 -488q-2 -31 9 -42t32 -11q20 0 49.5 21.5t58.5 52.5zM559 1233q0 53 -31.5 93t-91.5 40q-59 0 -91 -40t-32 -93t32 -93t91 -40t91 40t32 93zM629 518q-106 -31 -188.5 -60.5t-137.5 -63.5t-84 -78t-29 -101q0 -78 47.5 -120t124.5 -42q37 0 70 13.5t63.5 35t60.5 48 t60 53.5z" />
<glyph unicode="&#xe6;" horiz-adv-x="1464" d="M676 195q-33 -53 -75 -94.5t-87 -71t-90 -45t-82 -15.5q-111 0 -182.5 63.5t-71.5 168.5q0 66 28.5 117t93 96t168 85t255.5 81v18q6 147 -50.5 207.5t-181.5 60.5q-37 0 -70.5 -7t-59 -17.5t-40 -22.5t-14.5 -20t13.5 -24.5t13.5 -51.5q0 -29 -23.5 -51.5t-56.5 -22.5 q-31 0 -55.5 17.5t-24.5 58.5q0 35 30.5 73t81 68.5t113 50t127.5 19.5q246 0 285 -193q66 90 159 141.5t197 51.5q141 0 223 -78t82 -196q0 -31 -2 -59t-6 -44l-637 8q-4 -23 -6 -56.5t-2 -55.5q0 -84 24.5 -156t67.5 -125t104.5 -84t135.5 -31q174 0 291 168l41 -28 q-51 -104 -146.5 -163t-210.5 -59q-117 0 -212 57t-148 161zM1274 627q6 111 -50.5 179t-168.5 68q-45 0 -91 -18t-87 -53t-74 -83t-51 -106zM629 518q-104 -31 -186.5 -59.5t-138.5 -63.5t-85 -79t-29 -101q0 -78 47.5 -120t124.5 -42q74 0 147 44t144 147q-31 86 -30 188 q0 16 2 43t4 43z" />
<glyph unicode="&#xe7;" horiz-adv-x="913" d="M485 -23q-84 0 -158.5 32t-130 91.5t-87 143.5t-31.5 188q0 106 36 198.5t98 160t146 106.5t181 39q63 0 118.5 -14.5t94.5 -39t61.5 -56t22.5 -66.5q0 -43 -22.5 -68.5t-57.5 -25.5q-25 0 -45.5 11t-30.5 30.5t-8 49t22 66.5v4q-23 16 -68.5 30.5t-101.5 14.5 q-74 0 -135 -32.5t-107 -90t-72 -133t-26 -161.5q0 -84 24.5 -156t67.5 -125t104.5 -84t135.5 -31q174 0 291 168l41 -28q-43 -90 -121 -145.5t-172 -71.5l-104 -109q53 4 99 -6t81 -31.5t55.5 -55.5t20.5 -79q0 -86 -95.5 -151.5t-296.5 -84.5l-12 37q166 25 243 71t77 122 q0 49 -44 82t-133 33q-20 0 -46.5 -2.5t-53.5 -6.5v25l139 151v0z" />
<glyph unicode="&#xe8;" horiz-adv-x="919" d="M848 199q-51 -104 -146.5 -163t-209.5 -59q-86 0 -161 32t-131.5 90.5t-89 142.5t-32.5 190t37 198.5t99 160t145 106.5t173 39q141 0 223.5 -78t82.5 -196q0 -31 -2 -59t-7 -44l-636 8q-4 -23 -6.5 -56.5t-2.5 -55.5q0 -84 24.5 -156t67.5 -125t104.5 -84t135.5 -31 q174 0 291 168zM729 627q6 111 -50 179t-169 68q-45 0 -91 -18t-87 -53t-74 -83t-51 -106zM510 1034l-324 363h160l207 -363h-43z" />
<glyph unicode="&#xe9;" horiz-adv-x="919" d="M848 199q-51 -104 -146.5 -163t-209.5 -59q-86 0 -161 32t-131.5 90.5t-89 142.5t-32.5 190t37 198.5t99 160t145 106.5t173 39q141 0 223.5 -78t82.5 -196q0 -31 -2 -59t-7 -44l-636 8q-4 -23 -6.5 -56.5t-2.5 -55.5q0 -84 24.5 -156t67.5 -125t104.5 -84t135.5 -31 q174 0 291 168zM729 627q6 111 -50 179t-169 68q-45 0 -91 -18t-87 -53t-74 -83t-51 -106zM428 1034h-43l207 363h160z" />
<glyph unicode="&#xea;" horiz-adv-x="919" d="M848 199q-51 -104 -146.5 -163t-209.5 -59q-86 0 -161 32t-131.5 90.5t-89 142.5t-32.5 190t37 198.5t99 160t145 106.5t173 39q141 0 223.5 -78t82.5 -196q0 -31 -2 -59t-7 -44l-636 8q-4 -23 -6.5 -56.5t-2.5 -55.5q0 -84 24.5 -156t67.5 -125t104.5 -84t135.5 -31 q174 0 291 168zM729 627q6 111 -50 179t-169 68q-45 0 -91 -18t-87 -53t-74 -83t-51 -106zM709 1034q-63 90 -113 160q-23 29 -42 58.5t-36 52.5q-18 27 -35 49h-4l-225 -320h-53l248 424h65l248 -424h-53z" />
<glyph unicode="&#xeb;" horiz-adv-x="919" d="M848 199q-51 -104 -146.5 -163t-209.5 -59q-86 0 -161 32t-131.5 90.5t-89 142.5t-32.5 190t37 198.5t99 160t145 106.5t173 39q141 0 223.5 -78t82.5 -196q0 -31 -2 -59t-7 -44l-636 8q-4 -23 -6.5 -56.5t-2.5 -55.5q0 -84 24.5 -156t67.5 -125t104.5 -84t135.5 -31 q174 0 291 168zM729 627q6 111 -50 179t-169 68q-45 0 -91 -18t-87 -53t-74 -83t-51 -106zM778 1174q0 -39 -24.5 -71t-67.5 -32q-45 0 -70.5 32t-25.5 71t25.5 69.5t70.5 30.5q43 0 67.5 -30.5t24.5 -69.5zM371 1174q0 -39 -24.5 -71t-70.5 -32q-45 0 -68.5 32t-23.5 71 t23.5 69.5t68.5 30.5t70 -30.5t25 -69.5z" />
<glyph unicode="&#xec;" horiz-adv-x="518" d="M49 0l6 63l150 13q8 0 8 12v709q0 20 -6 24t-17 6l-157 15l6 51l270 43v-848q0 -12 8 -12l150 -13l6 -63h-424zM260 1034l-323 363h159l207 -363h-43z" />
<glyph unicode="&#xed;" horiz-adv-x="518" d="M49 0l6 63l150 13q8 0 8 12v709q0 20 -6 24t-17 6l-157 15l6 51l270 43v-848q0 -12 8 -12l150 -13l6 -63h-424zM199 1034h-43l206 363h160z" />
<glyph unicode="&#xee;" horiz-adv-x="518" d="M49 0l6 63l150 13q8 0 8 12v709q0 20 -6 24t-17 6l-157 15l6 51l270 43v-848q0 -12 8 -12l150 -13l6 -63h-424zM475 1034q-63 90 -113 160q-23 29 -42 58.5t-35 52.5q-18 27 -35 49h-4l-226 -320h-53l248 424h66l247 -424h-53z" />
<glyph unicode="&#xef;" horiz-adv-x="518" d="M49 0l6 63l150 13q8 0 8 12v709q0 20 -6 24t-17 6l-157 15l6 51l270 43v-848q0 -12 8 -12l150 -13l6 -63h-424zM545 1174q0 -39 -24.5 -71t-67.5 -32q-45 0 -71 32t-26 71t26 69.5t71 30.5q43 0 67.5 -30.5t24.5 -69.5zM137 1174q0 -39 -24.5 -71t-69.5 -32t-68.5 32 t-23.5 71t23.5 69.5t68.5 30.5t69.5 -30.5t24.5 -69.5z" />
<glyph unicode="&#xf0;" horiz-adv-x="970" d="M399 1102q-66 -23 -149 -49v77l229 76q-109 80 -241 119l45 37q158 -37 282 -127l281 94v-78q-57 -20 -105 -34q-20 -8 -38.5 -14.5t-34.5 -10.5q-18 -6 -33 -10q137 -123 210 -289t73 -340q0 -113 -28 -218.5t-84 -186t-142 -130t-203 -49.5q-102 0 -183 38 t-137.5 102.5t-86 152.5t-29.5 187q0 96 32.5 184t91 155.5t137.5 107.5t171 40q102 0 192 -55.5t144 -161.5q-25 123 -86.5 234.5t-159.5 197.5zM137 467q0 -115 37 -203t98 -149q45 -45 97.5 -65.5t111.5 -20.5q145 0 232.5 108.5t87.5 300.5q0 109 -31 194t-90 144 q-47 47 -103.5 74t-119.5 27q-145 0 -232.5 -108.5t-87.5 -301.5z" />
<glyph unicode="&#xf1;" horiz-adv-x="1085" d="M639 0l6 63l150 13q8 0 8 12v490q0 78 -16.5 130t-45 82.5t-68.5 44t-85 13.5q-41 0 -81 -13.5t-77 -34t-68.5 -46t-56.5 -49.5v-617q0 -12 8 -12l150 -13l6 -63h-414l6 63l140 13q8 0 8 12v723q0 14 -10 14l-170 17l6 51l270 43v-154h10q84 68 161 111t167 43 q51 0 98 -16.5t86 -55.5q35 -35 53.5 -92t18.5 -129v-555q0 -12 8 -12l150 -13l6 -63h-424zM862 1278q-39 -213 -182 -213q-41 0 -81 22.5t-76 50t-67.5 50t-56.5 22.5q-20 0 -36.5 -5t-31 -19.5t-28.5 -41t-29 -69.5h-51q39 213 183 213q41 0 80.5 -22.5t76.5 -50t69 -50 t54 -22.5q20 0 36.5 5t31 19.5t28 41t27.5 69.5h53z" />
<glyph unicode="&#xf2;" horiz-adv-x="1060" d="M983 459q0 -111 -35 -201t-96 -154.5t-144 -99.5t-178 -35q-94 0 -175 34t-141 96.5t-94 150.5t-34 196q0 111 35 201t96.5 154.5t144 99.5t177.5 35q94 0 175 -34t140 -96.5t94 -150t35 -196.5zM881 455q0 98 -28 179t-83 136q-47 47 -105.5 72.5t-129.5 25.5 q-78 0 -141.5 -32.5t-108.5 -89t-71 -133t-26 -162.5q0 -205 117 -322q43 -43 101.5 -67.5t128.5 -24.5q76 0 140 32.5t109 89t71 133.5t26 163zM594 1034l-324 363h160l207 -363h-43z" />
<glyph unicode="&#xf3;" horiz-adv-x="1060" d="M983 459q0 -111 -35 -201t-96 -154.5t-144 -99.5t-178 -35q-94 0 -175 34t-141 96.5t-94 150.5t-34 196q0 111 35 201t96.5 154.5t144 99.5t177.5 35q94 0 175 -34t140 -96.5t94 -150t35 -196.5zM881 455q0 98 -28 179t-83 136q-47 47 -105.5 72.5t-129.5 25.5 q-78 0 -141.5 -32.5t-108.5 -89t-71 -133t-26 -162.5q0 -205 117 -322q43 -43 101.5 -67.5t128.5 -24.5q76 0 140 32.5t109 89t71 133.5t26 163zM471 1034h-43l207 363h160z" />
<glyph unicode="&#xf4;" horiz-adv-x="1060" d="M983 459q0 -111 -35 -201t-96 -154.5t-144 -99.5t-178 -35q-94 0 -175 34t-141 96.5t-94 150.5t-34 196q0 111 35 201t96.5 154.5t144 99.5t177.5 35q94 0 175 -34t140 -96.5t94 -150t35 -196.5zM881 455q0 98 -28 179t-83 136q-47 47 -105.5 72.5t-129.5 25.5 q-78 0 -141.5 -32.5t-108.5 -89t-71 -133t-26 -162.5q0 -205 117 -322q43 -43 101.5 -67.5t128.5 -24.5q76 0 140 32.5t109 89t71 133.5t26 163zM758 1034q-63 90 -113 160q-23 29 -42 58.5t-36 52.5q-18 27 -35 49h-4l-225 -320h-53l248 424h65l248 -424h-53z" />
<glyph unicode="&#xf5;" horiz-adv-x="1060" d="M983 459q0 -111 -35 -201t-96 -154.5t-144 -99.5t-178 -35q-94 0 -175 34t-141 96.5t-94 150.5t-34 196q0 111 35 201t96.5 154.5t144 99.5t177.5 35q94 0 175 -34t140 -96.5t94 -150t35 -196.5zM881 455q0 98 -28 179t-83 136q-47 47 -105.5 72.5t-129.5 25.5 q-78 0 -141.5 -32.5t-108.5 -89t-71 -133t-26 -162.5q0 -205 117 -322q43 -43 101.5 -67.5t128.5 -24.5q76 0 140 32.5t109 89t71 133.5t26 163zM850 1278q-39 -213 -182 -213q-41 0 -81 22.5t-76 50t-67.5 50t-56.5 22.5q-20 0 -36.5 -5t-31 -19.5t-29 -41t-28.5 -69.5h-51 q39 213 182 213q41 0 81 -22.5t77 -50t68.5 -50t54.5 -22.5q20 0 36.5 5t31 19.5t27.5 41t28 69.5h53z" />
<glyph unicode="&#xf6;" horiz-adv-x="1060" d="M983 459q0 -111 -35 -201t-96 -154.5t-144 -99.5t-178 -35q-94 0 -175 34t-141 96.5t-94 150.5t-34 196q0 111 35 201t96.5 154.5t144 99.5t177.5 35q94 0 175 -34t140 -96.5t94 -150t35 -196.5zM881 455q0 98 -28 179t-83 136q-47 47 -105.5 72.5t-129.5 25.5 q-78 0 -141.5 -32.5t-108.5 -89t-71 -133t-26 -162.5q0 -205 117 -322q43 -43 101.5 -67.5t128.5 -24.5q76 0 140 32.5t109 89t71 133.5t26 163zM827 1174q0 -39 -24.5 -71t-67.5 -32q-45 0 -70.5 32t-25.5 71t25.5 69.5t70.5 30.5q43 0 67.5 -30.5t24.5 -69.5zM420 1174 q0 -39 -24.5 -71t-69.5 -32t-69 32t-24 71t24 69.5t69 30.5t69.5 -30.5t24.5 -69.5z" />
<glyph unicode="&#xf7;" horiz-adv-x="983" d="M72 436l6 88h827l6 -88h-839zM397 764q0 41 27 68.5t68 27.5t68.5 -27.5t27.5 -68.5t-28 -67.5t-68 -26.5q-41 0 -68 26.5t-27 67.5zM397 195q0 41 27 68.5t68 27.5t68.5 -27.5t27.5 -68.5t-28 -68t-68 -27q-41 0 -68 27t-27 68z" />
<glyph unicode="&#xf8;" horiz-adv-x="1060" d="M801 850q84 -66 129 -168t45 -225q0 -96 -34 -184.5t-93.5 -156t-142 -107.5t-183.5 -40q-59 0 -109.5 13.5t-95.5 35.5l-98 -170h-76l121 203q-86 66 -132 170.5t-46 227.5q0 96 33 184t93 155.5t143 107.5t184 40q115 0 211 -51l100 172h70zM705 809q-41 31 -88.5 49.5 t-98.5 18.5q-145 0 -232 -109t-87 -301q0 -104 30.5 -186t83.5 -144zM862 438q0 207 -110 328l-392 -674q78 -63 183 -63q145 0 232 108t87 301z" />
<glyph unicode="&#xf9;" horiz-adv-x="1064" d="M1049 6l-271 -37v156h-10q-84 -68 -161 -111t-167 -43q-51 0 -98 16.5t-86 55.5q-35 35 -53.5 92.5t-18.5 128.5l2 555q0 12 -8 12l-149 13l-6 63h262l-4 -577q0 -78 16 -130.5t45 -83t68 -44t86 -13.5q39 0 78.5 13.5t76.5 34t70 46t57 50.5v616q0 12 -8 12l-149 13 l-7 63h260v-821q0 -10 1.5 -17.5t9.5 -7.5l170 -12zM555 1034l-324 363h160l207 -363h-43z" />
<glyph unicode="&#xfa;" horiz-adv-x="1064" d="M1049 6l-271 -37v156h-10q-84 -68 -161 -111t-167 -43q-51 0 -98 16.5t-86 55.5q-35 35 -53.5 92.5t-18.5 128.5l2 555q0 12 -8 12l-149 13l-6 63h262l-4 -577q0 -78 16 -130.5t45 -83t68 -44t86 -13.5q39 0 78.5 13.5t76.5 34t70 46t57 50.5v616q0 12 -8 12l-149 13 l-7 63h260v-821q0 -10 1.5 -17.5t9.5 -7.5l170 -12zM494 1034h-43l206 363h160z" />
<glyph unicode="&#xfb;" horiz-adv-x="1064" d="M1049 6l-271 -37v156h-10q-84 -68 -161 -111t-167 -43q-51 0 -98 16.5t-86 55.5q-35 35 -53.5 92.5t-18.5 128.5l2 555q0 12 -8 12l-149 13l-6 63h262l-4 -577q0 -78 16 -130.5t45 -83t68 -44t86 -13.5q39 0 78.5 13.5t76.5 34t70 46t57 50.5v616q0 12 -8 12l-149 13 l-7 63h260v-821q0 -10 1.5 -17.5t9.5 -7.5l170 -12zM729 1034q-63 90 -113 160q-23 29 -42 58.5t-35 52.5q-18 27 -35 49h-4l-226 -320h-53l248 424h66l247 -424h-53z" />
<glyph unicode="&#xfc;" horiz-adv-x="1064" d="M1049 6l-271 -37v156h-10q-84 -68 -161 -111t-167 -43q-51 0 -98 16.5t-86 55.5q-35 35 -53.5 92.5t-18.5 128.5l2 555q0 12 -8 12l-149 13l-6 63h262l-4 -577q0 -78 16 -130.5t45 -83t68 -44t86 -13.5q39 0 78.5 13.5t76.5 34t70 46t57 50.5v616q0 12 -8 12l-149 13 l-7 63h260v-821q0 -10 1.5 -17.5t9.5 -7.5l170 -12zM799 1174q0 -39 -24.5 -71t-67.5 -32q-45 0 -71 32t-26 71t26 69.5t71 30.5q43 0 67.5 -30.5t24.5 -69.5zM391 1174q0 -39 -24.5 -71t-69.5 -32t-68.5 32t-23.5 71t23.5 69.5t68.5 30.5t69.5 -30.5t24.5 -69.5z" />
<glyph unicode="&#xfd;" horiz-adv-x="892" d="M102 813q-4 14 -18 16l-100 15l-7 63h353l-6 -63l-109 -13q-16 0 -12 -14l276 -747l250 741q4 14 -6 14l-123 19l-6 63h336l-6 -63l-103 -15q-8 0 -14 -14l-279 -792l-88 -308q-37 -131 -94 -194.5t-149 -63.5q-53 0 -89 28t-36 69q0 39 22.5 63.5t63.5 24.5 q76 0 104 -99q33 14 63.5 70.5t55.5 142.5l53 183zM387 1034h-43l207 363h160z" />
<glyph unicode="&#xfe;" horiz-adv-x="1040" d="M958 500q0 -111 -36.5 -207t-100 -168t-151.5 -114t-189 -42q-59 0 -111.5 14.5t-99.5 36.5h-10v-436q0 -12 8 -12l170 -12l6 -64h-444l6 64l150 12q8 0 8 12v1704q0 20 -6 24.5t-17 6.5l-178 14l6 51l291 43v-639h6q31 25 63.5 51.5t69.5 47t80 34t92 13.5q82 0 153 -34 t123 -92t81.5 -137t29.5 -171zM846 455q0 80 -23.5 151.5t-65.5 123.5t-100.5 83t-130.5 31t-143.5 -40t-122.5 -97v-584q57 -41 121.5 -63.5t124.5 -22.5q68 0 130 29.5t108.5 85t74 132.5t27.5 171z" />
<glyph unicode="&#xff;" horiz-adv-x="892" d="M102 813q-4 14 -18 16l-100 15l-7 63h353l-6 -63l-109 -13q-16 0 -12 -14l276 -747l250 741q4 14 -6 14l-123 19l-6 63h336l-6 -63l-103 -15q-8 0 -14 -14l-279 -792l-88 -308q-37 -131 -94 -194.5t-149 -63.5q-53 0 -89 28t-36 69q0 39 22.5 63.5t63.5 24.5 q76 0 104 -99q33 14 63.5 70.5t55.5 142.5l53 183zM762 1174q0 -39 -24.5 -71t-67.5 -32q-45 0 -71 32t-26 71t26 69.5t71 30.5q43 0 67.5 -30.5t24.5 -69.5zM354 1174q0 -39 -24.5 -71t-69.5 -32t-68.5 32t-23.5 71t23.5 69.5t68.5 30.5t69.5 -30.5t24.5 -69.5z" />
<glyph unicode="&#x100;" horiz-adv-x="1206" d="M784 0l7 63l155 13q16 0 12 14l-129 379h-489l-129 -377q-4 -14 6 -14l150 -15l6 -63h-406l6 63l138 15q8 0 14 14l397 1125v47l137 41l414 -1211q4 -14 19 -16l141 -15l6 -63h-455zM594 1180h-10l-217 -633h436zM365 1470l6 78h469l6 -78h-481z" />
<glyph unicode="&#x101;" horiz-adv-x="901" d="M895 80q-90 -109 -168 -109q-23 0 -45.5 8.5t-38.5 27t-24.5 48t-2.5 72.5h-8q-66 -66 -130 -112t-132 -46q-53 0 -100 16.5t-82 47t-55.5 74t-20.5 94.5q0 68 28.5 119t93 95t168 84t255.5 81v18q6 147 -50.5 207.5t-181.5 60.5q-37 0 -70.5 -7t-59 -17.5t-40 -22.5 t-14.5 -20t13.5 -24.5t13.5 -51.5q0 -29 -23.5 -51.5t-56.5 -22.5q-31 0 -55.5 17.5t-24.5 58.5q0 35 30.5 73t81 68.5t113 50t127.5 19.5q74 0 130.5 -16.5t93 -56.5t55 -107.5t14.5 -167.5l-18 -488q-2 -31 9 -42t32 -11q20 0 49.5 21.5t58.5 52.5zM629 518 q-106 -31 -188.5 -60.5t-137.5 -63.5t-84 -78t-29 -101q0 -78 47.5 -120t124.5 -42q37 0 70 13.5t63.5 35t60.5 48t60 53.5zM201 1098l6 78h469l6 -78h-481z" />
<glyph unicode="&#x102;" horiz-adv-x="1206" d="M784 0l7 63l155 13q16 0 12 14l-129 379h-489l-129 -377q-4 -14 6 -14l150 -15l6 -63h-406l6 63l138 15q8 0 14 14l397 1125v47l137 41l414 -1211q4 -14 19 -16l141 -15l6 -63h-455zM594 1180h-10l-217 -633h436zM893 1769q-14 -59 -33.5 -122.5t-51.5 -116.5t-79 -88 t-117 -35t-116.5 35t-78.5 88t-51.5 116.5t-33.5 122.5h53q45 -158 100.5 -220t126.5 -62q72 0 127.5 62.5t100.5 219.5h53z" />
<glyph unicode="&#x103;" horiz-adv-x="901" d="M895 80q-90 -109 -168 -109q-23 0 -45.5 8.5t-38.5 27t-24.5 48t-2.5 72.5h-8q-66 -66 -130 -112t-132 -46q-53 0 -100 16.5t-82 47t-55.5 74t-20.5 94.5q0 68 28.5 119t93 95t168 84t255.5 81v18q6 147 -50.5 207.5t-181.5 60.5q-37 0 -70.5 -7t-59 -17.5t-40 -22.5 t-14.5 -20t13.5 -24.5t13.5 -51.5q0 -29 -23.5 -51.5t-56.5 -22.5q-31 0 -55.5 17.5t-24.5 58.5q0 35 30.5 73t81 68.5t113 50t127.5 19.5q74 0 130.5 -16.5t93 -56.5t55 -107.5t14.5 -167.5l-18 -488q-2 -31 9 -42t32 -11q20 0 49.5 21.5t58.5 52.5zM629 518 q-106 -31 -188.5 -60.5t-137.5 -63.5t-84 -78t-29 -101q0 -78 47.5 -120t124.5 -42q37 0 70 13.5t63.5 35t60.5 48t60 53.5zM731 1397q-14 -59 -33.5 -123t-51.5 -117t-79 -88t-116 -35q-70 0 -117 35t-79 88t-51.5 116.5t-33.5 123.5h53q45 -158 100.5 -220.5t127.5 -62.5 t127 62.5t100 220.5h53z" />
<glyph unicode="&#x104;" horiz-adv-x="1206" d="M1083 -412q-66 0 -110.5 38t-44.5 112q0 78 53 146.5t147 115.5h-344l7 63l155 13q12 0 12 14l-129 379h-489l-129 -377q0 -4 1 -9t5 -5l150 -15l6 -63h-406l6 63l138 15q8 0 14 14l397 1125v47l137 41l414 -1211q4 -14 19 -16l141 -15l6 -63q-104 -33 -166.5 -98.5 t-62.5 -137.5q0 -49 25.5 -79.5t68.5 -30.5q35 0 61.5 13.5t38.5 35.5l27 -22q-20 -37 -55.5 -65t-92.5 -28zM594 1180h-10l-217 -633h436z" />
<glyph unicode="&#x105;" horiz-adv-x="901" d="M733 -412q-66 0 -112 39t-46 113t42 133t104 102q-51 -2 -83 38t-22 114h-8q-66 -66 -130 -112t-132 -46q-53 0 -100 16.5t-82 47t-55.5 74t-20.5 94.5q0 68 28.5 119t93 95t168 84t255.5 81v18q6 147 -50.5 207.5t-181.5 60.5q-37 0 -70.5 -7t-59 -17.5t-40 -22.5 t-14.5 -20t13.5 -24.5t13.5 -51.5q0 -29 -23.5 -51.5t-56.5 -22.5q-31 0 -55.5 17.5t-24.5 58.5q0 35 30.5 73t81 68.5t113 50t127.5 19.5q74 0 130.5 -16.5t93 -56.5t55 -107.5t14.5 -167.5l-18 -488q-2 -31 9 -42t32 -11q20 0 49.5 21.5t58.5 52.5l35 -41 q-33 -39 -56.5 -61.5t-50.5 -38.5q-131 -90 -131 -218q0 -45 27 -76.5t68 -31.5q35 0 61.5 13.5t38.5 35.5l27 -22q-20 -37 -54.5 -65t-91.5 -28zM629 518q-106 -31 -188.5 -60.5t-137.5 -63.5t-84 -78t-29 -101q0 -78 47.5 -120t124.5 -42q37 0 70 13.5t63.5 35t60.5 48 t60 53.5z" />
<glyph unicode="&#x106;" horiz-adv-x="1275" d="M1151 -4l-70 22q-29 -8 -69.5 -16t-84.5 -15t-90 -11.5t-85 -4.5q-141 0 -261 46t-209 130t-139.5 201t-50.5 260q0 154 50.5 283t139.5 221t212.5 144.5t271.5 52.5q88 0 156.5 -8.5t132.5 -24.5l139 35v-404h-66l-47 275q-18 8 -46.5 18t-68.5 19.5t-94.5 16.5 t-123.5 7q-117 0 -215.5 -45t-171 -126t-113.5 -193.5t-41 -245.5q0 -129 38 -238.5t110.5 -188.5t175 -124t231.5 -45q104 0 176 21.5t117 37.5l82 269h69zM700 1407h-43l207 362h160z" />
<glyph unicode="&#x107;" horiz-adv-x="913" d="M848 199q-51 -104 -146.5 -163t-209.5 -59q-86 0 -161 32t-131.5 90.5t-89 142.5t-32.5 190t36 198.5t98 160t146 106.5t181 39q63 0 118.5 -14.5t94.5 -39t61.5 -56t22.5 -66.5q0 -43 -22.5 -68.5t-57.5 -25.5q-25 0 -45.5 11t-30.5 30.5t-8 49t22 66.5v4 q-23 16 -68.5 30.5t-101.5 14.5q-74 0 -135 -32.5t-107 -90t-72 -133t-26 -161.5q0 -84 24.5 -156t67.5 -125t104.5 -84t135.5 -31q174 0 291 168zM420 1034h-43l207 363h159z" />
<glyph unicode="&#x108;" horiz-adv-x="1275" d="M1151 -4l-70 22q-29 -8 -69.5 -16t-84.5 -15t-90 -11.5t-85 -4.5q-141 0 -261 46t-209 130t-139.5 201t-50.5 260q0 154 50.5 283t139.5 221t212.5 144.5t271.5 52.5q88 0 156.5 -8.5t132.5 -24.5l139 35v-404h-66l-47 275q-18 8 -46.5 18t-68.5 19.5t-94.5 16.5 t-123.5 7q-117 0 -215.5 -45t-171 -126t-113.5 -193.5t-41 -245.5q0 -129 38 -238.5t110.5 -188.5t175 -124t231.5 -45q104 0 176 21.5t117 37.5l82 269h69zM946 1407l-112 160q-23 29 -42.5 58.5t-35.5 51.5q-18 27 -35 49h-4l-225 -319h-54l248 424h66l247 -424h-53z" />
<glyph unicode="&#x109;" horiz-adv-x="913" d="M848 199q-51 -104 -146.5 -163t-209.5 -59q-86 0 -161 32t-131.5 90.5t-89 142.5t-32.5 190t36 198.5t98 160t146 106.5t181 39q63 0 118.5 -14.5t94.5 -39t61.5 -56t22.5 -66.5q0 -43 -22.5 -68.5t-57.5 -25.5q-25 0 -45.5 11t-30.5 30.5t-8 49t22 66.5v4 q-23 16 -68.5 30.5t-101.5 14.5q-74 0 -135 -32.5t-107 -90t-72 -133t-26 -161.5q0 -84 24.5 -156t67.5 -125t104.5 -84t135.5 -31q174 0 291 168zM719 1034q-63 90 -113 160q-23 29 -42 58.5t-36 52.5q-18 27 -34 49h-5l-225 -320h-53l248 424h65l248 -424h-53z" />
<glyph unicode="&#x10a;" horiz-adv-x="1275" d="M1151 -4l-70 22q-29 -8 -69.5 -16t-84.5 -15t-90 -11.5t-85 -4.5q-141 0 -261 46t-209 130t-139.5 201t-50.5 260q0 154 50.5 283t139.5 221t212.5 144.5t271.5 52.5q88 0 156.5 -8.5t132.5 -24.5l139 35v-404h-66l-47 275q-18 8 -46.5 18t-68.5 19.5t-94.5 16.5 t-123.5 7q-117 0 -215.5 -45t-171 -126t-113.5 -193.5t-41 -245.5q0 -129 38 -238.5t110.5 -188.5t175 -124t231.5 -45q104 0 176 21.5t117 37.5l82 269h69zM858 1587q0 -43 -27.5 -77.5t-76.5 -34.5t-76 34.5t-27 77.5t27 77t76 34t76.5 -34t27.5 -77z" />
<glyph unicode="&#x10b;" horiz-adv-x="913" d="M848 199q-51 -104 -146.5 -163t-209.5 -59q-86 0 -161 32t-131.5 90.5t-89 142.5t-32.5 190t36 198.5t98 160t146 106.5t181 39q63 0 118.5 -14.5t94.5 -39t61.5 -56t22.5 -66.5q0 -43 -22.5 -68.5t-57.5 -25.5q-25 0 -45.5 11t-30.5 30.5t-8 49t22 66.5v4 q-23 16 -68.5 30.5t-101.5 14.5q-74 0 -135 -32.5t-107 -90t-72 -133t-26 -161.5q0 -84 24.5 -156t67.5 -125t104.5 -84t135.5 -31q174 0 291 168zM616 1214q0 -43 -27.5 -77.5t-76.5 -34.5t-75.5 34.5t-26.5 77.5t26.5 77t75.5 34t76.5 -34t27.5 -77z" />
<glyph unicode="&#x10c;" horiz-adv-x="1275" d="M1151 -4l-70 22q-29 -8 -69.5 -16t-84.5 -15t-90 -11.5t-85 -4.5q-141 0 -261 46t-209 130t-139.5 201t-50.5 260q0 154 50.5 283t139.5 221t212.5 144.5t271.5 52.5q88 0 156.5 -8.5t132.5 -24.5l139 35v-404h-66l-47 275q-18 8 -46.5 18t-68.5 19.5t-94.5 16.5 t-123.5 7q-117 0 -215.5 -45t-171 -126t-113.5 -193.5t-41 -245.5q0 -129 38 -238.5t110.5 -188.5t175 -124t231.5 -45q104 0 176 21.5t117 37.5l82 269h69zM772 1407h-65l-248 424h53l225 -320h4q16 23 35 50q16 23 35.5 51t42.5 59q49 70 113 160h53z" />
<glyph unicode="&#x10d;" horiz-adv-x="913" d="M848 199q-51 -104 -146.5 -163t-209.5 -59q-86 0 -161 32t-131.5 90.5t-89 142.5t-32.5 190t36 198.5t98 160t146 106.5t181 39q63 0 118.5 -14.5t94.5 -39t61.5 -56t22.5 -66.5q0 -43 -22.5 -68.5t-57.5 -25.5q-25 0 -45.5 11t-30.5 30.5t-8 49t22 66.5v4 q-23 16 -68.5 30.5t-101.5 14.5q-74 0 -135 -32.5t-107 -90t-72 -133t-26 -161.5q0 -84 24.5 -156t67.5 -125t104.5 -84t135.5 -31q174 0 291 168zM526 1034h-65l-248 424h53l226 -319h4q16 23 34 49q16 23 36 51.5t42 58.5q49 70 113 160h53z" />
<glyph unicode="&#x10e;" horiz-adv-x="1349" d="M1257 651q0 -127 -45 -243.5t-136 -207.5t-229 -145.5t-325 -54.5h-432l6 63l158 17q4 2 7 3t3 9v1096q0 10 -10 12l-158 17l-6 63l420 4q184 2 323.5 -45t233.5 -131t142 -201t48 -256zM1141 621q0 135 -42 244.5t-124 188.5t-205 122t-283 43h-114v-1133l205 -20 q131 6 235.5 51t177 118.5t111.5 172t39 213.5zM678 1407h-66l-247 424h53l225 -320h4q16 23 35 50q16 23 35.5 51t42.5 59l112 160h54z" />
<glyph unicode="&#x10f;" horiz-adv-x="1517" d="M1051 6l-271 -35v129h-6q-41 -43 -118.5 -87t-188.5 -44q-78 0 -148.5 33t-123 92.5t-83 145.5t-30.5 190q0 115 37 208t99.5 159.5t147.5 102.5t183 36q66 0 120 -15.5t101 -37.5h10v428q0 14 -10 14l-190 23l6 43l291 36v-1341q0 -10 1 -17.5t9 -7.5l170 -12zM780 780 q-57 41 -113.5 64.5t-127.5 23.5q-80 0 -145.5 -31.5t-111.5 -87t-71 -132t-25 -168.5q0 -86 22.5 -160t64.5 -127t101.5 -83t131.5 -30q86 0 154.5 38t119.5 87v606zM1376 1272q0 -59 -23.5 -114.5t-61.5 -102.5t-85 -88t-94 -74l-27 33q76 59 121 123.5t45 152.5 q0 41 -20.5 67.5t-44 44t-44 26t-20.5 10.5q0 35 20.5 64.5t74.5 29.5q72 0 115.5 -49t43.5 -123z" />
<glyph unicode="&#x110;" horiz-adv-x="1349" d="M68 623l6 71h190v494q0 10 -10 12l-158 17l-6 63l420 4q184 2 323.5 -45t233.5 -131t142 -200.5t48 -256.5q0 -127 -45 -243.5t-136 -207.5t-229 -145.5t-325 -54.5h-432l6 63l158 17q4 2 7 3t3 9v531h-196zM662 694l6 -71h-295v-537l205 -20q131 6 235.5 51t177 118.5 t111.5 172t39 213.5q0 135 -42 244.5t-124 188.5t-205 122t-283 43h-114v-525h289z" />
<glyph unicode="&#x111;" horiz-adv-x="1083" d="M1051 6l-271 -35v129h-6q-41 -43 -118.5 -87t-188.5 -44q-78 0 -148.5 33t-123 92.5t-83 145.5t-30.5 190q0 115 37 208t99.5 159.5t147.5 102.5t183 36q66 0 120 -15.5t101 -37.5h10v231h-250l7 68h243v129q0 14 -10 14l-190 23l6 43l291 36v-245h178l6 -68l-184 -2 v-1026q0 -10 1 -17.5t9 -7.5l170 -12zM780 780q-57 41 -113.5 64.5t-127.5 23.5q-80 0 -145.5 -31.5t-111.5 -87t-71 -132t-25 -168.5q0 -86 22.5 -160t64.5 -127t101.5 -83t131.5 -30q86 0 154.5 38t119.5 87v606z" />
<glyph unicode="&#x112;" horiz-adv-x="1144" d="M1026 0h-936l6 63l160 17q8 2 8 12v1096q0 10 -8 12l-160 17l-6 63h934v-346h-68l-36 223q-4 18 -15.5 29.5t-55.5 17.5t-134 8t-252 2h-90v-526h131q76 0 119 1t63.5 4t25.5 8.5t9 15.5l45 135h49l-39 -395h-49l-12 133q0 8 -4 15t-24.5 10t-63.5 5.5t-121 2.5h-129 v-557h47q184 0 286.5 2t151.5 8t61.5 17t16.5 30l53 219h74zM365 1470l6 78h469l6 -78h-481z" />
<glyph unicode="&#x113;" horiz-adv-x="919" d="M848 199q-51 -104 -146.5 -163t-209.5 -59q-86 0 -161 32t-131.5 90.5t-89 142.5t-32.5 190t37 198.5t99 160t145 106.5t173 39q141 0 223.5 -78t82.5 -196q0 -31 -2 -59t-7 -44l-636 8q-4 -23 -6.5 -56.5t-2.5 -55.5q0 -84 24.5 -156t67.5 -125t104.5 -84t135.5 -31 q174 0 291 168zM729 627q6 111 -50 179t-169 68q-45 0 -91 -18t-87 -53t-74 -83t-51 -106zM264 1098l6 78h469l6 -78h-481z" />
<glyph unicode="&#x114;" horiz-adv-x="1144" d="M1026 0h-936l6 63l160 17q8 2 8 12v1096q0 10 -8 12l-160 17l-6 63h934v-346h-68l-36 223q-4 18 -15.5 29.5t-55.5 17.5t-134 8t-252 2h-90v-526h131q76 0 119 1t63.5 4t25.5 8.5t9 15.5l45 135h49l-39 -395h-49l-12 133q0 8 -4 15t-24.5 10t-63.5 5.5t-121 2.5h-129 v-557h47q184 0 286.5 2t151.5 8t61.5 17t16.5 30l53 219h74zM870 1769q-14 -59 -33.5 -122.5t-51 -116.5t-79 -88t-116.5 -35q-70 0 -117 35t-79 88t-51 116.5t-34 122.5h53q45 -158 100.5 -220t127.5 -62t127 62.5t100 219.5h53z" />
<glyph unicode="&#x115;" horiz-adv-x="919" d="M848 199q-51 -104 -146.5 -163t-209.5 -59q-86 0 -161 32t-131.5 90.5t-89 142.5t-32.5 190t37 198.5t99 160t145 106.5t173 39q141 0 223.5 -78t82.5 -196q0 -31 -2 -59t-7 -44l-636 8q-4 -23 -6.5 -56.5t-2.5 -55.5q0 -84 24.5 -156t67.5 -125t104.5 -84t135.5 -31 q174 0 291 168zM729 627q6 111 -50 179t-169 68q-45 0 -91 -18t-87 -53t-74 -83t-51 -106zM748 1397q-14 -59 -34 -123t-51.5 -117t-78.5 -88t-117 -35t-117 35t-78.5 88t-51 116.5t-34.5 123.5h54q45 -158 100 -220.5t127 -62.5t127 62.5t100 220.5h54z" />
<glyph unicode="&#x116;" horiz-adv-x="1144" d="M1026 0h-936l6 63l160 17q8 2 8 12v1096q0 10 -8 12l-160 17l-6 63h934v-346h-68l-36 223q-4 18 -15.5 29.5t-55.5 17.5t-134 8t-252 2h-90v-526h131q76 0 119 1t63.5 4t25.5 8.5t9 15.5l45 135h49l-39 -395h-49l-12 133q0 8 -4 15t-24.5 10t-63.5 5.5t-121 2.5h-129 v-557h47q184 0 286.5 2t151.5 8t61.5 17t16.5 30l53 219h74zM707 1587q0 -43 -28 -77.5t-77 -34.5t-75.5 34.5t-26.5 77.5t26.5 77t75.5 34t77 -34t28 -77z" />
<glyph unicode="&#x117;" horiz-adv-x="919" d="M848 199q-51 -104 -146.5 -163t-209.5 -59q-86 0 -161 32t-131.5 90.5t-89 142.5t-32.5 190t37 198.5t99 160t145 106.5t173 39q141 0 223.5 -78t82.5 -196q0 -31 -2 -59t-7 -44l-636 8q-4 -23 -6.5 -56.5t-2.5 -55.5q0 -84 24.5 -156t67.5 -125t104.5 -84t135.5 -31 q174 0 291 168zM729 627q6 111 -50 179t-169 68q-45 0 -91 -18t-87 -53t-74 -83t-51 -106zM598 1214q0 -43 -27.5 -77.5t-76.5 -34.5t-76 34.5t-27 77.5t26.5 77t76.5 34q49 0 76.5 -34t27.5 -77z" />
<glyph unicode="&#x118;" horiz-adv-x="1144" d="M879 -412q-66 0 -109 39t-43 115q0 74 45 141.5t105 116.5h-787l6 63l160 17q8 2 8 12v1096q0 10 -8 12l-160 17l-6 63h934v-346h-68l-36 223q-4 18 -15.5 29.5t-55.5 17.5t-134 8t-252 2h-90v-526h131q76 0 119 1t63.5 4t25.5 8.5t9 15.5l45 135h49l-39 -395h-49 l-12 133q0 8 -4 15t-24.5 10t-63.5 5.5t-121 2.5h-129v-557h47q184 0 286.5 2t151.5 8t61.5 17t16.5 30l53 219h74l-37 -342h-84q-63 -53 -98 -112.5t-35 -116.5q0 -49 23.5 -83t66.5 -34q35 0 61.5 13.5t38.5 35.5l27 -22q-20 -37 -55 -65t-92 -28z" />
<glyph unicode="&#x119;" horiz-adv-x="919" d="M586 -412q-66 0 -109 39t-43 115q0 68 39 130t92 112q-37 -6 -73 -7q-86 0 -161 32t-131.5 90.5t-89 142.5t-32.5 190t37 198.5t99 160t145 106.5t173 39q141 0 223.5 -78t82.5 -196q0 -31 -2 -59t-7 -44l-636 8q-4 -23 -6.5 -56.5t-2.5 -55.5q0 -84 24.5 -156t67.5 -125 t104.5 -84t135.5 -31q174 0 291 168l41 -28q-29 -59 -74 -104.5t-96 -80.5q-80 -51 -121 -115.5t-41 -127.5q0 -49 23.5 -83t66.5 -34q35 0 61.5 13.5t39.5 35.5l26 -22q-20 -37 -55 -65t-92 -28zM729 627q6 111 -50 179t-169 68q-45 0 -91 -18t-87 -53t-74 -83t-51 -106z " />
<glyph unicode="&#x11a;" horiz-adv-x="1144" d="M1026 0h-936l6 63l160 17q8 2 8 12v1096q0 10 -8 12l-160 17l-6 63h934v-346h-68l-36 223q-4 18 -15.5 29.5t-55.5 17.5t-134 8t-252 2h-90v-526h131q76 0 119 1t63.5 4t25.5 8.5t9 15.5l45 135h49l-39 -395h-49l-12 133q0 8 -4 15t-24.5 10t-63.5 5.5t-121 2.5h-129 v-557h47q184 0 286.5 2t151.5 8t61.5 17t16.5 30l53 219h74zM635 1407h-66l-247 424h53l225 -320h4q16 23 35 50q16 23 35.5 51t42.5 59l112 160h54z" />
<glyph unicode="&#x11b;" horiz-adv-x="919" d="M848 199q-51 -104 -146.5 -163t-209.5 -59q-86 0 -161 32t-131.5 90.5t-89 142.5t-32.5 190t37 198.5t99 160t145 106.5t173 39q141 0 223.5 -78t82.5 -196q0 -31 -2 -59t-7 -44l-636 8q-4 -23 -6.5 -56.5t-2.5 -55.5q0 -84 24.5 -156t67.5 -125t104.5 -84t135.5 -31 q174 0 291 168zM729 627q6 111 -50 179t-169 68q-45 0 -91 -18t-87 -53t-74 -83t-51 -106zM516 1034h-65l-248 424h53l225 -319h4q16 23 35 49q16 23 35.5 51.5t42.5 58.5q49 70 113 160h53z" />
<glyph unicode="&#x11c;" horiz-adv-x="1413" d="M1335 494l-151 -17q-4 -2 -7 -3t-3 -9v-350l106 -6l6 -52q-135 -41 -270 -63.5t-254 -22.5q-145 0 -267 46t-212 130t-140.5 201t-50.5 260q0 154 49 283t138.5 221t213 144.5t271.5 52.5q88 0 156.5 -8.5t132.5 -24.5l139 35v-404h-66l-47 275q-18 8 -46.5 18 t-68.5 19.5t-94.5 16.5t-124.5 7q-117 0 -215 -45t-169.5 -126t-112.5 -193.5t-41 -245.5q0 -129 39 -238.5t111.5 -188.5t177 -124t237.5 -45q88 0 165 17.5t130 35.5v375q0 12 -10 12l-187 17l-6 63h477zM971 1407q-63 90 -113 160q-23 29 -42 58.5t-36 51.5 q-18 27 -35 49h-4l-225 -319h-53l248 424h65l248 -424h-53z" />
<glyph unicode="&#x11d;" horiz-adv-x="884" d="M678 829l-2 -6q35 -39 55.5 -90t20.5 -121q0 -66 -28 -123t-75 -101t-111.5 -69.5t-138.5 -25.5q-27 0 -53.5 1t-40.5 5q-14 -6 -33.5 -18.5t-37 -27.5t-29.5 -35.5t-12 -45.5q0 -41 32.5 -65.5t89.5 -24.5h232q82 0 139 -19.5t94 -52.5t53.5 -76t16.5 -90 q0 -78 -36 -142t-98.5 -110.5t-145.5 -72t-175 -25.5q-176 0 -275.5 72t-99.5 180q0 45 16.5 84t43 69.5t57.5 54t60 40.5v4q-45 10 -78 46t-33 89q0 29 15.5 56.5t39 52t51 44t54.5 31.5v2q-78 31 -132.5 108t-54.5 175q0 68 27 129.5t74 107.5t111.5 72.5t140.5 26.5 q55 0 106 -12.5t86 -28.5l279 -4v-102zM756 -193q0 82 -51.5 130.5t-180.5 52.5h-25h-9.5t-10.5 -1t-26.5 -1t-62.5 -1t-116 -1q-25 -10 -52 -29.5t-52 -47.5t-40 -62.5t-15 -75.5q0 -55 27.5 -95.5t71.5 -65t100.5 -36.5t113.5 -12q68 0 127 19.5t103 53t71 77.5t27 95z M643 616q0 145 -80 213q-63 51 -153 52q-59 0 -104.5 -21.5t-76 -57.5t-46 -84t-15.5 -104q0 -80 26.5 -137t73.5 -88q57 -41 138 -41q43 0 77.5 12.5t63.5 32.5q47 35 71.5 93t24.5 130zM670 1034q-63 90 -113 160q-23 29 -42 58.5t-36 52.5q-18 27 -35 49h-4l-225 -320 h-53l248 424h65l248 -424h-53z" />
<glyph unicode="&#x11e;" horiz-adv-x="1413" d="M1335 494l-151 -17q-4 -2 -7 -3t-3 -9v-350l106 -6l6 -52q-135 -41 -270 -63.5t-254 -22.5q-145 0 -267 46t-212 130t-140.5 201t-50.5 260q0 154 49 283t138.5 221t213 144.5t271.5 52.5q88 0 156.5 -8.5t132.5 -24.5l139 35v-404h-66l-47 275q-18 8 -46.5 18 t-68.5 19.5t-94.5 16.5t-124.5 7q-117 0 -215 -45t-169.5 -126t-112.5 -193.5t-41 -245.5q0 -129 39 -238.5t111.5 -188.5t177 -124t237.5 -45q88 0 165 17.5t130 35.5v375q0 12 -10 12l-187 17l-6 63h477zM1038 1769q-14 -59 -33.5 -122.5t-51 -116.5t-79 -88t-116.5 -35 q-70 0 -117 35t-79 88t-51 116.5t-34 122.5h53q45 -158 100.5 -220t127.5 -62t127 62.5t100 219.5h53z" />
<glyph unicode="&#x11f;" horiz-adv-x="884" d="M678 829l-2 -6q35 -39 55.5 -90t20.5 -121q0 -66 -28 -123t-75 -101t-111.5 -69.5t-138.5 -25.5q-27 0 -53.5 1t-40.5 5q-14 -6 -33.5 -18.5t-37 -27.5t-29.5 -35.5t-12 -45.5q0 -41 32.5 -65.5t89.5 -24.5h232q82 0 139 -19.5t94 -52.5t53.5 -76t16.5 -90 q0 -78 -36 -142t-98.5 -110.5t-145.5 -72t-175 -25.5q-176 0 -275.5 72t-99.5 180q0 45 16.5 84t43 69.5t57.5 54t60 40.5v4q-45 10 -78 46t-33 89q0 29 15.5 56.5t39 52t51 44t54.5 31.5v2q-78 31 -132.5 108t-54.5 175q0 68 27 129.5t74 107.5t111.5 72.5t140.5 26.5 q55 0 106 -12.5t86 -28.5l279 -4v-102zM756 -193q0 82 -51.5 130.5t-180.5 52.5h-25h-9.5t-10.5 -1t-26.5 -1t-62.5 -1t-116 -1q-25 -10 -52 -29.5t-52 -47.5t-40 -62.5t-15 -75.5q0 -55 27.5 -95.5t71.5 -65t100.5 -36.5t113.5 -12q68 0 127 19.5t103 53t71 77.5t27 95z M643 616q0 145 -80 213q-63 51 -153 52q-59 0 -104.5 -21.5t-76 -57.5t-46 -84t-15.5 -104q0 -80 26.5 -137t73.5 -88q57 -41 138 -41q43 0 77.5 12.5t63.5 32.5q47 35 71.5 93t24.5 130zM709 1397q-14 -59 -34 -123t-51.5 -117t-78.5 -88t-117 -35t-117 35t-78.5 88 t-51 116.5t-34.5 123.5h54q45 -158 100 -220.5t127 -62.5t127 62.5t100 220.5h54z" />
<glyph unicode="&#x120;" horiz-adv-x="1413" d="M1335 494l-151 -17q-4 -2 -7 -3t-3 -9v-350l106 -6l6 -52q-135 -41 -270 -63.5t-254 -22.5q-145 0 -267 46t-212 130t-140.5 201t-50.5 260q0 154 49 283t138.5 221t213 144.5t271.5 52.5q88 0 156.5 -8.5t132.5 -24.5l139 35v-404h-66l-47 275q-18 8 -46.5 18 t-68.5 19.5t-94.5 16.5t-124.5 7q-117 0 -215 -45t-169.5 -126t-112.5 -193.5t-41 -245.5q0 -129 39 -238.5t111.5 -188.5t177 -124t237.5 -45q88 0 165 17.5t130 35.5v375q0 12 -10 12l-187 17l-6 63h477zM858 1587q0 -43 -27.5 -77.5t-76.5 -34.5t-76 34.5t-27 77.5t27 77 t76 34t76.5 -34t27.5 -77z" />
<glyph unicode="&#x121;" horiz-adv-x="884" d="M678 829l-2 -6q35 -39 55.5 -90t20.5 -121q0 -66 -28 -123t-75 -101t-111.5 -69.5t-138.5 -25.5q-27 0 -53.5 1t-40.5 5q-14 -6 -33.5 -18.5t-37 -27.5t-29.5 -35.5t-12 -45.5q0 -41 32.5 -65.5t89.5 -24.5h232q82 0 139 -19.5t94 -52.5t53.5 -76t16.5 -90 q0 -78 -36 -142t-98.5 -110.5t-145.5 -72t-175 -25.5q-176 0 -275.5 72t-99.5 180q0 45 16.5 84t43 69.5t57.5 54t60 40.5v4q-45 10 -78 46t-33 89q0 29 15.5 56.5t39 52t51 44t54.5 31.5v2q-78 31 -132.5 108t-54.5 175q0 68 27 129.5t74 107.5t111.5 72.5t140.5 26.5 q55 0 106 -12.5t86 -28.5l279 -4v-102zM756 -193q0 82 -51.5 130.5t-180.5 52.5h-25h-9.5t-10.5 -1t-26.5 -1t-62.5 -1t-116 -1q-25 -10 -52 -29.5t-52 -47.5t-40 -62.5t-15 -75.5q0 -55 27.5 -95.5t71.5 -65t100.5 -36.5t113.5 -12q68 0 127 19.5t103 53t71 77.5t27 95z M643 616q0 145 -80 213q-63 51 -153 52q-59 0 -104.5 -21.5t-76 -57.5t-46 -84t-15.5 -104q0 -80 26.5 -137t73.5 -88q57 -41 138 -41q43 0 77.5 12.5t63.5 32.5q47 35 71.5 93t24.5 130zM547 1214q0 -43 -27.5 -77.5t-77.5 -34.5q-49 0 -75.5 34.5t-26.5 77.5t26.5 77 t75.5 34t77 -34t28 -77z" />
<glyph unicode="&#x122;" horiz-adv-x="1413" d="M1335 494l-151 -17q-4 -2 -7 -3t-3 -9v-350l106 -6l6 -52q-135 -41 -270 -63.5t-254 -22.5q-145 0 -267 46t-212 130t-140.5 201t-50.5 260q0 154 49 283t138.5 221t213 144.5t271.5 52.5q88 0 156.5 -8.5t132.5 -24.5l139 35v-404h-66l-47 275q-18 8 -46.5 18 t-68.5 19.5t-94.5 16.5t-124.5 7q-117 0 -215 -45t-169.5 -126t-112.5 -193.5t-41 -245.5q0 -129 39 -238.5t111.5 -188.5t177 -124t237.5 -45q88 0 165 17.5t130 35.5v375q0 12 -10 12l-187 17l-6 63h477zM883 -250q0 -49 -18.5 -90t-49.5 -72.5t-68.5 -57.5t-76.5 -44 l-23 27q59 33 96 74.5t37 113.5q0 33 -16 53.5t-34.5 32.5t-35 18.5t-16.5 8.5q0 33 21.5 57.5t62.5 24.5q51 0 86 -43.5t35 -102.5z" />
<glyph unicode="&#x123;" horiz-adv-x="884" d="M678 829l-2 -6q35 -39 55.5 -90t20.5 -121q0 -66 -28 -123t-75 -101t-111.5 -69.5t-138.5 -25.5q-27 0 -53.5 1t-40.5 5q-14 -6 -33.5 -18.5t-37 -27.5t-29.5 -35.5t-12 -45.5q0 -41 32.5 -65.5t89.5 -24.5h232q82 0 139 -19.5t94 -52.5t53.5 -76t16.5 -90 q0 -78 -36 -142t-98.5 -110.5t-145.5 -72t-175 -25.5q-176 0 -275.5 72t-99.5 180q0 45 16.5 84t43 69.5t57.5 54t60 40.5v4q-45 10 -78 46t-33 89q0 29 15.5 56.5t39 52t51 44t54.5 31.5v2q-78 31 -132.5 108t-54.5 175q0 68 27 129.5t74 107.5t111.5 72.5t140.5 26.5 q55 0 106 -12.5t86 -28.5l279 -4v-102zM756 -193q0 82 -51.5 130.5t-180.5 52.5h-25h-9.5t-10.5 -1t-26.5 -1t-62.5 -1t-116 -1q-25 -10 -52 -29.5t-52 -47.5t-40 -62.5t-15 -75.5q0 -55 27.5 -95.5t71.5 -65t100.5 -36.5t113.5 -12q68 0 127 19.5t103 53t71 77.5t27 95z M643 616q0 145 -80 213q-63 51 -153 52q-59 0 -104.5 -21.5t-76 -57.5t-46 -84t-15.5 -104q0 -80 26.5 -137t73.5 -88q57 -41 138 -41q43 0 77.5 12.5t63.5 32.5q47 35 71.5 93t24.5 130zM301 1147q0 49 18.5 90t49 72.5t68.5 57.5t77 44l23 -27q-59 -33 -96.5 -74.5 t-37.5 -113.5q0 -33 16.5 -54.5t35 -33.5t35 -17.5t16.5 -7.5q0 -33 -21.5 -57.5t-62.5 -24.5q-51 0 -86 43.5t-35 102.5z" />
<glyph unicode="&#x124;" horiz-adv-x="1480" d="M934 0l6 63l158 17q4 2 7 3t3 9v529h-735v-529q0 -8 3 -9t7 -3l158 -17l6 -63h-457l6 63l158 17q4 2 7 3t3 9v1096q0 10 -10 12l-158 17l-6 63h457l-6 -63l-158 -17q-4 -2 -7 -3t-3 -9v-490h735v490q0 10 -10 12l-158 17l-6 63h457l-7 -63l-157 -17q-4 -2 -7 -3t-3 -9 v-1096q0 -8 3 -9t7 -3l157 -17l7 -63h-457zM967 1407q-63 90 -113 160q-23 29 -42 58.5t-36 51.5q-18 27 -35 49h-4l-225 -319h-53l248 424h65l248 -424h-53z" />
<glyph unicode="&#x125;" horiz-adv-x="1064" d="M614 0l7 63l149 13q8 0 8 12v490q0 78 -16.5 130t-45 82.5t-68.5 44t-85 13.5q-41 0 -81 -13.5t-76.5 -34t-68.5 -46t-56 -49.5v-617q0 -12 8 -12l149 -13l6 -63h-413l6 63l139 13q8 0 8 12v1200q0 20 -6 24.5t-16 6.5l-158 14l6 51l271 43v-645h10q84 68 160.5 111 t166.5 43q51 0 98.5 -16.5t86.5 -55.5q35 -35 53 -92t18 -129v-555q0 -12 9 -12l139 -13l6 -63h-414zM676 1522q-63 90 -113 159q-23 29 -42 58.5t-36 52.5q-18 27 -34 49h-5l-225 -319h-53l248 424h65l248 -424h-53z" />
<glyph unicode="&#x126;" horiz-adv-x="1480" d="M934 0l6 63l158 17q4 2 7 3t3 9v529h-735v-529q0 -8 3 -9t7 -3l158 -17l6 -63h-457l6 63l158 17q4 2 7 3t3 9v854h-194l6 74h188v168q0 10 -10 12l-158 17l-6 63h457l-6 -63l-158 -17q-4 -2 -7 -3t-3 -9v-168h735v168q0 10 -10 12l-158 17l-6 63h457l-7 -63l-157 -17 q-4 -2 -7 -3t-3 -9v-168h174l6 -74h-180v-854q0 -8 3 -9t7 -3l157 -17l7 -63h-457zM1108 698v248h-735v-248h735z" />
<glyph unicode="&#x127;" horiz-adv-x="1064" d="M614 0l7 63l149 13q8 0 8 12v490q0 78 -16.5 130t-45 82.5t-68.5 44t-85 13.5q-41 0 -81 -13.5t-76.5 -34t-68.5 -46t-56 -49.5v-617q0 -12 8 -12l149 -13l6 -63h-413l6 63l139 13q8 0 8 12v1026h-186l6 68h180v106q0 20 -6 24.5t-16 6.5l-158 14l6 51l271 43v-245h241 l6 -68h-247v-332h10q84 68 160.5 111t166.5 43q51 0 98.5 -16.5t86.5 -55.5q35 -35 53 -92t18 -129v-555q0 -12 9 -12l139 -13l6 -63h-414z" />
<glyph unicode="&#x12a;" horiz-adv-x="677" d="M90 0l6 63l178 17q4 2 7.5 3t3.5 9v1096q0 10 -11 12l-178 17l-6 63h498l-6 -63l-179 -17q-4 -2 -7 -3t-3 -9v-1096q0 -8 3 -9t7 -3l179 -17l6 -63h-498zM100 1470l6 78h469l7 -78h-482z" />
<glyph unicode="&#x12b;" horiz-adv-x="518" d="M49 0l6 63l150 13q8 0 8 12v709q0 20 -6 24t-17 6l-157 15l6 51l270 43v-848q0 -12 8 -12l150 -13l6 -63h-424zM20 1098l7 78h469l6 -78h-482z" />
<glyph unicode="&#x12c;" horiz-adv-x="677" d="M90 0l6 63l178 17q4 2 7.5 3t3.5 9v1096q0 10 -11 12l-178 17l-6 63h498l-6 -63l-179 -17q-4 -2 -7 -3t-3 -9v-1096q0 -8 3 -9t7 -3l179 -17l6 -63h-498zM618 1769q-14 -59 -33.5 -122.5t-51 -116.5t-78.5 -88t-117 -35t-117 35t-78.5 88t-51 116.5t-34.5 122.5h54 q45 -158 100 -220t127 -62t127 62.5t100 219.5h53z" />
<glyph unicode="&#x12d;" horiz-adv-x="518" d="M49 0l6 63l150 13q8 0 8 12v709q0 20 -6 24t-17 6l-157 15l6 51l270 43v-848q0 -12 8 -12l150 -13l6 -63h-424zM539 1397q-14 -59 -34 -123t-51.5 -117t-78.5 -88t-117 -35t-117 35t-78.5 88t-51 116.5t-34.5 123.5h54q45 -158 100 -220.5t127 -62.5t127 62.5t100 220.5 h54z" />
<glyph unicode="&#x12e;" horiz-adv-x="677" d="M438 -412q-66 0 -110.5 33t-44.5 111q0 92 55 160.5t123 107.5h-371l6 63l178 17q4 2 7.5 3t3.5 9v1096q0 10 -11 12l-178 17l-6 63h498l-6 -63l-179 -17q-4 -2 -7 -3t-3 -9v-1096q0 -8 3 -9t7 -3l179 -17l6 -63q-47 -4 -88 -26.5t-71 -56.5t-47 -75t-17 -82 q0 -43 25.5 -74.5t68.5 -31.5q35 0 61.5 13.5t38.5 35.5l27 -22q-20 -37 -55.5 -65t-92.5 -28z" />
<glyph unicode="&#x12f;" horiz-adv-x="518" d="M326 -412q-72 0 -115 39t-43 107q0 80 55.5 150.5t141.5 115.5h-316l6 63l150 13q8 0 8 12v709q0 20 -6 24t-17 6l-157 15l6 51l270 43v-848q0 -12 8 -12l150 -13l6 -63q-39 -14 -79 -34.5t-71.5 -48.5t-52 -65.5t-20.5 -84.5t21.5 -80t74.5 -33q35 0 61.5 13.5 t38.5 35.5l27 -22q-20 -37 -55 -65t-92 -28zM328 1241q0 -41 -26 -71.5t-66 -30.5q-41 0 -65 29.5t-24 68.5q0 41 26 71.5t67 30.5t64.5 -29.5t23.5 -68.5z" />
<glyph unicode="&#x130;" horiz-adv-x="677" d="M90 0l6 63l178 17q4 2 7.5 3t3.5 9v1096q0 10 -11 12l-178 17l-6 63h498l-6 -63l-179 -17q-4 -2 -7 -3t-3 -9v-1096q0 -8 3 -9t7 -3l179 -17l6 -63h-498zM442 1587q0 -43 -27.5 -77.5t-76.5 -34.5t-75.5 34.5t-26.5 77.5t26.5 77t75.5 34t76.5 -34t27.5 -77z" />
<glyph unicode="&#x131;" horiz-adv-x="518" d="M49 0l6 63l150 13q8 0 8 12v709q0 20 -6 24t-17 6l-157 15l6 51l270 43v-848q0 -12 8 -12l150 -13l6 -63h-424z" />
<glyph unicode="&#x134;" horiz-adv-x="716" d="M655 1217l-157 -17q-4 -2 -7.5 -3t-3.5 -9v-758q0 -100 -21.5 -185t-63.5 -146.5t-105.5 -95.5t-146.5 -34q-80 0 -124 32t-44 83q0 39 21.5 59.5t51.5 20.5q45 0 78 -33q37 -37 53 -96h2q104 23 147.5 117t43.5 272v764q0 10 -10 12l-179 17l-6 63h478zM668 1407 q-63 90 -113 160q-23 29 -42 58.5t-36 51.5q-18 27 -35 49h-4l-225 -319h-53l248 424h65l248 -424h-53z" />
<glyph unicode="&#x135;" horiz-adv-x="495" d="M303 -109q-2 -92 -17.5 -169.5t-49 -134t-86 -89.5t-125.5 -33q-51 0 -96.5 27t-45.5 90q0 33 21.5 56.5t56.5 23.5q41 0 64.5 -36t25.5 -95q41 6 71 26.5t48 60.5t27.5 101.5t9.5 149.5v928q0 20 -6 24t-17 6l-157 15l6 51l270 43v-1045zM436 1034l-112 160 q-23 29 -42.5 58.5t-35.5 52.5q-18 27 -35 49h-4l-225 -320h-54l248 424h66l247 -424h-53z" />
<glyph unicode="&#x136;" horiz-adv-x="1269" d="M860 0l8 63l105 13q4 0 7 6t-1 10l-426 563l-180 -184v-379q0 -8 3 -9t7 -3l158 -17l6 -63h-457l6 63l158 17q4 2 7 3t3 9v1096q0 10 -10 12l-158 17l-6 63h457l-6 -63l-158 -17q-4 -2 -7 -3t-3 -9v-613l590 617q2 2 3 5t-3 3l-148 17l-6 63h422l-6 -63l-125 -15 q-14 -4 -27 -16l-452 -461l493 -633q8 -12 25 -14l106 -15l6 -63h-391zM797 -250q0 -49 -18.5 -90t-49.5 -72.5t-68.5 -57.5t-76.5 -44l-23 27q59 33 96 74.5t37 113.5q0 33 -16 53.5t-34.5 32.5t-35 18.5t-16.5 8.5q0 33 21.5 57.5t62.5 24.5q51 0 86 -43.5t35 -102.5z" />
<glyph unicode="&#x137;" horiz-adv-x="958" d="M741 0l-98 147l-244 326l-118 -104v-281q0 -12 8 -12l149 -13l6 -63h-413l6 63l139 13q8 0 8 12v1200q0 20 -6 24.5t-16 6.5l-158 14l6 51l271 43v-981l399 373l2 4l-2 4l-152 17l-6 61h393l-6 -63l-104 -15q-10 0 -19 -8l-323 -291l340 -440l9 -9t11 -5l107 -11l6 -63 h-195zM662 -250q0 -49 -18.5 -90t-49.5 -72.5t-69 -57.5t-76 -44l-23 27q59 33 96 74.5t37 113.5q0 33 -16.5 53.5t-35 32.5t-34.5 18.5t-16 8.5q0 33 21.5 57.5t62.5 24.5q51 0 86 -43.5t35 -102.5z" />
<glyph unicode="&#x139;" horiz-adv-x="1112" d="M991 0h-901l6 63l160 17q8 2 8 12v1096q0 10 -8 12l-160 17l-6 63h477l-6 -63l-178 -17q-4 -2 -7 -3t-3 -9v-1118h24q184 0 284.5 2t149 7t59.5 15t15 29l62 278h69zM287 1407h-43l207 362h159z" />
<glyph unicode="&#x13a;" horiz-adv-x="526" d="M43 0l6 63l150 13q8 0 8 12v1200q0 20 -6 24.5t-17 6.5l-178 14l6 51l291 43v-1339q0 -12 8 -12l150 -13l6 -63h-424zM182 1509h-43l207 363h160z" />
<glyph unicode="&#x13b;" horiz-adv-x="1112" d="M991 0h-901l6 63l160 17q8 2 8 12v1096q0 10 -8 12l-160 17l-6 63h477l-6 -63l-178 -17q-4 -2 -7 -3t-3 -9v-1118h24q184 0 284.5 2t149 7t59.5 15t15 29l62 278h69zM696 -250q0 -49 -18.5 -90t-49 -72.5t-68.5 -57.5t-77 -44l-22 27q59 33 96 74.5t37 113.5 q0 33 -16.5 53.5t-35 32.5t-34.5 18.5t-16 8.5q0 33 21.5 57.5t61.5 24.5q51 0 86 -43.5t35 -102.5z" />
<glyph unicode="&#x13c;" horiz-adv-x="526" d="M43 0l6 63l150 13q8 0 8 12v1200q0 20 -6 24.5t-17 6.5l-178 14l6 51l291 43v-1339q0 -12 8 -12l150 -13l6 -63h-424zM379 -250q0 -49 -18.5 -90t-49 -72.5t-68.5 -57.5t-77 -44l-23 27q59 33 96 74.5t37 113.5q0 33 -16 53.5t-34.5 32.5t-35 18.5t-16.5 8.5 q0 33 21.5 57.5t62.5 24.5q51 0 86 -43.5t35 -102.5z" />
<glyph unicode="&#x13d;" horiz-adv-x="1329" d="M991 0h-901l6 63l160 17q8 2 8 12v1096q0 10 -8 12l-160 17l-6 63h477l-6 -63l-178 -17q-4 -2 -7 -3t-3 -9v-1118h24q184 0 284.5 2t149 7t59.5 15t15 29l62 278h69zM1423 1116q0 -59 -23.5 -114.5t-61.5 -102.5t-85 -88t-94 -74l-26 33q76 59 120.5 123.5t44.5 153.5 q0 41 -20.5 67.5t-44 44t-44 25.5t-20.5 10q0 35 20.5 64.5t74.5 29.5q72 0 115.5 -49t43.5 -123z" />
<glyph unicode="&#x13e;" horiz-adv-x="952" d="M43 0l6 63l150 13q8 0 8 12v1200q0 20 -6 24.5t-17 6.5l-178 14l6 51l291 43v-1339q0 -12 8 -12l150 -13l6 -63h-424zM811 1264q0 -59 -23.5 -114.5t-61.5 -103t-85 -88t-94 -73.5l-27 33q76 59 121 123.5t45 152.5q0 41 -20.5 67.5t-44 44t-44 25.5t-20.5 10 q0 35 20.5 65t73.5 30q72 0 116 -49t44 -123z" />
<glyph unicode="&#x13f;" horiz-adv-x="1433" d="M991 0h-901l6 63l160 17q8 2 8 12v1096q0 10 -8 12l-160 17l-6 63h477l-6 -63l-178 -17q-4 -2 -7 -3t-3 -9v-1118h24q184 0 284.5 2t149 7t59.5 15t15 29l62 278h69zM1468 580q0 -41 -27.5 -72t-74.5 -31t-74.5 32t-27.5 71t27.5 68.5t74.5 29.5t74.5 -29.5t27.5 -68.5z " />
<glyph unicode="&#x140;" horiz-adv-x="763" d="M43 0l6 63l150 13q8 0 8 12v1200q0 20 -6 24.5t-17 6.5l-178 14l6 51l291 43v-1339q0 -12 8 -12l150 -13l6 -63h-424zM776 637q0 -41 -27.5 -71.5t-74.5 -30.5t-75 31.5t-28 70.5t28 68.5t75 29.5t74.5 -29.5t27.5 -68.5z" />
<glyph unicode="&#x141;" horiz-adv-x="1112" d="M90 379v78l174 47v684q0 10 -8 12l-160 17l-6 63h477l-6 -63l-178 -17q-4 -2 -7 -3t-3 -9v-656l252 68v-78l-252 -67v-385h24q184 0 284.5 2t149 7t59.5 15t15 29l62 278h69l-45 -401h-901l6 63l160 17q8 2 8 12v334z" />
<glyph unicode="&#x142;" horiz-adv-x="526" d="M303 88q0 -12 8 -12l150 -13l6 -63h-424l6 63l150 13q8 0 8 12v336l-164 -45v78l164 45v786q0 20 -6 24.5t-17 6.5l-178 14l6 51l291 43v-899l164 45v-77l-164 -45v-363z" />
<glyph unicode="&#x143;" horiz-adv-x="1433" d="M1427 1217l-184 -17q-10 0 -10 -12v-1198h-84l-795 1177h-8v-1075q0 -8 3 -9t7 -3l179 -17l6 -63h-478l7 63l184 17q4 2 7 3t3 9v1082q0 10 -10 12l-162 31l-6 63h313l750 -1102h2v1010q0 12 -10 12l-178 17l-7 63h478zM729 1407h-43l207 362h160z" />
<glyph unicode="&#x144;" horiz-adv-x="1085" d="M639 0l6 63l150 13q8 0 8 12v490q0 78 -16.5 130t-45 82.5t-68.5 44t-85 13.5q-41 0 -81 -13.5t-77 -34t-68.5 -46t-56.5 -49.5v-617q0 -12 8 -12l150 -13l6 -63h-414l6 63l140 13q8 0 8 12v723q0 14 -10 14l-170 17l6 51l270 43v-154h10q84 68 161 111t167 43 q51 0 98 -16.5t86 -55.5q35 -35 53.5 -92t18.5 -129v-555q0 -12 8 -12l150 -13l6 -63h-424zM469 1034h-43l207 363h160z" />
<glyph unicode="&#x145;" horiz-adv-x="1433" d="M1427 1217l-184 -17q-10 0 -10 -12v-1198h-84l-795 1177h-8v-1075q0 -8 3 -9t7 -3l179 -17l6 -63h-478l7 63l184 17q4 2 7 3t3 9v1082q0 10 -10 12l-162 31l-6 63h313l750 -1102h2v1010q0 12 -10 12l-178 17l-7 63h478zM879 -250q0 -49 -18.5 -90t-49.5 -72.5 t-68.5 -57.5t-76.5 -44l-23 27q59 33 96 74.5t37 113.5q0 33 -16.5 53.5t-34.5 32.5t-34.5 18.5t-16.5 8.5q0 33 21.5 57.5t62.5 24.5q51 0 86 -43.5t35 -102.5z" />
<glyph unicode="&#x146;" horiz-adv-x="1085" d="M639 0l6 63l150 13q8 0 8 12v490q0 78 -16.5 130t-45 82.5t-68.5 44t-85 13.5q-41 0 -81 -13.5t-77 -34t-68.5 -46t-56.5 -49.5v-617q0 -12 8 -12l150 -13l6 -63h-414l6 63l140 13q8 0 8 12v723q0 14 -10 14l-170 17l6 51l270 43v-154h10q84 68 161 111t167 43 q51 0 98 -16.5t86 -55.5q35 -35 53.5 -92t18.5 -129v-555q0 -12 8 -12l150 -13l6 -63h-424zM664 -250q0 -49 -18.5 -90t-49.5 -72.5t-69 -57.5t-76 -44l-23 27q59 33 96 74.5t37 113.5q0 33 -16.5 53.5t-34.5 32.5t-34.5 18.5t-16.5 8.5q0 33 21.5 57.5t62.5 24.5 q51 0 86 -43.5t35 -102.5z" />
<glyph unicode="&#x147;" horiz-adv-x="1433" d="M1427 1217l-184 -17q-10 0 -10 -12v-1198h-84l-795 1177h-8v-1075q0 -8 3 -9t7 -3l179 -17l6 -63h-478l7 63l184 17q4 2 7 3t3 9v1082q0 10 -10 12l-162 31l-6 63h313l750 -1102h2v1010q0 12 -10 12l-178 17l-7 63h478zM791 1407h-66l-248 424h53l226 -320h4q16 23 35 50 q16 23 35.5 51t41.5 59q49 70 113 160h53z" />
<glyph unicode="&#x148;" horiz-adv-x="1085" d="M639 0l6 63l150 13q8 0 8 12v490q0 78 -16.5 130t-45 82.5t-68.5 44t-85 13.5q-41 0 -81 -13.5t-77 -34t-68.5 -46t-56.5 -49.5v-617q0 -12 8 -12l150 -13l6 -63h-414l6 63l140 13q8 0 8 12v723q0 14 -10 14l-170 17l6 51l270 43v-154h10q84 68 161 111t167 43 q51 0 98 -16.5t86 -55.5q35 -35 53.5 -92t18.5 -129v-555q0 -12 8 -12l150 -13l6 -63h-424zM555 1034h-66l-247 424h53l225 -319h4q16 23 35 49q16 23 35.5 51.5t42.5 58.5q49 70 113 160h53z" />
<glyph unicode="&#x14c;" horiz-adv-x="1482" d="M1391 647q0 -135 -46.5 -257t-130.5 -215t-205.5 -148.5t-271.5 -55.5q-137 0 -254.5 46t-205 132.5t-136.5 208t-49 273.5q0 135 46 258t131 216t206 148.5t273 55.5q135 0 252.5 -47.5t204.5 -133.5t136.5 -207.5t49.5 -273.5zM1274 625q0 150 -45 264.5t-120 193 t-172 118.5t-200 40q-104 0 -199.5 -40t-168 -115.5t-115.5 -185t-43 -247.5q0 -152 45 -266.5t119 -192t170 -117.5t200 -40t200.5 40t169.5 115.5t116 184.5t43 248zM545 1470l6 78h469l6 -78h-481z" />
<glyph unicode="&#x14d;" horiz-adv-x="1060" d="M983 459q0 -111 -35 -201t-96 -154.5t-144 -99.5t-178 -35q-94 0 -175 34t-141 96.5t-94 150.5t-34 196q0 111 35 201t96.5 154.5t144 99.5t177.5 35q94 0 175 -34t140 -96.5t94 -150t35 -196.5zM881 455q0 98 -28 179t-83 136q-47 47 -105.5 72.5t-129.5 25.5 q-78 0 -141.5 -32.5t-108.5 -89t-71 -133t-26 -162.5q0 -205 117 -322q43 -43 101.5 -67.5t128.5 -24.5q76 0 140 32.5t109 89t71 133.5t26 163zM313 1098l6 78h469l7 -78h-482z" />
<glyph unicode="&#x14e;" horiz-adv-x="1482" d="M1391 647q0 -135 -46.5 -257t-130.5 -215t-205.5 -148.5t-271.5 -55.5q-137 0 -254.5 46t-205 132.5t-136.5 208t-49 273.5q0 135 46 258t131 216t206 148.5t273 55.5q135 0 252.5 -47.5t204.5 -133.5t136.5 -207.5t49.5 -273.5zM1274 625q0 150 -45 264.5t-120 193 t-172 118.5t-200 40q-104 0 -199.5 -40t-168 -115.5t-115.5 -185t-43 -247.5q0 -152 45 -266.5t119 -192t170 -117.5t200 -40t200.5 40t169.5 115.5t116 184.5t43 248zM1063 1769q-14 -59 -33.5 -122.5t-51.5 -116.5t-79 -88t-117 -35t-117 35t-78.5 88t-51 116.5 t-33.5 122.5h53q45 -158 100.5 -220t126.5 -62q72 0 127.5 62.5t100.5 219.5h53z" />
<glyph unicode="&#x14f;" horiz-adv-x="1060" d="M983 459q0 -111 -35 -201t-96 -154.5t-144 -99.5t-178 -35q-94 0 -175 34t-141 96.5t-94 150.5t-34 196q0 111 35 201t96.5 154.5t144 99.5t177.5 35q94 0 175 -34t140 -96.5t94 -150t35 -196.5zM881 455q0 98 -28 179t-83 136q-47 47 -105.5 72.5t-129.5 25.5 q-78 0 -141.5 -32.5t-108.5 -89t-71 -133t-26 -162.5q0 -205 117 -322q43 -43 101.5 -67.5t128.5 -24.5q76 0 140 32.5t109 89t71 133.5t26 163zM831 1397q-14 -59 -33.5 -123t-51 -117t-78.5 -88t-117 -35t-117 35t-78.5 88t-51 116.5t-34.5 123.5h54q45 -158 100 -220.5 t127 -62.5t127 62.5t100 220.5h53z" />
<glyph unicode="&#x150;" horiz-adv-x="1482" d="M1391 647q0 -135 -46.5 -257t-130.5 -215t-205.5 -148.5t-271.5 -55.5q-137 0 -254.5 46t-205 132.5t-136.5 208t-49 273.5q0 135 46 258t131 216t206 148.5t273 55.5q135 0 252.5 -47.5t204.5 -133.5t136.5 -207.5t49.5 -273.5zM1274 625q0 150 -45 264.5t-120 193 t-172 118.5t-200 40q-104 0 -199.5 -40t-168 -115.5t-115.5 -185t-43 -247.5q0 -152 45 -266.5t119 -192t170 -117.5t200 -40t200.5 40t169.5 115.5t116 184.5t43 248zM874 1407h-45l181 362h141zM571 1407h-45l181 362h141z" />
<glyph unicode="&#x151;" horiz-adv-x="1060" d="M983 459q0 -111 -35 -201t-96 -154.5t-144 -99.5t-178 -35q-94 0 -175 34t-141 96.5t-94 150.5t-34 196q0 111 35 201t96.5 154.5t144 99.5t177.5 35q94 0 175 -34t140 -96.5t94 -150t35 -196.5zM881 455q0 98 -28 179t-83 136q-47 47 -105.5 72.5t-129.5 25.5 q-78 0 -141.5 -32.5t-108.5 -89t-71 -133t-26 -162.5q0 -205 117 -322q43 -43 101.5 -67.5t128.5 -24.5q76 0 140 32.5t109 89t71 133.5t26 163zM668 1034h-45l180 363h141zM365 1034h-46l181 363h141z" />
<glyph unicode="&#x152;" horiz-adv-x="1857" d="M1739 0l-899 -2q-170 -2 -307.5 40t-235.5 124t-151.5 198.5t-53.5 266.5q0 127 45 244.5t136.5 208.5t229.5 145.5t324 54.5h910v-346h-62l-37 223q-4 18 -13 28.5t-52 16.5t-132 7t-251 1h-105v-522h132q76 0 118.5 1t63 4t26 8.5t9.5 15.5l45 135h49l-39 -395h-49 l-13 133q0 8 -4 15t-24.5 10t-63.5 5.5t-121 2.5h-129v-553h62q184 0 284.5 2t148.5 7t59.5 15t15.5 29l53 219h68zM977 1182l-205 37q-131 -6 -234.5 -51.5t-174 -119t-108.5 -172t-38 -210.5q0 -135 41 -246t122 -189.5t201.5 -120.5t280.5 -42h115v1114z" />
<glyph unicode="&#x153;" horiz-adv-x="1718" d="M924 207q-57 -111 -161 -174.5t-233 -63.5q-94 0 -175 34t-141 96.5t-94 150.5t-34 196q0 111 35 201t96.5 154.5t144 99.5t177.5 35q135 0 240.5 -66.5t158.5 -187.5q59 117 164.5 185.5t228.5 68.5q141 0 223 -78t82 -196q0 -31 -2 -59t-6 -44l-637 8q-4 -23 -6 -56.5 t-2 -55.5q0 -84 24.5 -156t67.5 -125t104.5 -84t135.5 -31q174 0 291 168l41 -28q-51 -104 -146.5 -163t-210.5 -59q-119 0 -216 59.5t-150 170.5zM1528 627q6 111 -50.5 179t-168.5 68q-45 0 -91.5 -18t-87 -53t-73.5 -83t-51 -106zM881 455q0 98 -28 179t-83 136 q-47 47 -105.5 72.5t-129.5 25.5q-78 0 -141.5 -32.5t-108.5 -89t-71 -133t-26 -162.5q0 -205 117 -322q43 -43 101.5 -67.5t128.5 -24.5q76 0 140 32.5t109 89t71 133.5t26 163z" />
<glyph unicode="&#x154;" horiz-adv-x="1144" d="M997 92q6 -10 19 -12l129 -17l6 -63h-233l-82 141l-258 418h-103q-39 0 -70.5 1t-31.5 3v-471q0 -8 3 -9t7 -3l158 -17l6 -63h-457l6 63l158 17q4 2 7 3t3 9v1096q0 10 -10 12l-158 17l-6 63h512q104 0 181 -23.5t128.5 -65.5t76 -99.5t24.5 -122.5q0 -150 -88 -247 t-242 -144zM895 936q0 139 -88 211t-285 65l-149 -4v-567q0 -2 36.5 -5t84.5 -7q53 -4 120 -8q123 23 202 101.5t79 213.5zM471 1407h-43l207 362h160z" />
<glyph unicode="&#x155;" horiz-adv-x="688" d="M690 858q0 -31 -21.5 -54.5t-50.5 -23.5t-52 17.5t-27 42.5q-29 -16 -64 -49t-66.5 -72t-59 -79t-44.5 -71v-481q0 -12 8 -12l170 -13l6 -63h-434l6 63l140 13q8 0 8 12v723q0 14 -10 14l-160 17l6 51l260 43v-279h4q51 88 93 143.5t77 87.5t64.5 44t54.5 12 q47 0 69.5 -28.5t22.5 -57.5zM346 1034h-43l207 363h160z" />
<glyph unicode="&#x156;" horiz-adv-x="1144" d="M997 92q6 -10 19 -12l129 -17l6 -63h-233l-82 141l-258 418h-103q-39 0 -70.5 1t-31.5 3v-471q0 -8 3 -9t7 -3l158 -17l6 -63h-457l6 63l158 17q4 2 7 3t3 9v1096q0 10 -10 12l-158 17l-6 63h512q104 0 181 -23.5t128.5 -65.5t76 -99.5t24.5 -122.5q0 -150 -88 -247 t-242 -144zM895 936q0 139 -88 211t-285 65l-149 -4v-567q0 -2 36.5 -5t84.5 -7q53 -4 120 -8q123 23 202 101.5t79 213.5zM782 -250q0 -49 -18.5 -90t-49 -72.5t-68.5 -57.5t-77 -44l-22 27q59 33 96 74.5t37 113.5q0 33 -16.5 53.5t-35 32.5t-34.5 18.5t-16 8.5 q0 33 21.5 57.5t62.5 24.5q51 0 85.5 -43.5t34.5 -102.5z" />
<glyph unicode="&#x157;" horiz-adv-x="688" d="M690 858q0 -31 -21.5 -54.5t-50.5 -23.5t-52 17.5t-27 42.5q-29 -16 -64 -49t-66.5 -72t-59 -79t-44.5 -71v-481q0 -12 8 -12l170 -13l6 -63h-434l6 63l140 13q8 0 8 12v723q0 14 -10 14l-160 17l6 51l260 43v-279h4q51 88 93 143.5t77 87.5t64.5 44t54.5 12 q47 0 69.5 -28.5t22.5 -57.5zM391 -250q0 -49 -18.5 -90t-49 -72.5t-68.5 -57.5t-77 -44l-22 27q59 33 96 74.5t37 113.5q0 33 -16.5 53.5t-35 32.5t-35 18.5t-16.5 8.5q0 33 21.5 57.5t62.5 24.5q51 0 86 -43.5t35 -102.5z" />
<glyph unicode="&#x158;" horiz-adv-x="1144" d="M997 92q6 -10 19 -12l129 -17l6 -63h-233l-82 141l-258 418h-103q-39 0 -70.5 1t-31.5 3v-471q0 -8 3 -9t7 -3l158 -17l6 -63h-457l6 63l158 17q4 2 7 3t3 9v1096q0 10 -10 12l-158 17l-6 63h512q104 0 181 -23.5t128.5 -65.5t76 -99.5t24.5 -122.5q0 -150 -88 -247 t-242 -144zM895 936q0 139 -88 211t-285 65l-149 -4v-567q0 -2 36.5 -5t84.5 -7q53 -4 120 -8q123 23 202 101.5t79 213.5zM590 1407h-66l-248 424h54l225 -320h4q16 23 35 50q16 23 35.5 51t42.5 59l112 160h54z" />
<glyph unicode="&#x159;" horiz-adv-x="688" d="M690 858q0 -31 -21.5 -54.5t-50.5 -23.5t-52 17.5t-27 42.5q-29 -16 -64 -49t-66.5 -72t-59 -79t-44.5 -71v-481q0 -12 8 -12l170 -13l6 -63h-434l6 63l140 13q8 0 8 12v723q0 14 -10 14l-160 17l6 51l260 43v-279h4q51 88 93 143.5t77 87.5t64.5 44t54.5 12 q47 0 69.5 -28.5t22.5 -57.5zM418 1034h-66l-248 424h54l225 -319h4q16 23 35 49q16 23 35.5 51.5t42.5 58.5l112 160h54z" />
<glyph unicode="&#x15a;" horiz-adv-x="970" d="M905 334q0 -82 -32.5 -148.5t-92 -114.5t-140.5 -75t-179 -27q-92 0 -188.5 13.5t-159.5 29.5l-35 355h69l76 -287q23 -10 54.5 -17.5t65.5 -13.5t67.5 -9t64.5 -3q158 0 247 76.5t89 189.5q0 53 -15.5 94t-53 76t-103.5 67.5t-164 69.5q-88 31 -156.5 65t-115.5 75 t-72 94t-25 123q0 78 30 141t83 107.5t130 69t169 24.5q76 0 136.5 -7.5t88.5 -13.5l109 31v-391h-70l-43 260q-37 23 -106.5 39t-134.5 16q-74 0 -129.5 -20.5t-93 -54t-56 -77.5t-18.5 -94q0 -59 20.5 -102t62.5 -77t105.5 -63.5t149.5 -60.5q90 -33 158.5 -65.5 t114.5 -73.5t69.5 -94t23.5 -127zM436 1407h-43l207 362h160z" />
<glyph unicode="&#x15b;" horiz-adv-x="802" d="M707 248q0 -53 -20.5 -102.5t-62.5 -89.5t-108.5 -63.5t-159.5 -23.5q-59 0 -125.5 11.5t-119.5 29.5l-13 254h70l35 -190q39 -23 77.5 -34t96.5 -11q111 0 178.5 54t67.5 140q0 45 -19.5 77t-53.5 54.5t-77 39t-90 30.5q-51 16 -100.5 35.5t-88 49.5t-62 73t-23.5 106 q0 104 79.5 177t225.5 73q51 0 95 -8t85 -19l61 9l25 -277h-70l-35 191q-76 45 -182 45q-96 0 -148 -48.5t-52 -115.5q0 -45 20 -76t54 -53.5t77 -39t90 -30.5q51 -16 99.5 -36.5t87 -50.5t62.5 -74t24 -107zM352 1034h-43l207 363h160z" />
<glyph unicode="&#x15c;" horiz-adv-x="970" d="M905 334q0 -82 -32.5 -148.5t-92 -114.5t-140.5 -75t-179 -27q-92 0 -188.5 13.5t-159.5 29.5l-35 355h69l76 -287q23 -10 54.5 -17.5t65.5 -13.5t67.5 -9t64.5 -3q158 0 247 76.5t89 189.5q0 53 -15.5 94t-53 76t-103.5 67.5t-164 69.5q-88 31 -156.5 65t-115.5 75 t-72 94t-25 123q0 78 30 141t83 107.5t130 69t169 24.5q76 0 136.5 -7.5t88.5 -13.5l109 31v-391h-70l-43 260q-37 23 -106.5 39t-134.5 16q-74 0 -129.5 -20.5t-93 -54t-56 -77.5t-18.5 -94q0 -59 20.5 -102t62.5 -77t105.5 -63.5t149.5 -60.5q90 -33 158.5 -65.5 t114.5 -73.5t69.5 -94t23.5 -127zM713 1407q-63 90 -113 160q-23 29 -42 58.5t-36 51.5q-18 27 -35 49h-4l-225 -319h-53l248 424h65l248 -424h-53z" />
<glyph unicode="&#x15d;" horiz-adv-x="802" d="M707 248q0 -53 -20.5 -102.5t-62.5 -89.5t-108.5 -63.5t-159.5 -23.5q-59 0 -125.5 11.5t-119.5 29.5l-13 254h70l35 -190q39 -23 77.5 -34t96.5 -11q111 0 178.5 54t67.5 140q0 45 -19.5 77t-53.5 54.5t-77 39t-90 30.5q-51 16 -100.5 35.5t-88 49.5t-62 73t-23.5 106 q0 104 79.5 177t225.5 73q51 0 95 -8t85 -19l61 9l25 -277h-70l-35 191q-76 45 -182 45q-96 0 -148 -48.5t-52 -115.5q0 -45 20 -76t54 -53.5t77 -39t90 -30.5q51 -16 99.5 -36.5t87 -50.5t62.5 -74t24 -107zM639 1034q-63 90 -113 160q-23 29 -42 58.5t-35 52.5 q-18 27 -35 49h-4l-226 -320h-53l248 424h65l248 -424h-53z" />
<glyph unicode="&#x15e;" horiz-adv-x="970" d="M705 -299q0 -86 -95.5 -151.5t-296.5 -84.5l-12 37q166 25 243 71t77 122q0 49 -44.5 82t-132.5 33q-20 0 -46.5 -2.5t-53.5 -6.5v25l131 143h-14q-92 0 -188.5 13.5t-159.5 29.5l-35 355h69l76 -287q23 -10 54.5 -17.5t65.5 -13.5t67.5 -9t64.5 -3q158 0 247 76.5 t89 189.5q0 53 -15.5 94t-53 76t-103.5 67.5t-164 69.5q-88 31 -156.5 65t-115.5 75t-72 94t-25 123q0 78 30 141t83 107.5t130 69t169 24.5q76 0 136.5 -7.5t88.5 -13.5l109 31v-391h-70l-43 260q-37 23 -106.5 39t-134.5 16q-74 0 -129.5 -20.5t-93 -54t-56 -77.5 t-18.5 -94q0 -59 20.5 -102t62.5 -77t105.5 -63.5t149.5 -60.5q90 -33 158.5 -65.5t114.5 -73.5t69.5 -94t23.5 -127q0 -145 -99 -241.5t-261 -117.5l-96 -102q53 4 99 -6t81 -31.5t55.5 -55.5t20.5 -79z" />
<glyph unicode="&#x15f;" horiz-adv-x="802" d="M596 -299q0 -86 -95 -151.5t-296 -84.5l-12 37q166 25 242.5 71t76.5 122q0 49 -44 82t-132 33q-20 0 -47 -2.5t-53 -6.5v25l131 143h-11q-59 0 -125.5 11.5t-119.5 29.5l-13 254h70l35 -190q39 -23 77.5 -34t96.5 -11q111 0 178.5 54t67.5 140q0 45 -19.5 77t-53.5 54.5 t-77 39t-90 30.5q-51 16 -100.5 35.5t-88 49.5t-62 73t-23.5 106q0 104 79.5 177t225.5 73q51 0 95 -8t85 -19l61 9l25 -277h-70l-35 191q-76 45 -182 45q-96 0 -148 -48.5t-52 -115.5q0 -45 20 -76t54 -53.5t77 -39t90 -30.5q51 -16 99.5 -36.5t87 -50.5t62.5 -74t24 -107 q0 -47 -15.5 -91t-49.5 -82t-85 -64.5t-121 -35.5l-96 -102q53 4 99 -6t81 -31.5t55.5 -55.5t20.5 -79z" />
<glyph unicode="&#x160;" horiz-adv-x="970" d="M905 334q0 -82 -32.5 -148.5t-92 -114.5t-140.5 -75t-179 -27q-92 0 -188.5 13.5t-159.5 29.5l-35 355h69l76 -287q23 -10 54.5 -17.5t65.5 -13.5t67.5 -9t64.5 -3q158 0 247 76.5t89 189.5q0 53 -15.5 94t-53 76t-103.5 67.5t-164 69.5q-88 31 -156.5 65t-115.5 75 t-72 94t-25 123q0 78 30 141t83 107.5t130 69t169 24.5q76 0 136.5 -7.5t88.5 -13.5l109 31v-391h-70l-43 260q-37 23 -106.5 39t-134.5 16q-74 0 -129.5 -20.5t-93 -54t-56 -77.5t-18.5 -94q0 -59 20.5 -102t62.5 -77t105.5 -63.5t149.5 -60.5q90 -33 158.5 -65.5 t114.5 -73.5t69.5 -94t23.5 -127zM520 1407h-65l-248 424h53l225 -320h4q16 23 35 50q16 23 36 51t42 59q49 70 113 160h53z" />
<glyph unicode="&#x161;" horiz-adv-x="802" d="M707 248q0 -53 -20.5 -102.5t-62.5 -89.5t-108.5 -63.5t-159.5 -23.5q-59 0 -125.5 11.5t-119.5 29.5l-13 254h70l35 -190q39 -23 77.5 -34t96.5 -11q111 0 178.5 54t67.5 140q0 45 -19.5 77t-53.5 54.5t-77 39t-90 30.5q-51 16 -100.5 35.5t-88 49.5t-62 73t-23.5 106 q0 104 79.5 177t225.5 73q51 0 95 -8t85 -19l61 9l25 -277h-70l-35 191q-76 45 -182 45q-96 0 -148 -48.5t-52 -115.5q0 -45 20 -76t54 -53.5t77 -39t90 -30.5q51 -16 99.5 -36.5t87 -50.5t62.5 -74t24 -107zM422 1034h-66l-247 424h53l225 -319h4q16 23 35 49 q16 23 35.5 51.5t42.5 58.5l112 160h54z" />
<glyph unicode="&#x162;" horiz-adv-x="1222" d="M1083 903l-36 254q-4 18 -11.5 29.5t-39 17.5t-100.5 8t-194 2h-36v-1122q0 -8 3 -9t7 -3l178 -17l6 -63h-498l7 63l178 17q4 2 7 3t3 9v1122h-41q-125 0 -191.5 -2t-98 -8t-38 -17t-10.5 -30l-53 -250h-70l37 373h1057v-377h-66zM725 -250q0 -49 -18.5 -90t-49 -72.5 t-68.5 -57.5t-77 -44l-23 27q59 33 96.5 74.5t37.5 113.5q0 33 -16.5 53.5t-35 32.5t-35 18.5t-16.5 8.5q0 33 21.5 57.5t62.5 24.5q51 0 86 -43.5t35 -102.5z" />
<glyph unicode="&#x163;" horiz-adv-x="638" d="M592 47q-35 -27 -94.5 -52.5t-118.5 -25.5q-115 0 -165 54.5t-48 158.5l6 637l-156 6l7 54l149 24l14 170l82 -4l-2 -174h324l-15 -76h-309q-2 -174 -4 -309q-2 -59 -2 -114.5v-98.5q0 -51 -2 -96q-2 -78 28.5 -115t108.5 -37q47 0 92 16.5t88 38.5zM487 -258 q0 -49 -18 -90t-49 -73t-69 -57.5t-77 -43.5l-22 26q59 33 96 75t37 114q0 33 -16.5 53.5t-35 32.5t-34.5 18t-16 8q0 33 21.5 57.5t62.5 24.5q51 0 85.5 -43t34.5 -102z" />
<glyph unicode="&#x164;" horiz-adv-x="1222" d="M1083 903l-36 254q-4 18 -11.5 29.5t-39 17.5t-100.5 8t-194 2h-36v-1122q0 -8 3 -9t7 -3l178 -17l6 -63h-498l7 63l178 17q4 2 7 3t3 9v1122h-41q-125 0 -191.5 -2t-98 -8t-38 -17t-10.5 -30l-53 -250h-70l37 373h1057v-377h-66zM643 1407h-65l-248 424h53l225 -320h4 q16 23 35 50q16 23 35.5 51t42.5 59q49 70 113 160h53z" />
<glyph unicode="&#x165;" horiz-adv-x="669" d="M592 47q-35 -27 -94.5 -52.5t-118.5 -25.5q-115 0 -165 54.5t-48 158.5l6 637l-156 6l7 54l149 24l14 170l82 -4l-2 -174h324l-15 -76h-309q-2 -174 -4 -309q-2 -59 -2 -114.5v-98.5q0 -51 -2 -96q-2 -78 28.5 -115t108.5 -37q47 0 92 16.5t88 38.5zM623 1276 q0 -51 -19.5 -98.5t-52.5 -88t-73 -75.5t-79 -62l-24 29q66 49 103.5 104.5t37.5 131.5q0 35 -17.5 57t-37 36.5t-36.5 21.5t-17 9q0 31 17 55.5t62 24.5q59 0 97.5 -41t38.5 -104z" />
<glyph unicode="&#x16a;" horiz-adv-x="1443" d="M1382 1217l-182 -17q-10 0 -10 -12v-750q0 -113 -34 -199.5t-96.5 -147t-151.5 -91.5t-197 -31q-106 0 -194.5 25.5t-151 84t-97.5 154t-35 236.5v719q0 12 -10 12l-157 17l-7 63h457l-6 -63l-158 -17q-10 0 -10 -12v-756q0 -111 30.5 -185.5t85 -118.5t126 -62.5 t151.5 -18.5q100 0 171 31t116 83t65.5 120.5t20.5 142.5v764q0 12 -10 12l-178 17l-7 63h476zM485 1470l7 78h469l6 -78h-482z" />
<glyph unicode="&#x16b;" horiz-adv-x="1064" d="M1049 6l-271 -37v156h-10q-84 -68 -161 -111t-167 -43q-51 0 -98 16.5t-86 55.5q-35 35 -53.5 92.5t-18.5 128.5l2 555q0 12 -8 12l-149 13l-6 63h262l-4 -577q0 -78 16 -130.5t45 -83t68 -44t86 -13.5q39 0 78.5 13.5t76.5 34t70 46t57 50.5v616q0 12 -8 12l-149 13 l-7 63h260v-821q0 -10 1.5 -17.5t9.5 -7.5l170 -12zM254 1098l6 78h469l6 -78h-481z" />
<glyph unicode="&#x16c;" horiz-adv-x="1443" d="M1382 1217l-182 -17q-10 0 -10 -12v-750q0 -113 -34 -199.5t-96.5 -147t-151.5 -91.5t-197 -31q-106 0 -194.5 25.5t-151 84t-97.5 154t-35 236.5v719q0 12 -10 12l-157 17l-7 63h457l-6 -63l-158 -17q-10 0 -10 -12v-756q0 -111 30.5 -185.5t85 -118.5t126 -62.5 t151.5 -18.5q100 0 171 31t116 83t65.5 120.5t20.5 142.5v764q0 12 -10 12l-178 17l-7 63h476zM1001 1769q-14 -59 -33.5 -122.5t-51 -116.5t-78.5 -88t-117 -35t-117 35t-78.5 88t-51 116.5t-34.5 122.5h54q45 -158 100 -220t127 -62t127 62.5t100 219.5h53z" />
<glyph unicode="&#x16d;" horiz-adv-x="1064" d="M1049 6l-271 -37v156h-10q-84 -68 -161 -111t-167 -43q-51 0 -98 16.5t-86 55.5q-35 35 -53.5 92.5t-18.5 128.5l2 555q0 12 -8 12l-149 13l-6 63h262l-4 -577q0 -78 16 -130.5t45 -83t68 -44t86 -13.5q39 0 78.5 13.5t76.5 34t70 46t57 50.5v616q0 12 -8 12l-149 13 l-7 63h260v-821q0 -10 1.5 -17.5t9.5 -7.5l170 -12zM772 1397q-14 -59 -33.5 -123t-51.5 -117t-79 -88t-116 -35q-70 0 -117 35t-79 88t-51.5 116.5t-33.5 123.5h53q45 -158 100.5 -220.5t127.5 -62.5t127 62.5t100 220.5h53z" />
<glyph unicode="&#x16e;" horiz-adv-x="1443" d="M1382 1217l-182 -17q-10 0 -10 -12v-750q0 -113 -34 -199.5t-96.5 -147t-151.5 -91.5t-197 -31q-106 0 -194.5 25.5t-151 84t-97.5 154t-35 236.5v719q0 12 -10 12l-157 17l-7 63h457l-6 -63l-158 -17q-10 0 -10 -12v-756q0 -111 30.5 -185.5t85 -118.5t126 -62.5 t151.5 -18.5q100 0 171 31t116 83t65.5 120.5t20.5 142.5v764q0 12 -10 12l-178 17l-7 63h476zM928 1606q0 -76 -48.5 -130.5t-134.5 -54.5t-134 54.5t-48 130.5t48 130t134 54t134.5 -54t48.5 -130zM868 1606q0 53 -31.5 93t-91.5 40q-59 0 -90.5 -40t-31.5 -93t31.5 -93 t90.5 -40t91 40t32 93z" />
<glyph unicode="&#x16f;" horiz-adv-x="1064" d="M1049 6l-271 -37v156h-10q-84 -68 -161 -111t-167 -43q-51 0 -98 16.5t-86 55.5q-35 35 -53.5 92.5t-18.5 128.5l2 555q0 12 -8 12l-149 13l-6 63h262l-4 -577q0 -78 16 -130.5t45 -83t68 -44t86 -13.5q39 0 78.5 13.5t76.5 34t70 46t57 50.5v616q0 12 -8 12l-149 13 l-7 63h260v-821q0 -10 1.5 -17.5t9.5 -7.5l170 -12zM725 1233q0 -76 -48 -130t-134 -54t-134.5 54t-48.5 130t48.5 130t134.5 54t134 -54t48 -130zM666 1233q0 53 -32 93t-91 40t-91 -40t-32 -93t31.5 -93t91.5 -40q59 0 91 40t32 93z" />
<glyph unicode="&#x170;" horiz-adv-x="1443" d="M1382 1217l-182 -17q-10 0 -10 -12v-750q0 -113 -34 -199.5t-96.5 -147t-151.5 -91.5t-197 -31q-106 0 -194.5 25.5t-151 84t-97.5 154t-35 236.5v719q0 12 -10 12l-157 17l-7 63h457l-6 -63l-158 -17q-10 0 -10 -12v-756q0 -111 30.5 -185.5t85 -118.5t126 -62.5 t151.5 -18.5q100 0 171 31t116 83t65.5 120.5t20.5 142.5v764q0 12 -10 12l-178 17l-7 63h476zM545 1407h-45l180 362h141zM848 1407h-45l180 362h141z" />
<glyph unicode="&#x171;" horiz-adv-x="1064" d="M1049 6l-271 -37v156h-10q-84 -68 -161 -111t-167 -43q-51 0 -98 16.5t-86 55.5q-35 35 -53.5 92.5t-18.5 128.5l2 555q0 12 -8 12l-149 13l-6 63h262l-4 -577q0 -78 16 -130.5t45 -83t68 -44t86 -13.5q39 0 78.5 13.5t76.5 34t70 46t57 50.5v616q0 12 -8 12l-149 13 l-7 63h260v-821q0 -10 1.5 -17.5t9.5 -7.5l170 -12zM315 1034h-45l181 363h141zM618 1034h-45l181 363h141z" />
<glyph unicode="&#x172;" horiz-adv-x="1443" d="M868 -412q-66 0 -108.5 39t-42.5 115q0 68 39 130t92 112q-33 -6 -66.5 -10.5t-70.5 -4.5q-106 0 -194.5 25.5t-151 84t-97.5 154t-35 236.5v719q0 12 -10 12l-157 17l-7 63h457l-6 -63l-158 -17q-10 0 -10 -12v-756q0 -111 30.5 -185.5t85 -118.5t126 -62.5t151.5 -18.5 q100 0 171 31t116 83t65.5 120.5t20.5 142.5v764q0 12 -10 12l-178 17l-7 63h476l-7 -63l-182 -17q-10 0 -10 -12v-750q0 -154 -56.5 -253t-160.5 -165q-80 -51 -127 -119.5t-47 -129.5q0 -49 23.5 -83t66.5 -34q35 0 61.5 13.5t38.5 35.5l27 -22q-20 -37 -55.5 -65 t-92.5 -28z" />
<glyph unicode="&#x173;" horiz-adv-x="1064" d="M901 -412q-66 0 -112 40t-46 108q0 43 14.5 80t38 67.5t52.5 56t59 48.5l-129 -19v156h-10q-84 -68 -161 -111t-167 -43q-51 0 -98 16.5t-86 55.5q-35 35 -53.5 92.5t-18.5 128.5l2 555q0 12 -8 12l-149 13l-6 63h262l-4 -577q0 -78 16 -130.5t45 -83t68 -44t86 -13.5 q39 0 78.5 13.5t76.5 34t70 46t57 50.5v616q0 12 -8 12l-149 13l-7 63h260v-821q0 -10 1.5 -17.5t9.5 -7.5l170 -12l-6 -43q-96 -23 -159 -93.5t-63 -158.5q0 -47 26 -73.5t69 -26.5q35 0 61.5 13.5t38.5 35.5l27 -22q-20 -37 -55.5 -65t-92.5 -28z" />
<glyph unicode="&#x174;" horiz-adv-x="1845" d="M1860 1217l-138 -15q-8 0 -14 -14l-356 -1196h-107l-317 934h-2l-308 -934h-112l-369 1194q-4 14 -16 16l-139 15l-7 63h451l-6 -63l-154 -13q-6 0 -11 -4t-3 -10l323 -1088h3l307 940l-43 144q-4 14 -19 16l-143 15l-6 63h450l-6 -63l-157 -13q-16 0 -13 -14l359 -1088 h2l307 1082q4 14 -6 14l-158 19l-6 63h420zM1149 1407q-63 90 -113 160q-23 29 -42 58.5t-36 51.5q-18 27 -34 49h-4l-226 -319h-53l248 424h65l248 -424h-53z" />
<glyph unicode="&#x175;" horiz-adv-x="1382" d="M1403 844l-109 -15q-8 0 -14 -14l-264 -823h-105l-213 602l-229 -602h-104l-265 821q-4 14 -18 16l-102 15l-7 63h355l-6 -63l-113 -13q-14 -4 -12 -14l233 -737l229 612l-43 121q-4 14 -18 16l-102 15l-7 63h359l-6 -63l-115 -13q-14 -4 -12 -14l260 -737l223 731 q4 14 -6 14l-113 19l-6 63h336zM897 1034q-63 90 -113 160q-23 29 -42 58.5t-35 52.5q-18 27 -35 49h-4l-226 -320h-53l248 424h65l248 -424h-53z" />
<glyph unicode="&#x176;" horiz-adv-x="1222" d="M1219 1217l-136 -15q-14 -2 -22 -14l-395 -641v-455q0 -8 3 -9t7 -3l178 -17l6 -63h-498l7 63l178 17q4 2 7 3t3 9v451l-407 643q-8 12 -25 16l-127 15l-6 63h438l-6 -63l-145 -13q-18 0 -9 -18l344 -574h11l348 576q4 4 1 9t-7 5l-148 15l-6 63h412zM858 1407 q-63 90 -113 160q-23 29 -42 58.5t-35 51.5q-18 27 -35 49h-4l-226 -319h-53l248 424h66l247 -424h-53z" />
<glyph unicode="&#x177;" horiz-adv-x="892" d="M102 813q-4 14 -18 16l-100 15l-7 63h353l-6 -63l-109 -13q-16 0 -12 -14l276 -747l250 741q4 14 -6 14l-123 19l-6 63h336l-6 -63l-103 -15q-8 0 -14 -14l-279 -792l-88 -308q-37 -131 -94 -194.5t-149 -63.5q-53 0 -89 28t-36 69q0 39 22.5 63.5t63.5 24.5 q76 0 104 -99q33 14 63.5 70.5t55.5 142.5l53 183zM707 1034q-63 90 -113 160q-23 29 -42.5 58.5t-35.5 52.5q-18 27 -35 49h-4l-225 -320h-53l247 424h66l248 -424h-53z" />
<glyph unicode="&#x178;" horiz-adv-x="1222" d="M1219 1217l-136 -15q-14 -2 -22 -14l-395 -641v-455q0 -8 3 -9t7 -3l178 -17l6 -63h-498l7 63l178 17q4 2 7 3t3 9v451l-407 643q-8 12 -25 16l-127 15l-6 63h438l-6 -63l-145 -13q-18 0 -9 -18l344 -574h11l348 576q4 4 1 9t-7 5l-148 15l-6 63h412zM924 1516 q0 -39 -25 -71t-68 -32q-45 0 -70.5 32t-25.5 71t25.5 69.5t70.5 30.5q43 0 68 -30.5t25 -69.5zM516 1516q0 -39 -24.5 -71t-69.5 -32t-68.5 32t-23.5 71t23.5 69.5t68.5 30.5t69.5 -30.5t24.5 -69.5z" />
<glyph unicode="&#x179;" horiz-adv-x="1058" d="M983 0h-944v57l829 1155v2h-223q-162 0 -252 -2t-135 -8t-56.5 -17t-13.5 -30l-36 -223h-68v346h917v-61l-825 -1151v-2h201q184 0 286.5 2t152.5 8t63.5 17t17.5 30l57 254h72zM532 1407h-43l207 362h160z" />
<glyph unicode="&#x17a;" horiz-adv-x="841" d="M166 61h98q135 0 214 1t120 6.5t55.5 15.5t20.5 29l86 221h61l-82 -334h-694v49l617 797h-95q-135 0 -215 -2t-121 -7.5t-52 -15.5t-13 -26l-23 -228h-61v340h700v-49zM414 1034h-43l207 363h159z" />
<glyph unicode="&#x17b;" horiz-adv-x="1058" d="M983 0h-944v57l829 1155v2h-223q-162 0 -252 -2t-135 -8t-56.5 -17t-13.5 -30l-36 -223h-68v346h917v-61l-825 -1151v-2h201q184 0 286.5 2t152.5 8t63.5 17t17.5 30l57 254h72zM625 1587q0 -43 -28 -77.5t-77 -34.5t-75.5 34.5t-26.5 77.5t26.5 77t75.5 34t77 -34 t28 -77z" />
<glyph unicode="&#x17c;" horiz-adv-x="841" d="M166 61h98q135 0 214 1t120 6.5t55.5 15.5t20.5 29l86 221h61l-82 -334h-694v49l617 797h-95q-135 0 -215 -2t-121 -7.5t-52 -15.5t-13 -26l-23 -228h-61v340h700v-49zM532 1214q0 -43 -27.5 -77.5t-76.5 -34.5t-75.5 34.5t-26.5 77.5t26.5 77t75.5 34t76.5 -34t27.5 -77 z" />
<glyph unicode="&#x17d;" horiz-adv-x="1058" d="M983 0h-944v57l829 1155v2h-223q-162 0 -252 -2t-135 -8t-56.5 -17t-13.5 -30l-36 -223h-68v346h917v-61l-825 -1151v-2h201q184 0 286.5 2t152.5 8t63.5 17t17.5 30l57 254h72zM569 1407h-65l-248 424h53l226 -320h4q16 23 34 50q16 23 36 51t42 59q49 70 113 160h53z " />
<glyph unicode="&#x17e;" horiz-adv-x="841" d="M166 61h98q135 0 214 1t120 6.5t55.5 15.5t20.5 29l86 221h61l-82 -334h-694v49l617 797h-95q-135 0 -215 -2t-121 -7.5t-52 -15.5t-13 -26l-23 -228h-61v340h700v-49zM428 1034h-66l-247 424h53l225 -319h4q16 23 35 49q16 23 35.5 51.5t42.5 58.5q49 70 113 160h53z " />
<glyph unicode="&#x192;" horiz-adv-x="940" d="M913 1202q0 -37 -19.5 -62.5t-47.5 -25.5q-41 0 -65.5 28.5t-20.5 76.5l-121 -54q-16 -20 -30.5 -60t-29 -91t-27.5 -108.5t-26 -110.5h279l4 -78h-285q-6 -29 -15 -82t-22.5 -117.5t-31 -134.5t-38 -134.5t-45 -114.5t-50.5 -77q-45 -43 -95.5 -66.5t-93.5 -23.5 q-47 0 -81 32t-34 69q0 31 20.5 53t49.5 22q37 0 61.5 -29.5t28.5 -72.5l133 80q10 25 22.5 66.5t24 93t22.5 108.5t21 115l33 213l-178 4l6 55l187 31q35 166 78.5 260t90.5 141q33 33 85.5 58.5t99.5 25.5q43 0 76.5 -23.5t33.5 -66.5z" />
<glyph unicode="&#x1fa;" horiz-adv-x="1138" d="M530 1239q-55 20 -85.5 67.5t-30.5 106.5q0 76 48 130t134 54t134 -54t48 -130q0 -53 -25.5 -98t-72.5 -68l393 -1153q4 -14 19 -16l141 -15l6 -63h-455l7 63l155 13q16 0 12 14l-129 379h-489l-129 -377q-4 -14 6 -14l150 -15l6 -63h-406l6 63l138 15q8 0 14 14z M719 1413q0 53 -32 93t-91 40t-91 -40t-32 -93t32 -93t91 -40t91 40t32 93zM594 1180h-10l-217 -633h436zM483 1630h-43l207 363h160z" />
<glyph unicode="&#x1fb;" horiz-adv-x="874" d="M618 1233q0 -76 -48 -130t-134 -54t-134 54t-48 130t48 130t134 54t134 -54t48 -130zM895 80q-90 -109 -168 -109q-23 0 -45.5 8.5t-38.5 27t-24.5 48t-2.5 72.5h-8q-66 -66 -130 -112t-132 -46q-53 0 -100 16.5t-82 47t-55.5 74t-20.5 94.5q0 68 28.5 119t93 95t168 84 t255.5 81v18q6 147 -50.5 207.5t-181.5 60.5q-37 0 -70.5 -7t-59 -17.5t-40 -22.5t-14.5 -20t13.5 -24.5t13.5 -51.5q0 -29 -23.5 -51.5t-56.5 -22.5q-31 0 -55.5 17.5t-24.5 58.5q0 35 30.5 73t81 68.5t113 50t127.5 19.5q74 0 130.5 -16.5t93 -56.5t55 -107.5t14.5 -167.5 l-18 -488q-2 -31 9 -42t32 -11q20 0 49.5 21.5t58.5 52.5zM559 1233q0 53 -31.5 93t-91.5 40q-59 0 -91 -40t-32 -93t32 -93t91 -40t91 40t32 93zM629 518q-106 -31 -188.5 -60.5t-137.5 -63.5t-84 -78t-29 -101q0 -78 47.5 -120t124.5 -42q37 0 70 13.5t63.5 35t60.5 48 t60 53.5zM322 1477h-43l206 362h160z" />
<glyph unicode="&#x1fc;" horiz-adv-x="1652" d="M1534 0h-936l6 63l160 17q8 2 8 12v377h-414l-198 -373q-8 -14 6 -14l158 -19l6 -63h-443l7 63l141 15q4 0 11 7t11 15l605 1088q4 8 -0.5 10t-8.5 2l-164 17l-6 63h1049v-346h-62l-36 223q-4 18 -13.5 28.5t-52.5 16.5t-132 7t-251 1h-104v-522h131q76 0 119 1t63 4 t25.5 8.5t9.5 15.5l45 135h49l-39 -395h-49l-12 133q0 8 -4.5 15t-24.5 10t-63.5 5.5t-120.5 2.5h-129v-553h61q184 0 284.5 2t148.5 7t59.5 15t15.5 29l53 219h68zM772 1202h-14l-357 -655h371v655zM958 1407h-43l207 362h160z" />
<glyph unicode="&#x1fd;" horiz-adv-x="1464" d="M676 195q-33 -53 -75 -94.5t-87 -71t-90 -45t-82 -15.5q-111 0 -182.5 63.5t-71.5 168.5q0 66 28.5 117t93 96t168 85t255.5 81v18q6 147 -50.5 207.5t-181.5 60.5q-37 0 -70.5 -7t-59 -17.5t-40 -22.5t-14.5 -20t13.5 -24.5t13.5 -51.5q0 -29 -23.5 -51.5t-56.5 -22.5 q-31 0 -55.5 17.5t-24.5 58.5q0 35 30.5 73t81 68.5t113 50t127.5 19.5q246 0 285 -193q66 90 159 141.5t197 51.5q141 0 223 -78t82 -196q0 -31 -2 -59t-6 -44l-637 8q-4 -23 -6 -56.5t-2 -55.5q0 -84 24.5 -156t67.5 -125t104.5 -84t135.5 -31q174 0 291 168l41 -28 q-51 -104 -146.5 -163t-210.5 -59q-117 0 -212 57t-148 161zM1274 627q6 111 -50.5 179t-168.5 68q-45 0 -91 -18t-87 -53t-74 -83t-51 -106zM629 518q-104 -31 -186.5 -59.5t-138.5 -63.5t-85 -79t-29 -101q0 -78 47.5 -120t124.5 -42q74 0 147 44t144 147q-31 86 -30 188 q0 16 2 43t4 43zM713 1034h-43l207 363h159z" />
<glyph unicode="&#x1fe;" horiz-adv-x="1482" d="M1391 647q0 -135 -47.5 -257t-132.5 -215t-205.5 -148.5t-268.5 -55.5q-164 0 -303 70q-18 -31 -37.5 -64.5t-36.5 -62.5q-20 -35 -38 -66h-76q37 61 65 113q12 20 22.5 41t20.5 37q10 18 21 35q-129 84 -206 225t-77 332q0 135 47 258t133 216t207 148.5t269 55.5 q84 0 161.5 -18.5t145.5 -55.5l100 174h76l-119 -205q127 -86 203 -227.5t76 -329.5zM1010 1157q-125 78 -273 78q-104 0 -198.5 -39t-165 -113.5t-112.5 -183t-42 -246.5q0 -174 56.5 -298t148.5 -199zM1266 625q0 172 -55.5 294.5t-147.5 198.5q-166 -283 -293 -502 q-55 -94 -107.5 -183t-93.5 -161q-49 -82 -92 -155q59 -37 128 -55.5t140 -18.5q104 0 199.5 39t166.5 113.5t113 182.5t42 247zM702 1407h-43l207 362h160z" />
<glyph unicode="&#x1ff;" horiz-adv-x="1060" d="M801 850q84 -66 129 -168t45 -225q0 -96 -34 -184.5t-93.5 -156t-142 -107.5t-183.5 -40q-59 0 -109.5 13.5t-95.5 35.5l-98 -170h-76l121 203q-86 66 -132 170.5t-46 227.5q0 96 33 184t93 155.5t143 107.5t184 40q115 0 211 -51l100 172h70zM705 809q-41 31 -88.5 49.5 t-98.5 18.5q-145 0 -232 -109t-87 -301q0 -104 30.5 -186t83.5 -144zM862 438q0 207 -110 328l-392 -674q78 -63 183 -63q145 0 232 108t87 301zM483 1034h-43l207 363h160z" />
<glyph unicode="&#x218;" horiz-adv-x="970" d="M905 334q0 -82 -32.5 -148.5t-92 -114.5t-140.5 -75t-179 -27q-92 0 -188.5 13.5t-159.5 29.5l-35 355h69l76 -287q23 -10 54.5 -17.5t65.5 -13.5t67.5 -9t64.5 -3q158 0 247 76.5t89 189.5q0 53 -15.5 94t-53 76t-103.5 67.5t-164 69.5q-88 31 -156.5 65t-115.5 75 t-72 94t-25 123q0 78 30 141t83 107.5t130 69t169 24.5q76 0 136.5 -7.5t88.5 -13.5l109 31v-391h-70l-43 260q-37 23 -106.5 39t-134.5 16q-74 0 -129.5 -20.5t-93 -54t-56 -77.5t-18.5 -94q0 -59 20.5 -102t62.5 -77t105.5 -63.5t149.5 -60.5q90 -33 158.5 -65.5 t114.5 -73.5t69.5 -94t23.5 -127zM647 -250q0 -49 -18.5 -90t-49 -72.5t-68.5 -57.5t-77 -44l-22 27q59 33 96 74.5t37 113.5q0 33 -16.5 53.5t-35 32.5t-35 18.5t-16.5 8.5q0 33 21.5 57.5t62.5 24.5q51 0 86 -43.5t35 -102.5z" />
<glyph unicode="&#x219;" horiz-adv-x="802" d="M707 248q0 -53 -20.5 -102.5t-62.5 -89.5t-108.5 -63.5t-159.5 -23.5q-59 0 -125.5 11.5t-119.5 29.5l-13 254h70l35 -190q39 -23 77.5 -34t96.5 -11q111 0 178.5 54t67.5 140q0 45 -19.5 77t-53.5 54.5t-77 39t-90 30.5q-51 16 -100.5 35.5t-88 49.5t-62 73t-23.5 106 q0 104 79.5 177t225.5 73q51 0 95 -8t85 -19l61 9l25 -277h-70l-35 191q-76 45 -182 45q-96 0 -148 -48.5t-52 -115.5q0 -45 20 -76t54 -53.5t77 -39t90 -30.5q51 -16 99.5 -36.5t87 -50.5t62.5 -74t24 -107zM522 -250q0 -49 -18.5 -90t-49 -72.5t-68.5 -57.5t-77 -44 l-22 27q59 33 96 74.5t37 113.5q0 33 -16.5 53.5t-35 32.5t-35 18.5t-16.5 8.5q0 33 21.5 57.5t62.5 24.5q51 0 86 -43.5t35 -102.5z" />
<glyph unicode="&#x21a;" horiz-adv-x="1222" d="M1083 903l-36 254q-4 18 -11.5 29.5t-39 17.5t-100.5 8t-194 2h-36v-1122q0 -8 3 -9t7 -3l178 -17l6 -63h-498l7 63l178 17q4 2 7 3t3 9v1122h-41q-125 0 -191.5 -2t-98 -8t-38 -17t-10.5 -30l-53 -250h-70l37 373h1057v-377h-66zM725 -250q0 -49 -18.5 -90t-49 -72.5 t-68.5 -57.5t-77 -44l-23 27q59 33 96.5 74.5t37.5 113.5q0 33 -16.5 53.5t-35 32.5t-35 18.5t-16.5 8.5q0 33 21.5 57.5t62.5 24.5q51 0 86 -43.5t35 -102.5z" />
<glyph unicode="&#x21b;" horiz-adv-x="638" d="M592 47q-35 -27 -94.5 -52.5t-118.5 -25.5q-115 0 -165 54.5t-48 158.5l6 637l-156 6l7 54l149 24l14 170l82 -4l-2 -174h324l-15 -76h-309q-2 -174 -4 -309q-2 -59 -2 -114.5v-98.5q0 -51 -2 -96q-2 -78 28.5 -115t108.5 -37q47 0 92 16.5t88 38.5zM487 -258 q0 -49 -18 -90t-49 -73t-69 -57.5t-77 -43.5l-22 26q59 33 96 75t37 114q0 33 -16.5 53.5t-35 32.5t-34.5 18t-16 8q0 33 21.5 57.5t62.5 24.5q51 0 85.5 -43t34.5 -102z" />
<glyph unicode="&#x2c6;" horiz-adv-x="819" d="M637 1034q-63 90 -113 160q-23 29 -42 58.5t-36 52.5q-18 27 -34 49h-4l-226 -320h-53l248 424h65l248 -424h-53z" />
<glyph unicode="&#x2c7;" horiz-adv-x="819" d="M442 1034h-65l-248 424h53l226 -319h4q16 23 34 49q16 23 36 51.5t42 58.5q49 70 113 160h53z" />
<glyph unicode="&#x2d8;" horiz-adv-x="819" d="M690 1397q-14 -59 -33.5 -123t-51.5 -117t-79 -88t-116 -35q-70 0 -117 35t-79 88t-51.5 116.5t-33.5 123.5h53q45 -158 100.5 -220.5t127.5 -62.5t127 62.5t100 220.5h53v0z" />
<glyph unicode="&#x2d9;" horiz-adv-x="817" d="M512 1214q0 -43 -27.5 -77.5t-76.5 -34.5t-76 34.5t-27 77.5t26.5 77t76.5 34q49 0 76.5 -34t27.5 -77z" />
<glyph unicode="&#x2da;" horiz-adv-x="819" d="M592 1233q0 -76 -48 -130t-134 -54t-134.5 54t-48.5 130t48.5 130t134.5 54t134 -54t48 -130zM532 1233q0 53 -31.5 93t-90.5 40t-91 -40t-32 -93t31.5 -93t91.5 -40q59 0 90.5 40t31.5 93z" />
<glyph unicode="&#x2db;" horiz-adv-x="819" d="M449 -412q-66 0 -109 39t-43 115q0 47 20.5 93t53 87t71.5 75t76 56h64q-94 -63 -148.5 -137t-54.5 -145q0 -49 23.5 -83t66.5 -34q35 0 61.5 13.5t38.5 35.5l27 -22q-20 -37 -55 -65t-92 -28z" />
<glyph unicode="&#x2dc;" horiz-adv-x="819" d="M729 1278q-39 -213 -182 -213q-41 0 -81 22.5t-76 50t-67.5 50t-56.5 22.5q-20 0 -36.5 -5t-31 -19.5t-28.5 -41t-29 -69.5h-51q39 213 182 213q41 0 81 -22.5t77 -50t68.5 -50t54.5 -22.5q20 0 36.5 5t31 19.5t28 41t27.5 69.5h53v0z" />
<glyph unicode="&#x2dd;" horiz-adv-x="819" d="M496 1034h-45l180 363h141zM193 1034h-46l181 363h141z" />
<glyph unicode="&#x1e80;" horiz-adv-x="1845" d="M1860 1217l-138 -15q-8 0 -14 -14l-356 -1196h-107l-317 934h-2l-308 -934h-112l-369 1194q-4 14 -16 16l-139 15l-7 63h451l-6 -63l-154 -13q-6 0 -11 -4t-3 -10l323 -1088h3l307 940l-43 144q-4 14 -19 16l-143 15l-6 63h450l-6 -63l-157 -13q-16 0 -13 -14l359 -1088 h2l307 1082q4 14 -6 14l-158 19l-6 63h420zM944 1407l-323 362h159l207 -362h-43z" />
<glyph unicode="&#x1e81;" horiz-adv-x="1382" d="M1403 844l-109 -15q-8 0 -14 -14l-264 -823h-105l-213 602l-229 -602h-104l-265 821q-4 14 -18 16l-102 15l-7 63h355l-6 -63l-113 -13q-14 -4 -12 -14l233 -737l229 612l-43 121q-4 14 -18 16l-102 15l-7 63h359l-6 -63l-115 -13q-14 -4 -12 -14l260 -737l223 731 q4 14 -6 14l-113 19l-6 63h336zM731 1034l-323 363h159l207 -363h-43z" />
<glyph unicode="&#x1e82;" horiz-adv-x="1845" d="M1860 1217l-138 -15q-8 0 -14 -14l-356 -1196h-107l-317 934h-2l-308 -934h-112l-369 1194q-4 14 -16 16l-139 15l-7 63h451l-6 -63l-154 -13q-6 0 -11 -4t-3 -10l323 -1088h3l307 940l-43 144q-4 14 -19 16l-143 15l-6 63h450l-6 -63l-157 -13q-16 0 -13 -14l359 -1088 h2l307 1082q4 14 -6 14l-158 19l-6 63h420zM883 1407h-43l207 362h159z" />
<glyph unicode="&#x1e83;" horiz-adv-x="1382" d="M1403 844l-109 -15q-8 0 -14 -14l-264 -823h-105l-213 602l-229 -602h-104l-265 821q-4 14 -18 16l-102 15l-7 63h355l-6 -63l-113 -13q-14 -4 -12 -14l233 -737l229 612l-43 121q-4 14 -18 16l-102 15l-7 63h359l-6 -63l-115 -13q-14 -4 -12 -14l260 -737l223 731 q4 14 -6 14l-113 19l-6 63h336zM662 1034h-44l207 363h160z" />
<glyph unicode="&#x1e84;" horiz-adv-x="1845" d="M1860 1217l-138 -15q-8 0 -14 -14l-356 -1196h-107l-317 934h-2l-308 -934h-112l-369 1194q-4 14 -16 16l-139 15l-7 63h451l-6 -63l-154 -13q-6 0 -11 -4t-3 -10l323 -1088h3l307 940l-43 144q-4 14 -19 16l-143 15l-6 63h450l-6 -63l-157 -13q-16 0 -13 -14l359 -1088 h2l307 1082q4 14 -6 14l-158 19l-6 63h420zM1219 1546q0 -39 -25 -70.5t-68 -31.5q-45 0 -70.5 31.5t-25.5 70.5t25.5 70t70.5 31q43 0 68 -31t25 -70zM811 1546q0 -39 -24.5 -70.5t-69.5 -31.5t-68.5 31.5t-23.5 70.5t23.5 70t68.5 31t69.5 -31t24.5 -70z" />
<glyph unicode="&#x1e85;" horiz-adv-x="1382" d="M1403 844l-109 -15q-8 0 -14 -14l-264 -823h-105l-213 602l-229 -602h-104l-265 821q-4 14 -18 16l-102 15l-7 63h355l-6 -63l-113 -13q-14 -4 -12 -14l233 -737l229 612l-43 121q-4 14 -18 16l-102 15l-7 63h359l-6 -63l-115 -13q-14 -4 -12 -14l260 -737l223 731 q4 14 -6 14l-113 19l-6 63h336zM987 1174q0 -39 -24.5 -71t-67.5 -32q-45 0 -70.5 32t-25.5 71t25.5 69.5t70.5 30.5q43 0 67.5 -30.5t24.5 -69.5zM580 1174q0 -39 -25 -71t-70 -32t-68.5 32t-23.5 71t23.5 69.5t68.5 30.5t70 -30.5t25 -69.5z" />
<glyph unicode="&#x2000;" horiz-adv-x="996" />
<glyph unicode="&#x2001;" horiz-adv-x="1993" />
<glyph unicode="&#x2002;" horiz-adv-x="996" />
<glyph unicode="&#x2003;" horiz-adv-x="1993" />
<glyph unicode="&#x2004;" horiz-adv-x="664" />
<glyph unicode="&#x2005;" horiz-adv-x="498" />
<glyph unicode="&#x2006;" horiz-adv-x="332" />
<glyph unicode="&#x2007;" horiz-adv-x="332" />
<glyph unicode="&#x2008;" horiz-adv-x="249" />
<glyph unicode="&#x2009;" horiz-adv-x="155" />
<glyph unicode="&#x200a;" horiz-adv-x="110" />
<glyph unicode="&#x2010;" horiz-adv-x="671" d="M76 434l6 92h512l6 -92h-524z" />
<glyph unicode="&#x2011;" horiz-adv-x="671" d="M76 434l6 92h512l6 -92h-524z" />
<glyph unicode="&#x2012;" horiz-adv-x="671" d="M76 434l6 92h512l6 -92h-524z" />
<glyph unicode="&#x2013;" horiz-adv-x="962" d="M47 420l6 78h856l6 -78h-868z" />
<glyph unicode="&#x2014;" horiz-adv-x="1908" d="M47 420l6 78h1802l7 -78h-1815z" />
<glyph unicode="&#x2018;" horiz-adv-x="434" d="M336 911q0 -35 -20.5 -64.5t-73.5 -29.5q-72 0 -116 49t-44 123q0 59 23.5 114.5t61.5 102.5t85 88t94 74l27 -33q-76 -59 -121 -123.5t-45 -152.5q0 -41 20.5 -68.5t44 -44t44 -25t20.5 -10.5z" />
<glyph unicode="&#x2019;" horiz-adv-x="434" d="M352 1178q0 -59 -23.5 -114.5t-61.5 -103t-85 -88.5t-94 -73l-27 32q76 59 121 124t45 153q0 41 -20.5 67.5t-44 44t-44 25.5t-20.5 10q0 35 20.5 65t74.5 30q72 0 115.5 -49t43.5 -123z" />
<glyph unicode="&#x201a;" horiz-adv-x="434" d="M352 37q0 -59 -23.5 -114.5t-61.5 -102.5t-85 -88t-94 -74l-27 33q76 59 121 123.5t45 152.5q0 41 -20.5 67.5t-44 44t-44 26t-20.5 10.5q0 35 20.5 64.5t74.5 29.5q72 0 115.5 -49t43.5 -123z" />
<glyph unicode="&#x201c;" horiz-adv-x="823" d="M725 911q0 -35 -20.5 -64.5t-73.5 -29.5q-72 0 -116 49t-44 123q0 59 23.5 114.5t61.5 102.5t85 88t94 74l27 -33q-76 -59 -121 -123.5t-45 -152.5q0 -41 20.5 -68.5t44 -44t44 -25t20.5 -10.5zM336 911q0 -35 -20.5 -64.5t-73.5 -29.5q-72 0 -116 49t-44 123 q0 59 23.5 114.5t61.5 102.5t85 88t94 74l27 -33q-76 -59 -121 -123.5t-45 -152.5q0 -41 20.5 -68.5t44 -44t44 -25t20.5 -10.5z" />
<glyph unicode="&#x201d;" horiz-adv-x="823" d="M741 1178q0 -59 -23.5 -114.5t-61.5 -103t-85 -88.5t-94 -73l-26 32q76 59 120.5 124t44.5 153q0 41 -20.5 67.5t-44 44t-44 25.5t-20.5 10q0 35 20.5 65t74.5 30q72 0 115.5 -49t43.5 -123zM352 1178q0 -59 -23.5 -114.5t-61.5 -103t-85 -88.5t-94 -73l-27 32 q76 59 121 124t45 153q0 41 -20.5 67.5t-44 44t-44 25.5t-20.5 10q0 35 20.5 65t74.5 30q72 0 115.5 -49t43.5 -123z" />
<glyph unicode="&#x201e;" horiz-adv-x="823" d="M741 37q0 -59 -23.5 -114.5t-61.5 -102.5t-85 -88t-94 -74l-26 33q76 59 120.5 123.5t44.5 152.5q0 41 -20.5 67.5t-44 44t-44 26t-20.5 10.5q0 35 20.5 64.5t74.5 29.5q72 0 115.5 -49t43.5 -123zM352 37q0 -59 -23.5 -114.5t-61.5 -102.5t-85 -88t-94 -74l-27 33 q76 59 121 123.5t45 152.5q0 41 -20.5 67.5t-44 44t-44 26t-20.5 10.5q0 35 20.5 64.5t74.5 29.5q72 0 115.5 -49t43.5 -123z" />
<glyph unicode="&#x2020;" horiz-adv-x="962" d="M887 811h-369v-1130h-69v1130h-367l-8 74h375v395h69v-395h377z" />
<glyph unicode="&#x2021;" horiz-adv-x="962" d="M518 43v-362h-69v362h-375l8 74h367v725h-367l-8 73h375v365h69v-365h377l-8 -73h-369v-725h369l8 -74h-377z" />
<glyph unicode="&#x2022;" horiz-adv-x="931" d="M860 475q0 -23 -12 -63.5t-29.5 -83.5t-37 -80t-36.5 -53q-16 -16 -53 -36t-80 -37.5t-84 -29.5t-63 -12q-23 0 -63 12t-83 29.5t-79.5 37t-51.5 36.5q-16 16 -35.5 53t-38 80t-30.5 84t-12 63q0 23 12 63t30.5 83t38 79.5t35.5 53.5q14 14 52.5 34.5t81.5 38t82.5 29.5 t62.5 12t62.5 -12t82.5 -29.5t80 -38t53 -34.5q14 -16 35 -53t38.5 -80t29.5 -83t12 -63z" />
<glyph unicode="&#x2026;" horiz-adv-x="1314" d="M1198 74q0 -41 -27.5 -72t-74.5 -31t-75 32t-28 71t28 68.5t75 29.5t74.5 -29.5t27.5 -68.5zM760 74q0 -41 -27.5 -72t-75.5 -31q-47 0 -74.5 32t-27.5 71t27.5 68.5t74.5 29.5t75 -29.5t28 -68.5zM322 74q0 -41 -28 -72t-75 -31t-74.5 32t-27.5 71t27.5 68.5t74.5 29.5 t75 -29.5t28 -68.5z" />
<glyph unicode="&#x202f;" horiz-adv-x="398" />
<glyph unicode="&#x2030;" horiz-adv-x="2306" d="M715 987q0 -68 -23.5 -129t-67.5 -107t-106.5 -74t-142.5 -28q-78 0 -141.5 28t-107.5 74t-67.5 107.5t-23.5 128.5q0 70 23.5 132.5t67.5 108.5t107.5 73.5t141.5 27.5q80 0 142.5 -27.5t106.5 -73.5t67.5 -108.5t23.5 -132.5zM285 -31h-95l1057 1340h92zM2271 291 q0 -70 -23.5 -132.5t-67.5 -108.5t-107.5 -73.5t-141.5 -27.5q-80 0 -142.5 27.5t-106.5 73.5t-67.5 108.5t-23.5 132.5q0 68 23.5 129t67.5 107t106.5 74t142.5 28q78 0 141.5 -28t107.5 -74t67.5 -107t23.5 -129zM1493 291q0 -70 -23.5 -132.5t-67.5 -108.5t-107.5 -73.5 t-141.5 -27.5q-80 0 -142.5 27.5t-106.5 73.5t-67.5 108.5t-23.5 132.5q0 68 23.5 129t67.5 107t106.5 74t142.5 28q78 0 141.5 -28t107.5 -74t67.5 -107t23.5 -129zM631 987q0 55 -17.5 103.5t-50.5 85t-81 57t-107 20.5t-107.5 -20.5t-81 -57t-50 -85t-17.5 -103.5 q0 -51 17.5 -98t50 -84t80.5 -58.5t108 -21.5q59 0 107 21.5t81 58.5t50.5 84t17.5 98zM2187 291q0 51 -17.5 98t-50 84t-80.5 58.5t-108 21.5q-59 0 -107 -21.5t-81 -58.5t-50.5 -84t-17.5 -98q0 -55 17.5 -103.5t50.5 -85t81 -57t107 -20.5t107.5 20.5t81 57t50 85 t17.5 103.5zM1409 291q0 51 -17.5 98t-50 84t-81 58.5t-107.5 21.5t-107.5 -21.5t-81 -58.5t-50 -84t-17.5 -98q0 -55 17.5 -103.5t50 -85t81 -57t107.5 -20.5t107.5 20.5t81 57t50 85t17.5 103.5z" />
<glyph unicode="&#x2039;" horiz-adv-x="634" d="M516 94l-434 322v73l434 322l19 -41l-326 -317l326 -318z" />
<glyph unicode="&#x203a;" horiz-adv-x="634" d="M109 94l-19 41l326 318l-326 317l19 41l434 -322v-73z" />
<glyph unicode="&#x2044;" horiz-adv-x="1189" d="M121 -31h-101l1051 1340h98z" />
<glyph unicode="&#x205f;" horiz-adv-x="498" />
<glyph unicode="&#x2070;" horiz-adv-x="675" d="M336 543q-61 0 -115.5 26.5t-93.5 77.5t-61.5 124t-22.5 165q0 88 21.5 163t60.5 130t95 86t126 31q125 0 206 -104.5t81 -291.5q0 -86 -20.5 -160.5t-58.5 -130t-93 -86t-125 -30.5zM350 588q84 0 133 90t49 256q0 178 -50 272t-148 94q-86 0 -138.5 -90t-52.5 -256 q0 -174 54.5 -270t152.5 -96z" />
<glyph unicode="&#x2074;" horiz-adv-x="675" d="M410 795h-375l-6 43l405 508h64v-496h141l-8 -55h-133v-236h-88v236zM410 850v383h-7l-307 -383h314z" />
<glyph unicode="&#x2075;" horiz-adv-x="675" d="M250 541q-96 0 -142.5 31.5t-46.5 68.5q0 25 17.5 40t42.5 15q35 0 63.5 -25.5t34.5 -66.5q16 -10 36.5 -13t41.5 -3q90 0 143.5 57t53.5 135q0 88 -89.5 141.5t-289.5 75.5l82 328h387l-2 -86h-353l-43 -170q78 -8 150 -26.5t126 -49t86 -77t32 -107.5q0 -55 -26 -104.5 t-71 -86t-105 -57t-128 -20.5z" />
<glyph unicode="&#x2076;" horiz-adv-x="675" d="M342 539q-66 0 -118 23.5t-89 63.5t-56.5 93t-19.5 115q0 98 41 184t112 154.5t167 116.5t209 69l10 -35q-178 -47 -281.5 -143.5t-146.5 -231.5l4 -4q39 35 93.5 58.5t109.5 23.5t100 -18.5t77 -50t49.5 -73.5t17.5 -89q0 -59 -24 -106.5t-62.5 -80.5t-89 -51 t-103.5 -18zM358 578q78 0 125 55t47 129q0 96 -58 151.5t-134 55.5q-53 0 -97 -19.5t-73 -42.5q-4 -8 -7 -32.5t-3 -55.5q0 -45 14 -88t40 -76.5t62.5 -55t83.5 -21.5z" />
<glyph unicode="&#x2077;" horiz-adv-x="675" d="M557 1245v6h-256q-49 0 -77.5 -1t-45 -5t-24 -12t-11.5 -21q-8 -20 -14 -34q-4 -14 -9 -24.5t-5 -14.5h-43l26 194h533l6 -49l-399 -733h-74z" />
<glyph unicode="&#x2078;" horiz-adv-x="675" d="M322 537q-53 0 -99.5 15t-81.5 43t-55 64.5t-20 79.5q0 76 57 126t133 79v2q-70 33 -121 78t-51 117q0 39 18.5 75.5t53 66.5t85 48.5t113.5 18.5q49 0 91 -14.5t74 -41t50.5 -61.5t18.5 -76q0 -66 -46 -115t-118 -79v-2q37 -16 70.5 -36t59.5 -43.5t41 -54t15 -71.5 q0 -43 -19.5 -83t-57 -71t-90.5 -48t-121 -17zM389 977q53 33 82 73t29 97q0 66 -48.5 116t-129.5 50q-74 0 -115 -41t-41 -101q0 -37 18.5 -64.5t49 -50t70.5 -42t85 -37.5zM354 575q84 0 130 43.5t46 108.5q0 39 -20.5 68.5t-54 53t-76.5 43t-88 38.5q-53 -33 -94 -78 t-41 -104q0 -72 53 -122.5t145 -50.5z" />
<glyph unicode="&#x2079;" horiz-adv-x="675" d="M78 565q176 47 280.5 143.5t145.5 233.5l-2 2q-41 -35 -95.5 -57.5t-107.5 -22.5q-55 0 -100 18.5t-78 50.5t-50.5 73t-17.5 88q0 59 23.5 106t62.5 81t89.5 51.5t105.5 17.5q63 0 115.5 -23.5t89 -63.5t57 -94.5t20.5 -113.5q0 -98 -40.5 -184.5t-111.5 -155 t-168 -116.5t-208 -69zM338 920q53 0 96 19t72 42q4 8 8 32.5t4 57.5q0 45 -14.5 88t-40 77t-63.5 54.5t-85 20.5q-78 0 -124 -55.5t-46 -129.5q0 -94 57.5 -150t135.5 -56z" />
<glyph unicode="&#x207a;" horiz-adv-x="675" d="M381 918v-232h-55v232h-230l4 55h226v229h55v-229h225l2 -55h-227z" />
<glyph unicode="&#x207b;" horiz-adv-x="675" d="M102 911l2 68h506l4 -68h-512z" />
<glyph unicode="&#x2080;" horiz-adv-x="675" d="M336 -309q-61 0 -115.5 26.5t-93.5 77.5t-61.5 124t-22.5 165q0 88 21.5 163t60.5 130t95 86t126 31q125 0 206 -104.5t81 -291.5q0 -86 -20.5 -160.5t-58.5 -130t-93 -86t-125 -30.5zM350 -264q84 0 133 90t49 256q0 178 -50 272.5t-148 94.5q-86 0 -138.5 -90.5 t-52.5 -256.5q0 -174 54.5 -270t152.5 -96z" />
<glyph unicode="&#x2081;" horiz-adv-x="675" d="M131 -248l154 17q31 8 30 28v613l-198 10l4 35l280 41v-699q0 -27 31 -28l131 -17l4 -45h-440z" />
<glyph unicode="&#x2082;" horiz-adv-x="675" d="M45 -233q98 90 177 159.5t134.5 129t85 110.5t29.5 104q0 72 -46 111t-112 39q-74 0 -127 -29t-98 -96l-22 22q43 78 111.5 129.5t160.5 51.5q53 0 97 -16.5t76 -45t49.5 -66.5t17.5 -79q0 -66 -36 -122t-98.5 -114.5t-146.5 -124t-180 -149.5q2 -2 4 -2h10h14h103 q96 0 150.5 2t84 9t39.5 20.5t21 35.5l24 68h54l-35 -207h-537z" />
<glyph unicode="&#x2083;" horiz-adv-x="675" d="M233 -317q-78 0 -126 23.5t-48 64.5q0 25 17.5 39t44.5 14q35 0 63.5 -24.5t36.5 -65.5q10 -4 23.5 -4h23.5q47 0 87 14t70 40t46 59.5t16 72.5q0 74 -53 115t-125 41q-37 0 -73.5 -9.5t-65.5 -23.5l-14 31q55 31 107 58.5t91 57t61.5 60t22.5 65.5q0 109 -155 109 q-55 0 -106.5 -29t-94.5 -82l-23 23q47 66 113 116t158 50q90 0 152.5 -39t62.5 -113t-65.5 -126t-172.5 -101v-2q119 23 199 -24.5t82 -149.5q0 -49 -28 -96.5t-76 -83t-112.5 -58t-138.5 -22.5z" />
<glyph unicode="&#x2084;" horiz-adv-x="675" d="M410 -57h-375l-6 43l405 508h64v-496h141l-8 -55h-133v-236h-88v236zM410 -2v383h-7l-307 -383h314z" />
<glyph unicode="&#x2085;" horiz-adv-x="675" d="M250 -311q-96 0 -142.5 31.5t-46.5 68.5q0 25 17.5 40t42.5 15q35 0 63.5 -25.5t34.5 -66.5q16 -10 36.5 -13t41.5 -3q90 0 143.5 57t53.5 135q0 88 -89.5 141.5t-289.5 75.5l82 328h387l-2 -86h-353l-43 -170q78 -8 150 -26.5t126 -49t86 -77t32 -107.5 q0 -55 -26 -104.5t-71 -86t-105 -57t-128 -20.5z" />
<glyph unicode="&#x2086;" horiz-adv-x="675" d="M342 -313q-66 0 -118 23.5t-89 63.5t-56.5 93t-19.5 115q0 98 41 184t112 154.5t167 116.5t209 69l10 -35q-178 -47 -281.5 -143.5t-146.5 -231.5l4 -4q39 35 93.5 58.5t109.5 23.5t100 -18.5t77 -50t49.5 -73.5t17.5 -89q0 -59 -24 -106.5t-62.5 -80t-89 -51 t-103.5 -18.5zM358 -274q78 0 125 55t47 129q0 96 -58 151.5t-134 55.5q-53 0 -97 -19.5t-73 -42.5q-4 -8 -7 -32.5t-3 -55.5q0 -45 14 -88t40 -76.5t62.5 -55t83.5 -21.5z" />
<glyph unicode="&#x2087;" horiz-adv-x="675" d="M557 393v6h-256q-49 0 -77.5 -1t-45 -5t-24 -12t-11.5 -21q-8 -20 -14 -34q-4 -14 -9 -24.5t-5 -14.5h-43l26 194h533l6 -49l-399 -733h-74z" />
<glyph unicode="&#x2088;" horiz-adv-x="675" d="M322 -315q-53 0 -99.5 15t-81.5 43t-55 64.5t-20 79.5q0 76 57 126t133 79v2q-70 33 -121 78t-51 117q0 39 18.5 75.5t53 66.5t85 48.5t113.5 18.5q49 0 91 -14.5t74 -41t50.5 -61.5t18.5 -76q0 -66 -46 -115t-118 -79v-2q37 -16 70.5 -36t59.5 -43.5t41 -54t15 -71.5 q0 -43 -19.5 -83t-57 -71t-90.5 -48t-121 -17zM389 125q53 33 82 73t29 97q0 66 -48.5 116t-129.5 50q-74 0 -115 -41t-41 -101q0 -37 18.5 -64.5t49 -50t70.5 -42t85 -37.5zM354 -276q84 0 130 43t46 108q0 39 -20.5 68.5t-54 53t-76.5 43t-88 38.5q-53 -33 -94 -78 t-41 -104q0 -72 53 -122t145 -50z" />
<glyph unicode="&#x2089;" horiz-adv-x="675" d="M78 -287q176 47 280.5 143.5t145.5 233.5l-2 2q-41 -35 -95.5 -57.5t-107.5 -22.5q-55 0 -100 18.5t-78 50.5t-50.5 73t-17.5 88q0 59 23.5 106t62.5 81t89.5 51.5t105.5 17.5q63 0 115.5 -23.5t89 -63.5t57 -94.5t20.5 -113.5q0 -98 -40.5 -184.5t-111.5 -155 t-168 -116.5t-208 -69zM338 68q53 0 96 19t72 42q4 8 8 32.5t4 57.5q0 45 -14.5 88t-40 77t-63.5 54.5t-85 20.5q-78 0 -124 -55.5t-46 -129.5q0 -94 57.5 -150t135.5 -56z" />
<glyph unicode="&#x208a;" horiz-adv-x="675" d="M381 66v-232h-55v232h-230l4 55h226v229h55v-229h225l2 -55h-227z" />
<glyph unicode="&#x20ac;" horiz-adv-x="1015" d="M997 203q-59 -113 -155.5 -173.5t-216.5 -60.5q-82 0 -157 32t-135.5 92.5t-104.5 145.5t-66 189h-139l6 72h121q-6 57 -7 121v39.5t2 37.5h-122l6 72h125q18 111 60 204t107.5 160.5t151.5 104.5t193 37q68 0 123 -14.5t95 -38t62.5 -55t22.5 -64.5q0 -27 -19.5 -47.5 t-48.5 -20.5q-47 0 -73.5 41t-24.5 101q-25 20 -70 28t-92 8q-78 0 -142.5 -31.5t-112.5 -90t-80 -140.5t-44 -182h463l6 -72h-475q-2 -14 -2 -28.5v-30.5q0 -37 3 -72t7 -67h461l6 -72h-452q23 -94 62.5 -163.5t90.5 -117t107.5 -71t111.5 -23.5q104 0 179 50.5t126 121.5 l41 -22v0z" />
<glyph unicode="&#x2122;" horiz-adv-x="1835" d="M1481 518l4 55l121 11q6 0 6 10l-21 620h-16l-252 -671h-68l-215 676h-16l-25 -625q0 -10 7 -10l120 -11l4 -55h-321l6 55l121 11q6 0 6 10l23 610q0 10 -4 10l-123 11l-2 55h260l196 -621h17l227 621h260l-4 -55l-121 -11q-4 0 -4 -10l21 -610q0 -10 8 -10l121 -11 l6 -55h-342zM737 1038h-51l-22 144q-2 14 -7.5 22t-25 13.5t-57 7.5t-107.5 2h-21v-633q0 -10 7 -10l135 -11l4 -55h-371l4 55l135 11q6 0 7 10v633h-23q-68 0 -106.5 -2t-57 -6.5t-24.5 -13.5t-9 -21l-30 -146h-54l21 242h653v-242z" />
<glyph unicode="&#x25fc;" horiz-adv-x="911" d="M0 911h911v-911h-911v911z" />
<glyph horiz-adv-x="944" d="M899 1217l-158 -17q-4 -2 -7 -3t-3 -9v-752q0 -219 -101.5 -343t-283.5 -124q-74 0 -133 20.5t-100 52.5t-62.5 72t-21.5 76q0 51 29.5 78t64.5 27q43 0 66.5 -27.5t23.5 -64.5q0 -35 -13.5 -57.5t-29.5 -39.5q20 -27 59 -48t121 -21q123 0 198 95t75 296v760 q0 10 -11 12l-178 17l-6 63h477z" />
<glyph horiz-adv-x="944" d="M899 1217l-158 -17q-4 -2 -7 -3t-3 -9v-752q0 -219 -101.5 -343t-283.5 -124q-74 0 -133 20.5t-100 52.5t-62.5 72t-21.5 76q0 51 29.5 78t64.5 27q43 0 66.5 -27.5t23.5 -64.5q0 -35 -13.5 -57.5t-29.5 -39.5q20 -27 59 -48t121 -21q123 0 198 95t75 296v760 q0 10 -11 12l-178 17l-6 63h477zM903 1407l-112 160q-23 29 -42.5 58.5t-35.5 51.5q-18 27 -35 49h-4l-225 -319h-54l248 424h66l247 -424h-53z" />
<glyph horiz-adv-x="985" d="M567 0l6 63l150 15q4 0 10 4t4 10l-82 240h-352l-80 -240q-2 -6 4 -10t11 -4l129 -15l6 -63h-389l6 63l137 15q12 0 18 14l281 797v35l119 37l295 -869q6 -14 18 -14l137 -15l6 -63h-434zM485 854h-8l-149 -455h303z" />
<glyph horiz-adv-x="921" d="M834 256q0 -256 -367 -256h-383l6 51l107 15q6 2 10 3t4 9v784q0 10 -14 12l-107 15l-6 51h389q92 0 155.5 -17.5t102.5 -46t56.5 -66.5t17.5 -79q0 -90 -60.5 -155.5t-156.5 -81.5v-15q113 -16 179.5 -73.5t66.5 -149.5zM733 248q0 104 -79 154.5t-201 50.5h-144v-377 l156 -17l55 4q94 8 153.5 50.5t59.5 134.5zM705 698q0 92 -62.5 136.5t-198.5 44.5h-135v-367h166q106 0 168 56t62 130z" />
<glyph horiz-adv-x="991" d="M881 -10l-64 16q-43 -12 -112.5 -23.5t-129.5 -11.5q-104 0 -195 35t-156.5 97.5t-103.5 150.5t-38 195q0 113 37 209t103.5 164.5t158.5 107.5t203 39q66 0 118 -7.5t95 -17.5l114 25v-312h-61l-39 203q-31 14 -86 30.5t-152 16.5q-84 0 -154.5 -32.5t-122.5 -91 t-81 -139.5t-29 -177t28 -175t79 -137.5t125 -90t166 -31.5q70 0 122 13t85 30l63 200h66z" />
<glyph horiz-adv-x="1009" d="M954 481q0 -94 -33.5 -181t-101 -153.5t-170 -106.5t-239.5 -40h-365l6 63l150 13q8 0 8 12v764q0 12 -8 12l-150 13l-6 63l358 2q133 0 236.5 -34t173.5 -95t105.5 -146.5t35.5 -185.5zM848 455q0 197 -118 311.5t-347 114.5h-76v-801l142 -17q188 8 293.5 115 t105.5 277z" />
<glyph horiz-adv-x="919" d="M813 0h-768l6 63l150 13q8 0 8 12v764q0 12 -8 12l-150 13l-6 63h766v-272h-61l-27 157q-4 18 -13.5 28.5t-42 17t-97 7.5t-179.5 1h-84v-369h105q51 0 80.5 1t45 4t20.5 7t9 13l35 100h45l-29 -309h-47l-10 98q0 6 -3 11t-17.5 8t-45 5.5t-85.5 2.5h-103v-390h60 q129 0 200.5 2.5t107.5 7.5t46 15t14 29l39 153h66z" />
<glyph horiz-adv-x="870" d="M748 668l-29 157q-4 18 -12.5 28.5t-41 17t-98 7.5t-180.5 1h-80v-379h107q51 0 81.5 1t46 4t20.5 8t9 13l33 99h45l-28 -310h-46l-12 97q0 8 -4 14t-18.5 9t-44 4t-84.5 1h-105v-352q0 -12 8 -12l170 -13l7 -63h-447l6 63l150 13q8 0 8 12v764q0 12 -8 12l-150 13l-6 63 h762v-272h-59z" />
<glyph horiz-adv-x="1081" d="M1042 348l-143 -12q-8 0 -8 -12v-234l90 -6l4 -49q-92 -27 -202.5 -45.5t-202.5 -18.5q-109 0 -200 35t-156.5 97.5t-103.5 150.5t-38 195q0 113 37 209t103.5 164.5t158.5 107.5t203 39q66 0 117 -7.5t94 -17.5l110 25v-312h-61l-37 203q-29 14 -85 30.5t-153 16.5 q-84 0 -153.5 -32.5t-120.5 -91t-80 -139.5t-29 -177t28 -175t80 -137.5t126 -90t168 -31.5q61 0 114.5 12t92.5 25v254q0 12 -9 12l-168 12l-6 64h437z" />
<glyph horiz-adv-x="1132" d="M662 0l6 63l149 13q8 0 8 12v361h-518v-361q0 -12 8 -12l150 -13l6 -63h-426l6 63l150 13q8 0 8 12v764q0 12 -8 12l-150 13l-6 63h426l-6 -63l-150 -13q-8 0 -8 -12v-336h518v336q0 12 -8 12l-149 13l-6 63h425l-6 -63l-149 -13q-8 0 -8 -12v-764q0 -12 8 -12l149 -13 l6 -63h-425z" />
<glyph horiz-adv-x="581" d="M61 0l7 63l165 13q8 0 9 12v764q0 12 -9 12l-165 13l-7 63h459l-6 -63l-166 -13q-8 0 -8 -12v-764q0 -12 8 -12l166 -13l6 -63h-459z" />
<glyph horiz-adv-x="577" d="M553 877l-150 -13q-8 0 -8 -12v-518q0 -164 -65.5 -263.5t-194.5 -99.5q-66 0 -103.5 29t-37.5 68q0 29 17.5 46t43.5 17q18 0 32.5 -7t29.5 -20q27 -25 41 -75h10q72 18 100.5 85.5t28.5 202.5v535q0 12 -8 12l-166 13l-6 63h442z" />
<glyph horiz-adv-x="1052" d="M637 0l6 63l107 9q10 0 2 12l-301 403l-144 -137v-262q0 -12 8 -12l150 -13l6 -63h-426l6 63l150 13q8 0 8 12v764q0 12 -8 12l-150 13l-6 63h426l-6 -63l-150 -13q-8 0 -8 -12v-416l414 402q18 18 18 24t-10 6l-121 9l-6 63h399l-6 -63l-139 -11q-12 0 -29 -16 l-313 -301l356 -467q8 -8 17 -8l125 -11l6 -63h-381z" />
<glyph horiz-adv-x="858" d="M782 0h-737l6 63l150 13q8 0 8 12v764q0 12 -8 12l-150 13l-6 63h442l-6 -63l-166 -13q-8 0 -8 -12v-786h39q129 0 199.5 1t105.5 6t43 14t13 28l45 192h65z" />
<glyph horiz-adv-x="1255" d="M831 0l5 63l149 13q8 0 8 12l-24 772h-8l-324 -829h-72l-289 833h-8l-30 -776q0 -12 8 -12l149 -13l4 -63h-397l8 63l150 13q8 0 8 12l27 764q0 12 -7 12l-149 13l-4 63h313l268 -766h9l293 766h303l-4 -63l-150 -13q-6 0 -6 -12l26 -764q0 -12 9 -12l149 -13l8 -63h-422 z" />
<glyph horiz-adv-x="1159" d="M1118 877l-149 -13q-8 0 -8 -12v-860h-89l-585 856h-8v-760q0 -12 8 -12l149 -13l6 -63h-397l6 63l150 13q8 0 8 12v764q0 12 -8 12l-150 13l-6 63h289l549 -801h8v713q0 12 -8 12l-150 13l-6 63h397z" />
<glyph horiz-adv-x="1126" d="M1044 475q0 -100 -35.5 -191t-99 -161t-153.5 -111t-197 -41q-100 0 -187 35t-151.5 99.5t-101.5 155.5t-37 202q0 100 35 191t99.5 161t153.5 112t197 42q100 0 187.5 -36t152 -100.5t101 -155.5t36.5 -202zM938 459q0 109 -32 191.5t-84 140t-120.5 86t-142.5 28.5 t-140.5 -28.5t-116.5 -83t-81 -134t-31 -180.5q0 -109 31 -192.5t83 -140t120 -85t141 -28.5q74 0 141.5 28.5t119 83t82 133.5t30.5 181z" />
<glyph horiz-adv-x="868" d="M815 664q0 -66 -27.5 -120.5t-74.5 -93t-110.5 -60t-135.5 -21.5q-41 0 -86 1t-74 5v-287q0 -12 8 -12l170 -13l7 -63h-447l6 63l150 13q8 0 8 12v764q0 12 -8 12l-150 13l-6 63h389q98 0 170 -21.5t119 -59.5t69.5 -88t22.5 -107zM711 649q0 115 -76 174.5t-219 53.5 q-2 0 -18.5 -1.5t-37.5 -1.5h-53v-434q29 -6 74 -11t80 -5q123 0 186.5 60.5t63.5 164.5z" />
<glyph horiz-adv-x="1126" d="M1112 -250q-39 -8 -89 -15t-99 -7q-123 0 -209 53t-158 190q-100 0 -186 35t-150.5 99.5t-101.5 155.5t-37 202q0 100 35 191t99.5 161t153.5 112t197 42q100 0 187.5 -36t152 -100.5t101 -155.5t36.5 -202q0 -86 -26.5 -167t-75.5 -146.5t-118.5 -112.5t-155.5 -65 q35 -66 76.5 -104t94 -56.5t118 -20.5t151.5 9zM938 459q0 109 -32 191.5t-84 140t-120.5 86t-142.5 28.5t-140.5 -28.5t-116.5 -83t-81 -134t-31 -180.5q0 -109 31 -192.5t83 -140t120 -85t141 -28.5q74 0 141.5 28.5t119 83t82 133.5t30.5 181z" />
<glyph horiz-adv-x="946" d="M733 0l-65 106l-189 291l-172 4v-313q0 -12 8 -12l170 -13l7 -63h-447l6 63l150 13q8 0 8 12v764q0 12 -8 12l-150 13l-6 63h444q164 0 245 -69.5t81 -168.5q0 -106 -65.5 -176.5t-176.5 -107.5l226 -336q6 -8 16 -8l113 -11l6 -63h-201zM709 678q0 207 -279 199l-123 -5 v-401l170 -16q45 6 87 23.5t75 45t51.5 66.5t18.5 88z" />
<glyph horiz-adv-x="768" d="M692 244q0 -59 -23.5 -109.5t-67.5 -86.5t-105.5 -56.5t-137.5 -20.5q-72 0 -145.5 9.5t-122.5 23.5l-24 272h65l57 -210q35 -14 87.5 -23.5t95.5 -9.5q113 0 174 52t61 130q0 80 -53 128t-188 97q-61 23 -112.5 47.5t-86.5 56t-54.5 72.5t-19.5 95q0 113 83 185.5 t226 72.5q57 0 101.5 -5.5t70.5 -11.5l91 23v-299h-68l-37 190q-29 16 -78 28.5t-94 12.5q-104 0 -157.5 -50t-53.5 -118q0 -84 61.5 -130t180.5 -89q66 -25 117 -49.5t85.5 -56t53 -73.5t18.5 -97z" />
<glyph horiz-adv-x="958" d="M827 647l-28 176q-4 18 -10.5 28.5t-29 16.5t-70.5 8.5t-134 2.5h-25v-791q0 -12 9 -12l166 -13l6 -63h-459l6 63l166 13q8 0 8 12v791q0 4 -12 2t-17 -2q-84 0 -131 -2.5t-70.5 -8.5t-29.5 -16t-10 -27l-39 -178h-66l27 293h805v-293h-62z" />
<glyph horiz-adv-x="1103" d="M1063 877l-150 -13q-8 0 -8 -12v-533q0 -164 -98 -256t-264 -92q-80 0 -145.5 19.5t-111.5 63.5t-72 114t-26 170v514q0 12 -8 12l-149 13l-6 63h426l-7 -63l-149 -13q-8 0 -8 -12v-526q0 -80 21.5 -134.5t60.5 -87t89 -47t109 -14.5q70 0 121 21.5t84 59.5t48.5 88 t15.5 105v535q0 12 -9 12l-149 13l-6 63h397z" />
<glyph horiz-adv-x="989" d="M999 877l-137 -15q-12 0 -18 -14l-299 -854h-101l-299 854q-6 14 -18 14l-137 15l-6 63h434l-6 -63l-150 -15q-4 0 -10 -4t-4 -10l256 -762h8l258 762q2 6 -4 10t-10 4l-129 15l-6 63h385z" />
<glyph horiz-adv-x="1433" d="M1483 877l-137 -15q-12 0 -19 -14l-285 -854h-102l-213 672h-8l-223 -672h-103l-280 854q-6 14 -19 14l-137 15l-6 63h434l-6 -63l-150 -15q-4 0 -10 -4t-4 -10l238 -762h10l221 690l-25 72q-6 14 -18 14l-137 15l-6 63h434l-6 -63l-150 -15q-4 0 -10 -4t-4 -10l237 -762 h11l243 762q2 6 -4 10t-10 4l-129 15l-6 63h385z" />
<glyph horiz-adv-x="1058" d="M588 0l6 63l145 13q8 0 10.5 6t-1.5 12l-230 338h-2l-225 -336q-4 -4 -1 -9t7 -5l147 -19l7 -63h-414l6 63l135 15q14 2 23 14l272 379l-264 375q-8 12 -25 16l-127 15l-6 63h430l-6 -63l-147 -13q-8 0 -10.5 -6t1.5 -12l218 -320h2l217 322q4 4 1 9t-7 5l-152 15l-6 63 h416l-7 -63l-133 -15q-14 -2 -22 -14l-264 -367l280 -387q10 -14 25 -16l129 -15l6 -63h-434z" />
<glyph horiz-adv-x="921" d="M948 877l-135 -15q-14 -2 -22 -14l-281 -453v-307q0 -12 8 -12l166 -13l6 -63h-459l7 63l165 13q8 0 9 12v305l-285 453q-8 12 -25 16l-129 15l-6 63h436l-12 -63l-145 -13q-8 0 -10.5 -6t2.5 -12l231 -395h8l223 393q4 4 1 9t-7 5l-147 19l-6 63h413z" />
<glyph horiz-adv-x="864" d="M772 0h-713v57l619 820v2h-189q-111 0 -174 -2.5t-95 -8.5t-41 -17t-11 -30l-29 -155h-65v274h727v-59l-619 -815v-3h150q125 0 196.5 2.5t107.5 8.5t46 16t14 27l39 174h70z" />
<glyph horiz-adv-x="1536" d="M1460 244q0 -59 -23.5 -109.5t-67.5 -86.5t-105.5 -56.5t-137.5 -20.5q-72 0 -145.5 9.5t-122.5 23.5l-24 272h65l57 -210q35 -14 87.5 -23.5t95.5 -9.5q113 0 174 52t61 130q0 80 -53 128t-188 97q-61 23 -112.5 47.5t-86.5 56t-54.5 72.5t-19.5 95q0 113 83 185.5 t226 72.5q57 0 101.5 -5.5t70.5 -11.5l91 23v-299h-68l-37 190q-29 16 -78 28.5t-94 12.5q-104 0 -157.5 -50t-53.5 -118q0 -84 61.5 -130t180.5 -89q66 -25 117 -49.5t85.5 -56t53 -73.5t18.5 -97zM692 244q0 -59 -23.5 -109.5t-67.5 -86.5t-105.5 -56.5t-137.5 -20.5 q-72 0 -145.5 9.5t-122.5 23.5l-24 272h65l57 -210q35 -14 87.5 -23.5t95.5 -9.5q113 0 174 52t61 130q0 80 -53 128t-188 97q-61 23 -112.5 47.5t-86.5 56t-54.5 72.5t-19.5 95q0 113 83 185.5t226 72.5q57 0 101.5 -5.5t70.5 -11.5l91 23v-299h-68l-37 190 q-29 16 -78 28.5t-94 12.5q-104 0 -157.5 -50t-53.5 -118q0 -84 61.5 -130t180.5 -89q66 -25 117 -49.5t85.5 -56t53 -73.5t18.5 -97z" />
<glyph horiz-adv-x="985" d="M567 0l6 63l150 15q4 0 10 4t4 10l-82 240h-352l-80 -240q-2 -6 4 -10t11 -4l129 -15l6 -63h-389l6 63l137 15q12 0 18 14l281 797v35l119 37l295 -869q6 -14 18 -14l137 -15l6 -63h-434zM485 854h-8l-149 -455h303zM502 1034l-324 363h160l207 -363h-43z" />
<glyph horiz-adv-x="985" d="M567 0l6 63l150 15q4 0 10 4t4 10l-82 240h-352l-80 -240q-2 -6 4 -10t11 -4l129 -15l6 -63h-389l6 63l137 15q12 0 18 14l281 797v35l119 37l295 -869q6 -14 18 -14l137 -15l6 -63h-434zM485 854h-8l-149 -455h303zM459 1034h-43l207 363h159z" />
<glyph horiz-adv-x="985" d="M567 0l6 63l150 15q4 0 10 4t4 10l-82 240h-352l-80 -240q-2 -6 4 -10t11 -4l129 -15l6 -63h-389l6 63l137 15q12 0 18 14l281 797v35l119 37l295 -869q6 -14 18 -14l137 -15l6 -63h-434zM485 854h-8l-149 -455h303zM711 1034q-63 90 -113 160q-23 29 -42 58.5t-36 52.5 q-18 27 -35 49h-4l-225 -320h-53l248 424h65l248 -424h-53z" />
<glyph horiz-adv-x="985" d="M567 0l6 63l150 15q4 0 10 4t4 10l-82 240h-352l-80 -240q-2 -6 4 -10t11 -4l129 -15l6 -63h-389l6 63l137 15q12 0 18 14l281 797v35l119 37l295 -869q6 -14 18 -14l137 -15l6 -63h-434zM485 854h-8l-149 -455h303zM817 1278q-39 -213 -182 -213q-41 0 -81 22.5t-76 50 t-67.5 50t-56.5 22.5q-20 0 -36.5 -5t-31 -19.5t-28.5 -41t-29 -69.5h-51q39 213 182 213q41 0 81 -22.5t77 -50t68.5 -50t54.5 -22.5q20 0 36.5 5t31 19.5t28 41t27.5 69.5h53z" />
<glyph horiz-adv-x="985" d="M567 0l6 63l150 15q4 0 10 4t4 10l-82 240h-352l-80 -240q-2 -6 4 -10t11 -4l129 -15l6 -63h-389l6 63l137 15q12 0 18 14l281 797v35l119 37l295 -869q6 -14 18 -14l137 -15l6 -63h-434zM485 854h-8l-149 -455h303zM791 1174q0 -39 -25 -71t-68 -32q-45 0 -70.5 32 t-25.5 71t25.5 69.5t70.5 30.5q43 0 68 -30.5t25 -69.5zM383 1174q0 -39 -24.5 -71t-69.5 -32t-68.5 32t-23.5 71t23.5 69.5t68.5 30.5t69.5 -30.5t24.5 -69.5z" />
<glyph horiz-adv-x="985" d="M430 899q-57 18 -88 66.5t-31 107.5q0 76 48.5 130t134.5 54t134 -54t48 -130q0 -57 -29 -103t-82 -69l275 -809q6 -14 18 -14l137 -15l6 -63h-434l6 63l150 15q4 0 10 4t4 10l-82 240h-352l-80 -240q-2 -6 4 -10t11 -4l129 -15l6 -63h-389l6 63l137 15q12 0 18 14z M616 1073q0 53 -31.5 93t-90.5 40t-91 -40t-32 -93t31.5 -93t91.5 -40q59 0 90.5 40t31.5 93zM485 854h-8l-149 -455h303z" />
<glyph horiz-adv-x="985" d="M430 899q-57 18 -88 66.5t-31 107.5q0 76 48.5 130t134.5 54t134 -54t48 -130q0 -57 -29 -103t-82 -69l275 -809q6 -14 18 -14l137 -15l6 -63h-434l6 63l150 15q4 0 10 4t4 10l-82 240h-352l-80 -240q-2 -6 4 -10t11 -4l129 -15l6 -63h-389l6 63l137 15q12 0 18 14z M616 1073q0 53 -31.5 93t-90.5 40t-91 -40t-32 -93t31.5 -93t91.5 -40q59 0 90.5 40t31.5 93zM485 854h-8l-149 -455h303zM440 1296h-43l207 363h160z" />
<glyph horiz-adv-x="985" d="M567 0l6 63l150 15q4 0 10 4t4 10l-82 240h-352l-80 -240q-2 -6 4 -10t11 -4l129 -15l6 -63h-389l6 63l137 15q12 0 18 14l281 797v35l119 37l295 -869q6 -14 18 -14l137 -15l6 -63h-434zM485 854h-8l-149 -455h303zM254 1098l6 78h469l6 -78h-481z" />
<glyph horiz-adv-x="985" d="M567 0l6 63l150 15q4 0 10 4t4 10l-82 240h-352l-80 -240q-2 -6 4 -10t11 -4l129 -15l6 -63h-389l6 63l137 15q12 0 18 14l281 797v35l119 37l295 -869q6 -14 18 -14l137 -15l6 -63h-434zM485 854h-8l-149 -455h303zM772 1397q-14 -59 -33.5 -123t-51.5 -117t-79 -88 t-116 -35q-70 0 -117 35t-79 88t-51.5 116.5t-33.5 123.5h53q45 -158 100.5 -220.5t127.5 -62.5t127 62.5t100 220.5h53z" />
<glyph horiz-adv-x="985" d="M854 -412q-66 0 -110 35t-44 109q0 43 18.5 84t46.5 75.5t62.5 63.5t65.5 45h-326l6 63l150 15q4 0 10 4t4 10l-82 240h-352l-80 -240q-2 -6 4 -10t11 -4l129 -15l6 -63h-389l6 63l137 15q12 0 18 14l281 797v35l119 37l295 -869q6 -14 18 -14l137 -15l6 -63 q-39 -10 -77.5 -34.5t-70.5 -57.5t-51.5 -71t-19.5 -77q0 -51 19.5 -78.5t72.5 -27.5q35 0 61 13.5t38 35.5l26 -22q-20 -37 -54 -65t-91 -28zM485 854h-8l-149 -455h303z" />
<glyph horiz-adv-x="1386" d="M1280 0h-768l6 63l150 13q8 0 8 12v244h-322l-135 -240q-4 -4 -1 -11t11 -7l131 -11l7 -63h-383l6 63l125 11q10 0 16 6t10 12l428 752q4 8 4 14t-4 6l-149 13l-4 63h862v-272h-61l-27 157q-4 18 -13.5 28.5t-42 17t-97 7.5t-179.5 1h-84v-369h105q51 0 80.5 1t45 4 t20.5 7t9 13l35 100h45l-29 -309h-47l-10 98q0 6 -3 11t-17.5 8t-45 5.5t-85.5 2.5h-103v-390h60q129 0 200.5 2.5t107.5 7.5t46 15t14 29l39 153h66zM676 881h-10l-273 -482h283v482z" />
<glyph horiz-adv-x="1386" d="M1280 0h-768l6 63l150 13q8 0 8 12v244h-322l-135 -240q-4 -4 -1 -11t11 -7l131 -11l7 -63h-383l6 63l125 11q10 0 16 6t10 12l428 752q4 8 4 14t-4 6l-149 13l-4 63h862v-272h-61l-27 157q-4 18 -13.5 28.5t-42 17t-97 7.5t-179.5 1h-84v-369h105q51 0 80.5 1t45 4 t20.5 7t9 13l35 100h45l-29 -309h-47l-10 98q0 6 -3 11t-17.5 8t-45 5.5t-85.5 2.5h-103v-390h60q129 0 200.5 2.5t107.5 7.5t46 15t14 29l39 153h66zM676 881h-10l-273 -482h283v482zM838 1034h-43l206 363h160z" />
<glyph horiz-adv-x="991" d="M539 -27q-98 6 -182.5 42t-144.5 98.5t-95 147.5t-35 188q0 113 37 209t103.5 164.5t158.5 107.5t203 39q66 0 118 -7.5t95 -17.5l114 25v-312h-61l-39 203q-31 14 -86 30.5t-152 16.5q-84 0 -154.5 -32.5t-122.5 -91t-81 -139.5t-29 -177t28 -175t79 -137.5t125 -90 t166 -31.5q70 0 122 13t85 30l63 200h66l-39 -286l-64 16q-39 -10 -98.5 -20.5t-116.5 -14.5l-94 -98q53 4 99 -6t81 -31.5t55.5 -55.5t20.5 -79q0 -86 -95.5 -151.5t-295.5 -84.5l-13 37q166 25 243 71t77 122q0 49 -44 82t-132 33q-20 0 -47 -2.5t-54 -6.5v25l136 147v0z " />
<glyph horiz-adv-x="991" d="M881 -10l-64 16q-43 -12 -112.5 -23.5t-129.5 -11.5q-104 0 -195 35t-156.5 97.5t-103.5 150.5t-38 195q0 113 37 209t103.5 164.5t158.5 107.5t203 39q66 0 118 -7.5t95 -17.5l114 25v-312h-61l-39 203q-31 14 -86 30.5t-152 16.5q-84 0 -154.5 -32.5t-122.5 -91 t-81 -139.5t-29 -177t28 -175t79 -137.5t125 -90t166 -31.5q70 0 122 13t85 30l63 200h66zM498 1034h-43l207 363h159z" />
<glyph horiz-adv-x="991" d="M881 -10l-64 16q-43 -12 -112.5 -23.5t-129.5 -11.5q-104 0 -195 35t-156.5 97.5t-103.5 150.5t-38 195q0 113 37 209t103.5 164.5t158.5 107.5t203 39q66 0 118 -7.5t95 -17.5l114 25v-312h-61l-39 203q-31 14 -86 30.5t-152 16.5q-84 0 -154.5 -32.5t-122.5 -91 t-81 -139.5t-29 -177t28 -175t79 -137.5t125 -90t166 -31.5q70 0 122 13t85 30l63 200h66zM784 1034l-112 160q-23 29 -42.5 58.5t-35.5 52.5q-18 27 -35 49h-4l-225 -320h-54l248 424h66l248 -424h-54z" />
<glyph horiz-adv-x="991" d="M881 -10l-64 16q-43 -12 -112.5 -23.5t-129.5 -11.5q-104 0 -195 35t-156.5 97.5t-103.5 150.5t-38 195q0 113 37 209t103.5 164.5t158.5 107.5t203 39q66 0 118 -7.5t95 -17.5l114 25v-312h-61l-39 203q-31 14 -86 30.5t-152 16.5q-84 0 -154.5 -32.5t-122.5 -91 t-81 -139.5t-29 -177t28 -175t79 -137.5t125 -90t166 -31.5q70 0 122 13t85 30l63 200h66zM690 1214q0 -43 -27.5 -77.5t-76.5 -34.5t-76 34.5t-27 77.5t27 77t76 34t76.5 -34t27.5 -77z" />
<glyph horiz-adv-x="991" d="M881 -10l-64 16q-43 -12 -112.5 -23.5t-129.5 -11.5q-104 0 -195 35t-156.5 97.5t-103.5 150.5t-38 195q0 113 37 209t103.5 164.5t158.5 107.5t203 39q66 0 118 -7.5t95 -17.5l114 25v-312h-61l-39 203q-31 14 -86 30.5t-152 16.5q-84 0 -154.5 -32.5t-122.5 -91 t-81 -139.5t-29 -177t28 -175t79 -137.5t125 -90t166 -31.5q70 0 122 13t85 30l63 200h66zM610 1034h-65l-248 424h53l225 -319h5q16 23 34 49q16 23 36 51.5t42 58.5q49 70 113 160h53z" />
<glyph horiz-adv-x="1009" d="M954 481q0 -94 -33.5 -181t-101 -153.5t-170 -106.5t-239.5 -40h-365l6 63l150 13q8 0 8 12v764q0 12 -8 12l-150 13l-6 63l358 2q133 0 236.5 -34t173.5 -95t105.5 -146.5t35.5 -185.5zM848 455q0 197 -118 311.5t-347 114.5h-76v-801l142 -17q188 8 293.5 115 t105.5 277zM516 1034h-65l-248 424h53l225 -319h4q16 23 35 49q16 23 35.5 51.5t42.5 58.5q49 70 113 160h53z" />
<glyph horiz-adv-x="1030" d="M68 444l6 72h155v336q0 12 -8 12l-149 13l-6 63l358 2q133 0 236.5 -34t173 -95t105.5 -146t36 -186q0 -94 -34 -181t-101.5 -153.5t-170 -106.5t-239.5 -40h-364l6 63l149 13q8 0 8 12v356h-161zM559 516l6 -72h-237v-364l141 -17q188 8 293.5 115t105.5 277 q0 197 -117.5 311.5t-347.5 114.5h-75v-365h231z" />
<glyph horiz-adv-x="1030" d="M68 444l6 72h155v336q0 12 -8 12l-149 13l-6 63l358 2q133 0 236.5 -34t173 -95t105.5 -146t36 -186q0 -94 -34 -181t-101.5 -153.5t-170 -106.5t-239.5 -40h-364l6 63l149 13q8 0 8 12v356h-161zM559 516l6 -72h-237v-364l141 -17q188 8 293.5 115t105.5 277 q0 197 -117.5 311.5t-347.5 114.5h-75v-365h231z" />
<glyph horiz-adv-x="919" d="M813 0h-768l6 63l150 13q8 0 8 12v764q0 12 -8 12l-150 13l-6 63h766v-272h-61l-27 157q-4 18 -13.5 28.5t-42 17t-97 7.5t-179.5 1h-84v-369h105q51 0 80.5 1t45 4t20.5 7t9 13l35 100h45l-29 -309h-47l-10 98q0 6 -3 11t-17.5 8t-45 5.5t-85.5 2.5h-103v-390h60 q129 0 200.5 2.5t107.5 7.5t46 15t14 29l39 153h66zM489 1034l-323 363h160l206 -363h-43z" />
<glyph horiz-adv-x="919" d="M813 0h-768l6 63l150 13q8 0 8 12v764q0 12 -8 12l-150 13l-6 63h766v-272h-61l-27 157q-4 18 -13.5 28.5t-42 17t-97 7.5t-179.5 1h-84v-369h105q51 0 80.5 1t45 4t20.5 7t9 13l35 100h45l-29 -309h-47l-10 98q0 6 -3 11t-17.5 8t-45 5.5t-85.5 2.5h-103v-390h60 q129 0 200.5 2.5t107.5 7.5t46 15t14 29l39 153h66zM438 1034h-43l207 363h160z" />
<glyph horiz-adv-x="919" d="M813 0h-768l6 63l150 13q8 0 8 12v764q0 12 -8 12l-150 13l-6 63h766v-272h-61l-27 157q-4 18 -13.5 28.5t-42 17t-97 7.5t-179.5 1h-84v-369h105q51 0 80.5 1t45 4t20.5 7t9 13l35 100h45l-29 -309h-47l-10 98q0 6 -3 11t-17.5 8t-45 5.5t-85.5 2.5h-103v-390h60 q129 0 200.5 2.5t107.5 7.5t46 15t14 29l39 153h66zM674 1034q-63 90 -113 160q-23 29 -42 58.5t-36 52.5q-18 27 -34 49h-5l-225 -320h-53l248 424h65l248 -424h-53z" />
<glyph horiz-adv-x="919" d="M813 0h-768l6 63l150 13q8 0 8 12v764q0 12 -8 12l-150 13l-6 63h766v-272h-61l-27 157q-4 18 -13.5 28.5t-42 17t-97 7.5t-179.5 1h-84v-369h105q51 0 80.5 1t45 4t20.5 7t9 13l35 100h45l-29 -309h-47l-10 98q0 6 -3 11t-17.5 8t-45 5.5t-85.5 2.5h-103v-390h60 q129 0 200.5 2.5t107.5 7.5t46 15t14 29l39 153h66zM743 1174q0 -39 -24.5 -71t-67.5 -32q-45 0 -70.5 32t-25.5 71t25.5 69.5t70.5 30.5q43 0 67.5 -30.5t24.5 -69.5zM336 1174q0 -39 -24.5 -71t-69.5 -32t-68.5 32t-23.5 71t23.5 69.5t68.5 30.5t69.5 -30.5t24.5 -69.5z " />
<glyph horiz-adv-x="919" d="M813 0h-768l6 63l150 13q8 0 8 12v764q0 12 -8 12l-150 13l-6 63h766v-272h-61l-27 157q-4 18 -13.5 28.5t-42 17t-97 7.5t-179.5 1h-84v-369h105q51 0 80.5 1t45 4t20.5 7t9 13l35 100h45l-29 -309h-47l-10 98q0 6 -3 11t-17.5 8t-45 5.5t-85.5 2.5h-103v-390h60 q129 0 200.5 2.5t107.5 7.5t46 15t14 29l39 153h66zM221 1098l6 78h469l6 -78h-481z" />
<glyph horiz-adv-x="919" d="M813 0h-768l6 63l150 13q8 0 8 12v764q0 12 -8 12l-150 13l-6 63h766v-272h-61l-27 157q-4 18 -13.5 28.5t-42 17t-97 7.5t-179.5 1h-84v-369h105q51 0 80.5 1t45 4t20.5 7t9 13l35 100h45l-29 -309h-47l-10 98q0 6 -3 11t-17.5 8t-45 5.5t-85.5 2.5h-103v-390h60 q129 0 200.5 2.5t107.5 7.5t46 15t14 29l39 153h66zM770 1397q-14 -59 -33.5 -123t-51.5 -117t-79 -88t-117 -35t-116.5 35t-78.5 88t-51.5 116.5t-33.5 123.5h53q45 -158 100.5 -220.5t126.5 -62.5q72 0 127.5 62.5t100.5 220.5h53z" />
<glyph horiz-adv-x="919" d="M813 0h-768l6 63l150 13q8 0 8 12v764q0 12 -8 12l-150 13l-6 63h766v-272h-61l-27 157q-4 18 -13.5 28.5t-42 17t-97 7.5t-179.5 1h-84v-369h105q51 0 80.5 1t45 4t20.5 7t9 13l35 100h45l-29 -309h-47l-10 98q0 6 -3 11t-17.5 8t-45 5.5t-85.5 2.5h-103v-390h60 q129 0 200.5 2.5t107.5 7.5t46 15t14 29l39 153h66zM567 1214q0 -43 -27.5 -77.5t-76.5 -34.5t-76 34.5t-27 77.5t27 77t76 34t76.5 -34t27.5 -77z" />
<glyph horiz-adv-x="919" d="M668 -412q-66 0 -109 39t-43 115q0 74 45 141.5t105 116.5h-621l6 63l150 13q8 0 8 12v764q0 12 -8 12l-150 13l-6 63h766v-272h-61l-27 157q-4 18 -13.5 28.5t-42 17t-97 7.5t-179.5 1h-84v-369h105q51 0 80.5 1t45 4t20.5 7t9 13l35 100h45l-29 -309h-47l-10 98 q0 6 -3 11t-17.5 8t-45 5.5t-85.5 2.5h-103v-390h60q129 0 200.5 2.5t107.5 7.5t46 15t14 29l39 153h66l-27 -268h-82q-63 -53 -98 -112.5t-35 -116.5q0 -49 23.5 -83t66.5 -34q35 0 61.5 13.5t38.5 35.5l27 -22q-20 -37 -55 -65t-92 -28z" />
<glyph horiz-adv-x="919" d="M813 0h-768l6 63l150 13q8 0 8 12v764q0 12 -8 12l-150 13l-6 63h766v-272h-61l-27 157q-4 18 -13.5 28.5t-42 17t-97 7.5t-179.5 1h-84v-369h105q51 0 80.5 1t45 4t20.5 7t9 13l35 100h45l-29 -309h-47l-10 98q0 6 -3 11t-17.5 8t-45 5.5t-85.5 2.5h-103v-390h60 q129 0 200.5 2.5t107.5 7.5t46 15t14 29l39 153h66zM512 1034h-66l-247 424h53l225 -319h4q16 23 35 49q16 23 35.5 51.5t42.5 58.5q49 70 113 160h53z" />
<glyph horiz-adv-x="1081" d="M1042 348l-143 -12q-8 0 -8 -12v-234l90 -6l4 -49q-92 -27 -202.5 -45.5t-202.5 -18.5q-109 0 -200 35t-156.5 97.5t-103.5 150.5t-38 195q0 113 37 209t103.5 164.5t158.5 107.5t203 39q66 0 117 -7.5t94 -17.5l110 25v-312h-61l-37 203q-29 14 -85 30.5t-153 16.5 q-84 0 -153.5 -32.5t-120.5 -91t-80 -139.5t-29 -177t28 -175t80 -137.5t126 -90t168 -31.5q61 0 114.5 12t92.5 25v254q0 12 -9 12l-168 12l-6 64h437zM829 1034l-112 160q-23 29 -42.5 58.5t-35.5 52.5q-18 27 -35 49h-4l-225 -320h-53l247 424h66l248 -424h-54z" />
<glyph horiz-adv-x="1081" d="M1042 348l-143 -12q-8 0 -8 -12v-234l90 -6l4 -49q-92 -27 -202.5 -45.5t-202.5 -18.5q-109 0 -200 35t-156.5 97.5t-103.5 150.5t-38 195q0 113 37 209t103.5 164.5t158.5 107.5t203 39q66 0 117 -7.5t94 -17.5l110 25v-312h-61l-37 203q-29 14 -85 30.5t-153 16.5 q-84 0 -153.5 -32.5t-120.5 -91t-80 -139.5t-29 -177t28 -175t80 -137.5t126 -90t168 -31.5q61 0 114.5 12t92.5 25v254q0 12 -9 12l-168 12l-6 64h437zM827 1397q-14 -59 -33.5 -123t-51 -117t-79 -88t-116.5 -35q-70 0 -117 35t-79 88t-51 116.5t-34 123.5h53 q45 -158 100.5 -220.5t127.5 -62.5t127 62.5t100 220.5h53z" />
<glyph horiz-adv-x="1081" d="M1042 348l-143 -12q-8 0 -8 -12v-234l90 -6l4 -49q-92 -27 -202.5 -45.5t-202.5 -18.5q-109 0 -200 35t-156.5 97.5t-103.5 150.5t-38 195q0 113 37 209t103.5 164.5t158.5 107.5t203 39q66 0 117 -7.5t94 -17.5l110 25v-312h-61l-37 203q-29 14 -85 30.5t-153 16.5 q-84 0 -153.5 -32.5t-120.5 -91t-80 -139.5t-29 -177t28 -175t80 -137.5t126 -90t168 -31.5q61 0 114.5 12t92.5 25v254q0 12 -9 12l-168 12l-6 64h437zM680 1214q0 -43 -27.5 -77.5t-77.5 -34.5q-49 0 -75.5 34.5t-26.5 77.5t26.5 77t75.5 34t77 -34t28 -77z" />
<glyph horiz-adv-x="1081" d="M1042 348l-143 -12q-8 0 -8 -12v-234l90 -6l4 -49q-92 -27 -202.5 -45.5t-202.5 -18.5q-109 0 -200 35t-156.5 97.5t-103.5 150.5t-38 195q0 113 37 209t103.5 164.5t158.5 107.5t203 39q66 0 117 -7.5t94 -17.5l110 25v-312h-61l-37 203q-29 14 -85 30.5t-153 16.5 q-84 0 -153.5 -32.5t-120.5 -91t-80 -139.5t-29 -177t28 -175t80 -137.5t126 -90t168 -31.5q61 0 114.5 12t92.5 25v254q0 12 -9 12l-168 12l-6 64h437zM743 -254q0 -49 -18 -90t-49 -73t-69 -57.5t-77 -43.5l-22 26q59 33 96 75t37 114q0 33 -16.5 53.5t-35 32.5t-34.5 18 t-16 9q0 33 21.5 57t62.5 24q51 0 85.5 -43t34.5 -102z" />
<glyph horiz-adv-x="1132" d="M662 0l6 63l149 13q8 0 8 12v361h-518v-361q0 -12 8 -12l150 -13l6 -63h-426l6 63l150 13q8 0 8 12v764q0 12 -8 12l-150 13l-6 63h426l-6 -63l-150 -13q-8 0 -8 -12v-336h518v336q0 12 -8 12l-149 13l-6 63h425l-6 -63l-149 -13q-8 0 -8 -12v-764q0 -12 8 -12l149 -13 l6 -63h-425zM793 1028q-63 90 -113 160q-23 29 -42.5 58.5t-35.5 51.5q-18 27 -35 50h-4l-225 -320h-53l247 424h66l248 -424h-53z" />
<glyph horiz-adv-x="1132" d="M662 0l6 63l149 13q8 0 8 12v361h-518v-361q0 -12 8 -12l150 -13l6 -63h-426l6 63l150 13q8 0 8 12v578h-203l6 61h197v125q0 12 -8 12l-150 13l-6 63h426l-6 -63l-150 -13q-8 0 -8 -12v-125h518v125q0 12 -8 12l-149 13l-6 63h425l-6 -63l-149 -13q-8 0 -8 -12v-125h213 l6 -61h-219v-578q0 -12 8 -12l149 -13l6 -63h-425zM825 516v150h-518v-150h518z" />
<glyph horiz-adv-x="581" d="M61 0l7 63l165 13q8 0 9 12v764q0 12 -9 12l-165 13l-7 63h459l-6 -63l-166 -13q-8 0 -8 -12v-764q0 -12 8 -12l166 -13l6 -63h-459zM301 1034l-324 363h160l207 -363h-43z" />
<glyph horiz-adv-x="581" d="M61 0l7 63l165 13q8 0 9 12v764q0 12 -9 12l-165 13l-7 63h459l-6 -63l-166 -13q-8 0 -8 -12v-764q0 -12 8 -12l166 -13l6 -63h-459zM281 1034h-43l206 363h160z" />
<glyph horiz-adv-x="581" d="M61 0l7 63l165 13q8 0 9 12v764q0 12 -9 12l-165 13l-7 63h459l-6 -63l-166 -13q-8 0 -8 -12v-764q0 -12 8 -12l166 -13l6 -63h-459zM518 1034l-112 160q-23 29 -42.5 58.5t-35.5 52.5q-18 27 -35 49h-4l-226 -320h-53l248 424h66l247 -424h-53z" />
<glyph horiz-adv-x="581" d="M61 0l7 63l165 13q8 0 9 12v764q0 12 -9 12l-165 13l-7 63h459l-6 -63l-166 -13q-8 0 -8 -12v-764q0 -12 8 -12l166 -13l6 -63h-459zM590 1174q0 -39 -24.5 -71t-67.5 -32q-45 0 -71 32t-26 71t26 69.5t71 30.5q43 0 67.5 -30.5t24.5 -69.5zM182 1174q0 -39 -24.5 -71 t-69.5 -32t-68.5 32t-23.5 71t23.5 69.5t68.5 30.5t69.5 -30.5t24.5 -69.5z" />
<glyph horiz-adv-x="581" d="M61 0l7 63l165 13q8 0 9 12v764q0 12 -9 12l-165 13l-7 63h459l-6 -63l-166 -13q-8 0 -8 -12v-764q0 -12 8 -12l166 -13l6 -63h-459zM53 1098l6 78h469l7 -78h-482z" />
<glyph horiz-adv-x="581" d="M61 0l7 63l165 13q8 0 9 12v764q0 12 -9 12l-165 13l-7 63h459l-6 -63l-166 -13q-8 0 -8 -12v-764q0 -12 8 -12l166 -13l6 -63h-459zM571 1397q-14 -59 -33.5 -123t-51 -117t-79 -88t-116.5 -35q-70 0 -117 35t-79 88t-51 116.5t-34 123.5h53q45 -158 100.5 -220.5 t127.5 -62.5t127 62.5t100 220.5h53z" />
<glyph horiz-adv-x="581" d="M375 -412q-68 0 -112 36t-44 104q0 86 58.5 155.5t132.5 116.5h-349l7 63l165 13q8 0 9 12v764q0 12 -9 12l-165 13l-7 63h459l-6 -63l-166 -13q-8 0 -8 -12v-764q0 -12 8 -12l166 -13l6 -63q-45 -12 -85 -37.5t-69.5 -59.5t-47 -73t-17.5 -80q0 -96 94 -96 q35 0 59.5 13.5t37.5 35.5l26 -22q-20 -37 -53 -65t-90 -28z" />
<glyph horiz-adv-x="581" d="M61 0l7 63l165 13q8 0 9 12v764q0 12 -9 12l-165 13l-7 63h459l-6 -63l-166 -13q-8 0 -8 -12v-764q0 -12 8 -12l166 -13l6 -63h-459zM393 1214q0 -43 -27.5 -77.5t-76.5 -34.5t-76 34.5t-27 77.5t27 77t76 34t76.5 -34t27.5 -77z" />
<glyph horiz-adv-x="581" d="M61 0l7 63l165 13q8 0 9 12v764q0 12 -9 12l-165 13l-7 63h459l-6 -63l-166 -13q-8 0 -8 -12v-764q0 -12 8 -12l166 -13l6 -63h-459z" />
<glyph horiz-adv-x="577" d="M553 877l-150 -13q-8 0 -8 -12v-518q0 -164 -65.5 -263.5t-194.5 -99.5q-66 0 -103.5 29t-37.5 68q0 29 17.5 46t43.5 17q18 0 32.5 -7t29.5 -20q27 -25 41 -75h10q72 18 100.5 85.5t28.5 202.5v535q0 12 -8 12l-166 13l-6 63h442zM573 1034l-112 160q-23 29 -42.5 58.5 t-35.5 52.5q-18 27 -35 49h-4l-225 -320h-53l247 424h66l248 -424h-54z" />
<glyph horiz-adv-x="1052" d="M637 0l6 63l107 9q10 0 2 12l-301 403l-144 -137v-262q0 -12 8 -12l150 -13l6 -63h-426l6 63l150 13q8 0 8 12v764q0 12 -8 12l-150 13l-6 63h426l-6 -63l-150 -13q-8 0 -8 -12v-416l414 402q18 18 18 24t-10 6l-121 9l-6 63h399l-6 -63l-139 -11q-12 0 -29 -16 l-313 -301l356 -467q8 -8 17 -8l125 -11l6 -63h-381zM668 -250q0 -49 -18.5 -90t-49.5 -72.5t-68.5 -57.5t-76.5 -44l-23 27q59 33 96 74.5t37 113.5q0 33 -16.5 53.5t-34.5 32.5t-34.5 18.5t-16.5 8.5q0 33 21.5 57.5t62.5 24.5q51 0 86 -43.5t35 -102.5z" />
<glyph horiz-adv-x="858" d="M782 0h-737l6 63l150 13q8 0 8 12v764q0 12 -8 12l-150 13l-6 63h442l-6 -63l-166 -13q-8 0 -8 -12v-786h39q129 0 199.5 1t105.5 6t43 14t13 28l45 192h65zM205 1004h-43l207 362h159z" />
<glyph horiz-adv-x="858" d="M782 0h-737l6 63l150 13q8 0 8 12v764q0 12 -8 12l-150 13l-6 63h442l-6 -63l-166 -13q-8 0 -8 -12v-786h39q129 0 199.5 1t105.5 6t43 14t13 28l45 192h65zM555 -250q0 -49 -18.5 -90t-49 -72.5t-68.5 -57.5t-77 -44l-23 27q59 33 96.5 74.5t37.5 113.5q0 33 -16.5 53.5 t-35 32.5t-35 18.5t-16.5 8.5q0 33 21.5 57.5t62.5 24.5q51 0 86 -43.5t35 -102.5z" />
<glyph horiz-adv-x="1179" d="M782 0h-737l6 63l150 13q8 0 8 12v764q0 12 -8 12l-150 13l-6 63h442l-6 -63l-166 -13q-8 0 -8 -12v-786h39q129 0 199.5 1t105.5 6t43 14t13 28l45 192h65zM1155 805q0 -59 -23.5 -114.5t-61.5 -102.5t-85 -88t-94 -74l-27 33q76 59 121 123.5t45 152.5q0 41 -20.5 67.5 t-44 44t-44 26t-20.5 10.5q0 35 20.5 64.5t73.5 29.5q72 0 116 -49t44 -123z" />
<glyph horiz-adv-x="1044" d="M782 0h-737l6 63l150 13q8 0 8 12v764q0 12 -8 12l-150 13l-6 63h442l-6 -63l-166 -13q-8 0 -8 -12v-786h39q129 0 199.5 1t105.5 6t43 14t13 28l45 192h65zM1108 520q0 -41 -27.5 -71.5t-74.5 -30.5t-75 31.5t-28 70.5t27.5 68.5t75.5 29.5q47 0 74.5 -29.5t27.5 -68.5z " />
<glyph horiz-adv-x="878" d="M78 338v78l151 43v393q0 12 -8 12l-149 13l-6 63h442l-6 -63l-166 -13q-8 0 -8 -12v-367l223 62v-78l-223 -61v-342h39q129 0 199.5 1t105.5 6t43 14t12 28l45 192h66l-35 -307h-737l6 63l149 13q8 0 8 12v293z" />
<glyph horiz-adv-x="1159" d="M1118 877l-149 -13q-8 0 -8 -12v-860h-89l-585 856h-8v-760q0 -12 8 -12l149 -13l6 -63h-397l6 63l150 13q8 0 8 12v764q0 12 -8 12l-150 13l-6 63h289l549 -801h8v713q0 12 -8 12l-150 13l-6 63h397zM907 1278q-39 -213 -182 -213q-41 0 -81 22.5t-76 50t-67.5 50 t-56.5 22.5q-20 0 -36.5 -5t-31 -19.5t-28.5 -41t-29 -69.5h-51q39 213 183 213q41 0 80.5 -22.5t76.5 -50t69 -50t54 -22.5q20 0 36.5 5t31 19.5t28 41t27.5 69.5h53z" />
<glyph horiz-adv-x="1159" d="M1118 877l-149 -13q-8 0 -8 -12v-860h-89l-585 856h-8v-760q0 -12 8 -12l149 -13l6 -63h-397l6 63l150 13q8 0 8 12v764q0 12 -8 12l-150 13l-6 63h289l549 -801h8v713q0 12 -8 12l-150 13l-6 63h397zM541 1034h-43l207 363h159z" />
<glyph horiz-adv-x="1159" d="M1118 877l-149 -13q-8 0 -8 -12v-860h-89l-585 856h-8v-760q0 -12 8 -12l149 -13l6 -63h-397l6 63l150 13q8 0 8 12v764q0 12 -8 12l-150 13l-6 63h289l549 -801h8v713q0 12 -8 12l-150 13l-6 63h397zM700 -250q0 -49 -18 -90t-49 -72.5t-69 -57.5t-77 -44l-22 27 q59 33 96 74.5t37 113.5q0 33 -16.5 53.5t-35 32.5t-34.5 18.5t-16 8.5q0 33 21.5 57.5t62.5 24.5q51 0 85.5 -43.5t34.5 -102.5z" />
<glyph horiz-adv-x="1159" d="M1118 877l-149 -13q-8 0 -8 -12v-860h-89l-585 856h-8v-760q0 -12 8 -12l149 -13l6 -63h-397l6 63l150 13q8 0 8 12v764q0 12 -8 12l-150 13l-6 63h289l549 -801h8v713q0 12 -8 12l-150 13l-6 63h397zM633 1034h-66l-248 424h54l225 -319h4q16 23 35 49q16 23 35.5 51.5 t42.5 58.5l112 160h54z" />
<glyph horiz-adv-x="1126" d="M1044 475q0 -100 -35.5 -191t-99 -161t-153.5 -111t-197 -41q-100 0 -187 35t-151.5 99.5t-101.5 155.5t-37 202q0 100 35 191t99.5 161t153.5 112t197 42q100 0 187.5 -36t152 -100.5t101 -155.5t36.5 -202zM938 459q0 109 -32 191.5t-84 140t-120.5 86t-142.5 28.5 t-140.5 -28.5t-116.5 -83t-81 -134t-31 -180.5q0 -109 31 -192.5t83 -140t120 -85t141 -28.5q74 0 141.5 28.5t119 83t82 133.5t30.5 181zM573 1034l-323 363h160l206 -363h-43z" />
<glyph horiz-adv-x="1126" d="M1044 475q0 -100 -35.5 -191t-99 -161t-153.5 -111t-197 -41q-100 0 -187 35t-151.5 99.5t-101.5 155.5t-37 202q0 100 35 191t99.5 161t153.5 112t197 42q100 0 187.5 -36t152 -100.5t101 -155.5t36.5 -202zM938 459q0 109 -32 191.5t-84 140t-120.5 86t-142.5 28.5 t-140.5 -28.5t-116.5 -83t-81 -134t-31 -180.5q0 -109 31 -192.5t83 -140t120 -85t141 -28.5q74 0 141.5 28.5t119 83t82 133.5t30.5 181zM553 1034h-43l207 363h160z" />
<glyph horiz-adv-x="1126" d="M1044 475q0 -100 -35.5 -191t-99 -161t-153.5 -111t-197 -41q-100 0 -187 35t-151.5 99.5t-101.5 155.5t-37 202q0 100 35 191t99.5 161t153.5 112t197 42q100 0 187.5 -36t152 -100.5t101 -155.5t36.5 -202zM938 459q0 109 -32 191.5t-84 140t-120.5 86t-142.5 28.5 t-140.5 -28.5t-116.5 -83t-81 -134t-31 -180.5q0 -109 31 -192.5t83 -140t120 -85t141 -28.5q74 0 141.5 28.5t119 83t82 133.5t30.5 181zM795 1034q-63 90 -113 160q-23 29 -42 58.5t-36 52.5q-18 27 -35 49h-4l-225 -320h-53l248 424h65l248 -424h-53z" />
<glyph horiz-adv-x="1126" d="M1044 475q0 -100 -35.5 -191t-99 -161t-153.5 -111t-197 -41q-100 0 -187 35t-151.5 99.5t-101.5 155.5t-37 202q0 100 35 191t99.5 161t153.5 112t197 42q100 0 187.5 -36t152 -100.5t101 -155.5t36.5 -202zM938 459q0 109 -32 191.5t-84 140t-120.5 86t-142.5 28.5 t-140.5 -28.5t-116.5 -83t-81 -134t-31 -180.5q0 -109 31 -192.5t83 -140t120 -85t141 -28.5q74 0 141.5 28.5t119 83t82 133.5t30.5 181zM885 1278q-39 -213 -183 -213q-41 0 -80.5 22.5t-75.5 50t-68 50t-56 22.5q-20 0 -36.5 -5t-31 -19.5t-29 -41t-28.5 -69.5h-51 q39 213 182 213q41 0 81 -22.5t77 -50t68.5 -50t54.5 -22.5q20 0 36.5 5t31 19.5t27.5 41t27 69.5h54z" />
<glyph horiz-adv-x="1126" d="M1044 475q0 -100 -35.5 -191t-99 -161t-153.5 -111t-197 -41q-100 0 -187 35t-151.5 99.5t-101.5 155.5t-37 202q0 100 35 191t99.5 161t153.5 112t197 42q100 0 187.5 -36t152 -100.5t101 -155.5t36.5 -202zM938 459q0 109 -32 191.5t-84 140t-120.5 86t-142.5 28.5 t-140.5 -28.5t-116.5 -83t-81 -134t-31 -180.5q0 -109 31 -192.5t83 -140t120 -85t141 -28.5q74 0 141.5 28.5t119 83t82 133.5t30.5 181zM862 1174q0 -39 -24.5 -71t-67.5 -32q-45 0 -70.5 32t-25.5 71t25.5 69.5t70.5 30.5q43 0 67.5 -30.5t24.5 -69.5zM455 1174 q0 -39 -24.5 -71t-70.5 -32q-45 0 -68.5 32t-23.5 71t23.5 69.5t68.5 30.5t70 -30.5t25 -69.5z" />
<glyph horiz-adv-x="1126" d="M1044 475q0 -100 -35.5 -191t-99 -161t-153.5 -111t-197 -41q-100 0 -187 35t-151.5 99.5t-101.5 155.5t-37 202q0 100 35 191t99.5 161t153.5 112t197 42q100 0 187.5 -36t152 -100.5t101 -155.5t36.5 -202zM938 459q0 109 -32 191.5t-84 140t-120.5 86t-142.5 28.5 t-140.5 -28.5t-116.5 -83t-81 -134t-31 -180.5q0 -109 31 -192.5t83 -140t120 -85t141 -28.5q74 0 141.5 28.5t119 83t82 133.5t30.5 181zM344 1098l6 78h469l6 -78h-481z" />
<glyph horiz-adv-x="1126" d="M1044 475q0 -100 -35.5 -191t-99 -161t-153.5 -111t-197 -41q-100 0 -187 35t-151.5 99.5t-101.5 155.5t-37 202q0 100 35 191t99.5 161t153.5 112t197 42q100 0 187.5 -36t152 -100.5t101 -155.5t36.5 -202zM938 459q0 109 -32 191.5t-84 140t-120.5 86t-142.5 28.5 t-140.5 -28.5t-116.5 -83t-81 -134t-31 -180.5q0 -109 31 -192.5t83 -140t120 -85t141 -28.5q74 0 141.5 28.5t119 83t82 133.5t30.5 181zM858 1397q-14 -59 -33.5 -123t-51.5 -117t-79 -88t-116 -35q-70 0 -117 35t-79 88t-51.5 116.5t-33.5 123.5h53q45 -158 100.5 -220.5 t127.5 -62.5t127 62.5t100 220.5h53z" />
<glyph horiz-adv-x="1126" d="M1044 475q0 -100 -35.5 -191t-99 -161t-153.5 -111t-197 -41q-100 0 -187 35t-151.5 99.5t-101.5 155.5t-37 202q0 100 35 191t99.5 161t153.5 112t197 42q100 0 187.5 -36t152 -100.5t101 -155.5t36.5 -202zM938 459q0 109 -32 191.5t-84 140t-120.5 86t-142.5 28.5 t-140.5 -28.5t-116.5 -83t-81 -134t-31 -180.5q0 -109 31 -192.5t83 -140t120 -85t141 -28.5q74 0 141.5 28.5t119 83t82 133.5t30.5 181zM692 1034h-45l180 363h142zM389 1034h-45l180 363h142z" />
<glyph horiz-adv-x="1126" d="M1044 475q0 -100 -35.5 -191t-99 -161t-153.5 -111t-197 -41q-117 0 -223 52l-76 -134h-80l96 168q-90 63 -142 167t-52 239q0 100 35 191t99.5 161t153.5 112t197 42q115 0 213 -47l66 112h80q-14 -25 -29 -49q-12 -23 -26.5 -48.5t-28.5 -49.5q92 -63 147 -169t55 -243 zM741 856q-84 49 -182 49q-74 0 -140.5 -28.5t-116.5 -83t-81 -134t-31 -180.5q0 -117 35 -204t94 -144zM938 459q0 121 -38 210t-101 144q-33 -53 -68 -113q-31 -51 -67.5 -116.5t-77.5 -132.5q-94 -160 -211 -363q86 -55 190 -55q74 0 141.5 28.5t119 83t82 133.5 t30.5 181z" />
<glyph horiz-adv-x="1126" d="M1044 475q0 -100 -35.5 -191t-99 -161t-153.5 -111t-197 -41q-117 0 -223 52l-76 -134h-80l96 168q-90 63 -142 167t-52 239q0 100 35 191t99.5 161t153.5 112t197 42q115 0 213 -47l66 112h80q-14 -25 -29 -49q-12 -23 -26.5 -48.5t-28.5 -49.5q92 -63 147 -169t55 -243 zM741 856q-84 49 -182 49q-74 0 -140.5 -28.5t-116.5 -83t-81 -134t-31 -180.5q0 -117 35 -204t94 -144zM938 459q0 121 -38 210t-101 144q-33 -53 -68 -113q-31 -51 -67.5 -116.5t-77.5 -132.5q-94 -160 -211 -363q86 -55 190 -55q74 0 141.5 28.5t119 83t82 133.5 t30.5 181zM524 1034h-43l207 363h160z" />
<glyph horiz-adv-x="1439" d="M1333 0h-700q-133 0 -236.5 34t-173 95t-105.5 146t-36 186q0 94 34 181t101.5 152.5t169.5 105.5t240 40h704v-272h-61l-27 157q-4 18 -13 28.5t-42 17t-97.5 7.5t-179.5 1h-84v-369h105q51 0 80.5 1t45 4t20.5 7t9 13l35 100h45l-28 -309h-47l-11 98q0 6 -3 11t-17 8 t-45 5.5t-86 2.5h-103v-390h60q129 0 200.5 2.5t107.5 7.5t46 15t14 29l39 153h66zM729 862l-141 15q-188 -8 -294 -114t-106 -276q0 -197 118 -311.5t347 -114.5h76v801z" />
<glyph horiz-adv-x="913" d="M831 500q0 -66 -27.5 -120t-74.5 -93t-110.5 -60.5t-135.5 -21.5q-41 0 -86 1t-73 5v-123q0 -12 8 -12l170 -13l6 -63h-447l7 63l149 13q8 0 8 12v764q0 12 -8 12l-166 13l-6 63h459l-6 -63l-166 -13q-8 0 -8 -12v-76h127q98 0 169.5 -21.5t118.5 -59.5t69.5 -88 t22.5 -107zM727 485q0 115 -76 174.5t-219 53.5q-2 0 -18.5 -1t-36.5 -1h-53v-435q29 -6 73.5 -11t79.5 -5q123 0 186.5 60.5t63.5 164.5z" />
<glyph horiz-adv-x="946" d="M733 0l-65 106l-189 291l-172 4v-313q0 -12 8 -12l170 -13l7 -63h-447l6 63l150 13q8 0 8 12v764q0 12 -8 12l-150 13l-6 63h444q164 0 245 -69.5t81 -168.5q0 -106 -65.5 -176.5t-176.5 -107.5l226 -336q6 -8 16 -8l113 -11l6 -63h-201zM709 678q0 207 -279 199l-123 -5 v-401l170 -16q45 6 87 23.5t75 45t51.5 66.5t18.5 88zM373 1034h-43l207 363h159z" />
<glyph horiz-adv-x="946" d="M733 0l-65 106l-189 291l-172 4v-313q0 -12 8 -12l170 -13l7 -63h-447l6 63l150 13q8 0 8 12v764q0 12 -8 12l-150 13l-6 63h444q164 0 245 -69.5t81 -168.5q0 -106 -65.5 -176.5t-176.5 -107.5l226 -336q6 -8 16 -8l113 -11l6 -63h-201zM709 678q0 207 -279 199l-123 -5 v-401l170 -16q45 6 87 23.5t75 45t51.5 66.5t18.5 88zM604 -250q0 -49 -18.5 -90t-49 -72.5t-68.5 -57.5t-77 -44l-22 27q59 33 96 74.5t37 113.5q0 33 -16.5 53.5t-35 32.5t-35 18.5t-16.5 8.5q0 33 21.5 57.5t62.5 24.5q51 0 86 -43.5t35 -102.5z" />
<glyph horiz-adv-x="946" d="M733 0l-65 106l-189 291l-172 4v-313q0 -12 8 -12l170 -13l7 -63h-447l6 63l150 13q8 0 8 12v764q0 12 -8 12l-150 13l-6 63h444q164 0 245 -69.5t81 -168.5q0 -106 -65.5 -176.5t-176.5 -107.5l226 -336q6 -8 16 -8l113 -11l6 -63h-201zM709 678q0 207 -279 199l-123 -5 v-401l170 -16q45 6 87 23.5t75 45t51.5 66.5t18.5 88zM467 1034h-66l-247 424h53l225 -319h4q16 23 35 49q16 23 35.5 51.5t42.5 58.5q49 70 113 160h53z" />
<glyph horiz-adv-x="768" d="M692 244q0 -59 -23.5 -109.5t-67.5 -86.5t-105.5 -56.5t-137.5 -20.5q-72 0 -145.5 9.5t-122.5 23.5l-24 272h65l57 -210q35 -14 87.5 -23.5t95.5 -9.5q113 0 174 52t61 130q0 80 -53 128t-188 97q-61 23 -112.5 47.5t-86.5 56t-54.5 72.5t-19.5 95q0 113 83 185.5 t226 72.5q57 0 101.5 -5.5t70.5 -11.5l91 23v-299h-68l-37 190q-29 16 -78 28.5t-94 12.5q-104 0 -157.5 -50t-53.5 -118q0 -84 61.5 -130t180.5 -89q66 -25 117 -49.5t85.5 -56t53 -73.5t18.5 -97zM346 1034h-43l207 363h160z" />
<glyph horiz-adv-x="768" d="M692 244q0 -59 -23.5 -109.5t-67.5 -86.5t-105.5 -56.5t-137.5 -20.5q-72 0 -145.5 9.5t-122.5 23.5l-24 272h65l57 -210q35 -14 87.5 -23.5t95.5 -9.5q113 0 174 52t61 130q0 80 -53 128t-188 97q-61 23 -112.5 47.5t-86.5 56t-54.5 72.5t-19.5 95q0 113 83 185.5 t226 72.5q57 0 101.5 -5.5t70.5 -11.5l91 23v-299h-68l-37 190q-29 16 -78 28.5t-94 12.5q-104 0 -157.5 -50t-53.5 -118q0 -84 61.5 -130t180.5 -89q66 -25 117 -49.5t85.5 -56t53 -73.5t18.5 -97zM621 1034q-63 90 -113 160q-23 29 -42.5 58.5t-35.5 52.5q-18 27 -35 49 h-4l-225 -320h-53l247 424h66l248 -424h-53z" />
<glyph horiz-adv-x="768" d="M602 -299q0 -86 -95 -151.5t-296 -84.5l-12 37q166 25 242.5 71t76.5 122q0 49 -44 82t-132 33q-20 0 -47 -2.5t-53 -6.5v25l133 145h-17q-72 0 -145.5 9.5t-122.5 23.5l-24 272h65l57 -210q35 -14 87.5 -23.5t95.5 -9.5q113 0 174 52t61 130q0 80 -53 128t-188 97 q-61 23 -112.5 47.5t-86.5 56t-54.5 72.5t-19.5 95q0 113 83 185.5t226 72.5q57 0 101.5 -5.5t70.5 -11.5l91 23v-299h-68l-37 190q-29 16 -78 28.5t-94 12.5q-104 0 -157.5 -50t-53.5 -118q0 -84 61.5 -130t180.5 -89q66 -25 117 -49.5t85.5 -56t53 -73.5t18.5 -97 q0 -100 -66.5 -171t-179.5 -93l-100 -107q53 4 99.5 -6t81 -31.5t55 -55.5t20.5 -79z" />
<glyph horiz-adv-x="768" d="M692 244q0 -59 -23.5 -109.5t-67.5 -86.5t-105.5 -56.5t-137.5 -20.5q-72 0 -145.5 9.5t-122.5 23.5l-24 272h65l57 -210q35 -14 87.5 -23.5t95.5 -9.5q113 0 174 52t61 130q0 80 -53 128t-188 97q-61 23 -112.5 47.5t-86.5 56t-54.5 72.5t-19.5 95q0 113 83 185.5 t226 72.5q57 0 101.5 -5.5t70.5 -11.5l91 23v-299h-68l-37 190q-29 16 -78 28.5t-94 12.5q-104 0 -157.5 -50t-53.5 -118q0 -84 61.5 -130t180.5 -89q66 -25 117 -49.5t85.5 -56t53 -73.5t18.5 -97zM504 -250q0 -49 -18.5 -90t-49 -72.5t-68.5 -57.5t-77 -44l-23 27 q59 33 96 74.5t37 113.5q0 33 -16 53.5t-34.5 32.5t-35 18.5t-16.5 8.5q0 33 21.5 57.5t62.5 24.5q51 0 86 -43.5t35 -102.5z" />
<glyph horiz-adv-x="768" d="M692 244q0 -59 -23.5 -109.5t-67.5 -86.5t-105.5 -56.5t-137.5 -20.5q-72 0 -145.5 9.5t-122.5 23.5l-24 272h65l57 -210q35 -14 87.5 -23.5t95.5 -9.5q113 0 174 52t61 130q0 80 -53 128t-188 97q-61 23 -112.5 47.5t-86.5 56t-54.5 72.5t-19.5 95q0 113 83 185.5 t226 72.5q57 0 101.5 -5.5t70.5 -11.5l91 23v-299h-68l-37 190q-29 16 -78 28.5t-94 12.5q-104 0 -157.5 -50t-53.5 -118q0 -84 61.5 -130t180.5 -89q66 -25 117 -49.5t85.5 -56t53 -73.5t18.5 -97zM422 1034h-66l-247 424h53l225 -319h4q16 23 35 49q16 23 35.5 51.5 t42.5 58.5l112 160h54z" />
<glyph horiz-adv-x="958" d="M827 647l-28 176q-4 18 -10.5 28.5t-29 16.5t-70.5 8.5t-134 2.5h-25v-791q0 -12 9 -12l166 -13l6 -63h-459l6 63l166 13q8 0 8 12v791q0 4 -12 2t-17 -2q-84 0 -131 -2.5t-70.5 -8.5t-29.5 -16t-10 -27l-39 -178h-66l27 293h805v-293h-62zM596 -250q0 -49 -18.5 -90 t-49 -72.5t-68.5 -57.5t-77 -44l-23 27q59 33 96.5 74.5t37.5 113.5q0 33 -16.5 53.5t-35 32.5t-35 18.5t-16.5 8.5q0 33 21.5 57.5t62.5 24.5q51 0 86 -43.5t35 -102.5z" />
<glyph horiz-adv-x="956" d="M827 647l-28 176q-4 18 -10.5 28.5t-29 16.5t-70.5 8.5t-134 2.5h-25v-791q0 -12 9 -12l166 -13l6 -63h-459l6 63l166 13q8 0 8 12v791q0 4 -12 2t-17 -2q-84 0 -131 -2.5t-70.5 -8.5t-29.5 -16t-10 -27l-39 -178h-66l27 293h805v-293h-62zM504 1034h-66l-248 424h54 l225 -319h4q16 23 35 49q16 23 35.5 51.5t42.5 58.5l112 160h54z" />
<glyph horiz-adv-x="1103" d="M1063 877l-150 -13q-8 0 -8 -12v-533q0 -164 -98 -256t-264 -92q-80 0 -145.5 19.5t-111.5 63.5t-72 114t-26 170v514q0 12 -8 12l-149 13l-6 63h426l-7 -63l-149 -13q-8 0 -8 -12v-526q0 -80 21.5 -134.5t60.5 -87t89 -47t109 -14.5q70 0 121 21.5t84 59.5t48.5 88 t15.5 105v535q0 12 -9 12l-149 13l-6 63h397zM596 1034l-324 363h160l207 -363h-43z" />
<glyph horiz-adv-x="1103" d="M1063 877l-150 -13q-8 0 -8 -12v-533q0 -164 -98 -256t-264 -92q-80 0 -145.5 19.5t-111.5 63.5t-72 114t-26 170v514q0 12 -8 12l-149 13l-6 63h426l-7 -63l-149 -13q-8 0 -8 -12v-526q0 -80 21.5 -134.5t60.5 -87t89 -47t109 -14.5q70 0 121 21.5t84 59.5t48.5 88 t15.5 105v535q0 12 -9 12l-149 13l-6 63h397zM473 1034h-43l207 363h160z" />
<glyph horiz-adv-x="1103" d="M1063 877l-150 -13q-8 0 -8 -12v-533q0 -164 -98 -256t-264 -92q-80 0 -145.5 19.5t-111.5 63.5t-72 114t-26 170v514q0 12 -8 12l-149 13l-6 63h426l-7 -63l-149 -13q-8 0 -8 -12v-526q0 -80 21.5 -134.5t60.5 -87t89 -47t109 -14.5q70 0 121 21.5t84 59.5t48.5 88 t15.5 105v535q0 12 -9 12l-149 13l-6 63h397zM760 1034q-63 90 -113 160q-23 29 -42 58.5t-36 52.5q-18 27 -34 49h-5l-225 -320h-53l248 424h65l248 -424h-53z" />
<glyph horiz-adv-x="1103" d="M1063 877l-150 -13q-8 0 -8 -12v-533q0 -164 -98 -256t-264 -92q-80 0 -145.5 19.5t-111.5 63.5t-72 114t-26 170v514q0 12 -8 12l-149 13l-6 63h426l-7 -63l-149 -13q-8 0 -8 -12v-526q0 -80 21.5 -134.5t60.5 -87t89 -47t109 -14.5q70 0 121 21.5t84 59.5t48.5 88 t15.5 105v535q0 12 -9 12l-149 13l-6 63h397zM829 1174q0 -39 -24.5 -71t-67.5 -32q-45 0 -70.5 32t-25.5 71t25.5 69.5t70.5 30.5q43 0 67.5 -30.5t24.5 -69.5zM422 1174q0 -39 -24.5 -71t-69.5 -32t-68.5 32t-23.5 71t23.5 69.5t68.5 30.5t69.5 -30.5t24.5 -69.5z" />
<glyph horiz-adv-x="1103" d="M1063 877l-150 -13q-8 0 -8 -12v-533q0 -164 -98 -256t-264 -92q-80 0 -145.5 19.5t-111.5 63.5t-72 114t-26 170v514q0 12 -8 12l-149 13l-6 63h426l-7 -63l-149 -13q-8 0 -8 -12v-526q0 -80 21.5 -134.5t60.5 -87t89 -47t109 -14.5q70 0 121 21.5t84 59.5t48.5 88 t15.5 105v535q0 12 -9 12l-149 13l-6 63h397zM334 1098l6 78h469l6 -78h-481z" />
<glyph horiz-adv-x="1103" d="M1063 877l-150 -13q-8 0 -8 -12v-533q0 -164 -98 -256t-264 -92q-80 0 -145.5 19.5t-111.5 63.5t-72 114t-26 170v514q0 12 -8 12l-149 13l-6 63h426l-7 -63l-149 -13q-8 0 -8 -12v-526q0 -80 21.5 -134.5t60.5 -87t89 -47t109 -14.5q70 0 121 21.5t84 59.5t48.5 88 t15.5 105v535q0 12 -9 12l-149 13l-6 63h397zM846 1397q-14 -59 -33.5 -123t-51.5 -117t-79 -88t-117 -35t-117 35t-78.5 88t-51 116.5t-33.5 123.5h53q45 -158 100.5 -220.5t126.5 -62.5q72 0 127.5 62.5t100.5 220.5h53z" />
</font>
</defs>
</svg>
