<?xml version="1.0" encoding="utf-8"?>
<!-- Generator: Adobe Illustrator 23.0.1, SVG Export Plug-In . SVG Version: 6.00 Build 0)  -->
<svg version="1.1" id="Livello_1" xmlns="http://www.w3.org/2000/svg" xmlns:xlink="http://www.w3.org/1999/xlink" x="0px" y="0px"
	 viewBox="0 0 119.8 119.5" style="enable-background:new 0 0 119.8 119.5;" xml:space="preserve">
<style type="text/css">
	.st0{fill:#B61A1F;}
	.st1{clip-path:url(#SVGID_2_);fill:#FFFFFF;}
	.st2{fill:#FFFFFF;}
</style>
<g>
	<rect x="0.1" class="st0" width="119.6" height="119.6"/>
	<g>
		<defs>
			<rect id="SVGID_1_" x="0.1" width="119.6" height="119.6"/>
		</defs>
		<clipPath id="SVGID_2_">
			<use xlink:href="#SVGID_1_"  style="overflow:visible;"/>
		</clipPath>
		<path class="st1" d="M30.7,101.8l0.3-4.2c0-0.3-0.2-0.5-0.5-0.5c-0.2,0-0.4,0.2-0.5,0.4c-0.8,3.8-2.1,4.1-5.7,4.1h-2.9
			c-0.3,0-0.5-0.2-0.5-0.5v-7.3c0-0.3,0.2-0.5,0.5-0.5c2.2,0.1,3.3,0.5,3.5,2.9c0,0.2,0.2,0.4,0.4,0.4s0.4-0.2,0.4-0.4V90
			c0-0.2-0.2-0.4-0.4-0.4c-0.2,0-0.4,0.2-0.4,0.4c-0.4,2.4-1.2,2.6-3.5,2.6c-0.3,0-0.5-0.2-0.5-0.5v-6.7c0-0.3,0.2-0.5,0.5-0.5h3.1
			c2.6,0,4.3,0.6,4.8,3.5c0,0.2,0.2,0.4,0.4,0.4c0.2,0,0.4-0.2,0.4-0.4v-3.5c0-0.4-0.3-0.7-0.7-0.7H15.8c-0.2,0-0.4,0.2-0.4,0.4
			c0,0.2,0.2,0.4,0.4,0.4h1.6c0.3,0,0.5,0.2,0.5,0.5v15.9c0,0.3-0.2,0.5-0.5,0.5h-1.6c-0.2,0-0.4,0.2-0.4,0.4c0,0.2,0.2,0.4,0.4,0.4
			l14.2,0C30.4,102.6,30.7,102.2,30.7,101.8 M40.9,92.8c0-1-0.7-1.6-1.9-1.6c-1.7,0-2.8,1.5-3.1,2.2l0.1,0l-0.2-0.1v-1.6
			c0-0.2-0.2-0.4-0.4-0.4l-0.1,0c-1,0.2-2,0.2-2.8,0.2h-0.6c-0.2,0-0.4,0.2-0.4,0.4c0,0.2,0.2,0.4,0.4,0.4h1c0.3,0,0.5,0.2,0.5,0.5
			v8.5c0,0.3-0.3,0.5-0.5,0.5h-1c-0.2,0-0.4,0.2-0.4,0.4c0,0.2,0.2,0.4,0.4,0.4h5.8c0.2,0,0.4-0.2,0.4-0.4c0-0.2-0.2-0.4-0.4-0.4
			h-1.3c-0.3,0-0.5-0.2-0.5-0.5v-4.7c0-1,0.3-2,0.7-2.9c0.6-1.2,1.6-1.6,1.6-1.6c0.2,0,0.2,0,0.2,0.1c0,0,0,0.1,0,0.2
			c0,0.1-0.1,0.3-0.1,0.4c0,0.6,0.6,1.2,1.2,1.2C40.2,93.9,40.9,93.5,40.9,92.8 M47.1,101.7h-0.8c-0.3,0-0.5-0.2-0.5-0.5l0-9.6
			c0-0.2-0.2-0.4-0.5-0.4c-1,0.2-2,0.2-2.9,0.2h-0.6c-0.2,0-0.4,0.2-0.4,0.4c0,0.2,0.2,0.4,0.4,0.4h1c0.3,0,0.5,0.2,0.5,0.5l0,8.5
			c0,0.3-0.3,0.5-0.5,0.5h-1c-0.2,0-0.4,0.2-0.4,0.4c0,0.2,0.2,0.4,0.4,0.4h5.3c0.2,0,0.4-0.2,0.4-0.4
			C47.5,101.9,47.4,101.7,47.1,101.7 M57.6,94.2c0-2.2-2.8-3.1-4.7-3.1c-1.5,0-5.9,1.1-5.9,6.2c0,1.5,1.1,5.6,6,5.6h0h0
			c3.1-0.1,4.2-1.9,4.8-3.5c0,0,0-0.1,0-0.1c0-0.2-0.2-0.4-0.4-0.4c-0.2,0-0.3,0.1-0.4,0.2c-0.7,1.8-2.1,3-3.7,3l-0.1,0
			c-1.4-0.1-2.3-0.6-2.8-1.5c0-0.1-0.6-1.4-0.6-3.3c0-4,0.9-5.5,3.4-5.5c0.7,0,2.4,0.3,2.4,1c0,0.1-0.1,0.1-0.2,0.2
			c-0.3,0.2-0.7,0.5-0.7,1.3c0,0.8,0.6,1.4,1.5,1.4C57.1,95.8,57.6,95,57.6,94.2 M70.4,102.1c0-0.2-0.2-0.4-0.4-0.4h-0.6
			c-0.2,0-0.3-0.1-0.4-0.2l-5.1-5.9c0,0-0.1-0.1-0.1-0.1c0-0.1,0-0.1,0.1-0.2l3.6-3c0.1-0.1,0.2-0.1,0.3-0.1h1.2
			c0.2,0,0.4-0.2,0.4-0.4c0-0.2-0.2-0.4-0.4-0.4h-4.1c-0.2,0-0.4,0.2-0.4,0.4c0,0.2,0.2,0.4,0.4,0.4h1c0,0,0.1,0,0,0.1l-4.4,3.6
			c-0.1,0.1-0.1,0.2-0.1,0.3V83.5c0-0.2-0.2-0.4-0.5-0.4h0c-0.8,0.1-1.8,0.2-2.9,0.2h-0.2c-0.2,0-0.4,0.2-0.4,0.4
			c0,0.2,0.2,0.4,0.4,0.4h0.6c0.3,0,0.5,0.2,0.5,0.5v16.6c0,0.3-0.2,0.5-0.5,0.5h-0.6c-0.2,0-0.4,0.2-0.4,0.4c0,0.2,0.2,0.4,0.4,0.4
			h4.9c0.2,0,0.4-0.2,0.4-0.4c0-0.2-0.2-0.4-0.4-0.4H62c-0.3,0-0.5-0.2-0.5-0.5v-4.9c0,0.1,0,0.1,0.1,0.2l4.4,5.1l0,0l0.1,0.1
			c0,0,0,0.1-0.1,0.1h-0.8c-0.2,0-0.4,0.2-0.4,0.4c0,0.2,0.2,0.4,0.4,0.4H70C70.2,102.6,70.4,102.4,70.4,102.1 M80.2,99
			c0-1.9-0.9-2.8-3.1-3.2c-4.4-0.9-4.6-1.2-4.6-2c0-0.1,0.1-0.6,0.4-1.1c0.4-0.6,1.2-0.8,2.1-0.8l0.1,0c1.5,0.1,2.5,0.9,3,2.5
			c0.1,0.2,0.2,0.3,0.4,0.3c0.3,0,0.5-0.2,0.5-0.5v-2.4c0-0.4-0.5-0.6-0.8-0.3l-0.4,0.5c-0.9-0.6-1.8-1-2.7-1c-3.2,0-4,2.2-4,3.5
			c0,2.4,1.6,2.7,3.4,3.1l0.3,0.1c2.2,0.5,3.9,1,3.9,2.1c0,1.3-1.4,2.3-2.7,2.3c-1.9,0-3.3-1.1-3.9-3.1c-0.1-0.2-0.2-0.3-0.5-0.3
			c-0.3,0-0.5,0.2-0.5,0.5l0,2.9c0,0.3,0.2,0.5,0.5,0.5c0.2,0,0.4-0.1,0.4-0.3l0.4-0.6l-0.1-0.1l0.2,0c0.8,0.8,2,1.2,3.3,1.2
			C78.5,102.9,80.2,101.3,80.2,99 M89.3,97c0,2.3,0,5.2-2.9,5.2c-2.9,0-2.9-2.9-2.9-5.2c0-2.2,0-5.1,2.9-5.1
			C89.3,91.9,89.3,94.9,89.3,97 M92.1,97c0-3.3-2.5-5.9-5.7-5.9c-3.2,0-5.7,2.6-5.7,5.9c0,3.3,2.5,5.9,5.7,5.9
			C89.6,102.9,92.1,100.3,92.1,97 M104.9,102.1c0-0.2-0.2-0.4-0.4-0.4h-0.6c-0.3,0-0.5-0.2-0.5-0.5V94c0-2.5-2.2-2.9-3.6-2.9
			c-1.7,0-3,0.8-4,2.5c0,0-0.1,0-0.1-0.1v-2c0-0.2-0.2-0.4-0.5-0.4h0c-0.4,0.1-0.8,0.1-1.2,0.1c-0.5,0.1-1.1,0.1-1.6,0.1h-0.3
			c-0.2,0-0.4,0.2-0.4,0.4c0,0.2,0.2,0.4,0.4,0.4h0.6c0.3,0,0.5,0.2,0.5,0.5v8.4c0,0.3-0.2,0.5-0.5,0.5h-0.6c-0.2,0-0.4,0.2-0.4,0.4
			c0,0.2,0.2,0.4,0.4,0.4h4.8c0.2,0,0.4-0.2,0.4-0.4c0-0.2-0.2-0.4-0.4-0.4h-0.6c-0.3,0-0.5-0.2-0.5-0.5v-4.5c0-2.1,1.5-4.5,3.4-4.5
			c1,0,1.7,0.2,1.7,2.2v6.9c0,0.3-0.3,0.5-0.5,0.5h-0.6c-0.2,0-0.4,0.2-0.4,0.4c0,0.2,0.2,0.4,0.4,0.4h4.7
			C104.7,102.6,104.9,102.4,104.9,102.1"/>
	</g>
	<rect x="39.8" y="78.3" class="st2" width="9.6" height="9.6"/>
</g>
</svg>
