<?xml version="1.0" standalone="no"?>
<!DOCTYPE svg PUBLIC "-//W3C//DTD SVG 1.1//EN" "http://www.w3.org/Graphics/SVG/1.1/DTD/svg11.dtd" >
<svg xmlns="http://www.w3.org/2000/svg" xmlns:xlink="http://www.w3.org/1999/xlink" version="1.1">
<metadata></metadata>
<defs>
<font id="freightdisp_proSBdIt" horiz-adv-x="1536" >
<font-face units-per-em="2048" ascent="1638" descent="-410" />
<missing-glyph horiz-adv-x="368" />
<glyph unicode="&#xfb00;" horiz-adv-x="1054" d="M932 1266q104 109 260 108q88 0 139 -41t51 -104q0 -47 -33.5 -81t-78.5 -34q-37 0 -62.5 18.5t-36 47t-3 62.5t31.5 65q-16 2 -33 6q-14 2 -27.5 4t-23.5 2q-33 -8 -58.5 -44t-47 -94.5t-40 -133t-34.5 -158.5h219l-20 -90h-220l-108 -496q-43 -197 -94 -338t-129 -221 q-49 -49 -110.5 -70.5t-121.5 -21.5q-74 0 -124 38t-50 97q0 41 27.5 76t79.5 35q31 0 54 -15.5t37.5 -42t14.5 -59.5t-18 -66h71q25 6 46.5 37t43 94.5t45 164t52.5 245.5l98 543h-301l-121 -557q-43 -197 -99 -338.5t-134 -220.5q-49 -49 -108.5 -71t-121.5 -22 q-76 0 -126 38t-50 98q0 41 30 75.5t81 34.5q31 0 55.5 -15.5t38.5 -41t16 -58t-16 -65.5q14 -2 27 -2h41q25 6 46 36.5t42.5 95t46 166t53.5 247.5l111 596l-177 4l27 78l174 16q27 111 70 191.5t104 142.5q51 51 118 79.5t159 28.5q74 0 122 -28.5t66 -71.5zM809 1067 q-37 0 -60.5 19.5t-33.5 47t-3 59.5t31 58q-16 6 -34 15q-16 4 -33 9t-31 5q-74 -18 -119 -119.5t-80 -271.5l306 2q12 47 26.5 91t30.5 85z" />
<glyph unicode="&#xfb01;" horiz-adv-x="1005" d="M-156 -410q-76 0 -126 38t-50 98q0 41 30 75.5t81 34.5q31 0 55.5 -15.5t38.5 -41t16 -58t-16 -65.5q14 -2 27 -2h41q25 6 46 36.5t42.5 95t46 166t53.5 247.5l111 596l-177 4l27 78l174 16q23 104 70 201.5t110 160.5q57 57 135 89t179 32q102 0 160.5 -49t58.5 -115 q0 -45 -29.5 -76.5t-81.5 -31.5q-37 0 -62.5 18.5t-36.5 47t-5 60.5t31 60q-25 6 -48 13q-20 4 -41.5 9t-35.5 5q-80 -23 -130.5 -127.5t-88.5 -300.5h253q20 14 42 22.5t42 8.5t47 -13.5t50.5 -34t39 -44t15.5 -44.5q0 -12 -15.5 -61t-39 -117.5t-51 -147.5t-53 -149.5 t-46 -126t-26.5 -76.5l98 -14l145 184l19 -16q-33 -68 -71 -121t-76 -90t-71.5 -56.5t-60.5 -19.5q-16 0 -45 11.5t-56.5 28t-47 33.5t-19.5 30q0 6 16.5 56t41 123t54.5 157t56.5 161.5t47 136t28.5 81.5l-6 8h-330l-121 -557q-43 -197 -97 -338.5t-132 -220.5 q-47 -49 -111 -71t-125 -22z" />
<glyph unicode="&#xfb02;" horiz-adv-x="1026" d="M1001 1354q39 10 89 24l-359 -1276l88 -12l142 180l20 -14q-68 -135 -144.5 -209t-129.5 -74q-16 0 -44 10.5t-55.5 25t-47 29.5t-15.5 25l284 1049q-27 8 -43 29.5t-21 47t3 52.5t31 49q-23 6 -45 13q-20 4 -44 9t-46 5q-82 -23 -130.5 -127.5t-87.5 -300.5h222l-19 -90 h-221l-121 -557q-43 -197 -96 -338.5t-131 -220.5q-47 -49 -110.5 -71t-125.5 -22q-76 0 -126 38t-50 98q0 41 30 75.5t81 34.5q31 0 55.5 -15.5t38.5 -41t16 -58t-16 -65.5q16 -2 29 -2h41q25 6 46 36.5t42.5 95t46 166t53.5 247.5l109 596l-177 4l27 78l174 16 q23 104 70 201.5t110 160.5q57 57 132 89t176 32q53 0 92 -12t67 -35z" />
<glyph unicode="&#xfb03;" horiz-adv-x="1501" d="M938 1255q57 57 135 89t178 32t159.5 -49t59.5 -115q0 -45 -29.5 -76.5t-82.5 -31.5q-37 0 -61.5 18.5t-35 47t-4 60.5t30.5 60q-27 6 -49 13q-20 4 -41.5 9t-36.5 5q-80 -23 -131 -127.5t-88 -300.5h254q47 31 86 31q18 0 45 -13.5t50.5 -34t39 -44t15.5 -44.5 q0 -12 -15.5 -61t-39 -117.5t-51.5 -147.5t-53.5 -149.5t-46 -126t-28.5 -76.5l98 -14l148 184l18 -16q-33 -68 -70.5 -121t-75.5 -90t-73 -56.5t-61 -19.5q-16 0 -44 11.5t-55.5 28t-48 33.5t-20.5 30q0 6 16.5 56t41 123t54 157t57 161.5t48 136t29.5 81.5l-7 8h-331 l-109 -496q-43 -197 -98.5 -338t-134.5 -221q-47 -49 -104.5 -70.5t-117.5 -21.5q-76 0 -126 38t-50 97q0 41 29 76t80 35q31 0 54.5 -15.5t37.5 -42t14 -59.5t-18 -66h61q25 6 48.5 37t46 94.5t47 164t53.5 245.5l98 543h-305l-121 -557q-43 -197 -99 -338.5t-134 -220.5 q-49 -49 -108.5 -71t-121.5 -22q-76 0 -126 38t-50 98q0 41 30 75.5t81 34.5q31 0 55.5 -15.5t38.5 -41t16 -58t-16 -65.5q14 -2 27 -2h41q25 6 46 36.5t42.5 95t46 166t53.5 247.5l111 596l-177 4l27 78l174 16q23 104 67 189t109 151q51 53 116 83t165 30q78 0 129 -33 t68 -80zM817 1073q-35 0 -59.5 19.5t-34.5 47t-4 59.5t33 58q-20 6 -39 15q-16 4 -33.5 9t-32.5 5q-74 -23 -121 -125t-80 -272l310 2q24 100 61 182z" />
<glyph unicode="&#xfb04;" horiz-adv-x="1519" d="M1585 1378l-360 -1276l88 -12l141 180l19 -14q-66 -135 -143 -209t-130 -74q-16 0 -45 10.5t-55.5 25t-46 29.5t-15.5 25l285 1049q-27 8 -43 28.5t-21.5 46t3 53.5t30.5 50q-23 6 -45 13q-20 4 -44.5 9t-47.5 5q-78 -23 -127 -127.5t-86 -300.5h221l-20 -90h-221 l-109 -496q-43 -197 -98.5 -338t-134.5 -221q-47 -49 -104.5 -70.5t-117.5 -21.5q-76 0 -126 38t-50 97q0 41 29 76t80 35q31 0 54.5 -15.5t37.5 -42t14 -59.5t-18 -66h61q25 6 48.5 37t46 94.5t47 164t53.5 245.5l98 543h-305l-121 -557q-43 -197 -99 -338.5t-134 -220.5 q-49 -49 -108.5 -71t-121.5 -22q-76 0 -126 38t-50 98q0 41 30 75.5t81 34.5q31 0 55.5 -15.5t38.5 -41t16 -58t-16 -65.5q14 -2 27 -2h41q25 6 46 36.5t42.5 95t46 166t53.5 247.5l111 596l-177 4l27 78l174 16q23 104 67 189t109 151q51 53 116 83t165 30q78 0 129 -33 t68 -80l20 22q57 57 133 89t176 32q53 0 92 -12t66 -35zM817 1073q-35 0 -59.5 19.5t-34.5 47t-4 59.5t33 58q-20 6 -39 13q-16 4 -33.5 9t-32.5 5q-74 -23 -121 -124t-80 -271l310 2q24 100 61 182z" />
<glyph horiz-adv-x="0" />
<glyph unicode="&#xd;" horiz-adv-x="368" />
<glyph horiz-adv-x="0" />
<glyph horiz-adv-x="0" />
<glyph unicode=" "  horiz-adv-x="368" />
<glyph unicode="&#x09;" horiz-adv-x="368" />
<glyph unicode="&#xa0;" horiz-adv-x="368" />
<glyph unicode="!" horiz-adv-x="548" d="M276 397q-4 -10 -15 -9t-9 11l49 809q2 20 8 41t19.5 35t38 21.5t63.5 3.5h8q41 -4 63.5 -15.5t33 -28t9.5 -38t-9 -43.5zM213 -29q-55 0 -93 39t-38 92q0 49 38 87t91 38q55 0 92 -37.5t37 -87.5q0 -53 -36 -92t-91 -39z" />
<glyph unicode="&#x22;" horiz-adv-x="700" d="M711 1321h2l135 -61l-385 -435h-41zM367 1321h4l135 -61l-385 -435h-43z" />
<glyph unicode="#" horiz-adv-x="1060" d="M291 385h-279v39h289l111 428h-277v37h289l106 405h43l-108 -405h334l108 405h43l-106 -405h274v-37h-287l-110 -428h274v-39h-286l-103 -395h-43l105 395h-334l-107 -395h-41zM678 424l113 428h-334l-113 -428h334z" />
<glyph unicode="$" horiz-adv-x="1036" d="M229 -4q-72 14 -128 35.5t-97 44.5l43 330h41l45 -189q39 -104 125 -156l16 39q15 39 39.5 96.5t51 124t51 124t40.5 95.5l15 38q0 2 -2 2q-63 35 -118.5 72.5t-95.5 81.5t-62.5 96.5t-22.5 117.5q0 70 31.5 134.5t88 113.5t134.5 79t170 30q47 0 89 -5.5t81 -13.5 l94 227h45l-98 -237q29 -8 56.5 -17.5t53.5 -19.5l97 23l-62 -359l-37 2l-79 273l-54 36l-184 -440l18 -10q66 -37 123.5 -76t99.5 -84t65.5 -99t23.5 -122q0 -80 -35 -153.5t-98.5 -131t-153.5 -91.5t-199 -34q-47 0 -88 4.5t-82 12.5l-135 -328h-43zM293 43 q66 -27 147 -27q63 0 115.5 21.5t89.5 58.5t58.5 87t21.5 106q0 88 -60.5 151.5t-158.5 118.5l-107 -258zM741 1233q-29 12 -63.5 20.5t-75.5 8.5q-49 0 -93 -16.5t-76 -45.5t-51.5 -68.5t-19.5 -84.5q0 -84 55.5 -142.5t141.5 -109.5z" />
<glyph unicode="%" horiz-adv-x="1245" d="M406 745q-61 0 -111.5 20.5t-87.5 57.5t-56.5 87.5t-19.5 107.5q0 59 21.5 113.5t59.5 95.5t91 64.5t119 23.5q61 0 112.5 -21.5t88 -58.5t56 -87t19.5 -108q0 -59 -21.5 -113.5t-59 -94t-91.5 -63.5t-120 -24zM1245 1311h53l-1222 -1340h-56zM901 -33q-61 0 -111.5 20.5 t-86 57.5t-55 86t-19.5 107q0 61 20.5 115.5t59.5 95t92 64.5t119 24q61 0 111 -21.5t87 -58.5t56.5 -87.5t19.5 -107.5q0 -59 -21.5 -113.5t-59.5 -94.5t-92 -63.5t-120 -23.5zM408 786q55 0 99 19.5t75.5 53.5t49 79t17.5 96q0 49 -16.5 93t-46 77t-72.5 51.5t-94 18.5 q-55 0 -99.5 -20.5t-76 -55.5t-49 -81t-17.5 -97q0 -102 63 -168t167 -66zM905 8q53 0 98.5 19.5t77 54.5t49 80t17.5 98q0 49 -16.5 92t-47 75t-72.5 50.5t-93 18.5q-55 0 -99.5 -20.5t-76 -55.5t-49 -81t-17.5 -97q0 -102 62.5 -168t166.5 -66z" />
<glyph unicode="&#x26;" horiz-adv-x="1501" d="M1290 780q82 -31 129 -100.5t47 -165.5q0 -113 -59 -211t-160.5 -172t-238 -117t-289.5 -43q-152 0 -276 38t-211 105.5t-135 160t-48 200.5q0 141 88 250t230 162q-6 23 -10.5 45t-4.5 45q0 68 27 129t73 106t107.5 71t132.5 26q63 0 114.5 -29t86.5 -76t50 -109.5 t7 -129.5l-35 6q2 41 -7 81t-32.5 70.5t-58.5 49t-82 18.5q-41 0 -74.5 -18.5t-58 -49t-39 -71.5t-14.5 -86v-20.5t2 -20.5q10 2 20.5 2h20.5q106 0 171.5 -46t65.5 -114q0 -51 -42 -84t-113 -33q-90 0 -170 56.5t-121 142.5q-150 -76 -150 -252q0 -223 174.5 -347 t493.5 -124q119 0 216 29.5t167 82t108 123t38 154.5q0 47 -16.5 90t-44.5 76t-64.5 52.5t-77.5 19.5q-37 0 -76 -17.5t-70.5 -43t-52 -57.5t-20.5 -61q0 -55 43 -86.5t112 -33.5q-25 10 -35 37.5t-5 55t28 49t61 21.5q41 0 67 -25.5t26 -66.5q0 -47 -34 -79.5t-93 -32.5 q-49 0 -94.5 17t-79 50t-53 79t-19.5 104q0 74 41 121.5t102.5 80.5t133 57.5t133 54.5t102.5 69.5t41 103.5q0 57 -44 93t-120 40q23 -10 35 -39t7 -59.5t-26.5 -54t-66.5 -23.5t-73 26.5t-28 73.5q0 49 42 84t100 35q53 0 100 -21.5t82 -59.5t54.5 -90t19.5 -112 q0 -45 -14.5 -80.5t-46 -66.5t-85 -58.5t-131.5 -56.5zM559 891q18 -68 64.5 -109t105.5 -41q20 0 34.5 13.5t14.5 29.5q0 43 -54 75t-132 32h-33z" />
<glyph unicode="'" horiz-adv-x="360" d="M367 1321h4l135 -61l-385 -435h-43z" />
<glyph unicode="(" horiz-adv-x="696" d="M516 -541q-76 49 -156.5 139.5t-142 216.5t-92.5 283.5t-2 341.5q29 182 104.5 331t173 260.5t203 185t193.5 110.5l24 -39q-86 -37 -188.5 -110.5t-194.5 -181t-163.5 -248t-98.5 -312.5q-27 -174 0 -324.5t84 -271.5t134 -209t151 -135l-29 -37v0z" />
<glyph unicode=")" horiz-adv-x="696" d="M-141 -502q86 37 187 110t193.5 180.5t164 248.5t98.5 313q27 174 0 324.5t-84.5 271.5t-133 208t-149.5 136l27 37q76 -49 156.5 -139t142 -216t91.5 -284t3 -340q-29 -184 -104.5 -331.5t-173 -260t-203 -186.5t-193.5 -111z" />
<glyph unicode="*" horiz-adv-x="657" d="M395 713l27 235q0 4 -8 7t-11 1l-137 -186l-133 8q-2 2 -4 6q-4 8 -4 9l45 127l225 45q4 2 4 10t-4 12l-215 84l-30 129l2 2q0 2 4 6q2 4 6 6l137 -12l107 -207q0 -4 9 -2t9 6l14 238l111 63q6 0 10 -2t6 -2l35 -127l-166 -174q-4 -4 2 -11t10 -7l228 70l96 -93v-8v-8 l-111 -74l-213 103q-4 2 -10 -4.5t-4 -10.5l135 -198l-53 -119q0 -2 -7 -4t-7 0z" />
<glyph unicode="+" horiz-adv-x="917" d="M442 461h-405l6 45h399v405h45v-405h400l6 -45h-406v-406h-45v406z" />
<glyph unicode="," horiz-adv-x="411" d="M-80 -246q47 18 89 45t73 58.5t49.5 68.5t18.5 76q0 35 -16.5 60.5t-39 40t-48.5 16.5t-46 -10q-6 25 1 51t23.5 48.5t44 37t64.5 14.5q72 0 118 -50t46 -122q0 -57 -29.5 -111.5t-80 -100.5t-116 -83t-134.5 -57z" />
<glyph unicode="-" horiz-adv-x="604" d="M68 528h501l-14 -92h-508z" />
<glyph unicode="." horiz-adv-x="438" d="M158 -27q-57 0 -96 41t-39 95q0 53 37.5 93t95.5 40q59 0 97 -40t38 -93t-38 -94.5t-95 -41.5z" />
<glyph unicode="/" horiz-adv-x="528" d="M461 1313h45l-434 -1796h-45z" />
<glyph unicode="0" horiz-adv-x="1085" d="M500 -27q-96 0 -174 33t-133.5 92.5t-86 141.5t-30.5 182q0 119 41 223.5t111.5 182t164.5 123.5t203 46q94 0 173 -32.5t134 -92t86 -141.5t31 -180q0 -121 -41 -225.5t-111.5 -183.5t-166 -124t-201.5 -45zM479 10q72 0 134.5 58.5t108.5 151.5t71.5 213t25.5 243 q0 135 -55 208.5t-152 73.5q-72 0 -133 -58t-106 -153.5t-71 -217t-26 -246.5q0 -135 52.5 -204t150.5 -69z" />
<glyph unicode="1" horiz-adv-x="727" d="M33 33l88 8q43 2 62.5 10t23.5 27l149 801l-202 32l10 29l416 49l-174 -915q-4 -12 14 -20.5t76 -12.5l77 -8l2 -33h-550z" />
<glyph unicode="2" horiz-adv-x="937" d="M-27 66q174 119 293 203.5t191.5 151t105.5 123t33 118.5q2 100 -55.5 153t-151.5 53q-70 2 -130 -32.5t-118 -100.5l-12 23q78 111 180.5 175t218.5 62q61 0 113.5 -18.5t90.5 -52t58.5 -78.5t20.5 -96q0 -80 -43 -144.5t-124 -131t-197.5 -139.5t-264.5 -167v-8h369 q49 0 88 11t71.5 35.5t63.5 63.5t66 95l24 38h35l-166 -403h-762z" />
<glyph unicode="3" horiz-adv-x="858" d="M199 -408q-59 0 -114.5 8.5t-100.5 29t-72 51t-27 77.5q0 41 30 76t83 35q33 0 60.5 -17.5t45 -46t19.5 -64.5t-17 -75q23 -12 52.5 -21.5t60.5 -9.5q63 0 118.5 29t96.5 77t64.5 111.5t23.5 133.5q0 125 -74.5 201.5t-209.5 76.5q-68 0 -129 -18l-13 26q109 47 195 90.5 t145.5 88.5t91 98t31.5 123q0 84 -54 141t-147 57q-76 0 -146.5 -45t-117.5 -110l-14 24q33 53 78 99.5t97 81t111.5 55t125.5 20.5q59 0 111 -18.5t90 -52t60.5 -79.5t22.5 -100q0 -125 -103.5 -213t-285.5 -153v-6q16 4 29 4q74 -4 132 -33t99 -73t62.5 -99t21.5 -117 q0 -90 -46 -174t-121 -148.5t-170 -102.5t-195 -38z" />
<glyph unicode="4" horiz-adv-x="1009" d="M483 33h-538v33l831 921l78 -4l-154 -819h230l-39 -131h-217l-76 -410h-188zM510 164l113 577h-9l-522 -577h418z" />
<glyph unicode="5" horiz-adv-x="847" d="M137 -410q-117 10 -188.5 53.5t-69.5 118.5q4 47 39 79t84 28q37 -2 61.5 -22.5t38 -50t16.5 -65.5t-3 -69q16 -10 38.5 -17t53.5 -12q53 -4 104 17.5t92 62.5t68 99.5t31 128.5q4 80 -28 146.5t-90 120.5t-140 93t-176 61l233 605h537l-52 -195h-514l-88 -240 q123 -29 219.5 -75.5t161 -110t96 -140.5t27.5 -165q-6 -96 -53 -180t-122 -146.5t-172.5 -96.5t-203.5 -28z" />
<glyph unicode="6" horiz-adv-x="1040" d="M485 -27q-98 0 -173.5 36t-129 97.5t-81 144.5t-27.5 175q0 160 75.5 315.5t217 279.5t341 201.5t449.5 82.5l6 -31q-152 -16 -280.5 -67.5t-231 -128.5t-180.5 -175t-127 -209l10 -2q72 59 151 93t157 34q143 0 228 -92t85 -248q0 -106 -41 -198.5t-109.5 -161 t-157 -107.5t-182.5 -39zM477 12q57 0 109.5 36t91.5 97.5t61.5 141.5t22.5 168q0 127 -57.5 206.5t-163.5 79.5q-59 0 -108.5 -27.5t-92.5 -68.5q-31 -76 -47.5 -156.5t-16.5 -158.5q0 -68 10.5 -126.5t35 -101.5t62.5 -66.5t93 -23.5z" />
<glyph unicode="7" horiz-adv-x="907" d="M817 778l-2 6h-280q-102 0 -169 -4t-109 -17t-66.5 -40t-45.5 -72l-28 -51h-35l115 367h759v-35l-731 -1309h-155z" />
<glyph unicode="8" horiz-adv-x="1011" d="M477 -33q-86 0 -165 25.5t-139 71t-95 107.5t-35 136q0 68 28.5 123t78 97t116 70t144.5 38v4q-84 59 -143.5 134t-61.5 173q0 72 31.5 137.5t87 116.5t131 81t161.5 30q82 0 154 -22.5t125 -64.5t84 -99.5t31 -127.5q0 -63 -26 -113t-71 -87t-105 -61.5t-128 -37.5v-4 q49 -33 93 -69.5t78 -79.5t53.5 -93.5t19.5 -109.5q0 -80 -37 -148.5t-98.5 -118.5t-142.5 -79t-169 -29zM647 717q82 43 128 123t46 184q0 49 -12 94t-36.5 80t-63.5 56.5t-93 21.5q-53 0 -94 -19.5t-68.5 -53.5t-43 -78t-15.5 -91q0 -49 20.5 -92t55.5 -82t80 -74.5 t96 -68.5zM485 6q57 0 103.5 19.5t78 53.5t50 79t18.5 96q0 57 -25.5 106.5t-66.5 93.5t-93 84t-108 78q-94 -45 -150 -127.5t-56 -205.5q0 -57 16 -107.5t47 -88.5t78 -59.5t108 -21.5z" />
<glyph unicode="9" horiz-adv-x="1040" d="M-106 -299q152 16 279.5 67.5t230 128t180.5 174t127 208.5h-9q-72 -59 -151.5 -93t-157.5 -34q-143 0 -228 94t-85 250q0 106 41 198t109.5 161t156.5 107.5t184 38.5q98 0 174 -35.5t128.5 -98t80 -144.5t27.5 -174q0 -160 -76 -315.5t-217 -279.5t-341 -202t-447 -82z M514 229q59 0 107.5 29t93.5 70q66 160 65 315q0 70 -11 128t-34.5 101t-62.5 67t-94 24q-57 0 -108.5 -37t-90.5 -98.5t-61.5 -141.5t-22.5 -168q0 -127 57.5 -208t161.5 -81z" />
<glyph unicode=":" horiz-adv-x="436" d="M274 592q-57 0 -96 41t-39 94t39 92t94 39q59 0 97.5 -39t38.5 -92t-38.5 -94t-95.5 -41zM158 -27q-57 0 -96 41t-39 95q0 53 37.5 92t95.5 39q59 0 97 -39t38 -92t-38 -94.5t-95 -41.5z" />
<glyph unicode=";" horiz-adv-x="411" d="M266 592q-57 0 -98 40t-41 93t40 93t97 40t96 -40t39 -93t-38 -93t-95 -40zM-80 -246q94 37 162 102.5t68 143.5q0 35 -16.5 60.5t-39 39t-48.5 15.5t-46 -9q-6 23 1 49.5t23.5 49t44 37t64.5 14.5q72 0 118 -50t46 -120q0 -57 -29.5 -110.5t-80 -99.5t-116 -83 t-134.5 -59z" />
<glyph unicode="&#x3c;" horiz-adv-x="897" d="M33 467v29l813 395l16 -41l-753 -363v-8l753 -366l-16 -41z" />
<glyph unicode="=" horiz-adv-x="917" d="M59 682h811l-6 -45h-798zM66 328h798l6 -45h-811z" />
<glyph unicode="&#x3e;" horiz-adv-x="897" d="M63 72l-16 41l754 366v8l-754 363l16 41l814 -395v-29z" />
<glyph unicode="?" horiz-adv-x="677" d="M297 377q-53 45 -92 108.5t-39 116.5q0 90 71.5 135t196.5 78q121 31 172 57.5t51 79.5q0 31 -21.5 63t-62.5 56.5t-103 40.5t-144 16q-31 0 -55.5 -2t-47.5 -6q-18 25 -18 62q0 25 6 47t22.5 40.5t44 30t70.5 11.5q84 0 150.5 -31t112.5 -80t71 -113.5t25 -132.5 q0 -133 -60.5 -202.5t-183.5 -106.5q-106 -31 -155.5 -55.5t-49.5 -79.5q0 -35 19.5 -65.5t54.5 -63.5zM240 -29q-55 0 -93 39t-38 92q0 49 37.5 87t91.5 38q57 0 93 -37.5t36 -87.5q0 -53 -36 -92t-91 -39z" />
<glyph unicode="@" horiz-adv-x="1624" d="M834 -231q-164 0 -302.5 54t-238.5 151.5t-155.5 232.5t-53.5 297q2 168 66.5 317.5t175 260t256 174t311.5 63.5q152 -2 279.5 -51t221 -137.5t144.5 -209t49 -264.5q-2 -117 -43 -217t-106.5 -175t-149.5 -118t-172 -43q-61 0 -104 14.5t-68.5 39t-37 55.5t-9.5 63 q0 14 4 39t11.5 53.5t15.5 55.5t14 45h-8q-102 -160 -185 -257t-169 -97q-78 0 -134.5 54t-56.5 136q0 61 23.5 133t62.5 141.5t89 133t102 112.5q66 61 128 95t121 34q57 0 88 -56t35 -130h9l75 215l166 -6l-129 -332l-80 -274q-29 -84 -2 -131t121 -47q63 0 124.5 34.5 t111 97t79 147.5t31.5 185q2 135 -46 249t-135 197t-208 130t-264 49q-156 0 -294 -61.5t-242.5 -167t-165 -247.5t-62.5 -302q-4 -154 48 -282t146.5 -221t225.5 -144.5t287 -51.5q88 0 169.5 22.5t151.5 61.5t126 91.5t93 111.5l21 -31q-41 -61 -99.5 -115.5t-130 -93 t-155.5 -61t-176 -22.5zM666 231q23 0 55.5 26t70 72t78.5 107.5t80 134.5q8 16 17.5 37t17.5 40.5t13.5 35.5t5.5 25q-4 25 -18.5 50t-37 46.5t-51.5 36t-59 14.5q-25 0 -42.5 -8t-33.5 -25q-31 -29 -63.5 -85t-59.5 -122.5t-44 -135t-17 -122.5q0 -61 26.5 -94t61.5 -33z " />
<glyph unicode="A" horiz-adv-x="1265" d="M377 518l-94 -186q-47 -86 -74 -140.5t-28 -86t28 -45t90 -19.5l61 -8l5 -33h-457l6 33l45 8q43 6 72.5 18.5t60.5 49t72 107.5t108 194l373 714l-6 80q20 4 48 14.5t55.5 26t50 32.5t34.5 34h31l131 -1065q8 -61 18.5 -99t25 -61t34.5 -32t51 -11l70 -10v-33h-594l6 33 l72 6q70 6 82 46t2 128l-31 305h-348zM719 565l-25 250q-10 111 -26 252h-9l-258 -502h318z" />
<glyph unicode="B" horiz-adv-x="1216" d="M-23 33l86 12q47 6 68 15.5t23 21.5l215 1120q2 12 -13.5 18.5t-79.5 16.5l-65 10l-2 33h528q123 0 207 -23.5t136.5 -63.5t76 -91t23.5 -107q0 -131 -108.5 -209.5t-301.5 -95.5q4 -4 4 -6q172 -29 263 -115t91 -202q0 -176 -153.5 -271.5t-442.5 -95.5h-561zM567 41 q76 0 135.5 28.5t99.5 76t61.5 107.5t21.5 126q0 137 -91.5 216t-240.5 79h-57l-115 -598l111 -35h75zM635 711q78 0 135 24.5t96 65.5t57.5 94t18.5 113q0 106 -67.5 167.5t-200.5 63.5h-70l-100 -518q10 -2 30.5 -4t41 -3t37 -2t22.5 -1z" />
<glyph unicode="C" horiz-adv-x="1370" d="M750 -29q-154 0 -274 45t-203 124t-126 186.5t-43 232.5q0 147 55.5 282.5t156 239t241.5 166t311 62.5q117 0 206 -23.5t147 -56.5l149 39l-61 -396l-43 2l-78 295q-45 39 -121 67t-168 28q-129 0 -231.5 -64.5t-173 -171t-107.5 -242t-37 -276.5q0 -115 28 -206 t82 -155.5t132 -99.5t176 -35q117 0 206 52.5t163 148.5l88 156l45 -2l-105 -355l-84 4q-25 -8 -62.5 -16t-82.5 -15t-93 -11.5t-93 -4.5z" />
<glyph unicode="D" horiz-adv-x="1384" d="M-23 33l89 12q47 6 66.5 15.5t21.5 21.5l215 1120q2 12 -13.5 18.5t-79.5 16.5l-65 10l-2 33h258h95t81 1t57 1h21q162 0 282.5 -41t200.5 -113.5t120 -172t40 -216.5q0 -147 -55.5 -280t-162 -235.5t-261 -163t-353.5 -60.5h-561zM516 39q143 2 255 59.5t188.5 156.5 t116.5 233.5t40 287.5q0 98 -23.5 183t-72.5 146.5t-128 97.5t-190 36h-100l-219 -1159z" />
<glyph unicode="E" horiz-adv-x="1230" d="M-23 33l82 12q90 12 95 37l215 1120q2 12 -13.5 18.5t-79.5 16.5l-63 10l-4 33h971l-4 -406h-46l-12 74q-23 78 -47 133.5t-69.5 91t-115 52t-179.5 16.5l-105 -2l-106 -563l75 2q68 2 116 9t81 23.5t56.5 43t41.5 67.5l31 64l39 -2l-102 -463l-39 2l4 61q4 45 -5.5 74 t-37 45t-77.5 22.5t-126 10.5l-66 2l-110 -590l178 -8q115 0 195.5 22.5t140 61.5t102.5 95t80 124l35 70l47 -2l-129 -410h-1055z" />
<glyph unicode="F" horiz-adv-x="1173" d="M-23 33l93 12q47 4 64.5 14.5t19.5 22.5l215 1120q2 12 -11.5 19.5t-74.5 15.5l-70 10l-4 33h987l-16 -406h-47l-13 74q-20 76 -42.5 132.5t-64.5 91t-110.5 52t-179.5 17.5l-121 -2l-108 -577l79 2q68 2 116 9t82 22.5t56.5 42t40.5 67.5l31 65l37 -2l-100 -460h-37 l4 61q2 45 -8.5 73.5t-38 45t-76.5 23.5t-125 10l-70 2l-104 -545q-2 -14 13.5 -22.5t76.5 -12.5l96 -10l4 -33h-600z" />
<glyph unicode="G" horiz-adv-x="1435" d="M731 -31q-147 0 -264 43t-197 121t-123 185.5t-43 234.5q0 150 55.5 286t157 240.5t242.5 167t315 62.5q111 0 204 -23.5t151 -56.5l149 37l-63 -400h-41l-80 303q-41 39 -118 67t-169 28q-127 0 -229.5 -62.5t-175 -168t-112.5 -243t-40 -284.5q0 -113 28 -204 t80 -155.5t126.5 -100.5t169.5 -36q57 0 103 11.5t81 27.5l86 434q4 14 -17.5 21.5t-86.5 13.5l-80 10l-4 33h587l-10 -33l-84 -10q-47 -6 -65.5 -16t-20.5 -21l-76 -385l113 8v-24q-49 -18 -114.5 -39t-138.5 -36t-149.5 -25.5t-146.5 -10.5z" />
<glyph unicode="H" horiz-adv-x="1497" d="M-20 33l86 12q47 6 66.5 15.5t23.5 21.5l213 1120q2 6 0 10.5t-12.5 8.5t-29 8t-51.5 8l-63 10l-2 33h571l-8 -33l-88 -12q-47 -6 -67.5 -15.5t-22.5 -21.5l-100 -524h587l103 528q4 14 -12.5 20.5t-79.5 14.5l-68 10l-2 33h571l-8 -33l-84 -12q-47 -6 -67.5 -15.5 t-22.5 -21.5l-215 -1120q-4 -14 12.5 -19.5t79.5 -15.5l66 -10l2 -33h-572l7 33l88 12q47 4 67.5 14.5t22.5 22.5l104 549h-588l-106 -553q-2 -14 13.5 -20.5t78.5 -14.5l70 -10l2 -33h-572z" />
<glyph unicode="I" horiz-adv-x="724" d="M-8 33l96 12q47 4 67.5 14.5t22.5 22.5l215 1120q2 12 -13 19.5t-79 15.5l-76 10l-4 33h590l-8 -33l-94 -12q-47 -6 -67.5 -15.5t-23.5 -21.5l-215 -1120q-2 -14 13.5 -20.5t79.5 -14.5l75 -10l4 -33h-589z" />
<glyph unicode="J" horiz-adv-x="722" d="M-47 -279q-94 0 -146.5 40t-52.5 102q0 51 37 87t92 36q45 0 74 -21.5t40 -55.5t4 -73t-36 -74q80 -8 143.5 85.5t98.5 291.5l207 1063q2 12 -13.5 19.5t-76.5 15.5l-84 10l-2 33h591l-8 -33l-92 -12q-47 -6 -66.5 -15.5t-21.5 -21.5l-213 -1079q-12 -70 -58 -140.5 t-113 -128t-146.5 -93.5t-157.5 -36z" />
<glyph unicode="K" horiz-adv-x="1382" d="M-23 33l93 12q47 4 64.5 14.5t19.5 22.5l215 1120q2 12 -11.5 19.5t-74.5 15.5l-70 10l-4 33h584l-9 -33l-100 -12q-84 -8 -90 -37l-115 -616l375 321q123 106 186.5 170t79 98.5t-10.5 48t-81 19.5l-67 8l-3 33h525l-6 -31l-43 -6q-47 -4 -90.5 -21.5t-97.5 -54.5 t-125.5 -96t-176.5 -147l-119 -103l269 -626q23 -51 38 -81t30.5 -45.5t33.5 -21.5t47 -10l49 -4l4 -33h-555l7 33l51 6q61 6 69.5 45t-32.5 149l-185 439l-186 -156l-84 -438q-2 -14 13.5 -21.5t76.5 -13.5l82 -10l4 -33h-586z" />
<glyph unicode="L" horiz-adv-x="1169" d="M-23 33l93 12q47 4 64.5 14.5t19.5 22.5l213 1120q4 12 -9.5 19.5t-76.5 15.5l-70 10l-4 33h602l-6 -33l-119 -12q-84 -8 -88 -37l-219 -1151q39 -2 72 -4q29 -2 51 -3t24 -1q102 0 175 18.5t127.5 58.5t98.5 101.5t91 144.5l37 78h47l-127 -440h-1002z" />
<glyph unicode="M" horiz-adv-x="1699" d="M-37 33l60 8q43 2 70.5 11t45 28.5t27.5 52.5t20 86l217 971q-25 43 -96 49l-74 8l-4 33h437l147 -979l6 -2l551 981h422l-8 -33l-88 -12q-47 -6 -67.5 -15.5t-22.5 -21.5l-195 -1020q-4 -41 -4 -65.5t9 -39t27.5 -20.5t51.5 -10l68 -10l2 -33h-582l6 33l96 12 q49 4 69 31.5t30 105.5l188 989h-8l-655 -1159h-74l-176 1125q-2 10 -7.5 18t-7.5 14l-208 -956q-8 -51 -8.5 -83t13 -50.5t40 -27.5t73.5 -11l60 -8l4 -33h-461z" />
<glyph unicode="N" horiz-adv-x="1392" d="M416 1096h-6l-177 -879q-16 -98 7.5 -133t109.5 -43l58 -8l2 -33h-449l6 33l58 8q72 8 108.5 45t50.5 137l181 881q-16 49 -46 86t-96 47l-43 10l-4 33h408l510 -946h6l145 729q8 49 7 81t-13 52.5t-38.5 29.5t-70.5 13l-57 8l-4 33h451l-7 -33l-57 -8q-72 -6 -109.5 -44 t-52.5 -138l-213 -1069h-57z" />
<glyph unicode="O" horiz-adv-x="1484" d="M735 -29q-141 0 -255.5 48.5t-196.5 132.5t-126 195.5t-44 240.5q0 137 51 267t144 230.5t225.5 161t291.5 60.5q141 0 256 -48.5t197 -132.5t127 -196.5t45 -241.5q0 -143 -53.5 -273t-147.5 -228.5t-226 -157t-288 -58.5zM719 16q113 0 205 73t156.5 187.5t99 255 t34.5 275.5q0 96 -23.5 180t-71.5 145.5t-117.5 96.5t-161.5 35q-119 0 -211 -78t-154.5 -197t-95.5 -259t-33 -265q0 -96 24.5 -178t71.5 -142.5t117 -94.5t160 -34z" />
<glyph unicode="P" horiz-adv-x="1171" d="M-37 33l103 12q47 4 66.5 14.5t21.5 22.5l215 1120q2 12 -13.5 20.5t-79.5 14.5l-79 10l-2 33h565q111 0 194.5 -23.5t140 -66.5t86 -101.5t29.5 -125.5q0 -86 -38.5 -156t-107.5 -121t-163 -78.5t-205 -27.5q-63 0 -116.5 8t-96.5 18l-102 -528q-2 -14 13.5 -22.5 t76.5 -12.5l107 -10l2 -33h-623zM649 621q76 0 135.5 30.5t100.5 81.5t62.5 120t21.5 144q0 111 -59.5 175.5t-172.5 66.5h-133l-112 -588q31 -10 67.5 -20t89.5 -10z" />
<glyph unicode="Q" horiz-adv-x="1486" d="M1151 -375q-115 0 -210 17.5t-171 60.5t-130 114.5t-85 180.5q-102 27 -184 82t-139.5 132t-88 173t-30.5 203q0 137 51 267t144 230.5t225.5 161t291.5 60.5q141 0 256 -48.5t197 -132.5t127 -196.5t45 -241.5q0 -131 -45 -252t-127 -217t-196.5 -159.5t-252.5 -79.5 q29 -92 73 -152.5t107.5 -95.5t146.5 -48.5t192 -13.5l2 -28q-33 -8 -85.5 -12.5t-113.5 -4.5zM719 16q115 0 206 73t155.5 187.5t99 255t34.5 275.5q0 96 -23.5 180t-71.5 145.5t-117.5 96.5t-161.5 35q-121 0 -212 -78t-154.5 -197t-95.5 -259t-32 -265q0 -96 24.5 -178 t71.5 -142.5t117 -94.5t160 -34z" />
<glyph unicode="R" horiz-adv-x="1296" d="M-37 33l103 12q35 4 60.5 14.5t27.5 22.5l213 1120q4 12 -11.5 20.5t-79.5 14.5l-81 10l-2 33h581q104 0 188.5 -22.5t142.5 -63.5t90 -96.5t32 -122.5q0 -72 -30 -131.5t-84 -104.5t-128 -72.5t-162 -35.5l199 -420q20 -49 39.5 -81t40 -51.5t45 -28.5t57.5 -13l31 -4 l2 -33h-379l-258 627q-16 6 -53 14t-53 18l-113 -581q-2 -12 24.5 -21.5t65.5 -13.5l86 -10l4 -33h-604zM674 668q139 4 225 92t86 235q0 111 -69.5 177.5t-198.5 66.5h-115l-100 -537q18 -6 41.5 -13t47 -11t46.5 -7t37 -3z" />
<glyph unicode="S" horiz-adv-x="1040" d="M465 -27q-147 0 -259 34t-177 69l45 332h39l45 -191q39 -100 117.5 -150.5t191.5 -50.5q63 0 115.5 21.5t90.5 58.5t58.5 87t20.5 106q0 98 -73 164.5t-185 126.5q-63 35 -117.5 72.5t-94.5 81.5t-62.5 97.5t-22.5 118.5q0 68 31.5 132.5t88 114.5t134 80t170.5 30 q98 0 174.5 -20.5t144.5 -47.5l98 25l-63 -361l-37 2l-80 275q-41 33 -99.5 57.5t-131.5 24.5q-49 0 -93.5 -16.5t-77 -44t-52 -67.5t-19.5 -85q0 -96 63.5 -158t190.5 -127q66 -37 122 -75t98 -84t65.5 -101t23.5 -125q0 -78 -34.5 -150.5t-98 -130t-152.5 -91.5t-198 -34z " />
<glyph unicode="T" horiz-adv-x="1341" d="M285 33l112 12q47 4 66.5 14.5t21.5 22.5l220 1159h-64q-74 -4 -135.5 -27.5t-111.5 -61.5t-89 -87t-69 -100l-37 -80h-47l114 395h1129l-52 -395h-38l-13 76q-10 66 -30.5 116.5t-56.5 86.5t-87 55.5t-125 21.5h-59l-221 -1163q-2 -12 13 -20.5t77 -14.5l90 -10l4 -33 h-618z" />
<glyph unicode="U" horiz-adv-x="1417" d="M713 -33q-111 0 -204 21.5t-160.5 66.5t-105.5 114t-38 163q0 37 5 80t15 86l66 352q12 66 23.5 129t21.5 113q10 57 22 110q2 12 -12 20.5t-78 14.5l-80 10l-4 33h600l-8 -33l-100 -12q-47 -4 -66.5 -14.5t-23.5 -22.5l-131 -686q-8 -43 -12.5 -83t-4.5 -77 q0 -156 92.5 -227.5t253.5 -71.5q147 0 240.5 90t132.5 293l125 627q8 49 7 81t-14 51t-39 29.5t-69 14.5l-57 8l-4 33h450l-8 -33l-55 -8q-37 -4 -63.5 -14.5t-45 -30.5t-31 -53t-20.5 -84l-129 -635q-43 -223 -161.5 -339t-329.5 -116z" />
<glyph unicode="V" horiz-adv-x="1288" d="M334 1040q-12 63 -19.5 101.5t-19.5 59t-31.5 27.5t-52.5 11l-66 8l-4 33h588l-6 -33l-80 -6q-39 -2 -60.5 -9t-29.5 -23.5t-5 -45t11 -73.5l137 -826h9l374 703q45 80 72 131t27 80.5t-28 42t-89 18.5l-62 8l-4 33h457l-8 -33l-43 -8q-43 -6 -73 -19.5t-61.5 -50 t-73.5 -106.5t-110 -193l-487 -888h-72z" />
<glyph unicode="W" horiz-adv-x="1974" d="M330 1040q-10 61 -18.5 98.5t-20.5 59t-32.5 29.5t-53.5 12l-66 8l-2 33h588l-8 -33l-74 -6q-70 -4 -86 -31.5t-2 -107.5l131 -850h8l385 700l-14 88q-10 59 -19.5 96.5t-21.5 59t-32.5 30.5t-53.5 13l-68 8l-4 33h592l-8 -33l-74 -6q-74 -4 -89 -32.5t-3 -112.5 l125 -840l6 -2l361 707q45 80 68.5 131t22.5 81.5t-30 45t-90 20.5l-51 8l-4 33h458l-8 -33l-43 -10q-41 -6 -70.5 -18.5t-59.5 -43t-64.5 -87t-85.5 -150.5l-506 -961h-76l-139 897h-6l-504 -897h-74z" />
<glyph unicode="X" horiz-adv-x="1327" d="M-82 33l62 6q43 6 74.5 18.5t68.5 41t84 77.5t119 129l274 307l-194 408q-29 59 -47.5 99t-36 64.5t-37 37t-47.5 16.5l-64 10l-6 33h573l-8 -33l-59 -4q-33 -2 -51.5 -11t-23.5 -29.5t5 -56.5t35 -91l129 -287h6l195 225q61 70 97 115t41 71.5t-21.5 40t-88.5 19.5 l-49 8l-4 33h483l-8 -33l-53 -6q-45 -6 -79 -18.5t-71.5 -42t-86 -78.5t-119.5 -129l-215 -246l10 -23q10 -22 27.5 -60t40 -86t47.5 -97q55 -117 124 -266q20 -43 36 -72t30 -46.5t31.5 -25.5t40.5 -10l57 -8l4 -33h-563l6 33l62 4q66 4 79 34.5t-18 90.5l-184 409h-9 q-16 -23 -36 -45q-16 -20 -39 -44.5t-45 -51.5q-53 -61 -121 -139q-63 -72 -99 -116t-41.5 -71.5t21.5 -41t90 -21.5l49 -8l4 -33h-487z" />
<glyph unicode="Y" horiz-adv-x="1277" d="M256 33l111 12q47 4 67.5 14.5t22.5 22.5l94 483l-201 516q-16 43 -30.5 72t-31 46.5t-37 25.5t-48.5 12l-56 10l-2 33h586l-8 -33l-53 -4q-84 -8 -96.5 -44t18.5 -116l162 -448l8 -2l242 338q59 82 91.5 131t36 76.5t-23.5 40t-84 20.5l-55 8l-4 33h458l-8 -33l-53 -8 q-35 -4 -64.5 -17.5t-63.5 -44t-77 -83t-104 -133.5l-273 -377l-98 -506q-2 -12 14.5 -20.5t77.5 -14.5l90 -10l2 -33h-618z" />
<glyph unicode="Z" horiz-adv-x="1202" d="M-12 33l1007 1198l-2 8h-209q-123 0 -207.5 -21.5t-143 -59.5t-97.5 -91t-68 -117l-26 -63h-41l75 393h1002l-6 -33l-1014 -1198v-6l229 -2q129 -2 216.5 17.5t148.5 59.5t106.5 101.5t92.5 145.5l30 67h47l-118 -432h-1028z" />
<glyph unicode="[" horiz-adv-x="665" d="M258 1296h506l-2 -43h-459l-260 -1699h459l-4 -43h-506z" />
<glyph unicode="\" horiz-adv-x="503" d="M-4 1313h45l434 -1796h-45z" />
<glyph unicode="]" horiz-adv-x="665" d="M-113 -446h459l260 1699h-459l3 43h505l-266 -1785h-506z" />
<glyph unicode="^" horiz-adv-x="776" d="M526 1399h74l170 -395h-33l-198 223h-7l-299 -223h-26z" />
<glyph unicode="_" horiz-adv-x="927" d="M-51 2h868l6 -76h-880z" />
<glyph unicode="`" horiz-adv-x="796" d="M279 1401h206l136 -381h-31z" />
<glyph unicode="a" horiz-adv-x="978" d="M672 -27q-16 0 -45 10.5t-57.5 25t-49 30.5t-20.5 29q0 25 25.5 113.5t72.5 213.5h-8q-59 -98 -107.5 -177t-91.5 -132t-84 -82t-86 -29q-80 0 -137 58.5t-57 163.5q0 78 23.5 157.5t61.5 153.5t88 140.5t103 119.5q68 70 139.5 107.5t132.5 37.5q59 0 83 -49t24 -151h10 l74 202l182 -6l-149 -413l-115 -394l94 -12l142 182l18 -14q-66 -135 -139.5 -210t-126.5 -75zM313 111q51 0 121 93t168 279q8 14 17.5 38t17.5 48.5t13 46t5 31.5q-4 31 -20.5 60.5t-41 53t-53 37t-59.5 13.5q-27 0 -45 -10t-37 -29q-31 -33 -62.5 -93.5t-57 -133 t-42 -149.5t-16.5 -138q0 -72 25.5 -109.5t66.5 -37.5z" />
<glyph unicode="b" horiz-adv-x="919" d="M317 -33q-49 0 -101 15.5t-92 44t-60.5 69.5t-4.5 92l277 1039q4 18 1 33.5t-13 17.5l-152 20l6 25l391 55l-63 -233q-37 -123 -72 -232.5t-62.5 -199.5t-48 -157t-32.5 -101q-4 -12 1 -13.5t9 9.5q57 127 108.5 216t97.5 144t90 81t89 26q90 0 143.5 -70t53.5 -180 q0 -61 -15.5 -133t-46 -145t-78 -144.5t-110.5 -132.5q-66 -68 -152 -107t-164 -39zM381 16q49 0 96 47q41 41 79 109t67.5 144.5t47 156.5t17.5 145q0 84 -26.5 125t-71.5 41q-66 0 -138.5 -115.5t-162.5 -310.5q-10 -25 -20.5 -56.5t-18.5 -62t-12.5 -55t-4.5 -37.5 q16 -55 57.5 -93t90.5 -38z" />
<glyph unicode="c" horiz-adv-x="757" d="M305 -27q-59 0 -109.5 23.5t-87 65.5t-57 97.5t-20.5 119.5q0 111 43 224t115.5 205.5t170 152t205.5 59.5q43 0 83 -12.5t70 -35t48 -52t18 -66.5q0 -53 -33.5 -91t-80.5 -38q-45 0 -77 26.5t-32 67.5q0 33 18.5 61.5t45.5 44.5q-16 14 -42 29.5t-63 15.5 q-25 0 -51.5 -16t-52.5 -43q-35 -35 -68 -91t-58.5 -125t-41 -143.5t-15.5 -144.5q0 -211 158 -211q33 0 61.5 9.5t59.5 31t63.5 57t73.5 89.5l21 -17q-39 -63 -80 -116.5t-85 -92.5t-94.5 -61.5t-105.5 -22.5z" />
<glyph unicode="d" horiz-adv-x="978" d="M672 -27q-16 0 -45 10.5t-57.5 26t-49 31.5t-20.5 29q0 25 25.5 112.5t70.5 212.5h-8q-59 -98 -106.5 -177t-90.5 -132t-84 -82t-86 -29q-80 0 -137 58.5t-57 163.5q0 78 23.5 157.5t61.5 153.5t88 139.5t103 118.5q68 70 136.5 111t133.5 41q31 0 51.5 -18.5t32 -47.5 t16.5 -65.5t7 -73.5h10l152 514q4 18 1 33.5t-16 17.5l-172 20l7 25l415 55l-262 -833l-131 -443l94 -12l142 182l18 -16q-66 -135 -139.5 -209t-126.5 -74zM313 111q51 0 121 92t168 280q8 14 17.5 38t17.5 48.5t13 46t5 31.5q-4 31 -20.5 59.5t-41 52t-53 37t-59.5 13.5 q-27 0 -45 -10.5t-37 -26.5q-31 -33 -62.5 -93.5t-57 -133t-42 -149.5t-16.5 -138q0 -72 25.5 -109.5t66.5 -37.5z" />
<glyph unicode="e" horiz-adv-x="774" d="M307 -27q-61 0 -112.5 23.5t-87 65.5t-56 97.5t-20.5 119.5q0 113 44 226t115.5 205.5t166 151t196.5 58.5t164.5 -48.5t62.5 -126.5q0 -102 -132 -169.5t-398 -141.5q-16 -66 -17 -131q0 -100 43 -153.5t125 -53.5q63 0 124 40t141 147l20 -17q-76 -127 -170 -210 t-209 -83zM256 467q186 59 270 124.5t84 168.5q0 47 -31.5 76.5t-70.5 29.5q-27 0 -48.5 -12t-43.5 -33q-45 -45 -91 -140t-73 -212z" />
<glyph unicode="f" horiz-adv-x="577" d="M-156 -410q-76 0 -126 38t-50 98q0 41 30 75.5t81 34.5q31 0 55.5 -15.5t38.5 -42t16 -59t-16 -65.5h68q25 6 46 36.5t42.5 95t46 165t55.5 246.5l109 598l-177 4l27 78l174 16q27 106 69 205.5t107 165.5q53 53 118 81.5t149 28.5q92 0 145 -42t53 -103q0 -49 -34.5 -82 t-79.5 -33q-37 0 -61.5 18.5t-35 47t-4.5 61.5t31 64q-20 2 -39 4q-16 2 -30.5 4t-24.5 2q-33 -10 -59.5 -46t-48 -93.5t-40 -131t-33.5 -155.5h218l-19 -90h-217l-123 -557q-41 -197 -94 -338.5t-131 -220.5q-49 -49 -112 -71t-124 -22z" />
<glyph unicode="g" horiz-adv-x="839" d="M240 -504q-92 0 -169 16.5t-132.5 48t-86 76t-30.5 99.5q0 41 25.5 79t67.5 70.5t96.5 57t113.5 39.5v8q-53 27 -89 61.5t-36 87.5q0 31 18.5 59.5t47 53t66.5 43t79 29.5v6q-55 41 -90 102.5t-35 134.5q0 72 32 135.5t85 111.5t119.5 76t138.5 28q57 -2 111.5 -19.5 t91.5 -44.5l260 33l-31 -142l-234 68v-10q43 -43 68 -95.5t25 -107.5q0 -68 -32 -127t-83 -103t-115.5 -70t-132.5 -26q-82 0 -143 33q-43 -8 -66.5 -36.5t-23.5 -59.5q0 -37 43 -57.5t153 -57.5l62 -18q68 -23 126 -48.5t101 -58t68.5 -74.5t25.5 -98q0 -59 -36.5 -113.5 t-103.5 -96.5t-158 -67.5t-197 -25.5zM350 309q31 0 61.5 16.5t53.5 39.5q31 31 54.5 76.5t37.5 97t22.5 100.5t8.5 86q0 63 -32 104t-79 41q-29 0 -49 -12t-41 -31q-31 -31 -54.5 -76.5t-41 -96t-25.5 -99.5t-8 -86q0 -39 9 -78t26 -55q10 -10 25.5 -18.5t31.5 -8.5z M324 -461q55 0 102 14.5t82 39t55.5 57.5t20.5 69q0 33 -19.5 60.5t-53.5 50.5t-78 41t-91 35q-47 16 -92 30.5t-84 30.5q-74 -23 -123 -75t-49 -125q0 -98 89 -163t241 -65z" />
<glyph unicode="h" horiz-adv-x="985" d="M657 -27q-16 0 -43.5 9.5t-53 23.5t-45 30.5t-19.5 31.5q0 14 12 51t30.5 88t41 112.5t45.5 122.5q14 41 30.5 82t29.5 77t21.5 64.5t8.5 43.5q0 27 -31 49t-63 22q-45 0 -140.5 -141t-224.5 -420l-74 -225l-196 8q2 4 15 46t30.5 96.5t35 106.5t25.5 77q10 35 26.5 92 t36 126.5t41 147.5t42.5 154q49 176 102 379q4 18 1 33.5t-13 17.5l-152 20l6 25l389 55l-63 -233q-37 -123 -72 -246t-67.5 -231.5t-60 -195.5t-50.5 -142l14 -2q43 86 86 165.5t83 147.5t75 118t62 77q37 37 80.5 58t78.5 21q70 0 120 -39.5t50 -91.5q0 -25 -8 -60.5 t-21.5 -80.5t-31 -97t-37.5 -106q-16 -43 -37.5 -98t-41 -106.5t-33 -89t-15.5 -44.5l90 -12l143 182l21 -16q-33 -68 -71 -120t-75.5 -88t-72.5 -55.5t-60 -19.5z" />
<glyph unicode="i" horiz-adv-x="536" d="M487 1075q-53 0 -83.5 35t-30.5 82q0 66 34.5 107.5t79.5 41.5q57 0 88 -34.5t31 -81.5q-2 -63 -37 -106.5t-82 -43.5zM221 -27q-16 0 -45 9.5t-56.5 22.5t-48 29.5t-20.5 28.5q0 6 16.5 57.5t41 125t54.5 160t56.5 164t47 138t28.5 80.5l-109 11l-133 -195l-22 17 q66 135 142.5 217t141.5 82q20 0 48 -11.5t52.5 -30t41 -40t16.5 -41.5q0 -12 -15.5 -62.5t-39 -120t-52 -150.5t-55 -153.5t-47 -129t-26.5 -77.5l100 -14l143 182l19 -16q-33 -68 -71 -120t-75 -88t-71.5 -55.5t-61.5 -19.5z" />
<glyph unicode="j" horiz-adv-x="503" d="M485 1075q-53 0 -83.5 34t-30.5 83q0 66 35.5 106.5t80.5 40.5q55 0 87 -33.5t30 -82.5q-2 -63 -37 -105.5t-82 -42.5zM-219 -518q-27 0 -53.5 9t-48 25.5t-35 40t-13.5 54.5q0 41 31 73.5t78 32.5q31 0 55.5 -15t36.5 -41t11 -57.5t-21 -64.5l84 27q41 51 73.5 148.5 t79.5 267.5l232 806l-105 11l-139 -195l-18 17q63 135 141 217t143 82q18 0 46 -11.5t52.5 -30t42 -40t17.5 -41.5q0 -12 -12.5 -59.5t-31.5 -116t-44 -148.5t-49.5 -156.5t-49 -144.5t-40.5 -109q-55 -164 -113.5 -282.5t-136.5 -196.5q-43 -45 -98.5 -73.5t-114.5 -28.5z " />
<glyph unicode="k" horiz-adv-x="894" d="M596 -27q-29 0 -64.5 16.5t-50.5 33.5q-4 98 -15 181t-26.5 144.5t-34 96t-38.5 34.5q-23 0 -42.5 -11t-19.5 -15l-123 -459l-198 8q2 6 14 45t29.5 90t34 104.5t28.5 86.5q14 45 32.5 108.5t38 136t41 148.5t40.5 149q45 172 92 357q6 16 3 32.5t-13 18.5l-154 20l8 25 l391 55l-61 -233q-68 -229 -114 -383t-81 -260q12 4 27.5 5t26.5 1q43 16 98 41.5t105.5 51.5t88 49.5t46.5 35.5v10q-84 29 -84 115q0 43 35.5 78t82.5 35q51 0 87 -35t36 -86q0 -37 -13 -66.5t-45 -59.5t-88.5 -58.5t-142.5 -61.5l-106 -41q39 -6 71.5 -48t57.5 -103.5 t42 -131t24 -131.5l55 -4l131 193l18 -15q-27 -63 -58.5 -118.5t-67 -96.5t-72.5 -64.5t-72 -23.5z" />
<glyph unicode="l" horiz-adv-x="499" d="M180 -27q-16 0 -45 10.5t-56.5 25t-46 29.5t-14.5 25l318 1164q4 18 1 33.5t-15 17.5l-152 20l8 25l387 55l-362 -1276l88 -12l143 182l19 -16q-66 -135 -143 -209t-130 -74z" />
<glyph unicode="m" horiz-adv-x="1499" d="M1184 -27q-16 0 -44 9.5t-55.5 23.5t-48 30.5t-20.5 31.5q0 14 12 51t30.5 88t42 112.5t46.5 122.5q14 41 30.5 82t30 77t21.5 64.5t8 43.5q0 27 -31.5 49t-66.5 22q-43 0 -131 -141t-217 -420l-74 -225l-199 8l100 313q20 61 43 124t43.5 117t34 94t13.5 57q0 29 -28 51 t-60 22q-45 0 -134.5 -141t-220.5 -420l-69 -225l-197 8l104 328l123 461l-88 10l-135 -197l-20 17q63 135 136 217t134 82q14 0 41 -11.5t53.5 -29t45 -40t18.5 -42.5q0 -23 -13.5 -74t-33 -116.5t-45 -138.5t-50.5 -136l15 -4q43 86 84 166.5t78.5 148.5t71.5 118t61 77 q35 37 80 58.5t79 21.5q70 0 111 -46.5t41 -103.5q0 -29 -12.5 -77t-33 -107.5t-45 -125t-48.5 -126.5l12 -4q43 88 85 169t79 147.5t69.5 116.5t59.5 77q37 37 81 58.5t79 21.5t65.5 -11.5t54 -30t37 -42t13.5 -48.5t-8.5 -61.5t-22 -81.5t-30.5 -97t-38 -106 q-16 -41 -37.5 -97t-41 -107.5t-34 -89t-16.5 -44.5l92 -12l144 182l18 -14q-33 -68 -69.5 -121t-73.5 -89t-69.5 -55.5t-59.5 -19.5z" />
<glyph unicode="n" horiz-adv-x="1034" d="M719 -27q-16 0 -44 9.5t-55.5 23.5t-48 30.5t-20.5 31.5q0 14 12 51t30.5 88t41 112.5t45.5 122.5q14 41 30.5 82t31 77t22.5 64.5t8 43.5q0 27 -31.5 49t-64.5 22q-45 0 -140.5 -141t-226.5 -420l-69 -225l-197 8l104 328l123 458l-88 11l-135 -195l-20 17 q63 135 139 217t137 82q14 0 40 -11.5t50.5 -29t43 -40t18.5 -42.5q0 -23 -12.5 -74t-32 -116.5t-44 -138.5t-49.5 -136l11 -4q43 86 86 166.5t83 148.5t75.5 118t62.5 77q37 37 80 58.5t80 21.5q70 0 119 -41t49 -91q0 -25 -7.5 -61.5t-20.5 -81.5t-31.5 -97t-39.5 -106 l-127 -338l92 -12l144 182l18 -14q-68 -135 -143.5 -210t-128.5 -75z" />
<glyph unicode="o" horiz-adv-x="870" d="M354 -27q-72 0 -129 30t-97 82t-62.5 123t-22.5 152q0 98 40 197.5t105.5 179.5t147.5 129t168 49q70 0 129 -29.5t102 -81.5t66.5 -124t23.5 -154q0 -98 -40 -197.5t-106.5 -178t-151.5 -128t-173 -49.5zM334 16q43 0 83 30t73.5 79t61.5 112.5t48 133.5q23 72 33 152.5 t10 133.5q0 98 -28.5 156.5t-82.5 58.5q-37 0 -75.5 -33.5t-74.5 -87t-67.5 -123t-52.5 -139.5q-20 -72 -30.5 -141t-10.5 -123q0 -90 30 -149.5t83 -59.5z" />
<glyph unicode="p" horiz-adv-x="960" d="M-209 -481l59 8q41 4 57.5 10t20.5 25l342 1226l-88 11l-135 -195l-20 17q63 135 136 217t134 82q16 0 43 -12.5t51.5 -31t43 -40t18.5 -39.5q0 -16 -5.5 -41t-13.5 -54.5t-19.5 -61.5t-21.5 -60h13q84 174 160.5 254.5t170.5 80.5q86 0 138.5 -80.5t52.5 -209.5 q0 -119 -45 -236t-118 -209t-166 -149.5t-189 -57.5q-49 0 -88 26t-62 67h-4l-139 -508q-4 -12 15.5 -20.5t76.5 -10.5l86 -8l2 -33h-510zM428 12q29 0 55.5 17.5t48.5 40.5q39 39 76 105.5t65.5 143t46 153.5t17.5 138q0 92 -28.5 135t-73.5 43q-41 0 -80 -38.5t-80 -106.5 t-82 -161t-84 -199q-2 -6 -7 -24.5t-10 -40t-9 -41t-4 -30.5q6 -25 21 -48t35.5 -42.5t44 -32t48.5 -12.5z" />
<glyph unicode="q" horiz-adv-x="942" d="M170 -481l82 8q53 2 69.5 12t20.5 27l160 532q2 8 16 51.5t30.5 93.5t31 96t20.5 58h-10q-59 -98 -106.5 -176t-90.5 -133t-85 -84t-87 -29q-80 0 -137 58.5t-57 163.5q0 78 23.5 157.5t61.5 153.5t88 139.5t103 118.5q68 70 136.5 111t133.5 41q31 0 51.5 -18.5 t33 -47.5t17.5 -65.5t7 -73.5h10l70 190l184 -6l-151 -414l-263 -921q-4 -16 18.5 -23.5t63.5 -11.5l58 -8l6 -33h-514zM313 111q51 0 121 92t168 280q8 14 17.5 38t17.5 48.5t13 46t5 31.5q-4 31 -20.5 59.5t-41 52t-53 37t-59.5 13.5q-27 0 -45 -10.5t-37 -26.5 q-31 -33 -62.5 -93.5t-57 -133t-42 -149.5t-16.5 -138q0 -72 25.5 -109.5t66.5 -37.5z" />
<glyph unicode="r" horiz-adv-x="837" d="M43 2l104 328l123 461l-88 10l-135 -197l-20 17q63 135 136 217t134 82q14 0 41 -11.5t53.5 -29t45 -40t18.5 -42.5q0 -23 -11.5 -67t-29 -102.5t-40 -124t-46.5 -128.5h12q86 174 149.5 298t116.5 173q35 39 67 58.5t75 17.5q63 -4 103 -47.5t38 -102.5t-39 -98t-84 -37 q-35 2 -58.5 19.5t-32.5 43t-2 56t34 57.5l-25 8l-25 8q-23 -12 -50 -46.5t-66 -99.5t-92.5 -161t-122.5 -231l-84 -297z" />
<glyph unicode="s" horiz-adv-x="696" d="M258 -27q-53 0 -103.5 11.5t-89 34t-62 56.5t-23.5 79q0 49 31.5 83.5t82.5 34.5q39 0 64.5 -28.5t25.5 -67.5q0 -27 -15 -52.5t-34 -41.5q10 -10 29.5 -21.5t44 -21.5t50.5 -18.5t50 -8.5q33 2 58.5 19.5t43 41t28 51.5t10.5 50q0 31 -14.5 57.5t-38 53t-52.5 52 t-57 52.5q-35 33 -66 64.5t-54.5 63.5t-35.5 65.5t-12 72.5q2 59 30.5 108.5t73.5 83.5t101.5 52.5t113.5 18.5q49 0 95.5 -9.5t81 -30t56 -52t21.5 -76.5q0 -53 -30.5 -84t-77.5 -31q-41 0 -69 29.5t-28 68.5q0 29 16.5 52.5t35.5 37.5q-23 12 -55.5 31.5t-80.5 22.5 q-31 -2 -55 -17.5t-40.5 -38t-26 -48t-9.5 -46.5q0 -29 14.5 -55.5t36 -52t49 -51t54.5 -52.5q29 -29 60.5 -59.5t57 -64.5t42 -70.5t16.5 -79.5q-2 -59 -32.5 -108.5t-80 -84.5t-110 -55.5t-121.5 -20.5z" />
<glyph unicode="t" horiz-adv-x="608" d="M244 -27q-20 0 -55 9.5t-69 21.5t-57.5 27.5t-21.5 27.5q0 2 14.5 55.5t36 133.5t46 173t47 174t38 136t17.5 62l-162 6l26 78l164 22l74 262h190l-73 -272h198l-4 -90h-219l-209 -695l129 -14l140 182l18 -16q-66 -135 -138.5 -209t-129.5 -74z" />
<glyph unicode="u" horiz-adv-x="1034" d="M729 -29q-14 0 -38.5 11.5t-48.5 30t-41 41t-17 42.5t12 72.5t30.5 119t43 139.5t49.5 136l-10 2q-43 -86 -86 -167t-83 -148.5t-75 -118.5t-62 -78q-37 -35 -80.5 -56.5t-78.5 -21.5t-66 11.5t-54.5 30t-36.5 42t-13 47.5q0 25 8 62t21.5 82t31 96t37.5 105l125 337 l-92 13l-137 -197l-21 14q33 68 69 124.5t71.5 95.5t69.5 60.5t60 21.5q14 0 43 -10.5t56.5 -26t48 -31.5t20.5 -31q0 -14 -12 -51t-30.5 -87t-41 -110.5t-45.5 -121.5q-16 -41 -31.5 -83t-28.5 -78t-21.5 -63.5t-8.5 -42.5q0 -27 31 -50t65 -23q43 0 138.5 141t228.5 420 l70 227l196 -8l-104 -328l-62 -225q-12 -43 -23 -84t-20.5 -75t-15.5 -55.5t-6 -23.5l88 -12l139 182l19 -14q-66 -135 -142 -210t-139 -75z" />
<glyph unicode="v" horiz-adv-x="862" d="M285 -27q-37 0 -75 14.5t-66.5 39t-47 55.5t-18.5 63q0 41 32.5 116t77.5 161t95.5 171t87.5 146l-219 37l-113 -162l-19 17q63 135 126 214t118 79q18 0 53 -4.5t69 -11.5t59.5 -16t25.5 -20q0 -16 -15.5 -55t-38 -92t-48 -113.5t-48 -121t-38 -114.5t-15.5 -93 q0 -43 15.5 -75t39 -52.5t53.5 -30.5t58 -10q23 0 55.5 30.5t68.5 79.5t72 111.5t64.5 126t48 123t21.5 102.5q-25 -6 -51.5 1t-49 22.5t-37 39t-14.5 50.5q0 45 33 83t86 38q55 0 92 -38t37 -104q0 -53 -25.5 -131t-67.5 -164t-96.5 -170t-113.5 -149q-72 -88 -139 -140.5 t-133 -52.5z" />
<glyph unicode="w" horiz-adv-x="1243" d="M238 -27q-35 0 -66 13.5t-53.5 36t-36.5 54.5t-14 66q0 53 35.5 134t84 166t97.5 164t75 132l-208 37l-111 -162l-18 17q63 135 125.5 214t117.5 79q18 0 53 -4.5t69 -12.5t59.5 -17t25.5 -18q-2 -16 -19.5 -56t-42 -92t-53 -114.5t-53 -123t-41 -116t-16.5 -96.5 t13 -66.5t31.5 -40.5t40 -21.5t40.5 -6.5q23 0 55.5 28t68 73t74.5 102t75 116.5t66.5 115t51.5 98.5q0 2 -17.5 9t-40 22.5t-41 40t-18.5 59.5q0 51 34 83t83 32q47 0 82 -34t35 -87q0 -39 -14.5 -67t-36 -56.5t-47 -64.5t-46.5 -87q-23 -61 -33 -107t-10 -93 q0 -53 16.5 -88t40 -56.5t52 -30t53.5 -8.5q29 0 63.5 28t68.5 74t64.5 105.5t54 121.5t37 121.5t13.5 108.5q-20 -8 -47 -4t-49.5 18.5t-38.5 37t-16 51.5q0 47 32.5 84t79.5 37q53 0 91 -40t38 -108q0 -55 -21.5 -135t-57 -166t-84 -169t-101.5 -144 q-61 -86 -118.5 -136.5t-110.5 -50.5q-35 0 -62.5 16.5t-47 41t-30 55.5t-10.5 59q0 47 25.5 132t66.5 192q-63 -109 -122.5 -200t-117 -156.5t-112.5 -102.5t-106 -37z" />
<glyph unicode="x" horiz-adv-x="944" d="M102 -27q-61 0 -106 35t-43 94q0 55 31.5 89t76.5 34q29 0 49.5 -13t31 -34.5t8 -47.5t-16.5 -50q0 -4 18.5 -14.5t22.5 -8.5q14 2 42 34t59.5 80t63.5 107.5t54 116.5q-8 53 -22.5 121t-31.5 128.5t-35.5 101t-35.5 40.5h-39q-18 0 -39 2l-94 -155l-22 16 q57 131 122.5 201t131.5 70q88 0 132 -86t79 -250h6q39 94 70.5 158.5t62.5 104.5t62.5 57.5t72.5 17.5q59 0 104.5 -35t43.5 -94q0 -53 -32 -87t-75 -34q-29 0 -49.5 13t-31.5 34.5t-10 45t13 46.5q0 4 -18.5 9t-22.5 5q-12 -2 -35.5 -29.5t-49 -70.5t-51.5 -93t-44 -97 q8 -55 23.5 -129t32 -140.5t36 -111.5t37.5 -45h76l96 153l23 -18q-59 -129 -123 -200t-129 -71q-90 0 -138.5 99.5t-80.5 269.5h-7q-47 -106 -83.5 -177t-70.5 -114t-68 -60.5t-77 -17.5z" />
<glyph unicode="y" horiz-adv-x="897" d="M-70 -416q-88 0 -136 39t-48 103q0 49 35 79.5t78 30.5q31 0 56.5 -14.5t40.5 -38t16 -55t-15 -68.5l66 -18q33 8 78.5 35.5t94 64.5t93.5 77t76 70q2 174 -10.5 339t-34 293t-52 206t-63.5 78l-37 2l-129 -203l-21 17q31 68 59.5 123t59.5 94t67 60.5t81 21.5 q70 0 115.5 -38t73.5 -132.5t41 -255t15 -404.5q0 -2 5 -2h6q39 59 83 147.5t81.5 180.5t63.5 176t28 135q-33 -20 -65 -18t-56.5 16t-41 36.5t-16.5 47.5q-2 47 29 83t84 36t93 -41t40 -117q0 -90 -40 -207t-101 -233.5t-136 -223t-145 -178.5q-43 -45 -104.5 -104.5 t-131 -112.5t-141.5 -90t-135 -37z" />
<glyph unicode="z" horiz-adv-x="796" d="M498 -45q-68 0 -119 30.5t-92 69.5t-74 77t-63 54h-17l-61 -213q-43 4 -79 32t-36 67q0 55 44 91t99 50l508 459q-53 -8 -101 9t-90 47t-78 63.5t-65 56.5q-4 2 -15 -7.5t-23.5 -21.5t-19.5 -23.5t-3 -11.5q39 -10 61.5 -37.5t22.5 -62.5q0 -41 -27.5 -69.5t-72.5 -28.5 q-47 0 -74 31.5t-27 72.5t29 82t72 74t93 53.5t93 22.5q70 -4 108.5 -32t62.5 -63.5t38 -68.5t35 -45l12 2l57 205q41 -4 77 -32t36 -67q0 -57 -42 -90t-95 -47l-508 -457q68 8 132 -12t121.5 -53t101.5 -71t73 -62q2 -2 12 9t19.5 24.5t15.5 24.5t2 11q-43 10 -66.5 42 t-23.5 67q0 41 27.5 68.5t72.5 27.5q47 2 73 -31.5t26 -76.5q0 -41 -22.5 -82t-59.5 -75t-82 -57.5t-88 -25.5z" />
<glyph unicode="{" horiz-adv-x="655" d="M510 -510q-92 12 -168 42t-128 75t-75.5 101t-13.5 124q8 61 31.5 115.5t49 104.5t48 97.5t29.5 94.5q14 84 -52.5 121.5t-201.5 58.5l-11 25l15 26q61 2 113.5 9.5t92.5 23.5t65.5 43t31.5 70q6 47 -1 98t-16.5 106.5t-14.5 113.5t5 120q10 66 50 117t103.5 86.5 t146.5 53t177 17.5l2 -33q-147 -6 -217.5 -48t-83.5 -126q-8 -49 -1.5 -102t15.5 -108.5t14 -114t-3 -117.5q-16 -104 -117.5 -163.5t-255.5 -69.5q0 -2 -1 -7.5t-1 -7.5q150 -27 233 -95.5t66 -174.5q-10 -59 -33.5 -114.5t-49 -108t-49 -103.5t-32.5 -102 q-14 -82 43.5 -135.5t198.5 -81.5l-4 -31v0z" />
<glyph unicode="|" horiz-adv-x="389" d="M176 1372h37v-1796h-37v1796z" />
<glyph unicode="}" horiz-adv-x="655" d="M-117 -477q147 6 217 49t84 127q8 49 -3 103.5t-26.5 110.5t-26.5 113.5t-3 116.5q16 104 117.5 165t255.5 71v14q-147 27 -229.5 96.5t-65.5 174.5q8 59 36.5 113t61.5 106.5t60.5 102.5t35.5 101q14 82 -42 135.5t-197 82.5l4 30q92 -12 168 -41.5t128 -73.5 t75.5 -101.5t13.5 -125.5q-10 -59 -39 -113.5t-60.5 -104.5t-59.5 -97t-34 -94q-6 -43 11.5 -73t52.5 -51.5t84 -34.5t106 -22l10 -22l-12 -25q-137 -6 -214 -35.5t-89 -113.5q-6 -47 5 -98.5t26.5 -106.5t26 -113.5t1.5 -117.5q-10 -68 -50 -120t-103.5 -87t-146 -53.5 t-177.5 -18.5z" />
<glyph unicode="~" horiz-adv-x="774" d="M532 317q-47 0 -94 20.5t-91 46.5t-84 46.5t-70 20.5q-35 0 -59.5 -20.5t-47.5 -96.5h-31q31 133 74 188.5t125 55.5q45 0 92 -20.5t90 -46.5t83 -46.5t71 -20.5q35 0 60.5 19.5t49.5 95.5h17q14 0 16 2q-16 -66 -34.5 -113t-42 -75.5t-54.5 -42t-70 -13.5z" />
<glyph unicode="&#xa1;" horiz-adv-x="548" d="M410 1044q-53 0 -91 38t-38 92q0 51 36.5 90t90.5 39q57 0 95 -39t38 -90q0 -53 -38 -91.5t-93 -38.5zM184 -35q-41 2 -64.5 13.5t-32.5 29t-8 38t9 42.5l258 789q4 10 14.5 9t10.5 -9l-52 -811q-2 -23 -8 -42.5t-19 -33t-38 -21.5t-64 -4h-6z" />
<glyph unicode="&#xa2;" horiz-adv-x="751" d="M244 -18q-96 23 -154.5 103.5t-58.5 190.5q0 111 43 224.5t115.5 207t170 152t205.5 58.5q31 0 60 -7q10 25 22 54q10 25 22.5 55.5t26.5 62.5q31 76 72 174h43l-147 -358q53 -20 86.5 -58t33.5 -89q0 -53 -33.5 -90t-80.5 -37q-68 0 -99 53l-235 -574q23 -8 55 -8 q33 0 61.5 9.5t59.5 31t63.5 57t73.5 89.5l21 -19q-39 -61 -80 -114.5t-85 -92.5t-94.5 -61.5t-105.5 -22.5q-14 0 -22 2l-125 -303h-41zM598 844q-16 10 -34.5 17t-43.5 7t-53.5 -16t-54.5 -41q-35 -35 -67 -91t-58.5 -125t-42 -143.5t-15.5 -144.5q0 -137 72 -186 q20 53 45 112q20 51 47 117t56 133q65 158 149 361z" />
<glyph unicode="&#xa3;" horiz-adv-x="1087" d="M143 586l9 41h210q-4 35 -8 69.5t-2 71.5q2 104 43 200.5t112 168t166 114.5t210 43q125 0 193.5 -47t64.5 -121q0 -51 -33 -85.5t-86 -34.5q-43 0 -67.5 21.5t-34 53t-2 66.5t29.5 63q-10 10 -36.5 25.5t-73.5 15.5q-80 0 -152 -61.5t-98 -200.5q-14 -68 -12 -162 t-9 -200h264l5 -41h-275q-6 -61 -24 -123q-14 -59 -42 -119.5t-67 -118.5q96 -31 188.5 -59.5t163.5 -28.5q43 0 75 10.5t56.5 35t45 65.5t38.5 102l25 -6q-16 -76 -46 -142.5t-73 -116.5t-97 -80t-120 -30q-109 0 -196 41t-160 88q-59 -59 -124 -94t-130 -35 q-59 0 -99.5 37t-35.5 90q2 72 57 125.5t164 53.5q47 0 98 -10.5t107 -26.5q12 33 20 64.5t8 66.5q2 53 -6 105t-18 106h-226zM293 127q-53 35 -103.5 61.5t-99.5 26.5t-83 -32.5t-36 -80.5q0 -39 30 -68.5t75 -29.5q57 0 114.5 35t102.5 88z" />
<glyph unicode="&#xa4;" horiz-adv-x="917" d="M143 436l117 117q-68 78 -67 182q0 104 67 183l-117 116l29 29l117 -117q37 31 83 49.5t99 18.5t99 -18.5t83 -49.5l117 117l29 -29l-117 -116q31 -37 49.5 -83.5t18.5 -99.5t-18.5 -99t-49.5 -83l117 -117l-29 -28l-117 116q-78 -68 -182 -67q-104 0 -182 67l-117 -116z M233 735q0 -49 18.5 -92t51.5 -75.5t76 -51t92 -18.5t92 18.5t76 51t51.5 75.5t18.5 92t-18.5 92t-51.5 76t-76 51.5t-92 18.5t-92 -18.5t-76 -51.5t-51.5 -76t-18.5 -92z" />
<glyph unicode="&#xa5;" horiz-adv-x="1257" d="M176 586v41h361l-187 471q-27 76 -55.5 105.5t-85.5 35.5l-53 8l-4 33h581l-6 -33l-53 -4q-84 -6 -95.5 -45t23.5 -125l150 -409l6 -2l235 323q57 80 85 127t29 73.5t-25.5 38t-77.5 17.5l-43 6l-3 33h437l-6 -33l-50 -6q-35 -6 -61.5 -16.5t-58 -36t-72.5 -73.5 t-103 -130l-260 -358h361v-21q0 -8 -2 -20h-373l-41 -219h375l4 -41h-387l-47 -248q-2 -12 13 -20.5t77 -14.5l92 -10l4 -33h-618l6 33l112 12q47 4 68 14.5t23 22.5l47 244h-365l8 41h365l41 219h-371z" />
<glyph unicode="&#xa6;" horiz-adv-x="389" d="M176 1284h37v-686h-37v686zM176 371h37v-686h-37v686z" />
<glyph unicode="&#xa7;" horiz-adv-x="831" d="M301 -94q-55 0 -104.5 11t-86 31.5t-58 50.5t-21.5 64q0 47 29.5 80t76.5 33q37 0 59.5 -18.5t32 -46t6 -59.5t-21.5 -60q18 -23 54 -34t67 -11q37 0 67.5 14t52 35.5t33 49.5t11.5 52q-2 70 -64.5 130.5t-148.5 121.5q-43 31 -84 62.5t-74 68.5t-52.5 79t-19.5 89 q0 92 65.5 160t160.5 100q-18 29 -27.5 60.5t-9.5 62.5q0 57 26.5 107.5t71.5 88.5t106.5 59.5t133.5 21.5q53 0 100 -11.5t83 -33t56.5 -51t20.5 -64.5q0 -43 -32 -75t-79 -32q-37 0 -59.5 18.5t-31.5 46.5t-4 60.5t21 61.5q-16 23 -46.5 32t-57.5 9q-41 0 -70.5 -13.5 t-50 -35t-31 -47t-10.5 -50.5q0 -35 17.5 -67.5t46 -63t67.5 -61.5t82 -62t84 -62.5t74 -68.5t53.5 -77.5t20.5 -88.5q0 -94 -68 -161.5t-162 -100.5q39 -59 39 -127q0 -59 -28.5 -109t-75.5 -88t-109.5 -59.5t-130.5 -21.5zM592 334q51 29 75.5 67.5t24.5 81.5 q0 61 -47 111.5t-119 103.5q-70 51 -130 96.5t-99 92.5q-47 -25 -73.5 -64t-26.5 -86q0 -59 46 -108t124 -105q70 -51 128 -95t97 -95z" />
<glyph unicode="&#xa8;" horiz-adv-x="792" d="M729 1059q-59 0 -88 39t-29 80q0 20 7.5 42.5t21.5 41t36.5 30t51.5 11.5t51.5 -11.5t38 -30t22.5 -41t7 -42.5q0 -41 -30 -80t-89 -39zM334 1059q-59 0 -88 39t-29 80q0 20 7 42.5t21.5 41t37 30t51.5 11.5t51.5 -11.5t37.5 -30t22.5 -41t7.5 -42.5q0 -41 -30 -80 t-89 -39z" />
<glyph unicode="&#xa9;" horiz-adv-x="1470" d="M758 -37q-141 0 -264 53.5t-214.5 145.5t-144.5 215t-53 264t53 264t144.5 215t214 145.5t264.5 53.5q141 0 264 -53.5t214 -145.5t144.5 -215t53.5 -264t-53.5 -264t-144.5 -215t-214 -145.5t-264 -53.5zM758 -2q131 0 246.5 50t201.5 138t136.5 205t50.5 250 q0 131 -50.5 248t-136.5 205t-201.5 139t-246.5 51q-133 0 -249 -51t-202 -139t-136 -205t-50 -248q0 -133 50 -250t136 -205t202 -138t249 -50zM780 240q-98 0 -177 29.5t-134 81.5t-85 125t-30 157q0 86 31 159.5t88 128t136 85t177 30.5q59 0 112.5 -13t82.5 -30l84 29 l4 -254h-27l-98 193q-53 43 -162 43q-66 0 -118 -27t-87.5 -75t-55 -112.5t-19.5 -140.5q0 -84 21.5 -153.5t60.5 -119.5t92 -78t115 -28q86 0 136 37t93 105l43 94h29l-39 -223l-49 -2q-35 -16 -100 -28.5t-124 -12.5z" />
<glyph unicode="&#xaa;" horiz-adv-x="761" d="M285 584q-59 0 -102.5 46t-43.5 126q0 57 17.5 117.5t46 117t66.5 106.5t79 91q53 55 108.5 83.5t102.5 28.5t62.5 -38.5t17.5 -116.5h6l57 158l138 -7l-113 -323l-84 -291l72 -10l110 149l13 -10q-53 -104 -110.5 -165.5t-98.5 -61.5q-12 0 -34 9t-42.5 21.5t-35.5 25.5 t-15 24q0 20 21.5 84.5t60.5 175.5h-6q-47 -80 -86 -143.5t-73 -107.5t-66.5 -66.5t-67.5 -22.5zM360 688q35 0 93.5 78t126.5 207q10 23 24 63.5t14 57.5q-10 47 -49 85t-86 38q-35 0 -61 -27q-25 -25 -48.5 -70t-42 -99t-30.5 -111.5t-12 -106.5q0 -57 20 -86t51 -29z" />
<glyph unicode="&#xab;" horiz-adv-x="937" d="M432 436l4 47l520 340l11 -22l-342 -359l211 -331l-17 -21zM33 436l4 47l512 318l8 -21l-321 -338l200 -309l-16 -22z" />
<glyph unicode="&#xac;" horiz-adv-x="917" d="M862 270h-45v324h-782l6 45h821v-369z" />
<glyph unicode="&#xad;" horiz-adv-x="604" d="M68 528h501l-14 -92h-508z" />
<glyph unicode="&#xae;" horiz-adv-x="1462" d="M758 -35q-141 0 -264 53.5t-214.5 144.5t-144.5 214t-53 264t53 264t144.5 215t214 145.5t264.5 53.5q141 0 264 -53.5t214 -145.5t144.5 -215t53.5 -264t-53.5 -264t-144.5 -214t-214 -144.5t-264 -53.5zM758 0q131 0 246.5 50t201.5 137t136.5 204t50.5 250 q0 131 -50.5 249t-136.5 205t-201.5 138t-246.5 51q-133 0 -249 -51t-202 -138t-136 -205t-50 -249q0 -133 50 -250t136 -204t202 -137t249 -50zM397 291l60 6q20 4 34.5 10t14.5 12v650q0 6 -9.5 10t-47.5 8l-50 8l-4 27h340q160 0 237 -53.5t77 -145.5q0 -70 -50.5 -123 t-136.5 -71l158 -240q18 -29 32.5 -46t29 -26.5t29.5 -14.5t36 -7l27 -6l4 -27h-244l-21 37l-192 324q-12 4 -37 8t-39 8v-322q0 -8 17.5 -12t39.5 -8l52 -6l4 -29h-363zM737 655q78 2 122 43t44 125t-53 125t-154 37l-51 -2v-309q18 -8 47 -12.5t45 -6.5z" />
<glyph unicode="&#xaf;" horiz-adv-x="774" d="M231 1081q2 4 5 13q2 6 10 26q6 18 14 41h520l-20 -80h-529v0z" />
<glyph unicode="&#xb0;" horiz-adv-x="657" d="M432 737q-61 0 -113.5 21.5t-89 59.5t-57 88t-20.5 110q0 61 21.5 115.5t60 95.5t93 65.5t119.5 24.5q61 0 112.5 -21.5t88.5 -59.5t57.5 -88t20.5 -108q0 -61 -21.5 -116.5t-59.5 -96.5t-92 -65.5t-120 -24.5zM434 780q55 0 99.5 20.5t75 54.5t48 80t17.5 99 q2 98 -61.5 167t-168.5 71q-55 0 -100 -20.5t-75.5 -56.5t-48 -82t-17.5 -95q-2 -102 62.5 -170t168.5 -68z" />
<glyph unicode="&#xb1;" horiz-adv-x="917" d="M442 504h-405l6 45h399v344h45v-344h400l6 -45h-406v-332h-45v332zM63 55l7 45h790l6 -45h-803z" />
<glyph unicode="&#xb2;" horiz-adv-x="608" d="M-23 594q111 84 195 148.5t141.5 122t87 112.5t29.5 121q-2 70 -45 104.5t-96 34.5t-94 -25.5t-78 -68.5l-11 14q51 74 123 128t160 54q92 0 148.5 -54t58.5 -134q0 -72 -37 -127t-101.5 -109.5t-152.5 -113t-190 -133.5v-4h254q59 0 98 24.5t80 91.5l16 25h23l-107 -258 h-504z" />
<glyph unicode="&#xb3;" horiz-adv-x="577" d="M190 506q-39 0 -76.5 6t-67.5 19.5t-48 35t-18 51.5q0 29 22.5 51.5t54.5 22.5q25 0 44.5 -13t30.5 -33.5t12 -46.5t-11 -50q10 -6 28.5 -12.5t35.5 -6.5q39 0 73.5 17.5t59 46.5t39 67.5t14.5 79.5q0 70 -43 113t-121 43q-23 0 -43 -5t-37 -9l-8 20q68 31 120 55.5 t88 50t54.5 54.5t18.5 67q0 47 -34 79t-87 32q-51 0 -100.5 -29.5t-79.5 -70.5l-9 14q45 78 119 131t164 53q78 0 133 -44t55 -105q0 -84 -72.5 -135t-181.5 -86v-4q6 2 14.5 2h14.5q92 -6 142.5 -59.5t50.5 -129.5q0 -55 -30 -104t-78 -86t-111.5 -59.5t-131.5 -22.5z" />
<glyph unicode="&#xb4;" horiz-adv-x="796" d="M657 1401h222l-453 -381h-29z" />
<glyph unicode="&#xb5;" horiz-adv-x="1046" d="M10 -514l6 33l43 2q43 4 62.5 10t19.5 23v1267q0 6 -2 11.5t-11 8.5t-29.5 5t-55.5 6l-33 4l-6 31h346l-6 -668q0 -115 170 -115q61 0 113.5 15.5t87.5 44.5v620q0 39 -18.5 51.5t-80.5 16.5l-38 4l-7 31h347v-717q0 -41 8 -55.5t30 -20.5l97 -24l-2 -23l-336 -80l2 154 h-6q-47 -70 -89 -110t-108 -40q-49 0 -91 29t-73 98h-6v-544q0 -16 19.5 -22.5t62.5 -10.5l43 -2l6 -33h-465z" />
<glyph unicode="&#xb6;" horiz-adv-x="921" d="M764 512q-25 -6 -45 -6q-131 0 -238.5 25.5t-183.5 73.5t-118 118t-42 156q0 102 39 178t108.5 126t167 74.5t216.5 24.5h293l-254 -1345h-50z" />
<glyph unicode="&#xb7;" horiz-adv-x="442" d="M213 334q-57 0 -96 41t-39 94t38 93t95 40q59 0 97 -40t38 -93t-38 -94t-95 -41z" />
<glyph unicode="&#xb8;" horiz-adv-x="788" d="M8 -512q184 16 264 61t80 117q0 55 -52 79t-124 24q-59 0 -115 -13l5 25l256 227h47l-150 -135q119 6 196 -39t77 -123q0 -66 -40 -110.5t-106.5 -73.5t-154 -44t-181.5 -18z" />
<glyph unicode="&#xb9;" horiz-adv-x="524" d="M39 571l61 4q57 4 60 25l127 647l-129 21l6 16l291 49l-144 -735q-4 -20 58 -23l47 -4l4 -24h-385z" />
<glyph unicode="&#xba;" horiz-adv-x="675" d="M389 580q-53 0 -97 22.5t-75 62.5t-48 93t-17 114q0 76 30.5 153t80.5 139.5t113.5 101.5t129.5 39q55 0 100 -24t77 -63.5t50.5 -95t18.5 -116.5q0 -78 -31 -154t-81 -136.5t-115.5 -98t-135.5 -37.5zM373 612q33 0 63.5 22.5t57 60.5t49 88.5t39.5 103.5 q16 57 22 117.5t6 101.5q0 76 -21.5 119t-62.5 43q-29 0 -57.5 -25.5t-56 -67.5t-52 -95.5t-41.5 -108.5q-16 -53 -24 -107.5t-8 -93.5q0 -72 22.5 -115t63.5 -43z" />
<glyph unicode="&#xbb;" horiz-adv-x="937" d="M377 127l321 338l-202 313l16 21l387 -326l-4 -47l-512 -317zM-31 106l338 359l-211 334l17 22l389 -348l-4 -47l-521 -338z" />
<glyph unicode="&#xbc;" horiz-adv-x="1329" d="M1010 -72h-332v23l512 565l76 -8l-97 -492h136l-33 -88h-119l-41 -207h-141zM1026 16l70 349h-6l-318 -349h254zM39 571l61 4q57 4 60 25l127 647l-129 21l6 16l291 49l-144 -735q-4 -20 58 -23l47 -4l4 -24h-385zM1360 1290h55l-1388 -1538h-56z" />
<glyph unicode="&#xbd;" horiz-adv-x="1386" d="M743 -233q111 84 195 148.5t141.5 121.5t87 112.5t29.5 120.5q-2 70 -45 105t-96 35t-94 -26t-78 -69l-11 15q51 74 123 128t160 54q92 0 148.5 -54.5t58.5 -133.5q0 -72 -37 -127.5t-101.5 -109.5t-152.5 -112.5t-190 -134.5v-4h254q59 0 98 24.5t80 92.5l16 24h23 l-107 -258h-504zM39 571l61 4q57 4 60 25l127 647l-129 21l6 16l291 49l-144 -735q-4 -20 58 -23l47 -4l4 -24h-385zM1360 1290h55l-1388 -1538h-56z" />
<glyph unicode="&#xbe;" horiz-adv-x="1302" d="M981 -72h-332v23l512 565l76 -8l-96 -492h135l-33 -88h-119l-41 -207h-141zM997 16l70 349h-6l-318 -349h254zM190 506q-39 0 -76.5 6t-67.5 19.5t-48 35t-18 51.5q0 29 22.5 51.5t54.5 22.5q25 0 44.5 -13t30.5 -33.5t12 -46.5t-11 -50q10 -6 28.5 -12.5t35.5 -6.5 q39 0 73.5 17.5t59 46.5t39 67.5t14.5 79.5q0 70 -43 113t-121 43q-23 0 -43 -5t-37 -9l-8 20q68 31 120 55.5t88 50t54.5 54.5t18.5 67q0 47 -34 79t-87 32q-51 0 -100.5 -29.5t-79.5 -70.5l-9 14q45 78 119 131t164 53q78 0 133 -44t55 -105q0 -84 -72.5 -135t-181.5 -86 v-4q6 2 14.5 2h14.5q92 -6 142.5 -59.5t50.5 -129.5q0 -55 -30 -104t-78 -86t-111.5 -59.5t-131.5 -22.5zM1331 1290h55l-1388 -1538h-55z" />
<glyph unicode="&#xbf;" horiz-adv-x="677" d="M508 1057q-55 0 -92 38t-37 87q0 53 36 92t93 39q53 0 91 -39t38 -92q0 -51 -37 -88t-92 -37zM399 -27q-84 0 -151.5 31t-113.5 81t-70.5 113.5t-24.5 131.5q0 133 60.5 202.5t183.5 106.5q106 31 155 55.5t49 79.5q0 35 -19 65.5t-52 63.5l33 4q53 -47 91 -108.5 t38 -116.5q0 -90 -71 -134t-196 -77q-121 -33 -172 -59.5t-51 -81.5q0 -31 21.5 -61.5t62.5 -55.5t103.5 -41t146.5 -16q29 0 54.5 2t45.5 6q20 -27 21 -62q0 -25 -6.5 -47t-22.5 -40.5t-44 -30t-71 -11.5z" />
<glyph unicode="&#xc0;" horiz-adv-x="1265" d="M377 518l-94 -186q-47 -86 -74 -140.5t-28 -86t28 -45t90 -19.5l61 -8l5 -33h-457l6 33l45 8q43 6 72.5 18.5t60.5 49t72 107.5t108 194l373 714l-6 80q20 4 48 14.5t55.5 26t50 32.5t34.5 34h31l131 -1065q8 -61 18.5 -99t25 -61t34.5 -32t51 -11l70 -10v-33h-594l6 33 l72 6q70 6 82 46t2 128l-31 305h-348zM719 565l-25 250q-10 111 -26 252h-9l-258 -502h318zM492 1743h206l136 -381h-31z" />
<glyph unicode="&#xc1;" horiz-adv-x="1265" d="M377 518l-94 -186q-47 -86 -74 -140.5t-28 -86t28 -45t90 -19.5l61 -8l5 -33h-457l6 33l45 8q43 6 72.5 18.5t60.5 49t72 107.5t108 194l373 714l-6 80q20 4 48 14.5t55.5 26t50 32.5t34.5 34h31l131 -1065q8 -61 18.5 -99t25 -61t34.5 -32t51 -11l70 -10v-33h-594l6 33 l72 6q70 6 82 46t2 128l-31 305h-348zM719 565l-25 250q-10 111 -26 252h-9l-258 -502h318zM938 1743h221l-452 -381h-29z" />
<glyph unicode="&#xc2;" horiz-adv-x="1265" d="M377 518l-94 -186q-47 -86 -74 -140.5t-28 -86t28 -45t90 -19.5l61 -8l5 -33h-457l6 33l45 8q43 6 72.5 18.5t60.5 49t72 107.5t108 194l373 714l-6 80q20 4 48 14.5t55.5 26t50 32.5t34.5 34h31l131 -1065q8 -61 18.5 -99t25 -61t34.5 -32t51 -11l70 -10v-33h-594l6 33 l72 6q70 6 82 46t2 128l-31 305h-348zM719 565l-25 250q-10 111 -26 252h-9l-258 -502h318zM813 1741h74l172 -395h-33l-199 223h-6l-299 -223h-26z" />
<glyph unicode="&#xc3;" horiz-adv-x="1265" d="M377 518l-94 -186q-47 -86 -74 -140.5t-28 -86t28 -45t90 -19.5l61 -8l5 -33h-457l6 33l45 8q43 6 72.5 18.5t60.5 49t72 107.5t108 194l373 714l-6 80q20 4 48 14.5t55.5 26t50 32.5t34.5 34h31l131 -1065q8 -61 18.5 -99t25 -61t34.5 -32t51 -11l70 -10v-33h-594l6 33 l72 6q70 6 82 46t2 128l-31 305h-348zM719 565l-25 250q-10 111 -26 252h-9l-258 -502h318zM942 1376q-47 0 -94 20.5t-91 46t-84 46t-71 20.5q-35 0 -59.5 -20.5t-46.5 -95.5h-31q31 133 74 188t125 55q45 0 92 -20.5t90 -46t83 -46t70 -20.5q35 0 60.5 19.5t50.5 95.5h16 q14 0 17 2q-16 -66 -34.5 -113t-42.5 -75.5t-54.5 -42t-69.5 -13.5z" />
<glyph unicode="&#xc4;" horiz-adv-x="1265" d="M377 518l-94 -186q-47 -86 -74 -140.5t-28 -86t28 -45t90 -19.5l61 -8l5 -33h-457l6 33l45 8q43 6 72.5 18.5t60.5 49t72 107.5t108 194l373 714l-6 80q20 4 48 14.5t55.5 26t50 32.5t34.5 34h31l131 -1065q8 -61 18.5 -99t25 -61t34.5 -32t51 -11l70 -10v-33h-594l6 33 l72 6q70 6 82 46t2 128l-31 305h-348zM719 565l-25 250q-10 111 -26 252h-9l-258 -502h318zM993 1401q-59 0 -87.5 39t-28.5 80q0 20 7 42.5t21.5 41t37 30t50.5 11.5q29 0 51.5 -11.5t38 -30t22.5 -41t7 -42.5q0 -41 -30 -80t-89 -39zM598 1401q-59 0 -88 39t-29 80 q0 20 7.5 42.5t21.5 41t36.5 30t51.5 11.5t51.5 -11.5t37.5 -30t22.5 -41t7.5 -42.5q0 -41 -30 -80t-89 -39z" />
<glyph unicode="&#xc5;" horiz-adv-x="1265" d="M379 518l-96 -186q-47 -86 -74 -140.5t-28 -86t28 -45t90 -19.5l61 -8l5 -33h-457l6 33l45 8q43 6 72.5 18.5t60.5 49t72 107.5t108 194l451 860q-45 23 -68.5 66.5t-23.5 95.5q0 76 49 132t135 56t136 -56.5t50 -131.5q0 -63 -35.5 -111.5t-99.5 -65.5l123 -1009 q8 -61 18.5 -99t25 -61t34.5 -32t51 -11l70 -10v-33h-594l6 33l72 6q70 6 82 46t2 128l-31 305h-346zM815 1276q72 0 112 46t40 110q0 63 -40 110t-112 47q-70 0 -109.5 -47t-39.5 -110t39.5 -109.5t109.5 -46.5zM719 565l-25 250l-24 250h-11q-74 -139 -129 -250 q-25 -47 -47 -92t-41 -80q-23 -41 -41 -78h318z" />
<glyph unicode="&#xc6;" horiz-adv-x="1753" d="M414 520l-127 -172q-74 -98 -116 -155.5t-50 -88t17.5 -43t84.5 -20.5l51 -8l7 -33h-447l6 33l45 8q47 6 80 18.5t68 43t81 87t119 152.5l598 805q33 41 22 63.5t-97 28.5l-84 8l-4 33h1036l-4 -406h-45l-13 74q-23 78 -47 133.5t-68 90t-114 51t-180 16.5h-98l-107 -563 l68 2q68 2 116 9t81.5 23.5t56 43t41.5 67.5l30 64l37 -2l-100 -463l-39 2l6 61q4 45 -5 74t-38 45t-79 22.5t-126 10.5l-57 2l-111 -590l172 -6q113 0 194 21.5t139.5 61.5t101.5 95t81 123l35 70l47 -2l-131 -410h-1048q-2 0 2 16l4 17l94 12q47 4 67.5 14.5t22.5 22.5 l82 438h-358zM780 567l111 586h-6l-436 -586h331z" />
<glyph unicode="&#xc7;" horiz-adv-x="1370" d="M694 -27q-141 8 -250.5 56.5t-184.5 126t-115 180t-40 223.5q0 147 55.5 282.5t156 239t241.5 166t311 62.5q117 0 206 -23.5t147 -56.5l149 39l-61 -396l-43 2l-78 295q-45 39 -121 67t-168 28q-129 0 -231.5 -64.5t-173 -171t-107.5 -242t-37 -276.5q0 -115 28 -206 t82 -155.5t132 -99.5t176 -35q117 0 206 52.5t163 148.5l88 156l45 -2l-105 -355l-84 4q-25 -8 -62.5 -16t-82.5 -15t-93 -11.5t-93 -4.5h-11l-108 -98q119 6 195.5 -39t76.5 -123q0 -66 -40 -110.5t-106.5 -73.5t-153.5 -44t-181 -18l-2 23q184 16 264 61t80 117 q0 55 -52.5 79t-123.5 24q-59 0 -115 -13l4 25l217 192v0z" />
<glyph unicode="&#xc8;" horiz-adv-x="1230" d="M-23 33l82 12q90 12 95 37l215 1120q2 12 -13.5 18.5t-79.5 16.5l-63 10l-4 33h971l-4 -406h-46l-12 74q-23 78 -47 133.5t-69.5 91t-115 52t-179.5 16.5l-105 -2l-106 -563l75 2q68 2 116 9t81 23.5t56.5 43t41.5 67.5l31 64l39 -2l-102 -463l-39 2l4 61q4 45 -5.5 74 t-37 45t-77.5 22.5t-126 10.5l-66 2l-110 -590l178 -8q115 0 195.5 22.5t140 61.5t102.5 95t80 124l35 70l47 -2l-129 -410h-1055zM483 1743h207l135 -381h-30z" />
<glyph unicode="&#xc9;" horiz-adv-x="1230" d="M-23 33l82 12q90 12 95 37l215 1120q2 12 -13.5 18.5t-79.5 16.5l-63 10l-4 33h971l-4 -406h-46l-12 74q-23 78 -47 133.5t-69.5 91t-115 52t-179.5 16.5l-105 -2l-106 -563l75 2q68 2 116 9t81 23.5t56.5 43t41.5 67.5l31 64l39 -2l-102 -463l-39 2l4 61q4 45 -5.5 74 t-37 45t-77.5 22.5t-126 10.5l-66 2l-110 -590l178 -8q115 0 195.5 22.5t140 61.5t102.5 95t80 124l35 70l47 -2l-129 -410h-1055zM897 1743h221l-452 -381h-29z" />
<glyph unicode="&#xca;" horiz-adv-x="1230" d="M-23 33l82 12q90 12 95 37l215 1120q2 12 -13.5 18.5t-79.5 16.5l-63 10l-4 33h971l-4 -406h-46l-12 74q-23 78 -47 133.5t-69.5 91t-115 52t-179.5 16.5l-105 -2l-106 -563l75 2q68 2 116 9t81 23.5t56.5 43t41.5 67.5l31 64l39 -2l-102 -463l-39 2l4 61q4 45 -5.5 74 t-37 45t-77.5 22.5t-126 10.5l-66 2l-110 -590l178 -8q115 0 195.5 22.5t140 61.5t102.5 95t80 124l35 70l47 -2l-129 -410h-1055zM774 1741h74l172 -395h-33l-199 223h-6l-299 -223h-26z" />
<glyph unicode="&#xcb;" horiz-adv-x="1230" d="M-23 33l82 12q90 12 95 37l215 1120q2 12 -13.5 18.5t-79.5 16.5l-63 10l-4 33h971l-4 -406h-46l-12 74q-23 78 -47 133.5t-69.5 91t-115 52t-179.5 16.5l-105 -2l-106 -563l75 2q68 2 116 9t81 23.5t56.5 43t41.5 67.5l31 64l39 -2l-102 -463l-39 2l4 61q4 45 -5.5 74 t-37 45t-77.5 22.5t-126 10.5l-66 2l-110 -590l178 -8q115 0 195.5 22.5t140 61.5t102.5 95t80 124l35 70l47 -2l-129 -410h-1055zM948 1401q-59 0 -88 39t-29 80q0 20 7.5 42.5t21.5 41t37 30t51 11.5q29 0 51.5 -11.5t38 -30t22.5 -41t7 -42.5q0 -41 -30 -80t-89 -39z M553 1401q-59 0 -88 39t-29 80q0 20 7.5 42.5t21.5 41t36.5 30t51.5 11.5t51.5 -11.5t37.5 -30t22.5 -41t7.5 -42.5q0 -41 -30 -80t-89 -39z" />
<glyph unicode="&#xcc;" horiz-adv-x="724" d="M-8 33l96 12q47 4 67.5 14.5t22.5 22.5l215 1120q2 12 -13 19.5t-79 15.5l-76 10l-4 33h590l-8 -33l-94 -12q-47 -6 -67.5 -15.5t-23.5 -21.5l-215 -1120q-2 -14 13.5 -20.5t79.5 -14.5l75 -10l4 -33h-589zM258 1743h207l135 -381h-31z" />
<glyph unicode="&#xcd;" horiz-adv-x="724" d="M-8 33l96 12q47 4 67.5 14.5t22.5 22.5l215 1120q2 12 -13 19.5t-79 15.5l-76 10l-4 33h590l-8 -33l-94 -12q-47 -6 -67.5 -15.5t-23.5 -21.5l-215 -1120q-2 -14 13.5 -20.5t79.5 -14.5l75 -10l4 -33h-589zM702 1743h222l-453 -381h-29z" />
<glyph unicode="&#xce;" horiz-adv-x="724" d="M-8 33l96 12q47 4 67.5 14.5t22.5 22.5l215 1120q2 12 -13 19.5t-79 15.5l-76 10l-4 33h590l-8 -33l-94 -12q-47 -6 -67.5 -15.5t-23.5 -21.5l-215 -1120q-2 -14 13.5 -20.5t79.5 -14.5l75 -10l4 -33h-589zM553 1741h74l172 -395h-33l-199 223h-6l-299 -223h-26z" />
<glyph unicode="&#xcf;" horiz-adv-x="724" d="M-8 33l96 12q47 4 67.5 14.5t22.5 22.5l215 1120q2 12 -13 19.5t-79 15.5l-76 10l-4 33h590l-8 -33l-94 -12q-47 -6 -67.5 -15.5t-23.5 -21.5l-215 -1120q-2 -14 13.5 -20.5t79.5 -14.5l75 -10l4 -33h-589zM741 1401q-59 0 -87.5 39t-28.5 80q0 20 7 42.5t21.5 41t37 30 t50.5 11.5q29 0 51.5 -11.5t38 -30t22.5 -41t7 -42.5q0 -41 -30 -80t-89 -39zM346 1401q-59 0 -88 39t-29 80q0 20 7.5 42.5t21.5 41t36.5 30t51.5 11.5t51.5 -11.5t38 -30t22.5 -41t7 -42.5q0 -41 -30 -80t-89 -39z" />
<glyph unicode="&#xd0;" horiz-adv-x="1384" d="M80 623l8 45h178l103 534q2 12 -13.5 18.5t-79.5 16.5l-65 10l-2 33h258h95t81 1t57 1h21q162 0 282.5 -41t200.5 -113.5t120 -172t40 -216.5q0 -147 -55.5 -280t-161 -235.5t-261 -163t-354.5 -60.5h-561l6 33l89 12q47 6 66.5 15.5t21.5 21.5l104 541h-178zM762 668 l4 -45h-281l-102 -543l133 -41q143 2 255 59.5t188.5 156.5t116.5 233.5t40 287.5q0 98 -23.5 183t-72.5 146.5t-128 97.5t-190 36h-100l-108 -571h268z" />
<glyph unicode="&#xd1;" horiz-adv-x="1392" d="M416 1096h-6l-177 -879q-16 -98 7.5 -133t109.5 -43l58 -8l2 -33h-449l6 33l58 8q72 8 108.5 45t50.5 137l181 881q-16 49 -46 86t-96 47l-43 10l-4 33h408l510 -946h6l145 729q8 49 7 81t-13 52.5t-38.5 29.5t-70.5 13l-57 8l-4 33h451l-7 -33l-57 -8q-72 -6 -109.5 -44 t-52.5 -138l-213 -1069h-57zM1004 1376q-47 0 -94.5 20.5t-91.5 46t-84 46t-70 20.5q-35 0 -59.5 -20.5t-47.5 -95.5h-31q31 133 74 188t125 55q45 0 92 -20.5t90 -46t83 -46t71 -20.5q35 0 60.5 19.5t49.5 95.5h17q14 0 16 2q-16 -66 -34.5 -113t-42 -75.5t-54 -42 t-69.5 -13.5z" />
<glyph unicode="&#xd2;" horiz-adv-x="1484" d="M735 -29q-141 0 -255.5 48.5t-196.5 132.5t-126 195.5t-44 240.5q0 137 51 267t144 230.5t225.5 161t291.5 60.5q141 0 256 -48.5t197 -132.5t127 -196.5t45 -241.5q0 -143 -53.5 -273t-147.5 -228.5t-226 -157t-288 -58.5zM719 16q113 0 205 73t156.5 187.5t99 255 t34.5 275.5q0 96 -23.5 180t-71.5 145.5t-117.5 96.5t-161.5 35q-119 0 -211 -78t-154.5 -197t-95.5 -259t-33 -265q0 -96 24.5 -178t71.5 -142.5t117 -94.5t160 -34zM594 1743h207l135 -381h-31z" />
<glyph unicode="&#xd3;" horiz-adv-x="1484" d="M735 -29q-141 0 -255.5 48.5t-196.5 132.5t-126 195.5t-44 240.5q0 137 51 267t144 230.5t225.5 161t291.5 60.5q141 0 256 -48.5t197 -132.5t127 -196.5t45 -241.5q0 -143 -53.5 -273t-147.5 -228.5t-226 -157t-288 -58.5zM719 16q113 0 205 73t156.5 187.5t99 255 t34.5 275.5q0 96 -23.5 180t-71.5 145.5t-117.5 96.5t-161.5 35q-119 0 -211 -78t-154.5 -197t-95.5 -259t-33 -265q0 -96 24.5 -178t71.5 -142.5t117 -94.5t160 -34zM1042 1743h222l-453 -381h-29z" />
<glyph unicode="&#xd4;" horiz-adv-x="1484" d="M735 -29q-141 0 -255.5 48.5t-196.5 132.5t-126 195.5t-44 240.5q0 137 51 267t144 230.5t225.5 161t291.5 60.5q141 0 256 -48.5t197 -132.5t127 -196.5t45 -241.5q0 -143 -53.5 -273t-147.5 -228.5t-226 -157t-288 -58.5zM719 16q113 0 205 73t156.5 187.5t99 255 t34.5 275.5q0 96 -23.5 180t-71.5 145.5t-117.5 96.5t-161.5 35q-119 0 -211 -78t-154.5 -197t-95.5 -259t-33 -265q0 -96 24.5 -178t71.5 -142.5t117 -94.5t160 -34zM911 1741h74l172 -395h-33l-198 223h-6l-299 -223h-27z" />
<glyph unicode="&#xd5;" horiz-adv-x="1484" d="M735 -29q-141 0 -255.5 48.5t-196.5 132.5t-126 195.5t-44 240.5q0 137 51 267t144 230.5t225.5 161t291.5 60.5q141 0 256 -48.5t197 -132.5t127 -196.5t45 -241.5q0 -143 -53.5 -273t-147.5 -228.5t-226 -157t-288 -58.5zM719 16q113 0 205 73t156.5 187.5t99 255 t34.5 275.5q0 96 -23.5 180t-71.5 145.5t-117.5 96.5t-161.5 35q-119 0 -211 -78t-154.5 -197t-95.5 -259t-33 -265q0 -96 24.5 -178t71.5 -142.5t117 -94.5t160 -34zM1044 1376q-47 0 -94 20.5t-91 46t-84 46t-70 20.5q-35 0 -59.5 -20.5t-47.5 -95.5h-31q31 133 74 188 t125 55q45 0 92 -20.5t90 -46t83 -46t71 -20.5q35 0 60.5 19.5t49.5 95.5h17q14 0 16 2q-16 -66 -34.5 -113t-42 -75.5t-54.5 -42t-70 -13.5z" />
<glyph unicode="&#xd6;" horiz-adv-x="1484" d="M735 -29q-141 0 -255.5 48.5t-196.5 132.5t-126 195.5t-44 240.5q0 137 51 267t144 230.5t225.5 161t291.5 60.5q141 0 256 -48.5t197 -132.5t127 -196.5t45 -241.5q0 -143 -53.5 -273t-147.5 -228.5t-226 -157t-288 -58.5zM719 16q113 0 205 73t156.5 187.5t99 255 t34.5 275.5q0 96 -23.5 180t-71.5 145.5t-117.5 96.5t-161.5 35q-119 0 -211 -78t-154.5 -197t-95.5 -259t-33 -265q0 -96 24.5 -178t71.5 -142.5t117 -94.5t160 -34zM1092 1401q-59 0 -88 39t-29 80q0 20 7 42.5t21.5 41t37 30t51.5 11.5t51 -11.5t37.5 -30t22.5 -41 t7 -42.5q0 -41 -29.5 -80t-88.5 -39zM696 1401q-59 0 -87.5 39t-28.5 80q0 20 7 42.5t21.5 41t37 30t50.5 11.5q29 0 51.5 -11.5t38 -30t22.5 -41t7 -42.5q0 -41 -30 -80t-89 -39z" />
<glyph unicode="&#xd7;" horiz-adv-x="917" d="M432 483l-358 359l32 32l359 -358l358 358l33 -32l-358 -359l358 -358l-33 -33l-358 359l-359 -359l-32 33z" />
<glyph unicode="&#xd8;" horiz-adv-x="1484" d="M1206 1188q117 -86 180.5 -216t63.5 -284q0 -143 -53.5 -273t-147.5 -228.5t-226 -157t-288 -58.5q-197 0 -342 92q-23 -33 -50.5 -69.5t-49.5 -69.5q-27 -37 -53 -74h-50l170 234q-117 86 -182 216t-65 288q0 137 51 267t144 230.5t225.5 161t291.5 60.5 q100 0 188.5 -25t160.5 -72l147 201h47zM1118 1133q-47 61 -116.5 96t-161.5 35q-121 0 -212 -78t-154.5 -197t-95.5 -259t-32 -265q0 -172 76 -295zM1143 1098q-195 -270 -348 -482l-349 -479q47 -57 116 -89t159 -32q113 0 204 73t155.5 187.5t99 255t34.5 275.5 q0 84 -18 158t-53 133z" />
<glyph unicode="&#xd9;" horiz-adv-x="1417" d="M713 -33q-111 0 -204 21.5t-160.5 66.5t-105.5 114t-38 163q0 37 5 80t15 86l66 352q12 66 23.5 129t21.5 113q10 57 22 110q2 12 -12 20.5t-78 14.5l-80 10l-4 33h600l-8 -33l-100 -12q-47 -4 -66.5 -14.5t-23.5 -22.5l-131 -686q-8 -43 -12.5 -83t-4.5 -77 q0 -156 92.5 -227.5t253.5 -71.5q147 0 240.5 90t132.5 293l125 627q8 49 7 81t-14 51t-39 29.5t-69 14.5l-57 8l-4 33h450l-8 -33l-55 -8q-37 -4 -63.5 -14.5t-45 -30.5t-31 -53t-20.5 -84l-129 -635q-43 -223 -161.5 -339t-329.5 -116zM651 1743h207l135 -381h-30z" />
<glyph unicode="&#xda;" horiz-adv-x="1417" d="M713 -33q-111 0 -204 21.5t-160.5 66.5t-105.5 114t-38 163q0 37 5 80t15 86l66 352q12 66 23.5 129t21.5 113q10 57 22 110q2 12 -12 20.5t-78 14.5l-80 10l-4 33h600l-8 -33l-100 -12q-47 -4 -66.5 -14.5t-23.5 -22.5l-131 -686q-8 -43 -12.5 -83t-4.5 -77 q0 -156 92.5 -227.5t253.5 -71.5q147 0 240.5 90t132.5 293l125 627q8 49 7 81t-14 51t-39 29.5t-69 14.5l-57 8l-4 33h450l-8 -33l-55 -8q-37 -4 -63.5 -14.5t-45 -30.5t-31 -53t-20.5 -84l-129 -635q-43 -223 -161.5 -339t-329.5 -116zM1090 1743h221l-453 -381h-29z" />
<glyph unicode="&#xdb;" horiz-adv-x="1417" d="M713 -33q-111 0 -204 21.5t-160.5 66.5t-105.5 114t-38 163q0 37 5 80t15 86l66 352q12 66 23.5 129t21.5 113q10 57 22 110q2 12 -12 20.5t-78 14.5l-80 10l-4 33h600l-8 -33l-100 -12q-47 -4 -66.5 -14.5t-23.5 -22.5l-131 -686q-8 -43 -12.5 -83t-4.5 -77 q0 -156 92.5 -227.5t253.5 -71.5q147 0 240.5 90t132.5 293l125 627q8 49 7 81t-14 51t-39 29.5t-69 14.5l-57 8l-4 33h450l-8 -33l-55 -8q-37 -4 -63.5 -14.5t-45 -30.5t-31 -53t-20.5 -84l-129 -635q-43 -223 -161.5 -339t-329.5 -116zM946 1741h74l172 -395h-33l-198 223 h-7l-299 -223h-26z" />
<glyph unicode="&#xdc;" horiz-adv-x="1417" d="M713 -33q-111 0 -204 21.5t-160.5 66.5t-105.5 114t-38 163q0 37 5 80t15 86l66 352q12 66 23.5 129t21.5 113q10 57 22 110q2 12 -12 20.5t-78 14.5l-80 10l-4 33h600l-8 -33l-100 -12q-47 -4 -66.5 -14.5t-23.5 -22.5l-131 -686q-8 -43 -12.5 -83t-4.5 -77 q0 -156 92.5 -227.5t253.5 -71.5q147 0 240.5 90t132.5 293l125 627q8 49 7 81t-14 51t-39 29.5t-69 14.5l-57 8l-4 33h450l-8 -33l-55 -8q-37 -4 -63.5 -14.5t-45 -30.5t-31 -53t-20.5 -84l-129 -635q-43 -223 -161.5 -339t-329.5 -116zM1108 1401q-59 0 -88 39t-29 80 q0 20 7.5 42.5t21.5 41t36.5 30t51.5 11.5t51.5 -11.5t37.5 -30t22.5 -41t7.5 -42.5q0 -41 -30 -80t-89 -39zM713 1401q-59 0 -88 39t-29 80q0 20 7 42.5t21.5 41t37 30t51.5 11.5t51 -11.5t37.5 -30t22.5 -41t7 -42.5q0 -41 -29.5 -80t-88.5 -39z" />
<glyph unicode="&#xdd;" horiz-adv-x="1277" d="M256 33l111 12q47 4 67.5 14.5t22.5 22.5l94 483l-201 516q-16 43 -30.5 72t-31 46.5t-37 25.5t-48.5 12l-56 10l-2 33h586l-8 -33l-53 -4q-84 -8 -96.5 -44t18.5 -116l162 -448l8 -2l242 338q59 82 91.5 131t36 76.5t-23.5 40t-84 20.5l-55 8l-4 33h458l-8 -33l-53 -8 q-35 -4 -64.5 -17.5t-63.5 -44t-77 -83t-104 -133.5l-273 -377l-98 -506q-2 -12 14.5 -20.5t77.5 -14.5l90 -10l2 -33h-618zM1012 1743h221l-453 -381h-28z" />
<glyph unicode="&#xde;" horiz-adv-x="1171" d="M-33 33l101 12q47 6 67.5 15.5t24.5 21.5l213 1120q2 12 -12.5 19.5t-77.5 15.5l-80 10l-2 33h596l-9 -33l-98 -12q-47 -6 -66.5 -15.5t-23.5 -21.5l-35 -178h152q109 0 192.5 -24.5t140 -67.5t85 -101.5t28.5 -126.5q0 -86 -38 -156.5t-106.5 -120.5t-162.5 -78 t-205 -28q-63 0 -117.5 8.5t-95.5 18.5l-53 -266q-2 -14 13.5 -21.5t78.5 -13.5l105 -10l4 -33h-625zM604 360q76 0 135.5 31t100.5 82t62.5 118.5t21.5 141.5q0 111 -59.5 175.5t-172.5 68.5h-135l-111 -588q31 -10 68 -19.5t90 -9.5z" />
<glyph unicode="&#xdf;" horiz-adv-x="1050" d="M725 854q53 -37 103.5 -90t87 -116.5t58 -132.5t17.5 -138q-2 -80 -32.5 -153.5t-82 -130t-118 -89.5t-140.5 -31q-49 2 -91 18.5t-72.5 42t-47 59.5t-16.5 69q4 59 42 94t91 33q51 0 79 -32t29 -71t-25.5 -72.5t-82.5 -37.5q4 -16 32 -39t67 -25q41 0 74.5 20.5t58 57.5 t40 87t17.5 110q4 133 -65.5 278.5t-223.5 261.5l4 27q147 12 226.5 82t83.5 211q2 37 -7.5 69.5t-28 59.5t-46 42t-64.5 15q-53 0 -89 -27.5t-61.5 -83t-46 -139.5t-44.5 -194l-140 -647q-43 -197 -96 -338.5t-131 -220.5q-49 -49 -110.5 -71t-123.5 -22q-76 0 -126 38 t-50 98q0 41 29 75.5t80 34.5q31 0 55.5 -15.5t40 -42t16.5 -59t-18 -65.5h70q25 6 45 36.5t42.5 95t46 165t54.5 246.5l109 598l-174 4l26 78l172 16q61 252 165 366.5t269 114.5q158 0 238 -77.5t74 -190.5q-2 -55 -25.5 -97t-62.5 -74t-91.5 -52.5t-109.5 -28.5z" />
<glyph unicode="&#xe0;" horiz-adv-x="978" d="M672 -27q-16 0 -45 10.5t-57.5 25t-49 30.5t-20.5 29q0 25 25.5 113.5t72.5 213.5h-8q-59 -98 -107.5 -177t-91.5 -132t-84 -82t-86 -29q-80 0 -137 58.5t-57 163.5q0 78 23.5 157.5t61.5 153.5t88 140.5t103 119.5q68 70 139.5 107.5t132.5 37.5q59 0 83 -49t24 -151h10 l74 202l182 -6l-149 -413l-115 -394l94 -12l142 182l18 -14q-66 -135 -139.5 -210t-126.5 -75zM313 111q51 0 121 93t168 279q8 14 17.5 38t17.5 48.5t13 46t5 31.5q-4 31 -20.5 60.5t-41 53t-53 37t-59.5 13.5q-27 0 -45 -10t-37 -29q-31 -33 -62.5 -93.5t-57 -133 t-42 -149.5t-16.5 -138q0 -72 25.5 -109.5t66.5 -37.5zM362 1401h207l136 -381h-31z" />
<glyph unicode="&#xe1;" horiz-adv-x="978" d="M672 -27q-16 0 -45 10.5t-57.5 25t-49 30.5t-20.5 29q0 25 25.5 113.5t72.5 213.5h-8q-59 -98 -107.5 -177t-91.5 -132t-84 -82t-86 -29q-80 0 -137 58.5t-57 163.5q0 78 23.5 157.5t61.5 153.5t88 140.5t103 119.5q68 70 139.5 107.5t132.5 37.5q59 0 83 -49t24 -151h10 l74 202l182 -6l-149 -413l-115 -394l94 -12l142 182l18 -14q-66 -135 -139.5 -210t-126.5 -75zM313 111q51 0 121 93t168 279q8 14 17.5 38t17.5 48.5t13 46t5 31.5q-4 31 -20.5 60.5t-41 53t-53 37t-59.5 13.5q-27 0 -45 -10t-37 -29q-31 -33 -62.5 -93.5t-57 -133 t-42 -149.5t-16.5 -138q0 -72 25.5 -109.5t66.5 -37.5zM766 1401h221l-452 -381h-29z" />
<glyph unicode="&#xe2;" horiz-adv-x="978" d="M672 -27q-16 0 -45 10.5t-57.5 25t-49 30.5t-20.5 29q0 25 25.5 113.5t72.5 213.5h-8q-59 -98 -107.5 -177t-91.5 -132t-84 -82t-86 -29q-80 0 -137 58.5t-57 163.5q0 78 23.5 157.5t61.5 153.5t88 140.5t103 119.5q68 70 139.5 107.5t132.5 37.5q59 0 83 -49t24 -151h10 l74 202l182 -6l-149 -413l-115 -394l94 -12l142 182l18 -14q-66 -135 -139.5 -210t-126.5 -75zM313 111q51 0 121 93t168 279q8 14 17.5 38t17.5 48.5t13 46t5 31.5q-4 31 -20.5 60.5t-41 53t-53 37t-59.5 13.5q-27 0 -45 -10t-37 -29q-31 -33 -62.5 -93.5t-57 -133 t-42 -149.5t-16.5 -138q0 -72 25.5 -109.5t66.5 -37.5zM621 1399h73l172 -395h-32l-199 223h-6l-299 -223h-27z" />
<glyph unicode="&#xe3;" horiz-adv-x="978" d="M672 -27q-16 0 -45 10.5t-57.5 25t-49 30.5t-20.5 29q0 25 25.5 113.5t72.5 213.5h-8q-59 -98 -107.5 -177t-91.5 -132t-84 -82t-86 -29q-80 0 -137 58.5t-57 163.5q0 78 23.5 157.5t61.5 153.5t88 140.5t103 119.5q68 70 139.5 107.5t132.5 37.5q59 0 83 -49t24 -151h10 l74 202l182 -6l-149 -413l-115 -394l94 -12l142 182l18 -14q-66 -135 -139.5 -210t-126.5 -75zM313 111q51 0 121 93t168 279q8 14 17.5 38t17.5 48.5t13 46t5 31.5q-4 31 -20.5 60.5t-41 53t-53 37t-59.5 13.5q-27 0 -45 -10t-37 -29q-31 -33 -62.5 -93.5t-57 -133 t-42 -149.5t-16.5 -138q0 -72 25.5 -109.5t66.5 -37.5zM791 1034q-47 0 -94.5 20.5t-91.5 46t-84 46t-70 20.5q-35 0 -59.5 -20.5t-47.5 -95.5h-31q31 133 74 188t125 55q45 0 92 -20.5t90 -46t83 -46t71 -20.5q35 0 60.5 19.5t49.5 95.5h17q14 0 16 2q-16 -66 -34.5 -113 t-42 -75.5t-54 -42t-69.5 -13.5z" />
<glyph unicode="&#xe4;" horiz-adv-x="978" d="M672 -27q-16 0 -45 10.5t-57.5 25t-49 30.5t-20.5 29q0 25 25.5 113.5t72.5 213.5h-8q-59 -98 -107.5 -177t-91.5 -132t-84 -82t-86 -29q-80 0 -137 58.5t-57 163.5q0 78 23.5 157.5t61.5 153.5t88 140.5t103 119.5q68 70 139.5 107.5t132.5 37.5q59 0 83 -49t24 -151h10 l74 202l182 -6l-149 -413l-115 -394l94 -12l142 182l18 -14q-66 -135 -139.5 -210t-126.5 -75zM313 111q51 0 121 93t168 279q8 14 17.5 38t17.5 48.5t13 46t5 31.5q-4 31 -20.5 60.5t-41 53t-53 37t-59.5 13.5q-27 0 -45 -10t-37 -29q-31 -33 -62.5 -93.5t-57 -133 t-42 -149.5t-16.5 -138q0 -72 25.5 -109.5t66.5 -37.5zM819 1059q-59 0 -88 39t-29 80q0 20 7.5 42.5t21.5 41t37 30t51 11.5q29 0 51.5 -11.5t38 -30t22.5 -41t7 -42.5q0 -41 -30 -80t-89 -39zM424 1059q-59 0 -88 39t-29 80q0 20 7.5 42.5t21.5 41t36.5 30t51.5 11.5 t51.5 -11.5t37.5 -30t22.5 -41t7.5 -42.5q0 -41 -30 -80t-89 -39z" />
<glyph unicode="&#xe5;" horiz-adv-x="978" d="M631 1030q-86 0 -136.5 55.5t-50.5 133.5q0 76 50.5 131t136.5 55t135 -55.5t49 -130.5q0 -78 -49 -133.5t-135 -55.5zM672 -27q-16 0 -45 10.5t-57.5 25t-49 30.5t-20.5 29q0 25 25.5 113.5t72.5 213.5h-8q-59 -98 -107.5 -177t-91.5 -132t-84 -82t-86 -29 q-80 0 -137 58.5t-57 163.5q0 78 23.5 157.5t61.5 153.5t88 140.5t103 119.5q68 70 139.5 107.5t132.5 37.5q59 0 83 -49t24 -151h10l74 202l182 -6l-149 -413l-115 -394l94 -12l142 182l18 -14q-66 -135 -139.5 -210t-126.5 -75zM631 1061q72 0 111.5 47t39.5 111 q0 61 -40 108t-111 47q-72 0 -112 -47t-40 -108q0 -63 40 -110.5t112 -47.5zM313 111q51 0 121 93t168 279q8 14 17.5 38t17.5 48.5t13 46t5 31.5q-4 31 -20.5 60.5t-41 53t-53 37t-59.5 13.5q-27 0 -45 -10t-37 -29q-31 -33 -62.5 -93.5t-57 -133t-42 -149.5t-16.5 -138 q0 -72 25.5 -109.5t66.5 -37.5z" />
<glyph unicode="&#xe6;" horiz-adv-x="1298" d="M215 -27q-82 0 -135 64.5t-53 167.5q0 80 22.5 157.5t60 150.5t87 137.5t102.5 117.5q68 70 136.5 110t133.5 40q61 0 97 -60.5t41 -165.5q74 104 168 166t204 62q104 0 166 -50.5t62 -126.5q0 -51 -32 -92t-97.5 -75.5t-166 -68.5t-235.5 -73q-16 -66 -16 -131 q0 -207 168 -207q63 0 124.5 40t139.5 147l18 -17q-37 -63 -78.5 -116.5t-89 -92.5t-98.5 -61.5t-108 -22.5q-61 0 -111.5 23.5t-87.5 65.5t-58.5 97.5t-21.5 119.5v31.5t4 33.5q-104 -170 -184 -270.5t-162 -100.5zM782 467q96 31 163 61.5t109 65.5t61.5 75t19.5 91 q0 47 -31 76.5t-72 29.5q-27 0 -48 -12t-44 -33q-45 -45 -90 -140t-72 -212zM305 113q29 0 62.5 28.5t70.5 78.5t77 120t83 152q16 35 33.5 76.5t21.5 66.5q-6 35 -22.5 66.5t-41 56t-54 39t-60.5 14.5q-27 0 -45 -10t-37 -29q-31 -33 -61.5 -92t-55 -130t-40 -145.5 t-15.5 -136.5q0 -74 23.5 -114.5t60.5 -40.5z" />
<glyph unicode="&#xe7;" horiz-adv-x="757" d="M281 -27q-55 6 -100.5 32t-79 66t-52 93t-18.5 115q0 111 43 224t115.5 205.5t170 152t205.5 59.5q43 0 83 -12.5t70 -35t48 -52t18 -66.5q0 -53 -33.5 -91t-80.5 -38q-45 0 -77 26.5t-32 67.5q0 33 18.5 61.5t45.5 44.5q-16 14 -42 29.5t-63 15.5q-25 0 -51.5 -16 t-52.5 -43q-35 -35 -68 -91t-58.5 -125t-41 -143.5t-15.5 -144.5q0 -211 158 -211q33 0 61.5 9.5t59.5 31t63.5 57t73.5 89.5l21 -17q-72 -119 -154 -199.5t-186 -91.5l-113 -102q119 6 195.5 -39t76.5 -123q0 -66 -39.5 -110.5t-106.5 -73.5t-154 -44t-181 -18l-2 23 q184 16 264 61t80 117q0 55 -52 79t-124 24q-59 0 -115 -13l4 25l218 192v0z" />
<glyph unicode="&#xe8;" horiz-adv-x="774" d="M307 -27q-61 0 -112.5 23.5t-87 65.5t-56 97.5t-20.5 119.5q0 113 44 226t115.5 205.5t166 151t196.5 58.5t164.5 -48.5t62.5 -126.5q0 -102 -132 -169.5t-398 -141.5q-16 -66 -17 -131q0 -100 43 -153.5t125 -53.5q63 0 124 40t141 147l20 -17q-76 -127 -170 -210 t-209 -83zM256 467q186 59 270 124.5t84 168.5q0 47 -31.5 76.5t-70.5 29.5q-27 0 -48.5 -12t-43.5 -33q-45 -45 -91 -140t-73 -212zM254 1401h207l135 -381h-31z" />
<glyph unicode="&#xe9;" horiz-adv-x="774" d="M307 -27q-61 0 -112.5 23.5t-87 65.5t-56 97.5t-20.5 119.5q0 113 44 226t115.5 205.5t166 151t196.5 58.5t164.5 -48.5t62.5 -126.5q0 -102 -132 -169.5t-398 -141.5q-16 -66 -17 -131q0 -100 43 -153.5t125 -53.5q63 0 124 40t141 147l20 -17q-76 -127 -170 -210 t-209 -83zM256 467q186 59 270 124.5t84 168.5q0 47 -31.5 76.5t-70.5 29.5q-27 0 -48.5 -12t-43.5 -33q-45 -45 -91 -140t-73 -212zM715 1401h221l-453 -381h-28z" />
<glyph unicode="&#xea;" horiz-adv-x="774" d="M307 -27q-61 0 -112.5 23.5t-87 65.5t-56 97.5t-20.5 119.5q0 113 44 226t115.5 205.5t166 151t196.5 58.5t164.5 -48.5t62.5 -126.5q0 -102 -132 -169.5t-398 -141.5q-16 -66 -17 -131q0 -100 43 -153.5t125 -53.5q63 0 124 40t141 147l20 -17q-76 -127 -170 -210 t-209 -83zM256 467q186 59 270 124.5t84 168.5q0 47 -31.5 76.5t-70.5 29.5q-27 0 -48.5 -12t-43.5 -33q-45 -45 -91 -140t-73 -212zM563 1399h74l172 -395h-33l-198 223h-7l-299 -223h-26z" />
<glyph unicode="&#xeb;" horiz-adv-x="774" d="M307 -27q-61 0 -112.5 23.5t-87 65.5t-56 97.5t-20.5 119.5q0 113 44 226t115.5 205.5t166 151t196.5 58.5t164.5 -48.5t62.5 -126.5q0 -102 -132 -169.5t-398 -141.5q-16 -66 -17 -131q0 -100 43 -153.5t125 -53.5q63 0 124 40t141 147l20 -17q-76 -127 -170 -210 t-209 -83zM256 467q186 59 270 124.5t84 168.5q0 47 -31.5 76.5t-70.5 29.5q-27 0 -48.5 -12t-43.5 -33q-45 -45 -91 -140t-73 -212zM745 1059q-59 0 -87.5 39t-28.5 80q0 20 7 42.5t21.5 41t37 30t50.5 11.5q29 0 51.5 -11.5t38 -30t22.5 -41t7 -42.5q0 -41 -30 -80 t-89 -39zM350 1059q-59 0 -88 39t-29 80q0 20 7.5 42.5t21.5 41t37 30t51 11.5q29 0 51.5 -11.5t38 -30t22.5 -41t7 -42.5q0 -41 -30 -80t-89 -39z" />
<glyph unicode="&#xec;" horiz-adv-x="536" d="M221 -27q-16 0 -45 9.5t-56.5 22.5t-48 29.5t-20.5 28.5q0 6 16.5 57.5t41 125t54.5 160t56.5 164t47 138t28.5 80.5l-109 11l-133 -195l-22 17q66 135 142.5 217t141.5 82q20 0 48 -11.5t52.5 -30t41 -40t16.5 -41.5q0 -12 -15.5 -62.5t-39 -120t-52 -150.5t-55 -153.5 t-47 -129t-26.5 -77.5l100 -14l143 182l19 -16q-33 -68 -71 -120t-75 -88t-71.5 -55.5t-61.5 -19.5zM106 1401h207l136 -381h-31z" />
<glyph unicode="&#xed;" horiz-adv-x="536" d="M221 -27q-16 0 -45 9.5t-56.5 22.5t-48 29.5t-20.5 28.5q0 6 16.5 57.5t41 125t54.5 160t56.5 164t47 138t28.5 80.5l-109 11l-133 -195l-22 17q66 135 142.5 217t141.5 82q20 0 48 -11.5t52.5 -30t41 -40t16.5 -41.5q0 -12 -15.5 -62.5t-39 -120t-52 -150.5t-55 -153.5 t-47 -129t-26.5 -77.5l100 -14l143 182l19 -16q-33 -68 -71 -120t-75 -88t-71.5 -55.5t-61.5 -19.5zM541 1401h221l-453 -381h-28z" />
<glyph unicode="&#xee;" horiz-adv-x="536" d="M410 1401h73l158 -393h-33l-188 223h-6l-279 -223h-29zM221 -27q-16 0 -45 9.5t-56.5 22.5t-48 29.5t-20.5 28.5q0 6 16.5 57.5t41 125t54.5 160t56.5 164t47 138t28.5 80.5l-109 11l-133 -195l-22 17q66 135 142.5 217t141.5 82q20 0 48 -11.5t52.5 -30t41 -40 t16.5 -41.5q0 -12 -15.5 -62.5t-39 -120t-52 -150.5t-55 -153.5t-47 -129t-26.5 -77.5l100 -14l143 182l19 -16q-33 -68 -71 -120t-75 -88t-71.5 -55.5t-61.5 -19.5z" />
<glyph unicode="&#xef;" horiz-adv-x="536" d="M221 -27q-16 0 -45 9.5t-56.5 22.5t-48 29.5t-20.5 28.5q0 6 16.5 57.5t41 125t54.5 160t56.5 164t47 138t28.5 80.5l-109 11l-133 -195l-22 17q66 135 142.5 217t141.5 82q20 0 48 -11.5t52.5 -30t41 -40t16.5 -41.5q0 -12 -15.5 -62.5t-39 -120t-52 -150.5t-55 -153.5 t-47 -129t-26.5 -77.5l100 -14l143 182l19 -16q-33 -68 -71 -120t-75 -88t-71.5 -55.5t-61.5 -19.5zM618 1059q-59 0 -87.5 39t-28.5 80q0 20 7 42.5t21.5 41t37 30t50.5 11.5q29 0 51.5 -11.5t38 -30t22.5 -41t7 -42.5q0 -41 -30 -80t-89 -39zM223 1059q-59 0 -88 39 t-29 80q0 20 7.5 42.5t22 41t37 30t50.5 11.5q29 0 51.5 -11.5t38 -30t22.5 -41t7 -42.5q0 -41 -30 -80t-89 -39z" />
<glyph unicode="&#xf0;" horiz-adv-x="876" d="M223 1065l13 45l227 64q-78 86 -180 129l16 34q152 -43 266 -135l256 70l-10 -43l-209 -58q113 -104 174.5 -244.5t63.5 -301.5q0 -125 -41 -243t-109.5 -208t-156 -145.5t-179.5 -55.5q-72 0 -129 30t-97 82t-62.5 123t-22.5 152q0 98 39 197.5t103.5 178.5t146.5 128 t168 49q80 0 129 -49q-23 78 -56.5 147.5t-80.5 129.5zM334 16q43 0 84 30t75.5 79t62.5 112.5t48 133.5q10 37 18.5 76.5t13.5 78.5t8 73t3 58q0 98 -30.5 155.5t-84.5 57.5q-37 0 -75.5 -32.5t-74.5 -87t-67.5 -123t-52.5 -138.5q-20 -72 -30.5 -141t-10.5 -123 q0 -90 30 -149.5t83 -59.5z" />
<glyph unicode="&#xf1;" horiz-adv-x="1034" d="M719 -27q-16 0 -44 9.5t-55.5 23.5t-48 30.5t-20.5 31.5q0 14 12 51t30.5 88t41 112.5t45.5 122.5q14 41 30.5 82t31 77t22.5 64.5t8 43.5q0 27 -31.5 49t-64.5 22q-45 0 -140.5 -141t-226.5 -420l-69 -225l-197 8l104 328l123 458l-88 11l-135 -195l-20 17 q63 135 139 217t137 82q14 0 40 -11.5t50.5 -29t43 -40t18.5 -42.5q0 -23 -12.5 -74t-32 -116.5t-44 -138.5t-49.5 -136l11 -4q43 86 86 166.5t83 148.5t75.5 118t62.5 77q37 37 80 58.5t80 21.5q70 0 119 -41t49 -91q0 -25 -7.5 -61.5t-20.5 -81.5t-31.5 -97t-39.5 -106 l-127 -338l92 -12l144 182l18 -14q-68 -135 -143.5 -210t-128.5 -75zM786 1034q-47 0 -94 20.5t-91 46t-84 46t-71 20.5q-35 0 -59.5 -20.5t-46.5 -95.5h-31q31 133 74 188t125 55q45 0 92 -20.5t90 -46t83 -46t71 -20.5q35 0 60.5 19.5t49.5 95.5h17q14 0 16 2 q-16 -66 -34.5 -113t-42 -75.5t-54.5 -42t-70 -13.5z" />
<glyph unicode="&#xf2;" horiz-adv-x="870" d="M354 -27q-72 0 -129 30t-97 82t-62.5 123t-22.5 152q0 98 40 197.5t105.5 179.5t147.5 129t168 49q70 0 129 -29.5t102 -81.5t66.5 -124t23.5 -154q0 -98 -40 -197.5t-106.5 -178t-151.5 -128t-173 -49.5zM334 16q43 0 83 30t73.5 79t61.5 112.5t48 133.5q23 72 33 152.5 t10 133.5q0 98 -28.5 156.5t-82.5 58.5q-37 0 -75.5 -33.5t-74.5 -87t-67.5 -123t-52.5 -139.5q-20 -72 -30.5 -141t-10.5 -123q0 -90 30 -149.5t83 -59.5zM301 1401h207l135 -381h-31z" />
<glyph unicode="&#xf3;" horiz-adv-x="870" d="M354 -27q-72 0 -129 30t-97 82t-62.5 123t-22.5 152q0 98 40 197.5t105.5 179.5t147.5 129t168 49q70 0 129 -29.5t102 -81.5t66.5 -124t23.5 -154q0 -98 -40 -197.5t-106.5 -178t-151.5 -128t-173 -49.5zM334 16q43 0 83 30t73.5 79t61.5 112.5t48 133.5q23 72 33 152.5 t10 133.5q0 98 -28.5 156.5t-82.5 58.5q-37 0 -75.5 -33.5t-74.5 -87t-67.5 -123t-52.5 -139.5q-20 -72 -30.5 -141t-10.5 -123q0 -90 30 -149.5t83 -59.5zM727 1401h221l-452 -381h-29z" />
<glyph unicode="&#xf4;" horiz-adv-x="870" d="M354 -27q-72 0 -129 30t-97 82t-62.5 123t-22.5 152q0 98 40 197.5t105.5 179.5t147.5 129t168 49q70 0 129 -29.5t102 -81.5t66.5 -124t23.5 -154q0 -98 -40 -197.5t-106.5 -178t-151.5 -128t-173 -49.5zM334 16q43 0 83 30t73.5 79t61.5 112.5t48 133.5q23 72 33 152.5 t10 133.5q0 98 -28.5 156.5t-82.5 58.5q-37 0 -75.5 -33.5t-74.5 -87t-67.5 -123t-52.5 -139.5q-20 -72 -30.5 -141t-10.5 -123q0 -90 30 -149.5t83 -59.5zM590 1399h74l172 -395h-33l-199 223h-6l-299 -223h-27z" />
<glyph unicode="&#xf5;" horiz-adv-x="870" d="M354 -27q-72 0 -129 30t-97 82t-62.5 123t-22.5 152q0 98 40 197.5t105.5 179.5t147.5 129t168 49q70 0 129 -29.5t102 -81.5t66.5 -124t23.5 -154q0 -98 -40 -197.5t-106.5 -178t-151.5 -128t-173 -49.5zM334 16q43 0 83 30t73.5 79t61.5 112.5t48 133.5q23 72 33 152.5 t10 133.5q0 98 -28.5 156.5t-82.5 58.5q-37 0 -75.5 -33.5t-74.5 -87t-67.5 -123t-52.5 -139.5q-20 -72 -30.5 -141t-10.5 -123q0 -90 30 -149.5t83 -59.5zM729 1034q-47 0 -94 20.5t-91 46t-84 46t-71 20.5q-35 0 -59.5 -20.5t-46.5 -95.5h-31q31 133 74 188t125 55 q45 0 92 -20.5t90 -46t83 -46t70 -20.5q35 0 60.5 19.5t50.5 95.5h16q14 0 17 2q-16 -66 -34.5 -113t-42.5 -75.5t-54.5 -42t-69.5 -13.5z" />
<glyph unicode="&#xf6;" horiz-adv-x="870" d="M354 -27q-72 0 -129 30t-97 82t-62.5 123t-22.5 152q0 98 40 197.5t105.5 179.5t147.5 129t168 49q70 0 129 -29.5t102 -81.5t66.5 -124t23.5 -154q0 -98 -40 -197.5t-106.5 -178t-151.5 -128t-173 -49.5zM334 16q43 0 83 30t73.5 79t61.5 112.5t48 133.5q23 72 33 152.5 t10 133.5q0 98 -28.5 156.5t-82.5 58.5q-37 0 -75.5 -33.5t-74.5 -87t-67.5 -123t-52.5 -139.5q-20 -72 -30.5 -141t-10.5 -123q0 -90 30 -149.5t83 -59.5zM788 1059q-59 0 -87.5 39t-28.5 80q0 20 7 42.5t21.5 41t37 30t50.5 11.5q29 0 51.5 -11.5t38 -30t22.5 -41t7 -42.5 q0 -41 -30 -80t-89 -39zM393 1059q-59 0 -88 39t-29 80q0 20 7.5 42.5t21.5 41t37 30t51 11.5q29 0 51.5 -11.5t38 -30t22.5 -41t7 -42.5q0 -41 -30 -80t-89 -39z" />
<glyph unicode="&#xf7;" horiz-adv-x="917" d="M565 772q0 -41 -28.5 -71.5t-73.5 -30.5q-43 0 -72 30.5t-29 71.5q0 39 29 68.5t72 29.5q45 0 73.5 -29.5t28.5 -68.5zM55 461l6 45h807l6 -45h-819zM565 201q0 -41 -28.5 -72t-71.5 -31q-45 0 -74 31t-29 72q0 39 29 67.5t74 28.5q43 0 71.5 -28.5t28.5 -67.5z" />
<glyph unicode="&#xf8;" horiz-adv-x="870" d="M723 815q49 -53 75.5 -127t26.5 -162q0 -100 -40 -198.5t-106.5 -177t-151.5 -128t-173 -49.5q-111 0 -186 70l-219 -305h-43l235 330q-98 111 -98 292q0 98 40 197.5t105.5 178.5t147.5 128t168 49q111 0 194 -73q35 47 78 107.5t82 113.5q45 63 90 127h45 q-47 -66 -96 -133q-41 -57 -88 -122t-86 -118zM223 180q115 158 205 285q39 53 76 104.5t65 92.5q35 47 66 88q-12 57 -38 88.5t-65 31.5q-37 0 -75.5 -32.5t-74.5 -87t-67.5 -123t-52.5 -138.5q-20 -72 -30.5 -141t-10.5 -123v-23.5t2 -21.5zM436 416q-90 -125 -205 -285 q12 -53 38 -83t65 -30q43 0 83 29t73.5 78t61.5 112.5t48 131.5q23 74 33 154.5t10 133.5v20.5t-2 20.5z" />
<glyph unicode="&#xf9;" horiz-adv-x="1034" d="M729 -29q-14 0 -38.5 11.5t-48.5 30t-41 41t-17 42.5t12 72.5t30.5 119t43 139.5t49.5 136l-10 2q-43 -86 -86 -167t-83 -148.5t-75 -118.5t-62 -78q-37 -35 -80.5 -56.5t-78.5 -21.5t-66 11.5t-54.5 30t-36.5 42t-13 47.5q0 25 8 62t21.5 82t31 96t37.5 105l125 337 l-92 13l-137 -197l-21 14q33 68 69 124.5t71.5 95.5t69.5 60.5t60 21.5q14 0 43 -10.5t56.5 -26t48 -31.5t20.5 -31q0 -14 -12 -51t-30.5 -87t-41 -110.5t-45.5 -121.5q-16 -41 -31.5 -83t-28.5 -78t-21.5 -63.5t-8.5 -42.5q0 -27 31 -50t65 -23q43 0 138.5 141t228.5 420 l70 227l196 -8l-104 -328l-62 -225q-12 -43 -23 -84t-20.5 -75t-15.5 -55.5t-6 -23.5l88 -12l139 182l19 -14q-66 -135 -142 -210t-139 -75zM375 1401h207l135 -381h-31z" />
<glyph unicode="&#xfa;" horiz-adv-x="1034" d="M729 -29q-14 0 -38.5 11.5t-48.5 30t-41 41t-17 42.5t12 72.5t30.5 119t43 139.5t49.5 136l-10 2q-43 -86 -86 -167t-83 -148.5t-75 -118.5t-62 -78q-37 -35 -80.5 -56.5t-78.5 -21.5t-66 11.5t-54.5 30t-36.5 42t-13 47.5q0 25 8 62t21.5 82t31 96t37.5 105l125 337 l-92 13l-137 -197l-21 14q33 68 69 124.5t71.5 95.5t69.5 60.5t60 21.5q14 0 43 -10.5t56.5 -26t48 -31.5t20.5 -31q0 -14 -12 -51t-30.5 -87t-41 -110.5t-45.5 -121.5q-16 -41 -31.5 -83t-28.5 -78t-21.5 -63.5t-8.5 -42.5q0 -27 31 -50t65 -23q43 0 138.5 141t228.5 420 l70 227l196 -8l-104 -328l-62 -225q-12 -43 -23 -84t-20.5 -75t-15.5 -55.5t-6 -23.5l88 -12l139 182l19 -14q-66 -135 -142 -210t-139 -75zM809 1401h221l-452 -381h-29z" />
<glyph unicode="&#xfb;" horiz-adv-x="1034" d="M729 -29q-14 0 -38.5 11.5t-48.5 30t-41 41t-17 42.5t12 72.5t30.5 119t43 139.5t49.5 136l-10 2q-43 -86 -86 -167t-83 -148.5t-75 -118.5t-62 -78q-37 -35 -80.5 -56.5t-78.5 -21.5t-66 11.5t-54.5 30t-36.5 42t-13 47.5q0 25 8 62t21.5 82t31 96t37.5 105l125 337 l-92 13l-137 -197l-21 14q33 68 69 124.5t71.5 95.5t69.5 60.5t60 21.5q14 0 43 -10.5t56.5 -26t48 -31.5t20.5 -31q0 -14 -12 -51t-30.5 -87t-41 -110.5t-45.5 -121.5q-16 -41 -31.5 -83t-28.5 -78t-21.5 -63.5t-8.5 -42.5q0 -27 31 -50t65 -23q43 0 138.5 141t228.5 420 l70 227l196 -8l-104 -328l-62 -225q-12 -43 -23 -84t-20.5 -75t-15.5 -55.5t-6 -23.5l88 -12l139 182l19 -14q-66 -135 -142 -210t-139 -75zM678 1399h74l172 -395h-33l-199 223h-6l-299 -223h-27z" />
<glyph unicode="&#xfc;" horiz-adv-x="1034" d="M729 -29q-14 0 -38.5 11.5t-48.5 30t-41 41t-17 42.5t12 72.5t30.5 119t43 139.5t49.5 136l-10 2q-43 -86 -86 -167t-83 -148.5t-75 -118.5t-62 -78q-37 -35 -80.5 -56.5t-78.5 -21.5t-66 11.5t-54.5 30t-36.5 42t-13 47.5q0 25 8 62t21.5 82t31 96t37.5 105l125 337 l-92 13l-137 -197l-21 14q33 68 69 124.5t71.5 95.5t69.5 60.5t60 21.5q14 0 43 -10.5t56.5 -26t48 -31.5t20.5 -31q0 -14 -12 -51t-30.5 -87t-41 -110.5t-45.5 -121.5q-16 -41 -31.5 -83t-28.5 -78t-21.5 -63.5t-8.5 -42.5q0 -27 31 -50t65 -23q43 0 138.5 141t228.5 420 l70 227l196 -8l-104 -328l-62 -225q-12 -43 -23 -84t-20.5 -75t-15.5 -55.5t-6 -23.5l88 -12l139 182l19 -14q-66 -135 -142 -210t-139 -75zM479 1059q-59 0 -88 39t-29 80q0 20 7.5 42.5t22 41t37 30t50.5 11.5q29 0 51.5 -11.5t38 -30t22.5 -41t7 -42.5q0 -41 -30 -80 t-89 -39zM874 1059q-59 0 -87.5 39t-28.5 80q0 20 7 42.5t21.5 41t37 30t50.5 11.5q29 0 51.5 -11.5t38 -30t22.5 -41t7 -42.5q0 -41 -30 -80t-89 -39z" />
<glyph unicode="&#xfd;" horiz-adv-x="897" d="M-70 -416q-88 0 -136 39t-48 103q0 49 35 79.5t78 30.5q31 0 56.5 -14.5t40.5 -38t16 -55t-15 -68.5l66 -18q33 8 78.5 35.5t94 64.5t93.5 77t76 70q2 174 -10.5 339t-34 293t-52 206t-63.5 78l-37 2l-129 -203l-21 17q31 68 59.5 123t59.5 94t67 60.5t81 21.5 q70 0 115.5 -38t73.5 -132.5t41 -255t15 -404.5q0 -2 5 -2h6q39 59 83 147.5t81.5 180.5t63.5 176t28 135q-33 -20 -65 -18t-56.5 16t-41 36.5t-16.5 47.5q-2 47 29 83t84 36t93 -41t40 -117q0 -90 -40 -207t-101 -233.5t-136 -223t-145 -178.5q-43 -45 -104.5 -104.5 t-131 -112.5t-141.5 -90t-135 -37zM770 1401h221l-452 -381h-29z" />
<glyph unicode="&#xfe;" horiz-adv-x="907" d="M-262 -481l59 8q41 4 58.5 10t21.5 25l459 1663q4 18 1 33.5t-13 17.5l-152 20l6 27l391 55l-63 -233q-37 -123 -72 -232.5t-62.5 -198.5t-48 -154.5t-32.5 -102.5q-4 -12 2 -13.5t10 9.5q57 127 107.5 215t96.5 143t90 81t89 26q90 0 139 -82t49 -207q0 -121 -45 -239 t-117.5 -210t-165.5 -149.5t-190 -57.5q-49 0 -88 26t-61 67h-4l-140 -508q-4 -12 16.5 -20.5t78.5 -10.5l84 -8l4 -33h-512zM377 12q29 0 54.5 17.5t47.5 40.5q39 39 76 105.5t64.5 142t45 152.5t17.5 138q0 176 -92 176q-66 0 -138.5 -115.5t-162.5 -310.5 q-10 -25 -21.5 -57.5t-20.5 -63t-15.5 -56t-6.5 -36.5q14 -49 58.5 -91t93.5 -42z" />
<glyph unicode="&#xff;" horiz-adv-x="897" d="M-70 -416q-88 0 -136 39t-48 103q0 49 35 79.5t78 30.5q31 0 56.5 -14.5t40.5 -38t16 -55t-15 -68.5l66 -18q33 8 78.5 35.5t94 64.5t93.5 77t76 70q2 174 -10.5 339t-34 293t-52 206t-63.5 78l-37 2l-129 -203l-21 17q31 68 59.5 123t59.5 94t67 60.5t81 21.5 q70 0 115.5 -38t73.5 -132.5t41 -255t15 -404.5q0 -2 5 -2h6q39 59 83 147.5t81.5 180.5t63.5 176t28 135q-33 -20 -65 -18t-56.5 16t-41 36.5t-16.5 47.5q-2 47 29 83t84 36t93 -41t40 -117q0 -90 -40 -207t-101 -233.5t-136 -223t-145 -178.5q-43 -45 -104.5 -104.5 t-131 -112.5t-141.5 -90t-135 -37zM809 1059q-59 0 -88 39t-29 80q0 20 7.5 42.5t21.5 41t36.5 30t51.5 11.5t51.5 -11.5t37.5 -30t22.5 -41t7.5 -42.5q0 -41 -30 -80t-89 -39zM414 1059q-59 0 -88 39t-29 80q0 20 7 42.5t21.5 41t37 30t51.5 11.5t51 -11.5t37.5 -30 t22.5 -41t7 -42.5q0 -41 -29.5 -80t-88.5 -39z" />
<glyph unicode="&#x100;" horiz-adv-x="1265" d="M377 518l-94 -186q-47 -86 -74 -140.5t-28 -86t28 -45t90 -19.5l61 -8l5 -33h-457l6 33l45 8q43 6 72.5 18.5t60.5 49t72 107.5t108 194l373 714l-6 80q20 4 48 14.5t55.5 26t50 32.5t34.5 34h31l131 -1065q8 -61 18.5 -99t25 -61t34.5 -32t51 -11l70 -10v-33h-594l6 33 l72 6q70 6 82 46t2 128l-31 305h-348zM719 565l-25 250q-10 111 -26 252h-9l-258 -502h318zM522 1440q2 4 4 12q2 6 11 27q6 18 14 41h520l-20 -80h-529z" />
<glyph unicode="&#x101;" horiz-adv-x="980" d="M672 -27q-16 0 -45 10.5t-57.5 25t-49 30.5t-20.5 29q0 25 25.5 113.5t72.5 213.5h-8q-59 -98 -107.5 -177t-91.5 -132t-84 -82t-86 -29q-80 0 -137 58.5t-57 163.5q0 78 23.5 157.5t61.5 153.5t88 140.5t103 119.5q68 70 139.5 107.5t132.5 37.5q59 0 83 -49t24 -151h10 l74 202l182 -6l-149 -413l-115 -394l94 -12l142 182l18 -14q-66 -135 -139.5 -210t-126.5 -75zM313 111q51 0 121 93t168 279q8 14 17.5 38t17.5 48.5t13 46t5 31.5q-4 31 -20.5 60.5t-41 53t-53 37t-59.5 13.5q-27 0 -45 -10t-37 -29q-31 -33 -62.5 -93.5t-57 -133 t-42 -149.5t-16.5 -138q0 -72 25.5 -109.5t66.5 -37.5zM403 1081q2 4 5 13q2 6 10 26q6 18 14 41h520l-20 -80h-529z" />
<glyph unicode="&#x102;" horiz-adv-x="1265" d="M377 518l-94 -186q-47 -86 -74 -140.5t-28 -86t28 -45t90 -19.5l61 -8l5 -33h-457l6 33l45 8q43 6 72.5 18.5t60.5 49t72 107.5t108 194l373 714l-6 80q20 4 48 14.5t55.5 26t50 32.5t34.5 34h31l131 -1065q8 -61 18.5 -99t25 -61t34.5 -32t51 -11l70 -10v-33h-594l6 33 l72 6q70 6 82 46t2 128l-31 305h-348zM719 565l-25 250q-10 111 -26 252h-9l-258 -502h318zM768 1368q-66 0 -106.5 31t-64.5 82t-33 119.5t-9 144.5h31q20 -119 67 -182.5t133 -63.5q88 0 159 63.5t134 182.5h33q-29 -76 -60.5 -144.5t-71.5 -119.5t-92 -82t-120 -31z" />
<glyph unicode="&#x103;" horiz-adv-x="980" d="M672 -27q-16 0 -45 10.5t-57.5 25t-49 30.5t-20.5 29q0 25 25.5 113.5t72.5 213.5h-8q-59 -98 -107.5 -177t-91.5 -132t-84 -82t-86 -29q-80 0 -137 58.5t-57 163.5q0 78 23.5 157.5t61.5 153.5t88 140.5t103 119.5q68 70 139.5 107.5t132.5 37.5q59 0 83 -49t24 -151h10 l74 202l182 -6l-149 -413l-115 -394l94 -12l142 182l18 -14q-66 -135 -139.5 -210t-126.5 -75zM313 111q51 0 121 93t168 279q8 14 17.5 38t17.5 48.5t13 46t5 31.5q-4 31 -20.5 60.5t-41 53t-53 37t-59.5 13.5q-27 0 -45 -10t-37 -29q-31 -33 -62.5 -93.5t-57 -133 t-42 -149.5t-16.5 -138q0 -72 25.5 -109.5t66.5 -37.5zM651 1010q-66 0 -106.5 30.5t-64 82t-33 120t-9.5 143.5h31q20 -119 67.5 -182t133.5 -63q88 0 158.5 63.5t134.5 181.5h32q-29 -76 -60.5 -144t-71.5 -119.5t-92 -82t-120 -30.5z" />
<glyph unicode="&#x104;" horiz-adv-x="1265" d="M928 -475q-78 4 -121 51t-39 125q2 51 29.5 96t70.5 83t96.5 67.5t108.5 52.5h-479l6 33l70 6q72 6 84 46t2 128l-29 305h-348l-96 -186q-47 -86 -74 -140.5t-28 -85t28 -45t90 -20.5l63 -8l3 -33h-457l6 33l45 8q43 6 72.5 18.5t60.5 49t72 107.5t108 194l373 714l-6 80 q20 4 50 14.5t59.5 24.5t54 31.5t37.5 36.5h18l133 -1065q8 -61 17.5 -100.5t24 -61t34.5 -31.5t51 -12l68 -8l4 -33q-121 -23 -196.5 -95.5t-80.5 -164.5q-2 -55 24 -88t83 -35q39 -2 64.5 10.5t54.5 32.5l8 -10q-29 -47 -86 -87t-133 -38zM721 565l-53 500h-9l-258 -500 h320z" />
<glyph unicode="&#x105;" horiz-adv-x="980" d="M561 -475q-78 4 -121 53t-37 127q2 45 22.5 85t54.5 74t76 62.5t89 50.5q-20 4 -46 14.5t-47.5 24t-36.5 27.5t-15 25q0 25 25.5 113.5t72.5 213.5h-8q-59 -98 -106.5 -177t-90.5 -132t-84 -82t-88 -29q-82 0 -138 58.5t-56 163.5q0 78 23.5 157.5t61.5 153.5t88 140.5 t103 119.5q68 70 139.5 106.5t132.5 36.5q59 0 83 -49t26 -149h8l74 200l186 -4l-151 -413l-115 -394l94 -12l140 184l20 -16q-53 -109 -109.5 -178.5t-103.5 -95.5q-86 -47 -130 -112t-48 -130q-4 -53 20.5 -88t83.5 -37q39 -2 64.5 10.5t54.5 32.5l6 -10 q-14 -23 -35.5 -45.5t-49 -41t-61.5 -28.5t-71 -10zM657 647q-6 31 -22.5 60.5t-40 53t-53 37t-60.5 13.5q-27 0 -45 -10t-35 -29q-33 -33 -64.5 -93.5t-57 -133t-41 -148t-15.5 -137.5q0 -74 24.5 -111.5t65.5 -37.5q51 0 122 93t169 279q6 14 15.5 38t17.5 48.5t14 46 t6 31.5z" />
<glyph unicode="&#x106;" horiz-adv-x="1370" d="M1034 1759h221l-452 -381h-29zM750 -29q-154 0 -274 45t-203 124t-126 186.5t-43 232.5q0 147 55.5 282.5t156 239t241.5 166t311 62.5q117 0 206 -23.5t147 -56.5l149 39l-61 -396l-43 2l-78 295q-45 39 -121 67t-168 28q-129 0 -231.5 -64.5t-173 -171t-107.5 -242 t-37 -276.5q0 -115 28 -206t82 -155.5t132 -99.5t176 -35q117 0 206 52.5t163 148.5l88 156l45 -2l-105 -355l-84 4q-25 -8 -62.5 -16t-82.5 -15t-93 -11.5t-93 -4.5z" />
<glyph unicode="&#x107;" horiz-adv-x="757" d="M696 1401h222l-453 -381h-29zM305 -27q-59 0 -109.5 23.5t-87 65.5t-57 97.5t-20.5 119.5q0 111 43 224t115.5 205.5t170 152t205.5 59.5q43 0 83 -12.5t70 -35t48 -52t18 -66.5q0 -53 -33.5 -91t-80.5 -38q-45 0 -77 26.5t-32 67.5q0 33 18.5 61.5t45.5 44.5 q-16 14 -42 29.5t-63 15.5q-25 0 -51.5 -16t-52.5 -43q-35 -35 -68 -91t-58.5 -125t-41 -143.5t-15.5 -144.5q0 -211 158 -211q33 0 61.5 9.5t59.5 31t63.5 57t73.5 89.5l21 -17q-39 -63 -80 -116.5t-85 -92.5t-94.5 -61.5t-105.5 -22.5z" />
<glyph unicode="&#x108;" horiz-adv-x="1370" d="M909 1757h74l172 -395h-33l-198 223h-6l-300 -223h-26zM750 -29q-154 0 -274 45t-203 124t-126 186.5t-43 232.5q0 147 55.5 282.5t156 239t241.5 166t311 62.5q117 0 206 -23.5t147 -56.5l149 39l-61 -396l-43 2l-78 295q-45 39 -121 67t-168 28q-129 0 -231.5 -64.5 t-173 -171t-107.5 -242t-37 -276.5q0 -115 28 -206t82 -155.5t132 -99.5t176 -35q117 0 206 52.5t163 148.5l88 156l45 -2l-105 -355l-84 4q-25 -8 -62.5 -16t-82.5 -15t-93 -11.5t-93 -4.5z" />
<glyph unicode="&#x109;" horiz-adv-x="757" d="M567 1399h74l172 -395h-33l-198 223h-7l-299 -223h-26zM305 -27q-59 0 -109.5 23.5t-87 65.5t-57 97.5t-20.5 119.5q0 111 43 224t115.5 205.5t170 152t205.5 59.5q43 0 83 -12.5t70 -35t48 -52t18 -66.5q0 -53 -33.5 -91t-80.5 -38q-45 0 -77 26.5t-32 67.5 q0 33 18.5 61.5t45.5 44.5q-16 14 -42 29.5t-63 15.5q-25 0 -51.5 -16t-52.5 -43q-35 -35 -68 -91t-58.5 -125t-41 -143.5t-15.5 -144.5q0 -211 158 -211q33 0 61.5 9.5t59.5 31t63.5 57t73.5 89.5l21 -17q-39 -63 -80 -116.5t-85 -92.5t-94.5 -61.5t-105.5 -22.5z" />
<glyph unicode="&#x10a;" horiz-adv-x="1370" d="M750 -29q-154 0 -274 45t-203 124t-126 186.5t-43 232.5q0 147 55.5 282.5t156 239t241.5 166t311 62.5q117 0 206 -23.5t147 -56.5l149 39l-61 -396l-43 2l-78 295q-45 39 -121 67t-168 28q-129 0 -231.5 -64.5t-173 -171t-107.5 -242t-37 -276.5q0 -115 28 -206 t82 -155.5t132 -99.5t176 -35q117 0 206 52.5t163 148.5l88 156l45 -2l-105 -355l-84 4q-25 -8 -62.5 -16t-82.5 -15t-93 -11.5t-93 -4.5zM907 1440q-59 0 -91 40t-32 85t32 87t91 42q63 0 94 -42t31 -87t-31 -85t-94 -40z" />
<glyph unicode="&#x10b;" horiz-adv-x="757" d="M305 -27q-59 0 -109.5 23.5t-87 65.5t-57 97.5t-20.5 119.5q0 111 43 224t115.5 205.5t170 152t205.5 59.5q43 0 83 -12.5t70 -35t48 -52t18 -66.5q0 -53 -33.5 -91t-80.5 -38q-45 0 -77 26.5t-32 67.5q0 33 18.5 61.5t45.5 44.5q-16 14 -42 29.5t-63 15.5 q-25 0 -51.5 -16t-52.5 -43q-35 -35 -68 -91t-58.5 -125t-41 -143.5t-15.5 -144.5q0 -211 158 -211q33 0 61.5 9.5t59.5 31t63.5 57t73.5 89.5l21 -17q-39 -63 -80 -116.5t-85 -92.5t-94.5 -61.5t-105.5 -22.5zM582 1081q-59 0 -91 40t-32 85t31.5 87t91.5 42q63 0 94 -42 t31 -87t-31 -85t-94 -40z" />
<glyph unicode="&#x10c;" horiz-adv-x="1370" d="M664 1757h30l201 -223h6l295 223h31l-320 -395h-73zM750 -29q-154 0 -274 45t-203 124t-126 186.5t-43 232.5q0 147 55.5 282.5t156 239t241.5 166t311 62.5q117 0 206 -23.5t147 -56.5l149 39l-61 -396l-43 2l-78 295q-45 39 -121 67t-168 28q-129 0 -231.5 -64.5 t-173 -171t-107.5 -242t-37 -276.5q0 -115 28 -206t82 -155.5t132 -99.5t176 -35q117 0 206 52.5t163 148.5l88 156l45 -2l-105 -355l-84 4q-25 -8 -62.5 -16t-82.5 -15t-93 -11.5t-93 -4.5z" />
<glyph unicode="&#x10d;" horiz-adv-x="757" d="M311 1399h31l201 -223h6l295 223h30l-319 -395h-74zM305 -27q-59 0 -109.5 23.5t-87 65.5t-57 97.5t-20.5 119.5q0 111 43 224t115.5 205.5t170 152t205.5 59.5q43 0 83 -12.5t70 -35t48 -52t18 -66.5q0 -53 -33.5 -91t-80.5 -38q-45 0 -77 26.5t-32 67.5q0 33 18.5 61.5 t45.5 44.5q-16 14 -42 29.5t-63 15.5q-25 0 -51.5 -16t-52.5 -43q-35 -35 -68 -91t-58.5 -125t-41 -143.5t-15.5 -144.5q0 -211 158 -211q33 0 61.5 9.5t59.5 31t63.5 57t73.5 89.5l21 -17q-39 -63 -80 -116.5t-85 -92.5t-94.5 -61.5t-105.5 -22.5z" />
<glyph unicode="&#x10e;" horiz-adv-x="1384" d="M-23 33l89 12q47 6 66.5 15.5t21.5 21.5l215 1120q2 12 -13.5 18.5t-79.5 16.5l-65 10l-2 33h258h95t81 1t57 1h21q162 0 282.5 -41t200.5 -113.5t120 -172t40 -216.5q0 -147 -55.5 -280t-162 -235.5t-261 -163t-353.5 -60.5h-561zM516 39q143 2 255 59.5t188.5 156.5 t116.5 233.5t40 287.5q0 98 -23.5 183t-72.5 146.5t-128 97.5t-190 36h-100l-219 -1159zM528 1757h31l201 -223h6l295 223h31l-320 -395h-74z" />
<glyph unicode="&#x10f;" horiz-adv-x="1382" d="M1102 877q94 37 161.5 101t67.5 142q0 41 -21.5 67.5t-48 44t-50 25t-29.5 11.5q4 45 39.5 80.5t95.5 35.5q74 0 118 -52t44 -124q0 -55 -27 -108t-74 -99.5t-112.5 -83t-145.5 -61.5zM672 -27q-16 0 -45 10.5t-57.5 26t-49 31.5t-20.5 29q0 25 25.5 112.5t70.5 212.5h-8 q-59 -98 -106.5 -177t-90.5 -132t-84 -82t-86 -29q-80 0 -137 58.5t-57 163.5q0 78 23.5 157.5t61.5 153.5t88 139.5t103 118.5q68 70 136.5 111t133.5 41q31 0 51.5 -18.5t32 -47.5t16.5 -65.5t7 -73.5h10l152 514q4 18 1 33.5t-16 17.5l-172 20l7 25l415 55l-262 -833 l-131 -443l94 -12l142 182l18 -16q-66 -135 -139.5 -209t-126.5 -74zM313 111q51 0 121 92t168 280q8 14 17.5 38t17.5 48.5t13 46t5 31.5q-4 31 -20.5 59.5t-41 52t-53 37t-59.5 13.5q-27 0 -45 -10.5t-37 -26.5q-31 -33 -62.5 -93.5t-57 -133t-42 -149.5t-16.5 -138 q0 -72 25.5 -109.5t66.5 -37.5z" />
<glyph unicode="&#x110;" horiz-adv-x="1384" d="M80 623l8 45h178l103 534q2 12 -13.5 18.5t-79.5 16.5l-65 10l-2 33h258h95t81 1t57 1h21q162 0 282.5 -41t200.5 -113.5t120 -172t40 -216.5q0 -147 -55.5 -280t-161 -235.5t-261 -163t-354.5 -60.5h-561l6 33l89 12q47 6 66.5 15.5t21.5 21.5l104 541h-178zM762 668 l4 -45h-281l-102 -543l133 -41q143 2 255 59.5t188.5 156.5t116.5 233.5t40 287.5q0 98 -23.5 183t-72.5 146.5t-128 97.5t-190 36h-100l-108 -571h268z" />
<glyph unicode="&#x111;" horiz-adv-x="978" d="M672 -27q-16 0 -45 10.5t-57.5 26t-49 31.5t-20.5 29q0 25 25.5 112.5t70.5 212.5h-8q-59 -98 -106.5 -177t-90.5 -132t-84 -82t-86 -29q-80 0 -137 58.5t-57 163.5q0 78 23.5 157.5t61.5 153.5t88 139.5t103 118.5q68 70 136.5 111t133.5 41q31 0 51.5 -18.5t32 -47.5 t16.5 -65.5t7 -73.5h10l98 336h-223l23 75h223l31 103q4 18 1 33.5t-16 17.5l-172 20l7 25l415 55l-80 -254h142l-17 -75l-149 -2l-158 -502l-131 -443l94 -12l142 182l18 -16q-66 -135 -139.5 -209t-126.5 -74zM313 111q51 0 121 92t168 280q8 14 17.5 38t17.5 48.5t13 46 t5 31.5q-4 31 -20.5 59.5t-41 52t-53 37t-59.5 13.5q-27 0 -45 -10.5t-37 -26.5q-31 -33 -62.5 -93.5t-57 -133t-42 -149.5t-16.5 -138q0 -72 25.5 -109.5t66.5 -37.5z" />
<glyph unicode="&#x112;" horiz-adv-x="1232" d="M-23 33l82 12q90 12 95 37l215 1120q2 12 -13.5 18.5t-79.5 16.5l-63 10l-4 33h971l-4 -406h-46l-12 74q-23 78 -47 133.5t-69.5 91t-115 52t-179.5 16.5l-105 -2l-106 -563l75 2q68 2 116 9t81 23.5t56.5 43t41.5 67.5l31 64l39 -2l-102 -463l-39 2l4 61q4 45 -5.5 74 t-37 45t-77.5 22.5t-126 10.5l-66 2l-110 -590l178 -8q115 0 195.5 22.5t140 61.5t102.5 95t80 124l35 70l47 -2l-129 -410h-1055zM492 1440q2 4 4 12q2 6 10 27q6 18 14 41h520l-20 -80h-528z" />
<glyph unicode="&#x113;" horiz-adv-x="774" d="M307 -27q-61 0 -112.5 23.5t-87 65.5t-56 97.5t-20.5 119.5q0 113 44 226t115.5 205.5t166 151t196.5 58.5t164.5 -48.5t62.5 -126.5q0 -102 -132 -169.5t-398 -141.5q-16 -66 -17 -131q0 -100 43 -153.5t125 -53.5q63 0 124 40t141 147l20 -17q-76 -127 -170 -210 t-209 -83zM256 467q186 59 270 124.5t84 168.5q0 47 -31.5 76.5t-70.5 29.5q-27 0 -48.5 -12t-43.5 -33q-45 -45 -91 -140t-73 -212zM240 1081q2 4 4 13q2 6 10 26q6 18 14 41h520l-20 -80h-528z" />
<glyph unicode="&#x114;" horiz-adv-x="1232" d="M-23 33l82 12q90 12 95 37l215 1120q2 12 -13.5 18.5t-79.5 16.5l-63 10l-4 33h971l-4 -406h-46l-12 74q-23 78 -47 133.5t-69.5 91t-115 52t-179.5 16.5l-105 -2l-106 -563l75 2q68 2 116 9t81 23.5t56.5 43t41.5 67.5l31 64l39 -2l-102 -463l-39 2l4 61q4 45 -5.5 74 t-37 45t-77.5 22.5t-126 10.5l-66 2l-110 -590l178 -8q115 0 195.5 22.5t140 61.5t102.5 95t80 124l35 70l47 -2l-129 -410h-1055zM770 1368q-66 0 -106.5 31t-64.5 82t-33 119.5t-9 144.5h31q20 -119 67 -182.5t133 -63.5q88 0 159 63.5t134 182.5h33q-29 -76 -60.5 -144.5 t-71.5 -119.5t-92 -82t-120 -31z" />
<glyph unicode="&#x115;" horiz-adv-x="774" d="M307 -27q-61 0 -112.5 23.5t-87 65.5t-56 97.5t-20.5 119.5q0 113 44 226t115.5 205.5t166 151t196.5 58.5t164.5 -48.5t62.5 -126.5q0 -102 -132 -169.5t-398 -141.5q-16 -66 -17 -131q0 -100 43 -153.5t125 -53.5q63 0 124 40t141 147l20 -17q-76 -127 -170 -210 t-209 -83zM256 467q186 59 270 124.5t84 168.5q0 47 -31.5 76.5t-70.5 29.5q-27 0 -48.5 -12t-43.5 -33q-45 -45 -91 -140t-73 -212zM504 1010q-66 0 -107 30.5t-64.5 82t-32.5 120t-9 143.5h31q20 -119 67 -182t133 -63q88 0 159 63.5t134 181.5h33q-29 -76 -60.5 -144 t-71.5 -119.5t-92 -82t-120 -30.5z" />
<glyph unicode="&#x116;" horiz-adv-x="1232" d="M-23 33l82 12q90 12 95 37l215 1120q2 12 -13.5 18.5t-79.5 16.5l-63 10l-4 33h971l-4 -406h-46l-12 74q-23 78 -47 133.5t-69.5 91t-115 52t-179.5 16.5l-105 -2l-106 -563l75 2q68 2 116 9t81 23.5t56.5 43t41.5 67.5l31 64l39 -2l-102 -463l-39 2l4 61q4 45 -5.5 74 t-37 45t-77.5 22.5t-126 10.5l-66 2l-110 -590l178 -8q115 0 195.5 22.5t140 61.5t102.5 95t80 124l35 70l47 -2l-129 -410h-1055zM766 1440q-59 0 -91 40t-32 85t32 87t91 42q63 0 94 -42t31 -87t-31 -85t-94 -40z" />
<glyph unicode="&#x117;" horiz-adv-x="774" d="M307 -27q-61 0 -112.5 23.5t-87 65.5t-56 97.5t-20.5 119.5q0 113 44 226t115.5 205.5t166 151t196.5 58.5t164.5 -48.5t62.5 -126.5q0 -102 -132 -169.5t-398 -141.5q-16 -66 -17 -131q0 -100 43 -153.5t125 -53.5q63 0 124 40t141 147l20 -17q-76 -127 -170 -210 t-209 -83zM256 467q186 59 270 124.5t84 168.5q0 47 -31.5 76.5t-70.5 29.5q-27 0 -48.5 -12t-43.5 -33q-45 -45 -91 -140t-73 -212zM549 1081q-59 0 -91 40t-32 85t31.5 87t91.5 42q63 0 94 -42t31 -87t-31 -85t-94 -40z" />
<glyph unicode="&#x118;" horiz-adv-x="1232" d="M760 -475q-78 4 -120 54t-36 128q2 49 26.5 93t64.5 81t89.5 66.5t100.5 52.5h-914l6 31l82 14q90 8 95 37l215 1120q2 14 -13.5 20.5t-79.5 14.5l-63 12l-4 31h971l-4 -406h-46l-12 72q-23 78 -47 134.5t-69.5 92t-115 52t-179.5 16.5l-103 -2l-108 -563h75q68 2 116 10 t82 24.5t56.5 43t40.5 67.5l31 64h39l-102 -465l-39 2l6 61q4 45 -6.5 73t-38 44t-77.5 23.5t-126 11.5l-64 2l-112 -592l178 -6q115 0 195.5 22.5t139 61.5t101.5 95t82 124l35 70h47l-129 -412h-82q-98 -53 -144 -120.5t-50 -135.5q-4 -55 20.5 -90t81.5 -37 q39 -2 65.5 10.5t55.5 32.5l6 -10q-29 -47 -85 -87t-134 -38z" />
<glyph unicode="&#x119;" horiz-adv-x="774" d="M254 -475q-78 4 -121 52t-39 126q2 41 21.5 82t51.5 77t73 65.5t84 47.5h-23q-59 0 -108.5 24t-85 65.5t-56 97t-20.5 117.5q0 113 44 226t116.5 205.5t167 150t196.5 57.5q100 0 162.5 -47.5t62.5 -125.5q0 -102 -132 -169.5t-398 -139.5q-8 -31 -12.5 -67.5t-4.5 -65.5 q0 -100 44.5 -153.5t123.5 -53.5q66 0 126.5 40t138.5 147l20 -17q-57 -96 -120.5 -168.5t-141.5 -107.5q-43 -18 -77 -48t-57.5 -64t-35.5 -70.5t-14 -67.5q-4 -53 22.5 -87t83.5 -36q39 -2 65.5 10.5t55.5 32.5l6 -10q-14 -23 -35.5 -45.5t-50.5 -41t-62.5 -28.5 t-70.5 -10zM258 467q92 31 158.5 60.5t108.5 64.5t62.5 76t20.5 92q0 47 -29.5 76.5t-70.5 29.5q-47 0 -92 -45t-91 -141t-71 -211z" />
<glyph unicode="&#x11a;" horiz-adv-x="1232" d="M559 1757h31l201 -223h6l295 223h30l-319 -395h-74zM-23 33l82 12q90 12 95 37l215 1120q2 12 -13.5 18.5t-79.5 16.5l-63 10l-4 33h971l-4 -406h-46l-12 74q-23 78 -47 133.5t-69.5 91t-115 52t-179.5 16.5l-105 -2l-106 -563l75 2q68 2 116 9t81 23.5t56.5 43 t41.5 67.5l31 64l39 -2l-102 -463l-39 2l4 61q4 45 -5.5 74t-37 45t-77.5 22.5t-126 10.5l-66 2l-110 -590l178 -8q115 0 195.5 22.5t140 61.5t102.5 95t80 124l35 70l47 -2l-129 -410h-1055z" />
<glyph unicode="&#x11b;" horiz-adv-x="774" d="M299 1399h31l200 -223h7l294 223h31l-319 -395h-74zM307 -27q-61 0 -112.5 23.5t-87 65.5t-56 97.5t-20.5 119.5q0 113 44 226t115.5 205.5t166 151t196.5 58.5t164.5 -48.5t62.5 -126.5q0 -102 -132 -169.5t-398 -141.5q-16 -66 -17 -131q0 -100 43 -153.5t125 -53.5 q63 0 124 40t141 147l20 -17q-76 -127 -170 -210t-209 -83zM256 467q186 59 270 124.5t84 168.5q0 47 -31.5 76.5t-70.5 29.5q-27 0 -48.5 -12t-43.5 -33q-45 -45 -91 -140t-73 -212z" />
<glyph unicode="&#x11c;" horiz-adv-x="1435" d="M897 1757h74l172 -395h-33l-199 223h-6l-299 -223h-26zM731 -31q-147 0 -264 43t-197 121t-123 185.5t-43 234.5q0 150 55.5 286t157 240.5t242.5 167t315 62.5q111 0 204 -23.5t151 -56.5l149 37l-63 -400h-41l-80 303q-41 39 -118 67t-169 28q-127 0 -229.5 -62.5 t-175 -168t-112.5 -243t-40 -284.5q0 -113 28 -204t80 -155.5t126.5 -100.5t169.5 -36q57 0 103 11.5t81 27.5l86 434q4 14 -17.5 21.5t-86.5 13.5l-80 10l-4 33h587l-10 -33l-84 -10q-47 -6 -65.5 -16t-20.5 -21l-76 -385l113 8v-24q-49 -18 -114.5 -39t-138.5 -36 t-149.5 -25.5t-146.5 -10.5z" />
<glyph unicode="&#x11d;" horiz-adv-x="839" d="M547 1399h74l172 -395h-33l-199 223h-6l-299 -223h-27zM240 -504q-92 0 -169 16.5t-132.5 48t-86 76t-30.5 99.5q0 41 25.5 79t67.5 70.5t96.5 57t113.5 39.5v8q-53 27 -89 61.5t-36 87.5q0 31 18.5 59.5t47 53t66.5 43t79 29.5v6q-55 41 -90 102.5t-35 134.5 q0 72 32 135.5t85 111.5t119.5 76t138.5 28q57 -2 111.5 -19.5t91.5 -44.5l260 33l-31 -142l-234 68v-10q43 -43 68 -95.5t25 -107.5q0 -68 -32 -127t-83 -103t-115.5 -70t-132.5 -26q-82 0 -143 33q-43 -8 -66.5 -36.5t-23.5 -59.5q0 -37 43 -57.5t153 -57.5l62 -18 q68 -23 126 -48.5t101 -58t68.5 -74.5t25.5 -98q0 -59 -36.5 -113.5t-103.5 -96.5t-158 -67.5t-197 -25.5zM350 309q31 0 61.5 16.5t53.5 39.5q31 31 54.5 76.5t37.5 97t22.5 100.5t8.5 86q0 63 -32 104t-79 41q-29 0 -49 -12t-41 -31q-31 -31 -54.5 -76.5t-41 -96 t-25.5 -99.5t-8 -86q0 -39 9 -78t26 -55q10 -10 25.5 -18.5t31.5 -8.5zM324 -461q55 0 102 14.5t82 39t55.5 57.5t20.5 69q0 33 -19.5 60.5t-53.5 50.5t-78 41t-91 35q-47 16 -92 30.5t-84 30.5q-74 -23 -123 -75t-49 -125q0 -98 89 -163t241 -65z" />
<glyph unicode="&#x11e;" horiz-adv-x="1435" d="M731 -31q-147 0 -264 43t-197 121t-123 185.5t-43 234.5q0 150 55.5 286t157 240.5t242.5 167t315 62.5q111 0 204 -23.5t151 -56.5l149 37l-63 -400h-41l-80 303q-41 39 -118 67t-169 28q-127 0 -229.5 -62.5t-175 -168t-112.5 -243t-40 -284.5q0 -113 28 -204 t80 -155.5t126.5 -100.5t169.5 -36q57 0 103 11.5t81 27.5l86 434q4 14 -17.5 21.5t-86.5 13.5l-80 10l-4 33h587l-10 -33l-84 -10q-47 -6 -65.5 -16t-20.5 -21l-76 -385l113 8v-24q-49 -18 -114.5 -39t-138.5 -36t-149.5 -25.5t-146.5 -10.5zM887 1368q-66 0 -107 31 t-64.5 82t-32.5 119.5t-9 144.5h31q20 -119 67 -182.5t133 -63.5q88 0 159 63.5t134 182.5h33q-29 -76 -60.5 -144.5t-71.5 -119.5t-92 -82t-120 -31z" />
<glyph unicode="&#x11f;" horiz-adv-x="839" d="M240 -504q-92 0 -169 16.5t-132.5 48t-86 76t-30.5 99.5q0 41 25.5 79t67.5 70.5t96.5 57t113.5 39.5v8q-53 27 -89 61.5t-36 87.5q0 31 18.5 59.5t47 53t66.5 43t79 29.5v6q-55 41 -90 102.5t-35 134.5q0 72 32 135.5t85 111.5t119.5 76t138.5 28q57 -2 111.5 -19.5 t91.5 -44.5l260 33l-31 -142l-234 68v-10q43 -43 68 -95.5t25 -107.5q0 -68 -32 -127t-83 -103t-115.5 -70t-132.5 -26q-82 0 -143 33q-43 -8 -66.5 -36.5t-23.5 -59.5q0 -37 43 -57.5t153 -57.5l62 -18q68 -23 126 -48.5t101 -58t68.5 -74.5t25.5 -98q0 -59 -36.5 -113.5 t-103.5 -96.5t-158 -67.5t-197 -25.5zM324 -461q55 0 102 14.5t82 39t55.5 57.5t20.5 69q0 33 -19.5 60.5t-53.5 50.5t-78 41t-91 35q-47 16 -92 30.5t-84 30.5q-74 -23 -123 -75t-49 -125q0 -98 89 -163t241 -65zM350 309q31 0 61.5 16.5t53.5 39.5q31 31 54.5 76.5 t37.5 97t22.5 100.5t8.5 86q0 63 -32 104t-79 41q-29 0 -49 -12t-41 -31q-31 -31 -54.5 -76.5t-41 -96t-25.5 -99.5t-8 -86q0 -39 9 -78t26 -55q10 -10 25.5 -18.5t31.5 -8.5zM520 1010q-66 0 -106.5 30.5t-64 82t-33 120t-9.5 143.5h31q20 -119 67.5 -182t133.5 -63 q88 0 158.5 63.5t133.5 181.5h33q-29 -76 -60.5 -144t-71.5 -119.5t-92 -82t-120 -30.5z" />
<glyph unicode="&#x120;" horiz-adv-x="1435" d="M731 -31q-147 0 -264 43t-197 121t-123 185.5t-43 234.5q0 150 55.5 286t157 240.5t242.5 167t315 62.5q111 0 204 -23.5t151 -56.5l149 37l-63 -400h-41l-80 303q-41 39 -118 67t-169 28q-127 0 -229.5 -62.5t-175 -168t-112.5 -243t-40 -284.5q0 -113 28 -204 t80 -155.5t126.5 -100.5t169.5 -36q57 0 103 11.5t81 27.5l86 434q4 14 -17.5 21.5t-86.5 13.5l-80 10l-4 33h587l-10 -33l-84 -10q-47 -6 -65.5 -16t-20.5 -21l-76 -385l113 8v-24q-49 -18 -114.5 -39t-138.5 -36t-149.5 -25.5t-146.5 -10.5zM915 1440q-59 0 -90.5 40 t-31.5 85t31.5 87t90.5 42q63 0 94 -42t31 -87t-31 -85t-94 -40z" />
<glyph unicode="&#x121;" horiz-adv-x="839" d="M240 -504q-92 0 -169 16.5t-132.5 48t-86 76t-30.5 99.5q0 41 25.5 79t67.5 70.5t96.5 57t113.5 39.5v8q-53 27 -89 61.5t-36 87.5q0 31 18.5 59.5t47 53t66.5 43t79 29.5v6q-55 41 -90 102.5t-35 134.5q0 72 32 135.5t85 111.5t119.5 76t138.5 28q57 -2 111.5 -19.5 t91.5 -44.5l260 33l-31 -142l-234 68v-10q43 -43 68 -95.5t25 -107.5q0 -68 -32 -127t-83 -103t-115.5 -70t-132.5 -26q-82 0 -143 33q-43 -8 -66.5 -36.5t-23.5 -59.5q0 -37 43 -57.5t153 -57.5l62 -18q68 -23 126 -48.5t101 -58t68.5 -74.5t25.5 -98q0 -59 -36.5 -113.5 t-103.5 -96.5t-158 -67.5t-197 -25.5zM350 309q31 0 61.5 16.5t53.5 39.5q31 31 54.5 76.5t37.5 97t22.5 100.5t8.5 86q0 63 -32 104t-79 41q-29 0 -49 -12t-41 -31q-31 -31 -54.5 -76.5t-41 -96t-25.5 -99.5t-8 -86q0 -39 9 -78t26 -55q10 -10 25.5 -18.5t31.5 -8.5z M324 -461q55 0 102 14.5t82 39t55.5 57.5t20.5 69q0 33 -19.5 60.5t-53.5 50.5t-78 41t-91 35q-47 16 -92 30.5t-84 30.5q-74 -23 -123 -75t-49 -125q0 -98 89 -163t241 -65zM553 1081q-59 0 -91 40t-32 85t32 87t91 42q63 0 94 -42t31 -87t-31 -85t-94 -40z" />
<glyph unicode="&#x122;" horiz-adv-x="1435" d="M825 -309q-10 -45 -39.5 -87t-75.5 -76t-102.5 -56.5t-118.5 -28.5l-12 18q78 12 133.5 56.5t67.5 105.5q8 39 -5.5 66.5t-36 44t-50 19.5t-47.5 -5q-4 25 6 49.5t30.5 44t50 30.5t68.5 7q74 -8 110.5 -62t20.5 -126zM731 -31q-147 0 -264 43t-197 121t-123 185.5 t-43 234.5q0 150 55.5 286t157 240.5t242.5 167t315 62.5q111 0 204 -23.5t151 -56.5l149 37l-63 -400h-41l-80 303q-41 39 -118 67t-169 28q-127 0 -229.5 -62.5t-175 -168t-112.5 -243t-40 -284.5q0 -113 28 -204t80 -155.5t126.5 -100.5t169.5 -36q57 0 103 11.5t81 27.5 l86 434q4 14 -17.5 21.5t-86.5 13.5l-80 10l-4 33h587l-10 -33l-84 -10q-47 -6 -65.5 -16t-20.5 -21l-76 -385l113 8v-24q-49 -18 -114.5 -39t-138.5 -36t-149.5 -25.5t-146.5 -10.5z" />
<glyph unicode="&#x123;" horiz-adv-x="839" d="M449 1219q8 45 38.5 87t76.5 75.5t102.5 56t117.5 28.5l13 -18q-78 -12 -133.5 -56t-67.5 -106q-8 -39 5 -66.5t35.5 -44t49.5 -20.5t49 6q2 -25 -7 -49.5t-29.5 -43.5t-50.5 -30.5t-68 -7.5q-74 8 -110.5 62.5t-20.5 126.5zM240 -504q-92 0 -169 16.5t-132.5 48t-86 76 t-30.5 99.5q0 41 25.5 79t67.5 70.5t96.5 57t113.5 39.5v8q-53 27 -89 61.5t-36 87.5q0 31 18.5 59.5t47 53t66.5 43t79 29.5v6q-55 41 -90 102.5t-35 134.5q0 72 32 135.5t85 111.5t119.5 76t138.5 28q57 -2 111.5 -19.5t91.5 -44.5l260 33l-31 -142l-234 68v-10 q43 -43 68 -95.5t25 -107.5q0 -68 -32 -127t-83 -103t-115.5 -70t-132.5 -26q-82 0 -143 33q-43 -8 -66.5 -36.5t-23.5 -59.5q0 -37 43 -57.5t153 -57.5l62 -18q68 -23 126 -48.5t101 -58t68.5 -74.5t25.5 -98q0 -59 -36.5 -113.5t-103.5 -96.5t-158 -67.5t-197 -25.5z M350 309q31 0 61.5 16.5t53.5 39.5q31 31 54.5 76.5t37.5 97t22.5 100.5t8.5 86q0 63 -32 104t-79 41q-29 0 -49 -12t-41 -31q-31 -31 -54.5 -76.5t-41 -96t-25.5 -99.5t-8 -86q0 -39 9 -78t26 -55q10 -10 25.5 -18.5t31.5 -8.5zM324 -461q55 0 102 14.5t82 39t55.5 57.5 t20.5 69q0 33 -19.5 60.5t-53.5 50.5t-78 41t-91 35q-47 16 -92 30.5t-84 30.5q-74 -23 -123 -75t-49 -125q0 -98 89 -163t241 -65z" />
<glyph unicode="&#x124;" horiz-adv-x="1497" d="M928 1757h73l173 -395h-33l-199 223h-6l-299 -223h-27zM-20 33l86 12q47 6 66.5 15.5t23.5 21.5l213 1120q2 6 0 10.5t-12.5 8.5t-29 8t-51.5 8l-63 10l-2 33h571l-8 -33l-88 -12q-47 -6 -67.5 -15.5t-22.5 -21.5l-100 -524h587l103 528q4 14 -12.5 20.5t-79.5 14.5 l-68 10l-2 33h571l-8 -33l-84 -12q-47 -6 -67.5 -15.5t-22.5 -21.5l-215 -1120q-4 -14 12.5 -19.5t79.5 -15.5l66 -10l2 -33h-572l7 33l88 12q47 4 67.5 14.5t22.5 22.5l104 549h-588l-106 -553q-2 -14 13.5 -20.5t78.5 -14.5l70 -10l2 -33h-572z" />
<glyph unicode="&#x125;" horiz-adv-x="987" d="M465 1788h74l172 -395h-33l-199 223h-6l-299 -223h-27zM657 -27q-16 0 -43.5 9.5t-53 23.5t-45 30.5t-19.5 31.5q0 14 12 51t30.5 88t41 112.5t45.5 122.5q14 41 30.5 82t29.5 77t21.5 64.5t8.5 43.5q0 27 -31 49t-63 22q-45 0 -140.5 -141t-224.5 -420l-74 -225l-196 8 q2 4 15 46t30.5 96.5t35 106.5t25.5 77q10 35 26.5 92t36 126.5t41 147.5t42.5 154q49 176 102 379q4 18 1 33.5t-13 17.5l-152 20l6 25l389 55l-63 -233q-37 -123 -72 -246t-67.5 -231.5t-60 -195.5t-50.5 -142l14 -2q43 86 86 165.5t83 147.5t75 118t62 77q37 37 80.5 58 t78.5 21q70 0 120 -39.5t50 -91.5q0 -25 -8 -60.5t-21.5 -80.5t-31 -97t-37.5 -106q-16 -43 -37.5 -98t-41 -106.5t-33 -89t-15.5 -44.5l90 -12l143 182l21 -16q-33 -68 -71 -120t-75.5 -88t-72.5 -55.5t-60 -19.5z" />
<glyph unicode="&#x126;" horiz-adv-x="1497" d="M786 0l7 31l88 14q47 4 67.5 13.5t22.5 23.5l104 549h-588l-104 -553q-4 -14 11.5 -20.5t78.5 -14.5l70 -12l2 -31h-572l7 31l86 14q47 4 66.5 14.5t23.5 22.5l151 803h-182l27 71h170l47 246q4 14 -11.5 20.5t-78.5 14.5l-66 12l-4 31h573l-8 -31l-88 -14 q-47 -4 -66.5 -14.5t-23.5 -22.5l-47 -242h588l49 246q2 16 -13.5 21.5t-78.5 13.5l-68 12l-4 31h573l-8 -31l-84 -14q-47 -4 -66.5 -14.5t-23.5 -22.5l-47 -242h150l-19 -71h-143l-156 -807q-2 -14 14.5 -20.5t77.5 -14.5l66 -12l2 -31h-572zM1083 674l41 211h-587 l-41 -211h587z" />
<glyph unicode="&#x127;" horiz-adv-x="987" d="M178 1124h131q4 16 10.5 35t10.5 35q6 18 10 35q4 18 1 32.5t-13 16.5l-152 20l4 27l391 53q-27 -90 -45 -162.5t-24 -91.5h227l-18 -75h-230q-29 -94 -59.5 -201t-60 -206t-56 -182t-45.5 -130l14 -4q43 86 85 166.5t82 148.5t76 118t63 77q37 37 81 58t78 21 q35 0 66 -11t54.5 -29.5t36.5 -42t13 -48.5t-8 -60.5t-21.5 -80.5t-31 -97t-37.5 -106q-16 -43 -37.5 -98t-41 -106.5t-33 -89t-15.5 -44.5l92 -12l144 182l18 -16q-68 -135 -147.5 -209t-133.5 -74q-16 0 -43.5 9.5t-53 23.5t-45 30.5t-19.5 31.5q0 14 12 51t30.5 88 t42 112.5t46.5 122.5q14 41 30.5 82t29.5 77t21.5 63.5t8.5 42.5q0 29 -32 50t-64 21q-45 0 -139.5 -140t-225.5 -419l-72 -225l-198 8l104 326q10 29 26.5 86t36 128.5t41 150.5t41 149.5t34 126t22.5 80.5h-137z" />
<glyph unicode="&#x12a;" horiz-adv-x="724" d="M-8 33l96 12q47 4 67.5 14.5t22.5 22.5l215 1120q2 12 -13 19.5t-79 15.5l-76 10l-4 33h590l-8 -33l-94 -12q-47 -6 -67.5 -15.5t-23.5 -21.5l-215 -1120q-2 -14 13.5 -20.5t79.5 -14.5l75 -10l4 -33h-589zM268 1440q2 4 4 12q2 6 11 27q6 18 14 41h520l-20 -80h-529z " />
<glyph unicode="&#x12b;" horiz-adv-x="536" d="M221 -27q-16 0 -45 9.5t-56.5 22.5t-48 29.5t-20.5 28.5q0 6 16.5 57.5t41 125t54.5 160t56.5 164t47 138t28.5 80.5l-109 11l-133 -195l-22 17q66 135 142.5 217t141.5 82q20 0 48 -11.5t52.5 -30t41 -40t16.5 -41.5q0 -12 -15.5 -62.5t-39 -120t-52 -150.5t-55 -153.5 t-47 -129t-26.5 -77.5l100 -14l143 182l19 -16q-33 -68 -71 -120t-75 -88t-71.5 -55.5t-61.5 -19.5zM117 1081q2 4 4 13q2 6 10 26q6 18 14 41h521l-21 -80h-528z" />
<glyph unicode="&#x12c;" horiz-adv-x="724" d="M-8 33l96 12q47 4 67.5 14.5t22.5 22.5l215 1120q2 12 -13 19.5t-79 15.5l-76 10l-4 33h590l-8 -33l-94 -12q-47 -6 -67.5 -15.5t-23.5 -21.5l-215 -1120q-2 -14 13.5 -20.5t79.5 -14.5l75 -10l4 -33h-589zM530 1368q-66 0 -106.5 31t-64 82t-33 119.5t-9.5 144.5h31 q20 -119 67.5 -182.5t133.5 -63.5q88 0 158.5 63.5t134.5 182.5h32q-29 -76 -60.5 -144.5t-71.5 -119.5t-92 -82t-120 -31z" />
<glyph unicode="&#x12d;" horiz-adv-x="536" d="M221 -27q-16 0 -45 9.5t-56.5 22.5t-48 29.5t-20.5 28.5q0 6 16.5 57.5t41 125t54.5 160t56.5 164t47 138t28.5 80.5l-109 11l-133 -195l-22 17q66 135 142.5 217t141.5 82q20 0 48 -11.5t52.5 -30t41 -40t16.5 -41.5q0 -12 -15.5 -62.5t-39 -120t-52 -150.5t-55 -153.5 t-47 -129t-26.5 -77.5l100 -14l143 182l19 -16q-33 -68 -71 -120t-75 -88t-71.5 -55.5t-61.5 -19.5zM377 1010q-66 0 -107 30.5t-64.5 82t-32.5 120t-9 143.5h31q20 -119 67 -182t133 -63q88 0 159 63.5t134 181.5h33q-29 -76 -60.5 -144t-71.5 -119.5t-92 -82t-120 -30.5z " />
<glyph unicode="&#x12e;" horiz-adv-x="724" d="M313 -475q-78 4 -120.5 51t-38.5 125q2 53 29.5 100t71.5 86t101.5 68t118.5 45h-489l6 31l96 14q47 4 66.5 14.5t23.5 22.5l215 1120q2 14 -13 21.5t-79 13.5l-76 12l-4 31h590l-6 -31l-96 -14q-47 -4 -66.5 -14.5t-24.5 -22.5l-212 -1120q-4 -14 12 -21.5t78 -13.5 l75 -12l4 -31q-59 -10 -108 -36.5t-86 -61.5t-58.5 -77t-23.5 -85q-2 -57 24.5 -90t82.5 -33q39 -2 65.5 10.5t54.5 32.5l6 -10q-29 -47 -85 -87t-134 -38z" />
<glyph unicode="&#x12f;" horiz-adv-x="536" d="M104 -475q-78 4 -119.5 53t-37.5 127q2 45 23.5 85t56 75t77.5 63.5t89 51.5q-18 2 -44 12t-47.5 22.5t-36 25.5t-14.5 23q0 8 16.5 58.5t41 124t54.5 160t56.5 164t47 138t28.5 80.5l-109 11l-135 -195l-18 17q63 133 141 215t143 82q18 0 46 -11.5t52.5 -29t42 -39 t15.5 -41.5q0 -12 -15.5 -62.5t-39 -120t-52 -150.5t-54 -153.5t-46 -129t-28.5 -77.5l100 -14l143 182l19 -16q-55 -113 -118 -181.5t-114 -94.5q-86 -43 -129 -110t-47 -128q-2 -53 22.5 -88t82.5 -37q39 -2 65.5 10.5t54.5 32.5l7 -10q-29 -47 -85.5 -87t-134.5 -38z M606 1225q-2 -63 -36.5 -106.5t-82.5 -43.5q-53 0 -84.5 35t-31.5 82q0 66 35.5 107.5t82.5 41.5q55 0 86 -33.5t31 -82.5z" />
<glyph unicode="&#x130;" horiz-adv-x="724" d="M-8 33l96 12q47 4 67.5 14.5t22.5 22.5l215 1120q2 12 -13 19.5t-79 15.5l-76 10l-4 33h590l-8 -33l-94 -12q-47 -6 -67.5 -15.5t-23.5 -21.5l-215 -1120q-2 -14 13.5 -20.5t79.5 -14.5l75 -10l4 -33h-589zM567 1440q-59 0 -91 40t-32 85t32 87t91 42q63 0 94 -42t31 -87 t-31 -85t-94 -40z" />
<glyph unicode="&#x131;" horiz-adv-x="536" d="M221 -27q-16 0 -45 9.5t-56.5 22.5t-48 29.5t-20.5 28.5q0 6 16.5 57.5t41 125t54.5 160t56.5 164t47 138t28.5 80.5l-109 11l-133 -195l-22 17q66 135 142.5 217t141.5 82q20 0 48 -11.5t52.5 -30t41 -40t16.5 -41.5q0 -12 -15.5 -62.5t-39 -120t-52 -150.5t-55 -153.5 t-47 -129t-26.5 -77.5l100 -14l143 182l19 -16q-33 -68 -71 -120t-75 -88t-71.5 -55.5t-61.5 -19.5z" />
<glyph unicode="&#x134;" horiz-adv-x="739" d="M594 1757h74l172 -395h-33l-199 223h-6l-299 -223h-27zM-47 -279q-94 0 -146.5 40t-52.5 102q0 51 37 87t92 36q45 0 74 -21.5t40 -55.5t4 -73t-36 -74q80 -8 143.5 85.5t98.5 291.5l207 1063q2 12 -13.5 19.5t-76.5 15.5l-84 10l-2 33h591l-8 -33l-92 -12 q-47 -6 -66.5 -15.5t-21.5 -21.5l-213 -1079q-12 -70 -58 -140.5t-113 -128t-146.5 -93.5t-157.5 -36z" />
<glyph unicode="&#x135;" horiz-adv-x="503" d="M-219 -518q-27 0 -53.5 9t-48 25.5t-35 40t-13.5 54.5q0 41 31 73.5t78 32.5q31 0 55.5 -15t36.5 -41t11 -57.5t-21 -64.5l84 27q41 51 73.5 148.5t79.5 267.5l232 806l-105 11l-139 -195l-18 17q63 135 141 217t143 82q18 0 46 -11.5t52.5 -30t42 -40t17.5 -41.5 q0 -12 -12.5 -59.5t-31.5 -116t-44 -148.5t-49.5 -156.5t-49 -144.5t-40.5 -109q-55 -164 -113.5 -282.5t-136.5 -196.5q-43 -45 -98.5 -73.5t-114.5 -28.5zM408 1399h73l172 -395h-32l-199 223h-6l-299 -223h-27z" />
<glyph unicode="&#x136;" horiz-adv-x="1384" d="M739 -309q-10 -45 -39.5 -87t-75.5 -76t-102.5 -56.5t-118.5 -28.5l-12 18q78 12 133.5 56.5t67.5 105.5q8 39 -5.5 66.5t-36 44t-50 19.5t-47.5 -5q-4 25 6 49.5t30.5 44t50 30.5t68.5 7q74 -8 110.5 -62t20.5 -126zM-23 33l93 12q47 4 64.5 14.5t19.5 22.5l215 1120 q2 12 -11.5 19.5t-74.5 15.5l-70 10l-4 33h584l-9 -33l-100 -12q-84 -8 -90 -37l-115 -616l375 321q123 106 186.5 170t79 98.5t-10.5 48t-81 19.5l-67 8l-3 33h525l-6 -31l-43 -6q-47 -4 -90.5 -21.5t-97.5 -54.5t-125.5 -96t-176.5 -147l-119 -103l269 -626q23 -51 38 -81 t30.5 -45.5t33.5 -21.5t47 -10l49 -4l4 -33h-555l7 33l51 6q61 6 69.5 45t-32.5 149l-185 439l-186 -156l-84 -438q-2 -14 13.5 -21.5t76.5 -13.5l82 -10l4 -33h-586z" />
<glyph unicode="&#x137;" horiz-adv-x="894" d="M451 -309q-10 -45 -40 -87t-76 -76t-102.5 -56.5t-117.5 -28.5l-13 18q78 12 133.5 56.5t67.5 105.5q8 39 -5 66.5t-35.5 44t-50.5 19.5t-48 -5q-4 25 6 49.5t30.5 44t50.5 30.5t68 7q74 -8 111 -62t21 -126zM596 -27q-29 0 -64.5 16.5t-50.5 33.5q-4 98 -15 181 t-26.5 144.5t-34 96t-38.5 34.5q-23 0 -42.5 -11t-19.5 -15l-123 -459l-198 8q2 6 14 45t29.5 90t34 104.5t28.5 86.5q14 45 32.5 108.5t38 136t41 148.5t40.5 149q45 172 92 357q6 16 3 32.5t-13 18.5l-154 20l8 25l391 55l-61 -233q-68 -229 -114 -383t-81 -260 q12 4 27.5 5t26.5 1q43 16 98 41.5t105.5 51.5t88 49.5t46.5 35.5v10q-84 29 -84 115q0 43 35.5 78t82.5 35q51 0 87 -35t36 -86q0 -37 -13 -66.5t-45 -59.5t-88.5 -58.5t-142.5 -61.5l-106 -41q39 -6 71.5 -48t57.5 -103.5t42 -131t24 -131.5l55 -4l131 193l18 -15 q-27 -63 -58.5 -118.5t-67 -96.5t-72.5 -64.5t-72 -23.5z" />
<glyph unicode="&#x139;" horiz-adv-x="1169" d="M682 1759h221l-452 -381h-29zM-23 33l93 12q47 4 64.5 14.5t19.5 22.5l213 1120q4 12 -9.5 19.5t-76.5 15.5l-70 10l-4 33h602l-6 -33l-119 -12q-84 -8 -88 -37l-219 -1151q39 -2 72 -4q29 -2 51 -3t24 -1q102 0 175 18.5t127.5 58.5t98.5 101.5t91 144.5l37 78h47 l-127 -440h-1002z" />
<glyph unicode="&#x13a;" horiz-adv-x="499" d="M561 1790h221l-452 -381h-29zM180 -27q-16 0 -45 10.5t-56.5 25t-46 29.5t-14.5 25l318 1164q4 18 1 33.5t-15 17.5l-152 20l8 25l387 55l-362 -1276l88 -12l143 182l19 -16q-66 -135 -143 -209t-130 -74z" />
<glyph unicode="&#x13b;" horiz-adv-x="1169" d="M635 -309q-10 -45 -40 -87t-76 -76t-102.5 -56.5t-117.5 -28.5l-12 18q78 12 133 56.5t67 105.5q8 39 -5 66.5t-35.5 44t-50 19.5t-48.5 -5q-4 25 6.5 49.5t31 44t50 30.5t68.5 7q74 -8 110.5 -62t20.5 -126zM-23 33l93 12q47 4 64.5 14.5t19.5 22.5l213 1120 q4 12 -9.5 19.5t-76.5 15.5l-70 10l-4 33h602l-6 -33l-119 -12q-84 -8 -88 -37l-219 -1151q39 -2 72 -4q29 -2 51 -3t24 -1q102 0 175 18.5t127.5 58.5t98.5 101.5t91 144.5l37 78h47l-127 -440h-1002z" />
<glyph unicode="&#x13c;" horiz-adv-x="499" d="M250 -309q-10 -45 -40 -87t-76 -76t-102.5 -56.5t-117.5 -28.5l-12 18q78 12 133 56.5t67 105.5q8 39 -5 66.5t-35.5 44t-50 19.5t-48.5 -5q-4 25 6.5 49.5t30.5 44t50 30.5t69 7q74 -8 110.5 -62t20.5 -126zM180 -27q-16 0 -45 10.5t-56.5 25t-46 29.5t-14.5 25 l318 1164q4 18 1 33.5t-15 17.5l-152 20l8 25l387 55l-362 -1276l88 -12l143 182l19 -16q-66 -135 -143 -209t-130 -74z" />
<glyph unicode="&#x13d;" horiz-adv-x="1386" d="M1106 797q94 37 161.5 101.5t67.5 141.5q0 41 -21.5 68t-48 44t-50 24.5t-29.5 11.5q4 45 40 81t95 36q74 0 118 -52.5t44 -124.5q0 -55 -26.5 -108t-74 -99.5t-113 -83t-145.5 -61.5zM-23 33l93 12q47 4 64.5 14.5t19.5 22.5l213 1120q4 12 -9.5 19.5t-76.5 15.5l-70 10 l-4 33h602l-6 -33l-119 -12q-84 -8 -88 -37l-219 -1151q39 -2 72 -4q29 -2 51 -3t24 -1q102 0 175 18.5t127.5 58.5t98.5 101.5t91 144.5l37 78h47l-127 -440h-1002z" />
<glyph unicode="&#x13e;" horiz-adv-x="890" d="M590 879q94 37 161.5 101t67.5 142q0 41 -21.5 68t-48 44t-50 24.5t-29.5 11.5q4 45 39.5 80.5t95.5 35.5q74 0 118 -52t44 -124q0 -55 -27 -108t-74 -99.5t-112.5 -83t-145.5 -61.5zM180 -27q-16 0 -45 10.5t-56.5 25t-46 29.5t-14.5 25l318 1164q4 18 1 33.5t-15 17.5 l-152 20l8 25l387 55l-362 -1276l88 -12l143 182l19 -16q-66 -135 -143 -209t-130 -74z" />
<glyph unicode="&#x13f;" horiz-adv-x="1329" d="M1354 528q-45 -10 -83 11.5t-52 64.5q-14 41 7 82t66 51q43 12 82 -10t53 -63t-8 -82.5t-65 -53.5zM-23 33l93 12q47 4 64.5 14.5t19.5 22.5l213 1120q4 12 -9.5 19.5t-76.5 15.5l-70 10l-4 33h602l-6 -33l-119 -12q-84 -8 -88 -37l-219 -1151q39 -2 72 -4q29 -2 51 -3 t24 -1q102 0 175 18.5t127.5 58.5t98.5 101.5t91 144.5l37 78h47l-127 -440h-1002z" />
<glyph unicode="&#x140;" horiz-adv-x="837" d="M760 510q-45 -10 -83 11.5t-52 64.5q-14 41 7 82t66 51q43 12 82 -10.5t54 -63.5q14 -41 -8.5 -82t-65.5 -53zM180 -27q-16 0 -45 10.5t-56.5 25t-46 29.5t-14.5 25l318 1164q4 18 1 33.5t-15 17.5l-152 20l8 25l387 55l-362 -1276l88 -12l143 182l19 -16 q-66 -135 -143 -209t-130 -74z" />
<glyph unicode="&#x141;" horiz-adv-x="1153" d="M47 467l6 47l195 57l121 631q2 12 -13.5 20.5t-79.5 14.5l-79 10l-4 33h618l-8 -33l-117 -12q-86 -10 -90 -37l-107 -555l222 66l-2 -45l-228 -68l-104 -549l69 -4q27 -2 49.5 -3t26.5 -1q102 0 175 19.5t127.5 59.5t98.5 100.5t91 143.5l35 78h49l-133 -440h-1008l6 33 l100 12q49 4 69 14.5t24 22.5l84 442z" />
<glyph unicode="&#x142;" horiz-adv-x="505" d="M2 446l6 46l172 51l187 684q4 18 1 33.5t-14 17.5l-151 20l6 25l389 55q-35 -123 -72 -254q-33 -113 -71.5 -250t-75.5 -272l151 45v-45l-165 -49l-129 -451l88 -12l143 182l18 -16q-66 -135 -142.5 -209t-129.5 -74q-16 0 -45 12.5t-55.5 29t-45 34t-14.5 29.5l115 418z " />
<glyph unicode="&#x143;" horiz-adv-x="1415" d="M1063 1755h221l-453 -381h-28zM416 1096h-6l-177 -879q-16 -98 7.5 -133t109.5 -43l58 -8l2 -33h-449l6 33l58 8q72 8 108.5 45t50.5 137l181 881q-16 49 -46 86t-96 47l-43 10l-4 33h408l510 -946h6l145 729q8 49 7 81t-13 52.5t-38.5 29.5t-70.5 13l-57 8l-4 33h451 l-7 -33l-57 -8q-72 -6 -109.5 -44t-52.5 -138l-213 -1069h-57z" />
<glyph unicode="&#x144;" horiz-adv-x="1036" d="M719 -27q-16 0 -44 9.5t-55.5 23.5t-48 30.5t-20.5 31.5q0 14 12 51t30.5 88t41 112.5t45.5 122.5q14 41 30.5 82t31 77t22.5 64.5t8 43.5q0 27 -31.5 49t-64.5 22q-45 0 -140.5 -141t-226.5 -420l-69 -225l-197 8l104 328l123 458l-88 11l-135 -195l-20 17 q63 135 139 217t137 82q14 0 40 -11.5t50.5 -29t43 -40t18.5 -42.5q0 -23 -12.5 -74t-32 -116.5t-44 -138.5t-49.5 -136l11 -4q43 86 86 166.5t83 148.5t75.5 118t62.5 77q37 37 80 58.5t80 21.5q70 0 119 -41t49 -91q0 -25 -7.5 -61.5t-20.5 -81.5t-31.5 -97t-39.5 -106 l-127 -338l92 -12l144 182l18 -14q-68 -135 -143.5 -210t-128.5 -75zM799 1401h221l-453 -381h-28z" />
<glyph unicode="&#x145;" horiz-adv-x="1394" d="M741 -309q-10 -45 -39.5 -87t-75.5 -76t-102.5 -56.5t-117.5 -28.5l-13 18q78 12 133.5 56.5t67.5 105.5q8 39 -5.5 66.5t-36 44t-50 19.5t-47.5 -5q-4 25 6 49.5t30.5 44t50 30.5t68.5 7q74 -8 110.5 -62t20.5 -126zM416 1096h-6l-177 -879q-16 -98 7.5 -133t109.5 -43 l58 -8l2 -33h-449l6 33l58 8q72 8 108.5 45t50.5 137l181 881q-16 49 -46 86t-96 47l-43 10l-4 33h408l510 -946h6l145 729q8 49 7 81t-13 52.5t-38.5 29.5t-70.5 13l-57 8l-4 33h451l-7 -33l-57 -8q-72 -6 -109.5 -44t-52.5 -138l-213 -1069h-57z" />
<glyph unicode="&#x146;" horiz-adv-x="1036" d="M719 -27q-16 0 -44 9.5t-55.5 23.5t-48 30.5t-20.5 31.5q0 14 12 51t30.5 88t41 112.5t45.5 122.5q14 41 30.5 82t31 77t22.5 64.5t8 43.5q0 27 -31.5 49t-64.5 22q-45 0 -140.5 -141t-226.5 -420l-69 -225l-197 8l104 328l123 458l-88 11l-135 -195l-20 17 q63 135 139 217t137 82q14 0 40 -11.5t50.5 -29t43 -40t18.5 -42.5q0 -23 -12.5 -74t-32 -116.5t-44 -138.5t-49.5 -136l11 -4q43 86 86 166.5t83 148.5t75.5 118t62.5 77q37 37 80 58.5t80 21.5q70 0 119 -41t49 -91q0 -25 -7.5 -61.5t-20.5 -81.5t-31.5 -97t-39.5 -106 l-127 -338l92 -12l144 182l18 -14q-68 -135 -143.5 -210t-128.5 -75zM526 -309q-10 -45 -39.5 -87t-75.5 -76t-102.5 -56.5t-118.5 -28.5l-12 18q78 12 133.5 56.5t67.5 105.5q8 39 -5.5 66.5t-36 44t-50 19.5t-47.5 -5q-4 25 6 49.5t30.5 44t50 30.5t68.5 7 q74 -8 110.5 -62t20.5 -126z" />
<glyph unicode="&#x147;" horiz-adv-x="1394" d="M657 1757h31l201 -223h6l295 223h31l-320 -395h-74zM416 1096h-6l-177 -879q-16 -98 7.5 -133t109.5 -43l58 -8l2 -33h-449l6 33l58 8q72 8 108.5 45t50.5 137l181 881q-16 49 -46 86t-96 47l-43 10l-4 33h408l510 -946h6l145 729q8 49 7 81t-13 52.5t-38.5 29.5 t-70.5 13l-57 8l-4 33h451l-7 -33l-57 -8q-72 -6 -109.5 -44t-52.5 -138l-213 -1069h-57z" />
<glyph unicode="&#x148;" horiz-adv-x="1036" d="M391 1399h31l201 -223h6l295 223h30l-319 -395h-74zM719 -27q-16 0 -44 9.5t-55.5 23.5t-48 30.5t-20.5 31.5q0 14 12 51t30.5 88t41 112.5t45.5 122.5q14 41 30.5 82t31 77t22.5 64.5t8 43.5q0 27 -31.5 49t-64.5 22q-45 0 -140.5 -141t-226.5 -420l-69 -225l-197 8 l104 328l123 458l-88 11l-135 -195l-20 17q63 135 139 217t137 82q14 0 40 -11.5t50.5 -29t43 -40t18.5 -42.5q0 -23 -12.5 -74t-32 -116.5t-44 -138.5t-49.5 -136l11 -4q43 86 86 166.5t83 148.5t75.5 118t62.5 77q37 37 80 58.5t80 21.5q70 0 119 -41t49 -91 q0 -25 -7.5 -61.5t-20.5 -81.5t-31.5 -97t-39.5 -106l-127 -338l92 -12l144 182l18 -14q-68 -135 -143.5 -210t-128.5 -75z" />
<glyph unicode="&#x14c;" horiz-adv-x="1486" d="M631 1440q2 4 4 12q2 6 10 27q6 18 14 41h521l-21 -80h-528zM735 -29q-141 0 -255.5 48.5t-196.5 132.5t-126 195.5t-44 240.5q0 137 51 267t144 230.5t225.5 161t291.5 60.5q141 0 256 -48.5t197 -132.5t127 -196.5t45 -241.5q0 -143 -53.5 -273t-147.5 -228.5 t-226 -157t-288 -58.5zM719 16q113 0 205 73t156.5 187.5t99 255t34.5 275.5q0 96 -23.5 180t-71.5 145.5t-117.5 96.5t-161.5 35q-119 0 -211 -78t-154.5 -197t-95.5 -259t-33 -265q0 -96 24.5 -178t71.5 -142.5t117 -94.5t160 -34z" />
<glyph unicode="&#x14d;" horiz-adv-x="870" d="M287 1081q2 4 4 13q2 6 10 26q6 18 14 41h521l-21 -80h-528zM354 -27q-72 0 -129 30t-97 82t-62.5 123t-22.5 152q0 98 40 197.5t105.5 179.5t147.5 129t168 49q70 0 129 -29.5t102 -81.5t66.5 -124t23.5 -154q0 -98 -40 -197.5t-106.5 -178t-151.5 -128t-173 -49.5z M334 16q43 0 83 30t73.5 79t61.5 112.5t48 133.5q23 72 33 152.5t10 133.5q0 98 -28.5 156.5t-82.5 58.5q-37 0 -75.5 -33.5t-74.5 -87t-67.5 -123t-52.5 -139.5q-20 -72 -30.5 -141t-10.5 -123q0 -90 30 -149.5t83 -59.5z" />
<glyph unicode="&#x14e;" horiz-adv-x="1486" d="M735 -29q-141 0 -255.5 48.5t-196.5 132.5t-126 195.5t-44 240.5q0 137 51 267t144 230.5t225.5 161t291.5 60.5q141 0 256 -48.5t197 -132.5t127 -196.5t45 -241.5q0 -143 -53.5 -273t-147.5 -228.5t-226 -157t-288 -58.5zM719 16q113 0 205 73t156.5 187.5t99 255 t34.5 275.5q0 96 -23.5 180t-71.5 145.5t-117.5 96.5t-161.5 35q-119 0 -211 -78t-154.5 -197t-95.5 -259t-33 -265q0 -96 24.5 -178t71.5 -142.5t117 -94.5t160 -34zM887 1368q-66 0 -107 31t-64.5 82t-32.5 119.5t-9 144.5h31q20 -119 67 -182.5t133 -63.5q88 0 159 63.5 t134 182.5h33q-29 -76 -60.5 -144.5t-71.5 -119.5t-92 -82t-120 -31z" />
<glyph unicode="&#x14f;" horiz-adv-x="870" d="M354 -27q-72 0 -129 30t-97 82t-62.5 123t-22.5 152q0 98 40 197.5t105.5 179.5t147.5 129t168 49q70 0 129 -29.5t102 -81.5t66.5 -124t23.5 -154q0 -98 -40 -197.5t-106.5 -178t-151.5 -128t-173 -49.5zM334 16q43 0 83 30t73.5 79t61.5 112.5t48 133.5q23 72 33 152.5 t10 133.5q0 98 -28.5 156.5t-82.5 58.5q-37 0 -75.5 -33.5t-74.5 -87t-67.5 -123t-52.5 -139.5q-20 -72 -30.5 -141t-10.5 -123q0 -90 30 -149.5t83 -59.5zM537 1010q-66 0 -107 30.5t-64.5 82t-32.5 120t-9 143.5h30q20 -119 67.5 -182t133.5 -63q88 0 158.5 63.5 t134.5 181.5h33q-29 -76 -61 -144t-71.5 -119.5t-91.5 -82t-120 -30.5z" />
<glyph unicode="&#x150;" horiz-adv-x="1486" d="M1227 1759h203l-435 -381h-28zM891 1759h203l-435 -381h-28zM735 -29q-141 0 -255.5 48.5t-196.5 132.5t-126 195.5t-44 240.5q0 137 51 267t144 230.5t225.5 161t291.5 60.5q141 0 256 -48.5t197 -132.5t127 -196.5t45 -241.5q0 -143 -53.5 -273t-147.5 -228.5 t-226 -157t-288 -58.5zM719 16q113 0 205 73t156.5 187.5t99 255t34.5 275.5q0 96 -23.5 180t-71.5 145.5t-117.5 96.5t-161.5 35q-119 0 -211 -78t-154.5 -197t-95.5 -259t-33 -265q0 -96 24.5 -178t71.5 -142.5t117 -94.5t160 -34z" />
<glyph unicode="&#x151;" horiz-adv-x="870" d="M897 1401h203l-434 -381h-29zM561 1401h203l-434 -381h-29zM354 -27q-72 0 -129 30t-97 82t-62.5 123t-22.5 152q0 98 40 197.5t105.5 179.5t147.5 129t168 49q70 0 129 -29.5t102 -81.5t66.5 -124t23.5 -154q0 -98 -40 -197.5t-106.5 -178t-151.5 -128t-173 -49.5z M334 16q43 0 83 30t73.5 79t61.5 112.5t48 133.5q23 72 33 152.5t10 133.5q0 98 -28.5 156.5t-82.5 58.5q-37 0 -75.5 -33.5t-74.5 -87t-67.5 -123t-52.5 -139.5q-20 -72 -30.5 -141t-10.5 -123q0 -90 30 -149.5t83 -59.5z" />
<glyph unicode="&#x152;" horiz-adv-x="1945" d="M739 0q-172 0 -296 50t-199.5 135t-106.5 199t-16 241q14 137 76.5 255.5t167 208t251 140.5t328.5 51h952l-10 -406h-41l-10 74q-23 78 -47.5 133.5t-68.5 90t-113.5 51t-180.5 16.5l-96 -2l-106 -561l65 2q68 2 117 10t83 24.5t57.5 43t41.5 67.5l27 62l37 -2 l-103 -463l-37 2l7 61q4 45 -5.5 74t-38 45t-78.5 22.5t-126 10.5l-56 2l-112 -590l170 -6q115 0 195.5 21.5t139 61.5t101.5 95t82 123l35 70l47 -2l-131 -410h-1002zM827 41q20 0 45 2l222 1159l-136 39q-123 -2 -224 -47t-177 -127t-124 -198.5t-62 -260.5 q-14 -111 0 -214t62 -181t132 -125t211 -47h51z" />
<glyph unicode="&#x153;" horiz-adv-x="1339" d="M354 -27q-72 0 -129 30t-97 82t-62.5 123t-22.5 152q0 98 39 196.5t103.5 178.5t147.5 130t171 50q96 0 164.5 -52t103.5 -142q70 90 160 144.5t188 54.5q104 0 166 -49.5t62 -127.5q0 -51 -32 -92t-98.5 -75.5t-167 -68.5t-235.5 -73q-16 -66 -16 -131q0 -102 43 -154.5 t123 -52.5q66 0 127 40t139 147l20 -17q-76 -127 -170 -209t-209 -82q-84 0 -141 41t-86 109q-59 -68 -134 -110t-157 -42zM823 467q96 31 163 61.5t109 65.5t60.5 75t18.5 91q0 47 -31 76.5t-70 29.5q-29 0 -50.5 -12t-43.5 -33q-45 -45 -90 -140t-72 -212zM334 16 q43 0 83 30t73.5 79t61.5 112.5t48 133.5q23 72 33 152.5t10 133.5q0 98 -28.5 156.5t-82.5 58.5q-37 0 -75.5 -33.5t-74.5 -87t-67.5 -123t-52.5 -139.5q-20 -72 -30.5 -141t-10.5 -123q0 -90 30 -149.5t83 -59.5z" />
<glyph unicode="&#x154;" horiz-adv-x="1296" d="M879 1759h221l-453 -381h-29zM-37 33l103 12q35 4 60.5 14.5t27.5 22.5l213 1120q4 12 -11.5 20.5t-79.5 14.5l-81 10l-2 33h581q104 0 188.5 -22.5t142.5 -63.5t90 -96.5t32 -122.5q0 -72 -30 -131.5t-84 -104.5t-128 -72.5t-162 -35.5l199 -420q20 -49 39.5 -81 t40 -51.5t45 -28.5t57.5 -13l31 -4l2 -33h-379l-258 627q-16 6 -53 14t-53 18l-113 -581q-2 -12 24.5 -21.5t65.5 -13.5l86 -10l4 -33h-604zM674 668q139 4 225 92t86 235q0 111 -69.5 177.5t-198.5 66.5h-115l-100 -537q18 -6 41.5 -13t47 -11t46.5 -7t37 -3z" />
<glyph unicode="&#x155;" horiz-adv-x="839" d="M711 1401h221l-453 -381h-28zM43 2l104 328l123 461l-88 10l-135 -197l-20 17q63 135 136 217t134 82q14 0 41 -11.5t53.5 -29t45 -40t18.5 -42.5q0 -23 -11.5 -67t-29 -102.5t-40 -124t-46.5 -128.5h12q86 174 149.5 298t116.5 173q35 39 67 58.5t75 17.5 q63 -4 103 -47.5t38 -102.5t-39 -98t-84 -37q-35 2 -58.5 19.5t-32.5 43t-2 56t34 57.5l-25 8l-25 8q-23 -12 -50 -46.5t-66 -99.5t-92.5 -161t-122.5 -231l-84 -297z" />
<glyph unicode="&#x156;" horiz-adv-x="1296" d="M772 -309q-10 -45 -40 -87t-76 -76t-102 -56.5t-118 -28.5l-12 18q78 12 133 56.5t68 105.5q8 39 -5.5 66.5t-36 44t-50 19.5t-48.5 -5q-4 25 6.5 49.5t31 44t50 30.5t68.5 7q74 -8 110.5 -62t20.5 -126zM-37 33l103 12q35 4 60.5 14.5t27.5 22.5l213 1120 q4 12 -11.5 20.5t-79.5 14.5l-81 10l-2 33h581q104 0 188.5 -22.5t142.5 -63.5t90 -96.5t32 -122.5q0 -72 -30 -131.5t-84 -104.5t-128 -72.5t-162 -35.5l199 -420q20 -49 39.5 -81t40 -51.5t45 -28.5t57.5 -13l31 -4l2 -33h-379l-258 627q-16 6 -53 14t-53 18l-113 -581 q-2 -12 24.5 -21.5t65.5 -13.5l86 -10l4 -33h-604zM674 668q139 4 225 92t86 235q0 111 -69.5 177.5t-198.5 66.5h-115l-100 -537q18 -6 41.5 -13t47 -11t46.5 -7t37 -3z" />
<glyph unicode="&#x157;" horiz-adv-x="839" d="M258 -309q-10 -45 -40 -87t-76 -76t-102 -56.5t-118 -28.5l-12 18q78 12 133 56.5t68 105.5q8 39 -5.5 66.5t-36 44t-50 19.5t-48.5 -5q-4 25 6.5 49.5t31 44t50 30.5t68.5 7q74 -8 110.5 -62t20.5 -126zM43 2l104 328l123 461l-88 10l-135 -197l-20 17q63 135 136 217 t134 82q14 0 41 -11.5t53.5 -29t45 -40t18.5 -42.5q0 -23 -11.5 -67t-29 -102.5t-40 -124t-46.5 -128.5h12q86 174 149.5 298t116.5 173q35 39 67 58.5t75 17.5q63 -4 103 -47.5t38 -102.5t-39 -98t-84 -37q-35 2 -58.5 19.5t-32.5 43t-2 56t34 57.5l-25 8l-25 8 q-23 -12 -50 -46.5t-66 -99.5t-92.5 -161t-122.5 -231l-84 -297z" />
<glyph unicode="&#x158;" horiz-adv-x="1296" d="M518 1757h31l201 -223h6l295 223h30l-319 -395h-74zM-37 33l103 12q35 4 60.5 14.5t27.5 22.5l213 1120q4 12 -11.5 20.5t-79.5 14.5l-81 10l-2 33h581q104 0 188.5 -22.5t142.5 -63.5t90 -96.5t32 -122.5q0 -72 -30 -131.5t-84 -104.5t-128 -72.5t-162 -35.5l199 -420 q20 -49 39.5 -81t40 -51.5t45 -28.5t57.5 -13l31 -4l2 -33h-379l-258 627q-16 6 -53 14t-53 18l-113 -581q-2 -12 24.5 -21.5t65.5 -13.5l86 -10l4 -33h-604zM674 668q139 4 225 92t86 235q0 111 -69.5 177.5t-198.5 66.5h-115l-100 -537q18 -6 41.5 -13t47 -11t46.5 -7 t37 -3z" />
<glyph unicode="&#x159;" horiz-adv-x="839" d="M322 1399h30l201 -223h6l295 223h31l-320 -395h-73zM43 2l104 328l123 461l-88 10l-135 -197l-20 17q63 135 136 217t134 82q14 0 41 -11.5t53.5 -29t45 -40t18.5 -42.5q0 -23 -11.5 -67t-29 -102.5t-40 -124t-46.5 -128.5h12q86 174 149.5 298t116.5 173q35 39 67 58.5 t75 17.5q63 -4 103 -47.5t38 -102.5t-39 -98t-84 -37q-35 2 -58.5 19.5t-32.5 43t-2 56t34 57.5l-25 8l-25 8q-23 -12 -50 -46.5t-66 -99.5t-92.5 -161t-122.5 -231l-84 -297z" />
<glyph unicode="&#x15a;" horiz-adv-x="1042" d="M795 1759h221l-453 -381h-28zM465 -27q-147 0 -259 34t-177 69l45 332h39l45 -191q39 -100 117.5 -150.5t191.5 -50.5q63 0 115.5 21.5t90.5 58.5t58.5 87t20.5 106q0 98 -73 164.5t-185 126.5q-63 35 -117.5 72.5t-94.5 81.5t-62.5 97.5t-22.5 118.5q0 68 31.5 132.5 t88 114.5t134 80t170.5 30q98 0 174.5 -20.5t144.5 -47.5l98 25l-63 -361l-37 2l-80 275q-41 33 -99.5 57.5t-131.5 24.5q-49 0 -93.5 -16.5t-77 -44t-52 -67.5t-19.5 -85q0 -96 63.5 -158t190.5 -127q66 -37 122 -75t98 -84t65.5 -101t23.5 -125q0 -78 -34.5 -150.5 t-98 -130t-152.5 -91.5t-198 -34z" />
<glyph unicode="&#x15b;" horiz-adv-x="698" d="M604 1401h221l-452 -381h-29zM258 -27q-53 0 -103.5 11.5t-89 34t-62 56.5t-23.5 79q0 49 31.5 83.5t82.5 34.5q39 0 64.5 -28.5t25.5 -67.5q0 -27 -15 -52.5t-34 -41.5q10 -10 29.5 -21.5t44 -21.5t50.5 -18.5t50 -8.5q33 2 58.5 19.5t43 41t28 51.5t10.5 50 q0 31 -14.5 57.5t-38 53t-52.5 52t-57 52.5q-35 33 -66 64.5t-54.5 63.5t-35.5 65.5t-12 72.5q2 59 30.5 108.5t73.5 83.5t101.5 52.5t113.5 18.5q49 0 95.5 -9.5t81 -30t56 -52t21.5 -76.5q0 -53 -30.5 -84t-77.5 -31q-41 0 -69 29.5t-28 68.5q0 29 16.5 52.5t35.5 37.5 q-23 12 -55.5 31.5t-80.5 22.5q-31 -2 -55 -17.5t-40.5 -38t-26 -48t-9.5 -46.5q0 -29 14.5 -55.5t36 -52t49 -51t54.5 -52.5q29 -29 60.5 -59.5t57 -64.5t42 -70.5t16.5 -79.5q-2 -59 -32.5 -108.5t-80 -84.5t-110 -55.5t-121.5 -20.5z" />
<glyph unicode="&#x15c;" horiz-adv-x="1042" d="M696 1757h74l172 -395h-33l-198 223h-6l-299 -223h-27zM465 -27q-147 0 -259 34t-177 69l45 332h39l45 -191q39 -100 117.5 -150.5t191.5 -50.5q63 0 115.5 21.5t90.5 58.5t58.5 87t20.5 106q0 98 -73 164.5t-185 126.5q-63 35 -117.5 72.5t-94.5 81.5t-62.5 97.5 t-22.5 118.5q0 68 31.5 132.5t88 114.5t134 80t170.5 30q98 0 174.5 -20.5t144.5 -47.5l98 25l-63 -361l-37 2l-80 275q-41 33 -99.5 57.5t-131.5 24.5q-49 0 -93.5 -16.5t-77 -44t-52 -67.5t-19.5 -85q0 -96 63.5 -158t190.5 -127q66 -37 122 -75t98 -84t65.5 -101 t23.5 -125q0 -78 -34.5 -150.5t-98 -130t-152.5 -91.5t-198 -34z" />
<glyph unicode="&#x15d;" horiz-adv-x="698" d="M489 1399h74l172 -395h-33l-198 223h-6l-299 -223h-27zM258 -27q-53 0 -103.5 11.5t-89 34t-62 56.5t-23.5 79q0 49 31.5 83.5t82.5 34.5q39 0 64.5 -28.5t25.5 -67.5q0 -27 -15 -52.5t-34 -41.5q10 -10 29.5 -21.5t44 -21.5t50.5 -18.5t50 -8.5q33 2 58.5 19.5t43 41 t28 51.5t10.5 50q0 31 -14.5 57.5t-38 53t-52.5 52t-57 52.5q-35 33 -66 64.5t-54.5 63.5t-35.5 65.5t-12 72.5q2 59 30.5 108.5t73.5 83.5t101.5 52.5t113.5 18.5q49 0 95.5 -9.5t81 -30t56 -52t21.5 -76.5q0 -53 -30.5 -84t-77.5 -31q-41 0 -69 29.5t-28 68.5 q0 29 16.5 52.5t35.5 37.5q-23 12 -55.5 31.5t-80.5 22.5q-31 -2 -55 -17.5t-40.5 -38t-26 -48t-9.5 -46.5q0 -29 14.5 -55.5t36 -52t49 -51t54.5 -52.5q29 -29 60.5 -59.5t57 -64.5t42 -70.5t16.5 -79.5q-2 -59 -32.5 -108.5t-80 -84.5t-110 -55.5t-121.5 -20.5z" />
<glyph unicode="&#x15e;" horiz-adv-x="1042" d="M182 -512q184 16 264 61t80 117q0 55 -52 79t-124 24q-59 0 -114 -13l4 25l217 192q-143 2 -253 35t-175 68l45 332h39l45 -191q39 -100 117.5 -150.5t191.5 -50.5q63 0 115.5 21.5t90.5 58.5t58.5 87t20.5 106q0 98 -73 164.5t-185 126.5q-63 35 -117.5 72.5t-94.5 81.5 t-62.5 97.5t-22.5 118.5q0 68 31.5 132.5t88 114.5t134 80t170.5 30q98 0 174.5 -20.5t144.5 -47.5l98 25l-63 -361l-37 2l-80 275q-41 33 -99.5 57.5t-131.5 24.5q-49 0 -93.5 -16.5t-77 -44t-52 -67.5t-19.5 -85q0 -96 63.5 -158t190.5 -127q66 -37 122 -75t98 -84 t65.5 -101t23.5 -125q0 -74 -31.5 -144.5t-90 -126t-140.5 -91t-182 -42.5l-111 -102q119 6 196 -39t77 -123q0 -66 -40 -110.5t-106.5 -73.5t-153.5 -44t-182 -18z" />
<glyph unicode="&#x15f;" horiz-adv-x="698" d="M-37 -512q184 16 264 61t80 117q0 55 -52 79t-124 24q-59 0 -115 -13l4 25l218 192q-51 2 -97.5 14.5t-82 35t-57 55.5t-21.5 76q0 49 31.5 83.5t82.5 34.5q39 0 64.5 -28.5t25.5 -67.5q0 -27 -15 -52.5t-34 -41.5q10 -10 29.5 -21.5t44 -21.5t50.5 -18.5t50 -8.5 q33 2 58.5 19.5t43 41t28 51.5t10.5 50q0 31 -14.5 57.5t-38 53t-52.5 52t-57 52.5q-35 33 -66 64.5t-54.5 63.5t-35.5 65.5t-12 72.5q2 59 30.5 108.5t73.5 83.5t101.5 52.5t113.5 18.5q49 0 95.5 -9.5t81 -30t56 -52t21.5 -76.5q0 -53 -30.5 -84t-77.5 -31q-41 0 -69 29.5 t-28 68.5q0 29 16.5 52.5t35.5 37.5q-23 12 -55.5 31.5t-80.5 22.5q-31 -2 -55 -17.5t-40.5 -38t-26 -48t-9.5 -46.5q0 -29 14.5 -55.5t36 -52t49 -51t54.5 -52.5q29 -29 60.5 -59.5t57 -64.5t42 -70.5t16.5 -79.5q-2 -55 -29.5 -102.5t-71.5 -82t-100.5 -56t-113.5 -26.5 l-113 -102q119 6 195.5 -39t76.5 -123q0 -66 -39.5 -110.5t-106.5 -73.5t-154 -44t-181 -18z" />
<glyph unicode="&#x160;" horiz-adv-x="1040" d="M465 -27q-147 0 -259 34t-177 69l45 332h39l45 -191q39 -100 117.5 -150.5t191.5 -50.5q63 0 115.5 21.5t90.5 58.5t58.5 87t20.5 106q0 98 -73 164.5t-185 126.5q-63 35 -117.5 72.5t-94.5 81.5t-62.5 97.5t-22.5 118.5q0 68 31.5 132.5t88 114.5t134 80t170.5 30 q98 0 174.5 -20.5t144.5 -47.5l98 25l-63 -361l-37 2l-80 275q-41 33 -99.5 57.5t-131.5 24.5q-49 0 -93.5 -16.5t-77 -44t-52 -67.5t-19.5 -85q0 -96 63.5 -158t190.5 -127q66 -37 122 -75t98 -84t65.5 -101t23.5 -125q0 -78 -34.5 -150.5t-98 -130t-152.5 -91.5t-198 -34z M469 1745h31l200 -223h7l294 223h31l-319 -395h-74z" />
<glyph unicode="&#x161;" horiz-adv-x="696" d="M258 -27q-53 0 -103.5 11.5t-89 34t-62 56.5t-23.5 79q0 49 31.5 83.5t82.5 34.5q39 0 64.5 -28.5t25.5 -67.5q0 -27 -15 -52.5t-34 -41.5q10 -10 29.5 -21.5t44 -21.5t50.5 -18.5t50 -8.5q33 2 58.5 19.5t43 41t28 51.5t10.5 50q0 31 -14.5 57.5t-38 53t-52.5 52 t-57 52.5q-35 33 -66 64.5t-54.5 63.5t-35.5 65.5t-12 72.5q2 59 30.5 108.5t73.5 83.5t101.5 52.5t113.5 18.5q49 0 95.5 -9.5t81 -30t56 -52t21.5 -76.5q0 -53 -30.5 -84t-77.5 -31q-41 0 -69 29.5t-28 68.5q0 29 16.5 52.5t35.5 37.5q-23 12 -55.5 31.5t-80.5 22.5 q-31 -2 -55 -17.5t-40.5 -38t-26 -48t-9.5 -46.5q0 -29 14.5 -55.5t36 -52t49 -51t54.5 -52.5q29 -29 60.5 -59.5t57 -64.5t42 -70.5t16.5 -79.5q-2 -59 -32.5 -108.5t-80 -84.5t-110 -55.5t-121.5 -20.5zM285 1399h30l201 -223h6l295 223h31l-320 -395h-73z" />
<glyph unicode="&#x162;" horiz-adv-x="1341" d="M690 -309q-10 -45 -39.5 -87t-76 -76t-102.5 -56.5t-118 -28.5l-12 18q78 12 133 56.5t68 105.5q8 39 -5.5 66.5t-36 44t-50 19.5t-48.5 -5q-4 25 6.5 49.5t31 44t50 30.5t68.5 7q74 -8 110.5 -62t20.5 -126zM285 33l112 12q47 4 66.5 14.5t21.5 22.5l220 1159h-64 q-74 -4 -135.5 -27.5t-111.5 -61.5t-89 -87t-69 -100l-37 -80h-47l114 395h1129l-52 -395h-38l-13 76q-10 66 -30.5 116.5t-56.5 86.5t-87 55.5t-125 21.5h-59l-221 -1163q-2 -12 13 -20.5t77 -14.5l90 -10l4 -33h-618z" />
<glyph unicode="&#x163;" horiz-adv-x="610" d="M305 -311q-10 -45 -39.5 -87t-76 -76t-102.5 -56.5t-118 -28.5l-12 18q78 12 133 56.5t68 105.5q8 39 -5.5 66.5t-36 44t-50 19.5t-48.5 -5q-4 25 6.5 49.5t31 44t50 30.5t68.5 7q74 -8 110.5 -62t20.5 -126zM244 -27q-20 0 -55 9.5t-69 21.5t-57.5 27.5t-21.5 27.5 q0 2 14.5 55.5t36 133.5t46 173t47 174t38 136t17.5 62l-162 6l26 78l164 22l74 262h190l-73 -272h198l-4 -90h-219l-209 -695l129 -14l140 182l18 -16q-66 -135 -138.5 -209t-129.5 -74z" />
<glyph unicode="&#x164;" horiz-adv-x="1341" d="M631 1757h31l200 -223h6l295 223h31l-320 -395h-73zM285 33l112 12q47 4 66.5 14.5t21.5 22.5l220 1159h-64q-74 -4 -135.5 -27.5t-111.5 -61.5t-89 -87t-69 -100l-37 -80h-47l114 395h1129l-52 -395h-38l-13 76q-10 66 -30.5 116.5t-56.5 86.5t-87 55.5t-125 21.5h-59 l-221 -1163q-2 -12 13 -20.5t77 -14.5l90 -10l4 -33h-618z" />
<glyph unicode="&#x165;" horiz-adv-x="829" d="M575 981q76 29 130.5 81t54.5 114q0 33 -17.5 54t-39 35.5t-41 20.5t-23.5 8q4 35 32.5 63.5t76.5 28.5q59 0 94 -40.5t35 -98.5q0 -92 -79 -167.5t-208 -114.5zM244 -27q-20 0 -55 9.5t-69 21.5t-57.5 27.5t-21.5 27.5q0 2 14.5 55.5t36 133.5t46 173t47 174t38 136 t17.5 62l-162 6l26 78l164 22l74 262h190l-73 -272h198l-4 -90h-219l-209 -695l129 -14l140 182l18 -16q-66 -135 -138.5 -209t-129.5 -74z" />
<glyph unicode="&#x16a;" horiz-adv-x="1417" d="M713 -33q-111 0 -204 21.5t-160.5 66.5t-105.5 114t-38 163q0 37 5 80t15 86l66 352q12 66 23.5 129t21.5 113q10 57 22 110q2 12 -12 20.5t-78 14.5l-80 10l-4 33h600l-8 -33l-100 -12q-47 -4 -66.5 -14.5t-23.5 -22.5l-131 -686q-8 -43 -12.5 -83t-4.5 -77 q0 -156 92.5 -227.5t253.5 -71.5q147 0 240.5 90t132.5 293l125 627q8 49 7 81t-14 51t-39 29.5t-69 14.5l-57 8l-4 33h450l-8 -33l-55 -8q-37 -4 -63.5 -14.5t-45 -30.5t-31 -53t-20.5 -84l-129 -635q-43 -223 -161.5 -339t-329.5 -116zM686 1440q2 4 4 12q2 6 10 27 q6 18 15 41h520l-21 -80h-528z" />
<glyph unicode="&#x16b;" horiz-adv-x="1036" d="M729 -29q-14 0 -38.5 11.5t-48.5 30t-41 41t-17 42.5t12 72.5t30.5 119t43 139.5t49.5 136l-10 2q-43 -86 -86 -167t-83 -148.5t-75 -118.5t-62 -78q-37 -35 -80.5 -56.5t-78.5 -21.5t-66 11.5t-54.5 30t-36.5 42t-13 47.5q0 25 8 62t21.5 82t31 96t37.5 105l125 337 l-92 13l-137 -197l-21 14q33 68 69 124.5t71.5 95.5t69.5 60.5t60 21.5q14 0 43 -10.5t56.5 -26t48 -31.5t20.5 -31q0 -14 -12 -51t-30.5 -87t-41 -110.5t-45.5 -121.5q-16 -41 -31.5 -83t-28.5 -78t-21.5 -63.5t-8.5 -42.5q0 -27 31 -50t65 -23q43 0 138.5 141t228.5 420 l70 227l196 -8l-104 -328l-62 -225q-12 -43 -23 -84t-20.5 -75t-15.5 -55.5t-6 -23.5l88 -12l139 182l19 -14q-66 -135 -142 -210t-139 -75zM387 1081q2 4 4 13q2 6 10 26q6 18 15 41h520l-21 -80h-528z" />
<glyph unicode="&#x16c;" horiz-adv-x="1417" d="M713 -33q-111 0 -204 21.5t-160.5 66.5t-105.5 114t-38 163q0 37 5 80t15 86l66 352q12 66 23.5 129t21.5 113q10 57 22 110q2 12 -12 20.5t-78 14.5l-80 10l-4 33h600l-8 -33l-100 -12q-47 -4 -66.5 -14.5t-23.5 -22.5l-131 -686q-8 -43 -12.5 -83t-4.5 -77 q0 -156 92.5 -227.5t253.5 -71.5q147 0 240.5 90t132.5 293l125 627q8 49 7 81t-14 51t-39 29.5t-69 14.5l-57 8l-4 33h450l-8 -33l-55 -8q-37 -4 -63.5 -14.5t-45 -30.5t-31 -53t-20.5 -84l-129 -635q-43 -223 -161.5 -339t-329.5 -116zM942 1368q-66 0 -106.5 31t-64 82 t-33 119.5t-9.5 144.5h31q20 -119 67 -182.5t134 -63.5q88 0 158.5 63.5t133.5 182.5h33q-29 -76 -60.5 -144.5t-71.5 -119.5t-92 -82t-120 -31z" />
<glyph unicode="&#x16d;" horiz-adv-x="1036" d="M729 -29q-14 0 -38.5 11.5t-48.5 30t-41 41t-17 42.5t12 72.5t30.5 119t43 139.5t49.5 136l-10 2q-43 -86 -86 -167t-83 -148.5t-75 -118.5t-62 -78q-37 -35 -80.5 -56.5t-78.5 -21.5t-66 11.5t-54.5 30t-36.5 42t-13 47.5q0 25 8 62t21.5 82t31 96t37.5 105l125 337 l-92 13l-137 -197l-21 14q33 68 69 124.5t71.5 95.5t69.5 60.5t60 21.5q14 0 43 -10.5t56.5 -26t48 -31.5t20.5 -31q0 -14 -12 -51t-30.5 -87t-41 -110.5t-45.5 -121.5q-16 -41 -31.5 -83t-28.5 -78t-21.5 -63.5t-8.5 -42.5q0 -27 31 -50t65 -23q43 0 138.5 141t228.5 420 l70 227l196 -8l-104 -328l-62 -225q-12 -43 -23 -84t-20.5 -75t-15.5 -55.5t-6 -23.5l88 -12l139 182l19 -14q-66 -135 -142 -210t-139 -75zM637 1010q-66 0 -107 30.5t-64.5 82t-32.5 120t-9 143.5h31q20 -119 67 -182t133 -63q88 0 159 63.5t134 181.5h33 q-29 -76 -60.5 -144t-71.5 -119.5t-92 -82t-120 -30.5z" />
<glyph unicode="&#x16e;" horiz-adv-x="1417" d="M950 1389q-86 0 -136 55t-50 133q0 76 50 131t136 55t135.5 -55t49.5 -131q0 -78 -49.5 -133t-135.5 -55zM950 1419q72 0 112 47t40 111q0 61 -40 108.5t-112 47.5t-111.5 -47.5t-39.5 -108.5q0 -63 39.5 -110.5t111.5 -47.5zM713 -33q-111 0 -204 21.5t-160.5 66.5 t-105.5 114t-38 163q0 37 5 80t15 86l66 352q12 66 23.5 129t21.5 113q10 57 22 110q2 12 -12 20.5t-78 14.5l-80 10l-4 33h600l-8 -33l-100 -12q-47 -4 -66.5 -14.5t-23.5 -22.5l-131 -686q-8 -43 -12.5 -83t-4.5 -77q0 -156 92.5 -227.5t253.5 -71.5q147 0 240.5 90 t132.5 293l125 627q8 49 7 81t-14 51t-39 29.5t-69 14.5l-57 8l-4 33h450l-8 -33l-55 -8q-37 -4 -63.5 -14.5t-45 -30.5t-31 -53t-20.5 -84l-129 -635q-43 -223 -161.5 -339t-329.5 -116z" />
<glyph unicode="&#x16f;" horiz-adv-x="1036" d="M729 -29q-14 0 -38.5 11.5t-48.5 30t-41 41t-17 42.5t12 72.5t30.5 119t43 139.5t49.5 136l-10 2q-43 -86 -86 -167t-83 -148.5t-75 -118.5t-62 -78q-37 -35 -80.5 -56.5t-78.5 -21.5t-66 11.5t-54.5 30t-36.5 42t-13 47.5q0 25 8 62t21.5 82t31 96t37.5 105l125 337 l-92 13l-137 -197l-21 14q33 68 69 124.5t71.5 95.5t69.5 60.5t60 21.5q14 0 43 -10.5t56.5 -26t48 -31.5t20.5 -31q0 -14 -12 -51t-30.5 -87t-41 -110.5t-45.5 -121.5q-16 -41 -31.5 -83t-28.5 -78t-21.5 -63.5t-8.5 -42.5q0 -27 31 -50t65 -23q43 0 138.5 141t228.5 420 l70 227l196 -8l-104 -328l-62 -225q-12 -43 -23 -84t-20.5 -75t-15.5 -55.5t-6 -23.5l88 -12l139 182l19 -14q-66 -135 -142 -210t-139 -75zM645 1022q-86 0 -136 55.5t-50 132.5q0 76 50 131.5t136 55.5t135 -55.5t49 -131.5q0 -78 -49 -133t-135 -55zM645 1053 q72 0 112 47t40 110q0 61 -40 108.5t-112 47.5t-111.5 -47t-39.5 -109q0 -63 39.5 -110t111.5 -47z" />
<glyph unicode="&#x170;" horiz-adv-x="1417" d="M713 -33q-111 0 -204 21.5t-160.5 66.5t-105.5 114t-38 163q0 37 5 80t15 86l66 352q12 66 23.5 129t21.5 113q10 57 22 110q2 12 -12 20.5t-78 14.5l-80 10l-4 33h600l-8 -33l-100 -12q-47 -4 -66.5 -14.5t-23.5 -22.5l-131 -686q-8 -43 -12.5 -83t-4.5 -77 q0 -156 92.5 -227.5t253.5 -71.5q147 0 240.5 90t132.5 293l125 627q8 49 7 81t-14 51t-39 29.5t-69 14.5l-57 8l-4 33h450l-8 -33l-55 -8q-37 -4 -63.5 -14.5t-45 -30.5t-31 -53t-20.5 -84l-129 -635q-43 -223 -161.5 -339t-329.5 -116zM1253 1759h203l-434 -381h-29z M918 1759h202l-434 -381h-29z" />
<glyph unicode="&#x171;" horiz-adv-x="1036" d="M729 -29q-14 0 -38.5 11.5t-48.5 30t-41 41t-17 42.5t12 72.5t30.5 119t43 139.5t49.5 136l-10 2q-43 -86 -86 -167t-83 -148.5t-75 -118.5t-62 -78q-37 -35 -80.5 -56.5t-78.5 -21.5t-66 11.5t-54.5 30t-36.5 42t-13 47.5q0 25 8 62t21.5 82t31 96t37.5 105l125 337 l-92 13l-137 -197l-21 14q33 68 69 124.5t71.5 95.5t69.5 60.5t60 21.5q14 0 43 -10.5t56.5 -26t48 -31.5t20.5 -31q0 -14 -12 -51t-30.5 -87t-41 -110.5t-45.5 -121.5q-16 -41 -31.5 -83t-28.5 -78t-21.5 -63.5t-8.5 -42.5q0 -27 31 -50t65 -23q43 0 138.5 141t228.5 420 l70 227l196 -8l-104 -328l-62 -225q-12 -43 -23 -84t-20.5 -75t-15.5 -55.5t-6 -23.5l88 -12l139 182l19 -14q-66 -135 -142 -210t-139 -75zM653 1401h203l-434 -381h-29zM989 1401h203l-434 -381h-29z" />
<glyph unicode="&#x172;" horiz-adv-x="1417" d="M719 -475q-78 4 -121 51t-39 125q2 45 24.5 85t58.5 75t81 62.5t92 49.5q-16 -4 -48 -5t-52 -1q-111 0 -204 21.5t-161.5 66.5t-106.5 114t-38 163q0 37 5 80t15 86l66 352q12 66 23.5 129t21.5 113q10 57 22 110q2 14 -12 21.5t-78 13.5l-80 12l-4 31h600l-8 -31 l-100 -14q-47 -4 -66.5 -14.5t-21.5 -22.5l-131 -688q-18 -84 -19 -160q0 -154 92.5 -225.5t253.5 -71.5q147 0 240.5 90t132.5 293l125 627q8 49 7 81t-14 52.5t-40 30.5t-70 14l-55 8l-4 31h450l-8 -31l-55 -8q-35 -4 -61.5 -14t-46 -31.5t-32 -54.5t-20.5 -84l-129 -633 q-35 -172 -106.5 -272.5t-190.5 -161.5q-90 -45 -144 -114t-58 -136q-4 -55 22.5 -88t83.5 -35q39 -2 65.5 10.5t55.5 32.5l6 -10q-14 -23 -35.5 -45.5t-50.5 -41t-62.5 -28.5t-70.5 -10z" />
<glyph unicode="&#x173;" horiz-adv-x="1036" d="M623 -475q-78 4 -121 53t-37 127q2 45 23.5 85t56.5 74t78 61.5t90 49.5q-18 2 -40 14.5t-42.5 31t-33.5 38t-13 37.5q0 23 12 74t31.5 117.5t44 139.5t49.5 136l-12 2q-43 -86 -86 -167t-83 -148.5t-75 -118.5t-62 -78q-37 -35 -80.5 -56.5t-78.5 -21.5t-66 11.5 t-54.5 30t-36.5 42t-13 47.5q0 25 8 62t21.5 82t31 97t37.5 106q16 45 37.5 100t40 106.5t32 87t15.5 41.5l-92 11l-139 -197l-19 16q33 68 69 124.5t71.5 95.5t69.5 60.5t60 21.5q14 0 43 -10.5t56.5 -26t48 -32.5t20.5 -30q0 -14 -11 -51t-29.5 -87t-42 -111.5 t-46.5 -122.5q-14 -41 -30.5 -82t-29.5 -77t-21.5 -63.5t-8.5 -42.5q0 -27 32 -49t64 -22q45 0 139.5 140t227.5 419l70 227l198 -10l-106 -326q-33 -127 -60 -225q-12 -43 -23 -84t-20.5 -74t-15.5 -54.5t-6 -23.5l88 -14l139 184l19 -16q-53 -111 -111.5 -178.5 t-114.5 -95.5q-86 -47 -129 -112t-47 -128q-4 -53 20.5 -88t84.5 -37q39 -2 64.5 10.5t54.5 32.5l8 -10q-29 -47 -86 -87t-133 -38z" />
<glyph unicode="&#x174;" horiz-adv-x="1976" d="M1217 1757h73l172 -395h-32l-199 223h-6l-299 -223h-27zM330 1040q-10 61 -18.5 98.5t-20.5 59t-32.5 29.5t-53.5 12l-66 8l-2 33h588l-8 -33l-74 -6q-70 -4 -86 -31.5t-2 -107.5l131 -850h8l385 700l-14 88q-10 59 -19.5 96.5t-21.5 59t-32.5 30.5t-53.5 13l-68 8l-4 33 h592l-8 -33l-74 -6q-74 -4 -89 -32.5t-3 -112.5l125 -840l6 -2l361 707q45 80 68.5 131t22.5 81.5t-30 45t-90 20.5l-51 8l-4 33h458l-8 -33l-43 -10q-41 -6 -70.5 -18.5t-59.5 -43t-64.5 -87t-85.5 -150.5l-506 -961h-76l-139 897h-6l-504 -897h-74z" />
<glyph unicode="&#x175;" horiz-adv-x="1323" d="M844 1399h74l172 -395h-33l-199 223h-6l-299 -223h-27zM238 -27q-35 0 -66 13.5t-53.5 36t-36.5 54.5t-14 66q0 53 35.5 134t84 166t97.5 164t75 132l-208 37l-111 -162l-18 17q63 135 125.5 214t117.5 79q18 0 53 -4.5t69 -12.5t59.5 -17t25.5 -18q-2 -16 -19.5 -56 t-42 -92t-53 -114.5t-53 -123t-41 -116t-16.5 -96.5t13 -66.5t31.5 -40.5t40 -21.5t40.5 -6.5q23 0 55.5 28t68 73t74.5 102t75 116.5t66.5 115t51.5 98.5q0 2 -17.5 9t-40 22.5t-41 40t-18.5 59.5q0 51 34 83t83 32q47 0 82 -34t35 -87q0 -39 -14.5 -67t-36 -56.5 t-47 -64.5t-46.5 -87q-23 -61 -33 -107t-10 -93q0 -53 16.5 -88t40 -56.5t52 -30t53.5 -8.5q29 0 63.5 28t68.5 74t64.5 105.5t54 121.5t37 121.5t13.5 108.5q-20 -8 -47 -4t-49.5 18.5t-38.5 37t-16 51.5q0 47 32.5 84t79.5 37q53 0 91 -40t38 -108q0 -55 -21.5 -135 t-57 -166t-84 -169t-101.5 -144q-61 -86 -118.5 -136.5t-110.5 -50.5q-35 0 -62.5 16.5t-47 41t-30 55.5t-10.5 59q0 47 25.5 132t66.5 192q-63 -109 -122.5 -200t-117 -156.5t-112.5 -102.5t-106 -37z" />
<glyph unicode="&#x176;" horiz-adv-x="1277" d="M256 33l111 12q47 4 67.5 14.5t22.5 22.5l94 483l-201 516q-16 43 -30.5 72t-31 46.5t-37 25.5t-48.5 12l-56 10l-2 33h586l-8 -33l-53 -4q-84 -8 -96.5 -44t18.5 -116l162 -448l8 -2l242 338q59 82 91.5 131t36 76.5t-23.5 40t-84 20.5l-55 8l-4 33h458l-8 -33l-53 -8 q-35 -4 -64.5 -17.5t-63.5 -44t-77 -83t-104 -133.5l-273 -377l-98 -506q-2 -12 14.5 -20.5t77.5 -14.5l90 -10l2 -33h-618zM872 1757h74l172 -395h-33l-198 223h-6l-299 -223h-27z" />
<glyph unicode="&#x177;" horiz-adv-x="899" d="M-70 -416q-88 0 -136 39t-48 103q0 49 35 79.5t78 30.5q31 0 56.5 -14.5t40.5 -38t16 -55t-15 -68.5l66 -18q33 8 78.5 35.5t94 64.5t93.5 77t76 70q2 174 -10.5 339t-34 293t-52 206t-63.5 78l-37 2l-129 -203l-21 17q31 68 59.5 123t59.5 94t67 60.5t81 21.5 q70 0 115.5 -38t73.5 -132.5t41 -255t15 -404.5q0 -2 5 -2h6q39 59 83 147.5t81.5 180.5t63.5 176t28 135q-33 -20 -65 -18t-56.5 16t-41 36.5t-16.5 47.5q-2 47 29 83t84 36t93 -41t40 -117q0 -90 -40 -207t-101 -233.5t-136 -223t-145 -178.5q-43 -45 -104.5 -104.5 t-131 -112.5t-141.5 -90t-135 -37zM567 1399h74l172 -395h-33l-198 223h-7l-299 -223h-26z" />
<glyph unicode="&#x178;" horiz-adv-x="1277" d="M256 33l111 12q47 4 67.5 14.5t22.5 22.5l94 483l-201 516q-16 43 -30.5 72t-31 46.5t-37 25.5t-48.5 12l-56 10l-2 33h586l-8 -33l-53 -4q-84 -8 -96.5 -44t18.5 -116l162 -448l8 -2l242 338q59 82 91.5 131t36 76.5t-23.5 40t-84 20.5l-55 8l-4 33h458l-8 -33l-53 -8 q-35 -4 -64.5 -17.5t-63.5 -44t-77 -83t-104 -133.5l-273 -377l-98 -506q-2 -12 14.5 -20.5t77.5 -14.5l90 -10l2 -33h-618zM1014 1401q-59 0 -88 39t-29 80q0 20 7 42.5t21.5 41t37 30t51.5 11.5t51 -11.5t37.5 -30t23 -41t7.5 -42.5q0 -41 -30 -80t-89 -39zM618 1401 q-59 0 -87.5 39t-28.5 80q0 20 7 42.5t21.5 41t37 30t50.5 11.5q29 0 51.5 -11.5t38 -30t22.5 -41t7 -42.5q0 -41 -30 -80t-89 -39z" />
<glyph unicode="&#x179;" horiz-adv-x="1202" d="M901 1759h221l-452 -381h-29zM-12 33l1007 1198l-2 8h-209q-123 0 -207.5 -21.5t-143 -59.5t-97.5 -91t-68 -117l-26 -63h-41l75 393h1002l-6 -33l-1014 -1198v-6l229 -2q129 -2 216.5 17.5t148.5 59.5t106.5 101.5t92.5 145.5l30 67h47l-118 -432h-1028z" />
<glyph unicode="&#x17a;" horiz-adv-x="798" d="M498 -45q-68 0 -119 30.5t-92 69.5t-74 77t-63 54h-17l-61 -213q-43 4 -79 32t-36 67q0 55 44 91t99 50l508 459q-53 -8 -101 9t-90 47t-78 63.5t-65 56.5q-4 2 -15 -7.5t-23.5 -21.5t-19.5 -23.5t-3 -11.5q39 -10 61.5 -37.5t22.5 -62.5q0 -41 -27.5 -69.5t-72.5 -28.5 q-47 0 -74 31.5t-27 72.5t29 82t72 74t93 53.5t93 22.5q70 -4 108.5 -32t62.5 -63.5t38 -68.5t35 -45l12 2l57 205q41 -4 77 -32t36 -67q0 -57 -42 -90t-95 -47l-508 -457q68 8 132 -12t121.5 -53t101.5 -71t73 -62q2 -2 12 9t19.5 24.5t15.5 24.5t2 11q-43 10 -66.5 42 t-23.5 67q0 41 27.5 68.5t72.5 27.5q47 2 73 -31.5t26 -76.5q0 -41 -22.5 -82t-59.5 -75t-82 -57.5t-88 -25.5zM684 1401h221l-452 -381h-29z" />
<glyph unicode="&#x17b;" horiz-adv-x="1202" d="M-12 33l1007 1198l-2 8h-209q-123 0 -207.5 -21.5t-143 -59.5t-97.5 -91t-68 -117l-26 -63h-41l75 393h1002l-6 -33l-1014 -1198v-6l229 -2q129 -2 216.5 17.5t148.5 59.5t106.5 101.5t92.5 145.5l30 67h47l-118 -432h-1028zM768 1440q-59 0 -91 40t-32 85t32 87t91 42 q63 0 94 -42t31 -87t-31 -85t-94 -40z" />
<glyph unicode="&#x17c;" horiz-adv-x="798" d="M498 -45q-68 0 -119 30.5t-92 69.5t-74 77t-63 54h-17l-61 -213q-43 4 -79 32t-36 67q0 55 44 91t99 50l508 459q-53 -8 -101 9t-90 47t-78 63.5t-65 56.5q-4 2 -15 -7.5t-23.5 -21.5t-19.5 -23.5t-3 -11.5q39 -10 61.5 -37.5t22.5 -62.5q0 -41 -27.5 -69.5t-72.5 -28.5 q-47 0 -74 31.5t-27 72.5t29 82t72 74t93 53.5t93 22.5q70 -4 108.5 -32t62.5 -63.5t38 -68.5t35 -45l12 2l57 205q41 -4 77 -32t36 -67q0 -57 -42 -90t-95 -47l-508 -457q68 8 132 -12t121.5 -53t101.5 -71t73 -62q2 -2 12 9t19.5 24.5t15.5 24.5t2 11q-43 10 -66.5 42 t-23.5 67q0 41 27.5 68.5t72.5 27.5q47 2 73 -31.5t26 -76.5q0 -41 -22.5 -82t-59.5 -75t-82 -57.5t-88 -25.5zM539 1081q-59 0 -91 40t-32 85t31.5 87t91.5 42q63 0 94 -42t31 -87t-31 -85t-94 -40z" />
<glyph unicode="&#x17d;" horiz-adv-x="1202" d="M-12 33l1007 1198l-2 8h-209q-123 0 -207.5 -21.5t-143 -59.5t-97.5 -91t-68 -117l-26 -63h-41l75 393h1002l-6 -33l-1014 -1198v-6l229 -2q129 -2 216.5 17.5t148.5 59.5t106.5 101.5t92.5 145.5l30 67h47l-118 -432h-1028zM539 1745h30l201 -223h6l295 223h31 l-320 -395h-73z" />
<glyph unicode="&#x17e;" horiz-adv-x="796" d="M498 -45q-68 0 -119 30.5t-92 69.5t-74 77t-63 54h-17l-61 -213q-43 4 -79 32t-36 67q0 55 44 91t99 50l508 459q-53 -8 -101 9t-90 47t-78 63.5t-65 56.5q-4 2 -15 -7.5t-23.5 -21.5t-19.5 -23.5t-3 -11.5q39 -10 61.5 -37.5t22.5 -62.5q0 -41 -27.5 -69.5t-72.5 -28.5 q-47 0 -74 31.5t-27 72.5t29 82t72 74t93 53.5t93 22.5q70 -4 108.5 -32t62.5 -63.5t38 -68.5t35 -45l12 2l57 205q41 -4 77 -32t36 -67q0 -57 -42 -90t-95 -47l-508 -457q68 8 132 -12t121.5 -53t101.5 -71t73 -62q2 -2 12 9t19.5 24.5t15.5 24.5t2 11q-43 10 -66.5 42 t-23.5 67q0 41 27.5 68.5t72.5 27.5q47 2 73 -31.5t26 -76.5q0 -41 -22.5 -82t-59.5 -75t-82 -57.5t-88 -25.5zM332 1399h30l201 -223h6l295 223h31l-320 -395h-73z" />
<glyph unicode="&#x192;" horiz-adv-x="1075" d="M178 -111q-80 0 -134 37t-54 99q0 43 29.5 76.5t80.5 33.5q31 0 56.5 -15.5t41 -41t16.5 -58t-17 -65.5q16 -2 32 -2h45q25 6 45.5 36.5t42 94t44 165t51.5 247.5l41 227l-213 8l28 76l207 18q29 115 74 214.5t104 158.5q51 51 122 80t145 29q86 0 137 -40t51 -104 q0 -47 -34 -83t-79 -36q-37 0 -62.5 18.5t-35.5 47.5t-4 61.5t33 63.5q-16 2 -31 6q-12 2 -26.5 4t-22.5 2q-31 -6 -56.5 -42t-46 -94t-38 -133t-33.5 -157l248 -2l-2 -92h-261l-45 -186q-45 -197 -100 -335t-143 -224q-47 -49 -112 -71t-124 -22z" />
<glyph unicode="&#x1fa;" horiz-adv-x="1265" d="M936 2007h221l-452 -381h-29zM379 518l-96 -186q-47 -86 -74 -140.5t-28 -86t28 -45t90 -19.5l61 -8l5 -33h-457l6 33l45 8q43 6 72.5 18.5t60.5 49t72 107.5t108 194l451 860q-45 23 -68.5 66.5t-23.5 95.5q0 76 49 132t135 56t136 -56.5t50 -131.5q0 -63 -35.5 -111.5 t-99.5 -65.5l123 -1009q8 -61 18.5 -99t25 -61t34.5 -32t51 -11l70 -10v-33h-594l6 33l72 6q70 6 82 46t2 128l-31 305h-346zM815 1276q72 0 112 46t40 110q0 63 -40 110t-112 47q-70 0 -109.5 -47t-39.5 -110t39.5 -109.5t109.5 -46.5zM719 565l-25 250l-24 250h-11 q-74 -139 -129 -250q-25 -47 -47 -92t-41 -80q-23 -41 -41 -78h318z" />
<glyph unicode="&#x1fb;" horiz-adv-x="980" d="M762 1819h221l-453 -381h-28zM631 1030q-86 0 -136.5 55.5t-50.5 133.5q0 76 50.5 131t136.5 55t135 -55.5t49 -130.5q0 -78 -49 -133.5t-135 -55.5zM672 -27q-16 0 -45 10.5t-57.5 25t-49 30.5t-20.5 29q0 25 25.5 113.5t72.5 213.5h-8q-59 -98 -107.5 -177t-91.5 -132 t-84 -82t-86 -29q-80 0 -137 58.5t-57 163.5q0 78 23.5 157.5t61.5 153.5t88 140.5t103 119.5q68 70 139.5 107.5t132.5 37.5q59 0 83 -49t24 -151h10l74 202l182 -6l-149 -413l-115 -394l94 -12l142 182l18 -14q-66 -135 -139.5 -210t-126.5 -75zM631 1061q72 0 111.5 47 t39.5 111q0 61 -40 108t-111 47q-72 0 -112 -47t-40 -108q0 -63 40 -110.5t112 -47.5zM313 111q51 0 121 93t168 279q8 14 17.5 38t17.5 48.5t13 46t5 31.5q-4 31 -20.5 60.5t-41 53t-53 37t-59.5 13.5q-27 0 -45 -10t-37 -29q-31 -33 -62.5 -93.5t-57 -133t-42 -149.5 t-16.5 -138q0 -72 25.5 -109.5t66.5 -37.5z" />
<glyph unicode="&#x1fc;" horiz-adv-x="1755" d="M1397 1759h221l-453 -381h-28zM414 520l-127 -172q-74 -98 -116 -155.5t-50 -88t17.5 -43t84.5 -20.5l51 -8l7 -33h-447l6 33l45 8q47 6 80 18.5t68 43t81 87t119 152.5l598 805q33 41 22 63.5t-97 28.5l-84 8l-4 33h1036l-4 -406h-45l-13 74q-23 78 -47 133.5t-68 90 t-114 51t-180 16.5h-98l-107 -563l68 2q68 2 116 9t81.5 23.5t56 43t41.5 67.5l30 64l37 -2l-100 -463l-39 2l6 61q4 45 -5 74t-38 45t-79 22.5t-126 10.5l-57 2l-111 -590l172 -6q113 0 194 21.5t139.5 61.5t101.5 95t81 123l35 70l47 -2l-131 -410h-1048q-2 0 2 16l4 17 l94 12q47 4 67.5 14.5t22.5 22.5l82 438h-358zM780 567l111 586h-6l-436 -586h331z" />
<glyph unicode="&#x1fd;" horiz-adv-x="1302" d="M965 1401h221l-453 -381h-28zM215 -27q-82 0 -135 64.5t-53 167.5q0 80 22.5 157.5t60 150.5t87 137.5t102.5 117.5q68 70 136.5 110t133.5 40q61 0 97 -60.5t41 -165.5q74 104 168 166t204 62q104 0 166 -50.5t62 -126.5q0 -51 -32 -92t-97.5 -75.5t-166 -68.5 t-235.5 -73q-16 -66 -16 -131q0 -207 168 -207q63 0 124.5 40t139.5 147l18 -17q-37 -63 -78.5 -116.5t-89 -92.5t-98.5 -61.5t-108 -22.5q-61 0 -111.5 23.5t-87.5 65.5t-58.5 97.5t-21.5 119.5v31.5t4 33.5q-104 -170 -184 -270.5t-162 -100.5zM782 467q96 31 163 61.5 t109 65.5t61.5 75t19.5 91q0 47 -31 76.5t-72 29.5q-27 0 -48 -12t-44 -33q-45 -45 -90 -140t-72 -212zM305 113q29 0 62.5 28.5t70.5 78.5t77 120t83 152q16 35 33.5 76.5t21.5 66.5q-6 35 -22.5 66.5t-41 56t-54 39t-60.5 14.5q-27 0 -45 -10t-37 -29q-31 -33 -61.5 -92 t-55 -130t-40 -145.5t-15.5 -136.5q0 -74 23.5 -114.5t60.5 -40.5z" />
<glyph unicode="&#x1fe;" horiz-adv-x="1486" d="M1206 1188q117 -86 180.5 -216t63.5 -284q0 -143 -53.5 -273t-147.5 -228.5t-226 -157t-288 -58.5q-197 0 -342 92q-23 -33 -50.5 -69.5t-49.5 -69.5q-27 -37 -53 -74h-50l170 234q-117 86 -182 216t-65 288q0 137 51 267t144 230.5t225.5 161t291.5 60.5 q100 0 188.5 -25t160.5 -72l147 201h47zM1118 1133q-47 61 -116.5 96t-161.5 35q-121 0 -212 -78t-154.5 -197t-95.5 -259t-32 -265q0 -172 76 -295zM1143 1098q-195 -270 -348 -482l-349 -479q47 -57 116 -89t159 -32q113 0 204 73t155.5 187.5t99 255t34.5 275.5 q0 84 -18 158t-53 133zM1057 1755h221l-453 -381h-28z" />
<glyph unicode="&#x1ff;" horiz-adv-x="870" d="M723 815q49 -53 75.5 -127t26.5 -162q0 -100 -40 -198.5t-106.5 -177t-151.5 -128t-173 -49.5q-111 0 -186 70l-219 -305h-43l235 330q-98 111 -98 292q0 98 40 197.5t105.5 178.5t147.5 128t168 49q111 0 194 -73q35 47 78 107.5t82 113.5q45 63 90 127h45 q-47 -66 -96 -133q-41 -57 -88 -122t-86 -118zM223 180q115 158 205 285q39 53 76 104.5t65 92.5q35 47 66 88q-12 57 -38 88.5t-65 31.5q-37 0 -75.5 -32.5t-74.5 -87t-67.5 -123t-52.5 -138.5q-20 -72 -30.5 -141t-10.5 -123v-23.5t2 -21.5zM436 416q-90 -125 -205 -285 q12 -53 38 -83t65 -30q43 0 83 29t73.5 78t61.5 112.5t48 131.5q23 74 33 154.5t10 133.5v20.5t-2 20.5zM715 1386h221l-453 -380h-28z" />
<glyph unicode="&#x218;" horiz-adv-x="1042" d="M575 -309q-10 -45 -39.5 -87t-75.5 -76t-102.5 -56.5t-117.5 -28.5l-13 18q78 12 133.5 56.5t67.5 105.5q8 39 -5 66.5t-35.5 44t-50.5 19.5t-48 -5q-4 25 6 49.5t30.5 44t50.5 30.5t68 7q74 -8 110.5 -62t20.5 -126zM465 -27q-147 0 -259 34t-177 69l45 332h39l45 -191 q39 -100 117.5 -150.5t191.5 -50.5q63 0 115.5 21.5t90.5 58.5t58.5 87t20.5 106q0 98 -73 164.5t-185 126.5q-63 35 -117.5 72.5t-94.5 81.5t-62.5 97.5t-22.5 118.5q0 68 31.5 132.5t88 114.5t134 80t170.5 30q98 0 174.5 -20.5t144.5 -47.5l98 25l-63 -361l-37 2l-80 275 q-41 33 -99.5 57.5t-131.5 24.5q-49 0 -93.5 -16.5t-77 -44t-52 -67.5t-19.5 -85q0 -96 63.5 -158t190.5 -127q66 -37 122 -75t98 -84t65.5 -101t23.5 -125q0 -78 -34.5 -150.5t-98 -130t-152.5 -91.5t-198 -34z" />
<glyph unicode="&#x219;" horiz-adv-x="698" d="M348 -309q-10 -45 -39.5 -87t-76 -76t-102.5 -56.5t-118 -28.5l-12 18q78 12 133 56.5t68 105.5q8 39 -5.5 66.5t-36 44t-50 19.5t-48.5 -5q-4 25 6.5 49.5t31 44t50 30.5t68.5 7q74 -8 110.5 -62t20.5 -126zM258 -27q-53 0 -103.5 11.5t-89 34t-62 56.5t-23.5 79 q0 49 31.5 83.5t82.5 34.5q39 0 64.5 -28.5t25.5 -67.5q0 -27 -15 -52.5t-34 -41.5q10 -10 29.5 -21.5t44 -21.5t50.5 -18.5t50 -8.5q33 2 58.5 19.5t43 41t28 51.5t10.5 50q0 31 -14.5 57.5t-38 53t-52.5 52t-57 52.5q-35 33 -66 64.5t-54.5 63.5t-35.5 65.5t-12 72.5 q2 59 30.5 108.5t73.5 83.5t101.5 52.5t113.5 18.5q49 0 95.5 -9.5t81 -30t56 -52t21.5 -76.5q0 -53 -30.5 -84t-77.5 -31q-41 0 -69 29.5t-28 68.5q0 29 16.5 52.5t35.5 37.5q-23 12 -55.5 31.5t-80.5 22.5q-31 -2 -55 -17.5t-40.5 -38t-26 -48t-9.5 -46.5 q0 -29 14.5 -55.5t36 -52t49 -51t54.5 -52.5q29 -29 60.5 -59.5t57 -64.5t42 -70.5t16.5 -79.5q-2 -59 -32.5 -108.5t-80 -84.5t-110 -55.5t-121.5 -20.5z" />
<glyph unicode="&#x21a;" horiz-adv-x="1341" d="M690 -309q-10 -45 -39.5 -87t-76 -76t-102.5 -56.5t-118 -28.5l-12 18q78 12 133 56.5t68 105.5q8 39 -5.5 66.5t-36 44t-50 19.5t-48.5 -5q-4 25 6.5 49.5t31 44t50 30.5t68.5 7q74 -8 110.5 -62t20.5 -126zM285 33l112 12q47 4 66.5 14.5t21.5 22.5l220 1159h-64 q-74 -4 -135.5 -27.5t-111.5 -61.5t-89 -87t-69 -100l-37 -80h-47l114 395h1129l-52 -395h-38l-13 76q-10 66 -30.5 116.5t-56.5 86.5t-87 55.5t-125 21.5h-59l-221 -1163q-2 -12 13 -20.5t77 -14.5l90 -10l4 -33h-618z" />
<glyph unicode="&#x21b;" horiz-adv-x="610" d="M305 -311q-10 -45 -39.5 -87t-76 -76t-102.5 -56.5t-118 -28.5l-12 18q78 12 133 56.5t68 105.5q8 39 -5.5 66.5t-36 44t-50 19.5t-48.5 -5q-4 25 6.5 49.5t31 44t50 30.5t68.5 7q74 -8 110.5 -62t20.5 -126zM244 -27q-20 0 -55 9.5t-69 21.5t-57.5 27.5t-21.5 27.5 q0 2 14.5 55.5t36 133.5t46 173t47 174t38 136t17.5 62l-162 6l26 78l164 22l74 262h190l-73 -272h198l-4 -90h-219l-209 -695l129 -14l140 182l18 -16q-66 -135 -138.5 -209t-129.5 -74z" />
<glyph unicode="&#x2c6;" horiz-adv-x="776" d="M524 1399h74l172 -395h-33l-198 223h-7l-299 -223h-26z" />
<glyph unicode="&#x2c7;" horiz-adv-x="776" d="M279 1399h30l201 -223h6l295 223h31l-320 -395h-73z" />
<glyph unicode="&#x2d8;" horiz-adv-x="790" d="M504 1010q-66 0 -107 30.5t-64.5 82t-32.5 120t-9 143.5h31q20 -119 67 -182t133 -63q88 0 159 63.5t134 181.5h33q-29 -76 -60.5 -144t-71.5 -119.5t-92 -82t-120 -30.5z" />
<glyph unicode="&#x2d9;" horiz-adv-x="796" d="M539 1081q-59 0 -91 40t-32 85t31.5 87t91.5 42q63 0 94 -42t31 -87t-31 -85t-94 -40z" />
<glyph unicode="&#x2da;" horiz-adv-x="776" d="M535 1030q-86 0 -136.5 55.5t-50.5 133.5q0 76 50.5 131t136.5 55t135 -55.5t49 -130.5q0 -78 -49 -133.5t-135 -55.5zM535 1061q72 0 111.5 47t39.5 111q0 61 -40 108t-111 47q-72 0 -112 -47t-40 -108q0 -63 40 -110.5t112 -47.5z" />
<glyph unicode="&#x2db;" horiz-adv-x="794" d="M242 -487q-78 0 -126 50t-48 126q0 61 33.5 115.5t88 97.5t121 76.5t131.5 56.5h54q-152 -61 -221.5 -145.5t-69.5 -165.5q0 -57 29.5 -92t93.5 -35q43 0 70.5 13t60.5 34l6 -17q-37 -41 -94 -77.5t-129 -36.5z" />
<glyph unicode="&#x2dc;" horiz-adv-x="790" d="M664 1034q-47 0 -94.5 20.5t-91.5 46t-84 46t-70 20.5q-35 0 -59.5 -20.5t-47.5 -95.5h-31q31 133 74 188t125 55q45 0 92 -20.5t90 -46t83 -46t71 -20.5q35 0 60.5 19.5t49.5 95.5h17q14 0 16 2q-16 -66 -34.5 -113t-42 -75.5t-54 -42t-69.5 -13.5z" />
<glyph unicode="&#x2dd;" horiz-adv-x="817" d="M838 1401h202l-434 -381h-28zM502 1401h203l-435 -381h-28z" />
<glyph unicode="&#x1e80;" horiz-adv-x="1976" d="M330 1040q-10 61 -18.5 98.5t-20.5 59t-32.5 29.5t-53.5 12l-66 8l-2 33h588l-8 -33l-74 -6q-70 -4 -86 -31.5t-2 -107.5l131 -850h8l385 700l-14 88q-10 59 -19.5 96.5t-21.5 59t-32.5 30.5t-53.5 13l-68 8l-4 33h592l-8 -33l-74 -6q-74 -4 -89 -32.5t-3 -112.5 l125 -840l6 -2l361 707q45 80 68.5 131t22.5 81.5t-30 45t-90 20.5l-51 8l-4 33h458l-8 -33l-43 -10q-41 -6 -70.5 -18.5t-59.5 -43t-64.5 -87t-85.5 -150.5l-506 -961h-76l-139 897h-6l-504 -897h-74zM950 1759h207l135 -381h-30z" />
<glyph unicode="&#x1e81;" horiz-adv-x="1323" d="M238 -27q-35 0 -66 13.5t-53.5 36t-36.5 54.5t-14 66q0 53 35.5 134t84 166t97.5 164t75 132l-208 37l-111 -162l-18 17q63 135 125.5 214t117.5 79q18 0 53 -4.5t69 -12.5t59.5 -17t25.5 -18q-2 -16 -19.5 -56t-42 -92t-53 -114.5t-53 -123t-41 -116t-16.5 -96.5 t13 -66.5t31.5 -40.5t40 -21.5t40.5 -6.5q23 0 55.5 28t68 73t74.5 102t75 116.5t66.5 115t51.5 98.5q0 2 -17.5 9t-40 22.5t-41 40t-18.5 59.5q0 51 34 83t83 32q47 0 82 -34t35 -87q0 -39 -14.5 -67t-36 -56.5t-47 -64.5t-46.5 -87q-23 -61 -33 -107t-10 -93 q0 -53 16.5 -88t40 -56.5t52 -30t53.5 -8.5q29 0 63.5 28t68.5 74t64.5 105.5t54 121.5t37 121.5t13.5 108.5q-20 -8 -47 -4t-49.5 18.5t-38.5 37t-16 51.5q0 47 32.5 84t79.5 37q53 0 91 -40t38 -108q0 -55 -21.5 -135t-57 -166t-84 -169t-101.5 -144 q-61 -86 -118.5 -136.5t-110.5 -50.5q-35 0 -62.5 16.5t-47 41t-30 55.5t-10.5 59q0 47 25.5 132t66.5 192q-63 -109 -122.5 -200t-117 -156.5t-112.5 -102.5t-106 -37zM475 1401h207l135 -381h-31z" />
<glyph unicode="&#x1e82;" horiz-adv-x="1976" d="M1321 1759h221l-452 -381h-29zM330 1040q-10 61 -18.5 98.5t-20.5 59t-32.5 29.5t-53.5 12l-66 8l-2 33h588l-8 -33l-74 -6q-70 -4 -86 -31.5t-2 -107.5l131 -850h8l385 700l-14 88q-10 59 -19.5 96.5t-21.5 59t-32.5 30.5t-53.5 13l-68 8l-4 33h592l-8 -33l-74 -6 q-74 -4 -89 -32.5t-3 -112.5l125 -840l6 -2l361 707q45 80 68.5 131t22.5 81.5t-30 45t-90 20.5l-51 8l-4 33h458l-8 -33l-43 -10q-41 -6 -70.5 -18.5t-59.5 -43t-64.5 -87t-85.5 -150.5l-506 -961h-76l-139 897h-6l-504 -897h-74z" />
<glyph unicode="&#x1e83;" horiz-adv-x="1269" d="M993 1401h221l-452 -381h-29zM238 -27q-35 0 -66 13.5t-53.5 36t-36.5 54.5t-14 66q0 53 35.5 134t84 166t97.5 164t75 132l-208 37l-111 -162l-18 17q63 135 125.5 214t117.5 79q18 0 53 -4.5t69 -12.5t59.5 -17t25.5 -18q-2 -16 -19.5 -56t-42 -92t-53 -114.5t-53 -123 t-41 -116t-16.5 -96.5t13 -66.5t31.5 -40.5t40 -21.5t40.5 -6.5q23 0 55.5 28t68 73t74.5 102t75 116.5t66.5 115t51.5 98.5q0 2 -17.5 9t-40 22.5t-41 40t-18.5 59.5q0 51 34 83t83 32q47 0 82 -34t35 -87q0 -39 -14.5 -67t-36 -56.5t-47 -64.5t-46.5 -87q-23 -61 -33 -107 t-10 -93q0 -53 16.5 -88t40 -56.5t52 -30t53.5 -8.5q29 0 63.5 28t68.5 74t64.5 105.5t54 121.5t37 121.5t13.5 108.5q-20 -8 -47 -4t-49.5 18.5t-38.5 37t-16 51.5q0 47 32.5 84t79.5 37q53 0 91 -40t38 -108q0 -55 -21.5 -135t-57 -166t-84 -169t-101.5 -144 q-61 -86 -118.5 -136.5t-110.5 -50.5q-35 0 -62.5 16.5t-47 41t-30 55.5t-10.5 59q0 47 25.5 132t66.5 192q-63 -109 -122.5 -200t-117 -156.5t-112.5 -102.5t-106 -37z" />
<glyph unicode="&#x1e84;" horiz-adv-x="1976" d="M1374 1417q-59 0 -88 39t-29 80q0 20 7.5 43t21.5 41t37 29.5t51 11.5q29 0 51.5 -11.5t38 -29.5t22.5 -41t7 -43q0 -41 -30 -80t-89 -39zM979 1417q-59 0 -88 39t-29 80q0 20 7.5 43t21.5 41t36.5 29.5t51.5 11.5t51.5 -11.5t37.5 -29.5t22.5 -41t7.5 -43q0 -41 -30 -80 t-89 -39zM330 1040q-10 61 -18.5 98.5t-20.5 59t-32.5 29.5t-53.5 12l-66 8l-2 33h588l-8 -33l-74 -6q-70 -4 -86 -31.5t-2 -107.5l131 -850h8l385 700l-14 88q-10 59 -19.5 96.5t-21.5 59t-32.5 30.5t-53.5 13l-68 8l-4 33h592l-8 -33l-74 -6q-74 -4 -89 -32.5t-3 -112.5 l125 -840l6 -2l361 707q45 80 68.5 131t22.5 81.5t-30 45t-90 20.5l-51 8l-4 33h458l-8 -33l-43 -10q-41 -6 -70.5 -18.5t-59.5 -43t-64.5 -87t-85.5 -150.5l-506 -961h-76l-139 897h-6l-504 -897h-74z" />
<glyph unicode="&#x1e85;" horiz-adv-x="1269" d="M1008 1059q-59 0 -88 39t-29 80q0 20 7 42.5t21.5 41t37 30t51.5 11.5t51 -11.5t37.5 -30t22.5 -41t7 -42.5q0 -41 -29.5 -80t-88.5 -39zM612 1059q-59 0 -87.5 39t-28.5 80q0 20 7 42.5t21.5 41t37 30t50.5 11.5q29 0 51.5 -11.5t38 -30t22.5 -41t7 -42.5q0 -41 -30 -80 t-89 -39zM238 -27q-35 0 -66 13.5t-53.5 36t-36.5 54.5t-14 66q0 53 35.5 134t84 166t97.5 164t75 132l-208 37l-111 -162l-18 17q63 135 125.5 214t117.5 79q18 0 53 -4.5t69 -12.5t59.5 -17t25.5 -18q-2 -16 -19.5 -56t-42 -92t-53 -114.5t-53 -123t-41 -116t-16.5 -96.5 t13 -66.5t31.5 -40.5t40 -21.5t40.5 -6.5q23 0 55.5 28t68 73t74.5 102t75 116.5t66.5 115t51.5 98.5q0 2 -17.5 9t-40 22.5t-41 40t-18.5 59.5q0 51 34 83t83 32q47 0 82 -34t35 -87q0 -39 -14.5 -67t-36 -56.5t-47 -64.5t-46.5 -87q-23 -61 -33 -107t-10 -93 q0 -53 16.5 -88t40 -56.5t52 -30t53.5 -8.5q29 0 63.5 28t68.5 74t64.5 105.5t54 121.5t37 121.5t13.5 108.5q-20 -8 -47 -4t-49.5 18.5t-38.5 37t-16 51.5q0 47 32.5 84t79.5 37q53 0 91 -40t38 -108q0 -55 -21.5 -135t-57 -166t-84 -169t-101.5 -144 q-61 -86 -118.5 -136.5t-110.5 -50.5q-35 0 -62.5 16.5t-47 41t-30 55.5t-10.5 59q0 47 25.5 132t66.5 192q-63 -109 -122.5 -200t-117 -156.5t-112.5 -102.5t-106 -37z" />
<glyph unicode="&#x2000;" horiz-adv-x="1003" />
<glyph unicode="&#x2001;" horiz-adv-x="2007" />
<glyph unicode="&#x2002;" horiz-adv-x="1003" />
<glyph unicode="&#x2003;" horiz-adv-x="2007" />
<glyph unicode="&#x2004;" horiz-adv-x="669" />
<glyph unicode="&#x2005;" horiz-adv-x="501" />
<glyph unicode="&#x2006;" horiz-adv-x="334" />
<glyph unicode="&#x2007;" horiz-adv-x="334" />
<glyph unicode="&#x2008;" horiz-adv-x="250" />
<glyph unicode="&#x2009;" horiz-adv-x="122" />
<glyph unicode="&#x200a;" horiz-adv-x="111" />
<glyph unicode="&#x2010;" horiz-adv-x="604" d="M68 528h501l-14 -92h-508z" />
<glyph unicode="&#x2011;" horiz-adv-x="604" d="M68 528h501l-14 -92h-508z" />
<glyph unicode="&#x2012;" horiz-adv-x="604" d="M68 528h501l-14 -92h-508z" />
<glyph unicode="&#x2013;" horiz-adv-x="899" d="M45 526h840l-13 -88h-845z" />
<glyph unicode="&#x2014;" horiz-adv-x="1861" d="M45 526h1802l-10 -88h-1810z" />
<glyph unicode="&#x2018;" horiz-adv-x="413" d="M303 797q-74 0 -116 50t-42 118q0 57 27 111t77 101.5t120.5 86.5t156.5 63l13 -16q-47 -20 -91.5 -48t-77 -61t-52 -69.5t-19.5 -75.5q0 -41 20.5 -67.5t45 -44t47 -26t28.5 -10.5q-6 -43 -42 -77.5t-95 -34.5z" />
<glyph unicode="&#x2019;" horiz-adv-x="413" d="M121 829q94 37 161.5 101.5t67.5 142.5q0 41 -21.5 67.5t-48 44t-50 25t-29.5 11.5q4 45 39.5 80.5t95.5 35.5q74 0 118 -52t44 -124q0 -55 -27 -108.5t-74 -99.5t-112.5 -82.5t-145.5 -61.5z" />
<glyph unicode="&#x201a;" horiz-adv-x="413" d="M-86 -248q94 37 161.5 101.5t67.5 142.5q0 41 -21.5 67.5t-48 44t-50 24.5t-29.5 11q4 45 40 81t95 36q74 0 118 -52t44 -124q0 -55 -26.5 -108.5t-74 -99.5t-113 -83t-145.5 -61z" />
<glyph unicode="&#x201c;" horiz-adv-x="802" d="M700 797q-74 0 -116.5 50t-42.5 122q0 57 26.5 110.5t73.5 99.5t112.5 82.5t143.5 59.5l18 -16q-94 -39 -160.5 -103.5t-66.5 -140.5q0 -43 21.5 -70.5t47 -44t49 -26t30.5 -11.5q-4 -41 -40.5 -76.5t-95.5 -35.5zM305 797q-72 0 -116 50t-44 122q0 115 99.5 210 t259.5 142l16 -16q-94 -39 -160.5 -103.5t-66.5 -140.5q0 -43 21.5 -70.5t47 -44t49 -26t29.5 -11.5q-4 -41 -40 -76.5t-95 -35.5z" />
<glyph unicode="&#x201d;" horiz-adv-x="802" d="M518 829q94 37 160.5 101.5t66.5 142.5q0 41 -21.5 67.5t-47 44t-49 25t-27.5 11.5q4 45 39 80.5t94 35.5q72 0 117 -52t45 -124q0 -55 -26.5 -108.5t-73.5 -99.5t-113 -82.5t-145 -61.5zM123 829q94 37 161.5 101.5t67.5 142.5q0 41 -21.5 67.5t-47 44t-49 25 t-29.5 11.5q4 45 40 80.5t95 35.5q72 0 117 -52t45 -124q0 -55 -26.5 -108.5t-74 -99.5t-114 -82.5t-146.5 -61.5z" />
<glyph unicode="&#x201e;" horiz-adv-x="802" d="M311 -248q94 37 161 101.5t67 142.5q0 41 -21.5 67.5t-47.5 44t-49.5 24.5t-27.5 11q4 45 39 81t94 36q72 0 117 -52t45 -124q0 -55 -26.5 -108.5t-73.5 -99.5t-112.5 -83t-145.5 -61zM-84 -248q94 37 161.5 101.5t67.5 142.5q0 41 -21.5 67.5t-47 44t-49 24.5t-29.5 11 q4 45 40 81t95 36q72 0 117 -52t45 -124q0 -55 -26.5 -108.5t-74 -99.5t-114 -83t-146.5 -61z" />
<glyph unicode="&#x2020;" horiz-adv-x="909" d="M510 831h-399v43h403l61 406h41l-61 -406h403l-6 -43h-399l-174 -1150h-41z" />
<glyph unicode="&#x2021;" horiz-adv-x="909" d="M397 63h-403l6 43h401l113 746h-399v43h403l60 385h40l-59 -385h404l-7 -43h-399l-115 -746h400l2 -43h-406l-57 -382h-43z" />
<glyph unicode="&#x2022;" horiz-adv-x="888" d="M449 80q-23 0 -63 12t-83 30.5t-79 38t-50 36.5q-16 16 -35.5 53t-38 80t-31 83t-12.5 62q0 23 12.5 63t31 83t38 79.5t35.5 53.5q14 14 52 34.5t80 38t82 29.5t63 12t62.5 -12t82.5 -29.5t80 -38t53 -34.5q14 -16 34.5 -53t38 -80t30 -83t12.5 -63t-12.5 -62.5 t-30 -82.5t-37 -80t-35.5 -53t-53 -37t-80 -38.5t-83.5 -29.5t-63.5 -12z" />
<glyph unicode="&#x2026;" horiz-adv-x="1318" d="M1049 -27q-57 0 -96.5 41t-39.5 95q0 53 38 93t98 40q57 0 95 -40t38 -93t-38 -94.5t-95 -41.5zM598 -27q-57 0 -96 41t-39 95q0 53 39 93t94 40q59 0 97 -40t38 -93t-37 -94.5t-96 -41.5zM150 -27q-59 0 -98.5 41t-39.5 95q0 53 39 93t96 40t95.5 -40t40.5 -93 q0 -53 -39 -94.5t-94 -41.5z" />
<glyph unicode="&#x202f;" horiz-adv-x="401" />
<glyph unicode="&#x2030;" horiz-adv-x="1892" d="M406 745q-61 0 -111.5 20.5t-87.5 57.5t-56.5 87.5t-19.5 107.5q0 59 21.5 113.5t59.5 95.5t91 64.5t119 23.5q61 0 112.5 -21.5t88 -58.5t56 -87t19.5 -108q0 -59 -21.5 -113.5t-59 -94t-91.5 -63.5t-120 -24zM1245 1311h53l-1222 -1340h-56zM1548 -33 q-61 0 -112.5 20.5t-86 57.5t-54 86t-19.5 107q0 61 20.5 115.5t58.5 95t91 64.5t119 24q61 0 111 -21.5t87 -58.5t56.5 -87.5t19.5 -107.5q0 -59 -20.5 -113.5t-59.5 -94.5t-92 -63.5t-119 -23.5zM901 -33q-61 0 -111.5 20.5t-86 57.5t-55 86t-19.5 107q0 61 20.5 115.5 t59.5 95t92 64.5t119 24q61 0 111 -21.5t87 -58.5t56.5 -87.5t19.5 -107.5q0 -59 -21.5 -113.5t-59.5 -94.5t-92 -63.5t-120 -23.5zM408 786q55 0 99 19.5t75.5 53.5t49 79t17.5 96q0 49 -16.5 93t-46 77t-72.5 51.5t-94 18.5q-55 0 -99.5 -20.5t-76 -55.5t-49 -81 t-17.5 -97q0 -102 63 -168t167 -66zM1550 8q53 0 98.5 19.5t77 54.5t50 80t18.5 98q0 49 -16.5 92t-47 75t-73.5 50.5t-94 18.5q-55 0 -99.5 -20.5t-76 -55.5t-49 -81t-17.5 -97q0 -102 62.5 -168t166.5 -66zM905 8q53 0 98.5 19.5t77 54.5t49 80t17.5 98q0 49 -16.5 92 t-47 75t-72.5 50.5t-93 18.5q-55 0 -99.5 -20.5t-76 -55.5t-49 -81t-17.5 -97q0 -102 62.5 -168t166.5 -66z" />
<glyph unicode="&#x2039;" horiz-adv-x="557" d="M35 436l4 47l530 340l9 -20l-345 -361l213 -331l-14 -21z" />
<glyph unicode="&#x203a;" horiz-adv-x="559" d="M-8 106l336 359l-205 332l14 24l395 -348l-6 -49l-526 -336z" />
<glyph unicode="&#x2044;" horiz-adv-x="1038" d="M1124 1311h60l-1211 -1340h-57z" />
<glyph unicode="&#x205f;" horiz-adv-x="501" />
<glyph unicode="&#x2070;" horiz-adv-x="688" d="M317 530q-68 0 -116.5 27t-79.5 70t-45.5 98t-14.5 115q0 74 21.5 159.5t67 160.5t113 124t159.5 49q68 0 116 -26.5t78.5 -70.5t45 -100.5t14.5 -113.5q0 -74 -21.5 -160t-66.5 -159.5t-112 -123t-159 -49.5zM303 557q55 0 95 61.5t67 149.5t41 185.5t20 170.5 q2 31 -1 63t-13 59.5t-30.5 45t-53.5 17.5q-53 0 -93 -63.5t-67.5 -156t-43 -192.5t-19.5 -174q0 -29 3 -58.5t13 -53t29.5 -39t52.5 -15.5z" />
<glyph unicode="&#x2074;" horiz-adv-x="643" d="M338 754h-332v22l512 565l76 -8l-96 -491h135l-33 -88h-119l-41 -207h-141zM354 842l70 348h-6l-318 -348h254z" />
<glyph unicode="&#x2075;" horiz-adv-x="565" d="M166 510q-84 4 -136.5 31.5t-47.5 81.5q4 35 27.5 56t56.5 21q27 0 46 -14t28.5 -33.5t9.5 -44t-11 -47.5q8 -8 24.5 -15t39.5 -9q66 0 118 44t62 119q10 98 -67.5 158t-225.5 80l170 383h350l-28 -133h-349l-57 -131q166 -23 261 -94.5t83 -184.5q-6 -59 -37.5 -108 t-80 -86t-109.5 -56.5t-127 -17.5z" />
<glyph unicode="&#x2076;" horiz-adv-x="653" d="M313 528q-63 0 -113 23.5t-84 63.5t-51.5 93.5t-17.5 110.5q0 94 44 185.5t130 163t211 116.5t289 45l4 -20q-186 -14 -307 -109.5t-176 -228.5l2 -2q90 68 186 67q90 0 143.5 -54t53.5 -146q0 -61 -24.5 -117.5t-67.5 -98.5t-101 -67t-121 -25zM307 553q33 0 62.5 21.5 t52 58.5t36 85t13.5 101q0 76 -31.5 120t-93.5 44q-57 0 -108 -43q-41 -100 -41 -207q0 -76 23.5 -128t86.5 -52z" />
<glyph unicode="&#x2077;" horiz-adv-x="585" d="M567 1190l-2 4h-196q-66 0 -105 -4t-64.5 -14.5t-41 -26.5t-29.5 -41l-20 -31l-25 2l80 242h508v-21l-477 -757h-123z" />
<glyph unicode="&#x2078;" horiz-adv-x="636" d="M303 528q-55 0 -105.5 15.5t-88 42t-61 64.5t-23.5 83q0 78 63.5 127t159.5 64v2q-51 37 -90 82t-39 110q0 45 21.5 86t58.5 71t85 47t101 17q109 0 182.5 -51t73.5 -139q0 -76 -58.5 -117t-144.5 -55v-4q59 -41 105.5 -91.5t46.5 -123.5q0 -49 -24.5 -91t-64.5 -73 t-91.5 -48.5t-106.5 -17.5zM416 989q47 29 74.5 75t27.5 103q0 59 -31.5 103.5t-97.5 44.5q-61 0 -96 -39t-35 -96q0 -31 14.5 -57.5t37 -50t50 -44.5t56.5 -39zM307 553q63 0 103.5 41t40.5 100q0 37 -16.5 67t-42 55.5t-57.5 48t-63 44.5q-53 -29 -84.5 -78t-31.5 -114 q0 -68 36.5 -116t114.5 -48z" />
<glyph unicode="&#x2079;" horiz-adv-x="661" d="M-12 559q92 6 167.5 35t135 73t103.5 101t71 121l-2 2q-41 -33 -87 -49.5t-93 -16.5q-92 0 -145.5 54.5t-53.5 150.5q0 61 24.5 117.5t67.5 99.5t100.5 67.5t122.5 24.5q63 0 113.5 -23.5t84.5 -63.5t51.5 -92t17.5 -109q0 -94 -45.5 -186.5t-131.5 -165t-211.5 -116.5 t-287.5 -44zM367 877q57 0 104 43q23 49 33 105t10 110q0 76 -23.5 127t-82.5 51q-33 0 -63 -22.5t-53.5 -59.5t-36.5 -85t-13 -99q0 -78 31 -124t94 -46z" />
<glyph unicode="&#x207a;" horiz-adv-x="688" d="M387 915h-301l4 39l297 2v301h39v-301l299 -2l4 -39h-303v-307h-39v307z" />
<glyph unicode="&#x207b;" horiz-adv-x="688" d="M117 915l4 35h563l4 -35h-571z" />
<glyph unicode="&#x2080;" horiz-adv-x="688" d="M305 -297q-68 0 -117 26.5t-79.5 69.5t-45 98.5t-14.5 114.5q0 74 21.5 160t66.5 161t112.5 124t160.5 49q68 0 115.5 -26.5t78.5 -70.5t45.5 -100.5t14.5 -113.5q0 -74 -21.5 -160t-67 -160t-112 -123t-158.5 -49zM291 -270q55 0 95 61.5t66.5 149.5t41 185t20.5 171 q2 31 -1 62.5t-13.5 59t-30.5 45t-53 17.5q-53 0 -93 -63.5t-68 -155.5t-43 -192.5t-19 -173.5q0 -29 3 -59t13 -53.5t29.5 -38.5t52.5 -15z" />
<glyph unicode="&#x2081;" horiz-adv-x="524" d="M27 -256l61 4q57 4 59 25l127 647l-129 20l7 17l290 49l-143 -735q-4 -20 57 -23l47 -4l5 -25h-385z" />
<glyph unicode="&#x2082;" horiz-adv-x="608" d="M-35 -233q111 84 195 148.5t141 121.5t87 112.5t30 120.5q-2 70 -45 105t-97 35q-53 0 -94 -26t-78 -69l-10 15q51 74 123 128t160 54q92 0 148.5 -54.5t58.5 -133.5q0 -72 -37 -127.5t-101.5 -109.5t-152.5 -112.5t-191 -134.5v-4h254q59 0 98.5 24.5t80.5 92.5l16 24 h22l-106 -258h-504z" />
<glyph unicode="&#x2083;" horiz-adv-x="577" d="M178 -322q-39 0 -77 6.5t-67.5 19.5t-48 34.5t-18.5 52.5q0 29 22.5 51.5t55.5 22.5q25 0 44.5 -13.5t30.5 -34t12 -46t-11 -50.5q10 -6 28.5 -12t34.5 -6q39 0 74 17.5t59.5 46t39 67.5t14.5 80q0 70 -43 113t-121 43q-23 0 -43.5 -5.5t-36.5 -9.5l-8 21q68 31 120 55.5 t87.5 50t54 54t18.5 67.5q0 47 -33.5 79t-86.5 32q-51 0 -100.5 -30t-80.5 -71l-8 15q45 78 119 131t164 53q78 0 133 -44t55 -106q0 -84 -72.5 -135t-181.5 -86v-4q6 2 14.5 2h14.5q92 -6 142 -59t50 -129q0 -55 -29.5 -104.5t-77.5 -86t-111.5 -59.5t-131.5 -23z" />
<glyph unicode="&#x2084;" horiz-adv-x="643" d="M326 -74h-332v23l512 565l76 -8l-97 -492h136l-33 -88h-119l-41 -207h-141zM342 14l70 348h-6l-318 -348h254z" />
<glyph unicode="&#x2085;" horiz-adv-x="565" d="M154 -317q-84 4 -136.5 31.5t-48.5 80.5q4 35 27.5 56.5t56.5 21.5q27 0 46.5 -14.5t28.5 -34t9 -44t-10 -46.5q8 -8 24.5 -15.5t38.5 -9.5q66 0 118 44t63 120q10 98 -68 157.5t-225 80.5l170 383h350l-29 -134h-348l-57 -131q166 -23 261 -94.5t83 -183.5 q-6 -59 -38 -108.5t-80 -86.5t-109 -56t-127 -17z" />
<glyph unicode="&#x2086;" horiz-adv-x="653" d="M301 -299q-63 0 -113.5 23.5t-84 63.5t-51 93t-17.5 111q0 94 44 185t130 163t211 117t289 45l4 -21q-186 -14 -307 -109.5t-177 -228.5l2 -2q90 68 187 68q90 0 143 -54.5t53 -146.5q0 -61 -24.5 -117.5t-67.5 -98.5t-100.5 -66.5t-120.5 -24.5zM295 -274 q33 0 62.5 21.5t52 58t36 85t13.5 101.5q0 76 -32 120t-93 44q-57 0 -109 -43q-41 -100 -41 -207q0 -76 24 -128t87 -52z" />
<glyph unicode="&#x2087;" horiz-adv-x="585" d="M555 362l-2 5h-197q-66 0 -104.5 -4.5t-64 -14.5t-41 -26.5t-29.5 -40.5l-21 -31l-24 2l80 242h507v-21l-477 -758h-123z" />
<glyph unicode="&#x2088;" horiz-adv-x="636" d="M291 -299q-55 0 -105.5 15.5t-88.5 42t-61.5 64.5t-23.5 83q0 78 63.5 127t160.5 63v2q-51 37 -90.5 82t-39.5 111q0 45 22 86t58.5 70.5t84.5 47t102 17.5q109 0 182.5 -51t73.5 -139q0 -76 -58.5 -117t-144.5 -55v-5q59 -41 105.5 -91t46.5 -124q0 -49 -25 -91 t-64.5 -72.5t-91 -48t-106.5 -17.5zM403 162q47 29 75 75t28 103q0 59 -32 103t-97 44q-61 0 -96 -38.5t-35 -96.5q0 -31 14 -57.5t36.5 -50t50 -44t56.5 -38.5zM295 -274q63 0 103 40.5t40 100.5q0 37 -16 66.5t-42 55t-57.5 48t-62.5 45.5q-53 -29 -85 -78t-32 -115 q0 -68 37 -115.5t115 -47.5z" />
<glyph unicode="&#x2089;" horiz-adv-x="661" d="M-25 -268q92 6 168 34.5t135.5 72.5t103.5 101.5t71 120.5l-2 2q-41 -33 -87.5 -49t-93.5 -16q-92 0 -145 54t-53 151q0 61 24.5 117.5t67.5 99.5t100.5 67.5t122.5 24.5q63 0 113.5 -23.5t84 -63.5t51 -92t17.5 -110q0 -94 -45 -186t-131 -165t-212 -117t-288 -44z M354 49q57 0 105 43q23 49 33 105.5t10 109.5q0 76 -23.5 127t-83.5 51q-33 0 -62.5 -22.5t-53 -59t-37 -85t-13.5 -99.5q0 -78 31 -124t94 -46z" />
<glyph unicode="&#x208a;" horiz-adv-x="688" d="M303 88h-301l4 39l297 2v301h39v-301l299 -2l4 -39h-303v-307h-39v307z" />
<glyph unicode="&#x20ac;" horiz-adv-x="1034" d="M592 -27q-104 0 -183 40t-134.5 106.5t-87 153.5t-40.5 182h-139l6 41h129q0 8 1 16t1 16q0 47 5.5 95.5t17.5 95.5h-111l6 41h115q37 117 103.5 215t152.5 168.5t186.5 110.5t204.5 40q70 0 124.5 -14t93 -38.5t59 -57.5t20.5 -70q0 -47 -32.5 -84t-85.5 -37 q-41 0 -67 22.5t-35 55.5t-4 70t28 65q-12 10 -37 27.5t-82 17.5q-78 0 -145.5 -35.5t-121 -101t-92 -156t-61.5 -198.5h404l6 -41h-416q-16 -88 -16 -174v-23.5t2 -25.5h376l7 -41h-379q18 -166 105 -264.5t235 -98.5q78 0 142.5 33t129.5 96l16 -20q-80 -111 -186 -169.5 t-221 -58.5z" />
<glyph unicode="&#x2122;" horiz-adv-x="1155" d="M709 848l24 4q12 0 19.5 3t12.5 12.5t7 27.5t4 49l8 283q-8 14 -15 18t-19 8l-33 4l-2 23h182l96 -324h8l109 324h188l-2 -23l-39 -4q-27 -6 -26 -16l8 -342q0 -27 7 -32t24 -9l30 -6l3 -23h-224v23l37 6q14 2 18.5 10t4.5 33l-6 338h-9l-141 -401h-41l-125 391h-4h-4 l-6 -285q-2 -59 5 -72.5t34 -15.5l26 -4l4 -23h-167zM330 848l41 6q23 2 22 14v389h-12q-49 0 -78 -33.5t-49 -86.5l-8 -19h-23l17 162h417l7 -160h-25l-4 17q-23 57 -48.5 88.5t-78.5 31.5h-14v-391q0 -4 4 -6t22 -6l37 -6v-23h-229z" />
<glyph unicode="&#x25fc;" horiz-adv-x="921" d="M0 922h922v-922h-922v922z" />
<glyph horiz-adv-x="974" d="M301 -25q-76 0 -137.5 18.5t-105.5 50.5t-67.5 73t-23.5 84q0 61 40 104t99 41q51 0 84 -32.5t33 -80.5q0 -39 -21.5 -73.5t-70.5 -44.5q14 -43 61.5 -72t110.5 -29q94 0 148.5 66.5t83.5 222.5l170 901q2 6 -0.5 11.5t-12.5 9.5t-28.5 7t-51.5 7l-94 10l-6 33h616 l-6 -33l-104 -12q-47 -4 -67.5 -15.5t-22.5 -23.5l-180 -934q-10 -57 -52.5 -109.5t-104 -92t-137 -63.5t-153.5 -24z" />
<glyph horiz-adv-x="974" d="M868 1757h74l172 -395h-33l-198 223h-6l-299 -223h-27zM1124 1249l-104 -12q-47 -4 -67.5 -14.5t-24.5 -22.5l-178 -936q-10 -57 -52.5 -109.5t-104 -92t-138 -63.5t-154.5 -24q-76 0 -137.5 18.5t-105.5 50.5t-67.5 73t-23.5 86q0 61 41 103t101 40q49 0 82.5 -32.5 t33.5 -77.5q0 -41 -22.5 -76t-71.5 -45q16 -43 63.5 -72t110.5 -29q92 0 146.5 66.5t83.5 224.5l172 899q2 12 -13.5 20.5t-79.5 14.5l-96 10l-4 33h616z" />
<glyph horiz-adv-x="1103" d="M520 -27q-100 0 -183 32t-142.5 90.5t-92 139t-32.5 181.5q0 121 40 227.5t110.5 185t166.5 124.5t207 46q100 0 183 -32.5t142.5 -91t92 -140.5t32.5 -182q0 -121 -39.5 -226.5t-110.5 -184.5t-167 -124t-207 -45zM522 27q102 0 187.5 43t147 115.5t95 168t33.5 199.5 q0 86 -28.5 157.5t-81 124t-124 82t-157.5 29.5q-104 0 -189.5 -44t-146.5 -117.5t-95 -169t-34 -199.5q0 -86 28.5 -157t81 -123t125 -80.5t158.5 -28.5z" />
<glyph horiz-adv-x="718" d="M18 35l84 8q86 2 88 35l156 813q2 14 -14.5 21.5t-69.5 11.5l-76 8v35h541q-2 -2 -2 -6t-1 -6.5t-1 -6.5q-2 -8 -6 -16l-80 -8q-84 -2 -92 -37l-154 -811q-4 -14 12.5 -21.5t71.5 -11.5l74 -8v-35h-541z" />
<glyph horiz-adv-x="1267" d="M1094 662q68 -29 106.5 -87.5t38.5 -136.5q0 -96 -49 -180t-135 -147.5t-202 -99.5t-247 -36q-129 0 -231.5 31t-175 86t-111.5 132t-39 169q0 113 70.5 200t187.5 132q-16 43 -16 82q0 57 21.5 108.5t60.5 88t90 57t112 20.5q55 0 100.5 -23.5t75 -63.5t42 -92t4.5 -107 l-29 8q2 33 -6 63.5t-26.5 55t-47.5 39t-65 14.5q-70 0 -111 -53.5t-41 -126.5v-17.5t2 -17.5q10 2 19.5 2h19.5q86 0 138 -37t52 -90q0 -41 -36.5 -67.5t-96.5 -26.5q-78 0 -144.5 43t-100.5 108q-106 -57 -107 -190q0 -180 142.5 -281.5t400.5 -101.5q98 0 181 24.5 t141.5 67.5t91 101.5t32.5 125.5q0 39 -14 75t-38 62.5t-55.5 42t-66.5 15.5q-27 0 -56.5 -14.5t-55 -37t-42 -49t-16.5 -49.5q0 -47 35 -74.5t88 -29.5q-23 12 -31 37.5t-3 51.5t24.5 44t54.5 18q37 0 60.5 -23.5t23.5 -62.5q0 -41 -31.5 -70.5t-85.5 -29.5 q-88 0 -149.5 58.5t-61.5 154.5q0 63 33 104t82 70t105.5 51.5t105.5 47t82 57.5t33 84q0 45 -35 74.5t-94 31.5q23 -10 34 -35.5t7 -54.5t-24.5 -50.5t-61.5 -21.5t-68 25t-27 66q0 47 38 77.5t91 30.5q47 0 88.5 -18.5t71 -50t47 -74.5t17.5 -92q0 -72 -47 -120t-170 -97z M479 733q14 -53 50 -85t85 -32q16 0 29.5 12.5t13.5 24.5q0 33 -42 56.5t-103 23.5h-33z" />
<glyph horiz-adv-x="1355" d="M678 -195q-135 0 -251 45.5t-199 126t-129 194.5t-44 249q2 139 56.5 262t145.5 215t213 144.5t259 50.5q125 0 232.5 -42t185.5 -115t120 -174.5t40 -219.5q-2 -96 -35 -180.5t-87.5 -145.5t-124 -97t-145.5 -36q-51 0 -85.5 12t-57 34t-32 49.5t-7.5 55.5q0 12 5 34 t11.5 46.5t13.5 48t13 37.5h-10q-84 -139 -152.5 -223t-146.5 -84q-33 0 -62.5 13.5t-53 36t-37 52t-13.5 62.5q0 49 17.5 106.5t46 115t68.5 110.5t83 96q59 59 114.5 85t102.5 26q53 0 83 -46.5t28 -111.5h8l66 176l153 -4l-108 -283l-64 -227q-20 -59 2.5 -97t93.5 -38 q49 0 97.5 27.5t87.5 77.5t63.5 119t26.5 153q2 113 -38 207t-112.5 162.5t-174 107.5t-220.5 41q-127 0 -240.5 -50.5t-199.5 -137.5t-136.5 -203.5t-52.5 -247.5q-4 -127 39 -233.5t122 -183.5t187.5 -120t235.5 -43q68 0 131 17.5t118.5 46t99.5 68.5t75 85l18 -26 q-66 -98 -182.5 -162t-261.5 -64zM543 199q20 0 46.5 20.5t56.5 56t61.5 85t62.5 108.5q12 25 27.5 62.5t15.5 50.5q-4 23 -16.5 46t-30.5 43.5t-39.5 33t-44.5 12.5q-18 0 -30.5 -6t-26.5 -19q-25 -23 -51.5 -71t-49 -105t-37 -116.5t-14.5 -104.5q0 -47 20.5 -71.5 t49.5 -24.5z" />
<glyph horiz-adv-x="987" d="M272 375l-61 -119q-37 -68 -58.5 -109t-22.5 -64.5t18.5 -32.5t66.5 -13l39 -4l2 -33h-342l6 33l31 4q37 4 61.5 13t49 38t56.5 85t85 155l268 495l-4 62q18 2 43 12t49.5 23.5t45 31t32.5 33.5h33l104 -792q4 -49 12.5 -78t20.5 -45.5t28.5 -22.5t36.5 -10l50 -4l2 -33 h-486l8 33l46 4q55 4 64 32.5t1 106.5l-22 199h-263zM530 414l-38 362h-9l-190 -362h237z" />
<glyph horiz-adv-x="978" d="M-14 33l61 8q35 4 49.5 11t16.5 16l159 827q2 10 -9 15t-58 10l-49 8v33h436q94 0 161.5 -17.5t109.5 -46.5t61.5 -69t19.5 -85q0 -92 -80 -152.5t-225 -70.5v-6q131 -20 199.5 -84.5t66.5 -150.5q0 -133 -113.5 -206t-347.5 -73h-469zM453 37q53 0 96 21.5t73.5 55 t48 80t17.5 95.5q0 96 -66.5 154.5t-175.5 58.5h-36l-84 -439l69 -26h58zM512 532q106 0 163.5 66t57.5 158q0 76 -47 121t-143 47h-56l-73 -383q8 -2 22.5 -3t29.5 -2t27.5 -2.5t18.5 -1.5z" />
<glyph horiz-adv-x="1079" d="M573 -20q-115 0 -207 34.5t-156.5 94t-98 141.5t-33.5 176q0 106 40 206.5t114.5 177.5t183 123t246.5 46q98 0 166.5 -19.5t109.5 -41.5l123 36l-51 -313h-45l-64 227q-35 31 -90 50.5t-115 19.5q-98 0 -171.5 -50t-123 -131t-74 -181.5t-24.5 -200.5q0 -174 80 -266.5 t215 -92.5q82 0 150.5 40t121.5 114l72 135l43 -4l-76 -291l-67 6q-18 -6 -48 -12t-66 -11t-76 -9t-79 -4z" />
<glyph horiz-adv-x="1093" d="M-14 33l63 8q35 4 48.5 11t15.5 16l159 827q2 10 -9 15t-58 10l-49 8l-2 33h415q123 2 215.5 -30t154.5 -88.5t94 -132t32 -163.5q0 -106 -43 -204.5t-125 -174.5t-198.5 -122t-266.5 -46h-455zM426 37q100 -2 177 43t130 123t81 180t28 217q0 141 -71 232.5t-220 91.5 h-62l-165 -858z" />
<glyph horiz-adv-x="991" d="M-14 33l61 8q35 4 49.5 11t16.5 16l159 827q2 10 -9 15t-58 10l-49 8l-2 33h796l-8 -320l-43 2l-8 49q-14 70 -38 116t-60.5 72.5t-91 36t-128.5 7.5l-86 -2l-77 -416l73 2q86 4 133.5 28.5t73.5 86.5l25 53l35 -2l-84 -377h-35l4 51q4 66 -31 91.5t-139 31.5l-62 4 l-84 -434l142 -4q78 0 137 15.5t106.5 45t84 72.5t69.5 102l23 47h43l-95 -319h-852z" />
<glyph horiz-adv-x="935" d="M-14 33l63 8q35 4 48.5 11t15.5 16l159 827q2 10 -8 15t-55 10l-53 8l-2 33h800l-22 -320l-43 2l-8 49q-16 68 -36 113t-51.5 71.5t-80.5 37t-123 10.5l-103 -4l-81 -424l65 2q88 4 134 27.5t75 84.5l25 54l34 -2l-84 -373h-32v47q0 33 -7.5 57.5t-25 40t-50 22.5 t-83.5 7h-56l-75 -397q-2 -10 8 -15.5t55 -9.5l76 -8v-33h-488z" />
<glyph horiz-adv-x="1128" d="M567 -25q-111 0 -201 32t-154.5 91.5t-99 141.5t-34.5 184q0 113 42 214t119.5 177t185 120t241.5 44q92 0 163.5 -17.5t116.5 -46.5l121 37l-49 -315h-43l-66 235q-33 29 -88 48.5t-114 19.5q-94 0 -169 -46t-127.5 -125t-80 -182.5t-27.5 -217.5q0 -168 74 -262.5 t203 -94.5q41 0 73.5 7.5t51.5 17.5l61 321q2 10 -17.5 13.5t-66.5 11.5l-55 10l-2 31h479l-6 -31l-72 -10q-35 -4 -45 -10t-12 -17l-54 -274l86 10l3 -22q-39 -16 -90.5 -34t-110 -31t-119 -21.5t-117.5 -8.5z" />
<glyph horiz-adv-x="1175" d="M-14 33l63 8q35 4 48.5 11t15.5 16l159 827q2 10 -9 15t-58 10l-49 8l-2 33h464l-6 -33l-63 -8q-35 -4 -49.5 -11.5t-16.5 -15.5l-73 -385h407l78 387q2 10 -9.5 15t-58.5 10l-49 8l-2 33h465l-8 -33l-66 -8q-35 -4 -49 -11.5t-16 -15.5l-158 -827q-2 -10 9.5 -15.5 t58.5 -9.5l49 -8l2 -33h-465l8 33l64 8q63 8 65 27l78 399h-410l-77 -401q-2 -10 9 -15.5t56 -9.5l51 -8l2 -33h-467z" />
<glyph horiz-adv-x="593" d="M0 33l68 8q61 8 65 27l160 827q2 10 -9.5 15t-58.5 10l-55 8l-4 33h479l-6 -33l-70 -8q-35 -4 -50 -11.5t-17 -15.5l-160 -827q-2 -10 10.5 -15.5t59.5 -9.5l53 -8l4 -33h-477z" />
<glyph horiz-adv-x="581" d="M-70 -272q-80 0 -120.5 36.5t-38.5 83.5q2 43 32.5 74t75.5 31q39 0 63.5 -19.5t35 -47t3 -60.5t-33.5 -59q135 -12 190 296l160 832q2 10 -8 15t-58 10l-63 8v33h477l-6 -33l-68 -8q-35 -4 -49 -11.5t-16 -15.5l-158 -823q-10 -59 -51 -120t-100.5 -110t-129 -80.5 t-137.5 -31.5z" />
<glyph horiz-adv-x="1093" d="M-14 33l63 8q35 4 48.5 11t15.5 16l159 827q2 10 -8 15t-55 10l-53 8l-2 33h473l-9 -33l-69 -8q-35 -4 -49.5 -11.5t-16.5 -15.5l-86 -447l273 234q86 74 131 120t54 71.5t-12.5 37t-64.5 17.5l-39 4l-4 31h418l-8 -31l-45 -6q-39 -4 -72 -17.5t-71.5 -40t-91 -69.5 t-128.5 -107l-61 -51l205 -479q14 -41 27.5 -64.5t25.5 -36t27.5 -16.5t33.5 -6l35 -4l2 -33h-454l4 33l30 4q47 4 52.5 31.5t-27.5 117.5l-129 310l-119 -101l-63 -329q-2 -10 9 -15.5t56 -9.5l55 -8l5 -33h-471z" />
<glyph horiz-adv-x="931" d="M-14 33l63 8q35 4 48.5 11t15.5 16l159 827q2 10 -8 15t-55 10l-53 8l-2 33h485l-6 -33l-84 -8q-27 -4 -45.5 -11.5t-20.5 -15.5l-164 -852l97 -4q70 0 123 13t96 44t81 81t79 122l26 53h41l-90 -350h-795z" />
<glyph horiz-adv-x="1337" d="M-29 33l45 6q31 2 51.5 8t34 20.5t21.5 39t14 63.5l156 700q-16 47 -74 52l-57 6l-2 33h377l104 -687h8l381 687h359l-7 -33l-69 -8q-35 -4 -48.5 -11.5t-15.5 -15.5l-147 -776q-6 -47 5 -59.5t58 -16.5l52 -8l2 -33h-474l7 33l73 8q35 4 48.5 18.5t19.5 59.5l143 758 h-10l-485 -867h-68l-133 830q0 6 -5 14t-7 4l-150 -698q-6 -37 -6 -58.5t10.5 -35t30.5 -19.5t55 -8l45 -6l2 -33h-350z" />
<glyph horiz-adv-x="1110" d="M330 797h-8l-123 -631q-10 -72 8 -97.5t84 -29.5l43 -6l2 -33h-348l6 33l43 6q59 4 83.5 31.5t37.5 103.5l129 641q-35 90 -115 105l-31 8l-2 33h357l376 -668h9l96 500q12 72 -7.5 97t-84.5 32l-43 6l-2 33h348l-8 -33l-41 -6q-59 -4 -84 -33t-37 -105l-160 -794h-65z " />
<glyph horiz-adv-x="1140" d="M559 -23q-109 0 -196 36t-148 98.5t-95 146.5t-34 180q0 104 39 201.5t110.5 172.5t172 121t223.5 46q106 0 194 -37t150.5 -100.5t97.5 -148.5t35 -181q0 -104 -40 -201.5t-112.5 -171t-174 -118t-222.5 -44.5zM543 14q80 0 144.5 55.5t109.5 143.5t68.5 197.5 t23.5 218.5q0 137 -60.5 223t-181.5 86q-86 0 -151.5 -63.5t-108.5 -156.5t-64.5 -202.5t-21.5 -202.5q0 -131 61.5 -215t180.5 -84z" />
<glyph horiz-adv-x="964" d="M-20 33l69 8q35 4 48.5 11t15.5 16l159 827q2 10 -9 15t-58 10l-53 8l-2 33h454q188 0 282.5 -73t94.5 -177q0 -68 -31.5 -122t-88 -92t-132.5 -58.5t-162 -20.5q-47 0 -93 5t-77 13l-71 -370q-2 -10 8 -15.5t55 -9.5l76 -8l2 -33h-494zM518 459q51 0 95 22.5t76 61.5 t49.5 90t17.5 106q0 78 -46 129.5t-128 55.5h-95l-81 -449q18 -6 47.5 -11t64.5 -5z" />
<glyph horiz-adv-x="1140" d="M866 -285q-90 0 -161.5 12.5t-128 43t-97.5 86t-69 141.5q-74 20 -134.5 63t-102.5 100.5t-64.5 128t-22.5 148.5q0 104 39 201.5t110.5 172.5t172 121t223.5 46q106 0 194 -37t150.5 -100.5t97.5 -148.5t35 -181q0 -94 -32 -181t-91 -158t-142 -120t-184 -67 q23 -70 51.5 -114t70.5 -70.5t102.5 -36t144.5 -9.5v-28q-27 -4 -69 -8.5t-93 -4.5zM543 14q80 0 144.5 55.5t109.5 143.5t68.5 197.5t23.5 218.5q0 137 -60.5 223t-181.5 86q-86 0 -151.5 -63.5t-108.5 -156.5t-64.5 -202.5t-21.5 -202.5q0 -131 61.5 -215t180.5 -84z" />
<glyph horiz-adv-x="1038" d="M-20 33l69 8q59 10 64 27l159 827q2 10 -9 15t-58 10l-53 8l-2 33h458q176 0 275.5 -67t99.5 -173q0 -104 -78 -170t-219 -78l131 -297q16 -39 30.5 -63.5t30 -40t34 -23.5t44.5 -12l25 -4l4 -33h-328l-174 467q-10 4 -37.5 10t-37.5 12l-82 -423q-2 -10 12 -15.5 t51 -9.5l64 -8l2 -33h-482zM537 504q98 2 162.5 65.5t64.5 167.5q0 80 -50 133.5t-149 53.5h-76l-75 -398q12 -4 29.5 -8t35 -7t34 -5t24.5 -2z" />
<glyph horiz-adv-x="839" d="M381 -23q-111 0 -198 26t-142 54l29 267l36 -2l44 -158q33 -72 89 -110t140 -38q98 0 153.5 57.5t55.5 133.5q0 37 -15.5 65.5t-43 53t-64.5 46t-78 42.5q-45 25 -89 52.5t-78 61t-54.5 74.5t-20.5 92q0 55 25 106.5t69 90.5t107.5 62.5t142.5 23.5q72 0 134.5 -17.5 t109.5 -33.5l88 20l-45 -287h-37l-77 228q-27 20 -71 36.5t-91 16.5q-80 0 -130.5 -45t-50.5 -111q0 -70 56.5 -113.5t142.5 -88.5q45 -25 89 -52.5t79 -62.5t55.5 -78t20.5 -96q0 -59 -26.5 -116.5t-76 -101.5t-120 -71t-158.5 -27z" />
<glyph horiz-adv-x="1056" d="M227 33l76 8q35 4 49.5 11t16.5 16l161 856h-38q-53 -2 -99.5 -22.5t-85.5 -52.5t-69.5 -71t-53.5 -78l-28 -57h-43l92 318h882l-40 -318h-41l-7 55q-16 92 -66 159t-151 67h-39l-168 -858q-2 -10 9.5 -15.5t58.5 -9.5l64 -8l2 -33h-488z" />
<glyph horiz-adv-x="1095" d="M553 -27q-184 0 -291.5 73t-107.5 218q0 51 12 117l100 514q0 10 -10 15t-57 10l-54 8l-4 33h477l-6 -33l-71 -8q-35 -4 -49.5 -11.5t-16.5 -15.5l-94 -494q-6 -35 -10 -64.5t-4 -58.5q0 -119 67.5 -171t186.5 -52q111 0 176 65.5t94 207.5l90 454q14 86 -5.5 112 t-84.5 30l-43 6l-4 33h350l-6 -33l-45 -6q-29 -2 -49.5 -8.5t-33.5 -23t-22.5 -45t-17.5 -75.5l-92 -457q-33 -166 -123 -253t-252 -87z" />
<glyph horiz-adv-x="1011" d="M244 776q-10 49 -17.5 77t-17.5 43t-24.5 19.5t-37.5 6.5l-45 6l-2 33h475l-6 -33l-51 -4q-33 -2 -49 -7.5t-22.5 -18.5t-2 -37.5t12.5 -65.5l108 -564h10l248 449q43 76 66.5 122t26 72.5t-18 37t-70.5 14.5l-34 2l-5 33h347l-9 -33l-28 -4q-37 -4 -60.5 -13.5t-49 -38 t-58.5 -85t-88 -154.5l-369 -643h-70z" />
<glyph d="M233 776q-10 45 -17 73t-17.5 43t-24.5 21.5t-37 8.5l-43 6l-2 33h475l-8 -33l-51 -4q-29 -2 -45.5 -7.5t-22.5 -16.5t-6 -31.5t6 -51.5l107 -579h8l266 477l-10 61q-16 82 -32.5 112t-59.5 34l-49 6l-2 33h487l-8 -33l-49 -4q-53 -4 -67.5 -24.5t-4.5 -90.5l86 -565h8 l234 432q41 76 63.5 122t24.5 72.5t-19.5 38t-68.5 15.5l-35 4l-4 33h348l-8 -33l-27 -4q-37 -6 -60.5 -15.5t-48 -36t-54 -77t-76.5 -133.5l-373 -680h-68l-108 671h-9l-380 -671h-66z" />
<glyph horiz-adv-x="1028" d="M-59 33l53 6q31 2 57.5 13t56 37t68.5 67t96 102l170 188l-159 334q-16 39 -28.5 65.5t-24 43t-24.5 25t-32 8.5l-51 6l-4 33h477l-8 -33l-43 -4q-47 -4 -56.5 -28t23.5 -97l92 -211h4l113 127q57 66 89 104.5t38 60t-14.5 31t-67.5 13.5l-37 4l-2 33h371l-8 -33l-43 -6 q-33 -4 -59.5 -13.5t-57.5 -33t-71 -65.5t-101 -110l-133 -145l192 -401q29 -68 46.5 -90.5t47.5 -26.5l43 -4l4 -33h-466l6 33l43 4q49 4 59 24.5t-12 69.5l-123 283h-4l-150 -168q-55 -61 -85.5 -100.5t-36 -62t14 -32.5t64.5 -14l35 -4l2 -33h-371z" />
<glyph horiz-adv-x="991" d="M193 33l77 8q61 6 66 27l70 354l-154 381q-23 66 -43.5 90.5t-65.5 28.5l-34 6l-3 33h474l-7 -33l-32 -4q-66 -6 -79 -32t7 -79l123 -338h10l162 223q49 68 76.5 110t32 65.5t-16 34t-65.5 16.5l-37 4l-4 33h354l-6 -33l-39 -6q-29 -4 -52.5 -14.5t-51 -37t-64.5 -71.5 t-92 -117l-181 -242l-73 -374q-2 -10 9 -15.5t58 -9.5l62 -8l2 -33h-490z" />
</font>
</defs>
</svg>
