<?xml version="1.0" standalone="no"?>
<!DOCTYPE svg PUBLIC "-//W3C//DTD SVG 1.1//EN" "http://www.w3.org/Graphics/SVG/1.1/DTD/svg11.dtd" >
<svg xmlns="http://www.w3.org/2000/svg" xmlns:xlink="http://www.w3.org/1999/xlink" version="1.1">
<metadata></metadata>
<defs>
<font id="freightdisp_prosemibold" horiz-adv-x="1536" >
<font-face units-per-em="2048" ascent="1638" descent="-410" />
<missing-glyph horiz-adv-x="368" />
<glyph unicode="&#xfb00;" horiz-adv-x="1210" d="M53 33l45 6q41 4 58.5 10t17.5 25v712l-162 5l35 94l123 -2l4 45q12 111 55 191.5t106.5 134t139.5 79t156 25.5q84 0 134 -36t50 -91q0 -45 -29.5 -75t-76.5 -30q-59 0 -98.5 47.5t-43.5 120.5l-53 15q-74 -31 -104.5 -110t-30.5 -224v-90l358 -2l4 73q8 100 48 179 t100.5 132.5t134.5 81t147 27.5q86 0 129 -34.5t43 -81.5q0 -45 -30.5 -75t-75.5 -30q-49 0 -87 38t-54 107q-2 2 -2 7v8l-39 4q-66 -29 -88.5 -105.5t-22.5 -220.5v-108h256l-26 -97h-230v-722q0 -14 16.5 -20.5t77.5 -10.5l78 -2l6 -33h-506l5 33l43 2q43 4 60 10t17 25 v721h-362v-719q0 -14 13.5 -22.5t68.5 -10.5l76 -6l6 -33h-496z" />
<glyph unicode="&#xfb01;" horiz-adv-x="1107" d="M53 33l41 2q43 4 61.5 10t18.5 25v716l-162 5l35 94l123 -2l6 69q8 104 51 185.5t109.5 135.5t150.5 81.5t170 27.5t144.5 -37.5t58.5 -103.5q0 -45 -31.5 -76.5t-78.5 -31.5q-66 0 -105 49t-45 125l-76 18q-76 -31 -110.5 -111.5t-34.5 -228.5v-100h387l176 24v-843 q0 -16 17.5 -21.5t76.5 -9.5l35 -2l4 -33h-461l7 33l41 2q47 4 62 10t15 25v718h-360v-722q0 -14 14.5 -20.5t73.5 -10.5l68 -2l6 -33h-494z" />
<glyph unicode="&#xfb02;" horiz-adv-x="1101" d="M942 1393v-1327q0 -14 16.5 -19.5t77.5 -11.5l35 -2l4 -33h-461l7 33l36 2q45 4 63.5 10t18.5 25v718h-360v-722q0 -14 14.5 -20.5t73.5 -10.5l68 -2l6 -33h-494l6 33l41 2q43 4 61.5 10t18.5 25v716l-162 5l35 94l123 -2l6 69q8 104 51 185.5t108.5 135.5t147.5 81.5 t168 27.5q88 0 140 -39zM739 1147h-2q-66 0 -106.5 47t-44.5 113l-66 18q-78 -31 -109.5 -111.5t-31.5 -228.5v-100h360v262z" />
<glyph unicode="&#xfb03;" horiz-adv-x="1671" d="M53 33l45 6q41 4 58.5 10t17.5 25v712l-162 5l35 94l123 -2l4 45q12 111 55 191.5t106.5 134t139.5 79t156 25.5q84 0 134 -36t50 -91q0 -45 -30.5 -75t-75.5 -30q-59 0 -98.5 50.5t-43.5 117.5l-53 15q-74 -31 -104.5 -110t-30.5 -224v-90l358 -2l4 69q8 104 52.5 185.5 t111 135.5t150.5 81.5t170 27.5t144 -37.5t58 -103.5q0 -45 -32.5 -76.5t-79.5 -31.5q-66 0 -105 49t-45 125l-75 18q-78 -31 -112 -111.5t-34 -228.5v-100h387l176 24v-843q0 -16 17.5 -21.5t79.5 -9.5l32 -2l6 -33h-460l6 33l41 4q43 4 59.5 9t16.5 24v718h-361v-722 q0 -14 14.5 -20.5t73.5 -10.5l70 -2l6 -33h-492l5 33l43 2q43 4 60 10t17 25v721h-362v-719q0 -14 13.5 -22.5t68.5 -10.5l76 -6l6 -33h-496z" />
<glyph unicode="&#xfb04;" horiz-adv-x="1667" d="M1507 1393v-1327q0 -14 16.5 -19.5t80.5 -11.5l32 -2l6 -33h-460l6 33l39 2q47 4 62.5 10t15.5 25v718h-361v-722q0 -14 14.5 -20.5t73.5 -10.5l70 -2l6 -33h-492l5 33l43 2q43 4 60 10t17 25v721h-362v-719q0 -14 13.5 -22.5t68.5 -10.5l76 -6l6 -33h-496l6 33l45 6 q41 4 58.5 10t17.5 25v712l-162 5l35 94l123 -2l4 45q12 111 55 191.5t106.5 134t139.5 79t156 25.5q84 0 134 -36t50 -91q0 -45 -30.5 -75t-75.5 -30q-59 0 -98.5 45.5t-43.5 122.5l-53 15q-74 -31 -104.5 -110t-30.5 -224v-90l358 -2l4 69q8 104 51.5 185.5t110 135.5 t149.5 81.5t169 27.5q84 0 139 -39zM1305 1147q-63 4 -101.5 49t-42.5 111l-74 18q-78 -31 -110.5 -113t-32.5 -229v-98h361v262z" />
<glyph horiz-adv-x="0" />
<glyph unicode="&#xd;" horiz-adv-x="368" />
<glyph horiz-adv-x="0" />
<glyph horiz-adv-x="0" />
<glyph unicode=" "  horiz-adv-x="368" />
<glyph unicode="&#x09;" horiz-adv-x="368" />
<glyph unicode="&#xa0;" horiz-adv-x="368" />
<glyph unicode="!" horiz-adv-x="548" d="M160 1194q-8 45 12.5 81t101.5 36h5q41 0 65.5 -9.5t36.5 -25.5t14 -37.5t0 -44.5l-104 -807q-2 -10 -13.5 -10t-13.5 10zM276 -29q-55 0 -93 38t-38 91q0 51 38 89t93 38q57 0 93.5 -37.5t36.5 -89.5q0 -53 -36.5 -91t-93.5 -38z" />
<glyph unicode="&#x22;" horiz-adv-x="704" d="M567 1321h2l146 -57l-336 -439h-31zM223 1321h4l146 -57l-338 -439h-31z" />
<glyph unicode="#" horiz-adv-x="1060" d="M256 387h-274v37h286l111 428h-275v37h285l109 405h43l-109 -405h334l108 405h41l-106 -405h276v-37h-286l-111 -428h275v-37h-287l-105 -397h-41l105 397h-334l-106 -397h-43zM643 424l113 428h-332l-115 -428h334z" />
<glyph unicode="$" horiz-adv-x="995" d="M307 -16q-61 10 -118.5 22t-108.5 29l-17 338h41l119 -256q47 -41 103 -64l133 508l-13 4q-76 27 -140 58.5t-112.5 74.5t-75 101.5t-26.5 138.5q0 70 29 135.5t84 117.5t134 84t181 32q35 0 68 -3.5t63 -7.5l58 217h43q-18 -63 -31 -112q-6 -23 -11 -42.5t-10 -35.5 q-6 -18 -8 -35q29 -4 54.5 -11t50.5 -13l88 28l2 -364h-39l-129 270l-45 25q-35 -125 -60 -224l-57 -225h2q84 -29 156.5 -63.5t126 -80.5t84 -109.5t30.5 -149.5q0 -74 -33.5 -145.5t-96 -128t-150.5 -91.5t-197 -35q-33 0 -65.5 2t-65.5 7l-82 -314h-43zM365 39 q66 -23 124 -21q59 0 109.5 18.5t87.5 52.5t57.5 80t20.5 101t-20.5 97.5t-55.5 75t-84 57t-106 47.5zM637 1239q-61 23 -127 23q-53 0 -96 -17.5t-74 -47.5t-48.5 -70t-17.5 -83q0 -53 17.5 -91t50.5 -67.5t78 -53t98 -44.5z" />
<glyph unicode="%" horiz-adv-x="1216" d="M301 748q-66 0 -117 22.5t-87 61t-55 90t-19 108.5t19 109.5t55 91.5t87.5 62.5t116.5 23.5q66 0 118 -23.5t89 -62.5t56.5 -91.5t19.5 -109.5t-19.5 -108.5t-56.5 -90t-89 -61t-118 -22.5zM1044 1311h50l-924 -1340h-51zM913 -35q-66 0 -117 22.5t-86.5 61.5t-55 90 t-19.5 109q0 57 19.5 109.5t55 91t87 62.5t116.5 24q66 0 118 -24t88 -62.5t55.5 -91t19.5 -109.5t-19.5 -108.5t-55.5 -90.5t-88 -61.5t-118 -22.5zM301 791q55 0 98 19t74 51t47.5 76t16.5 93q0 100 -62.5 172t-173.5 72q-109 0 -170 -72t-61 -172q0 -49 16 -93t46 -76 t73 -51t96 -19zM913 8q109 0 171.5 69.5t62.5 172.5q0 49 -16.5 92t-47 77t-73.5 53.5t-97 19.5q-53 0 -96 -19.5t-72.5 -53.5t-46 -77t-16.5 -92q0 -102 61 -172t170 -70z" />
<glyph unicode="&#x26;" horiz-adv-x="1470" d="M418 -29q-92 0 -165 30t-123 79t-76.5 114.5t-26.5 137.5q0 74 26.5 137t72.5 114.5t110.5 90.5t142.5 63q-86 41 -139.5 111t-53.5 158q0 61 32 115.5t84 96.5t117.5 65.5t135.5 23.5q78 0 140.5 -19.5t106.5 -51.5t67.5 -75t23.5 -90q0 -90 -69.5 -154.5t-186.5 -99.5 q49 -25 102.5 -64.5t101.5 -90t90 -104.5t70 -105q57 78 103.5 151.5t48.5 116.5q10 74 -141 88l-29 6l-6 29h508l-6 -29l-33 -6q-37 -4 -67.5 -14.5t-61.5 -32t-62.5 -55t-68.5 -82.5l-164 -209q39 -84 73.5 -143.5t68.5 -96.5t70 -53.5t79 -16.5q51 0 92 23t76 57l20 -24 q-29 -31 -63.5 -65t-73.5 -61.5t-83 -46t-93 -18.5q-117 0 -190.5 71t-133.5 204q-47 -57 -99 -107.5t-107.5 -87.5t-116 -58.5t-123.5 -21.5zM600 834q61 35 85 93t24 130q0 37 -10.5 74.5t-32 68.5t-52 50.5t-73.5 19.5q-78 0 -123 -56.5t-45 -134.5q0 -84 55 -141 t172 -104zM530 127q82 0 161 38t155 120q-66 152 -175.5 263t-256.5 171q-102 -63 -142.5 -139t-40.5 -164q0 -61 22.5 -113.5t62.5 -91.5t95.5 -61.5t118.5 -22.5z" />
<glyph unicode="'" horiz-adv-x="366" d="M223 1321h4l146 -57l-338 -439h-31z" />
<glyph unicode="(" horiz-adv-x="696" d="M668 -551q-82 43 -176.5 127t-174 205t-133 275.5t-53.5 340.5t53.5 342t133 276t174 204t176.5 127l22 -35q-80 -43 -169 -126t-164.5 -200t-126 -265.5t-50.5 -322.5q0 -176 50.5 -324.5t126 -265t164.5 -198.5t169 -125l-22 -35v0z" />
<glyph unicode=")" horiz-adv-x="696" d="M6 -518q80 45 169 127t165 198.5t126 265t50 324.5q0 174 -50 322.5t-126 265.5t-165 200t-169 126l23 35q82 -43 176 -127t174 -204t133 -275.5t53 -342.5q0 -186 -53 -340.5t-133 -275.5t-174 -205t-176 -127z" />
<glyph unicode="*" horiz-adv-x="657" d="M313 713l6 235q0 4 -7 7t-7 -1l-123 -196l-133 -2q-4 0 -10 6t-4 8l37 131l223 62q2 4 2 11t-2 11l-223 66l-41 129q2 4 6 9t8 5h137l121 -201q2 -4 9 -1t7 7l-4 240l109 72q4 2 11 -1t7 -5l45 -123l-153 -187q-4 -4 1 -11t9 -5l223 84l105 -82q2 0 2 -8t-2 -10l-105 -82 l-223 88q-4 0 -9 -7.5t-1 -11.5l149 -186l-45 -121q0 -2 -8 -5t-10 -1z" />
<glyph unicode="+" horiz-adv-x="917" d="M436 461h-405l6 45h399v405h45v-405h400l6 -45h-406v-406h-45v406z" />
<glyph unicode="," horiz-adv-x="411" d="M55 -266q78 43 127 106.5t49 132.5q0 45 -20.5 75t-48 46.5t-56 18.5t-47.5 -11q-8 25 -4 51.5t21.5 50t46.5 39t67 15.5q78 0 130.5 -51t52.5 -135q0 -51 -23.5 -103.5t-63.5 -99.5t-94.5 -88t-113.5 -68z" />
<glyph unicode="-" horiz-adv-x="604" d="M53 528h506l-4 -92h-508z" />
<glyph unicode="." horiz-adv-x="440" d="M221 -27q-59 0 -99 41t-40 97q0 53 40 92t99 39t97 -39t38 -92q0 -55 -38 -96.5t-97 -41.5z" />
<glyph unicode="/" horiz-adv-x="528" d="M461 1319h45l-434 -1796h-45z" />
<glyph unicode="0" horiz-adv-x="1146" d="M567 -25q-109 0 -201 37t-158.5 104.5t-104 161t-37.5 205.5q0 113 39.5 208t108.5 164t163 106.5t203 37.5q106 0 198 -36.5t160 -104t105.5 -162t37.5 -207.5q0 -115 -40 -209t-108.5 -161.5t-162.5 -105.5t-203 -38zM575 23q66 0 119.5 35.5t91 97t58 143.5t20.5 174 q0 106 -19.5 193.5t-57 150t-92 97t-124.5 34.5q-66 0 -120 -34.5t-91.5 -95t-58 -141.5t-20.5 -171q0 -225 75.5 -354t218.5 -129z" />
<glyph unicode="1" horiz-adv-x="727" d="M117 33l80 8q41 4 59 11t18 26v794l-208 25l6 29l407 65v-917q0 -12 18.5 -20.5t73.5 -12.5l78 -8l6 -33h-544z" />
<glyph unicode="2" horiz-adv-x="948" d="M41 66q137 106 235.5 186t160 146.5t90 124t28.5 120.5q0 94 -60.5 153.5t-150.5 59.5q-84 0 -145.5 -42t-108.5 -126l-22 12q61 139 161.5 218t233.5 79q61 0 114.5 -20.5t93.5 -55t62.5 -82.5t22.5 -106q0 -72 -36 -134t-103.5 -126.5t-166 -138.5t-223.5 -168v-4 l394 -2q51 0 86.5 10t63.5 34.5t51.5 63.5t47.5 99l19 39l33 -3l-76 -403h-797z" />
<glyph unicode="3" horiz-adv-x="858" d="M285 -412q-123 0 -196 47.5t-73 110.5q0 47 30 77t77 30q35 0 63.5 -17.5t49 -45.5t29.5 -64.5t5 -75.5q4 0 30 -5t46 -5q51 0 99.5 22.5t85 63.5t59 97t22.5 126q0 145 -79.5 231t-213.5 86q-45 0 -87 -9t-82 -26l-11 29q84 51 153.5 94t121 86t79 90.5t27.5 110.5 q0 92 -58.5 153.5t-152.5 61.5q-168 0 -256 -168q-2 0 -13 6t-9 6q57 139 157.5 218t231.5 79q68 0 122 -20.5t94 -55t61.5 -81.5t21.5 -101q0 -61 -23.5 -109t-63.5 -88t-93.5 -74t-112.5 -67v-4q88 0 157.5 -25.5t119 -72.5t76 -110.5t26.5 -137.5q0 -90 -41 -174 t-111.5 -148.5t-164.5 -102.5t-203 -38z" />
<glyph unicode="4" horiz-adv-x="1009" d="M559 20h-536l-3 31l650 930h82v-815h241l-37 -146h-204v-397h-193v397zM559 166v582h-4l-408 -582h412z" />
<glyph unicode="5" horiz-adv-x="839" d="M238 -410q-135 0 -200 42t-65 114q0 45 31 76t78 31q33 0 60.5 -17.5t46 -45.5t29.5 -62.5t11 -69.5q16 -8 36 -12t48 -4q51 0 98.5 22.5t83 63.5t57 96t21.5 123q0 160 -131 262t-366 137l157 621h551l-34 -195h-519l-63 -248q152 -25 261.5 -69.5t181 -105 t105.5 -135.5t34 -159q0 -94 -42 -178t-113 -147.5t-163 -101.5t-194 -38z" />
<glyph unicode="6" horiz-adv-x="1052" d="M530 -27q-109 0 -194.5 40t-146 108.5t-93.5 161t-33 196.5q0 176 71 327.5t195 266.5t290.5 185.5t361.5 87.5l6 -33q-147 -23 -262 -83.5t-199 -146.5t-138 -188t-83 -209l2 -4q66 53 147 89t167 36q78 0 145.5 -27.5t116.5 -78t76.5 -122t27.5 -159.5q0 -100 -37 -182 t-99.5 -140.5t-145.5 -91.5t-175 -33zM553 14q106 0 165.5 93.5t59.5 252.5q0 80 -20.5 144.5t-57 111t-87 72t-107.5 25.5q-61 0 -113.5 -23.5t-87.5 -58.5q-8 -12 -15 -59.5t-7 -96.5q0 -96 16 -179t49 -146.5t84 -99.5t121 -36z" />
<glyph unicode="7" horiz-adv-x="919" d="M778 778v6h-313q-102 0 -167 -4t-102.5 -17t-58 -40t-33.5 -72l-20 -51h-37l45 367h795l6 -35l-569 -1309h-158z" />
<glyph unicode="8" horiz-adv-x="1011" d="M504 -29q-92 0 -172 24.5t-139.5 69t-93 106.5t-33.5 136q0 113 86 194t219 115v5q-57 27 -106.5 58.5t-85.5 70t-56.5 87t-20.5 107.5q0 63 27 130t77 119t126 86t174 34q86 0 159.5 -23.5t128 -66.5t85 -103.5t30.5 -132.5q0 -96 -77.5 -165.5t-194.5 -108.5v-4 q63 -31 119.5 -65t99.5 -77t67.5 -96t24.5 -123q0 -76 -32.5 -143.5t-91 -119.5t-140.5 -83t-180 -31zM598 725q119 90 119 254q0 53 -15.5 106.5t-45 96.5t-72.5 69.5t-99 26.5q-49 0 -88 -19.5t-64.5 -52t-38.5 -73.5t-13 -84q0 -59 24.5 -106.5t67.5 -85.5t101 -69.5 t124 -62.5zM526 10q57 0 103.5 18.5t78 50.5t48 74t16.5 89q0 68 -30.5 120t-82 95t-118 76.5t-135.5 64.5q-70 -45 -108 -115.5t-38 -167.5q0 -57 18.5 -111t53.5 -97.5t84 -70t110 -26.5z" />
<glyph unicode="9" horiz-adv-x="1052" d="M61 -338q147 23 262 84t199 147.5t138.5 188.5t82.5 209l-4 4q-63 -55 -144 -89t-167 -34q-78 0 -145.5 26.5t-116.5 77t-77 121t-28 160.5q0 100 37 183t100.5 141.5t146.5 91.5t175 33q106 0 193.5 -40t148 -110t93 -162t32.5 -196q0 -176 -70.5 -327t-195.5 -265.5 t-293 -186t-360 -88.5zM545 264q61 0 112.5 22.5t87.5 59.5q8 12 14.5 60.5t6.5 97.5q0 88 -15.5 171t-48 146.5t-84 101.5t-122.5 38q-102 0 -164 -90.5t-62 -252.5q0 -78 20.5 -142t57.5 -111.5t87.5 -74t109.5 -26.5z" />
<glyph unicode=":" horiz-adv-x="436" d="M221 592q-59 0 -99 41t-40 94t40 92t99 39t97 -39t38 -92t-38 -94t-97 -41zM221 -27q-59 0 -99 41t-40 95q0 53 40 92t99 39t97 -39t38 -92t-38 -94.5t-97 -41.5z" />
<glyph unicode=";" horiz-adv-x="411" d="M209 592q-57 0 -96 40t-39 95q0 53 39 92t96 39q59 0 98 -39t39 -92q0 -55 -39 -95t-98 -40zM55 -264q78 41 127 104.5t49 132.5q0 45 -20.5 75t-48 45.5t-56 17.5t-47.5 -9q-8 23 -4 49.5t21.5 50t46.5 39t67 15.5q78 0 130.5 -51t52.5 -133q0 -51 -23.5 -103.5 t-63.5 -98.5t-94.5 -86t-113.5 -67z" />
<glyph unicode="&#x3c;" horiz-adv-x="897" d="M27 467v29l813 395l16 -41l-754 -363v-8l754 -366l-16 -41z" />
<glyph unicode="=" horiz-adv-x="917" d="M53 682h811l-6 -45h-799zM59 328h799l6 -45h-811z" />
<glyph unicode="&#x3e;" horiz-adv-x="897" d="M57 72l-16 41l754 366v8l-754 363l16 41l813 -395v-29z" />
<glyph unicode="?" horiz-adv-x="675" d="M303 371q-29 20 -57.5 49t-51 61.5t-38 64.5t-15.5 60q0 90 58.5 132t169.5 83q102 41 149 69t47 73q0 61 -76.5 111t-232.5 50q-47 0 -87 -6t-69 -12q-16 16 -26.5 42t-10.5 56q-2 47 34 77t120 30q90 0 163 -35t125 -91.5t80.5 -127t28.5 -144.5q0 -57 -10 -96 t-33.5 -67.5t-59.5 -50t-87 -44.5q-41 -16 -73 -29.5t-55.5 -28.5t-35.5 -32.5t-12 -44.5q0 -43 24.5 -75.5t65.5 -71.5zM311 -29q-55 0 -93 39t-38 92q0 49 38 87t93 38q57 0 94 -37.5t37 -87.5q0 -53 -37 -92t-94 -39z" />
<glyph unicode="@" horiz-adv-x="1622" d="M811 -231q-164 0 -302 54t-237.5 151.5t-155 232.5t-53.5 297q2 168 67 317.5t175.5 260t256 174t310.5 63.5q152 -2 280 -51t221 -137.5t144.5 -209t49.5 -264.5q-2 -117 -42 -217t-106.5 -175t-150.5 -118t-172 -43q-61 0 -104.5 14.5t-69 39t-37 55.5t-8.5 63 q0 14 4 39t11 53.5t15 55.5t17 45h-13q-100 -160 -182 -257t-170 -97q-39 0 -73.5 14t-61.5 40t-42 60.5t-15 75.5q0 61 24.5 133t63.5 141.5t89 133t101 112.5q66 61 128.5 95t121.5 34q57 0 89 -56t34 -130h8l76 215l166 -6l-127 -332l-82 -274q-29 -86 -3.5 -132 t122.5 -46q63 0 124.5 34.5t110.5 97t80 147.5t33 185q2 135 -46 249t-136.5 197t-209 130t-264.5 49q-156 0 -294 -61.5t-241.5 -167t-164.5 -247.5t-64 -302q-2 -154 50.5 -282t146.5 -221t225 -144.5t287 -51.5q88 0 169 22.5t150.5 61.5t126 91.5t93.5 111.5l20 -31 q-41 -61 -99 -115.5t-130 -93t-157 -61t-177 -22.5zM645 231q25 0 57.5 26t70.5 72t78 107.5t81 134.5q16 33 33.5 77t17.5 61q-4 25 -18.5 50t-37 46.5t-51 36t-59.5 14.5q-25 0 -42 -8t-36 -25q-31 -29 -62.5 -85t-58 -122.5t-44 -135t-17.5 -122.5q0 -61 26.5 -94 t61.5 -33z" />
<glyph unicode="A" horiz-adv-x="1296" d="M369 522l-66 -186q-31 -90 -45 -145.5t-8 -86t35.5 -44t89.5 -19.5l53 -8l6 -33h-454l6 33l37 6q45 6 74.5 20.5t57 57.5t60.5 125t86 225l231 645l-18 68q20 6 46 21.5t48.5 33.5t42 39.5t27.5 40.5h31l358 -1075q20 -59 36.5 -97.5t34 -60t38 -30.5t51.5 -11l67 -8 l6 -33h-604l6 33l68 8q37 2 55.5 13.5t23.5 35t-2 61t-26 91.5l-88 280h-364zM719 565l-156 498h-6l-174 -498h336z" />
<glyph unicode="B" horiz-adv-x="1220" d="M59 33l76 8q49 4 69.5 14.5t20.5 20.5v1134q0 12 -17.5 18.5t-86.5 12.5l-60 6l-6 33h529q143 0 239.5 -21.5t155.5 -59.5t85 -89t26 -111q0 -111 -93.5 -189.5t-279.5 -107.5v-6q211 -16 323.5 -111.5t112.5 -230.5q0 -160 -139.5 -257t-421.5 -97h-539zM573 37 q12 0 21 2q8 0 12 1t0 1q68 2 123 26.5t94 65.5t60.5 94.5t21.5 114.5q0 74 -26.5 134.5t-72.5 103.5t-111.5 66.5t-141.5 23.5q-23 0 -53.5 -1t-44.5 -5v-592zM541 709q147 2 224 74.5t77 187.5q0 266 -310 266h-77v-528h86z" />
<glyph unicode="C" horiz-adv-x="1409" d="M795 -29q-160 0 -294 46t-230.5 132.5t-150.5 208t-54 273.5q0 150 53 273.5t150.5 213.5t234.5 140.5t305 50.5q49 0 98 -6.5t92 -16.5t79 -22.5t61 -24.5l141 45l6 -416h-45l-160 330q-43 29 -112.5 48.5t-159.5 19.5q-117 0 -208 -48.5t-153.5 -131t-95.5 -195.5 t-33 -242q0 -143 37 -261t102.5 -201t156 -128t196.5 -45q141 0 231.5 60.5t161.5 171.5q4 10 10 24q4 10 10.5 25.5t14.5 32.5q14 37 35 82h47l-64 -365l-81 -2q-29 -12 -73 -24.5t-95.5 -23.5t-106.5 -17.5t-106 -6.5z" />
<glyph unicode="D" horiz-adv-x="1400" d="M59 33l76 8q49 4 69.5 14.5t20.5 20.5v1134q0 12 -17.5 18.5t-86.5 12.5l-60 6l-6 33q154 0 275 2h100t86 1t60 1h22q182 2 320.5 -43t232.5 -127t141 -197.5t47 -252.5q0 -135 -51 -256t-149.5 -211.5t-243.5 -143.5t-334 -53h-508zM594 39q123 2 216 49t154.5 127 t93.5 183.5t32 219.5q0 133 -32 247t-97.5 198t-167 131t-240.5 47h-98v-1163z" />
<glyph unicode="E" horiz-adv-x="1241" d="M59 33l72 8q94 8 94 35v1134q0 12 -17.5 18.5t-86.5 12.5l-60 6l-6 33h1026l19 -406h-45l-21 72q-25 78 -52.5 133.5t-74.5 91t-117.5 53t-181.5 17.5l-153 -2v-563h80q68 2 114.5 10t78.5 23.5t52.5 42t34.5 69.5l23 64l39 -2l-48 -463l-38 2l-7 61q-4 45 -17 73t-43 44 t-79 22.5t-125 10.5l-65 4v-590l182 -6q115 0 191.5 22.5t128 62.5t83 95t58.5 123l22 68l47 -2l-57 -410h-1057z" />
<glyph unicode="F" horiz-adv-x="1173" d="M59 33l80 8q49 4 67.5 14.5t18.5 20.5v1134q0 12 -16 18.5t-86 12.5l-62 6l-6 33h1026l21 -397h-45l-21 71q-27 76 -55.5 130.5t-74.5 89t-116.5 51t-181.5 16.5l-153 -2v-577l84 2q68 2 114.5 9t78.5 22.5t52.5 42t34.5 67.5l25 65l37 -2l-47 -460h-37l-9 61 q-4 45 -16 73.5t-42 45t-79 23.5t-125 10l-71 2v-553q0 -12 17 -19.5t87 -11.5l100 -6l7 -33h-613z" />
<glyph unicode="G" horiz-adv-x="1462" d="M782 -31q-160 0 -291 47t-226 134.5t-147 209t-52 271.5t53 274.5t151.5 213.5t236.5 139.5t306 50.5q49 0 98.5 -6.5t92.5 -15.5t78.5 -21.5t58.5 -24.5l135 43l6 -414h-45l-154 326q-45 33 -115.5 51.5t-160.5 18.5q-117 0 -207 -48.5t-152.5 -132.5t-95.5 -195.5 t-33 -240.5q0 -150 38 -267.5t103.5 -199.5t153.5 -126t189 -44q74 0 138.5 19.5t98.5 44.5v418q0 10 -22.5 17t-91.5 11l-80 8l-6 33h594l-7 -33l-79 -10q-49 -4 -66.5 -12t-17.5 -19v-374l110 4l2 -23q-59 -25 -133 -47t-153.5 -39.5t-158.5 -29t-149 -11.5z" />
<glyph unicode="H" horiz-adv-x="1521" d="M59 33l76 8q49 4 69.5 14.5t20.5 20.5v1134q0 12 -17.5 18.5t-86.5 12.5l-60 6l-6 33h576l-6 -33l-80 -8q-49 -4 -69.5 -14.5t-20.5 -20.5v-530h610v536q0 12 -17.5 18.5t-86.5 12.5l-62 6l-6 33h575l-6 -33l-78 -8q-47 -4 -67.5 -14.5t-20.5 -20.5v-1134 q0 -12 17.5 -18.5t87.5 -12.5l59 -6l6 -33h-575l6 33l80 8q49 4 68.5 13t19.5 22v555h-610v-561q0 -12 17 -18.5t87 -12.5l64 -6l6 -33h-576z" />
<glyph unicode="I" horiz-adv-x="724" d="M72 33l88 8q47 4 67.5 14.5t20.5 20.5v1134q0 12 -17.5 18.5t-87.5 12.5l-71 6l-6 33h593l-6 -33l-86 -8q-49 -4 -68.5 -14.5t-19.5 -20.5v-1134q0 -12 17.5 -18.5t87.5 -12.5l69 -6l6 -33h-593z" />
<glyph unicode="J" horiz-adv-x="724" d="M68 -276q-86 0 -140.5 39.5t-54.5 101.5q0 49 36 84t91 35q41 0 69.5 -20.5t44 -52.5t13.5 -70t-23 -72q164 6 164 401v1040q0 12 -17.5 19.5t-86.5 11.5l-76 6l-6 33h596l-6 -33l-84 -8q-49 -4 -68.5 -14.5t-19.5 -20.5v-1022q0 -74 -37 -154.5t-98.5 -148t-139 -111.5 t-157.5 -44z" />
<glyph unicode="K" horiz-adv-x="1386" d="M59 33l80 8q49 4 67.5 14.5t18.5 20.5v1134q0 12 -16 18.5t-86 12.5l-62 6l-6 33h586l-6 -33l-90 -8q-49 -4 -69.5 -14.5t-20.5 -20.5v-626l327 331q98 100 148.5 163t58.5 97.5t-20.5 50t-85.5 21.5l-74 6l-2 33h530l-6 -33l-45 -6q-51 -4 -88 -18.5t-80 -48t-103.5 -95 t-158.5 -159.5l-94 -93l397 -632q31 -49 52.5 -79t40 -46.5t39 -23.5t48.5 -9l45 -4l7 -33h-568l6 33l50 6q31 2 45 12t13 31.5t-17.5 57.5t-49.5 91l-266 439l-149 -150v-450q0 -12 17 -18.5t87 -12.5l74 -6l6 -33h-586z" />
<glyph unicode="L" horiz-adv-x="1165" d="M59 33l80 8q49 4 67.5 14.5t18.5 20.5v1134q0 12 -16 18.5t-86 12.5l-62 6l-6 33h604l-6 -33l-108 -8q-90 -8 -90 -35v-1157l137 -8q106 0 176 20.5t118 60.5t81.5 101.5t68.5 143.5l25 75h47l-59 -440h-996z" />
<glyph unicode="M" horiz-adv-x="1726" d="M41 33l61 6q41 2 67 10t40 28.5t20.5 54.5t8.5 87l26 942q-29 66 -114 78l-74 8l-6 33h446l348 -961h4l359 961h448l-6 -33l-110 -8q-43 -4 -62.5 -16.5t-19.5 -24.5l20 -1020q2 -41 6 -66.5t14.5 -40t30 -21.5t49.5 -9l76 -8l6 -33h-592l7 33l102 10q45 4 60.5 32.5 t11.5 106.5l-25 996h-6l-438 -1166h-54l-411 1116q-4 10 -13.5 21.5t-13.5 17.5l-20 -954q-2 -51 3 -84t20.5 -52.5t45 -27.5t76.5 -10l60 -6l6 -33h-463z" />
<glyph unicode="N" horiz-adv-x="1441" d="M283 1090h-4l2 -875q0 -51 7 -83t23.5 -51.5t46 -27.5t72.5 -12l57 -8l7 -33h-453l6 33l57 8q35 2 59.5 11t40 29.5t22.5 54.5t7 87l7 875q-23 49 -63 89t-107 52l-45 10l-7 33h414l742 -944l4 2l-2 723q0 51 -7.5 83t-24 51.5t-45 28.5t-71.5 13l-59 8l-6 33h450l-6 -33 l-57 -8q-35 -4 -58.5 -13t-39 -29.5t-22.5 -54.5t-7 -87l-4 -1067h-60z" />
<glyph unicode="O" horiz-adv-x="1515" d="M750 -29q-147 0 -273.5 48.5t-217.5 135.5t-142 209.5t-51 270.5q0 133 55 255t150.5 215t222.5 148.5t272 55.5q147 0 273 -49.5t217.5 -137.5t142.5 -211t51 -270q0 -135 -54.5 -256t-149.5 -213t-223 -146.5t-273 -54.5zM764 12q197 0 314.5 161t117.5 464 q0 145 -33 262t-92 198t-141 125t-178 44q-197 0 -315 -162t-118 -463q0 -145 33 -262t91.5 -199t140.5 -125t180 -43z" />
<glyph unicode="P" horiz-adv-x="1179" d="M43 33l92 8q49 4 69.5 14.5t20.5 20.5v1134q0 12 -17.5 18.5t-86.5 12.5l-76 6l-6 33h577q260 0 386 -85t126 -234q0 -86 -38.5 -156t-109.5 -118t-168 -73.5t-212 -25.5q-41 0 -77 2t-68 6v-526q0 -12 17 -19.5t87 -11.5l98 -6l7 -33h-627zM594 627q129 0 208 80.5 t79 222.5q0 150 -73 230.5t-230 78.5h-123v-594q31 -8 60.5 -13t78.5 -5z" />
<glyph unicode="Q" horiz-adv-x="1515" d="M1264 -369q-94 0 -176 14.5t-152 53.5t-128 105.5t-103 168.5q-141 6 -258 58.5t-202 139.5t-132 206t-47 258q0 133 55 255t150.5 214t222.5 147.5t272 55.5q150 0 275.5 -49.5t217 -138.5t141.5 -211t50 -267q0 -106 -36 -205.5t-99.5 -182.5t-152.5 -146.5t-193 -98.5 q49 -109 107.5 -174t128 -99t155.5 -39t190 7l4 -31q-20 -6 -54 -13t-74 -13t-81.5 -10.5t-80.5 -4.5zM764 12q197 0 314.5 162t117.5 463q0 143 -33 260t-92 199t-141 126t-178 44q-98 0 -178 -42t-136.5 -122t-87.5 -197t-31 -266q0 -145 33 -261t91.5 -198t140.5 -125 t180 -43z" />
<glyph unicode="R" horiz-adv-x="1333" d="M43 33l92 8q37 4 63.5 14.5t26.5 20.5v1134q0 12 -17.5 18.5t-86.5 12.5l-76 6l-6 33h577q256 0 383 -84t127 -244q0 -117 -84 -203.5t-225 -119.5l273 -422q31 -47 55 -79t46.5 -50.5t48.5 -27.5t58 -11l35 -6l8 -33h-399l-37 68l-319 548q-10 2 -27.5 4.5t-37 6.5 t-37 8t-29.5 8v-573q0 -12 28.5 -19.5t75.5 -11.5l80 -6l6 -33h-608zM590 662q135 4 213 75.5t78 208.5q0 141 -83 220t-249 73q-4 0 -18.5 -1t-30.5 -1h-45v-555q27 -8 69.5 -14t65.5 -6z" />
<glyph unicode="S" horiz-adv-x="1050" d="M498 -29q-106 0 -209 19.5t-189 48.5l-18 338h43l74 -187q55 -92 134 -134t177 -42q129 2 201.5 76t72.5 186q0 61 -22.5 106.5t-64.5 79.5t-98 59.5t-124 49.5q-76 27 -141.5 59t-114.5 75t-76.5 101t-27.5 138q0 70 28.5 135.5t82 115.5t132 82t181.5 32 q86 0 153.5 -13.5t124.5 -29.5l86 28l4 -366h-39l-127 274q-43 27 -94 44.5t-117 17.5q-106 0 -170.5 -61.5t-64.5 -149.5q0 -57 23.5 -99.5t63.5 -73t93 -54t115 -46.5q84 -29 154.5 -63.5t122 -80.5t80 -108.5t28.5 -148.5q0 -76 -34 -149.5t-96.5 -131t-150 -92.5 t-196.5 -35z" />
<glyph unicode="T" horiz-adv-x="1341" d="M365 33l100 8q49 4 69.5 14.5t20.5 20.5v1165h-55q-76 -4 -134.5 -27.5t-103.5 -60.5t-76.5 -85t-54.5 -97l-27 -78h-47l58 387h1126l33 -387h-43l-23 74q-49 119 -132 194.5t-230 79.5h-60v-1171q0 -12 17.5 -18.5t87.5 -12.5l86 -6l6 -33h-625z" />
<glyph unicode="U" horiz-adv-x="1429" d="M731 -33q-266 0 -391 108.5t-125 350.5v786q0 10 -17.5 16.5t-86.5 12.5l-76 8l-6 33h602l-6 -33l-90 -8q-49 -4 -69 -14t-20 -21v-725q0 -217 92.5 -317.5t274.5 -100.5q174 0 271.5 108t97.5 325l-2 567q0 51 -7.5 84t-25 52.5t-46 28.5t-71.5 13l-59 8l-6 33h452 l-6 -33l-57 -8q-35 -4 -58.5 -13t-39 -30.5t-22.5 -55.5t-7 -87l-4 -572q0 -121 -30 -216t-89.5 -161.5t-151.5 -102.5t-221 -36z" />
<glyph unicode="V" horiz-adv-x="1310" d="M217 1044q-25 63 -40 100.5t-30.5 58t-36 27.5t-53.5 9l-69 10l-4 33h596l-5 -33l-79 -6q-41 -2 -61.5 -9t-24.5 -26.5t6 -54.5t33 -92l299 -807h10l235 651q37 104 53.5 168t9.5 99.5t-40 51t-96 21.5l-46 4l-6 33h463l-6 -33l-41 -8q-41 -6 -68.5 -17.5t-54 -48 t-56.5 -106.5t-73 -190l-332 -897h-79z" />
<glyph unicode="W" horiz-adv-x="2000" d="M213 1044q-23 59 -38 96.5t-31.5 58t-38 28.5t-54.5 12l-67 8l-7 33h601l-7 -33l-73 -6q-37 -2 -56.5 -9t-25.5 -25.5t1 -49.5t25 -82l287 -811h6l260 680l-34 103q-23 57 -39.5 93t-33 57.5t-38 29.5t-51.5 12l-70 8l-6 33h598l-6 -33l-72 -6q-37 -2 -57.5 -9 t-25.5 -25.5t3 -51.5t27 -84l278 -801h7l217 617q37 106 54 172.5t11 103.5t-40 52.5t-99 23.5l-51 8l-6 33h467l-7 -33l-36 -6q-43 -6 -71 -19.5t-52.5 -50t-52 -105.5t-70.5 -185l-324 -904h-65l-326 906h-6l-346 -906h-66z" />
<glyph unicode="X" horiz-adv-x="1327" d="M-2 33l55 6q41 4 74 19.5t64.5 45t69.5 77.5t89 120l215 303l-291 436q-35 53 -59.5 90t-44.5 60.5t-38.5 35t-43.5 13.5l-70 8l-10 33h596l-6 -33l-72 -4q-33 -2 -50 -11t-16 -32.5t20.5 -61.5t58.5 -100l176 -270h4l145 217q51 74 75 120t21.5 73.5t-27 41t-71.5 19.5 l-59 8l-6 33h479l-6 -33l-51 -6q-43 -4 -76 -18.5t-67 -45t-71.5 -79.5t-91.5 -123l-172 -240l373 -561q25 -37 43.5 -61.5t33.5 -40t30.5 -22.5t35.5 -9l64 -8l8 -33h-586l5 33l71 4q68 4 72 36.5t-43 104.5l-254 391h-4l-184 -268q-49 -74 -73 -121t-22 -75.5t28 -43 t73 -20.5l55 -8l6 -33h-481z" />
<glyph unicode="Y" horiz-adv-x="1282" d="M338 33l100 8q51 4 70.5 14.5t19.5 20.5v487l-307 533q-23 39 -41 64.5t-36.5 42t-40 24.5t-50.5 12l-53 8l-6 33h588l-7 -33l-51 -4q-82 -8 -87 -44t46 -126l244 -434h4l178 328q43 78 63.5 128t18.5 80.5t-28.5 45t-77.5 20.5l-49 6l-7 33h447l-6 -33l-49 -6 q-33 -6 -60.5 -17.5t-55.5 -41t-61.5 -79.5t-78.5 -132l-205 -373v-528q0 -12 17.5 -18.5t86.5 -12.5l84 -6l6 -33h-622z" />
<glyph unicode="Z" horiz-adv-x="1208" d="M66 31l788 1200v6l-209 2q-121 0 -202 -20.5t-134 -58.5t-84.5 -91t-54.5 -119l-16 -63h-45l22 393h995v-33l-792 -1198v-6l231 -2q129 -2 213 17.5t140.5 59.5t93.5 101.5t71 145.5l23 67h49l-59 -432h-1030v31z" />
<glyph unicode="[" horiz-adv-x="665" d="M133 1300h508v-43h-459v-1699h459v-43h-508v1785z" />
<glyph unicode="\" horiz-adv-x="503" d="M-4 1319h45l434 -1796h-45z" />
<glyph unicode="]" horiz-adv-x="665" d="M25 -442h458v1699h-458v43h507v-1785h-507v43z" />
<glyph unicode="^" horiz-adv-x="776" d="M371 1403h35l276 -399h-29l-262 213h-4l-266 -213h-27z" />
<glyph unicode="_" horiz-adv-x="927" d="M29 2h872l6 -76h-884z" />
<glyph unicode="`" horiz-adv-x="798" d="M86 1401h221l197 -381h-27z" />
<glyph unicode="a" horiz-adv-x="907" d="M705 -25q-137 0 -154 162l-4 2q-59 -66 -124 -114t-144 -48q-45 0 -85 16.5t-71 44.5t-48.5 66.5t-17.5 81.5q0 55 24.5 101.5t83 87.5t155 76.5t237.5 70.5l2 53q4 143 -51 208t-152 65q-27 0 -52 -6t-44.5 -14.5t-32 -17.5t-12.5 -15t8 -16.5t19.5 -25t19.5 -34 t8 -39.5q0 -39 -30.5 -68.5t-79.5 -29.5q-47 0 -79 25.5t-32 66.5q0 45 42 88t106.5 76.5t139.5 55t140 21.5q80 0 137.5 -17t92 -57t48 -106.5t9.5 -165.5l-19 -374q-4 -53 14.5 -78t51.5 -25q25 0 46.5 16.5t43.5 36.5l19 -18q-18 -25 -41 -51.5t-50.5 -49t-59 -37 t-64.5 -14.5zM389 102q82 0 156 74l12 311q-92 -23 -150.5 -48t-92 -55t-46 -63.5t-12.5 -70.5q0 -66 40 -107t93 -41z" />
<glyph unicode="b" horiz-adv-x="1044" d="M111 1165q0 45 -13.5 62.5t-54.5 29.5l-68 25l2 23l334 90v-662l8 -2q63 74 141.5 124t170.5 50q80 0 146.5 -32.5t115.5 -91t76.5 -137.5t27.5 -173q0 -119 -42 -211t-109.5 -156.5t-154.5 -98.5t-177 -34q-66 0 -136.5 17.5t-123.5 40.5h-2l-123 -72h-18v1208zM551 14 q51 0 92 31t70.5 83t45 124t15.5 154q0 78 -18.5 145t-52 116.5t-81 77t-106.5 27.5q-66 0 -117 -27.5t-88 -68.5v-479q41 -76 104.5 -129.5t135.5 -53.5z" />
<glyph unicode="c" horiz-adv-x="878" d="M465 -31q-90 0 -167 34t-132 94.5t-87 142.5t-32 178q0 104 36 195.5t99.5 159t151.5 105t192 37.5q68 0 125.5 -14t99.5 -39.5t65.5 -62.5t23.5 -80q0 -53 -35 -84t-80 -31q-53 0 -87 41t-28 94q0 35 15.5 54.5t15.5 29.5q-4 18 -39 36t-76 18q-55 0 -103 -27t-83 -76 t-55.5 -118.5t-20.5 -155.5q0 -90 22.5 -162t64.5 -122t98.5 -77.5t123.5 -27.5q80 0 142.5 32.5t115.5 116.5l23 -12q-66 -133 -160 -206t-229 -73z" />
<glyph unicode="d" horiz-adv-x="1067" d="M731 143l-6 2q-59 -74 -138 -123t-171 -49q-78 0 -145.5 33t-117 91.5t-78 138t-28.5 176.5q0 119 42 210t109.5 154.5t154.5 96t179 32.5q117 0 195 -35h2h2v314q0 45 -13 63.5t-54 26.5l-86 22l4 23l350 74v-1243q0 -41 8 -55.5t31 -20.5l98 -23l-2 -24l-336 -60v176z M532 102q66 0 113 27t86 66v489q-39 76 -102.5 127t-132.5 51q-53 0 -95.5 -29.5t-71 -82t-44 -123t-15.5 -152.5q0 -80 18.5 -147.5t52.5 -117.5t83 -79t108 -29z" />
<glyph unicode="e" horiz-adv-x="911" d="M467 -31q-90 0 -167 35t-133 95.5t-88 142.5t-32 178q0 104 35 195.5t98.5 159t148.5 105.5t187 38q80 0 142.5 -23t106.5 -61.5t66.5 -93t22.5 -115.5q0 -27 -6 -58q-158 0 -283 2q-53 0 -105 1t-93 2t-68 1h-31q-4 -14 -5 -38.5t-1 -40.5q0 -86 23.5 -157t65.5 -121 t98.5 -77.5t123.5 -27.5q82 0 147.5 32.5t119.5 116.5l22 -12q-66 -133 -163 -206t-232 -73zM459 608h129q31 0 57 2q0 51 -8 99.5t-26.5 85t-48.5 59.5t-73 23q-39 0 -74.5 -20.5t-65.5 -56.5t-50 -85t-29 -107h189z" />
<glyph unicode="f" horiz-adv-x="645" d="M51 33l43 2q43 4 61.5 9t18.5 24v716l-162 4l35 97l123 -2l6 75q6 100 46 179.5t100.5 132.5t133 80.5t146.5 27.5q88 0 132 -35.5t44 -82.5q0 -45 -31.5 -75t-78.5 -30t-84 39t-54 109l-4 12l-37 6q-66 -29 -89 -105.5t-23 -222.5v-108h258l-29 -99h-229v-720 q0 -14 16.5 -20.5t79.5 -10.5l78 -2l6 -33h-512z" />
<glyph unicode="g" horiz-adv-x="962" d="M373 -506q-168 0 -260.5 56.5t-92.5 160.5q0 43 21.5 80t55.5 66.5t76 52t83 39.5v4q-92 10 -149.5 57t-57.5 111q0 39 19.5 71.5t50.5 60.5t69.5 47t79.5 30v4q-76 29 -130 95.5t-54 168.5q0 66 27.5 123t77 100t116 67.5t144.5 24.5q72 0 133 -19.5t110 -49.5l269 33 l-15 -115l-205 31l-2 -9q31 -29 51.5 -72.5t20.5 -97.5q0 -66 -27.5 -122t-78 -98t-118 -65.5t-147.5 -23.5q-33 0 -68.5 4t-58.5 8q-43 -10 -74.5 -35.5t-31.5 -62.5q0 -45 41 -64.5t117 -19.5q51 0 121.5 3t125.5 3q141 0 221 -67.5t80 -184.5q0 -84 -38.5 -155.5 t-109.5 -124.5t-171 -84t-221 -31zM481 -453q66 0 120 18.5t93 50.5t60.5 74t21.5 91q0 78 -56 121t-185 49q-45 2 -107.5 -1t-126.5 -7q-45 -18 -82 -66.5t-37 -112.5q0 -98 84 -157.5t215 -59.5zM446 340q80 0 124 65.5t44 190.5q0 127 -38.5 205t-129.5 78 q-74 0 -115.5 -69t-41.5 -192q0 -131 42.5 -204.5t114.5 -73.5z" />
<glyph unicode="h" horiz-adv-x="1069" d="M27 33l36 2q43 4 61.5 10t18.5 25v1093q0 47 -12 64.5t-53 27.5l-68 25l2 23l336 90v-645l4 -3q35 29 74 59t82 54.5t90 40.5t98 16q96 0 164 -63q35 -39 51.5 -95.5t16.5 -123.5v-565q0 -6 2 -10.5t11 -8.5t29.5 -8t55.5 -6l31 -2l6 -33h-463l6 33l41 2q51 4 64.5 12 t13.5 23v508q0 111 -46 153.5t-132 42.5q-63 0 -113.5 -22.5t-85.5 -51.5v-634q0 -14 15.5 -20.5t76.5 -10.5l39 -2l6 -33h-465z" />
<glyph unicode="i" horiz-adv-x="530" d="M250 1069q-66 0 -97.5 43t-31.5 88q0 47 31.5 89t97.5 42t98.5 -42t32.5 -89q0 -45 -32.5 -88t-98.5 -43zM45 33l39 2q45 4 63.5 10t18.5 25v557q0 47 -3 75.5t-12.5 46t-27 25.5t-43.5 14l-45 11l2 24l332 90v-847q0 -14 16 -20.5t80 -10.5l33 -2l6 -33h-465z" />
<glyph unicode="j" horiz-adv-x="505" d="M246 1069q-66 0 -99.5 43t-33.5 88q0 47 33.5 89t99.5 42q63 0 96 -42t33 -89q0 -45 -33 -88t-96 -43zM-20 -520q-74 0 -117 34.5t-43 88.5q0 47 33.5 76.5t76.5 29.5q61 0 97 -49t41 -109q51 10 71.5 87t20.5 206v783q0 47 -3 75.5t-12.5 46t-27 25.5t-43.5 14l-47 11 l2 24l333 90v-962q-2 -86 -38.5 -171t-92 -151.5t-122 -107.5t-129.5 -41z" />
<glyph unicode="k" horiz-adv-x="1019" d="M27 33l36 2q43 4 61.5 10t18.5 25v1093q0 47 -12 64.5t-53 27.5l-68 25l2 23l336 90v-967l158 152q78 72 124 126t46 87q0 27 -24.5 42t-84.5 19l-26 2l-4 33h434l-6 -33l-39 -4q-35 -4 -63.5 -17.5t-63.5 -38t-78 -64.5t-105 -99l-47 -45l258 -420q23 -37 39.5 -60.5 t32.5 -38t33.5 -21.5t44.5 -9l33 -4l6 -33h-338l-41 74l-213 372l-76 -69v-311q0 -14 16.5 -19.5t77.5 -11.5l35 -2l4 -33h-461z" />
<glyph unicode="l" horiz-adv-x="520" d="M41 33l39 2q45 4 61.5 10t16.5 25v1056q0 74 -13.5 96.5t-54.5 32.5l-67 25l4 23l333 90v-1327q0 -14 16.5 -20.5t76.5 -10.5l34 -2l7 -33h-459z" />
<glyph unicode="m" horiz-adv-x="1617" d="M45 33l39 2q45 4 63.5 10t18.5 25v555q0 47 -4 76.5t-13.5 47t-26 25.5t-42.5 14l-47 11l2 24l336 90l-4 -165l4 -3q31 29 66.5 60t74.5 55.5t84 39.5t94 15q51 0 92 -17t72 -48q43 -39 55 -111l6 -2q66 68 147 123t181 55t164 -63q37 -37 53.5 -98.5t16.5 -141.5v-544 q0 -6 2 -10.5t11 -8.5t28.5 -8t54.5 -6l31 -2l6 -33h-461l6 33l41 2q51 4 63.5 12t12.5 23v505q0 111 -42 155t-128 44q-55 0 -107.5 -23.5t-70.5 -58.5v-9v-16.5t-1 -17.5t-1 -10v-573q0 -10 13 -17.5t81 -13.5l33 -2l6 -33h-457l6 33l39 2q49 4 62.5 12t13.5 23v505 q0 111 -42 155t-128 44q-55 0 -100.5 -21.5t-81.5 -47.5v-639q0 -14 16 -20.5t76 -10.5l39 -2l4 -33h-463z" />
<glyph unicode="n" horiz-adv-x="1091" d="M45 33l39 2q45 4 63.5 10t18.5 25v555q0 47 -4 76.5t-13.5 47t-26 25.5t-42.5 14l-47 11l2 24l336 90l-4 -168h4q35 29 73.5 59t82.5 54.5t91.5 40.5t96.5 16q102 0 164 -63q37 -37 52 -94.5t15 -126.5v-563q0 -6 2 -10.5t12.5 -8.5t31 -8t55.5 -6l30 -2l6 -33h-460l6 33 l39 2q53 4 64 12t11 23v505q0 111 -44 155t-132 44q-63 0 -113.5 -22.5t-86.5 -51.5v-634q0 -14 16 -20.5t76 -10.5l39 -2l4 -33h-463z" />
<glyph unicode="o" horiz-adv-x="1054" d="M520 -29q-109 0 -195.5 37t-148 100.5t-95.5 148.5t-34 183t37 185.5t101.5 152t154.5 101t195 36.5q106 0 193 -35.5t149.5 -98t96.5 -146.5t34 -180q0 -102 -36 -190.5t-100.5 -153t-155 -102.5t-196.5 -38zM530 10q57 0 102.5 32t77 87t49 130t17.5 159 q0 135 -26.5 239.5t-79.5 157.5q-25 25 -60 43.5t-86 18.5q-59 0 -105 -32t-77 -87.5t-47 -129t-16 -155.5q0 -139 25.5 -241.5t78.5 -157.5q27 -29 62.5 -46.5t84.5 -17.5z" />
<glyph unicode="p" horiz-adv-x="1069" d="M12 -481l43 2q43 4 62.5 10t19.5 23v1073q0 47 -4 75.5t-13 46t-25.5 25.5t-43.5 14l-45 11l2 24l334 90l-4 -180l8 -2q61 74 140 124t171 50q78 0 144.5 -32.5t116 -91t77 -137.5t27.5 -173q0 -119 -41 -211t-108.5 -156.5t-153.5 -98.5t-176 -34q-59 0 -110.5 10.5 t-90.5 26.5h-2v-459q0 -12 15.5 -18t78.5 -10l72 -2l6 -33h-506zM578 14q51 0 92 31t69.5 83t45 124t16.5 154q0 78 -18.5 145t-52.5 116.5t-82 77t-107 27.5q-63 0 -114.5 -27.5t-86.5 -68.5v-481q41 -76 103.5 -128.5t134.5 -52.5z" />
<glyph unicode="q" horiz-adv-x="1054" d="M565 -481l72 2q61 4 77.5 11t16.5 19v592l-6 2q-59 -74 -138 -123t-171 -49q-78 0 -145.5 33t-117 91.5t-78 138t-28.5 176.5q0 119 42 211t109.5 154.5t154.5 95t179 32.5q145 0 261 -57h2l120 76h17v-1370q0 -16 18.5 -22.5t67.5 -10.5l41 -2l4 -33h-504zM532 102 q66 0 113 27t86 66v485q-39 76 -102.5 129t-132.5 53q-53 0 -95.5 -29.5t-71 -81t-44 -122t-15.5 -152.5q0 -78 18.5 -146.5t52.5 -119.5t83 -80t108 -29z" />
<glyph unicode="r" horiz-adv-x="794" d="M45 33l39 2q45 4 63.5 10t18.5 25v555q0 47 -4 76.5t-13.5 47t-26 25.5t-42.5 14l-47 11l2 24l336 90l-4 -305h6q53 147 117.5 227t156.5 80q59 0 99 -35.5t40 -91.5q0 -47 -31.5 -83.5t-84.5 -36.5q-47 0 -83 30.5t-46 83.5q-51 -16 -93 -79.5t-81 -184.5v-452 q0 -14 18 -20.5t80 -10.5l61 -2l6 -33h-493z" />
<glyph unicode="s" horiz-adv-x="782" d="M360 -29q-86 0 -157.5 13.5t-128.5 35.5l-15 261l45 2l48 -119q41 -72 95 -113t128 -41q80 0 132 46t52 118q0 37 -17.5 65.5t-46 51t-69.5 41t-86 35.5q-51 18 -98 40.5t-84 54.5t-58.5 76t-21.5 105q0 121 89 196.5t234 75.5q59 0 108.5 -9t88.5 -25l74 22l10 -266 l-41 -2l-106 190q-25 18 -61 35t-79 17q-76 0 -116.5 -40t-40.5 -104q0 -74 56 -109.5t155 -72.5q53 -20 103 -44t88 -55.5t60.5 -77.5t22.5 -110q0 -57 -23.5 -109.5t-68.5 -93.5t-114 -65.5t-157 -24.5z" />
<glyph unicode="t" horiz-adv-x="704" d="M393 -27q-115 0 -175 60.5t-58 191.5l10 555l-164 6l19 52l129 98l188 151l31 -6l-2 -196h315l-29 -97h-286l-13 -532q-2 -164 154 -164q51 0 93 16.5t77 43.5l10 -21q-63 -66 -139 -112t-160 -46z" />
<glyph unicode="u" horiz-adv-x="1046" d="M713 141h-6q-35 -31 -74 -61.5t-81 -54t-89 -39t-96 -15.5t-88 16.5t-74 49.5q-37 37 -52.5 93t-15.5 128l4 563q0 14 -16 19.5t-86 11.5l-33 4l-6 31h346l-6 -576q0 -111 45 -154.5t133 -43.5q61 0 109.5 21.5t83.5 49.5v600q0 39 -18.5 51.5t-80.5 16.5l-39 4l-6 31 h346v-717q0 -41 8.5 -55.5t30.5 -20.5l97 -24l-2 -23l-336 -80z" />
<glyph unicode="v" horiz-adv-x="966" d="M133 741q-14 31 -24.5 51.5t-20.5 32t-25.5 16.5t-37.5 7l-41 6l-7 33h484l-4 -33l-45 -6q-51 -4 -63.5 -24.5t7.5 -67.5l213 -533l156 414q25 63 33 102t0 61.5t-33 33t-68 14.5l-39 6l-6 33h365l-6 -33l-37 -4q-31 -4 -50.5 -13.5t-37 -33t-34.5 -66.5t-46 -112 l-248 -645h-67z" />
<glyph unicode="w" horiz-adv-x="1492" d="M139 721q-16 39 -27.5 62.5t-23.5 38t-27.5 19.5t-40.5 7l-36 6l-7 31h474l-5 -31l-40 -6q-49 -4 -62.5 -21.5t4.5 -66.5l203 -541l174 438l-37 91q-25 59 -46 77.5t-69 22.5l-34 6l-7 31h474l-5 -31l-40 -6q-51 -4 -61.5 -23.5t5.5 -64.5l211 -539l139 404 q20 61 27.5 101t-0.5 65.5t-32.5 38t-69.5 18.5l-35 6l-6 31h364l-6 -31l-35 -6q-33 -2 -53 -11.5t-36.5 -34t-33 -67.5t-41.5 -114l-225 -641h-67l-256 624l-254 -624h-68z" />
<glyph unicode="x" horiz-adv-x="974" d="M2 31l51 8q27 4 49.5 14t47 31.5t53 56.5t71.5 88l132 172l-211 304q-27 37 -46.5 63.5t-38 42.5t-36 25.5t-37.5 11.5l-33 6l-6 31h477l-6 -31l-41 -6q-49 -4 -47 -35t45 -94l119 -178h2l96 137q68 96 67 130t-71 40l-41 6l-6 31h366l-6 -31l-51 -8q-27 -4 -49.5 -13.5 t-47 -31t-54 -57t-70.5 -91.5l-111 -141l230 -332q53 -72 86 -105.5t69 -37.5l31 -4l8 -33h-475l6 31l37 6q51 6 50 35.5t-44 93.5l-137 205h-4l-115 -164q-70 -96 -69.5 -131t67.5 -39l47 -6l4 -31h-364z" />
<glyph unicode="y" horiz-adv-x="962" d="M205 -528q-55 0 -96 31.5t-41 84.5q0 47 30.5 79t79.5 32q57 0 87 -29.5t40 -68.5q35 10 58.5 52t50.5 116l71 211h-10l-342 759q-14 33 -24.5 52.5t-22.5 31t-26.5 16.5t-39.5 9l-40 6l-7 31h482l-6 -31l-41 -6q-51 -4 -62.5 -24.5t10.5 -67.5l222 -520l147 405 q20 61 28.5 99t1.5 60.5t-33 32t-69 15.5l-39 6l-6 31h367l-6 -31l-41 -6q-31 -4 -50.5 -12.5t-36 -32t-33.5 -66.5t-44 -112l-225 -607l-90 -274q-45 -135 -100.5 -203.5t-143.5 -68.5z" />
<glyph unicode="z" horiz-adv-x="907" d="M45 29l545 817h-92q-84 0 -139.5 -13.5t-92.5 -39t-61.5 -64.5t-44.5 -92l-33 -88h-41v336h748v-29l-551 -817h100q88 2 151.5 17.5t109.5 44t78 68.5t58 89l43 80h39l-67 -338h-750v29z" />
<glyph unicode="{" horiz-adv-x="657" d="M621 -522q-94 6 -174 30.5t-137.5 66.5t-90.5 98.5t-33 123.5q0 61 14.5 117.5t33 109t33 100.5t14.5 95q0 84 -72 119t-207 45l-10 27l10 24q59 4 110.5 14.5t88.5 30t58.5 49t21.5 72.5q0 47 -14.5 95t-33 100.5t-33 107.5t-14.5 117q0 68 33 124t90.5 98t137 66.5 t174.5 30.5l4 -28q-145 -18 -209 -69.5t-64 -135.5q0 -51 15.5 -102.5t33 -105.5t33 -109.5t15.5 -116.5q0 -109 -94.5 -174.5t-256.5 -83.5v-11q162 -18 256.5 -83.5t94.5 -174.5q0 -59 -15.5 -115.5t-33 -109.5t-33 -104.5t-15.5 -100.5q0 -86 63.5 -138t209.5 -71l-4 -28 v0z" />
<glyph unicode="|" horiz-adv-x="389" d="M176 1372h37v-1796h-37v1796z" />
<glyph unicode="}" horiz-adv-x="657" d="M0 -494q143 18 207.5 70.5t64.5 138.5q0 49 -15 100.5t-32.5 104.5t-33 109.5t-15.5 115.5q0 109 93 174.5t255 83.5v11q-162 18 -255 83.5t-93 174.5q0 61 15.5 116.5t33 109.5t32.5 105.5t15 102.5q0 84 -64.5 135t-207.5 70l4 28q94 -6 173 -30.5t137.5 -66.5 t91 -98.5t32.5 -123.5q0 -61 -15 -116.5t-32.5 -108t-33 -100.5t-15.5 -95q0 -43 21.5 -72.5t59.5 -49t89 -30t111 -14.5l10 -24l-10 -27q-135 -10 -208 -45t-73 -119q0 -47 15.5 -95t33 -100.5t32.5 -108.5t15 -118q0 -68 -32.5 -124t-91 -98t-137.5 -66.5t-173 -30.5z" />
<glyph unicode="~" horiz-adv-x="790" d="M551 317q-47 0 -97.5 20.5t-97.5 46.5t-89 46.5t-72 20.5q-35 0 -58.5 -20.5t-36.5 -96.5h-30q16 133 53 188.5t119 55.5q45 0 94 -20.5t96 -46.5t89 -46.5t73 -20.5q35 0 59.5 19.5t38.5 95.5h29q-14 -131 -52 -186.5t-118 -55.5z" />
<glyph unicode="&#xa1;" horiz-adv-x="548" d="M274 1044q-55 0 -92 38t-37 92q0 51 37 90t92 39q57 0 94.5 -39t37.5 -90q0 -53 -37.5 -91.5t-94.5 -38.5zM272 -35q-78 0 -97 34t-13 79l98 809q2 10 14.5 10t14.5 -10l98 -809q6 -45 -13.5 -79t-97.5 -34h-4z" />
<glyph unicode="&#xa2;" horiz-adv-x="878" d="M395 -23q-78 14 -141.5 53.5t-109.5 97.5t-71.5 134t-25.5 162q0 104 36 195.5t99.5 157t151.5 103.5t192 38q31 0 59.5 -4.5t55.5 -10.5l94 352h41l-98 -360q72 -23 117 -70t45 -106q0 -47 -33 -80t-74 -33t-69.5 21.5t-38.5 56.5l-150 -553q23 -10 48.5 -15t54.5 -5 q78 0 140 32.5t116 114.5l22 -10q-66 -131 -160 -205t-227 -74h-16.5t-18.5 2l-80 -299h-39zM625 842q-18 14 -45 24.5t-54 10.5q-55 0 -103 -27t-83 -76t-55.5 -118.5t-20.5 -155.5q0 -129 48 -220.5t128 -132.5z" />
<glyph unicode="&#xa3;" horiz-adv-x="1091" d="M119 586l6 41h205q-12 41 -20.5 84t-8.5 86q0 102 37 192t103.5 157.5t158.5 106.5t205 39q111 0 172 -43t61 -121q0 -45 -35.5 -79.5t-84.5 -34.5q-39 0 -65 19.5t-38 49t-11 64.5t17 65q-8 10 -31.5 21.5t-58.5 11.5q-43 0 -83 -17.5t-70.5 -53t-50 -93t-19.5 -137.5 q0 -59 12 -140t23 -177h264l6 -41h-266q4 -25 4 -49.5v-49.5q0 -57 -19.5 -124.5t-54.5 -133.5q90 -29 180.5 -56.5t167.5 -27.5q43 0 76 10.5t55.5 36t38 70.5t25.5 115l27 -4q0 -80 -20.5 -153t-58.5 -128t-91.5 -88t-120.5 -33q-111 0 -201 42t-166 89 q-49 -59 -108.5 -95t-122.5 -36q-72 0 -114 38t-42 97q0 70 57.5 123.5t169.5 53.5q41 0 83 -8.5t89 -20.5q2 12 3.5 24.5t1.5 26.5q0 70 -22 139.5t-44 141.5h-221zM350 127q-55 35 -103 59.5t-95 24.5q-51 0 -83 -27.5t-32 -77.5q0 -47 33.5 -74.5t87.5 -27.5q53 0 104 34 t88 89z" />
<glyph unicode="&#xa4;" horiz-adv-x="917" d="M131 436l117 117q-68 78 -68 182t68 183l-117 116l29 29l116 -117q37 31 83.5 49.5t99.5 18.5t99 -18.5t83 -49.5l117 117l28 -29l-116 -116q31 -37 49 -83.5t18 -99.5t-18.5 -99t-48.5 -83l116 -117l-28 -28l-117 116q-78 -68 -182 -67q-104 0 -183 67l-116 -116z M221 735q0 -49 18.5 -92t51.5 -75.5t76 -51t92 -18.5t92 18.5t75.5 51t51 75.5t18.5 92t-18.5 92t-51 76t-75.5 51.5t-92 18.5t-92 -18.5t-76 -51.5t-51.5 -76t-18.5 -92z" />
<glyph unicode="&#xa5;" horiz-adv-x="1257" d="M326 33l110 12q47 4 65.5 14.5t18.5 22.5v242h-373l7 41h366v221h-368l-2 41h348q-20 35 -43 73q-20 33 -44 75t-51 87q-61 104 -137 238q-23 37 -41 62.5t-36.5 42t-41 24.5t-51.5 10l-57 8l-6 33h596l-6 -33l-58 -4q-78 -6 -82 -45t49 -131l230 -418h6l156 295 q45 88 65.5 143.5t17.5 87t-32 46t-82 20.5l-47 6l-6 33h452l-6 -33l-45 -6q-31 -6 -57.5 -16.5t-54 -36t-57.5 -69.5t-68 -118q-55 -106 -101 -188q-20 -35 -37.5 -68.5t-31.5 -60.5q-16 -31 -33 -57h364l-2 -41h-372v-221h370l6 -41h-376v-246q0 -12 16 -20.5t82 -14.5 l94 -10l6 -33h-627z" />
<glyph unicode="&#xa6;" horiz-adv-x="389" d="M176 1284h37v-686h-37v686zM176 371h37v-686h-37v686z" />
<glyph unicode="&#xa7;" horiz-adv-x="829" d="M356 -102q-106 0 -176.5 38.5t-70.5 110.5q0 41 26.5 72t69.5 31q35 0 59.5 -15.5t36.5 -41t13 -57.5t-7 -65q18 -16 46 -24t55 -8q37 0 64.5 13t48 34.5t30.5 49t10 54.5q0 39 -20.5 71t-54 59.5t-81 54t-98.5 55.5q-53 29 -103 60.5t-91 68.5t-65.5 83t-24.5 101 q0 84 51 143.5t123 96.5q-59 70 -60 153q0 55 25.5 105.5t71 87.5t105.5 59.5t128 22.5q109 0 175.5 -39t66.5 -111q0 -41 -29 -71.5t-74 -30.5q-35 0 -58.5 16.5t-34.5 42t-13 57t6 62.5q-39 33 -86 33q-72 0 -111 -46t-39 -100q0 -39 20.5 -70.5t55.5 -60t80 -55.5t96 -53 q53 -29 104.5 -60.5t92.5 -68.5t65.5 -82t24.5 -101q0 -82 -51 -144t-125 -99q61 -72 61 -154q0 -55 -26.5 -106.5t-72.5 -89t-107.5 -60t-131.5 -22.5zM614 348q35 27 52.5 56.5t17.5 70.5q0 76 -56.5 125t-152.5 102q-78 45 -144.5 81t-113.5 81q-31 -23 -50.5 -53.5 t-19.5 -71.5q0 -76 57.5 -125t149.5 -102q78 -43 144.5 -80t115.5 -84z" />
<glyph unicode="&#xa8;" horiz-adv-x="792" d="M594 1059q-59 0 -89 39t-30 80q0 20 7 42.5t22.5 41t38 30t51.5 11.5q31 0 52.5 -11.5t36.5 -30t22.5 -41t7.5 -42.5q0 -41 -30 -80t-89 -39zM199 1059q-59 0 -89 39t-30 80q0 20 7 42.5t22.5 41t38 30t51.5 11.5q31 0 52 -11.5t36.5 -30t22.5 -41t7 -42.5 q0 -41 -29.5 -80t-88.5 -39z" />
<glyph unicode="&#xa9;" horiz-adv-x="1470" d="M737 -37q-141 0 -264 53.5t-215 145.5t-145.5 215t-53.5 264t53.5 264t145.5 215t215 145.5t264 53.5q139 0 262 -53.5t215.5 -145.5t145.5 -215t53 -264t-53 -264t-145.5 -215t-215.5 -145.5t-262 -53.5zM737 -2q131 0 247 50t202 138t136 205t50 250q0 131 -50 249 t-136 205t-202 138t-247 51q-133 0 -249.5 -51t-202.5 -138t-136.5 -205t-50.5 -249q0 -133 50.5 -250t136.5 -205t202.5 -138t249.5 -50zM760 240q-98 0 -178 29.5t-135.5 81.5t-85 125t-29.5 157q0 86 30.5 159.5t88 127t137.5 84t178 30.5q57 0 111.5 -12t83.5 -29l83 29 l3 -254h-27l-98 193q-25 20 -67 32.5t-93 12.5q-68 0 -120 -28t-88 -75t-54.5 -112.5t-18.5 -141.5q0 -84 21.5 -153.5t60.5 -119.5t92.5 -78t114.5 -28q84 0 135 38t90 104l47 94h27l-37 -223l-49 -2q-18 -6 -44 -13.5t-56.5 -13.5t-62 -10t-60.5 -4z" />
<glyph unicode="&#xaa;" horiz-adv-x="704" d="M201 582q-66 0 -113 43t-47 108q0 76 91 143.5t304 116.5l2 54q2 102 -48 149t-120 47q-47 0 -68.5 -15.5t-21.5 -23.5q0 -10 17.5 -34.5t17.5 -53.5q0 -31 -24.5 -54.5t-65.5 -23.5q-37 0 -62.5 23.5t-25.5 58.5t34.5 68t87 58.5t115 41t115.5 15.5q102 0 161.5 -55.5 t55.5 -166.5l-12 -311q-4 -92 55 -92q35 0 72 37l6 -17q-25 -37 -69 -76.5t-103 -39.5q-111 0 -125 137h-2q-53 -66 -110.5 -101.5t-116.5 -35.5zM309 686q29 0 59.5 17.5t59.5 46.5l8 213q-133 -31 -180 -76t-47 -92q0 -49 27.5 -79t72.5 -30z" />
<glyph unicode="&#xab;" horiz-adv-x="937" d="M436 430v47l455 344l10 -18l-270 -348l270 -351l-10 -16zM37 430v47l450 322l11 -17l-258 -327l258 -330l-11 -16z" />
<glyph unicode="&#xac;" horiz-adv-x="917" d="M856 270h-45v324h-782l6 45h821v-369z" />
<glyph unicode="&#xad;" horiz-adv-x="604" d="M53 528h506l-4 -92h-508z" />
<glyph unicode="&#xae;" horiz-adv-x="1470" d="M737 -35q-141 0 -264 53.5t-215 144.5t-145.5 214t-53.5 264t53.5 264t145.5 215t215 145.5t264 53.5q139 0 262 -53.5t215.5 -145.5t145.5 -215t53 -264t-53 -264t-145.5 -214t-215.5 -144.5t-262 -53.5zM737 -2q131 0 247 50t203 138t137 205t50 250q0 131 -50 249 t-137 205t-203 138t-247 51q-133 0 -249.5 -51t-202.5 -138t-136.5 -205t-50.5 -249q0 -133 50.5 -250t136.5 -205t202.5 -138t249.5 -50zM377 291l57 6q20 4 34.5 10t14.5 12v646q0 8 -10 13t-49 9l-45 6l-4 29h340q158 0 234.5 -53.5t76.5 -145.5q0 -70 -49 -123t-135 -71 l157 -240q35 -57 60.5 -72.5t64.5 -21.5l27 -4l6 -29h-246l-20 37l-193 322q-12 4 -36.5 8t-38.5 10v-322q0 -8 16 -12t41 -6l51 -8l4 -29h-362zM713 655q78 0 123 43t45 125q0 86 -53.5 127t-153.5 37l-51 -2v-313q20 -6 47 -11.5t43 -5.5z" />
<glyph unicode="&#xaf;" horiz-adv-x="774" d="M133 1161h524l-12 -80h-528z" />
<glyph unicode="&#xb0;" horiz-adv-x="659" d="M330 750q-66 0 -117 22.5t-88 61t-56.5 90t-19.5 108.5t19.5 109.5t55.5 91.5t88 61.5t118 22.5t118 -22.5t87.5 -61.5t55 -91t19.5 -110q0 -57 -19.5 -108.5t-55 -90t-87.5 -61t-118 -22.5zM330 791q109 0 172 70.5t63 170.5q0 49 -16.5 94t-47 78t-74.5 52.5t-97 19.5 t-96.5 -19.5t-74 -52.5t-47 -78t-16.5 -94q0 -100 62.5 -170.5t171.5 -70.5z" />
<glyph unicode="&#xb1;" horiz-adv-x="917" d="M436 504h-405l6 45h399v344h45v-344h400l6 -45h-406v-332h-45v332zM57 55l6 45h791l6 -45h-803z" />
<glyph unicode="&#xb2;" horiz-adv-x="616" d="M29 588q84 80 149.5 144.5t111.5 120.5t69.5 108.5t23.5 111.5q0 82 -44 122t-106 40q-59 0 -102 -30.5t-80 -86.5l-14 12q45 92 113.5 150.5t166.5 58.5q96 0 159 -55t63 -145q0 -61 -31 -116.5t-83 -111t-124 -116t-154 -131.5v-5h261q31 0 52 5.5t38.5 19.5t31 37.5 t29.5 58.5l12 25h23l-59 -258h-498z" />
<glyph unicode="&#xb3;" horiz-adv-x="577" d="M213 508q-82 0 -132 28.5t-50 77.5q0 31 20.5 50.5t52.5 19.5q47 0 73 -41t16 -94q2 0 20 -4t33 -4q68 0 114 52t46 128q0 86 -45.5 136t-127.5 50q-57 0 -106 -22l-10 20q53 31 97 54.5t74.5 47t48 50t17.5 63.5q0 53 -33.5 85t-91.5 32q-59 0 -103 -27.5t-75 -76.5 l-14 12q41 82 109.5 138t162.5 56q86 0 142.5 -45t56.5 -112q0 -39 -17.5 -68t-46 -52.5t-66.5 -42t-79 -36.5v-4q55 8 102.5 -4t81 -38t53 -66t19.5 -87q0 -55 -27.5 -104t-74.5 -88t-109.5 -61.5t-130.5 -22.5z" />
<glyph unicode="&#xb4;" horiz-adv-x="798" d="M489 1401h224l-391 -381h-29z" />
<glyph unicode="&#xb5;" horiz-adv-x="1046" d="M2 -514l6 33l43 2q43 4 62.5 10t19.5 23v1267q0 6 -2 11.5t-11 8.5t-29.5 5t-55.5 6l-33 4l-6 31h346l-6 -668q0 -115 170 -115q61 0 113.5 15.5t87.5 44.5v620q0 39 -18.5 51.5t-80.5 16.5l-39 4l-6 31h346v-717q0 -41 8.5 -55.5t30.5 -20.5l96 -24l-2 -23l-335 -80 l2 154h-7q-47 -70 -89 -110t-107 -40q-49 0 -91 29t-73 98h-6v-544q0 -16 19.5 -22.5t62.5 -10.5l43 -2l6 -33h-465z" />
<glyph unicode="&#xb6;" horiz-adv-x="921" d="M752 524q-37 -6 -91.5 -10t-95.5 -4q-236 0 -372 102.5t-136 284.5q0 190 129 286.5t385 96.5h230v-1346h-49v590z" />
<glyph unicode="&#xb7;" horiz-adv-x="442" d="M221 336q-59 0 -99 41t-40 96q0 53 40 92t99 39t97 -39t38 -92q0 -55 -38 -96t-97 -41z" />
<glyph unicode="&#xb8;" horiz-adv-x="788" d="M190 -528q150 27 233 67.5t83 114.5q0 59 -51.5 86t-124.5 27q-72 0 -140 -23v25l220 239h45l-127 -137q66 8 122 0t98 -29.5t65.5 -56.5t23.5 -78q0 -63 -38 -108t-99.5 -75t-140 -48.5t-158.5 -28.5z" />
<glyph unicode="&#xb9;" horiz-adv-x="526" d="M90 571l62 7q51 0 51 22v647l-135 15l4 18l286 53v-735q0 -20 60 -20l51 -7l4 -24h-387z" />
<glyph unicode="&#xba;" horiz-adv-x="817" d="M406 578q-84 0 -153 28.5t-118 76.5t-75.5 112.5t-26.5 138.5q0 76 27.5 143.5t77.5 117.5t120 80t152 30q84 0 152.5 -29t117.5 -78t75.5 -114.5t26.5 -139.5q0 -78 -27.5 -144.5t-76.5 -115.5t-118.5 -77.5t-153.5 -28.5zM410 610q43 0 75.5 26t55 69t34 99t11.5 120 q0 104 -18.5 184t-53.5 115q-25 25 -52.5 36t-55.5 11q-47 0 -81 -25.5t-55.5 -70t-33 -101.5t-11.5 -119q0 -106 17.5 -183t58.5 -118q23 -23 51.5 -33t57.5 -10z" />
<glyph unicode="&#xbb;" horiz-adv-x="937" d="M446 125l254 330l-254 325l11 19l448 -322v-47l-448 -321zM41 104l268 351l-268 348l10 18l457 -344v-47l-457 -342z" />
<glyph unicode="&#xbc;" horiz-adv-x="1398" d="M1094 -72h-330l-4 23l399 561h80v-496h143l-22 -88h-121v-207h-145v207zM1094 16v351h-4l-250 -351h254zM90 571l62 7q51 0 51 22v647l-135 15l4 18l286 53v-735q0 -20 60 -20l51 -7l4 -24h-387zM1260 1290h59l-1188 -1538h-59z" />
<glyph unicode="&#xbd;" horiz-adv-x="1396" d="M797 -240q84 80 149.5 144.5t111.5 121t69.5 108.5t23.5 112q0 82 -44 122t-106 40q-59 0 -102 -31t-80 -86l-14 12q45 92 113.5 150.5t166.5 58.5q96 0 159 -55.5t63 -145.5q0 -61 -31 -116.5t-83 -110.5t-124 -115.5t-154 -132.5v-4h261q31 0 52 5t38.5 19.5t31 38 t29.5 58.5l12 24h23l-59 -258h-498zM90 571l62 7q51 0 51 22v647l-135 15l4 18l286 53v-735q0 -20 60 -20l51 -7l4 -24h-387zM1260 1290h59l-1188 -1538h-59z" />
<glyph unicode="&#xbe;" horiz-adv-x="1368" d="M1063 -72h-330l-4 23l399 561h80v-496h144l-23 -88h-121v-207h-145v207zM1063 16v351h-4l-250 -351h254zM213 508q-82 0 -132 28.5t-50 77.5q0 31 20.5 50.5t52.5 19.5q47 0 73 -41t16 -94q2 0 20 -4t33 -4q68 0 114 52t46 128q0 86 -45.5 136t-127.5 50q-57 0 -106 -22 l-10 20q53 31 97 54.5t74.5 47t48 50t17.5 63.5q0 53 -33.5 85t-91.5 32q-59 0 -103 -27.5t-75 -76.5l-14 12q41 82 109.5 138t162.5 56q86 0 142.5 -45t56.5 -112q0 -39 -17.5 -68t-46 -52.5t-66.5 -42t-79 -36.5v-4q55 8 102.5 -4t81 -38t53 -66t19.5 -87 q0 -55 -27.5 -104t-74.5 -88t-109.5 -61.5t-130.5 -22.5zM1229 1290h59l-1188 -1538h-59z" />
<glyph unicode="&#xbf;" horiz-adv-x="675" d="M367 1053q-57 0 -93 37.5t-36 87.5q0 53 35.5 92t93.5 39q55 0 93 -39t38 -92q0 -49 -38 -87t-93 -38zM461 -29q-90 0 -164 35t-126 91.5t-80 127t-28 144.5q0 57 10.5 96t34 67.5t59.5 49t87 43.5q39 16 72.5 30.5t56.5 28.5t36 32.5t13 45.5q0 41 -24.5 73.5 t-65.5 71.5l33 4q27 -20 56.5 -48.5t53 -61.5t39 -66t15.5 -59q0 -47 -15.5 -78t-44 -55.5t-71.5 -44t-99 -39.5q-102 -39 -149 -66.5t-47 -73.5q0 -61 76.5 -112t232.5 -51q47 0 87 6t69 12q16 -14 25 -41t11 -57q2 -47 -34.5 -76t-118.5 -29z" />
<glyph unicode="&#xc0;" horiz-adv-x="1296" d="M369 522l-66 -186q-31 -90 -45 -145.5t-8 -86t35.5 -44t89.5 -19.5l53 -8l6 -33h-454l6 33l37 6q45 6 74.5 20.5t57 57.5t60.5 125t86 225l231 645l-18 68q20 6 46 21.5t48.5 33.5t42 39.5t27.5 40.5h31l358 -1075q20 -59 36.5 -97.5t34 -60t38 -30.5t51.5 -11l67 -8 l6 -33h-604l6 33l68 8q37 2 55.5 13.5t23.5 35t-2 61t-26 91.5l-88 280h-364zM719 565l-156 498h-6l-174 -498h336zM291 1743h221l197 -381h-27z" />
<glyph unicode="&#xc1;" horiz-adv-x="1296" d="M369 522l-66 -186q-31 -90 -45 -145.5t-8 -86t35.5 -44t89.5 -19.5l53 -8l6 -33h-454l6 33l37 6q45 6 74.5 20.5t57 57.5t60.5 125t86 225l231 645l-18 68q20 6 46 21.5t48.5 33.5t42 39.5t27.5 40.5h31l358 -1075q20 -59 36.5 -97.5t34 -60t38 -30.5t51.5 -11l67 -8 l6 -33h-604l6 33l68 8q37 2 55.5 13.5t23.5 35t-2 61t-26 91.5l-88 280h-364zM719 565l-156 498h-6l-174 -498h336zM754 1743h223l-391 -381h-29z" />
<glyph unicode="&#xc2;" horiz-adv-x="1296" d="M369 522l-66 -186q-31 -90 -45 -145.5t-8 -86t35.5 -44t89.5 -19.5l53 -8l6 -33h-454l6 33l37 6q45 6 74.5 20.5t57 57.5t60.5 125t86 225l231 645l-18 68q20 6 46 21.5t48.5 33.5t42 39.5t27.5 40.5h31l358 -1075q20 -59 36.5 -97.5t34 -60t38 -30.5t51.5 -11l67 -8 l6 -33h-604l6 33l68 8q37 2 55.5 13.5t23.5 35t-2 61t-26 91.5l-88 280h-364zM719 565l-156 498h-6l-174 -498h336zM641 1745h35l276 -399h-28l-262 213h-5l-266 -213h-26z" />
<glyph unicode="&#xc3;" horiz-adv-x="1296" d="M369 522l-66 -186q-31 -90 -45 -145.5t-8 -86t35.5 -44t89.5 -19.5l53 -8l6 -33h-454l6 33l37 6q45 6 74.5 20.5t57 57.5t60.5 125t86 225l231 645l-18 68q20 6 46 21.5t48.5 33.5t42 39.5t27.5 40.5h31l358 -1075q20 -59 36.5 -97.5t34 -60t38 -30.5t51.5 -11l67 -8 l6 -33h-604l6 33l68 8q37 2 55.5 13.5t23.5 35t-2 61t-26 91.5l-88 280h-364zM719 565l-156 498h-6l-174 -498h336zM805 1376q-47 0 -97.5 20.5t-97.5 46t-89 46t-72 20.5q-35 0 -58.5 -20.5t-36.5 -95.5h-30q16 133 53 188t119 55q45 0 94 -20.5t96 -46t89 -46t73 -20.5 q35 0 59.5 19.5t38.5 95.5h29q-14 -131 -52 -186.5t-118 -55.5z" />
<glyph unicode="&#xc4;" horiz-adv-x="1296" d="M369 522l-66 -186q-31 -90 -45 -145.5t-8 -86t35.5 -44t89.5 -19.5l53 -8l6 -33h-454l6 33l37 6q45 6 74.5 20.5t57 57.5t60.5 125t86 225l231 645l-18 68q20 6 46 21.5t48.5 33.5t42 39.5t27.5 40.5h31l358 -1075q20 -59 36.5 -97.5t34 -60t38 -30.5t51.5 -11l67 -8 l6 -33h-604l6 33l68 8q37 2 55.5 13.5t23.5 35t-2 61t-26 91.5l-88 280h-364zM719 565l-156 498h-6l-174 -498h336zM848 1401q-59 0 -89 39t-30 80q0 20 7 42.5t22.5 41t38 30t51.5 11.5q31 0 52.5 -11.5t36.5 -30t22.5 -41t7.5 -42.5q0 -41 -30 -80t-89 -39zM453 1401 q-59 0 -89 39t-30 80q0 20 7 42.5t22.5 41t38 30t51.5 11.5q31 0 52 -11.5t36.5 -30t22.5 -41t7 -42.5q0 -41 -29.5 -80t-88.5 -39z" />
<glyph unicode="&#xc5;" horiz-adv-x="1296" d="M367 518l-64 -182q-31 -90 -45 -145.5t-8 -86t35.5 -44t89.5 -19.5l53 -8l6 -33h-454l6 33l37 6q45 6 74.5 20.5t57 56.5t61.5 124t85 227l285 793q-59 20 -91 67t-32 107q0 76 49 131t135 55t136.5 -55.5t50.5 -130.5q0 -57 -29 -102.5t-80 -65.5l342 -1026 q20 -59 36.5 -97.5t34 -60t38 -30.5t51.5 -11l67 -8l6 -33h-604l6 33l68 8q37 2 55.5 13.5t23.5 35t-2 61t-26 91.5l-86 276h-368zM719 565q-12 37 -25 78q-10 35 -24.5 79t-28.5 91l-78 250h-6l-174 -498h336zM647 1276q72 0 112 46t40 110q0 63 -40 110t-112 47 t-110.5 -47t-38.5 -110t38.5 -109.5t110.5 -46.5z" />
<glyph unicode="&#xc6;" horiz-adv-x="1759" d="M-96 33l69 10q31 4 59.5 19.5t62.5 53.5t78 105.5t103 177.5l406 734q12 25 16 43t-6 31.5t-35.5 20.5t-72.5 11l-76 6l-6 35h1104l16 -406h-41l-22 72q-23 78 -47.5 133.5t-67.5 91t-111.5 52t-179.5 16.5l-141 -2v-561h59q68 2 113 10t75.5 23.5t49 42t32.5 69.5l23 64 l37 -2l-47 -463l-35 2l-8 61q-4 45 -14.5 73t-38 44t-75.5 22.5t-124 10.5l-47 4v-590l149 -6q115 0 192 22.5t129 62.5t83.5 95t58.5 123l21 68l45 -2l-56 -410h-1040l6 33l102 12q47 4 64.5 14.5t17.5 22.5v440h-387l-100 -182q-43 -82 -63.5 -136t-19.5 -88t24.5 -51.5 t66.5 -23.5l60 -8l6 -33h-473zM784 567v652h-6l-356 -652h362z" />
<glyph unicode="&#xc7;" horiz-adv-x="1409" d="M774 -29q-156 2 -286 50.5t-224 134.5t-146 206.5t-52 268.5q0 150 53 273.5t150.5 213.5t234.5 140.5t305 50.5q49 0 98 -6.5t92 -16.5t79 -22.5t61 -24.5l141 45l6 -416h-45l-160 330q-43 29 -112.5 48.5t-159.5 19.5q-117 0 -208 -48.5t-153.5 -131t-95.5 -195.5 t-33 -242q0 -143 37 -261t102.5 -201t156 -128t196.5 -45q141 0 231.5 60.5t161.5 171.5q4 10 10 24q4 10 10.5 25.5t14.5 32.5q14 37 35 82h47l-64 -365l-81 -2q-29 -12 -69 -23.5t-88 -21.5t-100.5 -17.5t-101.5 -9.5l-92 -100q66 8 122 0t98 -29.5t65.5 -56.5t23.5 -78 q0 -63 -38 -108t-99 -75t-140 -48.5t-159 -28.5l-10 25q150 27 232.5 67.5t82.5 114.5q0 59 -51 86t-125 27q-72 0 -139 -23v25l186 202v0z" />
<glyph unicode="&#xc8;" horiz-adv-x="1241" d="M59 33l72 8q94 8 94 35v1134q0 12 -17.5 18.5t-86.5 12.5l-60 6l-6 33h1026l19 -406h-45l-21 72q-25 78 -52.5 133.5t-74.5 91t-117.5 53t-181.5 17.5l-153 -2v-563h80q68 2 114.5 10t78.5 23.5t52.5 42t34.5 69.5l23 64l39 -2l-48 -463l-38 2l-7 61q-4 45 -17 73t-43 44 t-79 22.5t-125 10.5l-65 4v-590l182 -6q115 0 191.5 22.5t128 62.5t83 95t58.5 123l22 68l47 -2l-57 -410h-1057zM293 1743h221l197 -381h-27z" />
<glyph unicode="&#xc9;" horiz-adv-x="1241" d="M59 33l72 8q94 8 94 35v1134q0 12 -17.5 18.5t-86.5 12.5l-60 6l-6 33h1026l19 -406h-45l-21 72q-25 78 -52.5 133.5t-74.5 91t-117.5 53t-181.5 17.5l-153 -2v-563h80q68 2 114.5 10t78.5 23.5t52.5 42t34.5 69.5l23 64l39 -2l-48 -463l-38 2l-7 61q-4 45 -17 73t-43 44 t-79 22.5t-125 10.5l-65 4v-590l182 -6q115 0 191.5 22.5t128 62.5t83 95t58.5 123l22 68l47 -2l-57 -410h-1057zM737 1743h224l-392 -381h-28z" />
<glyph unicode="&#xca;" horiz-adv-x="1241" d="M59 33l72 8q94 8 94 35v1134q0 12 -17.5 18.5t-86.5 12.5l-60 6l-6 33h1026l19 -406h-45l-21 72q-25 78 -52.5 133.5t-74.5 91t-117.5 53t-181.5 17.5l-153 -2v-563h80q68 2 114.5 10t78.5 23.5t52.5 42t34.5 69.5l23 64l39 -2l-48 -463l-38 2l-7 61q-4 45 -17 73t-43 44 t-79 22.5t-125 10.5l-65 4v-590l182 -6q115 0 191.5 22.5t128 62.5t83 95t58.5 123l22 68l47 -2l-57 -410h-1057zM608 1745h35l277 -399h-29l-262 213h-4l-267 -213h-26z" />
<glyph unicode="&#xcb;" horiz-adv-x="1241" d="M59 33l72 8q94 8 94 35v1134q0 12 -17.5 18.5t-86.5 12.5l-60 6l-6 33h1026l19 -406h-45l-21 72q-25 78 -52.5 133.5t-74.5 91t-117.5 53t-181.5 17.5l-153 -2v-563h80q68 2 114.5 10t78.5 23.5t52.5 42t34.5 69.5l23 64l39 -2l-48 -463l-38 2l-7 61q-4 45 -17 73t-43 44 t-79 22.5t-125 10.5l-65 4v-590l182 -6q115 0 191.5 22.5t128 62.5t83 95t58.5 123l22 68l47 -2l-57 -410h-1057zM819 1401q-59 0 -89 39t-30 80q0 20 7.5 42.5t22.5 41t38 30t51 11.5q31 0 52.5 -11.5t37 -30t22.5 -41t7 -42.5q0 -41 -30 -80t-89 -39zM424 1401 q-59 0 -89 39t-30 80q0 20 7 42.5t22.5 41t38 30t51.5 11.5q31 0 52.5 -11.5t36.5 -30t22.5 -41t7.5 -42.5q0 -41 -30 -80t-89 -39z" />
<glyph unicode="&#xcc;" horiz-adv-x="724" d="M72 33l88 8q47 4 67.5 14.5t20.5 20.5v1134q0 12 -17.5 18.5t-87.5 12.5l-71 6l-6 33h593l-6 -33l-86 -8q-49 -4 -68.5 -14.5t-19.5 -20.5v-1134q0 -12 17.5 -18.5t87.5 -12.5l69 -6l6 -33h-593zM25 1743h221l196 -381h-26z" />
<glyph unicode="&#xcd;" horiz-adv-x="724" d="M72 33l88 8q47 4 67.5 14.5t20.5 20.5v1134q0 12 -17.5 18.5t-87.5 12.5l-71 6l-6 33h593l-6 -33l-86 -8q-49 -4 -68.5 -14.5t-19.5 -20.5v-1134q0 -12 17.5 -18.5t87.5 -12.5l69 -6l6 -33h-593zM475 1743h223l-391 -381h-28z" />
<glyph unicode="&#xce;" horiz-adv-x="724" d="M72 33l88 8q47 4 67.5 14.5t20.5 20.5v1134q0 12 -17.5 18.5t-87.5 12.5l-71 6l-6 33h593l-6 -33l-86 -8q-49 -4 -68.5 -14.5t-19.5 -20.5v-1134q0 -12 17.5 -18.5t87.5 -12.5l69 -6l6 -33h-593zM346 1745h35l276 -399h-28l-262 213h-5l-266 -213h-26z" />
<glyph unicode="&#xcf;" horiz-adv-x="724" d="M72 33l88 8q47 4 67.5 14.5t20.5 20.5v1134q0 12 -17.5 18.5t-87.5 12.5l-71 6l-6 33h593l-6 -33l-86 -8q-49 -4 -68.5 -14.5t-19.5 -20.5v-1134q0 -12 17.5 -18.5t87.5 -12.5l69 -6l6 -33h-593zM563 1401q-59 0 -89 39t-30 80q0 20 7.5 42.5t22.5 41t38 30t51 11.5 q31 0 52.5 -11.5t37 -30t22.5 -41t7 -42.5q0 -41 -30 -80t-89 -39zM168 1401q-59 0 -89 39t-30 80q0 20 7 42.5t22.5 41t38 30t51.5 11.5q31 0 52.5 -11.5t36.5 -30t22.5 -41t7.5 -42.5q0 -41 -30 -80t-89 -39z" />
<glyph unicode="&#xd0;" horiz-adv-x="1394" d="M41 623l6 45h178v534q0 12 -28.5 21.5t-69.5 13.5l-82 10l-6 33q156 0 278 2h101.5t89.5 1t62 1h24q180 2 318.5 -42t232.5 -127t142 -197.5t48 -253.5t-51 -260t-149.5 -210.5t-244 -141.5t-331.5 -52h-522l6 33l98 12q47 4 65.5 14.5t18.5 22.5v541h-184zM725 668 l6 -45h-278v-543l139 -39q123 0 215 46t155.5 125t95.5 183.5t32 218.5q0 135 -32 249t-98.5 198t-168 131t-242.5 47h-96v-571h272z" />
<glyph unicode="&#xd1;" horiz-adv-x="1441" d="M283 1090h-4l2 -875q0 -51 7 -83t23.5 -51.5t46 -27.5t72.5 -12l57 -8l7 -33h-453l6 33l57 8q35 2 59.5 11t40 29.5t22.5 54.5t7 87l7 875q-23 49 -63 89t-107 52l-45 10l-7 33h414l742 -944l4 2l-2 723q0 51 -7.5 83t-24 51.5t-45 28.5t-71.5 13l-59 8l-6 33h450l-6 -33 l-57 -8q-35 -4 -58.5 -13t-39 -29.5t-22.5 -54.5t-7 -87l-4 -1067h-60zM909 1376q-47 0 -97 20.5t-97 46t-89 46t-73 20.5q-35 0 -58.5 -20.5t-35.5 -95.5h-31q16 133 53 188t119 55q45 0 94 -20.5t96.5 -46t89.5 -46t72 -20.5q35 0 59.5 19.5t39.5 95.5h28 q-14 -131 -52 -186.5t-118 -55.5z" />
<glyph unicode="&#xd2;" horiz-adv-x="1515" d="M750 -29q-147 0 -273.5 48.5t-217.5 135.5t-142 209.5t-51 270.5q0 133 55 255t150.5 215t222.5 148.5t272 55.5q147 0 273 -49.5t217.5 -137.5t142.5 -211t51 -270q0 -135 -54.5 -256t-149.5 -213t-223 -146.5t-273 -54.5zM764 12q197 0 314.5 161t117.5 464 q0 145 -33 262t-92 198t-141 125t-178 44q-197 0 -315 -162t-118 -463q0 -145 33 -262t91.5 -199t140.5 -125t180 -43zM428 1743h221l197 -381h-27z" />
<glyph unicode="&#xd3;" horiz-adv-x="1515" d="M750 -29q-147 0 -273.5 48.5t-217.5 135.5t-142 209.5t-51 270.5q0 133 55 255t150.5 215t222.5 148.5t272 55.5q147 0 273 -49.5t217.5 -137.5t142.5 -211t51 -270q0 -135 -54.5 -256t-149.5 -213t-223 -146.5t-273 -54.5zM764 12q197 0 314.5 161t117.5 464 q0 145 -33 262t-92 198t-141 125t-178 44q-197 0 -315 -162t-118 -463q0 -145 33 -262t91.5 -199t140.5 -125t180 -43zM868 1743h224l-392 -381h-28z" />
<glyph unicode="&#xd4;" horiz-adv-x="1515" d="M750 -29q-147 0 -273.5 48.5t-217.5 135.5t-142 209.5t-51 270.5q0 133 55 255t150.5 215t222.5 148.5t272 55.5q147 0 273 -49.5t217.5 -137.5t142.5 -211t51 -270q0 -135 -54.5 -256t-149.5 -213t-223 -146.5t-273 -54.5zM764 12q197 0 314.5 161t117.5 464 q0 145 -33 262t-92 198t-141 125t-178 44q-197 0 -315 -162t-118 -463q0 -145 33 -262t91.5 -199t140.5 -125t180 -43zM743 1745h35l277 -399h-29l-262 213h-4l-266 -213h-27z" />
<glyph unicode="&#xd5;" horiz-adv-x="1515" d="M750 -29q-147 0 -273.5 48.5t-217.5 135.5t-142 209.5t-51 270.5q0 133 55 255t150.5 215t222.5 148.5t272 55.5q147 0 273 -49.5t217.5 -137.5t142.5 -211t51 -270q0 -135 -54.5 -256t-149.5 -213t-223 -146.5t-273 -54.5zM764 12q197 0 314.5 161t117.5 464 q0 145 -33 262t-92 198t-141 125t-178 44q-197 0 -315 -162t-118 -463q0 -145 33 -262t91.5 -199t140.5 -125t180 -43zM922 1376q-47 0 -97.5 20.5t-97.5 46t-89 46t-73 20.5q-35 0 -58.5 -20.5t-35.5 -95.5h-31q16 133 53 188t119 55q45 0 94.5 -20.5t96.5 -46t89 -46 t73 -20.5q35 0 59.5 19.5t38.5 95.5h29q-14 -131 -52 -186.5t-118 -55.5z" />
<glyph unicode="&#xd6;" horiz-adv-x="1515" d="M750 -29q-147 0 -273.5 48.5t-217.5 135.5t-142 209.5t-51 270.5q0 133 55 255t150.5 215t222.5 148.5t272 55.5q147 0 273 -49.5t217.5 -137.5t142.5 -211t51 -270q0 -135 -54.5 -256t-149.5 -213t-223 -146.5t-273 -54.5zM764 12q197 0 314.5 161t117.5 464 q0 145 -33 262t-92 198t-141 125t-178 44q-197 0 -315 -162t-118 -463q0 -145 33 -262t91.5 -199t140.5 -125t180 -43zM958 1401q-59 0 -88.5 39t-29.5 80q0 20 7 42.5t22.5 41t38 30t50.5 11.5q31 0 52.5 -11.5t37 -30t22.5 -41t7 -42.5q0 -41 -30 -80t-89 -39zM563 1401 q-59 0 -89 39t-30 80q0 20 7.5 42.5t22.5 41t38 30t51 11.5q31 0 52.5 -11.5t37 -30t22.5 -41t7 -42.5q0 -41 -30 -80t-89 -39z" />
<glyph unicode="&#xd7;" horiz-adv-x="917" d="M426 483l-358 359l32 32l359 -358l358 358l33 -32l-358 -359l358 -358l-33 -33l-358 359l-359 -359l-32 33z" />
<glyph unicode="&#xd8;" horiz-adv-x="1515" d="M1122 1221q152 -82 240 -231.5t88 -348.5q0 -135 -54.5 -256t-149.5 -213t-223 -146.5t-273 -54.5q-170 0 -314 64q-8 -14 -16 -29q-18 -29 -37 -63q-23 -41 -53 -93h-45q33 55 57 101q10 18 20.5 36.5t20.5 32.5q8 16 18 31q-154 82 -244.5 232.5t-90.5 351.5 q0 133 55 255t150.5 215t222.5 148.5t272 55.5q176 0 321 -70l101 172h45q-18 -31 -37 -63q-16 -29 -36 -61.5t-38 -65.5zM1032 1143q-117 123 -280 123q-98 0 -178 -41t-136.5 -121t-87.5 -196.5t-31 -266.5q0 -158 38 -279.5t104 -205.5zM1059 1110q-43 -72 -90 -154 q-41 -70 -91.5 -157.5t-103.5 -180.5q-127 -217 -285 -491q115 -115 275 -115q197 0 314.5 161t117.5 464q0 154 -35.5 272.5t-101.5 200.5z" />
<glyph unicode="&#xd9;" horiz-adv-x="1429" d="M731 -33q-266 0 -391 108.5t-125 350.5v786q0 10 -17.5 16.5t-86.5 12.5l-76 8l-6 33h602l-6 -33l-90 -8q-49 -4 -69 -14t-20 -21v-725q0 -217 92.5 -317.5t274.5 -100.5q174 0 271.5 108t97.5 325l-2 567q0 51 -7.5 84t-25 52.5t-46 28.5t-71.5 13l-59 8l-6 33h452 l-6 -33l-57 -8q-35 -4 -58.5 -13t-39 -30.5t-22.5 -55.5t-7 -87l-4 -572q0 -121 -30 -216t-89.5 -161.5t-151.5 -102.5t-221 -36zM414 1743h221l196 -381h-26z" />
<glyph unicode="&#xda;" horiz-adv-x="1429" d="M731 -33q-266 0 -391 108.5t-125 350.5v786q0 10 -17.5 16.5t-86.5 12.5l-76 8l-6 33h602l-6 -33l-90 -8q-49 -4 -69 -14t-20 -21v-725q0 -217 92.5 -317.5t274.5 -100.5q174 0 271.5 108t97.5 325l-2 567q0 51 -7.5 84t-25 52.5t-46 28.5t-71.5 13l-59 8l-6 33h452 l-6 -33l-57 -8q-35 -4 -58.5 -13t-39 -30.5t-22.5 -55.5t-7 -87l-4 -572q0 -121 -30 -216t-89.5 -161.5t-151.5 -102.5t-221 -36zM874 1743h224l-391 -381h-29z" />
<glyph unicode="&#xdb;" horiz-adv-x="1429" d="M731 -33q-266 0 -391 108.5t-125 350.5v786q0 10 -17.5 16.5t-86.5 12.5l-76 8l-6 33h602l-6 -33l-90 -8q-49 -4 -69 -14t-20 -21v-725q0 -217 92.5 -317.5t274.5 -100.5q174 0 271.5 108t97.5 325l-2 567q0 51 -7.5 84t-25 52.5t-46 28.5t-71.5 13l-59 8l-6 33h452 l-6 -33l-57 -8q-35 -4 -58.5 -13t-39 -30.5t-22.5 -55.5t-7 -87l-4 -572q0 -121 -30 -216t-89.5 -161.5t-151.5 -102.5t-221 -36zM739 1745h35l277 -399h-29l-262 213h-4l-267 -213h-26z" />
<glyph unicode="&#xdc;" horiz-adv-x="1429" d="M731 -33q-266 0 -391 108.5t-125 350.5v786q0 10 -17.5 16.5t-86.5 12.5l-76 8l-6 33h602l-6 -33l-90 -8q-49 -4 -69 -14t-20 -21v-725q0 -217 92.5 -317.5t274.5 -100.5q174 0 271.5 108t97.5 325l-2 567q0 51 -7.5 84t-25 52.5t-46 28.5t-71.5 13l-59 8l-6 33h452 l-6 -33l-57 -8q-35 -4 -58.5 -13t-39 -30.5t-22.5 -55.5t-7 -87l-4 -572q0 -121 -30 -216t-89.5 -161.5t-151.5 -102.5t-221 -36zM582 1401q-59 0 -89 39t-30 80q0 20 7 42.5t22.5 41t38 30t51.5 11.5q31 0 52 -11.5t36.5 -30t22.5 -41t7 -42.5q0 -41 -29.5 -80t-88.5 -39z M977 1401q-59 0 -89 39t-30 80q0 20 7 42.5t22.5 41t38 30t51.5 11.5q31 0 52.5 -11.5t36.5 -30t22.5 -41t7.5 -42.5q0 -41 -30 -80t-89 -39z" />
<glyph unicode="&#xdd;" horiz-adv-x="1282" d="M338 33l100 8q51 4 70.5 14.5t19.5 20.5v487l-307 533q-23 39 -41 64.5t-36.5 42t-40 24.5t-50.5 12l-53 8l-6 33h588l-7 -33l-51 -4q-82 -8 -87 -44t46 -126l244 -434h4l178 328q43 78 63.5 128t18.5 80.5t-28.5 45t-77.5 20.5l-49 6l-7 33h447l-6 -33l-49 -6 q-33 -6 -60.5 -17.5t-55.5 -41t-61.5 -79.5t-78.5 -132l-205 -373v-528q0 -12 17.5 -18.5t86.5 -12.5l84 -6l6 -33h-622zM788 1743h224l-391 -381h-29z" />
<glyph unicode="&#xde;" horiz-adv-x="1191" d="M47 33l92 8q90 8 90 35v1134q0 12 -18 17.5t-88 13.5l-74 6l-6 33h602l-6 -33l-90 -8q-90 -8 -90 -35v-188h157q258 0 385 -92.5t127 -241.5q0 -86 -38.5 -155.5t-109.5 -120t-167 -78t-211 -27.5q-43 0 -79 3t-64 7v-241q0 -12 17.5 -18.5t86.5 -10.5l99 -8l6 -33h-627z M600 344q129 0 205 84t76 225q0 152 -77 238t-243 86q2 0 -13.5 -1t-35.5 -1h-53v-615q29 -6 58.5 -11t82.5 -5z" />
<glyph unicode="&#xdf;" horiz-adv-x="1101" d="M702 860q66 -35 130.5 -88t115.5 -119.5t83 -141.5t32 -151q0 -78 -27.5 -147.5t-75 -121.5t-111 -84t-134.5 -32q-100 0 -166 47.5t-66 118.5q0 55 34 91t87 36q55 0 81 -29.5t28 -67.5t-19.5 -71.5t-60.5 -40.5q6 -12 29.5 -29.5t64.5 -17.5q72 0 117 55.5t45 153.5 q0 74 -24.5 153t-74 154.5t-124 146t-174.5 128.5v37q133 27 195.5 88t62.5 190q0 90 -51.5 151.5t-131.5 61.5q-102 0 -145 -70.5t-43 -238.5v-1020h-332l6 31l45 4q41 4 58.5 9t17.5 24v714l-162 4l35 97h127l4 67q8 100 41 179t87 134.5t125 84t155 28.5q170 0 266 -71.5 t96 -198.5q0 -53 -19.5 -93t-52 -71t-78 -51.5t-96.5 -32.5z" />
<glyph unicode="&#xe0;" horiz-adv-x="907" d="M705 -25q-137 0 -154 162l-4 2q-59 -66 -124 -114t-144 -48q-45 0 -85 16.5t-71 44.5t-48.5 66.5t-17.5 81.5q0 55 24.5 101.5t83 87.5t155 76.5t237.5 70.5l2 53q4 143 -51 208t-152 65q-27 0 -52 -6t-44.5 -14.5t-32 -17.5t-12.5 -15t8 -16.5t19.5 -25t19.5 -34 t8 -39.5q0 -39 -30.5 -68.5t-79.5 -29.5q-47 0 -79 25.5t-32 66.5q0 45 42 88t106.5 76.5t139.5 55t140 21.5q80 0 137.5 -17t92 -57t48 -106.5t9.5 -165.5l-19 -374q-4 -53 14.5 -78t51.5 -25q25 0 46.5 16.5t43.5 36.5l19 -18q-18 -25 -41 -51.5t-50.5 -49t-59 -37 t-64.5 -14.5zM389 102q82 0 156 74l12 311q-92 -23 -150.5 -48t-92 -55t-46 -63.5t-12.5 -70.5q0 -66 40 -107t93 -41zM125 1401h221l197 -381h-27z" />
<glyph unicode="&#xe1;" horiz-adv-x="907" d="M705 -25q-137 0 -154 162l-4 2q-59 -66 -124 -114t-144 -48q-45 0 -85 16.5t-71 44.5t-48.5 66.5t-17.5 81.5q0 55 24.5 101.5t83 87.5t155 76.5t237.5 70.5l2 53q4 143 -51 208t-152 65q-27 0 -52 -6t-44.5 -14.5t-32 -17.5t-12.5 -15t8 -16.5t19.5 -25t19.5 -34 t8 -39.5q0 -39 -30.5 -68.5t-79.5 -29.5q-47 0 -79 25.5t-32 66.5q0 45 42 88t106.5 76.5t139.5 55t140 21.5q80 0 137.5 -17t92 -57t48 -106.5t9.5 -165.5l-19 -374q-4 -53 14.5 -78t51.5 -25q25 0 46.5 16.5t43.5 36.5l19 -18q-18 -25 -41 -51.5t-50.5 -49t-59 -37 t-64.5 -14.5zM389 102q82 0 156 74l12 311q-92 -23 -150.5 -48t-92 -55t-46 -63.5t-12.5 -70.5q0 -66 40 -107t93 -41zM553 1401h223l-391 -381h-29z" />
<glyph unicode="&#xe2;" horiz-adv-x="907" d="M705 -25q-137 0 -154 162l-4 2q-59 -66 -124 -114t-144 -48q-45 0 -85 16.5t-71 44.5t-48.5 66.5t-17.5 81.5q0 55 24.5 101.5t83 87.5t155 76.5t237.5 70.5l2 53q4 143 -51 208t-152 65q-27 0 -52 -6t-44.5 -14.5t-32 -17.5t-12.5 -15t8 -16.5t19.5 -25t19.5 -34 t8 -39.5q0 -39 -30.5 -68.5t-79.5 -29.5q-47 0 -79 25.5t-32 66.5q0 45 42 88t106.5 76.5t139.5 55t140 21.5q80 0 137.5 -17t92 -57t48 -106.5t9.5 -165.5l-19 -374q-4 -53 14.5 -78t51.5 -25q25 0 46.5 16.5t43.5 36.5l19 -18q-18 -25 -41 -51.5t-50.5 -49t-59 -37 t-64.5 -14.5zM389 102q82 0 156 74l12 311q-92 -23 -150.5 -48t-92 -55t-46 -63.5t-12.5 -70.5q0 -66 40 -107t93 -41zM416 1403h35l276 -399h-29l-262 213h-4l-266 -213h-27z" />
<glyph unicode="&#xe3;" horiz-adv-x="907" d="M705 -25q-137 0 -154 162l-4 2q-59 -66 -124 -114t-144 -48q-45 0 -85 16.5t-71 44.5t-48.5 66.5t-17.5 81.5q0 55 24.5 101.5t83 87.5t155 76.5t237.5 70.5l2 53q4 143 -51 208t-152 65q-27 0 -52 -6t-44.5 -14.5t-32 -17.5t-12.5 -15t8 -16.5t19.5 -25t19.5 -34 t8 -39.5q0 -39 -30.5 -68.5t-79.5 -29.5q-47 0 -79 25.5t-32 66.5q0 45 42 88t106.5 76.5t139.5 55t140 21.5q80 0 137.5 -17t92 -57t48 -106.5t9.5 -165.5l-19 -374q-4 -53 14.5 -78t51.5 -25q25 0 46.5 16.5t43.5 36.5l19 -18q-18 -25 -41 -51.5t-50.5 -49t-59 -37 t-64.5 -14.5zM389 102q82 0 156 74l12 311q-92 -23 -150.5 -48t-92 -55t-46 -63.5t-12.5 -70.5q0 -66 40 -107t93 -41zM590 1034q-47 0 -97.5 20.5t-97.5 46t-89 46t-73 20.5q-35 0 -58 -20.5t-36 -95.5h-30q16 133 53 188t119 55q45 0 94 -20.5t96 -46t89 -46t73 -20.5 q35 0 59.5 19.5t38.5 95.5h29q-14 -131 -52 -186.5t-118 -55.5z" />
<glyph unicode="&#xe4;" horiz-adv-x="907" d="M705 -25q-137 0 -154 162l-4 2q-59 -66 -124 -114t-144 -48q-45 0 -85 16.5t-71 44.5t-48.5 66.5t-17.5 81.5q0 55 24.5 101.5t83 87.5t155 76.5t237.5 70.5l2 53q4 143 -51 208t-152 65q-27 0 -52 -6t-44.5 -14.5t-32 -17.5t-12.5 -15t8 -16.5t19.5 -25t19.5 -34 t8 -39.5q0 -39 -30.5 -68.5t-79.5 -29.5q-47 0 -79 25.5t-32 66.5q0 45 42 88t106.5 76.5t139.5 55t140 21.5q80 0 137.5 -17t92 -57t48 -106.5t9.5 -165.5l-19 -374q-4 -53 14.5 -78t51.5 -25q25 0 46.5 16.5t43.5 36.5l19 -18q-18 -25 -41 -51.5t-50.5 -49t-59 -37 t-64.5 -14.5zM389 102q82 0 156 74l12 311q-92 -23 -150.5 -48t-92 -55t-46 -63.5t-12.5 -70.5q0 -66 40 -107t93 -41zM625 1059q-59 0 -89 39t-30 80q0 20 7 42.5t22.5 41t38 30t51.5 11.5q31 0 52 -11.5t36.5 -30t22.5 -41t7 -42.5q0 -41 -29.5 -80t-88.5 -39zM229 1059 q-59 0 -88.5 39t-29.5 80q0 20 7 42.5t22.5 41t38 30t50.5 11.5q31 0 52.5 -11.5t37 -30t22.5 -41t7 -42.5q0 -41 -30 -80t-89 -39z" />
<glyph unicode="&#xe5;" horiz-adv-x="903" d="M434 1030q-86 0 -136 55.5t-50 133.5q0 76 50 131t136 55t135 -55.5t49 -130.5q0 -78 -49 -133.5t-135 -55.5zM705 -25q-137 0 -154 162l-4 2q-59 -66 -124 -114t-144 -48q-45 0 -85 16.5t-71 44.5t-48.5 66.5t-17.5 81.5q0 55 24.5 101.5t83 87.5t155 76.5t237.5 70.5 l2 53q4 143 -51 208t-152 65q-27 0 -52 -6t-44.5 -14.5t-32 -17.5t-12.5 -15t8 -16.5t19.5 -25t19.5 -34t8 -39.5q0 -39 -30.5 -68.5t-79.5 -29.5q-47 0 -79 25.5t-32 66.5q0 45 42 88t106.5 76.5t139.5 55t140 21.5q80 0 137.5 -17t92 -57t48 -106.5t9.5 -165.5l-19 -374 q-4 -53 14.5 -78t51.5 -25q25 0 46.5 16.5t43.5 36.5l19 -18q-18 -25 -41 -51.5t-50.5 -49t-59 -37t-64.5 -14.5zM434 1061q72 0 111 47t39 111q0 61 -39 108t-111 47t-111.5 -47t-39.5 -108q0 -63 39.5 -110.5t111.5 -47.5zM389 102q82 0 156 74l12 311q-92 -23 -150.5 -48 t-92 -55t-46 -63.5t-12.5 -70.5q0 -66 40 -107t93 -41z" />
<glyph unicode="&#xe6;" horiz-adv-x="1413" d="M279 -27q-45 0 -85 16.5t-71 45t-48.5 66.5t-17.5 81q0 55 24.5 103.5t82 89.5t154 77.5t239.5 71.5l2 54q8 139 -50 204.5t-153 65.5q-27 0 -52 -6t-44.5 -14.5t-32 -17.5t-12.5 -15t8 -16.5t19.5 -25t19.5 -34t8 -39.5q0 -39 -30.5 -68.5t-79.5 -29.5q-47 0 -79 25.5 t-32 66.5q0 45 41 88t105.5 76.5t140.5 55t147 21.5q86 0 142.5 -25.5t85.5 -88.5q57 53 132 85t173 32q80 0 143.5 -23t106.5 -61.5t65.5 -93t22.5 -115.5q0 -27 -6 -58q-156 0 -281 2q-53 0 -104.5 1t-93.5 2t-69.5 1h-31.5q-4 -14 -4 -38.5v-40.5q0 -86 23.5 -157 t64.5 -120t97.5 -76.5t123.5 -27.5q84 0 149.5 32.5t118.5 114.5l23 -12q-66 -131 -165 -203t-232 -72q-127 0 -220.5 59.5t-140.5 155.5q-90 -100 -166.5 -157.5t-160.5 -57.5zM770 608q106 0 188 2h129q31 0 58 2q2 51 -6.5 99.5t-27.5 85.5t-49 58.5t-73 21.5 q-39 0 -74.5 -20.5t-65.5 -56.5t-50.5 -85.5t-28.5 -106.5zM387 98q53 0 98 28t105 91q-18 45 -27.5 103.5t-9.5 115.5v24.5t2 24.5q-92 -23 -150.5 -49t-91 -56t-45 -63.5t-12.5 -70.5q0 -66 41 -107t90 -41z" />
<glyph unicode="&#xe7;" horiz-adv-x="878" d="M465 -31q-90 0 -167 34t-132 94.5t-87 142.5t-32 178q0 104 36 195.5t99.5 159t151.5 105t192 37.5q68 0 125.5 -14t99.5 -39.5t65.5 -62.5t23.5 -80q0 -53 -35 -84t-80 -31q-53 0 -87 41t-28 94q0 35 15.5 54.5t15.5 29.5q-4 18 -39 36t-76 18q-55 0 -103 -27t-83 -76 t-55.5 -118.5t-20.5 -155.5q0 -90 22.5 -162t64.5 -122t98.5 -77.5t123.5 -27.5q80 0 142.5 32.5t115.5 116.5l23 -12q-59 -119 -140 -189.5t-194 -85.5l-94 -102q66 8 122 0t98 -29.5t65.5 -56.5t23.5 -78q0 -63 -38 -108t-99 -75t-140 -48.5t-159 -28.5l-10 25 q150 27 232.5 67.5t82.5 114.5q0 59 -51 86t-125 27q-72 0 -139 -23v25l184 200h-8z" />
<glyph unicode="&#xe8;" horiz-adv-x="911" d="M467 -31q-90 0 -167 35t-133 95.5t-88 142.5t-32 178q0 104 35 195.5t98.5 159t148.5 105.5t187 38q80 0 142.5 -23t106.5 -61.5t66.5 -93t22.5 -115.5q0 -27 -6 -58q-158 0 -283 2q-53 0 -105 1t-93 2t-68 1h-31q-4 -14 -5 -38.5t-1 -40.5q0 -86 23.5 -157t65.5 -121 t98.5 -77.5t123.5 -27.5q82 0 147.5 32.5t119.5 116.5l22 -12q-66 -133 -163 -206t-232 -73zM459 608h129q31 0 57 2q0 51 -8 99.5t-26.5 85t-48.5 59.5t-73 23q-39 0 -74.5 -20.5t-65.5 -56.5t-50 -85t-29 -107h189zM164 1401h221l197 -381h-27z" />
<glyph unicode="&#xe9;" horiz-adv-x="911" d="M467 -31q-90 0 -167 35t-133 95.5t-88 142.5t-32 178q0 104 35 195.5t98.5 159t148.5 105.5t187 38q80 0 142.5 -23t106.5 -61.5t66.5 -93t22.5 -115.5q0 -27 -6 -58q-158 0 -283 2q-53 0 -105 1t-93 2t-68 1h-31q-4 -14 -5 -38.5t-1 -40.5q0 -86 23.5 -157t65.5 -121 t98.5 -77.5t123.5 -27.5q82 0 147.5 32.5t119.5 116.5l22 -12q-66 -133 -163 -206t-232 -73zM459 608h129q31 0 57 2q0 51 -8 99.5t-26.5 85t-48.5 59.5t-73 23q-39 0 -74.5 -20.5t-65.5 -56.5t-50 -85t-29 -107h189zM584 1401h223l-391 -381h-29z" />
<glyph unicode="&#xea;" horiz-adv-x="911" d="M467 -31q-90 0 -167 35t-133 95.5t-88 142.5t-32 178q0 104 35 195.5t98.5 159t148.5 105.5t187 38q80 0 142.5 -23t106.5 -61.5t66.5 -93t22.5 -115.5q0 -27 -6 -58q-158 0 -283 2q-53 0 -105 1t-93 2t-68 1h-31q-4 -14 -5 -38.5t-1 -40.5q0 -86 23.5 -157t65.5 -121 t98.5 -77.5t123.5 -27.5q82 0 147.5 32.5t119.5 116.5l22 -12q-66 -133 -163 -206t-232 -73zM459 608h129q31 0 57 2q0 51 -8 99.5t-26.5 85t-48.5 59.5t-73 23q-39 0 -74.5 -20.5t-65.5 -56.5t-50 -85t-29 -107h189zM465 1403h35l276 -399h-28l-263 213h-4l-266 -213h-27z " />
<glyph unicode="&#xeb;" horiz-adv-x="911" d="M467 -31q-90 0 -167 35t-133 95.5t-88 142.5t-32 178q0 104 35 195.5t98.5 159t148.5 105.5t187 38q80 0 142.5 -23t106.5 -61.5t66.5 -93t22.5 -115.5q0 -27 -6 -58q-158 0 -283 2q-53 0 -105 1t-93 2t-68 1h-31q-4 -14 -5 -38.5t-1 -40.5q0 -86 23.5 -157t65.5 -121 t98.5 -77.5t123.5 -27.5q82 0 147.5 32.5t119.5 116.5l22 -12q-66 -133 -163 -206t-232 -73zM459 608h129q31 0 57 2q0 51 -8 99.5t-26.5 85t-48.5 59.5t-73 23q-39 0 -74.5 -20.5t-65.5 -56.5t-50 -85t-29 -107h189zM670 1059q-59 0 -89 39t-30 80q0 20 7 42.5t22.5 41 t38 30t51.5 11.5q31 0 52 -11.5t36.5 -30t22.5 -41t7 -42.5q0 -41 -29.5 -80t-88.5 -39zM274 1059q-59 0 -88.5 39t-29.5 80q0 20 7 42.5t22.5 41t38 30t50.5 11.5q31 0 52.5 -11.5t37 -30t22.5 -41t7 -42.5q0 -41 -30 -80t-89 -39z" />
<glyph unicode="&#xec;" horiz-adv-x="530" d="M45 33l39 2q45 4 63.5 10t18.5 25v557q0 47 -3 75.5t-12.5 46t-27 25.5t-43.5 14l-45 11l2 24l332 90v-847q0 -14 16 -20.5t80 -10.5l33 -2l6 -33h-465zM-51 1401h221l197 -381h-27z" />
<glyph unicode="&#xed;" horiz-adv-x="530" d="M45 33l39 2q45 4 63.5 10t18.5 25v557q0 47 -3 75.5t-12.5 46t-27 25.5t-43.5 14l-45 11l2 24l332 90v-847q0 -14 16 -20.5t80 -10.5l33 -2l6 -33h-465zM367 1401h223l-391 -381h-29z" />
<glyph unicode="&#xee;" horiz-adv-x="530" d="M258 1403h33l256 -399h-29l-242 213h-4l-243 -213h-27zM45 33l39 2q45 4 63.5 10t18.5 25v557q0 47 -3 75.5t-12.5 46t-27 25.5t-43.5 14l-45 11l2 24l332 90v-847q0 -14 16 -20.5t80 -10.5l33 -2l6 -33h-465z" />
<glyph unicode="&#xef;" horiz-adv-x="530" d="M45 33l39 2q45 4 63.5 10t18.5 25v557q0 47 -3 75.5t-12.5 46t-27 25.5t-43.5 14l-45 11l2 24l332 90v-847q0 -14 16 -20.5t80 -10.5l33 -2l6 -33h-465zM473 1059q-59 0 -89 39t-30 80q0 20 7.5 42.5t22.5 41t37.5 30t51.5 11.5q31 0 52.5 -11.5t37 -30t22.5 -41t7 -42.5 q0 -41 -30 -80t-89 -39zM78 1059q-59 0 -89 39t-30 80q0 20 7 42.5t22.5 41t38 30t51.5 11.5q31 0 52.5 -11.5t36.5 -30t22.5 -41t7.5 -42.5q0 -41 -30 -80t-89 -39z" />
<glyph unicode="&#xf0;" horiz-adv-x="1030" d="M188 1047l5 47l227 73q-113 72 -266 103l12 30q102 -10 190 -35.5t166 -62.5q16 4 39 12q16 4 40 11.5t46 15.5l123 41l4 -45l-196 -63q201 -115 304 -293.5t105 -372.5q0 -117 -34.5 -215t-97 -169t-150 -111t-191.5 -40t-190 36t-147.5 99.5t-95.5 149.5t-34 184 q0 104 35 190.5t95.5 150t144.5 98t182 34.5q92 0 168 -26q-37 72 -88.5 134t-118.5 114zM524 12q111 0 172.5 105.5t61.5 300.5q0 104 -17.5 189t-50.5 145.5t-79 93.5t-103 33q-111 0 -171.5 -108.5t-60.5 -293.5q0 -223 62.5 -344t185.5 -121z" />
<glyph unicode="&#xf1;" horiz-adv-x="1091" d="M45 33l39 2q45 4 63.5 10t18.5 25v555q0 47 -4 76.5t-13.5 47t-26 25.5t-42.5 14l-47 11l2 24l336 90l-4 -168h4q35 29 73.5 59t82.5 54.5t91.5 40.5t96.5 16q102 0 164 -63q37 -37 52 -94.5t15 -126.5v-563q0 -6 2 -10.5t12.5 -8.5t31 -8t55.5 -6l30 -2l6 -33h-460l6 33 l39 2q53 4 64 12t11 23v505q0 111 -44 155t-132 44q-63 0 -113.5 -22.5t-86.5 -51.5v-634q0 -14 16 -20.5t76 -10.5l39 -2l4 -33h-463zM711 1034q-47 0 -97.5 20.5t-97.5 46t-89 46t-73 20.5q-35 0 -58.5 -20.5t-35.5 -95.5h-31q16 133 53 188t119 55q45 0 94.5 -20.5 t96.5 -46t89 -46t73 -20.5q35 0 59.5 19.5t38.5 95.5h29q-14 -131 -52 -186.5t-118 -55.5z" />
<glyph unicode="&#xf2;" horiz-adv-x="1054" d="M520 -29q-109 0 -195.5 37t-148 100.5t-95.5 148.5t-34 183t37 185.5t101.5 152t154.5 101t195 36.5q106 0 193 -35.5t149.5 -98t96.5 -146.5t34 -180q0 -102 -36 -190.5t-100.5 -153t-155 -102.5t-196.5 -38zM530 10q57 0 102.5 32t77 87t49 130t17.5 159 q0 135 -26.5 239.5t-79.5 157.5q-25 25 -60 43.5t-86 18.5q-59 0 -105 -32t-77 -87.5t-47 -129t-16 -155.5q0 -139 25.5 -241.5t78.5 -157.5q27 -29 62.5 -46.5t84.5 -17.5zM186 1401h222l196 -381h-26z" />
<glyph unicode="&#xf3;" horiz-adv-x="1054" d="M520 -29q-109 0 -195.5 37t-148 100.5t-95.5 148.5t-34 183t37 185.5t101.5 152t154.5 101t195 36.5q106 0 193 -35.5t149.5 -98t96.5 -146.5t34 -180q0 -102 -36 -190.5t-100.5 -153t-155 -102.5t-196.5 -38zM530 10q57 0 102.5 32t77 87t49 130t17.5 159 q0 135 -26.5 239.5t-79.5 157.5q-25 25 -60 43.5t-86 18.5q-59 0 -105 -32t-77 -87.5t-47 -129t-16 -155.5q0 -139 25.5 -241.5t78.5 -157.5q27 -29 62.5 -46.5t84.5 -17.5zM643 1401h223l-391 -381h-29z" />
<glyph unicode="&#xf4;" horiz-adv-x="1054" d="M520 -29q-109 0 -195.5 37t-148 100.5t-95.5 148.5t-34 183t37 185.5t101.5 152t154.5 101t195 36.5q106 0 193 -35.5t149.5 -98t96.5 -146.5t34 -180q0 -102 -36 -190.5t-100.5 -153t-155 -102.5t-196.5 -38zM530 10q57 0 102.5 32t77 87t49 130t17.5 159 q0 135 -26.5 239.5t-79.5 157.5q-25 25 -60 43.5t-86 18.5q-59 0 -105 -32t-77 -87.5t-47 -129t-16 -155.5q0 -139 25.5 -241.5t78.5 -157.5q27 -29 62.5 -46.5t84.5 -17.5zM510 1403h35l276 -399h-28l-263 213h-4l-266 -213h-27z" />
<glyph unicode="&#xf5;" horiz-adv-x="1054" d="M520 -29q-109 0 -195.5 37t-148 100.5t-95.5 148.5t-34 183t37 185.5t101.5 152t154.5 101t195 36.5q106 0 193 -35.5t149.5 -98t96.5 -146.5t34 -180q0 -102 -36 -190.5t-100.5 -153t-155 -102.5t-196.5 -38zM530 10q57 0 102.5 32t77 87t49 130t17.5 159 q0 135 -26.5 239.5t-79.5 157.5q-25 25 -60 43.5t-86 18.5q-59 0 -105 -32t-77 -87.5t-47 -129t-16 -155.5q0 -139 25.5 -241.5t78.5 -157.5q27 -29 62.5 -46.5t84.5 -17.5zM682 1034q-47 0 -97 20.5t-97.5 46t-89.5 46t-72 20.5q-35 0 -58.5 -20.5t-36.5 -95.5h-30 q16 133 53 188t119 55q45 0 94 -20.5t96 -46t89 -46t73 -20.5q35 0 59.5 19.5t38.5 95.5h29q-14 -131 -52 -186.5t-118 -55.5z" />
<glyph unicode="&#xf6;" horiz-adv-x="1054" d="M520 -29q-109 0 -195.5 37t-148 100.5t-95.5 148.5t-34 183t37 185.5t101.5 152t154.5 101t195 36.5q106 0 193 -35.5t149.5 -98t96.5 -146.5t34 -180q0 -102 -36 -190.5t-100.5 -153t-155 -102.5t-196.5 -38zM530 10q57 0 102.5 32t77 87t49 130t17.5 159 q0 135 -26.5 239.5t-79.5 157.5q-25 25 -60 43.5t-86 18.5q-59 0 -105 -32t-77 -87.5t-47 -129t-16 -155.5q0 -139 25.5 -241.5t78.5 -157.5q27 -29 62.5 -46.5t84.5 -17.5zM725 1059q-59 0 -89 39t-30 80q0 20 7.5 42.5t22.5 41t37.5 30t51.5 11.5q31 0 52.5 -11.5 t36.5 -30t22.5 -41t7.5 -42.5q0 -41 -30 -80t-89 -39zM330 1059q-59 0 -89 39t-30 80q0 20 7 42.5t22.5 41t38 30t51.5 11.5q31 0 52 -11.5t36.5 -30t23 -41t7.5 -42.5q0 -41 -30 -80t-89 -39z" />
<glyph unicode="&#xf7;" horiz-adv-x="917" d="M559 772q0 -41 -28.5 -71.5t-73.5 -30.5q-43 0 -72 30.5t-29 71.5q0 39 29 68.5t72 29.5q45 0 73.5 -29.5t28.5 -68.5zM49 461l6 45h807l6 -45h-819zM559 201q0 -41 -28.5 -72t-71.5 -31q-45 0 -74 31t-29 72q0 39 29 67.5t74 28.5q43 0 71.5 -28.5t28.5 -67.5z" />
<glyph unicode="&#xf8;" horiz-adv-x="1054" d="M262 39q-102 61 -158.5 166.5t-56.5 234.5q0 98 37 185.5t101.5 152t154.5 101t195 36.5q59 0 111 -11t99 -32l185 320h41l-195 -336q109 -59 170.5 -164.5t61.5 -236.5q0 -102 -36 -190.5t-100.5 -153t-154.5 -102.5t-197 -38q-125 0 -227 52l-164 -285h-41zM694 784 q-6 10 -12 16.5t-12 14.5q-25 25 -60 44.5t-86 19.5q-59 0 -105 -33t-77 -88.5t-47 -129t-16 -155.5q0 -98 12 -178t39 -139zM348 119q8 -12 16.5 -23.5t18.5 -21.5q27 -29 62.5 -46.5t84.5 -17.5q57 0 102.5 32t77 87t49 130t17.5 159q0 102 -15.5 187t-45.5 145z" />
<glyph unicode="&#xf9;" horiz-adv-x="1046" d="M713 141h-6q-35 -31 -74 -61.5t-81 -54t-89 -39t-96 -15.5t-88 16.5t-74 49.5q-37 37 -52.5 93t-15.5 128l4 563q0 14 -16 19.5t-86 11.5l-33 4l-6 31h346l-6 -576q0 -111 45 -154.5t133 -43.5q61 0 109.5 21.5t83.5 49.5v600q0 39 -18.5 51.5t-80.5 16.5l-39 4l-6 31 h346v-717q0 -41 8.5 -55.5t30.5 -20.5l97 -24l-2 -23l-336 -80zM184 1401h222l196 -381h-27z" />
<glyph unicode="&#xfa;" horiz-adv-x="1046" d="M713 141h-6q-35 -31 -74 -61.5t-81 -54t-89 -39t-96 -15.5t-88 16.5t-74 49.5q-37 37 -52.5 93t-15.5 128l4 563q0 14 -16 19.5t-86 11.5l-33 4l-6 31h346l-6 -576q0 -111 45 -154.5t133 -43.5q61 0 109.5 21.5t83.5 49.5v600q0 39 -18.5 51.5t-80.5 16.5l-39 4l-6 31 h346v-717q0 -41 8.5 -55.5t30.5 -20.5l97 -24l-2 -23l-336 -80zM625 1401h223l-391 -381h-29z" />
<glyph unicode="&#xfb;" horiz-adv-x="1046" d="M713 141h-6q-35 -31 -74 -61.5t-81 -54t-89 -39t-96 -15.5t-88 16.5t-74 49.5q-37 37 -52.5 93t-15.5 128l4 563q0 14 -16 19.5t-86 11.5l-33 4l-6 31h346l-6 -576q0 -111 45 -154.5t133 -43.5q61 0 109.5 21.5t83.5 49.5v600q0 39 -18.5 51.5t-80.5 16.5l-39 4l-6 31 h346v-717q0 -41 8.5 -55.5t30.5 -20.5l97 -24l-2 -23l-336 -80zM498 1403h34l277 -399h-29l-262 213h-4l-266 -213h-27z" />
<glyph unicode="&#xfc;" horiz-adv-x="1046" d="M713 141h-6q-35 -31 -74 -61.5t-81 -54t-89 -39t-96 -15.5t-88 16.5t-74 49.5q-37 37 -52.5 93t-15.5 128l4 563q0 14 -16 19.5t-86 11.5l-33 4l-6 31h346l-6 -576q0 -111 45 -154.5t133 -43.5q61 0 109.5 21.5t83.5 49.5v600q0 39 -18.5 51.5t-80.5 16.5l-39 4l-6 31 h346v-717q0 -41 8.5 -55.5t30.5 -20.5l97 -24l-2 -23l-336 -80zM332 1059q-59 0 -89 39t-30 80q0 20 7 42.5t22.5 41t38 30t51.5 11.5q31 0 52.5 -11.5t36.5 -30t22.5 -41t7.5 -42.5q0 -41 -30 -80t-89 -39zM727 1059q-59 0 -89 39t-30 80q0 20 7.5 42.5t22.5 41t37.5 30 t51.5 11.5q31 0 52.5 -11.5t36.5 -30t22.5 -41t7.5 -42.5q0 -41 -30 -80t-89 -39z" />
<glyph unicode="&#xfd;" horiz-adv-x="962" d="M205 -528q-55 0 -96 31.5t-41 84.5q0 47 30.5 79t79.5 32q57 0 87 -29.5t40 -68.5q35 10 58.5 52t50.5 116l71 211h-10l-342 759q-14 33 -24.5 52.5t-22.5 31t-26.5 16.5t-39.5 9l-40 6l-7 31h482l-6 -31l-41 -6q-51 -4 -62.5 -24.5t10.5 -67.5l222 -520l147 405 q20 61 28.5 99t1.5 60.5t-33 32t-69 15.5l-39 6l-6 31h367l-6 -31l-41 -6q-31 -4 -50.5 -12.5t-36 -32t-33.5 -66.5t-44 -112l-225 -607l-90 -274q-45 -135 -100.5 -203.5t-143.5 -68.5zM610 1401h224l-392 -381h-28z" />
<glyph unicode="&#xfe;" horiz-adv-x="1044" d="M-14 -481l43 2q45 4 63.5 10t18.5 25v1607q0 45 -13.5 62.5t-54.5 29.5l-68 25l2 23l334 90v-660l8 -2q63 74 141.5 124t170.5 50q80 0 146.5 -32.5t115.5 -91t76.5 -138.5t27.5 -174q0 -117 -41 -210t-108.5 -156.5t-154.5 -97.5t-177 -34q-59 0 -110.5 10.5t-88.5 26.5 h-6v-459q0 -12 17.5 -18t81.5 -10l71 -2l6 -33h-507zM551 14q51 0 92 31t70.5 83t45 124t15.5 154q0 78 -18.5 145t-52 116.5t-81 77t-106.5 27.5q-66 0 -117 -27.5t-88 -68.5v-481q41 -76 104.5 -128.5t135.5 -52.5z" />
<glyph unicode="&#xff;" horiz-adv-x="962" d="M205 -528q-55 0 -96 31.5t-41 84.5q0 47 30.5 79t79.5 32q57 0 87 -29.5t40 -68.5q35 10 58.5 52t50.5 116l71 211h-10l-342 759q-14 33 -24.5 52.5t-22.5 31t-26.5 16.5t-39.5 9l-40 6l-7 31h482l-6 -31l-41 -6q-51 -4 -62.5 -24.5t10.5 -67.5l222 -520l147 405 q20 61 28.5 99t1.5 60.5t-33 32t-69 15.5l-39 6l-6 31h367l-6 -31l-41 -6q-31 -4 -50.5 -12.5t-36 -32t-33.5 -66.5t-44 -112l-225 -607l-90 -274q-45 -135 -100.5 -203.5t-143.5 -68.5zM694 1059q-59 0 -89 39t-30 80q0 20 7.5 42.5t23 41t38 30t50.5 11.5q31 0 52.5 -11.5 t37 -30t22.5 -41t7 -42.5q0 -41 -30 -80t-89 -39zM299 1059q-59 0 -89 39t-30 80q0 20 7.5 42.5t22.5 41t37.5 30t51.5 11.5q31 0 52.5 -11.5t36.5 -30t22.5 -41t7.5 -42.5q0 -41 -30 -80t-89 -39z" />
<glyph unicode="&#x100;" horiz-adv-x="1296" d="M369 522l-66 -186q-31 -90 -45 -145.5t-8 -86t35.5 -44t89.5 -19.5l53 -8l6 -33h-454l6 33l37 6q45 6 74.5 20.5t57 57.5t60.5 125t86 225l231 645l-18 68q20 6 46 21.5t48.5 33.5t42 39.5t27.5 40.5h31l358 -1075q20 -59 36.5 -97.5t34 -60t38 -30.5t51.5 -11l67 -8 l6 -33h-604l6 33l68 8q37 2 55.5 13.5t23.5 35t-2 61t-26 91.5l-88 280h-364zM719 565l-156 498h-6l-174 -498h336zM391 1554h524l-12 -79h-528z" />
<glyph unicode="&#x101;" horiz-adv-x="907" d="M705 -25q-137 0 -154 162l-4 2q-59 -66 -124 -114t-144 -48q-45 0 -85 16.5t-71 44.5t-48.5 66.5t-17.5 81.5q0 55 24.5 101.5t83 87.5t155 76.5t237.5 70.5l2 53q4 143 -51 208t-152 65q-27 0 -52 -6t-44.5 -14.5t-32 -17.5t-12.5 -15t8 -16.5t19.5 -25t19.5 -34 t8 -39.5q0 -39 -30.5 -68.5t-79.5 -29.5q-47 0 -79 25.5t-32 66.5q0 45 42 88t106.5 76.5t139.5 55t140 21.5q80 0 137.5 -17t92 -57t48 -106.5t9.5 -165.5l-19 -374q-4 -53 14.5 -78t51.5 -25q25 0 46.5 16.5t43.5 36.5l19 -18q-18 -25 -41 -51.5t-50.5 -49t-59 -37 t-64.5 -14.5zM389 102q82 0 156 74l12 311q-92 -23 -150.5 -48t-92 -55t-46 -63.5t-12.5 -70.5q0 -66 40 -107t93 -41zM190 1161h525l-13 -80h-528z" />
<glyph unicode="&#x102;" horiz-adv-x="1296" d="M369 522l-66 -186q-31 -90 -45 -145.5t-8 -86t35.5 -44t89.5 -19.5l53 -8l6 -33h-454l6 33l37 6q45 6 74.5 20.5t57 57.5t60.5 125t86 225l231 645l-18 68q20 6 46 21.5t48.5 33.5t42 39.5t27.5 40.5h31l358 -1075q20 -59 36.5 -97.5t34 -60t38 -30.5t51.5 -11l67 -8 l6 -33h-604l6 33l68 8q37 2 55.5 13.5t23.5 35t-2 61t-26 91.5l-88 280h-364zM719 565l-156 498h-6l-174 -498h336zM631 1403q-66 0 -112 30.5t-77.5 82t-52 120t-35.5 144.5h27q41 -119 103.5 -182.5t150.5 -63.5q86 0 148.5 64.5t103.5 181.5h26q-14 -76 -34.5 -144.5 t-53 -120t-79.5 -82t-115 -30.5z" />
<glyph unicode="&#x103;" horiz-adv-x="907" d="M705 -25q-137 0 -154 162l-4 2q-59 -66 -124 -114t-144 -48q-45 0 -85 16.5t-71 44.5t-48.5 66.5t-17.5 81.5q0 55 24.5 101.5t83 87.5t155 76.5t237.5 70.5l2 53q4 143 -51 208t-152 65q-27 0 -52 -6t-44.5 -14.5t-32 -17.5t-12.5 -15t8 -16.5t19.5 -25t19.5 -34 t8 -39.5q0 -39 -30.5 -68.5t-79.5 -29.5q-47 0 -79 25.5t-32 66.5q0 45 42 88t106.5 76.5t139.5 55t140 21.5q80 0 137.5 -17t92 -57t48 -106.5t9.5 -165.5l-19 -374q-4 -53 14.5 -78t51.5 -25q25 0 46.5 16.5t43.5 36.5l19 -18q-18 -25 -41 -51.5t-50.5 -49t-59 -37 t-64.5 -14.5zM389 102q82 0 156 74l12 311q-92 -23 -150.5 -48t-92 -55t-46 -63.5t-12.5 -70.5q0 -66 40 -107t93 -41zM442 1010q-66 0 -111.5 30.5t-77.5 82t-52.5 120t-34.5 143.5h27q41 -119 103 -182t150 -63q86 0 148.5 64.5t103.5 180.5h27q-14 -76 -34.5 -144 t-53.5 -119.5t-80 -82t-115 -30.5z" />
<glyph unicode="&#x104;" horiz-adv-x="1296" d="M1096 -479q-84 0 -139.5 48t-55.5 134q0 51 26.5 100.5t68.5 88t93.5 67.5t98.5 41h-492l6 33l68 6q37 2 56.5 14.5t24.5 36t-2 61t-26 91.5l-90 280h-366l-64 -186q-31 -90 -45 -145.5t-8 -86t35.5 -45t89.5 -20.5l51 -6l6 -33h-455l7 33l41 6q43 6 72.5 20.5t57 57.5 t61.5 125t85 225l229 645l-16 68q20 6 47 21.5t52.5 33.5t46 38.5t28.5 41.5h21l358 -1073q20 -61 36.5 -99.5t34 -60t39 -30.5t52.5 -11l67 -8l7 -33q-125 -23 -197 -82t-72 -162q0 -66 37 -99.5t100 -33.5q41 0 68 16.5t51 41.5l13 -13q-8 -23 -27 -48.5t-45.5 -48 t-61 -36.5t-73.5 -14zM719 565l-156 498h-8l-174 -498h338z" />
<glyph unicode="&#x105;" horiz-adv-x="907" d="M686 -479q-86 0 -140 51t-54 137q0 45 17 86t47 75t65.5 61.5t72.5 48.5h-2q-61 2 -98 40.5t-43 116.5l-4 2q-59 -66 -124 -114t-144 -48q-47 0 -87 16.5t-70 44.5t-47.5 66.5t-17.5 81.5q0 55 24.5 101.5t83 88.5t155 77.5t237.5 70.5l2 51q4 145 -51 209t-152 64 q-27 0 -52 -5t-44.5 -13.5t-32 -17.5t-12.5 -17q0 -6 8 -16.5t19.5 -25t19.5 -34t8 -39.5q0 -39 -30.5 -68.5t-79.5 -29.5q-47 0 -79 26.5t-32 67.5q0 43 42 86t106.5 76.5t139.5 55t140 21.5q82 0 138.5 -17t92 -57t49 -106.5t9.5 -167.5l-18 -372q-6 -102 65 -103 q23 0 45.5 15.5t44.5 37.5l19 -18q-23 -33 -61 -72t-87 -65q-76 -41 -112.5 -101.5t-36.5 -126.5t36.5 -102.5t100.5 -36.5q41 0 67.5 16.5t53.5 41.5l10 -13q-8 -23 -26.5 -48.5t-45 -48t-61.5 -36.5t-74 -14zM391 102q80 0 154 74l12 311q-92 -23 -149.5 -48t-91 -55 t-46 -63.5t-12.5 -70.5q0 -66 40 -107t93 -41z" />
<glyph unicode="&#x106;" horiz-adv-x="1409" d="M858 1794h223l-391 -381h-28zM795 -29q-160 0 -294 46t-230.5 132.5t-150.5 208t-54 273.5q0 150 53 273.5t150.5 213.5t234.5 140.5t305 50.5q49 0 98 -6.5t92 -16.5t79 -22.5t61 -24.5l141 45l6 -416h-45l-160 330q-43 29 -112.5 48.5t-159.5 19.5q-117 0 -208 -48.5 t-153.5 -131t-95.5 -195.5t-33 -242q0 -143 37 -261t102.5 -201t156 -128t196.5 -45q141 0 231.5 60.5t161.5 171.5q4 10 10 24q4 10 10.5 25.5t14.5 32.5q14 37 35 82h47l-64 -365l-81 -2q-29 -12 -73 -24.5t-95.5 -23.5t-106.5 -17.5t-106 -6.5z" />
<glyph unicode="&#x107;" horiz-adv-x="878" d="M578 1401h223l-391 -381h-29zM465 -31q-90 0 -167 34t-132 94.5t-87 142.5t-32 178q0 104 36 195.5t99.5 159t151.5 105t192 37.5q68 0 125.5 -14t99.5 -39.5t65.5 -62.5t23.5 -80q0 -53 -35 -84t-80 -31q-53 0 -87 41t-28 94q0 35 15.5 54.5t15.5 29.5q-4 18 -39 36 t-76 18q-55 0 -103 -27t-83 -76t-55.5 -118.5t-20.5 -155.5q0 -90 22.5 -162t64.5 -122t98.5 -77.5t123.5 -27.5q80 0 142.5 32.5t115.5 116.5l23 -12q-66 -133 -160 -206t-229 -73z" />
<glyph unicode="&#x108;" horiz-adv-x="1409" d="M758 1796h35l276 -399h-29l-262 213h-4l-266 -213h-27zM795 -29q-160 0 -294 46t-230.5 132.5t-150.5 208t-54 273.5q0 150 53 273.5t150.5 213.5t234.5 140.5t305 50.5q49 0 98 -6.5t92 -16.5t79 -22.5t61 -24.5l141 45l6 -416h-45l-160 330q-43 29 -112.5 48.5 t-159.5 19.5q-117 0 -208 -48.5t-153.5 -131t-95.5 -195.5t-33 -242q0 -143 37 -261t102.5 -201t156 -128t196.5 -45q141 0 231.5 60.5t161.5 171.5q4 10 10 24q4 10 10.5 25.5t14.5 32.5q14 37 35 82h47l-64 -365l-81 -2q-29 -12 -73 -24.5t-95.5 -23.5t-106.5 -17.5 t-106 -6.5z" />
<glyph unicode="&#x109;" horiz-adv-x="878" d="M481 1403h35l277 -399h-29l-262 213h-4l-267 -213h-26zM465 -31q-90 0 -167 34t-132 94.5t-87 142.5t-32 178q0 104 36 195.5t99.5 159t151.5 105t192 37.5q68 0 125.5 -14t99.5 -39.5t65.5 -62.5t23.5 -80q0 -53 -35 -84t-80 -31q-53 0 -87 41t-28 94q0 35 15.5 54.5 t15.5 29.5q-4 18 -39 36t-76 18q-55 0 -103 -27t-83 -76t-55.5 -118.5t-20.5 -155.5q0 -90 22.5 -162t64.5 -122t98.5 -77.5t123.5 -27.5q80 0 142.5 32.5t115.5 116.5l23 -12q-66 -133 -160 -206t-229 -73z" />
<glyph unicode="&#x10a;" horiz-adv-x="1409" d="M795 -29q-160 0 -294 46t-230.5 132.5t-150.5 208t-54 273.5q0 150 53 273.5t150.5 213.5t234.5 140.5t305 50.5q49 0 98 -6.5t92 -16.5t79 -22.5t61 -24.5l141 45l6 -416h-45l-160 330q-43 29 -112.5 48.5t-159.5 19.5q-117 0 -208 -48.5t-153.5 -131t-95.5 -195.5 t-33 -242q0 -143 37 -261t102.5 -201t156 -128t196.5 -45q141 0 231.5 60.5t161.5 171.5q4 10 10 24q4 10 10.5 25.5t14.5 32.5q14 37 35 82h47l-64 -365l-81 -2q-29 -12 -73 -24.5t-95.5 -23.5t-106.5 -17.5t-106 -6.5zM797 1473q-61 0 -93 40.5t-32 85.5t31.5 87.5 t93.5 42.5q61 0 92 -42t31 -88q0 -45 -31 -85.5t-92 -40.5z" />
<glyph unicode="&#x10b;" horiz-adv-x="878" d="M465 -31q-90 0 -167 34t-132 94.5t-87 142.5t-32 178q0 104 36 195.5t99.5 159t151.5 105t192 37.5q68 0 125.5 -14t99.5 -39.5t65.5 -62.5t23.5 -80q0 -53 -35 -84t-80 -31q-53 0 -87 41t-28 94q0 35 15.5 54.5t15.5 29.5q-4 18 -39 36t-76 18q-55 0 -103 -27t-83 -76 t-55.5 -118.5t-20.5 -155.5q0 -90 22.5 -162t64.5 -122t98.5 -77.5t123.5 -27.5q80 0 142.5 32.5t115.5 116.5l23 -12q-66 -133 -160 -206t-229 -73zM498 1079q-61 0 -93 41t-32 86t31.5 87t93.5 42q61 0 92 -42t31 -87t-31 -86t-92 -41z" />
<glyph unicode="&#x10c;" horiz-adv-x="1409" d="M481 1796h27l266 -213h4l264 213h27l-276 -399h-35zM795 -29q-160 0 -294 46t-230.5 132.5t-150.5 208t-54 273.5q0 150 53 273.5t150.5 213.5t234.5 140.5t305 50.5q49 0 98 -6.5t92 -16.5t79 -22.5t61 -24.5l141 45l6 -416h-45l-160 330q-43 29 -112.5 48.5 t-159.5 19.5q-117 0 -208 -48.5t-153.5 -131t-95.5 -195.5t-33 -242q0 -143 37 -261t102.5 -201t156 -128t196.5 -45q141 0 231.5 60.5t161.5 171.5q4 10 10 24q4 10 10.5 25.5t14.5 32.5q14 37 35 82h47l-64 -365l-81 -2q-29 -12 -73 -24.5t-95.5 -23.5t-106.5 -17.5 t-106 -6.5z" />
<glyph unicode="&#x10d;" horiz-adv-x="878" d="M203 1403h26l267 -213h4l264 213h27l-277 -399h-35zM465 -31q-90 0 -167 34t-132 94.5t-87 142.5t-32 178q0 104 36 195.5t99.5 159t151.5 105t192 37.5q68 0 125.5 -14t99.5 -39.5t65.5 -62.5t23.5 -80q0 -53 -35 -84t-80 -31q-53 0 -87 41t-28 94q0 35 15.5 54.5 t15.5 29.5q-4 18 -39 36t-76 18q-55 0 -103 -27t-83 -76t-55.5 -118.5t-20.5 -155.5q0 -90 22.5 -162t64.5 -122t98.5 -77.5t123.5 -27.5q80 0 142.5 32.5t115.5 116.5l23 -12q-66 -133 -160 -206t-229 -73z" />
<glyph unicode="&#x10e;" horiz-adv-x="1402" d="M319 1796h27l266 -213h4l265 213h26l-276 -399h-35zM59 33l76 8q49 4 69.5 14.5t20.5 20.5v1134q0 12 -17.5 18.5t-86.5 12.5l-60 6l-6 33q154 0 275 2h100t86 1t60 1h22q182 2 320.5 -43t232.5 -127t141 -197.5t47 -252.5q0 -135 -51 -256t-149.5 -211.5t-243.5 -143.5 t-334 -53h-508zM594 39q123 2 216 49t154.5 127t93.5 183.5t32 219.5q0 133 -32 247t-97.5 198t-167 131t-240.5 47h-98v-1163z" />
<glyph unicode="&#x10f;" horiz-adv-x="1474" d="M731 143l-6 2q-59 -74 -138 -123t-171 -49q-78 0 -145.5 33t-117 91.5t-78 138t-28.5 176.5q0 119 42 210t109.5 154.5t154.5 96t179 32.5q117 0 195 -35h2h2v314q0 45 -13 63.5t-54 26.5l-86 22l4 23l350 74v-1243q0 -41 8 -55.5t31 -20.5l98 -23l-2 -24l-336 -60v176z M532 102q66 0 113 27t86 66v489q-39 76 -102.5 127t-132.5 51q-53 0 -95.5 -29.5t-71 -82t-44 -123t-15.5 -152.5q0 -80 18.5 -147.5t52.5 -117.5t83 -79t108 -29zM1094 870q78 41 127 103.5t49 134.5q0 51 -28 81t-59.5 46t-59 21.5t-27.5 7.5q0 45 33.5 88t103.5 43 q39 0 72.5 -15.5t58.5 -41t38 -61.5t13 -77q0 -104 -81 -197.5t-216 -152.5z" />
<glyph unicode="&#x110;" horiz-adv-x="1394" d="M41 623l6 45h178v534q0 12 -28.5 21.5t-69.5 13.5l-82 10l-6 33q156 0 278 2h101.5t89.5 1t62 1h24q180 2 318.5 -42t232.5 -127t142 -197.5t48 -253.5t-51 -260t-149.5 -210.5t-244 -141.5t-331.5 -52h-522l6 33l98 12q47 4 65.5 14.5t18.5 22.5v541h-184zM725 668 l6 -45h-278v-543l139 -39q123 0 215 46t155.5 125t95.5 183.5t32 218.5q0 135 -32 249t-98.5 198t-168 131t-242.5 47h-96v-571h272z" />
<glyph unicode="&#x111;" horiz-adv-x="1067" d="M731 143l-6 2q-59 -74 -138 -123t-171 -49q-78 0 -145.5 33t-117 91.5t-78 138t-28.5 176.5q0 119 42 210t109.5 154.5t154.5 96t179 32.5q117 0 195 -35h2h2v174h-215l-12 74h227v66q0 45 -13 63.5t-54 26.5l-86 22l4 23l350 74v-275h135l16 -74h-151v-894 q0 -41 8 -55.5t31 -20.5l98 -23l-2 -24l-336 -60v176zM532 102q66 0 113 27t86 66v489q-39 76 -102.5 127t-132.5 51q-53 0 -95.5 -29.5t-71 -82t-44 -123t-15.5 -152.5q0 -80 18.5 -147.5t52.5 -117.5t83 -79t108 -29z" />
<glyph unicode="&#x112;" horiz-adv-x="1241" d="M59 33l72 8q94 8 94 35v1134q0 12 -17.5 18.5t-86.5 12.5l-60 6l-6 33h1026l19 -406h-45l-21 72q-25 78 -52.5 133.5t-74.5 91t-117.5 53t-181.5 17.5l-153 -2v-563h80q68 2 114.5 10t78.5 23.5t52.5 42t34.5 69.5l23 64l39 -2l-48 -463l-38 2l-7 61q-4 45 -17 73t-43 44 t-79 22.5t-125 10.5l-65 4v-590l182 -6q115 0 191.5 22.5t128 62.5t83 95t58.5 123l22 68l47 -2l-57 -410h-1057zM362 1554h525l-13 -79h-528z" />
<glyph unicode="&#x113;" horiz-adv-x="913" d="M467 -31q-90 0 -167 35t-133 95.5t-88 142.5t-32 178q0 104 35 195.5t98.5 159t148.5 105.5t187 38q80 0 142.5 -23t106.5 -61.5t66.5 -93t22.5 -115.5q0 -27 -6 -58q-158 0 -283 2q-53 0 -105 1t-93 2t-68 1h-31q-4 -14 -5 -38.5t-1 -40.5q0 -86 23.5 -157t65.5 -121 t98.5 -77.5t123.5 -27.5q82 0 147.5 32.5t119.5 116.5l22 -12q-66 -133 -163 -206t-232 -73zM459 608h129q31 0 57 2q0 51 -8 99.5t-26.5 85t-48.5 59.5t-73 23q-39 0 -74.5 -20.5t-65.5 -56.5t-50 -85t-29 -107h189zM242 1161h524l-12 -80h-529z" />
<glyph unicode="&#x114;" horiz-adv-x="1241" d="M59 33l72 8q94 8 94 35v1134q0 12 -17.5 18.5t-86.5 12.5l-60 6l-6 33h1026l19 -406h-45l-21 72q-25 78 -52.5 133.5t-74.5 91t-117.5 53t-181.5 17.5l-153 -2v-563h80q68 2 114.5 10t78.5 23.5t52.5 42t34.5 69.5l23 64l39 -2l-48 -463l-38 2l-7 61q-4 45 -17 73t-43 44 t-79 22.5t-125 10.5l-65 4v-590l182 -6q115 0 191.5 22.5t128 62.5t83 95t58.5 123l22 68l47 -2l-57 -410h-1057zM616 1403q-66 0 -111.5 30.5t-77.5 82t-52.5 120t-34.5 144.5h27q41 -119 103 -182.5t151 -63.5q86 0 148 64.5t103 181.5h27q-14 -76 -34.5 -144.5 t-53.5 -120t-80 -82t-115 -30.5z" />
<glyph unicode="&#x115;" horiz-adv-x="913" d="M467 -31q-90 0 -167 35t-133 95.5t-88 142.5t-32 178q0 104 35 195.5t98.5 159t148.5 105.5t187 38q80 0 142.5 -23t106.5 -61.5t66.5 -93t22.5 -115.5q0 -27 -6 -58q-158 0 -283 2q-53 0 -105 1t-93 2t-68 1h-31q-4 -14 -5 -38.5t-1 -40.5q0 -86 23.5 -157t65.5 -121 t98.5 -77.5t123.5 -27.5q82 0 147.5 32.5t119.5 116.5l22 -12q-66 -133 -163 -206t-232 -73zM459 608h129q31 0 57 2q0 51 -8 99.5t-26.5 85t-48.5 59.5t-73 23q-39 0 -74.5 -20.5t-65.5 -56.5t-50 -85t-29 -107h189zM498 1010q-66 0 -112 30.5t-78 82t-52 120t-35 143.5h27 q41 -119 103.5 -182t150.5 -63q86 0 148.5 64.5t103.5 180.5h26q-14 -76 -34.5 -144t-53.5 -119.5t-79.5 -82t-114.5 -30.5z" />
<glyph unicode="&#x116;" horiz-adv-x="1241" d="M59 33l72 8q94 8 94 35v1134q0 12 -17.5 18.5t-86.5 12.5l-60 6l-6 33h1026l19 -406h-45l-21 72q-25 78 -52.5 133.5t-74.5 91t-117.5 53t-181.5 17.5l-153 -2v-563h80q68 2 114.5 10t78.5 23.5t52.5 42t34.5 69.5l23 64l39 -2l-48 -463l-38 2l-7 61q-4 45 -17 73t-43 44 t-79 22.5t-125 10.5l-65 4v-590l182 -6q115 0 191.5 22.5t128 62.5t83 95t58.5 123l22 68l47 -2l-57 -410h-1057zM623 1473q-61 0 -93 40.5t-32 85.5t31.5 87.5t93.5 42.5q61 0 91.5 -42t30.5 -88q0 -45 -30.5 -85.5t-91.5 -40.5z" />
<glyph unicode="&#x117;" horiz-adv-x="913" d="M467 -31q-90 0 -167 35t-133 95.5t-88 142.5t-32 178q0 104 35 195.5t98.5 159t148.5 105.5t187 38q80 0 142.5 -23t106.5 -61.5t66.5 -93t22.5 -115.5q0 -27 -6 -58q-158 0 -283 2q-53 0 -105 1t-93 2t-68 1h-31q-4 -14 -5 -38.5t-1 -40.5q0 -86 23.5 -157t65.5 -121 t98.5 -77.5t123.5 -27.5q82 0 147.5 32.5t119.5 116.5l22 -12q-66 -133 -163 -206t-232 -73zM459 608h129q31 0 57 2q0 51 -8 99.5t-26.5 85t-48.5 59.5t-73 23q-39 0 -74.5 -20.5t-65.5 -56.5t-50 -85t-29 -107h189zM500 1079q-61 0 -93 41t-32 86t31.5 87t93.5 42 q61 0 92 -42t31 -87t-31 -86t-92 -41z" />
<glyph unicode="&#x118;" horiz-adv-x="1241" d="M905 -479q-84 0 -138 52t-54 136q0 49 20.5 92t53 80t73.5 66.5t84 52.5h-891l6 31l72 10q94 8 94 33v1136q0 12 -18.5 18.5t-87.5 12.5l-60 8l-6 31h1030l17 -406l-45 -2l-21 74q-25 78 -52.5 133.5t-74.5 91t-117.5 53t-181.5 17.5l-151 -2v-563h78q68 2 114.5 10 t78.5 23.5t52.5 42t34.5 69.5l23 64l39 -2l-48 -463l-38 2l-7 61q-4 45 -17 73t-42 44t-78 22.5t-125 10.5l-65 4v-590l180 -6q115 0 191.5 22.5t128 62.5t83 95t58.5 123l22 68h47l-57 -412h-113q-78 -51 -113.5 -111.5t-35.5 -126.5q0 -63 35 -101t98 -38q39 0 66.5 16.5 t52.5 41.5l12 -13q-8 -23 -26.5 -48.5t-46 -48t-61.5 -36.5t-73 -14z" />
<glyph unicode="&#x119;" horiz-adv-x="913" d="M530 -479q-84 0 -138 51t-54 137q0 43 17.5 83t45 74t64.5 61.5t74 49.5q-12 -4 -34 -5t-38 -1q-92 0 -169 34t-132 94.5t-87 142.5t-32 178q0 104 35 195.5t98.5 159t148.5 105.5t187 38q80 0 143.5 -23t106.5 -62.5t65.5 -93t22.5 -116.5q0 -25 -6 -56q-158 0 -283 2 q-53 0 -105 1t-93 2t-68 1h-31q-2 -14 -3 -39.5t-1 -39.5q0 -86 23.5 -157t64.5 -121t98.5 -77.5t124.5 -27.5q82 0 147.5 32.5t119.5 116.5l22 -12q-45 -92 -97 -147.5t-126 -96.5q-80 -41 -125 -108.5t-45 -133.5t36 -102.5t99 -36.5q41 0 67.5 16.5t51.5 41.5l12 -13 q-8 -23 -26.5 -48.5t-45 -48t-61.5 -36.5t-74 -14zM643 610q2 51 -6 99.5t-26.5 85t-48.5 59.5t-73 23q-39 0 -74.5 -20.5t-64 -56.5t-49 -85t-29.5 -107z" />
<glyph unicode="&#x11a;" horiz-adv-x="1241" d="M326 1796h26l266 -213h5l264 213h26l-276 -399h-35zM59 33l72 8q94 8 94 35v1134q0 12 -17.5 18.5t-86.5 12.5l-60 6l-6 33h1026l19 -406h-45l-21 72q-25 78 -52.5 133.5t-74.5 91t-117.5 53t-181.5 17.5l-153 -2v-563h80q68 2 114.5 10t78.5 23.5t52.5 42t34.5 69.5 l23 64l39 -2l-48 -463l-38 2l-7 61q-4 45 -17 73t-43 44t-79 22.5t-125 10.5l-65 4v-590l182 -6q115 0 191.5 22.5t128 62.5t83 95t58.5 123l22 68l47 -2l-57 -410h-1057z" />
<glyph unicode="&#x11b;" horiz-adv-x="913" d="M205 1403h26l267 -213h4l264 213h27l-277 -399h-35zM467 -31q-90 0 -167 35t-133 95.5t-88 142.5t-32 178q0 104 35 195.5t98.5 159t148.5 105.5t187 38q80 0 142.5 -23t106.5 -61.5t66.5 -93t22.5 -115.5q0 -27 -6 -58q-158 0 -283 2q-53 0 -105 1t-93 2t-68 1h-31 q-4 -14 -5 -38.5t-1 -40.5q0 -86 23.5 -157t65.5 -121t98.5 -77.5t123.5 -27.5q82 0 147.5 32.5t119.5 116.5l22 -12q-66 -133 -163 -206t-232 -73zM459 608h129q31 0 57 2q0 51 -8 99.5t-26.5 85t-48.5 59.5t-73 23q-39 0 -74.5 -20.5t-65.5 -56.5t-50 -85t-29 -107h189z " />
<glyph unicode="&#x11c;" horiz-adv-x="1462" d="M756 1796h35l276 -399h-29l-262 213h-4l-266 -213h-27zM782 -31q-160 0 -291 47t-226 134.5t-147 209t-52 271.5t53 274.5t151.5 213.5t236.5 139.5t306 50.5q49 0 98.5 -6.5t92.5 -15.5t78.5 -21.5t58.5 -24.5l135 43l6 -414h-45l-154 326q-45 33 -115.5 51.5 t-160.5 18.5q-117 0 -207 -48.5t-152.5 -132.5t-95.5 -195.5t-33 -240.5q0 -150 38 -267.5t103.5 -199.5t153.5 -126t189 -44q74 0 138.5 19.5t98.5 44.5v418q0 10 -22.5 17t-91.5 11l-80 8l-6 33h594l-7 -33l-79 -10q-49 -4 -66.5 -12t-17.5 -19v-374l110 4l2 -23 q-59 -25 -133 -47t-153.5 -39.5t-158.5 -29t-149 -11.5z" />
<glyph unicode="&#x11d;" horiz-adv-x="962" d="M373 -506q-168 0 -260.5 56.5t-92.5 160.5q0 43 21.5 80t55.5 66.5t76 52t83 39.5v4q-92 10 -149.5 57t-57.5 111q0 39 19.5 71.5t50.5 60.5t69.5 47t79.5 30v4q-76 29 -130 95.5t-54 168.5q0 66 27.5 123t77 100t116 67.5t144.5 24.5q72 0 133 -19.5t110 -49.5l269 33 l-15 -115l-205 31l-2 -9q31 -29 51.5 -72.5t20.5 -97.5q0 -66 -27.5 -122t-78 -98t-118 -65.5t-147.5 -23.5q-33 0 -68.5 4t-58.5 8q-43 -10 -74.5 -35.5t-31.5 -62.5q0 -45 41 -64.5t117 -19.5q51 0 121.5 3t125.5 3q141 0 221 -67.5t80 -184.5q0 -84 -38.5 -155.5 t-109.5 -124.5t-171 -84t-221 -31zM481 -453q66 0 120 18.5t93 50.5t60.5 74t21.5 91q0 78 -56 121t-185 49q-45 2 -107.5 -1t-126.5 -7q-45 -18 -82 -66.5t-37 -112.5q0 -98 84 -157.5t215 -59.5zM446 340q80 0 124 65.5t44 190.5q0 127 -38.5 205t-129.5 78 q-74 0 -115.5 -69t-41.5 -192q0 -131 42.5 -204.5t114.5 -73.5zM436 1403h35l277 -399h-29l-262 213h-4l-267 -213h-26z" />
<glyph unicode="&#x11e;" horiz-adv-x="1462" d="M782 -31q-160 0 -291 47t-226 134.5t-147 209t-52 271.5t53 274.5t151.5 213.5t236.5 139.5t306 50.5q49 0 98.5 -6.5t92.5 -15.5t78.5 -21.5t58.5 -24.5l135 43l6 -414h-45l-154 326q-45 33 -115.5 51.5t-160.5 18.5q-117 0 -207 -48.5t-152.5 -132.5t-95.5 -195.5 t-33 -240.5q0 -150 38 -267.5t103.5 -199.5t153.5 -126t189 -44q74 0 138.5 19.5t98.5 44.5v418q0 10 -22.5 17t-91.5 11l-80 8l-6 33h594l-7 -33l-79 -10q-49 -4 -66.5 -12t-17.5 -19v-374l110 4l2 -23q-59 -25 -133 -47t-153.5 -39.5t-158.5 -29t-149 -11.5zM782 1403 q-66 0 -111.5 30.5t-77.5 82t-52.5 120t-34.5 144.5h26q41 -119 103.5 -182.5t150.5 -63.5q86 0 148.5 64.5t103.5 181.5h27q-14 -76 -34.5 -144.5t-53.5 -120t-80 -82t-115 -30.5z" />
<glyph unicode="&#x11f;" horiz-adv-x="962" d="M373 -506q-168 0 -260.5 56.5t-92.5 160.5q0 43 21.5 80t55.5 66.5t76 52t83 39.5v4q-92 10 -149.5 57t-57.5 111q0 39 19.5 71.5t50.5 60.5t69.5 47t79.5 30v4q-76 29 -130 95.5t-54 168.5q0 66 27.5 123t77 100t116 67.5t144.5 24.5q72 0 133 -19.5t110 -49.5l269 33 l-15 -115l-205 31l-2 -9q31 -29 51.5 -72.5t20.5 -97.5q0 -66 -27.5 -122t-78 -98t-118 -65.5t-147.5 -23.5q-33 0 -68.5 4t-58.5 8q-43 -10 -74.5 -35.5t-31.5 -62.5q0 -45 41 -64.5t117 -19.5q51 0 121.5 3t125.5 3q141 0 221 -67.5t80 -184.5q0 -84 -38.5 -155.5 t-109.5 -124.5t-171 -84t-221 -31zM481 -453q66 0 120 18.5t93 50.5t60.5 74t21.5 91q0 78 -56 121t-185 49q-45 2 -107.5 -1t-126.5 -7q-45 -18 -82 -66.5t-37 -112.5q0 -98 84 -157.5t215 -59.5zM446 340q80 0 124 65.5t44 190.5q0 127 -38.5 205t-129.5 78 q-74 0 -115.5 -69t-41.5 -192q0 -131 42.5 -204.5t114.5 -73.5zM438 1010q-66 0 -111.5 30.5t-77.5 82t-52.5 120t-34.5 143.5h26q41 -119 103.5 -182t150.5 -63q86 0 148.5 64.5t103.5 180.5h27q-14 -76 -34.5 -144t-53.5 -119.5t-80 -82t-115 -30.5z" />
<glyph unicode="&#x120;" horiz-adv-x="1462" d="M782 -31q-160 0 -291 47t-226 134.5t-147 209t-52 271.5t53 274.5t151.5 213.5t236.5 139.5t306 50.5q49 0 98.5 -6.5t92.5 -15.5t78.5 -21.5t58.5 -24.5l135 43l6 -414h-45l-154 326q-45 33 -115.5 51.5t-160.5 18.5q-117 0 -207 -48.5t-152.5 -132.5t-95.5 -195.5 t-33 -240.5q0 -150 38 -267.5t103.5 -199.5t153.5 -126t189 -44q74 0 138.5 19.5t98.5 44.5v418q0 10 -22.5 17t-91.5 11l-80 8l-6 33h594l-7 -33l-79 -10q-49 -4 -66.5 -12t-17.5 -19v-374l110 4l2 -23q-59 -25 -133 -47t-153.5 -39.5t-158.5 -29t-149 -11.5zM788 1473 q-61 0 -92.5 40.5t-31.5 85.5t31.5 87.5t92.5 42.5t92 -42t31 -88q0 -45 -31 -85.5t-92 -40.5z" />
<glyph unicode="&#x121;" horiz-adv-x="962" d="M373 -506q-168 0 -260.5 56.5t-92.5 160.5q0 43 21.5 80t55.5 66.5t76 52t83 39.5v4q-92 10 -149.5 57t-57.5 111q0 39 19.5 71.5t50.5 60.5t69.5 47t79.5 30v4q-76 29 -130 95.5t-54 168.5q0 66 27.5 123t77 100t116 67.5t144.5 24.5q72 0 133 -19.5t110 -49.5l269 33 l-15 -115l-205 31l-2 -9q31 -29 51.5 -72.5t20.5 -97.5q0 -66 -27.5 -122t-78 -98t-118 -65.5t-147.5 -23.5q-33 0 -68.5 4t-58.5 8q-43 -10 -74.5 -35.5t-31.5 -62.5q0 -45 41 -64.5t117 -19.5q51 0 121.5 3t125.5 3q141 0 221 -67.5t80 -184.5q0 -84 -38.5 -155.5 t-109.5 -124.5t-171 -84t-221 -31zM481 -453q66 0 120 18.5t93 50.5t60.5 74t21.5 91q0 78 -56 121t-185 49q-45 2 -107.5 -1t-126.5 -7q-45 -18 -82 -66.5t-37 -112.5q0 -98 84 -157.5t215 -59.5zM446 340q80 0 124 65.5t44 190.5q0 127 -38.5 205t-129.5 78 q-74 0 -115.5 -69t-41.5 -192q0 -131 42.5 -204.5t114.5 -73.5zM457 1079q-61 0 -93 41t-32 86t31.5 87t93.5 42q61 0 92 -42t31 -87t-31 -86t-92 -41z" />
<glyph unicode="&#x122;" horiz-adv-x="1462" d="M668 -551q72 20 116.5 69.5t44.5 110.5q0 39 -18 64.5t-44 39t-54.5 14.5t-46.5 -11q-8 25 -3 49.5t20 46t43 34.5t67 13q76 0 122 -47t46 -121q0 -45 -21.5 -89t-59.5 -82t-88.5 -66.5t-107.5 -40.5zM782 -31q-160 0 -291 47t-226 134.5t-147 209t-52 271.5t53 274.5 t151.5 213.5t236.5 139.5t306 50.5q49 0 98.5 -6.5t92.5 -15.5t78.5 -21.5t58.5 -24.5l135 43l6 -414h-45l-154 326q-45 33 -115.5 51.5t-160.5 18.5q-117 0 -207 -48.5t-152.5 -132.5t-95.5 -195.5t-33 -240.5q0 -150 38 -267.5t103.5 -199.5t153.5 -126t189 -44 q74 0 138.5 19.5t98.5 44.5v418q0 10 -22.5 17t-91.5 11l-80 8l-6 33h594l-7 -33l-79 -10q-49 -4 -66.5 -12t-17.5 -19v-374l110 4l2 -23q-59 -25 -133 -47t-153.5 -39.5t-158.5 -29t-149 -11.5z" />
<glyph unicode="&#x123;" horiz-adv-x="962" d="M373 -506q-168 0 -260.5 56.5t-92.5 160.5q0 43 21.5 80t55.5 66.5t76 52t83 39.5v4q-92 10 -149.5 57t-57.5 111q0 39 19.5 71.5t50.5 60.5t69.5 47t79.5 30v4q-76 29 -130 95.5t-54 168.5q0 66 27.5 123t77 100t116 67.5t144.5 24.5q72 0 133 -19.5t110 -49.5l269 33 l-15 -115l-205 31l-2 -9q31 -29 51.5 -72.5t20.5 -97.5q0 -66 -27.5 -122t-78 -98t-118 -65.5t-147.5 -23.5q-33 0 -68.5 4t-58.5 8q-43 -10 -74.5 -35.5t-31.5 -62.5q0 -45 41 -64.5t117 -19.5q51 0 121.5 3t125.5 3q141 0 221 -67.5t80 -184.5q0 -84 -38.5 -155.5 t-109.5 -124.5t-171 -84t-221 -31zM481 -453q66 0 120 18.5t93 50.5t60.5 74t21.5 91q0 78 -56 121t-185 49q-45 2 -107.5 -1t-126.5 -7q-45 -18 -82 -66.5t-37 -112.5q0 -98 84 -157.5t215 -59.5zM446 340q80 0 124 65.5t44 190.5q0 127 -38.5 205t-129.5 78 q-74 0 -115.5 -69t-41.5 -192q0 -131 42.5 -204.5t114.5 -73.5zM606 1444q-72 -20 -117 -69.5t-45 -110.5q0 -39 18.5 -64.5t44 -39t54.5 -14.5t47 11q8 -25 3 -49.5t-20.5 -46t-43 -34.5t-66.5 -13q-76 0 -122 47t-46 121q0 45 21.5 89t59.5 82t88 66.5t108 40.5z" />
<glyph unicode="&#x124;" horiz-adv-x="1521" d="M741 1796h35l277 -399h-29l-262 213h-4l-266 -213h-27zM59 33l76 8q49 4 69.5 14.5t20.5 20.5v1134q0 12 -17.5 18.5t-86.5 12.5l-60 6l-6 33h576l-6 -33l-80 -8q-49 -4 -69.5 -14.5t-20.5 -20.5v-530h610v536q0 12 -17.5 18.5t-86.5 12.5l-62 6l-6 33h575l-6 -33l-78 -8 q-47 -4 -67.5 -14.5t-20.5 -20.5v-1134q0 -12 17.5 -18.5t87.5 -12.5l59 -6l6 -33h-575l6 33l80 8q49 4 68.5 13t19.5 22v555h-610v-561q0 -12 17 -18.5t87 -12.5l64 -6l6 -33h-576z" />
<glyph unicode="&#x125;" horiz-adv-x="1069" d="M27 33l36 2q43 4 61.5 10t18.5 25v1093q0 47 -12 64.5t-53 27.5l-68 25l2 23l336 90v-645l4 -3q35 29 74 59t82 54.5t90 40.5t98 16q96 0 164 -63q35 -39 51.5 -95.5t16.5 -123.5v-565q0 -6 2 -10.5t11 -8.5t29.5 -8t55.5 -6l31 -2l6 -33h-463l6 33l41 2q51 4 64.5 12 t13.5 23v508q0 111 -46 153.5t-132 42.5q-63 0 -113.5 -22.5t-85.5 -51.5v-634q0 -14 15.5 -20.5t76.5 -10.5l39 -2l6 -33h-465zM291 1827h35l276 -400h-29l-262 213h-4l-266 -213h-27z" />
<glyph unicode="&#x126;" horiz-adv-x="1521" d="M47 981h178v229q0 12 -18.5 18.5t-87.5 12.5l-60 8l-6 31h578l-6 -31l-80 -10q-49 -4 -69.5 -13t-20.5 -20v-225h610v229q0 12 -17.5 18.5t-86.5 12.5l-62 8l-6 31h575l-6 -31l-76 -10q-49 -4 -69.5 -13t-20.5 -20v-225h203l-12 -72h-191v-839q0 -12 17.5 -18.5 t87.5 -12.5l59 -8l6 -31h-575l6 31l80 8q49 6 68.5 15t19.5 20v557h-610v-561q0 -12 18.5 -18.5t85.5 -12.5l64 -8l6 -31h-576l6 31l76 10q49 4 69.5 13t20.5 20v835h-194zM1065 674v235h-610v-235h610z" />
<glyph unicode="&#x127;" horiz-adv-x="1069" d="M10 1118h133v56q-2 39 -14 55t-51 26l-70 25l4 23l336 90v-275h225l-12 -74h-213v-296l6 -3q33 29 73 59t83 54.5t90 40.5t96 16q98 0 164 -65q37 -37 53.5 -92.5t16.5 -126.5v-563q0 -6 2 -10.5t11 -8.5t28.5 -8t54.5 -6l33 -4l6 -31h-463l6 31l39 4q51 4 64.5 12 t13.5 21v507q0 111 -45 155t-131 44q-66 0 -116 -22.5t-85 -51.5v-634q0 -14 15.5 -20.5t76.5 -10.5l39 -4l6 -31h-465l7 31l36 4q45 4 62.5 9t17.5 24v976h-149z" />
<glyph unicode="&#x12a;" horiz-adv-x="727" d="M72 33l88 8q47 4 67.5 14.5t20.5 20.5v1134q0 12 -17.5 18.5t-87.5 12.5l-71 6l-6 33h593l-6 -33l-86 -8q-49 -4 -68.5 -14.5t-19.5 -20.5v-1134q0 -12 17.5 -18.5t87.5 -12.5l69 -6l6 -33h-593zM111 1554h524l-12 -79h-529z" />
<glyph unicode="&#x12b;" horiz-adv-x="530" d="M45 33l39 2q45 4 63.5 10t18.5 25v557q0 47 -3 75.5t-12.5 46t-27 25.5t-43.5 14l-45 11l2 24l332 90v-847q0 -14 16 -20.5t80 -10.5l33 -2l6 -33h-465zM8 1161h524l-12 -80h-528z" />
<glyph unicode="&#x12c;" horiz-adv-x="727" d="M72 33l88 8q47 4 67.5 14.5t20.5 20.5v1134q0 12 -17.5 18.5t-87.5 12.5l-71 6l-6 33h593l-6 -33l-86 -8q-49 -4 -68.5 -14.5t-19.5 -20.5v-1134q0 -12 17.5 -18.5t87.5 -12.5l69 -6l6 -33h-593zM371 1403q-66 0 -112 30.5t-77.5 82t-52 120t-35.5 144.5h27 q41 -119 103.5 -182.5t150.5 -63.5q86 0 148.5 64.5t103.5 181.5h26q-14 -76 -34.5 -144.5t-53.5 -120t-79.5 -82t-114.5 -30.5z" />
<glyph unicode="&#x12d;" horiz-adv-x="530" d="M45 33l39 2q45 4 63.5 10t18.5 25v557q0 47 -3 75.5t-12.5 46t-27 25.5t-43.5 14l-45 11l2 24l332 90v-847q0 -14 16 -20.5t80 -10.5l33 -2l6 -33h-465zM260 1010q-66 0 -112 30.5t-77.5 82t-52 120t-34.5 143.5h26q41 -119 103.5 -182t150.5 -63q86 0 148.5 64.5 t103.5 180.5h27q-14 -76 -35 -144t-53.5 -119.5t-79.5 -82t-115 -30.5z" />
<glyph unicode="&#x12e;" horiz-adv-x="727" d="M453 -479q-82 0 -139.5 47t-57.5 135q0 53 26.5 101.5t69.5 87t95.5 67.5t103.5 41h-485l6 31l86 10q49 4 69.5 13t20.5 20v1136q0 12 -17.5 18.5t-87.5 12.5l-71 8l-6 31h596l-7 -31l-86 -10q-51 -4 -70.5 -13t-19.5 -20v-1136q0 -12 17.5 -18.5t87.5 -12.5l69 -8l6 -31 q-129 -29 -198.5 -92.5t-69.5 -151.5q0 -66 37 -99.5t102 -33.5q39 0 66 16.5t53 41.5l10 -13q-8 -23 -26.5 -48.5t-45 -48t-61 -36.5t-73.5 -14z" />
<glyph unicode="&#x12f;" horiz-adv-x="530" d="M297 -479q-82 0 -140.5 42t-58.5 134q0 55 23.5 103t63.5 87t92.5 68t107.5 45h-346l6 31l39 4q45 4 63.5 9t18.5 24v559q0 47 -3 75.5t-12.5 46t-27 25.5t-43.5 14l-45 11l2 22l332 90v-845q0 -14 16 -20.5t80 -10.5l33 -4l6 -31q-121 -25 -196 -85t-75 -165 q0 -66 38 -96.5t104 -30.5q39 0 65.5 16.5t53.5 41.5l10 -13q-8 -23 -26.5 -48.5t-45 -48t-61.5 -36.5t-74 -14zM250 1069q-66 0 -97.5 42t-31.5 89t31.5 89t97.5 42t98.5 -42t32.5 -89t-32.5 -89t-98.5 -42z" />
<glyph unicode="&#x130;" horiz-adv-x="727" d="M72 33l88 8q47 4 67.5 14.5t20.5 20.5v1134q0 12 -17.5 18.5t-87.5 12.5l-71 6l-6 33h593l-6 -33l-86 -8q-49 -4 -68.5 -14.5t-19.5 -20.5v-1134q0 -12 17.5 -18.5t87.5 -12.5l69 -6l6 -33h-593zM369 1473q-61 0 -93 40.5t-32 85.5t31.5 87.5t93.5 42.5q61 0 92 -42 t31 -88q0 -45 -31 -85.5t-92 -40.5z" />
<glyph unicode="&#x131;" horiz-adv-x="530" d="M45 33l39 2q45 4 63.5 10t18.5 25v557q0 47 -3 75.5t-12.5 46t-27 25.5t-43.5 14l-45 11l2 24l332 90v-847q0 -14 16 -20.5t80 -10.5l33 -2l6 -33h-465z" />
<glyph unicode="&#x134;" horiz-adv-x="739" d="M381 1796h35l276 -399h-28l-263 213h-4l-266 -213h-27zM68 -276q-86 0 -140.5 39.5t-54.5 101.5q0 49 36 84t91 35q41 0 69.5 -20.5t44 -52.5t13.5 -70t-23 -72q164 6 164 401v1040q0 12 -17.5 19.5t-86.5 11.5l-76 6l-6 33h596l-6 -33l-84 -8q-49 -4 -68.5 -14.5 t-19.5 -20.5v-1022q0 -74 -37 -154.5t-98.5 -148t-139 -111.5t-157.5 -44z" />
<glyph unicode="&#x135;" horiz-adv-x="505" d="M-20 -520q-74 0 -117 34.5t-43 88.5q0 47 32.5 76.5t77.5 29.5q61 0 97 -49t41 -109q51 10 71.5 88t20.5 207v781q0 47 -4 75.5t-13.5 46t-26 25.5t-42.5 14l-47 11l2 22l333 90v-960q-2 -86 -38.5 -171t-92 -151.5t-122 -107.5t-129.5 -41zM231 1403h35l277 -399h-29 l-262 213h-4l-266 -213h-27z" />
<glyph unicode="&#x136;" horiz-adv-x="1388" d="M588 -551q72 20 117 69.5t45 110.5q0 39 -18.5 64.5t-44 39t-54.5 14.5t-47 -11q-8 25 -3 49.5t20 46t43 34.5t67 13q76 0 122 -47t46 -121q0 -45 -21.5 -89t-59.5 -82t-88 -66.5t-108 -40.5zM59 33l80 8q49 4 67.5 14.5t18.5 20.5v1134q0 12 -16 18.5t-86 12.5l-62 6 l-6 33h586l-6 -33l-90 -8q-49 -4 -69.5 -14.5t-20.5 -20.5v-626l327 331q98 100 148.5 163t58.5 97.5t-20.5 50t-85.5 21.5l-74 6l-2 33h530l-6 -33l-45 -6q-51 -4 -88 -18.5t-80 -48t-103.5 -95t-158.5 -159.5l-94 -93l397 -632q31 -49 52.5 -79t40 -46.5t39 -23.5t48.5 -9 l45 -4l7 -33h-568l6 33l50 6q31 2 45 12t13 31.5t-17.5 57.5t-49.5 91l-266 439l-149 -150v-450q0 -12 17 -18.5t87 -12.5l74 -6l6 -33h-586z" />
<glyph unicode="&#x137;" horiz-adv-x="1021" d="M383 -551q72 20 117 69.5t45 110.5q0 39 -18.5 64.5t-44 39t-54.5 14.5t-47 -11q-8 25 -3 49.5t20.5 46t43 34.5t66.5 13q76 0 122 -47t46 -121q0 -45 -21.5 -89t-59.5 -82t-88 -66.5t-108 -40.5zM27 33l36 2q43 4 61.5 10t18.5 25v1093q0 47 -12 64.5t-53 27.5l-68 25 l2 23l336 90v-967l158 152q78 72 124 126t46 87q0 27 -24.5 42t-84.5 19l-26 2l-4 33h434l-6 -33l-39 -4q-35 -4 -63.5 -17.5t-63.5 -38t-78 -64.5t-105 -99l-47 -45l258 -420q23 -37 39.5 -60.5t32.5 -38t33.5 -21.5t44.5 -9l33 -4l6 -33h-338l-41 74l-213 372l-76 -69 v-311q0 -14 16.5 -19.5t77.5 -11.5l35 -2l4 -33h-461z" />
<glyph unicode="&#x139;" horiz-adv-x="1165" d="M467 1794h223l-391 -381h-29zM59 33l80 8q49 4 67.5 14.5t18.5 20.5v1134q0 12 -16 18.5t-86 12.5l-62 6l-6 33h604l-6 -33l-108 -8q-90 -8 -90 -35v-1157l137 -8q106 0 176 20.5t118 60.5t81.5 101.5t68.5 143.5l25 75h47l-59 -440h-996z" />
<glyph unicode="&#x13a;" horiz-adv-x="520" d="M319 1810h224l-391 -380h-29zM41 33l39 2q45 4 61.5 10t16.5 25v1056q0 74 -13.5 96.5t-54.5 32.5l-67 25l4 23l333 90v-1327q0 -14 16.5 -20.5t76.5 -10.5l34 -2l7 -33h-459z" />
<glyph unicode="&#x13b;" horiz-adv-x="1165" d="M453 -551q72 20 116.5 69.5t44.5 110.5q0 39 -18 64.5t-44 39t-54.5 14.5t-46.5 -11q-8 25 -3 49.5t20 46t43 34.5t67 13q76 0 121.5 -47t45.5 -121q0 -45 -21.5 -89t-59 -82t-88 -66.5t-107.5 -40.5zM59 33l80 8q49 4 67.5 14.5t18.5 20.5v1134q0 12 -16 18.5t-86 12.5 l-62 6l-6 33h604l-6 -33l-108 -8q-90 -8 -90 -35v-1157l137 -8q106 0 176 20.5t118 60.5t81.5 101.5t68.5 143.5l25 75h47l-59 -440h-996z" />
<glyph unicode="&#x13c;" horiz-adv-x="520" d="M123 -551q72 20 117 69.5t45 110.5q0 39 -18.5 64.5t-44 39t-54.5 14.5t-47 -11q-8 25 -3 49.5t20.5 46t43 34.5t66.5 13q76 0 122 -47t46 -121q0 -45 -21.5 -89t-59.5 -82t-88 -66.5t-108 -40.5zM41 33l39 2q45 4 61.5 10t16.5 25v1056q0 74 -13.5 96.5t-54.5 32.5 l-67 25l4 23l333 90v-1327q0 -14 16.5 -20.5t76.5 -10.5l34 -2l7 -33h-459z" />
<glyph unicode="&#x13d;" horiz-adv-x="1394" d="M1038 782q78 41 127 103.5t49 134.5q0 51 -27.5 80.5t-59 46t-59.5 22t-28 7.5q0 45 34 88t104 43q39 0 72.5 -15.5t58 -41t38 -61.5t13.5 -77q0 -104 -81 -197.5t-216 -152.5zM59 33l80 8q49 4 67.5 14.5t18.5 20.5v1134q0 12 -16 18.5t-86 12.5l-62 6l-6 33h604l-6 -33 l-108 -8q-90 -8 -90 -35v-1157l137 -8q106 0 176 20.5t118 60.5t81.5 101.5t68.5 143.5l25 75h47l-59 -440h-996z" />
<glyph unicode="&#x13e;" horiz-adv-x="901" d="M520 872q78 41 127 103.5t49 134.5q0 51 -27.5 81t-59 46t-59.5 21.5t-28 7.5q0 45 34 88t103 43q39 0 73 -15.5t58.5 -41t38 -61.5t13.5 -77q0 -104 -81 -197.5t-216 -152.5zM41 33l39 2q45 4 61.5 10t16.5 25v1056q0 74 -13.5 96.5t-54.5 32.5l-67 25l4 23l333 90 v-1327q0 -14 16.5 -20.5t76.5 -10.5l34 -2l7 -33h-459z" />
<glyph unicode="&#x13f;" horiz-adv-x="1351" d="M1331 502q-59 0 -98 41t-39 94t39 93t98 40t97 -40t38 -93t-38 -94t-97 -41zM59 33l80 8q49 4 67.5 14.5t18.5 20.5v1134q0 12 -16 18.5t-86 12.5l-62 6l-6 33h604l-6 -33l-108 -8q-90 -8 -90 -35v-1157l137 -8q106 0 176 20.5t118 60.5t81.5 101.5t68.5 143.5l25 75h47 l-59 -440h-996z" />
<glyph unicode="&#x140;" horiz-adv-x="880" d="M711 463q-59 0 -98.5 41t-39.5 94t39 93t99 40q59 0 97 -40t38 -93t-38 -94t-97 -41zM41 33l39 2q45 4 61.5 10t16.5 25v1056q0 74 -13.5 96.5t-54.5 32.5l-67 25l4 23l333 90v-1327q0 -14 16.5 -20.5t76.5 -10.5l34 -2l7 -33h-459z" />
<glyph unicode="&#x141;" horiz-adv-x="1167" d="M33 467l2 47l192 59v629q0 12 -16 19.5t-82 15.5l-80 10l-6 33h619l-7 -33l-118 -12q-80 -10 -80 -37v-553l209 64l2 -45l-211 -66v-551l137 -8q106 0 176 20.5t117 60.5t80.5 100.5t68.5 141.5l23 78h51l-59 -440h-1010l6 33l96 12q47 4 65.5 14.5t18.5 22.5v444z" />
<glyph unicode="&#x142;" horiz-adv-x="520" d="M4 446l4 43l150 48v585q0 74 -14.5 96.5t-53.5 34.5l-67 25l4 22l335 93v-793l148 45l2 -43l-150 -45v-481q0 -14 14.5 -21.5t69.5 -13.5l48 -8l6 -33h-465l6 33l43 8q41 6 57.5 12t16.5 25v416z" />
<glyph unicode="&#x143;" horiz-adv-x="1441" d="M866 1794h224l-392 -381h-28zM283 1090h-4l2 -875q0 -51 7 -83t23.5 -51.5t46 -27.5t72.5 -12l57 -8l7 -33h-453l6 33l57 8q35 2 59.5 11t40 29.5t22.5 54.5t7 87l7 875q-23 49 -63 89t-107 52l-45 10l-7 33h414l742 -944l4 2l-2 723q0 51 -7.5 83t-24 51.5t-45 28.5 t-71.5 13l-59 8l-6 33h450l-6 -33l-57 -8q-35 -4 -58.5 -13t-39 -29.5t-22.5 -54.5t-7 -87l-4 -1067h-60z" />
<glyph unicode="&#x144;" horiz-adv-x="1091" d="M639 1401h223l-391 -381h-29zM45 33l39 2q45 4 63.5 10t18.5 25v555q0 47 -4 76.5t-13.5 47t-26 25.5t-42.5 14l-47 11l2 24l336 90l-4 -168h4q35 29 73.5 59t82.5 54.5t91.5 40.5t96.5 16q102 0 164 -63q37 -37 52 -94.5t15 -126.5v-563q0 -6 2 -10.5t12.5 -8.5t31 -8 t55.5 -6l30 -2l6 -33h-460l6 33l39 2q53 4 64 12t11 23v505q0 111 -44 155t-132 44q-63 0 -113.5 -22.5t-86.5 -51.5v-634q0 -14 16 -20.5t76 -10.5l39 -2l4 -33h-463z" />
<glyph unicode="&#x145;" horiz-adv-x="1441" d="M565 -551q72 20 117 69.5t45 110.5q0 39 -18.5 64.5t-44 39t-54 14.5t-47.5 -11q-8 25 -3 49.5t20.5 46t43 34.5t66.5 13q76 0 122 -47t46 -121q0 -45 -21.5 -89t-59.5 -82t-88 -66.5t-107 -40.5zM283 1090h-4l2 -875q0 -51 7 -83t23.5 -51.5t46 -27.5t72.5 -12l57 -8 l7 -33h-453l6 33l57 8q35 2 59.5 11t40 29.5t22.5 54.5t7 87l7 875q-23 49 -63 89t-107 52l-45 10l-7 33h414l742 -944l4 2l-2 723q0 51 -7.5 83t-24 51.5t-45 28.5t-71.5 13l-59 8l-6 33h450l-6 -33l-57 -8q-35 -4 -58.5 -13t-39 -29.5t-22.5 -54.5t-7 -87l-4 -1067h-60z " />
<glyph unicode="&#x146;" horiz-adv-x="1091" d="M45 33l39 2q45 4 63.5 10t18.5 25v555q0 47 -4 76.5t-13.5 47t-26 25.5t-42.5 14l-47 11l2 24l336 90l-4 -168h4q35 29 73.5 59t82.5 54.5t91.5 40.5t96.5 16q102 0 164 -63q37 -37 52 -94.5t15 -126.5v-563q0 -6 2 -10.5t12.5 -8.5t31 -8t55.5 -6l30 -2l6 -33h-460l6 33 l39 2q53 4 64 12t11 23v505q0 111 -44 155t-132 44q-63 0 -113.5 -22.5t-86.5 -51.5v-634q0 -14 16 -20.5t76 -10.5l39 -2l4 -33h-463zM418 -551q72 20 117 69.5t45 110.5q0 39 -18.5 64.5t-44 39t-54.5 14.5t-47 -11q-8 25 -3 49.5t20.5 46t43 34.5t66.5 13q76 0 122 -47 t46 -121q0 -45 -21.5 -89t-59.5 -82t-88 -66.5t-108 -40.5z" />
<glyph unicode="&#x147;" horiz-adv-x="1441" d="M461 1796h26l267 -213h4l264 213h27l-277 -399h-35zM283 1090h-4l2 -875q0 -51 7 -83t23.5 -51.5t46 -27.5t72.5 -12l57 -8l7 -33h-453l6 33l57 8q35 2 59.5 11t40 29.5t22.5 54.5t7 87l7 875q-23 49 -63 89t-107 52l-45 10l-7 33h414l742 -944l4 2l-2 723q0 51 -7.5 83 t-24 51.5t-45 28.5t-71.5 13l-59 8l-6 33h450l-6 -33l-57 -8q-35 -4 -58.5 -13t-39 -29.5t-22.5 -54.5t-7 -87l-4 -1067h-60z" />
<glyph unicode="&#x148;" horiz-adv-x="1091" d="M236 1403h26l266 -213h4l265 213h26l-276 -399h-35zM45 33l39 2q45 4 63.5 10t18.5 25v555q0 47 -4 76.5t-13.5 47t-26 25.5t-42.5 14l-47 11l2 24l336 90l-4 -168h4q35 29 73.5 59t82.5 54.5t91.5 40.5t96.5 16q102 0 164 -63q37 -37 52 -94.5t15 -126.5v-563 q0 -6 2 -10.5t12.5 -8.5t31 -8t55.5 -6l30 -2l6 -33h-460l6 33l39 2q53 4 64 12t11 23v505q0 111 -44 155t-132 44q-63 0 -113.5 -22.5t-86.5 -51.5v-634q0 -14 16 -20.5t76 -10.5l39 -2l4 -33h-463z" />
<glyph unicode="&#x14c;" horiz-adv-x="1515" d="M535 1554h524l-12 -79h-529zM750 -29q-147 0 -273.5 48.5t-217.5 135.5t-142 209.5t-51 270.5q0 133 55 255t150.5 215t222.5 148.5t272 55.5q147 0 273 -49.5t217.5 -137.5t142.5 -211t51 -270q0 -135 -54.5 -256t-149.5 -213t-223 -146.5t-273 -54.5zM764 12 q197 0 314.5 161t117.5 464q0 145 -33 262t-92 198t-141 125t-178 44q-197 0 -315 -162t-118 -463q0 -145 33 -262t91.5 -199t140.5 -125t180 -43z" />
<glyph unicode="&#x14d;" horiz-adv-x="1054" d="M268 1161h525l-13 -80h-528zM520 -29q-109 0 -195.5 37t-148 100.5t-95.5 148.5t-34 183t37 185.5t101.5 152t154.5 101t195 36.5q106 0 193 -35.5t149.5 -98t96.5 -146.5t34 -180q0 -102 -36 -190.5t-100.5 -153t-155 -102.5t-196.5 -38zM530 10q57 0 102.5 32t77 87 t49 130t17.5 159q0 135 -26.5 239.5t-79.5 157.5q-25 25 -60 43.5t-86 18.5q-59 0 -105 -32t-77 -87.5t-47 -129t-16 -155.5q0 -139 25.5 -241.5t78.5 -157.5q27 -29 62.5 -46.5t84.5 -17.5z" />
<glyph unicode="&#x14e;" horiz-adv-x="1515" d="M750 -29q-147 0 -273.5 48.5t-217.5 135.5t-142 209.5t-51 270.5q0 133 55 255t150.5 215t222.5 148.5t272 55.5q147 0 273 -49.5t217.5 -137.5t142.5 -211t51 -270q0 -135 -54.5 -256t-149.5 -213t-223 -146.5t-273 -54.5zM764 12q197 0 314.5 161t117.5 464 q0 145 -33 262t-92 198t-141 125t-178 44q-197 0 -315 -162t-118 -463q0 -145 33 -262t91.5 -199t140.5 -125t180 -43zM784 1403q-66 0 -111.5 30.5t-77.5 82t-52.5 120t-34.5 144.5h27q41 -119 103 -182.5t150 -63.5q86 0 148.5 64.5t103.5 181.5h27q-14 -76 -34.5 -144.5 t-53.5 -120t-80 -82t-115 -30.5z" />
<glyph unicode="&#x14f;" horiz-adv-x="1054" d="M520 -29q-109 0 -195.5 37t-148 100.5t-95.5 148.5t-34 183t37 185.5t101.5 152t154.5 101t195 36.5q106 0 193 -35.5t149.5 -98t96.5 -146.5t34 -180q0 -102 -36 -190.5t-100.5 -153t-155 -102.5t-196.5 -38zM530 10q57 0 102.5 32t77 87t49 130t17.5 159 q0 135 -26.5 239.5t-79.5 157.5q-25 25 -60 43.5t-86 18.5q-59 0 -105 -32t-77 -87.5t-47 -129t-16 -155.5q0 -139 25.5 -241.5t78.5 -157.5q27 -29 62.5 -46.5t84.5 -17.5zM522 1010q-66 0 -111.5 30.5t-77.5 82t-52.5 120t-34.5 143.5h26q41 -119 103.5 -182t150.5 -63 q86 0 148.5 64.5t103.5 180.5h27q-14 -76 -34.5 -144t-53.5 -119.5t-80 -82t-115 -30.5z" />
<glyph unicode="&#x150;" horiz-adv-x="1515" d="M1051 1794h206l-368 -381h-31zM715 1794h207l-369 -381h-31zM750 -29q-147 0 -273.5 48.5t-217.5 135.5t-142 209.5t-51 270.5q0 133 55 255t150.5 215t222.5 148.5t272 55.5q147 0 273 -49.5t217.5 -137.5t142.5 -211t51 -270q0 -135 -54.5 -256t-149.5 -213 t-223 -146.5t-273 -54.5zM764 12q197 0 314.5 161t117.5 464q0 145 -33 262t-92 198t-141 125t-178 44q-197 0 -315 -162t-118 -463q0 -145 33 -262t91.5 -199t140.5 -125t180 -43z" />
<glyph unicode="&#x151;" horiz-adv-x="1054" d="M795 1401h206l-368 -381h-31zM459 1401h207l-369 -381h-31zM520 -29q-109 0 -195.5 37t-148 100.5t-95.5 148.5t-34 183t37 185.5t101.5 152t154.5 101t195 36.5q106 0 193 -35.5t149.5 -98t96.5 -146.5t34 -180q0 -102 -36 -190.5t-100.5 -153t-155 -102.5t-196.5 -38z M530 10q57 0 102.5 32t77 87t49 130t17.5 159q0 135 -26.5 239.5t-79.5 157.5q-25 25 -60 43.5t-86 18.5q-59 0 -105 -32t-77 -87.5t-47 -129t-16 -155.5q0 -139 25.5 -241.5t78.5 -157.5q27 -29 62.5 -46.5t84.5 -17.5z" />
<glyph unicode="&#x152;" horiz-adv-x="1947" d="M803 0q-180 0 -317.5 45t-230.5 127t-141 195.5t-48 253.5q0 135 51 254.5t149.5 210t243.5 142.5t334 52h946l16 -406h-41l-22 74q-23 78 -51.5 133.5t-75.5 90t-120 51t-183 16.5l-137 -2v-561h69q68 2 115 10t80 23.5t52 42t34 69.5l22 64l37 -2l-47 -463l-35 2l-8 61 q-4 45 -16.5 74t-42 45t-79.5 22.5t-126 10.5l-55 2v-590l170 -6q117 0 193.5 22.5t127.5 62.5t83 94t58 122l21 70l47 -2l-59 -410h-1014zM950 45v1161l-139 33q-125 0 -219 -47t-156.5 -125t-94.5 -181.5t-32 -219.5q0 -133 32 -247t98.5 -197t169 -130t243.5 -47h98z" />
<glyph unicode="&#x153;" horiz-adv-x="1640" d="M520 -31q-109 0 -195.5 37t-148 100.5t-95.5 149.5t-34 184t37 185.5t102.5 152t154.5 102.5t196 38q117 0 208 -44.5t152 -117.5q61 74 149.5 118t198.5 44q80 0 142.5 -23t106.5 -61.5t66.5 -93t22.5 -115.5q0 -27 -6 -58q-156 0 -281 2q-53 0 -105 1t-94 2t-70 1h-34 q-2 -14 -2 -38.5v-40.5q0 -86 23.5 -157t64.5 -121t98.5 -77.5t125.5 -27.5q82 0 147.5 32.5t118.5 116.5l22 -12q-66 -133 -163 -206t-234 -73q-106 0 -181 43t-132 113q-66 -72 -157 -114t-204 -42zM1374 612q0 51 -8 99.5t-27.5 85.5t-49 58.5t-70.5 21.5 q-39 0 -76 -20.5t-65.5 -56.5t-49 -85t-29.5 -107zM528 8q57 0 103.5 32t78 87t48 130t16.5 161q0 135 -26.5 237.5t-75.5 157.5q-27 27 -63 46.5t-87 19.5q-59 0 -104 -32t-76 -87t-47 -130t-16 -161q0 -137 25.5 -238.5t78.5 -156.5q27 -29 62.5 -47.5t82.5 -18.5z" />
<glyph unicode="&#x154;" horiz-adv-x="1335" d="M698 1794h224l-392 -381h-28zM43 33l92 8q37 4 63.5 14.5t26.5 20.5v1134q0 12 -17.5 18.5t-86.5 12.5l-76 6l-6 33h577q256 0 383 -84t127 -244q0 -117 -84 -203.5t-225 -119.5l273 -422q31 -47 55 -79t46.5 -50.5t48.5 -27.5t58 -11l35 -6l8 -33h-399l-37 68l-319 548 q-10 2 -27.5 4.5t-37 6.5t-37 8t-29.5 8v-573q0 -12 28.5 -19.5t75.5 -11.5l80 -6l6 -33h-608zM590 662q135 4 213 75.5t78 208.5q0 141 -83 220t-249 73q-4 0 -18.5 -1t-30.5 -1h-45v-555q27 -8 69.5 -14t65.5 -6z" />
<glyph unicode="&#x155;" horiz-adv-x="794" d="M45 33l39 2q45 4 63.5 10t18.5 25v555q0 47 -4 76.5t-13.5 47t-26 25.5t-42.5 14l-47 11l2 24l336 90l-4 -305h6q53 147 117.5 227t156.5 80q59 0 99 -35.5t40 -91.5q0 -47 -31.5 -83.5t-84.5 -36.5q-47 0 -83 30.5t-46 83.5q-51 -16 -93 -79.5t-81 -184.5v-452 q0 -14 18 -20.5t80 -10.5l61 -2l6 -33h-493zM522 1401h223l-391 -381h-28z" />
<glyph unicode="&#x156;" horiz-adv-x="1335" d="M590 -551q72 20 117 69.5t45 110.5q0 39 -18.5 64.5t-44 39t-54.5 14.5t-47 -11q-8 25 -3 49.5t20.5 46t43 34.5t66.5 13q76 0 122 -47t46 -121q0 -45 -21.5 -89t-59.5 -82t-88 -66.5t-108 -40.5zM43 33l92 8q37 4 63.5 14.5t26.5 20.5v1134q0 12 -17.5 18.5t-86.5 12.5 l-76 6l-6 33h577q256 0 383 -84t127 -244q0 -117 -84 -203.5t-225 -119.5l273 -422q31 -47 55 -79t46.5 -50.5t48.5 -27.5t58 -11l35 -6l8 -33h-399l-37 68l-319 548q-10 2 -27.5 4.5t-37 6.5t-37 8t-29.5 8v-573q0 -12 28.5 -19.5t75.5 -11.5l80 -6l6 -33h-608zM590 662 q135 4 213 75.5t78 208.5q0 141 -83 220t-249 73q-4 0 -18.5 -1t-30.5 -1h-45v-555q27 -8 69.5 -14t65.5 -6z" />
<glyph unicode="&#x157;" horiz-adv-x="794" d="M141 -551q72 20 117 69.5t45 110.5q0 39 -18.5 64.5t-44 39t-54 14.5t-47.5 -11q-8 25 -3 49.5t20.5 46t43 34.5t66.5 13q76 0 122 -47t46 -121q0 -45 -21.5 -89t-59.5 -82t-88 -66.5t-107 -40.5zM45 33l39 2q45 4 63.5 10t18.5 25v555q0 47 -4 76.5t-13.5 47t-26 25.5 t-42.5 14l-47 11l2 24l336 90l-4 -305h6q53 147 117.5 227t156.5 80q59 0 99 -35.5t40 -91.5q0 -47 -31.5 -83.5t-84.5 -36.5q-47 0 -83 30.5t-46 83.5q-51 -16 -93 -79.5t-81 -184.5v-452q0 -14 18 -20.5t80 -10.5l61 -2l6 -33h-493z" />
<glyph unicode="&#x158;" horiz-adv-x="1335" d="M309 1796h27l266 -213h4l264 213h27l-276 -399h-35zM43 33l92 8q37 4 63.5 14.5t26.5 20.5v1134q0 12 -17.5 18.5t-86.5 12.5l-76 6l-6 33h577q256 0 383 -84t127 -244q0 -117 -84 -203.5t-225 -119.5l273 -422q31 -47 55 -79t46.5 -50.5t48.5 -27.5t58 -11l35 -6l8 -33 h-399l-37 68l-319 548q-10 2 -27.5 4.5t-37 6.5t-37 8t-29.5 8v-573q0 -12 28.5 -19.5t75.5 -11.5l80 -6l6 -33h-608zM590 662q135 4 213 75.5t78 208.5q0 141 -83 220t-249 73q-4 0 -18.5 -1t-30.5 -1h-45v-555q27 -8 69.5 -14t65.5 -6z" />
<glyph unicode="&#x159;" horiz-adv-x="794" d="M45 33l39 2q45 4 63.5 10t18.5 25v555q0 47 -4 76.5t-13.5 47t-26 25.5t-42.5 14l-47 11l2 24l336 90l-4 -305h6q53 147 117.5 227t156.5 80q59 0 99 -35.5t40 -91.5q0 -47 -31.5 -83.5t-84.5 -36.5q-47 0 -83 30.5t-46 83.5q-51 -16 -93 -79.5t-81 -184.5v-452 q0 -14 18 -20.5t80 -10.5l61 -2l6 -33h-493zM127 1403h27l266 -213h4l264 213h27l-277 -399h-35z" />
<glyph unicode="&#x15a;" horiz-adv-x="1050" d="M625 1794h223l-391 -381h-29zM498 -29q-106 0 -209 19.5t-189 48.5l-18 338h43l74 -187q55 -92 134 -134t177 -42q129 2 201.5 76t72.5 186q0 61 -22.5 106.5t-64.5 79.5t-98 59.5t-124 49.5q-76 27 -141.5 59t-114.5 75t-76.5 101t-27.5 138q0 70 28.5 135.5t82 115.5 t132 82t181.5 32q86 0 153.5 -13.5t124.5 -29.5l86 28l4 -366h-39l-127 274q-43 27 -94 44.5t-117 17.5q-106 0 -170.5 -61.5t-64.5 -149.5q0 -57 23.5 -99.5t63.5 -73t93 -54t115 -46.5q84 -29 154.5 -63.5t122 -80.5t80 -108.5t28.5 -148.5q0 -76 -34 -149.5t-96.5 -131 t-150 -92.5t-196.5 -35z" />
<glyph unicode="&#x15b;" horiz-adv-x="782" d="M479 1401h223l-391 -381h-28zM360 -29q-86 0 -157.5 13.5t-128.5 35.5l-15 261l45 2l48 -119q41 -72 95 -113t128 -41q80 0 132 46t52 118q0 37 -17.5 65.5t-46 51t-69.5 41t-86 35.5q-51 18 -98 40.5t-84 54.5t-58.5 76t-21.5 105q0 121 89 196.5t234 75.5 q59 0 108.5 -9t88.5 -25l74 22l10 -266l-41 -2l-106 190q-25 18 -61 35t-79 17q-76 0 -116.5 -40t-40.5 -104q0 -74 56 -109.5t155 -72.5q53 -20 103 -44t88 -55.5t60.5 -77.5t22.5 -110q0 -57 -23.5 -109.5t-68.5 -93.5t-114 -65.5t-157 -24.5z" />
<glyph unicode="&#x15c;" horiz-adv-x="1050" d="M514 1796h35l276 -399h-28l-262 213h-5l-266 -213h-26zM498 -29q-106 0 -209 19.5t-189 48.5l-18 338h43l74 -187q55 -92 134 -134t177 -42q129 2 201.5 76t72.5 186q0 61 -22.5 106.5t-64.5 79.5t-98 59.5t-124 49.5q-76 27 -141.5 59t-114.5 75t-76.5 101t-27.5 138 q0 70 28.5 135.5t82 115.5t132 82t181.5 32q86 0 153.5 -13.5t124.5 -29.5l86 28l4 -366h-39l-127 274q-43 27 -94 44.5t-117 17.5q-106 0 -170.5 -61.5t-64.5 -149.5q0 -57 23.5 -99.5t63.5 -73t93 -54t115 -46.5q84 -29 154.5 -63.5t122 -80.5t80 -108.5t28.5 -148.5 q0 -76 -34 -149.5t-96.5 -131t-150 -92.5t-196.5 -35z" />
<glyph unicode="&#x15d;" horiz-adv-x="782" d="M385 1403h35l276 -399h-28l-262 213h-5l-266 -213h-26zM360 -29q-86 0 -157.5 13.5t-128.5 35.5l-15 261l45 2l48 -119q41 -72 95 -113t128 -41q80 0 132 46t52 118q0 37 -17.5 65.5t-46 51t-69.5 41t-86 35.5q-51 18 -98 40.5t-84 54.5t-58.5 76t-21.5 105 q0 121 89 196.5t234 75.5q59 0 108.5 -9t88.5 -25l74 22l10 -266l-41 -2l-106 190q-25 18 -61 35t-79 17q-76 0 -116.5 -40t-40.5 -104q0 -74 56 -109.5t155 -72.5q53 -20 103 -44t88 -55.5t60.5 -77.5t22.5 -110q0 -57 -23.5 -109.5t-68.5 -93.5t-114 -65.5t-157 -24.5z " />
<glyph unicode="&#x15e;" horiz-adv-x="1050" d="M498 -29q-106 0 -209 19.5t-189 48.5l-18 338h43l74 -187q55 -92 134 -134t177 -42q129 2 201.5 76t72.5 186q0 61 -22.5 106.5t-64.5 79.5t-98 59.5t-124 49.5q-76 27 -141.5 59t-114.5 75t-76.5 101t-27.5 138q0 70 28.5 135.5t82 115.5t132 82t181.5 32 q86 0 153.5 -13.5t124.5 -29.5l86 28l4 -366h-39l-127 274q-43 27 -94 44.5t-117 17.5q-106 0 -170.5 -61.5t-64.5 -149.5q0 -57 23.5 -99.5t63.5 -73t93 -54t115 -46.5q84 -29 154.5 -63.5t122 -80.5t80 -108.5t28.5 -148.5q0 -72 -30 -140.5t-85 -125t-133 -94t-176 -46.5 l-94 -102q66 8 122 0t98 -29.5t65.5 -56.5t23.5 -78q0 -63 -38 -108t-99.5 -75t-140 -48.5t-158.5 -28.5l-11 25q150 27 233 67.5t83 114.5q0 59 -51.5 86t-124.5 27q-72 0 -140 -23v25l185 202h-6v0z" />
<glyph unicode="&#x15f;" horiz-adv-x="782" d="M360 -29q-86 0 -157.5 13.5t-128.5 35.5l-15 261l45 2l48 -119q41 -72 95 -113t128 -41q80 0 132 46t52 118q0 37 -17.5 65.5t-46 51t-69.5 41t-86 35.5q-51 18 -98 40.5t-84 54.5t-58.5 76t-21.5 105q0 121 89 196.5t234 75.5q59 0 108.5 -9t88.5 -25l74 22l10 -266 l-41 -2l-106 190q-25 18 -61 35t-79 17q-76 0 -116.5 -40t-40.5 -104q0 -74 56 -109.5t155 -72.5q53 -20 103 -44t88 -55.5t60.5 -77.5t22.5 -110q0 -53 -20.5 -102t-59.5 -89t-98.5 -66.5t-134.5 -33.5l-95 -102q66 8 122.5 0t98.5 -29.5t65.5 -56.5t23.5 -78 q0 -63 -38 -108t-99.5 -75t-140.5 -48.5t-159 -28.5l-10 25q150 27 233 67.5t83 114.5q0 59 -51.5 86t-125.5 27q-72 0 -139 -23v25l184 202h-2v0z" />
<glyph unicode="&#x160;" horiz-adv-x="1050" d="M498 -29q-106 0 -209 19.5t-189 48.5l-18 338h43l74 -187q55 -92 134 -134t177 -42q129 2 201.5 76t72.5 186q0 61 -22.5 106.5t-64.5 79.5t-98 59.5t-124 49.5q-76 27 -141.5 59t-114.5 75t-76.5 101t-27.5 138q0 70 28.5 135.5t82 115.5t132 82t181.5 32 q86 0 153.5 -13.5t124.5 -29.5l86 28l4 -366h-39l-127 274q-43 27 -94 44.5t-117 17.5q-106 0 -170.5 -61.5t-64.5 -149.5q0 -57 23.5 -99.5t63.5 -73t93 -54t115 -46.5q84 -29 154.5 -63.5t122 -80.5t80 -108.5t28.5 -148.5q0 -76 -34 -149.5t-96.5 -131t-150 -92.5 t-196.5 -35zM246 1769h26l267 -213h4l264 213h27l-277 -399h-35z" />
<glyph unicode="&#x161;" horiz-adv-x="782" d="M360 -29q-86 0 -157.5 13.5t-128.5 35.5l-15 261l45 2l48 -119q41 -72 95 -113t128 -41q80 0 132 46t52 118q0 37 -17.5 65.5t-46 51t-69.5 41t-86 35.5q-51 18 -98 40.5t-84 54.5t-58.5 76t-21.5 105q0 121 89 196.5t234 75.5q59 0 108.5 -9t88.5 -25l74 22l10 -266 l-41 -2l-106 190q-25 18 -61 35t-79 17q-76 0 -116.5 -40t-40.5 -104q0 -74 56 -109.5t155 -72.5q53 -20 103 -44t88 -55.5t60.5 -77.5t22.5 -110q0 -57 -23.5 -109.5t-68.5 -93.5t-114 -65.5t-157 -24.5zM94 1378h27l266 -213h4l264 213h27l-276 -399h-35z" />
<glyph unicode="&#x162;" horiz-adv-x="1341" d="M532 -551q72 20 117 69.5t45 110.5q0 39 -18.5 64.5t-44 39t-54 14.5t-47.5 -11q-8 25 -3 49.5t20.5 46t43 34.5t66.5 13q76 0 122 -47t46 -121q0 -45 -21.5 -89t-59 -82t-88 -66.5t-107.5 -40.5zM365 33l100 8q49 4 69.5 14.5t20.5 20.5v1165h-55q-76 -4 -134.5 -27.5 t-103.5 -60.5t-76.5 -85t-54.5 -97l-27 -78h-47l58 387h1126l33 -387h-43l-23 74q-49 119 -132 194.5t-230 79.5h-60v-1171q0 -12 17.5 -18.5t87.5 -12.5l86 -6l6 -33h-625z" />
<glyph unicode="&#x163;" horiz-adv-x="704" d="M262 -551q72 20 117 69.5t45 110.5q0 39 -18.5 64.5t-44 39t-54 14.5t-47.5 -11q-8 25 -3 49.5t20.5 46t43 34.5t66.5 13q76 0 122 -47t46 -121q0 -45 -21.5 -89t-59.5 -82t-88 -66.5t-107 -40.5zM393 -27q-115 0 -175 60.5t-58 191.5l10 555l-164 6l19 52l129 98 l188 151l31 -6l-2 -196h315l-29 -97h-286l-13 -532q-2 -164 154 -164q51 0 93 16.5t77 43.5l10 -21q-63 -66 -139 -112t-160 -46z" />
<glyph unicode="&#x164;" horiz-adv-x="1341" d="M377 1796h26l267 -213h4l264 213h27l-277 -399h-35zM365 33l100 8q49 4 69.5 14.5t20.5 20.5v1165h-55q-76 -4 -134.5 -27.5t-103.5 -60.5t-76.5 -85t-54.5 -97l-27 -78h-47l58 387h1126l33 -387h-43l-23 74q-49 119 -132 194.5t-230 79.5h-60v-1171q0 -12 17.5 -18.5 t87.5 -12.5l86 -6l6 -33h-625z" />
<glyph unicode="&#x165;" horiz-adv-x="741" d="M471 958q61 33 101 83.5t40 105.5q0 41 -21.5 65.5t-48 37t-48 16.5t-21.5 6q0 35 27.5 69.5t83.5 34.5q61 0 103 -45t42 -110q0 -84 -65.5 -158t-171.5 -121zM393 -27q-115 0 -175 60.5t-58 191.5l10 555l-164 6l19 52l129 98l188 151l31 -6l-2 -196h315l-29 -97h-286 l-13 -532q-2 -164 154 -164q51 0 93 16.5t77 43.5l10 -21q-63 -66 -139 -112t-160 -46z" />
<glyph unicode="&#x16a;" horiz-adv-x="1429" d="M731 -33q-266 0 -391 108.5t-125 350.5v786q0 10 -17.5 16.5t-86.5 12.5l-76 8l-6 33h602l-6 -33l-90 -8q-49 -4 -69 -14t-20 -21v-725q0 -217 92.5 -317.5t274.5 -100.5q174 0 271.5 108t97.5 325l-2 567q0 51 -7.5 84t-25 52.5t-46 28.5t-71.5 13l-59 8l-6 33h452 l-6 -33l-57 -8q-35 -4 -58.5 -13t-39 -30.5t-22.5 -55.5t-7 -87l-4 -572q0 -121 -30 -216t-89.5 -161.5t-151.5 -102.5t-221 -36zM530 1554h525l-13 -79h-528z" />
<glyph unicode="&#x16b;" horiz-adv-x="1046" d="M713 141h-6q-35 -31 -74 -61.5t-81 -54t-89 -39t-96 -15.5t-88 16.5t-74 49.5q-37 37 -52.5 93t-15.5 128l4 563q0 14 -16 19.5t-86 11.5l-33 4l-6 31h346l-6 -576q0 -111 45 -154.5t133 -43.5q61 0 109.5 21.5t83.5 49.5v600q0 39 -18.5 51.5t-80.5 16.5l-39 4l-6 31 h346v-717q0 -41 8.5 -55.5t30.5 -20.5l97 -24l-2 -23l-336 -80zM246 1161h524l-12 -80h-529z" />
<glyph unicode="&#x16c;" horiz-adv-x="1429" d="M731 -33q-266 0 -391 108.5t-125 350.5v786q0 10 -17.5 16.5t-86.5 12.5l-76 8l-6 33h602l-6 -33l-90 -8q-49 -4 -69 -14t-20 -21v-725q0 -217 92.5 -317.5t274.5 -100.5q174 0 271.5 108t97.5 325l-2 567q0 51 -7.5 84t-25 52.5t-46 28.5t-71.5 13l-59 8l-6 33h452 l-6 -33l-57 -8q-35 -4 -58.5 -13t-39 -30.5t-22.5 -55.5t-7 -87l-4 -572q0 -121 -30 -216t-89.5 -161.5t-151.5 -102.5t-221 -36zM788 1403q-66 0 -111.5 30.5t-77.5 82t-52.5 120t-34.5 144.5h27q41 -119 103.5 -182.5t150.5 -63.5q86 0 148.5 64.5t102.5 181.5h27 q-14 -76 -34.5 -144.5t-53.5 -120t-80 -82t-115 -30.5z" />
<glyph unicode="&#x16d;" horiz-adv-x="1046" d="M713 141h-6q-35 -31 -74 -61.5t-81 -54t-89 -39t-96 -15.5t-88 16.5t-74 49.5q-37 37 -52.5 93t-15.5 128l4 563q0 14 -16 19.5t-86 11.5l-33 4l-6 31h346l-6 -576q0 -111 45 -154.5t133 -43.5q61 0 109.5 21.5t83.5 49.5v600q0 39 -18.5 51.5t-80.5 16.5l-39 4l-6 31 h346v-717q0 -41 8.5 -55.5t30.5 -20.5l97 -24l-2 -23l-336 -80zM508 1010q-66 0 -112 30.5t-77.5 82t-52 120t-35.5 143.5h27q41 -119 103.5 -182t150.5 -63q86 0 148.5 64.5t103.5 180.5h27q-14 -76 -35 -144t-53.5 -119.5t-79.5 -82t-115 -30.5z" />
<glyph unicode="&#x16e;" horiz-adv-x="1429" d="M731 -33q-266 0 -391 108.5t-125 350.5v786q0 10 -17.5 16.5t-86.5 12.5l-76 8l-6 33h602l-6 -33l-90 -8q-49 -4 -69 -14t-20 -21v-725q0 -217 92.5 -317.5t274.5 -100.5q174 0 271.5 108t97.5 325l-2 567q0 51 -7.5 84t-25 52.5t-46 28.5t-71.5 13l-59 8l-6 33h452 l-6 -33l-57 -8q-35 -4 -58.5 -13t-39 -30.5t-22.5 -55.5t-7 -87l-4 -572q0 -121 -30 -216t-89.5 -161.5t-151.5 -102.5t-221 -36zM786 1423q-86 0 -136 55.5t-50 133.5q0 76 50 131t136 55t135.5 -55t49.5 -131q0 -78 -49.5 -133.5t-135.5 -55.5zM786 1454q72 0 111 47 t39 111q0 61 -39 108t-111 47t-111.5 -47t-39.5 -108q0 -63 39.5 -110.5t111.5 -47.5z" />
<glyph unicode="&#x16f;" horiz-adv-x="1046" d="M713 141h-6q-35 -31 -74 -61.5t-81 -54t-89 -39t-96 -15.5t-88 16.5t-74 49.5q-37 37 -52.5 93t-15.5 128l4 563q0 14 -16 19.5t-86 11.5l-33 4l-6 31h346l-6 -576q0 -111 45 -154.5t133 -43.5q61 0 109.5 21.5t83.5 49.5v600q0 39 -18.5 51.5t-80.5 16.5l-39 4l-6 31 h346v-717q0 -41 8.5 -55.5t30.5 -20.5l97 -24l-2 -23l-336 -80zM496 1030q-86 0 -136.5 55.5t-50.5 133.5q0 76 50.5 131t136.5 55t135 -55.5t49 -130.5q0 -78 -49 -133.5t-135 -55.5zM496 1061q72 0 110.5 47t38.5 111q0 61 -39 108t-110 47q-72 0 -112 -47t-40 -108 q0 -63 40 -110.5t112 -47.5z" />
<glyph unicode="&#x170;" horiz-adv-x="1429" d="M731 -33q-266 0 -391 108.5t-125 350.5v786q0 10 -17.5 16.5t-86.5 12.5l-76 8l-6 33h602l-6 -33l-90 -8q-49 -4 -69 -14t-20 -21v-725q0 -217 92.5 -317.5t274.5 -100.5q174 0 271.5 108t97.5 325l-2 567q0 51 -7.5 84t-25 52.5t-46 28.5t-71.5 13l-59 8l-6 33h452 l-6 -33l-57 -8q-35 -4 -58.5 -13t-39 -30.5t-22.5 -55.5t-7 -87l-4 -572q0 -121 -30 -216t-89.5 -161.5t-151.5 -102.5t-221 -36zM723 1794h207l-369 -381h-31zM1059 1794h207l-369 -381h-31z" />
<glyph unicode="&#x171;" horiz-adv-x="1046" d="M713 141h-6q-35 -31 -74 -61.5t-81 -54t-89 -39t-96 -15.5t-88 16.5t-74 49.5q-37 37 -52.5 93t-15.5 128l4 563q0 14 -16 19.5t-86 11.5l-33 4l-6 31h346l-6 -576q0 -111 45 -154.5t133 -43.5q61 0 109.5 21.5t83.5 49.5v600q0 39 -18.5 51.5t-80.5 16.5l-39 4l-6 31 h346v-717q0 -41 8.5 -55.5t30.5 -20.5l97 -24l-2 -23l-336 -80zM446 1401h207l-368 -381h-31zM782 1401h207l-368 -381h-31z" />
<glyph unicode="&#x172;" horiz-adv-x="1429" d="M881 -479q-84 0 -139.5 46t-55.5 128q0 86 57.5 162.5t135.5 124.5q-29 -6 -70 -10.5t-76 -4.5q-268 0 -393 108.5t-125 350.5v786q0 12 -17.5 18.5t-86.5 12.5l-76 6l-6 33h604l-6 -33l-90 -8q-51 -4 -71 -14t-20 -21v-727q0 -217 93.5 -316.5t273.5 -99.5 q174 0 271.5 108t97.5 327l-2 565q0 51 -7.5 84t-25 52.5t-46 28.5t-71.5 13l-57 8l-6 33h450l-6 -33l-57 -8q-35 -4 -58.5 -13t-39 -29.5t-22.5 -54.5t-7 -87l-4 -572q-2 -180 -59.5 -294.5t-186.5 -182.5q-78 -41 -117 -105.5t-39 -142.5q0 -66 36 -101.5t99 -35.5 q39 0 67 16.5t52 41.5l12 -13q-8 -23 -26.5 -48.5t-46 -48t-61 -36.5t-72.5 -14z" />
<glyph unicode="&#x173;" horiz-adv-x="1046" d="M838 -479q-84 0 -139.5 48t-55.5 134q0 53 21.5 99t56.5 85t79 70t89 53l-178 -43l2 174h-6q-35 -31 -73 -61.5t-81 -54t-90 -39t-96 -15.5q-96 0 -162 66q-37 37 -52.5 93t-15.5 128l4 563q0 6 -2 11.5t-12 8.5t-30.5 5t-57.5 6l-33 2l-6 33h348l-6 -576 q-2 -111 44 -154.5t134 -43.5q59 0 106.5 21.5t82.5 49.5v600q0 39 -17.5 51.5t-77.5 16.5l-41 2l-8 33h348v-717q0 -41 8.5 -55.5t30.5 -20.5l99 -24l-4 -23q-123 -41 -196 -114.5t-73 -176.5q0 -66 36 -99.5t101 -33.5q39 0 67 16.5t52 41.5l13 -13q-8 -23 -28 -48.5 t-46.5 -48t-61 -36.5t-73.5 -14z" />
<glyph unicode="&#x174;" horiz-adv-x="2000" d="M1026 1796h35l276 -399h-28l-262 213h-5l-266 -213h-26zM213 1044q-23 59 -38 96.5t-31.5 58t-38 28.5t-54.5 12l-67 8l-7 33h601l-7 -33l-73 -6q-37 -2 -56.5 -9t-25.5 -25.5t1 -49.5t25 -82l287 -811h6l260 680l-34 103q-23 57 -39.5 93t-33 57.5t-38 29.5t-51.5 12 l-70 8l-6 33h598l-6 -33l-72 -6q-37 -2 -57.5 -9t-25.5 -25.5t3 -51.5t27 -84l278 -801h7l217 617q37 106 54 172.5t11 103.5t-40 52.5t-99 23.5l-51 8l-6 33h467l-7 -33l-36 -6q-43 -6 -71 -19.5t-52.5 -50t-52 -105.5t-70.5 -185l-324 -904h-65l-326 906h-6l-346 -906h-66 z" />
<glyph unicode="&#x175;" horiz-adv-x="1492" d="M754 1403h34l277 -399h-29l-262 213h-4l-266 -213h-27zM139 721q-16 39 -27.5 62.5t-23.5 38t-27.5 19.5t-40.5 7l-36 6l-7 31h474l-5 -31l-40 -6q-49 -4 -62.5 -21.5t4.5 -66.5l203 -541l174 438l-37 91q-25 59 -46 77.5t-69 22.5l-34 6l-7 31h474l-5 -31l-40 -6 q-51 -4 -61.5 -23.5t5.5 -64.5l211 -539l139 404q20 61 27.5 101t-0.5 65.5t-32.5 38t-69.5 18.5l-35 6l-6 31h364l-6 -31l-35 -6q-33 -2 -53 -11.5t-36.5 -34t-33 -67.5t-41.5 -114l-225 -641h-67l-256 624l-254 -624h-68z" />
<glyph unicode="&#x176;" horiz-adv-x="1284" d="M338 33l100 8q51 4 70.5 14.5t19.5 20.5v487l-307 533q-23 39 -41 64.5t-36.5 42t-40 24.5t-50.5 12l-53 8l-6 33h588l-7 -33l-51 -4q-82 -8 -87 -44t46 -126l244 -434h4l178 328q43 78 63.5 128t18.5 80.5t-28.5 45t-77.5 20.5l-49 6l-7 33h447l-6 -33l-49 -6 q-33 -6 -60.5 -17.5t-55.5 -41t-61.5 -79.5t-78.5 -132l-205 -373v-528q0 -12 17.5 -18.5t86.5 -12.5l84 -6l6 -33h-622zM680 1796h35l276 -399h-28l-263 213h-4l-266 -213h-27z" />
<glyph unicode="&#x177;" horiz-adv-x="962" d="M205 -528q-55 0 -96 31.5t-41 84.5q0 47 30.5 79t79.5 32q57 0 87 -29.5t40 -68.5q35 10 58.5 52t50.5 116l71 211h-10l-342 759q-14 33 -24.5 52.5t-22.5 31t-26.5 16.5t-39.5 9l-40 6l-7 31h482l-6 -31l-41 -6q-51 -4 -62.5 -24.5t10.5 -67.5l222 -520l147 405 q20 61 28.5 99t1.5 60.5t-33 32t-69 15.5l-39 6l-6 31h367l-6 -31l-41 -6q-31 -4 -50.5 -12.5t-36 -32t-33.5 -66.5t-44 -112l-225 -607l-90 -274q-45 -135 -100.5 -203.5t-143.5 -68.5zM498 1403h34l277 -399h-29l-262 213h-4l-266 -213h-27z" />
<glyph unicode="&#x178;" horiz-adv-x="1282" d="M338 33l100 8q51 4 70.5 14.5t19.5 20.5v487l-307 533q-23 39 -41 64.5t-36.5 42t-40 24.5t-50.5 12l-53 8l-6 33h588l-7 -33l-51 -4q-82 -8 -87 -44t46 -126l244 -434h4l178 328q43 78 63.5 128t18.5 80.5t-28.5 45t-77.5 20.5l-49 6l-7 33h447l-6 -33l-49 -6 q-33 -6 -60.5 -17.5t-55.5 -41t-61.5 -79.5t-78.5 -132l-205 -373v-528q0 -12 17.5 -18.5t86.5 -12.5l84 -6l6 -33h-622zM854 1401q-59 0 -89 39t-30 80q0 20 7.5 42.5t22.5 41t37.5 30t51.5 11.5q31 0 52.5 -11.5t36.5 -30t22.5 -41t7.5 -42.5q0 -41 -30 -80t-89 -39z M459 1401q-59 0 -89 39t-30 80q0 20 7 42.5t22.5 41t38 30t51.5 11.5q31 0 52 -11.5t36.5 -30t23 -41t7.5 -42.5q0 -41 -30 -80t-89 -39z" />
<glyph unicode="&#x179;" horiz-adv-x="1208" d="M709 1794h223l-391 -381h-29zM66 31l788 1200v6l-209 2q-121 0 -202 -20.5t-134 -58.5t-84.5 -91t-54.5 -119l-16 -63h-45l22 393h995v-33l-792 -1198v-6l231 -2q129 -2 213 17.5t140.5 59.5t93.5 101.5t71 145.5l23 67h49l-59 -432h-1030v31z" />
<glyph unicode="&#x17a;" horiz-adv-x="907" d="M573 1401h224l-391 -381h-29zM45 29l545 817h-92q-84 0 -139.5 -13.5t-92.5 -39t-61.5 -64.5t-44.5 -92l-33 -88h-41v336h748v-29l-551 -817h100q88 2 151.5 17.5t109.5 44t78 68.5t58 89l43 80h39l-67 -338h-750v29z" />
<glyph unicode="&#x17b;" horiz-adv-x="1208" d="M66 31l788 1200v6l-209 2q-121 0 -202 -20.5t-134 -58.5t-84.5 -91t-54.5 -119l-16 -63h-45l22 393h995v-33l-792 -1198v-6l231 -2q129 -2 213 17.5t140.5 59.5t93.5 101.5t71 145.5l23 67h49l-59 -432h-1030v31zM623 1473q-61 0 -93 40.5t-32 85.5t31.5 87.5t93.5 42.5 q61 0 91.5 -42t30.5 -88q0 -45 -30.5 -85.5t-91.5 -40.5z" />
<glyph unicode="&#x17c;" horiz-adv-x="907" d="M45 29l545 817h-92q-84 0 -139.5 -13.5t-92.5 -39t-61.5 -64.5t-44.5 -92l-33 -88h-41v336h748v-29l-551 -817h100q88 2 151.5 17.5t109.5 44t78 68.5t58 89l43 80h39l-67 -338h-750v29zM459 1079q-61 0 -93 41t-32 86t31.5 87t93.5 42q61 0 92 -42t31 -87t-31 -86 t-92 -41z" />
<glyph unicode="&#x17d;" horiz-adv-x="1208" d="M66 31l788 1200v6l-209 2q-121 0 -202 -20.5t-134 -58.5t-84.5 -91t-54.5 -119l-16 -63h-45l22 393h995v-33l-792 -1198v-6l231 -2q129 -2 213 17.5t140.5 59.5t93.5 101.5t71 145.5l23 67h49l-59 -432h-1030v31zM319 1755h27l266 -213h4l265 213h26l-276 -399h-35z" />
<glyph unicode="&#x17e;" horiz-adv-x="907" d="M45 29l545 817h-92q-84 0 -139.5 -13.5t-92.5 -39t-61.5 -64.5t-44.5 -92l-33 -88h-41v336h748v-29l-551 -817h100q88 2 151.5 17.5t109.5 44t78 68.5t58 89l43 80h39l-67 -338h-750v29zM160 1374h26l267 -213h4l264 213h27l-277 -399h-35z" />
<glyph unicode="&#x192;" horiz-adv-x="1075" d="M172 -111q-82 0 -135 37t-53 99q0 43 30.5 76.5t83.5 33.5q31 0 56.5 -15.5t41 -41t16.5 -58t-17 -65.5q16 -2 30 -2h45q25 6 45.5 36.5t41 94t44 165t52.5 247.5l39 227l-211 8l26 76l209 18q29 115 73 214.5t103 158.5q51 51 123 79t146 28q88 0 139 -40t51 -102 q0 -47 -35 -83t-80 -36q-39 0 -64.5 18.5t-35.5 47.5t-4 61.5t33 63.5q-16 2 -31 6q-12 2 -25.5 4t-21.5 2q-33 -6 -57.5 -42t-44 -94t-37 -133t-33.5 -157l248 -2l-2 -92h-263l-45 -186q-43 -197 -99 -335t-142 -224q-47 -49 -113 -71t-127 -22z" />
<glyph unicode="&#x1fa;" horiz-adv-x="1296" d="M709 2005h223l-391 -381h-29zM367 518l-64 -182q-31 -90 -45 -145.5t-8 -86t35.5 -44t89.5 -19.5l53 -8l6 -33h-454l6 33l37 6q45 6 74.5 20.5t57 56.5t61.5 124t85 227l285 793q-59 20 -91 67t-32 107q0 76 49 131t135 55t136.5 -55.5t50.5 -130.5q0 -57 -29 -102.5 t-80 -65.5l342 -1026q20 -59 36.5 -97.5t34 -60t38 -30.5t51.5 -11l67 -8l6 -33h-604l6 33l68 8q37 2 55.5 13.5t23.5 35t-2 61t-26 91.5l-86 276h-368zM719 565q-12 37 -25 78q-10 35 -24.5 79t-28.5 91l-78 250h-6l-174 -498h336zM647 1276q72 0 112 46t40 110 q0 63 -40 110t-112 47t-110.5 -47t-38.5 -110t38.5 -109.5t110.5 -46.5z" />
<glyph unicode="&#x1fb;" horiz-adv-x="905" d="M455 1796h223l-391 -381h-29zM434 1030q-86 0 -136 55.5t-50 133.5q0 76 50 131t136 55t135 -55.5t49 -130.5q0 -78 -49 -133.5t-135 -55.5zM705 -25q-137 0 -154 162l-4 2q-59 -66 -124 -114t-144 -48q-45 0 -85 16.5t-71 44.5t-48.5 66.5t-17.5 81.5q0 55 24.5 101.5 t83 87.5t155 76.5t237.5 70.5l2 53q4 143 -51 208t-152 65q-27 0 -52 -6t-44.5 -14.5t-32 -17.5t-12.5 -15t8 -16.5t19.5 -25t19.5 -34t8 -39.5q0 -39 -30.5 -68.5t-79.5 -29.5q-47 0 -79 25.5t-32 66.5q0 45 42 88t106.5 76.5t139.5 55t140 21.5q80 0 137.5 -17t92 -57 t48 -106.5t9.5 -165.5l-19 -374q-4 -53 14.5 -78t51.5 -25q25 0 46.5 16.5t43.5 36.5l19 -18q-18 -25 -41 -51.5t-50.5 -49t-59 -37t-64.5 -14.5zM434 1061q72 0 111 47t39 111q0 61 -39 108t-111 47t-111.5 -47t-39.5 -108q0 -63 39.5 -110.5t111.5 -47.5zM389 102 q82 0 156 74l12 311q-92 -23 -150.5 -48t-92 -55t-46 -63.5t-12.5 -70.5q0 -66 40 -107t93 -41z" />
<glyph unicode="&#x1fc;" horiz-adv-x="1761" d="M-96 33l69 10q31 4 59.5 19.5t62.5 53.5t78 105.5t103 177.5l406 734q12 25 16 43t-6 31.5t-35.5 20.5t-72.5 11l-76 6l-6 35h1104l16 -406h-41l-22 72q-23 78 -47.5 133.5t-67.5 91t-111.5 52t-179.5 16.5l-141 -2v-561h59q68 2 113 10t75.5 23.5t49 42t32.5 69.5l23 64 l37 -2l-47 -463l-35 2l-8 61q-4 45 -14.5 73t-38 44t-75.5 22.5t-124 10.5l-47 4v-590l149 -6q115 0 192 22.5t129 62.5t83.5 95t58.5 123l21 68l45 -2l-56 -410h-1040l6 33l102 12q47 4 64.5 14.5t17.5 22.5v440h-387l-100 -182q-43 -82 -63.5 -136t-19.5 -88t24.5 -51.5 t66.5 -23.5l60 -8l6 -33h-473zM784 567v652h-6l-356 -652h362zM1157 1794h223l-391 -381h-28z" />
<glyph unicode="&#x1fd;" horiz-adv-x="1413" d="M827 1401h224l-392 -381h-28zM279 -27q-45 0 -85 16.5t-71 45t-48.5 66.5t-17.5 81q0 55 24.5 103.5t82 89.5t154 77.5t239.5 71.5l2 54q8 139 -50 204.5t-153 65.5q-27 0 -52 -6t-44.5 -14.5t-32 -17.5t-12.5 -15t8 -16.5t19.5 -25t19.5 -34t8 -39.5q0 -39 -30.5 -68.5 t-79.5 -29.5q-47 0 -79 25.5t-32 66.5q0 45 41 88t105.5 76.5t140.5 55t147 21.5q86 0 142.5 -25.5t85.5 -88.5q57 53 132 85t173 32q80 0 143.5 -23t106.5 -61.5t65.5 -93t22.5 -115.5q0 -27 -6 -58q-156 0 -281 2q-53 0 -104.5 1t-93.5 2t-69.5 1h-31.5q-4 -14 -4 -38.5 v-40.5q0 -86 23.5 -157t64.5 -120t97.5 -76.5t123.5 -27.5q84 0 149.5 32.5t118.5 114.5l23 -12q-66 -131 -165 -203t-232 -72q-127 0 -220.5 59.5t-140.5 155.5q-90 -100 -166.5 -157.5t-160.5 -57.5zM770 608q106 0 188 2h129q31 0 58 2q2 51 -6.5 99.5t-27.5 85.5 t-49 58.5t-73 21.5q-39 0 -74.5 -20.5t-65.5 -56.5t-50.5 -85.5t-28.5 -106.5zM387 98q53 0 98 28t105 91q-18 45 -27.5 103.5t-9.5 115.5v24.5t2 24.5q-92 -23 -150.5 -49t-91 -56t-45 -63.5t-12.5 -70.5q0 -66 41 -107t90 -41z" />
<glyph unicode="&#x1fe;" horiz-adv-x="1515" d="M1122 1221q152 -82 240 -231.5t88 -348.5q0 -135 -54.5 -256t-149.5 -213t-223 -146.5t-273 -54.5q-170 0 -314 64q-8 -14 -16 -29q-18 -29 -37 -63q-23 -41 -53 -93h-45q33 55 57 101q10 18 20.5 36.5t20.5 32.5q8 16 18 31q-154 82 -244.5 232.5t-90.5 351.5 q0 133 55 255t150.5 215t222.5 148.5t272 55.5q176 0 321 -70l101 172h45q-18 -31 -37 -63q-16 -29 -36 -61.5t-38 -65.5zM1032 1143q-117 123 -280 123q-98 0 -178 -41t-136.5 -121t-87.5 -196.5t-31 -266.5q0 -158 38 -279.5t104 -205.5zM1059 1110q-43 -72 -90 -154 q-41 -70 -91.5 -157.5t-103.5 -180.5q-127 -217 -285 -491q115 -115 275 -115q197 0 314.5 161t117.5 464q0 154 -35.5 272.5t-101.5 200.5zM926 1784h223l-391 -381h-29z" />
<glyph unicode="&#x1ff;" horiz-adv-x="1054" d="M262 39q-102 61 -158.5 166.5t-56.5 234.5q0 98 37 185.5t101.5 152t154.5 101t195 36.5q59 0 111 -11t99 -32l185 320h41l-195 -336q109 -59 170.5 -164.5t61.5 -236.5q0 -102 -36 -190.5t-100.5 -153t-154.5 -102.5t-197 -38q-125 0 -227 52l-164 -285h-41zM694 784 q-6 10 -12 16.5t-12 14.5q-25 25 -60 44.5t-86 19.5q-59 0 -105 -33t-77 -88.5t-47 -129t-16 -155.5q0 -98 12 -178t39 -139zM348 119q8 -12 16.5 -23.5t18.5 -21.5q27 -29 62.5 -46.5t84.5 -17.5q57 0 102.5 32t77 87t49 130t17.5 159q0 102 -15.5 187t-45.5 145zM668 1380 h223l-391 -381h-29z" />
<glyph unicode="&#x218;" horiz-adv-x="1050" d="M391 -551q72 20 117 69.5t45 110.5q0 39 -18.5 64.5t-44 39t-54 14.5t-47.5 -11q-8 25 -3 49.5t20.5 46t43 34.5t66.5 13q76 0 122 -47t46 -121q0 -45 -21.5 -89t-59.5 -82t-88 -66.5t-107 -40.5zM498 -29q-106 0 -209 19.5t-189 48.5l-18 338h43l74 -187 q55 -92 134 -134t177 -42q129 2 201.5 76t72.5 186q0 61 -22.5 106.5t-64.5 79.5t-98 59.5t-124 49.5q-76 27 -141.5 59t-114.5 75t-76.5 101t-27.5 138q0 70 28.5 135.5t82 115.5t132 82t181.5 32q86 0 153.5 -13.5t124.5 -29.5l86 28l4 -366h-39l-127 274q-43 27 -94 44.5 t-117 17.5q-106 0 -170.5 -61.5t-64.5 -149.5q0 -57 23.5 -99.5t63.5 -73t93 -54t115 -46.5q84 -29 154.5 -63.5t122 -80.5t80 -108.5t28.5 -148.5q0 -76 -34 -149.5t-96.5 -131t-150 -92.5t-196.5 -35z" />
<glyph unicode="&#x219;" horiz-adv-x="782" d="M252 -551q72 20 117 69.5t45 110.5q0 39 -18.5 64.5t-44 39t-54.5 14.5t-47 -11q-8 25 -3 49.5t20.5 46t43 34.5t66.5 13q76 0 122 -47t46 -121q0 -45 -21.5 -89t-59.5 -82t-88 -66.5t-108 -40.5zM360 -29q-86 0 -157.5 13.5t-128.5 35.5l-15 261l45 2l48 -119 q41 -72 95 -113t128 -41q80 0 132 46t52 118q0 37 -17.5 65.5t-46 51t-69.5 41t-86 35.5q-51 18 -98 40.5t-84 54.5t-58.5 76t-21.5 105q0 121 89 196.5t234 75.5q59 0 108.5 -9t88.5 -25l74 22l10 -266l-41 -2l-106 190q-25 18 -61 35t-79 17q-76 0 -116.5 -40t-40.5 -104 q0 -74 56 -109.5t155 -72.5q53 -20 103 -44t88 -55.5t60.5 -77.5t22.5 -110q0 -57 -23.5 -109.5t-68.5 -93.5t-114 -65.5t-157 -24.5z" />
<glyph unicode="&#x21a;" horiz-adv-x="1341" d="M532 -551q72 20 117 69.5t45 110.5q0 39 -18.5 64.5t-44 39t-54 14.5t-47.5 -11q-8 25 -3 49.5t20.5 46t43 34.5t66.5 13q76 0 122 -47t46 -121q0 -45 -21.5 -89t-59 -82t-88 -66.5t-107.5 -40.5zM365 33l100 8q49 4 69.5 14.5t20.5 20.5v1165h-55q-76 -4 -134.5 -27.5 t-103.5 -60.5t-76.5 -85t-54.5 -97l-27 -78h-47l58 387h1126l33 -387h-43l-23 74q-49 119 -132 194.5t-230 79.5h-60v-1171q0 -12 17.5 -18.5t87.5 -12.5l86 -6l6 -33h-625z" />
<glyph unicode="&#x21b;" horiz-adv-x="704" d="M262 -551q72 20 117 69.5t45 110.5q0 39 -18.5 64.5t-44 39t-54 14.5t-47.5 -11q-8 25 -3 49.5t20.5 46t43 34.5t66.5 13q76 0 122 -47t46 -121q0 -45 -21.5 -89t-59.5 -82t-88 -66.5t-107 -40.5zM393 -27q-115 0 -175 60.5t-58 191.5l10 555l-164 6l19 52l129 98 l188 151l31 -6l-2 -196h315l-29 -97h-286l-13 -532q-2 -164 154 -164q51 0 93 16.5t77 43.5l10 -21q-63 -66 -139 -112t-160 -46z" />
<glyph unicode="&#x2c6;" horiz-adv-x="776" d="M371 1403h35l276 -399h-29l-262 213h-4l-266 -213h-27z" />
<glyph unicode="&#x2c7;" horiz-adv-x="776" d="M94 1403h27l266 -213h4l264 213h27l-276 -399h-35z" />
<glyph unicode="&#x2d8;" horiz-adv-x="790" d="M395 1010q-66 0 -111.5 30.5t-77.5 82t-52.5 120t-34.5 143.5h26q41 -119 103.5 -182t150.5 -63q86 0 148.5 64.5t103.5 180.5h27q-14 -76 -34.5 -144t-53.5 -119.5t-80 -82t-115 -30.5z" />
<glyph unicode="&#x2d9;" horiz-adv-x="796" d="M399 1079q-61 0 -93 41t-32 86t32 87t93 42t92 -42t31 -87t-31 -86t-92 -41z" />
<glyph unicode="&#x2da;" horiz-adv-x="776" d="M389 1030q-86 0 -136 55.5t-50 133.5q0 76 50 131t136 55t135 -55.5t49 -130.5q0 -78 -49 -133.5t-135 -55.5zM389 1061q72 0 111 47t39 111q0 61 -39 108t-111 47t-111.5 -47t-39.5 -108q0 -63 39.5 -110.5t111.5 -47.5z" />
<glyph unicode="&#x2db;" horiz-adv-x="794" d="M416 -489q-86 0 -145.5 54t-59.5 140q0 61 29.5 113.5t75.5 94.5t101.5 72.5t108.5 51.5h52q-127 -59 -184.5 -134t-57.5 -153q0 -68 40 -107.5t111 -39.5q43 0 73 15t58 42l13 -20q-14 -20 -36 -43t-49.5 -42.5t-60 -31.5t-69.5 -12z" />
<glyph unicode="&#x2dc;" horiz-adv-x="790" d="M551 1034q-47 0 -97.5 20.5t-97.5 46t-89 46t-72 20.5q-35 0 -58.5 -20.5t-36.5 -95.5h-30q16 133 53 188t119 55q45 0 94 -20.5t96 -46t89 -46t73 -20.5q35 0 59.5 19.5t38.5 95.5h29q-14 -131 -52 -186.5t-118 -55.5z" />
<glyph unicode="&#x2dd;" horiz-adv-x="817" d="M668 1401h206l-368 -381h-31zM332 1401h207l-369 -381h-31z" />
<glyph unicode="&#x1e80;" horiz-adv-x="2000" d="M213 1044q-23 59 -38 96.5t-31.5 58t-38 28.5t-54.5 12l-67 8l-7 33h601l-7 -33l-73 -6q-37 -2 -56.5 -9t-25.5 -25.5t1 -49.5t25 -82l287 -811h6l260 680l-34 103q-23 57 -39.5 93t-33 57.5t-38 29.5t-51.5 12l-70 8l-6 33h598l-6 -33l-72 -6q-37 -2 -57.5 -9 t-25.5 -25.5t3 -51.5t27 -84l278 -801h7l217 617q37 106 54 172.5t11 103.5t-40 52.5t-99 23.5l-51 8l-6 33h467l-7 -33l-36 -6q-43 -6 -71 -19.5t-52.5 -50t-52 -105.5t-70.5 -185l-324 -904h-65l-326 906h-6l-346 -906h-66zM739 1794h222l196 -381h-27z" />
<glyph unicode="&#x1e81;" horiz-adv-x="1492" d="M139 721q-16 39 -27.5 62.5t-23.5 38t-27.5 19.5t-40.5 7l-36 6l-7 31h474l-5 -31l-40 -6q-49 -4 -62.5 -21.5t4.5 -66.5l203 -541l174 438l-37 91q-25 59 -46 77.5t-69 22.5l-34 6l-7 31h474l-5 -31l-40 -6q-51 -4 -61.5 -23.5t5.5 -64.5l211 -539l139 404 q20 61 27.5 101t-0.5 65.5t-32.5 38t-69.5 18.5l-35 6l-6 31h364l-6 -31l-35 -6q-33 -2 -53 -11.5t-36.5 -34t-33 -67.5t-41.5 -114l-225 -641h-67l-256 624l-254 -624h-68zM465 1401h221l197 -381h-27z" />
<glyph unicode="&#x1e82;" horiz-adv-x="2000" d="M1114 1794h223l-391 -381h-28zM213 1044q-23 59 -38 96.5t-31.5 58t-38 28.5t-54.5 12l-67 8l-7 33h601l-7 -33l-73 -6q-37 -2 -56.5 -9t-25.5 -25.5t1 -49.5t25 -82l287 -811h6l260 680l-34 103q-23 57 -39.5 93t-33 57.5t-38 29.5t-51.5 12l-70 8l-6 33h598l-6 -33 l-72 -6q-37 -2 -57.5 -9t-25.5 -25.5t3 -51.5t27 -84l278 -801h7l217 617q37 106 54 172.5t11 103.5t-40 52.5t-99 23.5l-51 8l-6 33h467l-7 -33l-36 -6q-43 -6 -71 -19.5t-52.5 -50t-52 -105.5t-70.5 -185l-324 -904h-65l-326 906h-6l-346 -906h-66z" />
<glyph unicode="&#x1e83;" horiz-adv-x="1492" d="M856 1401h223l-391 -381h-29zM139 721q-16 39 -27.5 62.5t-23.5 38t-27.5 19.5t-40.5 7l-36 6l-7 31h474l-5 -31l-40 -6q-49 -4 -62.5 -21.5t4.5 -66.5l203 -541l174 438l-37 91q-25 59 -46 77.5t-69 22.5l-34 6l-7 31h474l-5 -31l-40 -6q-51 -4 -61.5 -23.5t5.5 -64.5 l211 -539l139 404q20 61 27.5 101t-0.5 65.5t-32.5 38t-69.5 18.5l-35 6l-6 31h364l-6 -31l-35 -6q-33 -2 -53 -11.5t-36.5 -34t-33 -67.5t-41.5 -114l-225 -641h-67l-256 624l-254 -624h-68z" />
<glyph unicode="&#x1e84;" horiz-adv-x="2000" d="M1241 1452q-59 0 -89 39t-30 80q0 20 7.5 42.5t22.5 41t37.5 30t51.5 11.5q31 0 52.5 -11.5t37 -30t22.5 -41t7 -42.5q0 -41 -30 -80t-89 -39zM846 1452q-59 0 -89 39t-30 80q0 20 7 42.5t22.5 41t38 30t51.5 11.5q31 0 52.5 -11.5t36.5 -30t22.5 -41t7.5 -42.5 q0 -41 -30 -80t-89 -39zM213 1044q-23 59 -38 96.5t-31.5 58t-38 28.5t-54.5 12l-67 8l-7 33h601l-7 -33l-73 -6q-37 -2 -56.5 -9t-25.5 -25.5t1 -49.5t25 -82l287 -811h6l260 680l-34 103q-23 57 -39.5 93t-33 57.5t-38 29.5t-51.5 12l-70 8l-6 33h598l-6 -33l-72 -6 q-37 -2 -57.5 -9t-25.5 -25.5t3 -51.5t27 -84l278 -801h7l217 617q37 106 54 172.5t11 103.5t-40 52.5t-99 23.5l-51 8l-6 33h467l-7 -33l-36 -6q-43 -6 -71 -19.5t-52.5 -50t-52 -105.5t-70.5 -185l-324 -904h-65l-326 906h-6l-346 -906h-66z" />
<glyph unicode="&#x1e85;" horiz-adv-x="1492" d="M967 1059q-59 0 -89 39t-30 80q0 20 7 42.5t22.5 41t38 30t51.5 11.5q31 0 52 -11.5t36.5 -30t22.5 -41t7 -42.5q0 -41 -29.5 -80t-88.5 -39zM571 1059q-59 0 -88.5 39t-29.5 80q0 20 7 42.5t22.5 41t38 30t50.5 11.5q31 0 52.5 -11.5t37 -30t22.5 -41t7 -42.5 q0 -41 -30 -80t-89 -39zM139 721q-16 39 -27.5 62.5t-23.5 38t-27.5 19.5t-40.5 7l-36 6l-7 31h474l-5 -31l-40 -6q-49 -4 -62.5 -21.5t4.5 -66.5l203 -541l174 438l-37 91q-25 59 -46 77.5t-69 22.5l-34 6l-7 31h474l-5 -31l-40 -6q-51 -4 -61.5 -23.5t5.5 -64.5l211 -539 l139 404q20 61 27.5 101t-0.5 65.5t-32.5 38t-69.5 18.5l-35 6l-6 31h364l-6 -31l-35 -6q-33 -2 -53 -11.5t-36.5 -34t-33 -67.5t-41.5 -114l-225 -641h-67l-256 624l-254 -624h-68z" />
<glyph unicode="&#x2000;" horiz-adv-x="1002" />
<glyph unicode="&#x2001;" horiz-adv-x="2005" />
<glyph unicode="&#x2002;" horiz-adv-x="1002" />
<glyph unicode="&#x2003;" horiz-adv-x="2005" />
<glyph unicode="&#x2004;" horiz-adv-x="668" />
<glyph unicode="&#x2005;" horiz-adv-x="501" />
<glyph unicode="&#x2006;" horiz-adv-x="334" />
<glyph unicode="&#x2007;" horiz-adv-x="334" />
<glyph unicode="&#x2008;" horiz-adv-x="250" />
<glyph unicode="&#x2009;" horiz-adv-x="122" />
<glyph unicode="&#x200a;" horiz-adv-x="111" />
<glyph unicode="&#x2010;" horiz-adv-x="604" d="M53 528h506l-4 -92h-508z" />
<glyph unicode="&#x2011;" horiz-adv-x="604" d="M53 528h506l-4 -92h-508z" />
<glyph unicode="&#x2012;" horiz-adv-x="604" d="M53 528h506l-4 -92h-508z" />
<glyph unicode="&#x2013;" horiz-adv-x="899" d="M31 526h841v-88h-847z" />
<glyph unicode="&#x2014;" horiz-adv-x="1861" d="M31 526h1806v-88h-1812z" />
<glyph unicode="&#x2018;" horiz-adv-x="415" d="M229 797q-80 0 -132 55t-52 135q0 104 82 197.5t219 154.5l21 -18q-78 -43 -126 -106.5t-48 -135.5q0 -51 27.5 -80.5t59 -45t59.5 -21.5t28 -8q0 -45 -34 -86t-104 -41z" />
<glyph unicode="&#x2019;" horiz-adv-x="415" d="M49 813q78 41 127 103.5t49 134.5q0 51 -27.5 80.5t-59.5 46t-59.5 21.5t-27.5 7q0 45 34 88t103 43q39 0 73 -15t58.5 -41t38 -61.5t13.5 -76.5q0 -104 -81 -197.5t-216 -152.5z" />
<glyph unicode="&#x201a;" horiz-adv-x="415" d="M49 -264q78 41 127 103.5t49 133.5q0 51 -27.5 81t-59.5 46.5t-59.5 21.5t-27.5 7q0 45 34 88t103 43q39 0 73 -15.5t58.5 -41t38 -61.5t13.5 -76q0 -104 -81 -197.5t-216 -153.5z" />
<glyph unicode="&#x201c;" horiz-adv-x="802" d="M623 797q-78 0 -129.5 55t-51.5 135q0 104 81 197.5t216 154.5l23 -18q-78 -43 -127 -106.5t-49 -135.5q0 -51 27.5 -80.5t60.5 -45t60.5 -21.5t27.5 -8q0 -45 -33.5 -86t-105.5 -41zM229 797q-80 0 -132 55t-52 135q0 104 82 197.5t219 154.5l21 -18 q-78 -43 -126 -106.5t-48 -135.5q0 -51 27.5 -80.5t59 -45t59.5 -21.5t28 -8q0 -45 -34 -86t-104 -41z" />
<glyph unicode="&#x201d;" horiz-adv-x="802" d="M444 813q78 41 127.5 103.5t49.5 134.5q0 51 -28 80.5t-60.5 46t-60.5 21.5t-28 7q0 45 35 88t103 43q80 0 132 -56t52 -138q0 -104 -82 -197.5t-217 -152.5zM49 813q78 41 127 103.5t49 134.5q0 51 -27.5 80.5t-59.5 46t-59.5 21.5t-27.5 7q0 45 34 88t103 43 q39 0 73 -15t58.5 -41t38 -61.5t13.5 -76.5q0 -104 -81 -197.5t-216 -152.5z" />
<glyph unicode="&#x201e;" horiz-adv-x="800" d="M444 -264q78 41 127.5 103.5t49.5 133.5q0 51 -28 81t-60.5 46.5t-60.5 21.5t-28 7q0 45 35 88t103 43q80 0 132 -56.5t52 -137.5q0 -104 -82 -197.5t-217 -153.5zM49 -264q78 41 127 103.5t49 133.5q0 51 -27.5 81t-59.5 46.5t-59.5 21.5t-27.5 7q0 45 34 88t103 43 q39 0 73 -15.5t58.5 -41t38 -61.5t13.5 -76q0 -104 -81 -197.5t-216 -153.5z" />
<glyph unicode="&#x2020;" horiz-adv-x="909" d="M434 834h-399l-4 38h403v408h41v-408h406l-4 -38h-402v-1153h-41v1153z" />
<glyph unicode="&#x2021;" horiz-adv-x="909" d="M434 63h-403l4 43h399v748h-399l-4 41h403v385h41v-385h406l-4 -41h-402v-748h402l4 -43h-406v-382h-41v382z" />
<glyph unicode="&#x2022;" horiz-adv-x="888" d="M444 80q-23 0 -62.5 12t-82.5 29.5t-80 38t-51 37.5q-16 16 -35.5 53t-38 80t-31 83t-12.5 62q0 23 12.5 63t31 83t38 79.5t35.5 53.5q14 14 52 34.5t81 38t83 29.5t62 12q23 0 63 -12t83 -29.5t80 -38t53 -34.5q14 -16 34.5 -53t38 -80t30 -83t12.5 -63t-12.5 -62.5 t-30 -82.5t-37 -80t-35.5 -53t-53 -37t-80 -38.5t-84 -29.5t-64 -12z" />
<glyph unicode="&#x2026;" horiz-adv-x="1318" d="M1112 -27q-57 0 -96 41t-39 97q0 53 39 92t96 39q59 0 97 -39t38 -92q0 -55 -38 -96.5t-97 -41.5zM662 -27q-59 0 -98.5 41t-39.5 97q0 53 39 92t99 39q59 0 97 -39t38 -92q0 -55 -38 -96.5t-97 -41.5zM211 -27q-59 0 -98 41t-39 97q0 53 39 92t98 39t97 -39t38 -92 q0 -55 -38 -96.5t-97 -41.5z" />
<glyph unicode="&#x202f;" horiz-adv-x="401" />
<glyph unicode="&#x2030;" horiz-adv-x="1863" d="M301 748q-66 0 -117 22.5t-87 61t-55 90t-19 108.5t19 109.5t55 91.5t87.5 62.5t116.5 23.5q66 0 118 -23.5t89 -62.5t56.5 -91.5t19.5 -109.5t-19.5 -108.5t-56.5 -90t-89 -61t-118 -22.5zM1044 1311h50l-924 -1340h-51zM1561 -35q-66 0 -118 22.5t-88 61.5t-55.5 90 t-19.5 109q0 57 19.5 109.5t55.5 91t88 62.5t118 24t118 -24t87.5 -62.5t55 -91t19.5 -109.5t-19.5 -108.5t-55 -90.5t-87.5 -61.5t-118 -22.5zM913 -35q-66 0 -117 22.5t-86.5 61.5t-55 90t-19.5 109q0 57 19.5 109.5t55 91t87 62.5t116.5 24q66 0 118 -24t88 -62.5 t55.5 -91t19.5 -109.5t-19.5 -108.5t-55.5 -90.5t-88 -61.5t-118 -22.5zM301 788q55 0 98 19.5t74 52.5t47.5 77t16.5 93t-16.5 94t-47.5 79t-74 53.5t-98 19.5q-53 0 -96 -19.5t-73 -53.5t-46 -79t-16 -94t16 -93t46 -77t73 -52.5t96 -19.5zM1561 6q109 0 171 69.5 t62 172.5q0 49 -16.5 93t-47 78t-73.5 54.5t-96 20.5t-96.5 -20.5t-74 -54.5t-47 -78t-16.5 -93q0 -102 62.5 -172t171.5 -70zM913 6q109 0 171.5 69.5t62.5 172.5q0 49 -16.5 93t-47 78t-73.5 54.5t-97 20.5q-53 0 -96 -20.5t-72.5 -54.5t-46 -78t-16.5 -93q0 -102 61 -172 t170 -70z" />
<glyph unicode="&#x2039;" horiz-adv-x="563" d="M39 430v47l463 344l10 -18l-266 -348l266 -351l-10 -16z" />
<glyph unicode="&#x203a;" horiz-adv-x="563" d="M53 106l269 349l-269 348l13 18l462 -344v-47l-462 -342z" />
<glyph unicode="&#x2044;" horiz-adv-x="980" d="M942 1311h57l-960 -1340h-57z" />
<glyph unicode="&#x205f;" horiz-adv-x="501" />
<glyph unicode="&#x2070;" horiz-adv-x="681" d="M344 532q-68 0 -122 28t-94 80t-61.5 125t-21.5 163q0 88 22.5 162.5t63.5 128t96.5 84t122.5 30.5q68 0 123 -28.5t95 -81t61.5 -126t21.5 -161.5t-22.5 -162t-62.5 -128t-96 -84t-126 -30zM348 555q66 0 102.5 89t36.5 276q0 211 -33.5 300t-107.5 89q-66 0 -102.5 -86 t-36.5 -273q0 -109 8 -184.5t25.5 -122.5t44 -67.5t63.5 -20.5z" />
<glyph unicode="&#x2074;" horiz-adv-x="645" d="M352 754h-329l-5 22l400 561h80v-495h143l-23 -88h-120v-207h-146v207zM352 842v350h-4l-250 -350h254z" />
<glyph unicode="&#x2075;" horiz-adv-x="569" d="M209 510q-98 0 -143.5 30.5t-45.5 80.5q0 33 21.5 53t52.5 20q25 0 44.5 -12t31.5 -32.5t16 -44t0 -48.5q27 -14 66 -14q29 0 57.5 12t51 34.5t37 54.5t14.5 71q0 92 -91.5 150.5t-257.5 72.5l99 383h366l-18 -133h-350l-29 -125q209 -20 303 -92t94 -183 q0 -57 -26.5 -108t-70.5 -89t-102.5 -59.5t-119.5 -21.5z" />
<glyph unicode="&#x2076;" horiz-adv-x="661" d="M344 530q-68 0 -123 24t-95 64.5t-61.5 99t-21.5 126.5q0 104 42 194t118 158t180 110t229 52l4 -23q-86 -14 -152.5 -49t-117.5 -84t-84 -110.5t-51 -126.5l2 -2q47 35 95 53t100 18q94 0 159.5 -61.5t65.5 -169.5q0 -59 -22.5 -109.5t-61.5 -86.5t-92.5 -56.5 t-112.5 -20.5zM352 557q57 0 95 53.5t38 157.5q0 96 -48 152.5t-113 56.5q-33 0 -64 -11.5t-51 -29.5q-4 -12 -8 -43t-4 -59q0 -123 38.5 -200t116.5 -77z" />
<glyph unicode="&#x2077;" horiz-adv-x="598" d="M506 1190v4h-193q-68 0 -108.5 -3t-65 -11.5t-36 -25.5t-21.5 -44l-14 -31h-23l29 242h518l2 -18l-352 -760h-125z" />
<glyph unicode="&#x2078;" horiz-adv-x="634" d="M319 530q-121 0 -198.5 52.5t-77.5 144.5q0 68 51 116t131 66v4q-68 35 -117 80t-49 121q0 39 17.5 80t51.5 73.5t83 53t115 20.5q117 0 188.5 -53t71.5 -141q0 -57 -49.5 -99t-122.5 -63v-4q37 -18 71.5 -38.5t61 -47.5t42 -59.5t15.5 -77.5t-20.5 -86t-58.5 -73 t-90.5 -50.5t-115.5 -18.5zM385 993q29 27 48.5 59.5t19.5 82.5q0 33 -9.5 65.5t-28 58t-45 41t-59.5 15.5q-61 0 -92 -40t-31 -91q0 -37 15.5 -64.5t43 -50t63.5 -41.5t75 -35zM336 555q68 0 104.5 40t36.5 95q0 41 -19.5 72t-51 55.5t-72.5 44t-82 37.5 q-35 -29 -57.5 -68.5t-22.5 -93.5q0 -74 43 -128t121 -54z" />
<glyph unicode="&#x2079;" horiz-adv-x="661" d="M55 535q86 14 152.5 47.5t118 83t84 110t51.5 125.5l-2 2q-47 -35 -95.5 -53.5t-97.5 -18.5q-96 0 -161.5 62.5t-65.5 169.5q0 61 22.5 111.5t62.5 87t92 57t114 20.5q66 0 121 -23.5t95 -65.5t61.5 -100t21.5 -128q0 -104 -42 -192.5t-118 -156t-180.5 -109.5 t-227.5 -52zM350 889q33 0 61.5 11t51.5 30q4 12 8 43t4 59q0 127 -38 204t-115 77q-59 0 -97.5 -54.5t-38.5 -158.5q0 -94 48 -152.5t116 -58.5z" />
<glyph unicode="&#x207a;" horiz-adv-x="681" d="M324 918h-304l5 34h299v303h36v-303h297l5 -34h-302v-308h-36v308z" />
<glyph unicode="&#x207b;" horiz-adv-x="681" d="M57 915l4 35h560l4 -35h-568z" />
<glyph unicode="&#x2080;" horiz-adv-x="681" d="M332 -295q-68 0 -122 27.5t-94 80t-61.5 125t-21.5 162.5q0 88 22.5 163t63.5 128t96 84t123 31t123 -28.5t95 -81t61.5 -126t21.5 -161.5t-22.5 -162t-62.5 -128.5t-96 -84t-126 -29.5zM336 -272q66 0 102.5 89t36.5 275q0 211 -33.5 300t-107.5 89q-66 0 -102.5 -86 t-36.5 -272q0 -109 8 -184.5t25.5 -122.5t44 -67.5t63.5 -20.5z" />
<glyph unicode="&#x2081;" horiz-adv-x="526" d="M78 -256l61 6q51 0 51 23v647l-135 14l4 19l287 53v-735q0 -20 60 -21l51 -6l4 -25h-387z" />
<glyph unicode="&#x2082;" horiz-adv-x="616" d="M16 -240q84 80 149.5 144.5t112 121t70 108.5t23.5 112q0 82 -44 122t-106 40q-59 0 -102 -31t-80 -86l-14 12q45 92 113.5 150.5t166.5 58.5q96 0 158.5 -55.5t62.5 -145.5q0 -61 -30.5 -116.5t-83 -110.5t-124 -115.5t-153.5 -132.5v-4h260q31 0 52.5 5t39 19.5 t30.5 38t30 58.5l12 24h23l-60 -258h-497z" />
<glyph unicode="&#x2083;" horiz-adv-x="577" d="M201 -319q-82 0 -132.5 28.5t-50.5 77.5q0 31 20.5 50.5t53.5 19.5q47 0 72.5 -41t15.5 -95q2 0 20.5 -4t32.5 -4q68 0 114 52.5t46 128.5q0 86 -45 136t-127 50q-57 0 -106 -23l-11 21q53 31 97.5 54.5t75 47t48 50t17.5 63.5q0 53 -34 85t-91 32q-59 0 -103 -28 t-75 -77l-14 12q41 82 109.5 138.5t162.5 56.5q86 0 142.5 -45t56.5 -113q0 -39 -17.5 -67.5t-46.5 -52t-66.5 -42t-78.5 -36.5v-4q55 8 102 -4.5t81 -38t53.5 -65.5t19.5 -87q0 -55 -28 -104.5t-75 -88t-109 -61t-130 -22.5z" />
<glyph unicode="&#x2084;" horiz-adv-x="645" d="M340 -74h-330l-4 23l400 561h79v-496h144l-23 -88h-121v-207h-145v207zM340 14v351h-4l-250 -351h254z" />
<glyph unicode="&#x2085;" horiz-adv-x="569" d="M197 -317q-98 0 -143.5 30.5t-45.5 79.5q0 33 21.5 53.5t52.5 20.5q25 0 44 -12.5t31.5 -33t16.5 -44t0 -47.5q27 -14 66 -15q29 0 57.5 12.5t51 35t36.5 54t14 70.5q0 92 -91 150.5t-257 73.5l99 383h366l-18 -134h-351l-28 -124q209 -20 303 -92t94 -183 q0 -57 -26.5 -108.5t-70.5 -89t-102.5 -59t-119.5 -21.5z" />
<glyph unicode="&#x2086;" horiz-adv-x="661" d="M332 -297q-68 0 -123 23.5t-95 64.5t-61.5 99.5t-21.5 125.5q0 104 42 194.5t117.5 158t180 109.5t229.5 52l4 -22q-86 -14 -152.5 -49t-117.5 -84t-84 -110.5t-51 -127.5l2 -2q47 35 95 53.5t99 18.5q94 0 160 -61.5t66 -170.5q0 -59 -23 -109t-61.5 -86t-92 -56.5 t-112.5 -20.5zM340 -270q57 0 95 53t38 158q0 96 -48 152.5t-114 56.5q-33 0 -63.5 -11.5t-50.5 -29.5q-4 -12 -8.5 -43t-4.5 -60q0 -123 39 -199.5t117 -76.5z" />
<glyph unicode="&#x2087;" horiz-adv-x="598" d="M494 362v5h-193q-68 0 -108.5 -3.5t-65.5 -11.5t-36 -25.5t-21 -43.5l-15 -31h-22l28 242h519l2 -19l-353 -760h-125z" />
<glyph unicode="&#x2088;" horiz-adv-x="634" d="M307 -297q-121 0 -198.5 52t-77.5 145q0 68 51 115.5t131 66.5v4q-68 35 -117 80t-49 121q0 39 17.5 80t51.5 73.5t83 53t114 20.5q117 0 188.5 -53t71.5 -142q0 -57 -49 -99t-123 -62v-4q37 -18 72 -39t61.5 -47.5t42 -59.5t15.5 -78t-20.5 -86t-58.5 -72.5t-90.5 -50 t-115.5 -18.5zM373 166q29 27 48 59.5t19 81.5q0 33 -9 66t-27.5 58.5t-45 40.5t-59.5 15q-61 0 -92 -39.5t-31 -91.5q0 -37 15.5 -64.5t43 -50t63.5 -41t75 -34.5zM324 -272q68 0 104.5 39.5t36.5 95.5q0 41 -19.5 71.5t-51.5 55t-72.5 44t-81.5 38.5q-35 -29 -57.5 -69 t-22.5 -93q0 -74 43 -128t121 -54z" />
<glyph unicode="&#x2089;" horiz-adv-x="661" d="M43 -293q86 14 152.5 48t118 83t84 109.5t51.5 126.5l-3 2q-47 -35 -95 -53.5t-97 -18.5q-96 0 -161.5 62.5t-65.5 169.5q0 61 22.5 111t62.5 87t92 57.5t113 20.5q66 0 121.5 -23.5t95 -65.5t61 -100.5t21.5 -127.5q0 -104 -42 -192.5t-117.5 -156t-180 -109.5 t-227.5 -52zM338 61q33 0 61.5 11.5t51.5 29.5q4 12 8 43t4 60q0 127 -38 203.5t-116 76.5q-59 0 -97 -54t-38 -159q0 -94 48 -152.5t116 -58.5z" />
<glyph unicode="&#x208a;" horiz-adv-x="681" d="M324 90h-304l5 35h299v303h36v-303h297l5 -35h-302v-307h-36v307z" />
<glyph unicode="&#x20ac;" horiz-adv-x="1042" d="M627 -29q-88 0 -168 34t-144.5 96.5t-108.5 151.5t-63 202h-131l6 41h119q-6 61 -6 108q0 29 2 57.5t6 57.5h-127l6 41h129q25 125 80.5 223t132 167t169 104.5t188.5 35.5q133 0 213 -45t80 -123q0 -45 -33 -76.5t-82 -31.5q-39 0 -65.5 19.5t-40 49t-13.5 63.5t15 62 q-14 10 -36 23.5t-63 13.5q-70 0 -128 -35.5t-103 -99t-74 -154t-39 -196.5h402l6 -41h-410v-70q0 -37 2 -74.5t6 -78.5h396l6 -41h-389q18 -84 52 -147.5t81 -107.5t104.5 -66.5t118.5 -22.5q94 0 164.5 37.5t128.5 123.5l22 -12q-68 -135 -169 -212t-242 -77z" />
<glyph unicode="&#x2122;" horiz-adv-x="1155" d="M528 848l25 4q25 2 33 15.5t8 76.5l8 283q-6 14 -13 18t-20 8l-32 4l-2 23h184l94 -324h8l111 324h184l-2 -23l-37 -4q-27 -6 -26 -16l8 -342q2 -27 8 -32t25 -9l30 -6l2 -23h-225v23l37 6q14 2 18 10t2 33l-4 338h-8l-141 -401h-41l-125 391h-8l-6 -285q-2 -59 5 -72.5 t36 -15.5l26 -4l2 -23h-168zM150 848l40 6q25 2 25 14v389h-12q-51 -2 -79 -34.5t-50 -85.5l-6 -19h-25l14 162h420l8 -160h-24l-6 17q-23 57 -48.5 88.5t-78.5 31.5h-17v-391q0 -4 5.5 -6t23.5 -6l35 -6l2 -23h-232z" />
<glyph unicode="&#x25fc;" horiz-adv-x="880" d="M0 881h881v-881h-881v881z" />
<glyph horiz-adv-x="978" d="M356 -27q-88 0 -150.5 17.5t-102.5 47.5t-59 66.5t-19 75.5q0 59 37.5 96t95.5 37q53 0 88 -32.5t35 -81.5q0 -33 -17.5 -65t-56.5 -48q16 -29 57 -50.5t94 -21.5q109 0 156 70t47 242v878q0 12 -16.5 21.5t-79.5 13.5l-100 10l-7 33h623l-6 -33l-101 -12 q-47 -4 -65 -15.5t-18 -23.5v-870q0 -66 -37 -128.5t-97.5 -113.5t-138.5 -82t-162 -31z" />
<glyph horiz-adv-x="980" d="M651 1796h35l277 -399h-29l-262 213h-4l-267 -213h-26zM358 -27q-88 0 -151.5 17.5t-103.5 47.5t-59 66.5t-19 75.5q0 59 37.5 97t95.5 38q53 0 88 -33.5t35 -82.5q0 -33 -17.5 -65t-54.5 -48q16 -29 56 -50.5t95 -21.5q106 0 153.5 71t47.5 241v878q0 12 -16.5 21.5 t-79.5 13.5l-100 10l-7 33h625l-6 -33l-103 -12q-45 -4 -63 -14.5t-18 -22.5v-872q0 -66 -37 -128.5t-97.5 -113.5t-138.5 -82t-162 -31z" />
<glyph horiz-adv-x="1136" d="M565 -25q-109 0 -200 37t-157.5 104.5t-103 161t-36.5 205.5q0 113 37.5 207t104 163t159 107.5t200.5 38.5q109 0 201 -37.5t158.5 -105.5t103.5 -162t37 -207t-38 -207t-105.5 -161.5t-159.5 -105.5t-201 -38zM567 33q96 0 177 33.5t140.5 94t92.5 144.5t33 182 t-34 182.5t-92.5 144.5t-139 95t-175.5 35q-96 0 -177 -35t-139 -96t-92 -145t-34 -183q0 -98 33 -182t92 -143.5t139 -93t176 -33.5z" />
<glyph horiz-adv-x="718" d="M96 33l82 8q41 4 61.5 11t20.5 26v815q0 12 -16.5 20.5t-71.5 12.5l-78 8l-6 33h545l-6 -33l-82 -8q-41 -4 -61.5 -11.5t-20.5 -25.5v-815q0 -12 16.5 -20.5t71.5 -12.5l80 -8l6 -33h-547z" />
<glyph horiz-adv-x="1222" d="M344 -23q-74 0 -133 24t-101 63.5t-63.5 92t-21.5 111.5q0 123 82.5 206t205.5 120q-72 35 -119 94.5t-47 134.5q0 53 28 100.5t73 82t102.5 54t116.5 19.5q131 0 211 -57t80 -141q0 -80 -63.5 -134.5t-155.5 -76.5q41 -20 83 -52t80.5 -70t72.5 -81t59 -86 q20 29 39.5 58.5t35 57t24.5 51t9 40.5q6 31 -24.5 48t-83.5 21l-23 2l-4 33h418l-6 -33l-27 -4q-31 -4 -56.5 -12t-50 -23.5t-51 -42t-57.5 -67.5l-123 -162q33 -72 61.5 -121t56 -78.5t57.5 -43t65 -13.5q41 0 72.5 18.5t60.5 43.5l18 -23q-25 -25 -53.5 -52.5t-62 -50 t-71.5 -37t-81 -14.5q-90 0 -154.5 54.5t-111.5 161.5q-78 -92 -169.5 -154t-197.5 -62zM506 684q47 31 65.5 78t18.5 104q0 31 -8.5 63t-25.5 57.5t-43 40.5t-58 15q-63 0 -100.5 -44t-37.5 -109q0 -68 46.5 -117t142.5 -88zM451 113q61 0 123.5 26.5t119.5 89.5 q-53 121 -141 210t-209 139q-74 -47 -104.5 -105.5t-32.5 -130.5q0 -49 18.5 -91t51 -73t78 -48t96.5 -17z" />
<glyph horiz-adv-x="1355" d="M678 -195q-135 0 -251 45.5t-199 126t-129 194.5t-44 249q2 139 56.5 262t145.5 215t213 144.5t259 50.5q125 0 232.5 -42t185.5 -115t120 -174.5t40 -219.5q-2 -96 -35 -180.5t-87.5 -145.5t-124 -97t-145.5 -36q-51 0 -85.5 12t-57 34t-32 49.5t-7.5 55.5q0 12 5 34 t11.5 46.5t13.5 48t13 37.5h-10q-84 -139 -152.5 -223t-146.5 -84q-33 0 -62.5 13.5t-53 36t-37 52t-13.5 62.5q0 49 17.5 106.5t46 115t68.5 110.5t83 96q59 59 114.5 85t102.5 26q53 0 83 -46.5t28 -111.5h8l66 176l153 -4l-108 -283l-64 -227q-20 -59 2.5 -97t93.5 -38 q49 0 97.5 27.5t87.5 77.5t63.5 119t26.5 153q2 113 -38 207t-112.5 162.5t-174 107.5t-220.5 41q-127 0 -240.5 -50.5t-199.5 -137.5t-136.5 -203.5t-52.5 -247.5q-4 -127 39 -233.5t122 -183.5t187.5 -120t235.5 -43q68 0 131 17.5t118.5 46t99.5 68.5t75 85l18 -26 q-66 -98 -182.5 -162t-261.5 -64zM543 199q20 0 46.5 20.5t56.5 56t61.5 85t62.5 108.5q12 25 27.5 62.5t15.5 50.5q-4 23 -16.5 46t-30.5 43.5t-39.5 33t-44.5 12.5q-18 0 -30.5 -6t-26.5 -19q-25 -23 -51.5 -71t-49 -105t-37 -116.5t-14.5 -104.5q0 -47 20.5 -71.5 t49.5 -24.5z" />
<glyph horiz-adv-x="1019" d="M279 375l-41 -117q-25 -70 -36.5 -111t-7 -64.5t28 -32.5t66.5 -13l35 -4l6 -33h-344l6 33l28 4q35 4 57.5 13t42 39t42 86t57.5 157l176 493l-12 47q18 6 40.5 17.5t44 27t40 33t27.5 35.5h30l273 -795q16 -47 30.5 -76.5t27.5 -46t30.5 -22.5t40.5 -8l45 -4l4 -33h-481 l6 33l45 4q53 4 59 32.5t-18 106.5l-66 199h-282zM547 414q-10 27 -19 57q-8 27 -19 58.5t-22 66.5l-61 184h-6q-35 -102 -64 -184q-12 -35 -23 -66.5t-22 -58.5q-10 -31 -20 -57h256z" />
<glyph horiz-adv-x="976" d="M51 33l60 8q35 4 48 11t13 16v827q0 10 -12.5 15t-59.5 10l-49 8l-4 33h432q109 0 184.5 -15.5t123 -43.5t67.5 -67.5t20 -89.5q0 -86 -71.5 -141t-202.5 -76v-6q152 -10 235 -78.5t83 -173.5q0 -123 -102.5 -196.5t-323.5 -73.5h-447zM489 37q98 4 157 66.5t59 158.5 q0 111 -75 172.5t-186 61.5h-65v-437l86 -22h24zM434 532q106 2 167 51.5t61 141.5q0 100 -60.5 149.5t-167.5 49.5q-2 0 -10 -1t-18 -1h-27v-392z" />
<glyph horiz-adv-x="1079" d="M606 -23q-123 0 -225 36t-175 101.5t-113 155.5t-40 201q0 109 39 202t111.5 161.5t177 107.5t233.5 39q76 0 143.5 -17.5t104.5 -35.5l113 35l6 -324h-41l-127 256q-70 45 -190 45q-82 0 -146.5 -35t-108.5 -95t-66.5 -144t-22.5 -183q0 -106 25.5 -192t70.5 -147.5 t107.5 -94.5t135.5 -33q104 0 171 45t118 127l58 134h43l-45 -289h-68q-23 -8 -55.5 -18.5t-71.5 -18.5t-81 -13.5t-81 -5.5z" />
<glyph horiz-adv-x="1097" d="M51 33l60 8q35 4 48 11t13 16v827q0 10 -12.5 15t-59.5 10l-49 8l-4 33h445q135 2 237 -31t173 -94.5t106.5 -149.5t35.5 -194q0 -100 -39.5 -189.5t-114.5 -157t-181.5 -106.5t-237.5 -39h-426zM483 39q82 0 145.5 33.5t106.5 91t65.5 133.5t22.5 162q0 211 -92 337 t-280 126h-72v-856z" />
<glyph horiz-adv-x="999" d="M51 33l58 8q63 8 63 27v827q0 10 -12.5 15t-59.5 10l-49 8l-4 33h825l13 -318h-43l-17 51q-18 63 -42.5 108.5t-62.5 72t-91.5 38t-126.5 11.5l-123 -2v-416l76 2q90 4 135 26.5t63 86.5l17 53h35l-39 -375l-33 2l-6 49q-4 33 -13.5 55.5t-30 37t-54 20.5t-87.5 8l-63 4 v-434l145 -4q156 2 233 60.5t113 172.5l17 49h45l-39 -319h-848z" />
<glyph horiz-adv-x="933" d="M51 33l64 8q35 4 46 11t11 16v827q0 10 -10 15t-58 10l-53 8l-4 33h813l10 -318h-43l-14 51q-18 66 -43 110t-61.5 70.5t-89 38t-127.5 11.5l-113 -2v-426l70 2q88 4 132 25.5t64 86.5l17 52h34l-39 -371h-32l-7 49q-4 33 -13 55.5t-29.5 36.5t-54.5 21.5t-87 9.5h-55 v-397q0 -10 12 -15.5t60 -9.5l75 -8l6 -33h-487z" />
<glyph horiz-adv-x="1126" d="M596 -25q-125 0 -225.5 37t-171 103.5t-108.5 156.5t-38 199q0 111 39 204t110.5 161.5t176 107.5t237.5 39q74 0 143.5 -17.5t106.5 -33.5l107 31l4 -324h-43l-123 254q-33 23 -84 36t-113 13q-82 0 -144 -35t-105 -96t-64.5 -145t-21.5 -183q0 -115 26.5 -202.5 t72.5 -147t104.5 -89.5t123.5 -30q53 0 97.5 12.5t66.5 26.5v320q0 10 -19.5 15t-66.5 9l-61 11l-2 30h475l-6 -30l-68 -11q-35 -4 -45 -10t-10 -16v-279l90 8l2 -20q-43 -20 -100.5 -40t-120 -34t-125 -22.5t-117.5 -8.5z" />
<glyph horiz-adv-x="1181" d="M51 33l60 8q35 4 48 11t13 16v827q0 10 -12.5 15t-59.5 10l-49 8l-6 33h461l-4 -33l-62 -8q-35 -4 -48 -11.5t-13 -15.5v-385h422v387q0 10 -11.5 15t-58.5 10l-51 8l-4 33h461l-7 -33l-61 -8q-35 -4 -48 -11.5t-13 -15.5v-827q0 -10 13 -15.5t60 -9.5l49 -8l5 -33h-461 l6 33l61 8q59 8 60 27v399h-422v-401q0 -10 12 -15.5t60 -9.5l49 -8l6 -33h-461z" />
<glyph horiz-adv-x="589" d="M63 33l68 8q61 8 62 27v827q0 10 -12.5 15t-59.5 10l-58 8l-4 33h471l-4 -33l-67 -8q-35 -4 -47.5 -11.5t-12.5 -15.5v-827q0 -10 11.5 -15.5t58.5 -9.5l57 -8l4 -33h-473z" />
<glyph horiz-adv-x="567" d="M31 -268q-72 0 -117 33.5t-45 84.5q0 43 28.5 72t73.5 29q33 0 57.5 -16.5t37 -43t12.5 -58.5t-19 -64q66 4 96.5 86t30.5 229v811q0 10 -12 15t-59 10l-60 8l-4 33h471l-4 -33l-65 -8q-35 -4 -47.5 -11.5t-12.5 -15.5v-787q0 -59 -31.5 -125.5t-84 -122t-116.5 -91 t-130 -35.5z" />
<glyph horiz-adv-x="1087" d="M51 33l64 8q35 4 46 11t11 16v827q0 10 -10 15t-58 10l-53 8l-4 33h467l-4 -33l-70 -8q-35 -4 -48 -11.5t-13 -15.5v-449l231 234q72 74 109 119t42 71.5t-18.5 39t-68.5 16.5l-41 4l-4 33h415l-4 -33l-39 -4q-41 -6 -71.5 -18.5t-65.5 -39t-80 -69.5t-110 -109l-56 -53 l300 -477q25 -41 42 -63.5t32.5 -35t30.5 -16.5t36 -6l31 -4l4 -33h-455l4 33l33 4q25 2 36 9t10 23.5t-14.5 44t-39.5 72.5l-187 308l-102 -101v-327q0 -10 12 -15.5t60 -9.5l57 -8l4 -33h-467z" />
<glyph horiz-adv-x="917" d="M51 33l64 8q35 4 46 11t11 16v827q0 10 -10 15t-58 10l-53 8l-4 33h481l-6 -33l-82 -8q-29 -4 -45 -11.5t-16 -15.5v-852l86 -4q70 0 121 14.5t89 46t68.5 80.5t61.5 119l16 51h43l-45 -348h-774z" />
<glyph horiz-adv-x="1335" d="M35 33l45 6q31 2 50.5 9t30.5 21.5t15 39t4 61.5l19 709q-29 41 -84 43l-58 6l-4 33h371l235 -691h9l256 691h366l-4 -33l-80 -8q-59 -6 -59 -27l18 -776q0 -47 13.5 -59.5t60.5 -16.5l53 -8l6 -33h-471l7 33l73 8q35 4 45.5 18.5t8.5 59.5l-17 758h-8l-324 -867h-65 l-295 842q-2 4 -8 8t-6 6l-15 -704q-2 -74 18.5 -95.5t92.5 -27.5l43 -6l4 -33h-350z" />
<glyph horiz-adv-x="1130" d="M242 797h-9v-631q0 -72 25 -97.5t90 -29.5l43 -6l4 -33h-344l4 33l39 6q59 4 79 31.5t20 103.5l4 639q-23 43 -57 71.5t-74 35.5l-33 8l-4 33h352l532 -670h9v502q0 72 -22.5 97t-92.5 32l-43 6l-4 33h346l-4 -33l-43 -6q-57 -4 -76.5 -33t-19.5 -105l-7 -794h-63z" />
<glyph horiz-adv-x="1157" d="M573 -23q-115 0 -210 36t-164.5 102.5t-107.5 158t-38 201.5q0 102 42 194.5t115 161t170 109.5t206 41q113 0 208 -37t163.5 -102.5t106.5 -158.5t38 -204q0 -102 -42 -193t-114 -160t-168 -109t-205 -40zM584 18q139 0 217 114t78 343q0 223 -84 344t-222 121 q-139 0 -216.5 -114.5t-77.5 -344.5q0 -223 83 -343t222 -120z" />
<glyph horiz-adv-x="958" d="M45 33l66 8q35 4 49 11t14 16v827q0 10 -13.5 15t-60.5 10l-55 8l-6 33h465q205 0 306 -66t101 -184q0 -66 -30.5 -118t-87 -88t-134 -55.5t-170.5 -19.5q-27 0 -58.5 1t-51.5 5v-370q0 -10 12 -15.5t60 -9.5l73 -8l6 -33h-491zM487 465q92 0 148.5 61.5t56.5 163.5 q0 111 -55 172.5t-172 61.5q-2 0 -15.5 -1t-29.5 -1h-41v-445q18 -6 47.5 -9t60.5 -3z" />
<glyph horiz-adv-x="1155" d="M934 -276q-74 0 -134.5 11t-111.5 40.5t-93 79t-77 127.5q-104 8 -190 49t-146.5 105.5t-94.5 151.5t-34 187t42 191.5t115 161t170 109.5t206 40q117 0 212 -38t162.5 -104.5t104.5 -157.5t37 -198q0 -78 -25.5 -150.5t-73 -134t-112 -107.5t-139.5 -73 q37 -80 76.5 -129t91 -74.5t114 -29.5t144.5 6l6 -31q-37 -12 -107.5 -22t-142.5 -10zM584 16q139 0 217 115t78 344q0 221 -84 343t-222 122q-139 0 -216.5 -115.5t-77.5 -345.5q0 -223 83 -343t222 -120z" />
<glyph horiz-adv-x="1067" d="M45 33l66 8q61 8 61 27v827q0 10 -12.5 15t-59.5 10l-55 8l-4 33h475q203 2 301 -64t98 -184q0 -90 -63.5 -154.5t-175.5 -89.5l196 -303q47 -74 77 -98.5t77 -30.5l27 -4l4 -33h-324l-28 49l-230 406q-14 4 -48 8t-48 10v-407q0 -18 72 -25l61 -8l4 -33h-477zM477 496 q102 4 160.5 58t58.5 155q0 102 -62.5 159.5t-182.5 55.5q-4 -2 -11 -2h-24h-37v-412q6 -2 19.5 -4t27.5 -4t28.5 -4t22.5 -2z" />
<glyph horiz-adv-x="833" d="M399 -20q-90 0 -169.5 13t-143.5 36l-18 264h38l68 -152q41 -63 100.5 -93t135.5 -30q98 0 153 51.5t55 129.5q0 47 -18 80.5t-51 58t-77 43t-95 35.5q-57 18 -109.5 42.5t-91.5 57.5t-62.5 77t-23.5 103q0 57 23.5 109.5t67.5 91.5t106.5 61.5t138.5 22.5 q66 0 125 -12.5t100 -22.5l70 21l2 -287h-35l-113 219q-29 16 -68.5 29.5t-88.5 13.5q-78 0 -130 -44t-52 -105q0 -41 17 -71t48 -51.5t73 -39t93 -33.5q63 -20 118.5 -46t96.5 -61.5t64.5 -85t23.5 -114.5q0 -59 -26.5 -115.5t-76 -99.5t-118 -69.5t-150.5 -26.5z" />
<glyph horiz-adv-x="1046" d="M287 33l75 8q59 6 60 27v856h-41q-53 -2 -95 -23.5t-75 -53.5t-56.5 -71t-41.5 -76l-23 -55h-39l41 316h877l24 -316h-39l-18 55q-20 45 -45 85t-56.5 71t-71.5 48.5t-91 19.5h-43v-858q0 -10 12 -15.5t59 -9.5l64 -8l4 -33h-485z" />
<glyph horiz-adv-x="1097" d="M563 -29q-201 0 -300 82t-99 258v584q0 10 -11.5 15t-58.5 10l-55 8l-6 33h471l-4 -33l-68 -8q-35 -4 -48 -11.5t-13 -15.5v-535q0 -154 67.5 -225.5t198.5 -71.5t197.5 77t66.5 237v418q0 72 -22.5 98.5t-90.5 30.5l-43 6l-6 33h348l-4 -31l-45 -6q-53 -4 -74.5 -33 t-21.5 -107q-2 -117 -2 -211q0 -41 -1 -78.5t-1 -67.5v-47v-18q0 -186 -89 -288.5t-286 -102.5z" />
<glyph horiz-adv-x="1021" d="M172 776q-20 47 -34.5 76t-28 43t-28.5 19.5t-38 7.5l-47 6l-4 33h475l-6 -33l-51 -4q-31 -2 -46.5 -7.5t-18.5 -18.5t5 -37.5t25 -65.5l213 -572h12l166 459q29 76 43 122t10 71.5t-28.5 36t-71.5 14.5l-33 2l-4 33h346l-4 -33l-29 -4q-33 -4 -54 -12.5t-40.5 -35 t-42 -79t-55.5 -140.5l-254 -667h-72z" />
<glyph horiz-adv-x="1540" d="M158 776q-18 45 -30.5 73t-26 43t-30 21.5t-38.5 8.5l-43 6l-4 33h473l-4 -33l-52 -4q-57 -4 -63 -24.5t16 -84.5l213 -579h9l180 477l-23 63q-16 41 -29.5 68.5t-26.5 44t-29.5 24t-37.5 9.5l-49 6l-6 33h481l-4 -33l-47 -4q-55 -4 -63.5 -24.5t14.5 -90.5l197 -567h12 l153 434q27 76 41.5 122t10.5 72.5t-28 38t-71 15.5l-39 4l-4 33h346l-4 -33l-26 -4q-35 -6 -56.5 -15.5t-40 -36t-39 -77t-51.5 -133.5l-249 -680h-68l-236 667h-10l-254 -667h-65z" />
<glyph horiz-adv-x="1044" d="M8 33l47 6q31 2 55.5 14.5t50 38t57.5 65.5t75 99l143 188l-229 334q-27 39 -43.5 66.5t-30.5 44t-29.5 24t-35.5 9.5l-52 6l-4 33h484l-2 -33l-50 -4q-49 -4 -53 -28t45 -99l137 -211h2l97 131q43 61 65.5 99t22.5 59.5t-21.5 32t-62.5 16.5l-41 4l-4 33h373l-5 -33 l-41 -6q-33 -4 -58.5 -14.5t-52 -34t-58 -64.5t-76.5 -104l-117 -148l139 -205q61 -90 137 -202q20 -33 35 -53.5t27 -34t25.5 -18.5t29.5 -7l43 -4l6 -33h-477l4 33l49 4q51 4 57.5 23.5t-28.5 70.5l-184 283h-4q-10 -12 -19 -27q-8 -12 -19 -26.5t-22 -30.5 q-27 -37 -59 -86q-43 -59 -63.5 -96t-20.5 -59.5t20.5 -34t57.5 -17.5l43 -4l4 -33h-373z" />
<glyph horiz-adv-x="993" d="M260 33l76 8q35 4 48 11t13 16v350l-227 387q-37 63 -61.5 88t-69.5 29l-35 6l-4 33h471l-4 -33l-33 -4q-66 -6 -73 -32t26 -81l182 -334h9l124 223q35 66 52.5 107t16.5 65.5t-22.5 35t-64.5 16.5l-37 4l-4 33h350l-6 -33l-37 -6q-27 -4 -48 -14.5t-44.5 -35 t-51.5 -68.5t-67 -114l-137 -250v-374q0 -10 12.5 -15.5t59.5 -9.5l61 -8l4 -33h-483z" />
<glyph horiz-adv-x="954" d="M61 31l578 884v5l-150 2q-154 0 -229.5 -57.5t-114.5 -170.5l-14 -49h-37l15 316h772v-33l-590 -883v-6h151q90 -2 153.5 12.5t110 46t78 81.5t58.5 124l16 49h43l-45 -352h-795v31z" />
<glyph horiz-adv-x="1667" d="M1231 -20q-90 0 -170 13t-141 36l-19 264h37l68 -152q82 -123 237 -123q98 0 153.5 51.5t55.5 129.5q0 47 -18.5 80.5t-51 58t-76.5 43t-96 35.5q-57 18 -109 42.5t-91 57.5t-62.5 77t-23.5 103q0 57 23.5 109.5t67.5 91.5t106.5 61.5t138.5 22.5q66 0 124 -12.5 t99 -22.5l69 21l4 -287h-34l-113 219q-29 16 -69 29.5t-89 13.5q-78 0 -130 -44t-52 -105q0 -41 17.5 -71t48 -51.5t72.5 -39t93 -33.5q63 -20 119 -46t96.5 -61.5t64.5 -85t24 -114.5q0 -59 -27 -115.5t-76 -99.5t-117.5 -69.5t-152.5 -26.5zM399 -20q-90 0 -169.5 13 t-143.5 36l-18 264h38l68 -152q41 -63 100.5 -93t135.5 -30q98 0 153 51.5t55 129.5q0 47 -18 80.5t-51 58t-77 43t-95 35.5q-57 18 -109.5 42.5t-91.5 57.5t-62.5 77t-23.5 103q0 57 23.5 109.5t67.5 91.5t106.5 61.5t138.5 22.5q66 0 125 -12.5t100 -22.5l70 21l2 -287 h-35l-113 219q-29 16 -68.5 29.5t-88.5 13.5q-78 0 -130 -44t-52 -105q0 -41 17 -71t48 -51.5t73 -39t93 -33.5q63 -20 118.5 -46t96.5 -61.5t64.5 -85t23.5 -114.5q0 -59 -26.5 -115.5t-76 -99.5t-118 -69.5t-150.5 -26.5z" />
<glyph horiz-adv-x="1019" d="M279 375l-41 -117q-25 -70 -36.5 -111t-7 -64.5t28 -32.5t66.5 -13l35 -4l6 -33h-344l6 33l28 4q35 4 57.5 13t42 39t42 86t57.5 157l176 493l-12 47q18 6 40.5 17.5t44 27t40 33t27.5 35.5h30l273 -795q16 -47 30.5 -76.5t27.5 -46t30.5 -22.5t40.5 -8l45 -4l4 -33h-481 l6 33l45 4q53 4 59 32.5t-18 106.5l-66 199h-282zM547 414q-10 27 -19 57q-8 27 -19 58.5t-22 66.5l-61 184h-6q-35 -102 -64 -184q-12 -35 -23 -66.5t-22 -58.5q-10 -31 -20 -57h256zM150 1450h221l196 -381h-26z" />
<glyph horiz-adv-x="1019" d="M279 375l-41 -117q-25 -70 -36.5 -111t-7 -64.5t28 -32.5t66.5 -13l35 -4l6 -33h-344l6 33l28 4q35 4 57.5 13t42 39t42 86t57.5 157l176 493l-12 47q18 6 40.5 17.5t44 27t40 33t27.5 35.5h30l273 -795q16 -47 30.5 -76.5t27.5 -46t30.5 -22.5t40.5 -8l45 -4l4 -33h-481 l6 33l45 4q53 4 59 32.5t-18 106.5l-66 199h-282zM547 414q-10 27 -19 57q-8 27 -19 58.5t-22 66.5l-61 184h-6q-35 -102 -64 -184q-12 -35 -23 -66.5t-22 -58.5q-10 -31 -20 -57h256zM614 1450h224l-392 -381h-28z" />
<glyph horiz-adv-x="1019" d="M279 375l-41 -117q-25 -70 -36.5 -111t-7 -64.5t28 -32.5t66.5 -13l35 -4l6 -33h-344l6 33l28 4q35 4 57.5 13t42 39t42 86t57.5 157l176 493l-12 47q18 6 40.5 17.5t44 27t40 33t27.5 35.5h30l273 -795q16 -47 30.5 -76.5t27.5 -46t30.5 -22.5t40.5 -8l45 -4l4 -33h-481 l6 33l45 4q53 4 59 32.5t-18 106.5l-66 199h-282zM547 414q-10 27 -19 57q-8 27 -19 58.5t-22 66.5l-61 184h-6q-35 -102 -64 -184q-12 -35 -23 -66.5t-22 -58.5q-10 -31 -20 -57h256zM502 1452h35l276 -399h-29l-262 213h-4l-266 -213h-27z" />
<glyph horiz-adv-x="1019" d="M279 375l-41 -117q-25 -70 -36.5 -111t-7 -64.5t28 -32.5t66.5 -13l35 -4l6 -33h-344l6 33l28 4q35 4 57.5 13t42 39t42 86t57.5 157l176 493l-12 47q18 6 40.5 17.5t44 27t40 33t27.5 35.5h30l273 -795q16 -47 30.5 -76.5t27.5 -46t30.5 -22.5t40.5 -8l45 -4l4 -33h-481 l6 33l45 4q53 4 59 32.5t-18 106.5l-66 199h-282zM547 414q-10 27 -19 57q-8 27 -19 58.5t-22 66.5l-61 184h-6q-35 -102 -64 -184q-12 -35 -23 -66.5t-22 -58.5q-10 -31 -20 -57h256zM670 1083q-47 0 -97.5 20.5t-97.5 46.5t-89 46.5t-73 20.5q-35 0 -58.5 -20.5 t-35.5 -96.5h-31q16 133 53.5 188t118.5 55q45 0 94.5 -20t96.5 -46t89 -46.5t73 -20.5q35 0 59.5 19.5t38.5 95.5h29q-14 -131 -52 -186.5t-118 -55.5z" />
<glyph horiz-adv-x="1019" d="M279 375l-41 -117q-25 -70 -36.5 -111t-7 -64.5t28 -32.5t66.5 -13l35 -4l6 -33h-344l6 33l28 4q35 4 57.5 13t42 39t42 86t57.5 157l176 493l-12 47q18 6 40.5 17.5t44 27t40 33t27.5 35.5h30l273 -795q16 -47 30.5 -76.5t27.5 -46t30.5 -22.5t40.5 -8l45 -4l4 -33h-481 l6 33l45 4q53 4 59 32.5t-18 106.5l-66 199h-282zM547 414q-10 27 -19 57q-8 27 -19 58.5t-22 66.5l-61 184h-6q-35 -102 -64 -184q-12 -35 -23 -66.5t-22 -58.5q-10 -31 -20 -57h256zM707 1108q-59 0 -89 39t-30 80q0 20 7 42.5t22.5 41t38 30t51.5 11.5q31 0 52 -11.5 t36.5 -30t22.5 -41t7 -42.5q0 -41 -29.5 -80t-88.5 -39zM311 1108q-59 0 -88.5 39t-29.5 80q0 20 7 42.5t22.5 41t38 30t50.5 11.5q31 0 52.5 -11.5t37 -30t22.5 -41t7 -42.5q0 -41 -30 -80t-89 -39z" />
<glyph horiz-adv-x="1019" d="M279 375l-41 -117q-25 -70 -36.5 -111t-7 -64.5t28 -32.5t66.5 -13l35 -4l6 -33h-344l6 33l28 4q35 4 57.5 13t42 39t42 86t57.5 157l213 598q-55 20 -85 67t-30 107q0 74 50.5 130t136.5 56t135 -56t49 -130q0 -57 -27.5 -102.5t-78.5 -65.5l127 -373q55 -164 129 -373 q16 -47 30.5 -76.5t27.5 -46t30.5 -22.5t40.5 -8l45 -4l4 -33h-481l6 33l45 4q53 4 59 32.5t-18 106.5l-66 199h-282zM504 946q70 0 109.5 46t39.5 112q0 61 -40 108.5t-109 47.5q-72 0 -112 -47.5t-40 -108.5q0 -66 40 -112t112 -46zM549 414l-121 366h-10l-127 -366h258z " />
<glyph horiz-adv-x="1007" d="M535 1657h223l-391 -381h-29zM279 375l-41 -117q-25 -70 -36.5 -111t-7 -64.5t28 -32.5t66.5 -13l35 -4l6 -33h-344l6 33l28 4q35 4 57.5 13t42 39t42 86t57.5 157l213 598q-55 20 -85 67t-30 107q0 74 50.5 130t136.5 56t135 -56t49 -130q0 -57 -27.5 -102.5 t-78.5 -65.5l127 -373q55 -164 129 -373q16 -47 30.5 -76.5t27.5 -46t30.5 -22.5t40.5 -8l45 -4l4 -33h-481l6 33l45 4q53 4 59 32.5t-18 106.5l-66 199h-282zM504 946q70 0 109.5 46t39.5 112q0 61 -40 108.5t-109 47.5q-72 0 -112 -47.5t-40 -108.5q0 -66 40 -112t112 -46 zM549 414l-121 366h-10l-127 -366h258z" />
<glyph horiz-adv-x="1021" d="M279 375l-41 -117q-25 -70 -36.5 -111t-7 -64.5t28 -32.5t66.5 -13l35 -4l6 -33h-344l6 33l28 4q35 4 57.5 13t42 39t42 86t57.5 157l176 493l-12 47q18 6 40.5 17.5t44 27t40 33t27.5 35.5h30l273 -795q16 -47 30.5 -76.5t27.5 -46t30.5 -22.5t40.5 -8l45 -4l4 -33h-481 l6 33l45 4q53 4 59 32.5t-18 106.5l-66 199h-282zM547 414q-10 27 -19 57q-8 27 -19 58.5t-22 66.5l-61 184h-6q-35 -102 -64 -184q-12 -35 -23 -66.5t-22 -58.5q-10 -31 -20 -57h256zM238 1161h524l-12 -80h-529z" />
<glyph horiz-adv-x="1021" d="M279 375l-41 -117q-25 -70 -36.5 -111t-7 -64.5t28 -32.5t66.5 -13l35 -4l6 -33h-344l6 33l28 4q35 4 57.5 13t42 39t42 86t57.5 157l176 493l-12 47q18 6 40.5 17.5t44 27t40 33t27.5 35.5h30l273 -795q16 -47 30.5 -76.5t27.5 -46t30.5 -22.5t40.5 -8l45 -4l4 -33h-481 l6 33l45 4q53 4 59 32.5t-18 106.5l-66 199h-282zM504 1030q-66 0 -112 31t-77.5 82t-52 119.5t-35.5 144.5h27q41 -119 103.5 -182.5t150.5 -63.5q86 0 148.5 64.5t103.5 181.5h26q-14 -76 -34.5 -144.5t-53 -119.5t-79.5 -82t-115 -31zM547 414q-10 27 -19 57 q-8 27 -19 58.5t-22 66.5l-61 184h-6q-35 -102 -64 -184q-12 -35 -23 -66.5t-22 -58.5q-10 -31 -20 -57h256z" />
<glyph horiz-adv-x="1021" d="M809 -479q-84 0 -139.5 49t-55.5 135q0 53 26 100.5t65.5 85t88 65.5t93.5 44h-352l6 31l45 6q53 4 59 32.5t-20 106.5l-66 201h-280l-41 -121q-25 -68 -36.5 -109t-7 -64.5t28 -32.5t66.5 -13l35 -6l4 -31h-342l6 31l28 4q35 4 56.5 14t42 39t43 86t57.5 158l176 491 l-12 49q18 6 43 17.5t49.5 27t44 33t27.5 35.5h18l275 -795q16 -47 29.5 -76.5t27.5 -46t30.5 -22.5t39.5 -8l47 -6l4 -31q-123 -20 -196.5 -83.5t-73.5 -158.5q0 -63 36.5 -99t100.5 -36q41 0 67.5 16.5t53.5 41.5l10 -13q-8 -23 -26.5 -48.5t-45 -48t-61.5 -36.5t-74 -14z M545 414l-119 366h-6l-129 -366h254z" />
<glyph horiz-adv-x="1376" d="M309 387l-69 -131q-61 -119 -56.5 -164t70.5 -53l43 -6l4 -33h-362l6 33l51 6q23 4 44 15.5t46 39t56.5 76.5t74.5 131l293 547q18 35 10 51t-78 23l-61 6l-6 33h874l13 -318h-41l-13 51q-18 63 -42.5 108.5t-60.5 72t-88 38t-128 11.5l-92 -2v-416l51 2q88 4 128 26.5 t58 86.5l17 53h34l-41 -373h-32l-4 49q-4 33 -11.5 55.5t-26 37t-50 21.5t-82.5 9l-41 2v-434l114 -4q80 0 135.5 15.5t94.5 45t64.5 72.5t45.5 100l15 49h45l-37 -319h-821l4 33l75 8q35 4 49.5 11t14.5 16v319h-287zM596 424v485h-8l-258 -485h266z" />
<glyph horiz-adv-x="1378" d="M891 1407h223l-391 -381h-29zM309 387l-69 -131q-61 -119 -56.5 -164t70.5 -53l43 -6l4 -33h-362l6 33l51 6q23 4 44 15.5t46 39t56.5 76.5t74.5 131l293 547q18 35 10 51t-78 23l-61 6l-6 33h874l13 -318h-41l-13 51q-18 63 -42.5 108.5t-60.5 72t-88 38t-128 11.5 l-92 -2v-416l51 2q88 4 128 26.5t58 86.5l17 53h34l-41 -373h-32l-4 49q-4 33 -11.5 55.5t-26 37t-50 21.5t-82.5 9l-41 2v-434l114 -4q80 0 135.5 15.5t94.5 45t64.5 72.5t45.5 100l15 49h45l-37 -319h-821l4 33l75 8q35 4 49.5 11t14.5 16v319h-287zM596 424v485h-8 l-258 -485h266z" />
<glyph horiz-adv-x="1079" d="M584 -23q-119 2 -217.5 40t-168 102.5t-107.5 153.5t-38 198t39 202t111.5 161.5t177 107.5t233.5 39q76 0 143.5 -17.5t104.5 -35.5l113 35l6 -324h-41l-127 256q-70 45 -190 45q-82 0 -146.5 -35t-108.5 -95t-66.5 -144t-22.5 -183q0 -106 25.5 -192t70.5 -147.5 t107.5 -94.5t135.5 -33q104 0 171 45t118 127l58 134h43l-45 -289h-68q-41 -16 -115.5 -33.5t-150.5 -22.5l-99 -106q66 8 122.5 0t98.5 -29.5t65.5 -56.5t23.5 -78q0 -63 -38 -108t-99.5 -75t-140.5 -48.5t-159 -28.5l-10 25q150 27 233 67.5t83 114.5q0 59 -51.5 86 t-125.5 27q-72 0 -139 -23v25l191 208v0z" />
<glyph horiz-adv-x="1079" d="M698 1403h224l-392 -381h-28zM606 -23q-123 0 -225 36t-175 101.5t-113 155.5t-40 201q0 109 39 202t111.5 161.5t177 107.5t233.5 39q76 0 143.5 -17.5t104.5 -35.5l113 35l6 -324h-41l-127 256q-70 45 -190 45q-82 0 -146.5 -35t-108.5 -95t-66.5 -144t-22.5 -183 q0 -106 25.5 -192t70.5 -147.5t107.5 -94.5t135.5 -33q104 0 171 45t118 127l58 134h43l-45 -289h-68q-23 -8 -55.5 -18.5t-71.5 -18.5t-81 -13.5t-81 -5.5z" />
<glyph horiz-adv-x="1079" d="M567 1407h35l277 -399h-29l-262 213h-4l-267 -213h-26zM606 -23q-123 0 -225 36t-175 101.5t-113 155.5t-40 201q0 109 39 202t111.5 161.5t177 107.5t233.5 39q76 0 143.5 -17.5t104.5 -35.5l113 35l6 -324h-41l-127 256q-70 45 -190 45q-82 0 -146.5 -35t-108.5 -95 t-66.5 -144t-22.5 -183q0 -106 25.5 -192t70.5 -147.5t107.5 -94.5t135.5 -33q104 0 171 45t118 127l58 134h43l-45 -289h-68q-23 -8 -55.5 -18.5t-71.5 -18.5t-81 -13.5t-81 -5.5z" />
<glyph horiz-adv-x="1079" d="M606 -23q-123 0 -225 36t-175 101.5t-113 155.5t-40 201q0 109 39 202t111.5 161.5t177 107.5t233.5 39q76 0 143.5 -17.5t104.5 -35.5l113 35l6 -324h-41l-127 256q-70 45 -190 45q-82 0 -146.5 -35t-108.5 -95t-66.5 -144t-22.5 -183q0 -106 25.5 -192t70.5 -147.5 t107.5 -94.5t135.5 -33q104 0 171 45t118 127l58 134h43l-45 -289h-68q-23 -8 -55.5 -18.5t-71.5 -18.5t-81 -13.5t-81 -5.5zM600 1081q-61 0 -93 41t-32 86t32 87t93 42t92 -42t31 -87t-31 -86t-92 -41z" />
<glyph horiz-adv-x="1079" d="M317 1434h27l266 -213h4l265 213h26l-276 -400h-35zM606 -23q-123 0 -225 36t-175 101.5t-113 155.5t-40 201q0 109 39 202t111.5 161.5t177 107.5t233.5 39q76 0 143.5 -17.5t104.5 -35.5l113 35l6 -324h-41l-127 256q-70 45 -190 45q-82 0 -146.5 -35t-108.5 -95 t-66.5 -144t-22.5 -183q0 -106 25.5 -192t70.5 -147.5t107.5 -94.5t135.5 -33q104 0 171 45t118 127l58 134h43l-45 -289h-68q-23 -8 -55.5 -18.5t-71.5 -18.5t-81 -13.5t-81 -5.5z" />
<glyph horiz-adv-x="1105" d="M51 33l60 8q35 4 48 11t13 16v827q0 10 -12.5 15t-59.5 10l-49 8l-4 33h445q135 2 237 -31t173 -94.5t106.5 -149.5t35.5 -194q0 -100 -39.5 -189.5t-114.5 -157t-181.5 -106.5t-237.5 -39h-426zM483 39q82 0 145.5 33.5t106.5 91t65.5 133.5t22.5 162q0 211 -92 337 t-280 126h-72v-856zM211 1438h27l266 -213h4l264 213h27l-277 -400h-35z" />
<glyph horiz-adv-x="1105" d="M43 463l4 41h137v391q0 18 -71 25l-58 8l-4 33h451q135 2 237.5 -31t172 -94.5t105.5 -149.5t36 -194q0 -100 -40 -189.5t-114 -157t-179.5 -106.5t-236.5 -39h-434l6 33l68 8q35 4 48 11t13 16v395h-141zM588 504l4 -41h-203v-397l105 -27q82 0 144 33.5t105 91 t64.5 133.5t21.5 162q0 211 -90 337t-276 126h-74v-418h199z" />
<glyph horiz-adv-x="1105" d="M43 463l4 41h137v391q0 18 -71 25l-58 8l-4 33h451q135 2 237.5 -31t172 -94.5t105.5 -149.5t36 -194q0 -100 -40 -189.5t-114 -157t-179.5 -106.5t-236.5 -39h-434l6 33l68 8q35 4 48 11t13 16v395h-141zM588 504l4 -41h-203v-397l105 -27q82 0 144 33.5t105 91 t64.5 133.5t21.5 162q0 211 -90 337t-276 126h-74v-418h199z" />
<glyph horiz-adv-x="999" d="M51 33l58 8q63 8 63 27v827q0 10 -12.5 15t-59.5 10l-49 8l-4 33h825l13 -318h-43l-17 51q-18 63 -42.5 108.5t-62.5 72t-91.5 38t-126.5 11.5l-123 -2v-416l76 2q90 4 135 26.5t63 86.5l17 53h35l-39 -375l-33 2l-6 49q-4 33 -13.5 55.5t-30 37t-54 20.5t-87.5 8l-63 4 v-434l145 -4q156 2 233 60.5t113 172.5l17 49h45l-39 -319h-848zM172 1450h221l197 -381h-27z" />
<glyph horiz-adv-x="999" d="M51 33l58 8q63 8 63 27v827q0 10 -12.5 15t-59.5 10l-49 8l-4 33h825l13 -318h-43l-17 51q-18 63 -42.5 108.5t-62.5 72t-91.5 38t-126.5 11.5l-123 -2v-416l76 2q90 4 135 26.5t63 86.5l17 53h35l-39 -375l-33 2l-6 49q-4 33 -13.5 55.5t-30 37t-54 20.5t-87.5 8l-63 4 v-434l145 -4q156 2 233 60.5t113 172.5l17 49h45l-39 -319h-848zM625 1444h223l-391 -381h-29z" />
<glyph horiz-adv-x="999" d="M51 33l58 8q63 8 63 27v827q0 10 -12.5 15t-59.5 10l-49 8l-4 33h825l13 -318h-43l-17 51q-18 63 -42.5 108.5t-62.5 72t-91.5 38t-126.5 11.5l-123 -2v-416l76 2q90 4 135 26.5t63 86.5l17 53h35l-39 -375l-33 2l-6 49q-4 33 -13.5 55.5t-30 37t-54 20.5t-87.5 8l-63 4 v-434l145 -4q156 2 233 60.5t113 172.5l17 49h45l-39 -319h-848zM475 1452h35l276 -399h-28l-262 213h-4l-267 -213h-26z" />
<glyph horiz-adv-x="999" d="M51 33l58 8q63 8 63 27v827q0 10 -12.5 15t-59.5 10l-49 8l-4 33h825l13 -318h-43l-17 51q-18 63 -42.5 108.5t-62.5 72t-91.5 38t-126.5 11.5l-123 -2v-416l76 2q90 4 135 26.5t63 86.5l17 53h35l-39 -375l-33 2l-6 49q-4 33 -13.5 55.5t-30 37t-54 20.5t-87.5 8l-63 4 v-434l145 -4q156 2 233 60.5t113 172.5l17 49h45l-39 -319h-848zM688 1108q-59 0 -89 39t-30 80q0 20 7.5 42.5t22.5 41t37.5 30t51.5 11.5q31 0 52.5 -11.5t37 -30t22.5 -41t7 -42.5q0 -41 -30 -80t-89 -39zM293 1108q-59 0 -89 39t-30 80q0 20 7 42.5t22.5 41t38 30 t51.5 11.5q31 0 52.5 -11.5t36.5 -30t22.5 -41t7.5 -42.5q0 -41 -30 -80t-89 -39z" />
<glyph horiz-adv-x="999" d="M51 33l58 8q63 8 63 27v827q0 10 -12.5 15t-59.5 10l-49 8l-4 33h825l13 -318h-43l-17 51q-18 63 -42.5 108.5t-62.5 72t-91.5 38t-126.5 11.5l-123 -2v-416l76 2q90 4 135 26.5t63 86.5l17 53h35l-39 -375l-33 2l-6 49q-4 33 -13.5 55.5t-30 37t-54 20.5t-87.5 8l-63 4 v-434l145 -4q156 2 233 60.5t113 172.5l17 49h45l-39 -319h-848zM248 1161h524l-12 -80h-529z" />
<glyph horiz-adv-x="999" d="M51 33l58 8q63 8 63 27v827q0 10 -12.5 15t-59.5 10l-49 8l-4 33h825l13 -318h-43l-17 51q-18 63 -42.5 108.5t-62.5 72t-91.5 38t-126.5 11.5l-123 -2v-416l76 2q90 4 135 26.5t63 86.5l17 53h35l-39 -375l-33 2l-6 49q-4 33 -13.5 55.5t-30 37t-54 20.5t-87.5 8l-63 4 v-434l145 -4q156 2 233 60.5t113 172.5l17 49h45l-39 -319h-848zM504 1018q-66 0 -112 30.5t-77.5 82t-52 120t-35.5 144.5h27q41 -119 103.5 -182.5t150.5 -63.5q86 0 148.5 64.5t103.5 181.5h26q-14 -76 -34.5 -144.5t-53 -120t-79.5 -82t-115 -30.5z" />
<glyph horiz-adv-x="999" d="M51 33l58 8q63 8 63 27v827q0 10 -12.5 15t-59.5 10l-49 8l-4 33h825l13 -318h-43l-17 51q-18 63 -42.5 108.5t-62.5 72t-91.5 38t-126.5 11.5l-123 -2v-416l76 2q90 4 135 26.5t63 86.5l17 53h35l-39 -375l-33 2l-6 49q-4 33 -13.5 55.5t-30 37t-54 20.5t-87.5 8l-63 4 v-434l145 -4q156 2 233 60.5t113 172.5l17 49h45l-39 -319h-848zM504 1077q-61 0 -93 41t-32 86t31.5 87t93.5 42q61 0 92 -42t31 -87t-31 -86t-92 -41z" />
<glyph horiz-adv-x="999" d="M707 -479q-84 0 -137.5 52t-53.5 136q0 49 20.5 92t52.5 80t72.5 66.5t83.5 52.5h-700l6 31l58 10q35 4 49 11t14 16v827q0 10 -11 15t-59 12l-51 6l-4 33h827l11 -318h-43l-15 51q-18 63 -43.5 108.5t-63.5 72t-91.5 38t-126.5 11.5l-123 -2v-416l78 2q88 2 133 25.5 t63 87.5l17 53h35l-39 -373h-33l-6 49q-4 33 -13.5 55.5t-30 37t-54 20.5t-87.5 8l-63 4v-434l145 -6q78 0 135.5 16.5t98.5 46t68.5 73.5t45.5 99l15 52l45 -3l-37 -319h-94q-78 -51 -115 -111.5t-37 -126.5q0 -63 35 -101t98 -38q41 0 68 16.5t53 41.5l10 -13 q-8 -23 -26.5 -48.5t-45 -48t-61 -36.5t-73.5 -14z" />
<glyph horiz-adv-x="999" d="M207 1409h26l267 -213h4l264 213h27l-277 -399h-35zM51 33l58 8q63 8 63 27v827q0 10 -12.5 15t-59.5 10l-49 8l-4 33h825l13 -318h-43l-17 51q-18 63 -42.5 108.5t-62.5 72t-91.5 38t-126.5 11.5l-123 -2v-416l76 2q90 4 135 26.5t63 86.5l17 53h35l-39 -375l-33 2 l-6 49q-4 33 -13.5 55.5t-30 37t-54 20.5t-87.5 8l-63 4v-434l145 -4q156 2 233 60.5t113 172.5l17 49h45l-39 -319h-848z" />
<glyph horiz-adv-x="1126" d="M596 -25q-125 0 -225.5 37t-171 103.5t-108.5 156.5t-38 199q0 111 39 204t110.5 161.5t176 107.5t237.5 39q74 0 143.5 -17.5t106.5 -33.5l107 31l4 -324h-43l-123 254q-33 23 -84 36t-113 13q-82 0 -144 -35t-105 -96t-64.5 -145t-21.5 -183q0 -115 26.5 -202.5 t72.5 -147t104.5 -89.5t123.5 -30q53 0 97.5 12.5t66.5 26.5v320q0 10 -19.5 15t-66.5 9l-61 11l-2 30h475l-6 -30l-68 -11q-35 -4 -45 -10t-10 -16v-279l90 8l2 -20q-43 -20 -100.5 -40t-120 -34t-125 -22.5t-117.5 -8.5zM569 1405h35l277 -399h-29l-262 213h-4l-267 -213 h-26z" />
<glyph horiz-adv-x="1126" d="M596 -25q-125 0 -225.5 37t-171 103.5t-108.5 156.5t-38 199q0 111 39 204t110.5 161.5t176 107.5t237.5 39q74 0 143.5 -17.5t106.5 -33.5l107 31l4 -324h-43l-123 254q-33 23 -84 36t-113 13q-82 0 -144 -35t-105 -96t-64.5 -145t-21.5 -183q0 -115 26.5 -202.5 t72.5 -147t104.5 -89.5t123.5 -30q53 0 97.5 12.5t66.5 26.5v320q0 10 -19.5 15t-66.5 9l-61 11l-2 30h475l-6 -30l-68 -11q-35 -4 -45 -10t-10 -16v-279l90 8l2 -20q-43 -20 -100.5 -40t-120 -34t-125 -22.5t-117.5 -8.5zM596 1018q-66 0 -112 30.5t-77.5 82t-52 120 t-35.5 144.5h27q41 -119 103.5 -182.5t150.5 -63.5q86 0 148.5 64.5t103.5 181.5h27q-14 -76 -35 -144.5t-53.5 -120t-79.5 -82t-115 -30.5z" />
<glyph horiz-adv-x="1126" d="M596 -25q-125 0 -225.5 37t-171 103.5t-108.5 156.5t-38 199q0 111 39 204t110.5 161.5t176 107.5t237.5 39q74 0 143.5 -17.5t106.5 -33.5l107 31l4 -324h-43l-123 254q-33 23 -84 36t-113 13q-82 0 -144 -35t-105 -96t-64.5 -145t-21.5 -183q0 -115 26.5 -202.5 t72.5 -147t104.5 -89.5t123.5 -30q53 0 97.5 12.5t66.5 26.5v320q0 10 -19.5 15t-66.5 9l-61 11l-2 30h475l-6 -30l-68 -11q-35 -4 -45 -10t-10 -16v-279l90 8l2 -20q-43 -20 -100.5 -40t-120 -34t-125 -22.5t-117.5 -8.5zM604 1079q-61 0 -93 41t-32 86t32 87t93 42t92 -42 t31 -87t-31 -86t-92 -41z" />
<glyph horiz-adv-x="1126" d="M469 -551q72 20 117 69.5t45 110.5q0 39 -18.5 64.5t-44 39t-54.5 14.5t-47 -11q-8 25 -3 49.5t20.5 46t43 34.5t66.5 13q76 0 122 -47t46 -121q0 -45 -21.5 -89t-59.5 -82t-88 -66.5t-108 -40.5zM596 -25q-125 0 -225.5 37t-171 103.5t-108.5 156.5t-38 199 q0 111 39 204t110.5 161.5t176 107.5t237.5 39q74 0 143.5 -17.5t106.5 -33.5l107 31l4 -324h-43l-123 254q-33 23 -84 36t-113 13q-82 0 -144 -35t-105 -96t-64.5 -145t-21.5 -183q0 -115 26.5 -202.5t72.5 -147t104.5 -89.5t123.5 -30q53 0 97.5 12.5t66.5 26.5v320 q0 10 -19.5 15t-66.5 9l-61 11l-2 30h475l-6 -30l-68 -11q-35 -4 -45 -10t-10 -16v-279l90 8l2 -20q-43 -20 -100.5 -40t-120 -34t-125 -22.5t-117.5 -8.5z" />
<glyph horiz-adv-x="1181" d="M571 1423h35l277 -399h-29l-262 213h-4l-266 -213h-27zM51 33l60 8q35 4 48 11t13 16v827q0 10 -12.5 15t-59.5 10l-49 8l-6 33h461l-4 -33l-62 -8q-35 -4 -48 -11.5t-13 -15.5v-385h422v387q0 10 -11.5 15t-58.5 10l-51 8l-4 33h461l-7 -33l-61 -8q-35 -4 -48 -11.5 t-13 -15.5v-827q0 -10 13 -15.5t60 -9.5l49 -8l5 -33h-461l6 33l61 8q59 8 60 27v399h-422v-401q0 -10 12 -15.5t60 -9.5l49 -8l6 -33h-461z" />
<glyph horiz-adv-x="1181" d="M20 733h152v162q0 10 -11 15t-59 12l-51 6l-4 33h459l-4 -33l-62 -8q-35 -4 -48 -11.5t-13 -15.5v-160h422v162q0 10 -11.5 15t-58.5 12l-51 6l-6 33h463l-7 -33l-61 -8q-35 -4 -48 -11.5t-13 -15.5v-160h168l-13 -69h-155v-598q0 -10 13 -15.5t60 -11.5l49 -8l5 -31 h-461l4 31l63 10q35 4 47.5 10t12.5 17v399h-422v-401q0 -10 12 -15.5t60 -11.5l51 -8l4 -31h-461l4 31l62 10q35 4 48 11t13 16v596h-170zM801 508v156h-422v-156h422z" />
<glyph horiz-adv-x="589" d="M63 33l68 8q61 8 62 27v827q0 10 -12.5 15t-59.5 10l-58 8l-4 33h471l-4 -33l-67 -8q-35 -4 -47.5 -11.5t-12.5 -15.5v-827q0 -10 11.5 -15.5t58.5 -9.5l57 -8l4 -33h-473zM-41 1450h221l197 -381h-27z" />
<glyph horiz-adv-x="589" d="M63 33l68 8q61 8 62 27v827q0 10 -12.5 15t-59.5 10l-58 8l-4 33h471l-4 -33l-67 -8q-35 -4 -47.5 -11.5t-12.5 -15.5v-827q0 -10 11.5 -15.5t58.5 -9.5l57 -8l4 -33h-473zM406 1450h223l-391 -381h-29z" />
<glyph horiz-adv-x="589" d="M63 33l68 8q61 8 62 27v827q0 10 -12.5 15t-59.5 10l-58 8l-4 33h471l-4 -33l-67 -8q-35 -4 -47.5 -11.5t-12.5 -15.5v-827q0 -10 11.5 -15.5t58.5 -9.5l57 -8l4 -33h-473zM279 1452h34l277 -399h-29l-262 213h-4l-266 -213h-27z" />
<glyph horiz-adv-x="589" d="M63 33l68 8q61 8 62 27v827q0 10 -12.5 15t-59.5 10l-58 8l-4 33h471l-4 -33l-67 -8q-35 -4 -47.5 -11.5t-12.5 -15.5v-827q0 -10 11.5 -15.5t58.5 -9.5l57 -8l4 -33h-473zM496 1108q-59 0 -89 39t-30 80q0 20 7 42.5t22.5 41t38 30t51.5 11.5q31 0 52 -11.5t36.5 -30 t22.5 -41t7 -42.5q0 -41 -29.5 -80t-88.5 -39zM100 1108q-59 0 -88.5 39t-29.5 80q0 20 7 42.5t22.5 41t38 30t50.5 11.5q31 0 52.5 -11.5t37 -30t22.5 -41t7 -42.5q0 -41 -30 -80t-89 -39z" />
<glyph horiz-adv-x="589" d="M63 33l68 8q61 8 62 27v827q0 10 -12.5 15t-59.5 10l-58 8l-4 33h471l-4 -33l-67 -8q-35 -4 -47.5 -11.5t-12.5 -15.5v-827q0 -10 11.5 -15.5t58.5 -9.5l57 -8l4 -33h-473zM43 1161h524l-12 -80h-528z" />
<glyph horiz-adv-x="589" d="M63 33l68 8q61 8 62 27v827q0 10 -12.5 15t-59.5 10l-58 8l-4 33h471l-4 -33l-67 -8q-35 -4 -47.5 -11.5t-12.5 -15.5v-827q0 -10 11.5 -15.5t58.5 -9.5l57 -8l4 -33h-473zM291 1016q-66 0 -112 30.5t-77.5 82t-52 120t-35.5 144.5h27q41 -119 103.5 -182.5t150.5 -63.5 q86 0 148.5 64.5t103.5 181.5h26q-14 -76 -34.5 -144.5t-53 -120t-79.5 -82t-115 -30.5z" />
<glyph horiz-adv-x="589" d="M324 -479q-82 0 -136.5 52t-54.5 136q0 49 20.5 93t53.5 80t74 65.5t84 52.5h-308l6 31l68 10q61 8 62 27v827q0 10 -12.5 15t-59.5 12l-58 6l-4 33h473l-6 -33l-67 -8q-59 -8 -60 -27v-827q0 -10 11.5 -15.5t58.5 -11.5l57 -8l4 -31q-119 -20 -191.5 -82.5t-72.5 -155.5 q0 -63 35 -101t100 -38q39 0 66 16.5t53 41.5l10 -13q-8 -23 -26.5 -48.5t-45 -48t-61 -36.5t-73.5 -14z" />
<glyph horiz-adv-x="589" d="M63 33l68 8q61 8 62 27v827q0 10 -12.5 15t-59.5 10l-58 8l-4 33h471l-4 -33l-67 -8q-35 -4 -47.5 -11.5t-12.5 -15.5v-827q0 -10 11.5 -15.5t58.5 -9.5l57 -8l4 -33h-473zM309 1079q-61 0 -93 41t-32 86t32 87t93 42t92 -42t31 -87t-31 -86t-92 -41z" />
</font>
</defs>
</svg>
