<?xml version="1.0" standalone="no"?>
<!DOCTYPE svg PUBLIC "-//W3C//DTD SVG 1.1//EN" "http://www.w3.org/Graphics/SVG/1.1/DTD/svg11.dtd" >
<svg xmlns="http://www.w3.org/2000/svg" xmlns:xlink="http://www.w3.org/1999/xlink" version="1.1">
<metadata></metadata>
<defs>
<font id="freightsans_probold_italic" horiz-adv-x="1024" >
<font-face units-per-em="2048" ascent="1638" descent="-410" />
<missing-glyph horiz-adv-x="466" />
<glyph unicode="&#xfb00;" horiz-adv-x="1456" d="M389 0h-315l137 692l-166 10l10 201l201 45l18 86q18 84 49 152.5t80.5 117t120 75t166.5 26.5q86 0 160 -22.5t123 -55.5q0 -2 -17.5 -39t-37.5 -84q-25 -53 -56 -121q-45 29 -83 43.5t-79 14.5q-33 0 -55 -12.5t-36.5 -31t-22.5 -40t-13 -39.5l-14 -78h393l23 115 q18 84 49 152.5t81 116.5t119.5 74.5t166.5 26.5q86 0 160.5 -22.5t123.5 -54.5q0 -2 -17.5 -39t-37.5 -84q-25 -53 -55 -121q-47 29 -84 43t-78 14q-35 0 -57.5 -12t-37 -30.5t-21.5 -40t-11 -40.5l-21 -98h242l-6 -248h-270l-136 -692h-315l137 692h-383z" />
<glyph unicode="&#xfb01;" horiz-adv-x="1236" d="M1315 1229q0 -82 -50.5 -126t-136.5 -44t-136 44t-50 126q0 84 51 127t137 43t135.5 -43t49.5 -127zM827 1122q-68 39 -129 39q-33 0 -54 -12t-34.5 -30.5t-20.5 -40t-11 -40.5l-19 -98h221l-6 -248h-250l-135 -692h-315l137 692l-166 10l10 201l201 45l23 107 q18 84 46.5 152.5t74.5 116.5t114 74.5t164 26.5q66 0 125 -15t106 -38zM729 0l180 930l322 39l-189 -969h-313z" />
<glyph unicode="&#xfb02;" horiz-adv-x="1286" d="M977 1348q0 -2 -17.5 -39t-37.5 -84q-25 -53 -56 -121q-45 29 -83 43t-78 14q-33 0 -55.5 -12t-37 -30.5t-22.5 -40t-12 -40.5l-19 -98h242l-6 -248h-271l-135 -692h-315l137 692l-166 10l10 201l201 45l23 107q18 84 48.5 152.5t80 116.5t120 74.5t166.5 26.5 q86 0 160 -22t123 -55zM768 0l266 1366l322 27l-273 -1393h-315z" />
<glyph unicode="&#xfb03;" horiz-adv-x="1935" d="M2011 1229q0 -82 -50 -126t-136 -44t-136.5 44t-50.5 126q0 84 51.5 127t137.5 43t135 -43t49 -127zM389 0h-315l137 692l-166 10l10 201l201 45l18 86q18 84 49 152.5t80.5 117t120 75t166.5 26.5q86 0 160 -22.5t123 -55.5q0 -2 -17.5 -39t-37.5 -84q-25 -53 -56 -121 q-45 29 -83 43.5t-79 14.5q-33 0 -55 -12.5t-36.5 -31t-22.5 -40t-13 -39.5l-14 -78h393l23 115q18 84 47 152.5t75 116.5t113.5 74.5t163.5 26.5q66 0 126.5 -15t107.5 -38l-82 -250q-68 39 -131 39q-33 0 -54.5 -12t-35 -30.5t-19.5 -40t-10 -40.5l-21 -98h222l-7 -248 h-249l-136 -692h-315l137 692h-383zM1425 0l181 930l323 39l-188 -969h-316z" />
<glyph unicode="&#xfb04;" horiz-adv-x="1998" d="M389 0h-315l137 692l-166 10l10 201l201 45l18 86q18 84 49 152.5t80.5 117t120 75t166.5 26.5q86 0 160 -22.5t123 -55.5q0 -2 -17.5 -39t-37.5 -84q-25 -53 -56 -121q-45 29 -83 43.5t-79 14.5q-33 0 -55 -12.5t-36.5 -31t-22.5 -40t-13 -39.5l-14 -78h395l23 115 q18 84 49 152.5t80 116.5t119.5 74.5t167.5 26.5q86 0 160.5 -22.5t121.5 -54.5q0 -2 -17.5 -39t-37.5 -84q-25 -53 -55 -121q-45 29 -83 43t-79 14q-33 0 -55.5 -12t-37 -30.5t-22.5 -40t-10 -40.5l-21 -98h242l-6 -248h-270l-136 -692h-315l137 692h-385zM1466 0l267 1366 l321 27l-272 -1393h-316z" />
<glyph horiz-adv-x="0" />
<glyph unicode="&#xd;" horiz-adv-x="466" />
<glyph horiz-adv-x="0" />
<glyph horiz-adv-x="0" />
<glyph unicode=" "  horiz-adv-x="466" />
<glyph unicode="&#x09;" horiz-adv-x="466" />
<glyph unicode="&#xa0;" horiz-adv-x="466" />
<glyph unicode="!" horiz-adv-x="622" d="M303 1348l365 -50l-250 -874l-223 35zM434 143q0 -82 -53 -128t-131 -46t-132.5 46t-54.5 128q0 80 54.5 126t132.5 46t131 -46t53 -126z" />
<glyph unicode="&#x22;" horiz-adv-x="890" d="M496 815l333 506l265 -74l-387 -432h-211zM66 815l333 506l267 -74l-390 -432h-210z" />
<glyph unicode="#" horiz-adv-x="1273" d="M141 719v239h305l168 357h248l-168 -357h291l168 357h248l-168 -357h98v-239h-209l-118 -246h192l-2 -240h-301l-180 -385h-250l182 385h-291l-180 -385h-250l182 385h-102l2 240h211l119 246h-195zM590 733l-131 -274h291l131 274h-291z" />
<glyph unicode="$" horiz-adv-x="1153" d="M518 225q10 -2 18.5 -2h18.5q109 0 159 38t50 97q0 45 -32 78t-118 62zM850 1497h141q-23 -61 -39 -108q-8 -20 -14 -39t-12 -35q-8 -18 -13 -33q72 -14 129.5 -33.5t100.5 -42.5l-58 -284q-63 33 -131.5 56t-134.5 38l-45 -131q-20 -57 -47 -129h2q72 -29 134.5 -60.5 t107.5 -73.5t70.5 -96.5t25.5 -124.5q0 -102 -39 -183t-109.5 -136t-171 -84t-221.5 -29q-25 0 -49 1t-49 3l-80 -223h-141l86 244q-80 16 -148.5 39.5t-115.5 48.5l59 285q78 -41 156 -68t143 -41l98 277q-63 27 -121.5 58.5t-104.5 74.5t-73.5 100t-27.5 135q0 98 39 173 t106.5 127t159.5 79t196 27q61 0 121 -6zM688 1042q-4 2 -5 4.5t-5 2.5q-104 4 -159.5 -31t-55.5 -96q0 -43 28.5 -73t106.5 -58z" />
<glyph unicode="%" horiz-adv-x="1703" d="M848 1028q0 -88 -28.5 -164t-81 -131t-124 -86t-157.5 -31q-76 0 -139.5 20.5t-109.5 60.5t-71.5 95.5t-25.5 127.5q0 88 28.5 162.5t80.5 129t124 84t158 29.5q76 0 139.5 -20.5t109.5 -59.5t71.5 -93t25.5 -124zM344 -31h-242l1319 1340h242zM1659 369 q0 -88 -28.5 -164t-81 -131.5t-124 -87t-157.5 -31.5q-76 0 -140.5 20.5t-110.5 60.5t-71.5 95t-25.5 127q0 88 28.5 163t80.5 129t125 84t159 30q76 0 139.5 -20.5t109.5 -58.5t71.5 -93t25.5 -123zM633 1016q0 72 -37 108.5t-96 36.5q-41 0 -74 -21.5t-56.5 -55 t-35.5 -76.5t-12 -86q0 -72 39.5 -109t99.5 -37q37 0 67.5 18.5t54 50.5t37 76t13.5 95zM1444 356q0 72 -39 108t-96 36q-41 0 -73 -21.5t-55.5 -55.5t-35.5 -76t-12 -85q0 -72 38.5 -108.5t98.5 -36.5q37 0 68.5 18.5t55 51t37 76.5t13.5 93z" />
<glyph unicode="&#x26;" horiz-adv-x="1333" d="M618 774q68 33 117 79t49 124q0 51 -39.5 88t-99.5 41q-72 2 -121 -44t-49 -110q0 -59 38.5 -98t104.5 -80zM737 326q-55 86 -121.5 149.5t-132.5 99.5q-80 -31 -130 -84t-50 -129q0 -72 53.5 -115.5t128.5 -43.5q70 -2 134.5 34t117.5 89zM813 197q-92 -104 -199.5 -166 t-216.5 -62q-84 0 -154.5 23.5t-121.5 66.5t-80 102.5t-29 131.5t28 131t76 105t110.5 78t131.5 48q-76 47 -119.5 117t-43.5 156q0 78 33.5 148.5t93 123.5t142.5 84t181 31q78 0 151.5 -20.5t132 -59.5t93.5 -96.5t35 -130.5q0 -70 -28 -124.5t-72 -92t-100 -61 t-114 -30.5q43 -27 88.5 -65.5t79.5 -81.5l174 246h328l-375 -412l213 -354l-329 -64z" />
<glyph unicode="'" horiz-adv-x="462" d="M74 815l334 506l258 -74l-390 -432h-202z" />
<glyph unicode="(" horiz-adv-x="870" d="M721 -543q-109 57 -217.5 153.5t-194.5 226.5t-140 292t-54 352q0 188 54 350t140 293t194.5 227.5t217.5 153.5l166 -215q-92 -55 -177 -136t-150.5 -184.5t-105.5 -226t-40 -262.5q0 -139 40 -262t105.5 -226.5t150.5 -184t177 -136.5l-166 -215v0z" />
<glyph unicode=")" horiz-adv-x="870" d="M-14 -328q90 55 175 136t151.5 184.5t106.5 226.5t40 262t-40 262t-106.5 226.5t-151.5 184.5t-175 136l164 215q109 -57 217 -153.5t195 -227.5t141.5 -292.5t54.5 -350.5q0 -190 -54.5 -352t-141.5 -292t-195.5 -226t-216.5 -154z" />
<glyph unicode="*" horiz-adv-x="806" d="M203 621l-117 231l324 59l4 19l-277 166l191 190l151 -295l17 4l84 314l229 -109l-238 -239l11 -15l323 29l-49 -258l-291 145l-14 -14l127 -301l-260 -47l47 331l-16 5z" />
<glyph unicode="+" horiz-adv-x="1077" d="M676 367v-349h-262v349h-346l6 247h340v349h262v-349h338l6 -247h-344z" />
<glyph unicode="," horiz-adv-x="569" d="M10 174q16 78 69.5 126t139.5 48q49 0 90 -19.5t72 -53t47 -76.5t16 -93q0 -84 -42 -155.5t-106.5 -129t-140 -98t-143.5 -65.5l-112 127q27 12 69.5 38.5t81.5 59.5t67.5 70t28.5 74q0 55 -42 88.5t-95 58.5z" />
<glyph unicode="-" horiz-adv-x="761" d="M59 371v252h652v-252h-652z" />
<glyph unicode="." horiz-adv-x="569" d="M414 156q0 -84 -52.5 -135.5t-140.5 -51.5q-86 0 -140 51.5t-54 135.5q0 86 54 136t140 50q88 0 140.5 -50t52.5 -136z" />
<glyph unicode="/" horiz-adv-x="585" d="M-2 -408h-268l852 1846h268z" />
<glyph unicode="0" horiz-adv-x="1187" d="M1124 571q0 -129 -38.5 -238.5t-111.5 -189.5t-175.5 -126t-229.5 -46q-109 0 -201 31t-159.5 88t-105 140t-37.5 186q0 129 42 237.5t117.5 187.5t181 123t232.5 44q111 0 200 -32t152.5 -88.5t98 -137.5t34.5 -179zM809 565q0 98 -52 152.5t-136 54.5 q-59 0 -104.5 -32.5t-75 -84t-45 -116t-15.5 -125.5q0 -100 52 -153.5t138 -53.5q55 0 99.5 28.5t75 77.5t47 114.5t16.5 137.5z" />
<glyph unicode="1" horiz-adv-x="792" d="M358 702l-249 -34l45 256l583 90l-200 -1014h-316z" />
<glyph unicode="2" d="M-6 0l41 236q125 63 231.5 120.5t185 107.5t124 95t45.5 88q0 57 -43 86t-121 29q-74 0 -152 -25.5t-131 -54.5l-33 244q96 43 190.5 64.5t203.5 21.5q199 0 315.5 -81t116.5 -216q0 -82 -45 -148.5t-117 -122t-164 -101.5t-186 -89h471l-43 -252z" />
<glyph unicode="3" horiz-adv-x="1017" d="M639 338q49 -14 93 -38t78 -59.5t54.5 -83.5t20.5 -112q0 -94 -41 -173t-114 -135t-170 -88t-208 -32q-123 0 -239.5 29.5t-208.5 85.5l76 241q74 -45 172 -79.5t194 -34.5q98 0 158.5 48t60.5 140q0 41 -18.5 72t-49 50t-71.5 29.5t-86 10.5q-41 0 -83 -4t-67 -8l43 223 q70 6 140.5 15t126 31.5t90.5 60.5t35 100q0 68 -53.5 100.5t-122.5 32.5q-92 0 -169 -26.5t-149 -59.5l-31 235q78 41 184.5 72t233.5 31q72 0 149.5 -18.5t142 -57.5t105.5 -100.5t41 -149.5q0 -72 -26.5 -129t-71.5 -100t-101.5 -74t-117.5 -45z" />
<glyph unicode="4" horiz-adv-x="1173" d="M854 6l-72 -362h-295l74 362h-541l-36 197l712 790h353l-148 -737h205l-43 -250h-209zM713 713l-408 -463h318z" />
<glyph unicode="5" horiz-adv-x="985" d="M420 473q227 -4 339.5 -110.5t112.5 -276.5q0 -96 -39.5 -180t-111.5 -147.5t-175.5 -100.5t-228.5 -37q-109 0 -227.5 28.5t-204.5 88.5l80 235q84 -53 178.5 -80.5t173.5 -27.5q100 0 167 52t67 144q0 104 -75 151.5t-210 49.5q-47 0 -90 -5t-88 -15l-27 41l205 700 h729l-43 -258h-471l-80 -252h19z" />
<glyph unicode="6" horiz-adv-x="1159" d="M80 489q0 152 57.5 302.5t176 275.5t303 213t436.5 119q0 -4 8 -46t18 -91l29 -132q-229 -29 -401 -105.5t-261 -219.5l9 -6q55 35 128.5 58.5t141.5 23.5q74 0 143.5 -27t122.5 -77t85 -123.5t32 -170.5q0 -102 -40 -195t-110.5 -164t-168 -113t-209.5 -42 q-117 0 -210.5 40t-158 110.5t-98 165.5t-33.5 204zM375 449q0 -104 60.5 -169t152.5 -65q51 0 92 20.5t69.5 55.5t44 79t15.5 91q0 92 -51 146.5t-137 54.5q-63 0 -122 -23t-102 -57q-10 -29 -16 -65.5t-6 -67.5z" />
<glyph unicode="7" horiz-adv-x="1032" d="M88 713l57 270h922l-33 -217l-768 -1122h-317l749 1069h-610z" />
<glyph unicode="8" horiz-adv-x="1095" d="M657 729q63 29 110.5 80t47.5 121t-48 105.5t-114 35.5q-78 0 -126 -45t-48 -113q0 -66 54 -109.5t124 -74.5zM520 549q-74 -25 -124 -78t-50 -119q0 -78 57.5 -114.5t135.5 -36.5q76 0 129 41t53 114q0 35 -19.5 65t-48 53.5t-64.5 42t-69 32.5zM817 643 q82 -43 141.5 -118.5t59.5 -176.5q0 -84 -38 -154.5t-103.5 -122t-152.5 -79t-183 -27.5q-86 0 -175.5 18.5t-162 59.5t-118.5 106.5t-46 159.5q0 72 26.5 128.5t71.5 96t103.5 65.5t124.5 36q-80 45 -135.5 119.5t-55.5 171.5q0 86 37 155.5t99.5 118.5t147.5 77t181 28 q86 0 171 -18.5t152.5 -59.5t109.5 -104.5t42 -153.5q0 -72 -24.5 -127.5t-65.5 -95t-94.5 -65.5t-112.5 -38z" />
<glyph unicode="9" horiz-adv-x="1159" d="M1106 492q0 -154 -57.5 -303.5t-176 -274.5t-302 -214t-435.5 -120q0 4 -9 45t-20 92q-12 57 -26 133q229 27 401 104t258 222l-6 6q-55 -35 -130 -58.5t-140 -23.5q-74 0 -143.5 26t-124 77t-86 123.5t-31.5 169.5q0 104 40 197t111.5 164t168 113t210.5 42 q117 0 210 -40t156.5 -110.5t97.5 -165.5t34 -204zM813 532q0 104 -60.5 168t-152.5 64q-53 0 -94 -20.5t-69.5 -55.5t-44 -79t-15.5 -89q0 -92 51 -146.5t137 -54.5q66 0 124.5 21.5t101.5 56.5q10 29 16 65.5t6 69.5z" />
<glyph unicode=":" horiz-adv-x="569" d="M532 733q0 -84 -52 -135t-140 -51q-86 0 -140.5 51t-54.5 135t54.5 135.5t140.5 51.5q88 0 140 -51.5t52 -135.5zM420 156q0 -84 -53.5 -135.5t-139.5 -51.5t-140 51.5t-54 135.5q0 86 54 136t140 50t139.5 -50t53.5 -136z" />
<glyph unicode=";" horiz-adv-x="569" d="M532 733q0 -84 -52 -135t-140 -51q-86 0 -140.5 51t-54.5 135t54.5 135.5t140.5 51.5q88 0 140 -51.5t52 -135.5zM10 174q16 78 69.5 126t139.5 48q49 0 90 -19.5t72 -53t47 -76.5t16 -93q0 -84 -42 -155.5t-106.5 -129t-140 -98t-143.5 -65.5l-112 127q27 12 69.5 38.5 t81.5 59.5t67.5 70t28.5 74q0 55 -42 88.5t-95 58.5z" />
<glyph unicode="&#x3c;" horiz-adv-x="1028" d="M913 8l-821 373v203l821 372v-249l-501 -215v-21l501 -213v-250z" />
<glyph unicode="=" horiz-adv-x="1036" d="M96 586l-10 235h868l-10 -235h-848zM86 139l10 236h848l10 -236h-868z" />
<glyph unicode="&#x3e;" horiz-adv-x="1028" d="M98 8v250l502 213v21l-502 215v249l822 -372v-203z" />
<glyph unicode="?" horiz-adv-x="856" d="M891 954q0 -139 -83 -215.5t-216 -115.5q-82 -23 -127 -39.5t-45 -40.5q0 -8 10 -21.5t25.5 -27t33 -27.5t29.5 -27l-221 -22q-59 37 -99 87t-40 103q0 86 63.5 136.5t181.5 80.5q92 25 138.5 46.5t46.5 68.5q0 31 -19.5 51.5t-48 32.5t-62.5 16t-61 4q-59 0 -118.5 -9 t-94.5 -19l66 268q41 14 93 19.5t99 5.5q86 0 167 -22.5t143.5 -67.5t100.5 -112t38 -153zM481 143q0 -82 -53 -128t-131 -46t-132 46t-54 128q0 80 54 126t132 46t131 -46t53 -126z" />
<glyph unicode="@" horiz-adv-x="1755" d="M1698 631q0 -139 -37 -242.5t-98.5 -173.5t-141.5 -104.5t-166 -34.5q-104 0 -174.5 43t-99.5 127q-53 -63 -117.5 -94t-128.5 -31q-59 0 -111.5 23.5t-91 67.5t-60 107.5t-21.5 141.5q0 102 32.5 188t91 148.5t137.5 97.5t173 35q41 0 84 -12.5t84 -28.5l274 43 l-104 -524q-20 -100 6 -148.5t110 -48.5q49 0 96.5 27.5t84 81t60.5 131t24 180.5q0 141 -57.5 255.5t-153 195.5t-219 125t-254.5 44q-154 0 -288 -60.5t-232.5 -163.5t-156 -240.5t-57.5 -288.5q0 -145 49.5 -271.5t138.5 -221.5t212 -149.5t270 -54.5q68 0 132.5 11.5 t127.5 31.5l25 -77q-72 -25 -141.5 -37.5t-147.5 -12.5q-166 0 -304 60.5t-239.5 165t-158 247t-56.5 306.5q0 172 63.5 323.5t175 266t262 181t325.5 66.5q156 0 296 -49t247.5 -140t171 -221t63.5 -292zM1030 690q-23 23 -55.5 40.5t-73.5 17.5q-45 0 -81 -23t-61.5 -59.5 t-39.5 -85t-14 -99.5q0 -80 38.5 -125t96.5 -45q41 0 69.5 14.5t53.5 34.5z" />
<glyph unicode="A" horiz-adv-x="1323" d="M1237 0h-324l-36 272h-490l-154 -272h-335l741 1280h401zM793 1012l-269 -480h322z" />
<glyph unicode="B" horiz-adv-x="1257" d="M969 639q96 -35 147 -108.5t51 -161.5q0 -78 -30.5 -145.5t-100 -117t-180.5 -78t-272 -28.5h-541l248 1280h497q125 0 212 -25.5t139.5 -69.5t76 -101.5t23.5 -120.5q0 -123 -73.5 -204t-196.5 -120zM907 905q0 57 -43 92t-143 35h-160l-55 -289h65q25 0 48.5 1t31.5 1 q256 0 256 160zM848 397q0 37 -16.5 63.5t-45 44t-66.5 25t-81 7.5h-174l-55 -289h192q139 0 192.5 35.5t53.5 113.5z" />
<glyph unicode="C" horiz-adv-x="1253" d="M1231 950q-100 39 -194.5 59.5t-184.5 20.5q-106 0 -187 -33.5t-135.5 -93t-82 -138.5t-27.5 -169t26.5 -155.5t73.5 -108.5t113.5 -63.5t144.5 -20.5t158 20.5t151 50.5l54 -272q-98 -43 -195.5 -60.5t-185.5 -17.5q-154 0 -278 41t-211 118t-134 185.5t-47 243.5 q0 150 49 286t145.5 240.5t241 166t332.5 61.5q113 0 219.5 -19.5t210.5 -54.5z" />
<glyph unicode="D" horiz-adv-x="1392" d="M1356 733q0 -145 -46 -277t-145.5 -233.5t-257 -162t-381.5 -60.5h-483l248 1280h422q135 0 252.5 -35t203.5 -104.5t136.5 -171t50.5 -236.5zM1028 715q0 156 -95 229.5t-255 75.5h-113l-147 -760h162q98 0 180 28.5t141.5 86t93 142.5t33.5 198z" />
<glyph unicode="E" horiz-adv-x="1157" d="M43 0l248 1280h936l-49 -262h-619l-47 -246h510l-51 -260h-510l-47 -250h616l-51 -262h-936z" />
<glyph unicode="F" horiz-adv-x="1107" d="M291 1280h915l-51 -268h-594l-51 -264h487l-51 -267h-487l-94 -481h-322z" />
<glyph unicode="G" horiz-adv-x="1376" d="M1186 47q-94 -37 -203 -57.5t-225 -20.5q-145 0 -267 40t-210 115t-138.5 182.5t-50.5 244.5q0 154 51.5 292t150.5 241.5t244.5 165t333.5 61.5q125 0 233.5 -19.5t215.5 -54.5l-64 -287q-98 39 -197 60.5t-192 21.5q-113 0 -196.5 -35.5t-139 -98t-83 -146.5 t-27.5 -181q-2 -154 84 -246t258 -92q90 0 164 23l43 207h-303l53 258h596l-131 -674v0z" />
<glyph unicode="H" horiz-adv-x="1425" d="M870 0l99 508h-502l-98 -508h-326l248 1280h325l-96 -498h504l94 498h326l-248 -1280h-326z" />
<glyph unicode="I" horiz-adv-x="598" d="M45 0l248 1280h325l-247 -1280h-326z" />
<glyph unicode="J" horiz-adv-x="956" d="M829 408q-41 -209 -159.5 -324t-323.5 -115q-53 0 -109.5 9.5t-109.5 25.5t-100 40t-82 52l118 254q57 -49 119 -80.5t135 -31.5q51 0 85 17t55.5 47t35 70t21.5 83l160 825h325l-170 -872v0z" />
<glyph unicode="K" horiz-adv-x="1275" d="M510 713l530 567h377l-631 -629l381 -651h-374l-314 563h-2l-10 -57.5t-14.5 -78.5t-18.5 -93t-18 -96q-23 -113 -47 -238h-326l248 1280h323l-106 -567h2z" />
<glyph unicode="L" horiz-adv-x="1064" d="M43 0l248 1280h325l-194 -1006h536l-53 -274h-862z" />
<glyph unicode="M" horiz-adv-x="1740" d="M1409 944l-448 -926h-351l-86 930l-207 -948h-313l299 1282h455l88 -940l454 938h465l-209 -1280h-315z" />
<glyph unicode="N" horiz-adv-x="1452" d="M1159 1280h314l-242 -1292h-365l-354 858l-154 -846h-315l240 1278h370l355 -846z" />
<glyph unicode="O" horiz-adv-x="1497" d="M1468 721q0 -160 -55 -297t-154.5 -238.5t-236.5 -160t-299 -58.5q-131 0 -246 40t-201 116t-135 186.5t-49 249.5q0 160 55.5 297t154.5 238.5t235.5 160t300.5 58.5q131 0 245.5 -40t200.5 -116t135 -186.5t49 -249.5zM1137 713q0 154 -83 246t-237 92q-96 0 -170 -43 t-123 -113t-73.5 -156t-24.5 -172q0 -150 83 -244t236 -94q96 0 169 44t122 114t75 156t26 170z" />
<glyph unicode="P" horiz-adv-x="1216" d="M1227 868q0 -104 -37 -194t-110.5 -156.5t-186.5 -105.5t-264 -39l-189 -2l-71 -371h-326l248 1280h438q119 0 212 -34t156.5 -91t96.5 -131t33 -156zM893 846q0 78 -56.5 127t-170.5 49h-107l-78 -397h156q68 0 116 19.5t79.5 50t46 70.5t14.5 81z" />
<glyph unicode="Q" horiz-adv-x="1497" d="M1356 -109l-160 -258l-489 334h-7q-127 2 -238.5 44t-193.5 118t-129 184.5t-47 245.5q0 158 55.5 296t154.5 239.5t235.5 160t300.5 58.5q131 0 245.5 -40t200.5 -116t135 -186.5t49 -249.5q0 -221 -106.5 -398.5t-304.5 -269.5zM1137 713q0 154 -83 246t-237 92 q-96 0 -170 -44t-123 -113t-73.5 -155t-24.5 -172q0 -150 83 -244t236 -94q96 0 169 44t122 114t75 156t26 170z" />
<glyph unicode="R" horiz-adv-x="1269" d="M367 0h-324l248 1278h483q111 0 199 -28.5t148.5 -79t93 -119t32.5 -148.5q0 -84 -25.5 -150.5t-71.5 -118.5t-108.5 -88t-134.5 -57l203 -489h-346l-170 434l-145 -12zM633 668q55 0 105 10t89 33.5t61.5 60.5t22.5 92q0 82 -61.5 121t-149.5 39h-139l-76 -358z" />
<glyph unicode="S" horiz-adv-x="1153" d="M518 240q113 0 166 32.5t53 87.5q0 25 -11 44.5t-39 38t-74 39t-115 48.5q-66 27 -126.5 59t-108.5 76t-76.5 102t-28.5 136q0 98 39 173t106.5 127t159.5 79t196 27q154 0 280 -32t204 -71l-58 -284q-47 25 -101 45t-109.5 35.5t-108.5 24.5t-96 9q-90 0 -136.5 -32.5 t-46.5 -83.5q0 -25 12.5 -44.5t40 -37t73.5 -37t116 -45.5q72 -29 134.5 -60.5t107.5 -73.5t70.5 -96.5t25.5 -124.5q0 -102 -39 -183t-109.5 -136t-171 -84t-221.5 -29q-72 0 -143.5 10.5t-137 25.5t-121.5 35.5t-95 41.5l59 285q53 -29 111.5 -52.5t116 -40t109.5 -25.5 t93 -9z" />
<glyph unicode="T" horiz-adv-x="1230" d="M885 1006l-197 -1006h-326l197 1006h-409l53 274h1140l-51 -274h-407z" />
<glyph unicode="U" horiz-adv-x="1357" d="M647 -31q-262 0 -403.5 110.5t-143.5 313.5q0 35 7.5 82t15.5 84l141 721h326l-139 -727q-6 -27 -11.5 -54.5t-5.5 -56.5q0 -207 232 -206q113 0 169 66.5t78 176.5l156 801h324l-158 -815q-47 -252 -197.5 -374t-390.5 -122z" />
<glyph unicode="V" horiz-adv-x="1304" d="M750 4h-396l-194 1276h342l106 -973l520 973h359z" />
<glyph unicode="W" horiz-adv-x="1970" d="M631 0h-326l-96 1280h346l-6 -893l409 893h359l61 -893l342 893h353l-598 -1280h-332l-68 913z" />
<glyph unicode="X" horiz-adv-x="1320" d="M297 0h-367l572 643l-312 637h361l180 -418l340 418h373l-559 -629l323 -651h-360l-195 438z" />
<glyph unicode="Y" horiz-adv-x="1251" d="M791 483l-95 -483h-319l94 489l-293 791h334l168 -510l354 510h355z" />
<glyph unicode="Z" horiz-adv-x="1187" d="M-27 0l41 215l797 799h-629l51 266h1043l-41 -217l-791 -795h635l-53 -268h-1053z" />
<glyph unicode="[" horiz-adv-x="849" d="M139 -420v1837h697v-233h-416v-1372h416v-232h-697z" />
<glyph unicode="\" horiz-adv-x="598" d="M408 1438l137 -1846h-271l-139 1846h273z" />
<glyph unicode="]" horiz-adv-x="851" d="M14 -188h416v1372h-416v233h699v-1837h-699v232z" />
<glyph unicode="^" horiz-adv-x="815" d="M676 1079l-94 221h-4l-177 -221h-256l316 383h284l170 -383h-239z" />
<glyph unicode="_" horiz-adv-x="1112" d="M-131 -250l2 250h1147v-250h-1149z" />
<glyph unicode="`" horiz-adv-x="813" d="M518 1079l-272 379h346l129 -379h-203z" />
<glyph unicode="a" horiz-adv-x="1050" d="M614 424q-297 -6 -297 -139q0 -47 32 -76t83 -29q43 0 82 18.5t64 41.5zM645 586q31 154 -178 153q-76 0 -156 -20.5t-145 -48.5l-27 241q70 29 170.5 49.5t204.5 20.5q150 0 246 -35t146 -95t59.5 -143t-13.5 -180l-49 -231q-10 -47 1 -65.5t59 -22.5l-72 -229 q-82 -8 -140.5 -1t-96.5 27.5t-58.5 50t-24.5 66.5h-2q-51 -59 -119.5 -104.5t-166.5 -45.5q-61 0 -111.5 21.5t-86.5 58.5t-54.5 85t-18.5 100q0 74 37 137t114 108t195.5 66.5t282.5 11.5z" />
<glyph unicode="b" horiz-adv-x="1165" d="M1118 561q0 -129 -42 -236.5t-114.5 -186.5t-173 -123t-217.5 -44q-72 0 -132 19.5t-113 48.5l-306 -62l271 1418l323 26l-104 -544q47 41 108.5 73.5t149.5 32.5q74 0 137.5 -28.5t110.5 -84t74.5 -133.5t27.5 -176zM797 532q0 100 -49.5 156.5t-120.5 56.5 q-51 0 -87 -17t-65 -40l-86 -418q29 -29 69 -49t93 -20q55 0 101 28.5t78 74.5t49.5 105.5t17.5 122.5z" />
<glyph unicode="c" horiz-adv-x="995" d="M874 31q-59 -27 -139 -45.5t-176 -18.5q-104 0 -196.5 30t-161 87t-107.5 141t-39 193q0 117 42 220t118 180t180.5 121t227.5 44q111 0 209 -24.5t176 -71.5l-97 -238q-72 45 -135 67.5t-135 22.5q-68 0 -119 -29.5t-83.5 -75.5t-49 -100.5t-16.5 -105.5 q0 -109 64.5 -162t168.5 -53q57 0 115.5 14.5t112.5 34.5l40 -231v0z" />
<glyph unicode="d" horiz-adv-x="1169" d="M915 1366l320 27l-270 -1393h-314l13 76q-47 -41 -108.5 -74t-149.5 -33q-74 0 -137.5 29t-110.5 84t-75 133t-28 176q0 129 42 236.5t116 185.5t174 122t217 44q66 0 122 -16.5t105 -40.5zM784 682q-29 29 -68.5 49.5t-90.5 20.5q-57 0 -102.5 -29t-77 -75t-49 -106.5 t-17.5 -123.5q0 -100 48 -156.5t120 -56.5q51 0 87 18.5t64 40.5z" />
<glyph unicode="e" horiz-adv-x="1067" d="M365 395q0 -49 19 -86t52 -61.5t76 -35.5t90 -11q76 0 148.5 22.5t119.5 46.5l39 -239q-59 -27 -150 -44.5t-184 -17.5q-117 0 -213 30t-163.5 88t-105.5 143t-38 194q0 117 42 218t118 177t179.5 120t223.5 44q182 0 290 -87t108 -253q0 -53 -12.5 -116.5t-32.5 -110.5 l-606 -6v-15zM707 563q6 16 10 44t4 46q0 59 -32 91t-89 32q-72 0 -126 -56t-77 -159z" />
<glyph unicode="f" horiz-adv-x="759" d="M977 1348q0 -2 -17.5 -39t-37.5 -84q-25 -53 -56 -121q-45 29 -83 43t-78 14q-33 0 -55.5 -12t-37 -30.5t-22.5 -40t-12 -40.5l-19 -98h242l-6 -248h-271l-135 -692h-315l137 692l-166 10l8 201l203 45l23 107q18 84 48.5 152.5t80 116.5t120 74.5t166.5 26.5 q86 0 160 -22t123 -55z" />
<glyph unicode="g" horiz-adv-x="1091" d="M246 334q-78 41 -119 110.5t-41 149.5q0 86 37 157.5t100.5 123t147.5 80t178 28.5q84 0 152.5 -19.5t115.5 -50.5l313 25l9 -240l-191 21q6 -16 12.5 -39t6.5 -47q0 -78 -30 -145.5t-86 -116.5t-138 -78t-187 -29q-49 0 -89 7.5t-68 15.5q-16 -6 -31.5 -20.5 t-15.5 -37.5q0 -33 43 -50t157 -36l39 -6q193 -33 294 -98.5t101 -198.5q0 -80 -42 -144.5t-116.5 -109.5t-177 -69.5t-223.5 -24.5q-258 0 -394 68.5t-136 199.5q0 72 69.5 136.5t198.5 85.5q-59 20 -91 54t-32 97q0 70 62.5 125.5t171.5 75.5zM528 446q72 0 117 51.5 t45 143.5q0 63 -37 104t-108 41q-70 0 -117 -52t-47 -142q0 -61 37.5 -103.5t109.5 -42.5zM252 -70q-39 -10 -67.5 -42.5t-28.5 -73.5q0 -70 73.5 -109t182.5 -39q115 0 179 34t64 79q0 43 -38.5 68.5t-141.5 43.5q-23 4 -51.5 8.5t-59 9.5t-60 10t-52.5 11z" />
<glyph unicode="h" horiz-adv-x="1157" d="M645 0l105 539q4 16 6 33.5t2 33.5q0 113 -121 113q-51 0 -95 -26.5t-81 -67.5l-121 -625h-317l266 1366l321 27l-110 -574q74 72 153.5 117t165.5 45q135 0 204 -76t69 -188q0 -23 -2.5 -42.5t-6.5 -41.5l-122 -633h-316z" />
<glyph unicode="i" horiz-adv-x="540" d="M612 1255q0 -82 -50 -125t-136 -43t-136 43.5t-50 124.5q0 84 51 127t137 43t135 -43t49 -127zM23 0l182 942l321 27l-188 -969h-315z" />
<glyph unicode="j" horiz-adv-x="538" d="M612 1255q0 -82 -50 -125t-136 -43t-136 43.5t-50 124.5q0 84 51 127t137 43t135 -43t49 -127zM-199 -297q47 20 84 48t64.5 67t47 94t34.5 131q0 -2 7 36t19.5 100.5t27.5 144.5t32 165q37 199 88 453l321 27q-51 -266 -92 -473q-18 -88 -34.5 -173t-30 -152 t-20.5 -105.5t-7 -36.5q-20 -104 -52 -188.5t-79 -149t-113.5 -111.5t-154.5 -76z" />
<glyph unicode="k" horiz-adv-x="1085" d="M426 463l-88 -463h-315l266 1366l321 27l-164 -830h5l342 389h374l-430 -446l258 -506h-348l-217 463h-4z" />
<glyph unicode="l" horiz-adv-x="540" d="M23 0l266 1366l321 27l-272 -1393h-315z" />
<glyph unicode="m" horiz-adv-x="1734" d="M1225 0l102 530q4 16 8 40t4 42q0 49 -29.5 78t-88.5 29q-45 0 -84 -20.5t-72 -51.5q0 -4 -1 -9t-1 -7q-4 -8 -4 -19l-119 -612h-317l104 530q4 16 7 40t3 42q0 49 -28.5 78t-87.5 29q-47 0 -87 -21.5t-69 -50.5l-125 -647h-317l180 936l325 39l-28 -135q59 59 139 101 t158 42q104 0 171.5 -47t94.5 -133q31 35 71 67.5t84 57t91 40t92 15.5q68 0 119 -20.5t84.5 -56.5t51 -83t17.5 -102q0 -20 -3 -47t-7 -49l-125 -625h-313z" />
<glyph unicode="n" horiz-adv-x="1153" d="M645 0l103 530q4 16 7 39t3 41q0 51 -29 80t-88 29q-49 0 -97 -30t-85 -73l-119 -616h-317l180 936l325 39l-28 -156q66 66 149.5 115t169.5 49q68 0 119 -20.5t85 -56.5t51.5 -84t17.5 -101q0 -23 -3.5 -48.5t-7.5 -47.5l-120 -625h-316z" />
<glyph unicode="o" horiz-adv-x="1153" d="M1090 528q0 -115 -40 -217t-113 -178t-175.5 -120t-226.5 -44q-104 0 -192.5 32t-152 90.5t-99.5 142t-36 188.5q0 115 40 217t114 179t177 121t228 44q106 0 193.5 -32.5t150 -93t97.5 -145t35 -184.5zM772 547q0 98 -44 152.5t-122 54.5q-59 0 -103 -33t-74 -84 t-45 -113.5t-15 -120.5q0 -98 45 -152t127 -54q53 0 96 28.5t72.5 77.5t46 112.5t16.5 131.5z" />
<glyph unicode="p" horiz-adv-x="1169" d="M510 877q47 41 108.5 73.5t149.5 32.5q74 0 137.5 -28.5t110.5 -84t74.5 -133.5t27.5 -176q0 -129 -42 -236.5t-115.5 -186.5t-173 -123t-216.5 -44q-66 0 -123 17.5t-106 42.5l-86 -455h-315l262 1360l325 39zM389 270q29 -29 69 -49t93 -20q55 0 101 28.5t78 74.5 t49.5 105.5t17.5 122.5q0 100 -49.5 156.5t-120.5 56.5q-51 0 -87 -17t-65 -40z" />
<glyph unicode="q" horiz-adv-x="1169" d="M569 -424l95 500q-47 -41 -108.5 -74t-149.5 -33q-74 0 -137.5 29t-110.5 84t-75 133t-28 176q0 129 42 236.5t116 185.5t174 122t217 44q66 0 117 -14.5t100 -36.5l334 55l-270 -1407h-316zM784 682q-29 29 -68.5 49.5t-90.5 20.5q-57 0 -102.5 -29t-77 -75t-49 -106.5 t-17.5 -123.5q0 -100 48 -156.5t120 -56.5q51 0 87 18.5t64 40.5z" />
<glyph unicode="r" horiz-adv-x="821" d="M338 0h-315l182 936l323 39l-26 -139q47 70 110.5 108.5t128.5 38.5q78 0 140 -43l-68 -283q-68 39 -147 39q-123 0 -213 -114z" />
<glyph unicode="s" horiz-adv-x="937" d="M850 295q0 -70 -28.5 -129.5t-83 -103.5t-133.5 -68.5t-179 -24.5q-109 0 -225.5 25.5t-202.5 71.5l63 245q88 -49 189.5 -82.5t187.5 -33.5q47 0 79 20.5t32 56.5q0 35 -38 56.5t-120 46.5q-162 41 -231.5 108.5t-69.5 178.5q0 70 28.5 128t82 101t130.5 67.5t175 24.5 q106 0 220 -25.5t202 -72.5l-66 -246q-96 53 -189 85t-179 32q-43 0 -72 -18.5t-29 -53.5t38 -52.5t120 -43.5q80 -23 137 -49.5t93 -61.5t52.5 -80t16.5 -102z" />
<glyph unicode="t" horiz-adv-x="776" d="M664 2q-47 -14 -109.5 -23.5t-132.5 -9.5q-66 0 -123 16.5t-100 48.5t-68 81t-25 116q0 25 4.5 49.5t10.5 49.5l84 362l-127 10l6 201l176 47l51 217h305l-49 -229h205l-6 -246h-270l-74 -327q-4 -12 -7 -27.5t-3 -32.5q0 -47 28.5 -65.5t85.5 -18.5q25 0 50.5 5t50.5 16 z" />
<glyph unicode="u" horiz-adv-x="1142" d="M514 952l-102 -530q-4 -16 -7.5 -39t-3.5 -41q0 -51 28 -80t89 -29q47 0 90 24t76 58l123 637h315l-184 -944l-322 -39l31 160q-29 -31 -64.5 -59.5t-75.5 -51t-84 -36t-87 -13.5q-139 0 -203.5 72t-64.5 180q0 29 4 62.5t8 62.5l117 606h317z" />
<glyph unicode="v" horiz-adv-x="1026" d="M567 -2h-327l-166 954h319l74 -616l317 616h332z" />
<glyph unicode="w" horiz-adv-x="1513" d="M184 -4l-78 956h312l8 -592l276 594h297l43 -583l224 581h323l-454 -956h-301l-48 622l-303 -622h-299z" />
<glyph unicode="x" horiz-adv-x="1015" d="M602 0l-123 324l-235 -324h-346l413 485l-221 467h326l121 -293l223 293h338l-393 -463l223 -489h-326z" />
<glyph unicode="y" horiz-adv-x="1011" d="M-74 -127q39 -27 66.5 -41t68.5 -14t68 17.5t59 70.5l48 78l-170 968h321l76 -643l307 643h332l-510 -946l-88 -156q-47 -84 -93 -142t-97.5 -93t-107.5 -50.5t-122 -15.5q-78 0 -154.5 30t-130.5 65l127 229v0z" />
<glyph unicode="z" horiz-adv-x="935" d="M-59 0l34 184l545 514h-426l49 254h844l-35 -184l-542 -514h442l-49 -254h-862z" />
<glyph unicode="{" horiz-adv-x="819" d="M788 -434q-133 2 -242.5 14t-187 42t-119.5 82t-42 136q0 63 10 115.5t23.5 98.5t23.5 86t10 81q0 74 -60.5 109t-189.5 45l-6 133l6 131q129 10 189.5 41t60.5 106q0 39 -10 81t-23.5 89.5t-23.5 100.5t-10 117q0 84 42 136t119.5 82.5t187 43t242.5 16.5v-192 q-164 -12 -227 -43t-63 -95q0 -33 8 -68.5t19.5 -78.5t19.5 -94.5t8 -112.5q0 -104 -82 -173t-217 -77v-20q135 -10 217 -80t82 -174q0 -61 -8 -109.5t-19.5 -89.5t-19.5 -77t-8 -70q0 -68 63.5 -101t226.5 -43v-188v0z" />
<glyph unicode="|" horiz-adv-x="546" d="M137 1436h273v-1846h-273v1846z" />
<glyph unicode="}" horiz-adv-x="819" d="M805 375q-129 -10 -189.5 -45t-60.5 -109q0 -41 10 -81t22.5 -86t23 -98t10.5 -116q0 -84 -42 -136t-119 -82t-186.5 -42t-242.5 -14v188q162 10 226.5 43t64.5 101q0 35 -8.5 70.5t-19.5 76.5t-19.5 89t-8.5 110q0 104 82 173.5t217 80.5v20q-135 8 -217 77t-82 173 q0 61 8.5 112.5t19.5 94.5t19.5 79t8.5 68q0 63 -64.5 94t-226.5 44v192q133 -4 242.5 -16.5t186.5 -43t119 -83t42 -135.5q0 -63 -10.5 -116.5t-23 -101t-22.5 -89.5t-10 -81q0 -76 60.5 -106.5t189.5 -40.5l6 -131z" />
<glyph unicode="~" horiz-adv-x="815" d="M854 690q-45 -154 -106.5 -232.5t-159.5 -78.5q-57 0 -103.5 18.5t-84.5 42t-69.5 42t-60.5 18.5q-18 0 -30.5 -12.5t-21.5 -29t-14 -33.5t-5 -28h-201q43 152 104.5 230t159.5 78q57 0 104.5 -18.5t85 -40t68.5 -40t60 -18.5q18 0 31.5 12t22.5 28.5t15 34t8 27.5h197v0 z" />
<glyph unicode="&#xa1;" horiz-adv-x="622" d="M254 1135q0 82 54 128t132 46t131.5 -46t53.5 -128q0 -80 -53.5 -126t-131.5 -46t-132 46t-54 126zM387 -70l-364 50l249 874l224 -35z" />
<glyph unicode="&#xa2;" horiz-adv-x="980" d="M856 950q86 -25 160 -71l-109 -232q-33 23 -66.5 42.5t-68.5 31.5l-14 -38q-15 -38 -35.5 -94.5t-45 -123t-45 -123.5t-34.5 -96l-14 -39h24q57 0 116.5 16.5t117.5 38.5l30 -233q-63 -27 -139 -44.5t-172 -17.5h-32.5t-32.5 4l-90 -250h-142l101 275 q-135 45 -220.5 150.5t-85.5 271.5q0 117 42 219t118 179t180.5 121t229.5 44q25 0 48 -1t46 -3l76 205h143zM639 745q-70 0 -121 -28.5t-85 -74.5t-50 -102.5t-16 -111.5q0 -66 23.5 -112t64.5 -72z" />
<glyph unicode="&#xa3;" horiz-adv-x="1165" d="M279 702q4 59 8 112.5t14 100.5q18 94 62.5 168t110 124t147 77t178.5 27q51 0 107.5 -9.5t110.5 -28t103 -44t88 -58.5l-110 -231q-61 53 -135 87t-148 32q-90 0 -144.5 -51.5t-70.5 -137.5q-6 -29 -11 -72.5t-9 -95.5h331l-10 -141h-332q-4 -45 -9 -87t-11 -79 q-4 -20 -9 -39.5t-12 -38.5q43 -41 100.5 -65.5t114.5 -24.5q55 0 100.5 39t80.5 140l217 -62q-53 -197 -163 -286t-241 -89q-51 0 -96 13.5t-86 36t-76 53t-63 61.5q-66 -68 -165 -109.5t-241 -54.5q-4 63 -10 117q-4 23 -5 43.5t-3 36.5q-2 20 -4 37q123 16 187.5 56 t80.5 126q14 74 18 176h-176l-8 141h189v0z" />
<glyph unicode="&#xa4;" horiz-adv-x="993" d="M813 897q16 -35 26.5 -80t10.5 -82q0 -45 -8 -87t-27 -79l137 -137l-151 -151l-135 135q-72 -37 -168 -37q-98 0 -170 33l-123 -123l-150 149l123 123q-20 41 -27.5 84t-7.5 90q0 53 6.5 91t28.5 79l-129 127l152 152l129 -129q70 37 168 37q94 0 172 -39l123 123 l149 -150zM651 735q0 66 -41 113t-112 47q-74 0 -115 -47t-41 -113t41 -113t115 -47q72 0 112.5 47t40.5 113z" />
<glyph unicode="&#xa5;" horiz-adv-x="1253" d="M121 498l20 141h318l-281 641h344l172 -481l348 481h347l-527 -641h318l-37 -141h-359l-24 -136h358l-18 -139h-361l-43 -223h-319l43 223h-361l37 139h359l26 136h-360z" />
<glyph unicode="&#xa6;" horiz-adv-x="546" d="M137 1315h273v-686h-273v686zM137 401h273v-686h-273v686z" />
<glyph unicode="&#xa7;" horiz-adv-x="1079" d="M1085 604q0 -53 -19 -95t-53 -75t-78 -55.5t-91 -34.5q35 -33 58.5 -73t23.5 -93q0 -78 -38 -137t-98.5 -98t-134 -58.5t-147.5 -19.5q-55 0 -118.5 8t-127 25.5t-121 42t-98.5 55.5l113 217q86 -57 176 -92t180 -35q16 0 34.5 3t35 12.5t28 22.5t11.5 36 q0 20 -18.5 38.5t-49.5 36t-71 33t-85 31.5q-57 20 -115.5 44t-106.5 55.5t-77.5 75.5t-29.5 106q0 57 21.5 102t56 78t81.5 55.5t99 32.5q-33 33 -52.5 70.5t-19.5 89.5q0 76 34 134t89 97t128 58.5t150 19.5q51 0 113.5 -8.5t125 -24.5t118 -39.5t94.5 -54.5l-115 -215 q-86 51 -168 86t-164 35q-33 0 -66.5 -13.5t-33.5 -54.5q0 -23 17.5 -40t48 -33.5t70.5 -32t83 -31.5q53 -23 108.5 -49.5t99.5 -61.5t71.5 -78t27.5 -98zM821 539q0 31 -31.5 58.5t-73.5 50t-86 38.5t-69 27q-35 16 -68.5 29.5t-66.5 33.5q-31 -23 -64.5 -52.5t-33.5 -68.5 q0 -31 32.5 -59.5t76.5 -51t88 -40t69 -27.5q35 -16 69.5 -30.5t69.5 -30.5q29 20 58.5 52t29.5 71z" />
<glyph unicode="&#xa8;" horiz-adv-x="815" d="M963 1245q0 -78 -45.5 -118t-118.5 -40q-72 0 -117 40t-45 118t45 118t117 40q74 0 119 -40t45 -118zM485 1245q0 -78 -45 -118t-116 -40q-74 0 -119 40t-45 118t45 118t119 40q72 0 116.5 -40t44.5 -118z" />
<glyph unicode="&#xa9;" horiz-adv-x="1636" d="M860 -121q-158 0 -296 59.5t-240.5 163t-162 240.5t-59.5 295t59.5 296t162 241.5t240.5 164t296 60.5t296 -60.5t241.5 -164t163 -241.5t59.5 -296t-59.5 -295t-163 -240.5t-241.5 -163t-296 -59.5zM1550 637q0 143 -54 269t-148.5 221.5t-219 150.5t-268.5 55 q-143 0 -268 -55t-218 -150.5t-147.5 -221.5t-54.5 -269t54.5 -269t147.5 -220.5t218 -149.5t268 -55t268 55t219.5 149.5t148.5 220.5t54 269zM1096 786q-37 23 -86 36.5t-97 13.5q-86 0 -134 -52.5t-48 -140.5q0 -92 45 -146.5t137 -54.5q53 0 100.5 14.5t94.5 41.5 l53 -213q-43 -23 -116.5 -37.5t-143.5 -14.5q-195 0 -308.5 100.5t-113.5 303.5q0 186 114 298t318 112q74 0 139.5 -15.5t120.5 -38.5z" />
<glyph unicode="&#xaa;" horiz-adv-x="813" d="M557 502q-16 23 -28.5 49.5t-16.5 69.5h-8q-45 -45 -100.5 -81t-118.5 -36q-86 0 -139.5 54t-53.5 142q0 59 26.5 111.5t85 89.5t148.5 56.5t219 15.5l7 26q31 119 -109 119q-55 0 -122.5 -22.5t-127.5 -57.5l-35 189q59 35 152.5 60.5t185.5 25.5q166 0 252 -81t55 -239 l-47 -225q-14 -72 2.5 -124t38.5 -89zM553 868q-125 -4 -177 -38.5t-52 -90.5q0 -33 23.5 -53t58.5 -20t65.5 16t48.5 35z" />
<glyph unicode="&#xab;" horiz-adv-x="1239" d="M1059 25l-463 327l49 252l592 328l14 -205l-344 -258v-4l242 -248zM463 45l-451 311l49 246l572 311l20 -202l-334 -242v-4l234 -234z" />
<glyph unicode="&#xac;" horiz-adv-x="1036" d="M1004 186h-238v275h-684l6 237h916v-512z" />
<glyph unicode="&#xad;" horiz-adv-x="761" d="M59 371v252h652v-252h-652z" />
<glyph unicode="&#xae;" horiz-adv-x="1636" d="M860 -121q-158 0 -296 59.5t-240.5 163t-162 240.5t-59.5 295t59.5 296t162 241.5t240.5 164t296 60.5t296 -60.5t241.5 -164t163 -241.5t59.5 -296t-59.5 -295t-163 -240.5t-241.5 -163t-296 -59.5zM1550 637q0 143 -54 269t-148.5 221.5t-219 150.5t-268.5 55 q-143 0 -268 -55t-218 -150.5t-147.5 -221.5t-54.5 -269t54.5 -269t147.5 -220.5t218 -149.5t268 -55t268 55t219.5 149.5t148.5 220.5t54 269zM774 264h-244v766h371q162 0 245 -67.5t83 -184.5q0 -70 -36 -128t-110 -89l177 -297h-263l-133 248l-90 -6v-242zM856 657 q125 4 125 107q0 47 -30.5 72.5t-98.5 25.5h-80v-207z" />
<glyph unicode="&#xaf;" horiz-adv-x="815" d="M180 1124l29 179h698l17 -179h-744z" />
<glyph unicode="&#xb0;" horiz-adv-x="786" d="M836 1001q0 -76 -31 -142t-83 -115.5t-121 -78t-146 -28.5q-141 0 -224.5 85t-83.5 222q0 74 30 140.5t81 115.5t118.5 79t145.5 30q70 0 128.5 -22.5t99.5 -62.5t63.5 -96.5t22.5 -126.5zM723 997q0 98 -59.5 152.5t-153.5 54.5q-53 0 -98 -20.5t-80 -55t-54.5 -81 t-19.5 -99.5q0 -94 57.5 -150.5t155.5 -56.5q51 0 97 20.5t81 56.5t54.5 82t19.5 97z" />
<glyph unicode="&#xb1;" horiz-adv-x="1077" d="M666 559v-287h-252v287h-344l6 238h338v286h252v-286h338l6 -238h-344zM70 0l6 238h928l6 -238h-940z" />
<glyph unicode="&#xb2;" horiz-adv-x="675" d="M-4 559l20 174q100 76 172 128t118 92t68.5 72t22.5 67q0 39 -28.5 54t-63.5 15q-45 0 -88 -15.5t-82 -37.5l-47 172q66 35 137.5 54.5t143.5 19.5q51 0 103 -10.5t94 -35t69 -64.5t27 -99q0 -68 -34 -124t-87.5 -103.5t-117 -87t-124.5 -76.5h154h151l-31 -195h-577z " />
<glyph unicode="&#xb3;" horiz-adv-x="675" d="M422 954q39 0 74.5 -12t63.5 -34.5t44.5 -56.5t16.5 -77q0 -111 -95.5 -172t-249.5 -61q-80 0 -154.5 18.5t-133.5 48.5l63 168q47 -23 114.5 -39t127.5 -16q16 0 35.5 4t37 13.5t29 23.5t11.5 37q0 43 -43.5 56t-96.5 13h-42t-46 -2l23 152q14 0 50 2t73.5 11t66.5 26.5 t29 50.5q0 31 -24.5 46t-65.5 15q-43 0 -95.5 -13t-89.5 -30l-43 168q66 27 128.5 41.5t127.5 14.5q45 0 96.5 -9.5t95.5 -31t72.5 -58.5t28.5 -92q0 -49 -21.5 -86t-55 -61.5t-73.5 -38t-79 -19.5z" />
<glyph unicode="&#xb4;" horiz-adv-x="813" d="M528 1079h-202l276 379h348z" />
<glyph unicode="&#xb5;" horiz-adv-x="1148" d="M428 410q0 -55 11.5 -89t32 -53.5t46 -25.5t55.5 -6q27 0 52.5 8t47 28.5t35 56.5t13.5 91v532h315v-952h-313v92q-20 -49 -60 -83t-88 -34q-47 0 -82.5 17.5t-64.5 64.5v-534h-315v1429h315v-542z" />
<glyph unicode="&#xb6;" horiz-adv-x="1208" d="M764 408h-18.5h-39h-46h-37.5q-84 0 -170 19t-156 65.5t-115 124t-45 196.5q0 96 38 181t114 148.5t188.5 100.5t261.5 37h478l-281 -1425h-281l109 553v0z" />
<glyph unicode="&#xb7;" horiz-adv-x="559" d="M483 524q0 -84 -52 -135t-140 -51q-86 0 -140.5 51t-54.5 135q0 86 54.5 136.5t140.5 50.5q88 0 140 -50.5t52 -136.5z" />
<glyph unicode="&#xb8;" horiz-adv-x="815" d="M315 -106q104 -12 164 -61.5t60 -131.5q0 -53 -27 -100t-83 -82t-144 -56.5t-211 -23.5l14 143q76 -4 127 3t81 20.5t42 34t12 45.5q0 47 -56 67.5t-167 22.5v106l281 199h172q-59 -45 -113 -82q-45 -33 -88.5 -62.5t-63.5 -41.5z" />
<glyph unicode="&#xb9;" horiz-adv-x="675" d="M188 559l136 531l-185 -29l25 199l471 75l-193 -776h-254z" />
<glyph unicode="&#xba;" horiz-adv-x="925" d="M961 940q0 -94 -33 -174t-92.5 -138.5t-140.5 -92t-177 -33.5q-86 0 -158.5 27.5t-124 76.5t-80 118t-28.5 153q0 92 33 171.5t91 138t138 91.5t176 33q86 0 159 -27t125 -75t82 -116.5t30 -152.5zM709 956q0 78 -37 127.5t-103 49.5q-43 0 -77.5 -24t-59 -62.5t-37 -89 t-12.5 -101.5q0 -80 36 -127t101 -47q43 0 78 22.5t59.5 61.5t38 88t13.5 102z" />
<glyph unicode="&#xbb;" horiz-adv-x="1249" d="M623 45l-23 199l334 243v2l-234 236l91 188l452 -311l-49 -246zM18 25l-14 206l342 256v2l-242 252l93 191l462 -328l-49 -254z" />
<glyph unicode="&#xbc;" horiz-adv-x="1464" d="M1305 -123l-37 -170h-221l32 170h-313l2 158l346 438h316l-91 -424h78l-33 -172h-79zM1186 324l-219 -283h157zM141 -238h-237l1442 1518h237zM229 559l136 531l-185 -29l25 199l471 75l-193 -776h-254z" />
<glyph unicode="&#xbd;" horiz-adv-x="1464" d="M141 -238h-237l1442 1518h237zM229 559l136 531l-185 -29l25 199l471 75l-193 -776h-254zM743 -293l21 174q100 76 172 128t118 92t68.5 72t22.5 67q0 39 -29 54t-63 15q-45 0 -88 -15t-82 -38l-47 172q66 35 137 54.5t143 19.5q51 0 103.5 -10.5t94.5 -35t68.5 -64.5 t26.5 -99q0 -68 -34 -124t-87 -103.5t-116.5 -87t-124.5 -76.5h153h152l-31 -195h-578z" />
<glyph unicode="&#xbe;" horiz-adv-x="1464" d="M1305 -123l-37 -170h-221l32 170h-313l2 158l346 438h316l-91 -424h78l-33 -172h-79zM1186 324l-219 -283h157zM141 -238h-237l1442 1518h237zM463 954q39 0 74.5 -12t63.5 -34.5t44.5 -56.5t16.5 -77q0 -111 -95.5 -172t-249.5 -61q-80 0 -154.5 18.5t-133.5 48.5 l63 168q47 -23 114.5 -39t127.5 -16q16 0 35.5 4t37 13.5t28.5 23.5t11 37q0 43 -43 56t-96 13h-42t-46 -2l23 152q14 0 50 2t73.5 11t66.5 26.5t29 50.5q0 31 -24.5 46t-65.5 15q-43 0 -95.5 -13t-89.5 -30l-43 168q66 27 128.5 41.5t127.5 14.5q45 0 96.5 -9.5t95.5 -31 t72.5 -58.5t28.5 -92q0 -49 -21.5 -86t-55 -61.5t-73.5 -38t-79 -19.5z" />
<glyph unicode="&#xbf;" horiz-adv-x="856" d="M37 326q0 137 82 213.5t217 117.5q80 23 125 39.5t45 40.5q0 8 -10.5 21.5t-25.5 27t-31.5 27.5t-28.5 25l219 24q61 -39 100 -88t39 -102q0 -86 -62.5 -136.5t-181.5 -82.5q-92 -25 -138 -45.5t-46 -67.5q0 -33 19.5 -53.5t48 -32.5t61.5 -16.5t61 -4.5q59 0 119 10.5 t94 20.5l-65 -268q-41 -14 -93.5 -19.5t-99.5 -5.5q-86 0 -166.5 22.5t-143 67.5t-100.5 112t-38 153zM444 1137q0 80 54.5 127t132.5 47t131 -47t53 -127q0 -82 -53 -127t-131 -45t-132.5 45t-54.5 127z" />
<glyph unicode="&#xc0;" horiz-adv-x="1323" d="M1237 0h-324l-36 272h-490l-154 -272h-335l741 1280h401zM793 1012l-269 -480h322zM772 1368l-272 379h346l129 -379h-203z" />
<glyph unicode="&#xc1;" horiz-adv-x="1323" d="M1237 0h-324l-36 272h-490l-154 -272h-335l741 1280h401zM793 1012l-269 -480h322zM934 1368h-203l277 379h348z" />
<glyph unicode="&#xc2;" horiz-adv-x="1323" d="M1237 0h-324l-36 272h-490l-154 -272h-335l741 1280h401zM793 1012l-269 -480h322zM995 1368l-94 221h-4l-176 -221h-256l315 383h285l170 -383h-240z" />
<glyph unicode="&#xc3;" horiz-adv-x="1323" d="M1237 0h-324l-36 272h-490l-154 -272h-335l741 1280h401zM793 1012l-269 -480h322zM1284 1686q-45 -154 -106.5 -233t-159.5 -79q-57 0 -103.5 18.5t-84 42t-69.5 42t-61 18.5q-18 0 -30.5 -12.5t-21.5 -28.5t-14 -33.5t-5 -27.5h-201q43 152 104.5 229.5t159.5 77.5 q57 0 104.5 -18.5t85.5 -40t68.5 -40t59.5 -18.5q18 0 31.5 12.5t22.5 28.5t15 33.5t8 28.5h197z" />
<glyph unicode="&#xc4;" horiz-adv-x="1323" d="M1237 0h-324l-36 272h-490l-154 -272h-335l741 1280h401zM793 1012l-269 -480h322zM1286 1534q0 -78 -45 -118t-119 -40q-72 0 -116.5 40t-44.5 118t45 118t116 40q74 0 119 -40t45 -118zM809 1534q0 -78 -45 -118t-117 -40q-74 0 -119 40t-45 118t45 118t119 40 q72 0 117 -40t45 -118z" />
<glyph unicode="&#xc5;" horiz-adv-x="1323" d="M795 1012l-269 -480h322zM1018 1427q0 68 -45 98.5t-111 30.5q-74 0 -128 -39.5t-54 -113.5q0 -66 48 -96.5t112 -30.5q72 0 125 39.5t53 111.5zM625 1249q-31 27 -49.5 64t-18.5 84q0 61 26.5 108t69.5 81t99.5 51.5t115.5 17.5q53 0 103.5 -14.5t88.5 -42t60.5 -69.5 t22.5 -99q0 -59 -26.5 -105.5t-69.5 -75.5l192 -1249h-324l-36 272h-490l-153 -272h-336z" />
<glyph unicode="&#xc6;" horiz-adv-x="1839" d="M836 532l106 539l-352 -539h246zM244 0h-350l874 1280h1149l-49 -262h-619l-47 -246h512l-51 -260h-512l-49 -250h618l-51 -262h-936l53 272h-360z" />
<glyph unicode="&#xc7;" horiz-adv-x="1253" d="M594 -16q-117 20 -210 68t-158.5 122t-100.5 170t-35 213q0 150 49 286t145.5 240.5t241 166t332.5 61.5q113 0 219.5 -19.5t210.5 -54.5l-57 -287q-100 39 -194.5 59.5t-184.5 20.5q-106 0 -187 -33.5t-135.5 -93t-82 -138.5t-27.5 -169t26.5 -155.5t73.5 -108.5 t113.5 -63.5t144.5 -20.5t158 20.5t151 50.5l54 -272q-98 -43 -195.5 -60.5t-185.5 -17.5h-10q-35 -25 -65 -45t-46 -30q104 -12 163.5 -61.5t59.5 -131.5q0 -53 -26.5 -100t-83 -82t-144.5 -56.5t-211 -23.5l15 143q76 -4 127 3t80.5 20.5t42 34t12.5 45.5q0 47 -56.5 67.5 t-166.5 22.5v106l143 103v0z" />
<glyph unicode="&#xc8;" horiz-adv-x="1157" d="M43 0l248 1280h936l-49 -262h-619l-47 -246h510l-51 -260h-510l-47 -250h616l-51 -262h-936zM668 1368l-273 379h346l129 -379h-202z" />
<glyph unicode="&#xc9;" horiz-adv-x="1157" d="M43 0l248 1280h936l-49 -262h-619l-47 -246h510l-51 -260h-510l-47 -250h616l-51 -262h-936zM846 1368h-203l277 379h348z" />
<glyph unicode="&#xca;" horiz-adv-x="1157" d="M43 0l248 1280h936l-49 -262h-619l-47 -246h510l-51 -260h-510l-47 -250h616l-51 -262h-936zM911 1368l-94 221h-4l-176 -221h-256l315 383h285l170 -383h-240z" />
<glyph unicode="&#xcb;" horiz-adv-x="1157" d="M43 0l248 1280h936l-49 -262h-619l-47 -246h510l-51 -260h-510l-47 -250h616l-51 -262h-936zM1186 1534q0 -78 -45 -118t-119 -40q-72 0 -117 40t-45 118t45 118t117 40q74 0 119 -40t45 -118zM709 1534q0 -78 -45.5 -118t-116.5 -40q-74 0 -119 40t-45 118t45 118 t119 40q72 0 117 -40t45 -118z" />
<glyph unicode="&#xcc;" horiz-adv-x="598" d="M45 0l248 1280h325l-247 -1280h-326zM377 1368l-273 379h347l129 -379h-203z" />
<glyph unicode="&#xcd;" horiz-adv-x="598" d="M45 0l248 1280h325l-247 -1280h-326zM549 1368h-203l277 379h348z" />
<glyph unicode="&#xce;" horiz-adv-x="598" d="M45 0l248 1280h325l-247 -1280h-326zM592 1368l-94 221h-4l-177 -221h-256l316 383h285l169 -383h-239z" />
<glyph unicode="&#xcf;" horiz-adv-x="598" d="M45 0l248 1280h325l-247 -1280h-326zM881 1534q0 -78 -45 -118t-119 -40q-72 0 -117 40t-45 118t45 118t117 40q74 0 119 -40t45 -118zM403 1534q0 -78 -45 -118t-116 -40q-74 0 -119 40t-45 118t45 118t119 40q72 0 116.5 -40t44.5 -118z" />
<glyph unicode="&#xd0;" horiz-adv-x="1447" d="M821 772v-250h-297l-51 -262h160q98 0 180 28.5t142.5 86t93 142.5t32.5 198q0 156 -95 229.5t-253 75.5h-110l-50 -248h248zM66 522v250h182l98 508h420q135 0 253 -35t206 -104.5t138 -171t50 -236.5q0 -145 -46 -277t-146.5 -233.5t-258 -162t-380.5 -60.5h-484 l101 522h-133z" />
<glyph unicode="&#xd1;" horiz-adv-x="1452" d="M1159 1280h314l-242 -1292h-365l-354 858l-154 -846h-315l240 1278h370l355 -846zM1343 1686q-45 -154 -106 -233t-160 -79q-57 0 -103 18.5t-84 42t-70 42t-60 18.5q-18 0 -30.5 -12.5t-22 -28.5t-14.5 -33.5t-5 -27.5h-201q43 152 104.5 229.5t160.5 77.5 q57 0 104 -18.5t85 -40t68.5 -40t59.5 -18.5q18 0 31.5 12.5t23 28.5t15.5 33.5t8 28.5h196z" />
<glyph unicode="&#xd2;" horiz-adv-x="1497" d="M1468 721q0 -160 -55 -297t-154.5 -238.5t-236.5 -160t-299 -58.5q-131 0 -246 40t-201 116t-135 186.5t-49 249.5q0 160 55.5 297t154.5 238.5t235.5 160t300.5 58.5q131 0 245.5 -40t200.5 -116t135 -186.5t49 -249.5zM1137 713q0 154 -83 246t-237 92q-96 0 -170 -43 t-123 -113t-73.5 -156t-24.5 -172q0 -150 83 -244t236 -94q96 0 169 44t122 114t75 156t26 170zM805 1380l-273 379h347l129 -379h-203z" />
<glyph unicode="&#xd3;" horiz-adv-x="1497" d="M1468 721q0 -160 -55 -297t-154.5 -238.5t-236.5 -160t-299 -58.5q-131 0 -246 40t-201 116t-135 186.5t-49 249.5q0 160 55.5 297t154.5 238.5t235.5 160t300.5 58.5q131 0 245.5 -40t200.5 -116t135 -186.5t49 -249.5zM1137 713q0 154 -83 246t-237 92q-96 0 -170 -43 t-123 -113t-73.5 -156t-24.5 -172q0 -150 83 -244t236 -94q96 0 169 44t122 114t75 156t26 170zM1001 1380h-202l276 379h348z" />
<glyph unicode="&#xd4;" horiz-adv-x="1497" d="M1468 721q0 -160 -55 -297t-154.5 -238.5t-236.5 -160t-299 -58.5q-131 0 -246 40t-201 116t-135 186.5t-49 249.5q0 160 55.5 297t154.5 238.5t235.5 160t300.5 58.5q131 0 245.5 -40t200.5 -116t135 -186.5t49 -249.5zM1137 713q0 154 -83 246t-237 92q-96 0 -170 -43 t-123 -113t-73.5 -156t-24.5 -172q0 -150 83 -244t236 -94q96 0 169 44t122 114t75 156t26 170zM1047 1368l-95 221h-4l-176 -221h-256l315 383h285l170 -383h-239z" />
<glyph unicode="&#xd5;" horiz-adv-x="1497" d="M1468 721q0 -160 -55 -297t-154.5 -238.5t-236.5 -160t-299 -58.5q-131 0 -246 40t-201 116t-135 186.5t-49 249.5q0 160 55.5 297t154.5 238.5t235.5 160t300.5 58.5q131 0 245.5 -40t200.5 -116t135 -186.5t49 -249.5zM1137 713q0 154 -83 246t-237 92q-96 0 -170 -43 t-123 -113t-73.5 -156t-24.5 -172q0 -150 83 -244t236 -94q96 0 169 44t122 114t75 156t26 170zM1360 1686q-45 -154 -106.5 -233t-159.5 -79q-57 0 -103.5 18.5t-84.5 42t-69.5 42t-60.5 18.5q-18 0 -30.5 -12.5t-21.5 -28.5t-14 -33.5t-5 -27.5h-201q43 152 104.5 229.5 t159.5 77.5q57 0 104.5 -18.5t85 -40t68.5 -40t59 -18.5q18 0 31.5 12.5t23 28.5t15.5 33.5t8 28.5h197z" />
<glyph unicode="&#xd6;" horiz-adv-x="1497" d="M1468 721q0 -160 -55 -297t-154.5 -238.5t-236.5 -160t-299 -58.5q-131 0 -246 40t-201 116t-135 186.5t-49 249.5q0 160 55.5 297t154.5 238.5t235.5 160t300.5 58.5q131 0 245.5 -40t200.5 -116t135 -186.5t49 -249.5zM1137 713q0 154 -83 246t-237 92q-96 0 -170 -43 t-123 -113t-73.5 -156t-24.5 -172q0 -150 83 -244t236 -94q96 0 169 44t122 114t75 156t26 170zM1335 1534q0 -78 -45 -118t-119 -40q-72 0 -116.5 40t-44.5 118t45 118t116 40q74 0 119 -40t45 -118zM858 1534q0 -78 -45 -118t-117 -40q-74 0 -119 40t-45 118t45.5 118 t118.5 40q72 0 117 -40t45 -118z" />
<glyph unicode="&#xd7;" horiz-adv-x="1077" d="M842 20l-303 306l-301 -306l-166 166l305 301l-307 304l166 165l303 -307l305 307l166 -165l-310 -302l308 -303z" />
<glyph unicode="&#xd8;" horiz-adv-x="1497" d="M1470 735q0 -160 -55 -299t-154.5 -243.5t-236.5 -165t-299 -60.5q-100 0 -189.5 22.5t-166.5 63.5l-162 -190h-156l219 262q-82 74 -129 179.5t-47 242.5q0 158 55.5 297t154.5 243.5t235.5 165t298.5 60.5q100 0 191 -21.5t165 -66.5l162 192h160l-220 -260 q80 -76 127 -181.5t47 -240.5zM1010 995q-78 55 -191 56q-96 0 -170 -43t-123 -113t-74.5 -156t-25.5 -172q0 -57 14.5 -106t38.5 -90zM819 600q-51 -59 -98 -114.5t-84 -100.5q-43 -53 -84 -98q80 -57 195 -58q96 0 168.5 44t121.5 114t75 156t26 170q0 57 -14.5 107 t-39.5 91z" />
<glyph unicode="&#xd9;" horiz-adv-x="1357" d="M647 -31q-262 0 -403.5 110.5t-143.5 313.5q0 35 7.5 82t15.5 84l141 721h326l-139 -727q-6 -27 -11.5 -54.5t-5.5 -56.5q0 -207 232 -206q113 0 169 66.5t78 176.5l156 801h324l-158 -815q-47 -252 -197.5 -374t-390.5 -122zM745 1368l-272 379h346l129 -379h-203z" />
<glyph unicode="&#xda;" horiz-adv-x="1357" d="M647 -31q-262 0 -403.5 110.5t-143.5 313.5q0 35 7.5 82t15.5 84l141 721h326l-139 -727q-6 -27 -11.5 -54.5t-5.5 -56.5q0 -207 232 -206q113 0 169 66.5t78 176.5l156 801h324l-158 -815q-47 -252 -197.5 -374t-390.5 -122zM920 1368h-203l276 379h348z" />
<glyph unicode="&#xdb;" horiz-adv-x="1357" d="M647 -31q-262 0 -403.5 110.5t-143.5 313.5q0 35 7.5 82t15.5 84l141 721h326l-139 -727q-6 -27 -11.5 -54.5t-5.5 -56.5q0 -207 232 -206q113 0 169 66.5t78 176.5l156 801h324l-158 -815q-47 -252 -197.5 -374t-390.5 -122zM979 1368l-94 221h-4l-176 -221h-256 l315 383h285l170 -383h-240z" />
<glyph unicode="&#xdc;" horiz-adv-x="1357" d="M647 -31q-262 0 -403.5 110.5t-143.5 313.5q0 35 7.5 82t15.5 84l141 721h326l-139 -727q-6 -27 -11.5 -54.5t-5.5 -56.5q0 -207 232 -206q113 0 169 66.5t78 176.5l156 801h324l-158 -815q-47 -252 -197.5 -374t-390.5 -122zM1245 1534q0 -78 -45 -118t-119 -40 q-72 0 -116.5 40t-44.5 118t45 118t116 40q74 0 119 -40t45 -118zM768 1534q0 -78 -45 -118t-117 -40q-74 0 -119 40t-45 118t45 118t119 40q72 0 117 -40t45 -118z" />
<glyph unicode="&#xdd;" horiz-adv-x="1251" d="M791 483l-95 -483h-319l94 489l-293 791h334l168 -510l354 510h355zM846 1368h-203l277 379h348z" />
<glyph unicode="&#xde;" horiz-adv-x="1216" d="M1192 690q0 -104 -37 -195.5t-110.5 -158t-186.5 -105t-264 -38.5h-188l-37 -193h-326l248 1280h325l-34 -178h104q119 0 213 -34t159.5 -91t99.5 -131t34 -156zM858 668q0 78 -58.5 127t-172.5 49h-105l-76 -400h156q68 0 116 19.5t79.5 51.5t46 72t14.5 81z" />
<glyph unicode="&#xdf;" horiz-adv-x="1335" d="M211 692l-166 10l10 201l201 45q4 31 10 56q4 23 7 39t6 18q18 96 64 165.5t112.5 113.5t149.5 64.5t175 20.5q100 0 184.5 -24.5t143.5 -69.5t93 -107.5t34 -136.5q0 -98 -39 -151t-85 -84t-84 -52.5t-38 -56.5q0 -20 21.5 -39.5t54.5 -43t71 -52t70.5 -67.5t54 -90.5 t21.5 -118.5q0 -76 -30.5 -142.5t-84 -115.5t-128 -77t-160.5 -28q-123 0 -211 27t-170 70l80 239q66 -43 119 -67.5t116 -24.5q61 0 95 33t34 86q0 33 -18.5 59.5t-45 51t-59.5 49t-59.5 53t-45 63.5t-18.5 80q0 63 33 106.5t73 80t73.5 75.5t33.5 92q0 61 -37.5 100.5 t-107.5 39.5q-72 0 -118 -41t-62 -119l-201 -1022h-309z" />
<glyph unicode="&#xe0;" horiz-adv-x="1050" d="M526 1079l-272 379h346l129 -379h-203zM614 424q-297 -6 -297 -139q0 -47 32 -76t83 -29q43 0 82 18.5t64 41.5zM645 586q31 154 -178 153q-76 0 -156 -20.5t-145 -48.5l-27 241q70 29 170.5 49.5t204.5 20.5q150 0 246 -35t146 -95t59.5 -143t-13.5 -180l-49 -231 q-10 -47 1 -65.5t59 -22.5l-72 -229q-82 -8 -140.5 -1t-96.5 27.5t-58.5 50t-24.5 66.5h-2q-51 -59 -119.5 -104.5t-166.5 -45.5q-61 0 -111.5 21.5t-86.5 58.5t-54.5 85t-18.5 100q0 74 37 137t114 108t195.5 66.5t282.5 11.5z" />
<glyph unicode="&#xe1;" horiz-adv-x="1050" d="M614 424q-297 -6 -297 -139q0 -47 32 -76t83 -29q43 0 82 18.5t64 41.5zM645 586q31 154 -178 153q-76 0 -156 -20.5t-145 -48.5l-27 241q70 29 170.5 49.5t204.5 20.5q150 0 246 -35t146 -95t59.5 -143t-13.5 -180l-49 -231q-10 -47 1 -65.5t59 -22.5l-72 -229 q-82 -8 -140.5 -1t-96.5 27.5t-58.5 50t-24.5 66.5h-2q-51 -59 -119.5 -104.5t-166.5 -45.5q-61 0 -111.5 21.5t-86.5 58.5t-54.5 85t-18.5 100q0 74 37 137t114 108t195.5 66.5t282.5 11.5zM664 1079h-203l276 379h348z" />
<glyph unicode="&#xe2;" horiz-adv-x="1050" d="M614 424q-297 -6 -297 -139q0 -47 32 -76t83 -29q43 0 82 18.5t64 41.5zM645 586q31 154 -178 153q-76 0 -156 -20.5t-145 -48.5l-27 241q70 29 170.5 49.5t204.5 20.5q150 0 246 -35t146 -95t59.5 -143t-13.5 -180l-49 -231q-10 -47 1 -65.5t59 -22.5l-72 -229 q-82 -8 -140.5 -1t-96.5 27.5t-58.5 50t-24.5 66.5h-2q-51 -59 -119.5 -104.5t-166.5 -45.5q-61 0 -111.5 21.5t-86.5 58.5t-54.5 85t-18.5 100q0 74 37 137t114 108t195.5 66.5t282.5 11.5zM745 1079l-94 221h-4l-176 -221h-256l315 383h285l170 -383h-240z" />
<glyph unicode="&#xe3;" horiz-adv-x="1050" d="M614 424q-297 -6 -297 -139q0 -47 32 -76t83 -29q43 0 82 18.5t64 41.5zM645 586q31 154 -178 153q-76 0 -156 -20.5t-145 -48.5l-27 241q70 29 170.5 49.5t204.5 20.5q150 0 246 -35t146 -95t59.5 -143t-13.5 -180l-49 -231q-10 -47 1 -65.5t59 -22.5l-72 -229 q-82 -8 -140.5 -1t-96.5 27.5t-58.5 50t-24.5 66.5h-2q-51 -59 -119.5 -104.5t-166.5 -45.5q-61 0 -111.5 21.5t-86.5 58.5t-54.5 85t-18.5 100q0 74 37 137t114 108t195.5 66.5t282.5 11.5zM1085 1397q-45 -154 -106 -233t-160 -79q-57 0 -103 18.5t-84 42t-70 42t-60 18.5 q-18 0 -30.5 -12t-22 -28.5t-14.5 -34t-5 -27.5h-201q43 152 104.5 229.5t160.5 77.5q57 0 104 -18.5t85 -40t68.5 -40t59.5 -18.5q18 0 31.5 12.5t22.5 29t15.5 33.5t8.5 28h196z" />
<glyph unicode="&#xe4;" horiz-adv-x="1050" d="M614 424q-297 -6 -297 -139q0 -47 32 -76t83 -29q43 0 82 18.5t64 41.5zM645 586q31 154 -178 153q-76 0 -156 -20.5t-145 -48.5l-27 241q70 29 170.5 49.5t204.5 20.5q150 0 246 -35t146 -95t59.5 -143t-13.5 -180l-49 -231q-10 -47 1 -65.5t59 -22.5l-72 -229 q-82 -8 -140.5 -1t-96.5 27.5t-58.5 50t-24.5 66.5h-2q-51 -59 -119.5 -104.5t-166.5 -45.5q-61 0 -111.5 21.5t-86.5 58.5t-54.5 85t-18.5 100q0 74 37 137t114 108t195.5 66.5t282.5 11.5zM1044 1231q0 -78 -45 -118t-118 -40q-72 0 -117 40t-45 118t45 118t117 40 q74 0 118.5 -40t44.5 -118zM567 1231q0 -78 -45 -118t-116 -40q-74 0 -119 40t-45 118t45 118t119 40q72 0 116.5 -40t44.5 -118z" />
<glyph unicode="&#xe5;" horiz-adv-x="1050" d="M614 424q-297 -6 -297 -139q0 -47 32 -76t83 -29q43 0 82 18.5t64 41.5zM645 586q31 154 -178 153q-76 0 -156 -20.5t-145 -48.5l-27 241q70 29 170.5 49.5t204.5 20.5q150 0 246 -35t146 -95t59.5 -143t-13.5 -180l-49 -231q-10 -47 1 -65.5t59 -22.5l-72 -229 q-82 -8 -140.5 -1t-96.5 27.5t-58.5 50t-24.5 66.5h-2q-51 -59 -119.5 -104.5t-166.5 -45.5q-61 0 -111.5 21.5t-86.5 58.5t-54.5 85t-18.5 100q0 74 37 137t114 108t195.5 66.5t282.5 11.5zM940 1325q0 -61 -26.5 -108.5t-69.5 -80t-99.5 -50t-115.5 -17.5 q-53 0 -103.5 14.5t-88.5 42t-61.5 69.5t-23.5 97q0 61 27 108.5t71 81.5t100 51t116 17q53 0 103 -14t88 -42t60.5 -71t22.5 -98zM815 1323q0 68 -46 97.5t-112 29.5q-72 0 -126 -39t-54 -113q0 -66 47 -96.5t113 -30.5q72 0 125 40t53 112z" />
<glyph unicode="&#xe6;" horiz-adv-x="1628" d="M1266 563q6 16 10 44t4 46q0 59 -31.5 91t-89.5 32q-72 0 -126 -56t-77 -159zM639 422q-166 0 -244 -36t-78 -107q0 -49 34 -77t83 -28q59 0 116.5 27.5t104.5 81.5q-10 29 -13 65.5t-3 73.5zM868 887q66 47 141.5 71.5t168.5 24.5q182 0 289.5 -87t107.5 -253 q0 -53 -12.5 -116.5t-32.5 -110.5l-606 -6v-15q0 -49 19.5 -86t53 -61.5t75.5 -35.5t89 -11q76 0 148.5 22.5t120.5 46.5l38 -239q-59 -27 -149 -44.5t-178 -17.5q-158 0 -267.5 52.5t-171.5 150.5q-86 -102 -185 -152.5t-224 -50.5q-66 0 -118 22.5t-88 60.5t-55.5 86 t-19.5 100q0 74 35 137t112 108t196.5 66.5t291.5 11.5l4 25q27 154 -182 153q-33 0 -73 -6t-80 -15t-78.5 -21.5t-71.5 -26.5l-27 241q70 29 171.5 50.5t205.5 21.5q123 0 210 -24.5t142 -71.5z" />
<glyph unicode="&#xe7;" horiz-adv-x="995" d="M418 -18q-80 16 -146.5 53t-114.5 92t-75 128t-27 163q0 117 42 220t118 180t180.5 121t227.5 44q111 0 209 -24.5t176 -71.5l-97 -238q-72 45 -135 67.5t-135 22.5q-68 0 -119 -29.5t-83.5 -75.5t-49 -100.5t-16.5 -105.5q0 -109 64.5 -162t168.5 -53q57 0 115.5 14.5 t112.5 34.5l40 -231q-57 -25 -133.5 -43.5t-169.5 -20.5q-35 -25 -62.5 -44t-43.5 -29q104 -12 163.5 -61.5t59.5 -131.5q0 -53 -26.5 -100t-83 -82t-144.5 -56.5t-211 -23.5l15 143q76 -4 127 3t80.5 20.5t42 34t12.5 45.5q0 47 -56.5 67.5t-167.5 22.5v106l142 101v0z" />
<glyph unicode="&#xe8;" horiz-adv-x="1067" d="M561 1079l-272 379h346l129 -379h-203zM365 395q0 -49 19 -86t52 -61.5t76 -35.5t90 -11q76 0 148.5 22.5t119.5 46.5l39 -239q-59 -27 -150 -44.5t-184 -17.5q-117 0 -213 30t-163.5 88t-105.5 143t-38 194q0 117 42 218t118 177t179.5 120t223.5 44q182 0 290 -87 t108 -253q0 -53 -12.5 -116.5t-32.5 -110.5l-606 -6v-15zM707 563q6 16 10 44t4 46q0 59 -32 91t-89 32q-72 0 -126 -56t-77 -159z" />
<glyph unicode="&#xe9;" horiz-adv-x="1067" d="M365 395q0 -49 19 -86t52 -61.5t76 -35.5t90 -11q76 0 148.5 22.5t119.5 46.5l39 -239q-59 -27 -150 -44.5t-184 -17.5q-117 0 -213 30t-163.5 88t-105.5 143t-38 194q0 117 42 218t118 177t179.5 120t223.5 44q182 0 290 -87t108 -253q0 -53 -12.5 -116.5t-32.5 -110.5 l-606 -6v-15zM707 563q6 16 10 44t4 46q0 59 -32 91t-89 32q-72 0 -126 -56t-77 -159zM717 1079h-203l277 379h348z" />
<glyph unicode="&#xea;" horiz-adv-x="1067" d="M365 395q0 -49 19 -86t52 -61.5t76 -35.5t90 -11q76 0 148.5 22.5t119.5 46.5l39 -239q-59 -27 -150 -44.5t-184 -17.5q-117 0 -213 30t-163.5 88t-105.5 143t-38 194q0 117 42 218t118 177t179.5 120t223.5 44q182 0 290 -87t108 -253q0 -53 -12.5 -116.5t-32.5 -110.5 l-606 -6v-15zM707 563q6 16 10 44t4 46q0 59 -32 91t-89 32q-72 0 -126 -56t-77 -159zM764 1079l-94 221h-4l-177 -221h-256l316 383h285l170 -383h-240z" />
<glyph unicode="&#xeb;" horiz-adv-x="1067" d="M365 395q0 -49 19 -86t52 -61.5t76 -35.5t90 -11q76 0 148.5 22.5t119.5 46.5l39 -239q-59 -27 -150 -44.5t-184 -17.5q-117 0 -213 30t-163.5 88t-105.5 143t-38 194q0 117 42 218t118 177t179.5 120t223.5 44q182 0 290 -87t108 -253q0 -53 -12.5 -116.5t-32.5 -110.5 l-606 -6v-15zM707 563q6 16 10 44t4 46q0 59 -32 91t-89 32q-72 0 -126 -56t-77 -159zM1065 1231q0 -78 -45 -118t-119 -40q-72 0 -117 40t-45 118t45 118t117 40q74 0 119 -40t45 -118zM588 1231q0 -78 -45 -118t-117 -40q-74 0 -119 40t-45 118t45 118t119 40 q72 0 117 -40t45 -118z" />
<glyph unicode="&#xec;" horiz-adv-x="540" d="M315 1079l-272 379h346l129 -379h-203zM29 0l184 948l322 27l-189 -975h-317z" />
<glyph unicode="&#xed;" horiz-adv-x="540" d="M459 1079h-203l276 379h349zM29 0l184 948l322 27l-189 -975h-317z" />
<glyph unicode="&#xee;" horiz-adv-x="540" d="M29 0l184 948l322 27l-189 -975h-317zM543 1079l-94 221h-5l-176 -221h-256l316 383h284l170 -383h-239z" />
<glyph unicode="&#xef;" horiz-adv-x="540" d="M821 1231q0 -78 -45 -118t-119 -40q-72 0 -116.5 40t-44.5 118t45 118t116 40q74 0 119 -40t45 -118zM344 1231q0 -78 -45 -118t-117 -40q-74 0 -119 40t-45 118t45.5 118t118.5 40q72 0 117 -40t45 -118zM29 0l184 948l322 27l-189 -975h-317z" />
<glyph unicode="&#xf0;" horiz-adv-x="1173" d="M784 567q0 20 -1 37t-3 33q-23 35 -73 57.5t-109 22.5q-45 0 -85 -29t-70.5 -75t-49 -102t-18.5 -112q0 -98 51 -148t127 -50q49 0 92 29.5t74 79.5t48 116.5t17 140.5zM1120 627q0 -137 -42 -257t-118.5 -209t-185 -141.5t-244.5 -52.5q-102 0 -190 33t-151.5 91.5 t-99.5 139t-36 177.5q0 123 43 220t110.5 165.5t151.5 104.5t168 36q82 0 142.5 -30t103.5 -81l4 2q-25 53 -64.5 124t-88.5 141l-240 -64l-37 166l164 43q-31 35 -64.5 71.5t-70.5 73.5l373 33q20 -23 40.5 -45t40.5 -47l246 63l35 -167l-170 -46q78 -123 129 -262t51 -282 z" />
<glyph unicode="&#xf1;" horiz-adv-x="1153" d="M645 0l103 530q4 16 7 39t3 41q0 51 -29 80t-88 29q-49 0 -97 -30t-85 -73l-119 -616h-317l180 936l325 39l-28 -156q66 66 149.5 115t169.5 49q68 0 119 -20.5t85 -56.5t51.5 -84t17.5 -101q0 -23 -3.5 -48.5t-7.5 -47.5l-120 -625h-316zM1159 1397 q-45 -154 -106.5 -233t-159.5 -79q-57 0 -103.5 18.5t-84 42t-69.5 42t-61 18.5q-18 0 -30.5 -12t-21.5 -28.5t-14 -34t-5 -27.5h-201q43 152 104.5 229.5t159.5 77.5q57 0 104.5 -18.5t85.5 -40t68.5 -40t59.5 -18.5q18 0 31.5 12.5t22.5 29t15.5 33.5t8.5 28h196z" />
<glyph unicode="&#xf2;" horiz-adv-x="1153" d="M575 1079l-272 379h346l129 -379h-203zM1090 528q0 -115 -40 -217t-113 -178t-175.5 -120t-226.5 -44q-104 0 -192.5 32t-152 90.5t-99.5 142t-36 188.5q0 115 40 217t114 179t177 121t228 44q106 0 193.5 -32.5t150 -93t97.5 -145t35 -184.5zM772 547q0 98 -44 152.5 t-122 54.5q-59 0 -103 -33t-74 -84t-45 -113.5t-15 -120.5q0 -98 45 -152t127 -54q53 0 96 28.5t72.5 77.5t46 112.5t16.5 131.5z" />
<glyph unicode="&#xf3;" horiz-adv-x="1153" d="M1090 528q0 -115 -40 -217t-113 -178t-175.5 -120t-226.5 -44q-104 0 -192.5 32t-152 90.5t-99.5 142t-36 188.5q0 115 40 217t114 179t177 121t228 44q106 0 193.5 -32.5t150 -93t97.5 -145t35 -184.5zM772 547q0 98 -44 152.5t-122 54.5q-59 0 -103 -33t-74 -84 t-45 -113.5t-15 -120.5q0 -98 45 -152t127 -54q53 0 96 28.5t72.5 77.5t46 112.5t16.5 131.5zM725 1079h-203l277 379h348z" />
<glyph unicode="&#xf4;" horiz-adv-x="1153" d="M1090 528q0 -115 -40 -217t-113 -178t-175.5 -120t-226.5 -44q-104 0 -192.5 32t-152 90.5t-99.5 142t-36 188.5q0 115 40 217t114 179t177 121t228 44q106 0 193.5 -32.5t150 -93t97.5 -145t35 -184.5zM772 547q0 98 -44 152.5t-122 54.5q-59 0 -103 -33t-74 -84 t-45 -113.5t-15 -120.5q0 -98 45 -152t127 -54q53 0 96 28.5t72.5 77.5t46 112.5t16.5 131.5zM846 1079l-94 221h-4l-177 -221h-256l316 383h284l170 -383h-239z" />
<glyph unicode="&#xf5;" horiz-adv-x="1153" d="M1090 528q0 -115 -40 -217t-113 -178t-175.5 -120t-226.5 -44q-104 0 -192.5 32t-152 90.5t-99.5 142t-36 188.5q0 115 40 217t114 179t177 121t228 44q106 0 193.5 -32.5t150 -93t97.5 -145t35 -184.5zM772 547q0 98 -44 152.5t-122 54.5q-59 0 -103 -33t-74 -84 t-45 -113.5t-15 -120.5q0 -98 45 -152t127 -54q53 0 96 28.5t72.5 77.5t46 112.5t16.5 131.5zM1159 1397q-45 -154 -106.5 -233t-159.5 -79q-57 0 -103.5 18.5t-84 42t-69.5 42t-61 18.5q-18 0 -30.5 -12t-21.5 -28.5t-14 -34t-5 -27.5h-201q43 152 104.5 229.5t159.5 77.5 q57 0 104.5 -18.5t85.5 -40t68.5 -40t59.5 -18.5q18 0 31.5 12.5t22.5 29t15.5 33.5t8.5 28h196z" />
<glyph unicode="&#xf6;" horiz-adv-x="1153" d="M1090 528q0 -115 -40 -217t-113 -178t-175.5 -120t-226.5 -44q-104 0 -192.5 32t-152 90.5t-99.5 142t-36 188.5q0 115 40 217t114 179t177 121t228 44q106 0 193.5 -32.5t150 -93t97.5 -145t35 -184.5zM772 547q0 98 -44 152.5t-122 54.5q-59 0 -103 -33t-74 -84 t-45 -113.5t-15 -120.5q0 -98 45 -152t127 -54q53 0 96 28.5t72.5 77.5t46 112.5t16.5 131.5zM1116 1231q0 -78 -45 -118t-119 -40q-72 0 -116.5 40t-44.5 118t45 118t116 40q74 0 119 -40t45 -118zM639 1231q0 -78 -45 -118t-117 -40q-74 0 -119 40t-45 118t45 118t119 40 q72 0 117 -40t45 -118z" />
<glyph unicode="&#xf7;" horiz-adv-x="1077" d="M70 371l6 237h928l6 -237h-940zM707 111q0 -72 -46.5 -116t-119.5 -44q-74 0 -120 44t-46 116t46 115.5t120 43.5t120 -43.5t46 -115.5zM707 868q0 -72 -46.5 -115.5t-121.5 -43.5q-74 0 -119 44t-45 115q0 72 45 116t119 44q76 0 122 -44t46 -116z" />
<glyph unicode="&#xf8;" horiz-adv-x="1153" d="M1104 545q0 -119 -40 -223.5t-113.5 -183.5t-177 -124t-228.5 -45q-145 0 -252 56l-137 -162h-158l192 231q-61 59 -95 139t-34 181q0 119 41 222t116 180t178.5 122t228.5 45q145 0 254 -59l127 153h161q-45 -53 -82 -98q-33 -39 -64.5 -76t-41.5 -51q59 -57 92 -135 t33 -172zM729 733q-45 39 -115 39q-57 0 -103 -30.5t-78 -81t-49 -115t-17 -131.5q0 -57 16 -92zM801 537q0 25 -3 47t-14 39q-25 -31 -53 -64q-25 -29 -55.5 -64.5t-63.5 -74.5q-76 -90 -172 -203q47 -35 111 -35q55 0 101 30t79 79t51.5 113.5t18.5 132.5z" />
<glyph unicode="&#xf9;" horiz-adv-x="1142" d="M588 1079l-273 379h347l129 -379h-203zM514 952l-102 -530q-4 -16 -7.5 -39t-3.5 -41q0 -51 28 -80t89 -29q47 0 90 24t76 58l123 637h315l-184 -944l-322 -39l31 160q-29 -31 -64.5 -59.5t-75.5 -51t-84 -36t-87 -13.5q-139 0 -203.5 72t-64.5 180q0 29 4 62.5t8 62.5 l117 606h317z" />
<glyph unicode="&#xfa;" horiz-adv-x="1142" d="M514 952l-102 -530q-4 -16 -7.5 -39t-3.5 -41q0 -51 28 -80t89 -29q47 0 90 24t76 58l123 637h315l-184 -944l-322 -39l31 160q-29 -31 -64.5 -59.5t-75.5 -51t-84 -36t-87 -13.5q-139 0 -203.5 72t-64.5 180q0 29 4 62.5t8 62.5l117 606h317zM786 1079h-202l276 379h348 z" />
<glyph unicode="&#xfb;" horiz-adv-x="1142" d="M514 952l-102 -530q-4 -16 -7.5 -39t-3.5 -41q0 -51 28 -80t89 -29q47 0 90 24t76 58l123 637h315l-184 -944l-322 -39l31 160q-29 -31 -64.5 -59.5t-75.5 -51t-84 -36t-87 -13.5q-139 0 -203.5 72t-64.5 180q0 29 4 62.5t8 62.5l117 606h317zM809 1079l-94 221h-4 l-176 -221h-256l315 383h285l170 -383h-240z" />
<glyph unicode="&#xfc;" horiz-adv-x="1142" d="M514 952l-102 -530q-4 -16 -7.5 -39t-3.5 -41q0 -51 28 -80t89 -29q47 0 90 24t76 58l123 637h315l-184 -944l-322 -39l31 160q-29 -31 -64.5 -59.5t-75.5 -51t-84 -36t-87 -13.5q-139 0 -203.5 72t-64.5 180q0 29 4 62.5t8 62.5l117 606h317zM1096 1231q0 -78 -45 -118 t-119 -40q-72 0 -117 40t-45 118t45 118t117 40q74 0 119 -40t45 -118zM618 1231q0 -78 -45 -118t-116 -40q-74 0 -119 40t-45 118t45 118t119 40q72 0 116.5 -40t44.5 -118z" />
<glyph unicode="&#xfd;" horiz-adv-x="1011" d="M-74 -127q39 -27 66.5 -41t68.5 -14t68 17.5t59 70.5l48 78l-170 968h321l76 -643l307 643h332l-510 -946l-88 -156q-47 -84 -93 -142t-97.5 -93t-107.5 -50.5t-122 -15.5q-78 0 -154.5 30t-130.5 65zM672 1079h-203l276 379h349z" />
<glyph unicode="&#xfe;" horiz-adv-x="1171" d="M510 877q47 41 104.5 73.5t141.5 32.5q76 0 140.5 -29.5t112.5 -84t75.5 -133.5t27.5 -177q0 -129 -41 -236.5t-113.5 -185.5t-171 -122t-215.5 -44q-66 0 -123 17.5t-106 42.5l-86 -455h-315l348 1790l321 27zM387 270q31 -29 70 -49t92 -20q55 0 101 28.5t78 74.5 t49.5 105.5t17.5 122.5q0 100 -48.5 156.5t-119.5 56.5q-51 0 -87 -17t-67 -40z" />
<glyph unicode="&#xff;" horiz-adv-x="1011" d="M-74 -127q39 -27 66.5 -41t68.5 -14t68 17.5t59 70.5l48 78l-170 968h321l76 -643l307 643h332l-510 -946l-88 -156q-47 -84 -93 -142t-97.5 -93t-107.5 -50.5t-122 -15.5q-78 0 -154.5 30t-130.5 65zM1024 1245q0 -78 -45 -118t-119 -40q-72 0 -117 40t-45 118t45 118 t117 40q74 0 119 -40t45 -118zM547 1245q0 -78 -45 -118t-117 -40q-74 0 -119 40t-45 118t45 118t119 40q72 0 117 -40t45 -118z" />
<glyph unicode="&#x100;" horiz-adv-x="1323" d="M1237 0h-324l-36 272h-490l-154 -272h-335l741 1280h401zM793 1012l-269 -480h322zM518 1452l29 179h698l17 -179h-744z" />
<glyph unicode="&#x101;" horiz-adv-x="1050" d="M614 424q-297 -6 -297 -139q0 -47 32 -76t83 -29q43 0 82 18.5t64 41.5zM645 586q31 154 -178 153q-76 0 -156 -20.5t-145 -48.5l-27 241q70 29 170.5 49.5t204.5 20.5q150 0 246 -35t146 -95t59.5 -143t-13.5 -180l-49 -231q-10 -47 1 -65.5t59 -22.5l-72 -229 q-82 -8 -140.5 -1t-96.5 27.5t-58.5 50t-24.5 66.5h-2q-51 -59 -119.5 -104.5t-166.5 -45.5q-61 0 -111.5 21.5t-86.5 58.5t-54.5 85t-18.5 100q0 74 37 137t114 108t195.5 66.5t282.5 11.5zM235 1124l29 179h698l17 -179h-744z" />
<glyph unicode="&#x102;" horiz-adv-x="1323" d="M1237 0h-324l-36 272h-490l-154 -272h-335l741 1280h401zM793 1012l-269 -480h322zM1297 1782q-29 -102 -77 -176t-107.5 -121t-128 -70.5t-136.5 -23.5t-127 23.5t-101 70.5t-61.5 121t-9.5 176l185 -2q0 -92 33.5 -149.5t109.5 -57.5q80 0 134 57.5t87 149.5l199 2v0z " />
<glyph unicode="&#x103;" horiz-adv-x="1050" d="M614 424q-297 -6 -297 -139q0 -47 32 -76t83 -29q43 0 82 18.5t64 41.5zM645 586q31 154 -178 153q-76 0 -156 -20.5t-145 -48.5l-27 241q70 29 170.5 49.5t204.5 20.5q150 0 246 -35t146 -95t59.5 -143t-13.5 -180l-49 -231q-10 -47 1 -65.5t59 -22.5l-72 -229 q-82 -8 -140.5 -1t-96.5 27.5t-58.5 50t-24.5 66.5h-2q-51 -59 -119.5 -104.5t-166.5 -45.5q-61 0 -111.5 21.5t-86.5 58.5t-54.5 85t-18.5 100q0 74 37 137t114 108t195.5 66.5t282.5 11.5zM1002 1454q-29 -102 -77 -176t-107.5 -121t-128 -70.5t-136.5 -23.5t-127 23.5 t-101 70.5t-61.5 121t-9.5 176l185 -2q0 -92 33.5 -149.5t109.5 -57.5q80 0 134 57.5t87 149.5l199 2v0z" />
<glyph unicode="&#x104;" horiz-adv-x="1323" d="M1237 0q-55 -4 -106.5 -18.5t-90.5 -36t-63.5 -51t-30.5 -62.5q-12 -92 72 -96q29 0 57.5 6t50.5 18l15 -159q-45 -23 -99.5 -38.5t-126.5 -13.5q-113 4 -167 66.5t-35 161.5q14 78 69.5 133t130.5 90l-36 272h-490l-154 -272h-335l741 1280h401zM793 1012l-269 -480h322 z" />
<glyph unicode="&#x105;" horiz-adv-x="1050" d="M645 586q31 154 -178 153q-76 0 -156 -20.5t-145 -48.5l-27 241q70 29 170.5 49.5t204.5 20.5q150 0 246 -35t146 -95t59.5 -143t-13.5 -180l-49 -231q-10 -47 1 -65.5t59 -22.5l-72 -229q-86 0 -150.5 -41t-78.5 -107q-16 -92 69 -96q29 0 58.5 6t52.5 18l12 -159 q-43 -23 -97.5 -38.5t-127.5 -13.5q-111 4 -166 66.5t-37 161.5q16 82 78.5 139t144.5 92q-68 39 -78 115h-2q-51 -59 -119.5 -104.5t-166.5 -45.5q-61 0 -111.5 21.5t-86.5 58.5t-54.5 85t-18.5 100q0 74 37 137t114 108t195.5 66.5t282.5 11.5zM614 424q-297 -6 -297 -139 q0 -47 32 -76t83 -29q43 0 82 18.5t64 41.5z" />
<glyph unicode="&#x106;" horiz-adv-x="1253" d="M841 1407h-202l276 379h348zM1231 950q-100 39 -194.5 59.5t-184.5 20.5q-106 0 -187 -33.5t-135.5 -93t-82 -138.5t-27.5 -169t26.5 -155.5t73.5 -108.5t113.5 -63.5t144.5 -20.5t158 20.5t151 50.5l54 -272q-98 -43 -195.5 -60.5t-185.5 -17.5q-154 0 -278 41t-211 118 t-134 185.5t-47 243.5q0 150 49 286t145.5 240.5t241 166t332.5 61.5q113 0 219.5 -19.5t210.5 -54.5z" />
<glyph unicode="&#x107;" horiz-adv-x="995" d="M632 1079h-202l276 379h348zM874 31q-59 -27 -139 -45.5t-176 -18.5q-104 0 -196.5 30t-161 87t-107.5 141t-39 193q0 117 42 220t118 180t180.5 121t227.5 44q111 0 209 -24.5t176 -71.5l-97 -238q-72 45 -135 67.5t-135 22.5q-68 0 -119 -29.5t-83.5 -75.5t-49 -100.5 t-16.5 -105.5q0 -109 64.5 -162t168.5 -53q57 0 115.5 14.5t112.5 34.5l40 -231v0z" />
<glyph unicode="&#x108;" horiz-adv-x="1253" d="M967 1407l-94 221h-5l-176 -221h-256l316 383h284l170 -383h-239zM1231 950q-100 39 -194.5 59.5t-184.5 20.5q-106 0 -187 -33.5t-135.5 -93t-82 -138.5t-27.5 -169t26.5 -155.5t73.5 -108.5t113.5 -63.5t144.5 -20.5t158 20.5t151 50.5l54 -272q-98 -43 -195.5 -60.5 t-185.5 -17.5q-154 0 -278 41t-211 118t-134 185.5t-47 243.5q0 150 49 286t145.5 240.5t241 166t332.5 61.5q113 0 219.5 -19.5t210.5 -54.5z" />
<glyph unicode="&#x109;" horiz-adv-x="995" d="M770 1079l-94 221h-5l-176 -221h-256l316 383h284l170 -383h-239zM874 31q-59 -27 -139 -45.5t-176 -18.5q-104 0 -196.5 30t-161 87t-107.5 141t-39 193q0 117 42 220t118 180t180.5 121t227.5 44q111 0 209 -24.5t176 -71.5l-97 -238q-72 45 -135 67.5t-135 22.5 q-68 0 -119 -29.5t-83.5 -75.5t-49 -100.5t-16.5 -105.5q0 -109 64.5 -162t168.5 -53q57 0 115.5 14.5t112.5 34.5l40 -231v0z" />
<glyph unicode="&#x10a;" horiz-adv-x="1253" d="M1231 950q-100 39 -194.5 59.5t-184.5 20.5q-106 0 -187 -33.5t-135.5 -93t-82 -138.5t-27.5 -169t26.5 -155.5t73.5 -108.5t113.5 -63.5t144.5 -20.5t158 20.5t151 50.5l54 -272q-98 -43 -195.5 -60.5t-185.5 -17.5q-154 0 -278 41t-211 118t-134 185.5t-47 243.5 q0 150 49 286t145.5 240.5t241 166t332.5 61.5q113 0 219.5 -19.5t210.5 -54.5zM1040 1557q-4 -74 -53 -126t-127 -52t-123 52t-41 126q2 33 16.5 65.5t39 57t57 40t71.5 15.5q78 0 121 -53t39 -125z" />
<glyph unicode="&#x10b;" horiz-adv-x="995" d="M874 31q-59 -27 -139 -45.5t-176 -18.5q-104 0 -196.5 30t-161 87t-107.5 141t-39 193q0 117 42 220t118 180t180.5 121t227.5 44q111 0 209 -24.5t176 -71.5l-97 -238q-72 45 -135 67.5t-135 22.5q-68 0 -119 -29.5t-83.5 -75.5t-49 -100.5t-16.5 -105.5 q0 -109 64.5 -162t168.5 -53q57 0 115.5 14.5t112.5 34.5l40 -231v0zM831 1229q-4 -74 -53 -126t-127 -52t-123 52t-41 126q2 33 16.5 65.5t39 57t57 40t71.5 15.5q78 0 121 -53t39 -125z" />
<glyph unicode="&#x10c;" horiz-adv-x="1253" d="M725 1790l90 -225h4l176 225h258l-317 -383h-285l-168 383h242zM1231 950q-100 39 -194.5 59.5t-184.5 20.5q-106 0 -187 -33.5t-135.5 -93t-82 -138.5t-27.5 -169t26.5 -155.5t73.5 -108.5t113.5 -63.5t144.5 -20.5t158 20.5t151 50.5l54 -272q-98 -43 -195.5 -60.5 t-185.5 -17.5q-154 0 -278 41t-211 118t-134 185.5t-47 243.5q0 150 49 286t145.5 240.5t241 166t332.5 61.5q113 0 219.5 -19.5t210.5 -54.5z" />
<glyph unicode="&#x10d;" horiz-adv-x="995" d="M557 1462l90 -225h4l176 225h258l-317 -383h-285l-168 383h242zM874 31q-59 -27 -139 -45.5t-176 -18.5q-104 0 -196.5 30t-161 87t-107.5 141t-39 193q0 117 42 220t118 180t180.5 121t227.5 44q111 0 209 -24.5t176 -71.5l-97 -238q-72 45 -135 67.5t-135 22.5 q-68 0 -119 -29.5t-83.5 -75.5t-49 -100.5t-16.5 -105.5q0 -109 64.5 -162t168.5 -53q57 0 115.5 14.5t112.5 34.5l40 -231v0z" />
<glyph unicode="&#x10e;" horiz-adv-x="1392" d="M647 1790l90 -225h4l176 225h258l-317 -383h-285l-168 383h242zM1356 733q0 -145 -46 -277t-145.5 -233.5t-257 -162t-381.5 -60.5h-483l248 1280h422q135 0 252.5 -35t203.5 -104.5t136.5 -171t50.5 -236.5zM1028 715q0 156 -95 229.5t-255 75.5h-113l-147 -760h162 q98 0 180 28.5t141.5 86t93 142.5t33.5 198z" />
<glyph unicode="&#x10f;" horiz-adv-x="1724" d="M1372 1225q16 78 70.5 125t140.5 47q49 0 90 -19.5t71.5 -52t47 -76.5t16.5 -94q0 -84 -42 -154.5t-106.5 -128t-141.5 -99.5t-144 -66l-113 129q27 12 70 37.5t82 58.5t67.5 70t28.5 74q0 55 -42 88.5t-95 60.5zM915 1366l320 27l-270 -1393h-314l13 76 q-47 -41 -108.5 -74t-149.5 -33q-74 0 -137.5 29t-110.5 84t-75 133t-28 176q0 129 42 236.5t116 185.5t174 122t217 44q66 0 122 -16.5t105 -40.5zM784 682q-29 29 -68.5 49.5t-90.5 20.5q-57 0 -102.5 -29t-77 -75t-49 -106.5t-17.5 -123.5q0 -100 48 -156.5t120 -56.5 q51 0 87 18.5t64 40.5z" />
<glyph unicode="&#x110;" horiz-adv-x="1447" d="M821 772v-250h-297l-51 -262h160q98 0 180 28.5t142.5 86t93 142.5t32.5 198q0 156 -95 229.5t-253 75.5h-110l-50 -248h248zM66 522v250h182l98 508h420q135 0 253 -35t206 -104.5t138 -171t50 -236.5q0 -145 -46 -277t-146.5 -233.5t-258 -162t-380.5 -60.5h-484 l101 522h-133z" />
<glyph unicode="&#x111;" horiz-adv-x="1169" d="M858 1061h-233l45 178h221l24 127l320 27l-31 -154h137l2 -178h-174l-204 -1061h-314l13 76q-47 -41 -108.5 -74t-149.5 -33q-74 0 -137.5 29t-110.5 84t-75 133t-28 176q0 129 42 236.5t116 185.5t174 122t217 44q66 0 122 -16.5t105 -40.5zM784 682q-29 29 -68.5 49.5 t-90.5 20.5q-57 0 -102.5 -29t-77 -75t-49 -106.5t-17.5 -123.5q0 -100 48 -156.5t120 -56.5q51 0 87 18.5t64 40.5z" />
<glyph unicode="&#x112;" horiz-adv-x="1157" d="M43 0l248 1280h936l-49 -262h-619l-47 -246h510l-51 -260h-510l-47 -250h616l-51 -262h-936zM403 1452l29 179h698l17 -179h-744z" />
<glyph unicode="&#x113;" horiz-adv-x="1067" d="M365 395q0 -49 19 -86t52 -61.5t76 -35.5t90 -11q76 0 148.5 22.5t119.5 46.5l39 -239q-59 -27 -150 -44.5t-184 -17.5q-117 0 -213 30t-163.5 88t-105.5 143t-38 194q0 117 42 218t118 177t179.5 120t223.5 44q182 0 290 -87t108 -253q0 -53 -12.5 -116.5t-32.5 -110.5 l-606 -6v-15zM707 563q6 16 10 44t4 46q0 59 -32 91t-89 32q-72 0 -126 -56t-77 -159zM282 1124l29 179h698l17 -179h-744z" />
<glyph unicode="&#x114;" horiz-adv-x="1157" d="M43 0l248 1280h936l-49 -262h-619l-47 -246h510l-51 -260h-510l-47 -250h616l-51 -262h-936zM1219 1782q-29 -102 -77 -176t-107.5 -121t-128 -70.5t-136.5 -23.5t-127 23.5t-101 70.5t-61.5 121t-9.5 176l185 -2q0 -92 33.5 -149.5t109.5 -57.5q80 0 134 57.5t87 149.5 l199 2v0z" />
<glyph unicode="&#x115;" horiz-adv-x="1067" d="M365 395q0 -49 19 -86t52 -61.5t76 -35.5t90 -11q76 0 148.5 22.5t119.5 46.5l39 -239q-59 -27 -150 -44.5t-184 -17.5q-117 0 -213 30t-163.5 88t-105.5 143t-38 194q0 117 42 218t118 177t179.5 120t223.5 44q182 0 290 -87t108 -253q0 -53 -12.5 -116.5t-32.5 -110.5 l-606 -6v-15zM707 563q6 16 10 44t4 46q0 59 -32 91t-89 32q-72 0 -126 -56t-77 -159zM1071 1454q-29 -102 -77 -176t-107.5 -121t-128 -70.5t-136.5 -23.5t-127 23.5t-101 70.5t-61.5 121t-9.5 176l185 -2q0 -92 33.5 -149.5t109.5 -57.5q80 0 134 57.5t87 149.5l199 2v0z " />
<glyph unicode="&#x116;" horiz-adv-x="1157" d="M43 0l248 1280h936l-49 -262h-619l-47 -246h510l-51 -260h-510l-47 -250h616l-51 -262h-936zM977 1557q-4 -74 -53 -126t-127 -52t-123 52t-41 126q2 33 16.5 65.5t39 57t57 40t71.5 15.5q78 0 121 -53t39 -125z" />
<glyph unicode="&#x117;" horiz-adv-x="1067" d="M365 395q0 -49 19 -86t52 -61.5t76 -35.5t90 -11q76 0 148.5 22.5t119.5 46.5l39 -239q-59 -27 -150 -44.5t-184 -17.5q-117 0 -213 30t-163.5 88t-105.5 143t-38 194q0 117 42 218t118 177t179.5 120t223.5 44q182 0 290 -87t108 -253q0 -53 -12.5 -116.5t-32.5 -110.5 l-606 -6v-15zM707 563q6 16 10 44t4 46q0 59 -32 91t-89 32q-72 0 -126 -56t-77 -159zM831 1229q-4 -74 -53 -126t-127 -52t-123 52t-41 126q2 33 16.5 65.5t39 57t57 40t71.5 15.5q78 0 121 -53t39 -125z" />
<glyph unicode="&#x118;" horiz-adv-x="1157" d="M895 0q-59 -37 -97 -79t-48 -89q-16 -92 71 -96q29 0 57.5 6t51.5 18l14 -159q-45 -23 -99 -38.5t-126 -13.5q-113 4 -167 66.5t-36 161.5q14 78 69.5 133t131.5 90h-674l248 1280h936l-49 -262h-619l-47 -246h510l-51 -260h-510l-47 -250h616l-51 -262h-84z" />
<glyph unicode="&#x119;" horiz-adv-x="1067" d="M365 397q0 -51 19 -88t52 -61.5t76 -35.5t90 -11q76 0 148.5 22.5t119.5 46.5l39 -239q-88 -23 -150.5 -81.5t-74.5 -117.5q-10 -45 10.5 -69.5t61.5 -26.5q29 0 57.5 6t50.5 18l15 -159q-45 -23 -99.5 -38.5t-126.5 -13.5q-113 4 -167 66.5t-35 161.5q10 61 50 109 t93 83h-19q-117 0 -213 30t-163.5 88t-105.5 143t-38 194q0 117 42 218t118 177t179.5 120t223.5 44q182 0 290 -87t108 -253q0 -53 -12.5 -115.5t-32.5 -111.5l-606 -6v-13zM707 563q6 16 10 44t4 46q0 59 -32 91t-89 32q-72 0 -126 -56t-77 -159z" />
<glyph unicode="&#x11a;" horiz-adv-x="1157" d="M709 1790l90 -225h4l176 225h258l-317 -383h-285l-168 383h242zM43 0l248 1280h936l-49 -262h-619l-47 -246h510l-51 -260h-510l-47 -250h616l-51 -262h-936z" />
<glyph unicode="&#x11b;" horiz-adv-x="1067" d="M570 1462l90 -225h4l176 225h258l-317 -383h-285l-168 383h242zM365 395q0 -49 19 -86t52 -61.5t76 -35.5t90 -11q76 0 148.5 22.5t119.5 46.5l39 -239q-59 -27 -150 -44.5t-184 -17.5q-117 0 -213 30t-163.5 88t-105.5 143t-38 194q0 117 42 218t118 177t179.5 120 t223.5 44q182 0 290 -87t108 -253q0 -53 -12.5 -116.5t-32.5 -110.5l-606 -6v-15zM707 563q6 16 10 44t4 46q0 59 -32 91t-89 32q-72 0 -126 -56t-77 -159z" />
<glyph unicode="&#x11c;" horiz-adv-x="1376" d="M985 1407l-94 221h-5l-176 -221h-256l316 383h284l170 -383h-239zM1186 47q-94 -37 -203 -57.5t-225 -20.5q-145 0 -267 40t-210 115t-138.5 182.5t-50.5 244.5q0 154 51.5 292t150.5 241.5t244.5 165t333.5 61.5q125 0 233.5 -19.5t215.5 -54.5l-64 -287 q-98 39 -197 60.5t-192 21.5q-113 0 -196.5 -35.5t-139 -98t-83 -146.5t-27.5 -181q-2 -154 84 -246t258 -92q90 0 164 23l43 207h-303l53 258h596l-131 -674v0z" />
<glyph unicode="&#x11d;" horiz-adv-x="1091" d="M754 1079l-94 221h-5l-176 -221h-256l316 383h284l170 -383h-239zM246 334q-78 41 -119 110.5t-41 149.5q0 86 37 157.5t100.5 123t147.5 80t178 28.5q84 0 152.5 -19.5t115.5 -50.5l313 25l9 -240l-191 21q6 -16 12.5 -39t6.5 -47q0 -78 -30 -145.5t-86 -116.5t-138 -78 t-187 -29q-49 0 -89 7.5t-68 15.5q-16 -6 -31.5 -20.5t-15.5 -37.5q0 -33 43 -50t157 -36l39 -6q193 -33 294 -98.5t101 -198.5q0 -80 -42 -144.5t-116.5 -109.5t-177 -69.5t-223.5 -24.5q-258 0 -394 68.5t-136 199.5q0 72 69.5 136.5t198.5 85.5q-59 20 -91 54t-32 97 q0 70 62.5 125.5t171.5 75.5zM528 446q72 0 117 51.5t45 143.5q0 63 -37 104t-108 41q-70 0 -117 -52t-47 -142q0 -61 37.5 -103.5t109.5 -42.5zM252 -70q-39 -10 -67.5 -42.5t-28.5 -73.5q0 -70 73.5 -109t182.5 -39q115 0 179 34t64 79q0 43 -38.5 68.5t-141.5 43.5 q-23 4 -51.5 8.5t-59 9.5t-60 10t-52.5 11z" />
<glyph unicode="&#x11e;" horiz-adv-x="1376" d="M1186 47q-94 -37 -203 -57.5t-225 -20.5q-145 0 -267 40t-210 115t-138.5 182.5t-50.5 244.5q0 154 51.5 292t150.5 241.5t244.5 165t333.5 61.5q125 0 233.5 -19.5t215.5 -54.5l-64 -287q-98 39 -197 60.5t-192 21.5q-113 0 -196.5 -35.5t-139 -98t-83 -146.5 t-27.5 -181q-2 -154 84 -246t258 -92q90 0 164 23l43 207h-303l53 258h596l-131 -674v0zM1297 1782q-29 -102 -77 -176t-107.5 -121t-128 -70.5t-136.5 -23.5t-127 23.5t-101 70.5t-61.5 121t-9.5 176l185 -2q0 -92 33.5 -149.5t109.5 -57.5q80 0 134 57.5t87 149.5l199 2v0 z" />
<glyph unicode="&#x11f;" horiz-adv-x="1091" d="M246 334q-78 41 -119 110.5t-41 149.5q0 86 37 157.5t100.5 123t147.5 80t178 28.5q84 0 152.5 -19.5t115.5 -50.5l313 25l9 -240l-191 21q6 -16 12.5 -39t6.5 -47q0 -78 -30 -145.5t-86 -116.5t-138 -78t-187 -29q-49 0 -89 7.5t-68 15.5q-16 -6 -31.5 -20.5 t-15.5 -37.5q0 -33 43 -50t157 -36l39 -6q193 -33 294 -98.5t101 -198.5q0 -80 -42 -144.5t-116.5 -109.5t-177 -69.5t-223.5 -24.5q-258 0 -394 68.5t-136 199.5q0 72 69.5 136.5t198.5 85.5q-59 20 -91 54t-32 97q0 70 62.5 125.5t171.5 75.5zM528 446q72 0 117 51.5 t45 143.5q0 63 -37 104t-108 41q-70 0 -117 -52t-47 -142q0 -61 37.5 -103.5t109.5 -42.5zM252 -70q-39 -10 -67.5 -42.5t-28.5 -73.5q0 -70 73.5 -109t182.5 -39q115 0 179 34t64 79q0 43 -38.5 68.5t-141.5 43.5q-23 4 -51.5 8.5t-59 9.5t-60 10t-52.5 11zM1063 1454 q-29 -102 -77 -176t-107.5 -121t-128 -70.5t-136.5 -23.5t-127 23.5t-101 70.5t-61.5 121t-9.5 176l185 -2q0 -92 33.5 -149.5t109.5 -57.5q80 0 134 57.5t87 149.5l199 2v0z" />
<glyph unicode="&#x120;" horiz-adv-x="1376" d="M1186 47q-94 -37 -203 -57.5t-225 -20.5q-145 0 -267 40t-210 115t-138.5 182.5t-50.5 244.5q0 154 51.5 292t150.5 241.5t244.5 165t333.5 61.5q125 0 233.5 -19.5t215.5 -54.5l-64 -287q-98 39 -197 60.5t-192 21.5q-113 0 -196.5 -35.5t-139 -98t-83 -146.5 t-27.5 -181q-2 -154 84 -246t258 -92q90 0 164 23l43 207h-303l53 258h596l-131 -674v0zM1040 1557q-4 -74 -53 -126t-127 -52t-123 52t-41 126q2 33 16.5 65.5t39 57t57 40t71.5 15.5q78 0 121 -53t39 -125z" />
<glyph unicode="&#x121;" horiz-adv-x="1091" d="M246 334q-78 41 -119 110.5t-41 149.5q0 86 37 157.5t100.5 123t147.5 80t178 28.5q84 0 152.5 -19.5t115.5 -50.5l313 25l9 -240l-191 21q6 -16 12.5 -39t6.5 -47q0 -78 -30 -145.5t-86 -116.5t-138 -78t-187 -29q-49 0 -89 7.5t-68 15.5q-16 -6 -31.5 -20.5 t-15.5 -37.5q0 -33 43 -50t157 -36l39 -6q193 -33 294 -98.5t101 -198.5q0 -80 -42 -144.5t-116.5 -109.5t-177 -69.5t-223.5 -24.5q-258 0 -394 68.5t-136 199.5q0 72 69.5 136.5t198.5 85.5q-59 20 -91 54t-32 97q0 70 62.5 125.5t171.5 75.5zM528 446q72 0 117 51.5 t45 143.5q0 63 -37 104t-108 41q-70 0 -117 -52t-47 -142q0 -61 37.5 -103.5t109.5 -42.5zM252 -70q-39 -10 -67.5 -42.5t-28.5 -73.5q0 -70 73.5 -109t182.5 -39q115 0 179 34t64 79q0 43 -38.5 68.5t-141.5 43.5q-23 4 -51.5 8.5t-59 9.5t-60 10t-52.5 11zM809 1229 q-4 -74 -53 -126t-127 -52t-123 52t-41 126q2 33 16.5 65.5t39 57t57 40t71.5 15.5q78 0 121 -53t39 -125z" />
<glyph unicode="&#x122;" horiz-adv-x="1376" d="M506 -238q12 57 65 97.5t123 34.5q82 -10 124 -66.5t26 -136.5q-20 -98 -109.5 -168t-230.5 -98l-54 79q78 33 118 67t46 69q6 31 -12 59t-96 63zM1186 47q-94 -37 -203 -57.5t-225 -20.5q-145 0 -267 40t-210 115t-138.5 182.5t-50.5 244.5q0 154 51.5 292t150.5 241.5 t244.5 165t333.5 61.5q125 0 233.5 -19.5t215.5 -54.5l-64 -287q-98 39 -197 60.5t-192 21.5q-113 0 -196.5 -35.5t-139 -98t-83 -146.5t-27.5 -181q-2 -154 84 -246t258 -92q90 0 164 23l43 207h-303l53 258h596l-131 -674v0z" />
<glyph unicode="&#x123;" horiz-adv-x="1091" d="M823.004 1198.99q-11.999 -56.9961 -64.9951 -97.4941q-52.9971 -40.4971 -122.993 -34.498q-81.9951 10 -123.992 66.4961q-41.9971 56.4971 -25.998 136.492q19.998 97.9941 109.493 167.989q89.4941 69.9961 230.485 97.9941l53.9971 -78.9951 q-77.9951 -32.998 -117.993 -66.9961q-39.9971 -33.998 -45.9971 -68.9951q-5.99902 -30.999 11.999 -58.9971q17.999 -27.998 95.9941 -62.9961zM246 334q-78 41 -119 110.5t-41 149.5q0 86 37 157.5t100.5 123t147.5 80t178 28.5q84 0 152.5 -19.5t115.5 -50.5l313 25 l9 -240l-191 21q6 -16 12.5 -39t6.5 -47q0 -78 -30 -145.5t-86 -116.5t-138 -78t-187 -29q-49 0 -89 7.5t-68 15.5q-16 -6 -31.5 -20.5t-15.5 -37.5q0 -33 43 -50t157 -36l39 -6q193 -33 294 -98.5t101 -198.5q0 -80 -42 -144.5t-116.5 -109.5t-177 -69.5t-223.5 -24.5 q-258 0 -394 68.5t-136 199.5q0 72 69.5 136.5t198.5 85.5q-59 20 -91 54t-32 97q0 70 62.5 125.5t171.5 75.5zM528 446q72 0 117 51.5t45 143.5q0 63 -37 104t-108 41q-70 0 -117 -52t-47 -142q0 -61 37.5 -103.5t109.5 -42.5zM252 -70q-39 -10 -67.5 -42.5t-28.5 -73.5 q0 -70 73.5 -109t182.5 -39q115 0 179 34t64 79q0 43 -38.5 68.5t-141.5 43.5q-23 4 -51.5 8.5t-59 9.5t-60 10t-52.5 11z" />
<glyph unicode="&#x124;" horiz-adv-x="1425" d="M1020 1407l-94 221h-5l-176 -221h-256l316 383h284l170 -383h-239zM870 0l99 508h-502l-98 -508h-326l248 1280h325l-96 -498h504l94 498h326l-248 -1280h-326z" />
<glyph unicode="&#x125;" horiz-adv-x="1157" d="M631 1421l-94 221h-5l-176 -221h-256l316 383h284l170 -383h-239zM645 0l105 539q4 16 6 33.5t2 33.5q0 113 -121 113q-51 0 -95 -26.5t-81 -67.5l-121 -625h-317l266 1366l321 27l-110 -574q74 72 153.5 117t165.5 45q135 0 204 -76t69 -188q0 -23 -2.5 -42.5 t-6.5 -41.5l-122 -633h-316z" />
<glyph unicode="&#x126;" horiz-adv-x="1425" d="M870 0l99 508h-502l-98 -508h-326l176 913h-176l41 179h170l37 188h325l-36 -188h501l37 188h326l-37 -188h172l-37 -179h-168l-178 -913h-326zM1024 782l25 131h-504l-25 -131h504z" />
<glyph unicode="&#x127;" horiz-adv-x="1157" d="M645 0l105 539q4 16 6 33.5t2 33.5q0 113 -121 113q-51 0 -95 -26.5t-81 -67.5l-121 -625h-317l206 1061h-131l29 178h137l25 127l321 27l-30 -154h219l18 -178h-270l-47 -242q74 72 153.5 117t165.5 45q135 0 204 -76t69 -188q0 -23 -2.5 -42.5t-6.5 -41.5l-122 -633 h-316z" />
<glyph unicode="&#x12a;" horiz-adv-x="598" d="M45 0l248 1280h325l-247 -1280h-326zM125 1452l29 179h698l17 -179h-744z" />
<glyph unicode="&#x12b;" horiz-adv-x="540" d="M29 0l184 948l322 27l-189 -975h-317zM51 1124l29 179h698l17 -179h-744z" />
<glyph unicode="&#x12c;" horiz-adv-x="598" d="M45 0l248 1280h325l-247 -1280h-326zM916 1782q-29 -102 -77 -176t-107.5 -121t-128 -70.5t-136.5 -23.5t-127 23.5t-101 70.5t-61.5 121t-9.5 176l185 -2q0 -92 33.5 -149.5t109.5 -57.5q80 0 134 57.5t87 149.5l199 2v0z" />
<glyph unicode="&#x12d;" horiz-adv-x="540" d="M29 0l184 948l322 27l-189 -975h-317zM840 1454q-29 -102 -77 -176t-107.5 -121t-128 -70.5t-136.5 -23.5t-127 23.5t-101 70.5t-61.5 121t-9.5 176l185 -2q0 -92 33.5 -149.5t109.5 -57.5q80 0 134 57.5t87 149.5l199 2v0z" />
<glyph unicode="&#x12e;" horiz-adv-x="598" d="M135 -451q-111 4 -165 66.5t-36 161.5q16 78 70.5 133t130.5 90h-90l248 1280h325l-245 -1280q-80 -18 -137.5 -64.5t-67.5 -103.5q-12 -92 72 -96q29 0 57.5 6t50.5 18l14 -159q-45 -23 -99 -38.5t-128 -13.5z" />
<glyph unicode="&#x12f;" horiz-adv-x="540" d="M106 -451q-111 4 -165 66.5t-35 161.5q16 78 70.5 133t129.5 90h-83l182 942l321 27l-188 -969q-78 -16 -133 -63.5t-66 -104.5q-12 -92 72 -96q29 0 57.5 6t50.5 18l15 -159q-45 -23 -99.5 -38.5t-128.5 -13.5zM612 1255q0 -82 -50 -125t-136 -43t-136 43.5t-50 124.5 q0 84 51 127t137 43t135 -43t49 -127z" />
<glyph unicode="&#x130;" horiz-adv-x="598" d="M45 0l248 1280h325l-247 -1280h-326zM670 1557q-4 -74 -53 -126t-127 -52t-123 52t-41 126q2 33 16.5 65.5t39 57t57 40t71.5 15.5q78 0 121 -53t39 -125z" />
<glyph unicode="&#x131;" horiz-adv-x="540" d="M29 0l184 948l322 27l-189 -975h-317z" />
<glyph unicode="&#x134;" horiz-adv-x="956" d="M987 1407l-94 221h-5l-176 -221h-256l316 383h284l170 -383h-239zM829 408q-41 -209 -159.5 -324t-323.5 -115q-53 0 -109.5 9.5t-109.5 25.5t-100 40t-82 52l118 254q57 -49 119 -80.5t135 -31.5q51 0 85 17t55.5 47t35 70t21.5 83l160 825h325l-170 -872v0z" />
<glyph unicode="&#x135;" horiz-adv-x="538" d="M-199 -297q47 20 84 48t64.5 67t47 94t34.5 131q0 -2 7 36t19.5 100.5t27.5 144.5t32 165q37 199 88 453l321 27q-51 -266 -92 -473q-18 -88 -34.5 -173t-30 -152t-20.5 -105.5t-7 -36.5q-20 -104 -52 -188.5t-79 -149t-113.5 -111.5t-154.5 -76zM537 1079l-94 221h-5 l-176 -221h-256l316 383h284l170 -383h-239z" />
<glyph unicode="&#x136;" horiz-adv-x="1275" d="M408 -238q12 57 65 97.5t123 34.5q82 -10 124 -66.5t26 -136.5q-20 -98 -109.5 -168t-230.5 -98l-54 79q78 33 118 67t46 69q6 31 -12 59t-96 63zM510 713l530 567h377l-631 -629l381 -651h-374l-314 563h-2l-10 -57.5t-14.5 -78.5t-18.5 -93t-18 -96q-23 -113 -47 -238 h-326l248 1280h323l-106 -567h2z" />
<glyph unicode="&#x137;" horiz-adv-x="1085" d="M281 -238q12 57 65 97.5t123 34.5q82 -10 124 -66.5t26 -136.5q-20 -98 -109.5 -168t-230.5 -98l-54 79q78 33 118 67t46 69q6 31 -12 59t-96 63zM426 463l-88 -463h-315l266 1366l321 27l-164 -830h5l342 389h374l-430 -446l258 -506h-348l-217 463h-4z" />
<glyph unicode="&#x139;" horiz-adv-x="1064" d="M526 1407h-202l276 379h348zM43 0l248 1280h325l-194 -1006h536l-53 -274h-862z" />
<glyph unicode="&#x13a;" horiz-adv-x="540" d="M516 1464h-202l276 379h348zM23 0l266 1366l321 27l-272 -1393h-315z" />
<glyph unicode="&#x13b;" horiz-adv-x="1064" d="M279 -238q12 57 65 97.5t123 34.5q82 -10 124 -66.5t26 -136.5q-20 -98 -109.5 -168t-230.5 -98l-54 79q78 33 118 67t46 69q6 31 -12 59t-96 63zM43 0l248 1280h325l-194 -1006h536l-53 -274h-862z" />
<glyph unicode="&#x13c;" horiz-adv-x="540" d="M-30 -238q12 57 65 97.5t123 34.5q82 -10 124 -66.5t26 -136.5q-20 -98 -109.5 -168t-230.5 -98l-54 79q78 33 118 67t46 69q6 31 -12 59t-96 63zM23 0l266 1366l321 27l-272 -1393h-315z" />
<glyph unicode="&#x13d;" horiz-adv-x="1366" d="M1073 1135q16 78 70.5 125t140.5 47q49 0 90 -19.5t71.5 -52t47 -76.5t16.5 -94q0 -84 -42 -154.5t-106.5 -128t-141.5 -99.5t-144 -66l-113 129q27 12 70 37.5t82 58.5t67.5 70t28.5 74q0 55 -42 88.5t-95 60.5zM43 0l248 1280h325l-194 -1006h536l-53 -274h-862z" />
<glyph unicode="&#x13e;" horiz-adv-x="1097" d="M744 1210q16 78 70.5 125t140.5 47q49 0 90 -19.5t71.5 -52t47 -76.5t16.5 -94q0 -84 -42 -154.5t-106.5 -128t-141.5 -99.5t-144 -66l-113 129q27 12 70 37.5t82 58.5t67.5 70t28.5 74q0 55 -42 88.5t-95 60.5zM23 0l266 1366l321 27l-272 -1393h-315z" />
<glyph unicode="&#x13f;" horiz-adv-x="1249" d="M43 0l248 1280h325l-194 -1006h536l-53 -274h-862zM1249 635q0 -84 -53 -135t-139 -51q-88 0 -141.5 51t-53.5 135q0 86 53.5 136.5t141.5 50.5q86 0 139 -50.5t53 -136.5z" />
<glyph unicode="&#x140;" horiz-adv-x="1003" d="M23 0l266 1366l321 27l-272 -1393h-315zM1003 635q0 -84 -53 -135t-139 -51q-88 0 -141.5 51t-53.5 135q0 86 53.5 136.5t141.5 50.5q86 0 139 -50.5t53 -136.5z" />
<glyph unicode="&#x141;" horiz-adv-x="1132" d="M489 274h537l-53 -274h-862l86 442l-129 -34v247l178 50l57 286q25 127 55 289h326l-94 -483l262 69v-248q-88 -25 -156 -43q-29 -8 -57.5 -15t-50.5 -13q-27 -8 -49 -12z" />
<glyph unicode="&#x142;" horiz-adv-x="677" d="M406 0h-316l86 442l-106 -28v250l157 43l129 659l322 27l-117 -596l109 28v-250l-160 -43z" />
<glyph unicode="&#x143;" horiz-adv-x="1452" d="M952 1407h-202l276 379h348zM1159 1280h314l-242 -1292h-365l-354 858l-154 -846h-315l240 1278h370l355 -846z" />
<glyph unicode="&#x144;" horiz-adv-x="1153" d="M680 1079h-202l276 379h348zM645 0l103 530q4 16 7 39t3 41q0 51 -29 80t-88 29q-49 0 -97 -30t-85 -73l-119 -616h-317l180 936l325 39l-28 -156q66 66 149.5 115t169.5 49q68 0 119 -20.5t85 -56.5t51.5 -84t17.5 -101q0 -23 -3.5 -48.5t-7.5 -47.5l-120 -625h-316z " />
<glyph unicode="&#x145;" horiz-adv-x="1452" d="M445 -238q12 57 65 97.5t123 34.5q82 -10 124 -66.5t26 -136.5q-20 -98 -109.5 -168t-230.5 -98l-54 79q78 33 118 67t46 69q6 31 -12 59t-96 63zM1159 1280h314l-242 -1292h-365l-354 858l-154 -846h-315l240 1278h370l355 -846z" />
<glyph unicode="&#x146;" horiz-adv-x="1153" d="M310 -238q12 57 65 97.5t123 34.5q82 -10 124 -66.5t26 -136.5q-20 -98 -109.5 -168t-230.5 -98l-54 79q78 33 118 67t46 69q6 31 -12 59t-96 63zM645 0l103 530q4 16 7 39t3 41q0 51 -29 80t-88 29q-49 0 -97 -30t-85 -73l-119 -616h-317l180 936l325 39l-28 -156 q66 66 149.5 115t169.5 49q68 0 119 -20.5t85 -56.5t51.5 -84t17.5 -101q0 -23 -3.5 -48.5t-7.5 -47.5l-120 -625h-316z" />
<glyph unicode="&#x147;" horiz-adv-x="1452" d="M842 1790l90 -225h4l176 225h258l-317 -383h-285l-168 383h242zM1159 1280h314l-242 -1292h-365l-354 858l-154 -846h-315l240 1278h370l355 -846z" />
<glyph unicode="&#x148;" horiz-adv-x="1153" d="M594 1462l90 -225h4l176 225h258l-317 -383h-285l-168 383h242zM645 0l103 530q4 16 7 39t3 41q0 51 -29 80t-88 29q-49 0 -97 -30t-85 -73l-119 -616h-317l180 936l325 39l-28 -156q66 66 149.5 115t169.5 49q68 0 119 -20.5t85 -56.5t51.5 -84t17.5 -101 q0 -23 -3.5 -48.5t-7.5 -47.5l-120 -625h-316z" />
<glyph unicode="&#x14c;" horiz-adv-x="1497" d="M495 1452l29 179h698l17 -179h-744zM1468 721q0 -160 -55 -297t-154.5 -238.5t-236.5 -160t-299 -58.5q-131 0 -246 40t-201 116t-135 186.5t-49 249.5q0 160 55.5 297t154.5 238.5t235.5 160t300.5 58.5q131 0 245.5 -40t200.5 -116t135 -186.5t49 -249.5zM1137 713 q0 154 -83 246t-237 92q-96 0 -170 -43t-123 -113t-73.5 -156t-24.5 -172q0 -150 83 -244t236 -94q96 0 169 44t122 114t75 156t26 170z" />
<glyph unicode="&#x14d;" horiz-adv-x="1153" d="M295 1124l29 179h698l17 -179h-744zM1090 528q0 -115 -40 -217t-113 -178t-175.5 -120t-226.5 -44q-104 0 -192.5 32t-152 90.5t-99.5 142t-36 188.5q0 115 40 217t114 179t177 121t228 44q106 0 193.5 -32.5t150 -93t97.5 -145t35 -184.5zM772 547q0 98 -44 152.5 t-122 54.5q-59 0 -103 -33t-74 -84t-45 -113.5t-15 -120.5q0 -98 45 -152t127 -54q53 0 96 28.5t72.5 77.5t46 112.5t16.5 131.5z" />
<glyph unicode="&#x14e;" horiz-adv-x="1497" d="M1468 721q0 -160 -55 -297t-154.5 -238.5t-236.5 -160t-299 -58.5q-131 0 -246 40t-201 116t-135 186.5t-49 249.5q0 160 55.5 297t154.5 238.5t235.5 160t300.5 58.5q131 0 245.5 -40t200.5 -116t135 -186.5t49 -249.5zM1137 713q0 154 -83 246t-237 92q-96 0 -170 -43 t-123 -113t-73.5 -156t-24.5 -172q0 -150 83 -244t236 -94q96 0 169 44t122 114t75 156t26 170zM1325 1782q-29 -102 -77 -176t-107.5 -121t-128 -70.5t-136.5 -23.5t-127 23.5t-101 70.5t-61.5 121t-9.5 176l185 -2q0 -92 33.5 -149.5t109.5 -57.5q80 0 134 57.5t87 149.5 l199 2v0z" />
<glyph unicode="&#x14f;" horiz-adv-x="1153" d="M1090 528q0 -115 -40 -217t-113 -178t-175.5 -120t-226.5 -44q-104 0 -192.5 32t-152 90.5t-99.5 142t-36 188.5q0 115 40 217t114 179t177 121t228 44q106 0 193.5 -32.5t150 -93t97.5 -145t35 -184.5zM772 547q0 98 -44 152.5t-122 54.5q-59 0 -103 -33t-74 -84 t-45 -113.5t-15 -120.5q0 -98 45 -152t127 -54q53 0 96 28.5t72.5 77.5t46 112.5t16.5 131.5zM1090 1454q-29 -102 -77 -176t-107.5 -121t-128 -70.5t-136.5 -23.5t-127 23.5t-101 70.5t-61.5 121t-9.5 176l185 -2q0 -92 33.5 -149.5t109.5 -57.5q80 0 134 57.5t87 149.5 l199 2v0z" />
<glyph unicode="&#x150;" horiz-adv-x="1497" d="M1126 1407h-209l365 375h297zM725 1407h-217l323 375h297zM1468 721q0 -160 -55 -297t-154.5 -238.5t-236.5 -160t-299 -58.5q-131 0 -246 40t-201 116t-135 186.5t-49 249.5q0 160 55.5 297t154.5 238.5t235.5 160t300.5 58.5q131 0 245.5 -40t200.5 -116t135 -186.5 t49 -249.5zM1137 713q0 154 -83 246t-237 92q-96 0 -170 -43t-123 -113t-73.5 -156t-24.5 -172q0 -150 83 -244t236 -94q96 0 169 44t122 114t75 156t26 170z" />
<glyph unicode="&#x151;" horiz-adv-x="1153" d="M907 1079h-209l365 375h297zM506 1079h-217l323 375h297zM1090 528q0 -115 -40 -217t-113 -178t-175.5 -120t-226.5 -44q-104 0 -192.5 32t-152 90.5t-99.5 142t-36 188.5q0 115 40 217t114 179t177 121t228 44q106 0 193.5 -32.5t150 -93t97.5 -145t35 -184.5zM772 547 q0 98 -44 152.5t-122 54.5q-59 0 -103 -33t-74 -84t-45 -113.5t-15 -120.5q0 -98 45 -152t127 -54q53 0 96 28.5t72.5 77.5t46 112.5t16.5 131.5z" />
<glyph unicode="&#x152;" horiz-adv-x="1941" d="M1913 1018h-570l-47 -246h463l-51 -260h-463l-49 -250h571l-51 -262h-979q-135 0 -252.5 35t-204.5 104.5t-137.5 171t-50.5 236.5q0 143 46 276t145.5 234.5t258 162t382.5 60.5h1040zM422 565q0 -158 95 -230.5t253 -74.5h98l150 760h-148q-98 0 -180 -28.5t-141.5 -86 t-93 -142.5t-33.5 -198z" />
<glyph unicode="&#x153;" horiz-adv-x="1732" d="M881 96q-66 -59 -153 -93t-193 -34q-104 0 -192.5 32t-152 90.5t-99.5 142t-36 188.5q0 115 40 217t114 179t177 121t228 44q102 0 182.5 -34t139.5 -93q68 59 156 93t192 34q182 0 290.5 -87t108.5 -253q0 -53 -13 -116.5t-32 -110.5l-606 -6v-15q0 -49 19.5 -86 t52.5 -61.5t76 -35.5t90 -11q74 0 146.5 22.5t119.5 46.5l39 -239q-59 -27 -150.5 -44.5t-183.5 -17.5q-115 0 -206 32t-154 95zM369 403q0 -98 45 -152t127 -54q53 0 96 28.5t72.5 77.5t46 112.5t16.5 131.5q0 98 -44 152.5t-122 54.5q-59 0 -103 -33t-74 -84t-45 -114 t-15 -120zM1372 563q6 16 10 44t4 46q0 59 -31.5 91t-88.5 32q-72 0 -126.5 -56t-76.5 -159z" />
<glyph unicode="&#x154;" horiz-adv-x="1269" d="M761 1407h-202l276 379h348zM367 0h-324l248 1278h483q111 0 199 -28.5t148.5 -79t93 -119t32.5 -148.5q0 -84 -25.5 -150.5t-71.5 -118.5t-108.5 -88t-134.5 -57l203 -489h-346l-170 434l-145 -12zM633 668q55 0 105 10t89 33.5t61.5 60.5t22.5 92q0 82 -61.5 121 t-149.5 39h-139l-76 -358z" />
<glyph unicode="&#x155;" horiz-adv-x="821" d="M577 1079h-202l276 379h348zM338 0h-315l182 936l323 39l-26 -139q47 70 110.5 108.5t128.5 38.5q78 0 140 -43l-68 -283q-68 39 -147 39q-123 0 -213 -114z" />
<glyph unicode="&#x156;" horiz-adv-x="1269" d="M391 -238q12 57 65 97.5t123 34.5q82 -10 124 -66.5t26 -136.5q-20 -98 -109.5 -168t-230.5 -98l-54 79q78 33 118 67t46 69q6 31 -12 59t-96 63zM367 0h-324l248 1278h483q111 0 199 -28.5t148.5 -79t93 -119t32.5 -148.5q0 -84 -25.5 -150.5t-71.5 -118.5t-108.5 -88 t-134.5 -57l203 -489h-346l-170 434l-145 -12zM633 668q55 0 105 10t89 33.5t61.5 60.5t22.5 92q0 82 -61.5 121t-149.5 39h-139l-76 -358z" />
<glyph unicode="&#x157;" horiz-adv-x="821" d="M-30 -238q12 57 65 97.5t123 34.5q82 -10 124 -66.5t26 -136.5q-20 -98 -109.5 -168t-230.5 -98l-54 79q78 33 118 67t46 69q6 31 -12 59t-96 63zM338 0h-315l182 936l323 39l-26 -139q47 70 110.5 108.5t128.5 38.5q78 0 140 -43l-68 -283q-68 39 -147 39 q-123 0 -213 -114z" />
<glyph unicode="&#x158;" horiz-adv-x="1269" d="M654 1790l90 -225h4l176 225h258l-317 -383h-285l-168 383h242zM367 0h-324l248 1278h483q111 0 199 -28.5t148.5 -79t93 -119t32.5 -148.5q0 -84 -25.5 -150.5t-71.5 -118.5t-108.5 -88t-134.5 -57l203 -489h-346l-170 434l-145 -12zM633 668q55 0 105 10t89 33.5 t61.5 60.5t22.5 92q0 82 -61.5 121t-149.5 39h-139l-76 -358z" />
<glyph unicode="&#x159;" horiz-adv-x="821" d="M477 1462l90 -225h4l176 225h258l-317 -383h-285l-168 383h242zM338 0h-315l182 936l323 39l-26 -139q47 70 110.5 108.5t128.5 38.5q78 0 140 -43l-68 -283q-68 39 -147 39q-123 0 -213 -114z" />
<glyph unicode="&#x15a;" horiz-adv-x="1153" d="M729 1407h-202l276 379h348zM518 240q113 0 166 32.5t53 87.5q0 25 -11 44.5t-39 38t-74 39t-115 48.5q-66 27 -126.5 59t-108.5 76t-76.5 102t-28.5 136q0 98 39 173t106.5 127t159.5 79t196 27q154 0 280 -32t204 -71l-58 -284q-47 25 -101 45t-109.5 35.5t-108.5 24.5 t-96 9q-90 0 -136.5 -32.5t-46.5 -83.5q0 -25 12.5 -44.5t40 -37t73.5 -37t116 -45.5q72 -29 134.5 -60.5t107.5 -73.5t70.5 -96.5t25.5 -124.5q0 -102 -39 -183t-109.5 -136t-171 -84t-221.5 -29q-72 0 -143.5 10.5t-137 25.5t-121.5 35.5t-95 41.5l59 285 q53 -29 111.5 -52.5t116 -40t109.5 -25.5t93 -9z" />
<glyph unicode="&#x15b;" horiz-adv-x="937" d="M555 1079h-202l276 379h348zM850 295q0 -70 -28.5 -129.5t-83 -103.5t-133.5 -68.5t-179 -24.5q-109 0 -225.5 25.5t-202.5 71.5l63 245q88 -49 189.5 -82.5t187.5 -33.5q47 0 79 20.5t32 56.5q0 35 -38 56.5t-120 46.5q-162 41 -231.5 108.5t-69.5 178.5q0 70 28.5 128 t82 101t130.5 67.5t175 24.5q106 0 220 -25.5t202 -72.5l-66 -246q-96 53 -189 85t-179 32q-43 0 -72 -18.5t-29 -53.5t38 -52.5t120 -43.5q80 -23 137 -49.5t93 -61.5t52.5 -80t16.5 -102z" />
<glyph unicode="&#x15c;" horiz-adv-x="1153" d="M864 1407l-94 221h-5l-176 -221h-256l316 383h284l170 -383h-239zM518 240q113 0 166 32.5t53 87.5q0 25 -11 44.5t-39 38t-74 39t-115 48.5q-66 27 -126.5 59t-108.5 76t-76.5 102t-28.5 136q0 98 39 173t106.5 127t159.5 79t196 27q154 0 280 -32t204 -71l-58 -284 q-47 25 -101 45t-109.5 35.5t-108.5 24.5t-96 9q-90 0 -136.5 -32.5t-46.5 -83.5q0 -25 12.5 -44.5t40 -37t73.5 -37t116 -45.5q72 -29 134.5 -60.5t107.5 -73.5t70.5 -96.5t25.5 -124.5q0 -102 -39 -183t-109.5 -136t-171 -84t-221.5 -29q-72 0 -143.5 10.5t-137 25.5 t-121.5 35.5t-95 41.5l59 285q53 -29 111.5 -52.5t116 -40t109.5 -25.5t93 -9z" />
<glyph unicode="&#x15d;" horiz-adv-x="937" d="M672 1079l-94 221h-5l-176 -221h-256l316 383h284l170 -383h-239zM850 295q0 -70 -28.5 -129.5t-83 -103.5t-133.5 -68.5t-179 -24.5q-109 0 -225.5 25.5t-202.5 71.5l63 245q88 -49 189.5 -82.5t187.5 -33.5q47 0 79 20.5t32 56.5q0 35 -38 56.5t-120 46.5 q-162 41 -231.5 108.5t-69.5 178.5q0 70 28.5 128t82 101t130.5 67.5t175 24.5q106 0 220 -25.5t202 -72.5l-66 -246q-96 53 -189 85t-179 32q-43 0 -72 -18.5t-29 -53.5t38 -52.5t120 -43.5q80 -23 137 -49.5t93 -61.5t52.5 -80t16.5 -102z" />
<glyph unicode="&#x15e;" horiz-adv-x="1153" d="M500 -106q104 -12 163.5 -61.5t59.5 -131.5q0 -53 -26.5 -100t-83 -82t-144.5 -56.5t-211 -23.5l14 143q76 -4 127.5 3t81 20.5t42 34t12.5 45.5q0 47 -56.5 67.5t-167.5 22.5v106l129 92q-123 10 -233.5 42t-177.5 67l59 285q53 -29 111.5 -52.5t116 -40t109.5 -25.5 t93 -9q113 0 166 32.5t53 87.5q0 25 -11 44.5t-39 38t-74 39t-115 48.5q-66 27 -126.5 59t-108.5 76t-76.5 102t-28.5 136q0 98 39 173t106.5 127t159.5 79t196 27q154 0 280 -32t204 -71l-58 -284q-47 25 -101 45t-109.5 35.5t-108.5 24.5t-96 9q-90 0 -136.5 -32.5 t-46.5 -83.5q0 -25 12.5 -44.5t40 -37t73.5 -37t116 -45.5q72 -29 134.5 -60.5t107.5 -73.5t70.5 -96.5t25.5 -124.5q0 -186 -123 -295.5t-328 -130.5q-37 -29 -68.5 -50t-47.5 -31z" />
<glyph unicode="&#x15f;" horiz-adv-x="937" d="M350 -106q104 -12 163.5 -61.5t59.5 -131.5q0 -53 -26.5 -100t-82.5 -82t-144.5 -56.5t-210.5 -23.5l14 143q76 -4 127 3t80.5 20.5t42 34t12.5 45.5q0 47 -56.5 67.5t-166.5 22.5v106l135 96q-82 10 -160 33t-139 56l63 245q88 -49 189.5 -82.5t187.5 -33.5 q47 0 79 20.5t32 56.5q0 35 -38 56.5t-120 46.5q-162 41 -231.5 108.5t-69.5 178.5q0 70 28.5 128t82 101t130.5 67.5t175 24.5q106 0 220 -25.5t202 -72.5l-66 -246q-96 53 -189 85t-179 32q-43 0 -72 -18.5t-29 -53.5t38 -52.5t120 -43.5q80 -23 137 -49.5t93 -61.5 t52.5 -80t16.5 -102q0 -135 -101.5 -224t-285.5 -100l-113 -77v0z" />
<glyph unicode="&#x160;" horiz-adv-x="1153" d="M518 240q113 0 166 32.5t53 87.5q0 25 -11 44.5t-39 38t-74 39t-115 48.5q-66 27 -126.5 59t-108.5 76t-76.5 102t-28.5 136q0 98 39 173t106.5 127t159.5 79t196 27q154 0 280 -32t204 -71l-58 -284q-47 25 -101 45t-109.5 35.5t-108.5 24.5t-96 9q-90 0 -136.5 -32.5 t-46.5 -83.5q0 -25 12.5 -44.5t40 -37t73.5 -37t116 -45.5q72 -29 134.5 -60.5t107.5 -73.5t70.5 -96.5t25.5 -124.5q0 -102 -39 -183t-109.5 -136t-171 -84t-221.5 -29q-72 0 -143.5 10.5t-137 25.5t-121.5 35.5t-95 41.5l59 285q53 -29 111.5 -52.5t116 -40t109.5 -25.5 t93 -9zM674 1763l90 -225h4l176 225h258l-317 -383h-285l-168 383h242z" />
<glyph unicode="&#x161;" horiz-adv-x="937" d="M850 295q0 -70 -28.5 -129.5t-83 -103.5t-133.5 -68.5t-179 -24.5q-109 0 -225.5 25.5t-202.5 71.5l63 245q88 -49 189.5 -82.5t187.5 -33.5q47 0 79 20.5t32 56.5q0 35 -38 56.5t-120 46.5q-162 41 -231.5 108.5t-69.5 178.5q0 70 28.5 128t82 101t130.5 67.5t175 24.5 q106 0 220 -25.5t202 -72.5l-66 -246q-96 53 -189 85t-179 32q-43 0 -72 -18.5t-29 -53.5t38 -52.5t120 -43.5q80 -23 137 -49.5t93 -61.5t52.5 -80t16.5 -102zM498 1462l90 -225h4l176 225h258l-317 -383h-285l-168 383h242z" />
<glyph unicode="&#x162;" horiz-adv-x="1230" d="M322 -238q12 57 65 97.5t123 34.5q82 -10 124 -66.5t26 -136.5q-20 -98 -109.5 -168t-230.5 -98l-54 79q78 33 118 67t46 69q6 31 -12 59t-96 63zM885 1006l-197 -1006h-326l197 1006h-409l53 274h1140l-51 -274h-407z" />
<glyph unicode="&#x163;" horiz-adv-x="776" d="M170 -238q12 57 65 97.5t123 34.5q82 -10 124 -66.5t26 -136.5q-20 -98 -109.5 -168t-230.5 -98l-54 79q78 33 118 67t46 69q6 31 -12 59t-96 63zM664 2q-47 -14 -109.5 -23.5t-132.5 -9.5q-66 0 -123 16.5t-100 48.5t-68 81t-25 116q0 25 4.5 49.5t10.5 49.5l84 362 l-127 10l6 201l176 47l51 217h305l-49 -229h205l-6 -246h-270l-74 -327q-4 -12 -7 -27.5t-3 -32.5q0 -47 28.5 -65.5t85.5 -18.5q25 0 50.5 5t50.5 16z" />
<glyph unicode="&#x164;" horiz-adv-x="1230" d="M707 1790l90 -225h4l176 225h258l-317 -383h-285l-168 383h242zM885 1006l-197 -1006h-326l197 1006h-409l53 274h1140l-51 -274h-407z" />
<glyph unicode="&#x165;" horiz-adv-x="1101" d="M791 1497q16 78 70.5 125t140.5 47q49 0 90 -19.5t71.5 -52t47 -76.5t16.5 -94q0 -84 -42 -154.5t-106.5 -128t-141.5 -99.5t-144 -66l-113 129q27 12 70 37.5t82 58.5t67.5 70t28.5 74q0 55 -42 88.5t-95 60.5zM664 2q-47 -14 -109.5 -23.5t-132.5 -9.5q-66 0 -123 16.5 t-100 48.5t-68 81t-25 116q0 25 4.5 49.5t10.5 49.5l84 362l-127 10l6 201l176 47l51 217h305l-49 -229h205l-6 -246h-270l-74 -327q-4 -12 -7 -27.5t-3 -32.5q0 -47 28.5 -65.5t85.5 -18.5q25 0 50.5 5t50.5 16z" />
<glyph unicode="&#x16a;" horiz-adv-x="1357" d="M647 -31q-262 0 -403.5 110.5t-143.5 313.5q0 35 7.5 82t15.5 84l141 721h326l-139 -727q-6 -27 -11.5 -54.5t-5.5 -56.5q0 -207 232 -206q113 0 169 66.5t78 176.5l156 801h324l-158 -815q-47 -252 -197.5 -374t-390.5 -122zM487 1452l29 179h698l17 -179h-744z" />
<glyph unicode="&#x16b;" horiz-adv-x="1142" d="M514 952l-102 -530q-4 -16 -7.5 -39t-3.5 -41q0 -51 28 -80t89 -29q47 0 90 24t76 58l123 637h315l-184 -944l-322 -39l31 160q-29 -31 -64.5 -59.5t-75.5 -51t-84 -36t-87 -13.5q-139 0 -203.5 72t-64.5 180q0 29 4 62.5t8 62.5l117 606h317zM321 1124l29 179h698 l17 -179h-744z" />
<glyph unicode="&#x16c;" horiz-adv-x="1357" d="M647 -31q-262 0 -403.5 110.5t-143.5 313.5q0 35 7.5 82t15.5 84l141 721h326l-139 -727q-6 -27 -11.5 -54.5t-5.5 -56.5q0 -207 232 -206q113 0 169 66.5t78 176.5l156 801h324l-158 -815q-47 -252 -197.5 -374t-390.5 -122zM1278 1782q-29 -102 -77 -176t-107.5 -121 t-128 -70.5t-136.5 -23.5t-127 23.5t-101 70.5t-61.5 121t-9.5 176l185 -2q0 -92 33.5 -149.5t109.5 -57.5q80 0 134 57.5t87 149.5l199 2v0z" />
<glyph unicode="&#x16d;" horiz-adv-x="1142" d="M514 952l-102 -530q-4 -16 -7.5 -39t-3.5 -41q0 -51 28 -80t89 -29q47 0 90 24t76 58l123 637h315l-184 -944l-322 -39l31 160q-29 -31 -64.5 -59.5t-75.5 -51t-84 -36t-87 -13.5q-139 0 -203.5 72t-64.5 180q0 29 4 62.5t8 62.5l117 606h317zM1116 1454 q-29 -102 -77 -176t-107.5 -121t-128 -70.5t-136.5 -23.5t-127 23.5t-101 70.5t-61.5 121t-9.5 176l185 -2q0 -92 33.5 -149.5t109.5 -57.5q80 0 134 57.5t87 149.5l199 2v0z" />
<glyph unicode="&#x16e;" horiz-adv-x="1357" d="M1165 1653q0 -61 -26.5 -108.5t-69.5 -80t-99.5 -50t-115.5 -17.5q-53 0 -103.5 14.5t-88 42t-61 69.5t-23.5 97q0 61 26.5 108.5t70.5 81.5t100.5 51t115.5 17q53 0 103.5 -14t88 -42t60 -71t22.5 -98zM1040 1651q0 68 -46 97.5t-111 29.5q-72 0 -126 -39t-54 -113 q0 -66 47 -96.5t112 -30.5q72 0 125 40t53 112zM647 -31q-262 0 -403.5 110.5t-143.5 313.5q0 35 7.5 82t15.5 84l141 721h326l-139 -727q-6 -27 -11.5 -54.5t-5.5 -56.5q0 -207 232 -206q113 0 169 66.5t78 176.5l156 801h324l-158 -815q-47 -252 -197.5 -374t-390.5 -122z " />
<glyph unicode="&#x16f;" horiz-adv-x="1142" d="M995 1313q0 -61 -26.5 -108.5t-69.5 -80t-99.5 -50t-115.5 -17.5q-53 0 -103.5 14.5t-88 42t-61 69.5t-23.5 97q0 61 26.5 108.5t70.5 81.5t100.5 51t115.5 17q53 0 103.5 -14t88 -42t60 -71t22.5 -98zM870 1311q0 68 -46 97.5t-111 29.5q-72 0 -126 -39t-54 -113 q0 -66 47 -96.5t112 -30.5q72 0 125 40t53 112zM514 952l-102 -530q-4 -16 -7.5 -39t-3.5 -41q0 -51 28 -80t89 -29q47 0 90 24t76 58l123 637h315l-184 -944l-322 -39l31 160q-29 -31 -64.5 -59.5t-75.5 -51t-84 -36t-87 -13.5q-139 0 -203.5 72t-64.5 180q0 29 4 62.5 t8 62.5l117 606h317z" />
<glyph unicode="&#x170;" horiz-adv-x="1357" d="M647 -31q-262 0 -403.5 110.5t-143.5 313.5q0 35 7.5 82t15.5 84l141 721h326l-139 -727q-6 -27 -11.5 -54.5t-5.5 -56.5q0 -207 232 -206q113 0 169 66.5t78 176.5l156 801h324l-158 -815q-47 -252 -197.5 -374t-390.5 -122zM1083 1407h-209l365 375h297zM682 1407h-217 l323 375h297z" />
<glyph unicode="&#x171;" horiz-adv-x="1142" d="M514 952l-102 -530q-4 -16 -7.5 -39t-3.5 -41q0 -51 28 -80t89 -29q47 0 90 24t76 58l123 637h315l-184 -944l-322 -39l31 160q-29 -31 -64.5 -59.5t-75.5 -51t-84 -36t-87 -13.5q-139 0 -203.5 72t-64.5 180q0 29 4 62.5t8 62.5l117 606h317zM930 1079h-209l365 375h297 zM529 1079h-217l323 375h297z" />
<glyph unicode="&#x172;" horiz-adv-x="1357" d="M705 -451q-111 4 -165.5 66.5t-35.5 161.5q10 61 50 109t93 83h-10q-256 4 -395.5 114t-141.5 310q0 35 7.5 82t15.5 84l141 721h326l-139 -727q-6 -27 -11.5 -54.5t-5.5 -56.5q0 -207 232 -206q113 0 169 66.5t78 176.5l156 801h324l-158 -815q-33 -174 -114 -281.5 t-203 -167.5q-72 -35 -121 -83t-60 -101q-16 -92 72 -96q29 0 57.5 6t51.5 18l14 -159q-45 -23 -99 -38.5t-128 -13.5z" />
<glyph unicode="&#x173;" horiz-adv-x="1142" d="M514 952l-102 -530q-4 -16 -7.5 -39t-3.5 -41q0 -51 28 -80t89 -29q47 0 90 24t76 58l123 637h315l-188 -964q-51 -8 -98.5 -24.5t-84 -39t-60 -52.5t-29.5 -62q-16 -90 69 -95q29 0 58.5 6.5t52.5 18.5l12 -160q-45 -25 -99.5 -39t-125.5 -12q-113 4 -167 66.5 t-36 160.5q14 72 67.5 126.5t122.5 88.5l31 158q-29 -31 -64.5 -59.5t-75.5 -51t-84 -36t-87 -13.5q-139 0 -203.5 72t-64.5 180q0 29 4 62.5t8 62.5l117 606h317z" />
<glyph unicode="&#x174;" horiz-adv-x="1970" d="M1305 1407l-94 221h-5l-176 -221h-256l316 383h284l170 -383h-239zM631 0h-326l-96 1280h346l-6 -893l409 893h359l61 -893l342 893h353l-598 -1280h-332l-68 913z" />
<glyph unicode="&#x175;" horiz-adv-x="1513" d="M1020 1079l-94 221h-5l-176 -221h-256l316 383h284l170 -383h-239zM184 -4l-78 956h312l8 -592l276 594h297l43 -583l224 581h323l-454 -956h-301l-48 622l-303 -622h-299z" />
<glyph unicode="&#x176;" horiz-adv-x="1251" d="M791 483l-95 -483h-319l94 489l-293 791h334l168 -510l354 510h355zM944 1407l-94 221h-5l-176 -221h-256l316 383h284l170 -383h-239z" />
<glyph unicode="&#x177;" horiz-adv-x="1011" d="M-74 -127q39 -27 66.5 -41t68.5 -14t68 17.5t59 70.5l48 78l-170 968h321l76 -643l307 643h332l-510 -946l-88 -156q-47 -84 -93 -142t-97.5 -93t-107.5 -50.5t-122 -15.5q-78 0 -154.5 30t-130.5 65l127 229v0zM744 1079l-94 221h-5l-176 -221h-256l316 383h284 l170 -383h-239z" />
<glyph unicode="&#x178;" horiz-adv-x="1251" d="M791 483l-95 -483h-319l94 489l-293 791h334l168 -510l354 510h355zM1200 1534q0 -78 -45 -118t-119 -40q-72 0 -117 40t-45 118t45.5 118t116.5 40q74 0 119 -40t45 -118zM723 1534q0 -78 -45 -118t-117 -40q-74 0 -119 40t-45 118t45 118t119 40q72 0 117 -40t45 -118z " />
<glyph unicode="&#x179;" horiz-adv-x="1187" d="M792 1407h-202l276 379h348zM-27 0l41 215l797 799h-629l51 266h1043l-41 -217l-791 -795h635l-53 -268h-1053z" />
<glyph unicode="&#x17a;" horiz-adv-x="935" d="M624 1079h-202l276 379h348zM-59 0l34 184l545 514h-426l49 254h844l-35 -184l-542 -514h442l-49 -254h-862z" />
<glyph unicode="&#x17b;" horiz-adv-x="1187" d="M-27 0l41 215l797 799h-629l51 266h1043l-41 -217l-791 -795h635l-53 -268h-1053zM932 1557q-4 -74 -53 -126t-127 -52t-123 52t-41 126q2 33 16.5 65.5t39 57t57 40t71.5 15.5q78 0 121 -53t39 -125z" />
<glyph unicode="&#x17c;" horiz-adv-x="935" d="M-59 0l34 184l545 514h-426l49 254h844l-35 -184l-542 -514h442l-49 -254h-862zM764 1229q-4 -74 -53 -126t-127 -52t-123 52t-41 126q2 33 16.5 65.5t39 57t57 40t71.5 15.5q78 0 121 -53t39 -125z" />
<glyph unicode="&#x17d;" horiz-adv-x="1187" d="M-27 0l41 215l797 799h-629l51 266h1043l-41 -217l-791 -795h635l-53 -268h-1053zM674 1751l90 -225h4l176 225h258l-317 -383h-285l-168 383h242z" />
<glyph unicode="&#x17e;" horiz-adv-x="935" d="M-59 0l34 184l545 514h-426l49 254h844l-35 -184l-542 -514h442l-49 -254h-862zM494 1462l90 -225h4l176 225h258l-317 -383h-285l-168 383h242z" />
<glyph unicode="&#x192;" horiz-adv-x="925" d="M301 578l-235 12l49 201l221 45l20 118q29 172 115 261.5t252 89.5q86 0 160.5 -20.5t124.5 -49.5l-99 -231q-35 23 -73.5 35t-71.5 12q-100 0 -119 -119l-18 -107h270l-43 -245h-252l-31 -174q-18 -104 -50 -180t-86 -127.5t-132 -84t-186 -51.5l-74 238 q104 18 155.5 59t65.5 119z" />
<glyph unicode="&#x1fa;" horiz-adv-x="1323" d="M858 1679h-202l276 379h348zM795 1012l-269 -480h322zM1018 1427q0 68 -45 98.5t-111 30.5q-74 0 -128 -39.5t-54 -113.5q0 -66 48 -96.5t112 -30.5q72 0 125 39.5t53 111.5zM625 1249q-31 27 -49.5 64t-18.5 84q0 61 26.5 108t69.5 81t99.5 51.5t115.5 17.5 q53 0 103.5 -14.5t88.5 -42t60.5 -69.5t22.5 -99q0 -59 -26.5 -105.5t-69.5 -75.5l192 -1249h-324l-36 272h-490l-153 -272h-336z" />
<glyph unicode="&#x1fb;" horiz-adv-x="1050" d="M665 1599h-202l276 379h348zM614 424q-297 -6 -297 -139q0 -47 32 -76t83 -29q43 0 82 18.5t64 41.5zM645 586q31 154 -178 153q-76 0 -156 -20.5t-145 -48.5l-27 241q70 29 170.5 49.5t204.5 20.5q150 0 246 -35t146 -95t59.5 -143t-13.5 -180l-49 -231q-10 -47 1 -65.5 t59 -22.5l-72 -229q-82 -8 -140.5 -1t-96.5 27.5t-58.5 50t-24.5 66.5h-2q-51 -59 -119.5 -104.5t-166.5 -45.5q-61 0 -111.5 21.5t-86.5 58.5t-54.5 85t-18.5 100q0 74 37 137t114 108t195.5 66.5t282.5 11.5zM940 1325q0 -61 -26.5 -108.5t-69.5 -80t-99.5 -50 t-115.5 -17.5q-53 0 -103.5 14.5t-88.5 42t-61.5 69.5t-23.5 97q0 61 27 108.5t71 81.5t100 51t116 17q53 0 103 -14t88 -42t60.5 -71t22.5 -98zM815 1323q0 68 -46 97.5t-112 29.5q-72 0 -126 -39t-54 -113q0 -66 47 -96.5t113 -30.5q72 0 125 40t53 112z" />
<glyph unicode="&#x1fc;" horiz-adv-x="1839" d="M1316 1407h-202l276 379h348zM836 532l106 539l-352 -539h246zM244 0h-350l874 1280h1149l-49 -262h-619l-47 -246h512l-51 -260h-512l-49 -250h618l-51 -262h-936l53 272h-360z" />
<glyph unicode="&#x1fd;" horiz-adv-x="1628" d="M934 1079h-202l276 379h348zM1266 563q6 16 10 44t4 46q0 59 -31.5 91t-89.5 32q-72 0 -126 -56t-77 -159zM639 422q-166 0 -244 -36t-78 -107q0 -49 34 -77t83 -28q59 0 116.5 27.5t104.5 81.5q-10 29 -13 65.5t-3 73.5zM868 887q66 47 141.5 71.5t168.5 24.5 q182 0 289.5 -87t107.5 -253q0 -53 -12.5 -116.5t-32.5 -110.5l-606 -6v-15q0 -49 19.5 -86t53 -61.5t75.5 -35.5t89 -11q76 0 148.5 22.5t120.5 46.5l38 -239q-59 -27 -149 -44.5t-178 -17.5q-158 0 -267.5 52.5t-171.5 150.5q-86 -102 -185 -152.5t-224 -50.5 q-66 0 -118 22.5t-88 60.5t-55.5 86t-19.5 100q0 74 35 137t112 108t196.5 66.5t291.5 11.5l4 25q27 154 -182 153q-33 0 -73 -6t-80 -15t-78.5 -21.5t-71.5 -26.5l-27 241q70 29 171.5 50.5t205.5 21.5q123 0 210 -24.5t142 -71.5z" />
<glyph unicode="&#x1fe;" horiz-adv-x="1497" d="M1470 735q0 -160 -55 -299t-154.5 -243.5t-236.5 -165t-299 -60.5q-100 0 -189.5 22.5t-166.5 63.5l-162 -190h-156l219 262q-82 74 -129 179.5t-47 242.5q0 158 55.5 297t154.5 243.5t235.5 165t298.5 60.5q100 0 191 -21.5t165 -66.5l162 192h160l-220 -260 q80 -76 127 -181.5t47 -240.5zM1010 995q-78 55 -191 56q-96 0 -170 -43t-123 -113t-74.5 -156t-25.5 -172q0 -57 14.5 -106t38.5 -90zM819 600q-51 -59 -98 -114.5t-84 -100.5q-43 -53 -84 -98q80 -57 195 -58q96 0 168.5 44t121.5 114t75 156t26 170q0 57 -14.5 107 t-39.5 91zM997 1380h-202l276 379h348z" />
<glyph unicode="&#x1ff;" horiz-adv-x="1153" d="M1104 545q0 -119 -40 -223.5t-113.5 -183.5t-177 -124t-228.5 -45q-145 0 -252 56l-137 -162h-158l192 231q-61 59 -95 139t-34 181q0 119 41 222t116 180t178.5 122t228.5 45q145 0 254 -59l127 153h161q-45 -53 -82 -98q-33 -39 -64.5 -76t-41.5 -51q59 -57 92 -135 t33 -172zM729 733q-45 39 -115 39q-57 0 -103 -30.5t-78 -81t-49 -115t-17 -131.5q0 -57 16 -92zM801 537q0 25 -3 47t-14 39q-25 -31 -53 -64q-25 -29 -55.5 -64.5t-63.5 -74.5q-76 -90 -172 -203q47 -35 111 -35q55 0 101 30t79 79t51.5 113.5t18.5 132.5zM716 1079h-202 l276 379h348z" />
<glyph unicode="&#x218;" horiz-adv-x="1153" d="M348 -238q12 57 65 97.5t123 34.5q82 -10 124 -66.5t26 -136.5q-20 -98 -109.5 -168t-230.5 -98l-54 79q78 33 118 67t46 69q6 31 -12 59t-96 63zM518 240q113 0 166 32.5t53 87.5q0 25 -11 44.5t-39 38t-74 39t-115 48.5q-66 27 -126.5 59t-108.5 76t-76.5 102 t-28.5 136q0 98 39 173t106.5 127t159.5 79t196 27q154 0 280 -32t204 -71l-58 -284q-47 25 -101 45t-109.5 35.5t-108.5 24.5t-96 9q-90 0 -136.5 -32.5t-46.5 -83.5q0 -25 12.5 -44.5t40 -37t73.5 -37t116 -45.5q72 -29 134.5 -60.5t107.5 -73.5t70.5 -96.5t25.5 -124.5 q0 -102 -39 -183t-109.5 -136t-171 -84t-221.5 -29q-72 0 -143.5 10.5t-137 25.5t-121.5 35.5t-95 41.5l59 285q53 -29 111.5 -52.5t116 -40t109.5 -25.5t93 -9z" />
<glyph unicode="&#x219;" horiz-adv-x="937" d="M211 -238q12 57 65 97.5t123 34.5q82 -10 124 -66.5t26 -136.5q-20 -98 -109.5 -168t-230.5 -98l-54 79q78 33 118 67t46 69q6 31 -12 59t-96 63zM850 295q0 -70 -28.5 -129.5t-83 -103.5t-133.5 -68.5t-179 -24.5q-109 0 -225.5 25.5t-202.5 71.5l63 245 q88 -49 189.5 -82.5t187.5 -33.5q47 0 79 20.5t32 56.5q0 35 -38 56.5t-120 46.5q-162 41 -231.5 108.5t-69.5 178.5q0 70 28.5 128t82 101t130.5 67.5t175 24.5q106 0 220 -25.5t202 -72.5l-66 -246q-96 53 -189 85t-179 32q-43 0 -72 -18.5t-29 -53.5t38 -52.5t120 -43.5 q80 -23 137 -49.5t93 -61.5t52.5 -80t16.5 -102z" />
<glyph unicode="&#x21a;" horiz-adv-x="1230" d="M322 -238q12 57 65 97.5t123 34.5q82 -10 124 -66.5t26 -136.5q-20 -98 -109.5 -168t-230.5 -98l-54 79q78 33 118 67t46 69q6 31 -12 59t-96 63zM885 1006l-197 -1006h-326l197 1006h-409l53 274h1140l-51 -274h-407z" />
<glyph unicode="&#x21b;" horiz-adv-x="776" d="M170 -238q12 57 65 97.5t123 34.5q82 -10 124 -66.5t26 -136.5q-20 -98 -109.5 -168t-230.5 -98l-54 79q78 33 118 67t46 69q6 31 -12 59t-96 63zM664 2q-47 -14 -109.5 -23.5t-132.5 -9.5q-66 0 -123 16.5t-100 48.5t-68 81t-25 116q0 25 4.5 49.5t10.5 49.5l84 362 l-127 10l6 201l176 47l51 217h305l-49 -229h205l-6 -246h-270l-74 -327q-4 -12 -7 -27.5t-3 -32.5q0 -47 28.5 -65.5t85.5 -18.5q25 0 50.5 5t50.5 16z" />
<glyph unicode="&#x237;" horiz-adv-x="538" d="M-199 -297q47 20 84 48t64.5 67t47 94t34.5 131q0 -2 7 36t19.5 100.5t27.5 144.5t32 165q37 199 88 453l321 27q-51 -266 -92 -473q-18 -88 -34.5 -173t-30 -152t-20.5 -105.5t-7 -36.5q-20 -104 -52 -188.5t-79 -149t-113.5 -111.5t-154.5 -76z" />
<glyph unicode="&#x2c6;" horiz-adv-x="815" d="M674 1079l-94 221h-5l-176 -221h-256l316 383h284l170 -383h-239z" />
<glyph unicode="&#x2c7;" horiz-adv-x="815" d="M459 1462l90 -225h4l176 225h258l-317 -383h-285l-168 383h242z" />
<glyph unicode="&#x2d8;" horiz-adv-x="815" d="M975 1454q-29 -102 -77 -176t-107.5 -121t-128 -70.5t-136.5 -23.5t-127 23.5t-101 70.5t-61.5 121t-9.5 176l185 -2q0 -92 33.5 -149.5t109.5 -57.5q80 0 134 57.5t87 149.5l199 2v0z" />
<glyph unicode="&#x2d9;" horiz-adv-x="815" d="M729 1229q-4 -74 -53 -126t-127 -52t-123 52t-41 126q2 33 16.5 65.5t39 57t57 40t71.5 15.5q78 0 121 -53t39 -125z" />
<glyph unicode="&#x2da;" horiz-adv-x="815" d="M868 1325q0 -61 -26.5 -108.5t-69.5 -80t-99.5 -50t-115.5 -17.5q-53 0 -103.5 14.5t-88 42t-61 69.5t-23.5 97q0 61 26.5 108.5t70.5 81.5t100.5 51t115.5 17q53 0 103.5 -14t88 -42t60 -71t22.5 -98zM743 1323q0 68 -46 97.5t-111 29.5q-72 0 -126 -39t-54 -113 q0 -66 47 -96.5t112 -30.5q72 0 125 40t53 112z" />
<glyph unicode="&#x2db;" horiz-adv-x="815" d="M500 -471q-53 -39 -123 -66.5t-156 -27.5q-51 0 -97 14t-81 42t-55.5 69t-20.5 94q0 86 45 156.5t113 124t149.5 86t155.5 42.5h217q-61 -12 -145 -43.5t-160 -78.5t-128 -106.5t-52 -127.5q0 -49 32.5 -77.5t86.5 -28.5q59 0 116.5 16t110.5 37l-8 -125v0z" />
<glyph unicode="&#x2dc;" horiz-adv-x="813" d="M987 1397q-45 -154 -106.5 -233t-159.5 -79q-57 0 -103.5 18.5t-84 42t-69.5 42t-61 18.5q-18 0 -30.5 -12t-21.5 -28.5t-14 -34t-5 -27.5h-201q43 152 104.5 229.5t159.5 77.5q57 0 104.5 -18.5t85.5 -40t68.5 -40t59.5 -18.5q18 0 31.5 12.5t22.5 29t15 33.5t9 28h196 v0z" />
<glyph unicode="&#x2dd;" horiz-adv-x="813" d="M817 1079h-209l365 375h297zM416 1079h-217l323 375h297z" />
<glyph unicode="&#x1e80;" horiz-adv-x="1970" d="M631 0h-326l-96 1280h346l-6 -893l409 893h359l61 -893l342 893h353l-598 -1280h-332l-68 913zM1087 1407l-272 379h346l129 -379h-203z" />
<glyph unicode="&#x1e81;" horiz-adv-x="1513" d="M184 -4l-78 956h312l8 -592l276 594h297l43 -583l224 581h323l-454 -956h-301l-48 622l-303 -622h-299zM788 1079l-272 379h346l129 -379h-203z" />
<glyph unicode="&#x1e82;" horiz-adv-x="1970" d="M1183 1407h-202l276 379h348zM631 0h-326l-96 1280h346l-6 -893l409 893h359l61 -893l342 893h353l-598 -1280h-332l-68 913z" />
<glyph unicode="&#x1e83;" horiz-adv-x="1513" d="M940 1079h-202l276 379h348zM184 -4l-78 956h312l8 -592l276 594h297l43 -583l224 581h323l-454 -956h-301l-48 622l-303 -622h-299z" />
<glyph unicode="&#x1e84;" horiz-adv-x="1970" d="M1600 1573q0 -78 -45.5 -118t-118.5 -40q-72 0 -117 40t-45 118t45 118t117 40q74 0 119 -40t45 -118zM1122 1573q0 -78 -45 -118t-116 -40q-74 0 -119 40t-45 118t45 118t119 40q72 0 116.5 -40t44.5 -118zM631 0h-326l-96 1280h346l-6 -893l409 893h359l61 -893 l342 893h353l-598 -1280h-332l-68 913z" />
<glyph unicode="&#x1e85;" horiz-adv-x="1513" d="M1299 1245q0 -78 -45.5 -118t-118.5 -40q-72 0 -117 40t-45 118t45 118t117 40q74 0 119 -40t45 -118zM821 1245q0 -78 -45 -118t-116 -40q-74 0 -119 40t-45 118t45 118t119 40q72 0 116.5 -40t44.5 -118zM184 -4l-78 956h312l8 -592l276 594h297l43 -583l224 581h323 l-454 -956h-301l-48 622l-303 -622h-299z" />
<glyph unicode="&#x2000;" horiz-adv-x="1029" />
<glyph unicode="&#x2001;" horiz-adv-x="2058" />
<glyph unicode="&#x2002;" horiz-adv-x="1029" />
<glyph unicode="&#x2003;" horiz-adv-x="2058" />
<glyph unicode="&#x2004;" horiz-adv-x="686" />
<glyph unicode="&#x2005;" horiz-adv-x="514" />
<glyph unicode="&#x2006;" horiz-adv-x="343" />
<glyph unicode="&#x2007;" horiz-adv-x="343" />
<glyph unicode="&#x2008;" horiz-adv-x="257" />
<glyph unicode="&#x2009;" horiz-adv-x="155" />
<glyph unicode="&#x200a;" horiz-adv-x="114" />
<glyph unicode="&#x2010;" horiz-adv-x="761" d="M59 371v252h652v-252h-652z" />
<glyph unicode="&#x2011;" horiz-adv-x="761" d="M59 371v252h652v-252h-652z" />
<glyph unicode="&#x2012;" horiz-adv-x="761" d="M59 371v252h652v-252h-652z" />
<glyph unicode="&#x2013;" horiz-adv-x="1077" d="M53 373l6 239h965l6 -239h-977z" />
<glyph unicode="&#x2014;" horiz-adv-x="2039" d="M53 373l6 239h1928l6 -239h-1940z" />
<glyph unicode="&#x2018;" horiz-adv-x="555" d="M588 846q-16 -78 -70.5 -125t-138.5 -47q-49 0 -91 19.5t-72 52t-47 75.5t-17 92q0 84 42 156t106.5 129t141 99t144.5 67l112 -129q-29 -12 -70.5 -38t-80.5 -58.5t-67.5 -69.5t-28.5 -74q0 -55 42 -88.5t95 -60.5z" />
<glyph unicode="&#x2019;" horiz-adv-x="555" d="M203 1196q16 78 70.5 125t140.5 47q49 0 90 -19.5t71.5 -52t47 -76.5t16.5 -94q0 -84 -42 -154.5t-106.5 -128t-141.5 -99.5t-144 -66l-113 129q27 12 70 37.5t82 58.5t67.5 70t28.5 74q0 55 -42 88.5t-95 60.5z" />
<glyph unicode="&#x201a;" horiz-adv-x="555" d="M-8 168q16 78 70.5 125t140.5 47q49 0 90 -19.5t71.5 -52t47 -77t16.5 -93.5q0 -84 -42 -154.5t-106.5 -128t-141.5 -99.5t-144 -66l-113 129q27 12 70 37.5t82 58.5t67.5 70t28.5 73q0 55 -42 89t-95 61z" />
<glyph unicode="&#x201c;" horiz-adv-x="1081" d="M1110 846q-16 -78 -69.5 -125t-139.5 -47q-49 0 -91 19.5t-72.5 52t-47 75.5t-16.5 92q0 84 42 156t106.5 129t141 99t144.5 67l113 -129q-29 -12 -71 -38t-81 -58.5t-67.5 -69.5t-28.5 -74q0 -55 42 -88.5t95 -60.5zM588 846q-16 -78 -70.5 -125t-138.5 -47 q-49 0 -91 19.5t-72 52t-47 75.5t-17 92q0 84 42 156t106.5 129t141 99t144.5 67l112 -129q-29 -12 -70.5 -38t-80.5 -58.5t-67.5 -69.5t-28.5 -74q0 -55 42 -88.5t95 -60.5z" />
<glyph unicode="&#x201d;" horiz-adv-x="1081" d="M725 1196q16 78 70.5 125t140.5 47q49 0 90 -19.5t71.5 -52t47 -76.5t16.5 -94q0 -84 -42 -154.5t-106.5 -128t-141 -99.5t-144.5 -66l-113 129q27 12 70 37.5t82 58.5t67.5 70t28.5 74q0 55 -42 88.5t-95 60.5zM203 1196q16 78 70.5 125t140.5 47q49 0 90 -19.5 t71.5 -52t47 -76.5t16.5 -94q0 -84 -42 -154.5t-106.5 -128t-141.5 -99.5t-144 -66l-113 129q27 12 70 37.5t82 58.5t67.5 70t28.5 74q0 55 -42 88.5t-95 60.5z" />
<glyph unicode="&#x201e;" horiz-adv-x="1081" d="M514 168q16 78 70.5 125t140.5 47q49 0 90 -19.5t72 -52t47 -77t16 -93.5q0 -84 -42 -154.5t-106.5 -128t-141 -99.5t-144.5 -66l-113 129q27 12 70 37.5t82 58.5t67.5 70t28.5 73q0 55 -42 89t-95 61zM-8 168q16 78 70.5 125t140.5 47q49 0 90 -19.5t71.5 -52t47 -77 t16.5 -93.5q0 -84 -42 -154.5t-106.5 -128t-141.5 -99.5t-144 -66l-113 129q27 12 70 37.5t82 58.5t67.5 70t28.5 73q0 55 -42 89t-95 61z" />
<glyph unicode="&#x2020;" horiz-adv-x="1077" d="M57 678v237h353v365h258v-365h354v-237h-354v-936h-258v936h-353z" />
<glyph unicode="&#x2021;" horiz-adv-x="1077" d="M57 702v238h353v340h258v-340h354v-238h-358v-383h358v-237h-354v-340h-258v340h-353v237h357v383h-357z" />
<glyph unicode="&#x2022;" horiz-adv-x="897" d="M844 475q0 -23 -12.5 -63.5t-30 -83.5t-37 -80t-35.5 -53t-53 -36t-80 -37.5t-84 -29.5t-63 -12q-23 0 -63 12t-83 29.5t-80 37t-51 36.5q-16 16 -35.5 53t-38 80t-31 84t-12.5 63q0 23 12.5 63t31 83t38 79.5t35.5 53.5q14 14 52 34.5t81 38t83 29.5t63 12t62.5 -12 t82.5 -30.5t80 -38t53 -33.5q14 -14 34.5 -51t38 -80t30 -84t12.5 -64z" />
<glyph unicode="&#x2026;" horiz-adv-x="1687" d="M1532 150q0 -80 -53.5 -130.5t-130.5 -50.5q-78 0 -132.5 50.5t-54.5 130.5q0 82 54.5 131t132.5 49t131 -49t53 -131zM969 150q0 -80 -53.5 -130.5t-131.5 -50.5t-132 50.5t-54 130.5q0 82 54.5 131t131.5 49q78 0 131.5 -49t53.5 -131zM406 150q0 -80 -53.5 -130.5 t-131.5 -50.5t-132 50.5t-54 130.5q0 82 54 131t132 49t131.5 -49t53.5 -131z" />
<glyph unicode="&#x202f;" horiz-adv-x="411" />
<glyph unicode="&#x2030;" horiz-adv-x="2523" d="M848 1028q0 -88 -28.5 -164t-81 -131t-124 -86t-157.5 -31q-76 0 -139.5 20.5t-109.5 60.5t-71.5 95.5t-25.5 127.5q0 88 28.5 162.5t80.5 129t124 84t158 29.5q76 0 139.5 -20.5t109.5 -59.5t71.5 -93t25.5 -124zM344 -31h-242l1319 1340h242zM1659 369 q0 -88 -28.5 -164t-81 -131.5t-124 -87t-157.5 -31.5q-76 0 -140.5 20.5t-110.5 60.5t-71.5 95t-25.5 127q0 88 28.5 163t80.5 129t125 84t159 30q76 0 139.5 -20.5t109.5 -58.5t71.5 -93t25.5 -123zM633 1016q0 72 -37 108.5t-96 36.5q-41 0 -74 -21.5t-56.5 -55 t-35.5 -76.5t-12 -86q0 -72 39.5 -109t99.5 -37q37 0 67.5 18.5t54 50.5t37 76t13.5 95zM1444 356q0 72 -39 108t-96 36q-41 0 -73 -21.5t-55.5 -55.5t-35.5 -76t-12 -85q0 -72 38.5 -108.5t98.5 -36.5q37 0 68.5 18.5t55 51t37 76.5t13.5 93zM2482 369q0 -88 -28.5 -164 t-81 -131.5t-124 -87t-157.5 -31.5q-76 0 -139.5 20.5t-109.5 60.5t-71.5 95t-25.5 127q0 88 28.5 163t81 129t125 84t158.5 30q76 0 138.5 -20.5t108.5 -58.5t71.5 -93t25.5 -123zM2267 356q0 72 -38 108t-95 36q-41 0 -73.5 -21.5t-55.5 -55.5t-35 -76t-12 -85 q0 -72 39 -108.5t98 -36.5q37 0 67.5 18.5t54.5 51t37 76.5t13 93z" />
<glyph unicode="&#x2039;" horiz-adv-x="743" d="M532 25l-501 327l49 252l629 328l14 -203l-395 -256v-4l293 -252z" />
<glyph unicode="&#x203a;" horiz-adv-x="743" d="M41 25l-14 202l393 256v2l-293 252l90 195l502 -328l-49 -254z" />
<glyph unicode="&#x2044;" horiz-adv-x="1357" d="M178 -31h-235l1278 1340h235z" />
<glyph unicode="&#x205f;" horiz-adv-x="514" />
<glyph unicode="&#x2070;" horiz-adv-x="675" d="M313 543q-150 0 -221.5 76.5t-71.5 207.5q0 78 18.5 168t61.5 168t114 130.5t175 52.5q152 0 223.5 -80t71.5 -215q0 -78 -19.5 -167t-62.5 -165t-114 -126t-175 -50zM457 1079q0 14 -2 31.5t-9.5 32t-20.5 25t-34 10.5q-37 0 -64.5 -47.5t-46 -110t-27.5 -123.5t-9 -88 q0 -14 2 -31.5t10 -33t20.5 -25.5t34.5 -10q37 0 64.5 48t46 110.5t27 123.5t8.5 88z" />
<glyph unicode="&#x2074;" horiz-adv-x="675" d="M557 729l-37 -170h-221l33 170h-314l2 158l347 438h315l-90 -424h78l-33 -172h-80zM438 1176l-219 -283h158z" />
<glyph unicode="&#x2075;" horiz-adv-x="675" d="M340 1040q49 0 100.5 -12t92 -37.5t66.5 -66.5t26 -97q0 -63 -23.5 -116.5t-68 -91t-108 -59t-142.5 -21.5q-74 0 -158 18t-143 53l47 181q20 -12 48.5 -26.5t60.5 -26t63.5 -18.5t60.5 -7q119 0 119 92q0 47 -53.5 66.5t-124.5 19.5q-41 0 -76 -5t-64 -12l-18 48 l129 401h520l-37 -186h-323l-35 -97h41z" />
<glyph unicode="&#x2076;" horiz-adv-x="675" d="M672 1167q-135 -4 -237.5 -38.5t-153.5 -122.5l4 -5q43 25 89 36.5t85 11.5q86 0 145.5 -56.5t59.5 -154.5q0 -59 -21.5 -113.5t-63.5 -95.5t-103.5 -65.5t-141.5 -24.5q-82 0 -140.5 24.5t-95.5 66.5t-54 95t-17 113q0 104 39.5 194t116.5 157.5t188.5 107.5t257.5 46z M248 803q0 -47 21.5 -75t62.5 -28q49 0 76.5 38t27.5 85q0 41 -25.5 64.5t-60.5 23.5q-18 0 -44.5 -5t-43.5 -15q-14 -49 -14 -88z" />
<glyph unicode="&#x2077;" horiz-adv-x="675" d="M84 1137l33 184h588l-27 -166l-418 -596h-244l412 578h-344z" />
<glyph unicode="&#x2078;" horiz-adv-x="675" d="M645 786q0 -63 -27.5 -109t-71.5 -76t-101.5 -44t-114.5 -14q-49 0 -106.5 9t-107.5 31.5t-83 61.5t-33 98q0 43 17.5 75t45 53.5t63.5 36t73 20.5q-53 27 -89 66.5t-36 97.5q0 61 24.5 107t66.5 76t98 44t118 14q49 0 104.5 -9t101.5 -31.5t76.5 -61.5t30.5 -101 q0 -80 -53 -120.5t-133 -57.5q55 -25 96 -66t41 -100zM475 1110q0 41 -24.5 61.5t-61.5 20.5q-41 0 -68.5 -22.5t-27.5 -63.5t37 -65.5t69 -39.5q33 16 54.5 44t21.5 65zM426 776q0 20 -11.5 37.5t-27.5 31t-35.5 23t-36.5 17.5q-35 -16 -58.5 -45t-23.5 -68q0 -43 28 -62.5 t67 -19.5q41 0 69.5 21.5t28.5 64.5z" />
<glyph unicode="&#x2079;" horiz-adv-x="675" d="M416 872q-35 -20 -78 -34.5t-92 -14.5q-86 0 -144.5 56.5t-58.5 154.5q0 59 21.5 113.5t63.5 96.5t103.5 66.5t141.5 24.5q82 0 140 -24.5t95 -66.5t54.5 -96t17.5 -112q0 -104 -40 -195t-117 -159t-189.5 -107.5t-255.5 -46.5l-43 179q55 2 113.5 12t110.5 29.5t94 48 t65 69.5zM459 1063q0 47 -21.5 79t-62.5 32q-55 0 -80 -38t-25 -85q0 -41 26 -64.5t60 -23.5q18 0 45 5t43 15q8 16 11.5 39t3.5 41zM418 866l2 2z" />
<glyph unicode="&#x207a;" horiz-adv-x="675" d="M389 877v-187h-139v187h-187l3 135h184v186h139v-186h182l4 -135h-186z" />
<glyph unicode="&#x207b;" horiz-adv-x="675" d="M63 879l5 131h505l2 -131h-512z" />
<glyph unicode="&#x2080;" horiz-adv-x="675" d="M313 -309q-150 0 -221.5 76.5t-71.5 207.5q0 78 18.5 168t61.5 168t114 130.5t175 52.5q152 0 223.5 -80t71.5 -215q0 -78 -19.5 -167t-62.5 -165t-114 -126t-175 -50zM457 227q0 14 -2 31.5t-9.5 32t-20.5 25t-34 10.5q-37 0 -64.5 -47.5t-46 -110t-27.5 -123.5t-9 -88 q0 -14 2 -31.5t10 -33t20.5 -25.5t34.5 -10q37 0 64.5 48t46 110.5t27 123.5t8.5 88z" />
<glyph unicode="&#x2081;" horiz-adv-x="675" d="M188 -293l136 531l-185 -29l25 199l471 75l-193 -776h-254z" />
<glyph unicode="&#x2082;" horiz-adv-x="675" d="M-4 -293l20 174q100 76 172 128t118 92t68.5 72t22.5 67q0 39 -28.5 54t-63.5 15q-45 0 -88 -15t-82 -38l-47 172q66 35 137.5 54.5t143.5 19.5q51 0 103 -10.5t94 -35t69 -64.5t27 -99q0 -68 -34 -124t-87.5 -103.5t-117 -87t-124.5 -76.5h154h151l-31 -195h-577z" />
<glyph unicode="&#x2083;" horiz-adv-x="675" d="M422 102q39 0 74.5 -12t63.5 -34.5t44.5 -56.5t16.5 -77q0 -111 -95.5 -172t-249.5 -61q-80 0 -154.5 18.5t-133.5 48.5l63 168q47 -23 114.5 -39t127.5 -16q16 0 35.5 4t37 13.5t29 23.5t11.5 37q0 43 -43.5 56t-96.5 13h-42t-46 -2l23 152q14 0 50 2t73.5 11t66.5 26.5 t29 50.5q0 31 -24.5 46t-65.5 15q-43 0 -95.5 -13t-89.5 -30l-43 168q66 27 128.5 41.5t127.5 14.5q45 0 96.5 -9.5t95.5 -31t72.5 -58.5t28.5 -92q0 -49 -21.5 -86t-55 -61.5t-73.5 -38t-79 -19.5z" />
<glyph unicode="&#x2084;" horiz-adv-x="675" d="M557 -123l-37 -170h-221l33 170h-314l2 158l347 438h315l-90 -424h78l-33 -172h-80zM438 324l-219 -283h158z" />
<glyph unicode="&#x2085;" horiz-adv-x="675" d="M340 188q49 0 100.5 -12t92 -37.5t66.5 -66.5t26 -97q0 -63 -23.5 -116.5t-68 -91t-108 -59t-142.5 -21.5q-74 0 -158 18.5t-143 52.5l47 181q20 -12 48.5 -26.5t60.5 -26t63.5 -18.5t60.5 -7q119 0 119 92q0 47 -53.5 66.5t-124.5 19.5q-41 0 -76 -5t-64 -11l-18 47 l129 401h520l-37 -186h-323l-35 -97h41z" />
<glyph unicode="&#x2086;" horiz-adv-x="675" d="M672 315q-135 -4 -237.5 -38.5t-153.5 -122.5l4 -4q43 25 89 36t85 11q86 0 145.5 -56.5t59.5 -154.5q0 -59 -21.5 -113.5t-63.5 -95.5t-103.5 -65.5t-141.5 -24.5q-82 0 -140.5 24.5t-95.5 66.5t-54 95t-17 113q0 104 39.5 194t116.5 158t188.5 107.5t257.5 46.5z M248 -49q0 -47 21.5 -75t62.5 -28q49 0 76.5 38t27.5 85q0 41 -25.5 64.5t-60.5 23.5q-18 0 -44.5 -5t-43.5 -15q-14 -49 -14 -88z" />
<glyph unicode="&#x2087;" horiz-adv-x="675" d="M84 285l33 184h588l-27 -166l-418 -596h-244l412 578h-344z" />
<glyph unicode="&#x2088;" horiz-adv-x="675" d="M645 -66q0 -63 -27.5 -109t-71.5 -76t-101.5 -44t-114.5 -14q-49 0 -106.5 9t-107.5 31.5t-83 61.5t-33 98q0 43 17.5 75t45 53.5t63.5 36t73 20.5q-53 27 -89 66.5t-36 97.5q0 61 24.5 107t66.5 76t98 44t118 14q49 0 104.5 -9t101.5 -31.5t76.5 -61.5t30.5 -100 q0 -80 -53 -121t-133 -58q55 -25 96 -66t41 -100zM475 258q0 41 -24.5 61.5t-61.5 20.5q-41 0 -68.5 -22.5t-27.5 -63.5t37 -65.5t69 -38.5q33 16 54.5 43.5t21.5 64.5zM426 -76q0 20 -11.5 38t-27.5 31t-35.5 22.5t-36.5 17.5q-35 -16 -58.5 -45t-23.5 -68q0 -43 28 -62.5 t67 -19.5q41 0 69.5 21.5t28.5 64.5z" />
<glyph unicode="&#x2089;" horiz-adv-x="675" d="M416 20q-35 -20 -78 -34.5t-92 -14.5q-86 0 -144.5 56.5t-58.5 154.5q0 59 21.5 113.5t63.5 96.5t103.5 66.5t141.5 24.5q82 0 140 -24.5t95 -66.5t54.5 -96t17.5 -112q0 -104 -40 -195t-117 -159t-189.5 -107.5t-255.5 -46.5l-43 179q55 2 113.5 12t110.5 29.5t94 48 t65 69.5zM459 211q0 47 -21.5 79t-62.5 32q-55 0 -80 -38t-25 -85q0 -41 26 -64.5t60 -23.5q18 0 45 5t43 15q8 16 11.5 39t3.5 41zM418 14l2 2z" />
<glyph unicode="&#x208a;" horiz-adv-x="675" d="M389 25v-187h-139v187h-187l3 135h184v186h139v-186h182l4 -135h-186z" />
<glyph unicode="&#x20ac;" horiz-adv-x="1126" d="M133 729l-6 141h162q70 203 205 324t354 121q49 0 104.5 -7.5t107.5 -21.5t99 -35.5t84 -48.5l-102 -239q-55 41 -130 68.5t-147 27.5q-86 0 -148.5 -53.5t-97.5 -135.5h404l-6 -141h-449q-4 -23 -8 -45t-8 -45q-4 -20 -7 -40.5t-5 -43.5h342l6 -141h-344 q10 -96 64.5 -149.5t185.5 -53.5q55 0 110 10t105 33v-244q-53 -23 -132 -36t-159 -13q-250 0 -375 119t-131 334h-162l6 141h166q0 23 3 42t5 40q4 23 8.5 46.5t10.5 45.5h-115z" />
<glyph unicode="&#x2122;" horiz-adv-x="2011" d="M1769 516l7 567h-23l-164 -542h-227l-135 546h-25l-6 -571h-186l12 766h346l98 -530h25l129 530h342l6 -766h-199zM641 1104v-588h-207v588h-258v178h748v-178h-283z" />
<glyph unicode="&#x25fc;" horiz-adv-x="952" d="M0 952h952v-952h-952v952z" />
<glyph unicode="&#xf6c3;" horiz-adv-x="815" d="M72 -238q12 57 65 97.5t123 34.5q82 -10 124 -66.5t26 -136.5q-20 -98 -109.5 -168t-230.5 -98l-54 79q78 33 118 67t46 69q6 31 -12 59t-96 63z" />
<glyph horiz-adv-x="858" d="M733 397q-43 -223 -165 -324.5t-308 -101.5q-104 0 -183 26t-134 69l82 278q57 -53 114.5 -76.5t106.5 -23.5q59 0 102 42t64 140l166 854h325l-170 -883v0z" />
<glyph horiz-adv-x="1167" d="M1020 297q-10 -47 1 -65.5t58 -22.5l-71 -229q-82 -8 -139.5 -1t-95.5 26.5t-57.5 48t-23.5 65.5h-2q-53 -57 -125.5 -103.5t-158.5 -46.5q-74 0 -137.5 29t-110.5 84t-75 133t-28 176q0 129 42 236.5t116 185.5t174 122t217 44q66 0 117 -14.5t100 -36.5l334 55z M784 682q-29 29 -68.5 49.5t-90.5 20.5q-57 0 -102.5 -29t-77 -75t-49 -106.5t-17.5 -123.5q0 -100 48 -156.5t120 -56.5q51 0 87 18.5t64 40.5z" />
<glyph horiz-adv-x="1165" d="M975 41q-49 -250 -179 -371t-368 -121q-115 0 -233.5 35t-200.5 86l98 250q70 -47 157 -82t167 -35q92 0 151.5 46.5t81.5 162.5l15 66q-53 -43 -109.5 -68.5t-140.5 -25.5q-70 0 -134.5 27.5t-114.5 81.5t-80 131t-30 175q0 129 42 235.5t116 183.5t174 119t217 42 q66 0 117 -14.5t100 -36.5l334 55zM784 682q-29 29 -68.5 49.5t-90.5 20.5q-57 0 -102.5 -27t-77 -72t-49 -104.5t-17.5 -122.5q0 -100 48 -153.5t120 -53.5q53 0 89 18.5t64 41.5z" />
<glyph horiz-adv-x="1167" d="M1020 297q-10 -47 1 -65.5t58 -22.5l-71 -229q-82 -8 -139.5 -1t-95.5 26.5t-57.5 48t-23.5 65.5h-2q-53 -57 -125.5 -103.5t-158.5 -46.5q-74 0 -137.5 29t-110.5 84t-75 133t-28 176q0 129 42 236.5t116 185.5t174 122t217 44q66 0 117 -14.5t100 -36.5l334 55z M784 682q-29 29 -68.5 49.5t-90.5 20.5q-57 0 -102.5 -29t-77 -75t-49 -106.5t-17.5 -123.5q0 -100 48 -156.5t120 -56.5q51 0 87 18.5t64 40.5zM651 1079l-272 379h346l129 -379h-203z" />
<glyph horiz-adv-x="1167" d="M718 1079h-202l276 379h348zM1020 297q-10 -47 1 -65.5t58 -22.5l-71 -229q-82 -8 -139.5 -1t-95.5 26.5t-57.5 48t-23.5 65.5h-2q-53 -57 -125.5 -103.5t-158.5 -46.5q-74 0 -137.5 29t-110.5 84t-75 133t-28 176q0 129 42 236.5t116 185.5t174 122t217 44 q66 0 117 -14.5t100 -36.5l334 55zM784 682q-29 29 -68.5 49.5t-90.5 20.5q-57 0 -102.5 -29t-77 -75t-49 -106.5t-17.5 -123.5q0 -100 48 -156.5t120 -56.5q51 0 87 18.5t64 40.5z" />
<glyph horiz-adv-x="1167" d="M817 1079l-94 221h-5l-176 -221h-256l316 383h284l170 -383h-239zM1020 297q-10 -47 1 -65.5t58 -22.5l-71 -229q-82 -8 -139.5 -1t-95.5 26.5t-57.5 48t-23.5 65.5h-2q-53 -57 -125.5 -103.5t-158.5 -46.5q-74 0 -137.5 29t-110.5 84t-75 133t-28 176q0 129 42 236.5 t116 185.5t174 122t217 44q66 0 117 -14.5t100 -36.5l334 55zM784 682q-29 29 -68.5 49.5t-90.5 20.5q-57 0 -102.5 -29t-77 -75t-49 -106.5t-17.5 -123.5q0 -100 48 -156.5t120 -56.5q51 0 87 18.5t64 40.5z" />
<glyph horiz-adv-x="1167" d="M1020 297q-10 -47 1 -65.5t58 -22.5l-71 -229q-82 -8 -139.5 -1t-95.5 26.5t-57.5 48t-23.5 65.5h-2q-53 -57 -125.5 -103.5t-158.5 -46.5q-74 0 -137.5 29t-110.5 84t-75 133t-28 176q0 129 42 236.5t116 185.5t174 122t217 44q66 0 117 -14.5t100 -36.5l334 55z M784 682q-29 29 -68.5 49.5t-90.5 20.5q-57 0 -102.5 -29t-77 -75t-49 -106.5t-17.5 -123.5q0 -100 48 -156.5t120 -56.5q51 0 87 18.5t64 40.5zM1171 1397q-45 -154 -106.5 -233t-159.5 -79q-57 0 -103.5 18.5t-84 42t-69.5 42t-61 18.5q-18 0 -30.5 -12t-21.5 -28.5 t-14 -34t-5 -27.5h-201q43 152 104.5 229.5t159.5 77.5q57 0 104.5 -18.5t85.5 -40t68.5 -40t59.5 -18.5q18 0 31.5 12.5t22.5 29t15 33.5t9 28h196v0z" />
<glyph horiz-adv-x="1167" d="M1080 1233q0 -78 -45.5 -118t-118.5 -40q-72 0 -117 40t-45 118t45 118t117 40q74 0 119 -40t45 -118zM602 1233q0 -78 -45 -118t-116 -40q-74 0 -119 40t-45 118t45 118t119 40q72 0 116.5 -40t44.5 -118zM1020 297q-10 -47 1 -65.5t58 -22.5l-71 -229q-82 -8 -139.5 -1 t-95.5 26.5t-57.5 48t-23.5 65.5h-2q-53 -57 -125.5 -103.5t-158.5 -46.5q-74 0 -137.5 29t-110.5 84t-75 133t-28 176q0 129 42 236.5t116 185.5t174 122t217 44q66 0 117 -14.5t100 -36.5l334 55zM784 682q-29 29 -68.5 49.5t-90.5 20.5q-57 0 -102.5 -29t-77 -75 t-49 -106.5t-17.5 -123.5q0 -100 48 -156.5t120 -56.5q51 0 87 18.5t64 40.5z" />
<glyph horiz-adv-x="1167" d="M1044 1325q0 -61 -26.5 -108.5t-69.5 -80t-99.5 -50t-115.5 -17.5q-53 0 -103.5 14.5t-88 42t-61 69.5t-23.5 97q0 61 26.5 108.5t70.5 81.5t100.5 51t115.5 17q53 0 103.5 -14t88 -42t60 -71t22.5 -98zM919 1323q0 68 -46 97.5t-111 29.5q-72 0 -126 -39t-54 -113 q0 -66 47 -96.5t112 -30.5q72 0 125 40t53 112zM1020 297q-10 -47 1 -65.5t58 -22.5l-71 -229q-82 -8 -139.5 -1t-95.5 26.5t-57.5 48t-23.5 65.5h-2q-53 -57 -125.5 -103.5t-158.5 -46.5q-74 0 -137.5 29t-110.5 84t-75 133t-28 176q0 129 42 236.5t116 185.5t174 122 t217 44q66 0 117 -14.5t100 -36.5l334 55zM784 682q-29 29 -68.5 49.5t-90.5 20.5q-57 0 -102.5 -29t-77 -75t-49 -106.5t-17.5 -123.5q0 -100 48 -156.5t120 -56.5q51 0 87 18.5t64 40.5z" />
<glyph horiz-adv-x="1167" d="M856 1599h-202l276 379h348zM1044 1325q0 -61 -26.5 -108.5t-69.5 -80t-99.5 -50t-115.5 -17.5q-53 0 -103.5 14.5t-88 42t-61 69.5t-23.5 97q0 61 26.5 108.5t70.5 81.5t100.5 51t115.5 17q53 0 103.5 -14t88 -42t60 -71t22.5 -98zM919 1323q0 68 -46 97.5t-111 29.5 q-72 0 -126 -39t-54 -113q0 -66 47 -96.5t112 -30.5q72 0 125 40t53 112zM1020 297q-10 -47 1 -65.5t58 -22.5l-71 -229q-82 -8 -139.5 -1t-95.5 26.5t-57.5 48t-23.5 65.5h-2q-53 -57 -125.5 -103.5t-158.5 -46.5q-74 0 -137.5 29t-110.5 84t-75 133t-28 176 q0 129 42 236.5t116 185.5t174 122t217 44q66 0 117 -14.5t100 -36.5l334 55zM784 682q-29 29 -68.5 49.5t-90.5 20.5q-57 0 -102.5 -29t-77 -75t-49 -106.5t-17.5 -123.5q0 -100 48 -156.5t120 -56.5q51 0 87 18.5t64 40.5z" />
<glyph horiz-adv-x="1167" d="M1020 297q-10 -47 1 -65.5t58 -22.5l-71 -229q-82 -8 -139.5 -1t-95.5 26.5t-57.5 48t-23.5 65.5h-2q-53 -57 -125.5 -103.5t-158.5 -46.5q-74 0 -137.5 29t-110.5 84t-75 133t-28 176q0 129 42 236.5t116 185.5t174 122t217 44q66 0 117 -14.5t100 -36.5l334 55z M784 682q-29 29 -68.5 49.5t-90.5 20.5q-57 0 -102.5 -29t-77 -75t-49 -106.5t-17.5 -123.5q0 -100 48 -156.5t120 -56.5q51 0 87 18.5t64 40.5zM323 1124l29 179h698l17 -179h-744z" />
<glyph horiz-adv-x="1167" d="M1020 297q-10 -47 1 -65.5t58 -22.5l-71 -229q-82 -8 -139.5 -1t-95.5 26.5t-57.5 48t-23.5 65.5h-2q-53 -57 -125.5 -103.5t-158.5 -46.5q-74 0 -137.5 29t-110.5 84t-75 133t-28 176q0 129 42 236.5t116 185.5t174 122t217 44q66 0 117 -14.5t100 -36.5l334 55z M784 682q-29 29 -68.5 49.5t-90.5 20.5q-57 0 -102.5 -29t-77 -75t-49 -106.5t-17.5 -123.5q0 -100 48 -156.5t120 -56.5q51 0 87 18.5t64 40.5zM1118 1454q-29 -102 -77 -176t-107.5 -121t-128 -70.5t-136.5 -23.5t-127 23.5t-101 70.5t-61.5 121t-9.5 176l185 -2 q0 -92 33.5 -149.5t109.5 -57.5q80 0 134 57.5t87 149.5l199 2v0z" />
<glyph horiz-adv-x="1167" d="M1020 297q-10 -47 1 -65.5t58 -22.5l-71 -229q-84 -4 -149.5 -42t-82.5 -106q-16 -92 72 -96q29 0 57.5 6t50.5 18l15 -159q-45 -23 -99.5 -38.5t-128.5 -13.5q-111 4 -166 66.5t-36 161.5q16 82 78.5 140t146.5 93q-68 37 -74 109h-2q-53 -57 -125.5 -103.5 t-158.5 -46.5q-74 0 -137.5 29t-110.5 84t-75 133t-28 176q0 129 42 236.5t116 185.5t174 122t217 44q66 0 117 -14.5t100 -36.5l334 55zM784 682q-29 29 -68.5 49.5t-90.5 20.5q-57 0 -102.5 -29t-77 -75t-49 -106.5t-17.5 -123.5q0 -100 48 -156.5t120 -56.5q51 0 87 18.5 t64 40.5z" />
<glyph horiz-adv-x="1165" d="M832 1079l-94 221h-5l-176 -221h-256l316 383h284l170 -383h-239zM975 41q-49 -250 -179 -371t-368 -121q-115 0 -233.5 35t-200.5 86l98 250q70 -47 157 -82t167 -35q92 0 151.5 46.5t81.5 162.5l15 66q-53 -43 -109.5 -68.5t-140.5 -25.5q-70 0 -134.5 27.5 t-114.5 81.5t-80 131t-30 175q0 129 42 235.5t116 183.5t174 119t217 42q66 0 117 -14.5t100 -36.5l334 55zM784 682q-29 29 -68.5 49.5t-90.5 20.5q-57 0 -102.5 -27t-77 -72t-49 -104.5t-17.5 -122.5q0 -100 48 -153.5t120 -53.5q53 0 89 18.5t64 41.5z" />
<glyph horiz-adv-x="1165" d="M975 41q-49 -250 -179 -371t-368 -121q-115 0 -233.5 35t-200.5 86l98 250q70 -47 157 -82t167 -35q92 0 151.5 46.5t81.5 162.5l15 66q-53 -43 -109.5 -68.5t-140.5 -25.5q-70 0 -134.5 27.5t-114.5 81.5t-80 131t-30 175q0 129 42 235.5t116 183.5t174 119t217 42 q66 0 117 -14.5t100 -36.5l334 55zM784 682q-29 29 -68.5 49.5t-90.5 20.5q-57 0 -102.5 -27t-77 -72t-49 -104.5t-17.5 -122.5q0 -100 48 -153.5t120 -53.5q53 0 89 18.5t64 41.5zM1143 1454q-29 -102 -77 -176t-107.5 -121t-128 -70.5t-136.5 -23.5t-127 23.5t-101 70.5 t-61.5 121t-9.5 176l185 -2q0 -92 33.5 -149.5t109.5 -57.5q80 0 134 57.5t87 149.5l199 2v0z" />
<glyph horiz-adv-x="1165" d="M975 41q-49 -250 -179 -371t-368 -121q-115 0 -233.5 35t-200.5 86l98 250q70 -47 157 -82t167 -35q92 0 151.5 46.5t81.5 162.5l15 66q-53 -43 -109.5 -68.5t-140.5 -25.5q-70 0 -134.5 27.5t-114.5 81.5t-80 131t-30 175q0 129 42 235.5t116 183.5t174 119t217 42 q66 0 117 -14.5t100 -36.5l334 55zM784 682q-29 29 -68.5 49.5t-90.5 20.5q-57 0 -102.5 -27t-77 -72t-49 -104.5t-17.5 -122.5q0 -100 48 -153.5t120 -53.5q53 0 89 18.5t64 41.5zM903 1229q-4 -74 -53 -126t-127 -52t-123 52t-41 126q2 33 16.5 65.5t39 57t57 40 t71.5 15.5q78 0 121 -53t39 -125z" />
<glyph horiz-adv-x="1165" d="M882.004 1198.99q-11.999 -56.9961 -64.9951 -97.4941q-52.9971 -40.4971 -122.993 -34.498q-81.9951 10 -123.992 66.4961q-41.9971 56.4971 -25.998 136.492q19.998 97.9941 109.493 167.989q89.4941 69.9961 230.485 97.9941l53.9971 -78.9951 q-77.9951 -32.998 -117.993 -66.9961q-39.9971 -33.998 -45.9971 -68.9951q-5.99902 -30.999 11.999 -58.9971q17.999 -27.998 95.9941 -62.9961zM975 41q-49 -250 -179 -371t-368 -121q-115 0 -233.5 35t-200.5 86l98 250q70 -47 157 -82t167 -35q92 0 151.5 46.5 t81.5 162.5l15 66q-53 -43 -109.5 -68.5t-140.5 -25.5q-70 0 -134.5 27.5t-114.5 81.5t-80 131t-30 175q0 129 42 235.5t116 183.5t174 119t217 42q66 0 117 -14.5t100 -36.5l334 55zM784 682q-29 29 -68.5 49.5t-90.5 20.5q-57 0 -102.5 -27t-77 -72t-49 -104.5 t-17.5 -122.5q0 -100 48 -153.5t120 -53.5q53 0 89 18.5t64 41.5z" />
<glyph horiz-adv-x="858" d="M881 1407l-94 221h-5l-176 -221h-256l316 383h284l170 -383h-239zM733 397q-43 -223 -165 -324.5t-308 -101.5q-104 0 -183 26t-134 69l82 278q57 -53 114.5 -76.5t106.5 -23.5q59 0 102 42t64 140l166 854h325l-170 -883v0z" />
<glyph horiz-adv-x="571" d="M479 524q0 -84 -53 -135t-139 -51q-88 0 -141.5 51t-53.5 135q0 86 53.5 136.5t141.5 50.5q86 0 139 -50.5t53 -136.5z" />
<glyph horiz-adv-x="1148" d="M1016 0h-307l-23 180h-342l-100 -180h-314l553 981h396zM633 770l-197 -381h238z" />
<glyph horiz-adv-x="1077" d="M795 489q88 -27 129 -83t41 -123q0 -59 -25 -110.5t-79 -90.5t-139 -60.5t-204 -21.5h-487l186 981h459q92 0 158.5 -19.5t107.5 -53.5t60.5 -79t19.5 -94q0 -92 -58 -152.5t-169 -93.5zM733 680q0 43 -38 67.5t-107 24.5h-123l-41 -203h121q102 -2 145 27t43 84z M696 315q0 96 -161 97h-142l-39 -205h152q113 0 152.5 27.5t37.5 80.5z" />
<glyph horiz-adv-x="1021" d="M961 680q-72 25 -147 42t-136 17q-72 0 -126 -22.5t-89 -62.5t-52.5 -93t-17.5 -117q0 -106 68.5 -154t173.5 -48q117 0 225 51l29 -277q-47 -16 -126 -28.5t-149 -12.5q-256 0 -396 122t-140 333q0 109 36 212t109.5 183t187 129.5t267.5 49.5q92 0 178 -14.5t164 -39.5 z" />
<glyph horiz-adv-x="1167" d="M1092 561q0 -111 -36 -213t-114 -179t-204 -123t-304 -46h-403l186 981h371q106 0 198.5 -26.5t160 -80t106.5 -131.5t39 -182zM776 547q-2 100 -60.5 149t-156.5 47h-74l-98 -505h92q63 0 117.5 19t94.5 57t62.5 96.5t22.5 136.5z" />
<glyph horiz-adv-x="978" d="M31 0l186 981h766l-43 -229h-475l-29 -154h395l-40 -213h-398l-31 -156h478l-45 -229h-764z" />
<glyph horiz-adv-x="942" d="M217 981h752l-41 -231h-453l-35 -170h371l-41 -218h-362l-74 -362h-303z" />
<glyph horiz-adv-x="1134" d="M379 428q2 -92 60.5 -152.5t168.5 -60.5q35 0 67 4t60 10l29 136h-213l41 202h469l-98 -532q-74 -29 -160 -46.5t-185 -17.5q-117 0 -216 31t-170.5 89.5t-111.5 143t-40 191.5q0 113 39 218.5t116.5 186t192.5 129t268 48.5q111 0 196 -13.5t169 -40.5l-62 -264 q-70 31 -151.5 50.5t-151.5 19.5q-80 0 -139 -24.5t-99 -68.5t-59.5 -105.5t-19.5 -133.5z" />
<glyph horiz-adv-x="1191" d="M674 0l71 365h-333l-70 -365h-311l186 981h315l-71 -358h332l69 358h312l-191 -981h-309z" />
<glyph horiz-adv-x="550" d="M31 0l188 981h313l-192 -981h-309z" />
<glyph horiz-adv-x="835" d="M707 338q-35 -174 -132.5 -268.5t-275.5 -94.5q-98 0 -187 30t-159 81l104 229q47 -39 97.5 -62.5t105.5 -23.5q70 0 100.5 41t45.5 113l114 598h314l-127 -643v0z" />
<glyph horiz-adv-x="1089" d="M807 981h354l-452 -477l256 -504h-355l-188 414h-2q-10 -49 -22.5 -120t-24.5 -136q-14 -78 -31 -158h-311l186 981h311l-75 -412zM453 567h-2l2 2v-2z" />
<glyph horiz-adv-x="925" d="M31 0l186 981h315l-141 -729h436l-49 -252h-747z" />
<glyph horiz-adv-x="1456" d="M981 0l115 664l-285 -654h-332l-33 654l-145 -664h-297l232 981h436l26 -678l289 678h447l-160 -981h-293z" />
<glyph horiz-adv-x="1202" d="M883 981h303l-187 -991h-342l-221 588l-108 -578h-297l180 981h348l225 -580z" />
<glyph horiz-adv-x="1210" d="M1151 559q0 -131 -47 -238.5t-126 -184.5t-183.5 -120t-219.5 -43q-104 0 -196 30t-160.5 86t-108.5 139t-40 192q0 135 47 243.5t127 185.5t184 118t221 41q104 0 195.5 -31t160 -89.5t107.5 -141.5t39 -187zM846 555q0 98 -54.5 158.5t-152.5 60.5q-66 0 -115 -30.5 t-81.5 -80t-49 -112t-16.5 -125.5q0 -98 56 -158.5t161 -60.5q57 0 104 30.5t80 80t50.5 112t17.5 125.5z" />
<glyph horiz-adv-x="1069" d="M1028 657q0 -82 -28.5 -153.5t-87 -124.5t-148.5 -84t-215 -31h-158l-49 -264h-311l186 981h412q94 0 168.5 -25.5t126 -68.5t78 -102.5t26.5 -127.5zM735 635q0 61 -47 98t-129 37h-80l-59 -299l104 2q106 0 158.5 44t52.5 118z" />
<glyph horiz-adv-x="1210" d="M1116 -47l-149 -246l-383 266h-9q-104 0 -196 30t-160.5 86t-108.5 139t-40 192q0 135 47 243.5t127 185.5t184 118t221 41q104 0 195.5 -31t160 -89.5t107.5 -141t39 -187.5q0 -166 -70.5 -290t-189.5 -195zM848 555q0 98 -55.5 159.5t-153.5 61.5q-66 0 -115 -30.5 t-82.5 -81t-50 -114t-16.5 -126.5q0 -98 57 -160.5t162 -62.5q57 0 104 31.5t81 83t51.5 114t17.5 125.5z" />
<glyph horiz-adv-x="1110" d="M334 0h-305l188 981h459q86 0 154.5 -21.5t116.5 -60.5t75 -90t27 -113q0 -123 -67 -200.5t-169 -110.5l152 -385h-324l-109 319l-137 -6zM547 502q78 0 135 33.5t57 115.5q0 53 -42 86t-113 33h-103l-53 -270z" />
<glyph horiz-adv-x="985" d="M467 199q61 0 95 19.5t32 57.5q0 16 -8 28.5t-31 25t-61.5 28t-102.5 37.5q-53 18 -102 44t-87 59.5t-60.5 78t-22.5 101.5q0 82 29.5 144.5t83 104.5t127 63.5t161.5 21.5q113 0 225.5 -29t204.5 -82l-55 -252q-41 20 -90 43t-99.5 39.5t-100.5 27.5t-89 11 q-47 0 -76.5 -17.5t-29.5 -52.5q0 -18 11 -30.5t34.5 -24.5t60.5 -25.5t90 -31.5q51 -18 101.5 -41t89.5 -55.5t62.5 -75.5t23.5 -103q0 -84 -33 -148.5t-90.5 -107.5t-136 -64.5t-168.5 -21.5q-53 0 -112.5 8.5t-120 22.5t-116 35.5t-98.5 48.5l53 254q41 -25 92.5 -50.5 t104.5 -46t107.5 -32.5t101.5 -12z" />
<glyph horiz-adv-x="1034" d="M725 727l-143 -727h-312l144 727h-314l50 254h935l-49 -254h-311z" />
<glyph horiz-adv-x="1130" d="M1010 369q-39 -207 -167 -300.5t-317 -93.5q-219 0 -333.5 90.5t-114.5 245.5q0 55 12 111l111 559h311l-104 -549q-10 -41 -11 -80q0 -127 144 -127q76 0 110.5 42t48.5 114q8 43 19 94q8 43 19.5 96.5t21.5 110.5q25 131 59 299h309q-35 -170 -59 -305 q-12 -59 -22.5 -113.5t-18.5 -97.5q-8 -51 -18 -96z" />
<glyph horiz-adv-x="1099" d="M647 2h-389l-141 979h305l82 -719l385 719h315z" />
<glyph horiz-adv-x="1593" d="M526 0h-309l-65 981h313l-16 -637l276 637h332l35 -637l223 637h325l-452 -981h-320l-39 641z" />
<glyph horiz-adv-x="1099" d="M281 0h-342l430 489l-232 492h342l109 -315l227 315h344l-418 -481l240 -500h-344l-119 328z" />
<glyph horiz-adv-x="1048" d="M657 348l-69 -348h-307l71 375l-237 606h323l115 -383l250 383h327z" />
<glyph horiz-adv-x="1017" d="M-14 0l39 199l575 534h-461l49 248h844l-39 -201l-567 -532h465l-49 -248h-856z" />
<glyph horiz-adv-x="1972" d="M442 201q66 -4 106 14t44 59q4 35 -51.5 59.5t-145.5 57.5q-53 18 -106 46t-93 66t-61.5 90t-11.5 120q20 150 137 229.5t315 65.5q135 -10 229.5 -43t158.5 -70l-82 -244q-37 20 -79 41t-86 36t-87 26.5t-82 13.5q-51 4 -85 -13.5t-36 -52.5q-2 -18 14.5 -33.5t44 -28.5 t61.5 -25.5t66 -24.5q57 -20 109.5 -47t90.5 -64t56.5 -86t10.5 -112q-10 -76 -47 -136.5t-98.5 -100.5t-146.5 -59.5t-192 -11.5q-127 10 -232.5 45t-166.5 76l78 240q78 -47 179 -87t189 -46zM1427 201q66 -4 106 14t44 59q4 35 -51.5 59.5t-145.5 57.5q-53 18 -105 46 t-92 66t-61.5 90t-11.5 120q20 150 136 229.5t317 65.5q133 -10 227 -43t158 -70l-82 -244q-37 20 -79 41t-86 36t-87 26.5t-82 13.5q-49 4 -83 -13.5t-38 -52.5q-2 -18 14.5 -33.5t44 -28.5t61.5 -25.5t66 -24.5q57 -20 109.5 -47t90.5 -64t56.5 -86t10.5 -112 q-10 -76 -47 -136.5t-98.5 -100.5t-146.5 -59.5t-192 -11.5q-125 10 -230.5 45t-166.5 76l78 240q37 -25 83 -47.5t94 -41t97 -30.5t92 -14z" />
<glyph horiz-adv-x="1148" d="M598 1079l-272 379h346l129 -379h-203zM1016 0h-307l-23 180h-342l-100 -180h-314l553 981h396zM633 770l-197 -381h238z" />
<glyph horiz-adv-x="1148" d="M1016 0h-307l-23 180h-342l-100 -180h-314l553 981h396zM633 770l-197 -381h238zM766 1079h-203l277 379h348z" />
<glyph horiz-adv-x="1148" d="M1016 0h-307l-23 180h-342l-100 -180h-314l553 981h396zM633 770l-197 -381h238zM840 1079l-95 221h-4l-176 -221h-256l316 383h284l170 -383h-239z" />
<glyph horiz-adv-x="1148" d="M1016 0h-307l-23 180h-342l-100 -180h-314l553 981h396zM633 770l-197 -381h238zM1155 1397q-45 -154 -106.5 -233t-159.5 -79q-57 0 -103.5 18.5t-84 42t-69.5 42t-61 18.5q-18 0 -30.5 -12t-21.5 -28.5t-14 -34t-5 -27.5h-201q43 152 104.5 229.5t159.5 77.5 q57 0 104.5 -18.5t85.5 -40t68.5 -40t59.5 -18.5q18 0 31.5 12.5t22.5 29t15 33.5t8 28h197z" />
<glyph horiz-adv-x="1148" d="M1016 0h-307l-23 180h-342l-100 -180h-314l553 981h396zM633 770l-197 -381h238zM1130 1245q0 -78 -45 -118t-118 -40q-72 0 -117 40t-45 118t45 118t117 40q74 0 118.5 -40t44.5 -118zM653 1245q0 -78 -45 -118t-116 -40q-74 0 -119 40t-45 118t45 118t119 40 q72 0 116.5 -40t44.5 -118z" />
<glyph horiz-adv-x="1148" d="M633 770l-197 -381h238zM862 1133q0 66 -46 96.5t-111 30.5q-72 0 -126.5 -40t-54.5 -112q0 -66 47 -96.5t113 -30.5q72 0 125 40t53 112zM469 956q-31 25 -49.5 62t-18.5 84q0 59 26 107t69 81t99 50.5t116 17.5q55 0 104 -14.5t87 -42t60.5 -70.5t22.5 -98 q0 -61 -27.5 -108.5t-74.5 -78.5l133 -946h-307l-23 180h-342l-100 -180h-314z" />
<glyph horiz-adv-x="1150" d="M705 1407h-203l276 379h348zM633 770l-197 -381h238zM862 1133q0 66 -46 96.5t-111 30.5q-72 0 -126.5 -40t-54.5 -112q0 -66 47 -96.5t113 -30.5q72 0 125 40t53 112zM469 956q-31 25 -49.5 62t-18.5 84q0 59 26 107t69 81t99 50.5t116 17.5q55 0 104 -14.5t87 -42 t60.5 -70.5t22.5 -98q0 -61 -27.5 -108.5t-74.5 -78.5l133 -946h-307l-23 180h-342l-100 -180h-314z" />
<glyph horiz-adv-x="1150" d="M1016 0h-307l-23 180h-342l-100 -180h-314l553 981h396zM633 770l-197 -381h238zM342 1124l29 179h698l16 -179h-743z" />
<glyph horiz-adv-x="1150" d="M1016 0h-307l-23 180h-342l-100 -180h-314l553 981h396zM633 770l-197 -381h238zM1122 1454q-29 -102 -77 -176t-107 -121t-128 -70.5t-136 -23.5q-68 0 -127.5 23.5t-101.5 70.5t-61 121t-9 176l184 -2q0 -92 34 -149.5t109 -57.5q80 0 134.5 57.5t87.5 149.5z" />
<glyph horiz-adv-x="1150" d="M1018 0q-111 -12 -187.5 -58t-87.5 -110q-16 -94 70 -94q29 -2 58.5 5t52.5 17l12 -159q-45 -23 -99.5 -38.5t-125.5 -13.5q-113 4 -167.5 66.5t-35.5 161.5q14 78 69.5 133t131.5 90l-23 180h-340l-100 -180h-316l553 981h398zM635 768l-197 -379h236z" />
<glyph horiz-adv-x="1574" d="M244 0h-314l680 979h969l-43 -229h-475l-29 -152h393l-41 -215h-395l-28 -154h475l-45 -229h-766l34 180h-292zM700 389l84 426l-284 -426h200z" />
<glyph horiz-adv-x="1576" d="M1073 1079h-203l277 379h348zM244 0h-314l680 979h969l-43 -229h-475l-29 -152h393l-41 -215h-395l-28 -154h475l-45 -229h-766l34 180h-292zM700 389l84 426l-284 -426h200z" />
<glyph horiz-adv-x="1021" d="M446 -8q-176 37 -272 150.5t-96 287.5q0 109 36 212t109.5 183t187 129.5t267.5 49.5q92 0 178 -14.5t164 -39.5l-59 -270q-72 25 -147 42t-136 17q-72 0 -126 -22.5t-89 -62.5t-52.5 -93t-17.5 -117q0 -106 68.5 -154t173.5 -48q117 0 225 51l29 -277 q-47 -16 -126 -28.5t-149 -12.5h-16q-37 -27 -69.5 -49t-49.5 -32q104 -12 163.5 -61.5t59.5 -131.5q0 -53 -26.5 -100t-82.5 -82t-144.5 -56.5t-210.5 -23.5l14 143q76 -4 127 3t80.5 20.5t42 34t12.5 45.5q0 47 -56.5 67.5t-166.5 22.5v106l155 111v0z" />
<glyph horiz-adv-x="1021" d="M653 1079h-202l276 379h348zM961 680q-72 25 -147 42t-136 17q-72 0 -126 -22.5t-89 -62.5t-52.5 -93t-17.5 -117q0 -106 68.5 -154t173.5 -48q117 0 225 51l29 -277q-47 -16 -126 -28.5t-149 -12.5q-256 0 -396 122t-140 333q0 109 36 212t109.5 183t187 129.5 t267.5 49.5q92 0 178 -14.5t164 -39.5z" />
<glyph horiz-adv-x="1021" d="M811 1079l-94 221h-4l-176 -221h-256l315 383h285l170 -383h-240zM961 680q-72 25 -147 42t-136 17q-72 0 -126 -22.5t-89 -62.5t-52.5 -93t-17.5 -117q0 -106 68.5 -154t173.5 -48q117 0 225 51l29 -277q-47 -16 -126 -28.5t-149 -12.5q-256 0 -396 122t-140 333 q0 109 36 212t109.5 183t187 129.5t267.5 49.5q92 0 178 -14.5t164 -39.5z" />
<glyph horiz-adv-x="1021" d="M961 680q-72 25 -147 42t-136 17q-72 0 -126 -22.5t-89 -62.5t-52.5 -93t-17.5 -117q0 -106 68.5 -154t173.5 -48q117 0 225 51l29 -277q-47 -16 -126 -28.5t-149 -12.5q-256 0 -396 122t-140 333q0 109 36 212t109.5 183t187 129.5t267.5 49.5q92 0 178 -14.5t164 -39.5 zM866 1241q-4 -74 -53 -126t-127 -52t-123 52t-41 126q2 33 16.5 65.5t39 57.5t57.5 40t72 15q78 0 120.5 -53t38.5 -125z" />
<glyph horiz-adv-x="1021" d="M575 1462l91 -225h4l176 225h258l-318 -383h-284l-168 383h241zM961 680q-72 25 -147 42t-136 17q-72 0 -126 -22.5t-89 -62.5t-52.5 -93t-17.5 -117q0 -106 68.5 -154t173.5 -48q117 0 225 51l29 -277q-47 -16 -126 -28.5t-149 -12.5q-256 0 -396 122t-140 333 q0 109 36 212t109.5 183t187 129.5t267.5 49.5q92 0 178 -14.5t164 -39.5z" />
<glyph horiz-adv-x="1169" d="M518 1462l90 -223h4l176 223h261l-318 -383h-289l-166 383h242zM1092 561q0 -111 -36 -213t-114 -179t-204 -123t-304 -46h-403l186 981h371q106 0 198.5 -26.5t160 -80t106.5 -131.5t39 -182zM776 547q-2 100 -60.5 149t-156.5 47h-74l-98 -505h92q63 0 117.5 19 t94.5 57t62.5 96.5t22.5 136.5z" />
<glyph horiz-adv-x="1234" d="M1161 561q0 -111 -35.5 -213t-114.5 -179t-204 -123t-303 -46h-406l72 381h-129v221h172l72 379h370q109 0 201 -26.5t159.5 -80t106.5 -131.5t39 -182zM844 547q0 100 -58.5 152.5t-158.5 50.5h-86q-6 -43 -15 -78q-4 -16 -7 -29.5t-5 -24.5q-4 -12 -4 -22h164v-207 h-203l-31 -160h107q133 0 215 81t82 237z" />
<glyph horiz-adv-x="1234" d="M1161 561q0 -111 -35.5 -213t-114.5 -179t-204 -123t-303 -46h-406l72 381h-129v221h172l72 379h370q109 0 201 -26.5t159.5 -80t106.5 -131.5t39 -182zM844 547q0 100 -58.5 152.5t-158.5 50.5h-86q-6 -43 -15 -78q-4 -16 -7 -29.5t-5 -24.5q-4 -12 -4 -22h164v-207 h-203l-31 -160h107q133 0 215 81t82 237z" />
<glyph horiz-adv-x="978" d="M520 1079l-272 379h346l129 -379h-203zM31 0l186 981h766l-43 -229h-475l-29 -154h395l-40 -213h-398l-31 -156h478l-45 -229h-764z" />
<glyph horiz-adv-x="978" d="M31 0l186 981h766l-43 -229h-475l-29 -154h395l-40 -213h-398l-31 -156h478l-45 -229h-764zM692 1079h-203l277 379h348z" />
<glyph horiz-adv-x="978" d="M31 0l186 981h766l-43 -229h-475l-29 -154h395l-40 -213h-398l-31 -156h478l-45 -229h-764zM758 1079l-94 221h-5l-176 -221h-256l316 383h284l170 -383h-239z" />
<glyph horiz-adv-x="978" d="M31 0l186 981h766l-43 -229h-475l-29 -154h395l-40 -213h-398l-31 -156h478l-45 -229h-764zM1030 1245q0 -78 -45 -118t-119 -40q-72 0 -116.5 40t-44.5 118t45 118t116 40q74 0 119 -40t45 -118zM553 1245q0 -78 -45 -118t-117 -40q-74 0 -119 40t-45 118t45 118t119 40 q72 0 117 -40t45 -118z" />
<glyph horiz-adv-x="978" d="M31 0l186 981h766l-43 -229h-475l-29 -154h395l-40 -213h-398l-31 -156h478l-45 -229h-764zM258 1124l29 179h698l16 -179h-743z" />
<glyph horiz-adv-x="978" d="M31 0l186 981h766l-43 -229h-475l-29 -154h395l-40 -213h-398l-31 -156h478l-45 -229h-764zM1071 1454q-29 -102 -77 -176t-107.5 -121t-128 -70.5t-135.5 -23.5q-68 0 -127.5 23.5t-101.5 70.5t-61.5 121t-8.5 176l184 -2q0 -92 33.5 -149.5t109.5 -57.5 q80 0 134.5 57.5t86.5 149.5z" />
<glyph horiz-adv-x="978" d="M31 0l186 981h766l-43 -229h-475l-29 -154h395l-40 -213h-398l-31 -156h478l-45 -229h-764zM821 1241q-4 -74 -53 -126t-127 -52t-123 52t-41 126q2 33 16.5 65.5t39 57.5t57.5 40t72 15q78 0 120.5 -53t38.5 -125z" />
<glyph horiz-adv-x="978" d="M711 0q-59 -37 -97.5 -79t-48.5 -89q-16 -94 72 -94q29 -2 57.5 5t50.5 17l15 -159q-45 -23 -99.5 -38.5t-128.5 -13.5q-113 4 -167 66.5t-35 161.5q14 78 69.5 133t130.5 90h-499l186 981h768l-43 -229h-475l-29 -154h396l-41 -213h-398l-30 -156h477l-45 -229h-86z" />
<glyph horiz-adv-x="978" d="M557 1462l90 -225h4l176 225h258l-317 -383h-285l-168 383h242zM31 0l186 981h766l-43 -229h-475l-29 -154h395l-40 -213h-398l-31 -156h478l-45 -229h-764z" />
<glyph horiz-adv-x="1136" d="M850 1079l-94 221h-4l-177 -221h-256l316 383h285l170 -383h-240zM379 428q2 -92 60.5 -152.5t168.5 -60.5q35 0 67 4t60 10l29 136h-213l41 202h469l-98 -532q-74 -29 -160 -46.5t-185 -17.5q-117 0 -216 31t-170.5 89.5t-111.5 143t-40 191.5q0 113 39 218.5t116.5 186 t192.5 129t268 48.5q111 0 196 -13.5t169 -40.5l-62 -264q-70 31 -151.5 50.5t-151.5 19.5q-80 0 -139 -24.5t-99 -68.5t-59.5 -105.5t-19.5 -133.5z" />
<glyph horiz-adv-x="1136" d="M379 428q2 -92 60.5 -152.5t168.5 -60.5q35 0 67 4t60 10l29 136h-213l41 202h469l-98 -532q-74 -29 -160 -46.5t-185 -17.5q-117 0 -216 31t-170.5 89.5t-111.5 143t-40 191.5q0 113 39 218.5t116.5 186t192.5 129t268 48.5q111 0 196 -13.5t169 -40.5l-62 -264 q-70 31 -151.5 50.5t-151.5 19.5q-80 0 -139 -24.5t-99 -68.5t-59.5 -105.5t-19.5 -133.5zM1137 1454q-29 -102 -77 -176t-107.5 -121t-128 -70.5t-136.5 -23.5t-127 23.5t-101 70.5t-61.5 121t-9.5 176l184 -2q0 -92 34 -149.5t110 -57.5q80 0 134 57.5t87 149.5z" />
<glyph horiz-adv-x="1136" d="M379 428q2 -92 60.5 -152.5t168.5 -60.5q35 0 67 4t60 10l29 136h-213l41 202h469l-98 -532q-74 -29 -160 -46.5t-185 -17.5q-117 0 -216 31t-170.5 89.5t-111.5 143t-40 191.5q0 113 39 218.5t116.5 186t192.5 129t268 48.5q111 0 196 -13.5t169 -40.5l-62 -264 q-70 31 -151.5 50.5t-151.5 19.5q-80 0 -139 -24.5t-99 -68.5t-59.5 -105.5t-19.5 -133.5zM883 1245q-4 -74 -53.5 -126t-127.5 -52t-122.5 52t-40.5 126q2 33 16 65.5t38.5 57.5t57.5 40t72 15q78 0 121 -53t39 -125z" />
<glyph horiz-adv-x="1136" d="M414 -242q12 57 65 97.5t123 33.5q82 -10 124 -66t26 -136q-20 -98 -109.5 -168t-230.5 -99l-54 80q78 33 118 67t46 68q6 31 -12 59.5t-96 63.5zM379 428q2 -92 60.5 -152.5t168.5 -60.5q35 0 67 4t60 10l29 136h-213l41 202h469l-98 -532q-74 -29 -160 -46.5 t-185 -17.5q-117 0 -216 31t-170.5 89.5t-111.5 143t-40 191.5q0 113 39 218.5t116.5 186t192.5 129t268 48.5q111 0 196 -13.5t169 -40.5l-62 -264q-70 31 -151.5 50.5t-151.5 19.5q-80 0 -139 -24.5t-99 -68.5t-59.5 -105.5t-19.5 -133.5z" />
<glyph horiz-adv-x="1193" d="M860 1063l-94 221h-4l-176 -221h-256l315 383h285l170 -383h-240zM674 0l71 365h-333l-70 -365h-311l186 981h315l-71 -358h332l69 358h312l-191 -981h-309z" />
<glyph horiz-adv-x="1193" d="M674 0l69 365h-329l-70 -365h-313l137 719h-143l28 123h137l27 139h318l-29 -139h330l26 139h314l-27 -139h143l-18 -123h-150l-139 -719h-311zM793 623l18 96h-330l-18 -96h330z" />
<glyph horiz-adv-x="550" d="M305 1079l-272 379h346l129 -379h-203zM31 0l188 981h313l-192 -981h-309z" />
<glyph horiz-adv-x="550" d="M467 1079h-203l277 379h348zM31 0l188 981h313l-192 -981h-309z" />
<glyph horiz-adv-x="550" d="M31 0l188 981h313l-192 -981h-309zM541 1079l-95 221h-4l-176 -221h-256l316 383h284l170 -383h-239z" />
<glyph horiz-adv-x="550" d="M829 1245q0 -78 -45 -118t-118 -40q-72 0 -117 40t-45 118t45 118t117 40q74 0 118.5 -40t44.5 -118zM352 1245q0 -78 -45 -118t-117 -40q-74 0 -118.5 40t-44.5 118t45 118t118 40q72 0 117 -40t45 -118zM31 0l188 981h313l-192 -981h-309z" />
<glyph horiz-adv-x="552" d="M31 0l188 981h313l-192 -981h-309zM51 1124l29 179h698l17 -179h-744z" />
<glyph horiz-adv-x="552" d="M31 0l188 981h313l-192 -981h-309zM829 1454q-29 -102 -76.5 -176t-107 -121t-128 -70.5t-136.5 -23.5t-127 23.5t-101 70.5t-61.5 121t-9.5 176l184 -2q0 -92 34 -149.5t110 -57.5q80 0 134 57.5t87 149.5z" />
<glyph horiz-adv-x="552" d="M98 -457q-113 4 -167 66.5t-35 161.5q16 80 75.5 137t139.5 92h-82l190 981h316l-193 -981q-86 -18 -143.5 -67.5t-67.5 -108.5q-16 -90 70 -94q29 0 58.5 6t51.5 18l13 -160q-45 -25 -99.5 -39t-126.5 -12z" />
<glyph horiz-adv-x="550" d="M31 0l188 981h313l-192 -981h-309zM598 1229q-4 -74 -53 -126t-127 -52t-123 52t-41 126q2 33 16.5 65.5t39 57t57 40t71.5 15.5q78 0 121 -53t39 -125z" />
<glyph horiz-adv-x="550" d="M31 0l188 981h313l-192 -981h-309z" />
<glyph horiz-adv-x="837" d="M709 340q-35 -176 -132.5 -270.5t-277.5 -94.5q-98 0 -187 30t-159 81l104 231q47 -39 98.5 -62.5t104.5 -23.5q70 0 100.5 41t45.5 113l114 596h316zM821 1067l-94 221h-4l-176 -221h-256l315 383h285l170 -383h-240z" />
<glyph horiz-adv-x="837" d="M709 340q-35 -176 -132.5 -270.5t-277.5 -94.5q-98 0 -187 30t-159 81l104 231q47 -39 98.5 -62.5t104.5 -23.5q70 0 100.5 41t45.5 113l114 596h316l-127 -641v0z" />
<glyph horiz-adv-x="1091" d="M281 -238q12 57 65 97.5t123 34.5q82 -10 124 -66.5t25 -136.5q-20 -98 -109 -168t-230 -98l-54 79q78 33 118 67t46 69q6 31 -12 59t-96 63zM807 981h354l-452 -477l256 -504h-355l-188 414h-2q-10 -49 -22.5 -120t-24.5 -136q-14 -78 -31 -158h-311l186 981h311 l-75 -412zM453 567h-2l2 2v-2z" />
<glyph horiz-adv-x="925" d="M430 1067h-203l277 379h348zM31 0l186 981h315l-141 -729h436l-49 -252h-747z" />
<glyph horiz-adv-x="925" d="M209 -238q12 57 65.5 97.5t122.5 34.5q82 -10 124 -66.5t26 -136.5q-20 -98 -109.5 -168t-230.5 -98l-53 79q78 33 117.5 67t45.5 69q6 31 -12 59t-96 63zM31 0l186 981h315l-141 -729h436l-49 -252h-747z" />
<glyph horiz-adv-x="1482" d="M995 834q16 78 70.5 125t140.5 47q49 0 90 -19.5t72 -52.5t47.5 -77t16.5 -93q0 -84 -42 -154.5t-106.5 -128t-141.5 -99.5t-145 -67l-112 129q27 12 69.5 38t81.5 58.5t68 69.5t29 74q0 55 -42.5 89t-95.5 61zM31 0l186 981h315l-141 -729h436l-49 -252h-747z" />
<glyph horiz-adv-x="1390" d="M31 0l186 981h315l-141 -729h436l-49 -252h-747zM1278 524q0 -84 -53.5 -135t-139.5 -51q-88 0 -141 51t-53 135q0 86 53 136.5t141 50.5q86 0 139.5 -50.5t53.5 -136.5z" />
<glyph horiz-adv-x="993" d="M35 283v223l170 49q4 29 12 66q4 29 11.5 67.5t15.5 79.5l41 213h315l-63 -328l192 58v-224l-237 -69l-33 -166h436l-49 -252h-748l62 319z" />
<glyph horiz-adv-x="1202" d="M883 981h303l-187 -991h-342l-221 588l-108 -578h-297l180 981h348l225 -580zM1182 1397q-45 -154 -106.5 -233t-160.5 -79q-57 0 -103 18.5t-84 42t-69.5 42t-60.5 18.5q-18 0 -30.5 -12t-21.5 -28.5t-14.5 -34t-5.5 -27.5h-200q43 152 104.5 229.5t159.5 77.5 q57 0 104 -18.5t85 -40t69 -40t59 -18.5q18 0 31.5 12.5t23 29t15.5 33.5t8 28h197z" />
<glyph horiz-adv-x="1204" d="M774 1079h-203l277 379h348zM883 981h303l-187 -991h-342l-221 588l-108 -578h-297l180 981h348l225 -580z" />
<glyph horiz-adv-x="1204" d="M328 -238q12 57 65 97.5t123 34.5q82 -10 124 -66.5t26 -136.5q-20 -98 -109.5 -168t-230.5 -98l-54 79q78 33 118 67t46 69q6 31 -12 59t-96 63zM883 981h303l-187 -991h-342l-221 588l-108 -578h-297l180 981h348l225 -580z" />
<glyph horiz-adv-x="1204" d="M686 1462l90 -225h4l176 225h258l-317 -383h-285l-168 383h242zM883 981h303l-187 -991h-342l-221 588l-108 -578h-297l180 981h348l225 -580z" />
<glyph horiz-adv-x="1210" d="M643 1079l-272 379h346l129 -379h-203zM1151 559q0 -131 -47 -238.5t-126 -184.5t-183.5 -120t-219.5 -43q-104 0 -196 30t-160.5 86t-108.5 139t-40 192q0 135 47 243.5t127 185.5t184 118t221 41q104 0 195.5 -31t160 -89.5t107.5 -141.5t39 -187zM846 555 q0 98 -54.5 158.5t-152.5 60.5q-66 0 -115 -30.5t-81.5 -80t-49 -112t-16.5 -125.5q0 -98 56 -158.5t161 -60.5q57 0 104 30.5t80 80t50.5 112t17.5 125.5z" />
<glyph horiz-adv-x="1210" d="M1151 559q0 -131 -47 -238.5t-126 -184.5t-183.5 -120t-219.5 -43q-104 0 -196 30t-160.5 86t-108.5 139t-40 192q0 135 47 243.5t127 185.5t184 118t221 41q104 0 195.5 -31t160 -89.5t107.5 -141.5t39 -187zM846 555q0 98 -54.5 158.5t-152.5 60.5q-66 0 -115 -30.5 t-81.5 -80t-49 -112t-16.5 -125.5q0 -98 56 -158.5t161 -60.5q57 0 104 30.5t80 80t50.5 112t17.5 125.5zM762 1079h-203l277 379h348z" />
<glyph horiz-adv-x="1210" d="M1151 559q0 -131 -47 -238.5t-126 -184.5t-183.5 -120t-219.5 -43q-104 0 -196 30t-160.5 86t-108.5 139t-40 192q0 135 47 243.5t127 185.5t184 118t221 41q104 0 195.5 -31t160 -89.5t107.5 -141.5t39 -187zM846 555q0 98 -54.5 158.5t-152.5 60.5q-66 0 -115 -30.5 t-81.5 -80t-49 -112t-16.5 -125.5q0 -98 56 -158.5t161 -60.5q57 0 104 30.5t80 80t50.5 112t17.5 125.5zM864 1079l-94 221h-4l-176 -221h-256l315 383h285l170 -383h-240z" />
<glyph horiz-adv-x="1210" d="M1151 559q0 -131 -47 -238.5t-126 -184.5t-183.5 -120t-219.5 -43q-104 0 -196 30t-160.5 86t-108.5 139t-40 192q0 135 47 243.5t127 185.5t184 118t221 41q104 0 195.5 -31t160 -89.5t107.5 -141.5t39 -187zM846 555q0 98 -54.5 158.5t-152.5 60.5q-66 0 -115 -30.5 t-81.5 -80t-49 -112t-16.5 -125.5q0 -98 56 -158.5t161 -60.5q57 0 104 30.5t80 80t50.5 112t17.5 125.5zM1180 1397q-45 -154 -106.5 -233t-160.5 -79q-57 0 -103 18.5t-84 42t-69.5 42t-60.5 18.5q-18 0 -30.5 -12t-21.5 -28.5t-14.5 -34t-5.5 -27.5h-200 q43 152 104 229.5t160 77.5q57 0 104 -18.5t85 -40t69 -40t59 -18.5q18 0 31.5 12.5t23 29t15.5 33.5t8 28h197z" />
<glyph horiz-adv-x="1210" d="M1151 559q0 -131 -47 -238.5t-126 -184.5t-183.5 -120t-219.5 -43q-104 0 -196 30t-160.5 86t-108.5 139t-40 192q0 135 47 243.5t127 185.5t184 118t221 41q104 0 195.5 -31t160 -89.5t107.5 -141.5t39 -187zM846 555q0 98 -54.5 158.5t-152.5 60.5q-66 0 -115 -30.5 t-81.5 -80t-49 -112t-16.5 -125.5q0 -98 56 -158.5t161 -60.5q57 0 104 30.5t80 80t50.5 112t17.5 125.5zM1155 1245q0 -78 -45 -118t-119 -40q-72 0 -117 40t-45 118t45.5 118t116.5 40q74 0 119 -40t45 -118zM678 1245q0 -78 -45 -118t-117 -40q-74 0 -119 40t-45 118 t45 118t119 40q72 0 117 -40t45 -118z" />
<glyph horiz-adv-x="1210" d="M367 1124l28 179h699l16 -179h-743zM1151 559q0 -131 -47 -238.5t-126 -184.5t-183.5 -120t-219.5 -43q-104 0 -196 30t-160.5 86t-108.5 139t-40 192q0 135 47 243.5t127 185.5t184 118t221 41q104 0 195.5 -31t160 -89.5t107.5 -141.5t39 -187zM846 555 q0 98 -54.5 158.5t-152.5 60.5q-66 0 -115 -30.5t-81.5 -80t-49 -112t-16.5 -125.5q0 -98 56 -158.5t161 -60.5q57 0 104 30.5t80 80t50.5 112t17.5 125.5z" />
<glyph horiz-adv-x="1210" d="M1151 559q0 -131 -47 -238.5t-126 -184.5t-183.5 -120t-219.5 -43q-104 0 -196 30t-160.5 86t-108.5 139t-40 192q0 135 47 243.5t127 185.5t184 118t221 41q104 0 195.5 -31t160 -89.5t107.5 -141.5t39 -187zM846 555q0 98 -54.5 158.5t-152.5 60.5q-66 0 -115 -30.5 t-81.5 -80t-49 -112t-16.5 -125.5q0 -98 56 -158.5t161 -60.5q57 0 104 30.5t80 80t50.5 112t17.5 125.5zM1180 1454q-29 -102 -77 -176t-107.5 -121t-128 -70.5t-136.5 -23.5t-127 23.5t-101 70.5t-61.5 121t-9.5 176l184 -2q0 -92 34 -149.5t110 -57.5q80 0 134 57.5 t87 149.5z" />
<glyph horiz-adv-x="1210" d="M967 1079h-209l364 375h297zM565 1079h-217l324 375h297zM1151 559q0 -131 -47 -238.5t-126 -184.5t-183.5 -120t-219.5 -43q-104 0 -196 30t-160.5 86t-108.5 139t-40 192q0 135 47 243.5t127 185.5t184 118t221 41q104 0 195.5 -31t160 -89.5t107.5 -141.5t39 -187z M846 555q0 98 -54.5 158.5t-152.5 60.5q-66 0 -115 -30.5t-81.5 -80t-49 -112t-16.5 -125.5q0 -98 56 -158.5t161 -60.5q57 0 104 30.5t80 80t50.5 112t17.5 125.5z" />
<glyph horiz-adv-x="1210" d="M838 666l-27 -33t-68 -82t-88 -107.5t-88 -108.5t-69 -84l-27 -34q53 -27 121 -27q61 0 110.5 33t84 85t53 118t18.5 133q0 64 -20 107zM762 758q-51 33 -123 33q-68 0 -120 -33t-86 -85t-51 -118t-17 -133q0 -68 24 -119zM215 90q-68 57 -106.5 140t-38.5 190 q0 135 47 243.5t127 185.5t184 118t221 41q150 0 266 -62l113 139h154l-168 -204q63 -59 100 -139t37 -183q0 -131 -47 -238.5t-126 -184.5t-183.5 -120t-219.5 -43q-143 0 -260 54q-27 -33 -51 -61.5t-43 -51.5l-41 -51h-151z" />
<glyph horiz-adv-x="1210" d="M838 666l-27 -33t-68 -82t-88 -107.5t-88 -108.5t-69 -84l-27 -34q53 -27 121 -27q61 0 110.5 33t84 85t53 118t18.5 133q0 64 -20 107zM762 758q-51 33 -123 33q-68 0 -120 -33t-86 -85t-51 -118t-17 -133q0 -68 24 -119zM215 90q-68 57 -106.5 140t-38.5 190 q0 135 47 243.5t127 185.5t184 118t221 41q150 0 266 -62l113 139h154l-168 -204q63 -59 100 -139t37 -183q0 -131 -47 -238.5t-126 -184.5t-183.5 -120t-219.5 -43q-143 0 -260 54q-27 -33 -51 -61.5t-43 -51.5l-41 -51h-151zM762 1065h-203l277 379h348z" />
<glyph horiz-adv-x="1583" d="M1544 752h-473l-31 -152h396l-41 -217h-396l-30 -154h475l-45 -229h-824q-109 0 -200.5 26.5t-159.5 80t-106.5 131t-38.5 182.5q0 111 35.5 212t114.5 179t204 124t303 46h860zM387 434q0 -100 59.5 -149t157.5 -47h74l98 505h-92q-135 0 -217 -76.5t-80 -232.5z" />
<glyph horiz-adv-x="1044" d="M987 518q0 -82 -28.5 -151.5t-87 -121.5t-148.5 -83t-215 -31h-141l-25 -131h-311l186 981h313l-24 -133h82q92 0 165.5 -26.5t126 -70.5t80 -104.5t27.5 -128.5zM694 504q0 61 -46 97t-130 36h-63l-60 -299l90 2q106 2 157.5 45t51.5 119z" />
<glyph horiz-adv-x="1112" d="M637 1079h-203l277 379h348zM334 0h-305l188 981h459q86 0 154.5 -21.5t116.5 -60.5t75 -90t27 -113q0 -123 -67 -200.5t-169 -110.5l152 -385h-324l-109 319l-137 -6zM547 502q78 0 135 33.5t57 115.5q0 53 -42 86t-113 33h-103l-53 -270z" />
<glyph horiz-adv-x="1112" d="M301 -238q12 57 65.5 97.5t122.5 34.5q82 -10 124 -66.5t26 -136.5q-20 -98 -109.5 -168t-230.5 -98l-53 79q78 33 117.5 67t46.5 69q6 31 -12.5 59t-96.5 63zM334 0h-305l188 981h459q86 0 154.5 -21.5t116.5 -60.5t75 -90t27 -113q0 -123 -67 -200.5t-169 -110.5 l152 -385h-324l-109 319l-137 -6zM547 502q78 0 135 33.5t57 115.5q0 53 -42 86t-113 33h-103l-53 -270z" />
<glyph horiz-adv-x="1112" d="M524 1462l90 -225h4l177 225h258l-318 -383h-284l-168 383h241zM334 0h-305l188 981h459q86 0 154.5 -21.5t116.5 -60.5t75 -90t27 -113q0 -123 -67 -200.5t-169 -110.5l152 -385h-324l-109 319l-137 -6zM547 502q78 0 135 33.5t57 115.5q0 53 -42 86t-113 33h-103 l-53 -270z" />
<glyph horiz-adv-x="987" d="M629 1079h-203l276 379h349zM467 199q61 0 95 19.5t32 57.5q0 16 -8 28.5t-31 25t-61.5 28t-102.5 37.5q-53 18 -102 44t-87 59.5t-60.5 78t-22.5 101.5q0 82 29.5 144.5t83 104.5t127 63.5t161.5 21.5q113 0 225.5 -29t204.5 -82l-55 -252q-41 20 -90 43t-99.5 39.5 t-100.5 27.5t-89 11q-47 0 -76.5 -17.5t-29.5 -52.5q0 -18 11 -30.5t34.5 -24.5t60.5 -25.5t90 -31.5q51 -18 101.5 -41t89.5 -55.5t62.5 -75.5t23.5 -103q0 -84 -33 -148.5t-90.5 -107.5t-136 -64.5t-168.5 -21.5q-53 0 -112.5 8.5t-120 22.5t-116 35.5t-98.5 48.5l53 254 q41 -25 92.5 -50.5t104.5 -46t107.5 -32.5t101.5 -12z" />
<glyph horiz-adv-x="987" d="M745 1079l-94 221h-4l-176 -221h-256l315 383h285l170 -383h-240zM467 199q61 0 95 19.5t32 57.5q0 16 -8 28.5t-31 25t-61.5 28t-102.5 37.5q-53 18 -102 44t-87 59.5t-60.5 78t-22.5 101.5q0 82 29.5 144.5t83 104.5t127 63.5t161.5 21.5q113 0 225.5 -29t204.5 -82 l-55 -252q-41 20 -90 43t-99.5 39.5t-100.5 27.5t-89 11q-47 0 -76.5 -17.5t-29.5 -52.5q0 -18 11 -30.5t34.5 -24.5t60.5 -25.5t90 -31.5q51 -18 101.5 -41t89.5 -55.5t62.5 -75.5t23.5 -103q0 -84 -33 -148.5t-90.5 -107.5t-136 -64.5t-168.5 -21.5q-53 0 -112.5 8.5 t-120 22.5t-116 35.5t-98.5 48.5l53 254q41 -25 92.5 -50.5t104.5 -46t107.5 -32.5t101.5 -12z" />
<glyph horiz-adv-x="987" d="M328 -106q104 -12 163.5 -61.5t59.5 -131.5q0 -53 -26.5 -100t-83 -82t-144.5 -56.5t-211 -23.5l14 143q76 -4 127.5 3t81 20.5t41.5 34t12 45.5q0 47 -56 67.5t-167 22.5v106l150 107q-78 14 -152 38.5t-129 59.5l53 254q41 -25 92.5 -50.5t104.5 -46t107.5 -32.5 t101.5 -12q61 0 95 19.5t32 57.5q0 16 -8 28.5t-31 25t-61.5 28t-102.5 37.5q-53 18 -102 44t-87 59.5t-60.5 78t-22.5 101.5q0 82 29.5 144.5t83 104.5t127 63.5t161.5 21.5q113 0 225.5 -29t204.5 -82l-55 -252q-41 20 -90 43t-99.5 39.5t-100.5 27.5t-89 11 q-47 0 -76.5 -17.5t-29.5 -52.5q0 -18 11 -30.5t34.5 -24.5t60.5 -25.5t90 -31.5q51 -18 101.5 -41t89.5 -55.5t62.5 -75.5t23.5 -103q0 -84 -33 -148.5t-90.5 -107.5t-136 -64.5t-168.5 -21.5h-15q-35 -27 -65.5 -47t-46.5 -30z" />
<glyph horiz-adv-x="987" d="M262 -238q12 57 65.5 97.5t123.5 34.5q82 -10 123.5 -66.5t25.5 -136.5q-20 -98 -109.5 -168t-230.5 -98l-53 79q78 33 118 67t46 69q6 31 -12.5 59t-96.5 63zM467 199q61 0 95 19.5t32 57.5q0 16 -8 28.5t-31 25t-61.5 28t-102.5 37.5q-53 18 -102 44t-87 59.5t-60.5 78 t-22.5 101.5q0 82 29.5 144.5t83 104.5t127 63.5t161.5 21.5q113 0 225.5 -29t204.5 -82l-55 -252q-41 20 -90 43t-99.5 39.5t-100.5 27.5t-89 11q-47 0 -76.5 -17.5t-29.5 -52.5q0 -18 11 -30.5t34.5 -24.5t60.5 -25.5t90 -31.5q51 -18 101.5 -41t89.5 -55.5t62.5 -75.5 t23.5 -103q0 -84 -33 -148.5t-90.5 -107.5t-136 -64.5t-168.5 -21.5q-53 0 -112.5 8.5t-120 22.5t-116 35.5t-98.5 48.5l53 254q41 -25 92.5 -50.5t104.5 -46t107.5 -32.5t101.5 -12z" />
<glyph horiz-adv-x="985" d="M467 199q61 0 95 19.5t32 57.5q0 16 -8 28.5t-31 25t-61.5 28t-102.5 37.5q-53 18 -102 44t-87 59.5t-60.5 78t-22.5 101.5q0 82 29.5 144.5t83 104.5t127 63.5t161.5 21.5q113 0 225.5 -29t204.5 -82l-55 -252q-41 20 -90 43t-99.5 39.5t-100.5 27.5t-89 11 q-47 0 -76.5 -17.5t-29.5 -52.5q0 -18 11 -30.5t34.5 -24.5t60.5 -25.5t90 -31.5q51 -18 101.5 -41t89.5 -55.5t62.5 -75.5t23.5 -103q0 -84 -33 -148.5t-90.5 -107.5t-136 -64.5t-168.5 -21.5q-53 0 -112.5 8.5t-120 22.5t-116 35.5t-98.5 48.5l53 254q41 -25 92.5 -50.5 t104.5 -46t107.5 -32.5t101.5 -12zM545 1477l90 -226h4l176 226h258l-317 -383h-285l-168 383h242z" />
<glyph horiz-adv-x="1034" d="M213 -238q12 57 65.5 97.5t122.5 34.5q82 -10 124 -66.5t26 -136.5q-20 -98 -109.5 -168t-230.5 -98l-53 79q78 33 117.5 67t46.5 69q6 31 -12.5 59t-96.5 63zM725 727l-143 -727h-312l144 727h-314l50 254h935l-49 -254h-311z" />
<glyph horiz-adv-x="1036" d="M547 1462l92 -223h4l176 223h258l-317 -383h-287l-168 383h242zM725 727l-143 -727h-312l144 727h-314l50 254h935l-49 -254h-311z" />
<glyph horiz-adv-x="1130" d="M588 1079l-273 379h347l129 -379h-203zM1010 369q-39 -207 -167 -300.5t-317 -93.5q-219 0 -333.5 90.5t-114.5 245.5q0 55 12 111l111 559h311l-104 -549q-10 -41 -11 -80q0 -127 144 -127q76 0 110.5 42t48.5 114q8 43 19 94q8 43 19.5 96.5t21.5 110.5q25 131 59 299 h309q-35 -170 -59 -305q-12 -59 -22.5 -113.5t-18.5 -97.5q-8 -51 -18 -96z" />
<glyph horiz-adv-x="1130" d="M1010 369q-39 -207 -167 -300.5t-317 -93.5q-219 0 -333.5 90.5t-114.5 245.5q0 55 12 111l111 559h311l-104 -549q-10 -41 -11 -80q0 -127 144 -127q76 0 110.5 42t48.5 114q8 43 19 94q8 43 19.5 96.5t21.5 110.5q25 131 59 299h309q-35 -170 -59 -305 q-12 -59 -22.5 -113.5t-18.5 -97.5q-8 -51 -18 -96zM776 1079h-203l277 379h348z" />
<glyph horiz-adv-x="1130" d="M1010 369q-39 -207 -167 -300.5t-317 -93.5q-219 0 -333.5 90.5t-114.5 245.5q0 55 12 111l111 559h311l-104 -549q-10 -41 -11 -80q0 -127 144 -127q76 0 110.5 42t48.5 114q8 43 19 94q8 43 19.5 96.5t21.5 110.5q25 131 59 299h309q-35 -170 -59 -305 q-12 -59 -22.5 -113.5t-18.5 -97.5q-8 -51 -18 -96zM827 1079l-94 221h-4l-176 -221h-256l315 383h285l170 -383h-240z" />
<glyph horiz-adv-x="1130" d="M1010 369q-39 -207 -167 -300.5t-317 -93.5q-219 0 -333.5 90.5t-114.5 245.5q0 55 12 111l111 559h311l-104 -549q-10 -41 -11 -80q0 -127 144 -127q76 0 110.5 42t48.5 114q8 43 19 94q8 43 19.5 96.5t21.5 110.5q25 131 59 299h309q-35 -170 -59 -305 q-12 -59 -22.5 -113.5t-18.5 -97.5q-8 -51 -18 -96zM1110 1245q0 -78 -45 -118t-119 -40q-72 0 -117 40t-45 118t45 118t117 40q74 0 119 -40t45 -118zM633 1245q0 -78 -45 -118t-117 -40q-74 0 -119 40t-45 118t45 118t119 40q72 0 117 -40t45 -118z" />
<glyph horiz-adv-x="1130" d="M1010 369q-39 -207 -167 -300.5t-317 -93.5q-219 0 -333.5 90.5t-114.5 245.5q0 55 12 111l111 559h311l-104 -549q-10 -41 -11 -80q0 -127 144 -127q76 0 110.5 42t48.5 114q8 43 19 94q8 43 19.5 96.5t21.5 110.5q25 131 59 299h309q-35 -170 -59 -305 q-12 -59 -22.5 -113.5t-18.5 -97.5q-8 -51 -18 -96zM326 1124l28 179h699l16 -179h-743z" />
<glyph horiz-adv-x="1130" d="M1010 369q-39 -207 -167 -300.5t-317 -93.5q-219 0 -333.5 90.5t-114.5 245.5q0 55 12 111l111 559h311l-104 -549q-10 -41 -11 -80q0 -127 144 -127q76 0 110.5 42t48.5 114q8 43 19 94q8 43 19.5 96.5t21.5 110.5q25 131 59 299h309q-35 -170 -59 -305 q-12 -59 -22.5 -113.5t-18.5 -97.5q-8 -51 -18 -96zM1145 1454q-29 -102 -77 -176t-107.5 -121t-128 -70.5t-136.5 -23.5t-127 23.5t-101 70.5t-61.5 121t-9.5 176l185 -2q0 -92 33.5 -149.5t109.5 -57.5q80 0 134 57.5t87 149.5z" />
<glyph horiz-adv-x="1130" d="M1016 1325q0 -61 -26.5 -108.5t-69.5 -80t-99.5 -50t-115.5 -17.5q-53 0 -103.5 14.5t-88.5 42t-61.5 69.5t-23.5 97q0 61 26.5 108.5t70.5 81.5t100.5 51t115.5 17q53 0 103.5 -14t88.5 -42t60.5 -71t22.5 -98zM891 1323q0 68 -46 97.5t-112 29.5q-72 0 -126 -39 t-54 -113q0 -66 47 -96.5t113 -30.5q72 0 125 40t53 112zM1010 369q-39 -207 -167 -300.5t-317 -93.5q-219 0 -333.5 90.5t-114.5 245.5q0 55 12 111l111 559h311l-104 -549q-10 -41 -11 -80q0 -127 144 -127q76 0 110.5 42t48.5 114q8 43 19 94q8 43 19.5 96.5t21.5 110.5 q25 131 59 299h309q-35 -170 -59 -305q-12 -59 -22.5 -113.5t-18.5 -97.5q-8 -51 -18 -96z" />
<glyph horiz-adv-x="1130" d="M1010 369q-39 -207 -167 -300.5t-317 -93.5q-219 0 -333.5 90.5t-114.5 245.5q0 55 12 111l111 559h311l-104 -549q-10 -41 -11 -80q0 -127 144 -127q76 0 110.5 42t48.5 114q8 43 19 94q8 43 19.5 96.5t21.5 110.5q25 131 59 299h309q-35 -170 -59 -305 q-12 -59 -22.5 -113.5t-18.5 -97.5q-8 -51 -18 -96zM928 1079h-209l364 375h297zM526 1079h-217l324 375h297z" />
<glyph horiz-adv-x="1130" d="M549 -451q-113 4 -167 66.5t-36 161.5q12 66 54 115t104 83q-16 0 -25 2q-186 10 -293.5 95.5t-107.5 238.5q0 55 12 111l111 559h313l-104 -549q-10 -41 -11 -80q0 -125 144 -125q74 0 108.5 41t48.5 113q8 43 19 94q8 43 19.5 96.5t21.5 110.5q25 131 59 299h311 q-35 -170 -59 -305q-12 -59 -22.5 -113.5t-18.5 -97.5q-8 -51 -18 -96q-25 -137 -88.5 -221.5t-159.5 -131.5q-72 -35 -122 -83t-60 -101q-16 -94 71 -94q29 -2 57.5 5t51.5 17l14 -159q-45 -23 -99 -38.5t-128 -13.5z" />
<glyph horiz-adv-x="1595" d="M1083 1079l-94 221h-4l-176 -221h-256l315 383h285l170 -383h-240zM526 0h-309l-65 981h313l-16 -637l276 637h332l35 -637l223 637h325l-452 -981h-320l-39 641z" />
<glyph horiz-adv-x="1595" d="M526 0h-309l-65 981h313l-16 -637l276 637h332l35 -637l223 637h325l-452 -981h-320l-39 641zM848 1079l-273 379h347l129 -379h-203z" />
<glyph horiz-adv-x="1595" d="M963 1079h-203l276 379h348zM526 0h-309l-65 981h313l-16 -637l276 637h332l35 -637l223 637h325l-452 -981h-320l-39 641z" />
<glyph horiz-adv-x="1595" d="M1341 1245q0 -78 -45 -118t-118 -40q-72 0 -117 40t-45 118t45 118t117 40q74 0 118.5 -40t44.5 -118zM864 1245q0 -78 -45 -118t-117 -40q-74 0 -118.5 40t-44.5 118t45 118t118 40q72 0 117 -40t45 -118zM526 0h-309l-65 981h313l-16 -637l276 637h332l35 -637l223 637 h325l-452 -981h-320l-39 641z" />
<glyph horiz-adv-x="1048" d="M657 348l-69 -348h-307l71 375l-237 606h323l115 -383l250 383h327zM735 1079h-203l277 379h348z" />
<glyph horiz-adv-x="1050" d="M657 348l-69 -348h-307l71 375l-237 606h323l115 -383l250 383h327zM776 1079l-94 221h-4l-176 -221h-256l315 383h285l170 -383h-240z" />
<glyph horiz-adv-x="1048" d="M657 348l-69 -348h-307l71 375l-237 606h323l115 -383l250 383h327zM1092 1245q0 -78 -45.5 -118t-118.5 -40q-72 0 -117 40t-45 118t45 118t117 40q74 0 119 -40t45 -118zM614 1245q0 -78 -45 -118t-116 -40q-74 0 -119 40t-45 118t45 118t119 40q72 0 116.5 -40 t44.5 -118z" />
<glyph horiz-adv-x="1019" d="M639 1079h-203l277 379h348zM-14 0l39 199l575 534h-461l49 248h844l-39 -201l-567 -532h465l-49 -248h-856z" />
<glyph horiz-adv-x="1019" d="M-14 0l39 199l575 534h-461l49 248h844l-39 -201l-567 -532h465l-49 -248h-856zM795 1241q-4 -74 -53.5 -126t-127.5 -52t-123 52t-40 126q2 33 16 65.5t38.5 57.5t57.5 40t72 15q78 0 121 -53t39 -125z" />
<glyph horiz-adv-x="1017" d="M-14 0l39 199l575 534h-461l49 248h844l-39 -201l-567 -532h465l-49 -248h-856zM549 1477l90 -226h4l176 226h258l-317 -383h-285l-168 383h242z" />
<glyph horiz-adv-x="561" d="M-322 -238h-237l1442 1518h237z" />
<glyph horiz-adv-x="675" d="M63 27l5 131h505l2 -131h-512z" />
<glyph d="M473 -27q-113 0 -192.5 37t-132 101.5t-77 152.5t-24.5 191q0 82 12.5 177t39 189t68.5 180t103.5 153t141.5 106.5t182 39.5q113 0 193.5 -37.5t132 -103t76 -155t24.5 -193.5q0 -82 -12.5 -176t-38 -187.5t-68.5 -179.5t-103.5 -151.5t-141.5 -104.5t-183 -39zM735 836 q0 35 -5 75.5t-20.5 76.5t-43 59.5t-74.5 23.5q-49 0 -87 -37t-67.5 -94t-49 -129t-33 -142.5t-18.5 -131t-5 -97.5q0 -35 5 -76.5t20.5 -76.5t44 -58.5t75.5 -23.5q49 0 87 37t66.5 94t49 129t33 142.5t17.5 131t5 97.5z" />
<glyph d="M330 0l205 956l-285 -59l33 264l624 125l-274 -1286h-303z" />
<glyph d="M10 0q-4 0 -1 38t9 85l17 123q156 129 274.5 221t197.5 166t119 137.5t40 134.5q0 76 -53.5 112t-120.5 36q-72 0 -142.5 -28t-130.5 -69l-61 232q90 59 193.5 91t207.5 32q76 0 152.5 -19.5t136 -61.5t97.5 -106.5t38 -156.5q0 -111 -50 -203t-135 -176t-195.5 -164 t-231.5 -166h538l-30 -258h-869z" />
<glyph d="M612 659q61 -2 117.5 -21.5t100.5 -55t71 -90t27 -125.5q0 -98 -40 -173t-108.5 -124.5t-160 -75t-195.5 -25.5q-223 0 -422 115l80 240q76 -41 167 -72t179 -31q37 0 75 8.5t68.5 29t51 51t20.5 77.5q0 45 -22.5 73.5t-61.5 45t-88 24t-102 7.5q-70 0 -150 -7l31 209 q23 2 62.5 6.5t86.5 12.5t95.5 21.5t88.5 35t65.5 52t25.5 71.5q0 33 -14.5 55.5t-38 35.5t-54 19.5t-63.5 6.5q-72 0 -144.5 -23.5t-134.5 -54.5l-53 235q88 45 183.5 70t191.5 25q68 0 142.5 -15.5t137 -50.5t103.5 -94.5t41 -145.5q0 -82 -33 -140t-84 -99t-116 -66 t-126 -37z" />
<glyph d="M815 299l-57 -299h-269l58 299h-516l2 207l604 768h367l-142 -744h146l-41 -231h-152zM698 1044l-403 -524h303z" />
<glyph d="M479 782q80 0 160 -18.5t144.5 -60t104.5 -109.5t40 -164q0 -102 -36 -187t-101.5 -146.5t-156.5 -95.5t-204 -34q-51 0 -108.5 8.5t-114.5 22.5t-110.5 35.5t-94.5 48.5l64 246q33 -23 75.5 -44.5t88.5 -38t93.5 -27.5t90.5 -11q100 0 159.5 48t59.5 146q0 51 -26.5 85 t-67.5 54.5t-94.5 29t-104.5 8.5q-66 0 -117 -7.5t-92 -19.5l-29 59l191 658h735l-39 -252h-506l-67 -234h63z" />
<glyph d="M997 1061q-80 -12 -166 -34.5t-166.5 -59.5t-150.5 -93.5t-119 -136.5v-6q66 39 137.5 59.5t139.5 20.5t124 -24.5t97 -68.5t64.5 -108.5t23.5 -144.5q0 -98 -34 -187.5t-97.5 -159t-151.5 -110.5t-194 -41q-117 0 -201 38t-138 102.5t-81 150.5t-27 182q0 127 42 266.5 t143.5 262.5t270.5 212t421 117zM334 406q0 -96 44 -154.5t124 -58.5q49 0 85 21.5t60.5 56t36.5 78.5t12 87q0 86 -45 128t-116 42q-43 0 -93.5 -12t-87.5 -41q-10 -39 -15 -76.5t-5 -70.5z" />
<glyph d="M143 1016l41 250h879l-25 -224l-680 -1046h-297l676 1020h-594z" />
<glyph d="M754 936q0 72 -45 113t-117 41q-37 0 -68.5 -13.5t-56.5 -37t-39 -55.5t-14 -71q0 -41 18.5 -71.5t46 -54t61 -41t62.5 -29.5q66 35 109 88t43 131zM686 354q0 43 -21.5 77t-53 59.5t-68.5 44t-68 30.5q-68 -29 -119 -83t-51 -134q0 -86 59.5 -125t133.5 -39q78 0 133 42 t55 128zM965 369q0 -102 -41 -177t-106.5 -124.5t-150.5 -73t-171 -23.5q-76 0 -160 15.5t-154.5 54.5t-118 102.5t-47.5 159.5q0 70 25 124t65.5 94t95 66.5t113.5 43.5q-78 45 -133 109.5t-55 158.5q0 96 37 170t100.5 123t145.5 74.5t174 25.5q76 0 155.5 -16t145 -55 t108.5 -103.5t43 -159.5q0 -68 -21.5 -119t-58 -88.5t-87 -63t-107.5 -42.5q39 -23 75.5 -50.5t64.5 -61t45.5 -74.5t17.5 -90z" />
<glyph d="M72 197q82 12 168 34.5t166.5 60.5t150.5 93t119 135l-2 6q-66 -39 -137.5 -58t-137.5 -19q-68 0 -124 24.5t-97 70.5t-64.5 111.5t-23.5 145.5q0 98 34 187t96.5 156.5t149.5 107.5t195 40q117 0 201 -37.5t139.5 -102.5t82 -151t26.5 -184q0 -84 -18.5 -175t-59.5 -180 t-108.5 -171t-165 -149.5t-227.5 -114.5t-298 -66zM737 854q0 96 -44 154.5t-126 58.5q-49 0 -85 -20.5t-60.5 -54.5t-36.5 -77t-12 -86q0 -86 45 -132t119 -46q43 0 92 13.5t86 40.5q12 41 17 77.5t5 71.5z" />
<glyph d="M559 485q-27 -74 -49 -133q-10 -27 -18.5 -50t-14.5 -42l-14 -43h24q86 0 136.5 35t50.5 96q0 43 -29 74.5t-86 62.5zM791 1497h141l-80 -225q66 -20 121 -48t98 -61l-90 -260q-47 37 -103.5 66.5t-113.5 50.5l-96 -270q59 -27 113.5 -61t95.5 -79t65.5 -101t24.5 -128 q0 -88 -36 -164t-101.5 -131t-157.5 -87t-205 -32q-47 0 -92 6l-82 -227h-143l92 254q-80 23 -149.5 56.5t-121.5 74.5l90 279q55 -47 126 -90.5t145 -69.5l104 291q-55 25 -109.5 56.5t-96.5 72.5t-68.5 95t-26.5 126q0 94 35 172t97.5 133t148.5 85t190 30q29 0 57.5 -2 t57.5 -6zM631 1051q-10 2 -20.5 2h-20.5q-72 0 -115 -34t-43 -91q0 -39 30 -65.5t83 -55.5z" />
<glyph d="M874 950q92 -25 160 -71l-106 -230q-33 23 -67 42.5t-70 31.5l-191 -518h27q57 0 116.5 16.5t116.5 38.5l31 -231q-63 -27 -139 -44.5t-170 -17.5h-34t-34 2l-90 -248h-141l100 275q-137 45 -221 150.5t-84 271.5q0 117 43 219t118.5 179t180 121t227.5 44q47 0 96 -6 l76 207h142zM659 748q-72 0 -123 -30t-85.5 -75t-51 -102.5t-16.5 -112.5q0 -129 90 -186z" />
<glyph d="M221 702q0 84 6 156q6 98 44 182t99.5 143.5t145.5 93.5t184 34q98 0 201 -33t180 -88l-106 -236q-59 45 -132 76t-145 31q-98 -2 -148 -62.5t-58 -158.5q-4 -29 -5.5 -64t-3.5 -74h338l-10 -141h-326q0 -43 -3 -85t-11 -83q-4 -23 -9 -44t-9 -44q45 -35 98 -57.5 t96 -22.5q55 0 95 35t71 143l203 -59q-20 -102 -58 -173t-87.5 -115t-105.5 -65.5t-114 -21.5q-98 0 -175 43t-130 101q-55 -59 -141 -94t-225 -50q-4 63 -9 117q-2 23 -3 43.5t-3 36.5q-2 20 -2 37q115 16 176.5 57t77.5 125q6 39 8 84t2 92h-170l-8 141h172v0z" />
<glyph d="M94 551l-2 141h262l-237 588h340l121 -455l290 455h351l-461 -588h237l-16 -141h-299l-27 -135h279l2 -142h-301l-55 -274h-318l55 274h-284l16 142h301l27 135h-281z" />
<glyph horiz-adv-x="1126" d="M133 729l-6 141h162q70 203 205 324t354 121q49 0 104.5 -7.5t107.5 -21.5t99 -35.5t84 -48.5l-102 -239q-55 41 -130 68.5t-147 27.5q-86 0 -148.5 -53.5t-97.5 -135.5h404l-6 -141h-449q-4 -23 -8 -45t-8 -45q-4 -20 -7 -40.5t-5 -43.5h342l6 -141h-344 q10 -96 64.5 -149.5t185.5 -53.5q55 0 110 10t105 33v-244q-53 -23 -132 -36t-159 -13q-250 0 -375 119t-131 334h-162l6 141h166q0 23 3 42t5 40q4 23 8.5 46.5t10.5 45.5h-115z" />
<glyph d="M954 1001q0 -76 -30.5 -142t-83 -115.5t-121 -78t-146.5 -28.5q-141 0 -224 85t-83 222q0 74 30 140.5t81 115.5t118.5 79t145.5 30q70 0 128 -22.5t99 -62.5t63.5 -96.5t22.5 -126.5zM842 997q0 98 -59.5 152.5t-153.5 54.5q-53 0 -98.5 -20.5t-80 -55t-54 -81 t-19.5 -99.5q0 -94 57.5 -150.5t155.5 -56.5q51 0 97 20.5t81 56.5t54.5 82t19.5 97z" />
<glyph d="M649 367v-349h-262v349h-346l6 247h340v349h262v-349h338l6 -247h-344z" />
<glyph d="M639 559v-287h-252v287h-344l6 238h338v286h252v-286h338l6 -238h-344zM43 0l6 238h928l6 -238h-940z" />
<glyph d="M993 186h-237v275h-684l6 237h915v-512z" />
<glyph d="M90 586l-10 235h868l-10 -235h-848zM80 139l10 236h848l10 -236h-868z" />
<glyph d="M815 20l-303 306l-301 -306l-166 166l305 301l-307 304l166 165l303 -307l305 307l166 -165l-309 -302l307 -303z" />
<glyph d="M43 371l6 237h928l6 -237h-940zM680 111q0 -72 -46 -116t-120 -44t-120 44t-46 116t46 115.5t120 43.5t120 -43.5t46 -115.5zM680 868q0 -72 -46 -115.5t-122 -43.5q-74 0 -119 44t-45 115q0 72 45 116t119 44q76 0 122 -44t46 -116z" />
<glyph d="M913 8l-821 373v203l821 372v-249l-501 -215v-21l501 -213v-250z" />
<glyph d="M96 8v250l502 213v21l-502 215v249l822 -372v-203z" />
<glyph horiz-adv-x="512" d="M119 1436h272v-1846h-272v1846z" />
<glyph horiz-adv-x="512" d="M119 1315h272v-686h-272v686zM119 401h272v-686h-272v686z" />
<glyph d="M907 475q0 -23 -12 -63.5t-29.5 -83.5t-37 -80t-35.5 -53t-53.5 -36t-80.5 -37.5t-83.5 -29.5t-63.5 -12t-62.5 12t-82.5 29.5t-80 37t-51 36.5q-16 16 -36 53t-38.5 80t-30.5 84t-12 63q0 23 12 63t30.5 83t38 79.5t36.5 53.5q14 14 52 34.5t81 38t83 29.5t62 12 q23 0 62.5 -12t82.5 -30.5t80 -38t54 -33.5q14 -14 34.5 -51t38 -80t29.5 -84t12 -64z" />
<glyph d="M958 690q-45 -154 -106 -232.5t-160 -78.5q-57 0 -103 18.5t-84 42t-70 42t-60 18.5q-18 0 -30.5 -12.5t-22 -29t-14.5 -33.5t-5 -28h-201q43 152 104.5 230t160.5 78q57 0 104 -18.5t85 -40t68.5 -40t59.5 -18.5q18 0 31.5 12t23 28.5t15.5 34t8 27.5h196v0z" />
<glyph horiz-adv-x="512" d="M98 815l334 506l258 -74l-389 -432h-203z" />
<glyph d="M561 815l334 506l264 -74l-387 -432h-211zM131 815l334 506l266 -74l-389 -432h-211z" />
<glyph d="M797 -543q-109 57 -217.5 153.5t-194.5 226.5t-140.5 292t-54.5 352q0 188 54.5 350t140.5 293t194.5 227.5t217.5 153.5l166 -215q-92 -55 -177.5 -136t-151 -184.5t-105.5 -226t-40 -262.5q0 -139 40 -262t105.5 -226.5t150.5 -184t178 -136.5l-166 -215v0z" />
<glyph d="M61 -328q90 55 175.5 136t152 184.5t106.5 226.5t40 262t-40 262t-106.5 226.5t-151.5 184.5t-176 136l164 215q109 -57 217.5 -153.5t195.5 -227.5t141.5 -292.5t54.5 -350.5q0 -190 -54.5 -352t-141.5 -292t-195.5 -226t-217.5 -154z" />
<glyph d="M225 -420v1837h697v-233h-416v-1372h416v-232h-697z" />
<glyph d="M100 -188h416v1372h-416v233h699v-1837h-699v232z" />
<glyph d="M311 621l-116 231l323 59l4 19l-276 166l190 190l152 -295l16 4l84 314l230 -109l-238 -239l10 -15l324 29l-49 -258l-291 145l-15 -14l127 -301l-260 -47l47 331l-16 5z" />
<glyph d="M891 -434q-133 2 -242.5 14t-187.5 42t-120 82t-42 136q0 63 10 115.5t23.5 98.5t24 86t10.5 81q0 74 -60.5 109t-189.5 45l-6 133l6 131q129 10 189.5 41t60.5 106q0 39 -10.5 81t-24 89.5t-23.5 100.5t-10 117q0 84 42 136t120 82.5t187.5 43t242.5 16.5v-192 q-164 -12 -227.5 -43t-63.5 -95q0 -33 8 -68.5t19.5 -78.5t19.5 -94.5t8 -112.5q0 -104 -81.5 -173t-217.5 -77v-20q135 -10 217 -80t82 -174q0 -61 -8 -109.5t-19.5 -89.5t-19.5 -77t-8 -70q0 -68 63.5 -101t227.5 -43v-188v0z" />
<glyph d="M907 375q-129 -10 -189.5 -45t-60.5 -109q0 -41 10.5 -81t22.5 -86t22.5 -98t10.5 -116q0 -84 -42 -136t-119 -82t-186.5 -42t-242.5 -14v188q162 10 226.5 43t64.5 101q0 35 -8 70.5t-19.5 76.5t-19.5 89t-8 110q0 104 81.5 173.5t217.5 80.5v20q-135 8 -217 77t-82 173 q0 61 8 112.5t19.5 94.5t19.5 79t8 68q0 63 -64.5 94t-226.5 44v192q133 -4 242.5 -16.5t186.5 -43t119 -83t42 -135.5q0 -63 -10.5 -116.5t-22.5 -101t-22.5 -89.5t-10.5 -81q0 -76 60.5 -106.5t189.5 -40.5l6 -131z" />
<glyph d="M1026 602q0 -53 -19.5 -95t-51 -75t-74.5 -55.5t-88 -34.5q35 -31 56 -71t21 -93q0 -80 -35.5 -138t-92 -97t-126 -58.5t-139.5 -19.5q-53 0 -114.5 8t-121 25.5t-114.5 42t-94 55.5l106 215q84 -57 169 -92t169 -35q16 0 35.5 3t36 12.5t27 22.5t10.5 36t-17.5 41 t-47 35.5t-67.5 33t-81 31.5q-55 20 -111.5 44t-101.5 56.5t-74 76.5t-29 106q0 55 20.5 100t54.5 78t79 55.5t94 32.5q-31 33 -49 70.5t-18 91.5q0 76 31.5 133t84 96t121 58.5t141.5 19.5q49 0 108.5 -8.5t118 -24.5t111 -39.5t88.5 -54.5l-106 -213q-80 51 -159 86 t-156 35q-31 0 -64 -14.5t-33 -55.5q0 -23 17.5 -40t46 -33.5t66.5 -32t79 -33.5q51 -23 103.5 -48.5t94.5 -60.5t68.5 -79t26.5 -99zM780 539q0 33 -29.5 60.5t-70.5 49t-83 39t-67 27.5q-33 14 -65.5 28.5t-65.5 32.5q-31 -23 -64.5 -51.5t-33.5 -69.5q0 -33 30.5 -61.5 t72.5 -51t85 -40t66 -27.5q33 -14 66.5 -28.5t66.5 -32.5q29 20 60.5 52t31.5 73z" />
<glyph d="M643 408q-4 -2 -11 -1t-36 1q-84 0 -170 19t-156.5 65.5t-114.5 125t-44 195.5q0 96 37.5 181t113.5 148.5t188.5 100.5t260.5 37h385l-283 -1425h-278l108 553v0z" />
<glyph horiz-adv-x="512" d="M385 156q0 -84 -52 -135.5t-140 -51.5q-86 0 -140.5 51.5t-54.5 135.5q0 86 54 136t141 50q88 0 140 -50t52 -136z" />
<glyph horiz-adv-x="512" d="M-18 174q16 78 69 126t139 48q49 0 90.5 -19.5t72 -53t47 -76.5t16.5 -93q0 -84 -42 -155.5t-106.5 -129t-140.5 -98t-143 -65.5l-113 127q27 12 70 38.5t81.5 59.5t67.5 70t29 74q0 55 -42 88.5t-95 58.5z" />
<glyph horiz-adv-x="512" d="M504 733q0 -84 -52.5 -135t-140.5 -51q-86 0 -140 51t-54 135t54 135.5t140 51.5q88 0 140.5 -51.5t52.5 -135.5zM391 156q0 -84 -53 -135.5t-139 -51.5t-140.5 51.5t-54.5 135.5q0 86 54.5 136t140.5 50t139 -50t53 -136z" />
<glyph horiz-adv-x="512" d="M504 733q0 -84 -52.5 -135t-140.5 -51q-86 0 -140 51t-54 135t54 135.5t140 51.5q88 0 140.5 -51.5t52.5 -135.5zM-18 174q16 78 69 126t139 48q49 0 90.5 -19.5t72 -53t47 -76.5t16.5 -93q0 -84 -42 -155.5t-106.5 -129t-140.5 -98t-143 -65.5l-113 127q27 12 70 38.5 t81.5 59.5t67.5 70t29 74q0 55 -42 88.5t-95 58.5z" />
<glyph horiz-adv-x="743" d="M532 25l-501 327l49 252l629 328l14 -203l-395 -256v-4l293 -252z" />
<glyph horiz-adv-x="743" d="M41 25l-14 202l393 256v2l-293 252l90 195l502 -328l-49 -254z" />
<glyph horiz-adv-x="1239" d="M1059 25l-463 327l49 252l592 328l14 -205l-344 -258v-4l242 -248zM463 45l-451 311l49 246l572 311l20 -202l-334 -242v-4l234 -234z" />
<glyph horiz-adv-x="1249" d="M623 45l-23 199l334 243v2l-234 236l91 188l452 -311l-49 -246zM18 25l-14 206l342 256v2l-242 252l93 191l462 -328l-49 -254z" />
<glyph horiz-adv-x="512" d="M459 524q0 -84 -52.5 -135t-140.5 -51q-86 0 -140 51t-54 135q0 86 54 136.5t140 50.5q88 0 140.5 -50.5t52.5 -136.5z" />
<glyph horiz-adv-x="761" d="M59 371v252h652v-252h-652z" />
<glyph horiz-adv-x="1077" d="M53 373l6 239h965l6 -239h-977z" />
<glyph horiz-adv-x="2039" d="M53 373l6 239h1928l6 -239h-1940z" />
<glyph horiz-adv-x="1536" d="M770 1196l586 -1104h-1176zM768 815l-260 -534h520z" />
<glyph horiz-adv-x="1536" d="M1401 639l-1104 -586v1176zM1020 641l-535 260v-520z" />
<glyph horiz-adv-x="1536" d="M1356 1196l-586 -1104l-590 1104h1176zM508 1008l260 -535l260 535h-520z" />
<glyph horiz-adv-x="1536" d="M1237 53l-1104 586l1104 590v-1176zM1049 901l-535 -260l535 -260v520z" />
<glyph horiz-adv-x="1536" d="M770 1196l586 -1104h-1176z" />
<glyph horiz-adv-x="1536" d="M1401 639l-1104 -586v1176z" />
<glyph horiz-adv-x="1536" d="M1356 1196l-586 -1104l-590 1104h1176z" />
<glyph horiz-adv-x="1536" d="M1237 53l-1104 586l1104 590v-1176z" />
<glyph horiz-adv-x="1536" d="M647 881l-315 -420l-264 203l686 669h28l686 -669l-262 -203l-317 420l57 -926h-354z" />
<glyph horiz-adv-x="1536" d="M586 201l420 317l-926 -57v354l926 -57l-420 317l205 262l667 -684v-30l-667 -684z" />
<glyph horiz-adv-x="1536" d="M66 616l264 203l315 -420l-55 926h354l-55 -926l315 420l262 -203l-684 -669h-30z" />
<glyph horiz-adv-x="1536" d="M72 623v30l669 684l203 -262l-420 -317l926 57v-354l-926 57l420 -317l-203 -262z" />
<glyph d="M940 854v-854h-856v854h856zM831 750h-641v-641h641v641z" />
<glyph d="M940 854v-854h-856v854h856zM754 670h-484v-484h484v484z" />
<glyph d="M940 854v-854h-856v854h856zM772 764l76 -76v76h-76zM715 764h-133l266 -266v131zM524 764h-131l455 -455v131zM336 764h-131l643 -643v131zM176 735v-133l512 -508h131zM176 545v-131l322 -320h131zM176 354v-131l131 -129h131zM176 168v-74h74z" />
<glyph d="M84 854h856v-854h-856v854z" />
<glyph horiz-adv-x="1536" d="M1409 0h-1282v1282h1282v-1282zM1296 1169h-1056v-1056h1056v1056z" />
<glyph horiz-adv-x="1536" d="M1409 0h-1282v1282h1282v-1282zM362 236h812v811h-812v-811z" />
<glyph horiz-adv-x="1536" d="M1409 0h-1282v1282h1282v-1282zM1296 1169h-159l159 -159v159zM1296 956l-213 213h-237l450 -450v237zM1296 666l-503 503h-238l741 -741v238zM1296 377l-792 792h-238l1030 -1030v238zM1272 113l-1032 1032v-238l794 -794h238zM240 616l503 -503h238l-741 741v-238z M690 113l-450 450v-237l213 -213h237zM240 113h163l-163 163v-163z" />
<glyph horiz-adv-x="1536" d="M1409 0h-1282v1282h1282v-1282z" />
<glyph d="M512 -20q-94 0 -176 34.5t-142.5 95t-95.5 142.5t-35 176t35 175t95.5 141.5t142.5 95t176 34.5t176 -34.5t142.5 -95t95.5 -141.5t35 -175t-35 -176t-95.5 -142.5t-142.5 -95t-176 -34.5zM852 428q0 72 -25.5 134.5t-71.5 109.5t-108.5 73.5t-134.5 26.5t-134.5 -26.5 t-108.5 -73.5t-71.5 -109.5t-25.5 -134.5t25.5 -134.5t71.5 -109.5t108.5 -73.5t134.5 -26.5t134.5 26.5t108.5 73.5t71.5 109.5t25.5 134.5z" />
<glyph d="M512 -20q-94 0 -176 34.5t-142.5 95t-95.5 142.5t-35 176t35 175t95.5 141.5t142.5 95t176 34.5t176 -34.5t142.5 -95t95.5 -141.5t35 -175t-35 -176t-95.5 -142.5t-142.5 -95t-176 -34.5zM770 428q0 53 -19.5 101.5t-54 84t-82 56t-102.5 20.5t-102.5 -20.5t-82 -56 t-54 -84t-19.5 -101.5q0 -55 19.5 -102t54 -83t82 -56.5t102.5 -20.5t102.5 20.5t82 56.5t54 83t19.5 102z" />
<glyph d="M512 -20q-94 0 -176 34.5t-142.5 95t-95.5 142.5t-35 176t35 175t95.5 141.5t142.5 95t176 34.5t176 -34.5t142.5 -95t95.5 -141.5t35 -175t-35 -176t-95.5 -142.5t-142.5 -95t-176 -34.5zM770 690q-41 41 -93 67.5t-114 35.5l309 -310q-8 61 -34.5 113.5t-67.5 93.5z M500 797q-29 -2 -57.5 -7.5t-55.5 -15.5l467 -469q10 29 15 57.5t8 57.5zM346 758q-23 -10 -42 -24.5t-36 -31.5l518 -520q35 35 54 80zM238 674q-35 -35 -54 -82l496 -494q23 10 42 24.5t36 31.5zM168 549q-16 -49 -21 -113l377 -377q63 0 113 21zM152 373 q8 -63 36.5 -117.5t71.5 -95.5q41 -39 91 -64.5t110 -34.5z" />
<glyph d="M512 -20q-94 0 -176 34.5t-142.5 95t-95.5 142.5t-35 176t35 175t95.5 141.5t142.5 95t176 34.5t176 -34.5t142.5 -95t95.5 -141.5t35 -175t-35 -176t-95.5 -142.5t-142.5 -95t-176 -34.5z" />
<glyph horiz-adv-x="1536" d="M1440 641q0 -141 -51.5 -263t-142.5 -213t-214 -143.5t-264 -52.5t-264 52.5t-214 143.5t-142.5 213t-51.5 263t51.5 263t142.5 213t214 143.5t264 52.5t264 -52.5t214 -143.5t142.5 -213t51.5 -263zM768 76q119 0 221.5 44t177 120.5t117.5 180t43 220.5t-43 220.5 t-117.5 180t-177 120.5t-221.5 44t-221.5 -44t-177 -120.5t-117.5 -180t-43 -220.5t43 -220.5t117.5 -180t177 -120.5t221.5 -44z" />
<glyph horiz-adv-x="1536" d="M1440 641q0 -141 -51.5 -263t-142.5 -213t-214 -143.5t-264 -52.5t-264 52.5t-214 143.5t-142.5 213t-51.5 263t51.5 263t142.5 213t214 143.5t264 52.5t264 -52.5t214 -143.5t142.5 -213t51.5 -263zM768 1083q-92 0 -172 -34.5t-138.5 -95t-92 -140.5t-33.5 -172 t33.5 -172t92 -140.5t138.5 -95t172 -34.5t172 34.5t138.5 95t92 140.5t33.5 172t-33.5 172t-92 140.5t-138.5 95t-172 34.5z" />
<glyph horiz-adv-x="1536" d="M1440 641q0 -141 -51.5 -263t-142.5 -213t-214 -143.5t-264 -52.5t-264 52.5t-214 143.5t-142.5 213t-51.5 263t51.5 264t142.5 214t214 144.5t264 53.5t264 -53.5t214 -144.5t142.5 -214t51.5 -264zM1325 690q-8 104 -50 194.5t-109.5 159t-159 110.5t-195.5 50z M1288 434q35 92 39 201l-571 571q-109 -4 -199 -39l367 -366q68 -70 133 -135.5t117 -116.5q59 -62 114 -115zM1180 256q57 59 94 141q-55 53 -117 117q-53 53 -119.5 120.5t-138.5 139.5l-377 377q-78 -37 -139 -98zM1016 131q78 37 139 98l-799 799q-29 -31 -52 -66.5 t-42 -76.5zM246 848q-33 -92 -37 -201l571 -571q53 0 102.5 10t96.5 29zM211 592q8 -104 50 -194.5t109.5 -159t159 -110.5t195.5 -50z" />
<glyph horiz-adv-x="1536" d="M1440 641q0 -141 -51.5 -263t-142.5 -213t-214 -143.5t-264 -52.5t-264 52.5t-214 143.5t-142.5 213t-51.5 263t51.5 263t142.5 213t214 143.5t264 52.5t264 -52.5t214 -143.5t142.5 -213t51.5 -263z" />
<glyph horiz-adv-x="1548" d="M1194 303l141 -387l-387 141l-174 -370l-172 368l-383 -139l139 383l-370 176l370 170l-139 387l383 -141l176 371l170 -371l387 141l-141 -387l369 -168zM1087 602l103 285l-285 -103l-129 273l-129 -273l-285 103l105 -285l-274 -129l274 -129l-105 -283l285 105 l127 -277l131 277l285 -105l-103 287l271 127z" />
</font>
</defs>
</svg>
