<?xml version="1.0" standalone="no"?>
<!DOCTYPE svg PUBLIC "-//W3C//DTD SVG 1.1//EN" "http://www.w3.org/Graphics/SVG/1.1/DTD/svg11.dtd" >
<svg xmlns="http://www.w3.org/2000/svg" xmlns:xlink="http://www.w3.org/1999/xlink" version="1.1">
<metadata></metadata>
<defs>
<font id="freightsans_probook_italic" horiz-adv-x="1024" >
<font-face units-per-em="2048" ascent="1638" descent="-410" />
<missing-glyph horiz-adv-x="466" />
<glyph unicode="&#xfb00;" horiz-adv-x="1214" d="M209 0h-125l158 819l-144 10l6 78l160 33l31 150q33 156 106.5 235.5t202.5 79.5q55 0 109.5 -17.5t95.5 -48.5q0 -2 -8 -18t-19 -37q-12 -23 -26 -53q-35 23 -75 39t-85 16q-78 0 -118 -58.5t-56 -142.5l-31 -151h479l37 176q33 156 105.5 235.5t201.5 79.5 q55 0 110.5 -17t96.5 -48q0 -2 -8 -18.5t-18 -36.5q-12 -23 -27 -54q-35 23 -75 39.5t-87 16.5q-39 0 -67.5 -15.5t-49 -43t-35 -64.5t-22.5 -78l-35 -172h271l-6 -115h-285l-160 -819h-127l160 819h-481z" />
<glyph unicode="&#xfb01;" horiz-adv-x="1032" d="M1067 1247q0 -41 -23.5 -71.5t-70.5 -30.5t-70.5 30.5t-23.5 71.5q0 39 23.5 69t70.5 30t70.5 -30t23.5 -69zM760 1251q-35 23 -75 39.5t-85 16.5q-78 0 -118 -58.5t-56 -142.5l-35 -172h271v-115h-293l-160 -819h-125l158 819l-144 10l6 78l160 33l35 170 q33 156 106.5 235.5t202.5 79.5q55 0 109.5 -17t95.5 -48q0 -2 -8 -18.5t-19 -36.5q-12 -23 -26 -54zM668 0l180 928l131 26l-184 -954h-127z" />
<glyph unicode="&#xfb02;" horiz-adv-x="1030" d="M813 1360q0 -2 -8 -18.5t-19 -36.5q-12 -23 -26 -54q-35 23 -75 39.5t-85 16.5q-78 0 -118 -58.5t-56 -142.5l-35 -172h271v-115h-293l-160 -819h-125l158 819l-144 10l6 78l160 33l35 170q33 156 106.5 235.5t202.5 79.5q55 0 109.5 -17t95.5 -48zM666 0l268 1380 l133 27l-274 -1407h-127z" />
<glyph unicode="&#xfb03;" horiz-adv-x="1640" d="M1673 1247q0 -41 -23.5 -71.5t-70.5 -30.5t-69.5 30.5t-22.5 71.5q0 39 22.5 69t69.5 30t70.5 -30t23.5 -69zM209 0h-125l158 819l-144 10l6 78l160 33l31 150q33 156 106.5 235.5t202.5 79.5q55 0 109.5 -17.5t95.5 -48.5q0 -2 -8 -18t-19 -37q-12 -23 -26 -53 q-35 23 -75 39t-85 16q-78 0 -118 -58.5t-56 -142.5l-31 -151h479l37 176q33 156 105.5 235.5t201.5 79.5q55 0 110.5 -17t96.5 -48q0 -2 -8 -18.5t-18 -36.5q-12 -23 -27 -54q-35 23 -75 39.5t-87 16.5q-39 0 -67.5 -15.5t-49 -43t-35 -64.5t-22.5 -78l-35 -172h271v-115 h-291l-160 -819h-127l160 819h-481zM1276 0l180 928l129 26l-184 -954h-125z" />
<glyph unicode="&#xfb04;" horiz-adv-x="1636" d="M209 0h-125l158 819l-144 10l6 78l160 33l31 150q33 156 106.5 235.5t202.5 79.5q55 0 109.5 -17.5t95.5 -48.5q0 -2 -8 -18t-19 -37q-12 -23 -26 -53q-35 23 -75 39t-85 16q-78 0 -118 -58.5t-56 -142.5l-31 -151h479l37 176q33 156 105.5 235.5t201.5 79.5 q55 0 110.5 -17t96.5 -48q0 -2 -8 -18.5t-18 -36.5q-12 -23 -27 -54q-35 23 -75 39.5t-87 16.5q-39 0 -67.5 -15.5t-49 -43t-35 -64.5t-22.5 -78l-35 -172h271l-6 -115h-285l-160 -819h-127l160 819h-481zM1274 0l268 1380l131 27l-274 -1407h-125z" />
<glyph horiz-adv-x="0" />
<glyph unicode="&#xd;" horiz-adv-x="466" />
<glyph horiz-adv-x="0" />
<glyph horiz-adv-x="0" />
<glyph unicode=" "  horiz-adv-x="466" />
<glyph unicode="&#x09;" horiz-adv-x="466" />
<glyph unicode="&#xa0;" horiz-adv-x="466" />
<glyph unicode="!" horiz-adv-x="530" d="M358 1329l154 -16l-223 -934l-74 6zM295 80q0 -41 -27.5 -74t-74.5 -33q-45 0 -74 33t-29 74t28.5 71.5t74.5 30.5q47 0 74.5 -30.5t27.5 -71.5z" />
<glyph unicode="&#x22;" horiz-adv-x="620" d="M358 815l361 508l117 -59l-402 -449h-76zM55 815l359 508l116 -59l-401 -449h-74z" />
<glyph unicode="#" horiz-adv-x="1153" d="M145 758v94h287q16 35 35 72q16 33 34.5 73.5t41.5 85.5q49 100 108 232h105q-61 -131 -111 -232q-23 -45 -41 -86t-35 -73q-18 -37 -34 -72h360l219 463h103l-220 -463h166l-2 -94h-209l-153 -324h241l-2 -94h-284l-232 -492h-102l231 492h-358l-232 -492h-102l231 492 h-167v94h213l153 324h-244zM492 758l-154 -324h358q12 23 25 49q10 23 23.5 52.5t29.5 60.5q35 70 76 162h-358z" />
<glyph unicode="$" horiz-adv-x="1007" d="M391 96q37 -6 74 -6q135 0 222 64.5t87 179.5q0 86 -59.5 142t-161.5 104zM780 1495h88l-71 -215q119 -31 209 -88l-33 -125q-98 66 -215 96l-158 -465q61 -29 116.5 -61.5t96.5 -74.5t64.5 -94t23.5 -120q0 -86 -35 -155.5t-94 -118.5t-140 -75t-173 -26q-27 0 -53.5 2 t-53.5 7l-78 -234h-88l84 250q-145 37 -247 106l32 127q66 -45 126.5 -72.5t125.5 -45.5q12 37 27 77q25 74 57 172q37 111 84 250q-59 27 -111.5 57.5t-92.5 70.5t-63.5 89.5t-23.5 112.5q0 88 35 155.5t94.5 113.5t136 70t160.5 24q57 0 105 -9zM676 1182q-41 6 -78 6 q-59 0 -111.5 -15.5t-91.5 -45t-60.5 -72.5t-21.5 -99q0 -80 57.5 -130t153.5 -97z" />
<glyph unicode="%" horiz-adv-x="1521" d="M813 1024q0 -78 -28.5 -147.5t-80 -120.5t-119 -81t-147.5 -30q-68 0 -126 21.5t-101 60.5t-67.5 95.5t-24.5 125.5q0 78 28.5 146.5t80 121t118 82t143.5 29.5q68 0 127.5 -20.5t103.5 -60.5t68.5 -96t24.5 -126zM209 -31h-119l1294 1340h117zM1477 328 q0 -78 -30 -146.5t-80 -120t-118.5 -81t-146.5 -29.5q-68 0 -126 21.5t-101.5 60.5t-67 95t-23.5 126q0 78 29 146.5t79 119.5t117.5 81t145.5 30q68 0 127 -20.5t102 -60.5t68 -96t25 -126zM721 1010q0 104 -65.5 165.5t-170.5 61.5q-59 0 -109 -22.5t-87 -60.5t-57.5 -90 t-20.5 -110q0 -104 66.5 -163.5t164.5 -59.5q59 0 110.5 21.5t88.5 59.5t58.5 88.5t21.5 109.5zM1384 319q0 104 -67.5 164t-165.5 60q-59 0 -109.5 -22.5t-87 -60.5t-58.5 -90.5t-22 -109.5q0 -104 67 -163.5t167 -59.5q57 0 108.5 21.5t88 60.5t58 90t21.5 110z" />
<glyph unicode="&#x26;" horiz-adv-x="1277" d="M563 733q51 18 100.5 42t88.5 56.5t62.5 76.5t23.5 100q0 86 -60.5 140t-152.5 54q-51 0 -95.5 -18.5t-76 -49t-50 -72.5t-18.5 -87q0 -74 49 -131.5t129 -110.5zM801 328q-61 102 -140 186t-174 137q-63 -20 -121.5 -50t-104.5 -69.5t-73.5 -91t-27.5 -114.5 q0 -51 18.5 -95.5t52 -76t77.5 -50t98 -18.5q57 0 112 21.5t104.5 56.5t94.5 78t84 86zM848 246q-47 -53 -98.5 -101.5t-108.5 -87.5t-120.5 -61.5t-133.5 -22.5q-76 0 -141.5 26t-113.5 70t-75.5 105.5t-27.5 132.5q0 82 33.5 147.5t88 113.5t124 81t141.5 53 q-72 47 -116 114t-44 149q0 68 29.5 130t81 110t121 76t149.5 28q70 0 129 -21.5t103 -59.5t70 -90.5t26 -113.5q0 -70 -29 -125t-75 -97t-104.5 -72t-119.5 -48q74 -47 136.5 -116.5t107.5 -147.5l282 354h156l-383 -432l207 -344l-139 -23z" />
<glyph unicode="'" horiz-adv-x="333" d="M57 815l361 508l112 -59l-401 -449h-72z" />
<glyph unicode="(" horiz-adv-x="716" d="M694 -494q-86 43 -183 128t-180 207t-137.5 278.5t-54.5 343.5q0 186 54.5 343t137.5 278.5t180 207.5t183 129l56 -90q-80 -43 -167 -123t-161 -192.5t-121 -251.5t-47 -301t47 -301t121 -251t161 -191.5t167 -122.5l-56 -91v0z" />
<glyph unicode=")" horiz-adv-x="716" d="M-33 -403q80 43 168 122.5t160 191.5t119 251t47 301t-47 301t-119 251.5t-160 192.5t-168 123l58 90q86 -43 183 -129t179 -207.5t136.5 -278.5t54.5 -343t-54.5 -343t-136.5 -279t-180 -207t-184 -128z" />
<glyph unicode="*" horiz-adv-x="694" d="M164 768l-62 121l297 90l2 10l-235 197l96 92l176 -260h6l117 287l115 -64l-191 -246l4 -6l299 -14l-24 -131l-283 100l-8 -6l84 -301l-131 -12l2 309l-6 4z" />
<glyph unicode="+" horiz-adv-x="995" d="M557 426v-369h-113v369h-360l6 111h354v364h113v-364h350l6 -111h-356z" />
<glyph unicode="," horiz-adv-x="382" d="M4 106q10 37 42 63t75 26q57 0 94 -43t37 -103q0 -59 -31 -113.5t-79 -100.5t-105 -84t-111 -64l-45 57q41 23 82 52.5t74 62t53.5 67.5t20.5 70t-34 63.5t-73 46.5z" />
<glyph unicode="-" horiz-adv-x="598" d="M74 438v119h463v-119h-463z" />
<glyph unicode="." horiz-adv-x="382" d="M221 80q0 -41 -27.5 -74t-72.5 -33q-47 0 -76 33t-29 74t29 71.5t76 30.5q45 0 72.5 -30.5t27.5 -71.5z" />
<glyph unicode="/" horiz-adv-x="423" d="M-135 -408h-98l854 1846h98z" />
<glyph unicode="0" horiz-adv-x="1183" d="M1100 547q0 -115 -42 -219.5t-116 -183t-174 -125t-217 -46.5q-98 0 -182 32t-145.5 90.5t-96.5 140t-35 182.5q0 115 42 219t115 183t173 126t217 47q98 0 182 -32.5t145.5 -91t97.5 -140.5t36 -182zM971 539q0 74 -25.5 136t-71 106t-107.5 68.5t-136 24.5 q-90 0 -165 -36.5t-129 -98t-85 -142.5t-31 -169q0 -74 24.5 -136.5t69.5 -106.5t107.5 -68.5t136.5 -24.5q90 0 166 37t130 98.5t85 142.5t31 169z" />
<glyph unicode="1" horiz-adv-x="667" d="M410 850l-256 -51l16 112l393 84l-194 -995h-127z" />
<glyph unicode="2" horiz-adv-x="901" d="M2 0l25 139q127 76 247.5 147.5t215 140.5t151.5 136.5t57 134.5q0 84 -58 132.5t-151 48.5q-78 0 -149.5 -26t-136.5 -65l-25 111q72 41 153 67.5t173 26.5q70 0 130 -19.5t104 -54t70 -87t26 -115.5q0 -84 -51.5 -161t-139.5 -148.5t-201.5 -142t-238.5 -144.5h561 l-21 -121h-741z" />
<glyph unicode="3" horiz-adv-x="878" d="M467 336q117 -20 193.5 -99t76.5 -200q0 -92 -40 -168t-104.5 -130t-148.5 -83t-172 -29q-47 0 -98 8.5t-100 23.5t-94.5 35.5t-77.5 47.5l51 113q70 -49 156 -81t170 -32q63 0 121.5 19.5t103.5 56.5t71.5 90t26.5 121t-29.5 113.5t-74.5 73.5t-100.5 40t-104.5 12 q-29 0 -63.5 -4t-59.5 -8l23 109q63 8 148 27.5t161 57t128 95t52 143.5q0 51 -21.5 87t-56.5 58.5t-78 33t-84 10.5q-80 0 -155.5 -27t-141.5 -66l-26 109q74 45 163 72.5t181 27.5q63 0 126.5 -17.5t115 -52t84 -90t32.5 -128.5q0 -74 -30.5 -135.5t-81 -107.5t-113.5 -78 t-129 -48z" />
<glyph unicode="4" horiz-adv-x="1026" d="M729 31l-82 -408h-127l82 408h-625l-14 96l840 872h117l-168 -849h200l-18 -119h-205zM756 803l-621 -653h492z" />
<glyph unicode="5" horiz-adv-x="847" d="M211 432q23 4 47.5 6t46.5 2q82 0 159 -21.5t135 -67.5t93 -115.5t35 -165.5t-38 -178t-102.5 -141.5t-149.5 -93.5t-181 -34q-94 0 -193.5 30t-166.5 83l45 117q72 -51 147.5 -83t167.5 -32q68 0 129 22.5t107.5 64.5t74 101.5t27.5 132.5q0 68 -24.5 118t-67.5 85 t-101.5 52.5t-128.5 17.5q-49 0 -93 -4t-85 -13l-28 37l200 617h611l-19 -123h-510l-137 -414v0z" />
<glyph unicode="6" horiz-adv-x="1044" d="M90 422q0 174 71.5 326.5t194.5 271.5t288 196.5t351 104.5l11 -125q-111 -16 -222.5 -56t-210 -104.5t-179.5 -154.5t-130 -207l2 -4q74 51 162 87t184 36q74 0 137.5 -26t111.5 -72t76 -111.5t28 -145.5q0 -98 -35 -182t-96.5 -145.5t-144.5 -97.5t-179 -36t-173 33 t-132 92.5t-85 141.5t-30 178zM221 414q0 -68 20.5 -126.5t59.5 -101.5t93.5 -68.5t121.5 -25.5q70 0 129.5 26.5t100 72t64.5 105.5t24 128q0 61 -20.5 109.5t-56.5 82t-83 51t-103 17.5q-92 0 -176 -35t-153 -88q-10 -33 -15.5 -68.5t-5.5 -78.5z" />
<glyph unicode="7" horiz-adv-x="899" d="M113 844l30 125h795v-105l-875 -1241h-137l862 1221h-675z" />
<glyph unicode="8" horiz-adv-x="1003" d="M596 678q53 14 101 39.5t85 61.5t58.5 81t21.5 101q0 51 -19.5 92t-53 69.5t-79.5 45t-98 16.5q-61 0 -111 -18.5t-86 -49.5t-56.5 -71.5t-20.5 -88.5q0 -49 22.5 -90t59.5 -74.5t83 -61t93 -52.5zM496 604q-63 -14 -117.5 -40.5t-95.5 -63.5t-64.5 -84t-23.5 -105 q0 -104 79.5 -164.5t208.5 -60.5q123 0 199 63.5t76 165.5q0 53 -23.5 95.5t-61.5 77t-85 63t-92 53.5zM678 623q41 -23 79 -53.5t66.5 -67.5t46 -82t17.5 -98q0 -70 -30 -133.5t-84 -110.5t-129 -76t-167 -29q-90 0 -165.5 23.5t-130 65.5t-85 102.5t-30.5 134.5 t28.5 134.5t76.5 105.5t110.5 74.5t130.5 41.5q-80 45 -141.5 117t-61.5 176q0 70 29.5 132.5t83 110.5t127 75.5t161.5 27.5t159 -24.5t120 -67.5t74.5 -102.5t25.5 -128.5q0 -72 -26.5 -129.5t-70.5 -100.5t-100.5 -72.5t-113.5 -45.5z" />
<glyph unicode="9" horiz-adv-x="1044" d="M975 547q0 -176 -72 -327.5t-194.5 -269.5t-286.5 -196t-350 -104l-11 125q111 16 221.5 56t209 104.5t179.5 153.5t130 206l-2 4q-72 -49 -161 -86t-185 -37q-74 0 -137.5 25.5t-110.5 71.5t-75 113t-28 146q0 98 35 182.5t95.5 146t143.5 97t179 35.5t174 -33.5 t132 -93t84 -141.5t30 -178zM844 555q0 68 -20.5 126t-58.5 102t-93.5 70t-122.5 26q-70 0 -128.5 -27t-99 -72t-64.5 -105.5t-24 -127.5q0 -61 20.5 -109.5t55.5 -82t83 -51t102 -17.5q92 0 177 33.5t154 87.5q8 33 13.5 69.5t5.5 77.5z" />
<glyph unicode=":" horiz-adv-x="382" d="M346 733q0 -43 -28.5 -74.5t-73.5 -31.5t-74 31.5t-29 74.5q0 41 29 71t74 30t73.5 -30t28.5 -71zM221 80q0 -41 -27.5 -74t-72.5 -33q-47 0 -76 33t-29 74t29 71.5t76 30.5q45 0 72.5 -30.5t27.5 -71.5z" />
<glyph unicode=";" horiz-adv-x="382" d="M346 733q0 -43 -28.5 -74.5t-73.5 -31.5t-74 31.5t-29 74.5q0 41 29 71t74 30t73.5 -30t28.5 -71zM4 106q10 37 42 63t75 26q57 0 94 -43t37 -103q0 -59 -31 -113.5t-79 -100.5t-105 -84t-111 -64l-45 57q41 23 82 52.5t74 62t53.5 67.5t20.5 70t-34 63.5t-73 46.5z" />
<glyph unicode="&#x3c;" horiz-adv-x="933" d="M852 37l-782 389v111l780 391v-125l-637 -311v-21l639 -311v-123z" />
<glyph unicode="=" horiz-adv-x="913" d="M80 604l-8 113h774l-8 -113h-758zM72 244l8 112h758l8 -112h-774z" />
<glyph unicode="&#x3e;" horiz-adv-x="933" d="M78 37v123l639 311v21l-637 311v125l780 -391v-111z" />
<glyph unicode="?" horiz-adv-x="714" d="M741 993q0 -72 -23.5 -121t-61.5 -83.5t-87 -57t-98 -37.5q-98 -31 -146.5 -59.5t-48.5 -87.5q0 -41 29 -81t64 -77l-37 -8l-37 -8q-47 35 -83 85t-36 109q0 47 18.5 83t51.5 61.5t77 45t95 36.5q47 14 87 31.5t68.5 39t44 50t15.5 69.5q0 53 -26.5 92t-67.5 64.5 t-90.5 38t-96.5 12.5q-33 0 -57.5 -2t-46.5 -4l22 119q39 6 97 6q80 0 147.5 -23.5t118.5 -65.5t79.5 -100.5t28.5 -126.5zM336 80q0 -41 -28.5 -74t-74.5 -33q-47 0 -75.5 33t-28.5 74t28.5 71.5t75.5 30.5q45 0 74 -30.5t29 -71.5z" />
<glyph unicode="@" horiz-adv-x="1701" d="M1622 627q0 -129 -33 -227.5t-86 -165t-122.5 -101.5t-143.5 -35q-86 0 -146.5 43t-84.5 109q-61 -74 -124 -104.5t-126 -30.5q-66 0 -120 25.5t-92 71.5t-59.5 106.5t-21.5 132.5q0 96 33.5 182t92 150.5t136.5 102.5t166 38q59 0 110.5 -18.5t92.5 -43.5l118 53 l-100 -491q-23 -113 13 -174.5t126 -61.5q55 0 108.5 28t94.5 83t65.5 137t24.5 191q0 137 -56 249.5t-149.5 191.5t-213 122t-248.5 43q-150 0 -279 -59.5t-225.5 -161t-151.5 -234.5t-55 -280q0 -141 48 -265t134 -216.5t206 -145.5t263 -53q63 0 129 12t123 29l18 -68 q-139 -43 -274 -43q-158 0 -291 57.5t-229 159t-150.5 237.5t-54.5 294q0 166 61.5 312t167 256t250 173t310.5 63q150 0 284.5 -47t237 -135t163 -211.5t60.5 -279.5zM1071 748q-33 35 -83 59t-109 24q-63 0 -118.5 -31.5t-95.5 -83.5t-63.5 -119t-23.5 -138 q0 -109 57 -178.5t151 -69.5q104 0 197 104z" />
<glyph unicode="A" horiz-adv-x="1185" d="M1065 0h-131l-62 356h-593l-205 -356h-144l754 1278h152zM737 1145l-389 -670h504z" />
<glyph unicode="B" horiz-adv-x="1099" d="M758 637q113 -29 175 -103.5t62 -173.5q0 -74 -29.5 -139t-91 -114.5t-156.5 -78t-226 -28.5h-418l248 1280h360q98 0 171 -25.5t121 -68.5t71.5 -100.5t23.5 -120.5q0 -123 -80.5 -208t-230.5 -120zM934 944q0 88 -65.5 151.5t-211.5 63.5h-227l-88 -461h233 q74 0 138.5 15.5t114 46.5t78 77t28.5 107zM860 362q0 94 -77.5 158t-223.5 64h-242l-90 -463h287q182 0 264 66t82 175z" />
<glyph unicode="C" horiz-adv-x="1196" d="M1204 1100q-88 41 -187 64.5t-192 23.5q-137 0 -245.5 -52.5t-183 -139.5t-114.5 -202.5t-40 -240.5q0 -111 32.5 -196t93 -144t145.5 -90t189 -31q82 0 166 21.5t156 58.5l27 -117q-78 -39 -176.5 -60.5t-182.5 -21.5q-129 0 -236.5 40t-184 114t-119.5 179.5t-43 234.5 q0 156 51 294t145 242.5t228.5 166t300.5 61.5q98 0 197 -20.5t198 -59.5z" />
<glyph unicode="D" horiz-adv-x="1282" d="M1208 731q0 -150 -48 -283t-144 -232t-241.5 -157.5t-342.5 -58.5h-358l248 1280h276q127 0 238.5 -36t194.5 -105.5t130 -172t47 -235.5zM1071 717q0 217 -133 328.5t-360 113.5h-148l-201 -1038h228q129 0 240.5 39t194.5 113.5t131 186.5t48 257z" />
<glyph unicode="E" horiz-adv-x="1038" d="M74 0l250 1280h772l-23 -121h-643l-88 -459h537l-25 -118h-535l-90 -461h641l-22 -121h-774z" />
<glyph unicode="F" horiz-adv-x="983" d="M322 1280h753l-22 -123h-623l-92 -477h516l-25 -119h-516l-108 -561h-131z" />
<glyph unicode="G" horiz-adv-x="1271" d="M1075 66q-84 -41 -187.5 -67t-195.5 -26q-129 0 -236.5 40t-184 114t-119.5 179.5t-43 234.5q0 156 50 294t144 242.5t228.5 166t302.5 61.5q98 0 197 -20.5t198 -59.5l-25 -125q-88 41 -187 64.5t-192 23.5q-137 0 -245.5 -52.5t-183 -139.5t-114.5 -202.5t-40 -240.5 q0 -111 33.5 -197t94 -145t145.5 -90t190 -31q66 0 130 15.5t123 39.5l74 373h-340l25 119h469l-111 -571v0z" />
<glyph unicode="H" horiz-adv-x="1331" d="M944 0l115 584h-742l-112 -584h-131l248 1280h131l-111 -578h739l111 578h131l-248 -1280h-131z" />
<glyph unicode="I" horiz-adv-x="466" d="M76 0l248 1280h131l-250 -1280h-129z" />
<glyph unicode="J" horiz-adv-x="835" d="M676 350q-33 -170 -132.5 -273.5t-273.5 -103.5q-92 0 -179 32t-146 81l47 119q59 -51 131 -82t149 -31q121 0 186.5 75t92.5 206l176 907h129l-180 -930v0z" />
<glyph unicode="K" horiz-adv-x="1073" d="M336 666l708 614h170l-755 -641l510 -639h-156l-487 612h-2l-119 -612h-131l248 1280h131l-119 -614h2z" />
<glyph unicode="L" horiz-adv-x="978" d="M74 0l250 1280h131l-226 -1157h633l-24 -123h-764z" />
<glyph unicode="M" horiz-adv-x="1554" d="M1399 1116l-635 -1108h-148l-200 1102l-248 -1110h-137l297 1280h176l211 -1128l647 1128h186l-209 -1280h-133z" />
<glyph unicode="N" horiz-adv-x="1320" d="M1192 1280h127l-248 -1292h-153l-506 1134l-211 -1122h-127l245 1280h160l502 -1122z" />
<glyph unicode="O" horiz-adv-x="1439" d="M1403 719q0 -147 -53.5 -281.5t-148.5 -238t-224 -165t-283 -61.5q-127 0 -233.5 44t-184 122t-120.5 187.5t-43 238.5q0 147 53 281.5t147.5 237t225.5 163t284 60.5q125 0 231.5 -43t184.5 -121t121 -186.5t43 -237.5zM1270 709q0 104 -34 193t-94.5 152.5t-145.5 99.5 t-189 36q-127 0 -230.5 -52.5t-177 -138.5t-113.5 -197.5t-40 -228.5q0 -104 33.5 -193t94 -153.5t145.5 -100.5t190 -36q127 0 230 53.5t177 139.5t114 197.5t40 228.5z" />
<glyph unicode="P" horiz-adv-x="1062" d="M1071 920q0 -104 -37 -191.5t-109.5 -149t-179 -95t-245.5 -33.5h-207l-90 -451h-129l248 1280h309q111 0 193.5 -29.5t137 -80t82 -115.5t27.5 -135zM936 897q0 113 -83 187.5t-243 74.5h-180l-117 -588l203 -2q211 0 315.5 93.5t104.5 234.5z" />
<glyph unicode="Q" horiz-adv-x="1439" d="M1274 -240l-78 -106l-459 323q-10 -2 -20 -3t-21 -1q-127 0 -233.5 44t-184 122t-121.5 187.5t-44 238.5q0 147 53 281.5t147.5 236t225.5 162t284 60.5q125 0 231.5 -43t184.5 -120t121 -185.5t43 -237.5q0 -121 -36 -232.5t-102.5 -206t-158.5 -165t-203 -107.5z M1270 709q0 104 -34 193t-94.5 152.5t-145.5 99.5t-189 36q-127 0 -230.5 -52.5t-177 -138.5t-113.5 -197.5t-40 -228.5q0 -104 33.5 -193t94 -153.5t145.5 -100.5t190 -36q127 0 230 53.5t177 139.5t114 197.5t40 228.5z" />
<glyph unicode="R" horiz-adv-x="1093" d="M205 0h-131l248 1280h296q111 0 194 -28.5t137.5 -76t81 -111t26.5 -132.5q0 -86 -32 -153.5t-84 -116t-119.5 -79t-137.5 -42.5l234 -541h-146l-217 526l-252 -16zM528 631q76 2 148 19.5t126 52t87 88t33 127.5q0 111 -78 177t-236 66h-178l-106 -534z" />
<glyph unicode="S" horiz-adv-x="1005" d="M465 90q68 0 124 17.5t98 50t64.5 78t22.5 98.5q0 49 -20.5 87t-57.5 69.5t-88 58t-112 55.5q-61 27 -117.5 58.5t-99.5 71.5t-69 91.5t-26 116.5q0 88 35 155.5t94.5 113.5t136 70t160.5 24q113 0 217.5 -33t178.5 -80l-33 -125q-37 25 -82 47.5t-94 38.5t-100.5 25.5 t-98.5 9.5q-57 0 -109.5 -15.5t-91.5 -45t-61.5 -72.5t-22.5 -99q0 -90 75 -144t198 -107q66 -29 123 -62t100 -75t67.5 -96t24.5 -124q0 -86 -35 -155.5t-94 -118.5t-140 -75t-173 -26q-123 0 -238 38t-198 93l32 127q88 -59 197 -100t213 -41z" />
<glyph unicode="T" horiz-adv-x="1112" d="M762 1157l-225 -1157h-129l225 1157h-453l25 123h1030l-23 -123h-450z" />
<glyph unicode="U" horiz-adv-x="1232" d="M588 -27q-102 0 -187.5 26t-146.5 74t-95 118.5t-34 160.5q0 51 7 100.5t13 82.5l148 745h129l-146 -750q-6 -29 -13 -68.5t-7 -84.5q0 -135 88 -209t252 -74q154 0 246 98.5t125 260.5l161 827h129l-161 -842q-41 -215 -168 -340t-340 -125z" />
<glyph unicode="V" horiz-adv-x="1146" d="M555 2h-149l-224 1278h133l191 -1143l647 1143h141z" />
<glyph unicode="W" horiz-adv-x="1851" d="M494 0h-127l-117 1280h135l84 -1092l539 1092h155l119 -1092l498 1092h137l-606 -1280h-127l-125 1120z" />
<glyph unicode="X" horiz-adv-x="1150" d="M98 0h-161l602 657l-330 623h147l271 -537l469 537h161l-573 -631l348 -649h-147l-289 567z" />
<glyph unicode="Y" horiz-adv-x="1073" d="M610 510l-100 -510h-127l100 518l-299 762h140l245 -643l482 643h153z" />
<glyph unicode="Z" horiz-adv-x="1044" d="M-41 0l21 96l954 1063h-727l22 121h899l-18 -98l-952 -1061h745l-22 -121h-922z" />
<glyph unicode="[" horiz-adv-x="792" d="M201 -455v1837h532v-104h-416v-1628h416v-105h-532z" />
<glyph unicode="\" horiz-adv-x="423" d="M260 1438l137 -1846h-94l-139 1846h96z" />
<glyph unicode="]" horiz-adv-x="792" d="M61 -350h416v1628h-416v104h531v-1837h-531v105z" />
<glyph unicode="^" horiz-adv-x="772" d="M725 1061l-137 276h-4l-242 -276h-119l305 373h144l159 -373h-106z" />
<glyph unicode="_" horiz-adv-x="911" d="M-70 -115v115h955v-115h-955z" />
<glyph unicode="`" horiz-adv-x="811" d="M569 1061l-239 366h164l170 -366h-95z" />
<glyph unicode="a" horiz-adv-x="905" d="M647 467q-256 -4 -370.5 -62.5t-114.5 -152.5q0 -70 47 -118t131 -48q78 0 142.5 34t111.5 79zM674 602q23 117 -32.5 181.5t-184.5 64.5q-72 0 -148 -24.5t-135 -59.5l-16 115q59 35 143 59.5t172 24.5t156.5 -22.5t112.5 -70t59.5 -118t-4.5 -166.5l-80 -389 q-10 -55 1 -85t75 -28l-23 -104q-49 -4 -83 7t-54.5 29.5t-29.5 43t-11 51.5h-2q-55 -59 -132 -97.5t-157 -38.5q-61 0 -111.5 22.5t-86 59.5t-55 84t-19.5 97q0 76 35.5 136t112.5 102t198 62.5t289 18.5z" />
<glyph unicode="b" horiz-adv-x="1058" d="M983 551q0 -121 -40 -226.5t-109.5 -183.5t-165 -123t-203.5 -45q-78 0 -147.5 26t-122.5 60l-140 -69l269 1390l133 27l-105 -551q53 39 114.5 70.5t149.5 31.5q80 0 147.5 -30.5t116 -85t76 -129t27.5 -162.5zM852 532q0 72 -20.5 130.5t-56.5 99.5t-84 63.5t-105 22.5 q-76 0 -140.5 -32t-117.5 -77l-107 -549q43 -47 111.5 -76.5t146.5 -29.5q82 0 150.5 38t118 100.5t77 143t27.5 166.5z" />
<glyph unicode="c" horiz-adv-x="917" d="M762 31q-49 -27 -119 -42.5t-133 -15.5q-92 0 -171 30t-136.5 87t-90 138t-32.5 184q0 104 37 204.5t103.5 177t159.5 124t208 47.5q98 0 177 -27t144 -74l-35 -116q-66 45 -139 72.5t-153 27.5q-84 0 -152 -38t-116 -98.5t-74.5 -136t-26.5 -153.5q0 -158 83 -244 t224 -86q59 0 118.5 15.5t106.5 37.5l17 -114v0z" />
<glyph unicode="d" horiz-adv-x="1056" d="M961 1380l131 27l-273 -1407h-127l15 76q-53 -41 -115 -72t-150 -31q-80 0 -146.5 31t-115.5 85t-76.5 129t-27.5 165q0 121 40 225.5t110.5 182t165.5 122.5t206 45q74 0 142.5 -24.5t121.5 -65.5zM838 741q-43 47 -112 78t-140 31q-84 0 -152.5 -38t-120 -100.5 t-79 -143.5t-27.5 -167q0 -145 75.5 -231t190.5 -86q76 0 139.5 30.5t116.5 73.5z" />
<glyph unicode="e" horiz-adv-x="956" d="M215 467q0 -12 -1 -23.5t-1 -21.5q0 -158 84 -244t225 -86q61 0 119.5 15.5t106.5 37.5l18 -114q-49 -27 -120 -42.5t-134 -15.5q-92 0 -171 31t-136.5 88.5t-90 138t-32.5 181.5q0 104 35 204.5t99.5 177t153.5 124t199 47.5q72 0 132.5 -21.5t103.5 -61.5t66.5 -95.5 t23.5 -122.5q0 -47 -10.5 -97.5t-30.5 -95.5zM514 565q109 0 238 2q6 20 10 42t4 44q0 90 -57.5 143.5t-155.5 53.5q-59 0 -109.5 -21.5t-92.5 -60.5t-71.5 -90t-46.5 -113h281z" />
<glyph unicode="f" horiz-adv-x="608" d="M813 1360q0 -2 -8 -18.5t-19 -36.5q-12 -23 -26 -54q-35 23 -75 39.5t-85 16.5q-78 0 -118 -58.5t-56 -142.5l-35 -172h271l-7 -115h-286l-160 -819h-125l158 817l-144 10l6 80l160 33l35 170q33 156 106.5 235.5t202.5 79.5q55 0 109.5 -17t95.5 -48z" />
<glyph unicode="g" horiz-adv-x="960" d="M231 344q-53 41 -83.5 103.5t-30.5 144.5q0 78 30.5 145.5t83 117.5t122 80t147.5 30q72 0 121 -15.5t90 -44.5l293 25l6 -129l-215 12q23 -33 36 -77t13 -91q0 -78 -30 -146.5t-82 -118.5t-122.5 -79t-150.5 -29q-49 0 -89 9.5t-77 25.5q-37 -16 -63.5 -43.5 t-26.5 -58.5q0 -51 51 -79t172 -52l55 -11q150 -31 234 -92t84 -170q0 -63 -32 -119.5t-92.5 -99.5t-148.5 -67.5t-202 -24.5q-102 0 -183.5 20.5t-137.5 57.5t-87 88t-31 111q0 90 67.5 162.5t197.5 107.5q-33 20 -55.5 51t-22.5 76q0 59 46.5 108t112.5 72zM467 373 q53 0 100 20.5t82 55t54.5 84t19.5 104.5q0 98 -59.5 161.5t-174.5 63.5q-49 0 -94 -20.5t-79.5 -55t-55 -83t-20.5 -105.5q0 -98 59 -161.5t168 -63.5zM233 -2q-104 -23 -162.5 -79t-58.5 -132q0 -45 24.5 -81t69 -60.5t103.5 -36.5t129 -12q154 0 245 52t91 138 q0 66 -64.5 104.5t-189.5 63.5q-59 10 -105.5 21.5t-81.5 21.5z" />
<glyph unicode="h" horiz-adv-x="1034" d="M676 0l112 580q12 57 13 96q0 86 -49.5 129t-139.5 43q-74 0 -146.5 -35t-139.5 -90l-142 -723h-127l269 1380l133 27l-113 -584q72 61 153 100.5t167 39.5q123 0 195.5 -69t72.5 -187q0 -43 -12 -105l-119 -602h-127z" />
<glyph unicode="i" horiz-adv-x="428" d="M459 1247q0 -41 -23.5 -71.5t-70.5 -30.5t-70 30.5t-23 71.5q0 39 22.5 69t70.5 30q47 0 70.5 -30t23.5 -69zM59 0l181 928l131 26l-185 -954h-127z" />
<glyph unicode="j" horiz-adv-x="423" d="M459 1247q0 -41 -23.5 -71.5t-70.5 -30.5t-70 30.5t-23 71.5q0 39 22.5 69t70.5 30q47 0 70.5 -30t23.5 -69zM-205 -420q55 23 95 51.5t70 68.5t50.5 94t34.5 128q0 -4 7 38t21.5 112.5t32 161t35.5 186.5l99 508l131 26q-55 -295 -101 -524q-18 -98 -36.5 -191.5 t-33 -165t-22.5 -115.5t-8 -40q-18 -92 -44 -159.5t-62.5 -119t-86 -87t-114.5 -64.5z" />
<glyph unicode="k" horiz-adv-x="888" d="M279 485l-95 -485h-127l269 1380l133 27l-174 -881h4l483 412h178l-532 -438l364 -500h-155l-344 485h-4z" />
<glyph unicode="l" horiz-adv-x="421" d="M57 0l269 1380l133 27l-275 -1407h-127z" />
<glyph unicode="m" horiz-adv-x="1587" d="M1229 0l110 569q6 29 11.5 58.5t5.5 54.5q0 78 -46 121t-132 43q-72 0 -141.5 -35t-131.5 -90q-2 -8 -2 -15.5t-2 -15.5q0 -16 -3 -35.5t-7 -44.5l-121 -610h-127l113 569q6 29 10 58.5t4 54.5q0 78 -46 121t-132 43q-72 0 -139.5 -34t-124.5 -83l-144 -729h-127l183 938 l133 27l-25 -125q66 55 138.5 90t150.5 35q92 0 158.5 -43t93.5 -119q72 68 156.5 115t177.5 47q119 0 191.5 -70t72.5 -182q0 -23 -4 -57.5t-10 -65.5l-117 -590h-127z" />
<glyph unicode="n" horiz-adv-x="1034" d="M676 0l110 569q6 29 11.5 58.5t5.5 54.5q0 78 -47 121t-138 43q-72 0 -150.5 -39t-143.5 -98l-140 -709h-127l183 938l133 27l-27 -142q72 61 153 101.5t167 40.5q123 0 195.5 -70t72.5 -182q0 -23 -5 -60t-11 -67l-115 -586h-127z" />
<glyph unicode="o" horiz-adv-x="1085" d="M1008 530q0 -109 -38 -209t-105.5 -176.5t-164 -123t-213.5 -46.5q-92 0 -167.5 33t-129 90.5t-82 136t-28.5 171.5q0 109 37 209t105.5 177.5t163.5 124t212 46.5q92 0 168 -33t130 -91.5t83 -137.5t29 -171zM879 522q0 70 -19.5 130.5t-56.5 105.5t-92.5 69.5 t-124.5 24.5q-90 0 -160 -39t-119 -102.5t-74.5 -141t-25.5 -157.5q0 -141 76.5 -232.5t218.5 -91.5q88 0 157.5 38t118.5 99.5t75 139t26 157.5z" />
<glyph unicode="p" horiz-adv-x="1058" d="M352 858q53 39 113.5 69.5t150.5 30.5q78 0 145.5 -30.5t117 -85t77 -129t27.5 -162.5q0 -121 -40 -226.5t-110.5 -183.5t-166 -123t-205.5 -45q-74 0 -143.5 26t-122.5 67l-103 -543h-127l275 1415l133 27zM221 190q43 -47 110.5 -76.5t141.5 -29.5q82 0 151.5 38 t121 100.5t79 143t27.5 166.5q0 72 -20.5 130.5t-56.5 99.5t-84 63.5t-105 22.5q-76 0 -140.5 -31t-115.5 -74z" />
<glyph unicode="q" horiz-adv-x="1056" d="M600 -477l107 553q-53 -41 -114 -72t-151 -31q-78 0 -145.5 31t-116.5 85t-76.5 129t-27.5 165q0 121 40 225.5t110.5 182t166.5 122.5t207 45q72 0 141.5 -24.5t122.5 -65.5l142 90l-277 -1435h-129zM838 741q-43 47 -111 78t-141 31q-84 0 -152.5 -38t-120 -100.5 t-79 -143.5t-27.5 -167q0 -72 20.5 -131t56 -100t85 -63.5t106.5 -22.5q76 0 139.5 30.5t114.5 73.5z" />
<glyph unicode="r" horiz-adv-x="729" d="M184 0h-127l183 938l133 27l-35 -179q51 82 122.5 130.5t149.5 48.5q49 0 94.5 -12.5t77.5 -32.5l-34 -123q-35 20 -76 33.5t-88 13.5q-86 0 -154 -59.5t-125 -163.5z" />
<glyph unicode="s" horiz-adv-x="778" d="M670 264q0 -66 -27 -119t-73 -91t-108.5 -59.5t-135.5 -21.5q-96 0 -182.5 30t-151.5 73l43 117q72 -47 147.5 -77t153.5 -30q43 0 81 10t66.5 32t46 51.5t17.5 70.5q0 59 -50.5 97t-154.5 85q-49 23 -90 46.5t-70.5 52t-47 67.5t-17.5 92q0 63 26.5 114.5t70.5 86.5 t101.5 54.5t120.5 19.5q90 0 170 -26t152 -69l-41 -116q-74 47 -143.5 72.5t-145.5 25.5q-80 0 -134 -39t-54 -106q0 -33 12 -56.5t36.5 -43t62.5 -39t89 -44.5t93 -49t73 -54t47.5 -68t16.5 -89z" />
<glyph unicode="t" horiz-adv-x="684" d="M543 6q-41 -16 -94.5 -26.5t-100.5 -10.5q-104 0 -174 51.5t-70 155.5q0 29 5.5 58.5t13.5 64.5l115 518l-138 10l6 80l158 33l49 213h121l-49 -219h309l-6 -115h-330l-116 -530q-6 -29 -11.5 -50.5t-5.5 -43.5q0 -59 39 -86t98 -27q47 0 85 10t75 25z" />
<glyph unicode="u" horiz-adv-x="1034" d="M358 938l-110 -569q-6 -29 -11.5 -58.5t-5.5 -54.5q0 -78 47.5 -121t137.5 -43q74 0 151.5 38t143.5 97l139 711h127l-182 -938l-133 -27l26 142q-72 -61 -152.5 -101.5t-166.5 -40.5q-123 0 -196 70t-73 182q0 23 5.5 60t11.5 67l114 586h127z" />
<glyph unicode="v" horiz-adv-x="866" d="M397 -2h-116l-185 940h131l142 -774l442 774h141z" />
<glyph unicode="w" horiz-adv-x="1329" d="M215 -4l-98 942h131l67 -748l394 750h116l101 -754l344 752h143l-463 -942h-114l-101 756l-407 -756h-113z" />
<glyph unicode="x" horiz-adv-x="806" d="M565 0l-174 401l-328 -401h-149l414 483l-207 455h135l160 -373l295 373h145l-381 -459l227 -479h-137z" />
<glyph unicode="y" horiz-adv-x="866" d="M-150 -328q25 -18 49.5 -30.5t59.5 -12.5q18 0 38.5 7.5t44.5 27t50.5 55t61.5 93.5l122 206l-178 920h131l140 -776l442 776h141l-569 -961l-125 -215q-45 -76 -84 -125t-75 -78.5t-71.5 -41t-74.5 -11.5q-53 0 -95 18.5t-71 41.5l63 106v0z" />
<glyph unicode="z" horiz-adv-x="796" d="M-53 0l18 88l680 735h-520l22 115h695l-19 -88l-682 -735h539l-23 -115h-710z" />
<glyph unicode="{" horiz-adv-x="679" d="M647 -469q-213 10 -328.5 68.5t-115.5 191.5q0 63 16.5 119.5t34.5 109t34.5 101.5t16.5 98q0 94 -59.5 134t-200.5 53l-6 67l6 70q141 10 200.5 50t59.5 136q0 49 -16.5 98.5t-34.5 101.5t-34.5 107.5t-16.5 118.5q0 133 115.5 192.5t328.5 69.5v-94 q-180 -14 -252.5 -51t-72.5 -107q0 -49 16 -100t35.5 -103.5t36 -105.5t16.5 -106q0 -106 -67.5 -183.5t-215.5 -87.5v-12q147 -10 215 -87t68 -185q0 -53 -16.5 -105.5t-36 -105t-35.5 -102.5t-16 -95q0 -74 72.5 -111.5t252.5 -52.5v-92v0z" />
<glyph unicode="|" horiz-adv-x="505" d="M197 1438h112v-1846h-112v1846z" />
<glyph unicode="}" horiz-adv-x="679" d="M635 403q-141 -10 -201.5 -50t-60.5 -136q0 -49 16.5 -98t35.5 -101.5t35.5 -107.5t16.5 -119q0 -133 -115.5 -192.5t-328.5 -67.5v92q178 12 251.5 50t73.5 110q0 47 -16 98t-35.5 103.5t-36 104.5t-16.5 106q0 106 67.5 184t215.5 88v12q-147 8 -215 85t-68 186 q0 53 16.5 106t36 105.5t35.5 103.5t16 98q0 70 -73.5 108t-251.5 52v94q213 -12 328.5 -70.5t115.5 -191.5q0 -63 -16.5 -119.5t-35.5 -109t-35.5 -101.5t-16.5 -98q0 -96 60.5 -136t201.5 -50l6 -68z" />
<glyph unicode="~" horiz-adv-x="813" d="M770 596q-33 -104 -82 -169t-131 -65q-51 0 -93 23t-78 49.5t-66.5 49t-61.5 22.5q-37 0 -61.5 -36t-46.5 -93h-93q31 104 80 168.5t133 64.5q51 0 93.5 -22.5t78 -49t66.5 -49t61 -22.5q35 0 59.5 35t47.5 94h94v0z" />
<glyph unicode="&#xa1;" horiz-adv-x="530" d="M303 1198q0 41 27.5 74t75.5 33q47 0 74.5 -33t27.5 -74t-27.5 -70.5t-74.5 -29.5t-75 29.5t-28 70.5zM240 -51l-154 16l225 936l72 -6z" />
<glyph unicode="&#xa2;" horiz-adv-x="890" d="M745 940q51 -12 95.5 -34.5t79.5 -51.5l-54 -111q-33 29 -71.5 50.5t-85.5 33.5q-16 -53 -37 -114q-16 -53 -39 -119t-45 -133q-53 -162 -123 -367q12 -2 26.5 -3t28.5 -1q59 0 118.5 14.5t113.5 40.5l4 -118q-55 -25 -119 -39.5t-127 -14.5q-45 0 -84 7l-78 -232h-90 l84 254q-119 45 -190.5 150.5t-71.5 259.5q0 104 38 203.5t105.5 176t161.5 124t209 47.5q16 0 33.5 -1t34.5 -4l65 193h90q-18 -59 -35 -107q-8 -20 -14 -38.5t-10 -32.5q-7 -19 -13 -33zM625 846q-10 2 -21.5 2h-21.5q-86 0 -155 -38t-116 -99.5t-72.5 -137t-25.5 -151.5 q0 -115 45 -192.5t123 -112.5q16 55 37 114q16 51 38.5 116t45.5 134z" />
<glyph unicode="&#xa3;" horiz-adv-x="1013" d="M293 662q10 70 19.5 134t21.5 124q35 186 141.5 288.5t278.5 102.5q92 0 169.5 -28t143.5 -77l-53 -106q-55 41 -124 69.5t-147 28.5q-63 0 -110 -21.5t-81 -58.5t-55.5 -87t-33.5 -107q-10 -57 -20.5 -124t-18.5 -138h393l-8 -95h-397q-8 -63 -17.5 -123.5t-21.5 -119.5 q-6 -25 -11.5 -47.5t-13.5 -43.5q59 -63 139 -106t152 -43q86 0 139 54.5t92 152.5l91 -29q-37 -135 -120 -214t-204 -79q-96 -2 -181 49.5t-153 122.5q-47 -76 -127 -115.5t-207 -62.5q-2 33 -4 55q-2 20 -4 37t-2 15q68 12 116 30.5t81.5 47t54 71.5t33.5 105 q12 57 21 117.5t18 125.5h-185l-4 95h199v0z" />
<glyph unicode="&#xa4;" horiz-adv-x="886" d="M694 909q23 -35 36 -82t13 -92q0 -98 -51 -174l129 -129l-73 -74l-127 127q-35 -25 -80 -39t-97 -14q-53 0 -96 13.5t-80 37.5l-116 -116l-72 71l117 117q-25 39 -39.5 86t-14.5 94q0 49 11.5 93t40.5 83l-121 121l73 74l121 -121q35 25 80 39t96 14q106 0 181 -55 l114 115l72 -72zM651 735q0 86 -54 149.5t-153 63.5q-98 0 -153 -63.5t-55 -149.5q0 -43 14 -81t40.5 -67.5t65.5 -47t88 -17.5t87 17.5t65 47t41 67.5t14 81z" />
<glyph unicode="&#xa5;" horiz-adv-x="1116" d="M135 541l8 94h322l-281 645h140l251 -612l476 612h153l-262 -324q-49 -61 -96 -118.5t-84 -102.5q-43 -53 -82 -100h311l-16 -94h-361l-34 -181h352l-6 -92h-365l-51 -268h-127l51 268h-358l18 92h361l34 181h-354z" />
<glyph unicode="&#xa6;" horiz-adv-x="548" d="M217 1315h113v-686h-113v686zM217 401h113v-686h-113v686z" />
<glyph unicode="&#xa7;" horiz-adv-x="962" d="M956 584q0 -59 -26.5 -105.5t-68.5 -79t-94 -54t-103 -32.5q37 -31 60.5 -72.5t23.5 -97.5q0 -68 -29 -120t-76 -87.5t-108.5 -54t-124.5 -18.5q-47 0 -95.5 9t-94.5 25.5t-88 38t-73 48.5l60 108q57 -51 136 -84t157 -33q33 0 70.5 8.5t68.5 27t51.5 47t20.5 69.5 q0 39 -20.5 68.5t-55.5 54t-82 46t-100 44.5t-105.5 48.5t-93.5 56t-65.5 70.5t-24.5 91q0 57 27.5 103.5t71.5 80t97.5 55t104.5 32.5q-41 31 -67.5 73.5t-26.5 102.5q0 63 25.5 112t68.5 83t100.5 51.5t120.5 17.5q92 0 177 -26.5t155 -71.5l-58 -111q-59 41 -133.5 68.5 t-146.5 27.5q-31 0 -63.5 -7t-59.5 -22.5t-44 -42t-17 -65.5q0 -37 19 -65.5t54 -52t82 -45t101 -44.5q53 -25 105 -50.5t94 -58t67.5 -73.5t25.5 -94zM834 561q0 41 -29 74t-70 58.5t-86 44t-76 30.5q-35 16 -68.5 28.5t-68.5 30.5q-37 -10 -80 -26.5t-77.5 -39t-58 -54 t-23.5 -72.5t30.5 -74t72.5 -57.5t87 -44t76 -31.5q35 -16 69.5 -29.5t69.5 -33.5q39 12 80 28.5t75 40t55.5 55t21.5 72.5z" />
<glyph unicode="&#xa8;" horiz-adv-x="772" d="M850 1214q0 -41 -26.5 -71.5t-69.5 -30.5q-45 0 -73 31t-28 71q0 41 28 71t73 30q43 0 69.5 -30t26.5 -71zM455 1214q0 -41 -27 -71.5t-72 -30.5q-43 0 -69.5 31t-26.5 71q0 41 26.5 71t69.5 30q45 0 72 -30t27 -71z" />
<glyph unicode="&#xa9;" horiz-adv-x="1492" d="M791 -33q-139 0 -261 53.5t-213.5 143.5t-143.5 212t-52 261t52 261t143.5 213t213 144.5t261.5 53.5q139 0 261 -53.5t213 -144.5t143 -213t52 -261t-52 -261t-143 -212t-213 -143.5t-261 -53.5zM1401 637q0 125 -48 237.5t-131 196.5t-193.5 133t-237.5 49t-238 -49 t-194 -133t-131 -196.5t-48 -237.5q0 -127 48 -237.5t131 -194.5t194 -132t238 -48t237.5 48t193.5 132t131 194.5t48 237.5zM1014 864q-88 57 -195 58q-117 0 -187.5 -74t-70.5 -209q0 -131 70.5 -209t189.5 -78q57 0 109.5 18.5t91.5 47.5l20 -101q-43 -29 -102 -44 t-123 -15q-80 0 -147.5 26.5t-114.5 76t-73.5 119t-26.5 155.5t26.5 156.5t74.5 121t115.5 77t147.5 26.5q63 0 125 -15.5t105 -44.5z" />
<glyph unicode="&#xaa;" horiz-adv-x="694" d="M563 512q-35 41 -41 115h-4q-20 -20 -46 -40t-56.5 -36t-63.5 -26.5t-65 -10.5q-90 0 -144.5 58.5t-54.5 134.5q0 63 29.5 114t90 88t154 56.5t220.5 17.5l10 45q18 90 -18.5 137t-129.5 47q-59 0 -115.5 -21.5t-109.5 -49.5l-22 90q55 31 121.5 53.5t138.5 22.5 q57 0 107 -14.5t85 -47.5t48.5 -87t-3.5 -134l-59 -295q-14 -66 0 -114t37 -80zM567 905q-111 -2 -182.5 -18.5t-114.5 -42t-60 -58t-17 -67.5q0 -51 37.5 -81t91.5 -30q57 0 112 28t92 60z" />
<glyph unicode="&#xab;" horiz-adv-x="1177" d="M1010 53l-432 359l26 135l570 356l-7 -110l-467 -324v-2l347 -328zM465 63l-422 351l27 131l557 348l-6 -107l-457 -317v-2l338 -322z" />
<glyph unicode="&#xac;" horiz-adv-x="995" d="M911 199h-112v311h-715l6 113h821v-424z" />
<glyph unicode="&#xad;" horiz-adv-x="598" d="M74 438v119h463v-119h-463z" />
<glyph unicode="&#xae;" horiz-adv-x="1492" d="M791 -33q-139 0 -261 53.5t-213.5 143.5t-143.5 212t-52 261t52 261t143.5 213t213 144.5t261.5 53.5q139 0 261 -53.5t213 -144.5t143 -213t52 -261t-52 -261t-143 -212t-213 -143.5t-261 -53.5zM1401 637q0 125 -48 237.5t-131 196.5t-193.5 133t-237.5 49t-238 -49 t-194 -133t-131 -196.5t-48 -237.5q0 -127 48 -237.5t131 -194.5t194 -132t238 -48t237.5 48t193.5 132t131 194.5t48 237.5zM651 283h-102v725h233q137 0 207 -59.5t70 -164.5q0 -80 -39 -132t-105 -77l183 -292h-119l-166 268l-162 -8v-260zM778 635q90 2 134 40t44 103 q0 137 -184 137h-123v-284z" />
<glyph unicode="&#xaf;" horiz-adv-x="813" d="M272 1098l25 92h508l-8 -92h-525z" />
<glyph unicode="&#xb0;" horiz-adv-x="729" d="M774 1038q0 -68 -25.5 -127t-70.5 -104t-106.5 -70.5t-131.5 -25.5q-123 0 -198.5 72.5t-75.5 195.5q0 66 25.5 126t70.5 105t105.5 72t128.5 27q61 0 112 -19.5t88 -54.5t57.5 -85.5t20.5 -111.5zM688 1032q0 92 -56.5 142.5t-144.5 50.5q-49 0 -92 -19.5t-74.5 -51.5 t-50 -76t-18.5 -93q0 -90 56.5 -141t144.5 -51q49 0 92 19t74.5 52t50 76t18.5 92z" />
<glyph unicode="&#xb1;" horiz-adv-x="995" d="M555 465v-295h-113v295h-358l6 113h352v325h113v-325h352l6 -113h-358zM84 18l6 111h817l6 -111h-829z" />
<glyph unicode="&#xb2;" horiz-adv-x="675" d="M16 559q-2 0 0 15.5t4 33.5q2 23 7 49q113 86 204 150.5t154.5 118t97 103.5t33.5 106q0 61 -46 93t-110 32q-53 0 -105 -19.5t-93 -48.5l-25 82q51 35 114.5 55.5t125.5 20.5q49 0 95 -13.5t81 -39t56.5 -63.5t21.5 -87q0 -68 -34 -124t-97.5 -111.5t-153.5 -118 t-201 -144.5h424l-10 -90h-543z" />
<glyph unicode="&#xb3;" horiz-adv-x="675" d="M381 965q43 -4 81 -16.5t67.5 -35t47 -54.5t17.5 -75q0 -55 -25.5 -99t-67.5 -74.5t-98.5 -48t-117.5 -17.5t-133 17.5t-121 47.5l32 88q47 -29 106.5 -48t117.5 -19q37 0 72.5 9t63.5 27.5t44 47t16 65.5t-17 61.5t-47 40t-67 22.5t-76 7q-23 0 -44 -1t-42 -3l13 78 q39 6 93 16.5t103.5 29t84 48t34.5 74.5q0 59 -46 84t-103 25q-53 0 -106.5 -17.5t-94.5 -40.5l-25 82q49 29 110.5 46.5t127.5 17.5q43 0 88 -9.5t80 -31t57.5 -55t22.5 -80.5t-22.5 -82t-57.5 -60.5t-79 -42t-89 -24.5z" />
<glyph unicode="&#xb4;" horiz-adv-x="811" d="M477 1061h-100l315 366h168z" />
<glyph unicode="&#xb5;" horiz-adv-x="1040" d="M274 340q0 -66 20.5 -112t56.5 -75.5t81 -44t94 -14.5q39 0 82 12.5t78 40t57.5 74.5t22.5 117v600h127v-938h-127v111q-49 -76 -111.5 -106t-130.5 -30t-131 27t-119 107v-586h-127v1415h127v-598z" />
<glyph unicode="&#xb6;" horiz-adv-x="1026" d="M737 528q-18 -4 -55 -5t-66 -1q-88 0 -168.5 21.5t-143 63.5t-99.5 105.5t-37 147.5q0 98 38 176t105.5 131.5t157.5 82t195 28.5h335l-280 -1411h-113l131 661v0z" />
<glyph unicode="&#xb7;" horiz-adv-x="382" d="M299 469q0 -41 -27.5 -74t-72.5 -33q-47 0 -76 33t-29 74t29 71.5t76 30.5q45 0 72.5 -30.5t27.5 -71.5z" />
<glyph unicode="&#xb8;" horiz-adv-x="813" d="M287 -135q100 -6 160.5 -50t60.5 -118q0 -90 -93 -153.5t-280 -65.5l4 88q129 -4 195.5 29.5t66.5 93.5q0 57 -65.5 80.5t-185.5 13.5v61l270 217h108l-241 -196v0z" />
<glyph unicode="&#xb9;" horiz-adv-x="675" d="M268 559l140 664l-193 -41l14 90l310 69l-166 -782h-105z" />
<glyph unicode="&#xba;" horiz-adv-x="868" d="M899 961q0 -88 -30.5 -169t-86 -142.5t-132.5 -98.5t-169 -37q-74 0 -135 25.5t-105 71.5t-67.5 109.5t-23.5 137.5q0 86 29.5 167t84.5 143.5t132 99.5t169 37q74 0 135.5 -27t105.5 -73t68.5 -108t24.5 -136zM797 956q0 113 -64.5 187t-177.5 74q-72 0 -128 -32 t-96 -82t-60.5 -112.5t-20.5 -126.5q0 -115 64.5 -187.5t179.5 -72.5q70 0 126 31t96 81t60.5 113.5t20.5 126.5z" />
<glyph unicode="&#xbb;" horiz-adv-x="1183" d="M561 66l4 106l457 315v2l-336 324l37 80l422 -350l-27 -129zM12 53l6 113l467 321v2l-344 330l37 86l434 -360l-26 -135z" />
<glyph unicode="&#xbc;" horiz-adv-x="1464" d="M1260 -98l-41 -197h-101l41 197h-385v71l488 512h120l-104 -499h123l-15 -84h-126zM1262 377l-373 -391h289zM102 -238h-112l1394 1518h111zM309 559l140 664l-193 -41l14 90l310 69l-166 -782h-105z" />
<glyph unicode="&#xbd;" horiz-adv-x="1464" d="M102 -238h-112l1394 1518h111zM309 559l140 664l-193 -41l14 90l310 69l-166 -782h-105zM764 -293q-2 0 0 15.5t4 33.5q2 23 6 49q113 86 204 150.5t154.5 118t97.5 103.5t34 106q0 61 -46.5 93t-109.5 32q-53 0 -105.5 -19.5t-93.5 -48.5l-24 82q51 35 114.5 55.5 t124.5 20.5q49 0 95.5 -13.5t81 -39t56 -63.5t21.5 -87q0 -68 -33.5 -124t-97 -111.5t-153.5 -118t-201 -144.5h424l-10 -90h-543z" />
<glyph unicode="&#xbe;" horiz-adv-x="1464" d="M1260 -98l-41 -197h-101l41 197h-385v71l488 512h120l-104 -499h123l-15 -84h-126zM1262 377l-373 -391h289zM102 -238h-112l1394 1518h111zM422 965q43 -4 81 -16.5t67.5 -35t47 -54.5t17.5 -75q0 -55 -25.5 -99t-67.5 -74.5t-98.5 -48t-117.5 -17.5t-133 17.5 t-121 47.5l32 88q47 -29 106.5 -48t117.5 -19q37 0 72.5 9t63.5 27.5t44 47t16 65.5t-17.5 61.5t-47 40t-66.5 22.5t-76 7q-23 0 -44 -1t-42 -3l13 78q39 6 93 16.5t103 29t84 48t35 74.5q0 59 -46 84t-103 25q-53 0 -106.5 -17.5t-94.5 -40.5l-25 82q49 29 110.5 46.5 t127.5 17.5q43 0 88 -9.5t80 -31t57.5 -55t22.5 -80.5t-22.5 -82t-57.5 -60.5t-79 -42t-89 -24.5z" />
<glyph unicode="&#xbf;" horiz-adv-x="714" d="M49 285q0 72 23.5 122t61.5 83.5t87 56t98 39.5q98 29 146.5 57.5t48.5 87.5q0 41 -28.5 82t-65.5 76l74 16q47 -35 83.5 -85t36.5 -109q0 -47 -18 -82t-51 -60.5t-77 -45t-95 -36.5q-96 -31 -155.5 -70.5t-59.5 -121.5q0 -53 26.5 -92t67.5 -63.5t90 -37t96 -12.5 q61 0 105 6l-23 -119q-20 -4 -44.5 -6t-51.5 -2q-80 0 -147.5 23.5t-119 66.5t-80 100.5t-28.5 125.5zM455 1198q0 41 27.5 74t74.5 33t74.5 -33t27.5 -74t-27.5 -70.5t-74.5 -29.5t-74.5 29.5t-27.5 70.5z" />
<glyph unicode="&#xc0;" horiz-adv-x="1185" d="M1065 0h-131l-62 356h-593l-205 -356h-144l754 1278h152zM737 1145l-389 -670h504zM743 1403l-239 366h164l170 -366h-95z" />
<glyph unicode="&#xc1;" horiz-adv-x="1185" d="M1065 0h-131l-62 356h-593l-205 -356h-144l754 1278h152zM737 1145l-389 -670h504zM815 1403h-100l315 366h168z" />
<glyph unicode="&#xc2;" horiz-adv-x="1185" d="M1065 0h-131l-62 356h-593l-205 -356h-144l754 1278h152zM737 1145l-389 -670h504zM961 1403l-138 276h-4l-241 -276h-119l305 373h143l160 -373h-106z" />
<glyph unicode="&#xc3;" horiz-adv-x="1185" d="M1065 0h-131l-62 356h-593l-205 -356h-144l754 1278h152zM737 1145l-389 -670h504zM1145 1645q-33 -104 -82 -169t-131 -65q-51 0 -93 22.5t-78 49t-66.5 49t-61.5 22.5q-37 0 -61.5 -35.5t-47.5 -93.5h-92q31 104 80 169t133 65q51 0 93 -22.5t78 -49t66.5 -49 t61.5 -22.5q35 0 59.5 34.5t47.5 94.5h94z" />
<glyph unicode="&#xc4;" horiz-adv-x="1185" d="M1065 0h-131l-62 356h-593l-205 -356h-144l754 1278h152zM737 1145l-389 -670h504zM1092 1556q0 -41 -27 -71.5t-70 -30.5q-45 0 -72.5 31t-27.5 71q0 41 27.5 71t72.5 30q43 0 70 -30t27 -71zM696 1556q0 -41 -26.5 -71.5t-71.5 -30.5q-43 0 -69.5 31t-26.5 71 q0 41 26.5 71t69.5 30q45 0 71.5 -30t26.5 -71z" />
<glyph unicode="&#xc5;" horiz-adv-x="1185" d="M739 1147l-387 -672h502zM932 1411q0 59 -42 97t-106 38q-68 0 -112.5 -41t-44.5 -102q0 -57 42 -94t103 -37q70 0 115 40t45 99zM653 1223q-53 23 -85.5 69.5t-32.5 106.5q0 49 19 89t53 69.5t79 46t98 16.5q100 0 169 -57.5t69 -149.5q0 -76 -47 -130t-125 -73 l217 -1210h-131l-62 356h-591l-205 -356h-144z" />
<glyph unicode="&#xc6;" horiz-adv-x="1677" d="M811 477l133 688l-526 -688h393zM53 0h-145l983 1280h848l-23 -121h-643l-88 -457h535l-23 -120h-536l-91 -461h643l-22 -121h-774l69 356h-460z" />
<glyph unicode="&#xc7;" horiz-adv-x="1196" d="M600 -20q-111 12 -202 57t-155.5 117.5t-99 170t-34.5 216.5q0 156 51 294t145 242.5t228.5 166t300.5 61.5q98 0 197 -20.5t198 -59.5l-25 -125q-88 41 -187 64.5t-192 23.5q-137 0 -245.5 -52.5t-183 -139.5t-114.5 -202.5t-40 -240.5q0 -111 32.5 -196t93 -144 t145.5 -90t189 -31q82 0 166 21.5t156 58.5l27 -117q-74 -37 -169.5 -58.5t-179.5 -23.5l-133 -108q100 -6 161 -50t61 -118q0 -90 -93.5 -153.5t-279.5 -65.5l4 88q129 -4 195.5 29.5t66.5 93.5q0 57 -65.5 80.5t-186.5 13.5v61l168 136v0z" />
<glyph unicode="&#xc8;" horiz-adv-x="1038" d="M74 0l250 1280h772l-23 -121h-643l-88 -459h537l-25 -118h-535l-90 -461h641l-22 -121h-774zM657 1403l-239 366h164l170 -366h-95z" />
<glyph unicode="&#xc9;" horiz-adv-x="1038" d="M74 0l250 1280h772l-23 -121h-643l-88 -459h537l-25 -118h-535l-90 -461h641l-22 -121h-774zM725 1403h-100l315 366h168z" />
<glyph unicode="&#xca;" horiz-adv-x="1038" d="M74 0l250 1280h772l-23 -121h-643l-88 -459h537l-25 -118h-535l-90 -461h641l-22 -121h-774zM918 1403l-138 276h-4l-241 -276h-119l305 373h143l160 -373h-106z" />
<glyph unicode="&#xcb;" horiz-adv-x="1038" d="M74 0l250 1280h772l-23 -121h-643l-88 -459h537l-25 -118h-535l-90 -461h641l-22 -121h-774zM1024 1556q0 -41 -26.5 -71.5t-69.5 -30.5q-45 0 -73 31t-28 71q0 41 28 71t73 30q43 0 69.5 -30t26.5 -71zM629 1556q0 -41 -27 -71.5t-72 -30.5q-43 0 -69.5 31t-26.5 71 q0 41 26.5 71t69.5 30q45 0 72 -30t27 -71z" />
<glyph unicode="&#xcc;" horiz-adv-x="466" d="M76 0l248 1280h131l-250 -1280h-129zM365 1403l-240 366h164l170 -366h-94z" />
<glyph unicode="&#xcd;" horiz-adv-x="466" d="M76 0l248 1280h131l-250 -1280h-129zM449 1403h-101l316 366h167z" />
<glyph unicode="&#xce;" horiz-adv-x="466" d="M76 0l248 1280h131l-250 -1280h-129zM590 1403l-137 276h-4l-242 -276h-119l305 373h144l159 -373h-106z" />
<glyph unicode="&#xcf;" horiz-adv-x="466" d="M76 0l248 1280h131l-250 -1280h-129zM723 1556q0 -41 -26.5 -71.5t-69.5 -30.5q-45 0 -73 31t-28 71q0 41 28 71t73 30q43 0 69.5 -30t26.5 -71zM328 1556q0 -41 -27 -71.5t-72 -30.5q-43 0 -69.5 31t-26.5 71q0 41 26.5 71t69.5 30q45 0 72 -30t27 -71z" />
<glyph unicode="&#xd0;" horiz-adv-x="1304" d="M727 702v-114h-385l-90 -467h225q129 0 241.5 39t195.5 113.5t131.5 186t48.5 257.5q0 109 -35 190.5t-99.5 138t-155.5 85t-204 28.5h-147l-88 -457h362zM68 588v114h163q10 43 19 91q8 41 18.5 92t20.5 106q25 127 55 289h274q129 0 241 -35t195 -103.5t130 -171 t47 -235.5q0 -150 -48 -283t-144.5 -233t-242 -159.5t-341.5 -59.5h-359l115 588h-143z" />
<glyph unicode="&#xd1;" horiz-adv-x="1320" d="M1192 1280h127l-248 -1292h-153l-506 1134l-211 -1122h-127l245 1280h160l502 -1122zM1212 1645q-33 -104 -82 -169t-131 -65q-51 0 -93 22.5t-77.5 49t-66.5 49t-62 22.5q-37 0 -61.5 -35.5t-46.5 -93.5h-92q31 104 80 169t133 65q51 0 93 -22.5t78 -49t66.5 -49 t61.5 -22.5q35 0 59.5 34.5t46.5 94.5h94z" />
<glyph unicode="&#xd2;" horiz-adv-x="1439" d="M1403 719q0 -147 -53.5 -281.5t-148.5 -238t-224 -165t-283 -61.5q-127 0 -233.5 44t-184 122t-120.5 187.5t-43 238.5q0 147 53 281.5t147.5 237t225.5 163t284 60.5q125 0 231.5 -43t184.5 -121t121 -186.5t43 -237.5zM1270 709q0 104 -34 193t-94.5 152.5t-145.5 99.5 t-189 36q-127 0 -230.5 -52.5t-177 -138.5t-113.5 -197.5t-40 -228.5q0 -104 33.5 -193t94 -153.5t145.5 -100.5t190 -36q127 0 230 53.5t177 139.5t114 197.5t40 228.5zM797 1403l-240 366h164l170 -366h-94z" />
<glyph unicode="&#xd3;" horiz-adv-x="1439" d="M1403 719q0 -147 -53.5 -281.5t-148.5 -238t-224 -165t-283 -61.5q-127 0 -233.5 44t-184 122t-120.5 187.5t-43 238.5q0 147 53 281.5t147.5 237t225.5 163t284 60.5q125 0 231.5 -43t184.5 -121t121 -186.5t43 -237.5zM1270 709q0 104 -34 193t-94.5 152.5t-145.5 99.5 t-189 36q-127 0 -230.5 -52.5t-177 -138.5t-113.5 -197.5t-40 -228.5q0 -104 33.5 -193t94 -153.5t145.5 -100.5t190 -36q127 0 230 53.5t177 139.5t114 197.5t40 228.5zM901 1403h-100l315 366h168z" />
<glyph unicode="&#xd4;" horiz-adv-x="1439" d="M1403 719q0 -147 -53.5 -281.5t-148.5 -238t-224 -165t-283 -61.5q-127 0 -233.5 44t-184 122t-120.5 187.5t-43 238.5q0 147 53 281.5t147.5 237t225.5 163t284 60.5q125 0 231.5 -43t184.5 -121t121 -186.5t43 -237.5zM1270 709q0 104 -34 193t-94.5 152.5t-145.5 99.5 t-189 36q-127 0 -230.5 -52.5t-177 -138.5t-113.5 -197.5t-40 -228.5q0 -104 33.5 -193t94 -153.5t145.5 -100.5t190 -36q127 0 230 53.5t177 139.5t114 197.5t40 228.5zM1067 1403l-137 276h-4l-242 -276h-119l305 373h144l160 -373h-107z" />
<glyph unicode="&#xd5;" horiz-adv-x="1439" d="M1403 719q0 -147 -53.5 -281.5t-148.5 -238t-224 -165t-283 -61.5q-127 0 -233.5 44t-184 122t-120.5 187.5t-43 238.5q0 147 53 281.5t147.5 237t225.5 163t284 60.5q125 0 231.5 -43t184.5 -121t121 -186.5t43 -237.5zM1270 709q0 104 -34 193t-94.5 152.5t-145.5 99.5 t-189 36q-127 0 -230.5 -52.5t-177 -138.5t-113.5 -197.5t-40 -228.5q0 -104 33.5 -193t94 -153.5t145.5 -100.5t190 -36q127 0 230 53.5t177 139.5t114 197.5t40 228.5zM1251 1645q-33 -104 -82 -169t-131 -65q-51 0 -93 22.5t-78 49t-66.5 49t-61.5 22.5 q-37 0 -61.5 -35.5t-46.5 -93.5h-92q31 104 80 169t133 65q51 0 93 -22.5t77.5 -49t66.5 -49t62 -22.5q35 0 59.5 34.5t46.5 94.5h94z" />
<glyph unicode="&#xd6;" horiz-adv-x="1439" d="M1403 719q0 -147 -53.5 -281.5t-148.5 -238t-224 -165t-283 -61.5q-127 0 -233.5 44t-184 122t-120.5 187.5t-43 238.5q0 147 53 281.5t147.5 237t225.5 163t284 60.5q125 0 231.5 -43t184.5 -121t121 -186.5t43 -237.5zM1270 709q0 104 -34 193t-94.5 152.5t-145.5 99.5 t-189 36q-127 0 -230.5 -52.5t-177 -138.5t-113.5 -197.5t-40 -228.5q0 -104 33.5 -193t94 -153.5t145.5 -100.5t190 -36q127 0 230 53.5t177 139.5t114 197.5t40 228.5zM1219 1556q0 -41 -27 -71.5t-70 -30.5q-45 0 -72.5 31t-27.5 71q0 41 27.5 71t72.5 30q43 0 70 -30 t27 -71zM823 1556q0 -41 -26.5 -71.5t-71.5 -30.5q-43 0 -69.5 31t-26.5 71q0 41 26.5 71t69.5 30q45 0 71.5 -30t26.5 -71z" />
<glyph unicode="&#xd7;" horiz-adv-x="995" d="M846 57l-344 346l-346 -346l-76 76l346 346l-346 344l76 76l346 -346l346 348l76 -76l-349 -346l347 -346z" />
<glyph unicode="&#xd8;" horiz-adv-x="1439" d="M1405 721q0 -147 -53.5 -282.5t-147.5 -239t-223 -165t-283 -61.5q-96 0 -180 26t-153 71l-166 -207h-113l209 262q-84 78 -132 190.5t-48 247.5q0 147 53 281.5t147.5 238t224.5 164t283 60.5q197 0 338 -101l170 211h113l-213 -266q82 -78 128 -187.5t46 -242.5z M1083 1108q-117 82 -272 82q-127 0 -231.5 -52.5t-178 -138.5t-113.5 -197.5t-40 -228.5q0 -106 34.5 -194t94.5 -152zM444 170q115 -80 267 -80q127 0 230 53.5t177 139.5t114 197.5t40 228.5q0 104 -32 190t-91 152z" />
<glyph unicode="&#xd9;" horiz-adv-x="1232" d="M588 -27q-102 0 -187.5 26t-146.5 74t-95 118.5t-34 160.5q0 51 7 100.5t13 82.5l148 745h129l-146 -750q-6 -29 -13 -68.5t-7 -84.5q0 -135 88 -209t252 -74q154 0 246 98.5t125 260.5l161 827h129l-161 -842q-41 -215 -168 -340t-340 -125zM735 1403l-239 366h163 l170 -366h-94z" />
<glyph unicode="&#xda;" horiz-adv-x="1232" d="M588 -27q-102 0 -187.5 26t-146.5 74t-95 118.5t-34 160.5q0 51 7 100.5t13 82.5l148 745h129l-146 -750q-6 -29 -13 -68.5t-7 -84.5q0 -135 88 -209t252 -74q154 0 246 98.5t125 260.5l161 827h129l-161 -842q-41 -215 -168 -340t-340 -125zM809 1403h-100l315 366h168z " />
<glyph unicode="&#xdb;" horiz-adv-x="1232" d="M588 -27q-102 0 -187.5 26t-146.5 74t-95 118.5t-34 160.5q0 51 7 100.5t13 82.5l148 745h129l-146 -750q-6 -29 -13 -68.5t-7 -84.5q0 -135 88 -209t252 -74q154 0 246 98.5t125 260.5l161 827h129l-161 -842q-41 -215 -168 -340t-340 -125zM985 1403l-137 276h-4 l-242 -276h-119l305 373h144l160 -373h-107z" />
<glyph unicode="&#xdc;" horiz-adv-x="1232" d="M588 -27q-102 0 -187.5 26t-146.5 74t-95 118.5t-34 160.5q0 51 7 100.5t13 82.5l148 745h129l-146 -750q-6 -29 -13 -68.5t-7 -84.5q0 -135 88 -209t252 -74q154 0 246 98.5t125 260.5l161 827h129l-161 -842q-41 -215 -168 -340t-340 -125zM1104 1556 q0 -41 -26.5 -71.5t-69.5 -30.5q-45 0 -73 31t-28 71q0 41 28 71t73 30q43 0 69.5 -30t26.5 -71zM709 1556q0 -41 -27 -71.5t-72 -30.5q-43 0 -69.5 31t-26.5 71q0 41 26.5 71t69.5 30q45 0 72 -30t27 -71z" />
<glyph unicode="&#xdd;" horiz-adv-x="1073" d="M610 510l-100 -510h-127l100 518l-299 762h140l245 -643l482 643h153zM715 1403h-101l316 366h168z" />
<glyph unicode="&#xde;" horiz-adv-x="1062" d="M1030 698q0 -104 -37 -190t-109.5 -148.5t-180 -96.5t-246.5 -34h-207l-47 -229h-129l248 1280h131l-43 -219h178q111 0 193.5 -31t138 -81t83 -115.5t27.5 -135.5zM893 678q0 113 -82 187.5t-242 74.5h-182l-115 -590h203q104 0 183 24.5t131.5 68.5t78 103.5 t25.5 131.5z" />
<glyph unicode="&#xdf;" horiz-adv-x="1105" d="M242 817l-144 10l6 80l160 33q6 45 15 80q6 29 11 53.5t7 26.5q18 88 53 150.5t83 100.5t107.5 55t125.5 17q70 0 127 -21.5t99 -58t65.5 -89t23.5 -113.5t-19.5 -105.5t-49 -77t-64.5 -58.5t-64.5 -50.5t-49 -52t-19.5 -62.5q0 -39 23.5 -71.5t57 -63.5t74.5 -62.5 t75 -69.5t57.5 -85t23.5 -109q0 -63 -23.5 -117.5t-67.5 -95.5t-105.5 -64.5t-137.5 -23.5q-94 0 -176 29t-149 72l43 119q82 -53 147.5 -81t144.5 -28q88 0 139.5 52t51.5 130q0 47 -22.5 85t-55.5 70t-73 62.5t-72.5 65.5t-55 78t-22.5 98q0 76 40 120t88 81t88 81t40 119 q0 82 -48 134.5t-138 52.5q-195 0 -238 -211l-215 -1102h-125z" />
<glyph unicode="&#xe0;" horiz-adv-x="905" d="M508 1061l-240 366h164l170 -366h-94zM647 467q-256 -4 -370.5 -62.5t-114.5 -152.5q0 -70 47 -118t131 -48q78 0 142.5 34t111.5 79zM674 602q23 117 -32.5 181.5t-184.5 64.5q-72 0 -148 -24.5t-135 -59.5l-16 115q59 35 143 59.5t172 24.5t156.5 -22.5t112.5 -70 t59.5 -118t-4.5 -166.5l-80 -389q-10 -55 1 -85t75 -28l-23 -104q-49 -4 -83 7t-54.5 29.5t-29.5 43t-11 51.5h-2q-55 -59 -132 -97.5t-157 -38.5q-61 0 -111.5 22.5t-86 59.5t-55 84t-19.5 97q0 76 35.5 136t112.5 102t198 62.5t289 18.5z" />
<glyph unicode="&#xe1;" horiz-adv-x="905" d="M647 467q-256 -4 -370.5 -62.5t-114.5 -152.5q0 -70 47 -118t131 -48q78 0 142.5 34t111.5 79zM674 602q23 117 -32.5 181.5t-184.5 64.5q-72 0 -148 -24.5t-135 -59.5l-16 115q59 35 143 59.5t172 24.5t156.5 -22.5t112.5 -70t59.5 -118t-4.5 -166.5l-80 -389 q-10 -55 1 -85t75 -28l-23 -104q-49 -4 -83 7t-54.5 29.5t-29.5 43t-11 51.5h-2q-55 -59 -132 -97.5t-157 -38.5q-61 0 -111.5 22.5t-86 59.5t-55 84t-19.5 97q0 76 35.5 136t112.5 102t198 62.5t289 18.5zM535 1061h-101l316 366h168z" />
<glyph unicode="&#xe2;" horiz-adv-x="905" d="M647 467q-256 -4 -370.5 -62.5t-114.5 -152.5q0 -70 47 -118t131 -48q78 0 142.5 34t111.5 79zM674 602q23 117 -32.5 181.5t-184.5 64.5q-72 0 -148 -24.5t-135 -59.5l-16 115q59 35 143 59.5t172 24.5t156.5 -22.5t112.5 -70t59.5 -118t-4.5 -166.5l-80 -389 q-10 -55 1 -85t75 -28l-23 -104q-49 -4 -83 7t-54.5 29.5t-29.5 43t-11 51.5h-2q-55 -59 -132 -97.5t-157 -38.5q-61 0 -111.5 22.5t-86 59.5t-55 84t-19.5 97q0 76 35.5 136t112.5 102t198 62.5t289 18.5zM735 1061l-137 276h-4l-242 -276h-119l306 373h143l160 -373h-107z " />
<glyph unicode="&#xe3;" horiz-adv-x="905" d="M647 467q-256 -4 -370.5 -62.5t-114.5 -152.5q0 -70 47 -118t131 -48q78 0 142.5 34t111.5 79zM674 602q23 117 -32.5 181.5t-184.5 64.5q-72 0 -148 -24.5t-135 -59.5l-16 115q59 35 143 59.5t172 24.5t156.5 -22.5t112.5 -70t59.5 -118t-4.5 -166.5l-80 -389 q-10 -55 1 -85t75 -28l-23 -104q-49 -4 -83 7t-54.5 29.5t-29.5 43t-11 51.5h-2q-55 -59 -132 -97.5t-157 -38.5q-61 0 -111.5 22.5t-86 59.5t-55 84t-19.5 97q0 76 35.5 136t112.5 102t198 62.5t289 18.5zM920 1303q-33 -104 -82.5 -169t-130.5 -65q-51 0 -93.5 22.5 t-78 49t-66.5 49t-61 22.5q-37 0 -61.5 -35.5t-47.5 -93.5h-92q31 104 80 169t133 65q51 0 93 -22.5t78 -49t66.5 -49t61.5 -22.5q35 0 59.5 34.5t46.5 94.5h95z" />
<glyph unicode="&#xe4;" horiz-adv-x="905" d="M647 467q-256 -4 -370.5 -62.5t-114.5 -152.5q0 -70 47 -118t131 -48q78 0 142.5 34t111.5 79zM674 602q23 117 -32.5 181.5t-184.5 64.5q-72 0 -148 -24.5t-135 -59.5l-16 115q59 35 143 59.5t172 24.5t156.5 -22.5t112.5 -70t59.5 -118t-4.5 -166.5l-80 -389 q-10 -55 1 -85t75 -28l-23 -104q-49 -4 -83 7t-54.5 29.5t-29.5 43t-11 51.5h-2q-55 -59 -132 -97.5t-157 -38.5q-61 0 -111.5 22.5t-86 59.5t-55 84t-19.5 97q0 76 35.5 136t112.5 102t198 62.5t289 18.5zM868 1214q0 -41 -26.5 -71.5t-69.5 -30.5q-45 0 -72.5 31t-27.5 71 q0 41 27.5 71t72.5 30q43 0 69.5 -30t26.5 -71zM473 1214q0 -41 -26.5 -71.5t-71.5 -30.5q-43 0 -69.5 31t-26.5 71q0 41 26.5 71t69.5 30q45 0 71.5 -30t26.5 -71z" />
<glyph unicode="&#xe5;" horiz-adv-x="905" d="M647 467q-256 -4 -370.5 -62.5t-114.5 -152.5q0 -70 47 -118t131 -48q78 0 142.5 34t111.5 79zM674 602q23 117 -32.5 181.5t-184.5 64.5q-72 0 -148 -24.5t-135 -59.5l-16 115q59 35 143 59.5t172 24.5t156.5 -22.5t112.5 -70t59.5 -118t-4.5 -166.5l-80 -389 q-10 -55 1 -85t75 -28l-23 -104q-49 -4 -83 7t-54.5 29.5t-29.5 43t-11 51.5h-2q-55 -59 -132 -97.5t-157 -38.5q-61 0 -111.5 22.5t-86 59.5t-55 84t-19.5 97q0 76 35.5 136t112.5 102t198 62.5t289 18.5zM823 1272q0 -49 -19.5 -89t-53 -69t-79.5 -44t-98 -15 q-98 0 -167.5 54t-69.5 146q0 49 19.5 89t53 70t80 46.5t99.5 16.5q100 0 167.5 -56.5t67.5 -148.5zM733 1270q0 59 -42 96t-105 37q-68 0 -113 -40t-45 -101q0 -59 42 -96.5t105 -37.5q66 0 112 40.5t46 101.5z" />
<glyph unicode="&#xe6;" horiz-adv-x="1525" d="M1079 565q109 0 238 2q8 20 11 42t3 44q0 90 -56 143.5t-157 53.5q-57 0 -108.5 -21.5t-92 -60.5t-71.5 -90t-45 -113h278zM653 461q-135 0 -228 -16.5t-151.5 -44t-85 -66.5t-26.5 -88q0 -72 48 -115t132 -43q72 0 158 43t170 145q-23 79 -17 185zM782 791 q66 78 154 126t199 48q72 0 132 -21.5t103 -61.5t67.5 -95.5t24.5 -122.5q0 -47 -11 -97.5t-32 -95.5l-637 -4q-2 -12 -2 -23.5v-21.5q0 -158 84 -244t226 -86q59 0 118.5 15.5t106.5 37.5l16 -114q-49 -27 -118.5 -42.5t-133.5 -15.5q-131 0 -229 59.5t-150 168.5 q-92 -123 -192 -175.5t-201 -52.5q-63 0 -114.5 22.5t-88 58.5t-56 82t-19.5 95q0 76 36.5 137.5t113.5 103.5t197 63.5t288 15.5l10 51q23 117 -29.5 181.5t-181.5 64.5q-72 0 -148.5 -24.5t-136.5 -59.5l-16 115q59 35 145 60.5t174 25.5q117 0 194.5 -43t106.5 -131z" />
<glyph unicode="&#xe7;" horiz-adv-x="917" d="M408 -16q-145 29 -236.5 140.5t-91.5 287.5q0 104 37 204.5t103.5 177t159.5 124t208 47.5q98 0 177 -27t144 -74l-35 -116q-66 45 -139 72.5t-153 27.5q-84 0 -152 -38t-116 -98.5t-74.5 -136t-26.5 -153.5q0 -158 83 -244t224 -86q59 0 118.5 15.5t106.5 37.5l17 -114 q-49 -27 -119 -42.5t-133 -15.5h-4l-133 -108q100 -6 160.5 -50t60.5 -118q0 -90 -93 -153.5t-280 -65.5l4 88q129 -4 195.5 29.5t66.5 93.5q0 57 -65.5 80.5t-185.5 13.5v61l172 140v0z" />
<glyph unicode="&#xe8;" horiz-adv-x="956" d="M549 1061l-240 366h164l170 -366h-94zM215 467q0 -12 -1 -23.5t-1 -21.5q0 -158 84 -244t225 -86q61 0 119.5 15.5t106.5 37.5l18 -114q-49 -27 -120 -42.5t-134 -15.5q-92 0 -171 31t-136.5 88.5t-90 138t-32.5 181.5q0 104 35 204.5t99.5 177t153.5 124t199 47.5 q72 0 132.5 -21.5t103.5 -61.5t66.5 -95.5t23.5 -122.5q0 -47 -10.5 -97.5t-30.5 -95.5zM514 565q109 0 238 2q6 20 10 42t4 44q0 90 -57.5 143.5t-155.5 53.5q-59 0 -109.5 -21.5t-92.5 -60.5t-71.5 -90t-46.5 -113h281z" />
<glyph unicode="&#xe9;" horiz-adv-x="956" d="M215 467q0 -12 -1 -23.5t-1 -21.5q0 -158 84 -244t225 -86q61 0 119.5 15.5t106.5 37.5l18 -114q-49 -27 -120 -42.5t-134 -15.5q-92 0 -171 31t-136.5 88.5t-90 138t-32.5 181.5q0 104 35 204.5t99.5 177t153.5 124t199 47.5q72 0 132.5 -21.5t103.5 -61.5t66.5 -95.5 t23.5 -122.5q0 -47 -10.5 -97.5t-30.5 -95.5zM514 565q109 0 238 2q6 20 10 42t4 44q0 90 -57.5 143.5t-155.5 53.5q-59 0 -109.5 -21.5t-92.5 -60.5t-71.5 -90t-46.5 -113h281zM586 1061h-101l316 366h168z" />
<glyph unicode="&#xea;" horiz-adv-x="956" d="M215 467q0 -12 -1 -23.5t-1 -21.5q0 -158 84 -244t225 -86q61 0 119.5 15.5t106.5 37.5l18 -114q-49 -27 -120 -42.5t-134 -15.5q-92 0 -171 31t-136.5 88.5t-90 138t-32.5 181.5q0 104 35 204.5t99.5 177t153.5 124t199 47.5q72 0 132.5 -21.5t103.5 -61.5t66.5 -95.5 t23.5 -122.5q0 -47 -10.5 -97.5t-30.5 -95.5zM514 565q109 0 238 2q6 20 10 42t4 44q0 90 -57.5 143.5t-155.5 53.5q-59 0 -109.5 -21.5t-92.5 -60.5t-71.5 -90t-46.5 -113h281zM774 1061l-137 276h-4l-242 -276h-119l306 373h143l160 -373h-107z" />
<glyph unicode="&#xeb;" horiz-adv-x="956" d="M215 467q0 -12 -1 -23.5t-1 -21.5q0 -158 84 -244t225 -86q61 0 119.5 15.5t106.5 37.5l18 -114q-49 -27 -120 -42.5t-134 -15.5q-92 0 -171 31t-136.5 88.5t-90 138t-32.5 181.5q0 104 35 204.5t99.5 177t153.5 124t199 47.5q72 0 132.5 -21.5t103.5 -61.5t66.5 -95.5 t23.5 -122.5q0 -47 -10.5 -97.5t-30.5 -95.5zM514 565q109 0 238 2q6 20 10 42t4 44q0 90 -57.5 143.5t-155.5 53.5q-59 0 -109.5 -21.5t-92.5 -60.5t-71.5 -90t-46.5 -113h281zM918 1214q0 -41 -27 -71.5t-70 -30.5q-45 0 -72.5 31t-27.5 71q0 41 27.5 71t72.5 30 q43 0 70 -30t27 -71zM522 1214q0 -41 -26.5 -71.5t-71.5 -30.5q-43 0 -69.5 31t-26.5 71q0 41 26.5 71t69.5 30q45 0 71.5 -30t26.5 -71z" />
<glyph unicode="&#xec;" horiz-adv-x="428" d="M289 1061l-240 366h164l170 -366h-94zM63 0l181 928l131 26l-185 -954h-127z" />
<glyph unicode="&#xed;" horiz-adv-x="428" d="M365 1061h-101l316 366h168zM63 0l181 928l131 26l-185 -954h-127z" />
<glyph unicode="&#xee;" horiz-adv-x="428" d="M63 0l181 928l131 26l-185 -954h-127zM530 1061l-137 276h-4l-242 -276h-118l305 373h143l160 -373h-107z" />
<glyph unicode="&#xef;" horiz-adv-x="428" d="M655 1214q0 -41 -26.5 -71.5t-69.5 -30.5q-45 0 -72.5 31t-27.5 71q0 41 27.5 71t72.5 30q43 0 69.5 -30t26.5 -71zM260 1214q0 -41 -26.5 -71.5t-71.5 -30.5q-43 0 -69.5 31t-26.5 71q0 41 26.5 71t69.5 30q45 0 71.5 -30t26.5 -71zM63 0l181 928l131 26l-185 -954h-127 z" />
<glyph unicode="&#xf0;" horiz-adv-x="1069" d="M870 551q0 49 -6 92q-45 55 -132 92t-177 37q-74 0 -136.5 -30.5t-108.5 -83t-71.5 -122t-25.5 -147.5q0 -139 79 -219t212 -80q86 0 154.5 40t115.5 104.5t71.5 147.5t24.5 169zM1004 567q0 -115 -36 -220t-102.5 -187t-161 -131t-212.5 -49q-92 0 -169 29.5 t-132.5 81.5t-85 126t-29.5 162q0 104 38 196.5t102.5 161t149.5 108.5t181 40q100 0 177 -39t130 -98h4q-8 39 -28.5 87t-48 100t-62.5 107.5t-74 110.5q-18 -4 -39 -10q-16 -4 -38.5 -9.5t-45.5 -11.5q-53 -14 -121 -32l-12 94l195 51q-35 47 -74 90t-76 80l150 22 q35 -35 67.5 -73.5t67.5 -81.5l221 57l14 -94l-176 -45q94 -139 159 -299t67 -324z" />
<glyph unicode="&#xf1;" horiz-adv-x="1034" d="M676 0l110 569q6 29 11.5 58.5t5.5 54.5q0 78 -47 121t-138 43q-72 0 -150.5 -39t-143.5 -98l-140 -709h-127l183 938l133 27l-27 -142q72 61 153 101.5t167 40.5q123 0 195.5 -70t72.5 -182q0 -23 -5 -60t-11 -67l-115 -586h-127zM1018 1303q-33 -104 -82 -169t-131 -65 q-51 0 -93 22.5t-78 49t-66.5 49t-61.5 22.5q-37 0 -61.5 -35.5t-47.5 -93.5h-92q31 104 80 169t133 65q51 0 93 -22.5t78 -49t66.5 -49t61.5 -22.5q35 0 59.5 34.5t47.5 94.5h94z" />
<glyph unicode="&#xf2;" horiz-adv-x="1085" d="M584 1061l-240 366h164l170 -366h-94zM1008 530q0 -109 -38 -209t-105.5 -176.5t-164 -123t-213.5 -46.5q-92 0 -167.5 33t-129 90.5t-82 136t-28.5 171.5q0 109 37 209t105.5 177.5t163.5 124t212 46.5q92 0 168 -33t130 -91.5t83 -137.5t29 -171zM879 522 q0 70 -19.5 130.5t-56.5 105.5t-92.5 69.5t-124.5 24.5q-90 0 -160 -39t-119 -102.5t-74.5 -141t-25.5 -157.5q0 -141 76.5 -232.5t218.5 -91.5q88 0 157.5 38t118.5 99.5t75 139t26 157.5z" />
<glyph unicode="&#xf3;" horiz-adv-x="1085" d="M1008 530q0 -109 -38 -209t-105.5 -176.5t-164 -123t-213.5 -46.5q-92 0 -167.5 33t-129 90.5t-82 136t-28.5 171.5q0 109 37 209t105.5 177.5t163.5 124t212 46.5q92 0 168 -33t130 -91.5t83 -137.5t29 -171zM879 522q0 70 -19.5 130.5t-56.5 105.5t-92.5 69.5 t-124.5 24.5q-90 0 -160 -39t-119 -102.5t-74.5 -141t-25.5 -157.5q0 -141 76.5 -232.5t218.5 -91.5q88 0 157.5 38t118.5 99.5t75 139t26 157.5zM655 1061h-100l315 366h168z" />
<glyph unicode="&#xf4;" horiz-adv-x="1085" d="M1008 530q0 -109 -38 -209t-105.5 -176.5t-164 -123t-213.5 -46.5q-92 0 -167.5 33t-129 90.5t-82 136t-28.5 171.5q0 109 37 209t105.5 177.5t163.5 124t212 46.5q92 0 168 -33t130 -91.5t83 -137.5t29 -171zM879 522q0 70 -19.5 130.5t-56.5 105.5t-92.5 69.5 t-124.5 24.5q-90 0 -160 -39t-119 -102.5t-74.5 -141t-25.5 -157.5q0 -141 76.5 -232.5t218.5 -91.5q88 0 157.5 38t118.5 99.5t75 139t26 157.5zM860 1061l-137 276h-4l-242 -276h-119l306 373h143l160 -373h-107z" />
<glyph unicode="&#xf5;" horiz-adv-x="1085" d="M1008 530q0 -109 -38 -209t-105.5 -176.5t-164 -123t-213.5 -46.5q-92 0 -167.5 33t-129 90.5t-82 136t-28.5 171.5q0 109 37 209t105.5 177.5t163.5 124t212 46.5q92 0 168 -33t130 -91.5t83 -137.5t29 -171zM879 522q0 70 -19.5 130.5t-56.5 105.5t-92.5 69.5 t-124.5 24.5q-90 0 -160 -39t-119 -102.5t-74.5 -141t-25.5 -157.5q0 -141 76.5 -232.5t218.5 -91.5q88 0 157.5 38t118.5 99.5t75 139t26 157.5zM1044 1303q-33 -104 -82 -169t-131 -65q-51 0 -93 22.5t-77.5 49t-66.5 49t-62 22.5q-37 0 -61.5 -35.5t-46.5 -93.5h-92 q31 104 80 169t133 65q51 0 93 -22.5t78 -49t66.5 -49t61.5 -22.5q35 0 59.5 34.5t46.5 94.5h94z" />
<glyph unicode="&#xf6;" horiz-adv-x="1085" d="M1008 530q0 -109 -38 -209t-105.5 -176.5t-164 -123t-213.5 -46.5q-92 0 -167.5 33t-129 90.5t-82 136t-28.5 171.5q0 109 37 209t105.5 177.5t163.5 124t212 46.5q92 0 168 -33t130 -91.5t83 -137.5t29 -171zM879 522q0 70 -19.5 130.5t-56.5 105.5t-92.5 69.5 t-124.5 24.5q-90 0 -160 -39t-119 -102.5t-74.5 -141t-25.5 -157.5q0 -141 76.5 -232.5t218.5 -91.5q88 0 157.5 38t118.5 99.5t75 139t26 157.5zM983 1214q0 -41 -26.5 -71.5t-69.5 -30.5q-45 0 -73 31t-28 71q0 41 28 71t73 30q43 0 69.5 -30t26.5 -71zM588 1214 q0 -41 -26.5 -71.5t-72.5 -30.5q-43 0 -69.5 31t-26.5 71q0 41 26.5 71t69.5 30q45 0 72 -30t27 -71z" />
<glyph unicode="&#xf7;" horiz-adv-x="995" d="M84 426l6 111h817l6 -111h-829zM606 193q0 -41 -28.5 -74t-75.5 -33t-77 33t-30 74t30 72.5t77 31.5t75.5 -31.5t28.5 -72.5zM606 766q0 -41 -29.5 -74t-76.5 -33t-76 33t-29 74t29 73.5t76 32.5t76.5 -32.5t29.5 -73.5z" />
<glyph unicode="&#xf8;" horiz-adv-x="1085" d="M1018 532q0 -109 -38 -210t-106.5 -177.5t-165 -123t-212.5 -46.5q-68 0 -125.5 16.5t-106.5 47.5l-139 -176h-117l187 235q-55 57 -85 135t-30 170q0 109 38 209.5t105.5 178t163.5 125t213 47.5q131 0 229 -64l142 178h116q-39 -53 -75 -98q-31 -41 -62.5 -79 t-48.5 -60q55 -57 86 -136.5t31 -171.5zM756 805q-35 23 -77 35t-91 12q-90 0 -161 -40t-120 -102.5t-74.5 -141.5t-25.5 -158q0 -127 67 -213zM889 524q0 131 -68 217l-481 -606q72 -47 170 -47q88 0 158.5 39t120 100.5t75 139t25.5 157.5z" />
<glyph unicode="&#xf9;" horiz-adv-x="1034" d="M580 1061l-240 366h164l170 -366h-94zM358 938l-110 -569q-6 -29 -11.5 -58.5t-5.5 -54.5q0 -78 47.5 -121t137.5 -43q74 0 151.5 38t143.5 97l139 711h127l-182 -938l-133 -27l26 142q-72 -61 -152.5 -101.5t-166.5 -40.5q-123 0 -196 70t-73 182q0 23 5.5 60t11.5 67 l114 586h127z" />
<glyph unicode="&#xfa;" horiz-adv-x="1034" d="M358 938l-110 -569q-6 -29 -11.5 -58.5t-5.5 -54.5q0 -78 47.5 -121t137.5 -43q74 0 151.5 38t143.5 97l139 711h127l-182 -938l-133 -27l26 142q-72 -61 -152.5 -101.5t-166.5 -40.5q-123 0 -196 70t-73 182q0 23 5.5 60t11.5 67l114 586h127zM659 1061h-100l315 366 h168z" />
<glyph unicode="&#xfb;" horiz-adv-x="1034" d="M358 938l-110 -569q-6 -29 -11.5 -58.5t-5.5 -54.5q0 -78 47.5 -121t137.5 -43q74 0 151.5 38t143.5 97l139 711h127l-182 -938l-133 -27l26 142q-72 -61 -152.5 -101.5t-166.5 -40.5q-123 0 -196 70t-73 182q0 23 5.5 60t11.5 67l114 586h127zM815 1061l-137 276h-4 l-242 -276h-119l305 373h144l160 -373h-107z" />
<glyph unicode="&#xfc;" horiz-adv-x="1034" d="M358 938l-110 -569q-6 -29 -11.5 -58.5t-5.5 -54.5q0 -78 47.5 -121t137.5 -43q74 0 151.5 38t143.5 97l139 711h127l-182 -938l-133 -27l26 142q-72 -61 -152.5 -101.5t-166.5 -40.5q-123 0 -196 70t-73 182q0 23 5.5 60t11.5 67l114 586h127zM938 1214 q0 -41 -26.5 -71.5t-69.5 -30.5q-45 0 -73 31t-28 71q0 41 28 71t73 30q43 0 69.5 -30t26.5 -71zM543 1214q0 -41 -27 -71.5t-72 -30.5q-43 0 -69.5 31t-26.5 71q0 41 26.5 71t69.5 30q45 0 72 -30t27 -71z" />
<glyph unicode="&#xfd;" horiz-adv-x="866" d="M-150 -328q25 -18 49.5 -30.5t59.5 -12.5q18 0 38.5 7.5t44.5 27t50.5 55t61.5 93.5l122 206l-178 920h131l140 -776l442 776h141l-569 -961l-125 -215q-45 -76 -84 -125t-75 -78.5t-71.5 -41t-74.5 -11.5q-53 0 -95 18.5t-71 41.5zM559 1061h-100l315 366h168z" />
<glyph unicode="&#xfe;" horiz-adv-x="1058" d="M352 858q53 39 113.5 69.5t150.5 30.5q78 0 145.5 -30.5t117 -85t77 -129t27.5 -162.5q0 -121 -40 -226.5t-110.5 -183.5t-166 -123t-205.5 -45q-74 0 -143.5 26t-122.5 67l-103 -543h-127l361 1857l133 27zM221 190q43 -47 110.5 -76.5t141.5 -29.5q82 0 151.5 38 t121 100.5t79 143t27.5 166.5q0 72 -20.5 130.5t-56.5 99.5t-84 63.5t-105 22.5q-76 0 -139.5 -30t-116.5 -68z" />
<glyph unicode="&#xff;" horiz-adv-x="866" d="M-150 -328q25 -18 49.5 -30.5t59.5 -12.5q18 0 38.5 7.5t44.5 27t50.5 55t61.5 93.5l122 206l-178 920h131l140 -776l442 776h141l-569 -961l-125 -215q-45 -76 -84 -125t-75 -78.5t-71.5 -41t-74.5 -11.5q-53 0 -95 18.5t-71 41.5zM866 1214q0 -41 -26.5 -71.5 t-69.5 -30.5q-45 0 -72.5 31t-27.5 71q0 41 27.5 71t72.5 30q43 0 69.5 -30t26.5 -71zM471 1214q0 -41 -26.5 -71.5t-71.5 -30.5q-43 0 -70 31t-27 71q0 41 27 71t70 30q45 0 71.5 -30t26.5 -71z" />
<glyph unicode="&#x100;" horiz-adv-x="1185" d="M1065 0h-131l-62 356h-593l-205 -356h-144l754 1278h152zM737 1145l-389 -670h504zM522 1440l25 92h508l-8 -92h-525z" />
<glyph unicode="&#x101;" horiz-adv-x="905" d="M647 467q-256 -4 -370.5 -62.5t-114.5 -152.5q0 -70 47 -118t131 -48q78 0 142.5 34t111.5 79zM674 602q23 117 -32.5 181.5t-184.5 64.5q-72 0 -148 -24.5t-135 -59.5l-16 115q59 35 143 59.5t172 24.5t156.5 -22.5t112.5 -70t59.5 -118t-4.5 -166.5l-80 -389 q-10 -55 1 -85t75 -28l-23 -104q-49 -4 -83 7t-54.5 29.5t-29.5 43t-11 51.5h-2q-55 -59 -132 -97.5t-157 -38.5q-61 0 -111.5 22.5t-86 59.5t-55 84t-19.5 97q0 76 35.5 136t112.5 102t198 62.5t289 18.5zM266 1098l25 92h508l-8 -92h-525z" />
<glyph unicode="&#x102;" horiz-adv-x="1185" d="M1065 0h-131l-62 356h-593l-205 -356h-144l754 1278h152zM737 1145l-389 -670h504zM1137 1774q-25 -76 -59.5 -143.5t-79.5 -119t-101.5 -81t-123.5 -29.5q-72 0 -119 30.5t-76 82t-40 119t-9 141.5h94q6 -131 45 -201t117 -70q145 0 252 271h100v0z" />
<glyph unicode="&#x103;" horiz-adv-x="905" d="M647 467q-256 -4 -370.5 -62.5t-114.5 -152.5q0 -70 47 -118t131 -48q78 0 142.5 34t111.5 79zM674 602q23 117 -32.5 181.5t-184.5 64.5q-72 0 -148 -24.5t-135 -59.5l-16 115q59 35 143 59.5t172 24.5t156.5 -22.5t112.5 -70t59.5 -118t-4.5 -166.5l-80 -389 q-10 -55 1 -85t75 -28l-23 -104q-49 -4 -83 7t-54.5 29.5t-29.5 43t-11 51.5h-2q-55 -59 -132 -97.5t-157 -38.5q-61 0 -111.5 22.5t-86 59.5t-55 84t-19.5 97q0 76 35.5 136t112.5 102t198 62.5t289 18.5zM883 1432q-25 -76 -59.5 -143.5t-79.5 -119t-101.5 -81 t-123.5 -29.5q-72 0 -119 30.5t-76 82t-40 119t-9 141.5h94q6 -131 45 -201t117 -70q145 0 252 271h100v0z" />
<glyph unicode="&#x104;" horiz-adv-x="1185" d="M1065 0q-94 -29 -158.5 -92.5t-77.5 -122.5q-10 -47 10.5 -78t65.5 -35q29 -2 58.5 4.5t52.5 22.5l12 -98q-29 -16 -73 -28.5t-97 -8.5q-86 8 -130 61t-28 139t84 148.5t148 103.5l-60 340h-593l-205 -356h-144l754 1280h152zM737 1147l-389 -672h504z" />
<glyph unicode="&#x105;" horiz-adv-x="905" d="M674 604q23 115 -32.5 179.5t-184.5 64.5q-72 0 -146.5 -24.5t-134.5 -59.5l-16 115q59 35 142 59.5t171 24.5t156.5 -22.5t112.5 -70t59.5 -118t-4.5 -166.5l-80 -389q-10 -55 1 -85t75 -28l-23 -104q-98 -14 -169 -70.5t-85 -124.5q-10 -47 10.5 -78t65.5 -35 q27 -2 57.5 4.5t52.5 22.5l13 -98q-31 -16 -75 -28.5t-97 -8.5q-84 8 -130 61t-28 139q18 88 92 150.5t164 99.5q-25 10 -36 37t-13 62h-2q-55 -59 -132 -98.5t-157 -39.5q-61 0 -110.5 22.5t-85 59.5t-55 84t-19.5 97q0 76 35.5 136t112.5 102t197 62.5t290 18.5zM649 467 q-258 -4 -372.5 -61.5t-114.5 -153.5q0 -70 47 -118t131 -48q78 0 142.5 34t111.5 79z" />
<glyph unicode="&#x106;" horiz-adv-x="1196" d="M739 1403h-100l315 366h168zM1204 1100q-88 41 -187 64.5t-192 23.5q-137 0 -245.5 -52.5t-183 -139.5t-114.5 -202.5t-40 -240.5q0 -111 32.5 -196t93 -144t145.5 -90t189 -31q82 0 166 21.5t156 58.5l27 -117q-78 -39 -176.5 -60.5t-182.5 -21.5q-129 0 -236.5 40 t-184 114t-119.5 179.5t-43 234.5q0 156 51 294t145 242.5t228.5 166t300.5 61.5q98 0 197 -20.5t198 -59.5z" />
<glyph unicode="&#x107;" horiz-adv-x="917" d="M549 1061h-100l315 366h168zM762 31q-49 -27 -119 -42.5t-133 -15.5q-92 0 -171 30t-136.5 87t-90 138t-32.5 184q0 104 37 204.5t103.5 177t159.5 124t208 47.5q98 0 177 -27t144 -74l-35 -116q-66 45 -139 72.5t-153 27.5q-84 0 -152 -38t-116 -98.5t-74.5 -136 t-26.5 -153.5q0 -158 83 -244t224 -86q59 0 118.5 15.5t106.5 37.5l17 -114v0z" />
<glyph unicode="&#x108;" horiz-adv-x="1196" d="M1016 1403l-137 276h-4l-242 -276h-119l305 373h144l159 -373h-106zM1204 1100q-88 41 -187 64.5t-192 23.5q-137 0 -245.5 -52.5t-183 -139.5t-114.5 -202.5t-40 -240.5q0 -111 32.5 -196t93 -144t145.5 -90t189 -31q82 0 166 21.5t156 58.5l27 -117 q-78 -39 -176.5 -60.5t-182.5 -21.5q-129 0 -236.5 40t-184 114t-119.5 179.5t-43 234.5q0 156 51 294t145 242.5t228.5 166t300.5 61.5q98 0 197 -20.5t198 -59.5z" />
<glyph unicode="&#x109;" horiz-adv-x="917" d="M784 1061l-137 276h-4l-242 -276h-119l305 373h144l159 -373h-106zM762 31q-49 -27 -119 -42.5t-133 -15.5q-92 0 -171 30t-136.5 87t-90 138t-32.5 184q0 104 37 204.5t103.5 177t159.5 124t208 47.5q98 0 177 -27t144 -74l-35 -116q-66 45 -139 72.5t-153 27.5 q-84 0 -152 -38t-116 -98.5t-74.5 -136t-26.5 -153.5q0 -158 83 -244t224 -86q59 0 118.5 15.5t106.5 37.5l17 -114v0z" />
<glyph unicode="&#x10a;" horiz-adv-x="1196" d="M1204 1100q-88 41 -187 64.5t-192 23.5q-137 0 -245.5 -52.5t-183 -139.5t-114.5 -202.5t-40 -240.5q0 -111 32.5 -196t93 -144t145.5 -90t189 -31q82 0 166 21.5t156 58.5l27 -117q-78 -39 -176.5 -60.5t-182.5 -21.5q-129 0 -236.5 40t-184 114t-119.5 179.5t-43 234.5 q0 156 51 294t145 242.5t228.5 166t300.5 61.5q98 0 197 -20.5t198 -59.5zM942 1554q0 -41 -26.5 -70.5t-69.5 -29.5t-68.5 29.5t-25.5 70.5t25.5 70t68.5 29t69.5 -29t26.5 -70z" />
<glyph unicode="&#x10b;" horiz-adv-x="917" d="M762 31q-49 -27 -119 -42.5t-133 -15.5q-92 0 -171 30t-136.5 87t-90 138t-32.5 184q0 104 37 204.5t103.5 177t159.5 124t208 47.5q98 0 177 -27t144 -74l-35 -116q-66 45 -139 72.5t-153 27.5q-84 0 -152 -38t-116 -98.5t-74.5 -136t-26.5 -153.5q0 -158 83 -244 t224 -86q59 0 118.5 15.5t106.5 37.5l17 -114v0zM729 1212q0 -41 -26.5 -70.5t-69.5 -29.5t-68.5 29.5t-25.5 70.5t25.5 70t68.5 29t69.5 -29t26.5 -70z" />
<glyph unicode="&#x10c;" horiz-adv-x="1196" d="M661 1765l133 -278h5l243 278h119l-305 -372h-141l-160 372h106zM1204 1100q-88 41 -187 64.5t-192 23.5q-137 0 -245.5 -52.5t-183 -139.5t-114.5 -202.5t-40 -240.5q0 -111 32.5 -196t93 -144t145.5 -90t189 -31q82 0 166 21.5t156 58.5l27 -117q-78 -39 -176.5 -60.5 t-182.5 -21.5q-129 0 -236.5 40t-184 114t-119.5 179.5t-43 234.5q0 156 51 294t145 242.5t228.5 166t300.5 61.5q98 0 197 -20.5t198 -59.5z" />
<glyph unicode="&#x10d;" horiz-adv-x="917" d="M473 1423l133 -278h5l243 278h119l-305 -372h-141l-160 372h106zM762 31q-49 -27 -119 -42.5t-133 -15.5q-92 0 -171 30t-136.5 87t-90 138t-32.5 184q0 104 37 204.5t103.5 177t159.5 124t208 47.5q98 0 177 -27t144 -74l-35 -116q-66 45 -139 72.5t-153 27.5 q-84 0 -152 -38t-116 -98.5t-74.5 -136t-26.5 -153.5q0 -158 83 -244t224 -86q59 0 118.5 15.5t106.5 37.5l17 -114v0z" />
<glyph unicode="&#x10e;" horiz-adv-x="1282" d="M540 1765l133 -278h5l243 278h119l-305 -372h-141l-160 372h106zM1208 731q0 -150 -48 -283t-144 -232t-241.5 -157.5t-342.5 -58.5h-358l248 1280h276q127 0 238.5 -36t194.5 -105.5t130 -172t47 -235.5zM1071 717q0 217 -133 328.5t-360 113.5h-148l-201 -1038h228 q129 0 240.5 39t194.5 113.5t131 186.5t48 257z" />
<glyph unicode="&#x10f;" horiz-adv-x="1439" d="M1290 1334q10 39 43 63.5t76 24.5q55 0 92 -43t37 -103q0 -59 -30.5 -113.5t-79 -100.5t-105.5 -84t-111 -64l-45 57q41 23 82 52.5t74 62t53.5 67.5t20.5 68q0 37 -34 66t-73 47zM961 1380l131 27l-273 -1407h-127l15 76q-53 -41 -115 -72t-150 -31q-80 0 -146.5 31 t-115.5 85t-76.5 129t-27.5 165q0 121 40 225.5t110.5 182t165.5 122.5t206 45q74 0 142.5 -24.5t121.5 -65.5zM838 741q-43 47 -112 78t-140 31q-84 0 -152.5 -38t-120 -100.5t-79 -143.5t-27.5 -167q0 -145 75.5 -231t190.5 -86q76 0 139.5 30.5t116.5 73.5z" />
<glyph unicode="&#x110;" horiz-adv-x="1304" d="M727 702v-114h-385l-90 -467h225q129 0 241.5 39t195.5 113.5t131.5 186t48.5 257.5q0 109 -35 190.5t-99.5 138t-155.5 85t-204 28.5h-147l-88 -457h362zM68 588v114h163q10 43 19 91q8 41 18.5 92t20.5 106q25 127 55 289h274q129 0 241 -35t195 -103.5t130 -171 t47 -235.5q0 -150 -48 -283t-144.5 -233t-242 -159.5t-341.5 -59.5h-359l115 588h-143z" />
<glyph unicode="&#x111;" horiz-adv-x="1056" d="M903 1085h-233l16 95h236l39 200l131 27l-45 -227h145v-95h-164l-209 -1085h-127l15 76q-53 -41 -115 -72t-150 -31q-80 0 -146.5 31t-115.5 85t-76.5 129t-27.5 165q0 121 40 225.5t110.5 182t165.5 122.5t206 45q74 0 142.5 -24.5t121.5 -65.5zM838 741q-43 47 -112 78 t-140 31q-84 0 -152.5 -38t-120 -100.5t-79 -143.5t-27.5 -167q0 -145 75.5 -231t190.5 -86q76 0 139.5 30.5t116.5 73.5z" />
<glyph unicode="&#x112;" horiz-adv-x="1038" d="M74 0l250 1280h772l-23 -121h-643l-88 -459h537l-25 -118h-535l-90 -461h641l-22 -121h-774zM460 1440l25 92h508l-8 -92h-525z" />
<glyph unicode="&#x113;" horiz-adv-x="956" d="M215 467q0 -12 -1 -23.5t-1 -21.5q0 -158 84 -244t225 -86q61 0 119.5 15.5t106.5 37.5l18 -114q-49 -27 -120 -42.5t-134 -15.5q-92 0 -171 31t-136.5 88.5t-90 138t-32.5 181.5q0 104 35 204.5t99.5 177t153.5 124t199 47.5q72 0 132.5 -21.5t103.5 -61.5t66.5 -95.5 t23.5 -122.5q0 -47 -10.5 -97.5t-30.5 -95.5zM514 565q109 0 238 2q6 20 10 42t4 44q0 90 -57.5 143.5t-155.5 53.5q-59 0 -109.5 -21.5t-92.5 -60.5t-71.5 -90t-46.5 -113h281zM313 1098l25 92h508l-8 -92h-525z" />
<glyph unicode="&#x114;" horiz-adv-x="1038" d="M74 0l250 1280h772l-23 -121h-643l-88 -459h537l-25 -118h-535l-90 -461h641l-22 -121h-774zM1081 1774q-25 -76 -59.5 -143.5t-79.5 -119t-101.5 -81t-123.5 -29.5q-72 0 -119 30.5t-76 82t-40 119t-9 141.5h94q6 -131 45 -201t117 -70q145 0 252 271h100v0z" />
<glyph unicode="&#x115;" horiz-adv-x="956" d="M215 467q0 -12 -1 -23.5t-1 -21.5q0 -158 84 -244t225 -86q61 0 119.5 15.5t106.5 37.5l18 -114q-49 -27 -120 -42.5t-134 -15.5q-92 0 -171 31t-136.5 88.5t-90 138t-32.5 181.5q0 104 35 204.5t99.5 177t153.5 124t199 47.5q72 0 132.5 -21.5t103.5 -61.5t66.5 -95.5 t23.5 -122.5q0 -47 -10.5 -97.5t-30.5 -95.5zM514 565q109 0 238 2q6 20 10 42t4 44q0 90 -57.5 143.5t-155.5 53.5q-59 0 -109.5 -21.5t-92.5 -60.5t-71.5 -90t-46.5 -113h281zM930 1432q-25 -76 -59.5 -143.5t-79.5 -119t-101.5 -81t-123.5 -29.5q-72 0 -119 30.5t-76 82 t-40 119t-9 141.5h94q6 -131 45 -201t117 -70q145 0 252 271h100v0z" />
<glyph unicode="&#x116;" horiz-adv-x="1038" d="M74 0l250 1280h772l-23 -121h-643l-88 -459h537l-25 -118h-535l-90 -461h641l-22 -121h-774zM837 1554q0 -41 -26.5 -70.5t-69.5 -29.5t-68.5 29.5t-25.5 70.5t25.5 70t68.5 29t69.5 -29t26.5 -70z" />
<glyph unicode="&#x117;" horiz-adv-x="956" d="M215 467q0 -12 -1 -23.5t-1 -21.5q0 -158 84 -244t225 -86q61 0 119.5 15.5t106.5 37.5l18 -114q-49 -27 -120 -42.5t-134 -15.5q-92 0 -171 31t-136.5 88.5t-90 138t-32.5 181.5q0 104 35 204.5t99.5 177t153.5 124t199 47.5q72 0 132.5 -21.5t103.5 -61.5t66.5 -95.5 t23.5 -122.5q0 -47 -10.5 -97.5t-30.5 -95.5zM514 565q109 0 238 2q6 20 10 42t4 44q0 90 -57.5 143.5t-155.5 53.5q-59 0 -109.5 -21.5t-92.5 -60.5t-71.5 -90t-46.5 -113h281zM694 1212q0 -41 -26.5 -70.5t-69.5 -29.5t-68.5 29.5t-25.5 70.5t25.5 70t68.5 29t69.5 -29 t26.5 -70z" />
<glyph unicode="&#x118;" horiz-adv-x="1038" d="M768 0q-76 -53 -120 -104.5t-54 -110.5q-10 -47 10.5 -78t65.5 -35q27 -2 57.5 4.5t52.5 22.5l13 -98q-31 -16 -75 -28.5t-97 -8.5q-84 8 -129.5 61t-28.5 139q16 78 73.5 136.5t129.5 99.5h-590l248 1280h772l-23 -119h-643l-88 -461h537l-25 -118h-535l-90 -461h641 l-22 -121h-80z" />
<glyph unicode="&#x119;" horiz-adv-x="956" d="M215 467q0 -10 -1 -22.5t-1 -22.5q0 -158 84 -244t225 -86q61 0 119.5 15.5t106.5 37.5l18 -114q-47 -16 -88 -44t-75 -62t-55.5 -70.5t-27.5 -69.5q-10 -47 10.5 -78t65.5 -35q29 -2 58.5 4.5t52.5 22.5l12 -98q-29 -16 -73 -28.5t-97 -8.5q-86 8 -130 61t-28 139 q12 66 57.5 119.5t104.5 91.5q-8 0 -20.5 -1t-20.5 -1q-92 0 -171 31t-136.5 88.5t-90 138t-32.5 181.5q0 104 35 204.5t99.5 177t154.5 124t198 47.5q72 0 132.5 -21.5t103.5 -61.5t66.5 -95.5t23.5 -120.5q0 -47 -10.5 -97.5t-30.5 -97.5zM752 567q8 20 11 42t3 44 q0 90 -56.5 144.5t-156.5 54.5q-59 0 -109.5 -21.5t-92.5 -60.5t-71.5 -91t-46.5 -114z" />
<glyph unicode="&#x11a;" horiz-adv-x="1038" d="M585 1765l133 -278h5l243 278h119l-305 -372h-141l-160 372h106zM74 0l250 1280h772l-23 -121h-643l-88 -459h537l-25 -118h-535l-90 -461h641l-22 -121h-774z" />
<glyph unicode="&#x11b;" horiz-adv-x="956" d="M456 1423l133 -278h5l243 278h119l-305 -372h-141l-160 372h106zM215 467q0 -12 -1 -23.5t-1 -21.5q0 -158 84 -244t225 -86q61 0 119.5 15.5t106.5 37.5l18 -114q-49 -27 -120 -42.5t-134 -15.5q-92 0 -171 31t-136.5 88.5t-90 138t-32.5 181.5q0 104 35 204.5t99.5 177 t153.5 124t199 47.5q72 0 132.5 -21.5t103.5 -61.5t66.5 -95.5t23.5 -122.5q0 -47 -10.5 -97.5t-30.5 -95.5zM514 565q109 0 238 2q6 20 10 42t4 44q0 90 -57.5 143.5t-155.5 53.5q-59 0 -109.5 -21.5t-92.5 -60.5t-71.5 -90t-46.5 -113h281z" />
<glyph unicode="&#x11c;" horiz-adv-x="1271" d="M1006 1403l-137 276h-4l-242 -276h-119l305 373h144l159 -373h-106zM1075 66q-84 -41 -187.5 -67t-195.5 -26q-129 0 -236.5 40t-184 114t-119.5 179.5t-43 234.5q0 156 50 294t144 242.5t228.5 166t302.5 61.5q98 0 197 -20.5t198 -59.5l-25 -125q-88 41 -187 64.5 t-192 23.5q-137 0 -245.5 -52.5t-183 -139.5t-114.5 -202.5t-40 -240.5q0 -111 33.5 -197t94 -145t145.5 -90t190 -31q66 0 130 15.5t123 39.5l74 373h-340l25 119h469l-111 -571v0z" />
<glyph unicode="&#x11d;" horiz-adv-x="960" d="M723 1061l-137 276h-4l-242 -276h-119l305 373h144l159 -373h-106zM231 344q-53 41 -83.5 103.5t-30.5 144.5q0 78 30.5 145.5t83 117.5t122 80t147.5 30q72 0 121 -15.5t90 -44.5l293 25l6 -129l-215 12q23 -33 36 -77t13 -91q0 -78 -30 -146.5t-82 -118.5t-122.5 -79 t-150.5 -29q-49 0 -89 9.5t-77 25.5q-37 -16 -63.5 -43.5t-26.5 -58.5q0 -51 51 -79t172 -52l55 -11q150 -31 234 -92t84 -170q0 -63 -32 -119.5t-92.5 -99.5t-148.5 -67.5t-202 -24.5q-102 0 -183.5 20.5t-137.5 57.5t-87 88t-31 111q0 90 67.5 162.5t197.5 107.5 q-33 20 -55.5 51t-22.5 76q0 59 46.5 108t112.5 72zM467 373q53 0 100 20.5t82 55t54.5 84t19.5 104.5q0 98 -59.5 161.5t-174.5 63.5q-49 0 -94 -20.5t-79.5 -55t-55 -83t-20.5 -105.5q0 -98 59 -161.5t168 -63.5zM233 -2q-104 -23 -162.5 -79t-58.5 -132q0 -45 24.5 -81 t69 -60.5t103.5 -36.5t129 -12q154 0 245 52t91 138q0 66 -64.5 104.5t-189.5 63.5q-59 10 -105.5 21.5t-81.5 21.5z" />
<glyph unicode="&#x11e;" horiz-adv-x="1271" d="M1075 66q-84 -41 -187.5 -67t-195.5 -26q-129 0 -236.5 40t-184 114t-119.5 179.5t-43 234.5q0 156 50 294t144 242.5t228.5 166t302.5 61.5q98 0 197 -20.5t198 -59.5l-25 -125q-88 41 -187 64.5t-192 23.5q-137 0 -245.5 -52.5t-183 -139.5t-114.5 -202.5t-40 -240.5 q0 -111 33.5 -197t94 -145t145.5 -90t190 -31q66 0 130 15.5t123 39.5l74 373h-340l25 119h469l-111 -571v0zM1163 1774q-25 -76 -59.5 -143.5t-79.5 -119t-101.5 -81t-123.5 -29.5q-72 0 -119 30.5t-76 82t-40 119t-9 141.5h94q6 -131 45 -201t117 -70q145 0 252 271h100v0 z" />
<glyph unicode="&#x11f;" horiz-adv-x="960" d="M231 344q-53 41 -83.5 103.5t-30.5 144.5q0 78 30.5 145.5t83 117.5t122 80t147.5 30q72 0 121 -15.5t90 -44.5l293 25l6 -129l-215 12q23 -33 36 -77t13 -91q0 -78 -30 -146.5t-82 -118.5t-122.5 -79t-150.5 -29q-49 0 -89 9.5t-77 25.5q-37 -16 -63.5 -43.5 t-26.5 -58.5q0 -51 51 -79t172 -52l55 -11q150 -31 234 -92t84 -170q0 -63 -32 -119.5t-92.5 -99.5t-148.5 -67.5t-202 -24.5q-102 0 -183.5 20.5t-137.5 57.5t-87 88t-31 111q0 90 67.5 162.5t197.5 107.5q-33 20 -55.5 51t-22.5 76q0 59 46.5 108t112.5 72zM467 373 q53 0 100 20.5t82 55t54.5 84t19.5 104.5q0 98 -59.5 161.5t-174.5 63.5q-49 0 -94 -20.5t-79.5 -55t-55 -83t-20.5 -105.5q0 -98 59 -161.5t168 -63.5zM233 -2q-104 -23 -162.5 -79t-58.5 -132q0 -45 24.5 -81t69 -60.5t103.5 -36.5t129 -12q154 0 245 52t91 138 q0 66 -64.5 104.5t-189.5 63.5q-59 10 -105.5 21.5t-81.5 21.5zM913 1432q-25 -76 -59.5 -143.5t-79.5 -119t-101.5 -81t-123.5 -29.5q-72 0 -119 30.5t-76 82t-40 119t-9 141.5h94q6 -131 45 -201t117 -70q145 0 252 271h100v0z" />
<glyph unicode="&#x120;" horiz-adv-x="1271" d="M1075 66q-84 -41 -187.5 -67t-195.5 -26q-129 0 -236.5 40t-184 114t-119.5 179.5t-43 234.5q0 156 50 294t144 242.5t228.5 166t302.5 61.5q98 0 197 -20.5t198 -59.5l-25 -125q-88 41 -187 64.5t-192 23.5q-137 0 -245.5 -52.5t-183 -139.5t-114.5 -202.5t-40 -240.5 q0 -111 33.5 -197t94 -145t145.5 -90t190 -31q66 0 130 15.5t123 39.5l74 373h-340l25 119h469l-111 -571v0zM919 1554q0 -41 -26.5 -70.5t-69.5 -29.5t-68.5 29.5t-25.5 70.5t25.5 70t68.5 29t69.5 -29t26.5 -70z" />
<glyph unicode="&#x121;" horiz-adv-x="960" d="M231 344q-53 41 -83.5 103.5t-30.5 144.5q0 78 30.5 145.5t83 117.5t122 80t147.5 30q72 0 121 -15.5t90 -44.5l293 25l6 -129l-215 12q23 -33 36 -77t13 -91q0 -78 -30 -146.5t-82 -118.5t-122.5 -79t-150.5 -29q-49 0 -89 9.5t-77 25.5q-37 -16 -63.5 -43.5 t-26.5 -58.5q0 -51 51 -79t172 -52l55 -11q150 -31 234 -92t84 -170q0 -63 -32 -119.5t-92.5 -99.5t-148.5 -67.5t-202 -24.5q-102 0 -183.5 20.5t-137.5 57.5t-87 88t-31 111q0 90 67.5 162.5t197.5 107.5q-33 20 -55.5 51t-22.5 76q0 59 46.5 108t112.5 72zM467 373 q53 0 100 20.5t82 55t54.5 84t19.5 104.5q0 98 -59.5 161.5t-174.5 63.5q-49 0 -94 -20.5t-79.5 -55t-55 -83t-20.5 -105.5q0 -98 59 -161.5t168 -63.5zM233 -2q-104 -23 -162.5 -79t-58.5 -132q0 -45 24.5 -81t69 -60.5t103.5 -36.5t129 -12q154 0 245 52t91 138 q0 66 -64.5 104.5t-189.5 63.5q-59 10 -105.5 21.5t-81.5 21.5zM655 1212q0 -41 -26.5 -70.5t-69.5 -29.5t-68.5 29.5t-25.5 70.5t25.5 70t68.5 29t69.5 -29t26.5 -70z" />
<glyph unicode="&#x122;" horiz-adv-x="1271" d="M528 -186q8 33 39 56.5t76 18.5q53 -4 78.5 -47t15.5 -100q-16 -80 -81 -141.5t-157 -108.5l-41 45q86 47 116 89t38 77q8 37 -11.5 60.5t-72.5 50.5zM1075 66q-84 -41 -187.5 -67t-195.5 -26q-129 0 -236.5 40t-184 114t-119.5 179.5t-43 234.5q0 156 50 294t144 242.5 t228.5 166t302.5 61.5q98 0 197 -20.5t198 -59.5l-25 -125q-88 41 -187 64.5t-192 23.5q-137 0 -245.5 -52.5t-183 -139.5t-114.5 -202.5t-40 -240.5q0 -111 33.5 -197t94 -145t145.5 -90t190 -31q66 0 130 15.5t123 39.5l74 373h-340l25 119h469l-111 -571v0z" />
<glyph unicode="&#x123;" horiz-adv-x="960" d="M713.011 1137.99q-8 -32.998 -38.998 -56.4961q-30.998 -23.499 -75.9951 -18.499q-52.9971 4 -78.4951 46.9971q-25.499 42.9971 -15.499 99.9941q15.999 79.9951 80.9951 141.491t156.99 108.493l40.9971 -44.9971q-85.9941 -46.9971 -115.992 -88.9941 q-29.999 -41.998 -37.998 -76.9961q-8 -36.9971 11.499 -60.4961q19.499 -23.498 72.4961 -50.4971zM231 344q-53 41 -83.5 103.5t-30.5 144.5q0 78 30.5 145.5t83 117.5t122 80t147.5 30q72 0 121 -15.5t90 -44.5l293 25l6 -129l-215 12q23 -33 36 -77t13 -91 q0 -78 -30 -146.5t-82 -118.5t-122.5 -79t-150.5 -29q-49 0 -89 9.5t-77 25.5q-37 -16 -63.5 -43.5t-26.5 -58.5q0 -51 51 -79t172 -52l55 -11q150 -31 234 -92t84 -170q0 -63 -32 -119.5t-92.5 -99.5t-148.5 -67.5t-202 -24.5q-102 0 -183.5 20.5t-137.5 57.5t-87 88 t-31 111q0 90 67.5 162.5t197.5 107.5q-33 20 -55.5 51t-22.5 76q0 59 46.5 108t112.5 72zM467 373q53 0 100 20.5t82 55t54.5 84t19.5 104.5q0 98 -59.5 161.5t-174.5 63.5q-49 0 -94 -20.5t-79.5 -55t-55 -83t-20.5 -105.5q0 -98 59 -161.5t168 -63.5zM233 -2 q-104 -23 -162.5 -79t-58.5 -132q0 -45 24.5 -81t69 -60.5t103.5 -36.5t129 -12q154 0 245 52t91 138q0 66 -64.5 104.5t-189.5 63.5q-59 10 -105.5 21.5t-81.5 21.5z" />
<glyph unicode="&#x124;" horiz-adv-x="1331" d="M1022 1403l-137 276h-4l-242 -276h-119l305 373h144l159 -373h-106zM944 0l115 584h-742l-112 -584h-131l248 1280h131l-111 -578h739l111 578h131l-248 -1280h-131z" />
<glyph unicode="&#x125;" horiz-adv-x="1034" d="M612 1403l-137 276h-4l-242 -276h-119l305 373h144l159 -373h-106zM676 0l112 580q12 57 13 96q0 86 -49.5 129t-139.5 43q-74 0 -146.5 -35t-139.5 -90l-142 -723h-127l269 1380l133 27l-113 -584q72 61 153 100.5t167 39.5q123 0 195.5 -69t72.5 -187q0 -43 -12 -105 l-119 -602h-127z" />
<glyph unicode="&#x126;" horiz-adv-x="1331" d="M946 0l113 586h-742l-112 -586h-129l178 928h-162l25 86h155l52 266h129l-52 -266h742l51 266h129l-51 -266h139l-8 -86h-148l-180 -928h-129zM1083 702l43 226h-741l-43 -226h741z" />
<glyph unicode="&#x127;" horiz-adv-x="1034" d="M678 0l113 582q4 29 7 51t3 43q0 86 -48 130t-141 44q-74 0 -146.5 -36t-139.5 -91l-142 -723h-125l209 1085h-147l24 95h144l39 200l131 27l-45 -227h237l-8 -95h-246l-51 -262q72 61 153 100.5t167 39.5q123 0 195.5 -69t72.5 -187q0 -43 -12 -105l-119 -602h-125z" />
<glyph unicode="&#x12a;" horiz-adv-x="466" d="M76 0l248 1280h131l-250 -1280h-129zM163 1440l25 92h508l-8 -92h-525z" />
<glyph unicode="&#x12b;" horiz-adv-x="428" d="M63 0l181 928l131 26l-185 -954h-127zM86 1098l25 92h508l-8 -92h-525z" />
<glyph unicode="&#x12c;" horiz-adv-x="466" d="M76 0l248 1280h131l-250 -1280h-129zM780 1774q-25 -76 -59.5 -143.5t-79.5 -119t-101.5 -81t-123.5 -29.5q-72 0 -119 30.5t-76 82t-40 119t-9 141.5h94q6 -131 45 -201t117 -70q145 0 252 271h100v0z" />
<glyph unicode="&#x12d;" horiz-adv-x="428" d="M63 0l181 928l131 26l-185 -954h-127zM690 1432q-25 -76 -59.5 -143.5t-79.5 -119t-101.5 -81t-123.5 -29.5q-72 0 -119 30.5t-76 82t-40 119t-9 141.5h94q6 -131 45 -201t117 -70q145 0 252 271h100v0z" />
<glyph unicode="&#x12e;" horiz-adv-x="466" d="M57 -436q-86 8 -130 61t-27 139q16 78 73.5 136.5t128.5 99.5h-26l250 1280h129l-250 -1280q-74 -53 -119 -104.5t-55 -110.5q-10 -47 10 -78t65 -35q27 -2 58 4.5t53 22.5l12 -98q-31 -16 -75 -28.5t-97 -8.5z" />
<glyph unicode="&#x12f;" horiz-adv-x="428" d="M39 -436q-86 8 -130 61t-28 139q16 78 72.5 136.5t128.5 99.5h-21l181 928l129 26l-185 -954q-76 -53 -119.5 -104.5t-54.5 -110.5q-10 -47 10.5 -78t65.5 -35q27 -2 57.5 4.5t53.5 22.5l12 -98q-31 -16 -75 -28.5t-97 -8.5zM459 1247q0 -41 -23.5 -71.5t-70.5 -30.5 t-70 30.5t-23 71.5q0 39 22.5 69t70.5 30q47 0 70.5 -30t23.5 -69z" />
<glyph unicode="&#x130;" horiz-adv-x="466" d="M76 0l248 1280h131l-250 -1280h-129zM534 1554q0 -41 -26.5 -70.5t-69.5 -29.5t-68.5 29.5t-25.5 70.5t25.5 70t68.5 29t69.5 -29t26.5 -70z" />
<glyph unicode="&#x131;" horiz-adv-x="428" d="M63 0l181 928l131 26l-185 -954h-127z" />
<glyph unicode="&#x134;" horiz-adv-x="835" d="M995 1403l-137 276h-4l-242 -276h-119l305 373h144l159 -373h-106zM676 350q-33 -170 -132.5 -273.5t-273.5 -103.5q-92 0 -179 32t-146 81l47 119q59 -51 131 -82t149 -31q121 0 186.5 75t92.5 206l176 907h129l-180 -930v0z" />
<glyph unicode="&#x135;" horiz-adv-x="423" d="M-207 -420q55 23 96 50.5t71 67.5t50.5 95t34.5 129q0 -4 8 38t21.5 111.5t32 160t36.5 186.5q43 223 99 510l129 26q-55 -295 -101 -524q-18 -98 -36.5 -191.5t-33 -166t-22.5 -115.5t-8 -39q-18 -92 -44 -159.5t-62.5 -119t-86 -88t-114.5 -63.5zM541 1061l-137 276h-4 l-242 -276h-119l305 373h144l159 -373h-106z" />
<glyph unicode="&#x136;" horiz-adv-x="1073" d="M416 -186q8 33 39 56.5t76 18.5q53 -4 78.5 -47t15.5 -100q-16 -80 -81 -141.5t-157 -108.5l-41 45q86 47 116 89t38 77q8 37 -11.5 60.5t-72.5 50.5zM336 666l708 614h170l-755 -641l510 -639h-156l-487 612h-2l-119 -612h-131l248 1280h131l-119 -614h2z" />
<glyph unicode="&#x137;" horiz-adv-x="888" d="M244 -186q8 33 39 56.5t76 18.5q53 -4 78.5 -47t15.5 -100q-16 -80 -81 -141.5t-157 -108.5l-41 45q86 47 116 89t38 77q8 37 -11.5 60.5t-72.5 50.5zM279 485l-95 -485h-127l269 1380l133 27l-174 -881h4l483 412h178l-532 -438l364 -500h-155l-344 485h-4z" />
<glyph unicode="&#x139;" horiz-adv-x="978" d="M440 1403h-100l315 366h168zM74 0l250 1280h131l-226 -1157h633l-24 -123h-764z" />
<glyph unicode="&#x13a;" horiz-adv-x="421" d="M444 1471h-100l315 366h168zM57 0l269 1380l133 27l-275 -1407h-127z" />
<glyph unicode="&#x13b;" horiz-adv-x="978" d="M358 -186q8 33 39 56.5t76 18.5q53 -4 78.5 -47t15.5 -100q-16 -80 -81 -141.5t-157 -108.5l-41 45q86 47 116 89t38 77q8 37 -11.5 60.5t-72.5 50.5zM74 0l250 1280h131l-226 -1157h633l-24 -123h-764z" />
<glyph unicode="&#x13c;" horiz-adv-x="421" d="M-14 -186q8 33 39 56.5t76 18.5q53 -4 78.5 -47t15.5 -100q-16 -80 -81 -141.5t-157 -108.5l-41 45q86 47 116 89t38 77q8 37 -11.5 60.5t-72.5 50.5zM57 0l269 1380l133 27l-275 -1407h-127z" />
<glyph unicode="&#x13d;" horiz-adv-x="1169" d="M989 1188q10 39 43 63.5t76 24.5q55 0 92 -43t37 -103q0 -59 -30.5 -113.5t-79 -100.5t-105.5 -84t-111 -64l-45 57q41 23 82 52.5t74 62t53.5 67.5t20.5 68q0 37 -34 66t-73 47zM74 0l250 1280h131l-226 -1157h633l-24 -123h-764z" />
<glyph unicode="&#x13e;" horiz-adv-x="804" d="M653 1321q10 39 43 63.5t76 24.5q55 0 92 -43t37 -103q0 -59 -30.5 -113.5t-79 -100.5t-105.5 -84t-111 -64l-45 57q41 23 82 52.5t74 62t53.5 67.5t20.5 68q0 37 -34 66t-73 47zM57 0l269 1380l133 27l-275 -1407h-127z" />
<glyph unicode="&#x13f;" horiz-adv-x="1095" d="M74 0l250 1280h131l-226 -1157h633l-24 -123h-764zM907 641q0 -41 -28.5 -74t-73.5 -33t-74 33t-29 74t29 70.5t74 29.5t73.5 -29.5t28.5 -70.5z" />
<glyph unicode="&#x140;" horiz-adv-x="708" d="M57 0l269 1380l133 27l-275 -1407h-127zM709 641q0 -41 -28.5 -74t-73.5 -33t-74 33t-29 74t29 70.5t74 29.5t73.5 -29.5t28.5 -70.5z" />
<glyph unicode="&#x141;" horiz-adv-x="1019" d="M352 547q-4 -31 -12 -66q-6 -29 -13.5 -66.5t-15.5 -78.5q-18 -94 -41 -211h633l-24 -125h-764l49 254q10 47 17 93t16 83q8 41 16 80l-150 -41v113l175 47l127 651h131q-35 -172 -60 -307q-12 -59 -22.5 -113.5t-18.5 -97.5q-8 -51 -18 -96l303 84v-115l-328 -88v0z" />
<glyph unicode="&#x142;" horiz-adv-x="503" d="M332 545q-8 -39 -17 -84q-8 -39 -17 -88t-19 -101q-23 -121 -54 -272h-127l49 254l50 254l-154 -41v117l178 49l146 747l133 27l-144 -737l162 43v-117l-186 -51v0z" />
<glyph unicode="&#x143;" horiz-adv-x="1320" d="M813 1403h-100l315 366h168zM1192 1280h127l-248 -1292h-153l-506 1134l-211 -1122h-127l245 1280h160l502 -1122z" />
<glyph unicode="&#x144;" horiz-adv-x="1034" d="M536 1061h-100l315 366h168zM676 0l110 569q6 29 11.5 58.5t5.5 54.5q0 78 -47 121t-138 43q-72 0 -150.5 -39t-143.5 -98l-140 -709h-127l183 938l133 27l-27 -142q72 61 153 101.5t167 40.5q123 0 195.5 -70t72.5 -182q0 -23 -5 -60t-11 -67l-115 -586h-127z" />
<glyph unicode="&#x145;" horiz-adv-x="1320" d="M442 -186q8 33 39 56.5t76 18.5q53 -4 78.5 -47t15.5 -100q-16 -80 -81 -141.5t-157 -108.5l-41 45q86 47 116 89t38 77q8 37 -11.5 60.5t-72.5 50.5zM1192 1280h127l-248 -1292h-153l-506 1134l-211 -1122h-127l245 1280h160l502 -1122z" />
<glyph unicode="&#x146;" horiz-adv-x="1034" d="M291 -186q8 33 39 56.5t76 18.5q53 -4 78.5 -47t15.5 -100q-16 -80 -81 -141.5t-157 -108.5l-41 45q86 47 116 89t38 77q8 37 -11.5 60.5t-72.5 50.5zM676 0l110 569q6 29 11.5 58.5t5.5 54.5q0 78 -47 121t-138 43q-72 0 -150.5 -39t-143.5 -98l-140 -709h-127l183 938 l133 27l-27 -142q72 61 153 101.5t167 40.5q123 0 195.5 -70t72.5 -182q0 -23 -5 -60t-11 -67l-115 -586h-127z" />
<glyph unicode="&#x147;" horiz-adv-x="1320" d="M696 1765l133 -278h5l243 278h119l-305 -372h-141l-160 372h106zM1192 1280h127l-248 -1292h-153l-506 1134l-211 -1122h-127l245 1280h160l502 -1122z" />
<glyph unicode="&#x148;" horiz-adv-x="1034" d="M444 1423l133 -278h5l243 278h119l-305 -372h-141l-160 372h106zM676 0l110 569q6 29 11.5 58.5t5.5 54.5q0 78 -47 121t-138 43q-72 0 -150.5 -39t-143.5 -98l-140 -709h-127l183 938l133 27l-27 -142q72 61 153 101.5t167 40.5q123 0 195.5 -70t72.5 -182q0 -23 -5 -60 t-11 -67l-115 -586h-127z" />
<glyph unicode="&#x14c;" horiz-adv-x="1439" d="M598 1440l25 92h508l-8 -92h-525zM1403 719q0 -147 -53.5 -281.5t-148.5 -238t-224 -165t-283 -61.5q-127 0 -233.5 44t-184 122t-120.5 187.5t-43 238.5q0 147 53 281.5t147.5 237t225.5 163t284 60.5q125 0 231.5 -43t184.5 -121t121 -186.5t43 -237.5zM1270 709 q0 104 -34 193t-94.5 152.5t-145.5 99.5t-189 36q-127 0 -230.5 -52.5t-177 -138.5t-113.5 -197.5t-40 -228.5q0 -104 33.5 -193t94 -153.5t145.5 -100.5t190 -36q127 0 230 53.5t177 139.5t114 197.5t40 228.5z" />
<glyph unicode="&#x14d;" horiz-adv-x="1085" d="M368 1098l25 92h508l-8 -92h-525zM1008 530q0 -109 -38 -209t-105.5 -176.5t-164 -123t-213.5 -46.5q-92 0 -167.5 33t-129 90.5t-82 136t-28.5 171.5q0 109 37 209t105.5 177.5t163.5 124t212 46.5q92 0 168 -33t130 -91.5t83 -137.5t29 -171zM879 522q0 70 -19.5 130.5 t-56.5 105.5t-92.5 69.5t-124.5 24.5q-90 0 -160 -39t-119 -102.5t-74.5 -141t-25.5 -157.5q0 -141 76.5 -232.5t218.5 -91.5q88 0 157.5 38t118.5 99.5t75 139t26 157.5z" />
<glyph unicode="&#x14e;" horiz-adv-x="1439" d="M1403 719q0 -147 -53.5 -281.5t-148.5 -238t-224 -165t-283 -61.5q-127 0 -233.5 44t-184 122t-120.5 187.5t-43 238.5q0 147 53 281.5t147.5 237t225.5 163t284 60.5q125 0 231.5 -43t184.5 -121t121 -186.5t43 -237.5zM1270 709q0 104 -34 193t-94.5 152.5t-145.5 99.5 t-189 36q-127 0 -230.5 -52.5t-177 -138.5t-113.5 -197.5t-40 -228.5q0 -104 33.5 -193t94 -153.5t145.5 -100.5t190 -36q127 0 230 53.5t177 139.5t114 197.5t40 228.5zM1214 1774q-25 -76 -59.5 -143.5t-79.5 -119t-101.5 -81t-123.5 -29.5q-72 0 -119 30.5t-76 82 t-40 119t-9 141.5h94q6 -131 45 -201t117 -70q145 0 252 271h100v0z" />
<glyph unicode="&#x14f;" horiz-adv-x="1085" d="M1008 530q0 -109 -38 -209t-105.5 -176.5t-164 -123t-213.5 -46.5q-92 0 -167.5 33t-129 90.5t-82 136t-28.5 171.5q0 109 37 209t105.5 177.5t163.5 124t212 46.5q92 0 168 -33t130 -91.5t83 -137.5t29 -171zM879 522q0 70 -19.5 130.5t-56.5 105.5t-92.5 69.5 t-124.5 24.5q-90 0 -160 -39t-119 -102.5t-74.5 -141t-25.5 -157.5q0 -141 76.5 -232.5t218.5 -91.5q88 0 157.5 38t118.5 99.5t75 139t26 157.5zM983 1432q-25 -76 -59.5 -143.5t-79.5 -119t-101.5 -81t-123.5 -29.5q-72 0 -119 30.5t-76 82t-40 119t-9 141.5h94 q6 -131 45 -201t117 -70q145 0 252 271h100v0z" />
<glyph unicode="&#x150;" horiz-adv-x="1439" d="M998 1393h-113l330 362h141zM678 1393h-110l305 362h141zM1403 719q0 -147 -53.5 -281.5t-148.5 -238t-224 -165t-283 -61.5q-127 0 -233.5 44t-184 122t-120.5 187.5t-43 238.5q0 147 53 281.5t147.5 237t225.5 163t284 60.5q125 0 231.5 -43t184.5 -121t121 -186.5 t43 -237.5zM1270 709q0 104 -34 193t-94.5 152.5t-145.5 99.5t-189 36q-127 0 -230.5 -52.5t-177 -138.5t-113.5 -197.5t-40 -228.5q0 -104 33.5 -193t94 -153.5t145.5 -100.5t190 -36q127 0 230 53.5t177 139.5t114 197.5t40 228.5z" />
<glyph unicode="&#x151;" horiz-adv-x="1085" d="M770 1051h-113l330 362h141zM450 1051h-110l305 362h141zM1008 530q0 -109 -38 -209t-105.5 -176.5t-164 -123t-213.5 -46.5q-92 0 -167.5 33t-129 90.5t-82 136t-28.5 171.5q0 109 37 209t105.5 177.5t163.5 124t212 46.5q92 0 168 -33t130 -91.5t83 -137.5t29 -171z M879 522q0 70 -19.5 130.5t-56.5 105.5t-92.5 69.5t-124.5 24.5q-90 0 -160 -39t-119 -102.5t-74.5 -141t-25.5 -157.5q0 -141 76.5 -232.5t218.5 -91.5q88 0 157.5 38t118.5 99.5t75 139t26 157.5z" />
<glyph unicode="&#x152;" horiz-adv-x="1828" d="M1864 1159h-621l-90 -457h516l-22 -120h-517l-90 -461h623l-25 -121h-897q-127 0 -238.5 36t-194.5 105.5t-130 172t-47 235.5q0 150 48 282t144.5 232t242 158.5t341.5 58.5h979zM268 563q0 -217 133.5 -328.5t360.5 -113.5h147l201 1038h-227q-129 0 -242 -39 t-196 -113.5t-130 -186.5t-47 -257z" />
<glyph unicode="&#x153;" horiz-adv-x="1738" d="M911 221q-63 -111 -171.5 -178.5t-252.5 -67.5q-92 0 -167.5 33t-129 90.5t-82 136t-28.5 171.5q0 109 37 209t105.5 177.5t163.5 124t212 46.5q135 0 226 -64.5t134 -175.5q61 106 162 174t232 68q72 0 132 -21.5t103 -61.5t67.5 -95.5t24.5 -122.5q0 -47 -11 -97.5 t-32 -95.5l-637 -4q-2 -12 -2 -23.5v-21.5q0 -158 84 -244t226 -86q59 0 118.5 15.5t106.5 37.5l16 -114q-49 -27 -118.5 -42.5t-133.5 -15.5q-139 0 -238.5 65.5t-146.5 182.5zM207 412q0 -141 76.5 -232.5t218.5 -91.5q88 0 157.5 38t118.5 99.5t75 139t26 157.5 q0 70 -19.5 130.5t-56.5 105.5t-92.5 69.5t-124.5 24.5q-90 0 -160 -39t-119 -102.5t-74.5 -141t-25.5 -157.5zM1298 565q109 0 238 2q6 20 10 42t4 44q0 90 -57 143.5t-156 53.5q-59 0 -110 -21.5t-92 -60.5t-72 -90t-45 -113h280z" />
<glyph unicode="&#x154;" horiz-adv-x="1093" d="M616 1403h-100l315 366h168zM205 0h-131l248 1280h296q111 0 194 -28.5t137.5 -76t81 -111t26.5 -132.5q0 -86 -32 -153.5t-84 -116t-119.5 -79t-137.5 -42.5l234 -541h-146l-217 526l-252 -16zM528 631q76 2 148 19.5t126 52t87 88t33 127.5q0 111 -78 177t-236 66h-178 l-106 -534z" />
<glyph unicode="&#x155;" horiz-adv-x="729" d="M491 1061h-100l315 366h168zM184 0h-127l183 938l133 27l-35 -179q51 82 122.5 130.5t149.5 48.5q49 0 94.5 -12.5t77.5 -32.5l-34 -123q-35 20 -76 33.5t-88 13.5q-86 0 -154 -59.5t-125 -163.5z" />
<glyph unicode="&#x156;" horiz-adv-x="1093" d="M375 -186q8 33 39 56.5t76 18.5q53 -4 78.5 -47t15.5 -100q-16 -80 -81 -141.5t-157 -108.5l-41 45q86 47 116 89t38 77q8 37 -11.5 60.5t-72.5 50.5zM205 0h-131l248 1280h296q111 0 194 -28.5t137.5 -76t81 -111t26.5 -132.5q0 -86 -32 -153.5t-84 -116t-119.5 -79 t-137.5 -42.5l234 -541h-146l-217 526l-252 -16zM528 631q76 2 148 19.5t126 52t87 88t33 127.5q0 111 -78 177t-236 66h-178l-106 -534z" />
<glyph unicode="&#x157;" horiz-adv-x="729" d="M-8 -186q8 33 39 56.5t76 18.5q53 -4 78.5 -47t15.5 -100q-16 -80 -81 -141.5t-157 -108.5l-41 45q86 47 116 89t38 77q8 37 -11.5 60.5t-72.5 50.5zM184 0h-127l183 938l133 27l-35 -179q51 82 122.5 130.5t149.5 48.5q49 0 94.5 -12.5t77.5 -32.5l-34 -123 q-35 20 -76 33.5t-88 13.5q-86 0 -154 -59.5t-125 -163.5z" />
<glyph unicode="&#x158;" horiz-adv-x="1093" d="M510 1765l133 -278h5l243 278h119l-305 -372h-141l-160 372h106zM205 0h-131l248 1280h296q111 0 194 -28.5t137.5 -76t81 -111t26.5 -132.5q0 -86 -32 -153.5t-84 -116t-119.5 -79t-137.5 -42.5l234 -541h-146l-217 526l-252 -16zM528 631q76 2 148 19.5t126 52t87 88 t33 127.5q0 111 -78 177t-236 66h-178l-106 -534z" />
<glyph unicode="&#x159;" horiz-adv-x="729" d="M393 1423l133 -278h5l243 278h119l-305 -372h-141l-160 372h106zM184 0h-127l183 938l133 27l-35 -179q51 82 122.5 130.5t149.5 48.5q49 0 94.5 -12.5t77.5 -32.5l-34 -123q-35 20 -76 33.5t-88 13.5q-86 0 -154 -59.5t-125 -163.5z" />
<glyph unicode="&#x15a;" horiz-adv-x="1005" d="M588 1403h-100l315 366h168zM465 90q68 0 124 17.5t98 50t64.5 78t22.5 98.5q0 49 -20.5 87t-57.5 69.5t-88 58t-112 55.5q-61 27 -117.5 58.5t-99.5 71.5t-69 91.5t-26 116.5q0 88 35 155.5t94.5 113.5t136 70t160.5 24q113 0 217.5 -33t178.5 -80l-33 -125 q-37 25 -82 47.5t-94 38.5t-100.5 25.5t-98.5 9.5q-57 0 -109.5 -15.5t-91.5 -45t-61.5 -72.5t-22.5 -99q0 -90 75 -144t198 -107q66 -29 123 -62t100 -75t67.5 -96t24.5 -124q0 -86 -35 -155.5t-94 -118.5t-140 -75t-173 -26q-123 0 -238 38t-198 93l32 127 q88 -59 197 -100t213 -41z" />
<glyph unicode="&#x15b;" horiz-adv-x="778" d="M436 1061h-100l315 366h168zM670 264q0 -66 -27 -119t-73 -91t-108.5 -59.5t-135.5 -21.5q-96 0 -182.5 30t-151.5 73l43 117q72 -47 147.5 -77t153.5 -30q43 0 81 10t66.5 32t46 51.5t17.5 70.5q0 59 -50.5 97t-154.5 85q-49 23 -90 46.5t-70.5 52t-47 67.5t-17.5 92 q0 63 26.5 114.5t70.5 86.5t101.5 54.5t120.5 19.5q90 0 170 -26t152 -69l-41 -116q-74 47 -143.5 72.5t-145.5 25.5q-80 0 -134 -39t-54 -106q0 -33 12 -56.5t36.5 -43t62.5 -39t89 -44.5t93 -49t73 -54t47.5 -68t16.5 -89z" />
<glyph unicode="&#x15c;" horiz-adv-x="1005" d="M842 1403l-137 276h-4l-242 -276h-119l305 373h144l159 -373h-106zM465 90q68 0 124 17.5t98 50t64.5 78t22.5 98.5q0 49 -20.5 87t-57.5 69.5t-88 58t-112 55.5q-61 27 -117.5 58.5t-99.5 71.5t-69 91.5t-26 116.5q0 88 35 155.5t94.5 113.5t136 70t160.5 24 q113 0 217.5 -33t178.5 -80l-33 -125q-37 25 -82 47.5t-94 38.5t-100.5 25.5t-98.5 9.5q-57 0 -109.5 -15.5t-91.5 -45t-61.5 -72.5t-22.5 -99q0 -90 75 -144t198 -107q66 -29 123 -62t100 -75t67.5 -96t24.5 -124q0 -86 -35 -155.5t-94 -118.5t-140 -75t-173 -26 q-123 0 -238 38t-198 93l32 127q88 -59 197 -100t213 -41z" />
<glyph unicode="&#x15d;" horiz-adv-x="778" d="M662 1061l-137 276h-4l-242 -276h-119l305 373h144l159 -373h-106zM670 264q0 -66 -27 -119t-73 -91t-108.5 -59.5t-135.5 -21.5q-96 0 -182.5 30t-151.5 73l43 117q72 -47 147.5 -77t153.5 -30q43 0 81 10t66.5 32t46 51.5t17.5 70.5q0 59 -50.5 97t-154.5 85 q-49 23 -90 46.5t-70.5 52t-47 67.5t-17.5 92q0 63 26.5 114.5t70.5 86.5t101.5 54.5t120.5 19.5q90 0 170 -26t152 -69l-41 -116q-74 47 -143.5 72.5t-145.5 25.5q-80 0 -134 -39t-54 -106q0 -33 12 -56.5t36.5 -43t62.5 -39t89 -44.5t93 -49t73 -54t47.5 -68t16.5 -89z " />
<glyph unicode="&#x15e;" horiz-adv-x="1005" d="M360 -135q100 -6 161 -50t61 -118q0 -90 -93.5 -153.5t-279.5 -65.5l4 88q129 -4 195.5 29.5t66.5 93.5q0 57 -65.5 80.5t-186.5 13.5v61l166 133q-104 10 -199.5 45t-166.5 82l32 127q88 -59 196.5 -100t213.5 -41q68 0 124 17.5t98 50t64.5 78t22.5 98.5q0 49 -20.5 87 t-57.5 69.5t-88 58t-112 55.5q-61 27 -117.5 58.5t-99.5 71.5t-69 91.5t-26 116.5q0 88 35 155.5t94.5 113.5t136 70t160.5 24q113 0 217.5 -33t178.5 -80l-33 -125q-37 25 -82 47.5t-94 38.5t-100.5 25.5t-98.5 9.5q-57 0 -109.5 -15.5t-91.5 -45t-61.5 -72.5t-22.5 -99 q0 -90 75 -144t198 -107q66 -29 123 -62t100 -75t67.5 -96t24.5 -124q0 -84 -31.5 -150.5t-86 -114.5t-129 -75.5t-160.5 -32.5l-134 -110v0z" />
<glyph unicode="&#x15f;" horiz-adv-x="778" d="M219 -135q100 -6 160.5 -50t60.5 -118q0 -90 -93 -153.5t-279 -65.5l4 88q129 -4 195.5 29.5t66.5 93.5q0 57 -65.5 80.5t-186.5 13.5v61l166 136q-74 10 -139.5 35.5t-116.5 60.5l43 117q72 -47 147.5 -77t153.5 -30q43 0 81 10t66.5 32t46 51.5t17.5 70.5 q0 59 -50.5 97t-154.5 85q-49 23 -90 46.5t-70.5 52t-47 67.5t-17.5 92q0 63 26.5 114.5t70.5 86.5t101.5 54.5t120.5 19.5q90 0 170 -26t152 -69l-41 -116q-74 47 -143.5 72.5t-145.5 25.5q-80 0 -134 -39t-54 -106q0 -33 12 -56.5t36.5 -43t62.5 -39t89 -44.5t93 -49 t73 -54t47.5 -68t16.5 -89q0 -61 -23.5 -112.5t-66.5 -89t-101.5 -60t-126.5 -27.5l-133 -110v0z" />
<glyph unicode="&#x160;" horiz-adv-x="1005" d="M465 90q68 0 124 17.5t98 50t64.5 78t22.5 98.5q0 49 -20.5 87t-57.5 69.5t-88 58t-112 55.5q-61 27 -117.5 58.5t-99.5 71.5t-69 91.5t-26 116.5q0 88 35 155.5t94.5 113.5t136 70t160.5 24q113 0 217.5 -33t178.5 -80l-33 -125q-37 25 -82 47.5t-94 38.5t-100.5 25.5 t-98.5 9.5q-57 0 -109.5 -15.5t-91.5 -45t-61.5 -72.5t-22.5 -99q0 -90 75 -144t198 -107q66 -29 123 -62t100 -75t67.5 -96t24.5 -124q0 -86 -35 -155.5t-94 -118.5t-140 -75t-173 -26q-123 0 -238 38t-198 93l32 127q88 -59 197 -100t213 -41zM520 1765l133 -278h4 l244 278h119l-305 -372h-142l-159 372h106z" />
<glyph unicode="&#x161;" horiz-adv-x="778" d="M670 264q0 -66 -27 -119t-73 -91t-108.5 -59.5t-135.5 -21.5q-96 0 -182.5 30t-151.5 73l43 117q72 -47 147.5 -77t153.5 -30q43 0 81 10t66.5 32t46 51.5t17.5 70.5q0 59 -50.5 97t-154.5 85q-49 23 -90 46.5t-70.5 52t-47 67.5t-17.5 92q0 63 26.5 114.5t70.5 86.5 t101.5 54.5t120.5 19.5q90 0 170 -26t152 -69l-41 -116q-74 47 -143.5 72.5t-145.5 25.5q-80 0 -134 -39t-54 -106q0 -33 12 -56.5t36.5 -43t62.5 -39t89 -44.5t93 -49t73 -54t47.5 -68t16.5 -89zM360 1423l134 -278h4l243 278h119l-305 -372h-141l-160 372h106z" />
<glyph unicode="&#x162;" horiz-adv-x="1112" d="M334 -186q8 33 39 56.5t76 18.5q53 -4 78.5 -47t15.5 -100q-16 -80 -81 -141.5t-157 -108.5l-41 45q86 47 116 89t38 77q8 37 -11.5 60.5t-72.5 50.5zM762 1157l-225 -1157h-129l225 1157h-453l25 123h1030l-23 -123h-450z" />
<glyph unicode="&#x163;" horiz-adv-x="684" d="M172 -186q8 33 39 56.5t76 18.5q53 -4 78.5 -47t15.5 -100q-16 -80 -81 -141.5t-157 -108.5l-41 45q86 47 116 89t38 77q8 37 -11.5 60.5t-72.5 50.5zM543 6q-41 -16 -94.5 -26.5t-100.5 -10.5q-104 0 -174 51.5t-70 155.5q0 29 5.5 58.5t13.5 64.5l115 518l-138 10l6 80 l158 33l49 213h121l-49 -219h309l-6 -115h-330l-116 -530q-6 -29 -11.5 -50.5t-5.5 -43.5q0 -59 39 -86t98 -27q47 0 85 10t75 25z" />
<glyph unicode="&#x164;" horiz-adv-x="1112" d="M598 1765l133 -278h5l243 278h119l-305 -372h-141l-160 372h106zM762 1157l-225 -1157h-129l225 1157h-453l25 123h1030l-23 -123h-450z" />
<glyph unicode="&#x165;" horiz-adv-x="684" d="M600 1399q10 39 43 63.5t76 24.5q55 0 92 -43t37 -103q0 -59 -30.5 -113.5t-79 -100.5t-105.5 -84t-111 -64l-45 57q41 23 82 52.5t74 62t53.5 67.5t20.5 68q0 37 -34 66t-73 47zM543 6q-41 -16 -94.5 -26.5t-100.5 -10.5q-104 0 -174 51.5t-70 155.5q0 29 5.5 58.5 t13.5 64.5l115 518l-138 10l6 80l158 33l49 213h121l-49 -219h309l-6 -115h-330l-116 -530q-6 -29 -11.5 -50.5t-5.5 -43.5q0 -59 39 -86t98 -27q47 0 85 10t75 25z" />
<glyph unicode="&#x16a;" horiz-adv-x="1232" d="M588 -27q-102 0 -187.5 26t-146.5 74t-95 118.5t-34 160.5q0 51 7 100.5t13 82.5l148 745h129l-146 -750q-6 -29 -13 -68.5t-7 -84.5q0 -135 88 -209t252 -74q154 0 246 98.5t125 260.5l161 827h129l-161 -842q-41 -215 -168 -340t-340 -125zM532 1440l25 92h508l-8 -92 h-525z" />
<glyph unicode="&#x16b;" horiz-adv-x="1034" d="M358 938l-110 -569q-6 -29 -11.5 -58.5t-5.5 -54.5q0 -78 47.5 -121t137.5 -43q74 0 151.5 38t143.5 97l139 711h127l-182 -938l-133 -27l26 142q-72 -61 -152.5 -101.5t-166.5 -40.5q-123 0 -196 70t-73 182q0 23 5.5 60t11.5 67l114 586h127zM364 1098l25 92h508 l-8 -92h-525z" />
<glyph unicode="&#x16c;" horiz-adv-x="1232" d="M588 -27q-102 0 -187.5 26t-146.5 74t-95 118.5t-34 160.5q0 51 7 100.5t13 82.5l148 745h129l-146 -750q-6 -29 -13 -68.5t-7 -84.5q0 -135 88 -209t252 -74q154 0 246 98.5t125 260.5l161 827h129l-161 -842q-41 -215 -168 -340t-340 -125zM1155 1774 q-25 -76 -59.5 -143.5t-79.5 -119t-101.5 -81t-123.5 -29.5q-72 0 -119 30.5t-76 82t-40 119t-9 141.5h94q6 -131 45 -201t117 -70q145 0 252 271h100v0z" />
<glyph unicode="&#x16d;" horiz-adv-x="1034" d="M358 938l-110 -569q-6 -29 -11.5 -58.5t-5.5 -54.5q0 -78 47.5 -121t137.5 -43q74 0 151.5 38t143.5 97l139 711h127l-182 -938l-133 -27l26 142q-72 -61 -152.5 -101.5t-166.5 -40.5q-123 0 -196 70t-73 182q0 23 5.5 60t11.5 67l114 586h127zM979 1432 q-25 -76 -59.5 -143.5t-79.5 -119t-101.5 -81t-123.5 -29.5q-72 0 -119 30.5t-76 82t-40 119t-9 141.5h94q6 -131 45 -201t117 -70q145 0 252 271h100v0z" />
<glyph unicode="&#x16e;" horiz-adv-x="1232" d="M1055 1614q0 -49 -19.5 -89t-53 -69t-80 -44t-97.5 -15q-98 0 -167.5 54t-69.5 146q0 49 19 89t53 70t80 46.5t99 16.5q100 0 168 -56.5t68 -148.5zM965 1612q0 59 -42 96t-106 37q-68 0 -112.5 -40t-44.5 -101q0 -59 42 -96.5t105 -37.5q66 0 112 40.5t46 101.5z M588 -27q-102 0 -187.5 26t-146.5 74t-95 118.5t-34 160.5q0 51 7 100.5t13 82.5l148 745h129l-146 -750q-6 -29 -13 -68.5t-7 -84.5q0 -135 88 -209t252 -74q154 0 246 98.5t125 260.5l161 827h129l-161 -842q-41 -215 -168 -340t-340 -125z" />
<glyph unicode="&#x16f;" horiz-adv-x="1034" d="M899 1272q0 -49 -19.5 -89t-53 -69t-80 -44t-97.5 -15q-98 0 -167.5 54t-69.5 146q0 49 19 89t53 70t80 46.5t99 16.5q100 0 168 -56.5t68 -148.5zM809 1270q0 59 -42 96t-106 37q-68 0 -112.5 -40t-44.5 -101q0 -59 42 -96.5t105 -37.5q66 0 112 40.5t46 101.5zM358 938 l-110 -569q-6 -29 -11.5 -58.5t-5.5 -54.5q0 -78 47.5 -121t137.5 -43q74 0 151.5 38t143.5 97l139 711h127l-182 -938l-133 -27l26 142q-72 -61 -152.5 -101.5t-166.5 -40.5q-123 0 -196 70t-73 182q0 23 5.5 60t11.5 67l114 586h127z" />
<glyph unicode="&#x170;" horiz-adv-x="1232" d="M588 -27q-102 0 -187.5 26t-146.5 74t-95 118.5t-34 160.5q0 51 7 100.5t13 82.5l148 745h129l-146 -750q-6 -29 -13 -68.5t-7 -84.5q0 -135 88 -209t252 -74q154 0 246 98.5t125 260.5l161 827h129l-161 -842q-41 -215 -168 -340t-340 -125zM934 1393h-113l330 362h141z M614 1393h-110l305 362h141z" />
<glyph unicode="&#x171;" horiz-adv-x="1034" d="M358 938l-110 -569q-6 -29 -11.5 -58.5t-5.5 -54.5q0 -78 47.5 -121t137.5 -43q74 0 151.5 38t143.5 97l139 711h127l-182 -938l-133 -27l26 142q-72 -61 -152.5 -101.5t-166.5 -40.5q-123 0 -196 70t-73 182q0 23 5.5 60t11.5 67l114 586h127zM791 1051h-113l330 362 h141zM471 1051h-110l305 362h141z" />
<glyph unicode="&#x172;" horiz-adv-x="1232" d="M627 -436q-84 8 -129 61t-29 139q14 66 59 119.5t105 91.5q-10 0 -22.5 -1t-22.5 -1q-102 0 -187.5 26t-145.5 75t-94 118.5t-34 159.5q0 51 7 101.5t13 83.5l146 743h129l-146 -750q-6 -29 -13 -68.5t-7 -84.5q0 -135 88 -209t252 -74q154 0 247 98.5t126 260.5l159 827 h129l-161 -842q-61 -305 -293 -426q-86 -47 -139.5 -105.5t-63.5 -121.5q-10 -47 10.5 -78t65.5 -35q27 -2 57.5 4.5t52.5 22.5l13 -98q-31 -16 -75 -28.5t-97 -8.5z" />
<glyph unicode="&#x173;" horiz-adv-x="1034" d="M358 938l-110 -569q-6 -29 -11.5 -58.5t-5.5 -54.5q0 -78 47.5 -121t137.5 -43q74 0 151.5 38t145.5 97l137 711h127l-184 -952q-49 -12 -93.5 -38t-80 -57.5t-58 -67.5t-29.5 -69q-10 -47 10.5 -77.5t65.5 -34.5q27 -2 57.5 4t53.5 22l12 -98q-31 -16 -75 -28.5 t-97 -8.5q-84 8 -129 61.5t-29 139.5q8 47 35 89t64 78t81 63.5t89 43.5l20 109q-72 -61 -153.5 -102.5t-165.5 -41.5q-123 0 -196 70t-73 184q0 23 4.5 59t10.5 68l114 584h127z" />
<glyph unicode="&#x174;" horiz-adv-x="1851" d="M1303 1403l-137 276h-4l-242 -276h-119l305 373h144l159 -373h-106zM494 0h-127l-117 1280h135l84 -1092l539 1092h155l119 -1092l498 1092h137l-606 -1280h-127l-125 1120z" />
<glyph unicode="&#x175;" horiz-adv-x="1329" d="M987 1061l-137 276h-4l-242 -276h-119l305 373h144l159 -373h-106zM215 -4l-98 942h131l67 -748l394 750h116l101 -754l344 752h143l-463 -942h-114l-101 756l-407 -756h-113z" />
<glyph unicode="&#x176;" horiz-adv-x="1073" d="M610 510l-100 -510h-127l100 518l-299 762h140l245 -643l482 643h153zM911 1403l-137 276h-4l-242 -276h-119l305 373h144l159 -373h-106z" />
<glyph unicode="&#x177;" horiz-adv-x="866" d="M-150 -328q25 -18 49.5 -30.5t59.5 -12.5q18 0 38.5 7.5t44.5 27t50.5 55t61.5 93.5l122 206l-178 920h131l140 -776l442 776h141l-569 -961l-125 -215q-45 -76 -84 -125t-75 -78.5t-71.5 -41t-74.5 -11.5q-53 0 -95 18.5t-71 41.5l63 106v0zM733 1061l-137 276h-4 l-242 -276h-119l305 373h144l159 -373h-106z" />
<glyph unicode="&#x178;" horiz-adv-x="1073" d="M610 510l-100 -510h-127l100 518l-299 762h140l245 -643l482 643h153zM1010 1556q0 -41 -27 -71.5t-70 -30.5q-45 0 -72.5 31t-27.5 71q0 41 27.5 71t72.5 30q43 0 70 -30t27 -71zM614 1556q0 -41 -26.5 -71.5t-71.5 -30.5q-43 0 -69.5 31t-26.5 71q0 41 26.5 71t69.5 30 q45 0 71.5 -30t26.5 -71z" />
<glyph unicode="&#x179;" horiz-adv-x="1044" d="M643 1403h-100l315 366h168zM-41 0l21 96l954 1063h-727l22 121h899l-18 -98l-952 -1061h745l-22 -121h-922z" />
<glyph unicode="&#x17a;" horiz-adv-x="796" d="M489 1061h-100l315 366h168zM-53 0l18 88l680 735h-520l22 115h695l-19 -88l-682 -735h539l-23 -115h-710z" />
<glyph unicode="&#x17b;" horiz-adv-x="1044" d="M-41 0l21 96l954 1063h-727l22 121h899l-18 -98l-952 -1061h745l-22 -121h-922zM796 1554q0 -41 -26.5 -70.5t-69.5 -29.5t-68.5 29.5t-25.5 70.5t25.5 70t68.5 29t69.5 -29t26.5 -70z" />
<glyph unicode="&#x17c;" horiz-adv-x="796" d="M-53 0l18 88l680 735h-520l22 115h695l-19 -88l-682 -735h539l-23 -115h-710zM612 1212q0 -41 -26.5 -70.5t-69.5 -29.5t-68.5 29.5t-25.5 70.5t25.5 70t68.5 29t69.5 -29t26.5 -70z" />
<glyph unicode="&#x17d;" horiz-adv-x="1044" d="M-41 0l21 96l954 1063h-727l22 121h899l-18 -98l-952 -1061h745l-22 -121h-922zM524 1765l133 -278h5l243 278h119l-305 -372h-141l-160 372h106z" />
<glyph unicode="&#x17e;" horiz-adv-x="796" d="M-53 0l18 88l680 735h-520l22 115h695l-19 -88l-682 -735h539l-23 -115h-710zM408 1423l133 -278h4l243 278h119l-305 -372h-141l-160 372h107z" />
<glyph unicode="&#x192;" horiz-adv-x="735" d="M299 702l-209 11l16 80l216 30l32 170q33 154 102.5 226.5t186.5 72.5q59 0 111.5 -18.5t89.5 -46.5q0 -2 -8.5 -17.5t-18.5 -35.5q-12 -23 -26 -54q-35 23 -72 38.5t-78 15.5q-68 0 -106.5 -47.5t-59.5 -145.5l-33 -164h244l-16 -112h-250l-86 -449 q-27 -131 -91.5 -199.5t-191.5 -93.5l-28 117q92 16 134 62t58 126z" />
<glyph unicode="&#x1fa;" horiz-adv-x="1185" d="M727 1649h-100l315 366h168zM739 1147l-387 -672h502zM932 1411q0 59 -42 97t-106 38q-68 0 -112.5 -41t-44.5 -102q0 -57 42 -94t103 -37q70 0 115 40t45 99zM653 1223q-53 23 -85.5 69.5t-32.5 106.5q0 49 19 89t53 69.5t79 46t98 16.5q100 0 169 -57.5t69 -149.5 q0 -76 -47 -130t-125 -73l217 -1210h-131l-62 356h-591l-205 -356h-144z" />
<glyph unicode="&#x1fb;" horiz-adv-x="905" d="M549 1540h-100l315 366h168zM647 467q-256 -4 -370.5 -62.5t-114.5 -152.5q0 -70 47 -118t131 -48q78 0 142.5 34t111.5 79zM674 602q23 117 -32.5 181.5t-184.5 64.5q-72 0 -148 -24.5t-135 -59.5l-16 115q59 35 143 59.5t172 24.5t156.5 -22.5t112.5 -70t59.5 -118 t-4.5 -166.5l-80 -389q-10 -55 1 -85t75 -28l-23 -104q-49 -4 -83 7t-54.5 29.5t-29.5 43t-11 51.5h-2q-55 -59 -132 -97.5t-157 -38.5q-61 0 -111.5 22.5t-86 59.5t-55 84t-19.5 97q0 76 35.5 136t112.5 102t198 62.5t289 18.5zM823 1272q0 -49 -19.5 -89t-53 -69 t-79.5 -44t-98 -15q-98 0 -167.5 54t-69.5 146q0 49 19.5 89t53 70t80 46.5t99.5 16.5q100 0 167.5 -56.5t67.5 -148.5zM733 1270q0 59 -42 96t-105 37q-68 0 -113 -40t-45 -101q0 -59 42 -96.5t105 -37.5q66 0 112 40.5t46 101.5z" />
<glyph unicode="&#x1fc;" horiz-adv-x="1677" d="M1190 1403h-100l315 366h168zM811 477l133 688l-526 -688h393zM53 0h-145l983 1280h848l-23 -121h-643l-88 -457h535l-23 -120h-536l-91 -461h643l-22 -121h-774l69 356h-460z" />
<glyph unicode="&#x1fd;" horiz-adv-x="1525" d="M829 1061h-100l315 366h168zM1079 565q109 0 238 2q8 20 11 42t3 44q0 90 -56 143.5t-157 53.5q-57 0 -108.5 -21.5t-92 -60.5t-71.5 -90t-45 -113h278zM653 461q-135 0 -228 -16.5t-151.5 -44t-85 -66.5t-26.5 -88q0 -72 48 -115t132 -43q72 0 158 43t170 145 q-23 79 -17 185zM782 791q66 78 154 126t199 48q72 0 132 -21.5t103 -61.5t67.5 -95.5t24.5 -122.5q0 -47 -11 -97.5t-32 -95.5l-637 -4q-2 -12 -2 -23.5v-21.5q0 -158 84 -244t226 -86q59 0 118.5 15.5t106.5 37.5l16 -114q-49 -27 -118.5 -42.5t-133.5 -15.5 q-131 0 -229 59.5t-150 168.5q-92 -123 -192 -175.5t-201 -52.5q-63 0 -114.5 22.5t-88 58.5t-56 82t-19.5 95q0 76 36.5 137.5t113.5 103.5t197 63.5t288 15.5l10 51q23 117 -29.5 181.5t-181.5 64.5q-72 0 -148.5 -24.5t-136.5 -59.5l-16 115q59 35 145 60.5t174 25.5 q117 0 194.5 -43t106.5 -131z" />
<glyph unicode="&#x1fe;" horiz-adv-x="1439" d="M1405 721q0 -147 -53.5 -282.5t-147.5 -239t-223 -165t-283 -61.5q-96 0 -180 26t-153 71l-166 -207h-113l209 262q-84 78 -132 190.5t-48 247.5q0 147 53 281.5t147.5 238t224.5 164t283 60.5q197 0 338 -101l170 211h113l-213 -266q82 -78 128 -187.5t46 -242.5z M1083 1108q-117 82 -272 82q-127 0 -231.5 -52.5t-178 -138.5t-113.5 -197.5t-40 -228.5q0 -106 34.5 -194t94.5 -152zM444 170q115 -80 267 -80q127 0 230 53.5t177 139.5t114 197.5t40 228.5q0 104 -32 190t-91 152zM899 1403h-100l315 366h168z" />
<glyph unicode="&#x1ff;" horiz-adv-x="1085" d="M1018 532q0 -109 -38 -210t-106.5 -177.5t-165 -123t-212.5 -46.5q-68 0 -125.5 16.5t-106.5 47.5l-139 -176h-117l187 235q-55 57 -85 135t-30 170q0 109 38 209.5t105.5 178t163.5 125t213 47.5q131 0 229 -64l142 178h116q-39 -53 -75 -98q-31 -41 -62.5 -79 t-48.5 -60q55 -57 86 -136.5t31 -171.5zM756 805q-35 23 -77 35t-91 12q-90 0 -161 -40t-120 -102.5t-74.5 -141.5t-25.5 -158q0 -127 67 -213zM889 524q0 131 -68 217l-481 -606q72 -47 170 -47q88 0 158.5 39t120 100.5t75 139t25.5 157.5zM645 1061h-100l315 366h168z " />
<glyph unicode="&#x218;" horiz-adv-x="1005" d="M342 -186q8 33 39 56.5t76 18.5q53 -4 78.5 -47t15.5 -100q-16 -80 -81 -141.5t-157 -108.5l-41 45q86 47 116 89t38 77q8 37 -11.5 60.5t-72.5 50.5zM465 90q68 0 124 17.5t98 50t64.5 78t22.5 98.5q0 49 -20.5 87t-57.5 69.5t-88 58t-112 55.5q-61 27 -117.5 58.5 t-99.5 71.5t-69 91.5t-26 116.5q0 88 35 155.5t94.5 113.5t136 70t160.5 24q113 0 217.5 -33t178.5 -80l-33 -125q-37 25 -82 47.5t-94 38.5t-100.5 25.5t-98.5 9.5q-57 0 -109.5 -15.5t-91.5 -45t-61.5 -72.5t-22.5 -99q0 -90 75 -144t198 -107q66 -29 123 -62t100 -75 t67.5 -96t24.5 -124q0 -86 -35 -155.5t-94 -118.5t-140 -75t-173 -26q-123 0 -238 38t-198 93l32 127q88 -59 197 -100t213 -41z" />
<glyph unicode="&#x219;" horiz-adv-x="778" d="M193 -186q8 33 39 56.5t76 18.5q53 -4 78.5 -47t15.5 -100q-16 -80 -81 -141.5t-157 -108.5l-41 45q86 47 116 89t38 77q8 37 -11.5 60.5t-72.5 50.5zM670 264q0 -66 -27 -119t-73 -91t-108.5 -59.5t-135.5 -21.5q-96 0 -182.5 30t-151.5 73l43 117q72 -47 147.5 -77 t153.5 -30q43 0 81 10t66.5 32t46 51.5t17.5 70.5q0 59 -50.5 97t-154.5 85q-49 23 -90 46.5t-70.5 52t-47 67.5t-17.5 92q0 63 26.5 114.5t70.5 86.5t101.5 54.5t120.5 19.5q90 0 170 -26t152 -69l-41 -116q-74 47 -143.5 72.5t-145.5 25.5q-80 0 -134 -39t-54 -106 q0 -33 12 -56.5t36.5 -43t62.5 -39t89 -44.5t93 -49t73 -54t47.5 -68t16.5 -89z" />
<glyph unicode="&#x21a;" horiz-adv-x="1112" d="M334 -186q8 33 39 56.5t76 18.5q53 -4 78.5 -47t15.5 -100q-16 -80 -81 -141.5t-157 -108.5l-41 45q86 47 116 89t38 77q8 37 -11.5 60.5t-72.5 50.5zM762 1157l-225 -1157h-129l225 1157h-453l25 123h1030l-23 -123h-450z" />
<glyph unicode="&#x21b;" horiz-adv-x="684" d="M172 -186q8 33 39 56.5t76 18.5q53 -4 78.5 -47t15.5 -100q-16 -80 -81 -141.5t-157 -108.5l-41 45q86 47 116 89t38 77q8 37 -11.5 60.5t-72.5 50.5zM543 6q-41 -16 -94.5 -26.5t-100.5 -10.5q-104 0 -174 51.5t-70 155.5q0 29 5.5 58.5t13.5 64.5l115 518l-138 10l6 80 l158 33l49 213h121l-49 -219h309l-6 -115h-330l-116 -530q-6 -29 -11.5 -50.5t-5.5 -43.5q0 -59 39 -86t98 -27q47 0 85 10t75 25z" />
<glyph unicode="&#x237;" horiz-adv-x="423" d="M-207 -420q55 23 96 50.5t71 67.5t50.5 95t34.5 129q0 -4 8 38t21.5 111.5t32 160t36.5 186.5q43 223 99 510l129 26q-55 -295 -101 -524q-18 -98 -36.5 -191.5t-33 -166t-22.5 -115.5t-8 -39q-18 -92 -44 -159.5t-62.5 -119t-86 -88t-114.5 -63.5z" />
<glyph unicode="&#x2c6;" horiz-adv-x="813" d="M723 1061l-137 276h-4l-242 -276h-119l305 373h144l159 -373h-106z" />
<glyph unicode="&#x2c7;" horiz-adv-x="813" d="M399 1423l133 -278h5l243 278h119l-305 -372h-141l-160 372h106z" />
<glyph unicode="&#x2d8;" horiz-adv-x="813" d="M901 1432q-25 -76 -59.5 -143.5t-79.5 -119t-101.5 -81t-123.5 -29.5q-72 0 -119 30.5t-76 82t-40 119t-9 141.5h94q6 -131 45 -201t117 -70q145 0 252 271h100v0z" />
<glyph unicode="&#x2d9;" horiz-adv-x="811" d="M649 1212q0 -41 -26.5 -70.5t-69.5 -29.5t-68.5 29.5t-25.5 70.5t25.5 70t68.5 29t69.5 -29t26.5 -70z" />
<glyph unicode="&#x2da;" horiz-adv-x="813" d="M811 1272q0 -49 -19.5 -89t-53 -69t-80 -44t-97.5 -15q-98 0 -167.5 54t-69.5 146q0 49 19 89t53 70t80 46.5t99 16.5q100 0 168 -56.5t68 -148.5zM721 1270q0 59 -42 96t-106 37q-68 0 -112.5 -40t-44.5 -101q0 -59 42 -96.5t105 -37.5q66 0 112 40.5t46 101.5z" />
<glyph unicode="&#x2db;" horiz-adv-x="813" d="M446 -459q-88 -47 -186 -47q-43 0 -83 13.5t-71.5 38t-50 60.5t-18.5 81q0 68 37 127t95 105t128 79t137 49h129q-74 -29 -148.5 -65.5t-134 -80.5t-97.5 -94.5t-38 -107.5q0 -59 42 -87t100 -28q41 0 82 11.5t82 27.5l-5 -82v0z" />
<glyph unicode="&#x2dc;" horiz-adv-x="813" d="M907 1303q-33 -104 -82 -169t-131 -65q-51 0 -93 22.5t-78 49t-66.5 49t-61.5 22.5q-37 0 -61.5 -35.5t-46.5 -93.5h-92q31 104 80 169t133 65q51 0 93 -22.5t77.5 -49t66.5 -49t62 -22.5q35 0 59.5 34.5t46.5 94.5h94v0z" />
<glyph unicode="&#x2dd;" horiz-adv-x="813" d="M674 1051h-113l330 362h141zM354 1051h-110l305 362h141z" />
<glyph unicode="&#x1e80;" horiz-adv-x="1851" d="M494 0h-127l-117 1280h135l84 -1092l539 1092h155l119 -1092l498 1092h137l-606 -1280h-127l-125 1120zM1050 1403l-239 366h164l170 -366h-95z" />
<glyph unicode="&#x1e81;" horiz-adv-x="1329" d="M215 -4l-98 942h131l67 -748l394 750h116l101 -754l344 752h143l-463 -942h-114l-101 756l-407 -756h-113zM725 1061l-239 366h164l170 -366h-95z" />
<glyph unicode="&#x1e82;" horiz-adv-x="1851" d="M1124 1403h-100l315 366h168zM494 0h-127l-117 1280h135l84 -1092l539 1092h155l119 -1092l498 1092h137l-606 -1280h-127l-125 1120z" />
<glyph unicode="&#x1e83;" horiz-adv-x="1329" d="M844 1061h-100l315 366h168zM215 -4l-98 942h131l67 -748l394 750h116l101 -754l344 752h143l-463 -942h-114l-101 756l-407 -756h-113z" />
<glyph unicode="&#x1e84;" horiz-adv-x="1851" d="M1430 1556q0 -41 -26.5 -71.5t-69.5 -30.5q-45 0 -73 31t-28 71q0 41 28 71t73 30q43 0 69.5 -30t26.5 -71zM1035 1556q0 -41 -27 -71.5t-72 -30.5q-43 0 -69.5 31t-26.5 71q0 41 26.5 71t69.5 30q45 0 72 -30t27 -71zM494 0h-127l-117 1280h135l84 -1092l539 1092h155 l119 -1092l498 1092h137l-606 -1280h-127l-125 1120z" />
<glyph unicode="&#x1e85;" horiz-adv-x="1329" d="M1106 1214q0 -41 -26.5 -71.5t-69.5 -30.5q-45 0 -73 31t-28 71q0 41 28 71t73 30q43 0 69.5 -30t26.5 -71zM711 1214q0 -41 -27 -71.5t-72 -30.5q-43 0 -69.5 31t-26.5 71q0 41 26.5 71t69.5 30q45 0 72 -30t27 -71zM215 -4l-98 942h131l67 -748l394 750h116l101 -754 l344 752h143l-463 -942h-114l-101 756l-407 -756h-113z" />
<glyph unicode="&#x2000;" horiz-adv-x="1007" />
<glyph unicode="&#x2001;" horiz-adv-x="2015" />
<glyph unicode="&#x2002;" horiz-adv-x="1007" />
<glyph unicode="&#x2003;" horiz-adv-x="2015" />
<glyph unicode="&#x2004;" horiz-adv-x="671" />
<glyph unicode="&#x2005;" horiz-adv-x="503" />
<glyph unicode="&#x2006;" horiz-adv-x="335" />
<glyph unicode="&#x2007;" horiz-adv-x="335" />
<glyph unicode="&#x2008;" horiz-adv-x="251" />
<glyph unicode="&#x2009;" horiz-adv-x="155" />
<glyph unicode="&#x200a;" horiz-adv-x="111" />
<glyph unicode="&#x2010;" horiz-adv-x="598" d="M74 438v119h463v-119h-463z" />
<glyph unicode="&#x2011;" horiz-adv-x="598" d="M74 438v119h463v-119h-463z" />
<glyph unicode="&#x2012;" horiz-adv-x="598" d="M74 438v119h463v-119h-463z" />
<glyph unicode="&#x2013;" horiz-adv-x="911" d="M66 440l6 101h774l6 -101h-786z" />
<glyph unicode="&#x2014;" horiz-adv-x="1873" d="M66 440l6 101h1736l7 -101h-1749z" />
<glyph unicode="&#x2018;" horiz-adv-x="382" d="M401 918q-10 -39 -42.5 -64t-73.5 -25q-57 0 -94 43t-37 101q0 59 30.5 114.5t77.5 101.5t105.5 84t111.5 64l45 -57q-41 -23 -82 -52.5t-73.5 -62t-53 -68.5t-20.5 -69q0 -35 33.5 -63.5t72.5 -46.5z" />
<glyph unicode="&#x2019;" horiz-adv-x="382" d="M223 1260q10 39 43 63.5t76 24.5q55 0 92 -43t37 -103q0 -59 -30.5 -113.5t-79 -100.5t-105.5 -84t-111 -64l-45 57q41 23 82 52.5t74 62t53.5 67.5t20.5 68q0 37 -34 66t-73 47z" />
<glyph unicode="&#x201a;" horiz-adv-x="382" d="M2 117q10 39 43 63.5t76 24.5q55 0 92 -43t37 -103q0 -59 -31 -113.5t-79 -100.5t-105.5 -83.5t-110.5 -64.5l-45 57q41 23 82 52.5t74 62.5t53.5 67.5t20.5 67.5q0 37 -34 66t-73 47z" />
<glyph unicode="&#x201c;" horiz-adv-x="772" d="M805 918q-10 -39 -42 -64t-75 -25q-57 0 -94 43t-37 101q0 59 30.5 114.5t78 101.5t105.5 84t112 64l45 -57q-41 -23 -82 -52.5t-74 -62t-53.5 -68.5t-20.5 -69q0 -35 34 -63.5t73 -46.5zM401 918q-10 -39 -42.5 -64t-73.5 -25q-57 0 -94 43t-37 101q0 59 30.5 114.5 t77.5 101.5t105.5 84t111.5 64l45 -57q-41 -23 -82 -52.5t-73.5 -62t-53 -68.5t-20.5 -69q0 -35 33.5 -63.5t72.5 -46.5z" />
<glyph unicode="&#x201d;" horiz-adv-x="772" d="M627 1260q10 39 42.5 63.5t75.5 24.5q55 0 93.5 -43t38.5 -103q0 -59 -31 -113.5t-79 -100.5t-106.5 -84t-111.5 -64l-43 57q41 23 82 52.5t72.5 62t52 67.5t20.5 68q0 37 -33.5 66t-72.5 47zM223 1260q10 39 43 63.5t76 24.5q55 0 92 -43t37 -103q0 -59 -30.5 -113.5 t-79 -100.5t-105.5 -84t-111 -64l-45 57q41 23 82 52.5t74 62t53.5 67.5t20.5 68q0 37 -34 66t-73 47z" />
<glyph unicode="&#x201e;" horiz-adv-x="772" d="M408 117q10 39 42.5 63.5t75.5 24.5q55 0 93 -43t38 -103q0 -59 -30.5 -113.5t-78.5 -100.5t-106.5 -83.5t-111.5 -64.5l-43 57q41 23 82 52.5t72.5 62.5t52 67.5t20.5 67.5q0 37 -33.5 66t-72.5 47zM4 117q10 39 43 63.5t76 24.5q55 0 92 -43t37 -103q0 -59 -31 -113.5 t-79 -100.5t-105 -83.5t-111 -64.5l-45 57q41 23 82 52.5t74 62.5t53.5 67.5t20.5 67.5q0 37 -34 66t-73 47z" />
<glyph unicode="&#x2020;" horiz-adv-x="954" d="M72 801l-4 96h356v383h104v-383h357l-2 -96h-355v-1059h-104v1059h-352z" />
<glyph unicode="&#x2021;" horiz-adv-x="954" d="M72 831l-4 97h356v352h104v-352h357l-2 -97h-355v-643h355l2 -96h-357v-350h-104v350h-356l4 96h352v643h-352z" />
<glyph unicode="&#x2022;" horiz-adv-x="925" d="M856 475q0 -23 -12.5 -63.5t-29.5 -83.5t-36.5 -80t-36.5 -53q-16 -16 -53 -36t-80 -37.5t-84 -29.5t-63 -12q-23 0 -63 12t-83 29.5t-79.5 37t-51.5 36.5q-14 16 -34.5 53t-39 80t-30.5 84t-12 63q0 23 12 63t30.5 83t38 79.5t35.5 53.5q14 14 52 34.5t81 38t83 29.5 t63 12t62.5 -12t82.5 -29.5t80 -38t53 -34.5q16 -16 36 -53t37 -80t29.5 -83t12.5 -63z" />
<glyph unicode="&#x2026;" horiz-adv-x="1159" d="M997 80q0 -41 -27.5 -74t-74.5 -33q-45 0 -73.5 33t-28.5 74t28.5 71.5t73.5 30.5q47 0 74.5 -30.5t27.5 -71.5zM610 80q0 -41 -28.5 -74t-73.5 -33t-73.5 33t-28.5 74t28.5 71.5t73.5 30.5t73.5 -30.5t28.5 -71.5zM221 80q0 -41 -27.5 -74t-72.5 -33q-47 0 -76 33 t-29 74t29 71.5t76 30.5q45 0 72.5 -30.5t27.5 -71.5z" />
<glyph unicode="&#x202f;" horiz-adv-x="403" />
<glyph unicode="&#x2030;" horiz-adv-x="2291" d="M813 1024q0 -78 -28.5 -147.5t-80 -120.5t-119 -81t-147.5 -30q-68 0 -126 21.5t-101 60.5t-67.5 95.5t-24.5 125.5q0 78 28.5 146.5t80 121t118 82t143.5 29.5q68 0 127.5 -20.5t103.5 -60.5t68.5 -96t24.5 -126zM209 -31h-119l1294 1340h117zM1477 328 q0 -78 -30 -146.5t-80 -120t-118.5 -81t-146.5 -29.5q-68 0 -126 21.5t-101.5 60.5t-67 95t-23.5 126q0 78 29 146.5t79 119.5t117.5 81t145.5 30q68 0 127 -20.5t102 -60.5t68 -96t25 -126zM721 1010q0 104 -65.5 165.5t-170.5 61.5q-59 0 -109 -22.5t-87 -60.5t-57.5 -90 t-20.5 -110q0 -104 66.5 -163.5t164.5 -59.5q59 0 110.5 21.5t88.5 59.5t58.5 88.5t21.5 109.5zM1384 319q0 104 -67.5 164t-165.5 60q-59 0 -109.5 -22.5t-87 -60.5t-58.5 -90.5t-22 -109.5q0 -104 67 -163.5t167 -59.5q57 0 108.5 21.5t88 60.5t58 90t21.5 110zM2249 328 q0 -78 -30 -146.5t-80 -120t-118.5 -81t-146.5 -29.5q-68 0 -126 21.5t-101 60.5t-67 95t-24 126q0 78 29 146.5t79 119.5t117.5 81t145.5 30q68 0 127.5 -20.5t102.5 -60.5t67.5 -96t24.5 -126zM2157 319q0 104 -67 164t-167 60q-59 0 -109.5 -22.5t-87 -60.5t-58 -90.5 t-21.5 -109.5q0 -104 66.5 -163.5t166.5 -59.5q57 0 108.5 21.5t88.5 60.5t58.5 90t21.5 110z" />
<glyph unicode="&#x2039;" horiz-adv-x="671" d="M485 53l-432 359l27 135l571 356l-8 -110l-473 -324v-2l352 -328z" />
<glyph unicode="&#x203a;" horiz-adv-x="671" d="M25 51l8 111l471 321v2l-350 330l36 88l433 -360l-25 -135z" />
<glyph unicode="&#x2044;" horiz-adv-x="1220" d="M68 -31h-109l1231 1340h108z" />
<glyph unicode="&#x205f;" horiz-adv-x="503" />
<glyph unicode="&#x2070;" horiz-adv-x="675" d="M311 547q-76 0 -126 26.5t-80.5 69.5t-43 96.5t-12.5 106.5q0 70 17.5 157t59.5 163.5t108.5 128t164.5 51.5q76 0 126 -28t81 -71t43.5 -96t12.5 -107q0 -70 -17.5 -156.5t-58.5 -162.5t-109 -127t-166 -51zM553 1053q0 29 -6 64.5t-22.5 67.5t-48.5 53.5t-83 21.5 q-72 0 -117 -50.5t-70.5 -119t-34.5 -138t-9 -108.5q0 -31 5 -67t21.5 -67.5t47 -53t79.5 -21.5q74 0 120 50t73 117.5t36 138.5t9 112z" />
<glyph unicode="&#x2074;" horiz-adv-x="675" d="M512 754l-41 -197h-100l41 197h-385v71l487 512h121l-105 -499h123l-14 -84h-127zM514 1229l-373 -391h289z" />
<glyph unicode="&#x2075;" horiz-adv-x="675" d="M233 1022q10 2 25.5 2h32.5q53 0 106.5 -11.5t95.5 -38t68.5 -67.5t26.5 -98q0 -61 -23.5 -110.5t-64.5 -84t-97.5 -54t-121.5 -19.5q-29 0 -63 5t-67.5 13t-64.5 20.5t-55 28.5l28 90q47 -29 105.5 -49t118.5 -20q84 0 140 45t56 125q0 41 -19.5 68.5t-50 45t-68.5 24.5 t-75 7q-84 0 -135 -14l-20 24l120 377h426l-10 -90h-344l-70 -219v0z" />
<glyph unicode="&#x2076;" horiz-adv-x="675" d="M631 1260q-68 -8 -135.5 -30t-126 -57.5t-106.5 -85t-77 -114.5l2 -2q45 29 99.5 46t109.5 17q104 0 165 -59.5t61 -151.5q0 -59 -21.5 -109t-60.5 -89t-93.5 -60.5t-117.5 -21.5q-68 0 -119 21.5t-86 58t-52.5 87t-17.5 107.5q0 104 44 194.5t119 160t176.5 114.5 t217.5 60zM160 807q0 -72 44 -125t130 -53q84 0 133 54t49 130q0 66 -44 101.5t-116 35.5q-49 0 -97 -15t-87 -38q-8 -23 -10 -45t-2 -45z" />
<glyph unicode="&#x2077;" horiz-adv-x="675" d="M119 1239l18 92h547l-2 -78l-485 -694h-113l483 680h-448z" />
<glyph unicode="&#x2078;" horiz-adv-x="675" d="M606 768q0 -53 -23.5 -95t-63.5 -71t-91 -43t-109 -14q-51 0 -101 11t-90 34.5t-64.5 59.5t-24.5 87q0 45 17.5 80t46 62.5t66.5 46t79 30.5q-49 29 -90 69t-41 99q0 51 22.5 92t61.5 70t90 45.5t106 16.5q51 0 98.5 -11.5t83 -36t57 -61.5t21.5 -88q0 -82 -54 -131 t-134 -78q53 -29 95 -70t42 -104zM553 1139q0 61 -46 94t-112 33t-118 -35t-52 -96q0 -31 18.5 -56.5t45 -44t57.5 -33t55 -24.5q59 20 105.5 59.5t46.5 102.5zM502 758q0 33 -18.5 59.5t-46 46t-60.5 33.5t-60 25q-31 -8 -61.5 -22.5t-55 -35t-40 -48.5t-15.5 -62 q0 -33 15.5 -57.5t41 -40t59.5 -23.5t69 -8q70 0 121 33.5t51 99.5z" />
<glyph unicode="&#x2079;" horiz-adv-x="675" d="M80 629q68 8 135.5 30.5t126.5 58.5t106.5 85t77.5 115l-4 2q-45 -29 -100 -45.5t-109 -16.5q-104 0 -164.5 58.5t-60.5 150.5q0 57 21.5 108.5t60.5 89.5t92 60.5t119 22.5q68 0 119 -21.5t87 -58.5t53 -87.5t17 -105.5q0 -104 -44 -195.5t-119.5 -161t-178 -114.5 t-217.5 -59zM553 1083q0 72 -45 125.5t-131 53.5t-134 -55.5t-48 -129.5q0 -68 43 -102.5t114 -34.5q51 0 100.5 15.5t86.5 39.5q14 41 14 88z" />
<glyph unicode="&#x207a;" horiz-adv-x="675" d="M393 915v-229h-69v229h-222l2 68h220v225h69v-225h217l4 -68h-221z" />
<glyph unicode="&#x207b;" horiz-adv-x="675" d="M102 913l2 68h506l4 -68h-512z" />
<glyph unicode="&#x2080;" horiz-adv-x="675" d="M311 -305q-76 0 -126 26.5t-80.5 69.5t-43 96.5t-12.5 106.5q0 70 17.5 157t59.5 163.5t108.5 128t164.5 51.5q76 0 126 -28t81 -71t43.5 -96t12.5 -106q0 -70 -17.5 -157t-58.5 -163t-109 -127t-166 -51zM553 201q0 29 -6 64.5t-22.5 67.5t-48.5 53.5t-83 21.5 q-72 0 -117 -50.5t-70.5 -119t-34.5 -138t-9 -108.5q0 -31 5 -67t21.5 -67.5t47 -53t79.5 -21.5q74 0 120 50t73 117.5t36 138.5t9 112z" />
<glyph unicode="&#x2081;" horiz-adv-x="675" d="M268 -293l140 664l-193 -41l14 90l310 69l-166 -782h-105z" />
<glyph unicode="&#x2082;" horiz-adv-x="675" d="M16 -293q-2 0 0 15.5t4 33.5q2 23 7 49q113 86 204 150.5t154.5 118t97 103.5t33.5 106q0 61 -46 93t-110 32q-53 0 -105 -19.5t-93 -48.5l-25 82q51 35 114.5 55.5t125.5 20.5q49 0 95 -13.5t81 -39t56.5 -63.5t21.5 -87q0 -68 -34 -124t-97.5 -111.5t-153.5 -118 t-201 -144.5h424l-10 -90h-543z" />
<glyph unicode="&#x2083;" horiz-adv-x="675" d="M381 113q43 -4 81 -16.5t67.5 -35t47 -54.5t17.5 -75q0 -55 -25.5 -99t-67.5 -74.5t-98.5 -48t-117.5 -17.5t-133 17.5t-121 47.5l32 88q47 -29 106.5 -48t117.5 -19q37 0 72.5 9t63.5 27.5t44 47t16 65.5t-17 61.5t-47 40t-67 22.5t-76 7q-23 0 -44 -1t-42 -3l13 78 q39 6 93 16.5t103.5 29t84 48t34.5 74.5q0 59 -46 84t-103 25q-53 0 -106.5 -17.5t-94.5 -40.5l-25 82q49 29 110.5 46.5t127.5 17.5q43 0 88 -9.5t80 -31t57.5 -55t22.5 -80.5t-22.5 -82t-57.5 -60.5t-79 -42t-89 -24.5z" />
<glyph unicode="&#x2084;" horiz-adv-x="675" d="M512 -98l-41 -197h-100l41 197h-385v71l487 512h121l-105 -499h123l-14 -84h-127zM514 377l-373 -391h289z" />
<glyph unicode="&#x2085;" horiz-adv-x="675" d="M233 170q10 2 25.5 2h32.5q53 0 106.5 -11t95.5 -38t68.5 -68t26.5 -98q0 -61 -23.5 -110.5t-64.5 -84t-97.5 -54t-121.5 -19.5q-29 0 -63 5t-67.5 13t-64.5 20.5t-55 28.5l28 90q47 -29 105.5 -49t118.5 -20q84 0 140 45t56 125q0 41 -19.5 68.5t-50 45t-68.5 24.5 t-75 7q-84 0 -135 -14l-20 24l120 377h426l-10 -90h-344l-70 -219v0z" />
<glyph unicode="&#x2086;" horiz-adv-x="675" d="M631 408q-68 -8 -135.5 -30t-126 -57.5t-106.5 -85t-77 -114.5l2 -2q45 29 99.5 46t109.5 17q104 0 165 -59.5t61 -151.5q0 -59 -21.5 -109t-60.5 -89t-93.5 -60.5t-117.5 -21.5q-68 0 -119 21.5t-86 58t-52.5 87t-17.5 107.5q0 104 44 194.5t119 160t176.5 114.5 t217.5 60zM160 -45q0 -72 44 -125t130 -53q84 0 133 54t49 130q0 66 -44 101.5t-116 35.5q-49 0 -97 -15t-87 -38q-8 -23 -10 -45t-2 -45z" />
<glyph unicode="&#x2087;" horiz-adv-x="675" d="M119 387l18 92h547l-2 -78l-485 -694h-113l483 680h-448z" />
<glyph unicode="&#x2088;" horiz-adv-x="675" d="M606 -84q0 -53 -23.5 -95t-63.5 -71t-91 -43t-109 -14q-51 0 -101 11t-90 34.5t-64.5 59.5t-24.5 87q0 45 17.5 80t46 62.5t66.5 46t79 30.5q-49 29 -90 69t-41 99q0 51 22.5 92.5t61.5 70t90 45t106 16.5q51 0 98.5 -11.5t83 -36t57 -61.5t21.5 -88q0 -82 -54 -131 t-134 -78q53 -29 95 -70t42 -104zM553 287q0 61 -46 94t-112 33t-118 -35t-52 -96q0 -31 18.5 -56.5t45 -44t57.5 -33t55 -24.5q59 20 105.5 59.5t46.5 102.5zM502 -94q0 33 -18.5 59.5t-46 46t-60.5 33.5t-60 25q-31 -8 -61.5 -22.5t-55 -35t-40 -48t-15.5 -62.5 q0 -33 15.5 -57.5t41 -40t59.5 -23.5t69 -8q70 0 121 33.5t51 99.5z" />
<glyph unicode="&#x2089;" horiz-adv-x="675" d="M80 -223q68 8 135.5 30.5t126.5 58.5t106.5 85t77.5 115l-4 2q-45 -29 -100 -45.5t-109 -16.5q-104 0 -164.5 58.5t-60.5 150.5q0 57 21.5 108.5t60.5 89.5t92 60.5t119 22.5q68 0 119 -21.5t87 -58.5t53 -87t17 -106q0 -104 -44 -195t-119.5 -161t-178 -115t-217.5 -59z M553 231q0 72 -45 125.5t-131 53.5t-134 -55.5t-48 -129.5q0 -68 43 -102.5t114 -34.5q51 0 100.5 15.5t86.5 39.5q14 41 14 88z" />
<glyph unicode="&#x208a;" horiz-adv-x="675" d="M393 63v-229h-69v229h-222l2 68h220v225h69v-225h217l4 -68h-221z" />
<glyph unicode="&#x20ac;" horiz-adv-x="1032" d="M145 762l-6 92h152q35 98 84 178t113.5 138.5t143.5 90t173 31.5q90 0 182 -27.5t154 -74.5l-51 -107q-57 45 -138.5 71t-156.5 26q-131 0 -223.5 -86t-147.5 -240h483l-6 -92h-506q-6 -25 -12 -50.5t-10 -52.5q-8 -35 -12.5 -70.5t-8.5 -66.5h414l6 -92h-422 q4 -168 80 -258t250 -90q125 0 223 43l-2 -113q-51 -23 -108.5 -32t-122.5 -11q-229 0 -341 117t-112 344h-154l7 92h153q2 33 6 68t11 69q4 27 10 52.5t12 50.5h-117z" />
<glyph unicode="&#x2122;" horiz-adv-x="1859" d="M1718 516l-18 649h-14l-240 -639h-117l-213 639h-14l-25 -649h-94l31 766h170l202 -645h17l225 645h162l27 -766h-99zM578 1186v-670h-101v670h-287v96h687v-96h-299z" />
<glyph unicode="&#x25fc;" horiz-adv-x="942" d="M0 942h942v-942h-942v942z" />
<glyph unicode="&#xf6c3;" horiz-adv-x="813" d="M170 -186q8 33 39 56.5t76 18.5q53 -4 78.5 -47t15.5 -100q-16 -80 -81 -141.5t-157 -108.5l-41 45q86 47 116 89t38 77q8 37 -11.5 60.5t-72.5 50.5z" />
<glyph horiz-adv-x="731" d="M567 317q-35 -178 -123 -261t-227 -83q-80 0 -153.5 27t-120.5 61l47 121q53 -45 112.5 -67.5t110.5 -22.5q92 0 147.5 57.5t79.5 182.5l185 948h131l-189 -963v0z" />
<glyph horiz-adv-x="1052" d="M854 197q-10 -55 0 -85t74 -28l-23 -104q-49 -4 -81.5 6t-52 28.5t-29 42t-11.5 47.5h-4q-55 -57 -127 -94t-158 -37q-78 0 -145.5 31t-116.5 85t-76.5 129t-27.5 165q0 121 40 225.5t110.5 182t165.5 122.5t206 45q74 0 143.5 -24.5t122.5 -65.5l142 90zM838 743 q-43 47 -111 77t-141 30q-84 0 -152.5 -38t-120 -100.5t-79 -143.5t-27.5 -167q0 -145 75.5 -231t190.5 -86q76 0 139.5 30.5t116.5 73.5z" />
<glyph horiz-adv-x="1052" d="M807 -57q-43 -219 -151.5 -332t-305.5 -113q-102 0 -190 31t-152 70l58 114q49 -35 126.5 -67.5t163.5 -32.5q133 0 212 80t114 256l25 127q-53 -39 -114 -71t-151 -32q-78 0 -145.5 31t-116.5 85t-76.5 129t-27.5 165q0 121 40 225.5t110.5 182t165.5 122.5t206 45 q74 0 143.5 -24.5t122.5 -65.5l142 90zM838 743q-43 47 -111 77t-141 30q-84 0 -152.5 -38t-120 -100.5t-79 -143.5t-27.5 -167q0 -145 75.5 -231t190.5 -86q76 0 139.5 29.5t116.5 70.5z" />
<glyph horiz-adv-x="972" d="M854 197q-10 -55 0 -85t74 -28l-23 -104q-49 -4 -81.5 6t-52 28.5t-29 42t-11.5 47.5h-4q-55 -57 -127 -94t-158 -37q-78 0 -145.5 31t-116.5 85t-76.5 129t-27.5 165q0 121 40 225.5t110.5 182t165.5 122.5t206 45q74 0 143.5 -24.5t122.5 -65.5l142 90zM838 743 q-43 47 -111 77t-141 30q-84 0 -152.5 -38t-120 -100.5t-79 -143.5t-27.5 -167q0 -145 75.5 -231t190.5 -86q76 0 139.5 30.5t116.5 73.5zM604 1061l-239 366h164l170 -366h-95z" />
<glyph horiz-adv-x="972" d="M622 1061h-100l315 366h168zM854 197q-10 -55 0 -85t74 -28l-23 -104q-49 -4 -81.5 6t-52 28.5t-29 42t-11.5 47.5h-4q-55 -57 -127 -94t-158 -37q-78 0 -145.5 31t-116.5 85t-76.5 129t-27.5 165q0 121 40 225.5t110.5 182t165.5 122.5t206 45q74 0 143.5 -24.5 t122.5 -65.5l142 90zM838 743q-43 47 -111 77t-141 30q-84 0 -152.5 -38t-120 -100.5t-79 -143.5t-27.5 -167q0 -145 75.5 -231t190.5 -86q76 0 139.5 30.5t116.5 73.5z" />
<glyph horiz-adv-x="972" d="M829 1061l-137 276h-4l-242 -276h-119l305 373h144l159 -373h-106zM854 197q-10 -55 0 -85t74 -28l-23 -104q-49 -4 -81.5 6t-52 28.5t-29 42t-11.5 47.5h-4q-55 -57 -127 -94t-158 -37q-78 0 -145.5 31t-116.5 85t-76.5 129t-27.5 165q0 121 40 225.5t110.5 182 t165.5 122.5t206 45q74 0 143.5 -24.5t122.5 -65.5l142 90zM838 743q-43 47 -111 77t-141 30q-84 0 -152.5 -38t-120 -100.5t-79 -143.5t-27.5 -167q0 -145 75.5 -231t190.5 -86q76 0 139.5 30.5t116.5 73.5z" />
<glyph horiz-adv-x="1052" d="M854 197q-10 -55 0 -85t74 -28l-23 -104q-49 -4 -81.5 6t-52 28.5t-29 42t-11.5 47.5h-4q-55 -57 -127 -94t-158 -37q-78 0 -145.5 31t-116.5 85t-76.5 129t-27.5 165q0 121 40 225.5t110.5 182t165.5 122.5t206 45q74 0 143.5 -24.5t122.5 -65.5l142 90zM838 743 q-43 47 -111 77t-141 30q-84 0 -152.5 -38t-120 -100.5t-79 -143.5t-27.5 -167q0 -145 75.5 -231t190.5 -86q76 0 139.5 30.5t116.5 73.5zM1022 1303q-33 -104 -82 -169t-131 -65q-51 0 -93 22.5t-78 49t-66.5 49t-61.5 22.5q-37 0 -61.5 -35.5t-46.5 -93.5h-92 q31 104 80 169t133 65q51 0 93 -22.5t77.5 -49t66.5 -49t62 -22.5q35 0 59.5 34.5t46.5 94.5h94v0z" />
<glyph horiz-adv-x="972" d="M950 1214q0 -41 -26.5 -71.5t-69.5 -30.5q-45 0 -73 31t-28 71q0 41 28 71t73 30q43 0 69.5 -30t26.5 -71zM555 1214q0 -41 -27 -71.5t-72 -30.5q-43 0 -69.5 31t-26.5 71q0 41 26.5 71t69.5 30q45 0 72 -30t27 -71zM854 197q-10 -55 0 -85t74 -28l-23 -104 q-49 -4 -81.5 6t-52 28.5t-29 42t-11.5 47.5h-4q-55 -57 -127 -94t-158 -37q-78 0 -145.5 31t-116.5 85t-76.5 129t-27.5 165q0 121 40 225.5t110.5 182t165.5 122.5t206 45q74 0 143.5 -24.5t122.5 -65.5l142 90zM838 743q-43 47 -111 77t-141 30q-84 0 -152.5 -38 t-120 -100.5t-79 -143.5t-27.5 -167q0 -145 75.5 -231t190.5 -86q76 0 139.5 30.5t116.5 73.5z" />
<glyph horiz-adv-x="972" d="M936 1272q0 -49 -19.5 -89t-53 -69t-80 -44t-97.5 -15q-98 0 -167.5 54t-69.5 146q0 49 19 89t53 70t80 46.5t99 16.5q100 0 168 -56.5t68 -148.5zM846 1270q0 59 -42 96t-106 37q-68 0 -112.5 -40t-44.5 -101q0 -59 42 -96.5t105 -37.5q66 0 112 40.5t46 101.5zM854 197 q-10 -55 0 -85t74 -28l-23 -104q-49 -4 -81.5 6t-52 28.5t-29 42t-11.5 47.5h-4q-55 -57 -127 -94t-158 -37q-78 0 -145.5 31t-116.5 85t-76.5 129t-27.5 165q0 121 40 225.5t110.5 182t165.5 122.5t206 45q74 0 143.5 -24.5t122.5 -65.5l142 90zM838 743q-43 47 -111 77 t-141 30q-84 0 -152.5 -38t-120 -100.5t-79 -143.5t-27.5 -167q0 -145 75.5 -231t190.5 -86q76 0 139.5 30.5t116.5 73.5z" />
<glyph horiz-adv-x="972" d="M690 1540h-100l315 366h168zM936 1272q0 -49 -19.5 -89t-53 -69t-80 -44t-97.5 -15q-98 0 -167.5 54t-69.5 146q0 49 19 89t53 70t80 46.5t99 16.5q100 0 168 -56.5t68 -148.5zM846 1270q0 59 -42 96t-106 37q-68 0 -112.5 -40t-44.5 -101q0 -59 42 -96.5t105 -37.5 q66 0 112 40.5t46 101.5zM854 197q-10 -55 0 -85t74 -28l-23 -104q-49 -4 -81.5 6t-52 28.5t-29 42t-11.5 47.5h-4q-55 -57 -127 -94t-158 -37q-78 0 -145.5 31t-116.5 85t-76.5 129t-27.5 165q0 121 40 225.5t110.5 182t165.5 122.5t206 45q74 0 143.5 -24.5t122.5 -65.5 l142 90zM838 743q-43 47 -111 77t-141 30q-84 0 -152.5 -38t-120 -100.5t-79 -143.5t-27.5 -167q0 -145 75.5 -231t190.5 -86q76 0 139.5 30.5t116.5 73.5z" />
<glyph horiz-adv-x="1052" d="M854 197q-10 -55 0 -85t74 -28l-23 -104q-49 -4 -81.5 6t-52 28.5t-29 42t-11.5 47.5h-4q-55 -57 -127 -94t-158 -37q-78 0 -145.5 31t-116.5 85t-76.5 129t-27.5 165q0 121 40 225.5t110.5 182t165.5 122.5t206 45q74 0 143.5 -24.5t122.5 -65.5l142 90zM838 743 q-43 47 -111 77t-141 30q-84 0 -152.5 -38t-120 -100.5t-79 -143.5t-27.5 -167q0 -145 75.5 -231t190.5 -86q76 0 139.5 30.5t116.5 73.5zM385 1098l25 92h508l-8 -92h-525z" />
<glyph horiz-adv-x="1052" d="M854 197q-10 -55 0 -85t74 -28l-23 -104q-49 -4 -81.5 6t-52 28.5t-29 42t-11.5 47.5h-4q-55 -57 -127 -94t-158 -37q-78 0 -145.5 31t-116.5 85t-76.5 129t-27.5 165q0 121 40 225.5t110.5 182t165.5 122.5t206 45q74 0 143.5 -24.5t122.5 -65.5l142 90zM838 743 q-43 47 -111 77t-141 30q-84 0 -152.5 -38t-120 -100.5t-79 -143.5t-27.5 -167q0 -145 75.5 -231t190.5 -86q76 0 139.5 30.5t116.5 73.5zM1010 1432q-25 -76 -59.5 -143.5t-79.5 -119t-101.5 -81t-123.5 -29.5q-72 0 -119 30.5t-76 82t-40 119t-9 141.5h94q6 -131 45 -201 t117 -70q145 0 252 271h100v0z" />
<glyph horiz-adv-x="1052" d="M854 197q-10 -55 0 -85t74 -28l-23 -104q-98 -16 -168.5 -71.5t-85.5 -123.5q-10 -47 10.5 -78t65.5 -35q29 -2 58.5 4.5t52.5 22.5l12 -98q-29 -16 -73 -28.5t-97 -8.5q-86 8 -131 61t-27 139q18 88 91 150.5t161 97.5q-20 14 -30.5 39t-12.5 53h-4q-55 -57 -127 -94 t-158 -37q-78 0 -145.5 31t-116.5 85t-76.5 129t-27.5 165q0 121 40 225.5t110.5 182t165.5 122.5t206 45q74 0 143.5 -24.5t122.5 -65.5l142 90zM838 743q-43 47 -111 77t-141 30q-84 0 -152.5 -38t-120 -100.5t-79 -143.5t-27.5 -167q0 -145 75.5 -231t190.5 -86 q76 0 139.5 30.5t116.5 73.5z" />
<glyph horiz-adv-x="1052" d="M832 1061l-137 276h-4l-242 -276h-119l305 373h144l159 -373h-106zM807 -57q-43 -219 -151.5 -332t-305.5 -113q-102 0 -190 31t-152 70l58 114q49 -35 126.5 -67.5t163.5 -32.5q133 0 212 80t114 256l25 127q-53 -39 -114 -71t-151 -32q-78 0 -145.5 31t-116.5 85 t-76.5 129t-27.5 165q0 121 40 225.5t110.5 182t165.5 122.5t206 45q74 0 143.5 -24.5t122.5 -65.5l142 90zM838 743q-43 47 -111 77t-141 30q-84 0 -152.5 -38t-120 -100.5t-79 -143.5t-27.5 -167q0 -145 75.5 -231t190.5 -86q76 0 139.5 29.5t116.5 70.5z" />
<glyph horiz-adv-x="1052" d="M807 -57q-43 -219 -151.5 -332t-305.5 -113q-102 0 -190 31t-152 70l58 114q49 -35 126.5 -67.5t163.5 -32.5q133 0 212 80t114 256l25 127q-53 -39 -114 -71t-151 -32q-78 0 -145.5 31t-116.5 85t-76.5 129t-27.5 165q0 121 40 225.5t110.5 182t165.5 122.5t206 45 q74 0 143.5 -24.5t122.5 -65.5l142 90zM838 743q-43 47 -111 77t-141 30q-84 0 -152.5 -38t-120 -100.5t-79 -143.5t-27.5 -167q0 -145 75.5 -231t190.5 -86q76 0 139.5 29.5t116.5 70.5zM1007 1432q-25 -76 -59.5 -143.5t-79.5 -119t-101.5 -81t-123.5 -29.5 q-72 0 -119 30.5t-76 82t-40 119t-9 141.5h94q6 -131 45 -201t117 -70q145 0 252 271h100v0z" />
<glyph horiz-adv-x="1052" d="M807 -57q-43 -219 -151.5 -332t-305.5 -113q-102 0 -190 31t-152 70l58 114q49 -35 126.5 -67.5t163.5 -32.5q133 0 212 80t114 256l25 127q-53 -39 -114 -71t-151 -32q-78 0 -145.5 31t-116.5 85t-76.5 129t-27.5 165q0 121 40 225.5t110.5 182t165.5 122.5t206 45 q74 0 143.5 -24.5t122.5 -65.5l142 90zM838 743q-43 47 -111 77t-141 30q-84 0 -152.5 -38t-120 -100.5t-79 -143.5t-27.5 -167q0 -145 75.5 -231t190.5 -86q76 0 139.5 29.5t116.5 70.5zM747 1212q0 -41 -26.5 -70.5t-69.5 -29.5t-68.5 29.5t-25.5 70.5t25.5 70t68.5 29 t69.5 -29t26.5 -70z" />
<glyph horiz-adv-x="1052" d="M780.011 1123.99q-8 -32.998 -38.998 -56.4961q-30.998 -23.499 -75.9951 -18.499q-52.9971 4 -78.4951 46.9971q-25.499 42.9971 -15.499 99.9941q15.999 79.9951 80.9951 141.491t156.99 108.493l40.9971 -44.9971q-85.9941 -46.9971 -115.992 -88.9941 q-29.999 -41.998 -37.998 -76.9961q-8 -36.9971 11.499 -60.4961q19.499 -23.498 72.4961 -50.4971zM807 -57q-43 -219 -151.5 -332t-305.5 -113q-102 0 -190 31t-152 70l58 114q49 -35 126.5 -67.5t163.5 -32.5q133 0 212 80t114 256l25 127q-53 -39 -114 -71t-151 -32 q-78 0 -145.5 31t-116.5 85t-76.5 129t-27.5 165q0 121 40 225.5t110.5 182t165.5 122.5t206 45q74 0 143.5 -24.5t122.5 -65.5l142 90zM838 743q-43 47 -111 77t-141 30q-84 0 -152.5 -38t-120 -100.5t-79 -143.5t-27.5 -167q0 -145 75.5 -231t190.5 -86q76 0 139.5 29.5 t116.5 70.5z" />
<glyph horiz-adv-x="731" d="M907 1403l-137 276h-4l-242 -276h-119l305 373h144l159 -373h-106zM567 317q-35 -178 -123 -261t-227 -83q-80 0 -153.5 27t-120.5 61l47 121q53 -45 112.5 -67.5t110.5 -22.5q92 0 147.5 57.5t79.5 182.5l185 948h131l-189 -963v0z" />
<glyph horiz-adv-x="382" d="M301 469q0 -41 -28.5 -74t-73.5 -33t-74 33t-29 74t29 70.5t74 29.5t73.5 -29.5t28.5 -70.5z" />
<glyph horiz-adv-x="942" d="M831 0h-124l-45 256h-435l-145 -256h-135l567 967h148zM569 846l-280 -479h354z" />
<glyph horiz-adv-x="907" d="M637 483q78 -25 122 -80t44 -129q0 -57 -22.5 -107t-68.5 -87t-120 -58.5t-174 -21.5h-352l184 967h311q152 0 224.5 -70t72.5 -170q0 -90 -58.5 -153.5t-162.5 -90.5zM729 709q0 61 -46 104t-151 43h-178l-63 -321h182q109 0 182.5 44t73.5 130zM678 279 q0 68 -57.5 110.5t-157.5 42.5h-193l-63 -321h221q131 0 191.5 45t58.5 123z" />
<glyph horiz-adv-x="948" d="M922 811q-70 29 -145 47.5t-140 18.5q-98 0 -176 -37t-132.5 -100.5t-83 -146.5t-28.5 -175q2 -154 93 -241t241 -87q131 0 242 62l6 -119q-57 -25 -126 -39t-134 -14q-100 0 -182.5 29.5t-141.5 85t-92 135t-33 180.5q0 119 39 224t111.5 183t176 124t230.5 46 q74 0 149.5 -15.5t151.5 -43.5z" />
<glyph d="M942 555q0 -111 -36 -212t-109.5 -177t-184 -121t-260.5 -45h-286l184 967h227q96 0 181 -27t147.5 -78t99.5 -129t37 -178zM811 541q0 158 -97.5 236.5t-260.5 78.5h-99l-145 -745h164q92 0 172 27.5t139 82.5t93 135.5t34 184.5z" />
<glyph horiz-adv-x="839" d="M66 0l184 967h604l-20 -111h-480l-61 -315h401l-20 -113h-404l-63 -317h483l-22 -111h-602z" />
<glyph horiz-adv-x="798" d="M250 967h590l-23 -113h-465l-63 -328h387l-21 -114h-387l-82 -412h-120z" />
<glyph horiz-adv-x="1013" d="M217 418q2 -156 93 -243t243 -87q47 0 92 10.5t86 26.5l53 254h-256l25 115h373l-86 -447q-66 -31 -145 -49t-154 -18q-100 0 -183.5 29.5t-142.5 85t-92 135t-33 180.5q0 119 39 224t111.5 183t175 124t231.5 46q152 0 305 -59l-28 -119q-70 33 -143.5 50.5t-143.5 17.5 q-98 0 -177 -37t-133.5 -100.5t-83 -146.5t-26.5 -175z" />
<glyph horiz-adv-x="1056" d="M713 0l84 430h-525l-84 -430h-122l184 967h127l-84 -424h526l80 424h125l-186 -967h-125z" />
<glyph horiz-adv-x="409" d="M66 0l188 967h123l-189 -967h-122z" />
<glyph horiz-adv-x="686" d="M541 274q-27 -135 -104 -214.5t-214 -79.5q-72 0 -140.5 23.5t-113.5 62.5l41 110q45 -39 98.5 -62.5t112.5 -23.5q90 0 136 54.5t63 148.5l131 674h125l-135 -693v0z" />
<glyph horiz-adv-x="878" d="M291 508l504 459h159l-553 -484l371 -483h-147l-346 455h-3l-88 -455h-122l184 967h127l-88 -459h2z" />
<glyph horiz-adv-x="784" d="M66 0l184 967h129l-168 -854h469l-23 -113h-591z" />
<glyph horiz-adv-x="1239" d="M928 0l141 815l-455 -811h-141l-135 813l-180 -817h-129l225 967h170l145 -832l461 832h178l-155 -967h-125z" />
<glyph horiz-adv-x="1052" d="M907 967h121l-186 -977h-148l-356 827l-154 -817h-118l182 967h149l359 -817z" />
<glyph horiz-adv-x="1134" d="M1077 543q0 -113 -40 -215.5t-112.5 -179t-171 -122.5t-214.5 -46q-96 0 -178 32.5t-141.5 91t-93.5 141.5t-34 183q0 113 41 214t112.5 178t171 122t216.5 45q94 0 176 -31.5t141.5 -90t93 -140.5t33.5 -182zM952 532q0 76 -24.5 139.5t-67.5 109.5t-103.5 72t-133.5 26 q-92 0 -167 -38t-127.5 -100.5t-80 -142.5t-27.5 -164q0 -74 23.5 -137.5t66.5 -109.5t104.5 -72.5t137.5 -26.5q92 0 166 38t126 100.5t79.5 142t27.5 163.5z" />
<glyph horiz-adv-x="874" d="M852 686q0 -160 -109.5 -259t-322.5 -97h-168l-64 -330h-122l184 967h264q84 0 147.5 -23.5t105.5 -62.5t63.5 -89.5t21.5 -105.5zM725 670q0 80 -59.5 133t-173.5 53h-138l-82 -418l160 2q150 0 222.5 66t70.5 164z" />
<glyph horiz-adv-x="1134" d="M985 -162l-72 -104l-350 248q-8 0 -13 -1t-11 -1q-96 0 -178 32.5t-141.5 91t-93.5 141.5t-34 183q0 113 41 214t112.5 178t171 122t216.5 45q94 0 176 -31.5t141.5 -90t93 -140.5t33.5 -182q0 -96 -26.5 -180t-73.5 -153t-114.5 -119t-149.5 -77zM952 532 q0 76 -24.5 139.5t-67.5 109.5t-103.5 72t-133.5 26q-92 0 -167 -38t-127.5 -100.5t-80 -142.5t-27.5 -164q0 -74 23.5 -137.5t67.5 -109.5t105.5 -72.5t137.5 -26.5q92 0 165 38t125 100.5t79.5 142t27.5 163.5z" />
<glyph horiz-adv-x="909" d="M188 0h-122l184 967h270q78 0 140.5 -20.5t106.5 -56.5t67.5 -85t23.5 -107q0 -66 -20.5 -116t-56.5 -86.5t-84 -62t-103 -38.5l162 -395h-133l-150 373l-215 -13zM444 473q129 4 208 54.5t79 160.5q0 74 -58.5 121t-174.5 47h-144l-75 -387z" />
<glyph horiz-adv-x="819" d="M369 88q45 0 85 11.5t69.5 33t47 52t17.5 69.5q0 66 -53.5 107.5t-149.5 82.5q-49 20 -92 45t-75 55.5t-51.5 69.5t-19.5 91q0 68 27 121t73 88.5t106.5 54t127.5 18.5q92 0 171 -26.5t136 -61.5l-28 -119q-59 41 -138 70t-151 29q-80 0 -138.5 -42t-60.5 -118 q0 -63 56.5 -100t146.5 -78q51 -25 94 -50.5t75 -57.5t50.5 -71.5t18.5 -91.5q0 -68 -27 -121t-74 -91t-109.5 -58t-135.5 -20q-94 0 -184.5 29.5t-155.5 74.5l26 117q68 -47 154 -80t162 -33z" />
<glyph horiz-adv-x="894" d="M602 854l-166 -854h-125l166 854h-336l21 113h799l-21 -113h-338z" />
<glyph horiz-adv-x="989" d="M856 336q-29 -166 -129 -261t-264 -95q-78 0 -144.5 17t-114.5 54t-75 93.5t-27 134.5q0 31 5.5 61.5t9.5 54.5l110 572h125l-110 -574q-4 -20 -8.5 -44.5t-4.5 -49.5q0 -104 63.5 -155.5t176.5 -51.5t177.5 69.5t86.5 186.5l5 28q5 27 14.5 71.5t19.5 99.5t23 112 q27 135 59 308h123l-62 -316q-12 -59 -22 -115.5t-19 -101.5q-8 -53 -18 -98z" />
<glyph horiz-adv-x="917" d="M449 0h-144l-166 967h125l137 -840l476 840h133z" />
<glyph horiz-adv-x="1443" d="M397 0h-123l-84 967h127l56 -795l391 795h143l82 -795l357 795h129l-457 -967h-123l-88 815z" />
<glyph horiz-adv-x="931" d="M111 0h-148l451 494l-250 473h141l189 -389l337 389h154l-430 -475l258 -492h-139l-205 412z" />
<glyph horiz-adv-x="872" d="M496 385l-74 -385h-121l76 385l-227 582h131l176 -467l348 467h137z" />
<glyph horiz-adv-x="849" d="M-18 0l16 90l700 764h-536l22 113h697l-17 -90l-694 -764h547l-23 -113h-712z" />
<glyph horiz-adv-x="1636" d="M369 88q45 0 85 11.5t69.5 33t47 52t17.5 69.5q0 66 -53.5 107.5t-149.5 82.5q-49 20 -92 45t-75 55.5t-51.5 69.5t-19.5 91q0 68 27 121t73 88.5t106.5 54t127.5 18.5q92 0 171 -26.5t136 -61.5l-28 -119q-59 41 -138 70t-151 29q-80 0 -138.5 -42t-60.5 -118 q0 -63 56.5 -100t146.5 -78q51 -25 94 -50.5t75 -57.5t50.5 -71.5t18.5 -91.5q0 -68 -27 -121t-74 -91t-109.5 -58t-135.5 -20q-94 0 -184.5 29.5t-155.5 74.5l26 117q68 -47 154 -80t162 -33zM1186 88q45 0 85 11.5t70.5 33t48 52t17.5 69.5q0 66 -53.5 107.5t-149.5 82.5 q-49 20 -92 45t-74.5 55.5t-51 69.5t-19.5 91q0 68 26.5 121t72.5 88.5t105.5 54t126.5 18.5q92 0 171 -26.5t139 -61.5l-31 -119q-59 41 -137 70t-150 29q-80 0 -139 -42t-59 -118q0 -31 14 -55.5t41 -45t63.5 -39t81.5 -38.5q51 -25 95.5 -50.5t76 -57.5t50 -71.5 t18.5 -91.5q0 -68 -26.5 -121t-74 -91t-111 -58t-136.5 -20q-94 0 -184.5 29.5t-155.5 74.5l28 117q68 -47 154 -80t160 -33z" />
<glyph horiz-adv-x="942" d="M543 1061l-240 366h164l170 -366h-94zM831 0h-124l-45 256h-435l-145 -256h-135l567 967h148zM569 846l-280 -479h354z" />
<glyph horiz-adv-x="942" d="M831 0h-124l-45 256h-435l-145 -256h-135l567 967h148zM569 846l-280 -479h354zM635 1061h-100l315 366h168z" />
<glyph horiz-adv-x="942" d="M831 0h-124l-45 256h-435l-145 -256h-135l567 967h148zM569 846l-280 -479h354zM786 1061l-137 276h-4l-242 -276h-118l305 373h143l160 -373h-107z" />
<glyph horiz-adv-x="942" d="M831 0h-124l-45 256h-435l-145 -256h-135l567 967h148zM569 846l-280 -479h354zM971 1303q-33 -104 -82 -169t-131 -65q-51 0 -93 22.5t-78 49t-67 49t-61 22.5q-37 0 -61.5 -35.5t-47.5 -93.5h-92q31 104 80 169t133 65q51 0 93 -22.5t78 -49t66.5 -49t61.5 -22.5 q35 0 59.5 34.5t47.5 94.5h94z" />
<glyph horiz-adv-x="942" d="M831 0h-124l-45 256h-435l-145 -256h-135l567 967h148zM569 846l-280 -479h354zM926 1214q0 -41 -27 -71.5t-70 -30.5q-45 0 -72.5 31t-27.5 71q0 41 27.5 71t72.5 30q43 0 70 -30t27 -71zM530 1214q0 -41 -26.5 -71.5t-71.5 -30.5q-43 0 -69.5 31t-26.5 71q0 41 26.5 71 t69.5 30q45 0 71.5 -30t26.5 -71z" />
<glyph horiz-adv-x="942" d="M569 846l-280 -479h354zM758 1108q0 59 -42 96t-108 37q-68 0 -112.5 -41t-44.5 -100t42 -96t105 -37q70 0 115 40t45 101zM485 915q-57 23 -91 69t-34 110q0 49 19.5 89t53.5 69.5t79 46t98 16.5q100 0 168 -56.5t68 -148.5q0 -78 -48 -132t-126 -75l159 -903h-124 l-45 256h-435l-145 -256h-135z" />
<glyph horiz-adv-x="942" d="M571 1364h-100l315 367h168zM569 846l-280 -479h354zM758 1108q0 59 -42 96t-108 37q-68 0 -112.5 -41t-44.5 -100t42 -96t105 -37q70 0 115 40t45 101zM485 915q-57 23 -91 69t-34 110q0 49 19.5 89t53.5 69.5t79 46t98 16.5q100 0 168 -56.5t68 -148.5q0 -78 -48 -132 t-126 -75l159 -903h-124l-45 256h-435l-145 -256h-135z" />
<glyph horiz-adv-x="942" d="M831 0h-124l-45 256h-435l-145 -256h-135l567 967h148zM569 846l-280 -479h354zM346 1098l25 92h508l-9 -92h-524z" />
<glyph horiz-adv-x="942" d="M831 0h-124l-45 256h-435l-145 -256h-135l567 967h148zM569 846l-280 -479h354zM956 1432q-25 -76 -59.5 -143.5t-79.5 -119t-101.5 -81t-123.5 -29.5q-72 0 -119 30.5t-75.5 82t-40 119t-9.5 141.5h94q6 -131 45 -201t117 -70q145 0 252 271h100z" />
<glyph horiz-adv-x="942" d="M831 0q-41 -16 -79.5 -42t-69.5 -56.5t-52.5 -63.5t-27.5 -63q-10 -47 10.5 -78t65.5 -35q29 -2 58.5 4t51.5 23l13 -99q-29 -16 -73 -28.5t-97 -7.5q-86 8 -130 61t-28 139q8 43 30.5 80t54.5 68.5t70 58.5t77 47l-43 250h-435l-145 -258h-135l567 967h148zM569 848 l-280 -481h356z" />
<glyph horiz-adv-x="1294" d="M82 0h-135l704 936h658l-19 -109h-467l-57 -305h389l-22 -108h-388l-59 -305h465l-21 -109h-587l51 246h-326zM614 356l95 480l-363 -480h268z" />
<glyph horiz-adv-x="1294" d="M926 1061h-101l316 366h168zM82 0h-135l704 936h658l-19 -109h-467l-57 -305h389l-22 -108h-388l-59 -305h465l-21 -109h-587l51 246h-326zM614 356l95 480l-363 -480h268z" />
<glyph horiz-adv-x="950" d="M428 -10q-154 29 -246 137.5t-92 282.5q0 119 39 224t111.5 183t176 124t230.5 46q74 0 149.5 -15.5t151.5 -43.5l-26 -117q-70 29 -145 47.5t-140 18.5q-98 0 -176 -37t-132.5 -100.5t-83 -146.5t-28.5 -175q2 -154 93 -241t241 -87q131 0 242 62l6 -119 q-57 -25 -126 -39t-134 -14h-13l-141 -115q100 -6 160.5 -50t60.5 -118q0 -90 -93 -153.5t-280 -65.5l5 88q129 -4 195.5 29.5t66.5 93.5q0 57 -65.5 80.5t-186.5 13.5v61l180 146v0z" />
<glyph horiz-adv-x="948" d="M594 1061h-100l315 366h168zM922 811q-70 29 -145 47.5t-140 18.5q-98 0 -176 -37t-132.5 -100.5t-83 -146.5t-28.5 -175q2 -154 93 -241t241 -87q131 0 242 62l6 -119q-57 -25 -126 -39t-134 -14q-100 0 -182.5 29.5t-141.5 85t-92 135t-33 180.5q0 119 39 224 t111.5 183t176 124t230.5 46q74 0 149.5 -15.5t151.5 -43.5z" />
<glyph horiz-adv-x="948" d="M829 1061l-137 276h-4l-242 -276h-118l305 373h143l160 -373h-107zM922 811q-70 29 -145 47.5t-140 18.5q-98 0 -176 -37t-132.5 -100.5t-83 -146.5t-28.5 -175q2 -154 93 -241t241 -87q131 0 242 62l6 -119q-57 -25 -126 -39t-134 -14q-100 0 -182.5 29.5t-141.5 85 t-92 135t-33 180.5q0 119 39 224t111.5 183t176 124t230.5 46q74 0 149.5 -15.5t151.5 -43.5z" />
<glyph horiz-adv-x="948" d="M922 811q-70 29 -145 47.5t-140 18.5q-98 0 -176 -37t-132.5 -100.5t-83 -146.5t-28.5 -175q2 -154 93 -241t241 -87q131 0 242 62l6 -119q-57 -25 -126 -39t-134 -14q-100 0 -182.5 29.5t-141.5 85t-92 135t-33 180.5q0 119 39 224t111.5 183t176 124t230.5 46 q74 0 149.5 -15.5t151.5 -43.5zM782 1212q0 -41 -26.5 -70.5t-69.5 -29.5t-68.5 29.5t-25.5 70.5t25.5 70t68.5 29t69.5 -29t26.5 -70z" />
<glyph horiz-adv-x="948" d="M496 1423l133 -278h4l244 278h118l-305 -372h-141l-160 372h107zM922 811q-70 29 -145 47.5t-140 18.5q-98 0 -176 -37t-132.5 -100.5t-83 -146.5t-28.5 -175q2 -154 93 -241t241 -87q131 0 242 62l6 -119q-57 -25 -126 -39t-134 -14q-100 0 -182.5 29.5t-141.5 85 t-92 135t-33 180.5q0 119 39 224t111.5 183t176 124t230.5 46q74 0 149.5 -15.5t151.5 -43.5z" />
<glyph d="M401 1423l134 -278h4l245 278h117l-305 -372h-141l-160 372h106zM942 555q0 -111 -36 -212t-109.5 -177t-184 -121t-260.5 -45h-286l184 967h227q96 0 181 -27t147.5 -78t99.5 -129t37 -178zM811 541q0 158 -97.5 236.5t-260.5 78.5h-99l-145 -745h164q92 0 172 27.5 t139 82.5t93 135.5t34 184.5z" />
<glyph horiz-adv-x="1064" d="M983 555q0 -111 -36 -212t-109.5 -177t-184 -121t-260.5 -45h-287l82 432h-137v113h160l80 422h227q96 0 181 -27t147.5 -78t99.5 -129t37 -178zM852 541q0 158 -97.5 236.5t-260.5 78.5h-99l-61 -311h287v-113h-308l-63 -321h164q92 0 172 27.5t139 82.5t93 135.5 t34 184.5z" />
<glyph horiz-adv-x="1064" d="M983 555q0 -111 -36 -212t-109.5 -177t-184 -121t-260.5 -45h-287l82 432h-137v113h160l80 422h227q96 0 181 -27t147.5 -78t99.5 -129t37 -178zM852 541q0 158 -97.5 236.5t-260.5 78.5h-99l-61 -311h287v-113h-308l-63 -321h164q92 0 172 27.5t139 82.5t93 135.5 t34 184.5z" />
<glyph horiz-adv-x="839" d="M524 1061l-239 366h164l169 -366h-94zM66 0l184 967h604l-20 -111h-480l-61 -315h401l-20 -113h-404l-63 -317h483l-22 -111h-602z" />
<glyph horiz-adv-x="839" d="M66 0l184 967h604l-20 -111h-480l-61 -315h401l-20 -113h-404l-63 -317h483l-22 -111h-602zM584 1061h-101l316 366h168z" />
<glyph horiz-adv-x="839" d="M66 0l184 967h604l-20 -111h-480l-61 -315h401l-20 -113h-404l-63 -317h483l-22 -111h-602zM762 1061l-137 276h-4l-242 -276h-119l305 373h144l159 -373h-106z" />
<glyph horiz-adv-x="839" d="M66 0l184 967h604l-20 -111h-480l-61 -315h401l-20 -113h-404l-63 -317h483l-22 -111h-602zM877 1214q0 -41 -27 -71.5t-70 -30.5q-45 0 -72.5 31t-27.5 71q0 41 27.5 71t72.5 30q43 0 70 -30t27 -71zM481 1214q0 -41 -26.5 -71.5t-71.5 -30.5q-43 0 -69.5 31t-26.5 71 q0 41 26.5 71t69.5 30q45 0 71.5 -30t26.5 -71z" />
<glyph horiz-adv-x="839" d="M66 0l184 967h604l-20 -111h-480l-61 -315h401l-20 -113h-404l-63 -317h483l-22 -111h-602zM299 1098l25 92h507l-8 -92h-524z" />
<glyph horiz-adv-x="839" d="M66 0l184 967h604l-20 -111h-480l-61 -315h401l-20 -113h-404l-63 -317h483l-22 -111h-602zM940 1432q-25 -76 -59.5 -143.5t-79.5 -119t-101.5 -81t-124.5 -29.5q-72 0 -118.5 30.5t-75.5 82t-40 119t-9 141.5h94q6 -131 45 -201t117 -70q145 0 252 271h100z" />
<glyph horiz-adv-x="839" d="M66 0l184 967h604l-20 -111h-480l-61 -315h401l-20 -113h-404l-63 -317h483l-22 -111h-602zM680 1212q0 -41 -26.5 -70.5t-69.5 -29.5t-69 29.5t-26 70.5t26 70t69 29t69.5 -29t26.5 -70z" />
<glyph horiz-adv-x="839" d="M582 0q-76 -53 -119 -104.5t-55 -110.5q-10 -47 10 -78t65 -35q29 -2 58.5 4.5t52.5 22.5l12 -98q-29 -16 -73 -28.5t-97 -8.5q-86 8 -130 61t-27 139q14 78 71.5 136.5t128.5 99.5h-413l186 967h602l-20 -111h-480l-61 -315h401l-20 -113h-404l-63 -317h483l-22 -111 h-86z" />
<glyph horiz-adv-x="839" d="M442 1423l133 -278h5l243 278h119l-305 -372h-141l-160 372h106zM66 0l184 967h604l-20 -111h-480l-61 -315h401l-20 -113h-404l-63 -317h483l-22 -111h-602z" />
<glyph horiz-adv-x="1013" d="M840 1061l-138 276h-4l-241 -276h-119l305 373h143l160 -373h-106zM217 418q2 -156 93 -243t243 -87q47 0 92 10.5t86 26.5l53 254h-256l25 115h373l-86 -447q-66 -31 -145 -49t-154 -18q-100 0 -183.5 29.5t-142.5 85t-92 135t-33 180.5q0 119 39 224t111.5 183t175 124 t231.5 46q152 0 305 -59l-28 -119q-70 33 -143.5 50.5t-143.5 17.5q-98 0 -177 -37t-133.5 -100.5t-83 -146.5t-26.5 -175z" />
<glyph horiz-adv-x="1013" d="M217 418q2 -156 93 -243t243 -87q47 0 92 10.5t86 26.5l53 254h-256l25 115h373l-86 -447q-66 -31 -145 -49t-154 -18q-100 0 -183.5 29.5t-142.5 85t-92 135t-33 180.5q0 119 39 224t111.5 183t175 124t231.5 46q152 0 305 -59l-28 -119q-70 33 -143.5 50.5t-143.5 17.5 q-98 0 -177 -37t-133.5 -100.5t-83 -146.5t-26.5 -175zM997 1432q-25 -76 -59.5 -143.5t-79.5 -119t-101.5 -81t-123.5 -29.5q-72 0 -119 30.5t-75.5 82t-40 119t-9.5 141.5h94q6 -131 45 -201t117 -70q145 0 252 271h100z" />
<glyph horiz-adv-x="1013" d="M217 418q2 -156 93 -243t243 -87q47 0 92 10.5t86 26.5l53 254h-256l25 115h373l-86 -447q-66 -31 -145 -49t-154 -18q-100 0 -183.5 29.5t-142.5 85t-92 135t-33 180.5q0 119 39 224t111.5 183t175 124t231.5 46q152 0 305 -59l-28 -119q-70 33 -143.5 50.5t-143.5 17.5 q-98 0 -177 -37t-133.5 -100.5t-83 -146.5t-26.5 -175zM750 1212q0 -41 -27 -70.5t-70 -29.5t-68.5 29.5t-25.5 70.5t25.5 70t68.5 29t70 -29t27 -70z" />
<glyph horiz-adv-x="1013" d="M395 -201q8 33 39 56.5t76 19.5q53 -4 78.5 -47t15.5 -100q-16 -80 -80.5 -141.5t-156.5 -108.5l-41 45q86 47 115.5 89t37.5 77q8 37 -11.5 60t-72.5 50zM217 418q2 -156 93 -243t243 -87q47 0 92 10.5t86 26.5l53 254h-256l25 115h373l-86 -447q-66 -31 -145 -49 t-154 -18q-100 0 -183.5 29.5t-142.5 85t-92 135t-33 180.5q0 119 39 224t111.5 183t175 124t231.5 46q152 0 305 -59l-28 -119q-70 33 -143.5 50.5t-143.5 17.5q-98 0 -177 -37t-133.5 -100.5t-83 -146.5t-26.5 -175z" />
<glyph horiz-adv-x="1056" d="M844 1040l-137 277h-5l-241 -277h-119l305 373h144l159 -373h-106zM713 0l84 430h-525l-84 -430h-122l184 967h127l-84 -424h526l80 424h125l-186 -967h-125z" />
<glyph horiz-adv-x="1056" d="M715 0l84 432h-527l-84 -432h-122l135 709h-148l23 84h141l33 174h127l-35 -174h524l33 174h125l-33 -174h144l-13 -84h-147l-137 -709h-123zM819 543l33 166h-526l-33 -166h526z" />
<glyph horiz-adv-x="409" d="M297 1061l-240 366h164l170 -366h-94zM66 0l188 967h123l-189 -967h-122z" />
<glyph horiz-adv-x="409" d="M369 1061h-101l316 366h168zM66 0l188 967h123l-189 -967h-122z" />
<glyph horiz-adv-x="409" d="M66 0l188 967h123l-189 -967h-122zM520 1061l-137 276h-4l-242 -276h-119l306 373h143l160 -373h-107z" />
<glyph horiz-adv-x="409" d="M647 1214q0 -41 -26.5 -71.5t-69.5 -30.5q-45 0 -72.5 31t-27.5 71q0 41 27.5 71t72.5 30q43 0 69.5 -30t26.5 -71zM252 1214q0 -41 -26.5 -71.5t-71.5 -30.5q-43 0 -70 31t-27 71q0 41 27 71t70 30q45 0 71.5 -30t26.5 -71zM66 0l188 967h123l-189 -967h-122z" />
<glyph horiz-adv-x="409" d="M66 0l188 967h123l-189 -967h-122zM88 1098l25 92h508l-9 -92h-524z" />
<glyph horiz-adv-x="409" d="M66 0l188 967h123l-189 -967h-122zM690 1432q-25 -76 -59.5 -143.5t-79.5 -119t-101.5 -81t-123.5 -29.5q-72 0 -119 30.5t-76 82t-40 119t-9 141.5h94q6 -131 45 -201t117 -70q145 0 252 271h100z" />
<glyph horiz-adv-x="409" d="M27 -446q-86 8 -131.5 61t-28.5 139q16 84 81.5 144.5t143.5 101.5h-26l188 967h123l-189 -967q-82 -55 -130 -109.5t-60 -115.5q-10 -47 10.5 -78t65.5 -35q29 -2 58.5 4t51.5 23l13 -99q-29 -16 -73 -28t-97 -8z" />
<glyph horiz-adv-x="409" d="M66 0l188 967h123l-189 -967h-122zM456 1212q0 -41 -26.5 -70.5t-69.5 -29.5t-68.5 29.5t-25.5 70.5t25.5 70t68.5 29t69.5 -29t26.5 -70z" />
<glyph horiz-adv-x="409" d="M66 0l188 967h123l-189 -967h-122z" />
<glyph horiz-adv-x="686" d="M541 274q-27 -135 -104 -214.5t-214 -79.5q-72 0 -140.5 23.5t-115.5 62.5l43 110q45 -39 98.5 -62.5t112.5 -23.5q90 0 136 54.5t65 148.5l129 674h125zM813 1036l-137 277h-4l-242 -277h-119l305 373h144l160 -373h-107z" />
<glyph horiz-adv-x="686" d="M541 274q-27 -135 -104 -214.5t-214 -79.5q-72 0 -140.5 23.5t-115.5 62.5l43 110q45 -39 98.5 -62.5t112.5 -23.5q90 0 136 54.5t65 148.5l129 674h125l-135 -693v0z" />
<glyph horiz-adv-x="878" d="M268 -186q8 33 39 56.5t76 18.5q53 -4 78.5 -47t15.5 -100q-16 -80 -80.5 -141.5t-156.5 -108.5l-41 45q86 47 115.5 89t37.5 77q8 37 -11.5 60.5t-72.5 50.5zM291 508l504 459h159l-553 -484l371 -483h-147l-346 455h-3l-88 -455h-122l184 967h127l-88 -459h2z" />
<glyph horiz-adv-x="784" d="M377 1042h-101l316 367h168zM66 0l184 967h129l-168 -854h469l-23 -113h-591z" />
<glyph horiz-adv-x="784" d="M238 -186q8 33 38.5 56.5t75.5 18.5q53 -4 79 -47t15 -100q-16 -80 -80.5 -141.5t-156.5 -108.5l-41 45q86 47 115.5 89t38.5 77q8 37 -11.5 60.5t-72.5 50.5zM66 0l184 967h129l-168 -854h469l-23 -113h-591z" />
<glyph horiz-adv-x="1167" d="M870 895q10 39 43 63.5t76 24.5q55 0 92 -43t37 -102t-30.5 -113.5t-78.5 -100.5t-105.5 -84t-110.5 -65l-45 57q41 23 81.5 52.5t73.5 62.5t53.5 68t20.5 67q0 37 -34 66t-73 47zM66 0l184 967h129l-168 -854h469l-23 -113h-591z" />
<glyph horiz-adv-x="1071" d="M66 0l184 967h129l-168 -854h469l-23 -113h-591zM883 469q0 -41 -27.5 -74t-72.5 -33q-47 0 -76 33t-29 74t29 71.5t76 30.5q45 0 72.5 -30.5t27.5 -71.5z" />
<glyph horiz-adv-x="825" d="M37 344v115l166 45l88 463h129l-84 -426l205 55v-115l-230 -61l-59 -307h469l-23 -113h-592l74 383z" />
<glyph horiz-adv-x="1052" d="M907 967h121l-186 -977h-148l-356 827l-154 -817h-118l182 967h149l359 -817zM1026 1303q-33 -104 -82 -169t-131 -65q-51 0 -93 22.5t-78 49t-66.5 49t-61.5 22.5q-37 0 -61.5 -35.5t-46.5 -93.5h-93q31 104 80 169t133 65q51 0 93.5 -22.5t78 -49t66.5 -49t61 -22.5 q35 0 59.5 34.5t47.5 94.5h94z" />
<glyph horiz-adv-x="1052" d="M668 1061h-101l316 366h168zM907 967h121l-186 -977h-148l-356 827l-154 -817h-118l182 967h149l359 -817z" />
<glyph horiz-adv-x="1052" d="M293 -186q8 33 38.5 56.5t76.5 18.5q53 -4 78.5 -47t15.5 -100q-16 -80 -81 -141.5t-157 -108.5l-41 45q86 47 116 89t38 77q8 37 -11.5 60.5t-72.5 50.5zM907 967h121l-186 -977h-148l-356 827l-154 -817h-118l182 967h149l359 -817z" />
<glyph horiz-adv-x="1052" d="M555 1423l133 -278h4l244 278h119l-305 -372h-142l-159 372h106zM907 967h121l-186 -977h-148l-356 827l-154 -817h-118l182 967h149l359 -817z" />
<glyph horiz-adv-x="1134" d="M651 1061l-239 366h163l170 -366h-94zM1077 543q0 -113 -40 -215.5t-112.5 -179t-171 -122.5t-214.5 -46q-96 0 -178 32.5t-141.5 91t-93.5 141.5t-34 183q0 113 41 214t112.5 178t171 122t216.5 45q94 0 176 -31.5t141.5 -90t93 -140.5t33.5 -182zM952 532 q0 76 -24.5 139.5t-67.5 109.5t-103.5 72t-133.5 26q-92 0 -167 -38t-127.5 -100.5t-80 -142.5t-27.5 -164q0 -74 23.5 -137.5t66.5 -109.5t104.5 -72.5t137.5 -26.5q92 0 166 38t126 100.5t79.5 142t27.5 163.5z" />
<glyph horiz-adv-x="1134" d="M1077 543q0 -113 -40 -215.5t-112.5 -179t-171 -122.5t-214.5 -46q-96 0 -178 32.5t-141.5 91t-93.5 141.5t-34 183q0 113 41 214t112.5 178t171 122t216.5 45q94 0 176 -31.5t141.5 -90t93 -140.5t33.5 -182zM952 532q0 76 -24.5 139.5t-67.5 109.5t-103.5 72t-133.5 26 q-92 0 -167 -38t-127.5 -100.5t-80 -142.5t-27.5 -164q0 -74 23.5 -137.5t66.5 -109.5t104.5 -72.5t137.5 -26.5q92 0 166 38t126 100.5t79.5 142t27.5 163.5zM670 1061h-101l316 366h168z" />
<glyph horiz-adv-x="1134" d="M1077 543q0 -113 -40 -215.5t-112.5 -179t-171 -122.5t-214.5 -46q-96 0 -178 32.5t-141.5 91t-93.5 141.5t-34 183q0 113 41 214t112.5 178t171 122t216.5 45q94 0 176 -31.5t141.5 -90t93 -140.5t33.5 -182zM952 532q0 76 -24.5 139.5t-67.5 109.5t-103.5 72t-133.5 26 q-92 0 -167 -38t-127.5 -100.5t-80 -142.5t-27.5 -164q0 -74 23.5 -137.5t66.5 -109.5t104.5 -72.5t137.5 -26.5q92 0 166 38t126 100.5t79.5 142t27.5 163.5zM874 1061l-137 276h-4l-241 -276h-119l305 373h143l160 -373h-107z" />
<glyph horiz-adv-x="1134" d="M1077 543q0 -113 -40 -215.5t-112.5 -179t-171 -122.5t-214.5 -46q-96 0 -178 32.5t-141.5 91t-93.5 141.5t-34 183q0 113 41 214t112.5 178t171 122t216.5 45q94 0 176 -31.5t141.5 -90t93 -140.5t33.5 -182zM952 532q0 76 -24.5 139.5t-67.5 109.5t-103.5 72t-133.5 26 q-92 0 -167 -38t-127.5 -100.5t-80 -142.5t-27.5 -164q0 -74 23.5 -137.5t66.5 -109.5t104.5 -72.5t137.5 -26.5q92 0 166 38t126 100.5t79.5 142t27.5 163.5zM1059 1303q-33 -104 -82 -169t-131 -65q-51 0 -93 22.5t-78 49t-66.5 49t-61.5 22.5q-37 0 -61.5 -35.5 t-47.5 -93.5h-92q31 104 80 169t133 65q51 0 93 -22.5t78 -49t66.5 -49t61.5 -22.5q35 0 59.5 34.5t47.5 94.5h94z" />
<glyph horiz-adv-x="1134" d="M1077 543q0 -113 -40 -215.5t-112.5 -179t-171 -122.5t-214.5 -46q-96 0 -178 32.5t-141.5 91t-93.5 141.5t-34 183q0 113 41 214t112.5 178t171 122t216.5 45q94 0 176 -31.5t141.5 -90t93 -140.5t33.5 -182zM952 532q0 76 -24.5 139.5t-67.5 109.5t-103.5 72t-133.5 26 q-92 0 -167 -38t-127.5 -100.5t-80 -142.5t-27.5 -164q0 -74 23.5 -137.5t66.5 -109.5t104.5 -72.5t137.5 -26.5q92 0 166 38t126 100.5t79.5 142t27.5 163.5zM1012 1214q0 -41 -27 -71.5t-70 -30.5q-45 0 -72.5 31t-27.5 71q0 41 27.5 71t72.5 30q43 0 70 -30t27 -71z M616 1214q0 -41 -26.5 -71.5t-71.5 -30.5q-43 0 -69.5 31t-26.5 71q0 41 26.5 71t69.5 30q45 0 71.5 -30t26.5 -71z" />
<glyph horiz-adv-x="1134" d="M424 1098l25 92h507l-8 -92h-524zM1077 543q0 -113 -40 -215.5t-112.5 -179t-171 -122.5t-214.5 -46q-96 0 -178 32.5t-141.5 91t-93.5 141.5t-34 183q0 113 41 214t112.5 178t171 122t216.5 45q94 0 176 -31.5t141.5 -90t93 -140.5t33.5 -182zM952 532q0 76 -24.5 139.5 t-67.5 109.5t-103.5 72t-133.5 26q-92 0 -167 -38t-127.5 -100.5t-80 -142.5t-27.5 -164q0 -74 23.5 -137.5t66.5 -109.5t104.5 -72.5t137.5 -26.5q92 0 166 38t126 100.5t79.5 142t27.5 163.5z" />
<glyph horiz-adv-x="1134" d="M1077 543q0 -113 -40 -215.5t-112.5 -179t-171 -122.5t-214.5 -46q-96 0 -178 32.5t-141.5 91t-93.5 141.5t-34 183q0 113 41 214t112.5 178t171 122t216.5 45q94 0 176 -31.5t141.5 -90t93 -140.5t33.5 -182zM952 532q0 76 -24.5 139.5t-67.5 109.5t-103.5 72t-133.5 26 q-92 0 -167 -38t-127.5 -100.5t-80 -142.5t-27.5 -164q0 -74 23.5 -137.5t66.5 -109.5t104.5 -72.5t137.5 -26.5q92 0 166 38t126 100.5t79.5 142t27.5 163.5zM1051 1432q-25 -76 -60 -143.5t-80 -119t-101 -81t-124 -29.5q-72 0 -119 30.5t-75.5 82t-40 119t-9.5 141.5h95 q6 -131 45 -201t116 -70q145 0 252 271h101z" />
<glyph horiz-adv-x="1134" d="M836 1051h-113l330 362h141zM516 1051h-110l305 362h141zM1077 543q0 -113 -40 -215.5t-112.5 -179t-171 -122.5t-214.5 -46q-96 0 -178 32.5t-141.5 91t-93.5 141.5t-34 183q0 113 41 214t112.5 178t171 122t216.5 45q94 0 176 -31.5t141.5 -90t93 -140.5t33.5 -182z M952 532q0 76 -24.5 139.5t-67.5 109.5t-103.5 72t-133.5 26q-92 0 -167 -38t-127.5 -100.5t-80 -142.5t-27.5 -164q0 -74 23.5 -137.5t66.5 -109.5t104.5 -72.5t137.5 -26.5q92 0 166 38t126 100.5t79.5 142t27.5 163.5z" />
<glyph horiz-adv-x="1134" d="M864 778q-139 -178 -248 -319q-47 -59 -91 -116.5t-79 -102.5q-41 -53 -77 -101q84 -51 186 -51q92 0 165 38t125 100.5t79.5 142.5t27.5 163q0 74 -23.5 136.5t-64.5 109.5zM799 831q-76 47 -178 48q-92 0 -166 -38t-126.5 -100.5t-80 -142.5t-27.5 -164 q0 -72 21.5 -132t62.5 -107zM227 94q-63 59 -99 144.5t-36 189.5q0 113 41 214t112.5 178t171 122t216.5 45q68 0 127 -16.5t110 -44.5l140 178h106l-176 -230q66 -59 101.5 -143t35.5 -188q0 -113 -40 -215.5t-112.5 -179t-171 -122.5t-214.5 -46q-135 0 -244 63 q-23 -31 -47.5 -62.5t-44.5 -58.5q-23 -31 -47 -59h-107z" />
<glyph horiz-adv-x="1134" d="M864 778q-139 -178 -248 -319q-47 -59 -91 -116.5t-79 -102.5q-41 -53 -77 -101q84 -51 186 -51q92 0 165 38t125 100.5t79.5 142.5t27.5 163q0 74 -23.5 136.5t-64.5 109.5zM799 831q-76 47 -178 48q-92 0 -166 -38t-126.5 -100.5t-80 -142.5t-27.5 -164 q0 -72 21.5 -132t62.5 -107zM227 94q-63 59 -99 144.5t-36 189.5q0 113 41 214t112.5 178t171 122t216.5 45q68 0 127 -16.5t110 -44.5l140 178h106l-176 -230q66 -59 101.5 -143t35.5 -188q0 -113 -40 -215.5t-112.5 -179t-171 -122.5t-214.5 -46q-135 0 -244 63 q-23 -31 -47.5 -62.5t-44.5 -58.5q-23 -31 -47 -59h-107zM659 1061h-100l315 366h168z" />
<glyph horiz-adv-x="1433" d="M1427 856h-475l-63 -313l397 -2l-20 -113l-398 -2l-63 -315h479l-22 -111h-701q-98 0 -183 26.5t-148.5 79t-100.5 129t-37 177.5q0 113 35 213t107.5 176t184 121t263.5 45h766zM223 426q2 -156 98.5 -235.5t260.5 -79.5h100l143 745h-161q-92 0 -172 -27.5t-140.5 -83 t-94.5 -135.5t-34 -184z" />
<glyph horiz-adv-x="841" d="M819 518q0 -160 -109.5 -259t-322.5 -99h-168l-31 -160h-122l184 967h125l-33 -168h139q84 0 147.5 -23.5t105.5 -62.5t63.5 -89.5t21.5 -105.5zM692 502q-2 80 -61.5 132t-171.5 52h-137l-84 -418l161 2q150 2 221.5 68t71.5 164z" />
<glyph horiz-adv-x="909" d="M518 1061h-100l315 366h168zM188 0h-122l184 967h270q78 0 140.5 -20.5t106.5 -56.5t67.5 -85t23.5 -107q0 -66 -20.5 -116t-56.5 -86.5t-84 -62t-103 -38.5l162 -395h-133l-150 373l-215 -13zM444 473q129 4 208 54.5t79 160.5q0 74 -58.5 121t-174.5 47h-144l-75 -387z " />
<glyph horiz-adv-x="909" d="M262 -186q8 33 39 56.5t76 18.5q53 -4 78.5 -47t15.5 -100q-16 -80 -80.5 -141.5t-157.5 -108.5l-40 45q86 47 115.5 89t37.5 77q8 37 -11.5 60.5t-72.5 50.5zM188 0h-122l184 967h270q78 0 140.5 -20.5t106.5 -56.5t67.5 -85t23.5 -107q0 -66 -20.5 -116t-56.5 -86.5 t-84 -62t-103 -38.5l162 -395h-133l-150 373l-215 -13zM444 473q129 4 208 54.5t79 160.5q0 74 -58.5 121t-174.5 47h-144l-75 -387z" />
<glyph horiz-adv-x="909" d="M371 1423l133 -278h4l244 278h118l-305 -372h-141l-160 372h107zM188 0h-122l184 967h270q78 0 140.5 -20.5t106.5 -56.5t67.5 -85t23.5 -107q0 -66 -20.5 -116t-56.5 -86.5t-84 -62t-103 -38.5l162 -395h-133l-150 373l-215 -13zM444 473q129 4 208 54.5t79 160.5 q0 74 -58.5 121t-174.5 47h-144l-75 -387z" />
<glyph horiz-adv-x="819" d="M485 1061h-100l315 366h168zM369 88q45 0 85 11.5t69.5 33t47 52t17.5 69.5q0 66 -53.5 107.5t-149.5 82.5q-49 20 -92 45t-75 55.5t-51.5 69.5t-19.5 91q0 68 27 121t73 88.5t106.5 54t127.5 18.5q92 0 171 -26.5t136 -61.5l-28 -119q-59 41 -138 70t-151 29 q-80 0 -138.5 -42t-60.5 -118q0 -63 56.5 -100t146.5 -78q51 -25 94 -50.5t75 -57.5t50.5 -71.5t18.5 -91.5q0 -68 -27 -121t-74 -91t-109.5 -58t-135.5 -20q-94 0 -184.5 29.5t-155.5 74.5l26 117q68 -47 154 -80t162 -33z" />
<glyph horiz-adv-x="819" d="M713 1061l-138 276h-4l-241 -276h-119l305 373h143l160 -373h-106zM369 88q45 0 85 11.5t69.5 33t47 52t17.5 69.5q0 66 -53.5 107.5t-149.5 82.5q-49 20 -92 45t-75 55.5t-51.5 69.5t-19.5 91q0 68 27 121t73 88.5t106.5 54t127.5 18.5q92 0 171 -26.5t136 -61.5 l-28 -119q-59 41 -138 70t-151 29q-80 0 -138.5 -42t-60.5 -118q0 -63 56.5 -100t146.5 -78q51 -25 94 -50.5t75 -57.5t50.5 -71.5t18.5 -91.5q0 -68 -27 -121t-74 -91t-109.5 -58t-135.5 -20q-94 0 -184.5 29.5t-155.5 74.5l26 117q68 -47 154 -80t162 -33z" />
<glyph horiz-adv-x="819" d="M223 -135q100 -6 160.5 -50t60.5 -118q0 -90 -93 -153.5t-279 -65.5l4 88q129 -4 195.5 29.5t66.5 93.5q0 57 -65.5 80.5t-186.5 13.5v61l178 146q-68 10 -129 35.5t-108 58.5l26 117q68 -47 154 -80t162 -33q45 0 85 11.5t69.5 33t47 52t17.5 69.5q0 66 -53.5 107.5 t-149.5 82.5q-49 20 -92 45t-75 55.5t-51.5 69.5t-19.5 91q0 68 27 121t73 88.5t106.5 54t127.5 18.5q92 0 171 -26.5t136 -61.5l-28 -119q-59 41 -138 70t-151 29q-80 0 -138.5 -42t-60.5 -118q0 -63 56.5 -100t146.5 -78q51 -25 94 -50.5t75 -57.5t50.5 -71.5t18.5 -91.5 q0 -68 -27 -121t-74 -91t-109.5 -58t-135.5 -20h-2l-142 -115v0z" />
<glyph horiz-adv-x="819" d="M262 -186q8 33 39 56.5t76 18.5q53 -4 78.5 -47t15.5 -100q-16 -80 -80.5 -141.5t-157.5 -108.5l-40 45q86 47 115.5 89t37.5 77q8 37 -11.5 60.5t-72.5 50.5zM369 88q45 0 85 11.5t69.5 33t47 52t17.5 69.5q0 66 -53.5 107.5t-149.5 82.5q-49 20 -92 45t-75 55.5 t-51.5 69.5t-19.5 91q0 68 27 121t73 88.5t106.5 54t127.5 18.5q92 0 171 -26.5t136 -61.5l-28 -119q-59 41 -138 70t-151 29q-80 0 -138.5 -42t-60.5 -118q0 -63 56.5 -100t146.5 -78q51 -25 94 -50.5t75 -57.5t50.5 -71.5t18.5 -91.5q0 -68 -27 -121t-74 -91t-109.5 -58 t-135.5 -20q-94 0 -184.5 29.5t-155.5 74.5l26 117q68 -47 154 -80t162 -33z" />
<glyph horiz-adv-x="819" d="M369 88q45 0 85 11.5t69.5 33t47 52t17.5 69.5q0 66 -53.5 107.5t-149.5 82.5q-49 20 -92 45t-75 55.5t-51.5 69.5t-19.5 91q0 68 27 121t73 88.5t106.5 54t127.5 18.5q92 0 171 -26.5t136 -61.5l-28 -119q-59 41 -138 70t-151 29q-80 0 -138.5 -42t-60.5 -118 q0 -63 56.5 -100t146.5 -78q51 -25 94 -50.5t75 -57.5t50.5 -71.5t18.5 -91.5q0 -68 -27 -121t-74 -91t-109.5 -58t-135.5 -20q-94 0 -184.5 29.5t-155.5 74.5l26 117q68 -47 154 -80t162 -33zM401 1434l134 -279h4l243 279h119l-305 -373h-141l-160 373h106z" />
<glyph horiz-adv-x="894" d="M238 -186q8 33 38.5 56.5t75.5 18.5q53 -4 79 -47t15 -100q-16 -80 -80.5 -141.5t-156.5 -108.5l-41 45q86 47 115.5 89t38.5 77q8 37 -11.5 60.5t-72.5 50.5zM602 854l-166 -854h-125l166 854h-336l21 113h799l-21 -113h-338z" />
<glyph horiz-adv-x="892" d="M436 1423l133 -278h4l246 278h117l-305 -372h-142l-159 372h106zM602 854l-166 -854h-125l166 854h-336l21 113h799l-21 -113h-338z" />
<glyph horiz-adv-x="989" d="M578 1061l-240 366h164l170 -366h-94zM856 336q-29 -166 -129 -261t-264 -95q-78 0 -144.5 17t-114.5 54t-75 93.5t-27 134.5q0 31 5.5 61.5t9.5 54.5l110 572h125l-110 -574q-4 -20 -8.5 -44.5t-4.5 -49.5q0 -104 63.5 -155.5t176.5 -51.5t177.5 69.5t86.5 186.5l5 28 q5 27 14.5 71.5t19.5 99.5t23 112q27 135 59 308h123l-62 -316q-12 -59 -22 -115.5t-19 -101.5q-8 -53 -18 -98z" />
<glyph horiz-adv-x="989" d="M856 336q-29 -166 -129 -261t-264 -95q-78 0 -144.5 17t-114.5 54t-75 93.5t-27 134.5q0 31 5.5 61.5t9.5 54.5l110 572h125l-110 -574q-4 -20 -8.5 -44.5t-4.5 -49.5q0 -104 63.5 -155.5t176.5 -51.5t177.5 69.5t86.5 186.5l5 28q5 27 14.5 71.5t19.5 99.5t23 112 q27 135 59 308h123l-62 -316q-12 -59 -22 -115.5t-19 -101.5q-8 -53 -18 -98zM649 1061h-100l315 366h168z" />
<glyph horiz-adv-x="989" d="M856 336q-29 -166 -129 -261t-264 -95q-78 0 -144.5 17t-114.5 54t-75 93.5t-27 134.5q0 31 5.5 61.5t9.5 54.5l110 572h125l-110 -574q-4 -20 -8.5 -44.5t-4.5 -49.5q0 -104 63.5 -155.5t176.5 -51.5t177.5 69.5t86.5 186.5l5 28q5 27 14.5 71.5t19.5 99.5t23 112 q27 135 59 308h123l-62 -316q-12 -59 -22 -115.5t-19 -101.5q-8 -53 -18 -98zM815 1061l-137 276h-4l-242 -276h-119l305 373h144l160 -373h-107z" />
<glyph horiz-adv-x="989" d="M856 336q-29 -166 -129 -261t-264 -95q-78 0 -144.5 17t-114.5 54t-75 93.5t-27 134.5q0 31 5.5 61.5t9.5 54.5l110 572h125l-110 -574q-4 -20 -8.5 -44.5t-4.5 -49.5q0 -104 63.5 -155.5t176.5 -51.5t177.5 69.5t86.5 186.5l5 28q5 27 14.5 71.5t19.5 99.5t23 112 q27 135 59 308h123l-62 -316q-12 -59 -22 -115.5t-19 -101.5q-8 -53 -18 -98zM934 1214q0 -41 -26.5 -71.5t-69.5 -30.5q-45 0 -73 31t-28 71q0 41 28 71t73 30q43 0 69.5 -30t26.5 -71zM539 1214q0 -41 -27 -71.5t-72 -30.5q-43 0 -69.5 31t-26.5 71q0 41 26.5 71t69.5 30 q45 0 72 -30t27 -71z" />
<glyph horiz-adv-x="989" d="M856 336q-29 -166 -129 -261t-264 -95q-78 0 -144.5 17t-114.5 54t-75 93.5t-27 134.5q0 31 5.5 61.5t9.5 54.5l110 572h125l-110 -574q-4 -20 -8.5 -44.5t-4.5 -49.5q0 -104 63.5 -155.5t176.5 -51.5t177.5 69.5t86.5 186.5l5 28q5 27 14.5 71.5t19.5 99.5t23 112 q27 135 59 308h123l-62 -316q-12 -59 -22 -115.5t-19 -101.5q-8 -53 -18 -98zM373 1098l24 92h508l-8 -92h-524z" />
<glyph horiz-adv-x="989" d="M856 336q-29 -166 -129 -261t-264 -95q-78 0 -144.5 17t-114.5 54t-75 93.5t-27 134.5q0 31 5.5 61.5t9.5 54.5l110 572h125l-110 -574q-4 -20 -8.5 -44.5t-4.5 -49.5q0 -104 63.5 -155.5t176.5 -51.5t177.5 69.5t86.5 186.5l5 28q5 27 14.5 71.5t19.5 99.5t23 112 q27 135 59 308h123l-62 -316q-12 -59 -22 -115.5t-19 -101.5q-8 -53 -18 -98zM999 1432q-25 -76 -59.5 -143.5t-79.5 -119t-101.5 -81t-123.5 -29.5q-72 0 -119 30.5t-75.5 82t-40 119t-9.5 141.5h94q6 -131 45 -201t117 -70q145 0 252 271h100z" />
<glyph horiz-adv-x="989" d="M897 1272q0 -49 -19.5 -89t-53 -69t-80 -44t-97.5 -15q-98 0 -167.5 54t-69.5 146q0 49 19.5 89t53 70t79.5 46.5t100 16.5q100 0 167.5 -56.5t67.5 -148.5zM807 1270q0 59 -42 96t-106 37q-68 0 -112.5 -40t-44.5 -101q0 -59 42 -96.5t105 -37.5q66 0 112 40.5t46 101.5 zM856 336q-29 -166 -129 -261t-264 -95q-78 0 -144.5 17t-114.5 54t-75 93.5t-27 134.5q0 31 5.5 61.5t9.5 54.5l110 572h125l-110 -574q-4 -20 -8.5 -44.5t-4.5 -49.5q0 -104 63.5 -155.5t176.5 -51.5t177.5 69.5t86.5 186.5l5 28q5 27 14.5 71.5t19.5 99.5t23 112 q27 135 59 308h123l-62 -316q-12 -59 -22 -115.5t-19 -101.5q-8 -53 -18 -98z" />
<glyph horiz-adv-x="989" d="M856 336q-29 -166 -129 -261t-264 -95q-78 0 -144.5 17t-114.5 54t-75 93.5t-27 134.5q0 31 5.5 61.5t9.5 54.5l110 572h125l-110 -574q-4 -20 -8.5 -44.5t-4.5 -49.5q0 -104 63.5 -155.5t176.5 -51.5t177.5 69.5t86.5 186.5l5 28q5 27 14.5 71.5t19.5 99.5t23 112 q27 135 59 308h123l-62 -316q-12 -59 -22 -115.5t-19 -101.5q-8 -53 -18 -98zM780 1051h-112l329 362h142zM461 1051h-111l305 362h142z" />
<glyph horiz-adv-x="989" d="M465 -436q-84 8 -129 61t-29 139q14 68 61.5 121.5t108.5 94.5h-28q-76 2 -139.5 20t-109.5 55t-72 93.5t-26 130.5q0 31 5.5 61.5t9.5 54.5l112 572h123l-110 -574q-4 -20 -8.5 -44.5t-4.5 -49.5q0 -104 63.5 -155.5t176.5 -51.5t178.5 69.5t87.5 186.5l5 28 q5 27 13.5 71.5t18.5 99.5t23 112l61 308h121l-62 -316q-12 -59 -22 -115.5t-19 -101.5q-8 -53 -18 -98q-43 -236 -215 -324q-39 -20 -72.5 -46.5t-61.5 -56.5t-45.5 -61.5t-23.5 -62.5q-10 -47 10.5 -78t65.5 -35q27 -2 57.5 4.5t53.5 22.5l12 -98q-31 -16 -75 -28.5 t-97 -8.5z" />
<glyph horiz-adv-x="1443" d="M1059 1061l-137 276h-4l-242 -276h-119l305 373h144l159 -373h-106zM397 0h-123l-84 967h127l56 -795l391 795h143l82 -795l357 795h129l-457 -967h-123l-88 815z" />
<glyph horiz-adv-x="1443" d="M397 0h-123l-84 967h127l56 -795l391 795h143l82 -795l357 795h129l-457 -967h-123l-88 815zM811 1061l-240 366h164l170 -366h-94z" />
<glyph horiz-adv-x="1443" d="M860 1061h-100l315 366h168zM397 0h-123l-84 967h127l56 -795l391 795h143l82 -795l357 795h129l-457 -967h-123l-88 815z" />
<glyph horiz-adv-x="1443" d="M1174 1214q0 -41 -27 -71.5t-70 -30.5q-45 0 -72.5 31t-27.5 71q0 41 27.5 71t72.5 30q43 0 70 -30t27 -71zM778 1214q0 -41 -26.5 -71.5t-71.5 -30.5q-43 0 -69.5 31t-26.5 71q0 41 26.5 71t69.5 30q45 0 71.5 -30t26.5 -71zM397 0h-123l-84 967h127l56 -795l391 795 h143l82 -795l357 795h129l-457 -967h-123l-88 815z" />
<glyph horiz-adv-x="872" d="M496 385l-74 -385h-121l76 385l-227 582h131l176 -467l348 467h137zM569 1061h-100l315 366h168z" />
<glyph horiz-adv-x="872" d="M496 385l-74 -385h-121l76 385l-227 582h131l176 -467l348 467h137zM754 1061l-138 276h-4l-241 -276h-119l305 373h143l160 -373h-106z" />
<glyph horiz-adv-x="872" d="M496 385l-74 -385h-121l76 385l-227 582h131l176 -467l348 467h137zM879 1214q0 -41 -27 -71.5t-70 -30.5q-45 0 -72.5 31t-27.5 71q0 41 27.5 71t72.5 30q43 0 70 -30t27 -71zM483 1214q0 -41 -26.5 -71.5t-71.5 -30.5q-43 0 -69.5 31t-26.5 71q0 41 26.5 71t69.5 30 q45 0 71.5 -30t26.5 -71z" />
<glyph horiz-adv-x="849" d="M528 1061h-100l315 366h168zM-18 0l16 90l700 764h-536l22 113h697l-17 -90l-694 -764h547l-23 -113h-712z" />
<glyph horiz-adv-x="849" d="M-18 0l16 90l700 764h-536l22 113h697l-17 -90l-694 -764h547l-23 -113h-712zM651 1212q0 -41 -26.5 -70.5t-69.5 -29.5t-68.5 29.5t-25.5 70.5t25.5 70t68.5 29t69.5 -29t26.5 -70z" />
<glyph horiz-adv-x="849" d="M-18 0l16 90l700 764h-536l22 113h697l-17 -90l-694 -764h547l-23 -113h-712zM418 1434l133 -279h4l244 279h119l-306 -373h-141l-160 373h107z" />
<glyph horiz-adv-x="501" d="M-389 -238h-113l1395 1518h111z" />
<glyph horiz-adv-x="675" d="M102 61l2 68h506l4 -68h-512z" />
<glyph d="M469 -16q-117 0 -191.5 46t-117.5 117.5t-60.5 157.5t-17.5 164q0 76 12 167t38 183t67 178t100 153t137 106.5t178 39.5q117 0 192 -46t118 -117.5t59 -157.5t16 -166q0 -76 -11 -166t-37.5 -182t-67.5 -178t-99.5 -153t-137.5 -106.5t-177 -39.5zM870 819 q0 49 -9 111.5t-36.5 120t-80 96.5t-138.5 39q-84 0 -144.5 -41t-104.5 -106.5t-71.5 -147.5t-44 -162t-22.5 -151.5t-6 -116.5q0 -47 9 -110.5t37 -120t80 -95.5t138 -39q82 0 143.5 41t105.5 106.5t71.5 147.5t44 162t22.5 150.5t6 115.5z" />
<glyph d="M424 0l221 1141l-295 -68l17 115l430 104l-250 -1292h-123z" />
<glyph d="M23 0l12 131q180 150 325.5 262.5t248 206.5t156.5 181t54 186q0 55 -20.5 97t-55 69.5t-80 42t-94.5 14.5q-84 0 -165.5 -33t-145.5 -84l-33 107q78 59 170 92t185 33q74 0 140 -21.5t117.5 -63.5t82 -102.5t30.5 -140.5q0 -113 -53 -205t-152.5 -187.5t-245 -207 t-329.5 -260.5h672l-11 -117h-808z" />
<glyph d="M569 668q68 -8 126.5 -30t101.5 -57.5t67.5 -88t24.5 -121.5q0 -88 -37 -161t-100.5 -125t-145.5 -81t-174 -29q-45 0 -96 8.5t-100.5 22.5t-94.5 35.5t-80 46.5l45 113q70 -49 157 -80t173 -31q63 0 121.5 17.5t104 51.5t71 84t25.5 115q0 63 -25.5 108.5t-70 74 t-102.5 42t-126 13.5q-35 0 -64.5 -2t-58.5 -6l17 104q70 10 155.5 29.5t160.5 54.5t126 88.5t51 130.5q0 51 -19.5 88t-52 61.5t-76.5 36t-91 11.5q-82 0 -163 -29.5t-145 -70.5l-34 104q72 47 163 78t189 31q68 0 131 -16.5t114.5 -52.5t82 -90t30.5 -128 q0 -78 -32.5 -136.5t-86 -100.5t-122 -70.5t-140.5 -42.5z" />
<glyph d="M766 326l-64 -330h-118l65 330h-602l-4 96l778 868h133l-166 -854h193l-16 -110h-199zM809 1137l-625 -701h488z" />
<glyph d="M336 758q23 4 47.5 5t56.5 1q80 0 159 -19.5t140.5 -62.5t100.5 -110.5t39 -161.5q0 -100 -36 -181.5t-98.5 -138.5t-146.5 -88t-182 -31q-43 0 -92.5 8.5t-97.5 22.5t-92 34.5t-79 45.5l39 119q72 -49 155 -82t173 -33q70 0 129 21.5t104 61.5t71 97.5t26 130.5 q0 72 -29 122t-75 82t-104.5 46.5t-115.5 14.5q-66 0 -114 -6.5t-93 -18.5l-28 37l182 606h616l-12 -121h-522l-121 -401v0z" />
<glyph d="M961 1186q-111 -14 -218.5 -52t-202 -101.5t-170 -154t-120.5 -208.5l4 -2q70 47 157 76.5t173 29.5q80 0 145.5 -26.5t110.5 -72.5t69.5 -109.5t24.5 -137.5q0 -94 -33 -177t-90 -144.5t-138 -96.5t-175 -35q-96 0 -172 35t-128.5 94.5t-80 141.5t-27.5 174 q0 184 73 336.5t192.5 266.5t273 184.5t313.5 90.5zM213 414q0 -66 18.5 -124.5t55.5 -103.5t91 -71.5t126 -26.5q70 0 126 25.5t96 70.5t61.5 103.5t21.5 126.5q0 123 -72.5 187.5t-189.5 64.5q-92 0 -171 -29t-143 -76q-12 -35 -16 -71.5t-4 -75.5z" />
<glyph d="M199 1157l24 123h807l4 -100l-755 -1180h-138l754 1157h-696z" />
<glyph d="M862 967q0 53 -19.5 95t-54 71.5t-82 46t-100.5 16.5q-55 0 -105 -17.5t-89 -48t-62.5 -73.5t-23.5 -96q0 -55 28.5 -98.5t70.5 -77t90 -58.5t87 -43q51 16 98.5 41t83 59.5t57 80t21.5 102.5zM778 322q0 59 -28.5 104t-71.5 80t-93 60.5t-91 43.5q-55 -14 -108.5 -38.5 t-94.5 -61.5t-66.5 -85t-25.5 -112q0 -57 23.5 -100t63.5 -70.5t94 -42t114 -14.5q57 0 109 16.5t91 46t61.5 74t22.5 99.5zM903 334q0 -82 -33.5 -148.5t-92 -112.5t-135.5 -71t-161 -25q-80 0 -154.5 19.5t-131 59.5t-90 99.5t-33.5 139.5q0 76 26.5 135t72.5 105.5 t106.5 78t128.5 50.5q-39 23 -76 50t-65.5 62t-46 77t-17.5 95q0 78 32.5 143.5t89 112.5t131 74t158.5 27q78 0 146.5 -20.5t120 -61.5t81 -100.5t29.5 -137.5q0 -68 -23.5 -124t-64.5 -99t-96 -76t-119 -55q41 -25 80 -53.5t69.5 -64.5t49 -80t18.5 -99z" />
<glyph d="M123 92q111 14 218.5 52t201.5 102.5t168.5 155t122.5 208.5l-5 2q-70 -47 -157.5 -76.5t-173.5 -29.5q-84 0 -148.5 25.5t-109.5 71.5t-69 108.5t-24 136.5q0 94 33 177t91.5 144.5t138 96t176.5 34.5q96 0 170.5 -33.5t127 -93t80 -139.5t27.5 -172 q0 -186 -72.5 -339.5t-192.5 -267.5t-272.5 -183.5t-314.5 -89.5zM868 866q0 63 -18.5 122t-55 104t-91 70.5t-125.5 25.5q-70 0 -126.5 -25.5t-96.5 -70.5t-61.5 -103.5t-21.5 -126.5q0 -123 73 -185.5t190 -62.5q92 0 171.5 30t141.5 75q12 35 16 71.5t4 75.5z" />
<glyph d="M559 578q-14 -35 -27 -74q-12 -35 -25 -78t-30 -88q-37 -106 -80 -242q37 -6 74 -6q61 0 117.5 16.5t99.5 48t68.5 76.5t25.5 101q0 88 -60.5 143.5t-162.5 102.5zM735 1327q4 14 11.5 31.5t13.5 36.5q14 43 33 100h81l-71 -217q123 -35 211 -100l-33 -125 q-43 37 -99.5 65.5t-117.5 44.5l-156 -465q63 -29 118.5 -60.5t95.5 -72.5t62.5 -94t22.5 -123q0 -86 -33.5 -155.5t-94 -118.5t-140.5 -75t-172 -26q-29 0 -54.5 2t-54.5 7l-77 -234h-82l84 250q-72 20 -135.5 52t-116.5 75l32 127q53 -47 120 -83t139 -56l165 497 q-59 27 -112 57.5t-93 70.5t-63.5 89.5t-23.5 114.5q0 88 34.5 155.5t93 113.5t135.5 70t160 24q29 0 54.5 -2.5t52.5 -6.5zM537 731q43 127 75 225l74 226q-41 6 -80 6q-57 0 -109.5 -15.5t-91 -45t-61 -72.5t-22.5 -99q0 -78 58.5 -128t156.5 -97z" />
<glyph d="M811 942q98 -29 172 -88l-53 -106q-66 55 -156 83l-246 -739q14 -2 27.5 -3t28.5 -1q61 0 120.5 14.5t112.5 40.5l2 -114q-53 -27 -116.5 -41.5t-127.5 -14.5q-23 0 -43 2t-40 7l-78 -234h-86l41 127q8 23 15 46.5t13 39.5q8 20 15 39q-121 45 -194 151.5t-73 260.5 q0 104 38 203.5t105.5 176t162 124t206.5 47.5q18 0 37 -1t35 -4l66 193h86zM692 848q-10 2 -21.5 2h-23.5q-86 0 -155.5 -38t-116.5 -99.5t-73 -138t-26 -152.5q0 -117 46.5 -194.5t126.5 -112.5z" />
<glyph d="M299 662q8 70 17.5 134t21.5 124q37 186 142.5 288.5t277.5 102.5q92 0 170 -28t143 -77l-51 -106q-57 41 -125 69.5t-147 28.5q-63 0 -110.5 -21.5t-81.5 -58.5t-55.5 -87t-33.5 -107q-10 -57 -20.5 -124t-18.5 -138h393l-8 -95h-397q-8 -63 -17.5 -123.5t-21.5 -119.5 q-4 -25 -10.5 -47.5t-12.5 -43.5q59 -63 138 -106t151 -43q86 0 139.5 54.5t89.5 152.5l95 -29q-39 -135 -121 -214t-205 -79q-94 -2 -180 49.5t-152 122.5q-47 -76 -128 -115.5t-208 -62.5q-4 33 -6 55q-2 20 -3 37t-1 15q68 12 116 30.5t82 47t55.5 71.5t33.5 105 q20 113 37 243h-183l-4 95h199v0z" />
<glyph d="M100 541l4 94h324l-281 645h140l254 -612l477 612h149l-262 -324q-49 -61 -96 -118.5t-84 -102.5q-43 -53 -82 -100h313l-18 -94h-358l-37 -181h352l-4 -92h-365l-51 -268h-127l51 268h-360l18 92h361l37 181h-355z" />
<glyph horiz-adv-x="1032" d="M145 762l-6 92h152q35 98 84 178t113.5 138.5t143.5 90t173 31.5q90 0 182 -27.5t154 -74.5l-51 -107q-57 45 -138.5 71t-156.5 26q-131 0 -223.5 -86t-147.5 -240h483l-6 -92h-506q-6 -25 -12 -50.5t-10 -52.5q-8 -35 -12.5 -70.5t-8.5 -66.5h414l6 -92h-422 q4 -168 80 -258t250 -90q125 0 223 43l-2 -113q-51 -23 -108.5 -32t-122.5 -11q-229 0 -341 117t-112 344h-154l7 92h153q2 33 6 68t11 69q4 27 10 52.5t12 50.5h-117z" />
<glyph d="M922 1038q0 -68 -26 -127t-71 -104t-106.5 -70.5t-130.5 -25.5q-123 0 -199 72.5t-76 195.5q0 66 26 126t71 105t105 72t128 27q61 0 112.5 -19.5t88.5 -54.5t57.5 -85.5t20.5 -111.5zM836 1032q0 92 -56.5 142.5t-144.5 50.5q-49 0 -92 -19.5t-75 -51.5t-50.5 -76 t-18.5 -93q0 -90 56.5 -141t144.5 -51q49 0 92 19t75 52t50.5 76t18.5 92z" />
<glyph d="M571 426v-369h-112v369h-361l6 111h355v364h112v-364h351l6 -111h-357z" />
<glyph d="M567 465v-295h-112v295h-359l6 113h353v325h112v-325h353l6 -113h-359zM96 18l6 111h818l6 -111h-830z" />
<glyph d="M926 199h-113v311h-715l6 113h822v-424z" />
<glyph d="M135 604l-8 113h774l-8 -113h-758zM127 244l8 112h758l8 -112h-774z" />
<glyph d="M860 57l-344 346l-346 -346l-76 76l346 346l-346 344l76 76l346 -346l346 348l76 -76l-348 -346l346 -346z" />
<glyph d="M98 426l6 111h818l6 -111h-830zM621 193q0 -41 -29 -74t-76 -33t-76.5 33t-29.5 74t29.5 72.5t76.5 31.5t76 -31.5t29 -72.5zM621 766q0 -41 -30 -74t-77 -33t-75.5 33t-28.5 74t28.5 73.5t75.5 32.5t77 -32.5t30 -73.5z" />
<glyph d="M897 37l-782 389v111l780 391v-125l-637 -311v-21l639 -311v-123z" />
<glyph d="M123 37v123l639 311v21l-637 311v125l780 -391v-111z" />
<glyph horiz-adv-x="512" d="M201 1438h112v-1846h-112v1846z" />
<glyph horiz-adv-x="512" d="M201 1315h112v-686h-112v686zM201 401h112v-686h-112v686z" />
<glyph d="M905 475q0 -23 -12 -63.5t-29.5 -83.5t-37 -80t-35.5 -53t-53.5 -36t-80.5 -37.5t-84 -29.5t-63 -12q-23 0 -62.5 12t-82.5 29.5t-80 37t-52 36.5q-14 16 -34.5 53t-39 80t-30.5 84t-12 63q0 23 12 63t30.5 83t38 79.5t35.5 53.5q14 14 52.5 34.5t81.5 38t82.5 29.5 t62.5 12t62.5 -12t82.5 -29.5t80 -38t54 -34.5q16 -16 35.5 -53t37 -80t29.5 -83t12 -63z" />
<glyph d="M874 596q-33 -104 -82 -169t-130 -65q-51 0 -93.5 23t-78 49.5t-66.5 49t-62 22.5q-37 0 -61.5 -36t-46.5 -93h-92q31 104 80 168.5t133 64.5q51 0 93 -22.5t78 -49t66.5 -49t61.5 -22.5q35 0 59.5 35t46.5 94h94v0z" />
<glyph horiz-adv-x="512" d="M147 815l361 508l113 -59l-402 -449h-72z" />
<glyph d="M559 815l361 508l116 -59l-401 -449h-76zM256 815l358 508l117 -59l-401 -449h-74z" />
<glyph d="M848 -494q-86 43 -183.5 128t-180.5 207t-137 278.5t-54 343.5q0 186 54 343t137 278.5t180.5 207.5t183.5 129l55 -90q-80 -43 -167 -123t-160.5 -192.5t-120.5 -251.5t-47 -301t47 -301t120.5 -251t160.5 -191.5t167 -122.5l-55 -91v0z" />
<glyph d="M121 -403q80 43 168 122.5t159.5 191.5t118.5 251t47 301t-47 301t-118.5 251.5t-159.5 192.5t-168 123l57 90q86 -43 183.5 -129t179.5 -207.5t136 -278.5t54 -343t-54 -343t-136 -279t-180.5 -207t-184.5 -128z" />
<glyph d="M315 -455v1837h533v-104h-416v-1628h416v-105h-533z" />
<glyph d="M176 -350h416v1628h-416v104h531v-1837h-531v105z" />
<glyph d="M328 768l-62 121l297 90l2 10l-235 197l96 92l176 -260h6l117 287l115 -64l-191 -246l4 -6l299 -14l-24 -131l-283 100l-8 -6l84 -301l-131 -12l2 309l-6 4z" />
<glyph d="M819 -469q-213 10 -328.5 68.5t-115.5 191.5q0 63 16.5 119.5t34.5 109t34.5 101.5t16.5 98q0 94 -59.5 134t-200.5 53l-6 67l6 70q141 10 200.5 50t59.5 136q0 49 -16.5 98.5t-34.5 101.5t-34.5 107.5t-16.5 118.5q0 133 115.5 192.5t328.5 69.5v-94 q-180 -14 -252.5 -51t-72.5 -107q0 -49 16 -100t35.5 -103.5t36 -105.5t16.5 -106q0 -106 -67.5 -183.5t-215.5 -87.5v-12q147 -10 215 -87t68 -185q0 -53 -16.5 -105.5t-36 -105t-35.5 -102.5t-16 -95q0 -74 72.5 -111.5t252.5 -52.5v-92v0z" />
<glyph d="M807 403q-141 -10 -201.5 -50t-60.5 -136q0 -49 16.5 -98t35.5 -101.5t35.5 -107.5t16.5 -119q0 -133 -115.5 -192.5t-328.5 -67.5v92q178 12 251.5 50t73.5 110q0 47 -16 98t-35.5 103.5t-36 104.5t-16.5 106q0 106 67.5 184t215.5 88v12q-147 8 -215 85t-68 186 q0 53 16.5 106t36 105.5t35.5 103.5t16 98q0 70 -73.5 108t-251.5 52v94q213 -12 328.5 -70.5t115.5 -191.5q0 -63 -16.5 -119.5t-35.5 -109t-35.5 -101.5t-16.5 -98q0 -96 60.5 -136t201.5 -50l6 -68z" />
<glyph d="M985 584q0 -59 -26.5 -105.5t-68.5 -80t-95.5 -55t-104.5 -32.5q39 -29 62.5 -71.5t23.5 -96.5q0 -68 -28.5 -120t-75.5 -87.5t-108.5 -54t-125.5 -18.5q-92 0 -188 33.5t-160 87.5l57 106q59 -53 137 -85t156 -32q35 0 73 8.5t69.5 27t52 47t20.5 69.5q0 39 -20.5 69.5 t-56 55t-82.5 47t-101 45.5q-53 23 -105 47.5t-93 56t-66 70.5t-25 92q0 57 28 103.5t72 80t98 55t106 30.5q-41 31 -68 73.5t-27 102.5q0 63 26 113.5t69 83t100 50t119 17.5q90 0 175 -26.5t154 -71.5l-55 -107q-59 41 -133 68.5t-147 27.5q-31 0 -65 -7t-60.5 -23.5 t-44 -43t-17.5 -65.5t19.5 -68.5t54.5 -53t82 -45t100 -44.5q55 -23 107.5 -48.5t93.5 -58t66.5 -73.5t25.5 -94zM866 561q0 41 -28.5 74t-69.5 58.5t-86 44t-76 30.5q-35 16 -68.5 29.5t-68.5 31.5q-33 -10 -76 -25.5t-81 -39t-63.5 -56t-25.5 -75.5q0 -41 30 -74t73 -57.5 t88 -44t75 -31.5q35 -16 70 -29.5t70 -34.5q33 10 74.5 27t77.5 41.5t60.5 56t24.5 74.5z" />
<glyph d="M739 528q-20 -4 -57 -5t-66 -1q-90 0 -170.5 21.5t-142 64.5t-98.5 105.5t-37 146.5q0 98 39 176t105.5 132.5t156.5 82t193 27.5h335l-278 -1411h-113l133 661v0z" />
<glyph horiz-adv-x="512" d="M287 80q0 -41 -28 -74t-73 -33q-47 0 -75.5 33t-28.5 74t28.5 71.5t75.5 30.5q45 0 73 -30.5t28 -71.5z" />
<glyph horiz-adv-x="512" d="M70 106q10 37 41.5 63t74.5 26q57 0 94 -43t37 -103q0 -59 -30.5 -113.5t-78.5 -100.5t-105.5 -84t-110.5 -64l-45 57q41 23 82 52.5t73.5 62t53 67.5t20.5 70t-33.5 63.5t-72.5 46.5z" />
<glyph horiz-adv-x="512" d="M412 733q0 -43 -29 -74.5t-74 -31.5t-73.5 31.5t-28.5 74.5q0 41 28.5 71t73.5 30t74 -30t29 -71zM287 80q0 -41 -28 -74t-73 -33q-47 0 -75.5 33t-28.5 74t28.5 71.5t75.5 30.5q45 0 73 -30.5t28 -71.5z" />
<glyph horiz-adv-x="512" d="M412 733q0 -43 -29 -74.5t-74 -31.5t-73.5 31.5t-28.5 74.5q0 41 28.5 71t73.5 30t74 -30t29 -71zM70 106q10 37 41.5 63t74.5 26q57 0 94 -43t37 -103q0 -59 -30.5 -113.5t-78.5 -100.5t-105.5 -84t-110.5 -64l-45 57q41 23 82 52.5t73.5 62t53 67.5t20.5 70t-33.5 63.5 t-72.5 46.5z" />
<glyph horiz-adv-x="671" d="M485 53l-432 359l27 135l571 356l-8 -110l-473 -324v-2l352 -328z" />
<glyph horiz-adv-x="671" d="M25 51l8 111l471 321v2l-350 330l36 88l433 -360l-25 -135z" />
<glyph horiz-adv-x="1177" d="M1010 53l-432 359l26 135l570 356l-7 -110l-467 -324v-2l347 -328zM465 63l-422 351l27 131l557 348l-6 -107l-457 -317v-2l338 -322z" />
<glyph horiz-adv-x="1183" d="M561 66l4 106l457 315v2l-336 324l37 80l422 -350l-27 -129zM12 53l6 113l467 321v2l-344 330l37 86l434 -360l-26 -135z" />
<glyph horiz-adv-x="512" d="M365 469q0 -41 -28 -74t-73 -33q-47 0 -75.5 33t-28.5 74t28.5 71.5t75.5 30.5q45 0 73 -30.5t28 -71.5z" />
<glyph horiz-adv-x="598" d="M74 438v119h463v-119h-463z" />
<glyph horiz-adv-x="911" d="M66 440l6 101h774l6 -101h-786z" />
<glyph horiz-adv-x="1873" d="M66 440l6 101h1736l7 -101h-1749z" />
<glyph horiz-adv-x="1536" d="M770 1196l586 -1104h-1176zM768 815l-260 -534h520z" />
<glyph horiz-adv-x="1536" d="M1401 639l-1104 -586v1176zM1020 641l-535 260v-520z" />
<glyph horiz-adv-x="1536" d="M1356 1196l-586 -1104l-590 1104h1176zM508 1008l260 -535l260 535h-520z" />
<glyph horiz-adv-x="1536" d="M1237 53l-1104 586l1104 590v-1176zM1049 901l-535 -260l535 -260v520z" />
<glyph horiz-adv-x="1536" d="M770 1196l586 -1104h-1176z" />
<glyph horiz-adv-x="1536" d="M1401 639l-1104 -586v1176z" />
<glyph horiz-adv-x="1536" d="M1356 1196l-586 -1104l-590 1104h1176z" />
<glyph horiz-adv-x="1536" d="M1237 53l-1104 586l1104 590v-1176z" />
<glyph horiz-adv-x="1536" d="M709 1079l-484 -514l-100 88l635 654h14l637 -654l-100 -88l-486 514l11 -1104h-138z" />
<glyph horiz-adv-x="1536" d="M698 94l514 486l-1103 -11v138l1103 -11l-514 486l88 100l654 -637v-14l-654 -635z" />
<glyph horiz-adv-x="1536" d="M123 627l98 88l486 -514l-11 1104h138l-9 -1104l484 514l100 -88l-637 -654h-12z" />
<glyph horiz-adv-x="1536" d="M96 631v14l654 637l88 -100l-514 -486l1103 11v-138l-1103 11l514 -486l-88 -98z" />
<glyph d="M940 854v-854h-856v854h856zM831 750h-641v-641h641v641z" />
<glyph d="M940 854v-854h-856v854h856zM754 670h-484v-484h484v484z" />
<glyph d="M940 854v-854h-856v854h856zM772 764l76 -76v76h-76zM715 764h-133l266 -266v131zM524 764h-131l455 -455v131zM336 764h-131l643 -643v131zM176 735v-133l512 -508h131zM176 545v-131l322 -320h131zM176 354v-131l131 -129h131zM176 168v-74h74z" />
<glyph d="M84 854h856v-854h-856v854z" />
<glyph horiz-adv-x="1536" d="M1409 0h-1282v1282h1282v-1282zM1296 1169h-1056v-1056h1056v1056z" />
<glyph horiz-adv-x="1536" d="M1409 0h-1282v1282h1282v-1282zM362 236h812v811h-812v-811z" />
<glyph horiz-adv-x="1536" d="M1409 0h-1282v1282h1282v-1282zM1296 1169h-159l159 -159v159zM1296 956l-213 213h-237l450 -450v237zM1296 666l-503 503h-238l741 -741v238zM1296 377l-792 792h-238l1030 -1030v238zM1272 113l-1032 1032v-238l794 -794h238zM240 616l503 -503h238l-741 741v-238z M690 113l-450 450v-237l213 -213h237zM240 113h163l-163 163v-163z" />
<glyph horiz-adv-x="1536" d="M1409 0h-1282v1282h1282v-1282z" />
<glyph d="M512 -20q-94 0 -176 34.5t-142.5 95t-95.5 142.5t-35 176t35 175t95.5 141.5t142.5 95t176 34.5t176 -34.5t142.5 -95t95.5 -141.5t35 -175t-35 -176t-95.5 -142.5t-142.5 -95t-176 -34.5zM852 428q0 72 -25.5 134.5t-71.5 109.5t-108.5 73.5t-134.5 26.5t-134.5 -26.5 t-108.5 -73.5t-71.5 -109.5t-25.5 -134.5t25.5 -134.5t71.5 -109.5t108.5 -73.5t134.5 -26.5t134.5 26.5t108.5 73.5t71.5 109.5t25.5 134.5z" />
<glyph d="M512 -20q-94 0 -176 34.5t-142.5 95t-95.5 142.5t-35 176t35 175t95.5 141.5t142.5 95t176 34.5t176 -34.5t142.5 -95t95.5 -141.5t35 -175t-35 -176t-95.5 -142.5t-142.5 -95t-176 -34.5zM770 428q0 53 -19.5 101.5t-54 84t-82 56t-102.5 20.5t-102.5 -20.5t-82 -56 t-54 -84t-19.5 -101.5q0 -55 19.5 -102t54 -83t82 -56.5t102.5 -20.5t102.5 20.5t82 56.5t54 83t19.5 102z" />
<glyph d="M512 -20q-94 0 -176 34.5t-142.5 95t-95.5 142.5t-35 176t35 175t95.5 141.5t142.5 95t176 34.5t176 -34.5t142.5 -95t95.5 -141.5t35 -175t-35 -176t-95.5 -142.5t-142.5 -95t-176 -34.5zM770 690q-41 41 -93 67.5t-114 35.5l309 -310q-8 61 -34.5 113.5t-67.5 93.5z M500 797q-29 -2 -57.5 -7.5t-55.5 -15.5l467 -469q10 29 15 57.5t8 57.5zM346 758q-23 -10 -42 -24.5t-36 -31.5l518 -520q35 35 54 80zM238 674q-35 -35 -54 -82l496 -494q23 10 42 24.5t36 31.5zM168 549q-16 -49 -21 -113l377 -377q63 0 113 21zM152 373 q8 -63 36.5 -117.5t71.5 -95.5q41 -39 91 -64.5t110 -34.5z" />
<glyph d="M512 -20q-94 0 -176 34.5t-142.5 95t-95.5 142.5t-35 176t35 175t95.5 141.5t142.5 95t176 34.5t176 -34.5t142.5 -95t95.5 -141.5t35 -175t-35 -176t-95.5 -142.5t-142.5 -95t-176 -34.5z" />
<glyph horiz-adv-x="1536" d="M1440 641q0 -141 -51.5 -263t-142.5 -213t-214 -143.5t-264 -52.5t-264 52.5t-214 143.5t-142.5 213t-51.5 263t51.5 263t142.5 213t214 143.5t264 52.5t264 -52.5t214 -143.5t142.5 -213t51.5 -263zM768 76q119 0 221.5 44t177 120.5t117.5 180t43 220.5t-43 220.5 t-117.5 180t-177 120.5t-221.5 44t-221.5 -44t-177 -120.5t-117.5 -180t-43 -220.5t43 -220.5t117.5 -180t177 -120.5t221.5 -44z" />
<glyph horiz-adv-x="1536" d="M1440 641q0 -141 -51.5 -263t-142.5 -213t-214 -143.5t-264 -52.5t-264 52.5t-214 143.5t-142.5 213t-51.5 263t51.5 263t142.5 213t214 143.5t264 52.5t264 -52.5t214 -143.5t142.5 -213t51.5 -263zM768 1083q-92 0 -172 -34.5t-138.5 -95t-92 -140.5t-33.5 -172 t33.5 -172t92 -140.5t138.5 -95t172 -34.5t172 34.5t138.5 95t92 140.5t33.5 172t-33.5 172t-92 140.5t-138.5 95t-172 34.5z" />
<glyph horiz-adv-x="1536" d="M1440 641q0 -141 -51.5 -263t-142.5 -213t-214 -143.5t-264 -52.5t-264 52.5t-214 143.5t-142.5 213t-51.5 263t51.5 264t142.5 214t214 144.5t264 53.5t264 -53.5t214 -144.5t142.5 -214t51.5 -264zM1325 690q-8 104 -50 194.5t-109.5 159t-159 110.5t-195.5 50z M1288 434q35 92 39 201l-571 571q-109 -4 -199 -39l367 -366q68 -70 133 -135.5t117 -116.5q59 -62 114 -115zM1180 256q57 59 94 141q-55 53 -117 117q-53 53 -119.5 120.5t-138.5 139.5l-377 377q-78 -37 -139 -98zM1016 131q78 37 139 98l-799 799q-29 -31 -52 -66.5 t-42 -76.5zM246 848q-33 -92 -37 -201l571 -571q53 0 102.5 10t96.5 29zM211 592q8 -104 50 -194.5t109.5 -159t159 -110.5t195.5 -50z" />
<glyph horiz-adv-x="1536" d="M1440 641q0 -141 -51.5 -263t-142.5 -213t-214 -143.5t-264 -52.5t-264 52.5t-214 143.5t-142.5 213t-51.5 263t51.5 263t142.5 213t214 143.5t264 52.5t264 -52.5t214 -143.5t142.5 -213t51.5 -263z" />
<glyph horiz-adv-x="1546" d="M1194 303l141 -387l-387 141l-174 -370l-172 368l-383 -139l139 383l-370 176l370 170l-139 387l383 -141l176 371l170 -371l387 141l-141 -387l369 -168zM1087 602l103 285l-285 -103l-129 273l-129 -273l-285 103l105 -285l-274 -129l274 -129l-105 -283l285 105 l127 -277l131 277l285 -105l-103 287l271 127z" />
</font>
</defs>
</svg>
