<?xml version="1.0" standalone="no"?>
<!DOCTYPE svg PUBLIC "-//W3C//DTD SVG 1.1//EN" "http://www.w3.org/Graphics/SVG/1.1/DTD/svg11.dtd" >
<svg xmlns="http://www.w3.org/2000/svg" xmlns:xlink="http://www.w3.org/1999/xlink" version="1.1">
<metadata></metadata>
<defs>
<font id="freightsans_probold" horiz-adv-x="1024" >
<font-face units-per-em="2048" ascent="1638" descent="-410" />
<missing-glyph horiz-adv-x="466" />
<glyph unicode="&#xfb00;" horiz-adv-x="1468" d="M481 0h-315v690l-164 12l8 201l154 45l2 62q6 209 99 302t274 93q88 0 153.5 -15.5t104.5 -31.5l-9 -41q-10 -41 -21 -90t-21 -89l-9 -40q-37 14 -74.5 25.5t-84.5 11.5q-61 0 -86 -35t-25 -105v-55h405l2 90q6 209 99.5 302t273.5 93q88 0 154.5 -15t105.5 -32l-4 -20 q-4 -19 -11 -48.5t-15.5 -63.5t-15.5 -62.5t-11 -47.5l-4 -18q-35 14 -73 25.5t-85 11.5q-61 0 -85.5 -35t-24.5 -104v-76h264l-6 -248h-246v-692h-316v692h-393v-692z" />
<glyph unicode="&#xfb01;" horiz-adv-x="1249" d="M1174 1231q0 -84 -50.5 -127t-136.5 -43t-136 43t-50 127q0 82 50 126t136 44t136.5 -44t50.5 -126zM760 1386q-16 -74 -27 -131q-10 -49 -18 -91t-8 -40q-33 14 -64 22.5t-65 8.5q-61 0 -86 -35t-25 -104v-76h252l-6 -248h-232v-692h-315v690l-164 12l8 201l154 45l2 82 q6 209 98 302t273 93q68 0 125 -12.5t98 -26.5zM829 0v936l316 39v-975h-316z" />
<glyph unicode="&#xfb02;" horiz-adv-x="1298" d="M797 1378l-9 -41q-10 -41 -21 -90t-21 -89l-9 -40q-37 14 -74.5 25.5t-84.5 11.5q-61 0 -86 -35t-25 -104v-76h266l-6 -248h-246v-692h-315v690l-164 12l8 201l154 45l2 82q6 209 99 302t274 93q88 0 153.5 -15.5t104.5 -31.5zM870 0v1354l316 39v-1393h-316z" />
<glyph unicode="&#xfb03;" horiz-adv-x="1959" d="M1884 1231q0 -84 -50 -127t-136 -43q-88 0 -137.5 43t-49.5 127q0 82 49.5 126t137.5 44q86 0 136 -44t50 -126zM481 0h-315v690l-164 12l8 201l154 45l2 62q6 209 99 302t274 93q88 0 153.5 -15.5t104.5 -31.5l-9 -41q-10 -41 -21 -90t-21 -89l-9 -40q-37 14 -74.5 25.5 t-84.5 11.5q-61 0 -86 -35t-25 -105v-55h405l2 90q6 209 99.5 302t273.5 93q66 0 123 -12t98 -27q-16 -74 -26 -131q-10 -49 -18.5 -91t-8.5 -40q-31 14 -61.5 22.5t-65.5 8.5q-61 0 -85.5 -35t-24.5 -104v-76h252l-7 -248h-233v-692h-316v692h-393v-692zM1538 0v936l315 39 v-975h-315z" />
<glyph unicode="&#xfb04;" horiz-adv-x="2007" d="M481 0h-315v690l-164 12l8 201l154 45l2 62q6 209 99 302t274 93q88 0 153.5 -15.5t104.5 -31.5l-9 -41q-10 -41 -21 -90t-21 -89l-9 -40q-37 14 -74.5 25.5t-84.5 11.5q-61 0 -86 -35t-25 -105v-55h405l2 90q6 209 99.5 302t273.5 93q88 0 154.5 -15t105.5 -32l-4 -20 q-4 -19 -11 -48.5t-15.5 -63.5t-15.5 -62.5t-11 -47.5l-4 -18q-35 14 -73 25.5t-85 11.5q-61 0 -85.5 -35t-24.5 -104v-76h264l-6 -248h-246v-692h-316v692h-393v-692zM1579 0v1354l315 39v-1393h-315z" />
<glyph horiz-adv-x="0" />
<glyph unicode="&#xd;" horiz-adv-x="466" />
<glyph horiz-adv-x="0" />
<glyph horiz-adv-x="0" />
<glyph unicode=" "  horiz-adv-x="466" />
<glyph unicode="&#x09;" horiz-adv-x="466" />
<glyph unicode="&#xa0;" horiz-adv-x="466" />
<glyph unicode="!" horiz-adv-x="622" d="M127 1335h371l-66 -895h-237zM504 143q0 -86 -53.5 -130t-139.5 -44t-140 44t-54 130q0 84 54 128t140 44t139.5 -44t53.5 -128z" />
<glyph unicode="&#x22;" horiz-adv-x="890" d="M436 815l236 506l274 -74l-307 -432h-203zM8 815l236 506l272 -74l-305 -432h-203z" />
<glyph unicode="#" horiz-adv-x="1273" d="M72 723v227h284l97 365h235l-98 -365h289l98 365h233l-98 -365h135v-227h-194l-68 -254h221v-227h-282l-107 -394h-233l106 394h-291l-104 -394h-236l107 394h-135v227h196l68 254h-223zM530 735l-73 -278h288l78 278h-293z" />
<glyph unicode="$" horiz-adv-x="1150" d="M563 227q98 4 149.5 37t51.5 94q0 53 -37 83t-123 55zM645 1497h139l-30 -203q86 -14 158.5 -38.5t134.5 -59.5l-64 -268q-131 70 -272 98q-2 -16 -6 -39q-4 -18 -6.5 -41.5t-6.5 -46.5l-20 -127q74 -20 145.5 -49t129 -73t92 -108.5t34.5 -156.5t-34.5 -168t-101.5 -131 t-165 -86t-223 -31h-27l-35 -219h-139l37 232q-96 14 -180 41.5t-148 62.5l60 270q70 -37 147.5 -65.5t161.5 -42.5l45 278q-68 18 -138.5 47t-126.5 73t-92 109.5t-36 157.5q0 178 126 287t363 109h49zM575 1053q-98 -2 -142 -33t-44 -88q0 -47 37 -78t109 -53z" />
<glyph unicode="%" horiz-adv-x="1703" d="M756 973q0 -80 -24.5 -145.5t-71 -113.5t-114 -74t-151.5 -26q-170 0 -264 99.5t-94 259.5t96 258t264 98q84 0 150.5 -25.5t113 -72.5t71 -112.5t24.5 -145.5zM442 -31h-237l1061 1340h237zM1667 307q0 -162 -95 -260t-265 -98t-264.5 99t-94.5 259q0 80 24.5 145.5 t72 112.5t114 73t150.5 26t150.5 -26t112.5 -73t70.5 -112.5t24.5 -145.5zM545 971q0 92 -41 143t-109 51t-107.5 -51t-39.5 -143q0 -90 40 -140.5t109 -50.5q66 0 107 51.5t41 139.5zM1456 305q0 90 -40 141.5t-107 51.5q-70 0 -110 -51.5t-40 -141.5q0 -92 40 -142 t110 -50q68 0 107.5 51t39.5 141z" />
<glyph unicode="&#x26;" horiz-adv-x="1347" d="M582 786q49 33 82.5 73t33.5 102q0 66 -41 102.5t-104 36.5q-61 0 -99 -40t-38 -93q0 -66 46 -107t120 -74zM762 362q-72 78 -146.5 133.5t-142.5 82.5q-63 -37 -102 -87.5t-39 -109.5q0 -80 53 -126t131 -46q74 0 134.5 40.5t111.5 112.5zM885 205q-96 -119 -208 -177.5 t-224 -58.5q-90 0 -166 25.5t-130.5 72t-85 111t-30.5 141.5q0 68 24.5 124.5t64.5 99.5t93 72.5t109 43.5q-82 45 -136.5 120t-54.5 173q0 66 28 129.5t81 114.5t131 82t180 31q88 0 164 -22.5t129 -63.5t84 -98.5t31 -127.5q0 -53 -20.5 -99t-54.5 -82t-79 -61.5 t-92 -39.5q35 -16 84 -55t92 -80l119 219h334l-293 -383l307 -383l-322 -58z" />
<glyph unicode="'" horiz-adv-x="462" d="M8 815l236 506l272 -74l-305 -432h-203z" />
<glyph unicode="(" horiz-adv-x="870" d="M721 -543q-109 57 -217.5 153.5t-194.5 226.5t-140 292t-54 352q0 188 54 350t140 293t194.5 227.5t217.5 153.5l166 -215q-92 -55 -177 -136t-150.5 -184.5t-105.5 -226t-40 -262.5q0 -139 40 -262t105.5 -226.5t150.5 -184t177 -136.5l-166 -215v0z" />
<glyph unicode=")" horiz-adv-x="870" d="M-14 -328q90 55 175 136t151.5 184.5t106.5 226.5t40 262t-40 262t-106.5 226.5t-151.5 184.5t-175 136l164 215q109 -57 217 -153.5t195 -227.5t141.5 -292.5t54.5 -350.5q0 -190 -54.5 -352t-141.5 -292t-195.5 -226t-216.5 -154z" />
<glyph unicode="*" horiz-adv-x="806" d="M174 573l-156 213l310 115v19l-305 116l153 213l201 -260l16 6l23 328l248 -82l-189 -274l12 -13l312 88v-262l-312 88l-10 -14l182 -276l-249 -80l-15 329l-18 4z" />
<glyph unicode="+" horiz-adv-x="1077" d="M666 371v-348h-252v348h-344l6 237h338v348h252v-348h338l6 -237h-344z" />
<glyph unicode="," horiz-adv-x="569" d="M49 162q10 84 70.5 135t148.5 51q53 0 98.5 -21.5t78 -57.5t51 -84t18.5 -99q0 -70 -28.5 -130t-77 -112.5t-110.5 -95.5t-130 -80l-139 123q86 59 145 112.5t59 104.5q0 41 -39 76t-145 78z" />
<glyph unicode="-" horiz-adv-x="761" d="M57 371v252h652v-252h-652z" />
<glyph unicode="." horiz-adv-x="569" d="M479 156q0 -84 -53 -135.5t-139 -51.5q-88 0 -141.5 51.5t-53.5 135.5q0 86 53.5 136t141.5 50q86 0 139 -50t53 -136z" />
<glyph unicode="/" horiz-adv-x="585" d="M156 -408h-258l497 1846h258z" />
<glyph unicode="0" horiz-adv-x="1175" d="M1104 494q0 -119 -37 -215.5t-104.5 -165t-164 -106.5t-214.5 -38q-119 0 -214.5 37t-162 104.5t-102 164t-35.5 212.5q0 119 36.5 215.5t104.5 165t164 105.5t213 37q119 0 214 -37t162.5 -104.5t103.5 -162.5t36 -212zM799 489q0 135 -58.5 209t-154.5 74t-153.5 -74.5 t-57.5 -208.5q0 -135 58.5 -208.5t154.5 -73.5q94 0 152.5 73.5t58.5 208.5z" />
<glyph unicode="1" horiz-adv-x="792" d="M313 688l-237 -55l-6 260l557 121v-1014h-314v688z" />
<glyph unicode="2" d="M84 0v219q121 76 214 135.5t156.5 106.5t96.5 88t33 84q0 53 -39 84t-117 31q-68 0 -144.5 -29t-154.5 -80l-70 233q86 59 204 99.5t239 40.5q98 0 176 -24.5t132 -67.5t82 -102.5t28 -129.5q0 -127 -104.5 -228.5t-303.5 -203.5h453l4 -256h-885z" />
<glyph unicode="3" horiz-adv-x="985" d="M649 358q147 -29 223 -118.5t76 -204.5q0 -98 -42 -176t-113.5 -132.5t-168 -82t-202.5 -27.5q-117 0 -217.5 25.5t-181.5 70.5l36 252q72 -41 161 -69.5t175 -30.5q106 -4 169 39t63 127q0 154 -234 162q-43 2 -87 -2.5t-81 -8.5v228q68 12 130.5 27.5t110.5 39t76.5 57 t28.5 84.5q0 66 -47 101t-141 35q-72 0 -146.5 -32t-142.5 -79l-69 229q86 59 192.5 99.5t243.5 40.5q96 0 178 -23.5t142.5 -69t94 -107.5t33.5 -138q0 -57 -20.5 -106.5t-56 -89.5t-83 -71t-100.5 -49z" />
<glyph unicode="4" horiz-adv-x="1173" d="M950 6v-362h-295v362h-565l-39 195l555 792h344v-737h197l6 -250h-203zM670 715l-312 -465h312v465z" />
<glyph unicode="5" horiz-adv-x="1005" d="M399 469q18 2 41 3t60 1q111 0 196.5 -29.5t143 -81t87 -123t29.5 -153.5q0 -102 -36.5 -187t-104 -148.5t-165 -98.5t-220.5 -35q-92 0 -198.5 19.5t-186.5 56.5l29 266q35 -16 78 -32.5t89 -29t92 -19.5t87 -7q111 0 172 49t61 139q0 80 -61.5 132.5t-202.5 52.5 q-72 0 -138.5 -11.5t-117.5 -27.5l-43 49l88 729h750l6 -258h-500l-35 -256v0z" />
<glyph unicode="6" horiz-adv-x="1167" d="M76 559q0 147 54 282.5t157.5 245t253 184.5t340.5 101l75 -256q-104 -18 -197 -52t-167 -81t-126 -108.5t-75 -137.5l8 -6q51 51 130 88t190 37q84 0 154.5 -26.5t122 -79t80 -127t28.5 -170.5q0 -102 -34 -190.5t-98.5 -154t-160.5 -102.5t-219 -37t-219.5 44t-163 123 t-100 186.5t-33.5 236.5zM403 457q0 -49 13.5 -94.5t38 -80t61.5 -55t84 -20.5q86 0 135 58.5t49 158.5q0 92 -49 145.5t-135 53.5q-57 0 -107.5 -21.5t-78.5 -48.5q-11 -45 -11 -96z" />
<glyph unicode="7" d="M37 713l6 270h942v-213l-549 -1126h-305l537 1069h-631z" />
<glyph unicode="8" horiz-adv-x="1095" d="M600 739q61 35 92 82t31 92q0 80 -46 124t-124 44q-82 0 -127 -44t-45 -109q0 -66 56.5 -110t162.5 -79zM498 537q-72 -35 -106 -85.5t-34 -97.5q0 -72 53.5 -119t145.5 -47q88 0 136 40t48 114q0 70 -66 115t-177 80zM778 666q51 -20 97.5 -48t80 -66t54 -85t20.5 -109 q0 -82 -29.5 -153.5t-90 -123.5t-152.5 -82t-215 -30q-106 0 -194.5 23.5t-152 70t-98.5 113t-35 150.5q0 104 71 181t190 105q-49 20 -93.5 49t-76 66t-51 84t-19.5 107q0 84 29.5 154.5t88 121.5t147.5 80t210 29q104 0 187 -25t142.5 -71t91.5 -112.5t32 -148.5 q0 -98 -62.5 -171.5t-171.5 -108.5z" />
<glyph unicode="9" horiz-adv-x="1167" d="M1092 422q0 -147 -54.5 -282.5t-158 -244t-253 -183t-337.5 -101.5l-78 254q104 18 196.5 51t166 80t124 109.5t70.5 136.5l-8 6q-47 -49 -126 -86t-179 -37q-84 0 -156 26.5t-124 77t-82 124t-30 167.5q0 100 34 190.5t99.5 157t161 105.5t217.5 39q123 0 219.5 -44 t163 -123t100.5 -187.5t34 -235.5zM764 524q0 49 -13.5 94.5t-38 79t-61.5 54t-84 20.5q-86 0 -135 -57.5t-49 -157.5q0 -92 49 -145.5t135 -53.5q59 0 108.5 21.5t78.5 46.5q10 47 10 98z" />
<glyph unicode=":" horiz-adv-x="569" d="M479 733q0 -84 -53 -135t-139 -51q-88 0 -141.5 51t-53.5 135t53.5 135.5t141.5 51.5q86 0 139 -51.5t53 -135.5zM479 156q0 -84 -53 -135.5t-139 -51.5q-88 0 -141.5 51.5t-53.5 135.5q0 86 53.5 136t141.5 50q86 0 139 -50t53 -136z" />
<glyph unicode=";" horiz-adv-x="569" d="M479 733q0 -84 -53 -135t-139 -51q-88 0 -141.5 51t-53.5 135t53.5 135.5t141.5 51.5q86 0 139 -51.5t53 -135.5zM49 162q10 84 70.5 135t148.5 51q53 0 98.5 -21.5t78 -57.5t51 -84t18.5 -99q0 -70 -28.5 -130t-77 -112.5t-110.5 -95.5t-130 -80l-139 123 q86 59 145 112.5t59 104.5q0 41 -39 76t-145 78z" />
<glyph unicode="&#x3c;" horiz-adv-x="1028" d="M913 8l-821 373v203l821 372v-249l-501 -215v-21l501 -213v-250z" />
<glyph unicode="=" horiz-adv-x="1036" d="M96 586l-10 235h868l-10 -235h-848zM86 139l10 236h848l10 -236h-868z" />
<glyph unicode="&#x3e;" horiz-adv-x="1028" d="M115 8v250l501 213v21l-501 215v249l821 -372v-203z" />
<glyph unicode="?" horiz-adv-x="856" d="M788 922q0 -61 -18 -107.5t-51 -81.5t-76 -58.5t-92 -39.5q-61 -18 -99 -33.5t-49 -42.5q0 -10 14.5 -25.5t34 -33t38 -33.5t26.5 -25l-94 -16q-35 -6 -67.5 -10t-39.5 -4q-80 33 -125 98t-45 131q0 80 54.5 128t150.5 75q78 23 116 39t38 57q0 51 -54.5 79t-148.5 28 q-49 0 -109.5 -11.5t-101.5 -27.5l12 264q41 16 96.5 27.5t127.5 11.5q102 0 187 -30t146.5 -82t95 -123.5t33.5 -153.5zM561 143q0 -86 -53 -130t-141 -44q-86 0 -139.5 44t-53.5 130q0 84 53.5 128t139.5 44q88 0 141 -44t53 -128z" />
<glyph unicode="@" horiz-adv-x="1755" d="M1223 408q-20 -100 6 -148.5t110 -48.5q49 0 96.5 27.5t84 81t60.5 131t24 180.5q0 141 -57.5 255.5t-153 195.5t-219 125t-254.5 44q-154 0 -288 -60.5t-232.5 -163.5t-156 -240.5t-57.5 -288.5q0 -145 49.5 -271.5t138.5 -221.5t212 -149.5t270 -54.5q68 0 132.5 11.5 t127.5 31.5l25 -77q-72 -25 -141.5 -37.5t-147.5 -12.5q-166 0 -304 60.5t-239.5 165t-158 247t-56.5 306.5q0 172 63.5 323.5t175 266t262 181t325.5 66.5q156 0 296 -49t247.5 -140t171 -221t63.5 -292q0 -139 -37 -242.5t-98.5 -173.5t-141.5 -104.5t-166 -34.5 q-104 0 -174.5 43t-99.5 127q-53 -63 -117.5 -94t-128.5 -31q-59 0 -111.5 23.5t-91 67.5t-60 107.5t-21.5 141.5q0 102 32.5 188t91 148.5t137.5 97.5t173 35q41 0 84 -12.5t84 -28.5l274 43zM1030 690q-23 23 -55.5 40.5t-73.5 17.5q-45 0 -81 -23t-61.5 -59.5t-39.5 -85 t-14 -99.5q0 -80 38.5 -125t96.5 -45q41 0 69.5 14.5t53.5 34.5z" />
<glyph unicode="A" horiz-adv-x="1316" d="M1313 0h-324l-94 272h-475l-92 -272h-324l455 1280h407zM659 1028l-170 -502h334z" />
<glyph unicode="B" horiz-adv-x="1269" d="M934 670q123 -23 199.5 -100.5t76.5 -196.5q0 -78 -23.5 -145.5t-81.5 -118t-158.5 -80t-254.5 -29.5h-559v1280h555q143 0 236.5 -25.5t148.5 -70.5t76.5 -106.5t21.5 -131.5q0 -111 -63 -178t-174 -98zM846 893q0 143 -189 143h-208v-295h192q102 0 153.5 40t51.5 112z M883 391q0 82 -60.5 115t-165.5 33h-208v-295h219q111 0 163 35.5t52 111.5z" />
<glyph unicode="C" horiz-adv-x="1255" d="M1096 942q-72 43 -155 67.5t-169 24.5q-166 0 -265 -104.5t-99 -286.5q0 -184 96 -290.5t270 -106.5q94 0 180 28.5t158 75.5l68 -289q-76 -41 -192 -66.5t-228 -25.5q-154 0 -280 43t-215 128t-137 209t-48 286q0 156 48 280.5t138 213t218 135.5t286 47 q117 0 226.5 -27t197.5 -70z" />
<glyph unicode="D" horiz-adv-x="1394" d="M1321 649q0 -147 -48 -267t-140.5 -205t-228.5 -131t-312 -46h-459v1280h481q168 0 300.5 -45t222.5 -128t137 -199t47 -259zM993 637q0 199 -99 291t-300 92h-135v-760h151q178 0 280.5 92t102.5 285z" />
<glyph unicode="E" horiz-adv-x="1157" d="M133 0v1280h936v-262h-616v-246h495v-260h-495v-250h616v-262h-936z" />
<glyph unicode="F" horiz-adv-x="1107" d="M133 1280h916v-268h-594v-264h473v-267h-473v-481h-322v1280z" />
<glyph unicode="G" horiz-adv-x="1378" d="M1276 88q-104 -57 -235.5 -88t-272.5 -31q-154 0 -281 45t-217 130t-140 209t-50 282t49 282.5t139 213t217 134.5t285 46q61 0 127 -7.5t129.5 -20.5t120.5 -34.5t104 -48.5l-102 -272q-184 106 -369 106q-174 0 -275.5 -105.5t-101.5 -285.5q0 -193 94.5 -300 t278.5 -107q55 0 109.5 11t95.5 27v189h-315v258h610v-633v0z" />
<glyph unicode="H" horiz-adv-x="1431" d="M973 0v508h-514v-508h-326v1280h326v-498h514v498h325v-1280h-325z" />
<glyph unicode="I" horiz-adv-x="598" d="M135 0v1280h326v-1280h-326z" />
<glyph unicode="J" horiz-adv-x="964" d="M842 451q0 -229 -110.5 -355.5t-348.5 -126.5q-104 0 -201.5 25.5t-163.5 62.5l66 262q66 -37 127 -58t121 -21q100 0 142 55t42 180v805h326v-829v0z" />
<glyph unicode="K" horiz-adv-x="1280" d="M461 715l426 565h373l-506 -625l518 -655h-389l-422 563h-2v-563h-326v1280h326v-565h2z" />
<glyph unicode="L" horiz-adv-x="1064" d="M133 0v1280h326v-1008h536v-272h-862z" />
<glyph unicode="M" horiz-adv-x="1742" d="M1323 987l-281 -967h-348l-280 965l-8 -985h-304l45 1280h461l266 -961l267 961h454l43 -1280h-309z" />
<glyph unicode="N" horiz-adv-x="1456" d="M1018 1280h305v-1292h-346l-539 841v-829h-305v1280h352l533 -831v831z" />
<glyph unicode="O" horiz-adv-x="1501" d="M1421 645q0 -152 -52 -276.5t-142 -213.5t-213 -137.5t-266 -48.5q-141 0 -264.5 44t-212.5 128t-140 209t-51 287q0 152 51 276.5t141 212.5t213 136.5t267 48.5q143 0 265 -43t212 -128t141 -209t51 -286zM1094 637q0 92 -23.5 168t-69 130t-109 84t-144.5 30 q-164 0 -252 -112t-88 -292q0 -92 23.5 -168t67.5 -131t108.5 -85t146.5 -30q80 0 143.5 30t107.5 83t66.5 128t22.5 165z" />
<glyph unicode="P" horiz-adv-x="1216" d="M1153 836q0 -225 -146.5 -344t-422.5 -119l-125 -2v-371h-326v1280h473q135 0 236.5 -33t171 -91t104.5 -140t35 -180zM829 827q0 195 -247 195h-131v-399l131 2q127 2 187 53t60 149z" />
<glyph unicode="Q" horiz-adv-x="1501" d="M1470 -68l-129 -264l-567 303q-8 -2 -26 -2q-141 0 -264.5 44t-212.5 128t-140 209t-51 287q0 152 51 276.5t141 212.5t213 136.5t267 48.5q143 0 265 -43t212 -128t141 -209t51 -286q0 -190 -82 -333.5t-221 -227.5zM1094 637q0 92 -23.5 168t-69 130t-109 84t-144.5 30 q-164 0 -252 -112t-88 -292q0 -92 23.5 -169t67.5 -132t108.5 -86t146.5 -31t145.5 30t106.5 83t65.5 129t22.5 168z" />
<glyph unicode="R" horiz-adv-x="1263" d="M459 0h-326v1280h514q256 0 387 -109.5t131 -296.5q0 -129 -66.5 -224t-195.5 -144l328 -506h-367l-256 430l-149 -12v-418zM616 664q104 8 159.5 53t55.5 137q0 168 -241 168h-137v-363z" />
<glyph unicode="S" horiz-adv-x="1155" d="M559 238q86 0 140.5 30.5t54.5 89.5q0 63 -68 95t-194 67q-70 18 -143 47t-133 73t-98 110.5t-38 162.5q0 178 127 287t364 109q152 0 269.5 -31t210.5 -82l-64 -268q-96 51 -206.5 81.5t-207.5 30.5q-168 0 -167 -108q0 -31 20 -54.5t57 -41t86 -33t107 -31.5 q74 -20 145.5 -49t129 -73t92 -108.5t34.5 -156.5t-34.5 -168t-101.5 -131t-165 -86t-223 -31q-143 0 -273 33t-221 84l62 270q96 -51 207.5 -84.5t230.5 -33.5z" />
<glyph unicode="T" horiz-adv-x="1232" d="M778 1008v-1008h-325v1008h-408v272h1141v-272h-408z" />
<glyph unicode="U" horiz-adv-x="1376" d="M1253 522q0 -139 -39.5 -242.5t-113.5 -173t-178.5 -103.5t-233.5 -34q-125 0 -228.5 31t-178 95.5t-115.5 163.5t-41 235v786h324v-743q0 -145 59 -219t188 -74q117 0 175.5 65.5t58.5 214.5v756h323v-758v0z" />
<glyph unicode="V" horiz-adv-x="1298" d="M850 0h-408l-432 1280h336l303 -965l301 965h340z" />
<glyph unicode="W" horiz-adv-x="1955" d="M727 0h-338l-342 1280h348l172 -905l230 905h372l234 -905l172 905h334l-342 -1280h-340l-248 911z" />
<glyph unicode="X" horiz-adv-x="1320" d="M379 0h-356l440 641l-428 639h366l258 -416l265 416h362l-432 -627l444 -653h-370l-273 436z" />
<glyph unicode="Y" horiz-adv-x="1251" d="M786 485v-485h-319v487l-447 793h347l264 -506l256 506h344z" />
<glyph unicode="Z" horiz-adv-x="1187" d="M63 0v215l639 793h-626v272h1036v-217l-637 -789h635v-274h-1047z" />
<glyph unicode="[" horiz-adv-x="849" d="M139 -420v1837h697v-233h-416v-1372h416v-232h-697z" />
<glyph unicode="\" horiz-adv-x="598" d="M205 1438l497 -1846h-258l-497 1846h258z" />
<glyph unicode="]" horiz-adv-x="851" d="M14 -188h416v1372h-416v233h699v-1837h-699v232z" />
<glyph unicode="^" horiz-adv-x="815" d="M582 1079l-170 219h-4l-166 -219h-219l243 383h287l244 -383h-215z" />
<glyph unicode="_" horiz-adv-x="1112" d="M-16 -240v240h1144v-240h-1144z" />
<glyph unicode="`" horiz-adv-x="813" d="M406 1079l-347 379h340l203 -379h-196z" />
<glyph unicode="a" horiz-adv-x="1046" d="M625 424q-147 -16 -207 -48t-60 -95q0 -47 33 -75t86 -28q47 0 85 17.5t63 46.5v182zM627 115q-51 -59 -113.5 -102.5t-161.5 -43.5q-61 0 -114.5 20.5t-92.5 56.5t-61.5 84t-22.5 103q0 68 28 127.5t93.5 104.5t174 73.5t268.5 32.5v19q0 76 -40 110.5t-128 34.5 q-74 0 -157 -27.5t-167 -68.5l-65 231q76 41 189.5 77t248.5 36q123 0 207 -27.5t135 -81t72.5 -130t19.5 -177.5l-2 -282q0 -49 14.5 -61.5t63.5 -16.5l-31 -225q-156 -20 -237.5 17.5t-114.5 115.5h-6z" />
<glyph unicode="b" horiz-adv-x="1161" d="M1102 487q0 -119 -38 -214t-103.5 -162.5t-152.5 -103.5t-183 -36q-47 0 -107.5 11.5t-107.5 27.5l-297 -41v1385l315 39v-539q45 47 110.5 88t157.5 41q88 0 163 -35t128 -99.5t84 -156.5t31 -205zM786 471q0 123 -50 191.5t-148 68.5q-53 0 -90 -18.5t-70 -46.5v-420 q57 -39 145 -39q102 0 157.5 72.5t55.5 191.5z" />
<glyph unicode="c" horiz-adv-x="991" d="M928 47q-59 -37 -151.5 -57.5t-196.5 -20.5q-119 0 -214.5 33t-163 96.5t-103.5 156.5t-36 214q0 119 37 214t105.5 161.5t165 102.5t217.5 36q100 0 190 -21.5t156 -58.5l-62 -237q-57 33 -122.5 53t-128.5 20q-115 0 -175.5 -71.5t-60.5 -188.5q0 -129 66.5 -196.5 t177.5 -67.5q72 0 134 18.5t118 53.5l47 -240v0z" />
<glyph unicode="d" horiz-adv-x="1167" d="M737 1354l316 39v-1393h-316v98q-45 -47 -110.5 -87t-155.5 -40q-88 0 -163 35t-129 99.5t-85 155.5t-31 204q0 119 39 214t104.5 162.5t151.5 103.5t183 36q102 0 196 -33v406zM737 707q-27 18 -63.5 29.5t-81.5 11.5q-100 0 -156.5 -74t-56.5 -193q0 -123 55 -190.5 t144 -67.5q53 0 91 17.5t68 48.5v418z" />
<glyph unicode="e" horiz-adv-x="1060" d="M371 401q8 -96 71.5 -148t180.5 -52q78 0 158.5 25.5t152.5 66.5l31 -244q-72 -37 -169.5 -57.5t-201.5 -20.5q-121 0 -219.5 33t-168 96.5t-107.5 156.5t-38 212q0 117 38 212t106.5 161.5t163 103.5t209.5 37q203 0 310 -110.5t107 -288.5q0 -39 -5 -88.5t-15 -79.5 l-604 -10v-5zM702 565v19q0 86 -35.5 134t-109.5 48q-82 0 -129 -60.5t-55 -142.5z" />
<glyph unicode="f" horiz-adv-x="759" d="M797 1378l-9 -41q-10 -41 -21 -90t-21 -89l-9 -40q-37 14 -74.5 25.5t-84.5 11.5q-61 0 -86 -35t-25 -104v-76h266l-6 -248h-246v-692h-315v690l-164 12l8 201l154 45l2 82q6 209 99 302t274 93q88 0 153.5 -15.5t104.5 -31.5z" />
<glyph unicode="g" horiz-adv-x="1081" d="M362 612q0 -76 37 -122t113 -46q72 0 105.5 48.5t33.5 128.5q0 76 -35.5 121.5t-109.5 45.5q-68 0 -106 -48t-38 -128zM348 -98q-33 -16 -54.5 -42t-21.5 -63q0 -55 64.5 -90t175.5 -35q57 0 106.5 8.5t86 26t57 41t20.5 53.5q0 57 -60 76t-185 19q-45 0 -103.5 2 t-85.5 4zM223 -63q-63 18 -114.5 62t-51.5 110q0 68 55.5 127t141.5 83q-86 41 -139.5 117t-53.5 178q0 78 31 145.5t89.5 117t142.5 78t190 28.5q86 0 162 -21.5t129 -46.5l268 23l14 -256l-184 29q12 -14 19.5 -47t7.5 -58q0 -72 -31 -135t-86 -109.5t-132 -73t-169 -26.5 q-33 0 -62.5 4t-64.5 10q-20 -10 -37.5 -27.5t-17.5 -41.5q0 -33 40 -46.5t134 -13.5h112q98 0 179.5 -13t139.5 -45t90 -83t32 -127q0 -90 -49.5 -161.5t-132 -123t-190 -79t-224.5 -27.5q-96 0 -181 15.5t-147.5 46t-99.5 76.5t-37 110q0 72 56 129.5t171 71.5z" />
<glyph unicode="h" horiz-adv-x="1157" d="M735 0v563q0 86 -35.5 119t-95.5 33q-55 0 -100 -21.5t-76 -50.5v-643h-315v1354l315 39v-572q63 72 145 117t177 45q141 0 221 -87t80 -241v-655h-316z" />
<glyph unicode="i" horiz-adv-x="540" d="M457 1255q0 -82 -49.5 -125t-137.5 -43q-86 0 -136 43.5t-50 124.5q0 84 50 127t136 43q88 0 137.5 -43t49.5 -127zM113 0v936l315 39v-975h-315z" />
<glyph unicode="j" horiz-adv-x="538" d="M457 1255q0 -82 -49.5 -125t-137.5 -43q-86 0 -136 43.5t-50 124.5q0 84 50 127t136 43q88 0 137.5 -43t49.5 -127zM-55 -283q43 20 74.5 45t52 62t31 90t10.5 129v893l315 39v-952q0 -211 -67.5 -336t-235.5 -183z" />
<glyph unicode="k" horiz-adv-x="1089" d="M428 446v-446h-315v1354l315 39v-850h2l291 409h362l-350 -452l352 -500h-358l-297 446h-2z" />
<glyph unicode="l" horiz-adv-x="540" d="M113 0v1354l315 39v-1393h-315z" />
<glyph unicode="m" horiz-adv-x="1734" d="M1311 0v561q0 86 -35 120t-94 34q-47 0 -86 -18.5t-68 -43.5v-55v-598h-315v561q0 86 -36 120t-95 34q-47 0 -86 -16.5t-68 -41.5v-657h-315v936l315 39v-133q63 66 136 103.5t167 37.5q90 0 162 -43t106 -127q66 78 149 124t181 46q139 0 218 -88t79 -242v-653h-315z " />
<glyph unicode="n" horiz-adv-x="1157" d="M735 0v563q0 86 -35.5 119t-99.5 33q-53 0 -97 -21.5t-75 -50.5v-643h-315v936l315 39v-156q63 72 145 118t175 46q143 0 223 -87t80 -241v-655h-316z" />
<glyph unicode="o" horiz-adv-x="1144" d="M1083 479q0 -121 -41 -215t-110.5 -159.5t-163.5 -100.5t-201 -35q-109 0 -201 33t-159.5 97.5t-106.5 158.5t-39 215t40 216t111 160.5t165 99.5t203 34q106 0 198 -34t160 -98.5t106.5 -158.5t38.5 -213zM770 477q0 121 -50 193.5t-149 72.5q-98 0 -147 -72.5 t-49 -195.5t50 -193.5t148 -70.5t147.5 71.5t49.5 194.5z" />
<glyph unicode="p" horiz-adv-x="1167" d="M428 854q45 47 109.5 88t156.5 41q88 0 163 -35t129 -99.5t85 -156.5t31 -205q0 -119 -38 -214t-103.5 -162.5t-152.5 -103.5t-183 -36q-47 0 -99.5 8.5t-97.5 22.5v-426h-315v1360l315 39v-121zM428 246q57 -39 145 -39q102 0 157.5 72.5t55.5 191.5q0 123 -50 191.5 t-148 68.5q-53 0 -90 -18.5t-70 -46.5v-420z" />
<glyph unicode="q" horiz-adv-x="1167" d="M737 -424v522q-45 -47 -110.5 -87t-155.5 -40q-88 0 -163 35t-129 99.5t-85 155.5t-31 204q0 119 39 214t104.5 162.5t151.5 103.5t183 36q57 0 122.5 -13.5t106.5 -31.5l283 39v-1399h-316zM737 707q-27 18 -63.5 29.5t-81.5 11.5q-100 0 -156.5 -74t-56.5 -193 q0 -123 55 -191.5t144 -68.5q53 0 91 18.5t68 49.5v418z" />
<glyph unicode="r" horiz-adv-x="821" d="M428 0h-315v936l315 39v-139q84 147 229 147q82 0 158 -39l-63 -278q-57 29 -119 28q-59 0 -110.5 -31.5t-94.5 -107.5v-555z" />
<glyph unicode="s" horiz-adv-x="942" d="M885 283q0 -66 -28 -122.5t-83 -99.5t-136 -67.5t-185 -24.5q-49 0 -104.5 5.5t-109 16.5t-103.5 26.5t-87 35.5l62 228q84 -43 174 -67t174 -24q129 0 129 78q0 41 -40 60.5t-122 38.5q-84 16 -150.5 40.5t-113.5 61.5t-73 88t-26 121q0 68 29 123t82 96t132 63.5 t177 22.5q47 0 100.5 -6t105.5 -17.5t99.5 -26.5t81.5 -32l-63 -225q-82 41 -171 63.5t-157 22.5q-117 0 -117 -72q0 -39 43.5 -58.5t120.5 -35.5q84 -18 150.5 -43t113 -60.5t71 -86.5t24.5 -123z" />
<glyph unicode="t" horiz-adv-x="772" d="M727 4q-55 -16 -107.5 -25.5t-123.5 -9.5q-88 0 -156 18.5t-113 60.5t-65.5 107.5t-16.5 159.5l15 363l-144 24l7 201l143 47l4 217h305l-2 -227h238l-6 -248h-254l-11 -342q-4 -66 31 -95.5t94 -29.5q29 0 60.5 7.5t64.5 17.5l37 -246v0z" />
<glyph unicode="u" horiz-adv-x="1142" d="M422 952v-563q0 -86 35 -119.5t96 -33.5q51 0 92 18t70 45v653h315v-938l-315 -39v142q-55 -59 -135 -103.5t-174 -44.5q-141 0 -220.5 87t-79.5 241v655h316z" />
<glyph unicode="v" horiz-adv-x="1052" d="M700 -2h-356l-352 954h338l196 -653l195 653h340z" />
<glyph unicode="w" horiz-adv-x="1579" d="M291 -4l-268 956h319l129 -633l162 633h330l163 -622l111 622h328l-271 -956h-319l-182 627l-183 -627h-319z" />
<glyph unicode="x" horiz-adv-x="1017" d="M692 0l-182 305l-180 -305h-340l327 485l-319 467h334l176 -274l170 274h336l-316 -463l328 -489h-334z" />
<glyph unicode="y" horiz-adv-x="1040" d="M705 45l-48 -125q-37 -104 -78.5 -174t-92 -112t-111 -59t-135.5 -17q-152 0 -283 61l94 240q47 -20 79 -31.5t69 -11.5q51 0 78.5 23.5t56.5 92.5l26 74l-372 946h338l202 -626l185 626h336z" />
<glyph unicode="z" horiz-adv-x="940" d="M37 0v188l446 504h-428v260h842v-188l-444 -506h444v-258h-860z" />
<glyph unicode="{" horiz-adv-x="819" d="M788 -434q-133 2 -242.5 14t-187 42t-119.5 82t-42 136q0 63 10 115.5t23.5 98.5t23.5 86t10 81q0 74 -60.5 109t-189.5 45l-6 133l6 131q129 10 189.5 41t60.5 106q0 39 -10 81t-23.5 89.5t-23.5 100.5t-10 117q0 84 42 136t119.5 82.5t187 43t242.5 16.5v-192 q-164 -12 -227 -43t-63 -95q0 -33 8 -68.5t19.5 -78.5t19.5 -94.5t8 -112.5q0 -104 -82 -173t-217 -77v-20q135 -10 217 -80t82 -174q0 -61 -8 -109.5t-19.5 -89.5t-19.5 -77t-8 -70q0 -68 63.5 -101t226.5 -43v-188v0z" />
<glyph unicode="|" horiz-adv-x="546" d="M137 1436h273v-1846h-273v1846z" />
<glyph unicode="}" horiz-adv-x="819" d="M805 375q-129 -10 -189.5 -45t-60.5 -109q0 -41 10 -81t22.5 -86t23 -98t10.5 -116q0 -84 -42 -136t-119 -82t-186.5 -42t-242.5 -14v188q162 10 226.5 43t64.5 101q0 35 -8.5 70.5t-19.5 76.5t-19.5 89t-8.5 110q0 104 82 173.5t217 80.5v20q-135 8 -217 77t-82 173 q0 61 8.5 112.5t19.5 94.5t19.5 79t8.5 68q0 63 -64.5 94t-226.5 44v192q133 -4 242.5 -16.5t186.5 -43t119 -83t42 -135.5q0 -63 -10.5 -116.5t-23 -101t-22.5 -89.5t-10 -81q0 -76 60.5 -106.5t189.5 -40.5l6 -131z" />
<glyph unicode="~" horiz-adv-x="815" d="M801 692q-10 -92 -28.5 -152.5t-47.5 -96t-66.5 -50t-83.5 -14.5q-47 0 -93 18.5t-86 40t-72.5 40t-57.5 18.5q-27 0 -42 -20.5t-23 -82.5h-187q8 92 27.5 151.5t48.5 95.5t66 50.5t82 14.5q49 0 94 -18.5t85 -40t73.5 -40t58.5 -18.5q27 0 41 21.5t22 82.5h189v0z" />
<glyph unicode="&#xa1;" horiz-adv-x="622" d="M125 1135q0 82 54 128t132 46t131.5 -46t53.5 -128q0 -80 -53.5 -126t-131.5 -46t-132 46t-54 126zM489 -57h-356l68 895h221z" />
<glyph unicode="&#xa2;" horiz-adv-x="985" d="M764 965q47 -10 91 -25.5t79 -36.5l-62 -237q-72 43 -149 63l-88 -518q72 2 132 22.5t114 53.5l47 -240q-59 -35 -147.5 -55.5t-186.5 -22.5l-41 -248h-141l43 259q-180 33 -286 155.5t-106 333.5q0 119 37 214t104.5 161.5t164 102.5t217.5 36h39l34 199h142zM584 741 q-104 -10 -158.5 -81.5t-54.5 -180.5q0 -88 33.5 -149.5t93.5 -91.5z" />
<glyph unicode="&#xa3;" horiz-adv-x="1165" d="M231 702q-12 86 -12 164q0 104 34 187.5t96.5 139.5t149.5 87t193 31q96 0 194.5 -27t174.5 -76q-18 -63 -31 -116q-12 -45 -21.5 -83t-9.5 -40q-61 43 -134.5 67.5t-145.5 24.5q-100 0 -149.5 -58.5t-49.5 -150.5q0 -31 4 -67.5t8 -82.5h347l-11 -141h-321q6 -59 6 -119 q0 -76 -14 -133q47 -37 106.5 -59.5t116.5 -22.5q31 0 57.5 9.5t49 31t38 59.5t23.5 95l225 -41q-8 -109 -40 -185.5t-81 -128t-111.5 -75t-131.5 -23.5q-53 0 -102.5 14.5t-92.5 38t-81 52t-69 59.5q-53 -59 -137 -102t-203 -68q-20 72 -34 125q-12 47 -22.5 85t-10.5 36 q117 29 173 68.5t56 125.5q0 37 -4 77t-10 81h-188l-9 141h174v0z" />
<glyph unicode="&#xa4;" horiz-adv-x="993" d="M813 897q16 -35 26.5 -80t10.5 -82q0 -45 -8 -87t-27 -79l137 -137l-151 -151l-135 135q-72 -37 -168 -37q-98 0 -170 33l-123 -123l-150 149l123 123q-20 41 -27.5 84t-7.5 90q0 53 6.5 91t28.5 79l-129 127l152 152l129 -129q70 37 168 37q94 0 172 -39l123 123 l149 -150zM651 735q0 66 -41 113t-112 47q-74 0 -115 -47t-41 -113t41 -113t115 -47q72 0 112.5 47t40.5 113z" />
<glyph unicode="&#xa5;" horiz-adv-x="1253" d="M117 498l-8 141h319l-405 641h344l262 -481l258 481h344l-404 -641h320l-10 -141h-357v-136h357l10 -141h-361v-221h-317v221h-360l8 141h358v136h-358z" />
<glyph unicode="&#xa6;" horiz-adv-x="546" d="M137 1315h273v-686h-273v686zM137 401h273v-686h-273v686z" />
<glyph unicode="&#xa7;" horiz-adv-x="1079" d="M1044 614q0 -84 -47 -145t-139 -96q49 -35 80 -81t31 -112t-28 -123t-83 -100t-135 -67.5t-184 -24.5q-49 0 -103.5 6t-109 16.5t-104.5 26.5t-89 37l62 225q84 -43 175 -66.5t173 -23.5q129 0 129 78q0 23 -19.5 39t-53.5 30.5t-77 25.5t-92 24q-66 16 -134.5 35.5 t-124.5 52t-92 82t-36 125.5q0 88 53.5 150.5t147.5 90.5q-45 35 -73 80t-28 111q0 135 111 221t309 86q43 0 94.5 -5t104.5 -15.5t102 -26t86 -35.5l-63 -225q-82 41 -171 63.5t-157 22.5q-117 0 -117 -72q0 -23 19.5 -39t53.5 -29.5t77 -24.5t92 -24q63 -18 126.5 -40.5 t116 -56.5t85 -82t32.5 -114zM797 545q0 43 -41 70.5t-105.5 50t-141.5 44t-149 52.5q-29 -23 -49 -55.5t-20 -65.5q0 -41 41 -67.5t105.5 -49t142 -44t151.5 -52.5q25 18 45.5 50t20.5 67z" />
<glyph unicode="&#xa8;" horiz-adv-x="815" d="M809 1245q0 -78 -44 -118t-118 -40q-72 0 -117 40t-45 118t45 118t117 40q74 0 118 -40t44 -118zM334 1245q0 -78 -46 -118t-118 -40t-118 40t-46 118t46 118t118 40t118 -40t46 -118z" />
<glyph unicode="&#xa9;" horiz-adv-x="1636" d="M817 -121q-158 0 -296 59.5t-240.5 163t-162 240.5t-59.5 295t59.5 296t162 241.5t240.5 164t296 60.5t296 -60.5t241.5 -164t163 -241.5t59.5 -296t-59.5 -295t-163 -240.5t-241.5 -163t-296 -59.5zM1507 637q0 143 -54 269t-148.5 221.5t-219 150.5t-268.5 55 q-143 0 -268 -55t-218 -150.5t-147.5 -221.5t-54.5 -269t54.5 -269t147.5 -220.5t218 -149.5t268 -55t268 55t219.5 149.5t148.5 220.5t54 269zM1053 786q-37 23 -86 36.5t-97 13.5q-86 0 -134 -52.5t-48 -140.5q0 -92 45 -146.5t137 -54.5q53 0 100.5 14.5t94.5 41.5 l53 -213q-43 -23 -116.5 -37.5t-143.5 -14.5q-195 0 -308.5 100.5t-113.5 303.5q0 188 114 299t318 111q74 0 139.5 -15.5t120.5 -38.5z" />
<glyph unicode="&#xaa;" horiz-adv-x="813" d="M551 500q-20 23 -37.5 51.5t-30.5 69.5h-8q-35 -47 -91 -83t-128 -36q-98 0 -157.5 59.5t-59.5 151.5q0 55 23.5 103t75.5 84t135 58.5t202 28.5v27q0 47 -29.5 74.5t-89.5 27.5q-59 0 -125.5 -25.5t-119.5 -62.5l-70 176q31 25 72 44.5t87 33.5t96 22.5t97 8.5 q160 0 247 -74t87 -221v-250q0 -72 26.5 -125t55.5 -90zM475 874q-113 -10 -160 -40.5t-47 -77.5q0 -41 24.5 -62.5t65.5 -21.5q31 0 65 13t52 32v157z" />
<glyph unicode="&#xab;" horiz-adv-x="1239" d="M1145 25l-527 325v256l527 328l51 -201l-287 -254v-4l287 -252zM545 45l-510 311v246l510 309l55 -194l-281 -238v-4l281 -235z" />
<glyph unicode="&#xac;" horiz-adv-x="1036" d="M1004 186h-238v275h-684l6 237h916v-512z" />
<glyph unicode="&#xad;" horiz-adv-x="761" d="M57 371v252h652v-252h-652z" />
<glyph unicode="&#xae;" horiz-adv-x="1636" d="M817 -121q-158 0 -296 59.5t-240.5 163t-162 240.5t-59.5 295t59.5 296t162 241.5t240.5 164t296 60.5t296 -60.5t241.5 -164t163 -241.5t59.5 -296t-59.5 -295t-163 -240.5t-241.5 -163t-296 -59.5zM1507 637q0 143 -54 269t-148.5 221.5t-219 150.5t-268.5 55 q-143 0 -268 -55t-218 -150.5t-147.5 -221.5t-54.5 -269t54.5 -269t147.5 -220.5t218 -149.5t268 -55t268 55t219.5 149.5t148.5 220.5t54 269zM731 264h-244v766h371q162 0 245 -67.5t83 -184.5q0 -70 -36 -128t-110 -89l177 -297h-263l-133 248l-90 -6v-242zM813 657 q125 4 125 107q0 47 -30.5 72.5t-98.5 25.5h-80v-207z" />
<glyph unicode="&#xaf;" horiz-adv-x="815" d="M37 1124l22 179h701l22 -179h-745z" />
<glyph unicode="&#xb0;" horiz-adv-x="782" d="M729 971q0 -68 -23.5 -129.5t-67.5 -107.5t-106.5 -72.5t-140.5 -26.5t-140.5 26.5t-106.5 72.5t-67.5 107.5t-23.5 129.5q0 70 23.5 131t67.5 107t106.5 74t140.5 28t140.5 -28t106.5 -74t67.5 -107t23.5 -131zM618 971q0 98 -59 166.5t-168 68.5t-169 -68.5t-60 -166.5 q0 -47 15.5 -88t45 -74t72.5 -51.5t96 -18.5t95 18.5t72 51.5t45 74t15 88z" />
<glyph unicode="&#xb1;" horiz-adv-x="1077" d="M666 559v-287h-252v287h-344l6 238h338v286h252v-286h338l6 -238h-344zM70 0l6 238h928l6 -238h-940z" />
<glyph unicode="&#xb2;" horiz-adv-x="675" d="M35 559l-4 150q94 80 156.5 133t101.5 93t55 70.5t16 61.5q0 35 -22.5 57.5t-67.5 22.5t-88 -21.5t-78 -56.5q-2 0 -16 25.5t-29.5 55.5t-27 55.5t-8.5 25.5q53 49 129.5 76.5t164.5 27.5q74 0 127.5 -20.5t89 -54t53 -78.5t17.5 -95q0 -43 -17.5 -80.5t-53 -76.5 t-91 -84t-131.5 -103h289l4 -184h-569z" />
<glyph unicode="&#xb3;" horiz-adv-x="675" d="M389 954q117 6 176.5 -48t59.5 -132q0 -113 -94.5 -173t-245.5 -60q-74 0 -137.5 14t-110.5 35l35 166q47 -16 99 -28.5t97 -12.5q59 0 97 16.5t38 54.5q0 31 -28.5 52.5t-106.5 21.5q-35 0 -66.5 -4t-54.5 -8v151q111 16 163 37t52 64q0 23 -15 40t-68 17 q-47 0 -94.5 -17.5t-80.5 -39.5l-69 164q49 29 121.5 50t154.5 21q127 0 204 -47t77 -149q0 -136 -203 -185z" />
<glyph unicode="&#xb4;" horiz-adv-x="813" d="M412 1079h-197l203 379h340z" />
<glyph unicode="&#xb5;" horiz-adv-x="1148" d="M428 410q0 -55 11.5 -89t32 -53.5t46 -25.5t55.5 -6q27 0 52.5 8t47 28.5t35 56.5t13.5 91v532h315v-952h-313v92q-20 -49 -60 -83t-88 -34q-47 0 -82.5 17.5t-64.5 64.5v-534h-315v1429h315v-542z" />
<glyph unicode="&#xb6;" horiz-adv-x="1208" d="M782 410q-6 -2 -27.5 -3t-48 -2.5t-49 -1.5h-28.5q-276 0 -413.5 116t-137.5 327q0 205 147.5 319.5t427.5 114.5h404v-1425h-275v555v0z" />
<glyph unicode="&#xb7;" horiz-adv-x="559" d="M479 524q0 -84 -53 -135t-139 -51q-88 0 -141.5 51t-53.5 135q0 86 53.5 136.5t141.5 50.5q86 0 139 -50.5t53 -136.5z" />
<glyph unicode="&#xb8;" horiz-adv-x="815" d="M401 -104q51 -2 99.5 -16.5t83 -40t56.5 -62.5t22 -84q0 -102 -96.5 -174t-311.5 -99l-16 146q133 6 186 33.5t53 72.5q0 57 -59.5 78t-177.5 10l-21 105l232 215h155q-47 -41 -86 -78q-35 -31 -69 -61.5t-50 -44.5z" />
<glyph unicode="&#xb9;" horiz-adv-x="675" d="M262 1102l-180 -31l-8 191l446 73v-776h-258v543z" />
<glyph unicode="&#xba;" horiz-adv-x="925" d="M870 905q0 -94 -31.5 -170t-87 -128t-131 -79.5t-161.5 -27.5t-161 27.5t-128 79.5t-84 128t-31 170t32 170t87 128t130 80t163 28t161.5 -28t127 -80t84 -128t30.5 -170zM618 903q0 100 -40.5 162.5t-116.5 62.5q-74 0 -114 -60t-40 -161q0 -100 41 -161.5t117 -61.5 q74 0 113.5 59.5t39.5 159.5z" />
<glyph unicode="&#xbb;" horiz-adv-x="1249" d="M705 45l-54 195l279 235v4l-279 238l54 194l512 -309v-246zM106 25l-51 198l287 252v4l-287 254l51 201l525 -328v-256z" />
<glyph unicode="&#xbc;" horiz-adv-x="1464" d="M1358 -119v-174h-215v174h-332l-8 154l258 438h297v-432h86l4 -160h-90zM1151 326l-160 -287h160v287zM319 -238h-237l1147 1518h237zM262 1102l-180 -31l-8 191l446 73v-776h-258v543z" />
<glyph unicode="&#xbd;" horiz-adv-x="1464" d="M289 -238h-238l1147 1518h238zM262 1102l-180 -31l-8 191l446 73v-776h-258v543zM823 -293l-4 150q94 80 156.5 133t101.5 93t55.5 70.5t16.5 61.5q0 35 -22.5 57.5t-67.5 22.5t-88 -21.5t-78 -56.5q-2 0 -16.5 25.5t-30 55.5t-26.5 55.5t-9 25.5q53 49 130 76.5 t165 27.5q74 0 127 -20.5t89 -54t53.5 -78.5t17.5 -94q0 -43 -17.5 -81t-53.5 -77t-91 -84t-131 -103h289l4 -184h-570z" />
<glyph unicode="&#xbe;" horiz-adv-x="1464" d="M1358 -119v-174h-215v174h-332l-8 154l258 438h297v-432h86l4 -160h-90zM1151 326l-160 -287h160v287zM319 -238h-237l1147 1518h237zM389 954q117 6 176.5 -48t59.5 -132q0 -113 -94.5 -173t-245.5 -60q-74 0 -137.5 14t-110.5 35l35 166q47 -16 99 -28.5t97 -12.5 q59 0 97 16.5t38 54.5q0 31 -28.5 52.5t-106.5 21.5q-35 0 -66.5 -4t-54.5 -8v151q111 16 163 37t52 64q0 23 -15 40t-68 17q-47 0 -94.5 -17.5t-80.5 -39.5l-69 164q49 29 121.5 50t154.5 21q127 0 204 -47t77 -149q0 -136 -203 -185z" />
<glyph unicode="&#xbf;" horiz-adv-x="856" d="M68 358q0 121 69.5 187.5t167.5 97.5q61 20 99 35.5t49 40.5q0 10 -14.5 26.5t-34 34t-38 32.5t-26.5 26q51 6 92 14q35 6 67.5 11t39.5 5q82 -35 127 -99t45 -132q0 -78 -54.5 -126t-150.5 -75q-78 -23 -116 -40t-38 -58q0 -49 54.5 -77t148.5 -28q49 0 109.5 11.5 t101.5 25.5l-12 -264q-41 -16 -97.5 -26.5t-128.5 -10.5q-102 0 -187 30t-145.5 82t-94 122.5t-33.5 154.5zM293 1137q0 84 53 129t139 45t140.5 -45t54.5 -129q0 -86 -54.5 -129t-140.5 -43t-139 43t-53 129z" />
<glyph unicode="&#xc0;" horiz-adv-x="1316" d="M1313 0h-324l-94 272h-475l-92 -272h-324l455 1280h407zM659 1028l-170 -502h334zM571 1368l-346 379h340l203 -379h-197z" />
<glyph unicode="&#xc1;" horiz-adv-x="1316" d="M1313 0h-324l-94 272h-475l-92 -272h-324l455 1280h407zM659 1028l-170 -502h334zM748 1368h-197l203 379h340z" />
<glyph unicode="&#xc2;" horiz-adv-x="1316" d="M1313 0h-324l-94 272h-475l-92 -272h-324l455 1280h407zM659 1028l-170 -502h334zM831 1368l-169 219h-5l-165 -219h-220l244 383h287l244 -383h-216z" />
<glyph unicode="&#xc3;" horiz-adv-x="1316" d="M1313 0h-324l-94 272h-475l-92 -272h-324l455 1280h407zM659 1028l-170 -502h334zM1053 1688q-10 -92 -28.5 -152.5t-47.5 -96.5t-67 -50.5t-83 -14.5q-47 0 -93 18.5t-86 40t-72.5 40t-57.5 18.5q-27 0 -42 -20.5t-23 -81.5h-187q8 92 27.5 151t48.5 95t65.5 50.5 t81.5 14.5q49 0 94.5 -18.5t85.5 -40t73.5 -40t58.5 -18.5q27 0 41 21.5t22 83.5h189z" />
<glyph unicode="&#xc4;" horiz-adv-x="1316" d="M1313 0h-324l-94 272h-475l-92 -272h-324l455 1280h407zM659 1028l-170 -502h334zM1053 1534q0 -78 -44 -118t-118 -40q-72 0 -117 40t-45 118t45 118t117 40q74 0 118 -40t44 -118zM578 1534q0 -78 -46.5 -118t-117.5 -40q-72 0 -118 40t-46 118t46 118t118 40t118 -40 t46 -118z" />
<glyph unicode="&#xc5;" horiz-adv-x="1316" d="M659 1028l-170 -502h334zM449 1249q-76 63 -76 166q0 100 76.5 171t209.5 71q135 0 212 -68.5t77 -173.5q0 -100 -76 -164l441 -1251h-324l-94 272h-475l-92 -272h-324zM829 1417q0 61 -46 100t-124 39q-76 0 -120.5 -38.5t-44.5 -100.5q0 -61 45 -102t120 -41 q78 0 124 41t46 102z" />
<glyph unicode="&#xc6;" horiz-adv-x="1837" d="M825 532v539l-250 -539h250zM334 0h-348l622 1280h1151v-262h-616v-246h510v-260h-510v-250h616v-262h-934v272h-364z" />
<glyph unicode="&#xc7;" horiz-adv-x="1255" d="M637 -23q-127 16 -230.5 66.5t-176 133.5t-111.5 197.5t-39 260.5q0 156 48 280.5t138 213t218 135.5t286 47q117 0 226.5 -27t197.5 -70l-98 -272q-72 43 -155 67.5t-169 24.5q-166 0 -265 -104.5t-99 -286.5q0 -184 96 -290.5t270 -106.5q94 0 180 28.5t158 75.5 l68 -289q-37 -20 -83 -36.5t-98.5 -27.5t-107.5 -18.5t-109 -9.5q-27 -23 -49 -43t-35 -30q51 -2 99.5 -16.5t83 -40t56 -62.5t21.5 -84q0 -102 -96 -174t-311 -99l-16 146q133 6 186 33.5t53 72.5q0 57 -59.5 78t-177.5 10l-21 105l121 112v0z" />
<glyph unicode="&#xc8;" horiz-adv-x="1157" d="M133 0v1280h936v-262h-616v-246h495v-260h-495v-250h616v-262h-936zM524 1368l-346 379h340l203 -379h-197z" />
<glyph unicode="&#xc9;" horiz-adv-x="1157" d="M133 0v1280h936v-262h-616v-246h495v-260h-495v-250h616v-262h-936zM686 1368h-197l203 379h340z" />
<glyph unicode="&#xca;" horiz-adv-x="1157" d="M133 0v1280h936v-262h-616v-246h495v-260h-495v-250h616v-262h-936zM776 1368l-170 219h-4l-166 -219h-219l244 383h287l243 -383h-215z" />
<glyph unicode="&#xcb;" horiz-adv-x="1157" d="M133 0v1280h936v-262h-616v-246h495v-260h-495v-250h616v-262h-936zM1006 1534q0 -78 -44 -118t-118 -40q-72 0 -117 40t-45 118t45 118t117 40q74 0 118 -40t44 -118zM530 1534q0 -78 -46 -118t-117 -40q-72 0 -118 40t-46 118t46 118t118 40t117.5 -40t45.5 -118z" />
<glyph unicode="&#xcc;" horiz-adv-x="598" d="M135 0v1280h326v-1280h-326zM211 1368l-346 379h340l203 -379h-197z" />
<glyph unicode="&#xcd;" horiz-adv-x="598" d="M135 0v1280h326v-1280h-326zM377 1368h-197l203 379h340z" />
<glyph unicode="&#xce;" horiz-adv-x="598" d="M135 0v1280h326v-1280h-326zM471 1368l-170 219h-4l-166 -219h-219l244 383h286l244 -383h-215z" />
<glyph unicode="&#xcf;" horiz-adv-x="598" d="M135 0v1280h326v-1280h-326zM698 1534q0 -78 -44 -118t-117 -40q-72 0 -117 40t-45 118t45 118t117 40q74 0 117.5 -40t43.5 -118zM223 1534q0 -78 -46 -118t-118 -40t-117.5 40t-45.5 118t46 118t117 40q72 0 118 -40t46 -118z" />
<glyph unicode="&#xd0;" horiz-adv-x="1466" d="M786 772v-250h-260v-262h125q88 0 163 22.5t130 69.5t86 118t31 167q0 199 -112.5 291t-313.5 92h-109v-248h260zM31 522v250h170v508h481q168 0 300 -45t222 -128t137.5 -198.5t47.5 -259.5q0 -147 -48.5 -267t-140.5 -205t-228 -131t-310 -46h-461v522h-170z" />
<glyph unicode="&#xd1;" horiz-adv-x="1456" d="M1018 1280h305v-1292h-346l-539 841v-829h-305v1280h352l533 -831v831zM1122 1688q-10 -92 -28.5 -152.5t-47 -96.5t-66.5 -50.5t-83 -14.5q-47 0 -93 18.5t-86 40t-73 40t-57 18.5q-27 0 -42.5 -20.5t-23.5 -81.5h-186q8 92 27.5 151t48 95t65.5 50.5t82 14.5 q49 0 94 -18.5t85 -40t74 -40t58 -18.5q27 0 41.5 21.5t22.5 83.5h188z" />
<glyph unicode="&#xd2;" horiz-adv-x="1501" d="M1421 645q0 -152 -52 -276.5t-142 -213.5t-213 -137.5t-266 -48.5q-141 0 -264.5 44t-212.5 128t-140 209t-51 287q0 152 51 276.5t141 212.5t213 136.5t267 48.5q143 0 265 -43t212 -128t141 -209t51 -286zM1094 637q0 92 -23.5 168t-69 130t-109 84t-144.5 30 q-164 0 -252 -112t-88 -292q0 -92 23.5 -168t67.5 -131t108.5 -85t146.5 -30q80 0 143.5 30t107.5 83t66.5 128t22.5 165zM664 1380l-347 379h340l203 -379h-196z" />
<glyph unicode="&#xd3;" horiz-adv-x="1501" d="M1421 645q0 -152 -52 -276.5t-142 -213.5t-213 -137.5t-266 -48.5q-141 0 -264.5 44t-212.5 128t-140 209t-51 287q0 152 51 276.5t141 212.5t213 136.5t267 48.5q143 0 265 -43t212 -128t141 -209t51 -286zM1094 637q0 92 -23.5 168t-69 130t-109 84t-144.5 30 q-164 0 -252 -112t-88 -292q0 -92 23.5 -168t67.5 -131t108.5 -85t146.5 -30q80 0 143.5 30t107.5 83t66.5 128t22.5 165zM838 1380h-197l203 379h340z" />
<glyph unicode="&#xd4;" horiz-adv-x="1501" d="M1421 645q0 -152 -52 -276.5t-142 -213.5t-213 -137.5t-266 -48.5q-141 0 -264.5 44t-212.5 128t-140 209t-51 287q0 152 51 276.5t141 212.5t213 136.5t267 48.5q143 0 265 -43t212 -128t141 -209t51 -286zM1094 637q0 92 -23.5 168t-69 130t-109 84t-144.5 30 q-164 0 -252 -112t-88 -292q0 -92 23.5 -168t67.5 -131t108.5 -85t146.5 -30q80 0 143.5 30t107.5 83t66.5 128t22.5 165zM924 1368l-170 219h-4l-166 -219h-219l243 383h287l244 -383h-215z" />
<glyph unicode="&#xd5;" horiz-adv-x="1501" d="M1421 645q0 -152 -52 -276.5t-142 -213.5t-213 -137.5t-266 -48.5q-141 0 -264.5 44t-212.5 128t-140 209t-51 287q0 152 51 276.5t141 212.5t213 136.5t267 48.5q143 0 265 -43t212 -128t141 -209t51 -286zM1094 637q0 92 -23.5 168t-69 130t-109 84t-144.5 30 q-164 0 -252 -112t-88 -292q0 -92 23.5 -168t67.5 -131t108.5 -85t146.5 -30q80 0 143.5 30t107.5 83t66.5 128t22.5 165zM1145 1688q-10 -92 -28.5 -152.5t-47.5 -96.5t-66.5 -50.5t-82.5 -14.5q-47 0 -93.5 18.5t-86.5 40t-72.5 40t-57.5 18.5q-27 0 -42 -20.5t-23 -81.5 h-187q8 92 28 151t48.5 95t65.5 50.5t82 14.5q49 0 94 -18.5t85 -40t73.5 -40t58.5 -18.5q27 0 41 21.5t22 83.5h189z" />
<glyph unicode="&#xd6;" horiz-adv-x="1501" d="M1421 645q0 -152 -52 -276.5t-142 -213.5t-213 -137.5t-266 -48.5q-141 0 -264.5 44t-212.5 128t-140 209t-51 287q0 152 51 276.5t141 212.5t213 136.5t267 48.5q143 0 265 -43t212 -128t141 -209t51 -286zM1094 637q0 92 -23.5 168t-69 130t-109 84t-144.5 30 q-164 0 -252 -112t-88 -292q0 -92 23.5 -168t67.5 -131t108.5 -85t146.5 -30q80 0 143.5 30t107.5 83t66.5 128t22.5 165zM1151 1534q0 -78 -44 -118t-118 -40q-72 0 -117 40t-45 118t45.5 118t116.5 40q74 0 118 -40t44 -118zM676 1534q0 -78 -46 -118t-118 -40t-118 40 t-46 118t46 118t118 40t118 -40t46 -118z" />
<glyph unicode="&#xd7;" horiz-adv-x="1077" d="M842 20l-303 306l-301 -306l-166 166l305 301l-307 304l166 165l303 -307l305 307l166 -165l-310 -302l308 -303z" />
<glyph unicode="&#xd8;" horiz-adv-x="1501" d="M1423 645q0 -152 -52 -276.5t-142 -213.5t-213 -137.5t-266 -48.5q-156 0 -291 54l-94 -160h-148l129 219q-123 84 -193.5 222t-70.5 333q0 152 51 276.5t141.5 212.5t213 136.5t266.5 48.5q154 0 280 -49q6 12 15 24q6 10 14 23.5t18 29.5l45 78h148l-125 -213 q127 -82 200.5 -221t73.5 -338zM897 1018q-68 31 -147 31q-164 0 -253 -112t-89 -292q0 -193 100 -303zM598 268q68 -37 158 -37q80 0 143.5 30t107.5 83t66.5 128t22.5 165q0 201 -105 311z" />
<glyph unicode="&#xd9;" horiz-adv-x="1376" d="M1253 522q0 -139 -39.5 -242.5t-113.5 -173t-178.5 -103.5t-233.5 -34q-125 0 -228.5 31t-178 95.5t-115.5 163.5t-41 235v786h324v-743q0 -145 59 -219t188 -74q117 0 175.5 65.5t58.5 214.5v756h323v-758zM621 1368l-347 379h340l203 -379h-196z" />
<glyph unicode="&#xda;" horiz-adv-x="1376" d="M1253 522q0 -139 -39.5 -242.5t-113.5 -173t-178.5 -103.5t-233.5 -34q-125 0 -228.5 31t-178 95.5t-115.5 163.5t-41 235v786h324v-743q0 -145 59 -219t188 -74q117 0 175.5 65.5t58.5 214.5v756h323v-758zM758 1368h-197l203 379h340z" />
<glyph unicode="&#xdb;" horiz-adv-x="1376" d="M1253 522q0 -139 -39.5 -242.5t-113.5 -173t-178.5 -103.5t-233.5 -34q-125 0 -228.5 31t-178 95.5t-115.5 163.5t-41 235v786h324v-743q0 -145 59 -219t188 -74q117 0 175.5 65.5t58.5 214.5v756h323v-758zM862 1368l-170 219h-4l-166 -219h-219l244 383h287l243 -383 h-215z" />
<glyph unicode="&#xdc;" horiz-adv-x="1376" d="M1253 522q0 -139 -39.5 -242.5t-113.5 -173t-178.5 -103.5t-233.5 -34q-125 0 -228.5 31t-178 95.5t-115.5 163.5t-41 235v786h324v-743q0 -145 59 -219t188 -74q117 0 175.5 65.5t58.5 214.5v756h323v-758zM1090 1534q0 -78 -44.5 -118t-117.5 -40q-72 0 -117 40 t-45 118t45 118t117 40q74 0 118 -40t44 -118zM614 1534q0 -78 -46 -118t-117 -40q-72 0 -118 40t-46 118t46 118t118 40t117.5 -40t45.5 -118z" />
<glyph unicode="&#xdd;" horiz-adv-x="1251" d="M786 485v-485h-319v487l-447 793h347l264 -506l256 506h344zM709 1368h-197l203 379h340z" />
<glyph unicode="&#xde;" horiz-adv-x="1212" d="M1153 657q0 -227 -146.5 -344.5t-422.5 -119.5h-125v-193h-326v1280h326v-178h147q135 0 236.5 -33t171 -91t104.5 -140.5t35 -180.5zM829 649q0 195 -247 195h-131v-402l129 2q249 6 249 205z" />
<glyph unicode="&#xdf;" horiz-adv-x="1320" d="M166 690l-164 12l8 201l154 45v41q0 16 1 27.5t1 9.5q2 111 42 187.5t105.5 123.5t153.5 68.5t188 21.5q217 0 335 -97t118 -261q0 -68 -27.5 -111t-61.5 -73.5t-61.5 -54t-27.5 -54.5q0 -27 26.5 -49t65.5 -46t85 -52.5t85 -69.5t65.5 -96t26.5 -133 q0 -164 -101.5 -263.5t-295.5 -99.5q-94 0 -176 21.5t-148 52.5l43 242q49 -31 106.5 -52.5t108.5 -21.5q129 0 129 106q0 43 -22.5 73t-55 53.5t-71.5 47t-72 52t-55.5 67.5t-22.5 97q0 61 22.5 103t48.5 77t48.5 70.5t22.5 84.5q0 61 -42 107.5t-106 46.5 q-168 0 -168 -176v-1018h-311v690z" />
<glyph unicode="&#xe0;" horiz-adv-x="1046" d="M414 1079l-346 379h340l202 -379h-196zM625 424q-147 -16 -207 -48t-60 -95q0 -47 33 -75t86 -28q47 0 85 17.5t63 46.5v182zM627 115q-51 -59 -113.5 -102.5t-161.5 -43.5q-61 0 -114.5 20.5t-92.5 56.5t-61.5 84t-22.5 103q0 68 28 127.5t93.5 104.5t174 73.5 t268.5 32.5v19q0 76 -40 110.5t-128 34.5q-74 0 -157 -27.5t-167 -68.5l-65 231q76 41 189.5 77t248.5 36q123 0 207 -27.5t135 -81t72.5 -130t19.5 -177.5l-2 -282q0 -49 14.5 -61.5t63.5 -16.5l-31 -225q-156 -20 -237.5 17.5t-114.5 115.5h-6z" />
<glyph unicode="&#xe1;" horiz-adv-x="1046" d="M625 424q-147 -16 -207 -48t-60 -95q0 -47 33 -75t86 -28q47 0 85 17.5t63 46.5v182zM627 115q-51 -59 -113.5 -102.5t-161.5 -43.5q-61 0 -114.5 20.5t-92.5 56.5t-61.5 84t-22.5 103q0 68 28 127.5t93.5 104.5t174 73.5t268.5 32.5v19q0 76 -40 110.5t-128 34.5 q-74 0 -157 -27.5t-167 -68.5l-65 231q76 41 189.5 77t248.5 36q123 0 207 -27.5t135 -81t72.5 -130t19.5 -177.5l-2 -282q0 -49 14.5 -61.5t63.5 -16.5l-31 -225q-156 -20 -237.5 17.5t-114.5 115.5h-6zM559 1079h-197l203 379h340z" />
<glyph unicode="&#xe2;" horiz-adv-x="1046" d="M625 424q-147 -16 -207 -48t-60 -95q0 -47 33 -75t86 -28q47 0 85 17.5t63 46.5v182zM627 115q-51 -59 -113.5 -102.5t-161.5 -43.5q-61 0 -114.5 20.5t-92.5 56.5t-61.5 84t-22.5 103q0 68 28 127.5t93.5 104.5t174 73.5t268.5 32.5v19q0 76 -40 110.5t-128 34.5 q-74 0 -157 -27.5t-167 -68.5l-65 231q76 41 189.5 77t248.5 36q123 0 207 -27.5t135 -81t72.5 -130t19.5 -177.5l-2 -282q0 -49 14.5 -61.5t63.5 -16.5l-31 -225q-156 -20 -237.5 17.5t-114.5 115.5h-6zM668 1079l-170 219h-4l-166 -219h-219l243 383h287l244 -383h-215z " />
<glyph unicode="&#xe3;" horiz-adv-x="1046" d="M625 424q-147 -16 -207 -48t-60 -95q0 -47 33 -75t86 -28q47 0 85 17.5t63 46.5v182zM627 115q-51 -59 -113.5 -102.5t-161.5 -43.5q-61 0 -114.5 20.5t-92.5 56.5t-61.5 84t-22.5 103q0 68 28 127.5t93.5 104.5t174 73.5t268.5 32.5v19q0 76 -40 110.5t-128 34.5 q-74 0 -157 -27.5t-167 -68.5l-65 231q76 41 189.5 77t248.5 36q123 0 207 -27.5t135 -81t72.5 -130t19.5 -177.5l-2 -282q0 -49 14.5 -61.5t63.5 -16.5l-31 -225q-156 -20 -237.5 17.5t-114.5 115.5h-6zM901 1399q-10 -92 -28.5 -152.5t-47 -96.5t-66.5 -50.5t-83 -14.5 q-47 0 -93 18.5t-86 40t-73 40t-57 18.5q-27 0 -42.5 -20.5t-23.5 -81.5h-186q8 92 27.5 151.5t48 95t65.5 50t82 14.5q49 0 94 -18.5t85 -40t74 -40t58 -18.5q27 0 41.5 21.5t22.5 83.5h188z" />
<glyph unicode="&#xe4;" horiz-adv-x="1046" d="M625 424q-147 -16 -207 -48t-60 -95q0 -47 33 -75t86 -28q47 0 85 17.5t63 46.5v182zM627 115q-51 -59 -113.5 -102.5t-161.5 -43.5q-61 0 -114.5 20.5t-92.5 56.5t-61.5 84t-22.5 103q0 68 28 127.5t93.5 104.5t174 73.5t268.5 32.5v19q0 76 -40 110.5t-128 34.5 q-74 0 -157 -27.5t-167 -68.5l-65 231q76 41 189.5 77t248.5 36q123 0 207 -27.5t135 -81t72.5 -130t19.5 -177.5l-2 -282q0 -49 14.5 -61.5t63.5 -16.5l-31 -225q-156 -20 -237.5 17.5t-114.5 115.5h-6zM909 1231q0 -78 -44 -118t-117 -40q-72 0 -117 40t-45 118t45 118 t117 40q74 0 117.5 -40t43.5 -118zM434 1231q0 -78 -46 -118t-118 -40t-118 40t-46 118t46.5 118t117.5 40q72 0 118 -40t46 -118z" />
<glyph unicode="&#xe5;" horiz-adv-x="1046" d="M625 424q-147 -16 -207 -48t-60 -95q0 -47 33 -75t86 -28q47 0 85 17.5t63 46.5v182zM627 115q-51 -59 -113.5 -102.5t-161.5 -43.5q-61 0 -114.5 20.5t-92.5 56.5t-61.5 84t-22.5 103q0 68 28 127.5t93.5 104.5t174 73.5t268.5 32.5v19q0 76 -40 110.5t-128 34.5 q-74 0 -157 -27.5t-167 -68.5l-65 231q76 41 189.5 77t248.5 36q123 0 207 -27.5t135 -81t72.5 -130t19.5 -177.5l-2 -282q0 -49 14.5 -61.5t63.5 -16.5l-31 -225q-156 -20 -237.5 17.5t-114.5 115.5h-6zM772 1311q2 -102 -76 -172t-213 -70t-211.5 69.5t-76.5 172.5 q0 102 76.5 171.5t211.5 69.5t212 -68.5t77 -172.5zM651 1313q0 61 -45 100t-123 39q-76 0 -121 -39t-45 -100t45.5 -102.5t120.5 -41.5q78 0 123 41.5t45 102.5z" />
<glyph unicode="&#xe6;" horiz-adv-x="1609" d="M711 168q-66 -82 -154 -140.5t-205 -58.5q-61 0 -114.5 20.5t-92.5 56.5t-61.5 84t-22.5 103q0 68 29 128.5t96.5 105.5t178 72.5t272.5 31.5v17q0 80 -46 113.5t-134 33.5q-74 0 -157 -27.5t-167 -68.5l-65 231q76 41 191.5 76t250.5 35q121 0 198.5 -26.5t127.5 -73.5 q59 47 131.5 74.5t169.5 27.5q100 0 176 -30.5t127 -84t76.5 -126t25.5 -158.5q0 -39 -5 -88.5t-15 -79.5l-607 -10v-5q10 -96 74 -148t180 -52q78 0 158 25.5t152 66.5l30 -244q-72 -37 -168 -57.5t-200 -20.5q-147 0 -255.5 52.5t-174.5 144.5zM1247 565q2 4 2 9.5v9.5 q0 86 -35.5 134t-111.5 48q-80 0 -127 -60.5t-55 -142.5zM635 424q-147 -12 -212 -45t-65 -98q0 -47 34 -75t87 -28q47 0 95.5 23.5t87.5 64.5q-10 31 -17.5 77t-9.5 81z" />
<glyph unicode="&#xe7;" horiz-adv-x="993" d="M485 -25q-197 25 -309.5 150t-112.5 344q0 119 37 214t105.5 161.5t165 102.5t217.5 36q100 0 190 -21.5t156 -58.5l-62 -237q-57 33 -122.5 53t-128.5 20q-115 0 -175.5 -71.5t-60.5 -188.5q0 -129 66.5 -196.5t177.5 -67.5q72 0 134 18.5t118 53.5l47 -240 q-53 -33 -130 -52.5t-165 -23.5q-27 -25 -49.5 -45t-34.5 -30q51 -2 99 -16.5t83 -40t56.5 -62.5t21.5 -84q0 -102 -96.5 -174t-311.5 -99l-16 146q133 6 186.5 33.5t53.5 72.5q0 57 -59.5 78t-178.5 10l-20 105l118 110v0z" />
<glyph unicode="&#xe8;" horiz-adv-x="1058" d="M473 1079l-346 379h340l203 -379h-197zM371 401q8 -96 71.5 -148t180.5 -52q78 0 158.5 25.5t152.5 66.5l31 -244q-72 -37 -169.5 -57.5t-201.5 -20.5q-121 0 -219.5 33t-168 96.5t-107.5 156.5t-38 212q0 117 38 212t106.5 161.5t163 103.5t209.5 37q203 0 310 -110.5 t107 -288.5q0 -39 -5 -88.5t-15 -79.5l-604 -10v-5zM702 565v19q0 86 -35.5 134t-109.5 48q-82 0 -129 -60.5t-55 -142.5z" />
<glyph unicode="&#xe9;" horiz-adv-x="1058" d="M371 401q8 -96 71.5 -148t180.5 -52q78 0 158.5 25.5t152.5 66.5l31 -244q-72 -37 -169.5 -57.5t-201.5 -20.5q-121 0 -219.5 33t-168 96.5t-107.5 156.5t-38 212q0 117 38 212t106.5 161.5t163 103.5t209.5 37q203 0 310 -110.5t107 -288.5q0 -39 -5 -88.5t-15 -79.5 l-604 -10v-5zM702 565v19q0 86 -35.5 134t-109.5 48q-82 0 -129 -60.5t-55 -142.5zM623 1079h-197l203 379h340z" />
<glyph unicode="&#xea;" horiz-adv-x="1058" d="M371 401q8 -96 71.5 -148t180.5 -52q78 0 158.5 25.5t152.5 66.5l31 -244q-72 -37 -169.5 -57.5t-201.5 -20.5q-121 0 -219.5 33t-168 96.5t-107.5 156.5t-38 212q0 117 38 212t106.5 161.5t163 103.5t209.5 37q203 0 310 -110.5t107 -288.5q0 -39 -5 -88.5t-15 -79.5 l-604 -10v-5zM702 565v19q0 86 -35.5 134t-109.5 48q-82 0 -129 -60.5t-55 -142.5zM702 1079l-170 219h-4l-166 -219h-219l244 383h287l244 -383h-216z" />
<glyph unicode="&#xeb;" horiz-adv-x="1058" d="M371 401q8 -96 71.5 -148t180.5 -52q78 0 158.5 25.5t152.5 66.5l31 -244q-72 -37 -169.5 -57.5t-201.5 -20.5q-121 0 -219.5 33t-168 96.5t-107.5 156.5t-38 212q0 117 38 212t106.5 161.5t163 103.5t209.5 37q203 0 310 -110.5t107 -288.5q0 -39 -5 -88.5t-15 -79.5 l-604 -10v-5zM702 565v19q0 86 -35.5 134t-109.5 48q-82 0 -129 -60.5t-55 -142.5zM946 1231q0 -78 -44 -118t-118 -40q-72 0 -116.5 40t-44.5 118t45 118t116 40q74 0 118 -40t44 -118zM471 1231q0 -78 -46 -118t-118 -40t-118 40t-46 118t46.5 118t117.5 40q72 0 118 -40 t46 -118z" />
<glyph unicode="&#xec;" horiz-adv-x="540" d="M205 1079l-346 379h340l202 -379h-196zM121 0v942l315 27v-969h-315z" />
<glyph unicode="&#xed;" horiz-adv-x="540" d="M346 1079h-196l202 379h340zM121 0v942l315 27v-969h-315z" />
<glyph unicode="&#xee;" horiz-adv-x="540" d="M121 0v942l315 27v-969h-315zM453 1079l-170 219h-4l-166 -219h-219l243 383h287l244 -383h-215z" />
<glyph unicode="&#xef;" horiz-adv-x="540" d="M680 1231q0 -78 -44 -118t-118 -40q-72 0 -117 40t-45 118t45 118t117 40q74 0 118 -40t44 -118zM205 1231q0 -78 -46 -118t-118 -40t-118 40t-46 118t46 118t118 40t118 -40t46 -118zM121 0v942l315 27v-969h-315z" />
<glyph unicode="&#xf0;" horiz-adv-x="1177" d="M1108 543q0 -121 -36 -225.5t-105.5 -182.5t-169 -122t-226.5 -44q-109 0 -200.5 34t-158.5 97.5t-104.5 153.5t-37.5 203q0 119 38.5 207t98 146t133.5 87t143 29q72 0 126.5 -22.5t99.5 -63.5l4 2q-33 55 -87.5 122.5t-113.5 127.5q-18 -4 -39 -11q-16 -4 -39.5 -10 t-46.5 -12q-55 -14 -125 -33l-41 166l150 39q-41 35 -79 65.5t-73 57.5l348 67q33 -25 64 -50t59 -52l250 65l43 -167l-156 -39q59 -68 110.5 -142.5t89.5 -154.5t59.5 -165t21.5 -173zM782 469q0 49 -8 92t-20 82q-25 27 -71 44.5t-103 17.5q-84 0 -138.5 -65t-54.5 -181 q0 -123 59.5 -181.5t141.5 -58.5q86 0 140 65.5t54 184.5z" />
<glyph unicode="&#xf1;" horiz-adv-x="1157" d="M735 0v563q0 86 -35.5 119t-99.5 33q-53 0 -97 -21.5t-75 -50.5v-643h-315v936l315 39v-156q63 72 145 118t175 46q143 0 223 -87t80 -241v-655h-316zM973 1399q-10 -92 -28.5 -152.5t-47.5 -96.5t-66.5 -50.5t-82.5 -14.5q-47 0 -93.5 18.5t-86.5 40t-72.5 40 t-57.5 18.5q-27 0 -42 -20.5t-23 -81.5h-187q8 92 27.5 151.5t48.5 95t66 50t82 14.5q49 0 94 -18.5t85 -40t73.5 -40t58.5 -18.5q27 0 41 21.5t22 83.5h189z" />
<glyph unicode="&#xf2;" horiz-adv-x="1144" d="M526 1079l-346 379h340l203 -379h-197zM1083 479q0 -121 -41 -215t-110.5 -159.5t-163.5 -100.5t-201 -35q-109 0 -201 33t-159.5 97.5t-106.5 158.5t-39 215t40 216t111 160.5t165 99.5t203 34q106 0 198 -34t160 -98.5t106.5 -158.5t38.5 -213zM770 477 q0 121 -50 193.5t-149 72.5q-98 0 -147 -72.5t-49 -195.5t50 -193.5t148 -70.5t147.5 71.5t49.5 194.5z" />
<glyph unicode="&#xf3;" horiz-adv-x="1144" d="M1083 479q0 -121 -41 -215t-110.5 -159.5t-163.5 -100.5t-201 -35q-109 0 -201 33t-159.5 97.5t-106.5 158.5t-39 215t40 216t111 160.5t165 99.5t203 34q106 0 198 -34t160 -98.5t106.5 -158.5t38.5 -213zM770 477q0 121 -50 193.5t-149 72.5q-98 0 -147 -72.5 t-49 -195.5t50 -193.5t148 -70.5t147.5 71.5t49.5 194.5zM635 1079h-197l203 379h340z" />
<glyph unicode="&#xf4;" horiz-adv-x="1144" d="M1083 479q0 -121 -41 -215t-110.5 -159.5t-163.5 -100.5t-201 -35q-109 0 -201 33t-159.5 97.5t-106.5 158.5t-39 215t40 216t111 160.5t165 99.5t203 34q106 0 198 -34t160 -98.5t106.5 -158.5t38.5 -213zM770 477q0 121 -50 193.5t-149 72.5q-98 0 -147 -72.5 t-49 -195.5t50 -193.5t148 -70.5t147.5 71.5t49.5 194.5zM754 1079l-170 219h-4l-166 -219h-219l243 383h287l244 -383h-215z" />
<glyph unicode="&#xf5;" horiz-adv-x="1144" d="M1083 479q0 -121 -41 -215t-110.5 -159.5t-163.5 -100.5t-201 -35q-109 0 -201 33t-159.5 97.5t-106.5 158.5t-39 215t40 216t111 160.5t165 99.5t203 34q106 0 198 -34t160 -98.5t106.5 -158.5t38.5 -213zM770 477q0 121 -50 193.5t-149 72.5q-98 0 -147 -72.5 t-49 -195.5t50 -193.5t148 -70.5t147.5 71.5t49.5 194.5zM973 1399q-10 -92 -28.5 -152.5t-47.5 -96.5t-66.5 -50.5t-82.5 -14.5q-47 0 -93.5 18.5t-86.5 40t-72.5 40t-57.5 18.5q-27 0 -42 -20.5t-23 -81.5h-187q8 92 27.5 151.5t48.5 95t66 50t82 14.5q49 0 94 -18.5 t85 -40t73.5 -40t58.5 -18.5q27 0 41 21.5t22 83.5h189z" />
<glyph unicode="&#xf6;" horiz-adv-x="1144" d="M1083 479q0 -121 -41 -215t-110.5 -159.5t-163.5 -100.5t-201 -35q-109 0 -201 33t-159.5 97.5t-106.5 158.5t-39 215t40 216t111 160.5t165 99.5t203 34q106 0 198 -34t160 -98.5t106.5 -158.5t38.5 -213zM770 477q0 121 -50 193.5t-149 72.5q-98 0 -147 -72.5 t-49 -195.5t50 -193.5t148 -70.5t147.5 71.5t49.5 194.5zM981 1231q0 -78 -44 -118t-118 -40q-72 0 -117 40t-45 118t45.5 118t116.5 40q74 0 118 -40t44 -118zM506 1231q0 -78 -46 -118t-118 -40t-118 40t-46 118t46 118t118 40t118 -40t46 -118z" />
<glyph unicode="&#xf7;" horiz-adv-x="1077" d="M70 371l6 237h928l6 -237h-940zM707 111q0 -72 -46.5 -116t-119.5 -44q-74 0 -120 44t-46 116t46 115.5t120 43.5t120 -43.5t46 -115.5zM707 868q0 -72 -46.5 -115.5t-121.5 -43.5q-74 0 -119 44t-45 115q0 72 45 116t119 44q76 0 122 -44t46 -116z" />
<glyph unicode="&#xf8;" horiz-adv-x="1144" d="M1092 475q0 -119 -40 -212t-109 -158.5t-163 -100.5t-202 -35q-53 0 -101.5 8.5t-95.5 24.5l-80 -139h-149l114 198q-92 66 -143 169.5t-51 244.5q0 119 40 213t108.5 159.5t162.5 100.5t205 35q106 0 198 -35l78 129h148l-111 -190q88 -63 139.5 -168t51.5 -244z M674 745q-43 29 -99 29q-98 0 -150 -78t-52 -213q0 -102 41 -186zM791 473q0 90 -37 180l-256 -448q23 -10 44 -15.5t46 -5.5q98 0 150.5 78t52.5 211z" />
<glyph unicode="&#xf9;" horiz-adv-x="1142" d="M487 1079l-346 379h340l203 -379h-197zM422 952v-563q0 -86 35 -119.5t96 -33.5q51 0 92 18t70 45v653h315v-938l-315 -39v142q-55 -59 -135 -103.5t-174 -44.5q-141 0 -220.5 87t-79.5 241v655h316z" />
<glyph unicode="&#xfa;" horiz-adv-x="1142" d="M422 952v-563q0 -86 35 -119.5t96 -33.5q51 0 92 18t70 45v653h315v-938l-315 -39v142q-55 -59 -135 -103.5t-174 -44.5q-141 0 -220.5 87t-79.5 241v655h316zM655 1079h-196l203 379h339z" />
<glyph unicode="&#xfb;" horiz-adv-x="1142" d="M422 952v-563q0 -86 35 -119.5t96 -33.5q51 0 92 18t70 45v653h315v-938l-315 -39v142q-55 -59 -135 -103.5t-174 -44.5q-141 0 -220.5 87t-79.5 241v655h316zM743 1079l-170 219h-4l-166 -219h-219l244 383h287l243 -383h-215z" />
<glyph unicode="&#xfc;" horiz-adv-x="1142" d="M422 952v-563q0 -86 35 -119.5t96 -33.5q51 0 92 18t70 45v653h315v-938l-315 -39v142q-55 -59 -135 -103.5t-174 -44.5q-141 0 -220.5 87t-79.5 241v655h316zM971 1231q0 -78 -44 -118t-118 -40q-72 0 -117 40t-45 118t45 118t117 40q74 0 118 -40t44 -118zM496 1231 q0 -78 -46.5 -118t-117.5 -40q-72 0 -118 40t-46 118t46 118t118 40t118 -40t46 -118z" />
<glyph unicode="&#xfd;" horiz-adv-x="1040" d="M705 45l-48 -125q-37 -104 -78.5 -174t-92 -112t-111 -59t-135.5 -17q-152 0 -283 61l94 240q47 -20 79 -31.5t69 -11.5q51 0 78.5 23.5t56.5 92.5l26 74l-372 946h338l202 -626l185 626h336zM590 1079h-197l203 379h340z" />
<glyph unicode="&#xfe;" horiz-adv-x="1167" d="M428 -432h-315v1786l315 39v-535q45 43 109.5 84t152.5 41q90 0 166 -35t130 -99.5t85 -156.5t31 -205q0 -119 -38 -214t-103.5 -162.5t-152.5 -103.5t-183 -36q-47 0 -99.5 8.5t-97.5 22.5v-434zM428 246q57 -39 145 -39q102 0 157.5 72.5t55.5 191.5q0 123 -50 191.5 t-148 68.5q-53 0 -90 -18.5t-70 -46.5v-420z" />
<glyph unicode="&#xff;" horiz-adv-x="1040" d="M705 45l-48 -125q-37 -104 -78.5 -174t-92 -112t-111 -59t-135.5 -17q-152 0 -283 61l94 240q47 -20 79 -31.5t69 -11.5q51 0 78.5 23.5t56.5 92.5l26 74l-372 946h338l202 -626l185 626h336zM918 1245q0 -78 -44.5 -118t-117.5 -40q-72 0 -117 40t-45 118t45 118t117 40 q74 0 118 -40t44 -118zM442 1245q0 -78 -46 -118t-117 -40q-72 0 -118 40t-46 118t46 118t118 40t117.5 -40t45.5 -118z" />
<glyph unicode="&#x100;" horiz-adv-x="1316" d="M1313 0h-324l-94 272h-475l-92 -272h-324l455 1280h407zM659 1028l-170 -502h334zM285 1452l22 179h701l22 -179h-745z" />
<glyph unicode="&#x101;" horiz-adv-x="1046" d="M625 424q-147 -16 -207 -48t-60 -95q0 -47 33 -75t86 -28q47 0 85 17.5t63 46.5v182zM627 115q-51 -59 -113.5 -102.5t-161.5 -43.5q-61 0 -114.5 20.5t-92.5 56.5t-61.5 84t-22.5 103q0 68 28 127.5t93.5 104.5t174 73.5t268.5 32.5v19q0 76 -40 110.5t-128 34.5 q-74 0 -157 -27.5t-167 -68.5l-65 231q76 41 189.5 77t248.5 36q123 0 207 -27.5t135 -81t72.5 -130t19.5 -177.5l-2 -282q0 -49 14.5 -61.5t63.5 -16.5l-31 -225q-156 -20 -237.5 17.5t-114.5 115.5h-6zM133 1124l22 179h701l22 -179h-745z" />
<glyph unicode="&#x102;" horiz-adv-x="1316" d="M1313 0h-324l-94 272h-475l-92 -272h-324l455 1280h407zM659 1028l-170 -502h334zM1030 1782q-8 -102 -41.5 -175t-85 -121t-115 -70.5t-130.5 -22.5q-68 0 -131.5 22.5t-113.5 70.5t-85 121t-43 175l190 -2q16 -92 60.5 -149.5t122.5 -57.5t121.5 57.5t60.5 149.5l190 2 v0z" />
<glyph unicode="&#x103;" horiz-adv-x="1046" d="M625 424q-147 -16 -207 -48t-60 -95q0 -47 33 -75t86 -28q47 0 85 17.5t63 46.5v182zM627 115q-51 -59 -113.5 -102.5t-161.5 -43.5q-61 0 -114.5 20.5t-92.5 56.5t-61.5 84t-22.5 103q0 68 28 127.5t93.5 104.5t174 73.5t268.5 32.5v19q0 76 -40 110.5t-128 34.5 q-74 0 -157 -27.5t-167 -68.5l-65 231q76 41 189.5 77t248.5 36q123 0 207 -27.5t135 -81t72.5 -130t19.5 -177.5l-2 -282q0 -49 14.5 -61.5t63.5 -16.5l-31 -225q-156 -20 -237.5 17.5t-114.5 115.5h-6zM878 1454q-8 -102 -41.5 -175t-85 -121t-115 -70.5t-130.5 -22.5 q-68 0 -131.5 22.5t-113.5 70.5t-85 121t-43 175l190 -2q16 -92 60.5 -149.5t122.5 -57.5t121.5 57.5t60.5 149.5l190 2v0z" />
<glyph unicode="&#x104;" horiz-adv-x="1316" d="M1313 0q-127 -10 -206 -56t-79 -114q0 -92 88 -92q29 0 56.5 7t48.5 19l43 -159q-39 -25 -90.5 -40.5t-122.5 -15.5q-113 0 -180.5 55.5t-67.5 153.5q0 86 54 148.5t130 93.5l-92 272h-475l-92 -272h-324l455 1280h407zM659 1028l-170 -502h334z" />
<glyph unicode="&#x105;" horiz-adv-x="1046" d="M627 115q-51 -59 -113.5 -102.5t-161.5 -43.5q-61 0 -114.5 20.5t-92.5 56.5t-61.5 84t-22.5 103q0 68 28 127.5t93.5 104.5t174 73.5t268.5 32.5v19q0 76 -40 110.5t-128 34.5q-74 0 -157 -27.5t-167 -68.5l-65 231q76 41 189.5 77t248.5 36q123 0 207 -27.5t135 -81 t72.5 -130t19.5 -177.5l-2 -282q0 -49 14.5 -61.5t63.5 -16.5l-31 -225q-47 -4 -89 -16.5t-75 -32t-52 -46t-19 -57.5q0 -92 90 -92q29 0 56.5 7t47.5 19l43 -159q-41 -25 -91 -40.5t-124 -15.5q-111 0 -178.5 55.5t-67.5 153.5q0 88 55.5 153.5t137.5 100.5q-57 35 -86 103 h-6zM625 424q-147 -16 -207 -48t-60 -95q0 -47 33 -75t86 -28q47 0 85 17.5t63 46.5v182z" />
<glyph unicode="&#x106;" horiz-adv-x="1255" d="M691 1407h-197l203 379h340zM1096 942q-72 43 -155 67.5t-169 24.5q-166 0 -265 -104.5t-99 -286.5q0 -184 96 -290.5t270 -106.5q94 0 180 28.5t158 75.5l68 -289q-76 -41 -192 -66.5t-228 -25.5q-154 0 -280 43t-215 128t-137 209t-48 286q0 156 48 280.5t138 213 t218 135.5t286 47q117 0 226.5 -27t197.5 -70z" />
<glyph unicode="&#x107;" horiz-adv-x="991" d="M564 1079h-197l203 379h340zM928 47q-59 -37 -151.5 -57.5t-196.5 -20.5q-119 0 -214.5 33t-163 96.5t-103.5 156.5t-36 214q0 119 37 214t105.5 161.5t165 102.5t217.5 36q100 0 190 -21.5t156 -58.5l-62 -237q-57 33 -122.5 53t-128.5 20q-115 0 -175.5 -71.5 t-60.5 -188.5q0 -129 66.5 -196.5t177.5 -67.5q72 0 134 18.5t118 53.5l47 -240v0z" />
<glyph unicode="&#x108;" horiz-adv-x="1255" d="M881 1407l-170 219h-4l-166 -219h-219l243 383h287l244 -383h-215zM1096 942q-72 43 -155 67.5t-169 24.5q-166 0 -265 -104.5t-99 -286.5q0 -184 96 -290.5t270 -106.5q94 0 180 28.5t158 75.5l68 -289q-76 -41 -192 -66.5t-228 -25.5q-154 0 -280 43t-215 128t-137 209 t-48 286q0 156 48 280.5t138 213t218 135.5t286 47q117 0 226.5 -27t197.5 -70z" />
<glyph unicode="&#x109;" horiz-adv-x="991" d="M721 1079l-170 219h-4l-166 -219h-219l243 383h287l244 -383h-215zM928 47q-59 -37 -151.5 -57.5t-196.5 -20.5q-119 0 -214.5 33t-163 96.5t-103.5 156.5t-36 214q0 119 37 214t105.5 161.5t165 102.5t217.5 36q100 0 190 -21.5t156 -58.5l-62 -237q-57 33 -122.5 53 t-128.5 20q-115 0 -175.5 -71.5t-60.5 -188.5q0 -129 66.5 -196.5t177.5 -67.5q72 0 134 18.5t118 53.5l47 -240v0z" />
<glyph unicode="&#x10a;" horiz-adv-x="1255" d="M1096 942q-72 43 -155 67.5t-169 24.5q-166 0 -265 -104.5t-99 -286.5q0 -184 96 -290.5t270 -106.5q94 0 180 28.5t158 75.5l68 -289q-76 -41 -192 -66.5t-228 -25.5q-154 0 -280 43t-215 128t-137 209t-48 286q0 156 48 280.5t138 213t218 135.5t286 47 q117 0 226.5 -27t197.5 -70zM885 1561q0 -74 -46.5 -126t-125.5 -52q-78 0 -125 52t-47 126q0 72 47 125t125 53q80 0 126 -53t46 -125z" />
<glyph unicode="&#x10b;" horiz-adv-x="991" d="M928 47q-59 -37 -151.5 -57.5t-196.5 -20.5q-119 0 -214.5 33t-163 96.5t-103.5 156.5t-36 214q0 119 37 214t105.5 161.5t165 102.5t217.5 36q100 0 190 -21.5t156 -58.5l-62 -237q-57 33 -122.5 53t-128.5 20q-115 0 -175.5 -71.5t-60.5 -188.5q0 -129 66.5 -196.5 t177.5 -67.5q72 0 134 18.5t118 53.5l47 -240v0zM754 1229q0 -74 -46.5 -126t-125.5 -52q-78 0 -125 52t-47 126q0 72 47 125t125 53q80 0 126 -53t46 -125z" />
<glyph unicode="&#x10c;" horiz-adv-x="1255" d="M866 1407h-287l-243 383h215l170 -221h4l166 221h219zM1096 942q-72 43 -155 67.5t-169 24.5q-166 0 -265 -104.5t-99 -286.5q0 -184 96 -290.5t270 -106.5q94 0 180 28.5t158 75.5l68 -289q-76 -41 -192 -66.5t-228 -25.5q-154 0 -280 43t-215 128t-137 209t-48 286 q0 156 48 280.5t138 213t218 135.5t286 47q117 0 226.5 -27t197.5 -70z" />
<glyph unicode="&#x10d;" horiz-adv-x="991" d="M684 1079h-287l-243 383h215l170 -221h4l166 221h219zM928 47q-59 -37 -151.5 -57.5t-196.5 -20.5q-119 0 -214.5 33t-163 96.5t-103.5 156.5t-36 214q0 119 37 214t105.5 161.5t165 102.5t217.5 36q100 0 190 -21.5t156 -58.5l-62 -237q-57 33 -122.5 53t-128.5 20 q-115 0 -175.5 -71.5t-60.5 -188.5q0 -129 66.5 -196.5t177.5 -67.5q72 0 134 18.5t118 53.5l47 -240v0z" />
<glyph unicode="&#x10e;" horiz-adv-x="1394" d="M743 1407h-287l-243 383h215l170 -221h4l166 221h219zM1321 649q0 -147 -48 -267t-140.5 -205t-228.5 -131t-312 -46h-459v1280h481q168 0 300.5 -45t222.5 -128t137 -199t47 -259zM993 637q0 199 -99 291t-300 92h-135v-760h151q178 0 280.5 92t102.5 285z" />
<glyph unicode="&#x10f;" horiz-adv-x="1673" d="M1194 1229q10 84 70.5 134t148.5 50q53 0 98.5 -21.5t78 -56.5t51 -83t18.5 -99q0 -72 -28.5 -132.5t-77 -111.5t-110.5 -94t-130 -80l-139 123q86 59 145 111.5t59 103.5q0 41 -39 76t-145 80zM737 1354l316 39v-1393h-316v98q-45 -47 -110.5 -87t-155.5 -40 q-88 0 -163 35t-129 99.5t-85 155.5t-31 204q0 119 39 214t104.5 162.5t151.5 103.5t183 36q102 0 196 -33v406zM737 707q-27 18 -63.5 29.5t-81.5 11.5q-100 0 -156.5 -74t-56.5 -193q0 -123 55 -190.5t144 -67.5q53 0 91 17.5t68 48.5v418z" />
<glyph unicode="&#x110;" horiz-adv-x="1466" d="M786 772v-250h-260v-262h125q88 0 163 22.5t130 69.5t86 118t31 167q0 199 -112.5 291t-313.5 92h-109v-248h260zM31 522v250h170v508h481q168 0 300 -45t222 -128t137.5 -198.5t47.5 -259.5q0 -147 -48.5 -267t-140.5 -205t-228 -131t-310 -46h-461v522h-170z" />
<glyph unicode="&#x111;" horiz-adv-x="1167" d="M737 1044h-258l23 177h235v133l316 39v-172h104l21 -177l-125 -4v-1040h-316v98q-45 -47 -110.5 -87t-155.5 -40q-88 0 -163 35t-129 99.5t-85 155.5t-31 204q0 119 39 214t104.5 162.5t151.5 103.5t183 36q102 0 196 -33v96zM737 707q-27 18 -63.5 29.5t-81.5 11.5 q-100 0 -156.5 -74t-56.5 -193q0 -123 55 -190.5t144 -67.5q53 0 91 17.5t68 48.5v418z" />
<glyph unicode="&#x112;" horiz-adv-x="1157" d="M133 0v1280h936v-262h-616v-246h495v-260h-495v-250h616v-262h-936zM225 1454l22 179h701l22 -179h-745z" />
<glyph unicode="&#x113;" horiz-adv-x="1060" d="M371 401q8 -96 71.5 -148t180.5 -52q78 0 158.5 25.5t152.5 66.5l31 -244q-72 -37 -169.5 -57.5t-201.5 -20.5q-121 0 -219.5 33t-168 96.5t-107.5 156.5t-38 212q0 117 38 212t106.5 161.5t163 103.5t209.5 37q203 0 310 -110.5t107 -288.5q0 -39 -5 -88.5t-15 -79.5 l-604 -10v-5zM702 565v19q0 86 -35.5 134t-109.5 48q-82 0 -129 -60.5t-55 -142.5zM166 1124l22 179h701l22 -179h-745z" />
<glyph unicode="&#x114;" horiz-adv-x="1157" d="M133 0v1280h936v-262h-616v-246h495v-260h-495v-250h616v-262h-936zM997 1782q-8 -102 -41.5 -175t-85 -121t-115 -70.5t-130.5 -22.5q-68 0 -131.5 22.5t-113.5 70.5t-85 121t-43 175l190 -2q16 -92 60.5 -149.5t122.5 -57.5t121.5 57.5t60.5 149.5l190 2v0z" />
<glyph unicode="&#x115;" horiz-adv-x="1060" d="M371 401q8 -96 71.5 -148t180.5 -52q78 0 158.5 25.5t152.5 66.5l31 -244q-72 -37 -169.5 -57.5t-201.5 -20.5q-121 0 -219.5 33t-168 96.5t-107.5 156.5t-38 212q0 117 38 212t106.5 161.5t163 103.5t209.5 37q203 0 310 -110.5t107 -288.5q0 -39 -5 -88.5t-15 -79.5 l-604 -10v-5zM702 565v19q0 86 -35.5 134t-109.5 48q-82 0 -129 -60.5t-55 -142.5zM909 1454q-8 -102 -41.5 -175t-85 -121t-115 -70.5t-130.5 -22.5q-68 0 -131.5 22.5t-113.5 70.5t-85 121t-43 175l190 -2q16 -92 60.5 -149.5t122.5 -57.5t121.5 57.5t60.5 149.5l190 2v0z " />
<glyph unicode="&#x116;" horiz-adv-x="1157" d="M133 0v1280h936v-262h-616v-246h495v-260h-495v-250h616v-262h-936zM779 1557q0 -74 -46.5 -126t-125.5 -52q-78 0 -125 52t-47 126q0 72 47 125t125 53q80 0 126 -53t46 -125z" />
<glyph unicode="&#x117;" horiz-adv-x="1060" d="M371 401q8 -96 71.5 -148t180.5 -52q78 0 158.5 25.5t152.5 66.5l31 -244q-72 -37 -169.5 -57.5t-201.5 -20.5q-121 0 -219.5 33t-168 96.5t-107.5 156.5t-38 212q0 117 38 212t106.5 161.5t163 103.5t209.5 37q203 0 310 -110.5t107 -288.5q0 -39 -5 -88.5t-15 -79.5 l-604 -10v-5zM702 565v19q0 86 -35.5 134t-109.5 48q-82 0 -129 -60.5t-55 -142.5zM711 1229q0 -74 -46.5 -126t-125.5 -52q-78 0 -125 52t-47 126q0 72 47 125t125 53q80 0 126 -53t46 -125z" />
<glyph unicode="&#x118;" horiz-adv-x="1157" d="M944 0q-53 -37 -83 -80t-30 -90q0 -92 89 -92q29 0 56.5 7t47.5 19l43 -159q-39 -25 -90 -40.5t-123 -15.5q-113 0 -180.5 55.5t-67.5 153.5q0 80 47 141.5t117 100.5h-637v1280h936v-262h-616v-246h495v-260h-495v-250h616v-262h-125z" />
<glyph unicode="&#x119;" horiz-adv-x="1060" d="M371 401q8 -96 71.5 -148t180.5 -52q78 0 158.5 25.5t152.5 66.5l31 -244q-41 -12 -83 -32.5t-77 -48t-56.5 -63.5t-21.5 -75q0 -92 88 -92q29 0 56.5 7t48.5 19l43 -159q-39 -25 -90.5 -40.5t-122.5 -15.5q-113 0 -180.5 55.5t-67.5 153.5q0 66 32.5 120t86.5 93h-27 q-121 0 -219.5 33t-168 96.5t-107.5 156.5t-38 212q0 117 38 212t106.5 161.5t163 103.5t209.5 37q203 0 310 -110.5t107 -288.5q0 -39 -5 -88.5t-15 -79.5l-604 -10v-5zM702 565v19q0 86 -35.5 134t-109.5 48q-82 0 -129 -60.5t-55 -142.5z" />
<glyph unicode="&#x11a;" horiz-adv-x="1157" d="M754 1407h-287l-243 383h215l170 -221h4l166 221h219zM133 0v1280h936v-262h-616v-246h495v-260h-495v-250h616v-262h-936z" />
<glyph unicode="&#x11b;" horiz-adv-x="1060" d="M680 1079h-287l-243 383h215l170 -221h4l166 221h219zM371 401q8 -96 71.5 -148t180.5 -52q78 0 158.5 25.5t152.5 66.5l31 -244q-72 -37 -169.5 -57.5t-201.5 -20.5q-121 0 -219.5 33t-168 96.5t-107.5 156.5t-38 212q0 117 38 212t106.5 161.5t163 103.5t209.5 37 q203 0 310 -110.5t107 -288.5q0 -39 -5 -88.5t-15 -79.5l-604 -10v-5zM702 565v19q0 86 -35.5 134t-109.5 48q-82 0 -129 -60.5t-55 -142.5z" />
<glyph unicode="&#x11c;" horiz-adv-x="1378" d="M893 1407l-170 219h-4l-166 -219h-219l243 383h287l244 -383h-215zM1276 88q-104 -57 -235.5 -88t-272.5 -31q-154 0 -281 45t-217 130t-140 209t-50 282t49 282.5t139 213t217 134.5t285 46q61 0 127 -7.5t129.5 -20.5t120.5 -34.5t104 -48.5l-102 -272 q-184 106 -369 106q-174 0 -275.5 -105.5t-101.5 -285.5q0 -193 94.5 -300t278.5 -107q55 0 109.5 11t95.5 27v189h-315v258h610v-633v0z" />
<glyph unicode="&#x11d;" horiz-adv-x="1081" d="M682 1079l-170 219h-4l-166 -219h-219l243 383h287l244 -383h-215zM362 612q0 -76 37 -122t113 -46q72 0 105.5 48.5t33.5 128.5q0 76 -35.5 121.5t-109.5 45.5q-68 0 -106 -48t-38 -128zM348 -98q-33 -16 -54.5 -42t-21.5 -63q0 -55 64.5 -90t175.5 -35q57 0 106.5 8.5 t86 26t57 41t20.5 53.5q0 57 -60 76t-185 19q-45 0 -103.5 2t-85.5 4zM223 -63q-63 18 -114.5 62t-51.5 110q0 68 55.5 127t141.5 83q-86 41 -139.5 117t-53.5 178q0 78 31 145.5t89.5 117t142.5 78t190 28.5q86 0 162 -21.5t129 -46.5l268 23l14 -256l-184 29 q12 -14 19.5 -47t7.5 -58q0 -72 -31 -135t-86 -109.5t-132 -73t-169 -26.5q-33 0 -62.5 4t-64.5 10q-20 -10 -37.5 -27.5t-17.5 -41.5q0 -33 40 -46.5t134 -13.5h112q98 0 179.5 -13t139.5 -45t90 -83t32 -127q0 -90 -49.5 -161.5t-132 -123t-190 -79t-224.5 -27.5 q-96 0 -181 15.5t-147.5 46t-99.5 76.5t-37 110q0 72 56 129.5t171 71.5z" />
<glyph unicode="&#x11e;" horiz-adv-x="1378" d="M1276 88q-104 -57 -235.5 -88t-272.5 -31q-154 0 -281 45t-217 130t-140 209t-50 282t49 282.5t139 213t217 134.5t285 46q61 0 127 -7.5t129.5 -20.5t120.5 -34.5t104 -48.5l-102 -272q-184 106 -369 106q-174 0 -275.5 -105.5t-101.5 -285.5q0 -193 94.5 -300 t278.5 -107q55 0 109.5 11t95.5 27v189h-315v258h610v-633v0zM1095 1782q-8 -102 -41.5 -175t-85 -121t-115 -70.5t-130.5 -22.5q-68 0 -131.5 22.5t-113.5 70.5t-85 121t-43 175l190 -2q16 -92 60.5 -149.5t122.5 -57.5t121.5 57.5t60.5 149.5l190 2v0z" />
<glyph unicode="&#x11f;" horiz-adv-x="1081" d="M362 612q0 -76 37 -122t113 -46q72 0 105.5 48.5t33.5 128.5q0 76 -35.5 121.5t-109.5 45.5q-68 0 -106 -48t-38 -128zM348 -98q-33 -16 -54.5 -42t-21.5 -63q0 -55 64.5 -90t175.5 -35q57 0 106.5 8.5t86 26t57 41t20.5 53.5q0 57 -60 76t-185 19q-45 0 -103.5 2 t-85.5 4zM223 -63q-63 18 -114.5 62t-51.5 110q0 68 55.5 127t141.5 83q-86 41 -139.5 117t-53.5 178q0 78 31 145.5t89.5 117t142.5 78t190 28.5q86 0 162 -21.5t129 -46.5l268 23l14 -256l-184 29q12 -14 19.5 -47t7.5 -58q0 -72 -31 -135t-86 -109.5t-132 -73t-169 -26.5 q-33 0 -62.5 4t-64.5 10q-20 -10 -37.5 -27.5t-17.5 -41.5q0 -33 40 -46.5t134 -13.5h112q98 0 179.5 -13t139.5 -45t90 -83t32 -127q0 -90 -49.5 -161.5t-132 -123t-190 -79t-224.5 -27.5q-96 0 -181 15.5t-147.5 46t-99.5 76.5t-37 110q0 72 56 129.5t171 71.5zM901 1454 q-8 -102 -41.5 -175t-85 -121t-115 -70.5t-130.5 -22.5q-68 0 -131.5 22.5t-113.5 70.5t-85 121t-43 175l190 -2q16 -92 60.5 -149.5t122.5 -57.5t121.5 57.5t60.5 149.5l190 2v0z" />
<glyph unicode="&#x120;" horiz-adv-x="1378" d="M1276 88q-104 -57 -235.5 -88t-272.5 -31q-154 0 -281 45t-217 130t-140 209t-50 282t49 282.5t139 213t217 134.5t285 46q61 0 127 -7.5t129.5 -20.5t120.5 -34.5t104 -48.5l-102 -272q-184 106 -369 106q-174 0 -275.5 -105.5t-101.5 -285.5q0 -193 94.5 -300 t278.5 -107q55 0 109.5 11t95.5 27v189h-315v258h610v-633v0zM928 1557q0 -74 -46.5 -126t-125.5 -52q-78 0 -125 52t-47 126q0 72 47 125t125 53q80 0 126 -53t46 -125z" />
<glyph unicode="&#x121;" horiz-adv-x="1081" d="M362 612q0 -76 37 -122t113 -46q72 0 105.5 48.5t33.5 128.5q0 76 -35.5 121.5t-109.5 45.5q-68 0 -106 -48t-38 -128zM348 -98q-33 -16 -54.5 -42t-21.5 -63q0 -55 64.5 -90t175.5 -35q57 0 106.5 8.5t86 26t57 41t20.5 53.5q0 57 -60 76t-185 19q-45 0 -103.5 2 t-85.5 4zM223 -63q-63 18 -114.5 62t-51.5 110q0 68 55.5 127t141.5 83q-86 41 -139.5 117t-53.5 178q0 78 31 145.5t89.5 117t142.5 78t190 28.5q86 0 162 -21.5t129 -46.5l268 23l14 -256l-184 29q12 -14 19.5 -47t7.5 -58q0 -72 -31 -135t-86 -109.5t-132 -73t-169 -26.5 q-33 0 -62.5 4t-64.5 10q-20 -10 -37.5 -27.5t-17.5 -41.5q0 -33 40 -46.5t134 -13.5h112q98 0 179.5 -13t139.5 -45t90 -83t32 -127q0 -90 -49.5 -161.5t-132 -123t-190 -79t-224.5 -27.5q-96 0 -181 15.5t-147.5 46t-99.5 76.5t-37 110q0 72 56 129.5t171 71.5zM695 1229 q0 -74 -46.5 -126t-125.5 -52q-78 0 -125 52t-47 126q0 72 47 125t125 53q80 0 126 -53t46 -125z" />
<glyph unicode="&#x122;" horiz-adv-x="1378" d="M592 -250q2 59 46 102.5t114 43.5q82 0 134 -51.5t52 -133.5q0 -100 -74.5 -178t-205.5 -119l-70 74q72 41 103.5 78t31.5 69q0 33 -23.5 60.5t-107.5 54.5zM1276 88q-104 -57 -235.5 -88t-272.5 -31q-154 0 -281 45t-217 130t-140 209t-50 282t49 282.5t139 213 t217 134.5t285 46q61 0 127 -7.5t129.5 -20.5t120.5 -34.5t104 -48.5l-102 -272q-184 106 -369 106q-174 0 -275.5 -105.5t-101.5 -285.5q0 -193 94.5 -300t278.5 -107q55 0 109.5 11t95.5 27v189h-315v258h610v-633v0z" />
<glyph unicode="&#x123;" horiz-adv-x="1081" d="M705.013 1222.98q-1.99902 -58.9961 -45.9971 -102.493q-43.9971 -43.4971 -113.993 -43.4971q-81.9941 0 -133.991 51.4961q-51.9971 51.4971 -51.9971 133.492q0 99.9941 74.4951 177.989q74.4961 77.9951 205.488 118.992l69.9951 -73.9951 q-71.9951 -40.9971 -103.493 -77.9951t-31.498 -68.9961q0 -32.998 23.498 -60.4961q23.499 -27.498 107.493 -54.4971zM362 612q0 -76 37 -122t113 -46q72 0 105.5 48.5t33.5 128.5q0 76 -35.5 121.5t-109.5 45.5q-68 0 -106 -48t-38 -128zM348 -98q-33 -16 -54.5 -42 t-21.5 -63q0 -55 64.5 -90t175.5 -35q57 0 106.5 8.5t86 26t57 41t20.5 53.5q0 57 -60 76t-185 19q-45 0 -103.5 2t-85.5 4zM223 -63q-63 18 -114.5 62t-51.5 110q0 68 55.5 127t141.5 83q-86 41 -139.5 117t-53.5 178q0 78 31 145.5t89.5 117t142.5 78t190 28.5 q86 0 162 -21.5t129 -46.5l268 23l14 -256l-184 29q12 -14 19.5 -47t7.5 -58q0 -72 -31 -135t-86 -109.5t-132 -73t-169 -26.5q-33 0 -62.5 4t-64.5 10q-20 -10 -37.5 -27.5t-17.5 -41.5q0 -33 40 -46.5t134 -13.5h112q98 0 179.5 -13t139.5 -45t90 -83t32 -127 q0 -90 -49.5 -161.5t-132 -123t-190 -79t-224.5 -27.5q-96 0 -181 15.5t-147.5 46t-99.5 76.5t-37 110q0 72 56 129.5t171 71.5z" />
<glyph unicode="&#x124;" horiz-adv-x="1431" d="M889 1407l-170 219h-4l-166 -219h-219l243 383h287l244 -383h-215zM973 0v508h-514v-508h-326v1280h326v-498h514v498h325v-1280h-325z" />
<glyph unicode="&#x125;" horiz-adv-x="1157" d="M469 1407l-170 219h-4l-166 -219h-219l243 383h287l244 -383h-215zM735 0v563q0 86 -35.5 119t-95.5 33q-55 0 -100 -21.5t-76 -50.5v-643h-315v1354l315 39v-572q63 72 145 117t177 45q141 0 221 -87t80 -241v-655h-316z" />
<glyph unicode="&#x126;" horiz-adv-x="1431" d="M973 0v508h-514v-508h-326v928h-153l22 176h131v176h326v-176h514v176h325v-176h123l23 -176h-146v-928h-325zM973 782v146h-514v-146h514z" />
<glyph unicode="&#x127;" horiz-adv-x="1157" d="M735 0v563q0 86 -35.5 119t-95.5 33q-55 0 -100 -21.5t-76 -50.5v-643h-315v1044h-125l20 177h105v133l315 39v-172h236l22 -177h-258v-223q63 72 145 117t177 45q141 0 221 -87t80 -241v-655h-316z" />
<glyph unicode="&#x12a;" horiz-adv-x="598" d="M135 0v1280h326v-1280h-326zM-15.793 1450.67l18.5566 184.682h591.254l18.5566 -184.682h-628.367z" />
<glyph unicode="&#x12b;" horiz-adv-x="540" d="M121 0v942l315 27v-969h-315zM-22.6865 1135.79l18.0234 168.773h574.312l18.0244 -168.773h-610.359z" />
<glyph unicode="&#x12c;" horiz-adv-x="598" d="M135 0v1280h326v-1280h-326zM673 1782q-8 -102 -41.5 -175t-85 -121t-115 -70.5t-130.5 -22.5q-68 0 -131.5 22.5t-113.5 70.5t-85 121t-43 175l190 -2q16 -92 60.5 -149.5t122.5 -57.5t121.5 57.5t60.5 149.5l190 2v0z" />
<glyph unicode="&#x12d;" horiz-adv-x="540" d="M121 0v942l315 27v-969h-315zM645 1454q-8 -102 -41.5 -175t-85 -121t-115 -70.5t-130.5 -22.5q-68 0 -131.5 22.5t-113.5 70.5t-85 121t-43 175l190 -2q16 -92 60.5 -149.5t122.5 -57.5t121.5 57.5t60.5 149.5l190 2v0z" />
<glyph unicode="&#x12e;" horiz-adv-x="598" d="M287 -451q-111 0 -178.5 55.5t-67.5 153.5q0 80 46 141.5t118 100.5h-70v1280h326v-1280q-39 -8 -74 -26.5t-62.5 -42t-44 -50t-16.5 -51.5q0 -92 88 -92q29 0 56.5 7t48.5 19l45 -159q-41 -25 -92 -40.5t-123 -15.5z" />
<glyph unicode="&#x12f;" horiz-adv-x="540" d="M250 -451q-113 0 -180.5 55.5t-67.5 153.5q0 80 46 141.5t118 100.5h-53v936l315 39v-975q-90 -16 -145.5 -59t-55.5 -111q0 -92 88 -92q29 0 56.5 7t48.5 19l43 -159q-39 -25 -90 -40.5t-123 -15.5zM457 1255q0 -82 -49.5 -125t-137.5 -43q-86 0 -135 43.5t-49 124.5 q0 84 49 127t135 43q88 0 137.5 -43t49.5 -127z" />
<glyph unicode="&#x130;" horiz-adv-x="598" d="M135 0v1280h326v-1280h-326zM473 1557q0 -74 -46.5 -126t-125.5 -52q-78 0 -125 52t-47 126q0 72 47 125t125 53q80 0 126 -53t46 -125z" />
<glyph unicode="&#x131;" horiz-adv-x="540" d="M121 0v942l315 27v-969h-315z" />
<glyph unicode="&#x134;" horiz-adv-x="964" d="M848 1407l-170 219h-4l-166 -219h-219l243 383h287l244 -383h-215zM842 451q0 -229 -110.5 -355.5t-348.5 -126.5q-104 0 -201.5 25.5t-163.5 62.5l66 262q66 -37 127 -58t121 -21q100 0 142 55t42 180v805h326v-829v0z" />
<glyph unicode="&#x135;" horiz-adv-x="538" d="M-55 -283q43 20 74.5 45t52 62t31 90t10.5 129v893l315 39v-952q0 -211 -67.5 -336t-235.5 -183zM445 1079l-170 219h-4l-166 -219h-219l243 383h287l244 -383h-215z" />
<glyph unicode="&#x136;" horiz-adv-x="1280" d="M496 -250q2 59 46 102.5t114 43.5q82 0 134 -51.5t52 -133.5q0 -100 -74.5 -178t-205.5 -119l-70 74q72 41 103.5 78t31.5 69q0 33 -23.5 60.5t-107.5 54.5zM461 715l426 565h373l-506 -625l518 -655h-389l-422 563h-2v-563h-326v1280h326v-565h2z" />
<glyph unicode="&#x137;" horiz-adv-x="1089" d="M397 -250q2 59 46 102.5t114 43.5q82 0 134 -51.5t52 -133.5q0 -100 -74.5 -178t-205.5 -119l-70 74q72 41 103.5 78t31.5 69q0 33 -23.5 60.5t-107.5 54.5zM428 446v-446h-315v1354l315 39v-850h2l291 409h362l-350 -452l352 -500h-358l-297 446h-2z" />
<glyph unicode="&#x139;" horiz-adv-x="1064" d="M349 1407h-197l203 379h340zM133 0v1280h326v-1008h536v-272h-862z" />
<glyph unicode="&#x13a;" horiz-adv-x="540" d="M320 1427h-197l203 379h340zM113 0v1354l315 39v-1393h-315z" />
<glyph unicode="&#x13b;" horiz-adv-x="1064" d="M383 -250q2 59 46 102.5t114 43.5q82 0 134 -51.5t52 -133.5q0 -100 -74.5 -178t-205.5 -119l-70 74q72 41 103.5 78t31.5 69q0 33 -23.5 60.5t-107.5 54.5zM133 0v1280h326v-1008h536v-272h-862z" />
<glyph unicode="&#x13c;" horiz-adv-x="540" d="M96 -250q2 59 46 102.5t114 43.5q82 0 134 -51.5t52 -133.5q0 -100 -74.5 -178t-205.5 -119l-70 74q72 41 103.5 78t31.5 69q0 33 -23.5 60.5t-107.5 54.5zM113 0v1354l315 39v-1393h-315z" />
<glyph unicode="&#x13d;" horiz-adv-x="1341" d="M962 1123q10 84 70.5 134t148.5 50q53 0 98.5 -21.5t78 -56.5t51 -83t18.5 -99q0 -72 -28.5 -132.5t-77 -111.5t-110.5 -94t-130 -80l-139 123q86 59 145 111.5t59 103.5q0 41 -39 76t-145 80zM133 0v1280h326v-1008h536v-272h-862z" />
<glyph unicode="&#x13e;" horiz-adv-x="1097" d="M616 1233q10 84 70.5 134t148.5 50q53 0 98.5 -21.5t78 -56.5t51 -83t18.5 -99q0 -72 -28.5 -132.5t-77 -111.5t-110.5 -94t-130 -80l-139 123q86 59 145 111.5t59 103.5q0 41 -39 76t-145 80zM113 0v1354l315 39v-1393h-315z" />
<glyph unicode="&#x13f;" horiz-adv-x="1273" d="M133 0v1280h326v-1008h536v-272h-862zM1411 637q0 -84 -53 -135t-139 -51q-88 0 -141.5 51t-53.5 135q0 86 53.5 136.5t141.5 50.5q86 0 139 -50.5t53 -136.5z" />
<glyph unicode="&#x140;" horiz-adv-x="1009" d="M113 0v1354l315 39v-1393h-315zM1018 637q0 -84 -53 -135t-139 -51q-88 0 -141.5 51t-53.5 135q0 86 53.5 136.5t141.5 50.5q86 0 139 -50.5t53 -136.5z" />
<glyph unicode="&#x141;" horiz-adv-x="1130" d="M528 274h537v-274h-862v453l-168 -45v247l168 45v580h325v-492l289 78v-248l-289 -77v-267z" />
<glyph unicode="&#x142;" horiz-adv-x="675" d="M498 0h-316v453l-141 -39v250l141 38v652l316 39v-607l143 39v-250l-143 -38v-537z" />
<glyph unicode="&#x143;" horiz-adv-x="1456" d="M787 1407h-197l203 379h340zM1018 1280h305v-1292h-346l-539 841v-829h-305v1280h352l533 -831v831z" />
<glyph unicode="&#x144;" horiz-adv-x="1157" d="M570 1079h-197l203 379h340zM735 0v563q0 86 -35.5 119t-99.5 33q-53 0 -97 -21.5t-75 -50.5v-643h-315v936l315 39v-156q63 72 145 118t175 46q143 0 223 -87t80 -241v-655h-316z" />
<glyph unicode="&#x145;" horiz-adv-x="1456" d="M573 -250q2 59 46 102.5t114 43.5q82 0 134 -51.5t52 -133.5q0 -100 -74.5 -178t-205.5 -119l-70 74q72 41 103.5 78t31.5 69q0 33 -23.5 60.5t-107.5 54.5zM1018 1280h305v-1292h-346l-539 841v-829h-305v1280h352l533 -831v831z" />
<glyph unicode="&#x146;" horiz-adv-x="1157" d="M412 -250q2 59 46 102.5t114 43.5q82 0 134 -51.5t52 -133.5q0 -100 -74.5 -178t-205.5 -119l-70 74q72 41 103.5 78t31.5 69q0 33 -23.5 60.5t-107.5 54.5zM735 0v563q0 86 -35.5 119t-99.5 33q-53 0 -97 -21.5t-75 -50.5v-643h-315v936l315 39v-156q63 72 145 118 t175 46q143 0 223 -87t80 -241v-655h-316z" />
<glyph unicode="&#x147;" horiz-adv-x="1456" d="M889 1407h-287l-243 383h215l170 -221h4l166 221h219zM1018 1280h305v-1292h-346l-539 841v-829h-305v1280h352l533 -831v831z" />
<glyph unicode="&#x148;" horiz-adv-x="1157" d="M709 1079h-287l-243 383h215l170 -221h4l166 221h219zM735 0v563q0 86 -35.5 119t-99.5 33q-53 0 -97 -21.5t-75 -50.5v-643h-315v936l315 39v-156q63 72 145 118t175 46q143 0 223 -87t80 -241v-655h-316z" />
<glyph unicode="&#x14c;" horiz-adv-x="1501" d="M375 1452l22 179h701l22 -179h-745zM1421 645q0 -152 -52 -276.5t-142 -213.5t-213 -137.5t-266 -48.5q-141 0 -264.5 44t-212.5 128t-140 209t-51 287q0 152 51 276.5t141 212.5t213 136.5t267 48.5q143 0 265 -43t212 -128t141 -209t51 -286zM1094 637q0 92 -23.5 168 t-69 130t-109 84t-144.5 30q-164 0 -252 -112t-88 -292q0 -92 23.5 -168t67.5 -131t108.5 -85t146.5 -30q80 0 143.5 30t107.5 83t66.5 128t22.5 165z" />
<glyph unicode="&#x14d;" horiz-adv-x="1144" d="M197 1124l22 179h701l22 -179h-745zM1083 479q0 -121 -41 -215t-110.5 -159.5t-163.5 -100.5t-201 -35q-109 0 -201 33t-159.5 97.5t-106.5 158.5t-39 215t40 216t111 160.5t165 99.5t203 34q106 0 198 -34t160 -98.5t106.5 -158.5t38.5 -213zM770 477q0 121 -50 193.5 t-149 72.5q-98 0 -147 -72.5t-49 -195.5t50 -193.5t148 -70.5t147.5 71.5t49.5 194.5z" />
<glyph unicode="&#x14e;" horiz-adv-x="1501" d="M1421 645q0 -152 -52 -276.5t-142 -213.5t-213 -137.5t-266 -48.5q-141 0 -264.5 44t-212.5 128t-140 209t-51 287q0 152 51 276.5t141 212.5t213 136.5t267 48.5q143 0 265 -43t212 -128t141 -209t51 -286zM1094 637q0 92 -23.5 168t-69 130t-109 84t-144.5 30 q-164 0 -252 -112t-88 -292q0 -92 23.5 -168t67.5 -131t108.5 -85t146.5 -30q80 0 143.5 30t107.5 83t66.5 128t22.5 165zM1114 1782q-8 -102 -41.5 -175t-85 -121t-115 -70.5t-130.5 -22.5q-68 0 -131.5 22.5t-113.5 70.5t-85 121t-43 175l190 -2q16 -92 60.5 -149.5 t122.5 -57.5t121.5 57.5t60.5 149.5l190 2v0z" />
<glyph unicode="&#x14f;" horiz-adv-x="1144" d="M1083 479q0 -121 -41 -215t-110.5 -159.5t-163.5 -100.5t-201 -35q-109 0 -201 33t-159.5 97.5t-106.5 158.5t-39 215t40 216t111 160.5t165 99.5t203 34q106 0 198 -34t160 -98.5t106.5 -158.5t38.5 -213zM770 477q0 121 -50 193.5t-149 72.5q-98 0 -147 -72.5 t-49 -195.5t50 -193.5t148 -70.5t147.5 71.5t49.5 194.5zM925 1454q-8 -102 -41.5 -175t-85 -121t-115 -70.5t-130.5 -22.5q-68 0 -131.5 22.5t-113.5 70.5t-85 121t-43 175l190 -2q16 -92 60.5 -149.5t122.5 -57.5t121.5 57.5t60.5 149.5l190 2v0z" />
<glyph unicode="&#x150;" horiz-adv-x="1501" d="M976 1392h-204l292 375h291zM573 1392h-211l252 375h291zM1421 645q0 -152 -52 -276.5t-142 -213.5t-213 -137.5t-266 -48.5q-141 0 -264.5 44t-212.5 128t-140 209t-51 287q0 152 51 276.5t141 212.5t213 136.5t267 48.5q143 0 265 -43t212 -128t141 -209t51 -286z M1094 637q0 92 -23.5 168t-69 130t-109 84t-144.5 30q-164 0 -252 -112t-88 -292q0 -92 23.5 -168t67.5 -131t108.5 -85t146.5 -30q80 0 143.5 30t107.5 83t66.5 128t22.5 165z" />
<glyph unicode="&#x151;" horiz-adv-x="1144" d="M784 1079h-204l292 375h291zM381 1079h-211l252 375h291zM1083 479q0 -121 -41 -215t-110.5 -159.5t-163.5 -100.5t-201 -35q-109 0 -201 33t-159.5 97.5t-106.5 158.5t-39 215t40 216t111 160.5t165 99.5t203 34q106 0 198 -34t160 -98.5t106.5 -158.5t38.5 -213z M770 477q0 121 -50 193.5t-149 72.5q-98 0 -147 -72.5t-49 -195.5t50 -193.5t148 -70.5t147.5 71.5t49.5 194.5z" />
<glyph unicode="&#x152;" horiz-adv-x="1964" d="M1886 1018h-610v-246h504v-260h-504v-250h610v-262h-1098q-170 0 -301 45t-221 128t-137 198.5t-47 259.5q0 147 46 267t136 205t223.5 131t309.5 46h1089v-262zM408 643q0 -199 100 -291t301 -92h141v760h-157q-180 0 -282.5 -92t-102.5 -285z" />
<glyph unicode="&#x153;" horiz-adv-x="1726" d="M1368 565v19q0 86 -35 134t-110 48q-82 0 -129 -60.5t-56 -142.5zM375 475q0 -123 50 -193.5t148 -70.5t147.5 71.5t49.5 194.5q0 121 -50 193.5t-149 72.5q-98 0 -147 -72.5t-49 -195.5zM905 98q-133 -129 -338 -129q-109 0 -201 33t-159.5 97.5t-106.5 158.5t-39 215 t40 216t111 160.5t165 99.5t203 34q100 0 184 -32.5t145 -92.5q63 59 148.5 92t187.5 33q205 0 310.5 -110.5t105.5 -288.5q0 -39 -5 -88.5t-16 -79.5l-604 -10v-5q10 -96 72.5 -148t179.5 -52q78 0 159 25.5t152 66.5l31 -244q-72 -37 -169 -57.5t-201 -20.5 q-121 0 -204 33t-151 94z" />
<glyph unicode="&#x154;" horiz-adv-x="1263" d="M580 1407h-197l203 379h340zM459 0h-326v1280h514q256 0 387 -109.5t131 -296.5q0 -129 -66.5 -224t-195.5 -144l328 -506h-367l-256 430l-149 -12v-418zM616 664q104 8 159.5 53t55.5 137q0 168 -241 168h-137v-363z" />
<glyph unicode="&#x155;" horiz-adv-x="821" d="M496 1079h-197l203 379h340zM428 0h-315v936l315 39v-139q84 147 229 147q82 0 158 -39l-63 -278q-57 29 -119 28q-59 0 -110.5 -31.5t-94.5 -107.5v-555z" />
<glyph unicode="&#x156;" horiz-adv-x="1263" d="M446 -250q2 59 46 102.5t114 43.5q82 0 134 -51.5t52 -133.5q0 -100 -74.5 -178t-205.5 -119l-70 74q72 41 103.5 78t31.5 69q0 33 -23.5 60.5t-107.5 54.5zM459 0h-326v1280h514q256 0 387 -109.5t131 -296.5q0 -129 -66.5 -224t-195.5 -144l328 -506h-367l-256 430 l-149 -12v-418zM616 664q104 8 159.5 53t55.5 137q0 168 -241 168h-137v-363z" />
<glyph unicode="&#x157;" horiz-adv-x="821" d="M106 -250q2 59 46 102.5t114 43.5q82 0 134 -51.5t52 -133.5q0 -100 -74.5 -178t-205.5 -119l-70 74q72 41 103.5 78t31.5 69q0 33 -23.5 60.5t-107.5 54.5zM428 0h-315v936l315 39v-139q84 147 229 147q82 0 158 -39l-63 -278q-57 29 -119 28q-59 0 -110.5 -31.5 t-94.5 -107.5v-555z" />
<glyph unicode="&#x158;" horiz-adv-x="1263" d="M719 1407h-287l-243 383h215l170 -221h4l166 221h219zM459 0h-326v1280h514q256 0 387 -109.5t131 -296.5q0 -129 -66.5 -224t-195.5 -144l328 -506h-367l-256 430l-149 -12v-418zM616 664q104 8 159.5 53t55.5 137q0 168 -241 168h-137v-363z" />
<glyph unicode="&#x159;" horiz-adv-x="821" d="M590 1079h-287l-243 383h215l170 -221h4l166 221h219zM428 0h-315v936l315 39v-139q84 147 229 147q82 0 158 -39l-63 -278q-57 29 -119 28q-59 0 -110.5 -31.5t-94.5 -107.5v-555z" />
<glyph unicode="&#x15a;" horiz-adv-x="1155" d="M590 1407h-197l203 379h340zM559 238q86 0 140.5 30.5t54.5 89.5q0 63 -68 95t-194 67q-70 18 -143 47t-133 73t-98 110.5t-38 162.5q0 178 127 287t364 109q152 0 269.5 -31t210.5 -82l-64 -268q-96 51 -206.5 81.5t-207.5 30.5q-168 0 -167 -108q0 -31 20 -54.5t57 -41 t86 -33t107 -31.5q74 -20 145.5 -49t129 -73t92 -108.5t34.5 -156.5t-34.5 -168t-101.5 -131t-165 -86t-223 -31q-143 0 -273 33t-221 84l62 270q96 -51 207.5 -84.5t230.5 -33.5z" />
<glyph unicode="&#x15b;" horiz-adv-x="942" d="M523 1079h-197l203 379h340zM885 283q0 -66 -28 -122.5t-83 -99.5t-136 -67.5t-185 -24.5q-49 0 -104.5 5.5t-109 16.5t-103.5 26.5t-87 35.5l62 228q84 -43 174 -67t174 -24q129 0 129 78q0 41 -40 60.5t-122 38.5q-84 16 -150.5 40.5t-113.5 61.5t-73 88t-26 121 q0 68 29 123t82 96t132 63.5t177 22.5q47 0 100.5 -6t105.5 -17.5t99.5 -26.5t81.5 -32l-63 -225q-82 41 -171 63.5t-157 22.5q-117 0 -117 -72q0 -39 43.5 -58.5t120.5 -35.5q84 -18 150.5 -43t113 -60.5t71 -86.5t24.5 -123z" />
<glyph unicode="&#x15c;" horiz-adv-x="1155" d="M764 1407l-170 219h-4l-166 -219h-219l243 383h287l244 -383h-215zM559 238q86 0 140.5 30.5t54.5 89.5q0 63 -68 95t-194 67q-70 18 -143 47t-133 73t-98 110.5t-38 162.5q0 178 127 287t364 109q152 0 269.5 -31t210.5 -82l-64 -268q-96 51 -206.5 81.5t-207.5 30.5 q-168 0 -167 -108q0 -31 20 -54.5t57 -41t86 -33t107 -31.5q74 -20 145.5 -49t129 -73t92 -108.5t34.5 -156.5t-34.5 -168t-101.5 -131t-165 -86t-223 -31q-143 0 -273 33t-221 84l62 270q96 -51 207.5 -84.5t230.5 -33.5z" />
<glyph unicode="&#x15d;" horiz-adv-x="942" d="M662 1079l-170 219h-4l-166 -219h-219l243 383h287l244 -383h-215zM885 283q0 -66 -28 -122.5t-83 -99.5t-136 -67.5t-185 -24.5q-49 0 -104.5 5.5t-109 16.5t-103.5 26.5t-87 35.5l62 228q84 -43 174 -67t174 -24q129 0 129 78q0 41 -40 60.5t-122 38.5 q-84 16 -150.5 40.5t-113.5 61.5t-73 88t-26 121q0 68 29 123t82 96t132 63.5t177 22.5q47 0 100.5 -6t105.5 -17.5t99.5 -26.5t81.5 -32l-63 -225q-82 41 -171 63.5t-157 22.5q-117 0 -117 -72q0 -39 43.5 -58.5t120.5 -35.5q84 -18 150.5 -43t113 -60.5t71 -86.5 t24.5 -123z" />
<glyph unicode="&#x15e;" horiz-adv-x="1155" d="M555 -104q51 -2 99 -16.5t83 -40t56.5 -62.5t21.5 -84q0 -102 -96 -174t-311 -99l-17 146q133 6 186.5 33.5t53.5 72.5q0 57 -59.5 78t-178.5 10l-20 105l114 106q-127 8 -238.5 39t-189.5 76l62 270q96 -51 207.5 -84.5t230.5 -33.5q86 0 140.5 30.5t54.5 89.5 q0 63 -68 95t-194 67q-70 18 -143 47t-133 73t-98 110.5t-38 162.5q0 178 127 287t364 109q152 0 269.5 -31t210.5 -82l-64 -268q-96 51 -206.5 81.5t-207.5 30.5q-168 0 -167 -108q0 -31 20 -54.5t57 -41t86 -33t107 -31.5q74 -20 145.5 -49t129 -73t92 -108.5t34.5 -156.5 q0 -84 -28.5 -154.5t-84 -124t-136 -88t-185.5 -45.5q-29 -25 -52.5 -45t-35.5 -32z" />
<glyph unicode="&#x15f;" horiz-adv-x="942" d="M446 -104q51 -2 99.5 -16.5t83.5 -40t56.5 -62.5t21.5 -84q0 -102 -96.5 -174t-311.5 -99l-16 146q133 6 186 33.5t53 72.5q0 57 -59.5 78t-177.5 10l-21 105l115 108q-88 6 -178 25.5t-152 54.5l62 228q84 -43 174 -67t174 -24q129 0 129 78q0 41 -40 60.5t-122 38.5 q-84 16 -150.5 40.5t-113.5 61.5t-73 88t-26 121q0 68 29 123t82 96t132 63.5t177 22.5q47 0 100.5 -6t105.5 -17.5t99.5 -26.5t81.5 -32l-63 -225q-82 41 -171 63.5t-157 22.5q-117 0 -117 -72q0 -39 43.5 -58.5t120.5 -35.5q84 -18 150.5 -43t113 -60.5t71 -87 t24.5 -122.5q0 -117 -89 -204t-264 -106q-29 -25 -51.5 -45t-34.5 -32z" />
<glyph unicode="&#x160;" horiz-adv-x="1155" d="M559 238q86 0 140.5 30.5t54.5 89.5q0 63 -68 95t-194 67q-70 18 -143 47t-133 73t-98 110.5t-38 162.5q0 178 127 287t364 109q152 0 269.5 -31t210.5 -82l-64 -268q-96 51 -206.5 81.5t-207.5 30.5q-168 0 -167 -108q0 -31 20 -54.5t57 -41t86 -33t107 -31.5 q74 -20 145.5 -49t129 -73t92 -108.5t34.5 -156.5t-34.5 -168t-101.5 -131t-165 -86t-223 -31q-143 0 -273 33t-221 84l62 270q96 -51 207.5 -84.5t230.5 -33.5zM723 1380h-287l-243 383h215l170 -221h4l166 221h219z" />
<glyph unicode="&#x161;" horiz-adv-x="942" d="M885 283q0 -66 -28 -122.5t-83 -99.5t-136 -67.5t-185 -24.5q-49 0 -104.5 5.5t-109 16.5t-103.5 26.5t-87 35.5l62 228q84 -43 174 -67t174 -24q129 0 129 78q0 41 -40 60.5t-122 38.5q-84 16 -150.5 40.5t-113.5 61.5t-73 88t-26 121q0 68 29 123t82 96t132 63.5 t177 22.5q47 0 100.5 -6t105.5 -17.5t99.5 -26.5t81.5 -32l-63 -225q-82 41 -171 63.5t-157 22.5q-117 0 -117 -72q0 -39 43.5 -58.5t120.5 -35.5q84 -18 150.5 -43t113 -60.5t71 -86.5t24.5 -123zM616 1079h-286l-244 383h215l170 -221h4l166 221h219z" />
<glyph unicode="&#x162;" horiz-adv-x="1232" d="M440 -250q2 59 46 102.5t114 43.5q82 0 134 -51.5t52 -133.5q0 -100 -74.5 -178t-205.5 -119l-70 74q72 41 103.5 78t31.5 69q0 33 -23.5 60.5t-107.5 54.5zM778 1008v-1008h-325v1008h-408v272h1141v-272h-408z" />
<glyph unicode="&#x163;" horiz-adv-x="772" d="M272 -250q2 59 46 102.5t114 43.5q82 0 134 -51.5t52 -133.5q0 -100 -74.5 -178t-205.5 -119l-70 74q72 41 103.5 78t31.5 69q0 33 -23.5 60.5t-107.5 54.5zM727 4q-55 -16 -107.5 -25.5t-123.5 -9.5q-88 0 -156 18.5t-113 60.5t-65.5 107.5t-16.5 159.5l15 363l-144 24 l7 201l143 47l4 217h305l-2 -227h238l-6 -248h-254l-11 -342q-4 -66 31 -95.5t94 -29.5q29 0 60.5 7.5t64.5 17.5l37 -246v0z" />
<glyph unicode="&#x164;" horiz-adv-x="1232" d="M760 1407h-287l-243 383h215l170 -221h4l166 221h219zM778 1008v-1008h-325v1008h-408v272h1141v-272h-408z" />
<glyph unicode="&#x165;" horiz-adv-x="772" d="M528 1475q10 84 70.5 134t148.5 50q53 0 98.5 -21.5t78 -56.5t51 -83t18.5 -99q0 -72 -28.5 -132.5t-77 -111.5t-110.5 -94t-130 -80l-139 123q86 59 145 111.5t59 103.5q0 41 -39 76t-145 80zM727 4q-55 -16 -107.5 -25.5t-123.5 -9.5q-88 0 -156 18.5t-113 60.5 t-65.5 107.5t-16.5 159.5l15 363l-144 24l7 201l143 47l4 217h305l-2 -227h238l-6 -248h-254l-11 -342q-4 -66 31 -95.5t94 -29.5q29 0 60.5 7.5t64.5 17.5l37 -246v0z" />
<glyph unicode="&#x16a;" horiz-adv-x="1376" d="M1253 522q0 -139 -39.5 -242.5t-113.5 -173t-178.5 -103.5t-233.5 -34q-125 0 -228.5 31t-178 95.5t-115.5 163.5t-41 235v786h324v-743q0 -145 59 -219t188 -74q117 0 175.5 65.5t58.5 214.5v756h323v-758v0zM318 1452l22 179h701l22 -179h-745z" />
<glyph unicode="&#x16b;" horiz-adv-x="1142" d="M422 952v-563q0 -86 35 -119.5t96 -33.5q51 0 92 18t70 45v653h315v-938l-315 -39v142q-55 -59 -135 -103.5t-174 -44.5q-141 0 -220.5 87t-79.5 241v655h316zM197 1124l22 179h701l22 -179h-745z" />
<glyph unicode="&#x16c;" horiz-adv-x="1376" d="M1253 522q0 -139 -39.5 -242.5t-113.5 -173t-178.5 -103.5t-233.5 -34q-125 0 -228.5 31t-178 95.5t-115.5 163.5t-41 235v786h324v-743q0 -145 59 -219t188 -74q117 0 175.5 65.5t58.5 214.5v756h323v-758v0zM1063 1782q-8 -102 -41.5 -175t-85 -121t-115 -70.5 t-130.5 -22.5q-68 0 -131.5 22.5t-113.5 70.5t-85 121t-43 175l190 -2q16 -92 60.5 -149.5t122.5 -57.5t121.5 57.5t60.5 149.5l190 2v0z" />
<glyph unicode="&#x16d;" horiz-adv-x="1142" d="M422 952v-563q0 -86 35 -119.5t96 -33.5q51 0 92 18t70 45v653h315v-938l-315 -39v142q-55 -59 -135 -103.5t-174 -44.5q-141 0 -220.5 87t-79.5 241v655h316zM936 1454q-8 -102 -41.5 -175t-85 -121t-115 -70.5t-130.5 -22.5q-68 0 -131.5 22.5t-113.5 70.5t-85 121 t-43 175l190 -2q16 -92 60.5 -149.5t122.5 -57.5t121.5 57.5t60.5 149.5l190 2v0z" />
<glyph unicode="&#x16e;" horiz-adv-x="1376" d="M979 1624q2 -102 -75.5 -172t-212.5 -70t-212 69.5t-77 172.5q0 102 76.5 171.5t212.5 69.5q135 0 211.5 -68.5t76.5 -172.5zM859 1626q0 61 -45.5 100t-122.5 39q-76 0 -121 -39t-45 -100t45 -102.5t121 -41.5q78 0 123 41.5t45 102.5zM1253 522q0 -139 -39.5 -242.5 t-113.5 -173t-178.5 -103.5t-233.5 -34q-125 0 -228.5 31t-178 95.5t-115.5 163.5t-41 235v786h324v-743q0 -145 59 -219t188 -74q117 0 175.5 65.5t58.5 214.5v756h323v-758v0z" />
<glyph unicode="&#x16f;" horiz-adv-x="1142" d="M848 1311q2 -102 -75.5 -172t-212.5 -70t-212 69.5t-77 172.5q0 102 76.5 171.5t212.5 69.5q135 0 211.5 -68.5t76.5 -172.5zM728 1313q0 61 -45.5 100t-122.5 39q-76 0 -121 -39t-45 -100t45 -102.5t121 -41.5q78 0 123 41.5t45 102.5zM422 952v-563q0 -86 35 -119.5 t96 -33.5q51 0 92 18t70 45v653h315v-938l-315 -39v142q-55 -59 -135 -103.5t-174 -44.5q-141 0 -220.5 87t-79.5 241v655h316z" />
<glyph unicode="&#x170;" horiz-adv-x="1376" d="M1253 522q0 -139 -39.5 -242.5t-113.5 -173t-178.5 -103.5t-233.5 -34q-125 0 -228.5 31t-178 95.5t-115.5 163.5t-41 235v786h324v-743q0 -145 59 -219t188 -74q117 0 175.5 65.5t58.5 214.5v756h323v-758v0zM970 1407h-204l292 375h291zM567 1407h-211l252 375h291z " />
<glyph unicode="&#x171;" horiz-adv-x="1142" d="M422 952v-563q0 -86 35 -119.5t96 -33.5q51 0 92 18t70 45v653h315v-938l-315 -39v142q-55 -59 -135 -103.5t-174 -44.5q-141 0 -220.5 87t-79.5 241v655h316zM784 1079h-204l292 375h291zM381 1079h-211l252 375h291z" />
<glyph unicode="&#x172;" horiz-adv-x="1376" d="M1253 522q0 -193 -71.5 -313.5t-200.5 -188.5q-72 -37 -114 -86t-42 -104q0 -92 88 -92q29 0 56.5 7t48.5 19l43 -159q-39 -25 -90 -40.5t-123 -15.5q-113 0 -180.5 55.5t-67.5 153.5q0 66 33 120t86 91h-31q-125 0 -228.5 32t-178 96.5t-115.5 162.5t-41 234v786h324 v-743q0 -145 59 -219t188 -74q117 0 175.5 65.5t58.5 214.5v756h323v-758v0z" />
<glyph unicode="&#x173;" horiz-adv-x="1142" d="M422 952v-563q0 -86 35 -119.5t96 -33.5q51 0 92 18t70 45v653h315v-944q-49 -6 -96 -23.5t-83 -41t-58.5 -53t-22.5 -60.5q0 -92 88 -92q29 0 56.5 7t48.5 19l43 -159q-39 -25 -90.5 -40.5t-122.5 -15.5q-113 0 -180.5 55.5t-67.5 153.5q0 82 50 144.5t120 97.5v117 q-55 -59 -135 -103.5t-174 -44.5q-141 0 -220.5 87t-79.5 241v655h316z" />
<glyph unicode="&#x174;" horiz-adv-x="1955" d="M1155 1407l-170 219h-4l-166 -219h-219l243 383h287l244 -383h-215zM727 0h-338l-342 1280h348l172 -905l230 905h372l234 -905l172 905h334l-342 -1280h-340l-248 911z" />
<glyph unicode="&#x175;" horiz-adv-x="1579" d="M963 1079l-170 219h-4l-166 -219h-219l243 383h287l244 -383h-215zM291 -4l-268 956h319l129 -633l162 633h330l163 -622l111 622h328l-271 -956h-319l-182 627l-183 -627h-319z" />
<glyph unicode="&#x176;" horiz-adv-x="1251" d="M786 485v-485h-319v487l-447 793h347l264 -506l256 506h344zM801 1407l-170 219h-4l-166 -219h-219l243 383h287l244 -383h-215z" />
<glyph unicode="&#x177;" horiz-adv-x="1040" d="M705 45l-48 -125q-37 -104 -78.5 -174t-92 -112t-111 -59t-135.5 -17q-152 0 -283 61l94 240q47 -20 79 -31.5t69 -11.5q51 0 78.5 23.5t56.5 92.5l26 74l-372 946h338l202 -626l185 626h336zM691 1079l-170 219h-4l-166 -219h-219l243 383h287l244 -383h-215z" />
<glyph unicode="&#x178;" horiz-adv-x="1251" d="M786 485v-485h-319v487l-447 793h347l264 -506l256 506h344zM1026 1534q0 -78 -44 -118t-118 -40q-72 0 -117 40t-45 118t45.5 118t116.5 40q74 0 118 -40t44 -118zM551 1534q0 -78 -46 -118t-118 -40t-118 40t-46 118t46 118t118 40t118 -40t46 -118z" />
<glyph unicode="&#x179;" horiz-adv-x="1187" d="M645 1407h-197l203 379h340zM63 0v215l639 793h-626v272h1036v-217l-637 -789h635v-274h-1047z" />
<glyph unicode="&#x17a;" horiz-adv-x="940" d="M510 1079h-197l203 379h340zM37 0v188l446 504h-428v260h842v-188l-444 -506h444v-258h-860z" />
<glyph unicode="&#x17b;" horiz-adv-x="1187" d="M63 0v215l639 793h-626v272h1036v-217l-637 -789h635v-274h-1047zM783 1557q0 -74 -46.5 -126t-125.5 -52q-78 0 -125 52t-47 126q0 72 47 125t125 53q80 0 126 -53t46 -125z" />
<glyph unicode="&#x17c;" horiz-adv-x="940" d="M37 0v188l446 504h-428v260h842v-188l-444 -506h444v-258h-860zM645 1229q0 -74 -46.5 -126t-125.5 -52q-78 0 -125 52t-47 126q0 72 47 125t125 53q80 0 126 -53t46 -125z" />
<glyph unicode="&#x17d;" horiz-adv-x="1187" d="M63 0v215l639 793h-626v272h1036v-217l-637 -789h635v-274h-1047zM735 1368h-286l-244 383h215l170 -221h4l166 221h219z" />
<glyph unicode="&#x17e;" horiz-adv-x="940" d="M37 0v188l446 504h-428v260h842v-188l-444 -506h444v-258h-860zM606 1079h-287l-243 383h215l170 -221h4l166 221h219z" />
<glyph unicode="&#x192;" horiz-adv-x="925" d="M256 578l-236 12l50 201l221 45l20 118q27 168 114 259.5t253 91.5q86 0 159.5 -20.5t123.5 -49.5l-97 -231q-35 23 -73.5 35t-71.5 12q-98 0 -121 -119l-16 -107h270l-43 -245h-252l-33 -174q-16 -102 -48 -177t-85 -127.5t-132 -86t-187 -52.5l-74 238q102 18 154.5 59 t66.5 119z" />
<glyph unicode="&#x1fa;" horiz-adv-x="1316" d="M635 1697h-197l203 379h340zM659 1028l-170 -502h334zM449 1249q-76 63 -76 166q0 100 76.5 171t209.5 71q135 0 212 -68.5t77 -173.5q0 -100 -76 -164l441 -1251h-324l-94 272h-475l-92 -272h-324zM829 1417q0 61 -46 100t-124 39q-76 0 -120.5 -38.5t-44.5 -100.5 q0 -61 45 -102t120 -41q78 0 124 41t46 102z" />
<glyph unicode="&#x1fb;" horiz-adv-x="1046" d="M625 424q-147 -16 -207 -48t-60 -95q0 -47 33 -75t86 -28q47 0 85 17.5t63 46.5v182zM627 115q-51 -59 -113.5 -102.5t-161.5 -43.5q-61 0 -114.5 20.5t-92.5 56.5t-61.5 84t-22.5 103q0 68 28 127.5t93.5 104.5t174 73.5t268.5 32.5v19q0 76 -40 110.5t-128 34.5 q-74 0 -157 -27.5t-167 -68.5l-65 231q76 41 189.5 77t248.5 36q123 0 207 -27.5t135 -81t72.5 -130t19.5 -177.5l-2 -282q0 -49 14.5 -61.5t63.5 -16.5l-31 -225q-156 -20 -237.5 17.5t-114.5 115.5h-6zM504 1601h-197l203 379h340zM770 1311q2 -102 -75.5 -172t-212.5 -70 t-212 69.5t-77 172.5q0 102 76.5 171.5t212.5 69.5q135 0 211.5 -68.5t76.5 -172.5zM650 1313q0 61 -45.5 100t-122.5 39q-76 0 -121 -39t-45 -100t45 -102.5t121 -41.5q78 0 123 41.5t45 102.5z" />
<glyph unicode="&#x1fc;" horiz-adv-x="1837" d="M1176 1407h-197l203 379h340zM825 532v539l-250 -539h250zM334 0h-348l622 1280h1151v-262h-616v-246h510v-260h-510v-250h616v-262h-934v272h-364z" />
<glyph unicode="&#x1fd;" horiz-adv-x="1609" d="M840 1079h-197l203 379h340zM711 168q-66 -82 -154 -140.5t-205 -58.5q-61 0 -114.5 20.5t-92.5 56.5t-61.5 84t-22.5 103q0 68 29 128.5t96.5 105.5t178 72.5t272.5 31.5v17q0 80 -46 113.5t-134 33.5q-74 0 -157 -27.5t-167 -68.5l-65 231q76 41 191.5 76t250.5 35 q121 0 198.5 -26.5t127.5 -73.5q59 47 131.5 74.5t169.5 27.5q100 0 176 -30.5t127 -84t76.5 -126t25.5 -158.5q0 -39 -5 -88.5t-15 -79.5l-607 -10v-5q10 -96 74 -148t180 -52q78 0 158 25.5t152 66.5l30 -244q-72 -37 -168 -57.5t-200 -20.5q-147 0 -255.5 52.5 t-174.5 144.5zM1247 565q2 4 2 9.5v9.5q0 86 -35.5 134t-111.5 48q-80 0 -127 -60.5t-55 -142.5zM635 424q-147 -12 -212 -45t-65 -98q0 -47 34 -75t87 -28q47 0 95.5 23.5t87.5 64.5q-10 31 -17.5 77t-9.5 81z" />
<glyph unicode="&#x1fe;" horiz-adv-x="1501" d="M1423 645q0 -152 -52 -276.5t-142 -213.5t-213 -137.5t-266 -48.5q-156 0 -291 54l-94 -160h-148l129 219q-123 84 -193.5 222t-70.5 333q0 152 51 276.5t141.5 212.5t213 136.5t266.5 48.5q154 0 280 -49q6 12 15 24q6 10 14 23.5t18 29.5l45 78h148l-125 -213 q127 -82 200.5 -221t73.5 -338zM897 1018q-68 31 -147 31q-164 0 -253 -112t-89 -292q0 -193 100 -303zM598 268q68 -37 158 -37q80 0 143.5 30t107.5 83t66.5 128t22.5 165q0 201 -105 311zM805 1380h-197l203 379h340z" />
<glyph unicode="&#x1ff;" horiz-adv-x="1144" d="M1092 475q0 -119 -40 -212t-109 -158.5t-163 -100.5t-202 -35q-53 0 -101.5 8.5t-95.5 24.5l-80 -139h-149l114 198q-92 66 -143 169.5t-51 244.5q0 119 40 213t108.5 159.5t162.5 100.5t205 35q106 0 198 -35l78 129h148l-111 -190q88 -63 139.5 -168t51.5 -244z M674 745q-43 29 -99 29q-98 0 -150 -78t-52 -213q0 -102 41 -186zM791 473q0 90 -37 180l-256 -448q23 -10 44 -15.5t46 -5.5q98 0 150.5 78t52.5 211zM611 1079h-197l203 379h340z" />
<glyph unicode="&#x218;" horiz-adv-x="1155" d="M412 -250q2 59 46 102.5t114 43.5q82 0 134 -51.5t52 -133.5q0 -100 -74.5 -178t-205.5 -119l-70 74q72 41 103.5 78t31.5 69q0 33 -23.5 60.5t-107.5 54.5zM559 238q86 0 140.5 30.5t54.5 89.5q0 63 -68 95t-194 67q-70 18 -143 47t-133 73t-98 110.5t-38 162.5 q0 178 127 287t364 109q152 0 269.5 -31t210.5 -82l-64 -268q-96 51 -206.5 81.5t-207.5 30.5q-168 0 -167 -108q0 -31 20 -54.5t57 -41t86 -33t107 -31.5q74 -20 145.5 -49t129 -73t92 -108.5t34.5 -156.5t-34.5 -168t-101.5 -131t-165 -86t-223 -31q-143 0 -273 33 t-221 84l62 270q96 -51 207.5 -84.5t230.5 -33.5z" />
<glyph unicode="&#x219;" horiz-adv-x="942" d="M299 -250q2 59 46 102.5t114 43.5q82 0 134 -51.5t52 -133.5q0 -100 -74.5 -178t-205.5 -119l-70 74q72 41 103.5 78t31.5 69q0 33 -23.5 60.5t-107.5 54.5zM885 283q0 -66 -28 -122.5t-83 -99.5t-136 -67.5t-185 -24.5q-49 0 -104.5 5.5t-109 16.5t-103.5 26.5t-87 35.5 l62 228q84 -43 174 -67t174 -24q129 0 129 78q0 41 -40 60.5t-122 38.5q-84 16 -150.5 40.5t-113.5 61.5t-73 88t-26 121q0 68 29 123t82 96t132 63.5t177 22.5q47 0 100.5 -6t105.5 -17.5t99.5 -26.5t81.5 -32l-63 -225q-82 41 -171 63.5t-157 22.5q-117 0 -117 -72 q0 -39 43.5 -58.5t120.5 -35.5q84 -18 150.5 -43t113 -60.5t71 -86.5t24.5 -123z" />
<glyph unicode="&#x21a;" horiz-adv-x="1232" d="M440 -250q2 59 46 102.5t114 43.5q82 0 134 -51.5t52 -133.5q0 -100 -74.5 -178t-205.5 -119l-70 74q72 41 103.5 78t31.5 69q0 33 -23.5 60.5t-107.5 54.5zM778 1008v-1008h-325v1008h-408v272h1141v-272h-408z" />
<glyph unicode="&#x21b;" horiz-adv-x="772" d="M272 -250q2 59 46 102.5t114 43.5q82 0 134 -51.5t52 -133.5q0 -100 -74.5 -178t-205.5 -119l-70 74q72 41 103.5 78t31.5 69q0 33 -23.5 60.5t-107.5 54.5zM727 4q-55 -16 -107.5 -25.5t-123.5 -9.5q-88 0 -156 18.5t-113 60.5t-65.5 107.5t-16.5 159.5l15 363l-144 24 l7 201l143 47l4 217h305l-2 -227h238l-6 -248h-254l-11 -342q-4 -66 31 -95.5t94 -29.5q29 0 60.5 7.5t64.5 17.5l37 -246v0z" />
<glyph unicode="&#x237;" horiz-adv-x="538" d="M-55 -283q43 20 74.5 45t52 62t31 90t10.5 129v893l315 39v-952q0 -211 -67.5 -336t-235.5 -183z" />
<glyph unicode="&#x2c6;" horiz-adv-x="815" d="M582 1079l-170 219h-4l-166 -219h-219l243 383h287l244 -383h-215z" />
<glyph unicode="&#x2c7;" horiz-adv-x="815" d="M553 1079h-287l-243 383h215l170 -221h4l166 221h219z" />
<glyph unicode="&#x2d8;" horiz-adv-x="815" d="M782 1454q-8 -102 -41.5 -175t-85 -121t-115 -70.5t-130.5 -22.5q-68 0 -131.5 22.5t-113.5 70.5t-85 121t-43 175l190 -2q16 -92 60.5 -149.5t122.5 -57.5t121.5 57.5t60.5 149.5l190 2v0z" />
<glyph unicode="&#x2d9;" horiz-adv-x="815" d="M582 1229q0 -74 -46.5 -126t-125.5 -52q-78 0 -125 52t-47 126q0 72 47 125t125 53q80 0 126 -53t46 -125z" />
<glyph unicode="&#x2da;" horiz-adv-x="815" d="M698 1311q2 -102 -75.5 -172t-212.5 -70t-212 69.5t-77 172.5q0 102 76.5 171.5t212.5 69.5q135 0 211.5 -68.5t76.5 -172.5zM578 1313q0 61 -45.5 100t-122.5 39q-76 0 -121 -39t-45 -100t45 -102.5t121 -41.5q78 0 123 41.5t45 102.5z" />
<glyph unicode="&#x2db;" horiz-adv-x="815" d="M680 -451q-53 -45 -124 -79.5t-163 -34.5q-57 0 -106 17.5t-85 48t-56.5 75.5t-20.5 100q0 59 28.5 120t80 113t124 92t158.5 62h191q-199 -72 -296.5 -166t-97.5 -184q0 -51 32 -81.5t91 -30.5q51 0 109.5 19.5t116.5 53.5l18 -125v0z" />
<glyph unicode="&#x2dc;" horiz-adv-x="813" d="M801 1399q-10 -92 -28.5 -152.5t-47.5 -96.5t-66.5 -50.5t-83.5 -14.5q-47 0 -93 18.5t-86 40t-72.5 40t-57.5 18.5q-27 0 -42 -20.5t-23 -81.5h-187q8 92 27.5 151.5t48.5 95t66 50t82 14.5q49 0 94 -18.5t85 -40t73.5 -40t58.5 -18.5q27 0 41 21.5t22 83.5h189v0z" />
<glyph unicode="&#x2dd;" horiz-adv-x="813" d="M700 1079h-204l292 375h291zM297 1079h-211l252 375h291z" />
<glyph unicode="&#x1e80;" horiz-adv-x="1955" d="M727 0h-338l-342 1280h348l172 -905l230 905h372l234 -905l172 905h334l-342 -1280h-340l-248 911zM916 1407l-347 379h340l203 -379h-196z" />
<glyph unicode="&#x1e81;" horiz-adv-x="1579" d="M291 -4l-268 956h319l129 -633l162 633h330l163 -622l111 622h328l-271 -956h-319l-182 627l-183 -627h-319zM740 1079l-347 379h340l203 -379h-196z" />
<glyph unicode="&#x1e82;" horiz-adv-x="1955" d="M1022 1407h-197l203 379h340zM727 0h-338l-342 1280h348l172 -905l230 905h372l234 -905l172 905h334l-342 -1280h-340l-248 911z" />
<glyph unicode="&#x1e83;" horiz-adv-x="1579" d="M842 1079h-197l203 379h340zM291 -4l-268 956h319l129 -633l162 633h330l163 -622l111 622h328l-271 -956h-319l-182 627l-183 -627h-319z" />
<glyph unicode="&#x1e84;" horiz-adv-x="1955" d="M1389 1573q0 -78 -44 -118t-118 -40q-72 0 -117 40t-45 118t45 118t117 40q74 0 118 -40t44 -118zM914 1573q0 -78 -46 -118t-118 -40t-118 40t-46 118t46 118t118 40t118 -40t46 -118zM727 0h-338l-342 1280h348l172 -905l230 905h372l234 -905l172 905h334l-342 -1280 h-340l-248 911z" />
<glyph unicode="&#x1e85;" horiz-adv-x="1579" d="M1190 1245q0 -78 -44 -118t-118 -40q-72 0 -117 40t-45 118t45 118t117 40q74 0 118 -40t44 -118zM715 1245q0 -78 -46 -118t-118 -40t-118 40t-46 118t46 118t118 40t118 -40t46 -118zM291 -4l-268 956h319l129 -633l162 633h330l163 -622l111 622h328l-271 -956h-319 l-182 627l-183 -627h-319z" />
<glyph unicode="&#x2000;" horiz-adv-x="1038" />
<glyph unicode="&#x2001;" horiz-adv-x="2076" />
<glyph unicode="&#x2002;" horiz-adv-x="1038" />
<glyph unicode="&#x2003;" horiz-adv-x="2076" />
<glyph unicode="&#x2004;" horiz-adv-x="692" />
<glyph unicode="&#x2005;" horiz-adv-x="519" />
<glyph unicode="&#x2006;" horiz-adv-x="346" />
<glyph unicode="&#x2007;" horiz-adv-x="346" />
<glyph unicode="&#x2008;" horiz-adv-x="259" />
<glyph unicode="&#x2009;" horiz-adv-x="155" />
<glyph unicode="&#x200a;" horiz-adv-x="115" />
<glyph unicode="&#x2010;" horiz-adv-x="761" d="M57 371v252h652v-252h-652z" />
<glyph unicode="&#x2011;" horiz-adv-x="761" d="M57 371v252h652v-252h-652z" />
<glyph unicode="&#x2012;" horiz-adv-x="761" d="M57 371v252h652v-252h-652z" />
<glyph unicode="&#x2013;" horiz-adv-x="1077" d="M51 373l6 239h965l6 -239h-977z" />
<glyph unicode="&#x2014;" horiz-adv-x="2039" d="M51 373l6 239h1928l6 -239h-1940z" />
<glyph unicode="&#x2018;" horiz-adv-x="555" d="M508 852q-10 -84 -71.5 -134t-149.5 -50q-53 0 -98.5 21.5t-78 56t-50 81.5t-17.5 101q0 70 28.5 130t77 112.5t111 95.5t129.5 77l139 -120q-86 -59 -145 -112.5t-59 -104.5q0 -20 8 -39t29.5 -37.5t57.5 -36.5t89 -41z" />
<glyph unicode="&#x2019;" horiz-adv-x="555" d="M49 1184q10 84 70.5 134t148.5 50q53 0 98.5 -21.5t78 -56.5t51 -83t18.5 -99q0 -72 -28.5 -132.5t-77 -111.5t-110.5 -94t-130 -80l-139 123q86 59 145 111.5t59 103.5q0 41 -39 76t-145 80z" />
<glyph unicode="&#x201a;" horiz-adv-x="555" d="M49 168q10 84 70.5 134t148.5 50q53 0 98.5 -21.5t78 -56t51 -83t18.5 -99.5q0 -72 -28.5 -132t-77 -111.5t-110.5 -94.5t-130 -80l-139 123q86 59 145 111.5t59 103.5q0 41 -39 76t-145 80z" />
<glyph unicode="&#x201c;" horiz-adv-x="1105" d="M1057 852q-10 -84 -71.5 -134t-149.5 -50q-53 0 -98.5 21.5t-78 56t-50 81.5t-17.5 101q0 70 28.5 130t76.5 112.5t110.5 95.5t130.5 77l139 -120q-86 -59 -145.5 -112.5t-59.5 -104.5q0 -41 39.5 -75t145.5 -79zM508 852q-10 -84 -71.5 -134t-149.5 -50 q-53 0 -98.5 21.5t-78 56t-50 81.5t-17.5 101q0 70 28.5 130t77 112.5t111 95.5t129.5 77l139 -120q-86 -59 -145 -112.5t-59 -104.5q0 -20 8 -39t29.5 -37.5t57.5 -36.5t89 -41z" />
<glyph unicode="&#x201d;" horiz-adv-x="1105" d="M598 1184q10 84 70.5 134t150.5 50q53 0 98.5 -21.5t77 -56.5t50 -83t18.5 -99q0 -72 -28.5 -132.5t-77 -111.5t-111 -94t-129.5 -80l-139 123q86 59 145 111.5t59 103.5q0 41 -39 76t-145 80zM49 1184q10 84 70.5 134t148.5 50q53 0 98.5 -21.5t78 -56.5t51 -83 t18.5 -99q0 -72 -28.5 -132.5t-77 -111.5t-110.5 -94t-130 -80l-139 123q86 59 145 111.5t59 103.5q0 41 -39 76t-145 80z" />
<glyph unicode="&#x201e;" horiz-adv-x="1095" d="M598 168q10 84 70.5 134t150.5 50q53 0 98.5 -21.5t77 -56t50 -83t18.5 -99.5q0 -72 -28.5 -132t-77 -111.5t-111 -94.5t-129.5 -80l-139 123q86 59 145 111.5t59 103.5q0 41 -39 76t-145 80zM49 168q10 84 70.5 134t148.5 50q53 0 98.5 -21.5t78 -56t51 -83t18.5 -99.5 q0 -72 -28.5 -132t-77 -111.5t-110.5 -94.5t-130 -80l-139 123q86 59 145 111.5t59 103.5q0 41 -39 76t-145 80z" />
<glyph unicode="&#x2020;" horiz-adv-x="1077" d="M63 678l-6 237h353v365h258v-365h354l-6 -237h-348v-936h-258v936h-347z" />
<glyph unicode="&#x2021;" horiz-adv-x="1077" d="M63 702l-6 238h353v340h258v-340h354l-6 -238h-352v-383h352l6 -237h-354v-340h-258v340h-353l6 237h351v383h-351z" />
<glyph unicode="&#x2022;" horiz-adv-x="897" d="M844 475q0 -23 -12.5 -63.5t-30 -83.5t-37 -80t-35.5 -53t-53 -36t-80 -37.5t-84 -29.5t-63 -12q-23 0 -63 12t-83 29.5t-80 37t-51 36.5q-16 16 -35.5 53t-38 80t-31 84t-12.5 63q0 23 12.5 63t31 83t38 79.5t35.5 53.5q14 14 52 34.5t81 38t83 29.5t63 12t62.5 -12 t82.5 -29.5t80 -38t53 -34.5q14 -16 34.5 -53t38 -80t30 -83t12.5 -63z" />
<glyph unicode="&#x2026;" horiz-adv-x="1687" d="M1597 150q0 -80 -53 -130.5t-131 -50.5t-132 50.5t-54 130.5q0 82 54 131t132 49t131 -49t53 -131zM1034 150q0 -80 -53 -130.5t-131 -50.5t-133 50.5t-55 130.5q0 82 55 131t133 49t131 -49t53 -131zM469 150q0 -80 -53.5 -130.5t-130.5 -50.5q-78 0 -132.5 50.5 t-54.5 130.5q0 82 54.5 131t132.5 49t131 -49t53 -131z" />
<glyph unicode="&#x202f;" horiz-adv-x="415" />
<glyph unicode="&#x2030;" horiz-adv-x="2523" d="M756 973q0 -80 -24.5 -145.5t-71 -113.5t-114 -74t-151.5 -26q-170 0 -264 99.5t-94 259.5t96 258t264 98q84 0 150.5 -25.5t113 -72.5t71 -112.5t24.5 -145.5zM442 -31h-237l1061 1340h237zM1667 307q0 -162 -95 -260t-265 -98t-264.5 99t-94.5 259q0 80 24.5 145.5 t72 112.5t114 73t150.5 26t150.5 -26t112.5 -73t70.5 -112.5t24.5 -145.5zM545 971q0 92 -41 143t-109 51t-107.5 -51t-39.5 -143q0 -90 40 -140.5t109 -50.5q66 0 107 51.5t41 139.5zM1456 305q0 90 -40 141.5t-107 51.5q-70 0 -110 -51.5t-40 -141.5q0 -92 40 -142 t110 -50q68 0 107.5 51t39.5 141zM2486 307q0 -162 -96 -260t-266 -98t-264.5 99t-94.5 259q0 80 25 145.5t72 112.5t113.5 73t150.5 26t151.5 -26t113.5 -73t70.5 -112.5t24.5 -145.5zM2273 305q0 90 -40 141.5t-107 51.5q-70 0 -110 -51.5t-40 -141.5q0 -92 40 -142 t110 -50q68 0 107.5 51t39.5 141z" />
<glyph unicode="&#x2039;" horiz-adv-x="743" d="M618 25l-567 325v256l567 328l54 -201l-338 -254v-4l338 -252z" />
<glyph unicode="&#x203a;" horiz-adv-x="743" d="M125 23l-53 200l338 252v4l-338 252l53 201l567 -326v-256z" />
<glyph unicode="&#x2044;" horiz-adv-x="1335" d="M254 -31h-236l1061 1340h238z" />
<glyph unicode="&#x205f;" horiz-adv-x="519" />
<glyph unicode="&#x2070;" horiz-adv-x="675" d="M649 940q0 -197 -78.5 -298t-238.5 -101t-232.5 100t-72.5 297q0 195 77.5 296t235.5 101q160 0 234.5 -101t74.5 -294zM422 934q0 76 -7 123t-19.5 73.5t-28 36t-31.5 9.5t-31.5 -9.5t-28 -35t-19.5 -71.5t-7 -122q0 -74 8 -120t20.5 -70.5t29 -33.5t32.5 -9t31.5 9 t27 33.5t17.5 69.5t6 117z" />
<glyph unicode="&#x2074;" horiz-adv-x="675" d="M569 733v-174h-215v174h-331l-9 154l258 438h297v-432h86l4 -160h-90zM362 1178l-159 -287h159v287z" />
<glyph unicode="&#x2075;" horiz-adv-x="675" d="M276 1032q10 0 28 1t32 1q147 0 221 -62.5t74 -162.5q0 -115 -82 -191.5t-260 -76.5q-53 0 -126 9t-132 32l18 182q41 -20 103.5 -32.5t119.5 -12.5q51 0 87 20.5t36 63.5t-39 66.5t-110 23.5q-53 0 -97.5 -7t-72.5 -18l-29 31l55 422h508l4 -180h-325l-13 -109v0z" />
<glyph unicode="&#x2076;" horiz-adv-x="675" d="M29 891q0 88 32.5 166t96 139t153.5 100t205 52l53 -166q-59 -4 -114.5 -21.5t-99.5 -45.5t-73.5 -63.5t-41.5 -76.5l6 -2q37 35 84 55.5t102 20.5q92 0 152.5 -59.5t60.5 -166.5q0 -61 -18.5 -112.5t-57.5 -90t-96 -60t-137 -21.5q-152 0 -229.5 97t-77.5 255zM238 817 q0 -47 26.5 -83t79.5 -36q45 0 71.5 30t26.5 79q0 43 -26.5 68.5t-69.5 25.5q-29 0 -59.5 -10t-44.5 -23q-4 -14 -4 -26.5v-24.5z" />
<glyph unicode="&#x2077;" horiz-adv-x="675" d="M47 1137l4 184h584l-2 -164l-320 -598h-227l322 578h-361z" />
<glyph unicode="&#x2078;" horiz-adv-x="675" d="M657 778q0 -100 -77.5 -168.5t-245.5 -68.5q-66 0 -123 13t-100 41t-68 67.5t-25 93.5q0 53 40 96t126 68q-61 25 -107 68.5t-46 111.5q0 51 18.5 94t56 74.5t97 49t141.5 17.5q133 0 217 -54t84 -159q0 -53 -38 -94t-115 -63q68 -27 116.5 -71t48.5 -116zM438 1106 q0 41 -25.5 64.5t-70.5 23.5q-47 0 -69.5 -23.5t-22.5 -58.5t25.5 -62.5t95.5 -45.5q37 23 52 49t15 53zM451 774q0 74 -148 115q-41 -23 -56.5 -51.5t-15.5 -53.5q0 -39 28 -66.5t85 -27.5q107 0 107 84z" />
<glyph unicode="&#x2079;" horiz-adv-x="675" d="M647 987q0 -90 -33.5 -168t-96 -139.5t-154 -100t-205.5 -51.5l-52 166q59 8 114.5 24.5t101 40t77 55.5t43.5 73l-6 2q-76 -72 -192 -72q-92 0 -152.5 61.5t-60.5 168.5q0 61 18.5 113t57 92t96 62.5t137.5 22.5q152 0 229.5 -96t77.5 -254zM438 1059q0 47 -26.5 83 t-79.5 36q-47 0 -73 -30t-26 -77q0 -45 26 -75.5t71 -30.5q27 0 58.5 9t45.5 21q4 16 4 34v30z" />
<glyph unicode="&#x207a;" horiz-adv-x="675" d="M389 872v-188h-137v188h-189l5 132h184v188h137v-188h184l2 -132h-186z" />
<glyph unicode="&#x207b;" horiz-adv-x="675" d="M63 872l5 132h505l2 -132h-512z" />
<glyph unicode="&#x2080;" horiz-adv-x="675" d="M649 88q0 -197 -78.5 -298t-238.5 -101t-232.5 100t-72.5 297q0 195 77.5 296t235.5 101q160 0 234.5 -101t74.5 -294zM422 82q0 76 -7 123t-19.5 73.5t-28 36t-31.5 9.5t-31.5 -9.5t-28 -35t-19.5 -71.5t-7 -122q0 -74 8 -120t20.5 -70.5t29 -33.5t32.5 -9t31.5 9 t27 33.5t17.5 69.5t6 117z" />
<glyph unicode="&#x2081;" horiz-adv-x="675" d="M262 250l-180 -31l-8 191l446 73v-776h-258v543z" />
<glyph unicode="&#x2082;" horiz-adv-x="675" d="M35 -293l-4 150q94 80 156.5 133t101.5 93t55 70.5t16 61.5q0 35 -22.5 57.5t-67.5 22.5t-88 -21.5t-78 -56.5q-2 0 -16 25.5t-29.5 55.5t-27 55.5t-8.5 25.5q53 49 129.5 76.5t164.5 27.5q74 0 127.5 -20.5t89 -54t53 -78.5t17.5 -94q0 -43 -17.5 -81t-53 -77t-91 -84 t-131.5 -103h289l4 -184h-569z" />
<glyph unicode="&#x2083;" horiz-adv-x="675" d="M389 102q117 6 176.5 -48t59.5 -132q0 -113 -94.5 -173t-245.5 -60q-74 0 -137.5 14t-110.5 35l35 166q47 -16 99 -28.5t97 -12.5q59 0 97 16.5t38 54.5q0 31 -28.5 52.5t-106.5 21.5q-35 0 -66.5 -4t-54.5 -8v151q111 16 163 37t52 64q0 23 -15 40t-68 17 q-47 0 -94.5 -17.5t-80.5 -39.5l-69 164q49 29 121.5 50t154.5 21q127 0 204 -47t77 -149q0 -136 -203 -185z" />
<glyph unicode="&#x2084;" horiz-adv-x="675" d="M569 -119v-174h-215v174h-331l-9 154l258 438h297v-432h86l4 -160h-90zM362 326l-159 -287h159v287z" />
<glyph unicode="&#x2085;" horiz-adv-x="675" d="M276 180q10 0 28 1t32 1q147 0 221 -62.5t74 -162.5q0 -115 -82 -191.5t-260 -76.5q-53 0 -126 9t-132 32l18 182q41 -20 103.5 -32.5t119.5 -12.5q51 0 87 20.5t36 63.5t-39 66.5t-110 23.5q-53 0 -97.5 -7t-72.5 -18l-29 31l55 422h508l4 -180h-325l-13 -109v0z" />
<glyph unicode="&#x2086;" horiz-adv-x="675" d="M29 39q0 88 32.5 166t96 139.5t153.5 100t205 51.5l53 -166q-59 -4 -114.5 -21.5t-99.5 -45t-73.5 -63.5t-41.5 -77l6 -2q37 35 84 55.5t102 20.5q92 0 152.5 -59.5t60.5 -166.5q0 -61 -18.5 -112.5t-57.5 -90t-96 -60t-137 -21.5q-152 0 -229.5 97t-77.5 255zM238 -35 q0 -47 26.5 -83t79.5 -36q45 0 71.5 30t26.5 79q0 43 -26.5 68.5t-69.5 25.5q-29 0 -59.5 -10t-44.5 -23q-4 -14 -4 -26.5v-24.5z" />
<glyph unicode="&#x2087;" horiz-adv-x="675" d="M47 285l4 184h584l-2 -164l-320 -598h-227l322 578h-361z" />
<glyph unicode="&#x2088;" horiz-adv-x="675" d="M657 -74q0 -100 -77.5 -168.5t-245.5 -68.5q-66 0 -123 13t-100 41t-68 67.5t-25 93.5q0 53 40 96t126 68q-61 25 -107 68.5t-46 111.5q0 51 18.5 94t56 75t97 49t141.5 17q133 0 217 -54t84 -159q0 -53 -38 -94t-115 -63q68 -27 116.5 -71t48.5 -116zM438 254 q0 41 -25.5 64.5t-70.5 23.5q-47 0 -69.5 -23.5t-22.5 -58.5t25.5 -62.5t95.5 -45.5q37 23 52 49t15 53zM451 -78q0 74 -148 115q-41 -23 -56.5 -51.5t-15.5 -53.5q0 -39 28 -66.5t85 -27.5q107 0 107 84z" />
<glyph unicode="&#x2089;" horiz-adv-x="675" d="M647 135q0 -90 -33.5 -168t-96 -139t-154 -100t-205.5 -52l-52 166q59 8 114.5 24.5t101 40t77 55.5t43.5 73l-6 2q-76 -72 -192 -72q-92 0 -152.5 61.5t-60.5 168.5q0 61 18.5 113t57 92t96 62.5t137.5 22.5q152 0 229.5 -96t77.5 -254zM438 207q0 47 -26.5 83t-79.5 36 q-47 0 -73 -30t-26 -77q0 -45 26 -75.5t71 -30.5q27 0 58.5 9t45.5 21q4 16 4 34v30z" />
<glyph unicode="&#x208a;" horiz-adv-x="675" d="M389 20v-188h-137v188h-189l5 132h184v188h137v-188h184l2 -132h-186z" />
<glyph unicode="&#x20ac;" horiz-adv-x="1126" d="M61 727l-10 143h172q23 121 71 207t115.5 140.5t150.5 80t179 25.5q104 0 200.5 -22.5t158.5 -57.5l-62 -235q-53 31 -119.5 50t-138.5 19q-92 0 -149.5 -49t-83.5 -158h409l-8 -143h-422q-2 -16 -3 -36.5t-1 -39.5q0 -49 6 -94h359l8 -143h-338q31 -106 92.5 -152.5 t140.5 -46.5q72 0 137.5 18.5t118.5 51.5l48 -238q-59 -37 -152.5 -57.5t-204.5 -20.5q-98 0 -183 23.5t-151.5 76t-112.5 137.5t-67 208h-170l10 143h148q-2 18 -3 37.5t-1 40.5q0 25 1 47.5t3 44.5h-148z" />
<glyph unicode="&#x2122;" horiz-adv-x="2011" d="M1667 516l8 567h-24l-164 -542h-227l-138 544h-22l-6 -569h-187l15 764h348l100 -528h27l125 528h338l6 -764h-199zM539 1102v-586h-207v586h-258v178h745v-178h-280z" />
<glyph unicode="&#x25fc;" horiz-adv-x="952" d="M0 952h952v-952h-952v952z" />
<glyph unicode="&#xf6c3;" horiz-adv-x="815" d="M215 -250q2 59 46 102.5t114 43.5q82 0 134 -51.5t52 -133.5q0 -100 -74.5 -178t-205.5 -119l-70 74q72 41 103.5 78t31.5 69q0 33 -23.5 60.5t-107.5 54.5z" />
<glyph horiz-adv-x="880" d="M772 430q0 -231 -108.5 -345t-317.5 -114q-102 0 -183 24.5t-134 59.5l24 285q66 -47 129.5 -72.5t116.5 -25.5q72 0 109.5 44t37.5 150v844h326v-850v0z" />
<glyph horiz-adv-x="1167" d="M737 707q-27 18 -63.5 29.5t-81.5 11.5q-100 0 -156.5 -74t-56.5 -193q0 -123 55 -191.5t144 -68.5q53 0 91 18.5t68 49.5v418zM471 -29q-88 0 -163 35t-129 99.5t-85 155.5t-31 204q0 119 39 214t104.5 162.5t151.5 103.5t183 36q57 0 122.5 -13.5t106.5 -31.5l283 39 v-690q0 -49 15 -61.5t62 -16.5l-30 -225q-156 -20 -238 18.5t-117 114.5q-55 -63 -119.5 -103.5t-154.5 -40.5z" />
<glyph horiz-adv-x="1167" d="M1055 90q0 -281 -130 -406.5t-386 -125.5q-119 0 -225.5 27.5t-180.5 68.5l80 244q74 -37 153.5 -60.5t155.5 -23.5q49 0 89 10t69 35.5t44 67.5t15 106v67q-47 -51 -108.5 -82.5t-151.5 -31.5q-86 0 -161.5 32.5t-132 95t-89.5 152.5t-33 205t38 209t103.5 160.5 t151.5 103.5t183 37q59 0 125.5 -13.5t107.5 -31.5l283 41v-887zM739 707q-29 18 -64.5 29.5t-80.5 11.5q-102 0 -158.5 -72t-56.5 -189q0 -121 56.5 -189.5t144.5 -68.5q53 0 91 18.5t68 49.5v410z" />
<glyph horiz-adv-x="1167" d="M737 707q-27 18 -63.5 29.5t-81.5 11.5q-100 0 -156.5 -74t-56.5 -193q0 -123 55 -191.5t144 -68.5q53 0 91 18.5t68 49.5v418zM471 -29q-88 0 -163 35t-129 99.5t-85 155.5t-31 204q0 119 39 214t104.5 162.5t151.5 103.5t183 36q57 0 122.5 -13.5t106.5 -31.5l283 39 v-690q0 -49 15 -61.5t62 -16.5l-30 -225q-156 -20 -238 18.5t-117 114.5q-55 -63 -119.5 -103.5t-154.5 -40.5zM660 1079l-347 379h340l203 -379h-196z" />
<glyph horiz-adv-x="1167" d="M707 1079h-197l203 379h340zM737 707q-27 18 -63.5 29.5t-81.5 11.5q-100 0 -156.5 -74t-56.5 -193q0 -123 55 -191.5t144 -68.5q53 0 91 18.5t68 49.5v418zM471 -29q-88 0 -163 35t-129 99.5t-85 155.5t-31 204q0 119 39 214t104.5 162.5t151.5 103.5t183 36 q57 0 122.5 -13.5t106.5 -31.5l283 39v-690q0 -49 15 -61.5t62 -16.5l-30 -225q-156 -20 -238 18.5t-117 114.5q-55 -63 -119.5 -103.5t-154.5 -40.5z" />
<glyph horiz-adv-x="1167" d="M807 1079l-170 219h-4l-166 -219h-219l243 383h287l244 -383h-215zM737 707q-27 18 -63.5 29.5t-81.5 11.5q-100 0 -156.5 -74t-56.5 -193q0 -123 55 -191.5t144 -68.5q53 0 91 18.5t68 49.5v418zM471 -29q-88 0 -163 35t-129 99.5t-85 155.5t-31 204q0 119 39 214 t104.5 162.5t151.5 103.5t183 36q57 0 122.5 -13.5t106.5 -31.5l283 39v-690q0 -49 15 -61.5t62 -16.5l-30 -225q-156 -20 -238 18.5t-117 114.5q-55 -63 -119.5 -103.5t-154.5 -40.5z" />
<glyph horiz-adv-x="1167" d="M737 707q-27 18 -63.5 29.5t-81.5 11.5q-100 0 -156.5 -74t-56.5 -193q0 -123 55 -191.5t144 -68.5q53 0 91 18.5t68 49.5v418zM471 -29q-88 0 -163 35t-129 99.5t-85 155.5t-31 204q0 119 39 214t104.5 162.5t151.5 103.5t183 36q57 0 122.5 -13.5t106.5 -31.5l283 39 v-690q0 -49 15 -61.5t62 -16.5l-30 -225q-156 -20 -238 18.5t-117 114.5q-55 -63 -119.5 -103.5t-154.5 -40.5zM1008 1399q-10 -92 -28.5 -152.5t-47.5 -96.5t-66.5 -50.5t-83.5 -14.5q-47 0 -93 18.5t-86 40t-72.5 40t-57.5 18.5q-27 0 -42 -20.5t-23 -81.5h-187 q8 92 27.5 151.5t48.5 95t66 50t82 14.5q49 0 94 -18.5t85 -40t73.5 -40t58.5 -18.5q27 0 41 21.5t22 83.5h189v0z" />
<glyph horiz-adv-x="1167" d="M1024 1233q0 -78 -44 -118t-118 -40q-72 0 -117 40t-45 118t45 118t117 40q74 0 118 -40t44 -118zM549 1233q0 -78 -46 -118t-118 -40t-118 40t-46 118t46 118t118 40t118 -40t46 -118zM737 707q-27 18 -63.5 29.5t-81.5 11.5q-100 0 -156.5 -74t-56.5 -193 q0 -123 55 -191.5t144 -68.5q53 0 91 18.5t68 49.5v418zM471 -29q-88 0 -163 35t-129 99.5t-85 155.5t-31 204q0 119 39 214t104.5 162.5t151.5 103.5t183 36q57 0 122.5 -13.5t106.5 -31.5l283 39v-690q0 -49 15 -61.5t62 -16.5l-30 -225q-156 -20 -238 18.5t-117 114.5 q-55 -63 -119.5 -103.5t-154.5 -40.5z" />
<glyph horiz-adv-x="1167" d="M923 1311q2 -102 -75.5 -172t-212.5 -70t-212 69.5t-77 172.5q0 102 76.5 171.5t212.5 69.5q135 0 211.5 -68.5t76.5 -172.5zM803 1313q0 61 -45.5 100t-122.5 39q-76 0 -121 -39t-45 -100t45 -102.5t121 -41.5q78 0 123 41.5t45 102.5zM737 707q-27 18 -63.5 29.5 t-81.5 11.5q-100 0 -156.5 -74t-56.5 -193q0 -123 55 -191.5t144 -68.5q53 0 91 18.5t68 49.5v418zM471 -29q-88 0 -163 35t-129 99.5t-85 155.5t-31 204q0 119 39 214t104.5 162.5t151.5 103.5t183 36q57 0 122.5 -13.5t106.5 -31.5l283 39v-690q0 -49 15 -61.5t62 -16.5 l-30 -225q-156 -20 -238 18.5t-117 114.5q-55 -63 -119.5 -103.5t-154.5 -40.5z" />
<glyph horiz-adv-x="1099" d="M654 1601h-197l203 379h340zM923 1311q2 -102 -75.5 -172t-212.5 -70t-212 69.5t-77 172.5q0 102 76.5 171.5t212.5 69.5q135 0 211.5 -68.5t76.5 -172.5zM803 1313q0 61 -45.5 100t-122.5 39q-76 0 -121 -39t-45 -100t45 -102.5t121 -41.5q78 0 123 41.5t45 102.5z M737 707q-27 18 -63.5 29.5t-81.5 11.5q-100 0 -156.5 -74t-56.5 -193q0 -123 55 -191.5t144 -68.5q53 0 91 18.5t68 49.5v418zM471 -29q-88 0 -163 35t-129 99.5t-85 155.5t-31 204q0 119 39 214t104.5 162.5t151.5 103.5t183 36q57 0 122.5 -13.5t106.5 -31.5l283 39v-690 q0 -49 15 -61.5t62 -16.5l-30 -225q-156 -20 -238 18.5t-117 114.5q-55 -63 -119.5 -103.5t-154.5 -40.5z" />
<glyph horiz-adv-x="1167" d="M737 707q-27 18 -63.5 29.5t-81.5 11.5q-100 0 -156.5 -74t-56.5 -193q0 -123 55 -191.5t144 -68.5q53 0 91 18.5t68 49.5v418zM471 -29q-88 0 -163 35t-129 99.5t-85 155.5t-31 204q0 119 39 214t104.5 162.5t151.5 103.5t183 36q57 0 122.5 -13.5t106.5 -31.5l283 39 v-690q0 -49 15 -61.5t62 -16.5l-30 -225q-156 -20 -238 18.5t-117 114.5q-55 -63 -119.5 -103.5t-154.5 -40.5zM260 1124l22 179h701l22 -179h-745z" />
<glyph horiz-adv-x="1167" d="M737 707q-27 18 -63.5 29.5t-81.5 11.5q-100 0 -156.5 -74t-56.5 -193q0 -123 55 -191.5t144 -68.5q53 0 91 18.5t68 49.5v418zM471 -29q-88 0 -163 35t-129 99.5t-85 155.5t-31 204q0 119 39 214t104.5 162.5t151.5 103.5t183 36q57 0 122.5 -13.5t106.5 -31.5l283 39 v-690q0 -49 15 -61.5t62 -16.5l-30 -225q-156 -20 -238 18.5t-117 114.5q-55 -63 -119.5 -103.5t-154.5 -40.5zM1020 1454q-8 -102 -41.5 -175t-85 -121t-115 -70.5t-130.5 -22.5q-68 0 -131.5 22.5t-113.5 70.5t-85 121t-43 175l190 -2q16 -92 60.5 -149.5t122.5 -57.5 t121.5 57.5t60.5 149.5l190 2v0z" />
<glyph horiz-adv-x="1167" d="M1100 -18q-104 -10 -170 -53.5t-64 -98.5q0 -92 88 -92q29 0 56.5 7t48.5 19l43 -159q-41 -25 -91 -40.5t-124 -15.5q-111 0 -178.5 55.5t-67.5 153.5q0 88 55.5 153.5t137.5 102.5q-31 16 -52.5 43t-36.5 58q-55 -63 -119.5 -103.5t-154.5 -40.5q-88 0 -163 35 t-129 99.5t-85 155.5t-31 204q0 119 39 214t104.5 162.5t151.5 103.5t183 36q57 0 122.5 -13.5t106.5 -31.5l283 39v-690q0 -49 15 -61.5t62 -16.5zM737 707q-27 18 -63.5 29.5t-81.5 11.5q-100 0 -156.5 -74t-56.5 -193q0 -123 55 -191.5t144 -68.5q53 0 91 18.5t68 49.5 v418z" />
<glyph horiz-adv-x="1167" d="M781 1079l-170 219h-4l-166 -219h-219l243 383h287l244 -383h-215zM1055 90q0 -281 -130 -406.5t-386 -125.5q-119 0 -225.5 27.5t-180.5 68.5l80 244q74 -37 153.5 -60.5t155.5 -23.5q49 0 89 10t69 35.5t44 67.5t15 106v67q-47 -51 -108.5 -82.5t-151.5 -31.5 q-86 0 -161.5 32.5t-132 95t-89.5 152.5t-33 205t38 209t103.5 160.5t151.5 103.5t183 37q59 0 125.5 -13.5t107.5 -31.5l283 41v-887zM739 707q-29 18 -64.5 29.5t-80.5 11.5q-102 0 -158.5 -72t-56.5 -189q0 -121 56.5 -189.5t144.5 -68.5q53 0 91 18.5t68 49.5v410z" />
<glyph horiz-adv-x="1167" d="M1055 90q0 -281 -130 -406.5t-386 -125.5q-119 0 -225.5 27.5t-180.5 68.5l80 244q74 -37 153.5 -60.5t155.5 -23.5q49 0 89 10t69 35.5t44 67.5t15 106v67q-47 -51 -108.5 -82.5t-151.5 -31.5q-86 0 -161.5 32.5t-132 95t-89.5 152.5t-33 205t38 209t103.5 160.5 t151.5 103.5t183 37q59 0 125.5 -13.5t107.5 -31.5l283 41v-887zM739 707q-29 18 -64.5 29.5t-80.5 11.5q-102 0 -158.5 -72t-56.5 -189q0 -121 56.5 -189.5t144.5 -68.5q53 0 91 18.5t68 49.5v410zM987 1454q-8 -102 -41.5 -175t-85 -121t-115 -70.5t-130.5 -22.5 q-68 0 -131.5 22.5t-113.5 70.5t-85 121t-43 175l190 -2q16 -92 60.5 -149.5t122.5 -57.5t121.5 57.5t60.5 149.5l190 2v0z" />
<glyph horiz-adv-x="1167" d="M1055 90q0 -281 -130 -406.5t-386 -125.5q-119 0 -225.5 27.5t-180.5 68.5l80 244q74 -37 153.5 -60.5t155.5 -23.5q49 0 89 10t69 35.5t44 67.5t15 106v67q-47 -51 -108.5 -82.5t-151.5 -31.5q-86 0 -161.5 32.5t-132 95t-89.5 152.5t-33 205t38 209t103.5 160.5 t151.5 103.5t183 37q59 0 125.5 -13.5t107.5 -31.5l283 41v-887zM739 707q-29 18 -64.5 29.5t-80.5 11.5q-102 0 -158.5 -72t-56.5 -189q0 -121 56.5 -189.5t144.5 -68.5q53 0 91 18.5t68 49.5v410zM789 1229q0 -74 -46.5 -126t-125.5 -52q-78 0 -125 52t-47 126 q0 72 47 125t125 53q80 0 126 -53t46 -125z" />
<glyph horiz-adv-x="1167" d="M789.013 1222.98q-1.99902 -58.9961 -45.9971 -102.493q-43.9971 -43.4971 -113.993 -43.4971q-81.9941 0 -133.991 51.4961q-51.9971 51.4971 -51.9971 133.492q0 99.9941 74.4951 177.989q74.4961 77.9951 205.488 118.992l69.9951 -73.9951 q-71.9951 -40.9971 -103.493 -77.9951t-31.498 -68.9961q0 -32.998 23.498 -60.4961q23.499 -27.498 107.493 -54.4971zM1055 90q0 -281 -130 -406.5t-386 -125.5q-119 0 -225.5 27.5t-180.5 68.5l80 244q74 -37 153.5 -60.5t155.5 -23.5q49 0 89 10t69 35.5t44 67.5t15 106 v67q-47 -51 -108.5 -82.5t-151.5 -31.5q-86 0 -161.5 32.5t-132 95t-89.5 152.5t-33 205t38 209t103.5 160.5t151.5 103.5t183 37q59 0 125.5 -13.5t107.5 -31.5l283 41v-887zM739 707q-29 18 -64.5 29.5t-80.5 11.5q-102 0 -158.5 -72t-56.5 -189q0 -121 56.5 -189.5 t144.5 -68.5q53 0 91 18.5t68 49.5v410z" />
<glyph horiz-adv-x="880" d="M772 1407l-170 219h-4l-166 -219h-219l243 383h287l244 -383h-215zM772 430q0 -231 -108.5 -345t-317.5 -114q-102 0 -183 24.5t-134 59.5l24 285q66 -47 129.5 -72.5t116.5 -25.5q72 0 109.5 44t37.5 150v844h326v-850v0z" />
<glyph horiz-adv-x="559" d="M479 524q0 -84 -53 -135t-139 -51q-88 0 -141.5 51t-53.5 135q0 86 53.5 136.5t141.5 50.5q86 0 139 -50.5t53 -136.5z" />
<glyph horiz-adv-x="1155" d="M1112 0h-305l-64 182h-335l-56 -182h-311l336 981h405zM575 772l-118 -383h237z" />
<glyph horiz-adv-x="1083" d="M817 508q82 -23 136.5 -83t54.5 -146q0 -125 -93.5 -202t-312.5 -77h-483v981h475q207 0 295 -72.5t88 -189.5q0 -76 -45 -127t-115 -84zM682 676q0 53 -37 75.5t-121 22.5h-116v-205h110q94 0 129 27t35 80zM717 311q0 55 -45 78t-140 23h-124v-205h124 q100 0 142.5 22.5t42.5 81.5z" />
<glyph horiz-adv-x="1019" d="M866 680q-47 29 -111.5 47t-123.5 18q-111 0 -172.5 -68.5t-61.5 -182.5q0 -119 58.5 -188.5t175.5 -69.5q70 0 130 17t120 52l67 -268q-29 -14 -66.5 -25.5t-82.5 -20.5t-92.5 -14.5t-90.5 -5.5q-246 0 -390 130t-144 386q0 119 37 215.5t106.5 164t172 104.5t231.5 37 q94 0 177 -19.5t155 -48.5z" />
<glyph horiz-adv-x="1169" d="M1087 496q0 -113 -37.5 -205t-110.5 -156.5t-180.5 -99.5t-246.5 -35h-393v981h413q135 0 238.5 -35t174.5 -98.5t106.5 -152t35.5 -199.5zM772 487q0 135 -72.5 194.5t-177.5 59.5h-90v-503h92q106 0 177 61t71 188z" />
<glyph horiz-adv-x="978" d="M119 0v981h766v-229h-475v-154h395v-213h-395v-156h475v-229h-766z" />
<glyph horiz-adv-x="942" d="M119 981h751v-229h-458v-172h376v-218h-364v-362h-305v981z" />
<glyph horiz-adv-x="1136" d="M383 496q0 -135 60.5 -213t195.5 -78q47 0 88 7t66 17v129h-228v209h475v-501q-78 -39 -186.5 -67t-224.5 -28q-123 0 -224.5 33t-173 98.5t-110.5 161.5t-39 223q0 123 40 219.5t112.5 163t174 102.5t222.5 36q109 0 218 -23.5t175 -60.5l-90 -238q-154 74 -283 74 q-123 0 -195.5 -66.5t-72.5 -197.5z" />
<glyph horiz-adv-x="1198" d="M766 0v379h-334v-379h-313v981h313v-371h334v371h313v-981h-313z" />
<glyph horiz-adv-x="550" d="M119 0v981h313v-981h-313z" />
<glyph horiz-adv-x="837" d="M735 373q0 -193 -96 -297.5t-287 -104.5q-98 0 -182 23.5t-145 58.5l67 242q47 -31 101.5 -49.5t91.5 -18.5q78 0 107.5 41t29.5 129v584h313v-608v0z" />
<glyph horiz-adv-x="1099" d="M434 567l275 414h348l-348 -471l362 -510h-369l-268 414h-2v-414h-313v981h313v-414h2z" />
<glyph horiz-adv-x="925" d="M119 0v981h313v-727h438v-254h-751z" />
<glyph horiz-adv-x="1482" d="M1096 0l-13 672l-176 -672h-336l-176 684l-10 -684h-289l31 981h448l170 -682l168 682h443l33 -981h-293z" />
<glyph horiz-adv-x="1210" d="M807 981h287v-991h-328l-365 561v-551h-282v981h327l363 -553z" />
<glyph horiz-adv-x="1222" d="M1141 494q0 -121 -42 -217.5t-115 -164t-169 -104.5t-207 -37t-206 33t-166.5 97.5t-112.5 160.5t-41 225q0 121 42 217.5t113.5 164t169 103.5t205.5 36q111 0 207 -32t168 -96.5t113 -160.5t41 -225zM831 487q0 127 -55 206t-168 79q-111 0 -165 -78t-54 -200 q0 -127 56.5 -207t168.5 -80q111 0 164 78.5t53 201.5z" />
<glyph horiz-adv-x="1056" d="M987 633q0 -184 -121 -276.5t-334 -92.5h-100v-264h-313v981h430q213 0 325.5 -93t112.5 -255zM688 625q0 70 -46 105.5t-132 35.5h-90v-297l82 4q94 4 140 39t46 113z" />
<glyph horiz-adv-x="1222" d="M1167 -6l-120 -244l-429 225q-4 2 -5 1t-5 -1q-111 0 -206 32t-166.5 96.5t-112.5 159.5t-41 224q0 121 42 217.5t113.5 164t169 103.5t205.5 36q111 0 207 -32t168 -96.5t113 -160.5t41 -225q0 -135 -54.5 -239.5t-146.5 -168.5zM831 487q0 127 -55 206t-168 79 q-111 0 -165 -78t-54 -200q0 -127 56.5 -207t168.5 -80q111 0 164 78.5t53 201.5z" />
<glyph horiz-adv-x="1097" d="M426 0h-307v981h467q207 0 313.5 -87t106.5 -235q0 -92 -46.5 -165.5t-142.5 -112.5l227 -381h-329l-172 319l-117 -6v-313zM530 502q78 2 121 36.5t43 102.5q0 61 -40 95t-128 34h-102v-270z" />
<glyph horiz-adv-x="987" d="M487 207q63 0 102.5 19.5t39.5 56.5q0 20 -15.5 33.5t-44 24.5t-68.5 21.5t-87 22.5q-55 12 -113.5 33.5t-107 56.5t-79 87t-30.5 128q0 143 100.5 230.5t304.5 87.5q131 0 229.5 -26t168.5 -60l-49 -242q-76 35 -168 59.5t-168 24.5q-119 0 -119 -66q0 -20 19.5 -34.5 t49 -25.5t66.5 -20.5t72 -17.5q57 -14 114.5 -35.5t103.5 -55.5t73.5 -83t27.5 -119q0 -147 -109.5 -241.5t-324.5 -94.5q-123 0 -230.5 27t-174.5 63l47 240q78 -41 177 -67.5t193 -26.5z" />
<glyph horiz-adv-x="1034" d="M674 727v-727h-316v727h-307v254h934v-254h-311z" />
<glyph horiz-adv-x="1130" d="M1030 412q0 -115 -34.5 -198t-97 -137t-147.5 -80t-186 -26q-98 0 -182 22.5t-147.5 73t-99.5 129t-36 191.5v594h314v-559q0 -190 155 -191q76 0 113 41t37 144v565h311v-569v0z" />
<glyph horiz-adv-x="1103" d="M750 0h-398l-325 981h309l215 -709l217 709h309z" />
<glyph horiz-adv-x="1607" d="M631 0h-320l-266 981h326l121 -645l147 645h336l149 -645l121 645h318l-267 -981h-321l-172 647z" />
<glyph horiz-adv-x="1099" d="M367 0h-338l333 489l-323 492h346l164 -297l172 297h340l-326 -481l334 -500h-344l-178 313z" />
<glyph horiz-adv-x="1050" d="M680 360v-360h-307v362l-342 619h325l170 -365l166 365h328z" />
<glyph horiz-adv-x="1030" d="M70 0v199l469 534h-459v248h848v-203l-465 -530h463v-248h-856z" />
<glyph horiz-adv-x="1976" d="M1477 207q63 0 102 19.5t39 56.5q0 20 -15.5 33.5t-44 24.5t-68.5 21.5t-87 22.5q-55 12 -113.5 33.5t-106.5 56.5t-79 87t-31 128q0 143 100.5 230.5t305.5 87.5q133 0 230 -26t167 -60l-49 -242q-76 35 -168 59.5t-168 24.5q-119 0 -119 -66q0 -20 19.5 -34.5t49 -25.5 t66.5 -20.5t72 -17.5q57 -14 114.5 -35.5t103.5 -55.5t73.5 -83t27.5 -119q0 -147 -109.5 -241.5t-322.5 -94.5q-125 0 -232.5 27t-172.5 63l45 240q78 -41 178.5 -67.5t192.5 -26.5zM489 207q63 0 102.5 19.5t39.5 56.5q0 20 -16.5 33.5t-45 24.5t-68.5 21.5t-87 22.5 q-53 12 -111.5 33.5t-107 56.5t-79 87t-30.5 128q0 143 100.5 230.5t302.5 87.5q133 0 230.5 -26t167.5 -60l-47 -242q-78 35 -169 59.5t-167 24.5q-119 0 -119 -66q0 -20 19.5 -34.5t49 -25.5t65.5 -20.5t71 -17.5q57 -14 114.5 -35.5t103.5 -55.5t73.5 -83t27.5 -119 q0 -147 -109.5 -241.5t-322.5 -94.5q-125 0 -232.5 27t-172.5 63l45 240q80 -41 179 -67.5t193 -26.5z" />
<glyph horiz-adv-x="1150" d="M504 1079l-346 379h340l202 -379h-196zM1112 0h-305l-64 182h-335l-56 -182h-311l336 981h405zM575 772l-118 -383h237z" />
<glyph horiz-adv-x="1150" d="M1112 0h-305l-64 182h-335l-56 -182h-311l336 981h405zM575 772l-118 -383h237zM647 1079h-196l202 379h340z" />
<glyph horiz-adv-x="1150" d="M1112 0h-305l-64 182h-335l-56 -182h-311l336 981h405zM575 772l-118 -383h237zM748 1079l-170 219h-5l-165 -219h-220l244 383h287l244 -383h-215z" />
<glyph horiz-adv-x="1150" d="M1112 0h-305l-64 182h-335l-56 -182h-311l336 981h405zM575 772l-118 -383h237zM967 1399q-10 -92 -28.5 -152.5t-47.5 -96.5t-67 -50.5t-83 -14.5q-47 0 -93 18.5t-86 40t-72.5 40t-57.5 18.5q-27 0 -42 -20.5t-23 -81.5h-187q8 92 27.5 151.5t48.5 95t65.5 50 t81.5 14.5q49 0 94.5 -18.5t85.5 -40t73.5 -40t58.5 -18.5q27 0 41 21.5t22 83.5h189z" />
<glyph horiz-adv-x="1150" d="M1112 0h-305l-64 182h-335l-56 -182h-311l336 981h405zM575 772l-118 -383h237zM975 1245q0 -78 -44 -118t-118 -40q-72 0 -117 40t-45 118t45 118t117 40q74 0 118 -40t44 -118zM500 1245q0 -78 -46 -118t-118 -40t-118 40t-46 118t46 118t118 40t118 -40t46 -118z" />
<glyph horiz-adv-x="1150" d="M367 956q-80 61 -80 164q0 102 76.5 172t211.5 70t211 -68.5t78 -173.5q0 -102 -76 -162l322 -958h-305l-64 182h-335l-56 -182h-311zM743 1122q0 61 -45 100.5t-123 39.5t-121.5 -39t-43.5 -101q0 -61 44 -102t121 -41q78 0 123 41t45 102zM573 772l-118 -383h235z" />
<glyph horiz-adv-x="1153" d="M567 1423h-196l202 379h340zM367 956q-80 61 -80 164q0 102 76.5 172t211.5 70t211 -68.5t78 -173.5q0 -102 -76 -162l322 -958h-305l-64 182h-335l-56 -182h-311zM743 1122q0 61 -45 100.5t-123 39.5t-121.5 -39t-43.5 -101q0 -61 44 -102t121 -41q78 0 123 41t45 102z M573 772l-118 -383h235z" />
<glyph horiz-adv-x="1157" d="M1112 0h-305l-64 182h-335l-56 -182h-311l336 981h405zM575 772l-118 -383h237zM207 1124l22 179h701l22 -179h-745z" />
<glyph horiz-adv-x="1157" d="M1112 0h-305l-64 182h-335l-56 -182h-311l336 981h405zM575 772l-118 -383h237zM952 1454q-8 -102 -41.5 -175t-85 -121t-115 -70.5t-130.5 -22.5q-68 0 -131.5 22.5t-113.5 70.5t-85 121t-43 175l190 -2q16 -92 60.5 -149.5t122.5 -57.5t121.5 57.5t60.5 149.5z" />
<glyph horiz-adv-x="1157" d="M1114 0q-106 -12 -177 -57t-71 -113q0 -92 88 -92q29 0 56.5 7t48.5 19l45 -159q-41 -25 -92 -40.5t-123 -15.5q-113 0 -180.5 55.5t-67.5 153.5q0 80 47 141.5t119 100.5l-62 180h-335l-56 -180h-313l336 981h407zM578 772l-119 -383h235z" />
<glyph horiz-adv-x="1595" d="M352 0h-313l491 981h971v-229h-475v-152h395v-217h-395v-154h475v-229h-766v182h-295zM735 389v428l-200 -428h200z" />
<glyph horiz-adv-x="1597" d="M1008 1079h-197l203 379h340zM352 0h-313l491 981h971v-229h-475v-152h395v-217h-395v-154h475v-229h-766v182h-295zM735 389v428l-200 -428h200z" />
<glyph horiz-adv-x="1026" d="M506 -20q-199 27 -311.5 153.5t-112.5 353.5q0 119 37 215.5t106.5 164t172 104.5t231.5 37q94 0 177 -19.5t155 -48.5l-95 -260q-47 29 -111.5 47t-123.5 18q-111 0 -172.5 -68.5t-61.5 -182.5q0 -119 58.5 -188.5t175.5 -69.5q70 0 130 17t120 52l67 -268 q-49 -25 -132 -43.5t-165 -22.5q-27 -23 -50 -44t-36 -31q51 -2 99.5 -16.5t83 -40t56 -62.5t21.5 -84q0 -102 -96 -174t-311 -99l-17 146q133 6 186.5 33.5t53.5 72.5q0 57 -59.5 78t-178.5 10l-20 105l123 115v0z" />
<glyph horiz-adv-x="1019" d="M604 1079h-196l202 379h340zM866 680q-47 29 -111.5 47t-123.5 18q-111 0 -172.5 -68.5t-61.5 -182.5q0 -119 58.5 -188.5t175.5 -69.5q70 0 130 17t120 52l67 -268q-29 -14 -66.5 -25.5t-82.5 -20.5t-92.5 -14.5t-90.5 -5.5q-246 0 -390 130t-144 386q0 119 37 215.5 t106.5 164t172 104.5t231.5 37q94 0 177 -19.5t155 -48.5z" />
<glyph horiz-adv-x="1019" d="M758 1079l-170 219h-4l-166 -219h-219l243 383h287l244 -383h-215zM866 680q-47 29 -111.5 47t-123.5 18q-111 0 -172.5 -68.5t-61.5 -182.5q0 -119 58.5 -188.5t175.5 -69.5q70 0 130 17t120 52l67 -268q-29 -14 -66.5 -25.5t-82.5 -20.5t-92.5 -14.5t-90.5 -5.5 q-246 0 -390 130t-144 386q0 119 37 215.5t106.5 164t172 104.5t231.5 37q94 0 177 -19.5t155 -48.5z" />
<glyph horiz-adv-x="1019" d="M866 680q-47 29 -111.5 47t-123.5 18q-111 0 -172.5 -68.5t-61.5 -182.5q0 -119 58.5 -188.5t175.5 -69.5q70 0 130 17t120 52l67 -268q-29 -14 -66.5 -25.5t-82.5 -20.5t-92.5 -14.5t-90.5 -5.5q-246 0 -390 130t-144 386q0 119 37 215.5t106.5 164t172 104.5t231.5 37 q94 0 177 -19.5t155 -48.5zM766 1241q0 -74 -46 -126t-126 -52q-78 0 -125 52t-47 126q0 72 47 125t125 53q80 0 126 -53t46 -125z" />
<glyph horiz-adv-x="1019" d="M735 1079h-286l-244 383h215l170 -221h4l166 221h219zM866 680q-47 29 -111.5 47t-123.5 18q-111 0 -172.5 -68.5t-61.5 -182.5q0 -119 58.5 -188.5t175.5 -69.5q70 0 130 17t120 52l67 -268q-29 -14 -66.5 -25.5t-82.5 -20.5t-92.5 -14.5t-90.5 -5.5q-246 0 -390 130 t-144 386q0 119 37 215.5t106.5 164t172 104.5t231.5 37q94 0 177 -19.5t155 -48.5z" />
<glyph horiz-adv-x="1171" d="M662 1079h-289l-244 383h217l168 -221h6l164 221h221zM1087 496q0 -113 -37.5 -205t-110.5 -156.5t-180.5 -99.5t-246.5 -35h-393v981h413q135 0 238.5 -35t174.5 -98.5t106.5 -152t35.5 -199.5zM772 487q0 135 -72.5 194.5t-177.5 59.5h-90v-503h92q106 0 177 61t71 188 z" />
<glyph horiz-adv-x="1251" d="M1167 496q0 -113 -37.5 -205t-110.5 -156.5t-179.5 -99.5t-245.5 -35h-395v381h-156v221h156v379h415q133 0 236.5 -35t174.5 -98.5t106.5 -152t35.5 -199.5zM854 487q0 135 -73.5 201t-178.5 66h-102v-158h178v-207h-178v-162h104q106 0 178 66.5t72 193.5z" />
<glyph horiz-adv-x="1251" d="M1167 496q0 -113 -37.5 -205t-110.5 -156.5t-179.5 -99.5t-245.5 -35h-395v381h-156v221h156v379h415q133 0 236.5 -35t174.5 -98.5t106.5 -152t35.5 -199.5zM854 487q0 135 -73.5 201t-178.5 66h-102v-158h178v-207h-178v-162h104q106 0 178 66.5t72 193.5z" />
<glyph horiz-adv-x="978" d="M438 1079l-346 379h340l203 -379h-197zM119 0v981h766v-229h-475v-154h395v-213h-395v-156h475v-229h-766z" />
<glyph horiz-adv-x="978" d="M119 0v981h766v-229h-475v-154h395v-213h-395v-156h475v-229h-766zM582 1079h-197l203 379h340z" />
<glyph horiz-adv-x="978" d="M119 0v981h766v-229h-475v-154h395v-213h-395v-156h475v-229h-766zM668 1079l-170 219h-4l-166 -219h-219l243 383h287l244 -383h-215z" />
<glyph horiz-adv-x="978" d="M119 0v981h766v-229h-475v-154h395v-213h-395v-156h475v-229h-766zM911 1245q0 -78 -44 -118t-117 -40q-72 0 -117 40t-45 118t45 118t117 40q74 0 117.5 -40t43.5 -118zM436 1245q0 -78 -46 -118t-118 -40t-117.5 40t-45.5 118t46 118t117 40q72 0 118 -40t46 -118z" />
<glyph horiz-adv-x="980" d="M119 0v981h766v-229h-475v-154h395v-213h-395v-156h475v-229h-766zM123 1124l22 179h701l22 -179h-745z" />
<glyph horiz-adv-x="980" d="M119 0v981h766v-229h-475v-154h395v-213h-395v-156h475v-229h-766zM879 1454q-8 -102 -42 -175t-85.5 -121t-115 -70.5t-130.5 -22.5q-68 0 -131.5 22.5t-113.5 70.5t-85 121t-43 175l191 -2q16 -92 60 -149.5t122 -57.5t122 57.5t60 149.5z" />
<glyph horiz-adv-x="980" d="M119 0v981h766v-229h-475v-154h395v-213h-395v-156h475v-229h-766zM672 1233q0 -74 -46 -126t-126 -52q-78 0 -125 52t-47 126q0 72 47 125t125 53q80 0 126 -53t46 -125z" />
<glyph horiz-adv-x="980" d="M774 0q-57 -41 -89 -84t-32 -92q0 -92 88 -92q29 0 56.5 7t48.5 19l43 -159q-39 -25 -90 -41.5t-125 -16.5q-111 0 -178.5 56.5t-67.5 154.5q0 84 50 146.5t126 101.5h-485v981h768v-229h-475v-154h393v-213h-393v-156h475v-229h-113z" />
<glyph horiz-adv-x="980" d="M647 1079h-287l-243 383h215l170 -221h4l166 221h219zM119 0v981h766v-229h-475v-154h395v-213h-395v-156h475v-229h-766z" />
<glyph horiz-adv-x="1138" d="M774 1079l-170 219h-4l-166 -219h-219l244 383h286l244 -383h-215zM383 496q0 -135 60.5 -213t195.5 -78q47 0 88 7t66 17v129h-228v209h475v-501q-78 -39 -186.5 -67t-224.5 -28q-123 0 -224.5 33t-173 98.5t-110.5 161.5t-39 223q0 123 40 219.5t112.5 163t174 102.5 t222.5 36q109 0 218 -23.5t175 -60.5l-90 -238q-154 74 -283 74q-123 0 -195.5 -66.5t-72.5 -197.5z" />
<glyph horiz-adv-x="1138" d="M383 496q0 -135 60.5 -213t195.5 -78q47 0 88 7t66 17v129h-228v209h475v-501q-78 -39 -186.5 -67t-224.5 -28q-123 0 -224.5 33t-173 98.5t-110.5 161.5t-39 223q0 123 40 219.5t112.5 163t174 102.5t222.5 36q109 0 218 -23.5t175 -60.5l-90 -238q-154 74 -283 74 q-123 0 -195.5 -66.5t-72.5 -197.5zM963 1454q-8 -102 -42 -175t-85.5 -121t-115 -70.5t-130.5 -22.5q-68 0 -131.5 22.5t-113.5 70.5t-85 121t-43 175l191 -2q16 -92 60 -149.5t122 -57.5t122 57.5t60 149.5z" />
<glyph horiz-adv-x="1138" d="M383 496q0 -135 60.5 -213t195.5 -78q47 0 88 7t66 17v129h-228v209h475v-501q-78 -39 -186.5 -67t-224.5 -28q-123 0 -224.5 33t-173 98.5t-110.5 161.5t-39 223q0 123 40 219.5t112.5 163t174 102.5t222.5 36q109 0 218 -23.5t175 -60.5l-90 -238q-154 74 -283 74 q-123 0 -195.5 -66.5t-72.5 -197.5zM778 1237q0 -74 -46 -126t-126 -52q-78 0 -125 52t-47 126q0 72 47 125t125 53q80 0 126 -53t46 -125z" />
<glyph horiz-adv-x="1138" d="M383 496q0 -135 60.5 -213t195.5 -78q47 0 88 7t66 17v129h-228v209h475v-501q-78 -39 -186.5 -67t-224.5 -28q-123 0 -224.5 33t-173 98.5t-110.5 161.5t-39 223q0 123 40 219.5t112.5 163t174 102.5t222.5 36q109 0 218 -23.5t175 -60.5l-90 -238q-154 74 -283 74 q-123 0 -195.5 -66.5t-72.5 -197.5zM440 -250q2 59 46 102.5t114 43.5q82 0 134 -51.5t52 -133.5q0 -100 -74.5 -178t-205.5 -119l-70 74q72 41 103.5 78t31.5 69q0 33 -23.5 60.5t-107.5 54.5z" />
<glyph horiz-adv-x="1198" d="M772 1053l-170 219h-4l-166 -219h-219l244 383h286l244 -383h-215zM766 0v379h-334v-379h-313v981h313v-371h334v371h313v-981h-313z" />
<glyph horiz-adv-x="1198" d="M764 0v379h-330v-379h-315v715h-137l2 123h135v143h315v-143h330v143h317v-143h133l7 -123h-140v-715h-317zM764 610v105h-330v-105h330z" />
<glyph horiz-adv-x="550" d="M197 1079l-347 379h340l203 -379h-196zM119 0v981h313v-981h-313z" />
<glyph horiz-adv-x="550" d="M358 1079h-196l203 379h340zM119 0v981h313v-981h-313z" />
<glyph horiz-adv-x="550" d="M119 0v981h313v-981h-313zM449 1079l-170 219h-5l-165 -219h-220l244 383h287l244 -383h-215z" />
<glyph horiz-adv-x="550" d="M676 1245q0 -78 -44 -118t-118 -40q-72 0 -117 40t-45 118t45 118t117 40q74 0 118 -40t44 -118zM201 1245q0 -78 -46 -118t-118 -40t-118 40t-46 118t46 118t118 40t118 -40t46 -118zM119 0v981h313v-981h-313z" />
<glyph horiz-adv-x="552" d="M119 0v981h313v-981h-313zM-94 1124l22 179h701l22 -179h-745z" />
<glyph horiz-adv-x="552" d="M119 0v981h313v-981h-313zM651 1454q-8 -102 -42 -175t-85 -121t-114.5 -70.5t-130.5 -22.5q-68 0 -131.5 22.5t-113.5 70.5t-85 121t-43 175l190 -2q16 -92 60.5 -149.5t122.5 -57.5t121.5 57.5t60.5 149.5z" />
<glyph horiz-adv-x="552" d="M258 -451q-113 0 -180.5 55.5t-67.5 153.5q0 80 47 141.5t119 100.5h-57v981h315v-981q-84 -16 -141 -63.5t-57 -106.5q0 -92 88 -92q29 0 56.5 7t47.5 19l45 -159q-41 -25 -92 -40.5t-123 -15.5z" />
<glyph horiz-adv-x="550" d="M119 0v981h313v-981h-313zM449 1229q0 -74 -46.5 -126t-126.5 -52q-78 0 -125 52t-47 126q0 72 47.5 125t124.5 53q80 0 126.5 -53t46.5 -125z" />
<glyph horiz-adv-x="550" d="M119 0v981h313v-981h-313z" />
<glyph horiz-adv-x="839" d="M737 373q0 -193 -96 -297.5t-289 -104.5q-98 0 -182 23.5t-145 58.5l67 244q47 -31 101.5 -49.5t91.5 -18.5q78 0 107.5 41t29.5 129v582h315v-608zM745 1079l-170 219h-4l-165 -219h-220l244 383h287l244 -383h-216z" />
<glyph horiz-adv-x="839" d="M737 373q0 -193 -96 -297.5t-289 -104.5q-98 0 -182 23.5t-145 58.5l67 244q47 -31 101.5 -49.5t91.5 -18.5q78 0 107.5 41t29.5 129v582h315v-608v0z" />
<glyph horiz-adv-x="1101" d="M387 -250q2 59 46 102.5t114 43.5q82 0 134 -51.5t52 -133.5q0 -100 -74.5 -178t-205.5 -119l-70 74q72 41 103.5 78t31.5 69q0 33 -23.5 60.5t-107.5 54.5zM434 567l275 414h348l-348 -471l362 -510h-369l-268 414h-2v-414h-313v981h313v-414h2z" />
<glyph horiz-adv-x="927" d="M313 1063h-196l202 379h340zM119 0v981h313v-727h438v-254h-751z" />
<glyph horiz-adv-x="927" d="M119 0v981h313v-727h438v-254h-751zM291 -250q2 59 46 102.5t114 43.5q82 0 134 -51.5t52 -133.5q0 -100 -75 -178t-206 -119l-69 74q72 41 103.5 78t31.5 69q0 33 -23.5 60.5t-107.5 54.5z" />
<glyph horiz-adv-x="1484" d="M936 825q10 84 70.5 134.5t148.5 50.5q53 0 98 -21.5t78 -56.5t51.5 -83t18.5 -99q0 -72 -29 -132.5t-77 -111.5t-110.5 -94t-129.5 -80l-140 123q86 59 145.5 111t59.5 104q0 41 -39 75.5t-145 79.5zM119 0v981h313v-727h438v-254h-751z" />
<glyph horiz-adv-x="1396" d="M119 0v981h313v-727h438v-254h-751zM1278 524q0 -84 -53.5 -135t-139.5 -51q-88 0 -141 51t-53 135q0 86 53 136.5t141 50.5q86 0 139.5 -50.5t53.5 -136.5z" />
<glyph horiz-adv-x="993" d="M500 254h438v-254h-752v328l-151 -45v223l151 45v430h314v-338l229 68v-224l-229 -67v-166z" />
<glyph horiz-adv-x="1210" d="M807 981h287v-991h-328l-365 561v-551h-282v981h327l363 -553zM997 1399q-10 -92 -28.5 -152.5t-47 -96.5t-66.5 -50.5t-83 -14.5q-47 0 -93 18.5t-86 40t-73 40t-57 18.5q-27 0 -42 -20.5t-24 -81.5h-186q8 92 27.5 151.5t48 95t65.5 50t82 14.5q49 0 94 -18.5t85 -40 t74 -40t58 -18.5q27 0 41.5 21.5t22.5 83.5h188z" />
<glyph horiz-adv-x="1212" d="M649 1079h-196l202 379h340zM807 981h287v-991h-328l-365 561v-551h-282v981h327l363 -553z" />
<glyph horiz-adv-x="1212" d="M807 981h287v-991h-328l-365 561v-551h-282v981h327l363 -553zM434 -250q2 59 46 102.5t114 43.5q82 0 134 -51.5t52 -133.5q0 -100 -74.5 -178t-205.5 -119l-70 74q72 41 103.5 78t31.5 69q0 33 -23.5 60.5t-107.5 54.5z" />
<glyph horiz-adv-x="1212" d="M756 1079h-287l-244 383h215l170 -221h4l166 221h219zM807 981h287v-991h-328l-365 561v-551h-282v981h327l363 -553z" />
<glyph horiz-adv-x="1222" d="M532 1079l-346 379h340l203 -379h-197zM1141 494q0 -121 -42 -217.5t-115 -164t-169 -104.5t-207 -37t-206 33t-166.5 97.5t-112.5 160.5t-41 225q0 121 42 217.5t113.5 164t169 103.5t205.5 36q111 0 207 -32t168 -96.5t113 -160.5t41 -225zM831 487q0 127 -55 206 t-168 79q-111 0 -165 -78t-54 -200q0 -127 56.5 -207t168.5 -80q111 0 164 78.5t53 201.5z" />
<glyph horiz-adv-x="1222" d="M1141 494q0 -121 -42 -217.5t-115 -164t-169 -104.5t-207 -37t-206 33t-166.5 97.5t-112.5 160.5t-41 225q0 121 42 217.5t113.5 164t169 103.5t205.5 36q111 0 207 -32t168 -96.5t113 -160.5t41 -225zM831 487q0 127 -55 206t-168 79q-111 0 -165 -78t-54 -200 q0 -127 56.5 -207t168.5 -80q111 0 164 78.5t53 201.5zM690 1079h-196l202 379h340z" />
<glyph horiz-adv-x="1222" d="M1141 494q0 -121 -42 -217.5t-115 -164t-169 -104.5t-207 -37t-206 33t-166.5 97.5t-112.5 160.5t-41 225q0 121 42 217.5t113.5 164t169 103.5t205.5 36q111 0 207 -32t168 -96.5t113 -160.5t41 -225zM831 487q0 127 -55 206t-168 79q-111 0 -165 -78t-54 -200 q0 -127 56.5 -207t168.5 -80q111 0 164 78.5t53 201.5zM784 1079l-170 219h-4l-166 -219h-219l244 383h287l243 -383h-215z" />
<glyph horiz-adv-x="1222" d="M1141 494q0 -121 -42 -217.5t-115 -164t-169 -104.5t-207 -37t-206 33t-166.5 97.5t-112.5 160.5t-41 225q0 121 42 217.5t113.5 164t169 103.5t205.5 36q111 0 207 -32t168 -96.5t113 -160.5t41 -225zM831 487q0 127 -55 206t-168 79q-111 0 -165 -78t-54 -200 q0 -127 56.5 -207t168.5 -80q111 0 164 78.5t53 201.5zM1004 1399q-10 -92 -29 -152.5t-47.5 -96.5t-66.5 -50.5t-83 -14.5q-47 0 -93 18.5t-86 40t-72.5 40t-57.5 18.5q-27 0 -42 -20.5t-24 -81.5h-186q8 92 27.5 151.5t48.5 95t65.5 50t81.5 14.5q49 0 94.5 -18.5t85 -40 t73.5 -40t59 -18.5q27 0 41 21.5t22 83.5h189z" />
<glyph horiz-adv-x="1222" d="M1141 494q0 -121 -42 -217.5t-115 -164t-169 -104.5t-207 -37t-206 33t-166.5 97.5t-112.5 160.5t-41 225q0 121 42 217.5t113.5 164t169 103.5t205.5 36q111 0 207 -32t168 -96.5t113 -160.5t41 -225zM831 487q0 127 -55 206t-168 79q-111 0 -165 -78t-54 -200 q0 -127 56.5 -207t168.5 -80q111 0 164 78.5t53 201.5zM1012 1245q0 -78 -44 -118t-118 -40q-72 0 -117 40t-45 118t45 118t117 40q74 0 118 -40t44 -118zM537 1245q0 -78 -46.5 -118t-117.5 -40q-72 0 -118 40t-46 118t46 118t118 40t118 -40t46 -118z" />
<glyph horiz-adv-x="1222" d="M252 1124l22 179h701l22 -179h-745zM1141 494q0 -121 -42 -217.5t-115 -164t-169 -104.5t-207 -37t-206 33t-166.5 97.5t-112.5 160.5t-41 225q0 121 42 217.5t113.5 164t169 103.5t205.5 36q111 0 207 -32t168 -96.5t113 -160.5t41 -225zM831 487q0 127 -55 206t-168 79 q-111 0 -165 -78t-54 -200q0 -127 56.5 -207t168.5 -80q111 0 164 78.5t53 201.5z" />
<glyph horiz-adv-x="1222" d="M1141 494q0 -121 -42 -217.5t-115 -164t-169 -104.5t-207 -37t-206 33t-166.5 97.5t-112.5 160.5t-41 225q0 121 42 217.5t113.5 164t169 103.5t205.5 36q111 0 207 -32t168 -96.5t113 -160.5t41 -225zM831 487q0 127 -55 206t-168 79q-111 0 -165 -78t-54 -200 q0 -127 56.5 -207t168.5 -80q111 0 164 78.5t53 201.5zM997 1454q-8 -102 -41.5 -175t-85 -121t-115 -70.5t-130.5 -22.5q-68 0 -131.5 22.5t-113.5 70.5t-85 121t-43 175l190 -2q16 -92 60.5 -149.5t122.5 -57.5t122 57.5t60 149.5z" />
<glyph horiz-adv-x="1222" d="M858 1079h-205l293 375h291zM455 1079h-211l252 375h290zM1141 494q0 -121 -42 -217.5t-115 -164t-169 -104.5t-207 -37t-206 33t-166.5 97.5t-112.5 160.5t-41 225q0 121 42 217.5t113.5 164t169 103.5t205.5 36q111 0 207 -32t168 -96.5t113 -160.5t41 -225zM831 487 q0 127 -55 206t-168 79q-111 0 -165 -78t-54 -200q0 -127 56.5 -207t168.5 -80q111 0 164 78.5t53 201.5z" />
<glyph horiz-adv-x="1222" d="M516 211q41 -20 98 -21q117 0 173.5 84t56.5 213q0 121 -47 199zM705 770q-43 18 -97 18q-117 0 -173 -82.5t-56 -211.5q0 -59 11 -109.5t34 -89.5zM287 59q-94 63 -149.5 170t-55.5 258q0 121 42 217.5t113.5 164t169 103.5t205.5 36q113 0 211 -35l56 94h141l-86 -147 q96 -63 151.5 -169t55.5 -257q0 -121 -42 -217.5t-115 -164t-169 -104.5t-207 -37q-113 0 -213 35q-4 -10 -10 -18q-4 -8 -9 -17.5t-11 -19.5q-14 -25 -33 -55h-142z" />
<glyph horiz-adv-x="1222" d="M516 211q41 -20 98 -21q117 0 173.5 84t56.5 213q0 121 -47 199zM705 770q-43 18 -97 18q-117 0 -173 -82.5t-56 -211.5q0 -59 11 -109.5t34 -89.5zM287 59q-94 63 -149.5 170t-55.5 258q0 121 42 217.5t113.5 164t169 103.5t205.5 36q113 0 211 -35l56 94h141l-86 -147 q96 -63 151.5 -169t55.5 -257q0 -121 -42 -217.5t-115 -164t-169 -104.5t-207 -37q-113 0 -213 35q-4 -10 -10 -18q-4 -8 -9 -17.5t-11 -19.5q-14 -25 -33 -55h-142zM680 1079h-197l203 379h340z" />
<glyph horiz-adv-x="1599" d="M1505 752h-475v-152h393v-217h-393v-154h475v-229h-868q-135 0 -238.5 35t-174 97.5t-106.5 151.5t-36 199q0 113 38 205t110.5 156.5t180 100.5t246.5 36h848v-229zM397 492q0 -135 73 -194.5t177 -59.5h90v503h-92q-104 0 -176 -61t-72 -188z" />
<glyph horiz-adv-x="1056" d="M987 502q0 -184 -121 -277.5t-334 -93.5h-100v-131h-313v981h313v-133h117q213 0 325.5 -92t112.5 -254zM688 492q0 72 -46 107.5t-132 35.5h-90v-297l82 2q186 7 186 152z" />
<glyph horiz-adv-x="1099" d="M559 1079h-197l203 379h340zM426 0h-307v981h467q207 0 313.5 -87t106.5 -235q0 -92 -46.5 -165.5t-142.5 -112.5l227 -381h-329l-172 319l-117 -6v-313zM530 502q78 2 121 36.5t43 102.5q0 61 -40 95t-128 34h-102v-270z" />
<glyph horiz-adv-x="1099" d="M426 0h-307v981h467q207 0 313.5 -87t106.5 -235q0 -92 -46.5 -165.5t-142.5 -112.5l227 -381h-329l-172 319l-117 -6v-313zM530 502q78 2 121 36.5t43 102.5q0 61 -40 95t-128 34h-102v-270zM371 -250q2 59 46 102.5t113 43.5q82 0 134.5 -51.5t52.5 -133.5 q0 -100 -75 -178t-206 -119l-69 74q72 41 103.5 78t31.5 69q0 33 -23.5 60.5t-107.5 54.5z" />
<glyph horiz-adv-x="1099" d="M651 1079h-286l-244 383h215l170 -221h4l166 221h219zM426 0h-307v981h467q207 0 313.5 -87t106.5 -235q0 -92 -46.5 -165.5t-142.5 -112.5l227 -381h-329l-172 319l-117 -6v-313zM530 502q78 2 121 36.5t43 102.5q0 61 -40 95t-128 34h-102v-270z" />
<glyph horiz-adv-x="989" d="M526 1079h-196l202 379h340zM487 207q63 0 102.5 19.5t39.5 56.5q0 20 -15.5 33.5t-44 24.5t-68.5 21.5t-87 22.5q-55 12 -113.5 33.5t-107 56.5t-79 87t-30.5 128q0 143 100.5 230.5t304.5 87.5q131 0 229.5 -26t168.5 -60l-49 -242q-76 35 -168 59.5t-168 24.5 q-119 0 -119 -66q0 -20 19.5 -34.5t49 -25.5t66.5 -20.5t72 -17.5q57 -14 114.5 -35.5t103.5 -55.5t73.5 -83t27.5 -119q0 -147 -109.5 -241.5t-324.5 -94.5q-123 0 -230.5 27t-174.5 63l47 240q78 -41 177 -67.5t193 -26.5z" />
<glyph horiz-adv-x="989" d="M680 1079l-170 219h-4l-166 -219h-219l244 383h286l244 -383h-215zM487 207q63 0 102.5 19.5t39.5 56.5q0 20 -15.5 33.5t-44 24.5t-68.5 21.5t-87 22.5q-55 12 -113.5 33.5t-107 56.5t-79 87t-30.5 128q0 143 100.5 230.5t304.5 87.5q131 0 229.5 -26t168.5 -60 l-49 -242q-76 35 -168 59.5t-168 24.5q-119 0 -119 -66q0 -20 19.5 -34.5t49 -25.5t66.5 -20.5t72 -17.5q57 -14 114.5 -35.5t103.5 -55.5t73.5 -83t27.5 -119q0 -147 -109.5 -241.5t-324.5 -94.5q-123 0 -230.5 27t-174.5 63l47 240q78 -41 177 -67.5t193 -26.5z" />
<glyph horiz-adv-x="989" d="M436 -104q51 -2 99.5 -16.5t83 -40t56 -62.5t21.5 -84q0 -102 -96 -174t-311 -99l-17 146q133 6 186.5 33.5t53.5 72.5q0 57 -59.5 78t-178.5 10l-20 105l121 112q-94 10 -173 33t-132 51l47 240q78 -41 177 -67.5t193 -26.5q63 0 102.5 19.5t39.5 56.5q0 20 -15.5 33.5 t-44 24.5t-68.5 21.5t-87 22.5q-55 12 -113.5 33.5t-107 56.5t-79 87t-30.5 128q0 143 100.5 230.5t304.5 87.5q131 0 229.5 -26t168.5 -60l-49 -242q-76 35 -168 59.5t-168 24.5q-119 0 -119 -66q0 -20 19.5 -34.5t49 -25.5t66.5 -20.5t72 -17.5q57 -14 114.5 -35.5 t103.5 -55.5t73.5 -83t27.5 -119q0 -139 -98 -231t-289 -103q-29 -25 -51.5 -45t-34.5 -32z" />
<glyph horiz-adv-x="989" d="M487 207q63 0 102.5 19.5t39.5 56.5q0 20 -15.5 33.5t-44 24.5t-68.5 21.5t-87 22.5q-55 12 -113.5 33.5t-107 56.5t-79 87t-30.5 128q0 143 100.5 230.5t304.5 87.5q131 0 229.5 -26t168.5 -60l-49 -242q-76 35 -168 59.5t-168 24.5q-119 0 -119 -66q0 -20 19.5 -34.5 t49 -25.5t66.5 -20.5t72 -17.5q57 -14 114.5 -35.5t103.5 -55.5t73.5 -83t27.5 -119q0 -147 -109.5 -241.5t-324.5 -94.5q-123 0 -230.5 27t-174.5 63l47 240q78 -41 177 -67.5t193 -26.5zM313 -250q2 59 46 102.5t114 43.5q82 0 134 -51.5t52 -133.5q0 -100 -74.5 -178 t-205.5 -119l-70 74q72 41 103.5 78t31.5 69q0 33 -23.5 60.5t-107.5 54.5z" />
<glyph horiz-adv-x="987" d="M487 207q63 0 102.5 19.5t39.5 56.5q0 20 -15.5 33.5t-44 24.5t-68.5 21.5t-87 22.5q-55 12 -113.5 33.5t-107 56.5t-79 87t-30.5 128q0 143 100.5 230.5t304.5 87.5q131 0 229.5 -26t168.5 -60l-49 -242q-76 35 -168 59.5t-168 24.5q-119 0 -119 -66q0 -20 19.5 -34.5 t49 -25.5t66.5 -20.5t72 -17.5q57 -14 114.5 -35.5t103.5 -55.5t73.5 -83t27.5 -119q0 -147 -109.5 -241.5t-324.5 -94.5q-123 0 -230.5 27t-174.5 63l47 240q78 -41 177 -67.5t193 -26.5zM643 1094h-287l-243 383h215l170 -222h4l166 222h219z" />
<glyph horiz-adv-x="1036" d="M674 727v-727h-316v727h-307v254h934v-254h-311zM336 -250q2 59 46 102.5t114 43.5q82 0 134 -51.5t52 -133.5q0 -100 -75 -178t-206 -119l-69 74q72 41 103.5 78t31.5 69q0 33 -23.5 60.5t-107.5 54.5z" />
<glyph horiz-adv-x="1036" d="M662 1079h-287l-244 383h215l170 -221h4l164 221h221zM674 727v-727h-316v727h-307v254h934v-254h-311z" />
<glyph horiz-adv-x="1130" d="M485 1079l-346 379h340l203 -379h-197zM1030 412q0 -115 -34.5 -198t-97 -137t-147.5 -80t-186 -26q-98 0 -182 22.5t-147.5 73t-99.5 129t-36 191.5v594h314v-559q0 -190 155 -191q76 0 113 41t37 144v565h311v-569z" />
<glyph horiz-adv-x="1130" d="M1030 412q0 -115 -34.5 -198t-97 -137t-147.5 -80t-186 -26q-98 0 -182 22.5t-147.5 73t-99.5 129t-36 191.5v594h314v-559q0 -190 155 -191q76 0 113 41t37 144v565h311v-569zM643 1079h-197l203 379h340z" />
<glyph horiz-adv-x="1130" d="M1030 412q0 -115 -34.5 -198t-97 -137t-147.5 -80t-186 -26q-98 0 -182 22.5t-147.5 73t-99.5 129t-36 191.5v594h314v-559q0 -190 155 -191q76 0 113 41t37 144v565h311v-569zM737 1079l-170 219h-4l-166 -219h-219l244 383h287l243 -383h-215z" />
<glyph horiz-adv-x="1130" d="M1030 412q0 -115 -34.5 -198t-97 -137t-147.5 -80t-186 -26q-98 0 -182 22.5t-147.5 73t-99.5 129t-36 191.5v594h314v-559q0 -190 155 -191q76 0 113 41t37 144v565h311v-569zM965 1245q0 -78 -44 -118t-118 -40q-72 0 -117 40t-45 118t45 118t117 40q74 0 118 -40 t44 -118zM489 1245q0 -78 -46 -118t-117 -40q-72 0 -118 40t-46 118t46 118t118 40t117.5 -40t45.5 -118z" />
<glyph horiz-adv-x="1130" d="M1030 412q0 -115 -34.5 -198t-97 -137t-147.5 -80t-186 -26q-98 0 -182 22.5t-147.5 73t-99.5 129t-36 191.5v594h314v-559q0 -190 155 -191q76 0 113 41t37 144v565h311v-569zM209 1124l22 179h701l22 -179h-745z" />
<glyph horiz-adv-x="1130" d="M1030 412q0 -115 -34.5 -198t-97 -137t-147.5 -80t-186 -26q-98 0 -182 22.5t-147.5 73t-99.5 129t-36 191.5v594h314v-559q0 -190 155 -191q76 0 113 41t37 144v565h311v-569zM948 1454q-8 -102 -42 -175t-85 -121t-114.5 -70.5t-131.5 -22.5t-131 22.5t-113 70.5 t-85 121t-43 175l190 -2q16 -92 60.5 -149.5t121.5 -57.5q78 0 122 57.5t61 149.5z" />
<glyph horiz-adv-x="1130" d="M860 1311q2 -102 -75.5 -172t-213.5 -70q-135 0 -211.5 69.5t-76.5 172.5q0 102 76.5 171.5t211.5 69.5t212 -68.5t77 -172.5zM739 1313q0 61 -45 100t-123 39q-76 0 -120.5 -39t-44.5 -100t45 -102.5t120 -41.5q78 0 123 41.5t45 102.5zM1030 412q0 -115 -34.5 -198 t-97 -137t-147.5 -80t-186 -26q-98 0 -182 22.5t-147.5 73t-99.5 129t-36 191.5v594h314v-559q0 -190 155 -191q76 0 113 41t37 144v565h311v-569z" />
<glyph horiz-adv-x="1130" d="M1030 412q0 -115 -34.5 -198t-97 -137t-147.5 -80t-186 -26q-98 0 -182 22.5t-147.5 73t-99.5 129t-36 191.5v594h314v-559q0 -190 155 -191q76 0 113 41t37 144v565h311v-569zM834 1079h-205l293 375h290zM430 1079h-211l252 375h291z" />
<glyph horiz-adv-x="1130" d="M1030 412q0 -166 -71.5 -267.5t-190.5 -142.5q-51 -35 -84 -75t-33 -89q0 -43 20.5 -67.5t65.5 -24.5q29 0 57.5 7t49.5 22l43 -168q-41 -27 -91.5 -43.5t-123.5 -16.5q-111 0 -179.5 56.5t-68.5 154.5q0 70 31.5 120t91.5 93q-94 2 -176 27t-141.5 74t-94.5 126.5 t-35 188.5v594h314v-559q0 -190 155 -191q76 0 113 41t37 144v565h311v-569v0z" />
<glyph horiz-adv-x="1609" d="M981 1079l-170 219h-4l-166 -219h-219l244 383h286l244 -383h-215zM631 0h-320l-266 981h326l121 -645l147 645h336l149 -645l121 645h318l-267 -981h-321l-172 647z" />
<glyph horiz-adv-x="1609" d="M631 0h-320l-266 981h326l121 -645l147 645h336l149 -645l121 645h318l-267 -981h-321l-172 647zM745 1079l-346 379h340l203 -379h-197z" />
<glyph horiz-adv-x="1609" d="M866 1079h-196l202 379h340zM631 0h-320l-266 981h326l121 -645l147 645h336l149 -645l121 645h318l-267 -981h-321l-172 647z" />
<glyph horiz-adv-x="1609" d="M1208 1245q0 -78 -44 -118t-117 -40q-72 0 -117 40t-45 118t45 118t117 40q74 0 117.5 -40t43.5 -118zM733 1245q0 -78 -46 -118t-118 -40t-117.5 40t-45.5 118t46 118t117 40q72 0 118 -40t46 -118zM631 0h-320l-266 981h326l121 -645l147 645h336l149 -645l121 645h318 l-267 -981h-321l-172 647z" />
<glyph horiz-adv-x="1050" d="M680 360v-360h-307v362l-342 619h325l170 -365l166 365h328zM623 1079h-197l203 379h340z" />
<glyph horiz-adv-x="1052" d="M680 360v-360h-307v362l-342 619h325l170 -365l166 365h328zM700 1079l-170 219h-4l-166 -219h-219l244 383h287l243 -383h-215z" />
<glyph horiz-adv-x="1050" d="M680 360v-360h-307v362l-342 619h325l170 -365l166 365h328zM938 1245q0 -78 -44 -118t-118 -40q-72 0 -117 40t-45 118t45.5 118t116.5 40q74 0 118 -40t44 -118zM463 1245q0 -78 -46 -118t-118 -40t-118 40t-46 118t46 118t118 40t118 -40t46 -118z" />
<glyph horiz-adv-x="1032" d="M551 1079h-197l203 379h340zM70 0v199l469 534h-459v248h848v-203l-465 -530h463v-248h-856z" />
<glyph horiz-adv-x="1032" d="M70 0v199l469 534h-459v248h848v-203l-465 -530h463v-248h-856zM686 1231q0 -74 -46 -126t-126 -52q-78 0 -125 52t-47 126q0 72 47 125t125 53q80 0 126 -53t46 -125z" />
<glyph horiz-adv-x="1030" d="M70 0v199l469 534h-459v248h848v-203l-465 -530h463v-248h-856zM657 1079h-286l-244 383h215l170 -221h4l166 221h219z" />
<glyph horiz-adv-x="462" d="M-223 -238h-238l1147 1518h238z" />
<glyph horiz-adv-x="675" d="M63 20l5 132h505l2 -132h-512z" />
<glyph d="M975 633q0 -317 -120 -490.5t-349 -173.5t-343 171t-114 489q0 319 120 491t347 172q229 0 344 -171t115 -488zM690 627q0 129 -14 214t-40 135t-58.5 70.5t-69.5 20.5t-68.5 -19.5t-55.5 -69.5t-38 -134t-14 -213q0 -127 15 -210t40 -132t58.5 -69.5t70.5 -20.5 t68.5 19.5t55.5 68.5t37 132t13 208z" />
<glyph d="M436 963l-289 -62l-8 260l611 125v-1286h-314v963z" />
<glyph d="M68 0l-7 219q141 135 244 229.5t169.5 167t98 133t31.5 125.5q0 70 -47 116t-125 46q-76 0 -147.5 -33.5t-130.5 -84.5l-97 225q80 61 192.5 105t235.5 44q104 0 183.5 -28.5t133.5 -78.5t81.5 -118t27.5 -145q0 -84 -30.5 -158t-94 -151.5t-157.5 -165t-221 -193.5h534 l6 -254h-880z" />
<glyph d="M584 662q92 2 159.5 -19.5t112.5 -61.5t67.5 -95.5t22.5 -116.5q0 -92 -39 -167t-107.5 -126t-161.5 -79t-200 -28q-111 0 -206 24.5t-173 59.5l43 234q72 -29 160 -53.5t166 -24.5q98 0 169 39t71 119q0 66 -63.5 111.5t-196.5 43.5q-53 0 -105.5 -6t-93.5 -12v213 q94 18 169 36.5t127 42t79.5 54.5t27.5 72q0 53 -40 87.5t-126 34.5q-76 0 -156.5 -29.5t-139.5 -72.5l-89 225q80 53 185.5 89t230.5 36q92 0 170 -20.5t133.5 -60.5t86 -99t30.5 -139q0 -113 -79.5 -191.5t-233.5 -119.5z" />
<glyph d="M848 299v-299h-266v299h-531l-14 207l457 768h354v-742h145l6 -233h-151zM590 1044l-305 -522h305v522z" />
<glyph d="M381 770q18 4 49 7t62 3q213 0 329.5 -102.5t116.5 -271.5q0 -96 -32 -176t-93 -137.5t-153.5 -90.5t-215.5 -33q-88 0 -192.5 18.5t-183.5 55.5l28 256q31 -18 70 -33.5t83 -27t90 -18.5t89 -7q94 0 156.5 45t62.5 137q0 84 -65.5 132t-182.5 48q-84 0 -151.5 -13 t-112.5 -34l-41 45l84 693h733l7 -250h-506l-31 -246v0z" />
<glyph d="M47 530q0 141 49 270.5t144.5 232t231.5 174t312 98.5l66 -226q-199 -35 -335 -132t-175 -242l8 -7q59 47 131 83t158 36q72 0 134.5 -26.5t108.5 -76.5t72.5 -122t26.5 -160q0 -96 -30.5 -181t-89 -148.5t-145.5 -99.5t-198 -36q-115 0 -202 43t-146 118t-90 178 t-31 224zM340 438q0 -49 11 -93t35 -78t57.5 -53t80.5 -19q76 0 123 56t47 155q0 88 -46 139t-124 51q-53 0 -101 -23.5t-75 -50.5q-8 -39 -8 -84z" />
<glyph d="M61 1014l7 252h890l7 -224l-529 -1042h-284l516 1014h-607z" />
<glyph d="M987 354q0 -80 -29.5 -150.5t-89 -122.5t-149.5 -82t-211 -30q-106 0 -193.5 24.5t-149 71t-95 112t-33.5 147.5q0 104 69.5 177.5t186.5 112.5q-49 23 -91 50.5t-75 64.5t-51.5 82t-18.5 100q0 82 29 153t87 122t145.5 79.5t203.5 28.5q205 0 325 -95t120 -259 q0 -98 -61.5 -169t-170.5 -109q51 -23 96.5 -51.5t80 -65.5t55 -84.5t20.5 -106.5zM688 918q0 78 -47 126t-123 48q-86 0 -129 -47.5t-43 -112.5q0 -72 56.5 -124t162.5 -85q61 37 92 87.5t31 107.5zM705 342q0 78 -67 132t-177 87q-70 -37 -103.5 -90t-33.5 -111 q0 -76 51 -127t145 -51q92 0 138.5 42t46.5 118z" />
<glyph d="M977 731q0 -141 -49 -269t-144.5 -231.5t-232.5 -174t-311 -97.5l-68 225q199 35 335 132.5t177 240.5l-8 6q-59 -47 -131 -83t-160 -36q-72 0 -133.5 27t-107.5 77t-72.5 121.5t-26.5 159.5q0 98 30.5 182.5t89 148t145.5 99t198 35.5q113 0 201 -43t147 -117.5t90 -178 t31 -224.5zM684 823q0 49 -11 93.5t-35 78t-58.5 53t-79.5 19.5q-78 0 -124 -55.5t-46 -153.5q0 -90 46 -140t124 -50q53 0 101 22.5t75 48.5q4 23 6 43.5t2 40.5z" />
<glyph d="M504 219q86 0 137 33t51 104q0 47 -37 77t-108 56zM588 1497h141l-33 -207q72 -14 133.5 -37.5t114.5 -56.5l-61 -258q-51 31 -109.5 55.5t-118.5 40.5l-43 -270q68 -20 132.5 -50t113.5 -75t80 -108.5t31 -151.5q0 -90 -33 -166t-94.5 -130t-150.5 -84t-204 -30h-22 l-35 -223h-139l37 236q-172 29 -293 104l57 260q59 -35 130 -64.5t145 -45.5l47 294q-63 20 -127 49t-115 74t-84 109.5t-33 157.5q0 178 117 283.5t334 105.5h26.5t24.5 -2zM518 1057q-6 2 -18 2q-86 0 -125 -33t-39 -90q0 -49 39 -79t104 -52z" />
<glyph d="M791 965q102 -23 167 -62l-59 -235q-72 43 -147 63l-45 -262q-10 -49 -17.5 -96t-13.5 -84q-8 -43 -14 -80q72 2 132 22.5t113 53.5l45 -238q-57 -35 -144 -55.5t-185 -22.5l-43 -248h-142l45 259q-180 33 -285.5 155.5t-105.5 333.5q0 119 37 214t104.5 161.5t164 102.5 t214.5 36h20.5t20.5 -2l35 201h139zM612 743q-104 -10 -159.5 -82.5t-55.5 -181.5q0 -88 34 -150.5t95 -92.5z" />
<glyph d="M182 702q-4 43 -7 84t-3 80q0 211 117 328t317 117q86 0 179.5 -20.5t168.5 -61.5l-59 -246q-59 35 -131 56.5t-135 21.5q-94 0 -140.5 -58.5t-46.5 -150.5q0 -31 3.5 -67.5t7.5 -82.5h325l-8 -141h-305q6 -59 6 -119q0 -76 -14 -133q47 -37 103 -59.5t110 -22.5 q29 0 54.5 6.5t46 26t34.5 55t22 93.5l201 -41q-6 -106 -35.5 -182t-76 -123.5t-104.5 -70t-124 -22.5q-49 0 -93 14.5t-84 38t-74 52t-62 59.5q-51 -59 -125 -102t-184 -68q-18 63 -31 117q-12 43 -21.5 80t-9.5 35q111 29 162 75.5t51 132.5q0 37 -4 77t-8 81h-176l-9 141 h162v0z" />
<glyph d="M70 551l-11 141h252l-350 588h344l209 -455l205 455h342l-348 -588h250l-9 -141h-290v-135h290l9 -142h-293v-274h-318v274h-293l11 142h288v135h-288z" />
<glyph horiz-adv-x="1126" d="M61 727l-10 143h172q23 121 71 207t115.5 140.5t150.5 80t179 25.5q104 0 200.5 -22.5t158.5 -57.5l-62 -235q-53 31 -119.5 50t-138.5 19q-92 0 -149.5 -49t-83.5 -158h409l-8 -143h-422q-2 -16 -3 -36.5t-1 -39.5q0 -49 6 -94h359l8 -143h-338q31 -106 92.5 -152.5 t140.5 -46.5q72 0 137.5 18.5t118.5 51.5l48 -238q-59 -37 -152.5 -57.5t-204.5 -20.5q-98 0 -183 23.5t-151.5 76t-112.5 137.5t-67 208h-170l10 143h148q-2 18 -3 37.5t-1 40.5q0 25 1 47.5t3 44.5h-148z" />
<glyph d="M850 971q0 -68 -23.5 -129.5t-67.5 -107.5t-106.5 -72.5t-140.5 -26.5t-140.5 26.5t-106.5 72.5t-67.5 107.5t-23.5 129.5q0 70 23.5 131t67.5 107t106.5 74t140.5 28t140.5 -28t106.5 -74t67.5 -107t23.5 -131zM739 971q0 98 -59 166.5t-168 68.5t-169 -68.5t-60 -166.5 q0 -47 15 -88t45 -74t73 -51.5t96 -18.5t95 18.5t72 51.5t45 74t15 88z" />
<glyph d="M639 371v-348h-252v348h-344l6 237h338v348h252v-348h338l6 -237h-344z" />
<glyph d="M639 559v-287h-252v287h-344l6 238h338v286h252v-286h338l6 -238h-344zM43 0l6 238h928l6 -238h-940z" />
<glyph d="M993 186h-237v275h-684l6 237h915v-512z" />
<glyph d="M88 586l-10 235h868l-10 -235h-848zM78 139l10 236h848l10 -236h-868z" />
<glyph d="M815 20l-303 306l-301 -306l-166 166l305 301l-307 304l166 165l303 -307l305 307l166 -165l-309 -302l307 -303z" />
<glyph d="M43 371l6 237h928l6 -237h-940zM680 111q0 -72 -46 -116t-120 -44t-120 44t-46 116t46 115.5t120 43.5t120 -43.5t46 -115.5zM680 868q0 -72 -46 -115.5t-122 -43.5q-74 0 -119 44t-45 115q0 72 45 116t119 44q76 0 122 -44t46 -116z" />
<glyph d="M913 8l-821 373v203l821 372v-249l-501 -215v-21l501 -213v-250z" />
<glyph d="M96 8v250l502 213v21l-502 215v249l822 -372v-203z" />
<glyph horiz-adv-x="512" d="M119 1436h272v-1846h-272v1846z" />
<glyph horiz-adv-x="512" d="M119 1315h272v-686h-272v686zM119 401h272v-686h-272v686z" />
<glyph d="M907 475q0 -23 -12 -63.5t-29.5 -83.5t-37 -80t-35.5 -53t-53.5 -36t-80.5 -37.5t-83.5 -29.5t-63.5 -12t-62.5 12t-82.5 29.5t-80 37t-51 36.5q-16 16 -36 53t-38.5 80t-30.5 84t-12 63q0 23 12 63t30.5 83t38 79.5t36.5 53.5q14 14 52 34.5t81 38t83 29.5t62 12 q23 0 62.5 -12t82.5 -29.5t80 -38t54 -34.5q14 -16 34.5 -53t38 -80t29.5 -83t12 -63z" />
<glyph d="M905 692q-10 -92 -28.5 -152.5t-47 -96t-66.5 -50t-83 -14.5q-47 0 -93 18.5t-86 40t-73 40t-57 18.5q-27 0 -42.5 -20.5t-23.5 -82.5h-186q8 92 27.5 151.5t48 95.5t65.5 50.5t82 14.5q49 0 94 -18.5t85 -40t74 -40t58 -18.5q27 0 41.5 21.5t22.5 82.5h188v0z" />
<glyph horiz-adv-x="512" d="M33 815l235 506l273 -74l-305 -432h-203z" />
<glyph d="M502 815l235 506l275 -74l-307 -432h-203zM74 815l235 506l273 -74l-306 -432h-202z" />
<glyph d="M797 -543q-109 57 -217.5 153.5t-194.5 226.5t-140.5 292t-54.5 352q0 188 54.5 350t140.5 293t194.5 227.5t217.5 153.5l166 -215q-92 -55 -177.5 -136t-151 -184.5t-105.5 -226t-40 -262.5q0 -139 40 -262t105.5 -226.5t150.5 -184t178 -136.5l-166 -215v0z" />
<glyph d="M61 -328q90 55 175.5 136t152 184.5t106.5 226.5t40 262t-40 262t-106.5 226.5t-151.5 184.5t-176 136l164 215q109 -57 217.5 -153.5t195.5 -227.5t141.5 -292.5t54.5 -350.5q0 -190 -54.5 -352t-141.5 -292t-195.5 -226t-217.5 -154z" />
<glyph d="M225 -420v1837h697v-233h-416v-1372h416v-232h-697z" />
<glyph d="M100 -188h416v1372h-416v233h699v-1837h-699v232z" />
<glyph d="M283 573l-156 213l309 115v19l-305 116l154 213l200 -260l17 6l22 328l248 -82l-188 -274l12 -13l311 88v-262l-311 88l-10 -14l182 -276l-250 -80l-14 329l-19 4z" />
<glyph d="M891 -434q-133 2 -242.5 14t-187.5 42t-120 82t-42 136q0 63 10 115.5t23.5 98.5t24 86t10.5 81q0 74 -60.5 109t-189.5 45l-6 133l6 131q129 10 189.5 41t60.5 106q0 39 -10.5 81t-24 89.5t-23.5 100.5t-10 117q0 84 42 136t120 82.5t187.5 43t242.5 16.5v-192 q-164 -12 -227.5 -43t-63.5 -95q0 -33 8 -68.5t19.5 -78.5t19.5 -94.5t8 -112.5q0 -104 -81.5 -173t-217.5 -77v-20q135 -10 217 -80t82 -174q0 -61 -8 -109.5t-19.5 -89.5t-19.5 -77t-8 -70q0 -68 63.5 -101t227.5 -43v-188v0z" />
<glyph d="M907 375q-129 -10 -189.5 -45t-60.5 -109q0 -41 10.5 -81t22.5 -86t22.5 -98t10.5 -116q0 -84 -42 -136t-119 -82t-186.5 -42t-242.5 -14v188q162 10 226.5 43t64.5 101q0 35 -8 70.5t-19.5 76.5t-19.5 89t-8 110q0 104 81.5 173.5t217.5 80.5v20q-135 8 -217 77t-82 173 q0 61 8 112.5t19.5 94.5t19.5 79t8 68q0 63 -64.5 94t-226.5 44v192q133 -4 242.5 -16.5t186.5 -43t119 -83t42 -135.5q0 -63 -10.5 -116.5t-22.5 -101t-22.5 -89.5t-10.5 -81q0 -76 60.5 -106.5t189.5 -40.5l6 -131z" />
<glyph d="M997 612q0 -84 -46 -145t-134 -96q47 -35 78 -81t31 -112t-28 -122t-81 -99t-130 -67.5t-177 -24.5q-47 0 -99.5 6t-104.5 16.5t-100 26.5t-85 37l59 223q78 -43 167 -66.5t167 -23.5q127 0 127 80q0 23 -19.5 39t-51 30.5t-74.5 25.5t-90 24q-63 16 -130 36.5t-120.5 52 t-88 82t-34.5 124.5q0 88 52 150.5t142 92.5q-43 35 -69.5 80t-26.5 111q0 135 105.5 220t295.5 85q43 0 93.5 -5t100.5 -15.5t97 -26t82 -35.5l-59 -223q-78 41 -164 63.5t-152 22.5q-115 0 -114 -72q0 -25 19.5 -41t51 -29.5t73.5 -24.5t89 -26q61 -18 124 -40.5 t112 -56.5t80.5 -82t31.5 -114zM762 545q0 43 -40 71.5t-101.5 51t-136 44t-144.5 52.5q-29 -23 -50.5 -55.5t-21.5 -67.5q0 -41 40 -68.5t102.5 -50t137.5 -44t146 -50.5q27 18 47.5 50t20.5 67z" />
<glyph d="M664 410q-10 -4 -29 -5.5t-31 -1.5q-279 0 -415 116t-136 327q0 205 147.5 319.5t426.5 114.5h311v-1425h-274v555v0z" />
<glyph horiz-adv-x="512" d="M451 156q0 -84 -53.5 -135.5t-139.5 -51.5q-88 0 -141.5 51.5t-53.5 135.5q0 86 53.5 136t141.5 50q86 0 139.5 -50t53.5 -136z" />
<glyph horiz-adv-x="512" d="M20 162q10 84 71 135t149 51q53 0 98 -21.5t78 -57.5t51 -84t18 -99q0 -70 -28.5 -130t-76.5 -112.5t-110.5 -95.5t-130.5 -80l-139 123q86 59 145.5 112.5t59.5 104.5q0 41 -39.5 76t-145.5 78z" />
<glyph horiz-adv-x="512" d="M451 733q0 -84 -53.5 -135t-139.5 -51q-88 0 -141.5 51t-53.5 135t53.5 135.5t141.5 51.5q86 0 139.5 -51.5t53.5 -135.5zM451 156q0 -84 -53.5 -135.5t-139.5 -51.5q-88 0 -141.5 51.5t-53.5 135.5q0 86 53.5 136t141.5 50q86 0 139.5 -50t53.5 -136z" />
<glyph horiz-adv-x="512" d="M451 733q0 -84 -53.5 -135t-139.5 -51q-88 0 -141.5 51t-53.5 135t53.5 135.5t141.5 51.5q86 0 139.5 -51.5t53.5 -135.5zM20 162q10 84 71 135t149 51q53 0 98 -21.5t78 -57.5t51 -84t18 -99q0 -70 -28.5 -130t-76.5 -112.5t-110.5 -95.5t-130.5 -80l-139 123 q86 59 145.5 112.5t59.5 104.5q0 41 -39.5 76t-145.5 78z" />
<glyph horiz-adv-x="743" d="M618 25l-567 325v256l567 328l54 -201l-338 -254v-4l338 -252z" />
<glyph horiz-adv-x="743" d="M125 23l-53 200l338 252v4l-338 252l53 201l567 -326v-256z" />
<glyph horiz-adv-x="1239" d="M1145 25l-527 325v256l527 328l51 -201l-287 -254v-4l287 -252zM545 45l-510 311v246l510 309l55 -194l-281 -238v-4l281 -235z" />
<glyph horiz-adv-x="1249" d="M705 45l-54 195l279 235v4l-279 238l54 194l512 -309v-246zM106 25l-51 198l287 252v4l-287 254l51 201l525 -328v-256z" />
<glyph horiz-adv-x="512" d="M455 524q0 -84 -53.5 -135t-139.5 -51q-88 0 -141 51t-53 135q0 86 53 136.5t141 50.5q86 0 139.5 -50.5t53.5 -136.5z" />
<glyph horiz-adv-x="761" d="M57 371v252h652v-252h-652z" />
<glyph horiz-adv-x="1077" d="M51 373l6 239h965l6 -239h-977z" />
<glyph horiz-adv-x="2039" d="M51 373l6 239h1928l6 -239h-1940z" />
<glyph horiz-adv-x="1536" d="M770 1196l586 -1104h-1176zM768 815l-260 -534h520z" />
<glyph horiz-adv-x="1536" d="M1401 639l-1104 -586v1176zM1020 641l-535 260v-520z" />
<glyph horiz-adv-x="1536" d="M1356 1196l-586 -1104l-590 1104h1176zM508 1008l260 -535l260 535h-520z" />
<glyph horiz-adv-x="1536" d="M1237 53l-1104 586l1104 590v-1176zM1049 901l-535 -260l535 -260v520z" />
<glyph horiz-adv-x="1536" d="M770 1196l586 -1104h-1176z" />
<glyph horiz-adv-x="1536" d="M1401 639l-1104 -586v1176z" />
<glyph horiz-adv-x="1536" d="M1356 1196l-586 -1104l-590 1104h1176z" />
<glyph horiz-adv-x="1536" d="M1237 53l-1104 586l1104 590v-1176z" />
<glyph horiz-adv-x="1536" d="M647 881l-315 -420l-264 203l686 669h28l686 -669l-262 -203l-317 420l57 -926h-354z" />
<glyph horiz-adv-x="1536" d="M586 201l420 317l-926 -57v354l926 -57l-420 317l205 262l667 -684v-30l-667 -684z" />
<glyph horiz-adv-x="1536" d="M66 616l264 203l315 -420l-55 926h354l-55 -926l315 420l262 -203l-684 -669h-30z" />
<glyph horiz-adv-x="1536" d="M72 623v30l669 684l203 -262l-420 -317l926 57v-354l-926 57l420 -317l-203 -262z" />
<glyph d="M940 854v-854h-856v854h856zM831 750h-641v-641h641v641z" />
<glyph d="M940 854v-854h-856v854h856zM754 670h-484v-484h484v484z" />
<glyph d="M940 854v-854h-856v854h856zM772 764l76 -76v76h-76zM715 764h-133l266 -266v131zM524 764h-131l455 -455v131zM336 764h-131l643 -643v131zM176 735v-133l512 -508h131zM176 545v-131l322 -320h131zM176 354v-131l131 -129h131zM176 168v-74h74z" />
<glyph d="M84 854h856v-854h-856v854z" />
<glyph horiz-adv-x="1536" d="M1409 0h-1282v1282h1282v-1282zM1296 1169h-1056v-1056h1056v1056z" />
<glyph horiz-adv-x="1536" d="M1409 0h-1282v1282h1282v-1282zM362 236h812v811h-812v-811z" />
<glyph horiz-adv-x="1536" d="M1409 0h-1282v1282h1282v-1282zM1296 1169h-159l159 -159v159zM1296 956l-213 213h-237l450 -450v237zM1296 666l-503 503h-238l741 -741v238zM1296 377l-792 792h-238l1030 -1030v238zM1272 113l-1032 1032v-238l794 -794h238zM240 616l503 -503h238l-741 741v-238z M690 113l-450 450v-237l213 -213h237zM240 113h163l-163 163v-163z" />
<glyph horiz-adv-x="1536" d="M1409 0h-1282v1282h1282v-1282z" />
<glyph d="M512 -20q-94 0 -176 34.5t-142.5 95t-95.5 142.5t-35 176t35 175t95.5 141.5t142.5 95t176 34.5t176 -34.5t142.5 -95t95.5 -141.5t35 -175t-35 -176t-95.5 -142.5t-142.5 -95t-176 -34.5zM852 428q0 72 -25.5 134.5t-71.5 109.5t-108.5 73.5t-134.5 26.5t-134.5 -26.5 t-108.5 -73.5t-71.5 -109.5t-25.5 -134.5t25.5 -134.5t71.5 -109.5t108.5 -73.5t134.5 -26.5t134.5 26.5t108.5 73.5t71.5 109.5t25.5 134.5z" />
<glyph d="M512 -20q-94 0 -176 34.5t-142.5 95t-95.5 142.5t-35 176t35 175t95.5 141.5t142.5 95t176 34.5t176 -34.5t142.5 -95t95.5 -141.5t35 -175t-35 -176t-95.5 -142.5t-142.5 -95t-176 -34.5zM770 428q0 53 -19.5 101.5t-54 84t-82 56t-102.5 20.5t-102.5 -20.5t-82 -56 t-54 -84t-19.5 -101.5q0 -55 19.5 -102t54 -83t82 -56.5t102.5 -20.5t102.5 20.5t82 56.5t54 83t19.5 102z" />
<glyph d="M512 -20q-94 0 -176 34.5t-142.5 95t-95.5 142.5t-35 176t35 175t95.5 141.5t142.5 95t176 34.5t176 -34.5t142.5 -95t95.5 -141.5t35 -175t-35 -176t-95.5 -142.5t-142.5 -95t-176 -34.5zM770 690q-41 41 -93 67.5t-114 35.5l309 -310q-8 61 -34.5 113.5t-67.5 93.5z M500 797q-29 -2 -57.5 -7.5t-55.5 -15.5l467 -469q10 29 15 57.5t8 57.5zM346 758q-23 -10 -42 -24.5t-36 -31.5l518 -520q35 35 54 80zM238 674q-35 -35 -54 -82l496 -494q23 10 42 24.5t36 31.5zM168 549q-16 -49 -21 -113l377 -377q63 0 113 21zM152 373 q8 -63 36.5 -117.5t71.5 -95.5q41 -39 91 -64.5t110 -34.5z" />
<glyph d="M512 -20q-94 0 -176 34.5t-142.5 95t-95.5 142.5t-35 176t35 175t95.5 141.5t142.5 95t176 34.5t176 -34.5t142.5 -95t95.5 -141.5t35 -175t-35 -176t-95.5 -142.5t-142.5 -95t-176 -34.5z" />
<glyph horiz-adv-x="1536" d="M1440 641q0 -141 -51.5 -263t-142.5 -213t-214 -143.5t-264 -52.5t-264 52.5t-214 143.5t-142.5 213t-51.5 263t51.5 263t142.5 213t214 143.5t264 52.5t264 -52.5t214 -143.5t142.5 -213t51.5 -263zM768 76q119 0 221.5 44t177 120.5t117.5 180t43 220.5t-43 220.5 t-117.5 180t-177 120.5t-221.5 44t-221.5 -44t-177 -120.5t-117.5 -180t-43 -220.5t43 -220.5t117.5 -180t177 -120.5t221.5 -44z" />
<glyph horiz-adv-x="1536" d="M1440 641q0 -141 -51.5 -263t-142.5 -213t-214 -143.5t-264 -52.5t-264 52.5t-214 143.5t-142.5 213t-51.5 263t51.5 263t142.5 213t214 143.5t264 52.5t264 -52.5t214 -143.5t142.5 -213t51.5 -263zM768 1083q-92 0 -172 -34.5t-138.5 -95t-92 -140.5t-33.5 -172 t33.5 -172t92 -140.5t138.5 -95t172 -34.5t172 34.5t138.5 95t92 140.5t33.5 172t-33.5 172t-92 140.5t-138.5 95t-172 34.5z" />
<glyph horiz-adv-x="1536" d="M1440 641q0 -141 -51.5 -263t-142.5 -213t-214 -143.5t-264 -52.5t-264 52.5t-214 143.5t-142.5 213t-51.5 263t51.5 264t142.5 214t214 144.5t264 53.5t264 -53.5t214 -144.5t142.5 -214t51.5 -264zM1325 690q-8 104 -50 194.5t-109.5 159t-159 110.5t-195.5 50z M1288 434q35 92 39 201l-571 571q-109 -4 -199 -39l367 -366q68 -70 133 -135.5t117 -116.5q59 -62 114 -115zM1180 256q57 59 94 141q-55 53 -117 117q-53 53 -119.5 120.5t-138.5 139.5l-377 377q-78 -37 -139 -98zM1016 131q78 37 139 98l-799 799q-29 -31 -52 -66.5 t-42 -76.5zM246 848q-33 -92 -37 -201l571 -571q53 0 102.5 10t96.5 29zM211 592q8 -104 50 -194.5t109.5 -159t159 -110.5t195.5 -50z" />
<glyph horiz-adv-x="1536" d="M1440 641q0 -141 -51.5 -263t-142.5 -213t-214 -143.5t-264 -52.5t-264 52.5t-214 143.5t-142.5 213t-51.5 263t51.5 263t142.5 213t214 143.5t264 52.5t264 -52.5t214 -143.5t142.5 -213t51.5 -263z" />
<glyph horiz-adv-x="1552" d="M1194 303l141 -387l-387 141l-174 -370l-172 368l-383 -139l139 383l-370 176l370 170l-139 387l383 -141l176 371l170 -371l387 141l-141 -387l369 -168zM1087 602l103 285l-285 -103l-129 273l-129 -273l-285 103l105 -285l-274 -129l274 -129l-105 -283l285 105 l127 -277l131 277l285 -105l-103 287l271 127z" />
</font>
</defs>
</svg>
