<?xml version="1.0" standalone="no"?>
<!DOCTYPE svg PUBLIC "-//W3C//DTD SVG 1.1//EN" "http://www.w3.org/Graphics/SVG/1.1/DTD/svg11.dtd" >
<svg xmlns="http://www.w3.org/2000/svg" xmlns:xlink="http://www.w3.org/1999/xlink" version="1.1">
<metadata></metadata>
<defs>
<font id="freightdisp_prolight" horiz-adv-x="1536" >
<font-face units-per-em="2048" ascent="1638" descent="-410" />
<missing-glyph horiz-adv-x="368" />
<glyph unicode="&#xfb00;" horiz-adv-x="1077" d="M47 29l72 4q33 2 47 5t14 19v748l-151 4l16 65h131l4 37q8 111 42 194t86 139t120 85t145 29q78 0 115 -27.5t37 -73.5q0 -27 -18.5 -48t-51.5 -21q-18 0 -36.5 9t-32 25.5t-20.5 38t-5 46.5l-55 16q-117 -23 -167 -122t-50 -269v-58h413l3 48q8 111 41.5 195.5t84 143 t113 88t127.5 29.5q55 0 90 -25.5t35 -66.5q0 -27 -20.5 -48t-51.5 -21q-37 0 -67.5 28.5t-36.5 69.5l-2 14l-33 4q-92 -33 -132 -132t-40 -253v-74h234l-19 -69h-215v-752q0 -10 9 -14t57 -6l104 -4l6 -29h-422l6 29l72 4q35 2 48.5 5t13.5 19v750h-418v-754q0 -10 7 -14 t58 -6l105 -4l6 -29h-424z" />
<glyph unicode="&#xfb01;" horiz-adv-x="985" d="M47 29l72 4q33 2 47 5t14 19v748l-151 4l16 65h131l4 52q8 111 43 195.5t90.5 142t126 86t150.5 28.5q82 0 129 -32.5t47 -88.5q0 -27 -20.5 -48t-51.5 -21q-45 0 -74.5 38t-25.5 97l-82 20q-115 -23 -169 -122t-54 -271v-76h391l133 27v-848q0 -10 13.5 -13t64.5 -7 l65 -4l5 -29h-394l6 29l72 4q35 2 48.5 5t13.5 19v750h-418v-754q0 -10 7 -14t58 -6l105 -4l6 -29h-424z" />
<glyph unicode="&#xfb02;" horiz-adv-x="987" d="M813 1393v-1340q0 -10 13.5 -14t64.5 -6l65 -4l5 -29h-394l6 29l70 4q35 2 49.5 5t14.5 19v750h-418v-754q0 -10 7 -14t58 -6l105 -4l6 -29h-424l6 29l72 4q33 2 47 5t14 19v748l-151 4l16 65h131l4 52q8 111 43 195.5t90.5 142t125 86t149.5 28.5q92 0 139 -35z M707 1192h-5q-47 0 -76.5 35t-29.5 92l-84 24q-117 -23 -170 -122t-53 -271v-76h418v318z" />
<glyph unicode="&#xfb03;" horiz-adv-x="1505" d="M47 29l72 4q33 2 47 5t14 19v748l-151 4l16 65h131l4 37q8 111 42 194t86 139t120 85t145 29q78 0 115 -27.5t37 -73.5q0 -27 -18.5 -48t-51.5 -21q-39 0 -68.5 36t-25.5 83l-55 16q-117 -23 -167 -122t-50 -269v-58h413l3 52q8 111 43.5 194.5t91 141t126 87t150.5 29.5 q82 0 129 -32.5t47 -88.5q0 -27 -21.5 -48t-49.5 -21q-47 0 -77 38t-26 97l-78 20q-117 -23 -172 -123t-55 -270v-76h391l135 27v-848q0 -10 13.5 -13t62.5 -7l66 -4l6 -29h-393l6 27l71 4q35 4 48.5 7t13.5 19v750h-420v-754q0 -10 7 -14t59 -6l104 -4l6 -29h-422l6 29 l72 4q35 2 48.5 5t13.5 19v750h-418v-754q0 -10 7 -14t58 -6l105 -4l6 -29h-424z" />
<glyph unicode="&#xfb04;" horiz-adv-x="1513" d="M1339 1393v-1340q0 -10 13.5 -14t62.5 -6l66 -4l6 -29h-393l6 29l69 4q35 2 49.5 5t14.5 19v750h-420v-754q0 -10 7 -14t59 -6l104 -4l6 -29h-422l6 29l72 4q35 2 48.5 5t13.5 19v750h-418v-754q0 -10 7 -14t58 -6l105 -4l6 -29h-424l6 29l72 4q33 2 47 5t14 19v748 l-151 4l16 65h131l4 37q8 111 42 194t86 139t120 85t145 29q78 0 115 -27.5t37 -73.5q0 -27 -18.5 -48t-51.5 -21q-18 0 -36.5 9t-32 25.5t-20.5 38t-5 46.5l-55 16q-117 -23 -167 -122t-50 -269v-58h413l3 52q8 111 43.5 194.5t90 141t125 87t150.5 29.5q92 0 139 -35z M1233 1192h-6q-45 0 -75 35t-30 92l-86 24q-115 -23 -169 -123t-54 -270v-76h420v318z" />
<glyph horiz-adv-x="0" />
<glyph unicode="&#xd;" horiz-adv-x="368" />
<glyph horiz-adv-x="0" />
<glyph horiz-adv-x="0" />
<glyph unicode=" "  horiz-adv-x="368" />
<glyph unicode="&#x09;" horiz-adv-x="368" />
<glyph unicode="&#xa0;" horiz-adv-x="368" />
<glyph unicode="!" horiz-adv-x="483" d="M172 1206q-2 16 -3 35t5 34t19.5 25.5t37.5 10.5h29q25 0 38 -10.5t17 -25.5t4 -33.5t-2 -35.5l-59 -827q-2 -10 -12 -10t-13 10zM246 -31q-43 0 -72 30t-29 64q0 35 29 63t72 28q41 0 66.5 -27t25.5 -64q0 -35 -25.5 -64.5t-66.5 -29.5z" />
<glyph unicode="&#x22;" horiz-adv-x="595" d="M520 1325h2l80 -35l-311 -465h-15zM256 1325h4l78 -35l-309 -465h-17z" />
<glyph unicode="#" horiz-adv-x="1046" d="M256 389h-281v29h287l117 438h-281v31h289l109 407h32l-108 -407h348l106 407h35l-108 -407h280v-31h-288l-115 -438h278v-29h-286l-107 -399h-33l107 399h-348l-105 -399h-34zM643 418l117 438h-346l-117 -438h346z" />
<glyph unicode="$" horiz-adv-x="911" d="M268 -16q-53 8 -102 20t-90 29l-33 301h31l45 -146q59 -109 162 -155l157 594l-4 2q-68 23 -127 50.5t-105 67t-73 93t-27 125.5q0 74 28 137t78 108t119.5 71t155.5 26q72 0 131 -13l60 222h33l-62 -230q41 -10 62 -20l94 26l24 -319h-32l-109 241q-10 8 -22.5 15.5 t-28.5 13.5l-133 -502q4 0 5 -1t3 -1q72 -25 138.5 -56.5t116.5 -75.5t79.5 -105.5t29.5 -147.5q0 -82 -33.5 -151.5t-92 -120.5t-138.5 -81t-172 -30q-33 0 -66.5 2t-68.5 7l-84 -316h-33zM604 1255q-29 10 -60.5 15.5t-68.5 5.5q-66 0 -118 -19.5t-89 -53.5t-56 -80 t-19 -97q0 -55 19 -96t56 -73t88.5 -56.5t114.5 -48.5zM311 23q57 -18 131 -19q76 0 137.5 21.5t105.5 60.5t67.5 92t23.5 119q0 121 -75.5 192.5t-233.5 126.5q-12 -43 -25 -92q-10 -41 -24.5 -95t-28.5 -110q-35 -130 -78 -296z" />
<glyph unicode="%" horiz-adv-x="1216" d="M301 748q-66 0 -117 22.5t-87 61t-55 90t-19 108.5t19 109.5t55 91.5t87.5 62.5t116.5 23.5q66 0 118 -23.5t89 -62.5t56.5 -91.5t19.5 -109.5t-19.5 -108.5t-56.5 -90t-89 -61t-118 -22.5zM1049 1311h45l-930 -1340h-45zM913 -35q-66 0 -117 22.5t-86.5 61.5t-55 90 t-19.5 109q0 57 19.5 109.5t55 91t87 62.5t116.5 24q66 0 118 -24t88 -62.5t55.5 -91t19.5 -109.5t-19.5 -108.5t-55.5 -90.5t-88 -61.5t-118 -22.5zM301 784q55 0 99 19.5t76 53.5t48.5 78t16.5 95t-16.5 96t-48.5 79t-76 54.5t-99 20.5t-99 -20.5t-75 -54.5t-47.5 -79 t-16.5 -96t16.5 -95t47.5 -78t75 -53.5t99 -19.5zM913 4q55 0 99.5 19.5t76 52.5t48 78t16.5 96q0 49 -16.5 94t-48 79t-75.5 54.5t-100 20.5q-55 0 -99 -20.5t-74.5 -54.5t-47 -79t-16.5 -94q0 -51 16.5 -96t47 -78t74.5 -52.5t99 -19.5z" />
<glyph unicode="&#x26;" horiz-adv-x="1390" d="M373 -29q-76 0 -138.5 28t-108.5 75t-71.5 109.5t-25.5 133.5q0 68 25.5 134.5t73.5 125t116.5 104.5t154.5 77q-88 49 -142 111.5t-54 148.5q0 47 22.5 99t63.5 95t98 71t127 28q74 0 129 -21.5t92 -56.5t55.5 -78t18.5 -86q0 -74 -62.5 -150.5t-199.5 -123.5 q51 -27 104.5 -69t101.5 -91t89 -102.5t71 -104.5q43 53 83 106.5t71 98.5t48.5 75.5t17.5 41.5q2 16 -25 30.5t-100 22.5l-58 6l-6 29h440l-6 -29l-53 -6q-35 -2 -55.5 -8.5t-35.5 -18.5t-30.5 -31.5t-40.5 -50.5l-231 -291q53 -102 91 -170.5t69.5 -110.5t61.5 -60.5 t67 -18.5q27 0 53 11.5t47.5 27.5t39 33.5t30.5 31.5l20 -20q-18 -23 -43 -49.5t-56.5 -50t-68.5 -40t-80 -16.5q-37 0 -70.5 12.5t-70.5 49.5t-78 102.5t-90 169.5q-55 -68 -107.5 -129t-109.5 -106t-120.5 -72t-143.5 -27zM516 805q109 51 149 113.5t40 144.5 q0 41 -15.5 80t-42 68.5t-63.5 48t-80 18.5t-79 -16.5t-61.5 -46t-41 -67.5t-15.5 -81q0 -92 49 -151.5t160 -110.5zM449 61q59 0 108 20.5t95 56.5t90 85t94 109q-80 145 -182.5 252.5t-223.5 158.5q-141 -57 -212 -158.5t-71 -205.5q0 -70 21.5 -128t60.5 -100t95.5 -66 t124.5 -24z" />
<glyph unicode="'" horiz-adv-x="305" d="M256 1325h4l78 -35l-309 -465h-17z" />
<glyph unicode="(" horiz-adv-x="696" d="M668 -553q-82 45 -175.5 129t-173 204t-133 274.5t-53.5 338.5q0 186 53.5 341t133 274.5t173 202.5t175.5 126q4 -6 8 -14q4 -6 7 -11t3 -7q-80 -43 -170 -125t-165 -199t-125 -265.5t-50 -322.5q0 -176 50 -324.5t125 -265t165 -198.5t170 -125q0 -2 -3 -7t-7 -12 q-4 -8 -8 -14z" />
<glyph unicode=")" horiz-adv-x="696" d="M31 -553q-6 6 -11 14q-10 14 -10 19q80 43 170 125t165 198.5t125 265t50 324.5q0 174 -50 322.5t-125 265.5t-165 199t-170 125q0 4 10 18q4 8 11 14q80 -43 173 -126t173 -202.5t133 -274t53 -341.5q0 -184 -53 -338.5t-133 -274.5t-173 -204t-173 -129z" />
<glyph unicode="*" horiz-adv-x="645" d="M326 780l-13 189q0 4 -6 7t-8 -1l-119 -144l-114 -28q-2 0 -7.5 6t-5.5 8l64 103l172 67q4 4 4 10.5t-4 8.5l-172 71l-66 99q-2 4 2 10t8 6l119 -25l117 -151q2 -4 10 -1t8 7l19 195l74 86q4 2 11 -1.5t5 -3.5l16 -116l-112 -166q-2 -4 3 -11.5t7 -5.5l190 50l107 -50 q4 2 4 -6t-4 -10l-107 -45l-190 49q-2 2 -7 -5t-3 -11l104 -164l-8 -115q-2 0 -10 -2t-11 -2z" />
<glyph unicode="+" horiz-adv-x="917" d="M436 461h-405l6 45h399v405h45v-405h400l6 -45h-406v-406h-45v406z" />
<glyph unicode="," horiz-adv-x="342" d="M49 -227q25 16 52.5 36.5t49 48t36 62.5t14.5 78q0 33 -14.5 56.5t-35 35.5t-43 14t-40.5 -6q-16 39 6 76t80 37q59 0 99 -43t40 -113q0 -47 -18.5 -91t-50 -83t-73.5 -71.5t-88 -53.5z" />
<glyph unicode="-" horiz-adv-x="602" d="M55 522h498l-2 -57h-502z" />
<glyph unicode="." horiz-adv-x="374" d="M188 -27q-43 0 -70.5 28t-27.5 67q0 35 27.5 63.5t70.5 28.5q41 0 68 -29t27 -63q0 -39 -27 -67t-68 -28z" />
<glyph unicode="/" horiz-adv-x="528" d="M463 1309h39l-432 -1792h-39z" />
<glyph unicode="0" horiz-adv-x="1083" d="M541 -25q-102 0 -187.5 38t-149 105.5t-98 161t-34.5 201.5q0 109 35.5 202t99 161.5t150.5 107.5t188 39q100 0 185 -39t147.5 -106.5t98.5 -160.5t36 -200q0 -111 -35 -205t-98.5 -161.5t-149.5 -105.5t-188 -38zM547 8q76 0 138.5 36t108.5 97.5t71.5 146.5t25.5 183 q0 106 -25.5 194.5t-71.5 152t-111 99t-144 35.5q-74 0 -137.5 -34.5t-109.5 -95t-72.5 -142.5t-26.5 -176q0 -115 24.5 -206t69.5 -155.5t110.5 -99.5t149.5 -35z" />
<glyph unicode="1" horiz-adv-x="647" d="M123 31l102 6q37 2 51.5 7t14.5 22v829l-223 16l6 23l319 49v-922q0 -10 13.5 -15t66.5 -9l94 -6l6 -31h-456z" />
<glyph unicode="2" horiz-adv-x="866" d="M45 35q156 129 260.5 220t167 161.5t89 131t26.5 128.5q0 94 -55.5 157.5t-155.5 63.5q-90 0 -157.5 -43t-125.5 -139l-20 12q61 119 153 190.5t205 71.5q55 0 104.5 -18.5t86 -51t58 -78.5t21.5 -100q0 -74 -33.5 -142.5t-99 -142t-165 -158.5t-228.5 -192v-4 q102 -2 184 -2h211q51 0 87 11.5t60.5 35t42 60.5t34.5 86l16 51l27 -2l-64 -342h-723z" />
<glyph unicode="3" horiz-adv-x="804" d="M223 -412q-59 0 -99 12.5t-64.5 32t-35 43t-10.5 48.5q0 39 26 62.5t60 23.5q55 0 83 -49.5t18 -114.5q6 0 30.5 -7.5t49.5 -7.5q66 0 130 22.5t114 68t82 113t32 157.5q0 59 -18.5 111.5t-55.5 91t-92 61.5t-129 23q-47 0 -94 -14.5t-86 -31.5l-12 21q96 63 169.5 114.5 t124 98.5t76 97t25.5 114q0 94 -60.5 158.5t-164.5 64.5q-168 0 -269 -182l-20 16q59 123 150 188.5t208 65.5q57 0 105.5 -19.5t84 -54t56 -82t20.5 -100.5q0 -59 -23.5 -109.5t-62.5 -94.5t-90 -82.5t-106 -75.5v-2q178 2 276.5 -89.5t98.5 -240.5q0 -86 -40 -168 t-111 -144.5t-167 -100.5t-209 -38z" />
<glyph unicode="4" horiz-adv-x="909" d="M561 35h-538l-3 24l617 914h27v-846l237 -4l-31 -88h-206v-412h-103v412zM561 127v672h-2l-455 -672h457z" />
<glyph unicode="5" horiz-adv-x="774" d="M170 -412q-96 0 -147.5 31t-51.5 90q0 35 24.5 56.5t61.5 21.5q49 0 75 -43t30 -96q20 -6 41.5 -10.5t44.5 -4.5q63 0 125.5 30t112 81t80 118.5t30.5 141.5q0 82 -35 150.5t-99.5 123t-156.5 93.5t-205 61l138 531h485l-21 -113h-458l-84 -322q252 -49 392 -170.5 t140 -296.5q0 -90 -41 -175t-111.5 -150.5t-165.5 -106.5t-204 -41z" />
<glyph unicode="6" horiz-adv-x="956" d="M492 -25q-96 0 -175 37t-136.5 103.5t-88.5 160t-31 205.5q0 154 64.5 299.5t177.5 263t266.5 196.5t333.5 97l10 -20q-156 -27 -278.5 -97.5t-213.5 -169t-147.5 -217t-78.5 -239.5l4 -4q66 82 159 136t193 54q82 0 147.5 -30.5t111.5 -82t70.5 -121t24.5 -145.5 q0 -96 -34.5 -173.5t-92 -134t-132 -87.5t-154.5 -31zM500 6q63 0 115.5 24.5t90 70.5t58 110.5t20.5 144.5q0 76 -22.5 140.5t-60 111.5t-91 73t-114.5 26q-86 0 -163 -38t-138 -112q-4 -16 -6.5 -44t-2.5 -50q0 -96 23.5 -180t65.5 -145.5t99.5 -96.5t125.5 -35z" />
<glyph unicode="7" horiz-adv-x="845" d="M760 848v10h-522q-35 0 -57.5 -7t-38 -24.5t-27 -44t-21.5 -65.5q-4 -14 -8 -23q-4 -10 -6 -16t-2 -10h-17q-6 0 -10 2l35 293h733l4 -27l-549 -1315h-100z" />
<glyph unicode="8" horiz-adv-x="919" d="M453 -27q-82 0 -153 26t-123 71t-81.5 105.5t-29.5 129.5q0 55 23.5 107.5t64.5 96.5t98 79t123 57v2q-57 31 -106.5 62.5t-86.5 69.5t-57.5 84t-20.5 104q0 68 29 129t78 109t115.5 77t142.5 29q74 0 137.5 -24.5t110.5 -67.5t74.5 -100.5t27.5 -125.5q0 -92 -72.5 -174 t-185.5 -133v-2q61 -33 115.5 -67.5t93.5 -75.5t61.5 -93.5t22.5 -117.5q0 -76 -30.5 -141.5t-84 -112.5t-127 -75t-159.5 -28zM537 696q78 47 128 120t50 165q0 63 -20.5 117.5t-56.5 94.5t-86 62.5t-108 22.5q-53 0 -98 -19.5t-77.5 -53.5t-52 -79t-19.5 -94 q0 -63 26.5 -112.5t72.5 -88t107.5 -71.5t133.5 -64zM483 4q127 0 205 75t78 191q0 68 -30.5 121t-81 96t-116 78t-135.5 68q-96 -41 -163.5 -124t-67.5 -194q0 -139 82 -225t229 -86z" />
<glyph unicode="9" horiz-adv-x="956" d="M41 -344q156 27 278.5 96.5t214 166.5t148.5 215t80 241h-6q-66 -80 -157 -135.5t-191 -55.5q-84 0 -149.5 32t-111 85t-70 123t-24.5 147q0 94 35 172t92.5 134.5t132 87t154.5 30.5q94 0 173 -37.5t135 -105.5t87 -162t31 -207q0 -154 -64.5 -298t-177 -259.5 t-266.5 -193.5t-332 -97zM459 260q178 0 301 148q4 20 8 45.5t4 52.5q0 94 -24.5 178t-66.5 146.5t-100.5 98.5t-125.5 36q-63 0 -115.5 -25t-90.5 -71t-58.5 -109.5t-20.5 -138.5q0 -78 22.5 -144.5t60.5 -115t91.5 -75t114.5 -26.5z" />
<glyph unicode=":" horiz-adv-x="370" d="M188 606q-43 0 -70.5 30t-27.5 66q0 35 27.5 63t70.5 28q41 0 68 -28t27 -63q0 -37 -27 -66.5t-68 -29.5zM188 -27q-43 0 -70.5 28t-27.5 67q0 35 27.5 61.5t70.5 26.5q41 0 68 -27t27 -61q0 -39 -27 -67t-68 -28z" />
<glyph unicode=";" horiz-adv-x="342" d="M178 606q-43 0 -70.5 30t-27.5 64q0 37 27.5 65t70.5 28q41 0 67.5 -28t26.5 -65q0 -35 -26.5 -64.5t-67.5 -29.5zM49 -227q25 16 52.5 37.5t49 48t36 61.5t14.5 78q0 33 -14.5 56.5t-35 35.5t-43 14t-40.5 -6q-16 39 6 74t80 35q59 0 99 -42t40 -112q0 -47 -18.5 -90 t-50 -82t-73.5 -70.5t-88 -52.5z" />
<glyph unicode="&#x3c;" horiz-adv-x="897" d="M27 467v29l813 395l16 -41l-754 -363v-8l754 -366l-16 -41z" />
<glyph unicode="=" horiz-adv-x="917" d="M53 682h811l-6 -45h-799zM59 328h799l6 -45h-811z" />
<glyph unicode="&#x3e;" horiz-adv-x="897" d="M57 72l-16 41l754 366v8l-754 363l16 41l813 -395v-29z" />
<glyph unicode="?" horiz-adv-x="638" d="M293 365q-25 20 -53.5 47.5t-53 60.5t-41 66.5t-16.5 66.5q0 82 52 128t161 93q100 45 148.5 77t48.5 81q0 33 -17.5 70t-56.5 67.5t-98.5 51t-145.5 20.5q-41 0 -76.5 -6t-58.5 -12q-14 20 -14 63q0 35 30.5 53.5t102.5 18.5q78 0 145.5 -29t116.5 -78t77.5 -113.5 t28.5 -134.5q0 -55 -13 -91t-38.5 -61.5t-63.5 -45t-89 -41.5q-37 -16 -68 -30.5t-54.5 -31t-36.5 -39t-13 -53.5q0 -47 38.5 -103.5t83.5 -94.5h-26zM297 -27q-41 0 -68.5 28t-27.5 67q0 33 27.5 60.5t68.5 27.5q43 0 68.5 -27t25.5 -61q0 -39 -25.5 -67t-68.5 -28z" />
<glyph unicode="@" horiz-adv-x="1609" d="M801 -225q-164 0 -299 53t-233.5 148.5t-153 227.5t-54.5 288q0 168 62.5 317t171 261t254 177.5t311.5 65.5q145 0 271 -47t220.5 -133t147.5 -204t53 -259q0 -109 -37.5 -210.5t-101 -178t-147.5 -122.5t-176 -46t-146.5 42t-54.5 107q0 14 8 54t19.5 87.5t24.5 91.5 t24 64h-9q-57 -90 -109 -167t-100.5 -133t-92.5 -88t-85 -32q-70 0 -120 54.5t-50 130.5q0 72 28 148.5t72 149t98 137t105 113.5q37 35 81 56.5t89 21.5q61 0 102.5 -45t49.5 -133h8l72 213l94 -6l-143 -389l-47 -205q-27 -68 -29 -111t13.5 -67.5t48 -34.5t75.5 -10 q76 0 148.5 40t129 109.5t91.5 160.5t35 196q0 135 -51.5 247.5t-140.5 194.5t-211 127t-261 45q-158 0 -296 -63.5t-241.5 -171t-164 -250t-60.5 -301.5q0 -150 52.5 -277t146.5 -219t224 -143.5t288 -51.5q88 0 169 21.5t150.5 60.5t126 91.5t92.5 111.5l17 -22 q-39 -61 -96.5 -114.5t-130 -93.5t-156.5 -62.5t-176 -22.5zM612 215q33 0 74 30.5t85 86t91 130.5t94 161q14 27 25.5 57.5t11.5 48.5q-4 25 -20.5 54.5t-39 55t-50 42t-54.5 16.5q-31 0 -59.5 -15.5t-54.5 -39.5q-39 -37 -77 -94.5t-68.5 -124t-49 -136t-18.5 -127.5 q0 -66 34.5 -105.5t75.5 -39.5z" />
<glyph unicode="A" horiz-adv-x="1259" d="M369 532l-123 -342q-18 -49 -25.5 -77.5t-0.5 -45t31.5 -22.5t72.5 -10l75 -6l7 -29h-420l6 29l63 6q35 4 56.5 13t40 35t39 75t53.5 135l319 887l-14 51q20 8 49 27.5t39 39.5h18l410 -1159q12 -31 20.5 -50t19.5 -30.5t27.5 -16.5t43.5 -7l84 -6l6 -29h-482l7 29l92 4 q33 2 58.5 13t14.5 40l-153 446h-434zM788 569l-98 287q-43 127 -100 289h-4l-205 -576h407z" />
<glyph unicode="B" horiz-adv-x="1126" d="M68 29l98 10q41 4 56.5 9t15.5 15v1156q0 10 -13.5 15t-72.5 9l-82 8l-7 29h482q217 0 326.5 -76t109.5 -198q0 -53 -18.5 -102.5t-59.5 -90.5t-107.5 -70.5t-160.5 -44.5v-6q205 -14 306 -107t101 -229q0 -168 -130 -262t-365 -94h-486zM541 31q18 0 32 2q6 0 11.5 1 t9.5 1q6 0 10 2q82 6 140.5 32.5t95.5 67.5t54 95.5t17 113.5q0 74 -28.5 134.5t-80.5 103.5t-126 66.5t-162 23.5h-31.5t-45 -1t-44 -2t-28.5 -1v-609zM506 707q168 4 255 82.5t87 189.5q0 264 -340 264h-143v-538z" />
<glyph unicode="C" horiz-adv-x="1327" d="M752 -29q-150 0 -276 47.5t-217 133.5t-142 205.5t-51 267.5q0 150 51 275.5t143 216.5t219 142.5t281 51.5q104 0 185 -21.5t145 -52.5l110 43l21 -367h-29l-119 283q-41 29 -122 55.5t-195 26.5q-127 0 -228.5 -47t-174 -132t-111.5 -202t-39 -254q0 -141 39 -259 t110.5 -202t173 -131t228.5 -47q80 0 140 15.5t109.5 45t88 70.5t73.5 92l60 142h30l-69 -318l-70 -2q-61 -29 -161.5 -53.5t-202.5 -24.5z" />
<glyph unicode="D" horiz-adv-x="1316" d="M68 29l98 10q41 4 56.5 9t15.5 15v1158q0 10 -13.5 14t-72.5 8l-82 8l-7 29l467 6q172 0 306.5 -44t226.5 -125t141 -196.5t49 -256.5q0 -143 -52 -265.5t-150.5 -210.5t-238.5 -138t-318 -50h-433zM545 35q141 4 248.5 53t180.5 129t108.5 184.5t35.5 219.5 q0 137 -39 251.5t-115.5 198.5t-191.5 131t-268 47h-139v-1190z" />
<glyph unicode="E" horiz-adv-x="1148" d="M61 29l107 10q39 4 54.5 9t15.5 15v1158q0 10 -13.5 14t-70.5 8l-91 8l-6 29h918l33 -334h-25l-22 88q-23 59 -47.5 100.5t-62.5 67t-94.5 36.5t-140.5 11h-251v-559h204q63 2 100.5 7t58 17.5t30.5 35t20 57.5l21 59l22 -2l-39 -391l-22 2l-4 55q-4 39 -9.5 63.5 t-23.5 37t-57 16.5t-107 6l-194 2v-616l253 -6q106 0 176 17.5t113 48t68.5 73.5t48.5 96l25 86l30 -2l-78 -352h-946z" />
<glyph unicode="F" horiz-adv-x="1083" d="M61 29l105 10q41 4 56.5 9t15.5 15v1158q0 10 -13.5 14t-70.5 8l-91 8l-6 29h922l33 -346l-29 -2l-18 84q-18 57 -41 101t-63 73t-105.5 44t-169.5 15h-221v-571h176q63 2 101 7t58.5 18.5t29.5 36t20 57.5l20 55h23l-39 -391l-23 2l-4 55q-4 39 -9 63.5t-23.5 37 t-56.5 16.5t-108 6l-165 2v-577q0 -10 14 -16.5t72 -10.5l129 -8l6 -31h-531z" />
<glyph unicode="G" horiz-adv-x="1386" d="M756 -31q-150 0 -277 47t-219 131t-143 203t-51 264q0 150 51 278t143 221t220 146.5t282 53.5q102 0 182 -22.5t143 -53.5l113 43l4 -360h-28l-105 276q-41 29 -120 55.5t-199 26.5q-123 0 -224.5 -49t-173 -135t-111.5 -204t-40 -255q0 -141 41 -257t114.5 -199 t178 -128t231.5 -45q39 0 81 5t81 13.5t72.5 19.5t56.5 26v428q0 10 -16.5 14t-73.5 8l-113 8l-6 29h504l-6 -29l-97 -10q-41 -4 -56 -9t-15 -15v-396l127 13l2 -23q-59 -23 -130 -44t-144.5 -37.5t-145.5 -27t-133 -10.5z" />
<glyph unicode="H" horiz-adv-x="1454" d="M68 29l98 10q41 4 56.5 9t15.5 15v1158q0 10 -13.5 14t-72.5 8l-82 8l-7 29h484l-6 -29l-105 -10q-41 -4 -56 -9t-15 -15v-545h725v549q0 10 -14.5 14t-71.5 8l-91 8l-6 29h486l-7 -29l-100 -10q-72 -6 -72 -24v-1158q0 -10 14.5 -14t71.5 -8l84 -8l7 -29h-484l6 29 l105 10q72 6 72 24v572h-725v-576q0 -10 14 -14t72 -8l88 -8l6 -29h-484z" />
<glyph unicode="I" horiz-adv-x="643" d="M76 29l110 10q41 4 56.5 9t15.5 15v1158q0 10 -13.5 14t-72.5 8l-94 8l-6 29h501l-6 -29l-110 -10q-41 -4 -56.5 -9t-15.5 -15v-1158q0 -10 14.5 -14t71.5 -8l94 -8l6 -29h-501z" />
<glyph unicode="J" horiz-adv-x="626" d="M53 -246q-70 0 -110.5 28t-40.5 75q0 37 23.5 61.5t62.5 24.5q31 0 52 -15.5t31.5 -38t8.5 -49t-17 -47.5q96 -2 152.5 86t56.5 285v1057q0 10 -13 14t-73 8l-94 8l-6 29h496l-7 -29l-104 -10q-41 -4 -56.5 -9t-15.5 -15v-1074q0 -47 -26.5 -113.5t-72.5 -128 t-109.5 -104.5t-137.5 -43z" />
<glyph unicode="K" horiz-adv-x="1302" d="M68 29l98 10q41 4 56.5 9t15.5 15v1158q0 10 -13.5 14t-72.5 8l-82 8l-7 29h484l-6 -29l-105 -10q-41 -4 -56 -9t-15 -15v-668l426 440q86 86 130 135.5t52 74t-14.5 32.5t-71.5 12l-99 8l-6 29h465l-6 -29l-53 -4q-27 -2 -45.5 -3t-34.5 -8t-35.5 -22.5t-50.5 -45 t-77 -78t-114 -117.5l-169 -174l432 -660q23 -37 37 -57.5t26 -29.5t27.5 -12t40.5 -5l65 -6l6 -29h-456l8 29l72 6q53 4 58 30.5t-9 49.5l-387 604l-217 -219v-441q0 -10 14 -14t72 -8l88 -8l6 -29h-484z" />
<glyph unicode="L" horiz-adv-x="1091" d="M68 29l100 10q39 4 54.5 9t15.5 15v1158q0 10 -13.5 14t-70.5 8l-84 8l-7 29h519l-7 -29l-139 -10q-41 -4 -56 -11t-15 -16v-1175l204 -4q106 0 175 16.5t112 47t68.5 73.5t48.5 96l26 103h31l-80 -371h-889z" />
<glyph unicode="M" horiz-adv-x="1667" d="M39 29l96 6q49 4 77 13t28 32l36 1132q-14 10 -42.5 17.5t-59.5 11.5l-100 10l-6 29h350l426 -1085h4l434 1085h332l-4 -29l-125 -6q-37 -4 -48.5 -12t-13.5 -16l25 -1158q0 -10 14.5 -16t69.5 -10l90 -4l6 -29h-493l6 29l121 6q37 2 49 10t12 18l-27 1131h-6l-479 -1182 h-25l-444 1137q-6 14 -15.5 24.5t-13.5 18.5l-30 -1114q0 -39 139 -43l78 -6l6 -29h-473z" />
<glyph unicode="N" horiz-adv-x="1423" d="M307 1167h-4l2 -1089q0 -14 27.5 -26.5t93.5 -16.5l82 -6l6 -29h-444l6 29l84 6q47 4 76.5 14t29.5 33v1102q-16 20 -47 33.5t-90 23.5l-68 10l-6 29h320l803 -1077h2l-2 1001q0 16 -28 24.5t-93 16.5l-82 6l-6 29h444l-6 -29l-84 -6q-47 -4 -76.5 -13t-29.5 -32v-1208 h-35z" />
<glyph unicode="O" horiz-adv-x="1447" d="M725 -27q-141 0 -262 48.5t-209 135.5t-138 209.5t-50 270.5q0 137 53 259t143 214t209 146.5t250 54.5q141 0 262 -49.5t210 -137.5t139 -212t50 -273q0 -135 -53 -257t-143 -212t-209 -143.5t-252 -53.5zM729 6q115 0 210 43t162.5 125t105.5 196.5t38 260.5 q0 147 -41 266t-111.5 204t-166 131t-205.5 46q-115 0 -209 -44t-162.5 -127t-106.5 -199.5t-38 -264.5q0 -145 40 -263t110.5 -201t166.5 -128t207 -45z" />
<glyph unicode="P" horiz-adv-x="1077" d="M47 29l119 10q41 4 56.5 9t15.5 15v1158q0 10 -13.5 14t-70.5 8l-105 8l-6 29h516q233 0 351 -86t118 -236q0 -82 -35 -149.5t-97 -114.5t-149.5 -73.5t-189.5 -26.5q-49 0 -103.5 5t-88.5 9v-549q0 -10 14 -14t72 -8l129 -8l6 -29h-545zM557 623q166 0 252 80.5 t86 234.5q0 150 -88 231.5t-291 77.5l-151 -2v-598q35 -10 84 -17t108 -7z" />
<glyph unicode="Q" horiz-adv-x="1447" d="M1251 -367q-74 0 -148.5 13.5t-143 50.5t-129 103.5t-105.5 172.5q-141 0 -261 48.5t-209 136.5t-139 209.5t-50 269.5q0 137 53 259t143 214t209 146.5t250 54.5q141 0 262 -49.5t210 -138.5t139 -212t50 -272q0 -117 -38.5 -222.5t-107.5 -191.5t-161 -146.5 t-198 -86.5q49 -109 107 -175.5t131 -98t162 -37t200 9.5q0 -8 2 -15q0 -6 2 -12q-23 -6 -51.5 -11t-60.5 -10t-62.5 -7.5t-55.5 -2.5zM729 6q115 0 210 43t162.5 125t105.5 196.5t38 260.5q0 145 -41 264t-111.5 204t-166 132t-205.5 47q-115 0 -209 -44t-162.5 -127 t-106.5 -201t-38 -263t40 -263t110.5 -201t166.5 -128t207 -45z" />
<glyph unicode="R" horiz-adv-x="1208" d="M47 29l119 10q23 2 47.5 8t24.5 16v1158q0 10 -13.5 14t-72.5 8l-103 8l-6 29h504q225 0 342 -85t117 -228q0 -66 -25 -122.5t-69 -100.5t-103 -75.5t-129 -50.5l313 -481q20 -33 37 -52t33 -30.5t33.5 -15.5t42.5 -4l57 -6l8 -29h-270l-35 61l-342 547q-16 0 -43 2 t-54.5 5t-54 7.5t-40.5 10.5v-574q0 -10 29.5 -14t56.5 -8l102 -8l6 -29h-518zM578 641q131 8 212.5 89t81.5 222t-97 221t-288 74l-122 -4v-571q18 -6 44.5 -11.5t57.5 -10.5t59.5 -7t51.5 -2z" />
<glyph unicode="S" horiz-adv-x="970" d="M469 -29q-92 0 -189.5 16.5t-168.5 45.5l-35 301h30l46 -144q98 -186 325 -186q76 0 137.5 21.5t104.5 60.5t66.5 93t23.5 118q0 63 -20.5 112.5t-63.5 88.5t-107.5 70.5t-150.5 60.5q-66 23 -126 50.5t-106.5 67t-73 93t-26.5 125.5q0 76 27.5 139t78 109.5t121 72 t154.5 25.5q72 0 129 -13.5t94 -29.5l97 24l22 -319h-31l-110 246q-37 25 -90.5 42t-118.5 17q-66 0 -118 -19.5t-89 -53.5t-56.5 -80t-19.5 -97q0 -59 22.5 -102t64.5 -76t99.5 -59.5t129.5 -51.5t138 -55.5t116.5 -74.5t81 -104.5t30.5 -144.5t-33.5 -154.5t-92 -122.5 t-139.5 -82t-173 -30z" />
<glyph unicode="T" horiz-adv-x="1236" d="M358 29l125 10q41 4 56.5 9t15.5 15v1186h-133q-72 -4 -120 -19.5t-82 -43t-57.5 -63.5t-43.5 -79l-27 -92h-31l76 328h983l47 -330h-28l-19 94q-25 59 -49 97.5t-58 62t-82 32.5t-122 13h-127v-1190q0 -10 13.5 -14t72.5 -8l109 -8l6 -29h-531z" />
<glyph unicode="U" horiz-adv-x="1359" d="M707 -29q-121 0 -211 26t-151.5 82t-92.5 145t-31 216v779q0 10 -13 15t-73 9l-102 8l-6 29h518l-6 -29l-119 -10q-41 -4 -56.5 -11t-15.5 -16v-780q0 -213 103.5 -303t300.5 -90q195 0 283.5 110.5t88.5 321.5v731q0 16 -36.5 26.5t-102.5 14.5l-82 6l-6 29h459l-6 -29 l-84 -6q-47 -4 -75 -13t-28 -32v-727q0 -248 -118.5 -375t-337.5 -127z" />
<glyph unicode="V" horiz-adv-x="1267" d="M184 1141q-12 31 -21 49t-20.5 30.5t-28 17.5t-40.5 7l-84 6l-6 29h477l-6 -29l-93 -4q-31 -4 -57 -14t-16 -41l395 -1053h4l336 948q16 49 24.5 78t1 45.5t-32 22.5t-71.5 10l-74 8l-6 29h420l-6 -29l-66 -6q-35 -4 -56 -12t-39.5 -33.5t-39 -76t-51.5 -136.5 l-360 -1007h-41z" />
<glyph unicode="W" horiz-adv-x="1972" d="M186 1141q-23 59 -40 79.5t-70 24.5l-82 6l-4 29h477l-6 -29l-92 -4q-33 -2 -57.5 -13t-14.5 -42l369 -1055h4l307 826l-64 178q-10 29 -19 48t-21.5 30.5t-30 17.5t-43.5 8l-82 6l-6 29h477l-6 -29l-92 -4q-33 -2 -57.5 -14t-14.5 -41l377 -1053h2l311 942 q16 45 22.5 74t-2 47.5t-34 27.5t-72.5 13l-78 8l-6 29h422l-6 -29l-64 -6q-35 -4 -54 -12t-35.5 -33.5t-34 -76t-48.5 -136.5l-338 -1007h-43l-340 931h-2l-350 -931h-47z" />
<glyph unicode="X" horiz-adv-x="1253" d="M-8 29l65 4q35 2 59.5 9t48 25.5t50.5 52.5t68 93l286 424l-338 500q-37 57 -60.5 80.5t-68.5 27.5l-77 6l-7 29h490l-6 -25l-101 -6q-51 0 -59 -21.5t20 -74.5l281 -424h2l238 358q35 57 47 88t4 45.5t-32.5 17.5t-63.5 7l-86 6l-9 29h467l-4 -29l-67 -4 q-35 -2 -57.5 -5t-44 -19.5t-47 -49t-64.5 -92.5l-258 -381l15 -24q15 -25 42 -64t61.5 -90t69.5 -102l188 -279q16 -25 28.5 -44t25 -32.5t30 -20.5t46.5 -9l77 -6l4 -29h-487l6 29l96 4q51 2 61.5 22.5t-20.5 69.5l-317 481h-2q-20 -29 -43 -61q-18 -29 -42 -65l-48 -72 q-59 -88 -133 -199q-35 -55 -49.5 -89t-9.5 -51.5t28.5 -23.5t64.5 -8l84 -8l9 -29h-467z" />
<glyph unicode="Y" horiz-adv-x="1220" d="M350 29l125 10q72 6 72 24v504l-336 568q-31 55 -55.5 80.5t-79.5 29.5l-78 6l-6 29h485l-6 -29l-96 -4q-51 -2 -58.5 -19.5t23.5 -70.5l309 -536h6l252 450q27 51 39 84t6 51.5t-29.5 27.5t-68.5 13l-84 4l-6 29h448l-6 -29l-65 -4q-35 -2 -56.5 -6t-41 -20.5t-41 -51 t-54.5 -96.5l-276 -487v-527q0 -10 14 -14t74 -8l108 -8l6 -29h-530z" />
<glyph unicode="Z" horiz-adv-x="1118" d="M63 23l824 1220v6h-387q-84 0 -140.5 -14t-95.5 -45t-63.5 -77t-46.5 -107l-21 -86h-29l35 360h897v-23l-819 -1218v-4l395 -4q106 0 174 18.5t110 54t66.5 87t43.5 116.5l26 96h33l-59 -403h-943v23z" />
<glyph unicode="[" horiz-adv-x="665" d="M137 1296h500v-36h-459v-1711h459v-34h-500v1781z" />
<glyph unicode="\" horiz-adv-x="503" d="M0 1309h39l432 -1792h-39z" />
<glyph unicode="]" horiz-adv-x="665" d="M29 -451h456v1711h-456v36h499v-1781h-499v34z" />
<glyph unicode="^" horiz-adv-x="776" d="M379 1380h18l252 -381h-20l-238 258h-4l-240 -258h-20z" />
<glyph unicode="_" horiz-adv-x="927" d="M31 0h866l6 -70h-878z" />
<glyph unicode="`" horiz-adv-x="776" d="M100 1393h140l241 -377h-16z" />
<glyph unicode="a" horiz-adv-x="817" d="M662 -23q-43 0 -80 37t-35 103l-2 4q-63 -59 -129 -100t-133 -41q-98 0 -157.5 56t-59.5 142q0 55 24.5 101.5t82.5 86.5t153.5 76.5t236.5 73.5l2 90q4 76 -12 125t-45 78t-68 39t-80 10q-35 0 -68.5 -9t-60 -22.5t-42 -29t-15.5 -25.5q0 -4 7 -11t14.5 -17.5 t14.5 -23.5t7 -32q0 -29 -22.5 -51.5t-57.5 -22.5q-33 0 -55.5 17.5t-22.5 58.5q0 35 35 73t89.5 69.5t118 52t122.5 20.5t107.5 -13t80 -47t48 -90.5t12.5 -142.5l-21 -493q-2 -43 13.5 -56.5t44.5 -13.5q23 0 49 18.5t53 47.5l16 -19q-35 -39 -73.5 -79t-91.5 -40zM332 51 q66 0 119 34t100 75l10 323q-115 -31 -189.5 -61.5t-117.5 -64t-59.5 -71.5t-16.5 -83q0 -72 41 -112t113 -40z" />
<glyph unicode="b" horiz-adv-x="966" d="M115 1208q0 59 -11.5 79t-50.5 24l-90 8l4 24l256 54v-660l4 -4q55 61 134 113.5t184 52.5q76 0 143.5 -31.5t118.5 -88t79.5 -136.5t28.5 -178q0 -106 -36.5 -196.5t-97 -156t-139.5 -102.5t-163 -37q-82 0 -151.5 22.5t-116.5 53.5h-6l-74 -88h-16v1247zM485 8 q70 0 127.5 31t97.5 86t61.5 132t21.5 169q0 86 -22.5 158.5t-62.5 126t-96.5 84t-126.5 30.5q-86 0 -147.5 -40t-114.5 -93v-542q43 -59 110.5 -100.5t151.5 -41.5z" />
<glyph unicode="c" horiz-adv-x="845" d="M457 -25q-84 0 -158 34t-129 93.5t-87 140.5t-32 177q0 102 35 191t95.5 154.5t143.5 102.5t179 37q61 0 114.5 -14t91.5 -39t59.5 -58.5t21.5 -72.5t-25 -64.5t-55 -25.5q-41 0 -63.5 26.5t-12.5 71.5q0 35 14.5 46t14.5 22q-4 8 -17.5 21t-36 25.5t-51.5 21.5t-61 9 q-66 0 -125.5 -30.5t-104.5 -83.5t-71.5 -128t-26.5 -161q0 -90 25.5 -166t69.5 -131t104.5 -86t130.5 -31q96 0 162.5 40t123.5 128l25 -14q-59 -109 -146 -172.5t-208 -63.5z" />
<glyph unicode="d" horiz-adv-x="997" d="M743 133l-4 2q-29 -31 -62.5 -59.5t-72.5 -51t-85 -37t-97 -14.5q-78 0 -144.5 32t-117.5 90.5t-80 140t-29 180.5q0 106 37 195t99.5 153.5t144.5 99.5t172 35q76 0 131 -17.5t104 -45.5h2h2v374q0 59 -10 80t-51 23l-104 10l4 23l270 51v-1297q0 -27 8 -41t43 -18 l94 -6l-2 -23l-250 -43zM481 47q88 0 149.5 40t112.5 93v541q-41 59 -109.5 101t-150.5 42q-70 0 -127 -29.5t-97 -84t-61.5 -129t-21.5 -166.5q0 -86 21.5 -161t61.5 -129t96 -86t126 -32z" />
<glyph unicode="e" horiz-adv-x="854" d="M457 -25q-84 0 -158 34t-129 93.5t-87 140.5t-32 177q0 100 32 188t89 153.5t136 104.5t173 39q74 0 132.5 -22.5t98.5 -60.5t60.5 -88t20.5 -103q0 -16 -1 -27.5t-4 -25.5l-608 4q-4 -23 -7 -54.5t-3 -58.5q0 -90 25.5 -166t69.5 -130t104.5 -85t130.5 -31 q96 0 162.5 40t125.5 128l23 -14q-59 -109 -146 -172.5t-208 -63.5zM668 614q0 55 -12.5 102.5t-38 82.5t-63.5 54t-89 19q-43 0 -86 -19t-80 -54t-66.5 -83t-46.5 -106z" />
<glyph unicode="f" horiz-adv-x="552" d="M49 29l70 4q33 2 47 4t14 18v750l-151 4l16 65h131l4 54q8 109 41 192.5t83 141t112.5 87t128.5 29.5q55 0 90 -25.5t35 -66.5q0 -27 -19.5 -48t-52.5 -21q-39 0 -67.5 28.5t-36.5 69.5l-5 14l-28 4q-92 -23 -132 -128t-40 -257v-74h229l-18 -69h-211v-752q0 -10 8 -14 t57 -6l105 -4l6 -29h-422z" />
<glyph unicode="g" horiz-adv-x="890" d="M362 -508q-156 0 -250 63.5t-94 170.5q0 45 21.5 84.5t54.5 72.5t73 57.5t75 41.5v2q-86 10 -138.5 41.5t-52.5 91.5q0 37 19.5 69.5t51.5 59t70.5 46t75.5 27.5v3q-78 27 -135 98.5t-57 167.5q0 68 26.5 126t71.5 100t106.5 66.5t133.5 24.5q59 0 111.5 -16.5 t92.5 -44.5l246 28l-8 -81l-194 18l-3 -6q37 -35 63 -87t26 -114q0 -66 -27 -122t-74 -97t-109.5 -64.5t-134.5 -23.5q-31 0 -59.5 4t-42.5 8q-53 -12 -96 -47t-43 -80q0 -47 37 -69.5t123 -22.5q14 0 45.5 1t66.5 1t68 1t51 1q147 0 224 -61.5t77 -159.5q0 -82 -37 -151.5 t-103.5 -120t-157 -79t-194.5 -28.5zM426 -465q68 0 130 20.5t111.5 55.5t79 83t29.5 103q0 86 -58.5 135.5t-191.5 53.5h-47t-50 -2t-62.5 -4.5t-83.5 -4.5q-25 -10 -55.5 -30.5t-57.5 -50t-45.5 -66.5t-18.5 -78q0 -49 25 -88t68 -67.5t101 -44t126 -15.5zM410 324 q96 0 158.5 74.5t62.5 193.5q0 133 -57.5 209t-161.5 76q-47 0 -87 -20.5t-69 -57.5t-45 -86t-16 -107q0 -129 60.5 -205.5t154.5 -76.5z" />
<glyph unicode="h" horiz-adv-x="991" d="M23 29l65 4q35 2 48.5 5t13.5 19v1143q0 66 -11.5 86.5t-52.5 26.5l-80 6l2 20l252 54v-666l2 -2q33 27 72 58.5t82 59t91 45t99 17.5q98 0 158 -59q68 -68 67 -199v-592q0 -10 9.5 -15t64.5 -7l64 -4l6 -29h-391l6 29l72 4q41 2 51 8t10 16v551q0 111 -50 161t-136 50 q-78 0 -150 -40t-127 -93v-633q0 -10 12.5 -13t61.5 -7l65 -4l7 -29h-390z" />
<glyph unicode="i" horiz-adv-x="448" d="M207 1104q-45 0 -66.5 29.5t-21.5 58.5q0 31 22.5 62.5t67.5 31.5t64.5 -31.5t19.5 -60.5t-21.5 -59.5t-64.5 -30.5zM39 29l72 4q35 2 48 5t13 19v639q0 72 -12.5 93.5t-53.5 25.5l-79 10l4 21l252 57v-850q0 -10 12 -13t61 -7l66 -4l6 -29h-395z" />
<glyph unicode="j" horiz-adv-x="415" d="M190 1104q-45 0 -65.5 29.5t-20.5 58.5q0 31 21.5 62.5t67.5 31.5q45 0 65.5 -31.5t20.5 -60.5t-22 -59.5t-67 -30.5zM-16 -518q-66 0 -101 27.5t-35 72.5q0 31 21.5 51.5t54.5 20.5q39 0 65.5 -33t35.5 -94q72 12 102.5 88t30.5 207v874q0 72 -12.5 93.5t-53.5 25.5 l-80 10l4 21l252 57v-977q0 -86 -21.5 -167t-58 -142t-89 -98t-115.5 -37z" />
<glyph unicode="k" horiz-adv-x="919" d="M23 29l65 4q35 2 48.5 5t13.5 19v1143q0 66 -11.5 87.5t-52.5 25.5l-80 6l2 20l252 54v-981l264 254q37 39 68 77.5t31 59.5q0 35 -74 41l-66 6l-4 27h385l-6 -29l-63 -6q-25 -2 -46.5 -13.5t-45 -32t-53 -52t-72.5 -74.5q-37 -33 -64 -58q-23 -23 -43 -41t-18 -18 l286 -434q14 -25 25.5 -41.5t24 -25.5t27.5 -13t40 -6l47 -4l6 -29h-233l-37 61l-266 418l-113 -108v-318q0 -10 12.5 -13t59.5 -7l65 -4l6 -29h-387z" />
<glyph unicode="l" horiz-adv-x="442" d="M33 29l67 4q35 2 49.5 5t14.5 19v1133q0 72 -12.5 94.5t-53.5 28.5l-86 6l4 20l256 54v-1340q0 -10 11.5 -14t62.5 -6l66 -4l6 -29h-391z" />
<glyph unicode="m" horiz-adv-x="1525" d="M41 29l68 4q35 2 49 5t14 19v637q0 72 -13.5 94.5t-52.5 26.5l-79 10l2 21l254 57l-9 -172h7q29 27 63.5 58.5t74.5 57t85 43t92 17.5q51 0 91 -16.5t69 -44.5q20 -23 35.5 -52.5t21.5 -66.5h2q29 29 64.5 60.5t76.5 58t86 44t95 17.5q53 0 92 -16.5t71 -50.5 q66 -66 66 -191v-594q0 -10 9 -14t65 -8l61 -4l6 -29h-387l6 29l68 4q39 2 50 8t11 16v557q0 106 -47 155.5t-135 49.5q-37 0 -73.5 -10t-70.5 -26.5t-60.5 -38t-45.5 -46.5v-643q0 -10 9.5 -14t64.5 -8l68 -4l6 -29h-391l6 29l67 4q39 2 49.5 8t10.5 16v557 q0 106 -47.5 155.5t-133.5 49.5q-74 0 -139 -35.5t-112 -83.5v-647q0 -10 13 -13t62 -7l68 -4l6 -29h-395z" />
<glyph unicode="n" horiz-adv-x="1011" d="M41 29l68 4q35 2 49 5t14 19v641q0 70 -12.5 91.5t-48.5 25.5l-84 10l2 21l254 57l-4 -176l6 -4q33 29 70.5 60.5t80.5 59t91 45t100 17.5q100 0 159 -59q33 -35 50.5 -84t17.5 -117v-590q0 -10 10 -14t64 -8l65 -4l6 -29h-391l6 29l70 4q41 2 52.5 8t11.5 16v551 q0 111 -51.5 161t-139.5 50q-78 0 -148.5 -40t-127.5 -93v-633q0 -10 13 -13t62 -7l64 -4l8 -29h-393z" />
<glyph unicode="o" horiz-adv-x="995" d="M500 -27q-94 0 -175 35t-141.5 96.5t-95.5 145.5t-35 184t35 186.5t95.5 150t142.5 99t176 35.5q92 0 173 -34.5t140 -96t94 -145.5t35 -183q0 -102 -35 -189t-95 -149.5t-141 -98.5t-173 -36zM502 2q68 0 125 33t99 91t66.5 135t24.5 167q0 113 -26.5 206t-85.5 152 q-84 88 -207 88q-68 0 -127.5 -32.5t-102.5 -89t-67.5 -132t-24.5 -163.5q0 -119 33 -218.5t92 -158.5q78 -78 201 -78z" />
<glyph unicode="p" horiz-adv-x="995" d="M10 -485l70 4q35 4 49 6t14 16v1159q0 68 -11 89.5t-50 25.5l-84 10l2 21l254 57l-2 -166l6 -4q53 61 132 113.5t183 52.5q76 0 143.5 -31.5t119 -88t80 -136.5t28.5 -178q0 -106 -37 -196.5t-97 -156t-139 -102.5t-165 -37q-76 0 -139.5 19.5t-110.5 42.5h-4v-496 q0 -10 12 -14t62 -6l100 -4l6 -29h-428zM514 8q70 0 127 31t96 86t60.5 132t21.5 169q0 86 -21.5 158.5t-61.5 126t-96 84t-126 30.5q-86 0 -148.5 -40t-113.5 -93v-553q41 -53 109.5 -92t152.5 -39z" />
<glyph unicode="q" horiz-adv-x="980" d="M571 -485l99 4q49 2 61 6t12 14v594l-4 2q-29 -31 -62.5 -59.5t-72.5 -51t-85 -37t-97 -14.5q-78 0 -144.5 32t-117.5 90.5t-80 140t-29 180.5q0 106 37 195t99.5 152.5t144.5 99.5t172 36q72 0 139.5 -24.5t114.5 -55.5h6l74 96h14v-1374q0 -14 14.5 -16t48.5 -6l70 -4 l6 -29h-426zM481 47q88 0 149.5 40t112.5 93v539q-41 61 -109.5 103t-150.5 42q-70 0 -127 -29.5t-97 -84t-61.5 -129t-21.5 -164.5q0 -86 21.5 -161t61.5 -130t96 -87t126 -32z" />
<glyph unicode="r" horiz-adv-x="677" d="M41 29l68 4q35 2 49 5t14 19v641q0 70 -12.5 91.5t-48.5 25.5l-82 10l4 21l250 57l-7 -334h3q59 166 126.5 253t151.5 87q53 0 79 -28.5t26 -63.5q0 -33 -22 -59.5t-58 -26.5q-33 0 -58.5 25.5t-29.5 74.5q-70 -23 -121 -100.5t-92 -218.5v-459q0 -10 8 -14t55 -6l98 -4 l7 -29h-414z" />
<glyph unicode="s" horiz-adv-x="724" d="M334 -27q-66 0 -130.5 11.5t-119.5 33.5l-23 234h29l41 -121q41 -66 98.5 -97.5t116.5 -31.5q98 0 159.5 52t61.5 139q0 92 -64.5 138t-174.5 81q-43 12 -86 31.5t-78 49t-56.5 69.5t-21.5 95q0 51 21.5 97.5t59.5 80t90 53t112 19.5q49 0 92 -10t84 -27l65 19l15 -230 h-31l-78 168q-29 18 -64.5 34t-89.5 16q-88 0 -137 -45.5t-49 -118.5q0 -43 16.5 -73t46 -52.5t68.5 -39t86 -32.5q49 -16 97.5 -35.5t86 -49.5t61.5 -74t24 -111q0 -55 -24 -104.5t-67 -87.5t-103 -59.5t-134 -21.5z" />
<glyph unicode="t" horiz-adv-x="612" d="M352 -27q-35 0 -67.5 8.5t-59 29t-42 57t-15.5 96.5l10 643l-155 4l16 59l141 7l8 176l103 -2l-2 -177h291l-19 -67h-272q-4 -174 -6 -311q-2 -59 -3 -115.5t-1 -99.5q-2 -53 -3 -97q-4 -78 33 -109.5t92 -31.5q57 0 97.5 26.5t81.5 55.5l14 -19q-53 -51 -110.5 -92 t-131.5 -41z" />
<glyph unicode="u" horiz-adv-x="968" d="M723 150h-4q-33 -29 -71 -60t-81 -56.5t-90 -43t-98 -17.5q-53 0 -93 15.5t-75 46.5q-35 35 -49.5 85t-14.5 113v590q0 10 -9 13.5t-66 7.5l-64 6l-6 27h254v-607q0 -111 50 -162t143 -51q78 0 145.5 38t124.5 91v580q0 47 -15.5 60.5t-60.5 17.5l-63 6l-7 27h256v-775 q0 -27 8.5 -40t45.5 -17l92 -6l-4 -21l-252 -49z" />
<glyph unicode="v" horiz-adv-x="913" d="M135 750q-12 31 -20.5 48t-16.5 27.5t-19 13.5t-30 5l-57 6l-6 27h374l-4 -27l-59 -6q-43 -2 -52 -19.5t7 -60.5l244 -627l204 539q18 51 27.5 84t5.5 50t-23.5 23.5t-56.5 8.5l-57 8l-6 27h336l-6 -27l-41 -6q-25 -2 -42.5 -9.5t-31.5 -27t-29.5 -54t-40.5 -91.5 l-262 -678h-41z" />
<glyph unicode="w" horiz-adv-x="1409" d="M135 743q-10 33 -18 51.5t-16.5 30t-19.5 14.5t-30 5l-57 6l-4 27h377l-9 -27l-55 -6q-45 -2 -55 -18.5t6 -59.5l221 -629l211 518l-35 97q-12 31 -20 48t-17.5 26.5t-21.5 12.5t-31 5l-57 6l-8 27h378l-6 -27l-57 -6q-45 -2 -53 -18.5t8 -59.5l250 -633l176 541 q16 51 23.5 81.5t1 49t-26 26t-55.5 11.5l-52 8l-6 27h330l-6 -27l-37 -6q-27 -4 -44 -11.5t-31.5 -27t-29 -54t-34.5 -94.5l-221 -673h-43l-254 624l-258 -624h-41z" />
<glyph unicode="x" horiz-adv-x="903" d="M8 29l62 8q33 4 62.5 24.5t62.5 69.5l206 285l-256 362q-23 33 -41 47.5t-49 18.5l-49 6l-6 27h377l-6 -27l-60 -6q-63 -8 -39 -58l199 -278h2l176 258q16 29 12 50.5t-43 25.5l-69 8l-6 27h331l-6 -27l-59 -8q-35 -4 -64.5 -25.5t-64.5 -75.5l-186 -258l274 -383 q23 -35 40 -49t48 -18l49 -4l6 -29h-374l6 29l57 6q33 4 41 19.5t-8 37.5l-209 303h-2l-195 -286q-16 -27 -12 -48.5t43 -23.5l72 -8l6 -29h-334z" />
<glyph unicode="y" horiz-adv-x="890" d="M158 -530q-49 0 -82 25.5t-33 60.5t22.5 60.5t61.5 25.5q35 0 61.5 -27t32.5 -74q61 14 98 83t82 208l45 143v2l-313 773q-12 31 -19.5 48t-16.5 27.5t-19 13.5t-29 5l-59 6l-6 27h374l-4 -27l-55 -6q-43 -2 -52 -19.5t7 -60.5l250 -633l198 547q18 51 24.5 82t0.5 48 t-25.5 23.5t-56.5 10.5l-57 8l-6 27h338l-7 -27l-47 -6q-25 -2 -41 -9.5t-29.5 -27t-27.5 -54t-35 -91.5l-248 -666l-65 -213q-47 -162 -106.5 -237.5t-155.5 -75.5z" />
<glyph unicode="z" horiz-adv-x="825" d="M41 23l575 825h-194q-78 0 -128 -9.5t-81 -30t-49.5 -53t-32.5 -77.5l-18 -94h-27l8 293h654v-21l-580 -825l219 -2q78 0 130 11t87 31.5t59.5 51.5t49.5 72l45 98h24l-73 -293h-668v23z" />
<glyph unicode="{" horiz-adv-x="604" d="M569 -522q-174 10 -273 89t-99 218q0 66 13 121t28.5 107.5t29 101.5t13.5 102q0 88 -81 124t-210 46l-10 19l10 20q55 4 107.5 14.5t93 31t65.5 51t25 75.5q0 51 -13.5 101.5t-29 102.5t-28.5 108.5t-13 121.5q0 137 99 215t273 88l4 -24q-152 -18 -215 -70.5 t-63 -144.5q0 -53 14.5 -104.5t30.5 -103.5t30.5 -107.5t14.5 -118.5q0 -104 -84 -169t-219 -83v-7q135 -20 219 -83.5t84 -167.5q0 -61 -14.5 -118t-30.5 -109t-30.5 -102t-14.5 -104q0 -90 63.5 -145t214.5 -74l-4 -22v0z" />
<glyph unicode="|" horiz-adv-x="389" d="M176 1372h37v-1796h-37v1796z" />
<glyph unicode="}" horiz-adv-x="604" d="M31 -500q152 18 214 73.5t62 145.5q0 53 -13 103.5t-30.5 102.5t-31 108.5t-13.5 118.5q0 104 83 167.5t218 83.5v7q-135 18 -218 82.5t-83 169.5q0 63 13.5 118.5t31 107.5t30.5 103t13 105q0 92 -62.5 144t-213.5 71l2 24q176 -10 275.5 -88t99.5 -215 q0 -66 -13.5 -122t-30 -108t-29.5 -102.5t-13 -101.5q0 -45 25.5 -75.5t66.5 -51t93 -31t107 -14.5l9 -20l-9 -19q-131 -10 -211.5 -46t-80.5 -124q0 -53 13 -102t29.5 -101.5t30 -108t13.5 -120.5q0 -139 -99.5 -218t-275.5 -89z" />
<glyph unicode="~" horiz-adv-x="776" d="M530 317q-37 0 -77.5 19.5t-81.5 44.5t-79 44t-67 19q-37 0 -62.5 -20.5t-37.5 -91.5h-23q25 193 148 192q37 0 78 -19.5t82 -44t78.5 -44t66.5 -19.5q35 0 60.5 23.5t37.5 89.5h21q-25 -193 -144 -193z" />
<glyph unicode="&#xa1;" horiz-adv-x="483" d="M242 1116q-43 0 -70 26.5t-27 61.5q0 39 27 69t70 30q41 0 68.5 -30t27.5 -69q0 -35 -27.5 -61.5t-68.5 -26.5zM227 -37q-25 0 -38 9.5t-18 24.5t-4 32.5t3 33.5l59 832q2 8 12.5 8t12.5 -8l61 -832q0 -16 1 -33.5t-4 -32.5t-17 -24.5t-37 -9.5h-31z" />
<glyph unicode="&#xa2;" horiz-adv-x="845" d="M326 -170q16 59 29.5 106.5t13.5 49.5q-70 16 -128.5 56t-101.5 98.5t-66.5 131t-23.5 152.5q0 100 35 188t95.5 153.5t143.5 103.5t181 38q61 0 108 -12l50 180q23 80 49 182h32l-100 -370q63 -20 97 -55t34 -78q0 -31 -24.5 -51.5t-53.5 -20.5q-35 0 -56.5 24.5 t-25.5 67.5l-190 -708q37 -10 76 -11q98 0 165.5 42t120.5 128l25 -12q-61 -111 -148.5 -175.5t-207.5 -64.5q-29 0 -56 7l-82 -306h-32zM602 856q-16 8 -41.5 14.5t-66.5 6.5q-66 0 -124.5 -29t-102.5 -82t-70.5 -128t-26.5 -167q0 -143 62.5 -248.5t160.5 -146.5z" />
<glyph unicode="&#xa3;" horiz-adv-x="983" d="M113 578l6 34h211q-10 51 -18.5 103.5t-8.5 105.5q0 94 29.5 180t83 152t130.5 103.5t169 37.5q96 0 159.5 -37.5t63.5 -103.5q0 -29 -19.5 -52.5t-50.5 -23.5q-25 0 -41 12.5t-24 32t-6 44t18 48.5q-23 16 -60.5 28.5t-80.5 12.5q-55 0 -102.5 -22.5t-82 -64.5t-55 -102 t-20.5 -136q0 -84 11 -162t21 -156h263l6 -34h-264q4 -35 7 -71t3 -73q0 -72 -20.5 -147.5t-59.5 -141.5q82 -29 164 -55.5t157 -26.5q43 0 79 11.5t63.5 39t46 72.5t29.5 115l22 -4q-4 -154 -80 -241t-188 -87q-90 0 -171 40t-157 81q-41 -55 -93 -89t-112 -34 q-55 0 -91 29t-36 78q0 57 42 86.5t120 29.5q39 0 81 -9t87 -23q35 76 35 157q0 61 -13.5 127t-29.5 136h-223zM315 106q-41 20 -79.5 34t-79.5 14q-113 0 -113 -80q0 -37 28.5 -57.5t69.5 -20.5q51 0 95 30.5t79 79.5z" />
<glyph unicode="&#xa4;" horiz-adv-x="917" d="M131 436l117 117q-68 78 -68 182t68 183l-117 116l29 29l116 -117q37 31 83.5 49.5t99.5 18.5t99 -18.5t83 -49.5l117 117l28 -29l-116 -116q31 -37 49 -83.5t18 -99.5t-18.5 -99t-48.5 -83l116 -117l-28 -28l-117 116q-78 -68 -182 -67q-104 0 -183 67l-116 -116z M221 735q0 -49 18.5 -92t51.5 -75.5t76 -51t92 -18.5t92 18.5t75.5 51t51 75.5t18.5 92t-18.5 92t-51 76t-75.5 51.5t-92 18.5t-92 -18.5t-76 -51.5t-51.5 -76t-18.5 -92z" />
<glyph unicode="&#xa5;" horiz-adv-x="1214" d="M354 29l125 10q41 4 57.5 9t16.5 15v252h-406l7 37h399v232h-401l-2 34h385l-312 517q-31 55 -55.5 80.5t-79.5 29.5l-78 6l-6 29h481l-6 -29l-96 -4q-51 0 -57.5 -18.5t22.5 -71.5l309 -522h7l239 436q27 51 39 83t6 51.5t-29.5 28.5t-68.5 13l-84 4l-6 29h450l-6 -29 l-65 -4q-35 -2 -56.5 -6t-41 -20.5t-40 -51t-53.5 -96.5l-258 -455h373l-2 -34h-385v-232h383l6 -37h-389v-256q0 -10 14.5 -14t71.5 -8l110 -8l7 -29h-531z" />
<glyph unicode="&#xa6;" horiz-adv-x="389" d="M176 1284h37v-686h-37v686zM176 371h37v-686h-37v686z" />
<glyph unicode="&#xa7;" horiz-adv-x="843" d="M385 -100q-55 0 -102 12t-81 32.5t-52.5 47t-18.5 53.5t17.5 48.5t48.5 21.5q47 0 64.5 -41t-9.5 -88q51 -57 154 -58q39 0 70.5 15.5t54 41t35 58.5t12.5 70q0 41 -21.5 74.5t-56.5 63.5t-80 55.5t-92 49.5q-51 29 -100.5 58.5t-88.5 64.5t-62.5 79t-23.5 99 q0 84 58.5 144.5t136.5 101.5q-55 61 -55 148q0 47 18 94t52 84t82 60.5t108 23.5q55 0 98 -13.5t73.5 -35t46 -48t15.5 -53.5q0 -25 -18.5 -47t-49.5 -22q-47 0 -64 41t9 88q-25 29 -52.5 44t-76.5 15q-41 0 -71.5 -15.5t-53 -42t-34 -59t-11.5 -69.5q0 -43 21.5 -77 t56.5 -62.5t80 -54t92 -50.5q51 -29 100.5 -57.5t89 -64.5t64.5 -79t25 -100q0 -41 -16.5 -77t-43 -66.5t-61.5 -57t-74 -47.5q55 -61 55 -147q0 -47 -19.5 -92.5t-55 -82t-85 -59t-108.5 -22.5zM582 322q25 12 48 30.5t41.5 41t31 49t12.5 55.5q0 47 -19.5 83.5t-53.5 67.5 t-77 56.5t-88 48.5q-59 31 -115.5 61.5t-97.5 69.5q-49 -18 -93 -67.5t-44 -104.5q0 -47 20.5 -84t53 -68t75.5 -56.5t91 -49.5q59 -29 114.5 -61.5t100.5 -71.5z" />
<glyph unicode="&#xa8;" horiz-adv-x="776" d="M551 1053q-43 0 -64.5 27.5t-21.5 54.5q0 29 21.5 59.5t64.5 30.5q41 0 61.5 -31t20.5 -59q0 -27 -20.5 -54.5t-61.5 -27.5zM225 1053q-41 0 -61.5 27.5t-20.5 54.5q0 29 20.5 59.5t61.5 30.5q43 0 64.5 -31t21.5 -59q0 -27 -21.5 -54.5t-64.5 -27.5z" />
<glyph unicode="&#xa9;" horiz-adv-x="1460" d="M731 -29q-139 0 -261 52.5t-213 143.5t-143.5 213t-52.5 261t52.5 261t143.5 213t213 144.5t261 53.5t261 -53.5t213 -144.5t143.5 -213t52.5 -261t-52.5 -261t-143.5 -213t-213 -143.5t-261 -52.5zM731 4q131 0 247 50t202 136t136 202t50 249q0 131 -50 248t-136 204 t-202 137t-247 50q-133 0 -248.5 -50t-201.5 -137t-136.5 -204t-50.5 -248q0 -133 50.5 -249t136.5 -202t201.5 -136t248.5 -50zM750 240q-90 0 -165 28.5t-129.5 80.5t-85 124t-30.5 160t29.5 161.5t84 128t128 85t163.5 30.5q68 0 117 -13t86 -32l70 25l12 -219h-18 l-74 162q-27 16 -74 35.5t-123 19.5q-70 0 -127 -27.5t-99 -77t-65.5 -118t-23.5 -150.5q0 -84 24.5 -153.5t67.5 -121t103.5 -79t134.5 -27.5q90 0 143 36t96 101l37 84h19l-41 -196l-43 -4q-35 -14 -96.5 -28.5t-120.5 -14.5z" />
<glyph unicode="&#xaa;" horiz-adv-x="614" d="M207 588q-68 0 -112 44t-44 103q0 84 86 142.5t287 105.5l4 94q2 55 -10 90t-34 55.5t-50.5 29t-59.5 8.5q-51 0 -94 -23t-43 -39q0 -6 15.5 -22.5t15.5 -42.5q0 -23 -16.5 -39.5t-42.5 -16.5q-29 0 -45.5 15.5t-16.5 44.5q0 27 27.5 55.5t68.5 53t90.5 39.5t92.5 15 q98 0 145 -50t43 -177l-14 -366q-2 -35 10 -48.5t37 -13.5q23 0 41 13.5t39 29.5l6 -12q-23 -27 -54.5 -57.5t-72.5 -30.5q-35 0 -61.5 27.5t-30.5 74.5v2q-49 -43 -102.5 -73.5t-104.5 -30.5zM258 645q45 0 88 24.5t72 47.5l6 241q-84 -18 -138.5 -40.5t-86 -47t-44 -52 t-12.5 -58.5q0 -51 29 -83t86 -32z" />
<glyph unicode="&#xab;" horiz-adv-x="823" d="M360 440v29l398 340l10 -16l-279 -338l281 -340l-10 -17zM27 440v29l385 305l10 -16l-260 -303l262 -305l-10 -17z" />
<glyph unicode="&#xac;" horiz-adv-x="917" d="M856 270h-45v324h-782l6 45h821v-369z" />
<glyph unicode="&#xad;" horiz-adv-x="602" d="M55 522h498l-2 -57h-502z" />
<glyph unicode="&#xae;" horiz-adv-x="1460" d="M731 -29q-139 0 -261 52.5t-213 143.5t-143.5 213t-52.5 261t52.5 261t143.5 213t213 144.5t261 53.5t261 -53.5t213 -144.5t143.5 -213t52.5 -261t-52.5 -261t-143.5 -213t-213 -143.5t-261 -52.5zM731 4q131 0 247 50t202 136t136 202t50 249q0 131 -50 248t-136 204 t-202 137t-247 50q-133 0 -248.5 -50t-201.5 -137t-136.5 -204t-50.5 -248q0 -133 50.5 -249t136.5 -202t201.5 -136t248.5 -50zM401 289l78 6q14 2 28.5 7t14.5 11v666q0 6 -6 9t-41 7l-72 6l-6 23h318q135 0 205.5 -52t70.5 -138q0 -76 -55 -130.5t-135 -72.5l182 -283 q12 -18 22.5 -29.5t20.5 -16.5t21.5 -7t25.5 -4l35 -2l6 -25h-170l-20 37l-201 320q-23 2 -61.5 7t-59.5 9v-328q0 -6 17.5 -10t33.5 -6l74 -4l4 -25h-334zM721 647q82 4 134 50t52 130q0 82 -59.5 130.5t-169.5 41.5l-76 -2v-331q20 -8 58 -13.5t61 -5.5z" />
<glyph unicode="&#xaf;" horiz-adv-x="774" d="M143 1135h502l-8 -58h-506z" />
<glyph unicode="&#xb0;" horiz-adv-x="659" d="M330 750q-66 0 -117 22.5t-87 61t-55.5 90t-19.5 108.5t19.5 109.5t55.5 91.5t87 61.5t117 22.5t118 -22.5t87.5 -61.5t55 -91t19.5 -110q0 -57 -19.5 -108.5t-55 -90t-87.5 -61t-118 -22.5zM330 784q55 0 100 19.5t77 53.5t49 79t17 96t-17 97.5t-49 80t-77 53 t-100 19.5t-99.5 -19.5t-76 -53t-48 -80t-16.5 -97.5t16.5 -96t48 -79t76 -53.5t99.5 -19.5z" />
<glyph unicode="&#xb1;" horiz-adv-x="917" d="M436 504h-405l6 45h399v344h45v-344h400l6 -45h-406v-332h-45v332zM57 55l6 45h791l6 -45h-803z" />
<glyph unicode="&#xb2;" horiz-adv-x="575" d="M27 571q94 92 165.5 163t119.5 131.5t72 116.5t24 118q0 88 -48.5 129t-105.5 41q-66 0 -110 -32t-85 -99l-14 12q47 84 107.5 136t146.5 52q43 0 80 -14t64.5 -41t44 -62.5t16.5 -78.5q0 -61 -29 -118.5t-81 -118t-123.5 -129t-159.5 -152.5q0 -2 2 -2h4h4h250 q33 0 56.5 4t39.5 16t28.5 35.5t26.5 62.5l10 29h21l-47 -223h-475z" />
<glyph unicode="&#xb3;" horiz-adv-x="548" d="M188 510q-72 0 -110.5 23.5t-38.5 60.5q0 25 15.5 41t41.5 16q35 0 57.5 -30.5t18.5 -73.5q4 0 21.5 -4t33.5 -4q86 0 145.5 52t59.5 144q0 86 -49 134.5t-135 48.5q-31 0 -62.5 -7.5t-56.5 -17.5l-8 14q57 35 103 62.5t80 53.5t52.5 55.5t18.5 66.5q0 59 -36 91t-101 32 q-113 0 -181 -113l-12 10q41 78 102.5 126t139.5 48q74 0 126 -44t52 -109q0 -37 -16.5 -66.5t-43 -53.5t-61.5 -45.5t-72 -41.5v-4q113 10 178.5 -46.5t65.5 -150.5q0 -53 -25.5 -102t-70.5 -86t-104.5 -58.5t-127.5 -21.5z" />
<glyph unicode="&#xb4;" horiz-adv-x="776" d="M537 1393h139l-363 -377h-18z" />
<glyph unicode="&#xb5;" horiz-adv-x="1019" d="M23 -514l6 29l69 4q35 4 49.5 6t14.5 16v1282q0 10 -9.5 13.5t-66.5 7.5l-63 6l-7 27h254v-676q0 -37 17.5 -63.5t46 -45t66.5 -27t79 -8.5q86 0 143.5 29t110.5 88v592q0 47 -15.5 60.5t-60.5 17.5l-63 6l-6 27h256v-775q0 -27 8 -40t45 -17l92 -6l-4 -21l-252 -49 l4 168h-4q-18 -31 -42.5 -59.5t-55.5 -52t-70 -38t-86 -14.5q-68 0 -122 39t-83 86h-4v-557q0 -14 14.5 -16t49.5 -6l69 -4l7 -29h-387z" />
<glyph unicode="&#xb6;" horiz-adv-x="864" d="M705 618q-43 -10 -96.5 -14t-94.5 -4q-223 0 -338 93t-115 253t111 247t338 87h233v-1346h-38v684z" />
<glyph unicode="&#xb7;" horiz-adv-x="372" d="M188 342q-43 0 -70.5 27.5t-27.5 66.5q0 35 27.5 63.5t70.5 28.5q41 0 68 -28.5t27 -63.5q0 -39 -27 -66.5t-68 -27.5z" />
<glyph unicode="&#xb8;" horiz-adv-x="776" d="M197 -496q143 16 223 63.5t80 117.5q0 51 -40 78.5t-114 27.5q-41 0 -73.5 -6t-55.5 -12v18l193 219h36l-135 -153q53 8 100.5 2t83 -24.5t57 -49.5t21.5 -72q0 -47 -27.5 -85t-76.5 -66.5t-117.5 -47t-148.5 -24.5z" />
<glyph unicode="&#xb9;" horiz-adv-x="509" d="M102 567l76 6q49 6 49 23v670l-149 16l4 14l237 33v-735q0 -8 10.5 -14.5t49.5 -6.5l63 -6l4 -20h-348z" />
<glyph unicode="&#xba;" horiz-adv-x="743" d="M373 584q-74 0 -137.5 27.5t-108.5 75.5t-70.5 112.5t-25.5 138.5t26.5 139.5t72.5 115.5t108.5 78.5t134.5 28.5q74 0 136 -27.5t107.5 -75.5t71 -113.5t25.5 -139.5t-25.5 -139.5t-72 -114.5t-108.5 -77.5t-134 -28.5zM379 608q49 0 91 23.5t73.5 66.5t49 102.5 t17.5 129.5q0 90 -21.5 162.5t-66.5 117.5q-61 68 -155 68q-49 0 -92.5 -23.5t-74 -65.5t-49 -100.5t-18.5 -127.5q0 -96 25.5 -173t72.5 -124q27 -27 66 -41.5t82 -14.5z" />
<glyph unicode="&#xbb;" horiz-adv-x="835" d="M397 150l262 305l-262 303l11 16l385 -305v-29l-387 -307zM51 115l281 340l-279 338l10 16l396 -340v-29l-398 -342z" />
<glyph unicode="&#xbc;" horiz-adv-x="1368" d="M1110 -55h-338l-2 14l389 553h39v-502h143l-20 -65h-123v-224h-88v224zM1110 10v383h-4l-272 -383h276zM102 567l76 6q49 6 49 23v670l-149 16l4 14l237 33v-735q0 -8 10.5 -14.5t49.5 -6.5l63 -6l4 -20h-348zM1243 1290h60l-1188 -1538h-60z" />
<glyph unicode="&#xbd;" horiz-adv-x="1339" d="M778 -256q94 92 166 162.5t120 131t71.5 117t23.5 117.5q0 88 -48 129t-105 41q-66 0 -110 -31.5t-85 -99.5l-14 13q47 84 107.5 136t146.5 52q43 0 79.5 -14.5t64.5 -41t44 -62.5t16 -79q0 -61 -28.5 -118.5t-80.5 -118t-124 -129t-160 -152.5q0 -2 2 -2h4h4h250 q33 0 56.5 4t40 16.5t29 36t26.5 62.5l10 29h21l-48 -224h-475zM102 567l76 6q49 6 49 23v670l-149 16l4 14l237 33v-735q0 -8 10.5 -14.5t49.5 -6.5l63 -6l4 -20h-348zM1243 1290h60l-1188 -1538h-60z" />
<glyph unicode="&#xbe;" horiz-adv-x="1325" d="M1067 -55h-338l-2 14l389 553h39v-502h143l-20 -65h-123v-224h-88v224zM1067 10v383h-4l-272 -383h276zM188 510q-72 0 -110.5 23.5t-38.5 60.5q0 25 15.5 41t41.5 16q35 0 57.5 -30.5t18.5 -73.5q4 0 21.5 -4t33.5 -4q86 0 145.5 52t59.5 144q0 86 -49 134.5t-135 48.5 q-31 0 -62.5 -7.5t-56.5 -17.5l-8 14q57 35 103 62.5t80 53.5t52.5 55.5t18.5 66.5q0 59 -36 91t-101 32q-113 0 -181 -113l-12 10q41 78 102.5 126t139.5 48q74 0 126 -44t52 -109q0 -37 -16.5 -66.5t-43 -53.5t-61.5 -45.5t-72 -41.5v-4q113 10 178.5 -46.5t65.5 -150.5 q0 -53 -25.5 -102t-70.5 -86t-104.5 -58.5t-127.5 -21.5zM1200 1290h60l-1188 -1538h-60z" />
<glyph unicode="&#xbf;" horiz-adv-x="638" d="M342 1128q-43 0 -68.5 27t-25.5 62q0 39 25.5 66.5t68.5 27.5q41 0 68.5 -28t27.5 -66q0 -35 -27.5 -62t-68.5 -27zM434 -29q-78 0 -145.5 30t-116.5 79t-77.5 113.5t-28.5 134.5q0 55 13 91t38.5 60.5t63.5 44t89 43.5q37 16 68 30.5t54.5 31t36.5 39t13 53.5 q0 25 -11 50.5t-28.5 52t-39 50t-44.5 44.5h27q25 -20 53.5 -48t53 -60t41 -65.5t16.5 -66.5q0 -41 -13.5 -72t-40 -56.5t-66.5 -47t-93 -45.5q-100 -45 -148.5 -77t-48.5 -83q0 -31 17.5 -67.5t56.5 -67.5t99.5 -51.5t146.5 -20.5q41 0 76.5 6t58.5 13q12 -18 12 -66 q0 -33 -30.5 -52.5t-102.5 -19.5z" />
<glyph unicode="&#xc0;" horiz-adv-x="1259" d="M369 532l-123 -342q-18 -49 -25.5 -77.5t-0.5 -45t31.5 -22.5t72.5 -10l75 -6l7 -29h-420l6 29l63 6q35 4 56.5 13t40 35t39 75t53.5 135l319 887l-14 51q20 8 49 27.5t39 39.5h18l410 -1159q12 -31 20.5 -50t19.5 -30.5t27.5 -16.5t43.5 -7l84 -6l6 -29h-482l7 29l92 4 q33 2 58.5 13t14.5 40l-153 446h-434zM788 569l-98 287q-43 127 -100 289h-4l-205 -576h407zM299 1739h139l242 -377h-16z" />
<glyph unicode="&#xc1;" horiz-adv-x="1259" d="M369 532l-123 -342q-18 -49 -25.5 -77.5t-0.5 -45t31.5 -22.5t72.5 -10l75 -6l7 -29h-420l6 29l63 6q35 4 56.5 13t40 35t39 75t53.5 135l319 887l-14 51q20 8 49 27.5t39 39.5h18l410 -1159q12 -31 20.5 -50t19.5 -30.5t27.5 -16.5t43.5 -7l84 -6l6 -29h-482l7 29l92 4 q33 2 58.5 13t14.5 40l-153 446h-434zM788 569l-98 287q-43 127 -100 289h-4l-205 -576h407zM788 1739h140l-363 -377h-18z" />
<glyph unicode="&#xc2;" horiz-adv-x="1259" d="M369 532l-123 -342q-18 -49 -25.5 -77.5t-0.5 -45t31.5 -22.5t72.5 -10l75 -6l7 -29h-420l6 29l63 6q35 4 56.5 13t40 35t39 75t53.5 135l319 887l-14 51q20 8 49 27.5t39 39.5h18l410 -1159q12 -31 20.5 -50t19.5 -30.5t27.5 -16.5t43.5 -7l84 -6l6 -29h-482l7 29l92 4 q33 2 58.5 13t14.5 40l-153 446h-434zM788 569l-98 287q-43 127 -100 289h-4l-205 -576h407zM623 1726h18l252 -380h-21l-237 258h-4l-240 -258h-20z" />
<glyph unicode="&#xc3;" horiz-adv-x="1259" d="M369 532l-123 -342q-18 -49 -25.5 -77.5t-0.5 -45t31.5 -22.5t72.5 -10l75 -6l7 -29h-420l6 29l63 6q35 4 56.5 13t40 35t39 75t53.5 135l319 887l-14 51q20 8 49 27.5t39 39.5h18l410 -1159q12 -31 20.5 -50t19.5 -30.5t27.5 -16.5t43.5 -7l84 -6l6 -29h-482l7 29l92 4 q33 2 58.5 13t14.5 40l-153 446h-434zM788 569l-98 287q-43 127 -100 289h-4l-205 -576h407zM764 1378q-37 0 -78 19.5t-82 44t-79 44t-66 19.5q-37 0 -62.5 -20.5t-38.5 -91.5h-22q25 193 147 192q37 0 78 -19.5t82 -44t79 -44t66 -19.5q35 0 60.5 23.5t38.5 89.5h20 q-24 -193 -143 -193z" />
<glyph unicode="&#xc4;" horiz-adv-x="1259" d="M369 532l-123 -342q-18 -49 -25.5 -77.5t-0.5 -45t31.5 -22.5t72.5 -10l75 -6l7 -29h-420l6 29l63 6q35 4 56.5 13t40 35t39 75t53.5 135l319 887l-14 51q20 8 49 27.5t39 39.5h18l410 -1159q12 -31 20.5 -50t19.5 -30.5t27.5 -16.5t43.5 -7l84 -6l6 -29h-482l7 29l92 4 q33 2 58.5 13t14.5 40l-153 446h-434zM788 569l-98 287q-43 127 -100 289h-4l-205 -576h407zM784 1386q-43 0 -64.5 28t-21.5 54q0 29 21.5 60t64.5 31q41 0 61.5 -31t20.5 -60q0 -27 -20.5 -54.5t-61.5 -27.5zM459 1386q-41 0 -61.5 28t-20.5 54q0 29 20.5 60t61.5 31 q43 0 64.5 -31t21.5 -60q0 -27 -21.5 -54.5t-64.5 -27.5z" />
<glyph unicode="&#xc5;" horiz-adv-x="1259" d="M369 532l-123 -342q-18 -49 -25.5 -77.5t-0.5 -45t31.5 -22.5t72.5 -10l75 -6l7 -29h-420l6 29l63 6q35 4 56.5 13t40 35t39 75t53.5 135l348 958q-70 12 -109 63.5t-39 119.5q0 74 48.5 129t134.5 55t134 -55.5t48 -128.5q0 -66 -36 -115t-101 -64l393 -1116 q12 -31 20.5 -50t19.5 -30.5t27.5 -16.5t43.5 -7l84 -6l6 -29h-482l7 29l92 4q33 2 58.5 13t14.5 40l-153 446h-434zM627 1278q70 0 109.5 46t39.5 110q0 61 -40 108t-109 47q-72 0 -112 -47t-40 -108q0 -63 40 -109.5t112 -46.5zM788 569l-98 287q-43 127 -100 289h-4 l-205 -576h407z" />
<glyph unicode="&#xc6;" horiz-adv-x="1697" d="M-104 29l102 8q20 2 38.5 10t41 30.5t51.5 63.5t70 113l546 952q8 14 -11 23.5t-97 13.5l-105 8l-6 29h996l34 -334h-24l-21 88q-23 59 -47 100.5t-61 66t-93.5 35.5t-140.5 11h-243v-557h178q63 2 102 7t61.5 18.5t36 36t23.5 57.5l21 59l20 -4l-39 -391l-20 4l-6 55 q-4 39 -11.5 62.5t-29 36t-61.5 16.5t-107 6l-168 2v-614l215 -6q106 2 180 18.5t122 46t77.5 72.5t52.5 96l24 86l29 -2l-76 -352h-946l6 31l119 10q41 4 56.5 11t15.5 18v462h-402l-168 -294q-33 -59 -52 -97.5t-21 -60t18.5 -31.5t67.5 -14l102 -10l6 -25h-463zM801 569 v654h-8l-373 -654h381z" />
<glyph unicode="&#xc7;" horiz-adv-x="1327" d="M752 -29q-150 0 -276 47.5t-217 133.5t-142 205.5t-51 267.5q0 150 51 275.5t143 216.5t219 142.5t281 51.5q104 0 185 -21.5t145 -52.5l110 43l21 -367h-29l-119 283q-41 29 -122 55.5t-195 26.5q-127 0 -228.5 -47t-174 -132t-111.5 -202t-39 -254q0 -141 39 -259 t110.5 -202t173 -131t228.5 -47h32l5 6h36l-2 -4q125 14 202 71.5t138 149.5l60 142h30l-69 -318l-70 -2q-55 -25 -142 -48.5t-179 -27.5l-103 -116q53 8 100.5 2t83 -24.5t57 -49.5t21.5 -72q0 -47 -27.5 -85t-76.5 -66.5t-117.5 -47t-148.5 -24.5l-6 14q143 16 223 63.5 t80 117.5q0 51 -40 78.5t-114 27.5q-41 0 -73.5 -6t-55.5 -12v18l158 180h-4z" />
<glyph unicode="&#xc8;" horiz-adv-x="1148" d="M61 29l107 10q39 4 54.5 9t15.5 15v1158q0 10 -13.5 14t-70.5 8l-91 8l-6 29h918l33 -334h-25l-22 88q-23 59 -47.5 100.5t-62.5 67t-94.5 36.5t-140.5 11h-251v-559h204q63 2 100.5 7t58 17.5t30.5 35t20 57.5l21 59l22 -2l-39 -391l-22 2l-4 55q-4 39 -9.5 63.5 t-23.5 37t-57 16.5t-107 6l-194 2v-616l253 -6q106 0 176 17.5t113 48t68.5 73.5t48.5 96l25 86l30 -2l-78 -352h-946zM297 1739h139l242 -377h-16z" />
<glyph unicode="&#xc9;" horiz-adv-x="1148" d="M61 29l107 10q39 4 54.5 9t15.5 15v1158q0 10 -13.5 14t-70.5 8l-91 8l-6 29h918l33 -334h-25l-22 88q-23 59 -47.5 100.5t-62.5 67t-94.5 36.5t-140.5 11h-251v-559h204q63 2 100.5 7t58 17.5t30.5 35t20 57.5l21 59l22 -2l-39 -391l-22 2l-4 55q-4 39 -9.5 63.5 t-23.5 37t-57 16.5t-107 6l-194 2v-616l253 -6q106 0 176 17.5t113 48t68.5 73.5t48.5 96l25 86l30 -2l-78 -352h-946zM752 1739h139l-363 -377h-18z" />
<glyph unicode="&#xca;" horiz-adv-x="1148" d="M61 29l107 10q39 4 54.5 9t15.5 15v1158q0 10 -13.5 14t-70.5 8l-91 8l-6 29h918l33 -334h-25l-22 88q-23 59 -47.5 100.5t-62.5 67t-94.5 36.5t-140.5 11h-251v-559h204q63 2 100.5 7t58 17.5t30.5 35t20 57.5l21 59l22 -2l-39 -391l-22 2l-4 55q-4 39 -9.5 63.5 t-23.5 37t-57 16.5t-107 6l-194 2v-616l253 -6q106 0 176 17.5t113 48t68.5 73.5t48.5 96l25 86l30 -2l-78 -352h-946zM557 1726h18l252 -380h-20l-238 258h-4l-239 -258h-21z" />
<glyph unicode="&#xcb;" horiz-adv-x="1148" d="M61 29l107 10q39 4 54.5 9t15.5 15v1158q0 10 -13.5 14t-70.5 8l-91 8l-6 29h918l33 -334h-25l-22 88q-23 59 -47.5 100.5t-62.5 67t-94.5 36.5t-140.5 11h-251v-559h204q63 2 100.5 7t58 17.5t30.5 35t20 57.5l21 59l22 -2l-39 -391l-22 2l-4 55q-4 39 -9.5 63.5 t-23.5 37t-57 16.5t-107 6l-194 2v-616l253 -6q106 0 176 17.5t113 48t68.5 73.5t48.5 96l25 86l30 -2l-78 -352h-946zM723 1386q-43 0 -64.5 28t-21.5 54q0 29 21.5 60t64.5 31q41 0 61.5 -31t20.5 -60q0 -27 -20.5 -54.5t-61.5 -27.5zM397 1386q-41 0 -61.5 28t-20.5 54 q0 29 20.5 60t61.5 31q43 0 64.5 -31t21.5 -60q0 -27 -21.5 -54.5t-64.5 -27.5z" />
<glyph unicode="&#xcc;" horiz-adv-x="643" d="M76 29l110 10q41 4 56.5 9t15.5 15v1158q0 10 -13.5 14t-72.5 8l-94 8l-6 29h501l-6 -29l-110 -10q-41 -4 -56.5 -9t-15.5 -15v-1158q0 -10 14.5 -14t71.5 -8l94 -8l6 -29h-501zM14 1739h140l241 -377h-16z" />
<glyph unicode="&#xcd;" horiz-adv-x="643" d="M76 29l110 10q41 4 56.5 9t15.5 15v1158q0 10 -13.5 14t-72.5 8l-94 8l-6 29h501l-6 -29l-110 -10q-41 -4 -56.5 -9t-15.5 -15v-1158q0 -10 14.5 -14t71.5 -8l94 -8l6 -29h-501zM489 1739h140l-363 -377h-18z" />
<glyph unicode="&#xce;" horiz-adv-x="643" d="M76 29l110 10q41 4 56.5 9t15.5 15v1158q0 10 -13.5 14t-72.5 8l-94 8l-6 29h501l-6 -29l-110 -10q-41 -4 -56.5 -9t-15.5 -15v-1158q0 -10 14.5 -14t71.5 -8l94 -8l6 -29h-501zM311 1726h19l252 -380h-21l-237 258h-5l-239 -258h-21z" />
<glyph unicode="&#xcf;" horiz-adv-x="643" d="M76 29l110 10q41 4 56.5 9t15.5 15v1158q0 10 -13.5 14t-72.5 8l-94 8l-6 29h501l-6 -29l-110 -10q-41 -4 -56.5 -9t-15.5 -15v-1158q0 -10 14.5 -14t71.5 -8l94 -8l6 -29h-501zM483 1393q-43 0 -64.5 27.5t-21.5 54.5q0 29 21.5 59.5t64.5 30.5q41 0 61.5 -31t20.5 -59 q0 -27 -20.5 -54.5t-61.5 -27.5zM158 1393q-41 0 -61.5 27.5t-20.5 54.5q0 29 20.5 59.5t61.5 30.5q43 0 64.5 -31t21.5 -59q0 -27 -21.5 -54.5t-64.5 -27.5z" />
<glyph unicode="&#xd0;" horiz-adv-x="1359" d="M70 629l6 37h162v555q0 10 -14.5 14t-71.5 8l-82 8l-7 29l467 6q172 0 306.5 -44t226.5 -125t141 -196.5t49 -256.5q0 -143 -52 -265.5t-150.5 -210.5t-238.5 -138t-318 -50h-433l7 29l98 10q41 4 56.5 9t15.5 15v566h-168zM672 666l6 -37h-313v-570l180 -24 q141 4 248.5 53t180.5 129t108.5 184.5t35.5 219.5q0 137 -39 251.5t-115.5 198.5t-191.5 131t-268 47h-139v-583h307z" />
<glyph unicode="&#xd1;" horiz-adv-x="1423" d="M307 1167h-4l2 -1089q0 -14 27.5 -26.5t93.5 -16.5l82 -6l6 -29h-444l6 29l84 6q47 4 76.5 14t29.5 33v1102q-16 20 -47 33.5t-90 23.5l-68 10l-6 29h320l803 -1077h2l-2 1001q0 16 -28 24.5t-93 16.5l-82 6l-6 29h444l-6 -29l-84 -6q-47 -4 -76.5 -13t-29.5 -32v-1208 h-35zM874 1378q-37 0 -77.5 19.5t-81.5 44t-79 44t-67 19.5q-37 0 -62.5 -20.5t-37.5 -91.5h-23q25 193 148 192q37 0 78 -19.5t82 -44t78.5 -44t66.5 -19.5q35 0 60.5 23.5t37.5 89.5h21q-25 -193 -144 -193z" />
<glyph unicode="&#xd2;" horiz-adv-x="1447" d="M725 -27q-141 0 -262 48.5t-209 135.5t-138 209.5t-50 270.5q0 137 53 259t143 214t209 146.5t250 54.5q141 0 262 -49.5t210 -137.5t139 -212t50 -273q0 -135 -53 -257t-143 -212t-209 -143.5t-252 -53.5zM729 6q115 0 210 43t162.5 125t105.5 196.5t38 260.5 q0 147 -41 266t-111.5 204t-166 131t-205.5 46q-115 0 -209 -44t-162.5 -127t-106.5 -199.5t-38 -264.5q0 -145 40 -263t110.5 -201t166.5 -128t207 -45zM387 1739h139l242 -377h-16z" />
<glyph unicode="&#xd3;" horiz-adv-x="1447" d="M725 -27q-141 0 -262 48.5t-209 135.5t-138 209.5t-50 270.5q0 137 53 259t143 214t209 146.5t250 54.5q141 0 262 -49.5t210 -137.5t139 -212t50 -273q0 -135 -53 -257t-143 -212t-209 -143.5t-252 -53.5zM729 6q115 0 210 43t162.5 125t105.5 196.5t38 260.5 q0 147 -41 266t-111.5 204t-166 131t-205.5 46q-115 0 -209 -44t-162.5 -127t-106.5 -199.5t-38 -264.5q0 -145 40 -263t110.5 -201t166.5 -128t207 -45zM901 1739h139l-362 -377h-19z" />
<glyph unicode="&#xd4;" horiz-adv-x="1447" d="M725 -27q-141 0 -262 48.5t-209 135.5t-138 209.5t-50 270.5q0 137 53 259t143 214t209 146.5t250 54.5q141 0 262 -49.5t210 -137.5t139 -212t50 -273q0 -135 -53 -257t-143 -212t-209 -143.5t-252 -53.5zM729 6q115 0 210 43t162.5 125t105.5 196.5t38 260.5 q0 147 -41 266t-111.5 204t-166 131t-205.5 46q-115 0 -209 -44t-162.5 -127t-106.5 -199.5t-38 -264.5q0 -145 40 -263t110.5 -201t166.5 -128t207 -45zM715 1726h18l252 -380h-20l-238 258h-4l-240 -258h-20z" />
<glyph unicode="&#xd5;" horiz-adv-x="1447" d="M725 -27q-141 0 -262 48.5t-209 135.5t-138 209.5t-50 270.5q0 137 53 259t143 214t209 146.5t250 54.5q141 0 262 -49.5t210 -137.5t139 -212t50 -273q0 -135 -53 -257t-143 -212t-209 -143.5t-252 -53.5zM729 6q115 0 210 43t162.5 125t105.5 196.5t38 260.5 q0 147 -41 266t-111.5 204t-166 131t-205.5 46q-115 0 -209 -44t-162.5 -127t-106.5 -199.5t-38 -264.5q0 -145 40 -263t110.5 -201t166.5 -128t207 -45zM866 1378q-37 0 -77.5 19.5t-81.5 44t-79 44t-67 19.5q-37 0 -62.5 -20.5t-37.5 -91.5h-23q25 193 148 192 q37 0 78 -19.5t81.5 -44t78.5 -44t67 -19.5q35 0 60.5 23.5t37.5 89.5h21q-25 -193 -144 -193z" />
<glyph unicode="&#xd6;" horiz-adv-x="1447" d="M725 -27q-141 0 -262 48.5t-209 135.5t-138 209.5t-50 270.5q0 137 53 259t143 214t209 146.5t250 54.5q141 0 262 -49.5t210 -137.5t139 -212t50 -273q0 -135 -53 -257t-143 -212t-209 -143.5t-252 -53.5zM729 6q115 0 210 43t162.5 125t105.5 196.5t38 260.5 q0 147 -41 266t-111.5 204t-166 131t-205.5 46q-115 0 -209 -44t-162.5 -127t-106.5 -199.5t-38 -264.5q0 -145 40 -263t110.5 -201t166.5 -128t207 -45zM887 1386q-43 0 -64.5 28t-21.5 54q0 29 21.5 60t64.5 31q41 0 61.5 -31t20.5 -60q0 -27 -20.5 -54.5t-61.5 -27.5z M561 1386q-41 0 -61.5 28t-20.5 54q0 29 20.5 60t61.5 31q43 0 64.5 -31t21.5 -60q0 -27 -21.5 -54.5t-64.5 -27.5z" />
<glyph unicode="&#xd7;" horiz-adv-x="917" d="M426 483l-358 359l32 32l359 -358l358 358l33 -32l-358 -359l358 -358l-33 -33l-358 359l-359 -359l-32 33z" />
<glyph unicode="&#xd8;" horiz-adv-x="1447" d="M1081 1212q137 -86 219 -233.5t82 -339.5q0 -135 -53 -257t-143 -212t-209 -143.5t-252 -53.5q-88 0 -168 19.5t-151 54.5q-16 -29 -36 -63.5t-36 -63.5q-20 -37 -41 -70h-39l123 213q-141 82 -226 229.5t-85 344.5q0 137 53 259t143 214t209 146.5t250 54.5 q182 0 330 -82l106 182h39zM1018 1171q-129 104 -297 105q-115 0 -209 -44t-162.5 -126t-106.5 -200t-38 -263q0 -174 55 -305t152 -215zM741 625l-303 -525q125 -94 291 -94q115 0 210 43t162.5 125t105.5 196.5t38 260.5q0 170 -54 301t-147 217z" />
<glyph unicode="&#xd9;" horiz-adv-x="1359" d="M707 -29q-121 0 -211 26t-151.5 82t-92.5 145t-31 216v779q0 10 -13 15t-73 9l-102 8l-6 29h518l-6 -29l-119 -10q-41 -4 -56.5 -11t-15.5 -16v-780q0 -213 103.5 -303t300.5 -90q195 0 283.5 110.5t88.5 321.5v731q0 16 -36.5 26.5t-102.5 14.5l-82 6l-6 29h459l-6 -29 l-84 -6q-47 -4 -75 -13t-28 -32v-727q0 -248 -118.5 -375t-337.5 -127zM414 1739h139l242 -377h-17z" />
<glyph unicode="&#xda;" horiz-adv-x="1359" d="M707 -29q-121 0 -211 26t-151.5 82t-92.5 145t-31 216v779q0 10 -13 15t-73 9l-102 8l-6 29h518l-6 -29l-119 -10q-41 -4 -56.5 -11t-15.5 -16v-780q0 -213 103.5 -303t300.5 -90q195 0 283.5 110.5t88.5 321.5v731q0 16 -36.5 26.5t-102.5 14.5l-82 6l-6 29h459l-6 -29 l-84 -6q-47 -4 -75 -13t-28 -32v-727q0 -248 -118.5 -375t-337.5 -127zM874 1739h140l-363 -377h-18z" />
<glyph unicode="&#xdb;" horiz-adv-x="1359" d="M707 -29q-121 0 -211 26t-151.5 82t-92.5 145t-31 216v779q0 10 -13 15t-73 9l-102 8l-6 29h518l-6 -29l-119 -10q-41 -4 -56.5 -11t-15.5 -16v-780q0 -213 103.5 -303t300.5 -90q195 0 283.5 110.5t88.5 321.5v731q0 16 -36.5 26.5t-102.5 14.5l-82 6l-6 29h459l-6 -29 l-84 -6q-47 -4 -75 -13t-28 -32v-727q0 -248 -118.5 -375t-337.5 -127zM715 1726h18l252 -380h-20l-238 258h-4l-240 -258h-20z" />
<glyph unicode="&#xdc;" horiz-adv-x="1359" d="M707 -29q-121 0 -211 26t-151.5 82t-92.5 145t-31 216v779q0 10 -13 15t-73 9l-102 8l-6 29h518l-6 -29l-119 -10q-41 -4 -56.5 -11t-15.5 -16v-780q0 -213 103.5 -303t300.5 -90q195 0 283.5 110.5t88.5 321.5v731q0 16 -36.5 26.5t-102.5 14.5l-82 6l-6 29h459l-6 -29 l-84 -6q-47 -4 -75 -13t-28 -32v-727q0 -248 -118.5 -375t-337.5 -127zM559 1386q-41 0 -61.5 28t-20.5 54q0 29 20.5 60t61.5 31q43 0 64.5 -31t21.5 -60q0 -27 -21.5 -54.5t-64.5 -27.5zM885 1386q-43 0 -64.5 28t-21.5 54q0 29 21.5 60t64.5 31q41 0 61.5 -31t20.5 -60 q0 -27 -20.5 -54.5t-61.5 -27.5z" />
<glyph unicode="&#xdd;" horiz-adv-x="1220" d="M350 29l125 10q72 6 72 24v504l-336 568q-31 55 -55.5 80.5t-79.5 29.5l-78 6l-6 29h485l-6 -29l-96 -4q-51 -2 -58.5 -19.5t23.5 -70.5l309 -536h6l252 450q27 51 39 84t6 51.5t-29.5 27.5t-68.5 13l-84 4l-6 29h448l-6 -29l-65 -4q-35 -2 -56.5 -6t-41 -20.5t-41 -51 t-54.5 -96.5l-276 -487v-527q0 -10 14 -14t74 -8l108 -8l6 -29h-530zM823 1745h140l-363 -377h-18z" />
<glyph unicode="&#xde;" horiz-adv-x="1089" d="M47 29l119 10q41 4 56.5 9t15.5 15v1158q0 10 -13.5 14t-70.5 8l-105 8l-6 29h518l-6 -29l-119 -10q-41 -4 -56 -9t-15 -15v-211h112h82q233 0 351 -86t118 -240q0 -80 -35 -147.5t-97 -115.5t-149.5 -75t-189.5 -27q-49 0 -103.5 7.5t-88.5 11.5v-275q0 -10 14 -14 t72 -8l129 -8l6 -29h-545zM557 350q166 0 252 80t86 234q0 150 -88 230.5t-291 76.5l-151 -2v-594q35 -8 84 -16.5t108 -8.5z" />
<glyph unicode="&#xdf;" horiz-adv-x="985" d="M573 842q61 -33 125 -87.5t117 -121t87 -143t34 -156.5q0 -74 -22.5 -138.5t-62.5 -113.5t-94.5 -77t-117.5 -28q-98 0 -164.5 41t-66.5 113q0 37 23.5 62.5t57.5 25.5q33 0 50.5 -19.5t20.5 -45t-11 -48t-47 -28.5q18 -33 53 -53.5t88 -20.5q88 0 140.5 69.5t52.5 180.5 q0 152 -94.5 301.5t-290.5 265.5v10q133 25 201.5 91.5t68.5 199.5q0 45 -14.5 87t-42 74t-65.5 51.5t-83 19.5q-111 0 -169 -85t-58 -261v-1008h-246l6 29l70 4q33 2 47 4t14 18v748l-151 6l14 59l133 9l4 63q8 98 35 180t72 139.5t104.5 89t130.5 31.5q143 0 223 -72.5 t80 -187.5q0 -57 -20.5 -102t-54 -80t-80 -58.5t-97.5 -37.5z" />
<glyph unicode="&#xe0;" horiz-adv-x="817" d="M662 -23q-43 0 -80 37t-35 103l-2 4q-63 -59 -129 -100t-133 -41q-98 0 -157.5 56t-59.5 142q0 55 24.5 101.5t82.5 86.5t153.5 76.5t236.5 73.5l2 90q4 76 -12 125t-45 78t-68 39t-80 10q-35 0 -68.5 -9t-60 -22.5t-42 -29t-15.5 -25.5q0 -4 7 -11t14.5 -17.5 t14.5 -23.5t7 -32q0 -29 -22.5 -51.5t-57.5 -22.5q-33 0 -55.5 17.5t-22.5 58.5q0 35 35 73t89.5 69.5t118 52t122.5 20.5t107.5 -13t80 -47t48 -90.5t12.5 -142.5l-21 -493q-2 -43 13.5 -56.5t44.5 -13.5q23 0 49 18.5t53 47.5l16 -19q-35 -39 -73.5 -79t-91.5 -40zM332 51 q66 0 119 34t100 75l10 323q-115 -31 -189.5 -61.5t-117.5 -64t-59.5 -71.5t-16.5 -83q0 -72 41 -112t113 -40zM92 1393h139l242 -377h-16z" />
<glyph unicode="&#xe1;" horiz-adv-x="817" d="M662 -23q-43 0 -80 37t-35 103l-2 4q-63 -59 -129 -100t-133 -41q-98 0 -157.5 56t-59.5 142q0 55 24.5 101.5t82.5 86.5t153.5 76.5t236.5 73.5l2 90q4 76 -12 125t-45 78t-68 39t-80 10q-35 0 -68.5 -9t-60 -22.5t-42 -29t-15.5 -25.5q0 -4 7 -11t14.5 -17.5 t14.5 -23.5t7 -32q0 -29 -22.5 -51.5t-57.5 -22.5q-33 0 -55.5 17.5t-22.5 58.5q0 35 35 73t89.5 69.5t118 52t122.5 20.5t107.5 -13t80 -47t48 -90.5t12.5 -142.5l-21 -493q-2 -43 13.5 -56.5t44.5 -13.5q23 0 49 18.5t53 47.5l16 -19q-35 -39 -73.5 -79t-91.5 -40zM332 51 q66 0 119 34t100 75l10 323q-115 -31 -189.5 -61.5t-117.5 -64t-59.5 -71.5t-16.5 -83q0 -72 41 -112t113 -40zM567 1393h140l-363 -377h-18z" />
<glyph unicode="&#xe2;" horiz-adv-x="817" d="M662 -23q-43 0 -80 37t-35 103l-2 4q-63 -59 -129 -100t-133 -41q-98 0 -157.5 56t-59.5 142q0 55 24.5 101.5t82.5 86.5t153.5 76.5t236.5 73.5l2 90q4 76 -12 125t-45 78t-68 39t-80 10q-35 0 -68.5 -9t-60 -22.5t-42 -29t-15.5 -25.5q0 -4 7 -11t14.5 -17.5 t14.5 -23.5t7 -32q0 -29 -22.5 -51.5t-57.5 -22.5q-33 0 -55.5 17.5t-22.5 58.5q0 35 35 73t89.5 69.5t118 52t122.5 20.5t107.5 -13t80 -47t48 -90.5t12.5 -142.5l-21 -493q-2 -43 13.5 -56.5t44.5 -13.5q23 0 49 18.5t53 47.5l16 -19q-35 -39 -73.5 -79t-91.5 -40zM332 51 q66 0 119 34t100 75l10 323q-115 -31 -189.5 -61.5t-117.5 -64t-59.5 -71.5t-16.5 -83q0 -72 41 -112t113 -40zM373 1380h18l252 -381h-20l-238 258h-4l-240 -258h-20z" />
<glyph unicode="&#xe3;" horiz-adv-x="817" d="M662 -23q-43 0 -80 37t-35 103l-2 4q-63 -59 -129 -100t-133 -41q-98 0 -157.5 56t-59.5 142q0 55 24.5 101.5t82.5 86.5t153.5 76.5t236.5 73.5l2 90q4 76 -12 125t-45 78t-68 39t-80 10q-35 0 -68.5 -9t-60 -22.5t-42 -29t-15.5 -25.5q0 -4 7 -11t14.5 -17.5 t14.5 -23.5t7 -32q0 -29 -22.5 -51.5t-57.5 -22.5q-33 0 -55.5 17.5t-22.5 58.5q0 35 35 73t89.5 69.5t118 52t122.5 20.5t107.5 -13t80 -47t48 -90.5t12.5 -142.5l-21 -493q-2 -43 13.5 -56.5t44.5 -13.5q23 0 49 18.5t53 47.5l16 -19q-35 -39 -73.5 -79t-91.5 -40zM332 51 q66 0 119 34t100 75l10 323q-115 -31 -189.5 -61.5t-117.5 -64t-59.5 -71.5t-16.5 -83q0 -72 41 -112t113 -40zM532 1032q-37 0 -77.5 19.5t-81.5 44t-79 44t-67 19.5q-37 0 -62.5 -20.5t-37.5 -91.5h-23q25 193 148 192q37 0 78 -19.5t82 -44t78.5 -44t66.5 -19.5 q35 0 60.5 23.5t37.5 89.5h21q-25 -193 -144 -193z" />
<glyph unicode="&#xe4;" horiz-adv-x="817" d="M662 -23q-43 0 -80 37t-35 103l-2 4q-63 -59 -129 -100t-133 -41q-98 0 -157.5 56t-59.5 142q0 55 24.5 101.5t82.5 86.5t153.5 76.5t236.5 73.5l2 90q4 76 -12 125t-45 78t-68 39t-80 10q-35 0 -68.5 -9t-60 -22.5t-42 -29t-15.5 -25.5q0 -4 7 -11t14.5 -17.5 t14.5 -23.5t7 -32q0 -29 -22.5 -51.5t-57.5 -22.5q-33 0 -55.5 17.5t-22.5 58.5q0 35 35 73t89.5 69.5t118 52t122.5 20.5t107.5 -13t80 -47t48 -90.5t12.5 -142.5l-21 -493q-2 -43 13.5 -56.5t44.5 -13.5q23 0 49 18.5t53 47.5l16 -19q-35 -39 -73.5 -79t-91.5 -40zM332 51 q66 0 119 34t100 75l10 323q-115 -31 -189.5 -61.5t-117.5 -64t-59.5 -71.5t-16.5 -83q0 -72 41 -112t113 -40zM547 1053q-43 0 -64.5 27.5t-21.5 54.5q0 29 21.5 59.5t64.5 30.5q41 0 61.5 -31t20.5 -59q0 -27 -20.5 -54.5t-61.5 -27.5zM221 1053q-41 0 -61.5 27.5 t-20.5 54.5q0 29 20.5 59.5t61.5 30.5q43 0 64.5 -31t21.5 -59q0 -27 -21.5 -54.5t-64.5 -27.5z" />
<glyph unicode="&#xe5;" horiz-adv-x="817" d="M422 1028q-86 0 -134 54.5t-48 129.5q0 76 48 130.5t134 54.5t135 -54.5t49 -130.5t-49 -130t-135 -54zM662 -23q-43 0 -80 37t-35 103l-2 4q-63 -59 -129 -100t-133 -41q-98 0 -157.5 56t-59.5 142q0 55 24.5 101.5t82.5 86.5t153.5 76.5t236.5 73.5l2 90q4 76 -12 125 t-45 78t-68 39t-80 10q-35 0 -68.5 -9t-60 -22.5t-42 -29t-15.5 -25.5q0 -4 7 -11t14.5 -17.5t14.5 -23.5t7 -32q0 -29 -22.5 -51.5t-57.5 -22.5q-33 0 -55.5 17.5t-22.5 58.5q0 35 35 73t89.5 69.5t118 52t122.5 20.5t107.5 -13t80 -47t48 -90.5t12.5 -142.5l-21 -493 q-2 -43 13.5 -56.5t44.5 -13.5q23 0 49 18.5t53 47.5l16 -19q-35 -39 -73.5 -79t-91.5 -40zM422 1057q70 0 110.5 46t40.5 109t-40.5 109.5t-110.5 46.5q-72 0 -112 -46t-40 -110q0 -63 40 -109t112 -46zM332 51q66 0 119 34t100 75l10 323q-115 -31 -189.5 -61.5 t-117.5 -64t-59.5 -71.5t-16.5 -83q0 -72 41 -112t113 -40z" />
<glyph unicode="&#xe6;" horiz-adv-x="1363" d="M289 -27q-98 0 -160.5 59.5t-62.5 143.5q0 55 24.5 101.5t81.5 87.5t152.5 78.5t236.5 74.5l8 88q4 74 -12 123t-46 78t-70 40t-81 11q-35 0 -68.5 -9t-60 -22.5t-42 -29t-15.5 -25.5q0 -4 7 -11t14.5 -17.5t14.5 -23.5t7 -32q0 -29 -22.5 -51.5t-57.5 -22.5 q-33 0 -55.5 17.5t-22.5 58.5q0 35 35 73t89.5 69.5t118 52t122.5 20.5q106 0 161.5 -39t73.5 -125q59 78 138.5 121t189.5 43q74 0 132.5 -22.5t98 -60.5t60 -88t20.5 -103q0 -16 -1 -27.5t-3 -25.5l-612 4q-4 -23 -6 -54.5t-2 -58.5q0 -90 24.5 -166t68.5 -130t104.5 -85 t129.5 -31q96 0 166 40t125 128l25 -14q-61 -109 -148.5 -172.5t-207.5 -63.5q-113 0 -205 59.5t-144 158.5q-70 -90 -153.5 -155t-169.5 -65zM1174 614q2 111 -49.5 184.5t-155.5 73.5q-43 0 -86 -19t-81 -54t-67.5 -83t-46.5 -106zM340 45q72 0 136.5 48t121.5 126 q-41 94 -41 201v33.5t2 29.5q-115 -31 -188.5 -61.5t-116.5 -64t-59.5 -72.5t-16.5 -82q0 -72 44 -115t118 -43z" />
<glyph unicode="&#xe7;" horiz-adv-x="845" d="M451 -25q-84 2 -157 36t-126 93.5t-85 140.5t-32 175q0 102 35 191t95.5 154.5t143.5 102.5t179 37q61 0 114.5 -14t91.5 -39t59.5 -58.5t21.5 -72.5t-25 -64.5t-55 -25.5q-41 0 -63.5 26.5t-12.5 71.5q0 35 14.5 46t14.5 22q-4 8 -17.5 21t-36 25.5t-51.5 21.5t-61 9 q-66 0 -125.5 -30.5t-104.5 -83.5t-71.5 -128t-26.5 -161q0 -90 25.5 -166t69.5 -131t104.5 -86t130.5 -31q96 0 162.5 40t123.5 128l25 -14q-55 -100 -134 -162.5t-188 -71.5l-106 -120q53 8 100 2t83 -24.5t57.5 -49.5t21.5 -72q0 -47 -27.5 -85t-76.5 -66.5t-118 -47 t-149 -24.5l-6 14q143 16 223 63.5t80 117.5q0 51 -39.5 78.5t-113.5 27.5q-41 0 -74 -6t-55 -12v18l162 184v0z" />
<glyph unicode="&#xe8;" horiz-adv-x="854" d="M457 -25q-84 0 -158 34t-129 93.5t-87 140.5t-32 177q0 100 32 188t89 153.5t136 104.5t173 39q74 0 132.5 -22.5t98.5 -60.5t60.5 -88t20.5 -103q0 -16 -1 -27.5t-4 -25.5l-608 4q-4 -23 -7 -54.5t-3 -58.5q0 -90 25.5 -166t69.5 -130t104.5 -85t130.5 -31 q96 0 162.5 40t125.5 128l23 -14q-59 -109 -146 -172.5t-208 -63.5zM668 614q0 55 -12.5 102.5t-38 82.5t-63.5 54t-89 19q-43 0 -86 -19t-80 -54t-66.5 -83t-46.5 -106zM150 1393h139l241 -377h-16z" />
<glyph unicode="&#xe9;" horiz-adv-x="854" d="M457 -25q-84 0 -158 34t-129 93.5t-87 140.5t-32 177q0 100 32 188t89 153.5t136 104.5t173 39q74 0 132.5 -22.5t98.5 -60.5t60.5 -88t20.5 -103q0 -16 -1 -27.5t-4 -25.5l-608 4q-4 -23 -7 -54.5t-3 -58.5q0 -90 25.5 -166t69.5 -130t104.5 -85t130.5 -31 q96 0 162.5 40t125.5 128l23 -14q-59 -109 -146 -172.5t-208 -63.5zM668 614q0 55 -12.5 102.5t-38 82.5t-63.5 54t-89 19q-43 0 -86 -19t-80 -54t-66.5 -83t-46.5 -106zM612 1393h140l-363 -377h-18z" />
<glyph unicode="&#xea;" horiz-adv-x="854" d="M457 -25q-84 0 -158 34t-129 93.5t-87 140.5t-32 177q0 100 32 188t89 153.5t136 104.5t173 39q74 0 132.5 -22.5t98.5 -60.5t60.5 -88t20.5 -103q0 -16 -1 -27.5t-4 -25.5l-608 4q-4 -23 -7 -54.5t-3 -58.5q0 -90 25.5 -166t69.5 -130t104.5 -85t130.5 -31 q96 0 162.5 40t125.5 128l23 -14q-59 -109 -146 -172.5t-208 -63.5zM668 614q0 55 -12.5 102.5t-38 82.5t-63.5 54t-89 19q-43 0 -86 -19t-80 -54t-66.5 -83t-46.5 -106zM444 1380h19l252 -381h-21l-237 258h-4l-240 -258h-20z" />
<glyph unicode="&#xeb;" horiz-adv-x="854" d="M457 -25q-84 0 -158 34t-129 93.5t-87 140.5t-32 177q0 100 32 188t89 153.5t136 104.5t173 39q74 0 132.5 -22.5t98.5 -60.5t60.5 -88t20.5 -103q0 -16 -1 -27.5t-4 -25.5l-608 4q-4 -23 -7 -54.5t-3 -58.5q0 -90 25.5 -166t69.5 -130t104.5 -85t130.5 -31 q96 0 162.5 40t125.5 128l23 -14q-59 -109 -146 -172.5t-208 -63.5zM668 614q0 55 -12.5 102.5t-38 82.5t-63.5 54t-89 19q-43 0 -86 -19t-80 -54t-66.5 -83t-46.5 -106zM610 1053q-43 0 -64.5 27.5t-21.5 54.5q0 29 21.5 59.5t64.5 30.5q41 0 61.5 -31t20.5 -59 q0 -27 -20.5 -54.5t-61.5 -27.5zM285 1053q-41 0 -61.5 27.5t-20.5 54.5q0 29 20.5 59.5t61.5 30.5q43 0 64.5 -31t21.5 -59q0 -27 -21.5 -54.5t-64.5 -27.5z" />
<glyph unicode="&#xec;" horiz-adv-x="448" d="M39 29l72 4q35 2 48 5t13 19v639q0 72 -12.5 93.5t-53.5 25.5l-79 10l4 21l252 57v-850q0 -10 12 -13t61 -7l66 -4l6 -29h-395zM-84 1393h139l242 -377h-16z" />
<glyph unicode="&#xed;" horiz-adv-x="448" d="M39 29l72 4q35 2 48 5t13 19v639q0 72 -12.5 93.5t-53.5 25.5l-79 10l4 21l252 57v-850q0 -10 12 -13t61 -7l66 -4l6 -29h-395zM371 1393h139l-363 -377h-18z" />
<glyph unicode="&#xee;" horiz-adv-x="448" d="M211 1380h20l234 -381h-21l-221 256h-4l-225 -256h-21zM39 29l72 4q35 2 48 5t13 19v639q0 72 -12.5 93.5t-53.5 25.5l-79 10l4 21l252 57v-850q0 -10 12 -13t61 -7l66 -4l6 -29h-395z" />
<glyph unicode="&#xef;" horiz-adv-x="448" d="M39 29l72 4q35 2 48 5t13 19v639q0 72 -12.5 93.5t-53.5 25.5l-79 10l4 21l252 57v-850q0 -10 12 -13t61 -7l66 -4l6 -29h-395zM383 1053q-43 0 -64.5 27.5t-21.5 54.5q0 29 21.5 59.5t64.5 30.5q41 0 61.5 -31t20.5 -59q0 -27 -20.5 -54.5t-61.5 -27.5zM57 1053 q-41 0 -61.5 27.5t-20.5 54.5q0 29 20.5 59.5t61.5 30.5q43 0 64.5 -31t21.5 -59q0 -27 -21.5 -54.5t-64.5 -27.5z" />
<glyph unicode="&#xf0;" horiz-adv-x="972" d="M172 1059l4 41l234 78q-113 68 -275 100l15 20q92 -12 170.5 -37.5t150.5 -62.5l248 82l4 -41l-205 -68q96 -59 171 -136t125 -164t77 -181t27 -186q0 -111 -32 -207t-90.5 -168t-140.5 -114t-182 -42q-96 0 -176 36t-138.5 98.5t-91 146.5t-32.5 180t33.5 181t93 149.5 t139.5 102.5t172 38q70 0 135.5 -25.5t112.5 -74.5q-41 102 -105.5 190t-162.5 156zM483 0q133 0 219 109.5t86 314.5q0 102 -23.5 185t-65.5 142.5t-100 91t-128 31.5q-68 0 -124 -29.5t-97 -84.5t-64.5 -131t-23.5 -168q0 -217 89 -339t232 -122z" />
<glyph unicode="&#xf1;" horiz-adv-x="1011" d="M41 29l68 4q35 2 49 5t14 19v641q0 70 -12.5 91.5t-48.5 25.5l-84 10l2 21l254 57l-4 -176l6 -4q33 29 70.5 60.5t80.5 59t91 45t100 17.5q100 0 159 -59q33 -35 50.5 -84t17.5 -117v-590q0 -10 10 -14t64 -8l65 -4l6 -29h-391l6 29l70 4q41 2 52.5 8t11.5 16v551 q0 111 -51.5 161t-139.5 50q-78 0 -148.5 -40t-127.5 -93v-633q0 -10 13 -13t62 -7l64 -4l8 -29h-393zM647 1032q-37 0 -78 19.5t-82 44t-78.5 44t-66.5 19.5q-37 0 -62.5 -20.5t-37.5 -91.5h-23q25 193 148 192q37 0 77.5 -19.5t81.5 -44t79 -44t67 -19.5q35 0 60.5 23.5 t37.5 89.5h21q-25 -193 -144 -193z" />
<glyph unicode="&#xf2;" horiz-adv-x="995" d="M500 -27q-94 0 -175 35t-141.5 96.5t-95.5 145.5t-35 184t35 186.5t95.5 150t142.5 99t176 35.5q92 0 173 -34.5t140 -96t94 -145.5t35 -183q0 -102 -35 -189t-95 -149.5t-141 -98.5t-173 -36zM502 2q68 0 125 33t99 91t66.5 135t24.5 167q0 113 -26.5 206t-85.5 152 q-84 88 -207 88q-68 0 -127.5 -32.5t-102.5 -89t-67.5 -132t-24.5 -163.5q0 -119 33 -218.5t92 -158.5q78 -78 201 -78zM160 1393h139l242 -377h-17z" />
<glyph unicode="&#xf3;" horiz-adv-x="995" d="M500 -27q-94 0 -175 35t-141.5 96.5t-95.5 145.5t-35 184t35 186.5t95.5 150t142.5 99t176 35.5q92 0 173 -34.5t140 -96t94 -145.5t35 -183q0 -102 -35 -189t-95 -149.5t-141 -98.5t-173 -36zM502 2q68 0 125 33t99 91t66.5 135t24.5 167q0 113 -26.5 206t-85.5 152 q-84 88 -207 88q-68 0 -127.5 -32.5t-102.5 -89t-67.5 -132t-24.5 -163.5q0 -119 33 -218.5t92 -158.5q78 -78 201 -78zM680 1393h139l-362 -377h-19z" />
<glyph unicode="&#xf4;" horiz-adv-x="995" d="M500 -27q-94 0 -175 35t-141.5 96.5t-95.5 145.5t-35 184t35 186.5t95.5 150t142.5 99t176 35.5q92 0 173 -34.5t140 -96t94 -145.5t35 -183q0 -102 -35 -189t-95 -149.5t-141 -98.5t-173 -36zM502 2q68 0 125 33t99 91t66.5 135t24.5 167q0 113 -26.5 206t-85.5 152 q-84 88 -207 88q-68 0 -127.5 -32.5t-102.5 -89t-67.5 -132t-24.5 -163.5q0 -119 33 -218.5t92 -158.5q78 -78 201 -78zM487 1380h19l252 -381h-21l-237 258h-4l-240 -258h-20z" />
<glyph unicode="&#xf5;" horiz-adv-x="995" d="M500 -27q-94 0 -175 35t-141.5 96.5t-95.5 145.5t-35 184t35 186.5t95.5 150t142.5 99t176 35.5q92 0 173 -34.5t140 -96t94 -145.5t35 -183q0 -102 -35 -189t-95 -149.5t-141 -98.5t-173 -36zM502 2q68 0 125 33t99 91t66.5 135t24.5 167q0 113 -26.5 206t-85.5 152 q-84 88 -207 88q-68 0 -127.5 -32.5t-102.5 -89t-67.5 -132t-24.5 -163.5q0 -119 33 -218.5t92 -158.5q78 -78 201 -78zM639 1032q-37 0 -78 19.5t-82 44t-79 44t-66 19.5q-37 0 -62.5 -20.5t-38.5 -91.5h-22q25 193 147 192q37 0 78 -19.5t82 -44t79 -44t67 -19.5 q35 0 60.5 23.5t37.5 89.5h20q-24 -193 -143 -193z" />
<glyph unicode="&#xf6;" horiz-adv-x="995" d="M500 -27q-94 0 -175 35t-141.5 96.5t-95.5 145.5t-35 184t35 186.5t95.5 150t142.5 99t176 35.5q92 0 173 -34.5t140 -96t94 -145.5t35 -183q0 -102 -35 -189t-95 -149.5t-141 -98.5t-173 -36zM502 2q68 0 125 33t99 91t66.5 135t24.5 167q0 113 -26.5 206t-85.5 152 q-84 88 -207 88q-68 0 -127.5 -32.5t-102.5 -89t-67.5 -132t-24.5 -163.5q0 -119 33 -218.5t92 -158.5q78 -78 201 -78zM659 1053q-43 0 -64.5 27.5t-21.5 54.5q0 29 21.5 59.5t64.5 30.5q41 0 61.5 -31t20.5 -59q0 -27 -20.5 -54.5t-61.5 -27.5zM334 1053q-41 0 -61.5 27.5 t-20.5 54.5q0 29 20.5 59.5t61.5 30.5q43 0 64.5 -31t21.5 -59q0 -27 -21.5 -54.5t-64.5 -27.5z" />
<glyph unicode="&#xf7;" horiz-adv-x="917" d="M559 772q0 -41 -28.5 -71.5t-73.5 -30.5q-43 0 -72 30.5t-29 71.5q0 39 29 68.5t72 29.5q45 0 73.5 -29.5t28.5 -68.5zM49 461l6 45h807l6 -45h-819zM559 201q0 -41 -28.5 -72t-71.5 -31q-45 0 -74 31t-29 72q0 39 29 67.5t74 28.5q43 0 71.5 -28.5t28.5 -67.5z" />
<glyph unicode="&#xf8;" horiz-adv-x="995" d="M246 51q-88 59 -140.5 158.5t-52.5 224.5q0 100 35 186.5t95.5 150t142.5 99t176 35.5q111 0 207 -51l170 291h39q-35 -61 -68 -117q-29 -49 -59.5 -101.5t-53.5 -90.5q94 -59 150.5 -160t56.5 -230q0 -102 -35 -189t-95 -149.5t-141 -98.5t-173 -36q-63 0 -120.5 16.5 t-107.5 45.5q-18 -35 -44.5 -79t-49.5 -85q-29 -49 -57 -98h-37zM709 782l-30 -51t-76 -129t-98 -169t-98.5 -169t-76.5 -130l-31 -52l2 -2q78 -78 201 -78q68 0 125 33t99 91t66.5 135t24.5 167q0 111 -26.5 203t-81.5 151zM682 807q-78 68 -184 67q-68 0 -127.5 -32.5 t-102.5 -89t-67.5 -132t-24.5 -163.5q0 -111 26.5 -200t73.5 -151z" />
<glyph unicode="&#xf9;" horiz-adv-x="968" d="M723 150h-4q-33 -29 -71 -60t-81 -56.5t-90 -43t-98 -17.5q-53 0 -93 15.5t-75 46.5q-35 35 -49.5 85t-14.5 113v590q0 10 -9 13.5t-66 7.5l-64 6l-6 27h254v-607q0 -111 50 -162t143 -51q78 0 145.5 38t124.5 91v580q0 47 -15.5 60.5t-60.5 17.5l-63 6l-7 27h256v-775 q0 -27 8.5 -40t45.5 -17l92 -6l-4 -21l-252 -49zM215 1393h139l242 -377h-16z" />
<glyph unicode="&#xfa;" horiz-adv-x="968" d="M723 150h-4q-33 -29 -71 -60t-81 -56.5t-90 -43t-98 -17.5q-53 0 -93 15.5t-75 46.5q-35 35 -49.5 85t-14.5 113v590q0 10 -9 13.5t-66 7.5l-64 6l-6 27h254v-607q0 -111 50 -162t143 -51q78 0 145.5 38t124.5 91v580q0 47 -15.5 60.5t-60.5 17.5l-63 6l-7 27h256v-775 q0 -27 8.5 -40t45.5 -17l92 -6l-4 -21l-252 -49zM670 1393h139l-363 -377h-18z" />
<glyph unicode="&#xfb;" horiz-adv-x="968" d="M723 150h-4q-33 -29 -71 -60t-81 -56.5t-90 -43t-98 -17.5q-53 0 -93 15.5t-75 46.5q-35 35 -49.5 85t-14.5 113v590q0 10 -9 13.5t-66 7.5l-64 6l-6 27h254v-607q0 -111 50 -162t143 -51q78 0 145.5 38t124.5 91v580q0 47 -15.5 60.5t-60.5 17.5l-63 6l-7 27h256v-775 q0 -27 8.5 -40t45.5 -17l92 -6l-4 -21l-252 -49zM465 1380h18l252 -381h-20l-238 258h-4l-240 -258h-20z" />
<glyph unicode="&#xfc;" horiz-adv-x="968" d="M723 150h-4q-33 -29 -71 -60t-81 -56.5t-90 -43t-98 -17.5q-53 0 -93 15.5t-75 46.5q-35 35 -49.5 85t-14.5 113v590q0 10 -9 13.5t-66 7.5l-64 6l-6 27h254v-607q0 -111 50 -162t143 -51q78 0 145.5 38t124.5 91v580q0 47 -15.5 60.5t-60.5 17.5l-63 6l-7 27h256v-775 q0 -27 8.5 -40t45.5 -17l92 -6l-4 -21l-252 -49zM311 1053q-41 0 -61.5 27.5t-20.5 54.5q0 29 20.5 59.5t61.5 30.5q43 0 64.5 -31t21.5 -59q0 -27 -21.5 -54.5t-64.5 -27.5zM637 1053q-43 0 -64.5 27.5t-21.5 54.5q0 29 21.5 59.5t64.5 30.5q41 0 61.5 -31t20.5 -59 q0 -27 -20.5 -54.5t-61.5 -27.5z" />
<glyph unicode="&#xfd;" horiz-adv-x="890" d="M158 -530q-49 0 -82 25.5t-33 60.5t22.5 60.5t61.5 25.5q35 0 61.5 -27t32.5 -74q61 14 98 83t82 208l45 143v2l-313 773q-12 31 -19.5 48t-16.5 27.5t-19 13.5t-29 5l-59 6l-6 27h374l-4 -27l-55 -6q-43 -2 -52 -19.5t7 -60.5l250 -633l198 547q18 51 24.5 82t0.5 48 t-25.5 23.5t-56.5 10.5l-57 8l-6 27h338l-7 -27l-47 -6q-25 -2 -41 -9.5t-29.5 -27t-27.5 -54t-35 -91.5l-248 -666l-65 -213q-47 -162 -106.5 -237.5t-155.5 -75.5zM627 1393h139l-363 -377h-18z" />
<glyph unicode="&#xfe;" horiz-adv-x="966" d="M-18 -485l71 4q35 4 48.5 6t13.5 18v1659q0 61 -12.5 83t-53.5 26l-86 6l4 22l256 54v-660l4 -4q31 31 66 61.5t74 55t83 39t95 14.5q78 0 145.5 -31.5t117.5 -88t78.5 -134.5t28.5 -172q0 -106 -36.5 -197.5t-98 -159t-142.5 -105.5t-169 -38q-72 0 -133.5 18.5 t-106.5 41.5h-6v-494q0 -10 12.5 -14t63.5 -6l98 -4l6 -29h-428zM479 8q70 0 127.5 31t98 85t63.5 130t23 168q0 84 -21.5 157.5t-61.5 128t-97.5 85t-127.5 30.5q-82 0 -144.5 -42t-115.5 -95v-547q43 -53 112.5 -92t143.5 -39z" />
<glyph unicode="&#xff;" horiz-adv-x="890" d="M158 -530q-49 0 -82 25.5t-33 60.5t22.5 60.5t61.5 25.5q35 0 61.5 -27t32.5 -74q61 14 98 83t82 208l45 143v2l-313 773q-12 31 -19.5 48t-16.5 27.5t-19 13.5t-29 5l-59 6l-6 27h374l-4 -27l-55 -6q-43 -2 -52 -19.5t7 -60.5l250 -633l198 547q18 51 24.5 82t0.5 48 t-25.5 23.5t-56.5 10.5l-57 8l-6 27h338l-7 -27l-47 -6q-25 -2 -41 -9.5t-29.5 -27t-27.5 -54t-35 -91.5l-248 -666l-65 -213q-47 -162 -106.5 -237.5t-155.5 -75.5zM627 1053q-43 0 -64.5 27.5t-21.5 54.5q0 29 21.5 59.5t64.5 30.5q41 0 61.5 -31t20.5 -59 q0 -27 -20.5 -54.5t-61.5 -27.5zM301 1053q-41 0 -61.5 27.5t-20.5 54.5q0 29 20.5 59.5t61.5 30.5q43 0 64.5 -31t21.5 -59q0 -27 -21.5 -54.5t-64.5 -27.5z" />
<glyph unicode="&#x100;" horiz-adv-x="1259" d="M369 532l-123 -342q-18 -49 -25.5 -77.5t-0.5 -45t31.5 -22.5t72.5 -10l75 -6l7 -29h-420l6 29l63 6q35 4 56.5 13t40 35t39 75t53.5 135l319 887l-14 51q20 8 49 27.5t39 39.5h18l410 -1159q12 -31 20.5 -50t19.5 -30.5t27.5 -16.5t43.5 -7l84 -6l6 -29h-482l7 29l92 4 q33 2 58.5 13t14.5 40l-153 446h-434zM788 569l-98 287q-43 127 -100 289h-4l-205 -576h407zM369 1536h501l-8 -57h-506z" />
<glyph unicode="&#x101;" horiz-adv-x="817" d="M662 -23q-43 0 -80 37t-35 103l-2 4q-63 -59 -129 -100t-133 -41q-98 0 -157.5 56t-59.5 142q0 55 24.5 101.5t82.5 86.5t153.5 76.5t236.5 73.5l2 90q4 76 -12 125t-45 78t-68 39t-80 10q-35 0 -68.5 -9t-60 -22.5t-42 -29t-15.5 -25.5q0 -4 7 -11t14.5 -17.5 t14.5 -23.5t7 -32q0 -29 -22.5 -51.5t-57.5 -22.5q-33 0 -55.5 17.5t-22.5 58.5q0 35 35 73t89.5 69.5t118 52t122.5 20.5t107.5 -13t80 -47t48 -90.5t12.5 -142.5l-21 -493q-2 -43 13.5 -56.5t44.5 -13.5q23 0 49 18.5t53 47.5l16 -19q-35 -39 -73.5 -79t-91.5 -40zM332 51 q66 0 119 34t100 75l10 323q-115 -31 -189.5 -61.5t-117.5 -64t-59.5 -71.5t-16.5 -83q0 -72 41 -112t113 -40zM160 1135h502l-9 -58h-506z" />
<glyph unicode="&#x102;" horiz-adv-x="1259" d="M369 532l-123 -342q-18 -49 -25.5 -77.5t-0.5 -45t31.5 -22.5t72.5 -10l75 -6l7 -29h-420l6 29l63 6q35 4 56.5 13t40 35t39 75t53.5 135l319 887l-14 51q20 8 49 27.5t39 39.5h18l410 -1159q12 -31 20.5 -50t19.5 -30.5t27.5 -16.5t43.5 -7l84 -6l6 -29h-482l7 29l92 4 q33 2 58.5 13t14.5 40l-153 446h-434zM788 569l-98 287q-43 127 -100 289h-4l-205 -576h407zM618 1409q-61 0 -103 29.5t-70.5 75t-46 100.5t-29.5 108h22q41 -111 96.5 -173t133.5 -62t133 62.5t96 172.5h22q-12 -53 -29.5 -108t-46 -100.5t-72 -75t-106.5 -29.5z" />
<glyph unicode="&#x103;" horiz-adv-x="817" d="M662 -23q-43 0 -80 37t-35 103l-2 4q-63 -59 -129 -100t-133 -41q-98 0 -157.5 56t-59.5 142q0 55 24.5 101.5t82.5 86.5t153.5 76.5t236.5 73.5l2 90q4 76 -12 125t-45 78t-68 39t-80 10q-35 0 -68.5 -9t-60 -22.5t-42 -29t-15.5 -25.5q0 -4 7 -11t14.5 -17.5 t14.5 -23.5t7 -32q0 -29 -22.5 -51.5t-57.5 -22.5q-33 0 -55.5 17.5t-22.5 58.5q0 35 35 73t89.5 69.5t118 52t122.5 20.5t107.5 -13t80 -47t48 -90.5t12.5 -142.5l-21 -493q-2 -43 13.5 -56.5t44.5 -13.5q23 0 49 18.5t53 47.5l16 -19q-35 -39 -73.5 -79t-91.5 -40zM332 51 q66 0 119 34t100 75l10 323q-115 -31 -189.5 -61.5t-117.5 -64t-59.5 -71.5t-16.5 -83q0 -72 41 -112t113 -40zM391 1008q-61 0 -103 29.5t-71 74.5t-46 100.5t-30 108.5h23q41 -111 96 -173.5t133 -62.5t133.5 62.5t96.5 173.5h22q-12 -53 -29.5 -108.5t-46 -100.5 t-72 -74.5t-106.5 -29.5z" />
<glyph unicode="&#x104;" horiz-adv-x="1259" d="M1092 -444q-63 0 -107.5 39.5t-44.5 113.5q0 45 24.5 89t61.5 83t81 70t81 49h-404l7 29l92 4q33 2 58.5 13t14.5 40l-155 449h-434q-10 -25 -19 -54q-8 -25 -19.5 -55.5t-21.5 -63.5l-61 -172q-18 -49 -25.5 -77.5t-0.5 -45t33 -22.5t73 -10l73 -6l7 -29h-420l6 29l63 6 q35 4 56.5 13t40 35t39 75t53.5 135l319 887l-14 51q20 8 52 27.5t42 39.5h12l410 -1159q12 -31 20.5 -50t19.5 -30.5t27.5 -16.5t43.5 -7l84 -6l6 -29q-115 -35 -175.5 -101.5t-60.5 -162.5q0 -55 26.5 -87t73.5 -32t73 22.5t42 51.5l15 -10q-23 -45 -60.5 -85t-107.5 -40z M788 569l-198 576h-4q-57 -162 -103 -289q-20 -53 -37.5 -104.5t-33.5 -92.5q-18 -47 -33 -90h409z" />
<glyph unicode="&#x105;" horiz-adv-x="817" d="M631 -430q-63 0 -107.5 40t-44.5 114q0 39 15.5 75.5t41 69.5t58.5 60.5t68 50.5h-3q-47 0 -80.5 37.5t-31.5 99.5l-2 4q-63 -59 -129 -100t-133 -41q-98 0 -157.5 56t-59.5 142q0 55 24.5 101.5t82.5 86.5t153.5 76.5t236.5 73.5l2 90q4 76 -12 125t-45 78t-68 39 t-80 10q-35 0 -68.5 -9t-60 -22.5t-42 -29t-15.5 -25.5q0 -4 7 -11t14.5 -17.5t14.5 -23.5t7 -32q0 -29 -22.5 -51.5t-57.5 -22.5q-33 0 -55.5 17.5t-22.5 58.5q0 35 35 73t89.5 69.5t118 52t122.5 20.5t107.5 -13t80 -47t48 -90.5t12.5 -142.5l-21 -493q-2 -43 13.5 -56.5 t44.5 -13.5q23 0 49 18.5t53 47.5l16 -19q-20 -29 -48.5 -58.5t-61.5 -49.5q-78 -47 -113 -108.5t-35 -129.5q0 -53 27 -86t74 -33t72.5 22.5t41.5 51.5l15 -10q-23 -45 -60.5 -85t-107.5 -40zM332 51q66 0 119 34t100 75l10 323q-115 -31 -189.5 -61.5t-117.5 -64 t-59.5 -71.5t-16.5 -83q0 -72 41 -112t113 -40z" />
<glyph unicode="&#x106;" horiz-adv-x="1327" d="M877 1794h139l-363 -377h-18zM752 -29q-150 0 -276 47.5t-217 133.5t-142 205.5t-51 267.5q0 150 51 275.5t143 216.5t219 142.5t281 51.5q104 0 185 -21.5t145 -52.5l110 43l21 -367h-29l-119 283q-41 29 -122 55.5t-195 26.5q-127 0 -228.5 -47t-174 -132t-111.5 -202 t-39 -254q0 -141 39 -259t110.5 -202t173 -131t228.5 -47q80 0 140 15.5t109.5 45t88 70.5t73.5 92l60 142h30l-69 -318l-70 -2q-61 -29 -161.5 -53.5t-202.5 -24.5z" />
<glyph unicode="&#x107;" horiz-adv-x="845" d="M606 1393h139l-362 -377h-18zM457 -25q-84 0 -158 34t-129 93.5t-87 140.5t-32 177q0 102 35 191t95.5 154.5t143.5 102.5t179 37q61 0 114.5 -14t91.5 -39t59.5 -58.5t21.5 -72.5t-25 -64.5t-55 -25.5q-41 0 -63.5 26.5t-12.5 71.5q0 35 14.5 46t14.5 22q-4 8 -17.5 21 t-36 25.5t-51.5 21.5t-61 9q-66 0 -125.5 -30.5t-104.5 -83.5t-71.5 -128t-26.5 -161q0 -90 25.5 -166t69.5 -131t104.5 -86t130.5 -31q96 0 162.5 40t123.5 128l25 -14q-59 -109 -146 -172.5t-208 -63.5z" />
<glyph unicode="&#x108;" horiz-adv-x="1327" d="M721 1782h18l252 -381h-20l-238 258h-4l-240 -258h-20zM752 -29q-150 0 -276 47.5t-217 133.5t-142 205.5t-51 267.5q0 150 51 275.5t143 216.5t219 142.5t281 51.5q104 0 185 -21.5t145 -52.5l110 43l21 -367h-29l-119 283q-41 29 -122 55.5t-195 26.5 q-127 0 -228.5 -47t-174 -132t-111.5 -202t-39 -254q0 -141 39 -259t110.5 -202t173 -131t228.5 -47q80 0 140 15.5t109.5 45t88 70.5t73.5 92l60 142h30l-69 -318l-70 -2q-61 -29 -161.5 -53.5t-202.5 -24.5z" />
<glyph unicode="&#x109;" horiz-adv-x="845" d="M451 1380h18l252 -381h-21l-237 258h-4l-240 -258h-20zM457 -25q-84 0 -158 34t-129 93.5t-87 140.5t-32 177q0 102 35 191t95.5 154.5t143.5 102.5t179 37q61 0 114.5 -14t91.5 -39t59.5 -58.5t21.5 -72.5t-25 -64.5t-55 -25.5q-41 0 -63.5 26.5t-12.5 71.5 q0 35 14.5 46t14.5 22q-4 8 -17.5 21t-36 25.5t-51.5 21.5t-61 9q-66 0 -125.5 -30.5t-104.5 -83.5t-71.5 -128t-26.5 -161q0 -90 25.5 -166t69.5 -131t104.5 -86t130.5 -31q96 0 162.5 40t123.5 128l25 -14q-59 -109 -146 -172.5t-208 -63.5z" />
<glyph unicode="&#x10a;" horiz-adv-x="1327" d="M752 -29q-150 0 -276 47.5t-217 133.5t-142 205.5t-51 267.5q0 150 51 275.5t143 216.5t219 142.5t281 51.5q104 0 185 -21.5t145 -52.5l110 43l21 -367h-29l-119 283q-41 29 -122 55.5t-195 26.5q-127 0 -228.5 -47t-174 -132t-111.5 -202t-39 -254q0 -141 39 -259 t110.5 -202t173 -131t228.5 -47q80 0 140 15.5t109.5 45t88 70.5t73.5 92l60 142h30l-69 -318l-70 -2q-61 -29 -161.5 -53.5t-202.5 -24.5zM725 1485q-43 0 -64.5 29.5t-21.5 58.5t21.5 59.5t64.5 30.5q45 0 66.5 -30.5t21.5 -59.5t-21.5 -58.5t-66.5 -29.5z" />
<glyph unicode="&#x10b;" horiz-adv-x="845" d="M457 -25q-84 0 -158 34t-129 93.5t-87 140.5t-32 177q0 102 35 191t95.5 154.5t143.5 102.5t179 37q61 0 114.5 -14t91.5 -39t59.5 -58.5t21.5 -72.5t-25 -64.5t-55 -25.5q-41 0 -63.5 26.5t-12.5 71.5q0 35 14.5 46t14.5 22q-4 8 -17.5 21t-36 25.5t-51.5 21.5t-61 9 q-66 0 -125.5 -30.5t-104.5 -83.5t-71.5 -128t-26.5 -161q0 -90 25.5 -166t69.5 -131t104.5 -86t130.5 -31q96 0 162.5 40t123.5 128l25 -14q-59 -109 -146 -172.5t-208 -63.5zM467 1083q-43 0 -64.5 30t-21.5 58q0 29 21.5 60t64.5 31q45 0 66.5 -31t21.5 -60t-21.5 -58.5 t-66.5 -29.5z" />
<glyph unicode="&#x10c;" horiz-adv-x="1327" d="M475 1782h21l239 -260h4l238 260h20l-252 -381h-18zM752 -29q-150 0 -276 47.5t-217 133.5t-142 205.5t-51 267.5q0 150 51 275.5t143 216.5t219 142.5t281 51.5q104 0 185 -21.5t145 -52.5l110 43l21 -367h-29l-119 283q-41 29 -122 55.5t-195 26.5q-127 0 -228.5 -47 t-174 -132t-111.5 -202t-39 -254q0 -141 39 -259t110.5 -202t173 -131t228.5 -47q80 0 140 15.5t109.5 45t88 70.5t73.5 92l60 142h30l-69 -318l-70 -2q-61 -29 -161.5 -53.5t-202.5 -24.5z" />
<glyph unicode="&#x10d;" horiz-adv-x="845" d="M201 1380h20l240 -260h4l237 260h21l-252 -381h-18zM457 -25q-84 0 -158 34t-129 93.5t-87 140.5t-32 177q0 102 35 191t95.5 154.5t143.5 102.5t179 37q61 0 114.5 -14t91.5 -39t59.5 -58.5t21.5 -72.5t-25 -64.5t-55 -25.5q-41 0 -63.5 26.5t-12.5 71.5q0 35 14.5 46 t14.5 22q-4 8 -17.5 21t-36 25.5t-51.5 21.5t-61 9q-66 0 -125.5 -30.5t-104.5 -83.5t-71.5 -128t-26.5 -161q0 -90 25.5 -166t69.5 -131t104.5 -86t130.5 -31q96 0 162.5 40t123.5 128l25 -14q-59 -109 -146 -172.5t-208 -63.5z" />
<glyph unicode="&#x10e;" horiz-adv-x="1316" d="M68 29l98 10q41 4 56.5 9t15.5 15v1158q0 10 -13.5 14t-72.5 8l-82 8l-7 29l467 6q172 0 306.5 -44t226.5 -125t141 -196.5t49 -256.5q0 -143 -52 -265.5t-150.5 -210.5t-238.5 -138t-318 -50h-433zM545 35q141 4 248.5 53t180.5 129t108.5 184.5t35.5 219.5 q0 137 -39 251.5t-115.5 198.5t-191.5 131t-268 47h-139v-1190zM344 1782h21l239 -260h4l238 260h20l-252 -381h-18z" />
<glyph unicode="&#x10f;" horiz-adv-x="1343" d="M743 133l-4 2q-29 -31 -62.5 -59.5t-72.5 -51t-85 -37t-97 -14.5q-78 0 -144.5 32t-117.5 90.5t-80 140t-29 180.5q0 106 37 195t99.5 153.5t144.5 99.5t172 35q76 0 131 -17.5t104 -45.5h2h2v374q0 59 -10 80t-51 23l-104 10l4 23l270 51v-1297q0 -27 8 -41t43 -18 l94 -6l-2 -23l-250 -43zM481 47q88 0 149.5 40t112.5 93v541q-41 59 -109.5 101t-150.5 42q-70 0 -127 -29.5t-97 -84t-61.5 -129t-21.5 -166.5q0 -86 21.5 -161t61.5 -129t96 -86t126 -32zM1026 965q25 20 52.5 41.5t51 48t38 60.5t14.5 77q0 33 -13.5 56.5t-34 35.5 t-45 16.5t-47.5 -2.5q-6 14 -4 33t13.5 35t31 27.5t47.5 11.5q59 0 99.5 -42t40.5 -116q0 -47 -20.5 -91t-53.5 -83t-74 -70.5t-82 -54.5z" />
<glyph unicode="&#x110;" horiz-adv-x="1359" d="M70 629l6 37h162v555q0 10 -14.5 14t-71.5 8l-82 8l-7 29l467 6q172 0 306.5 -44t226.5 -125t141 -196.5t49 -256.5q0 -143 -52 -265.5t-150.5 -210.5t-238.5 -138t-318 -50h-433l7 29l98 10q41 4 56.5 9t15.5 15v566h-168zM672 666l6 -37h-313v-570l180 -24 q141 4 248.5 53t180.5 129t108.5 184.5t35.5 219.5q0 137 -39 251.5t-115.5 198.5t-191.5 131t-268 47h-139v-583h307z" />
<glyph unicode="&#x111;" horiz-adv-x="997" d="M743 133l-4 2q-29 -31 -62.5 -59.5t-72.5 -51t-85 -37t-97 -14.5q-78 0 -144.5 32t-117.5 90.5t-80 140t-29 180.5q0 106 37 195t99.5 153.5t144.5 99.5t172 35q76 0 131 -17.5t104 -45.5h2h2v260h-264l-8 55h272v59q0 59 -10 80t-51 23l-104 10l4 23l270 51v-246h131 l12 -55l-143 -2v-994q0 -27 8 -41t43 -18l94 -6l-2 -23l-250 -43zM481 47q88 0 149.5 40t112.5 93v541q-41 59 -109.5 101t-150.5 42q-70 0 -127 -29.5t-97 -84t-61.5 -129t-21.5 -166.5q0 -86 21.5 -161t61.5 -129t96 -86t126 -32z" />
<glyph unicode="&#x112;" horiz-adv-x="1148" d="M61 29l107 10q39 4 54.5 9t15.5 15v1158q0 10 -13.5 14t-70.5 8l-91 8l-6 29h918l33 -334h-25l-22 88q-23 59 -47.5 100.5t-62.5 67t-94.5 36.5t-140.5 11h-251v-559h204q63 2 100.5 7t58 17.5t30.5 35t20 57.5l21 59l22 -2l-39 -391l-22 2l-4 55q-4 39 -9.5 63.5 t-23.5 37t-57 16.5t-107 6l-194 2v-616l253 -6q106 0 176 17.5t113 48t68.5 73.5t48.5 96l25 86l30 -2l-78 -352h-946zM317 1536h502l-8 -57h-506z" />
<glyph unicode="&#x113;" horiz-adv-x="854" d="M457 -25q-84 0 -158 34t-129 93.5t-87 140.5t-32 177q0 100 32 188t89 153.5t136 104.5t173 39q74 0 132.5 -22.5t98.5 -60.5t60.5 -88t20.5 -103q0 -16 -1 -27.5t-4 -25.5l-608 4q-4 -23 -7 -54.5t-3 -58.5q0 -90 25.5 -166t69.5 -130t104.5 -85t130.5 -31 q96 0 162.5 40t125.5 128l23 -14q-59 -109 -146 -172.5t-208 -63.5zM668 614q0 55 -12.5 102.5t-38 82.5t-63.5 54t-89 19q-43 0 -86 -19t-80 -54t-66.5 -83t-46.5 -106zM225 1135h502l-8 -58h-506z" />
<glyph unicode="&#x114;" horiz-adv-x="1148" d="M61 29l107 10q39 4 54.5 9t15.5 15v1158q0 10 -13.5 14t-70.5 8l-91 8l-6 29h918l33 -334h-25l-22 88q-23 59 -47.5 100.5t-62.5 67t-94.5 36.5t-140.5 11h-251v-559h204q63 2 100.5 7t58 17.5t30.5 35t20 57.5l21 59l22 -2l-39 -391l-22 2l-4 55q-4 39 -9.5 63.5 t-23.5 37t-57 16.5t-107 6l-194 2v-616l253 -6q106 0 176 17.5t113 48t68.5 73.5t48.5 96l25 86l30 -2l-78 -352h-946zM592 1409q-61 0 -103.5 29.5t-71 75t-46 100.5t-29.5 108h23q41 -111 96 -173t133 -62t133 62.5t96 172.5h23q-12 -53 -29.5 -108t-46.5 -100.5t-72 -75 t-106 -29.5z" />
<glyph unicode="&#x115;" horiz-adv-x="854" d="M457 -25q-84 0 -158 34t-129 93.5t-87 140.5t-32 177q0 100 32 188t89 153.5t136 104.5t173 39q74 0 132.5 -22.5t98.5 -60.5t60.5 -88t20.5 -103q0 -16 -1 -27.5t-4 -25.5l-608 4q-4 -23 -7 -54.5t-3 -58.5q0 -90 25.5 -166t69.5 -130t104.5 -85t130.5 -31 q96 0 162.5 40t125.5 128l23 -14q-59 -109 -146 -172.5t-208 -63.5zM668 614q0 55 -12.5 102.5t-38 82.5t-63.5 54t-89 19q-43 0 -86 -19t-80 -54t-66.5 -83t-46.5 -106zM459 1008q-61 0 -103.5 29.5t-71 74.5t-46 100.5t-29.5 108.5h22q41 -111 96.5 -173.5t133.5 -62.5 t133 62.5t96 173.5h23q-12 -53 -29.5 -108.5t-46.5 -100.5t-72 -74.5t-106 -29.5z" />
<glyph unicode="&#x116;" horiz-adv-x="1148" d="M61 29l107 10q39 4 54.5 9t15.5 15v1158q0 10 -13.5 14t-70.5 8l-91 8l-6 29h918l33 -334h-25l-22 88q-23 59 -47.5 100.5t-62.5 67t-94.5 36.5t-140.5 11h-251v-559h204q63 2 100.5 7t58 17.5t30.5 35t20 57.5l21 59l22 -2l-39 -391l-22 2l-4 55q-4 39 -9.5 63.5 t-23.5 37t-57 16.5t-107 6l-194 2v-616l253 -6q106 0 176 17.5t113 48t68.5 73.5t48.5 96l25 86l30 -2l-78 -352h-946zM571 1485q-43 0 -64.5 29.5t-21.5 58.5t21.5 59.5t64.5 30.5q45 0 66.5 -30.5t21.5 -59.5t-21.5 -58.5t-66.5 -29.5z" />
<glyph unicode="&#x117;" horiz-adv-x="854" d="M457 -25q-84 0 -158 34t-129 93.5t-87 140.5t-32 177q0 100 32 188t89 153.5t136 104.5t173 39q74 0 132.5 -22.5t98.5 -60.5t60.5 -88t20.5 -103q0 -16 -1 -27.5t-4 -25.5l-608 4q-4 -23 -7 -54.5t-3 -58.5q0 -90 25.5 -166t69.5 -130t104.5 -85t130.5 -31 q96 0 162.5 40t125.5 128l23 -14q-59 -109 -146 -172.5t-208 -63.5zM668 614q0 55 -12.5 102.5t-38 82.5t-63.5 54t-89 19q-43 0 -86 -19t-80 -54t-66.5 -83t-46.5 -106zM465 1083q-43 0 -64.5 30t-21.5 58q0 29 21.5 60t64.5 31q45 0 66.5 -31t21.5 -60t-21.5 -58.5 t-66.5 -29.5z" />
<glyph unicode="&#x118;" horiz-adv-x="1148" d="M834 -430q-61 0 -104.5 40t-43.5 116q0 43 18.5 81.5t48 74.5t66.5 65.5t72 52.5h-836l6 29l107 10q39 4 54.5 9t15.5 15v1158q0 10 -13.5 14t-70.5 8l-91 10l-6 27h918l33 -334h-25l-22 88q-23 59 -47.5 100.5t-62.5 67t-94.5 36.5t-140.5 11h-251v-559h204 q63 2 100.5 7t58 17.5t30.5 35t20 57.5l21 59l22 -2l-39 -391l-22 2l-4 55q-4 39 -9.5 63.5t-23.5 37t-57 16.5t-107 6l-194 2v-616l253 -6q106 0 176 17.5t113 48t68.5 73.5t48.5 96l25 86l30 -2l-78 -352h-71q-80 -53 -118 -117.5t-38 -130.5q0 -55 26.5 -88t73.5 -33 t73 22.5t42 51.5l15 -10q-23 -45 -61.5 -85t-108.5 -40z" />
<glyph unicode="&#x119;" horiz-adv-x="854" d="M502 -430q-63 0 -106.5 40t-43.5 116q0 39 15.5 75.5t41 68.5t58.5 60.5t65 53.5q-31 -8 -75 -9q-84 0 -158 34t-129 93.5t-87 140.5t-32 177q0 100 32 188t89 153.5t136 104.5t173 39q74 0 132.5 -22.5t98.5 -60.5t60.5 -88t20.5 -103q0 -16 -1 -27.5t-4 -25.5l-608 4 q-4 -23 -7 -54.5t-3 -58.5q0 -90 25.5 -166t69.5 -130t104.5 -85t130.5 -31q96 0 162.5 40t125.5 128l23 -14q-41 -72 -89 -122t-110 -85q-86 -47 -128 -115.5t-42 -136.5q0 -55 27 -88t74 -33t72.5 22.5t41.5 51.5l13 -10q-23 -45 -60.5 -85t-107.5 -40zM668 614 q0 55 -12.5 102.5t-38 82.5t-63.5 54t-89 19q-43 0 -86 -19t-80 -54t-66.5 -83t-46.5 -106z" />
<glyph unicode="&#x11a;" horiz-adv-x="1148" d="M330 1782h20l240 -260h4l237 260h21l-252 -381h-18zM61 29l107 10q39 4 54.5 9t15.5 15v1158q0 10 -13.5 14t-70.5 8l-91 8l-6 29h918l33 -334h-25l-22 88q-23 59 -47.5 100.5t-62.5 67t-94.5 36.5t-140.5 11h-251v-559h204q63 2 100.5 7t58 17.5t30.5 35t20 57.5l21 59 l22 -2l-39 -391l-22 2l-4 55q-4 39 -9.5 63.5t-23.5 37t-57 16.5t-107 6l-194 2v-616l253 -6q106 0 176 17.5t113 48t68.5 73.5t48.5 96l25 86l30 -2l-78 -352h-946z" />
<glyph unicode="&#x11b;" horiz-adv-x="854" d="M201 1380h20l240 -260h4l237 260h21l-252 -381h-18zM457 -25q-84 0 -158 34t-129 93.5t-87 140.5t-32 177q0 100 32 188t89 153.5t136 104.5t173 39q74 0 132.5 -22.5t98.5 -60.5t60.5 -88t20.5 -103q0 -16 -1 -27.5t-4 -25.5l-608 4q-4 -23 -7 -54.5t-3 -58.5 q0 -90 25.5 -166t69.5 -130t104.5 -85t130.5 -31q96 0 162.5 40t125.5 128l23 -14q-59 -109 -146 -172.5t-208 -63.5zM668 614q0 55 -12.5 102.5t-38 82.5t-63.5 54t-89 19q-43 0 -86 -19t-80 -54t-66.5 -83t-46.5 -106z" />
<glyph unicode="&#x11c;" horiz-adv-x="1386" d="M735 1782h19l252 -381h-21l-237 258h-5l-239 -258h-21zM756 -31q-150 0 -277 47t-219 131t-143 203t-51 264q0 150 51 278t143 221t220 146.5t282 53.5q102 0 182 -22.5t143 -53.5l113 43l4 -360h-28l-105 276q-41 29 -120 55.5t-199 26.5q-123 0 -224.5 -49t-173 -135 t-111.5 -204t-40 -255q0 -141 41 -257t114.5 -199t178 -128t231.5 -45q39 0 81 5t81 13.5t72.5 19.5t56.5 26v428q0 10 -16.5 14t-73.5 8l-113 8l-6 29h504l-6 -29l-97 -10q-41 -4 -56 -9t-15 -15v-396l127 13l2 -23q-59 -23 -130 -44t-144.5 -37.5t-145.5 -27t-133 -10.5z " />
<glyph unicode="&#x11d;" horiz-adv-x="892" d="M362 -508q-156 0 -250 63.5t-94 170.5q0 45 21.5 84.5t54.5 72.5t73 57.5t75 41.5v2q-86 10 -138.5 41.5t-52.5 91.5q0 37 19.5 69.5t51.5 59t70.5 46t75.5 27.5v3q-78 27 -135 98.5t-57 167.5q0 68 26.5 126t71.5 100t106.5 66.5t133.5 24.5q59 0 111.5 -16.5 t92.5 -44.5l246 28l-8 -81l-194 18l-3 -6q37 -35 63 -87t26 -114q0 -66 -27 -122t-74 -97t-109.5 -64.5t-134.5 -23.5q-31 0 -59.5 4t-42.5 8q-53 -12 -96 -47t-43 -80q0 -47 37 -69.5t123 -22.5q14 0 45.5 1t66.5 1t68 1t51 1q147 0 224 -61.5t77 -159.5q0 -82 -37 -151.5 t-103.5 -120t-157 -79t-194.5 -28.5zM426 -465q68 0 130 20.5t111.5 55.5t79 83t29.5 103q0 86 -58.5 135.5t-191.5 53.5h-47t-50 -2t-62.5 -4.5t-83.5 -4.5q-25 -10 -55.5 -30.5t-57.5 -50t-45.5 -66.5t-18.5 -78q0 -49 25 -88t68 -67.5t101 -44t126 -15.5zM410 324 q96 0 158.5 74.5t62.5 193.5q0 133 -57.5 209t-161.5 76q-47 0 -87 -20.5t-69 -57.5t-45 -86t-16 -107q0 -129 60.5 -205.5t154.5 -76.5zM420 1380h18l252 -381h-20l-238 258h-4l-240 -258h-20z" />
<glyph unicode="&#x11e;" horiz-adv-x="1386" d="M756 -31q-150 0 -277 47t-219 131t-143 203t-51 264q0 150 51 278t143 221t220 146.5t282 53.5q102 0 182 -22.5t143 -53.5l113 43l4 -360h-28l-105 276q-41 29 -120 55.5t-199 26.5q-123 0 -224.5 -49t-173 -135t-111.5 -204t-40 -255q0 -141 41 -257t114.5 -199 t178 -128t231.5 -45q39 0 81 5t81 13.5t72.5 19.5t56.5 26v428q0 10 -16.5 14t-73.5 8l-113 8l-6 29h504l-6 -29l-97 -10q-41 -4 -56 -9t-15 -15v-396l127 13l2 -23q-59 -23 -130 -44t-144.5 -37.5t-145.5 -27t-133 -10.5zM737 1409q-61 0 -103 29.5t-70.5 75t-46 100.5 t-30.5 108h23q41 -111 96.5 -173t132.5 -62q78 0 133.5 62.5t96.5 172.5h22q-12 -53 -29.5 -108t-46 -100.5t-72 -75t-106.5 -29.5z" />
<glyph unicode="&#x11f;" horiz-adv-x="892" d="M362 -508q-156 0 -250 63.5t-94 170.5q0 45 21.5 84.5t54.5 72.5t73 57.5t75 41.5v2q-86 10 -138.5 41.5t-52.5 91.5q0 37 19.5 69.5t51.5 59t70.5 46t75.5 27.5v3q-78 27 -135 98.5t-57 167.5q0 68 26.5 126t71.5 100t106.5 66.5t133.5 24.5q59 0 111.5 -16.5 t92.5 -44.5l246 28l-8 -81l-194 18l-3 -6q37 -35 63 -87t26 -114q0 -66 -27 -122t-74 -97t-109.5 -64.5t-134.5 -23.5q-31 0 -59.5 4t-42.5 8q-53 -12 -96 -47t-43 -80q0 -47 37 -69.5t123 -22.5q14 0 45.5 1t66.5 1t68 1t51 1q147 0 224 -61.5t77 -159.5q0 -82 -37 -151.5 t-103.5 -120t-157 -79t-194.5 -28.5zM426 -465q68 0 130 20.5t111.5 55.5t79 83t29.5 103q0 86 -58.5 135.5t-191.5 53.5h-47t-50 -2t-62.5 -4.5t-83.5 -4.5q-25 -10 -55.5 -30.5t-57.5 -50t-45.5 -66.5t-18.5 -78q0 -49 25 -88t68 -67.5t101 -44t126 -15.5zM410 324 q96 0 158.5 74.5t62.5 193.5q0 133 -57.5 209t-161.5 76q-47 0 -87 -20.5t-69 -57.5t-45 -86t-16 -107q0 -129 60.5 -205.5t154.5 -76.5zM430 1008q-61 0 -103 29.5t-71 74.5t-46 100.5t-30 108.5h23q41 -111 96 -173.5t133 -62.5t133.5 62.5t96.5 173.5h22 q-12 -53 -29.5 -108.5t-46 -100.5t-72 -74.5t-106.5 -29.5z" />
<glyph unicode="&#x120;" horiz-adv-x="1386" d="M756 -31q-150 0 -277 47t-219 131t-143 203t-51 264q0 150 51 278t143 221t220 146.5t282 53.5q102 0 182 -22.5t143 -53.5l113 43l4 -360h-28l-105 276q-41 29 -120 55.5t-199 26.5q-123 0 -224.5 -49t-173 -135t-111.5 -204t-40 -255q0 -141 41 -257t114.5 -199 t178 -128t231.5 -45q39 0 81 5t81 13.5t72.5 19.5t56.5 26v428q0 10 -16.5 14t-73.5 8l-113 8l-6 29h504l-6 -29l-97 -10q-41 -4 -56 -9t-15 -15v-396l127 13l2 -23q-59 -23 -130 -44t-144.5 -37.5t-145.5 -27t-133 -10.5zM733 1485q-43 0 -64.5 29.5t-21.5 58.5t21.5 59.5 t64.5 30.5q45 0 66.5 -30.5t21.5 -59.5t-21.5 -58.5t-66.5 -29.5z" />
<glyph unicode="&#x121;" horiz-adv-x="892" d="M362 -508q-156 0 -250 63.5t-94 170.5q0 45 21.5 84.5t54.5 72.5t73 57.5t75 41.5v2q-86 10 -138.5 41.5t-52.5 91.5q0 37 19.5 69.5t51.5 59t70.5 46t75.5 27.5v3q-78 27 -135 98.5t-57 167.5q0 68 26.5 126t71.5 100t106.5 66.5t133.5 24.5q59 0 111.5 -16.5 t92.5 -44.5l246 28l-8 -81l-194 18l-3 -6q37 -35 63 -87t26 -114q0 -66 -27 -122t-74 -97t-109.5 -64.5t-134.5 -23.5q-31 0 -59.5 4t-42.5 8q-53 -12 -96 -47t-43 -80q0 -47 37 -69.5t123 -22.5q14 0 45.5 1t66.5 1t68 1t51 1q147 0 224 -61.5t77 -159.5q0 -82 -37 -151.5 t-103.5 -120t-157 -79t-194.5 -28.5zM426 -465q68 0 130 20.5t111.5 55.5t79 83t29.5 103q0 86 -58.5 135.5t-191.5 53.5h-47t-50 -2t-62.5 -4.5t-83.5 -4.5q-25 -10 -55.5 -30.5t-57.5 -50t-45.5 -66.5t-18.5 -78q0 -49 25 -88t68 -67.5t101 -44t126 -15.5zM410 324 q96 0 158.5 74.5t62.5 193.5q0 133 -57.5 209t-161.5 76q-47 0 -87 -20.5t-69 -57.5t-45 -86t-16 -107q0 -129 60.5 -205.5t154.5 -76.5zM430 1083q-43 0 -64.5 30t-21.5 58q0 29 21.5 60t64.5 31q45 0 66.5 -31t21.5 -60t-21.5 -58.5t-66.5 -29.5z" />
<glyph unicode="&#x122;" horiz-adv-x="1386" d="M627 -522q23 12 48 29.5t45.5 41t34 55t13.5 72.5q0 31 -13.5 52.5t-31.5 33t-39.5 12.5t-40.5 -7q-16 37 7.5 72.5t76.5 35.5t90 -41t37 -106q0 -43 -17.5 -83t-47 -75t-68.5 -62.5t-82 -44.5zM756 -31q-150 0 -277 47t-219 131t-143 203t-51 264q0 150 51 278t143 221 t220 146.5t282 53.5q102 0 182 -22.5t143 -53.5l113 43l4 -360h-28l-105 276q-41 29 -120 55.5t-199 26.5q-123 0 -224.5 -49t-173 -135t-111.5 -204t-40 -255q0 -141 41 -257t114.5 -199t178 -128t231.5 -45q39 0 81 5t81 13.5t72.5 19.5t56.5 26v428q0 10 -16.5 14 t-73.5 8l-113 8l-6 29h504l-6 -29l-97 -10q-41 -4 -56 -9t-15 -15v-396l127 13l2 -23q-59 -23 -130 -44t-144.5 -37.5t-145.5 -27t-133 -10.5z" />
<glyph unicode="&#x123;" horiz-adv-x="892" d="M362 -508q-156 0 -250 63.5t-94 170.5q0 45 21.5 84.5t54.5 72.5t73 57.5t75 41.5v2q-86 10 -138.5 41.5t-52.5 91.5q0 37 19.5 69.5t51.5 59t70.5 46t75.5 27.5v3q-78 27 -135 98.5t-57 167.5q0 68 26.5 126t71.5 100t106.5 66.5t133.5 24.5q59 0 111.5 -16.5 t92.5 -44.5l246 28l-8 -81l-194 18l-3 -6q37 -35 63 -87t26 -114q0 -66 -27 -122t-74 -97t-109.5 -64.5t-134.5 -23.5q-31 0 -59.5 4t-42.5 8q-53 -12 -96 -47t-43 -80q0 -47 37 -69.5t123 -22.5q14 0 45.5 1t66.5 1t68 1t51 1q147 0 224 -61.5t77 -159.5q0 -82 -37 -151.5 t-103.5 -120t-157 -79t-194.5 -28.5zM426 -465q68 0 130 20.5t111.5 55.5t79 83t29.5 103q0 86 -58.5 135.5t-191.5 53.5h-47t-50 -2t-62.5 -4.5t-83.5 -4.5q-25 -10 -55.5 -30.5t-57.5 -50t-45.5 -66.5t-18.5 -78q0 -49 25 -88t68 -67.5t101 -44t126 -15.5zM410 324 q96 0 158.5 74.5t62.5 193.5q0 133 -57.5 209t-161.5 76q-47 0 -87 -20.5t-69 -57.5t-45 -86t-16 -107q0 -129 60.5 -205.5t154.5 -76.5zM526 1393q-23 -12 -48 -29.5t-45.5 -41.5t-34 -55.5t-13.5 -72.5q0 -31 13.5 -52.5t32 -32.5t40 -13t39.5 8q16 -37 -7.5 -73 t-76.5 -36t-90 41t-37 107q0 43 17.5 83t47 74.5t68.5 62.5t82 44z" />
<glyph unicode="&#x124;" horiz-adv-x="1454" d="M719 1782h18l252 -381h-20l-238 258h-4l-240 -258h-20zM68 29l98 10q41 4 56.5 9t15.5 15v1158q0 10 -13.5 14t-72.5 8l-82 8l-7 29h484l-6 -29l-105 -10q-41 -4 -56 -9t-15 -15v-545h725v549q0 10 -14.5 14t-71.5 8l-91 8l-6 29h486l-7 -29l-100 -10q-72 -6 -72 -24 v-1158q0 -10 14.5 -14t71.5 -8l84 -8l7 -29h-484l6 29l105 10q72 6 72 24v572h-725v-576q0 -10 14 -14t72 -8l88 -8l6 -29h-484z" />
<glyph unicode="&#x125;" horiz-adv-x="991" d="M23 29l65 4q35 2 48.5 5t13.5 19v1143q0 66 -11.5 86.5t-52.5 26.5l-80 6l2 20l252 54v-666l2 -2q33 27 72 58.5t82 59t91 45t99 17.5q98 0 158 -59q68 -68 67 -199v-592q0 -10 9.5 -15t64.5 -7l64 -4l6 -29h-391l6 29l72 4q41 2 51 8t10 16v551q0 111 -50 161t-136 50 q-78 0 -150 -40t-127 -93v-633q0 -10 12.5 -13t61.5 -7l65 -4l7 -29h-390zM256 1817h18l252 -381h-20l-238 258h-4l-239 -258h-21z" />
<glyph unicode="&#x126;" horiz-adv-x="1454" d="M61 989h177v232q0 10 -13.5 14t-72.5 8l-82 10l-7 27h484l-6 -27l-105 -12q-72 -6 -71 -24v-228h725v232q0 10 -14.5 14t-71.5 8l-91 10l-6 27h486l-7 -27l-100 -12q-72 -6 -72 -24v-228h187l-8 -59h-179v-871q0 -10 14.5 -14t71.5 -8l84 -8l7 -29h-484l6 29l105 10 q72 6 72 24v572h-725v-576q0 -10 14 -14t72 -8l88 -8l6 -29h-484l7 29l98 10q41 4 56.5 9t15.5 15v867h-189zM1090 672v258h-725v-258h725z" />
<glyph unicode="&#x127;" horiz-adv-x="991" d="M18 1151h132v49q0 66 -11.5 86.5t-52.5 26.5l-80 6l2 20l252 54v-242h270l-8 -55h-262v-369l2 -2q33 27 72 58.5t82 59t91 45t99 17.5q98 0 158 -59q68 -68 67 -199v-592q0 -10 9.5 -15t64.5 -7l64 -4l6 -29h-391l6 29l72 4q41 2 51 8t10 16v551q0 111 -50 161t-136 50 q-78 0 -150 -40t-127 -93v-633q0 -10 12.5 -13t61.5 -7l65 -4l7 -29h-390l7 29l65 4q35 2 48.5 5t13.5 19v1039h-144z" />
<glyph unicode="&#x12a;" horiz-adv-x="643" d="M76 29l110 10q41 4 56.5 9t15.5 15v1158q0 10 -13.5 14t-72.5 8l-94 8l-6 29h501l-6 -29l-110 -10q-41 -4 -56.5 -9t-15.5 -15v-1158q0 -10 14.5 -14t71.5 -8l94 -8l6 -29h-501zM76 1536h502l-9 -57h-506z" />
<glyph unicode="&#x12b;" horiz-adv-x="448" d="M39 29l72 4q35 2 48 5t13 19v639q0 72 -12.5 93.5t-53.5 25.5l-79 10l4 21l252 57v-850q0 -10 12 -13t61 -7l66 -4l6 -29h-395zM-27 1135h502l-8 -58h-506z" />
<glyph unicode="&#x12c;" horiz-adv-x="643" d="M76 29l110 10q41 4 56.5 9t15.5 15v1158q0 10 -13.5 14t-72.5 8l-94 8l-6 29h501l-6 -29l-110 -10q-41 -4 -56.5 -9t-15.5 -15v-1158q0 -10 14.5 -14t71.5 -8l94 -8l6 -29h-501zM317 1409q-61 0 -103 29.5t-70.5 75t-46 100.5t-29.5 108h22q41 -111 96.5 -173t132.5 -62 q78 0 133.5 62.5t96.5 172.5h22q-12 -53 -29.5 -108t-46 -100.5t-72 -75t-106.5 -29.5z" />
<glyph unicode="&#x12d;" horiz-adv-x="448" d="M39 29l72 4q35 2 48 5t13 19v639q0 72 -12.5 93.5t-53.5 25.5l-79 10l4 21l252 57v-850q0 -10 12 -13t61 -7l66 -4l6 -29h-395zM219 1008q-61 0 -103 29.5t-71 74.5t-46 100.5t-30 108.5h23q41 -111 96 -173.5t133 -62.5t133.5 62.5t96.5 173.5h22q-12 -53 -29.5 -108.5 t-46 -100.5t-72 -74.5t-106.5 -29.5z" />
<glyph unicode="&#x12e;" horiz-adv-x="643" d="M403 -430q-63 0 -108 35t-45 110q0 49 20.5 92t56 80t81 66t94.5 47h-432l6 29l110 10q41 4 56.5 9t15.5 15v1158q0 10 -13.5 14t-72.5 8l-94 10l-6 27h501l-6 -27l-110 -12q-72 -6 -72 -24v-1158q0 -10 14.5 -14t71.5 -8l94 -8l6 -29q-104 -29 -168.5 -97.5 t-64.5 -160.5q0 -53 28.5 -82t75.5 -29t73 22.5t42 51.5l14 -10q-23 -45 -60.5 -85t-107.5 -40z" />
<glyph unicode="&#x12f;" horiz-adv-x="448" d="M258 -430q-66 0 -107.5 40t-41.5 111q0 43 19 84t50 77t70 65.5t80 52.5h-295l6 29l72 4q35 2 48 5t13 19v639q0 72 -12.5 93.5t-53.5 25.5l-79 10l4 21l252 57v-850q0 -10 12 -13t61 -7l66 -4l6 -29q-106 -29 -168.5 -94.5t-62.5 -155.5q0 -53 26.5 -86t75.5 -33 q47 0 72.5 22.5t42.5 51.5l14 -10q-23 -45 -61.5 -85t-108.5 -40zM207 1104q-45 0 -66.5 29.5t-21.5 58.5q0 31 22.5 62.5t67.5 31.5t64.5 -31.5t19.5 -60.5t-21.5 -59.5t-64.5 -30.5z" />
<glyph unicode="&#x130;" horiz-adv-x="643" d="M76 29l110 10q41 4 56.5 9t15.5 15v1158q0 10 -13.5 14t-72.5 8l-94 8l-6 29h501l-6 -29l-110 -10q-41 -4 -56.5 -9t-15.5 -15v-1158q0 -10 14.5 -14t71.5 -8l94 -8l6 -29h-501zM317 1485q-43 0 -64.5 29.5t-21.5 58.5t21.5 59.5t64.5 30.5q45 0 67 -30.5t22 -59.5 t-22 -58.5t-67 -29.5z" />
<glyph unicode="&#x131;" horiz-adv-x="448" d="M39 29l72 4q35 2 48 5t13 19v639q0 72 -12.5 93.5t-53.5 25.5l-79 10l4 21l252 57v-850q0 -10 12 -13t61 -7l66 -4l6 -29h-395z" />
<glyph unicode="&#x134;" horiz-adv-x="626" d="M330 1782h18l252 -381h-20l-238 258h-4l-240 -258h-20zM53 -246q-70 0 -110.5 28t-40.5 75q0 37 23.5 61.5t62.5 24.5q31 0 52 -15.5t31.5 -38t8.5 -49t-17 -47.5q96 -2 152.5 86t56.5 285v1057q0 10 -13 14t-73 8l-94 8l-6 29h496l-7 -29l-104 -10q-41 -4 -56.5 -9 t-15.5 -15v-1074q0 -47 -26.5 -113.5t-72.5 -128t-109.5 -104.5t-137.5 -43z" />
<glyph unicode="&#x135;" horiz-adv-x="415" d="M-16 -518q-66 0 -102 27.5t-36 72.5q0 31 22.5 51.5t55.5 20.5q39 0 65.5 -33t35.5 -94q72 12 102.5 88t30.5 207v874q0 72 -12.5 93.5t-53.5 25.5l-80 10l4 21l252 57v-977q0 -86 -21.5 -167t-58 -142t-89 -98t-115.5 -37zM188 1380h19l252 -381h-21l-237 258h-4 l-240 -258h-20z" />
<glyph unicode="&#x136;" horiz-adv-x="1302" d="M553 -522q23 12 48.5 29.5t46 41t33.5 55t13 72.5q0 31 -13 52.5t-31.5 33t-40 12.5t-40.5 -7q-16 37 7.5 72.5t76.5 35.5t90 -41t37 -106q0 -43 -17.5 -83t-47 -75t-68.5 -62.5t-82 -44.5zM68 29l98 10q41 4 56.5 9t15.5 15v1158q0 10 -13.5 14t-72.5 8l-82 8l-7 29h484 l-6 -29l-105 -10q-41 -4 -56 -9t-15 -15v-668l426 440q86 86 130 135.5t52 74t-14.5 32.5t-71.5 12l-99 8l-6 29h465l-6 -29l-53 -4q-27 -2 -45.5 -3t-34.5 -8t-35.5 -22.5t-50.5 -45t-77 -78t-114 -117.5l-169 -174l432 -660q23 -37 37 -57.5t26 -29.5t27.5 -12t40.5 -5 l65 -6l6 -29h-456l8 29l72 6q53 4 58 30.5t-9 49.5l-387 604l-217 -219v-441q0 -10 14 -14t72 -8l88 -8l6 -29h-484z" />
<glyph unicode="&#x137;" horiz-adv-x="919" d="M371 -522q23 12 48 29.5t45.5 41t34 55t13.5 72.5q0 31 -13.5 52.5t-31.5 33t-39.5 12.5t-40.5 -7q-16 37 7.5 72.5t76.5 35.5t90 -41t37 -106q0 -43 -17.5 -83t-47 -75t-68.5 -62.5t-82 -44.5zM23 29l65 4q35 2 48.5 5t13.5 19v1143q0 66 -11.5 87.5t-52.5 25.5l-80 6 l2 20l252 54v-981l264 254q37 39 68 77.5t31 59.5q0 35 -74 41l-66 6l-4 27h385l-6 -29l-63 -6q-25 -2 -46.5 -13.5t-45 -32t-53 -52t-72.5 -74.5q-37 -33 -64 -58q-23 -23 -43 -41t-18 -18l286 -434q14 -25 25.5 -41.5t24 -25.5t27.5 -13t40 -6l47 -4l6 -29h-233l-37 61 l-266 418l-113 -108v-318q0 -10 12.5 -13t59.5 -7l65 -4l6 -29h-387z" />
<glyph unicode="&#x139;" horiz-adv-x="1091" d="M473 1794h139l-362 -377h-19zM68 29l100 10q39 4 54.5 9t15.5 15v1158q0 10 -13.5 14t-70.5 8l-84 8l-7 29h519l-7 -29l-139 -10q-41 -4 -56 -11t-15 -16v-1175l204 -4q106 0 175 16.5t112 47t68.5 73.5t48.5 96l26 103h31l-80 -371h-889z" />
<glyph unicode="&#x13a;" horiz-adv-x="442" d="M336 1825h139l-362 -377h-19zM33 29l67 4q35 2 49.5 5t14.5 19v1133q0 72 -12.5 94.5t-53.5 28.5l-86 6l4 20l256 54v-1340q0 -10 11.5 -14t62.5 -6l66 -4l6 -29h-391z" />
<glyph unicode="&#x13b;" horiz-adv-x="1091" d="M459 -522q23 12 48 29.5t45.5 41t34 55t13.5 72.5q0 31 -13.5 52.5t-31.5 33t-39.5 12.5t-40.5 -7q-16 37 7.5 72.5t76.5 35.5t90 -41t37 -106q0 -43 -17.5 -83t-47 -75t-68.5 -62.5t-82 -44.5zM68 29l100 10q39 4 54.5 9t15.5 15v1158q0 10 -13.5 14t-70.5 8l-84 8 l-7 29h519l-7 -29l-139 -10q-41 -4 -56 -11t-15 -16v-1175l204 -4q106 0 175 16.5t112 47t68.5 73.5t48.5 96l26 103h31l-80 -371h-889z" />
<glyph unicode="&#x13c;" horiz-adv-x="442" d="M111 -522q23 12 48 29.5t45.5 41t34 55t13.5 72.5q0 31 -13.5 52.5t-32 33t-40 12.5t-39.5 -7q-16 37 7.5 72.5t76.5 35.5t90 -41t37 -106q0 -43 -17.5 -83t-47 -75t-68.5 -62.5t-82 -44.5zM33 29l67 4q35 2 49.5 5t14.5 19v1133q0 72 -12.5 94.5t-53.5 28.5l-86 6l4 20 l256 54v-1340q0 -10 11.5 -14t62.5 -6l66 -4l6 -29h-391z" />
<glyph unicode="&#x13d;" horiz-adv-x="1265" d="M1047 864q25 20 52 42t51 48.5t38 60.5t14 77q0 33 -13 56t-33.5 35.5t-45.5 16.5t-47 -2q-6 14 -4 32.5t13 35t30.5 28t48.5 11.5q59 0 99 -42t40 -116q0 -47 -20.5 -91t-53 -83t-73.5 -71t-82 -54zM68 29l100 10q39 4 54.5 9t15.5 15v1158q0 10 -13.5 14t-70.5 8l-84 8 l-7 29h519l-7 -29l-139 -10q-41 -4 -56 -11t-15 -16v-1175l204 -4q106 0 175 16.5t112 47t68.5 73.5t48.5 96l26 103h31l-80 -371h-889z" />
<glyph unicode="&#x13e;" horiz-adv-x="774" d="M455 965q25 20 52.5 41.5t51 48t37.5 60.5t14 77q0 33 -13 56.5t-33.5 35.5t-45 16.5t-47.5 -2.5q-6 14 -4 33t13.5 35t30.5 27.5t48 11.5q59 0 99 -42t40 -116q0 -47 -20.5 -91t-53 -83t-73.5 -70.5t-82 -54.5zM33 29l67 4q35 2 49.5 5t14.5 19v1133q0 72 -12.5 94.5 t-53.5 28.5l-86 6l4 20l256 54v-1340q0 -10 11.5 -14t62.5 -6l66 -4l6 -29h-391z" />
<glyph unicode="&#x13f;" horiz-adv-x="1263" d="M1225 526q-43 0 -71 28t-28 67q0 35 28 63.5t71 28.5q41 0 67.5 -29t26.5 -63q0 -39 -26.5 -67t-67.5 -28zM68 29l100 10q39 4 54.5 9t15.5 15v1158q0 10 -13.5 14t-70.5 8l-84 8l-7 29h519l-7 -29l-139 -10q-41 -4 -56 -11t-15 -16v-1175l204 -4q106 0 175 16.5t112 47 t68.5 73.5t48.5 96l26 103h31l-80 -371h-889z" />
<glyph unicode="&#x140;" horiz-adv-x="700" d="M586 545q-43 0 -71 27.5t-28 66.5q0 35 28 63.5t71 28.5q41 0 67.5 -28.5t26.5 -63.5q0 -39 -26.5 -66.5t-67.5 -27.5zM33 29l67 4q35 2 49.5 5t14.5 19v1133q0 72 -12.5 94.5t-53.5 28.5l-86 6l4 20l256 54v-1340q0 -10 11.5 -14t62.5 -6l66 -4l6 -29h-391z" />
<glyph unicode="&#x141;" horiz-adv-x="1101" d="M43 477l-2 37l197 61v646q0 10 -13.5 14t-70.5 8l-84 8l-7 29h519l-7 -29l-139 -10q-41 -4 -56 -11t-15 -16v-600l219 70l4 -41l-223 -68v-536l204 -4q106 0 175 16.5t112 47t68.5 73.5t48.5 96l26 103h31l-80 -371h-889l7 29l100 10q39 4 54.5 9t15.5 15v474z" />
<glyph unicode="&#x142;" horiz-adv-x="432" d="M14 461l2 39l148 45v645q0 70 -12.5 93.5t-53.5 27.5l-86 6l4 22l256 54v-815l138 43l2 -39l-140 -43v-486q0 -10 11.5 -14t62.5 -6l66 -4l6 -29h-391l6 29l67 4q35 2 49.5 5t14.5 19v449z" />
<glyph unicode="&#x143;" horiz-adv-x="1423" d="M909 1794h140l-363 -377h-18zM307 1167h-4l2 -1089q0 -14 27.5 -26.5t93.5 -16.5l82 -6l6 -29h-444l6 29l84 6q47 4 76.5 14t29.5 33v1102q-16 20 -47 33.5t-90 23.5l-68 10l-6 29h320l803 -1077h2l-2 1001q0 16 -28 24.5t-93 16.5l-82 6l-6 29h444l-6 -29l-84 -6 q-47 -4 -76.5 -13t-29.5 -32v-1208h-35z" />
<glyph unicode="&#x144;" horiz-adv-x="1011" d="M635 1393h139l-362 -377h-19zM41 29l68 4q35 2 49 5t14 19v641q0 70 -12.5 91.5t-48.5 25.5l-84 10l2 21l254 57l-4 -176l6 -4q33 29 70.5 60.5t80.5 59t91 45t100 17.5q100 0 159 -59q33 -35 50.5 -84t17.5 -117v-590q0 -10 10 -14t64 -8l65 -4l6 -29h-391l6 29l70 4 q41 2 52.5 8t11.5 16v551q0 111 -51.5 161t-139.5 50q-78 0 -148.5 -40t-127.5 -93v-633q0 -10 13 -13t62 -7l64 -4l8 -29h-393z" />
<glyph unicode="&#x145;" horiz-adv-x="1423" d="M635 -522q23 12 48.5 29.5t46 41t33.5 55t13 72.5q0 31 -13 52.5t-31.5 33t-40 12.5t-40.5 -7q-16 37 7.5 72.5t76.5 35.5t90 -41t37 -106q0 -43 -17.5 -83t-47 -75t-68.5 -62.5t-82 -44.5zM307 1167h-4l2 -1089q0 -14 27.5 -26.5t93.5 -16.5l82 -6l6 -29h-444l6 29l84 6 q47 4 76.5 14t29.5 33v1102q-16 20 -47 33.5t-90 23.5l-68 10l-6 29h320l803 -1077h2l-2 1001q0 16 -28 24.5t-93 16.5l-82 6l-6 29h444l-6 -29l-84 -6q-47 -4 -76.5 -13t-29.5 -32v-1208h-35z" />
<glyph unicode="&#x146;" horiz-adv-x="1011" d="M41 29l68 4q35 2 49 5t14 19v641q0 70 -12.5 91.5t-48.5 25.5l-84 10l2 21l254 57l-4 -176l6 -4q33 29 70.5 60.5t80.5 59t91 45t100 17.5q100 0 159 -59q33 -35 50.5 -84t17.5 -117v-590q0 -10 10 -14t64 -8l65 -4l6 -29h-391l6 29l70 4q41 2 52.5 8t11.5 16v551 q0 111 -51.5 161t-139.5 50q-78 0 -148.5 -40t-127.5 -93v-633q0 -10 13 -13t62 -7l64 -4l8 -29h-393zM395 -522q23 12 48.5 29.5t46 41t34 55t13.5 72.5q0 31 -13.5 52.5t-32 33t-40 12.5t-39.5 -7q-16 37 7 72.5t77 35.5q53 0 90 -41t37 -106q0 -43 -17.5 -83t-47.5 -75 t-68.5 -62.5t-81.5 -44.5z" />
<glyph unicode="&#x147;" horiz-adv-x="1423" d="M489 1782h21l240 -260h4l237 260h21l-252 -381h-19zM307 1167h-4l2 -1089q0 -14 27.5 -26.5t93.5 -16.5l82 -6l6 -29h-444l6 29l84 6q47 4 76.5 14t29.5 33v1102q-16 20 -47 33.5t-90 23.5l-68 10l-6 29h320l803 -1077h2l-2 1001q0 16 -28 24.5t-93 16.5l-82 6l-6 29h444 l-6 -29l-84 -6q-47 -4 -76.5 -13t-29.5 -32v-1208h-35z" />
<glyph unicode="&#x148;" horiz-adv-x="1011" d="M223 1380h21l239 -260h4l238 260h20l-251 -381h-19zM41 29l68 4q35 2 49 5t14 19v641q0 70 -12.5 91.5t-48.5 25.5l-84 10l2 21l254 57l-4 -176l6 -4q33 29 70.5 60.5t80.5 59t91 45t100 17.5q100 0 159 -59q33 -35 50.5 -84t17.5 -117v-590q0 -10 10 -14t64 -8l65 -4 l6 -29h-391l6 29l70 4q41 2 52.5 8t11.5 16v551q0 111 -51.5 161t-139.5 50q-78 0 -148.5 -40t-127.5 -93v-633q0 -10 13 -13t62 -7l64 -4l8 -29h-393z" />
<glyph unicode="&#x14c;" horiz-adv-x="1447" d="M508 1536h502l-9 -57h-505zM725 -27q-141 0 -262 48.5t-209 135.5t-138 209.5t-50 270.5q0 137 53 259t143 214t209 146.5t250 54.5q141 0 262 -49.5t210 -137.5t139 -212t50 -273q0 -135 -53 -257t-143 -212t-209 -143.5t-252 -53.5zM729 6q115 0 210 43t162.5 125 t105.5 196.5t38 260.5q0 147 -41 266t-111.5 204t-166 131t-205.5 46q-115 0 -209 -44t-162.5 -127t-106.5 -199.5t-38 -264.5q0 -145 40 -263t110.5 -201t166.5 -128t207 -45z" />
<glyph unicode="&#x14d;" horiz-adv-x="995" d="M274 1135h502l-8 -58h-506zM500 -27q-94 0 -175 35t-141.5 96.5t-95.5 145.5t-35 184t35 186.5t95.5 150t142.5 99t176 35.5q92 0 173 -34.5t140 -96t94 -145.5t35 -183q0 -102 -35 -189t-95 -149.5t-141 -98.5t-173 -36zM502 2q68 0 125 33t99 91t66.5 135t24.5 167 q0 113 -26.5 206t-85.5 152q-84 88 -207 88q-68 0 -127.5 -32.5t-102.5 -89t-67.5 -132t-24.5 -163.5q0 -119 33 -218.5t92 -158.5q78 -78 201 -78z" />
<glyph unicode="&#x14e;" horiz-adv-x="1447" d="M725 -27q-141 0 -262 48.5t-209 135.5t-138 209.5t-50 270.5q0 137 53 259t143 214t209 146.5t250 54.5q141 0 262 -49.5t210 -137.5t139 -212t50 -273q0 -135 -53 -257t-143 -212t-209 -143.5t-252 -53.5zM729 6q115 0 210 43t162.5 125t105.5 196.5t38 260.5 q0 147 -41 266t-111.5 204t-166 131t-205.5 46q-115 0 -209 -44t-162.5 -127t-106.5 -199.5t-38 -264.5q0 -145 40 -263t110.5 -201t166.5 -128t207 -45zM766 1409q-61 0 -103 29.5t-71 75t-46.5 100.5t-29.5 108h23q41 -111 96 -173t133 -62t133 62.5t96 172.5h23 q-12 -53 -29.5 -108t-46.5 -100.5t-72 -75t-106 -29.5z" />
<glyph unicode="&#x14f;" horiz-adv-x="995" d="M500 -27q-94 0 -175 35t-141.5 96.5t-95.5 145.5t-35 184t35 186.5t95.5 150t142.5 99t176 35.5q92 0 173 -34.5t140 -96t94 -145.5t35 -183q0 -102 -35 -189t-95 -149.5t-141 -98.5t-173 -36zM502 2q68 0 125 33t99 91t66.5 135t24.5 167q0 113 -26.5 206t-85.5 152 q-84 88 -207 88q-68 0 -127.5 -32.5t-102.5 -89t-67.5 -132t-24.5 -163.5q0 -119 33 -218.5t92 -158.5q78 -78 201 -78zM504 1008q-61 0 -103.5 29.5t-71 74.5t-46 100.5t-29.5 108.5h22q41 -111 96.5 -173.5t133.5 -62.5t133 62.5t96 173.5h23q-12 -53 -29.5 -108.5 t-46.5 -100.5t-72 -74.5t-106 -29.5z" />
<glyph unicode="&#x150;" horiz-adv-x="1447" d="M1040 1794h125l-331 -377h-21zM760 1794h125l-332 -377h-21zM725 -27q-141 0 -262 48.5t-209 135.5t-138 209.5t-50 270.5q0 137 53 259t143 214t209 146.5t250 54.5q141 0 262 -49.5t210 -137.5t139 -212t50 -273q0 -135 -53 -257t-143 -212t-209 -143.5t-252 -53.5z M729 6q115 0 210 43t162.5 125t105.5 196.5t38 260.5q0 147 -41 266t-111.5 204t-166 131t-205.5 46q-115 0 -209 -44t-162.5 -127t-106.5 -199.5t-38 -264.5q0 -145 40 -263t110.5 -201t166.5 -128t207 -45z" />
<glyph unicode="&#x151;" horiz-adv-x="995" d="M799 1393h125l-332 -377h-21zM518 1393h125l-332 -377h-20zM500 -27q-94 0 -175 35t-141.5 96.5t-95.5 145.5t-35 184t35 186.5t95.5 150t142.5 99t176 35.5q92 0 173 -34.5t140 -96t94 -145.5t35 -183q0 -102 -35 -189t-95 -149.5t-141 -98.5t-173 -36zM502 2 q68 0 125 33t99 91t66.5 135t24.5 167q0 113 -26.5 206t-85.5 152q-84 88 -207 88q-68 0 -127.5 -32.5t-102.5 -89t-67.5 -132t-24.5 -163.5q0 -119 33 -218.5t92 -158.5q78 -78 201 -78z" />
<glyph unicode="&#x152;" horiz-adv-x="1851" d="M791 0q-168 -2 -302.5 41t-228.5 123t-144 195.5t-50 261.5q0 143 52 264t150.5 208t240.5 135t320 48l848 4l33 -334h-22l-23 88q-23 59 -49.5 100.5t-66.5 66t-98 35.5t-142 11h-228v-557h176q63 2 102.5 7t63 17.5t35.5 35t23 57.5l20 59l23 -2l-39 -391l-23 2l-4 55 q-4 39 -11 63.5t-28.5 37t-62.5 16.5t-109 6l-166 2v-614l230 -6q106 2 177 18.5t117 46t73.5 72.5t50.5 96l24 86l29 -2l-78 -352h-913zM956 37v1180l-178 24q-143 -4 -250.5 -51t-179.5 -126t-107.5 -181.5t-35.5 -216.5q0 -137 38 -253t114.5 -199t192.5 -130t269 -47 h137z" />
<glyph unicode="&#x153;" horiz-adv-x="1619" d="M500 -27q-94 0 -175 35t-141.5 96.5t-95.5 145.5t-35 184q0 98 35 184.5t95.5 149.5t142.5 100t176 37q129 0 229 -64.5t152 -176.5q53 111 147 176t221 65q74 0 131.5 -22.5t97.5 -60.5t60.5 -88t20.5 -103q0 -27 -7 -53l-608 4q-4 -23 -6 -54.5t-2 -58.5 q0 -90 24.5 -166t68.5 -130t104.5 -85t130.5 -31q96 0 163.5 40t126.5 128l23 -14q-59 -109 -148.5 -172.5t-209.5 -63.5q-115 0 -205 63.5t-139 170.5q-55 -109 -153.5 -172.5t-223.5 -63.5zM1436 614q0 55 -12.5 102.5t-38 82.5t-63.5 54t-89 19q-43 0 -87 -19t-81 -54 t-66.5 -83t-44.5 -106zM502 2q68 0 125 33t99 91t66.5 135t24.5 167q0 113 -26.5 206t-85.5 152q-84 88 -207 88q-68 0 -127.5 -31.5t-102.5 -89t-67.5 -134t-24.5 -166.5q0 -117 33 -214.5t92 -156.5q37 -37 89.5 -58.5t111.5 -21.5z" />
<glyph unicode="&#x154;" horiz-adv-x="1208" d="M666 1794h139l-363 -377h-18zM47 29l119 10q23 2 47.5 8t24.5 16v1158q0 10 -13.5 14t-72.5 8l-103 8l-6 29h504q225 0 342 -85t117 -228q0 -66 -25 -122.5t-69 -100.5t-103 -75.5t-129 -50.5l313 -481q20 -33 37 -52t33 -30.5t33.5 -15.5t42.5 -4l57 -6l8 -29h-270 l-35 61l-342 547q-16 0 -43 2t-54.5 5t-54 7.5t-40.5 10.5v-574q0 -10 29.5 -14t56.5 -8l102 -8l6 -29h-518zM578 641q131 8 212.5 89t81.5 222t-97 221t-288 74l-122 -4v-571q18 -6 44.5 -11.5t57.5 -10.5t59.5 -7t51.5 -2z" />
<glyph unicode="&#x155;" horiz-adv-x="677" d="M41 29l68 4q35 2 49 5t14 19v641q0 70 -12.5 91.5t-48.5 25.5l-82 10l4 21l250 57l-7 -334h3q59 166 126.5 253t151.5 87q53 0 79 -28.5t26 -63.5q0 -33 -22 -59.5t-58 -26.5q-33 0 -58.5 25.5t-29.5 74.5q-70 -23 -121 -100.5t-92 -218.5v-459q0 -10 8 -14t55 -6l98 -4 l7 -29h-414zM506 1393h139l-362 -377h-19z" />
<glyph unicode="&#x156;" horiz-adv-x="1208" d="M47 29l119 10q23 2 47.5 8t24.5 16v1158q0 10 -13.5 14t-72.5 8l-103 8l-6 29h504q225 0 342 -85t117 -228q0 -66 -25 -122.5t-69 -100.5t-103 -75.5t-129 -50.5l313 -481q20 -33 37 -52t33 -30.5t33.5 -15.5t42.5 -4l57 -6l8 -29h-270l-35 61l-342 547q-16 0 -43 2 t-54.5 5t-54 7.5t-40.5 10.5v-574q0 -10 29.5 -14t56.5 -8l102 -8l6 -29h-518zM578 641q131 8 212.5 89t81.5 222t-97 221t-288 74l-122 -4v-571q18 -6 44.5 -11.5t57.5 -10.5t59.5 -7t51.5 -2zM549 -522q23 12 48.5 29.5t46 41t33.5 55t13 72.5q0 31 -13 52.5t-31.5 33 t-40 12.5t-40.5 -7q-16 37 7.5 72.5t76.5 35.5t90 -41t37 -106q0 -43 -17.5 -83t-47 -75t-68.5 -62.5t-82 -44.5z" />
<glyph unicode="&#x157;" horiz-adv-x="677" d="M125 -522q23 12 48.5 29.5t46 41t33.5 55t13 72.5q0 31 -13 52.5t-31.5 33t-40 12.5t-40.5 -7q-16 37 7.5 72.5t76.5 35.5t90 -41t37 -106q0 -43 -17.5 -83t-47 -75t-68.5 -62.5t-82 -44.5zM41 29l68 4q35 2 49 5t14 19v641q0 70 -12.5 91.5t-48.5 25.5l-82 10l4 21 l250 57l-7 -334h3q59 166 126.5 253t151.5 87q53 0 79 -28.5t26 -63.5q0 -33 -22 -59.5t-58 -26.5q-33 0 -58.5 25.5t-29.5 74.5q-70 -23 -121 -100.5t-92 -218.5v-459q0 -10 8 -14t55 -6l98 -4l7 -29h-414z" />
<glyph unicode="&#x158;" horiz-adv-x="1208" d="M47 29l119 10q23 2 47.5 8t24.5 16v1158q0 10 -13.5 14t-72.5 8l-103 8l-6 29h504q225 0 342 -85t117 -228q0 -66 -25 -122.5t-69 -100.5t-103 -75.5t-129 -50.5l313 -481q20 -33 37 -52t33 -30.5t33.5 -15.5t42.5 -4l57 -6l8 -29h-270l-35 61l-342 547q-16 0 -43 2 t-54.5 5t-54 7.5t-40.5 10.5v-574q0 -10 29.5 -14t56.5 -8l102 -8l6 -29h-518zM578 641q131 8 212.5 89t81.5 222t-97 221t-288 74l-122 -4v-571q18 -6 44.5 -11.5t57.5 -10.5t59.5 -7t51.5 -2zM264 1782h21l239 -260h4l238 260h20l-251 -381h-19z" />
<glyph unicode="&#x159;" horiz-adv-x="677" d="M41 29l68 4q35 2 49 5t14 19v641q0 70 -12.5 91.5t-48.5 25.5l-82 10l4 21l250 57l-7 -334h3q59 166 126.5 253t151.5 87q53 0 79 -28.5t26 -63.5q0 -33 -22 -59.5t-58 -26.5q-33 0 -58.5 25.5t-29.5 74.5q-70 -23 -121 -100.5t-92 -218.5v-459q0 -10 8 -14t55 -6l98 -4 l7 -29h-414zM90 1380h21l239 -260h4l238 260h20l-252 -381h-18z" />
<glyph unicode="&#x15a;" horiz-adv-x="970" d="M651 1780h140l-363 -377h-18zM469 -29q-92 0 -189.5 16.5t-168.5 45.5l-35 301h30l46 -144q98 -186 325 -186q76 0 137.5 21.5t104.5 60.5t66.5 93t23.5 118q0 63 -20.5 112.5t-63.5 88.5t-107.5 70.5t-150.5 60.5q-66 23 -126 50.5t-106.5 67t-73 93t-26.5 125.5 q0 76 27.5 139t78 109.5t121 72t154.5 25.5q72 0 129 -13.5t94 -29.5l97 24l22 -319h-31l-110 246q-37 25 -90.5 42t-118.5 17q-66 0 -118 -19.5t-89 -53.5t-56.5 -80t-19.5 -97q0 -59 22.5 -102t64.5 -76t99.5 -59.5t129.5 -51.5t138 -55.5t116.5 -74.5t81 -104.5 t30.5 -144.5t-33.5 -154.5t-92 -122.5t-139.5 -82t-173 -30z" />
<glyph unicode="&#x15b;" horiz-adv-x="724" d="M483 1350h140l-363 -377h-18zM334 -27q-66 0 -130.5 11.5t-119.5 33.5l-23 234h29l41 -121q41 -66 98.5 -97.5t116.5 -31.5q98 0 159.5 52t61.5 139q0 92 -64.5 138t-174.5 81q-43 12 -86 31.5t-78 49t-56.5 69.5t-21.5 95q0 51 21.5 97.5t59.5 80t90 53t112 19.5 q49 0 92 -10t84 -27l65 19l15 -230h-31l-78 168q-29 18 -64.5 34t-89.5 16q-88 0 -137 -45.5t-49 -118.5q0 -43 16.5 -73t46 -52.5t68.5 -39t86 -32.5q49 -16 97.5 -35.5t86 -49.5t61.5 -74t24 -111q0 -55 -24 -104.5t-67 -87.5t-103 -59.5t-134 -21.5z" />
<glyph unicode="&#x15c;" horiz-adv-x="970" d="M504 1753h18l252 -381h-20l-238 258h-4l-240 -258h-20zM469 -29q-92 0 -189.5 16.5t-168.5 45.5l-35 301h30l46 -144q98 -186 325 -186q76 0 137.5 21.5t104.5 60.5t66.5 93t23.5 118q0 63 -20.5 112.5t-63.5 88.5t-107.5 70.5t-150.5 60.5q-66 23 -126 50.5t-106.5 67 t-73 93t-26.5 125.5q0 76 27.5 139t78 109.5t121 72t154.5 25.5q72 0 129 -13.5t94 -29.5l97 24l22 -319h-31l-110 246q-37 25 -90.5 42t-118.5 17q-66 0 -118 -19.5t-89 -53.5t-56.5 -80t-19.5 -97q0 -59 22.5 -102t64.5 -76t99.5 -59.5t129.5 -51.5t138 -55.5t116.5 -74.5 t81 -104.5t30.5 -144.5t-33.5 -154.5t-92 -122.5t-139.5 -82t-173 -30z" />
<glyph unicode="&#x15d;" horiz-adv-x="724" d="M373 1380h18l252 -381h-20l-238 258h-4l-240 -258h-20zM334 -27q-66 0 -130.5 11.5t-119.5 33.5l-23 234h29l41 -121q41 -66 98.5 -97.5t116.5 -31.5q98 0 159.5 52t61.5 139q0 92 -64.5 138t-174.5 81q-43 12 -86 31.5t-78 49t-56.5 69.5t-21.5 95q0 51 21.5 97.5 t59.5 80t90 53t112 19.5q49 0 92 -10t84 -27l65 19l15 -230h-31l-78 168q-29 18 -64.5 34t-89.5 16q-88 0 -137 -45.5t-49 -118.5q0 -43 16.5 -73t46 -52.5t68.5 -39t86 -32.5q49 -16 97.5 -35.5t86 -49.5t61.5 -74t24 -111q0 -55 -24 -104.5t-67 -87.5t-103 -59.5 t-134 -21.5z" />
<glyph unicode="&#x15e;" horiz-adv-x="970" d="M256 -502q143 16 223 63.5t80 116.5q0 51 -40 79t-113 28q-41 0 -74 -6t-56 -12v18l164 186q-86 4 -175 20.5t-154 41.5l-35 301h30l46 -144q94 -182 317 -186h23q145 4 231 86t86 207q0 63 -20.5 112.5t-63.5 88.5t-107.5 70.5t-150.5 60.5q-66 23 -126 50.5t-106.5 67 t-73 93t-26.5 125.5q0 76 27.5 139t78 109.5t121 72t154.5 25.5q72 0 129 -13.5t94 -29.5l97 24l22 -319h-31l-110 246q-37 25 -90.5 42t-118.5 17q-66 0 -118 -19.5t-89 -53.5t-56.5 -80t-19.5 -97q0 -59 22.5 -102t64.5 -76t99.5 -59.5t129.5 -51.5t138 -55.5t116.5 -74.5 t81 -104.5t30.5 -144.5t-32.5 -153.5t-91 -121.5t-136.5 -82t-170 -32l-106 -121q53 8 100 2t83 -24t57.5 -49t21.5 -72q0 -47 -27.5 -85t-77 -66.5t-118 -47t-148.5 -24.5z" />
<glyph unicode="&#x15f;" horiz-adv-x="724" d="M150 -498q143 16 223 63.5t80 117.5q0 51 -40 78.5t-114 27.5q-41 0 -73.5 -6t-55.5 -12v18l162 184q-66 0 -130.5 11.5t-117.5 33.5l-23 234h29l41 -121q41 -66 98.5 -97.5t116.5 -31.5h10l6 6h37l-2 -2q78 12 124 62.5t46 124.5q0 92 -64.5 138t-174.5 81 q-43 12 -86 31.5t-78 49t-56.5 69.5t-21.5 95q0 51 21.5 97.5t59.5 80t90 53t112 19.5q49 0 92 -10t84 -27l65 19l15 -230h-31l-78 168q-29 18 -64.5 34t-89.5 16q-88 0 -137 -45.5t-49 -118.5q0 -43 16.5 -73t46 -52.5t68.5 -39t86 -32.5q49 -16 97.5 -35.5t86 -49.5 t61.5 -74t24 -111q0 -53 -20.5 -99.5t-59.5 -83t-92.5 -59t-120.5 -29.5l-105 -120q53 8 100.5 1.5t83 -24.5t57 -49t21.5 -72q0 -47 -27.5 -85t-76.5 -66.5t-117.5 -47t-148.5 -24.5z" />
<glyph unicode="&#x160;" horiz-adv-x="970" d="M469 -29q-92 0 -189.5 16.5t-168.5 45.5l-35 301h30l46 -144q98 -186 325 -186q76 0 137.5 21.5t104.5 60.5t66.5 93t23.5 118q0 63 -20.5 112.5t-63.5 88.5t-107.5 70.5t-150.5 60.5q-66 23 -126 50.5t-106.5 67t-73 93t-26.5 125.5q0 76 27.5 139t78 109.5t121 72 t154.5 25.5q72 0 129 -13.5t94 -29.5l97 24l22 -319h-31l-110 246q-37 25 -90.5 42t-118.5 17q-66 0 -118 -19.5t-89 -53.5t-56.5 -80t-19.5 -97q0 -59 22.5 -102t64.5 -76t99.5 -59.5t129.5 -51.5t138 -55.5t116.5 -74.5t81 -104.5t30.5 -144.5t-33.5 -154.5t-92 -122.5 t-139.5 -82t-173 -30zM242 1759h20l240 -260h4l237 260h21l-252 -381h-18z" />
<glyph unicode="&#x161;" horiz-adv-x="724" d="M334 -27q-66 0 -130.5 11.5t-119.5 33.5l-23 234h29l41 -121q41 -66 98.5 -97.5t116.5 -31.5q98 0 159.5 52t61.5 139q0 92 -64.5 138t-174.5 81q-43 12 -86 31.5t-78 49t-56.5 69.5t-21.5 95q0 51 21.5 97.5t59.5 80t90 53t112 19.5q49 0 92 -10t84 -27l65 19l15 -230 h-31l-78 168q-29 18 -64.5 34t-89.5 16q-88 0 -137 -45.5t-49 -118.5q0 -43 16.5 -73t46 -52.5t68.5 -39t86 -32.5q49 -16 97.5 -35.5t86 -49.5t61.5 -74t24 -111q0 -55 -24 -104.5t-67 -87.5t-103 -59.5t-134 -21.5zM96 1380h21l239 -260h4l238 260h20l-251 -381h-19z" />
<glyph unicode="&#x162;" horiz-adv-x="1236" d="M506 -522q23 12 48.5 29.5t46 41t33.5 55t13 72.5q0 31 -13 52.5t-31.5 33t-40 12.5t-40.5 -7q-16 37 7.5 72.5t76.5 35.5t90 -41t37 -106q0 -43 -17.5 -83t-47 -75t-68.5 -62.5t-82 -44.5zM358 29l125 10q41 4 56.5 9t15.5 15v1186h-133q-72 -4 -120 -19.5t-82 -43 t-57.5 -63.5t-43.5 -79l-27 -92h-31l76 328h983l47 -330h-28l-19 94q-25 59 -49 97.5t-58 62t-82 32.5t-122 13h-127v-1190q0 -10 13.5 -14t72.5 -8l109 -8l6 -29h-531z" />
<glyph unicode="&#x163;" horiz-adv-x="612" d="M236 -524q23 12 48 29.5t45.5 41t34 55t13.5 72.5q0 31 -13.5 52.5t-32 33t-40 12.5t-39.5 -8q-16 37 7.5 73t76.5 36t90 -41t37 -106q0 -43 -17.5 -83t-47 -75t-68.5 -62.5t-82 -44.5zM352 -27q-35 0 -67.5 8.5t-59 29t-42 57t-15.5 96.5l10 643l-155 4l16 59l141 7 l8 176l103 -2l-2 -177h291l-19 -67h-272q-4 -174 -6 -311q-2 -59 -3 -115.5t-1 -99.5q-2 -53 -3 -97q-4 -78 33 -109.5t92 -31.5q57 0 97.5 26.5t81.5 55.5l14 -19q-53 -51 -110.5 -92t-131.5 -41z" />
<glyph unicode="&#x164;" horiz-adv-x="1236" d="M356 1782h21l239 -260h5l237 260h21l-252 -381h-19zM358 29l125 10q41 4 56.5 9t15.5 15v1186h-133q-72 -4 -120 -19.5t-82 -43t-57.5 -63.5t-43.5 -79l-27 -92h-31l76 328h983l47 -330h-28l-19 94q-25 59 -49 97.5t-58 62t-82 32.5t-122 13h-127v-1190q0 -10 13.5 -14 t72.5 -8l109 -8l6 -29h-531z" />
<glyph unicode="&#x165;" horiz-adv-x="638" d="M412 948q20 16 43.5 34.5t43 42.5t32 52.5t12.5 65.5q0 57 -39 78.5t-80 11.5q-6 12 -3 27.5t12 29t25.5 23.5t41.5 10q51 0 84.5 -36t33.5 -97q0 -39 -17 -77t-45 -70.5t-62.5 -60.5t-69.5 -46zM352 -27q-35 0 -67.5 8.5t-59 29t-42 57t-15.5 96.5l10 643l-155 4l16 59 l141 7l8 176l103 -2l-2 -177h291l-19 -67h-272q-4 -174 -6 -311q-2 -59 -3 -115.5t-1 -99.5q-2 -53 -3 -97q-4 -78 33 -109.5t92 -31.5q57 0 97.5 26.5t81.5 55.5l14 -19q-53 -51 -110.5 -92t-131.5 -41z" />
<glyph unicode="&#x16a;" horiz-adv-x="1359" d="M707 -29q-121 0 -211 26t-151.5 82t-92.5 145t-31 216v779q0 10 -13 15t-73 9l-102 8l-6 29h518l-6 -29l-119 -10q-41 -4 -56.5 -11t-15.5 -16v-780q0 -213 103.5 -303t300.5 -90q195 0 283.5 110.5t88.5 321.5v731q0 16 -36.5 26.5t-102.5 14.5l-82 6l-6 29h459l-6 -29 l-84 -6q-47 -4 -75 -13t-28 -32v-727q0 -248 -118.5 -375t-337.5 -127zM479 1536h502l-8 -57h-506z" />
<glyph unicode="&#x16b;" horiz-adv-x="968" d="M723 150h-4q-33 -29 -71 -60t-81 -56.5t-90 -43t-98 -17.5q-53 0 -93 15.5t-75 46.5q-35 35 -49.5 85t-14.5 113v590q0 10 -9 13.5t-66 7.5l-64 6l-6 27h254v-607q0 -111 50 -162t143 -51q78 0 145.5 38t124.5 91v580q0 47 -15.5 60.5t-60.5 17.5l-63 6l-7 27h256v-775 q0 -27 8.5 -40t45.5 -17l92 -6l-4 -21l-252 -49zM213 1135h502l-8 -58h-506z" />
<glyph unicode="&#x16c;" horiz-adv-x="1359" d="M707 -29q-121 0 -211 26t-151.5 82t-92.5 145t-31 216v779q0 10 -13 15t-73 9l-102 8l-6 29h518l-6 -29l-119 -10q-41 -4 -56.5 -11t-15.5 -16v-780q0 -213 103.5 -303t300.5 -90q195 0 283.5 110.5t88.5 321.5v731q0 16 -36.5 26.5t-102.5 14.5l-82 6l-6 29h459l-6 -29 l-84 -6q-47 -4 -75 -13t-28 -32v-727q0 -248 -118.5 -375t-337.5 -127zM737 1409q-61 0 -103 29.5t-70.5 75t-46 100.5t-30.5 108h23q41 -111 96.5 -173t132.5 -62q78 0 133.5 62.5t96.5 172.5h22q-12 -53 -29.5 -108t-46 -100.5t-72 -75t-106.5 -29.5z" />
<glyph unicode="&#x16d;" horiz-adv-x="968" d="M723 150h-4q-33 -29 -71 -60t-81 -56.5t-90 -43t-98 -17.5q-53 0 -93 15.5t-75 46.5q-35 35 -49.5 85t-14.5 113v590q0 10 -9 13.5t-66 7.5l-64 6l-6 27h254v-607q0 -111 50 -162t143 -51q78 0 145.5 38t124.5 91v580q0 47 -15.5 60.5t-60.5 17.5l-63 6l-7 27h256v-775 q0 -27 8.5 -40t45.5 -17l92 -6l-4 -21l-252 -49zM469 1008q-61 0 -103 29.5t-71 74.5t-46.5 100.5t-29.5 108.5h23q41 -111 96 -173.5t133 -62.5t133 62.5t96 173.5h23q-12 -53 -29.5 -108.5t-46.5 -100.5t-72 -74.5t-106 -29.5z" />
<glyph unicode="&#x16e;" horiz-adv-x="1359" d="M707 -29q-121 0 -211 26t-151.5 82t-92.5 145t-31 216v779q0 10 -13 15t-73 9l-102 8l-6 29h518l-6 -29l-119 -10q-41 -4 -56.5 -11t-15.5 -16v-780q0 -213 103.5 -303t300.5 -90q195 0 283.5 110.5t88.5 321.5v731q0 16 -36.5 26.5t-102.5 14.5l-82 6l-6 29h459l-6 -29 l-84 -6q-47 -4 -75 -13t-28 -32v-727q0 -248 -118.5 -375t-337.5 -127zM731 1430q-86 0 -134 54t-48 130t48 130t134 54t134 -54t48 -130t-48 -130t-134 -54zM731 1458q70 0 110 46t40 110q0 63 -40 109t-110 46q-72 0 -111.5 -46t-39.5 -109t39.5 -109.5t111.5 -46.5z" />
<glyph unicode="&#x16f;" horiz-adv-x="968" d="M723 150h-4q-33 -29 -71 -60t-81 -56.5t-90 -43t-98 -17.5q-53 0 -93 15.5t-75 46.5q-35 35 -49.5 85t-14.5 113v590q0 10 -9 13.5t-66 7.5l-64 6l-6 27h254v-607q0 -111 50 -162t143 -51q78 0 145.5 38t124.5 91v580q0 47 -15.5 60.5t-60.5 17.5l-63 6l-7 27h256v-775 q0 -27 8.5 -40t45.5 -17l92 -6l-4 -21l-252 -49zM473 1028q-86 0 -134 54.5t-48 129.5q0 76 48 130.5t134 54.5t134 -54.5t48 -130.5t-48 -130t-134 -54zM473 1057q70 0 110 46t40 109t-40 109.5t-110 46.5q-72 0 -111.5 -46t-39.5 -110q0 -63 39.5 -109t111.5 -46z" />
<glyph unicode="&#x170;" horiz-adv-x="1359" d="M707 -29q-121 0 -211 26t-151.5 82t-92.5 145t-31 216v779q0 10 -13 15t-73 9l-102 8l-6 29h518l-6 -29l-119 -10q-41 -4 -56.5 -11t-15.5 -16v-780q0 -213 103.5 -303t300.5 -90q195 0 283.5 110.5t88.5 321.5v731q0 16 -36.5 26.5t-102.5 14.5l-82 6l-6 29h459l-6 -29 l-84 -6q-47 -4 -75 -13t-28 -32v-727q0 -248 -118.5 -375t-337.5 -127zM721 1794h125l-332 -377h-20zM1001 1794h125l-331 -377h-21z" />
<glyph unicode="&#x171;" horiz-adv-x="968" d="M723 150h-4q-33 -29 -71 -60t-81 -56.5t-90 -43t-98 -17.5q-53 0 -93 15.5t-75 46.5q-35 35 -49.5 85t-14.5 113v590q0 10 -9 13.5t-66 7.5l-64 6l-6 27h254v-607q0 -111 50 -162t143 -51q78 0 145.5 38t124.5 91v580q0 47 -15.5 60.5t-60.5 17.5l-63 6l-7 27h256v-775 q0 -27 8.5 -40t45.5 -17l92 -6l-4 -21l-252 -49zM461 1393h125l-332 -377h-21zM741 1393h125l-331 -377h-21z" />
<glyph unicode="&#x172;" horiz-adv-x="1359" d="M807 -430q-63 0 -106.5 40t-43.5 116q0 39 16.5 75.5t43 69.5t60.5 62.5t67 54.5q-66 -16 -137 -17q-121 0 -211 26t-151.5 82t-92.5 145t-31 216v779q0 10 -13 15t-73 9l-102 10l-6 27h518l-6 -27l-119 -12q-72 -6 -72 -27v-780q0 -213 103.5 -303t300.5 -90 q195 0 283.5 110.5t88.5 321.5v731q0 16 -36.5 26.5t-102.5 14.5l-82 8l-6 27h459l-6 -27l-84 -8q-47 -4 -75 -13t-28 -32v-727q0 -180 -60.5 -292.5t-174.5 -172.5q-86 -45 -133 -104.5t-47 -151.5q0 -55 26.5 -88t73.5 -33t72.5 22.5t42.5 51.5l12 -10q-23 -45 -60.5 -85 t-107.5 -40z" />
<glyph unicode="&#x173;" horiz-adv-x="968" d="M803 -430q-61 0 -105.5 41t-44.5 113q0 45 19.5 85.5t50.5 75.5t68.5 63.5t74.5 51.5l-147 -31l4 181h-4q-33 -29 -71 -60t-81 -56.5t-90 -43t-98 -17.5q-53 0 -93 15.5t-75 46.5q-35 35 -49.5 85t-14.5 113v590q0 10 -9 13.5t-66 7.5l-64 6l-6 27h254v-607 q0 -111 50 -162t143 -51q78 0 145.5 38t124.5 91v580q0 47 -15.5 60.5t-60.5 17.5l-63 6l-7 27h256v-775q0 -27 8.5 -40t45.5 -17l92 -6l-4 -21q-111 -41 -169.5 -110.5t-58.5 -161.5q0 -53 27 -84t74 -31t72.5 22.5t41.5 51.5l15 -10q-23 -45 -61.5 -85t-108.5 -40z" />
<glyph unicode="&#x174;" horiz-adv-x="1972" d="M965 1782h18l252 -381h-21l-237 258h-4l-240 -258h-20zM186 1141q-23 59 -40 79.5t-70 24.5l-82 6l-4 29h477l-6 -29l-92 -4q-33 -2 -57.5 -13t-14.5 -42l369 -1055h4l307 826l-64 178q-10 29 -19 48t-21.5 30.5t-30 17.5t-43.5 8l-82 6l-6 29h477l-6 -29l-92 -4 q-33 -2 -57.5 -14t-14.5 -41l377 -1053h2l311 942q16 45 22.5 74t-2 47.5t-34 27.5t-72.5 13l-78 8l-6 29h422l-6 -29l-64 -6q-35 -4 -54 -12t-35.5 -33.5t-34 -76t-48.5 -136.5l-338 -1007h-43l-340 931h-2l-350 -931h-47z" />
<glyph unicode="&#x175;" horiz-adv-x="1409" d="M692 1380h19l252 -381h-21l-237 258h-5l-239 -258h-21zM135 743q-10 33 -18 51.5t-16.5 30t-19.5 14.5t-30 5l-57 6l-4 27h377l-9 -27l-55 -6q-45 -2 -55 -18.5t6 -59.5l221 -629l211 518l-35 97q-12 31 -20 48t-17.5 26.5t-21.5 12.5t-31 5l-57 6l-8 27h378l-6 -27 l-57 -6q-45 -2 -53 -18.5t8 -59.5l250 -633l176 541q16 51 23.5 81.5t1 49t-26 26t-55.5 11.5l-52 8l-6 27h330l-6 -27l-37 -6q-27 -4 -44 -11.5t-31.5 -27t-29 -54t-34.5 -94.5l-221 -673h-43l-254 624l-258 -624h-41z" />
<glyph unicode="&#x176;" horiz-adv-x="1220" d="M350 29l125 10q72 6 72 24v504l-336 568q-31 55 -55.5 80.5t-79.5 29.5l-78 6l-6 29h485l-6 -29l-96 -4q-51 -2 -58.5 -19.5t23.5 -70.5l309 -536h6l252 450q27 51 39 84t6 51.5t-29.5 27.5t-68.5 13l-84 4l-6 29h448l-6 -29l-65 -4q-35 -2 -56.5 -6t-41 -20.5t-41 -51 t-54.5 -96.5l-276 -487v-527q0 -10 14 -14t74 -8l108 -8l6 -29h-530zM618 1782h19l252 -381h-21l-237 258h-4l-240 -258h-20z" />
<glyph unicode="&#x177;" horiz-adv-x="890" d="M158 -530q-49 0 -82 25.5t-33 60.5t22.5 60.5t61.5 25.5q35 0 61.5 -27t32.5 -74q61 14 98 83t82 208l45 143v2l-313 773q-12 31 -19.5 48t-16.5 27.5t-19 13.5t-29 5l-59 6l-6 27h374l-4 -27l-55 -6q-43 -2 -52 -19.5t7 -60.5l250 -633l198 547q18 51 24.5 82t0.5 48 t-25.5 23.5t-56.5 10.5l-57 8l-6 27h338l-7 -27l-47 -6q-25 -2 -41 -9.5t-29.5 -27t-27.5 -54t-35 -91.5l-248 -666l-65 -213q-47 -162 -106.5 -237.5t-155.5 -75.5zM477 1380h19l252 -381h-21l-238 258h-4l-239 -258h-21z" />
<glyph unicode="&#x178;" horiz-adv-x="1220" d="M350 29l125 10q72 6 72 24v504l-336 568q-31 55 -55.5 80.5t-79.5 29.5l-78 6l-6 29h485l-6 -29l-96 -4q-51 -2 -58.5 -19.5t23.5 -70.5l309 -536h6l252 450q27 51 39 84t6 51.5t-29.5 27.5t-68.5 13l-84 4l-6 29h448l-6 -29l-65 -4q-35 -2 -56.5 -6t-41 -20.5t-41 -51 t-54.5 -96.5l-276 -487v-527q0 -10 14 -14t74 -8l108 -8l6 -29h-530zM795 1395q-43 0 -64.5 27.5t-21.5 54.5q0 29 21.5 59.5t64.5 30.5q41 0 61.5 -31t20.5 -59q0 -27 -20.5 -54.5t-61.5 -27.5zM469 1395q-41 0 -61.5 27.5t-20.5 54.5q0 29 20.5 59.5t61.5 30.5 q43 0 64.5 -31t21.5 -59q0 -27 -21.5 -54.5t-64.5 -27.5z" />
<glyph unicode="&#x179;" horiz-adv-x="1118" d="M756 1794h139l-363 -377h-18zM63 23l824 1220v6h-387q-84 0 -140.5 -14t-95.5 -45t-63.5 -77t-46.5 -107l-21 -86h-29l35 360h897v-23l-819 -1218v-4l395 -4q106 0 174 18.5t110 54t66.5 87t43.5 116.5l26 96h33l-59 -403h-943v23z" />
<glyph unicode="&#x17a;" horiz-adv-x="825" d="M41 23l575 825h-194q-78 0 -128 -9.5t-81 -30t-49.5 -53t-32.5 -77.5l-18 -94h-27l8 293h654v-21l-580 -825l219 -2q78 0 130 11t87 31.5t59.5 51.5t49.5 72l45 98h24l-73 -293h-668v23zM606 1393h139l-362 -377h-18z" />
<glyph unicode="&#x17b;" horiz-adv-x="1118" d="M63 23l824 1220v6h-387q-84 0 -140.5 -14t-95.5 -45t-63.5 -77t-46.5 -107l-21 -86h-29l35 360h897v-23l-819 -1218v-4l395 -4q106 0 174 18.5t110 54t66.5 87t43.5 116.5l26 96h33l-59 -403h-943v23zM573 1485q-43 0 -64.5 29.5t-21.5 58.5t21.5 59.5t64.5 30.5 q45 0 67 -30.5t22 -59.5t-22 -58.5t-67 -29.5z" />
<glyph unicode="&#x17c;" horiz-adv-x="825" d="M41 23l575 825h-194q-78 0 -128 -9.5t-81 -30t-49.5 -53t-32.5 -77.5l-18 -94h-27l8 293h654v-21l-580 -825l219 -2q78 0 130 11t87 31.5t59.5 51.5t49.5 72l45 98h24l-73 -293h-668v23zM428 1083q-43 0 -64.5 30t-21.5 58q0 29 21.5 60t64.5 31q45 0 66.5 -31t21.5 -60 t-21.5 -58.5t-66.5 -29.5z" />
<glyph unicode="&#x17d;" horiz-adv-x="1118" d="M63 23l824 1220v6h-387q-84 0 -140.5 -14t-95.5 -45t-63.5 -77t-46.5 -107l-21 -86h-29l35 360h897v-23l-819 -1218v-4l395 -4q106 0 174 18.5t110 54t66.5 87t43.5 116.5l26 96h33l-59 -403h-943v23zM299 1733h20l240 -260h4l238 260h20l-252 -381h-18z" />
<glyph unicode="&#x17e;" horiz-adv-x="825" d="M41 23l575 825h-194q-78 0 -128 -9.5t-81 -30t-49.5 -53t-32.5 -77.5l-18 -94h-27l8 293h654v-21l-580 -825l219 -2q78 0 130 11t87 31.5t59.5 51.5t49.5 72l45 98h24l-73 -293h-668v23zM135 1380h21l239 -260h4l238 260h20l-251 -381h-19z" />
<glyph unicode="&#x192;" horiz-adv-x="950" d="M139 -111q-70 0 -105.5 31t-35.5 72q0 39 23.5 58.5t54.5 19.5q20 0 37.5 -10.5t24.5 -28t4 -41t-23 -49.5q8 -4 20.5 -3t24.5 4t23.5 5t17.5 2q35 8 62.5 32.5t53 86t52 166t59.5 272.5l45 242l-201 4l17 53l201 12q39 160 83 256t97 146q47 47 97 67.5t103 20.5 q61 0 105.5 -31t44.5 -78q0 -39 -23.5 -61.5t-52.5 -22.5q-23 0 -41 10.5t-26.5 28.5t-4 43t26.5 51q-18 2 -37 4q-16 2 -32.5 4t-30.5 2q-37 -6 -63.5 -33.5t-50 -80.5t-44 -135t-43.5 -197h262l-14 -63h-258l-41 -183q-23 -98 -47.5 -190t-54 -171t-61.5 -140.5t-64 -94.5 q-45 -43 -91.5 -61.5t-93.5 -18.5z" />
<glyph unicode="&#x1fa;" horiz-adv-x="1239" d="M674 1976h139l-362 -377h-19zM369 532l-123 -342q-18 -49 -25.5 -77.5t-0.5 -45t31.5 -22.5t72.5 -10l75 -6l7 -29h-420l6 29l63 6q35 4 56.5 13t40 35t39 75t53.5 135l348 958q-70 12 -109 63.5t-39 119.5q0 74 48.5 129t134.5 55t134 -55.5t48 -128.5q0 -66 -36 -115 t-101 -64l393 -1116q12 -31 20.5 -50t19.5 -30.5t27.5 -16.5t43.5 -7l84 -6l6 -29h-482l7 29l92 4q33 2 58.5 13t14.5 40l-153 446h-434zM627 1278q70 0 109.5 46t39.5 110q0 61 -40 108t-109 47q-72 0 -112 -47t-40 -108q0 -63 40 -109.5t112 -46.5zM788 569l-98 287 q-43 127 -100 289h-4l-205 -576h407z" />
<glyph unicode="&#x1fb;" horiz-adv-x="808" d="M479 1767h139l-362 -376h-18zM422 1028q-86 0 -134 54.5t-48 129.5q0 76 48 130.5t134 54.5t135 -54.5t49 -130.5t-49 -130t-135 -54zM662 -23q-43 0 -80 37t-35 103l-2 4q-63 -59 -129 -100t-133 -41q-98 0 -157.5 56t-59.5 142q0 55 24.5 101.5t82.5 86.5t153.5 76.5 t236.5 73.5l2 90q4 76 -12 125t-45 78t-68 39t-80 10q-35 0 -68.5 -9t-60 -22.5t-42 -29t-15.5 -25.5q0 -4 7 -11t14.5 -17.5t14.5 -23.5t7 -32q0 -29 -22.5 -51.5t-57.5 -22.5q-33 0 -55.5 17.5t-22.5 58.5q0 35 35 73t89.5 69.5t118 52t122.5 20.5t107.5 -13t80 -47 t48 -90.5t12.5 -142.5l-21 -493q-2 -43 13.5 -56.5t44.5 -13.5q23 0 49 18.5t53 47.5l16 -19q-35 -39 -73.5 -79t-91.5 -40zM422 1057q70 0 110.5 46t40.5 109t-40.5 109.5t-110.5 46.5q-72 0 -112 -46t-40 -110q0 -63 40 -109t112 -46zM332 51q66 0 119 34t100 75l10 323 q-115 -31 -189.5 -61.5t-117.5 -64t-59.5 -71.5t-16.5 -83q0 -72 41 -112t113 -40z" />
<glyph unicode="&#x1fc;" horiz-adv-x="1697" d="M-104 29l102 8q20 2 38.5 10t41 30.5t51.5 63.5t70 113l546 952q8 14 -11 23.5t-97 13.5l-105 8l-6 29h996l34 -334h-24l-21 88q-23 59 -47 100.5t-61 66t-93.5 35.5t-140.5 11h-243v-557h178q63 2 102 7t61.5 18.5t36 36t23.5 57.5l21 59l20 -4l-39 -391l-20 4l-6 55 q-4 39 -11.5 62.5t-29 36t-61.5 16.5t-107 6l-168 2v-614l215 -6q106 2 180 18.5t122 46t77.5 72.5t52.5 96l24 86l29 -2l-76 -352h-946l6 31l119 10q41 4 56.5 11t15.5 18v462h-402l-168 -294q-33 -59 -52 -97.5t-21 -60t18.5 -31.5t67.5 -14l102 -10l6 -25h-463zM801 569 v654h-8l-373 -654h381zM1141 1794h139l-362 -377h-19z" />
<glyph unicode="&#x1fd;" horiz-adv-x="1363" d="M870 1393h140l-363 -377h-18zM289 -27q-98 0 -160.5 59.5t-62.5 143.5q0 55 24.5 101.5t81.5 87.5t152.5 78.5t236.5 74.5l8 88q4 74 -12 123t-46 78t-70 40t-81 11q-35 0 -68.5 -9t-60 -22.5t-42 -29t-15.5 -25.5q0 -4 7 -11t14.5 -17.5t14.5 -23.5t7 -32 q0 -29 -22.5 -51.5t-57.5 -22.5q-33 0 -55.5 17.5t-22.5 58.5q0 35 35 73t89.5 69.5t118 52t122.5 20.5q106 0 161.5 -39t73.5 -125q59 78 138.5 121t189.5 43q74 0 132.5 -22.5t98 -60.5t60 -88t20.5 -103q0 -16 -1 -27.5t-3 -25.5l-612 4q-4 -23 -6 -54.5t-2 -58.5 q0 -90 24.5 -166t68.5 -130t104.5 -85t129.5 -31q96 0 166 40t125 128l25 -14q-61 -109 -148.5 -172.5t-207.5 -63.5q-113 0 -205 59.5t-144 158.5q-70 -90 -153.5 -155t-169.5 -65zM1174 614q2 111 -49.5 184.5t-155.5 73.5q-43 0 -86 -19t-81 -54t-67.5 -83t-46.5 -106z M340 45q72 0 136.5 48t121.5 126q-41 94 -41 201v33.5t2 29.5q-115 -31 -188.5 -61.5t-116.5 -64t-59.5 -72.5t-16.5 -82q0 -72 44 -115t118 -43z" />
<glyph unicode="&#x1fe;" horiz-adv-x="1447" d="M1081 1212q137 -86 219 -233.5t82 -339.5q0 -135 -53 -257t-143 -212t-209 -143.5t-252 -53.5q-88 0 -168 19.5t-151 54.5q-16 -29 -36 -63.5t-36 -63.5q-20 -37 -41 -70h-39l123 213q-141 82 -226 229.5t-85 344.5q0 137 53 259t143 214t209 146.5t250 54.5 q182 0 330 -82l106 182h39zM1018 1171q-129 104 -297 105q-115 0 -209 -44t-162.5 -126t-106.5 -200t-38 -263q0 -174 55 -305t152 -215zM741 625l-303 -525q125 -94 291 -94q115 0 210 43t162.5 125t105.5 196.5t38 260.5q0 170 -54 301t-147 217zM907 1780h140l-363 -377 h-18z" />
<glyph unicode="&#x1ff;" horiz-adv-x="995" d="M246 51q-88 59 -140.5 158.5t-52.5 224.5q0 100 35 186.5t95.5 150t142.5 99t176 35.5q111 0 207 -51l170 291h39q-35 -61 -68 -117q-29 -49 -59.5 -101.5t-53.5 -90.5q94 -59 150.5 -160t56.5 -230q0 -102 -35 -189t-95 -149.5t-141 -98.5t-173 -36q-63 0 -120.5 16.5 t-107.5 45.5q-18 -35 -44.5 -79t-49.5 -85q-29 -49 -57 -98h-37zM709 782l-30 -51t-76 -129t-98 -169t-98.5 -169t-76.5 -130l-31 -52l2 -2q78 -78 201 -78q68 0 125 33t99 91t66.5 135t24.5 167q0 111 -26.5 203t-81.5 151zM682 807q-78 68 -184 67q-68 0 -127.5 -32.5 t-102.5 -89t-67.5 -132t-24.5 -163.5q0 -111 26.5 -200t73.5 -151zM688 1356h139l-362 -377h-19z" />
<glyph unicode="&#x218;" horiz-adv-x="970" d="M418 -522q23 12 48.5 29.5t45.5 41t33.5 55t13.5 72.5q0 31 -13.5 52.5t-31.5 33t-39.5 12.5t-40.5 -7q-16 37 7.5 72.5t76.5 35.5t90 -41t37 -106q0 -43 -17.5 -83t-47 -75t-68.5 -62.5t-82 -44.5zM469 -29q-92 0 -189.5 16.5t-168.5 45.5l-35 301h30l46 -144 q98 -186 325 -186q76 0 137.5 21.5t104.5 60.5t66.5 93t23.5 118q0 63 -20.5 112.5t-63.5 88.5t-107.5 70.5t-150.5 60.5q-66 23 -126 50.5t-106.5 67t-73 93t-26.5 125.5q0 76 27.5 139t78 109.5t121 72t154.5 25.5q72 0 129 -13.5t94 -29.5l97 24l22 -319h-31l-110 246 q-37 25 -90.5 42t-118.5 17q-66 0 -118 -19.5t-89 -53.5t-56.5 -80t-19.5 -97q0 -59 22.5 -102t64.5 -76t99.5 -59.5t129.5 -51.5t138 -55.5t116.5 -74.5t81 -104.5t30.5 -144.5t-33.5 -154.5t-92 -122.5t-139.5 -82t-173 -30z" />
<glyph unicode="&#x219;" horiz-adv-x="724" d="M250 -522q23 12 48.5 29.5t46 41t33.5 55t13 72.5q0 31 -13 52.5t-31.5 33t-40 12.5t-40.5 -7q-16 37 7.5 72.5t76.5 35.5t90 -41t37 -106q0 -43 -17.5 -83t-47 -75t-68.5 -62.5t-82 -44.5zM334 -27q-66 0 -130.5 11.5t-119.5 33.5l-23 234h29l41 -121q41 -66 98.5 -97.5 t116.5 -31.5q98 0 159.5 52t61.5 139q0 92 -64.5 138t-174.5 81q-43 12 -86 31.5t-78 49t-56.5 69.5t-21.5 95q0 51 21.5 97.5t59.5 80t90 53t112 19.5q49 0 92 -10t84 -27l65 19l15 -230h-31l-78 168q-29 18 -64.5 34t-89.5 16q-88 0 -137 -45.5t-49 -118.5q0 -43 16.5 -73 t46 -52.5t68.5 -39t86 -32.5q49 -16 97.5 -35.5t86 -49.5t61.5 -74t24 -111q0 -55 -24 -104.5t-67 -87.5t-103 -59.5t-134 -21.5z" />
<glyph unicode="&#x21a;" horiz-adv-x="1236" d="M506 -522q23 12 48.5 29.5t46 41t33.5 55t13 72.5q0 31 -13 52.5t-31.5 33t-40 12.5t-40.5 -7q-16 37 7.5 72.5t76.5 35.5t90 -41t37 -106q0 -43 -17.5 -83t-47 -75t-68.5 -62.5t-82 -44.5zM358 29l125 10q41 4 56.5 9t15.5 15v1186h-133q-72 -4 -120 -19.5t-82 -43 t-57.5 -63.5t-43.5 -79l-27 -92h-31l76 328h983l47 -330h-28l-19 94q-25 59 -49 97.5t-58 62t-82 32.5t-122 13h-127v-1190q0 -10 13.5 -14t72.5 -8l109 -8l6 -29h-531z" />
<glyph unicode="&#x21b;" horiz-adv-x="612" d="M236 -524q23 12 48 29.5t45.5 41t34 55t13.5 72.5q0 31 -13.5 52.5t-32 33t-40 12.5t-39.5 -8q-16 37 7.5 73t76.5 36t90 -41t37 -106q0 -43 -17.5 -83t-47 -75t-68.5 -62.5t-82 -44.5zM352 -27q-35 0 -67.5 8.5t-59 29t-42 57t-15.5 96.5l10 643l-155 4l16 59l141 7 l8 176l103 -2l-2 -177h291l-19 -67h-272q-4 -174 -6 -311q-2 -59 -3 -115.5t-1 -99.5q-2 -53 -3 -97q-4 -78 33 -109.5t92 -31.5q57 0 97.5 26.5t81.5 55.5l14 -19q-53 -51 -110.5 -92t-131.5 -41z" />
<glyph unicode="&#x2c6;" horiz-adv-x="776" d="M379 1380h18l252 -381h-20l-238 258h-4l-240 -258h-20z" />
<glyph unicode="&#x2c7;" horiz-adv-x="776" d="M127 1380h20l240 -260h4l238 260h20l-252 -381h-18z" />
<glyph unicode="&#x2d8;" horiz-adv-x="776" d="M389 1008q-61 0 -103 29.5t-71 74.5t-46 100.5t-30 108.5h23q41 -111 96 -173.5t133 -62.5t133.5 62.5t96.5 173.5h22q-12 -53 -29.5 -108.5t-46 -100.5t-72 -74.5t-106.5 -29.5z" />
<glyph unicode="&#x2d9;" horiz-adv-x="776" d="M387 1083q-43 0 -64.5 30t-21.5 58q0 29 21.5 60t64.5 31q45 0 66.5 -31t21.5 -60t-21.5 -58.5t-66.5 -29.5z" />
<glyph unicode="&#x2da;" horiz-adv-x="776" d="M389 1028q-86 0 -134 54.5t-48 129.5q0 76 48 130.5t134 54.5t134 -54.5t48 -130.5t-48 -130t-134 -54zM389 1057q70 0 110 46t40 109t-40 109.5t-110 46.5q-72 0 -111.5 -46t-39.5 -110q0 -63 39.5 -109t111.5 -46z" />
<glyph unicode="&#x2db;" horiz-adv-x="776" d="M389 -453q-66 0 -117 45.5t-51 126.5q0 55 30 103.5t74 88.5t95 71.5t94 50.5h37q-240 -119 -240 -293q0 -61 35 -95t86 -34q53 0 79 20.5t50 49.5l10 -15q-29 -43 -70.5 -81t-111.5 -38z" />
<glyph unicode="&#x2dc;" horiz-adv-x="776" d="M530 1032q-37 0 -77.5 19.5t-81.5 44t-79 44t-67 19.5q-37 0 -62.5 -20.5t-37.5 -91.5h-23q25 193 148 192q37 0 78 -19.5t82 -44t78.5 -44t66.5 -19.5q35 0 60.5 23.5t37.5 89.5h21q-25 -193 -144 -193z" />
<glyph unicode="&#x2dd;" horiz-adv-x="776" d="M662 1393h124l-331 -377h-21zM381 1393h125l-332 -377h-20z" />
<glyph unicode="&#x1e80;" horiz-adv-x="1972" d="M186 1141q-23 59 -40 79.5t-70 24.5l-82 6l-4 29h477l-6 -29l-92 -4q-33 -2 -57.5 -13t-14.5 -42l369 -1055h4l307 826l-64 178q-10 29 -19 48t-21.5 30.5t-30 17.5t-43.5 8l-82 6l-6 29h477l-6 -29l-92 -4q-33 -2 -57.5 -14t-14.5 -41l377 -1053h2l311 942 q16 45 22.5 74t-2 47.5t-34 27.5t-72.5 13l-78 8l-6 29h422l-6 -29l-64 -6q-35 -4 -54 -12t-35.5 -33.5t-34 -76t-48.5 -136.5l-338 -1007h-43l-340 931h-2l-350 -931h-47zM684 1794h139l242 -377h-16z" />
<glyph unicode="&#x1e81;" horiz-adv-x="1409" d="M135 743q-10 33 -18 51.5t-16.5 30t-19.5 14.5t-30 5l-57 6l-4 27h377l-9 -27l-55 -6q-45 -2 -55 -18.5t6 -59.5l221 -629l211 518l-35 97q-12 31 -20 48t-17.5 26.5t-21.5 12.5t-31 5l-57 6l-8 27h378l-6 -27l-57 -6q-45 -2 -53 -18.5t8 -59.5l250 -633l176 541 q16 51 23.5 81.5t1 49t-26 26t-55.5 11.5l-52 8l-6 27h330l-6 -27l-37 -6q-27 -4 -44 -11.5t-31.5 -27t-29 -54t-34.5 -94.5l-221 -673h-43l-254 624l-258 -624h-41zM397 1393h140l241 -377h-16z" />
<glyph unicode="&#x1e82;" horiz-adv-x="1972" d="M1128 1794h140l-363 -377h-18zM186 1141q-23 59 -40 79.5t-70 24.5l-82 6l-4 29h477l-6 -29l-92 -4q-33 -2 -57.5 -13t-14.5 -42l369 -1055h4l307 826l-64 178q-10 29 -19 48t-21.5 30.5t-30 17.5t-43.5 8l-82 6l-6 29h477l-6 -29l-92 -4q-33 -2 -57.5 -14t-14.5 -41 l377 -1053h2l311 942q16 45 22.5 74t-2 47.5t-34 27.5t-72.5 13l-78 8l-6 29h422l-6 -29l-64 -6q-35 -4 -54 -12t-35.5 -33.5t-34 -76t-48.5 -136.5l-338 -1007h-43l-340 931h-2l-350 -931h-47z" />
<glyph unicode="&#x1e83;" horiz-adv-x="1409" d="M866 1393h140l-363 -377h-18zM135 743q-10 33 -18 51.5t-16.5 30t-19.5 14.5t-30 5l-57 6l-4 27h377l-9 -27l-55 -6q-45 -2 -55 -18.5t6 -59.5l221 -629l211 518l-35 97q-12 31 -20 48t-17.5 26.5t-21.5 12.5t-31 5l-57 6l-8 27h378l-6 -27l-57 -6q-45 -2 -53 -18.5 t8 -59.5l250 -633l176 541q16 51 23.5 81.5t1 49t-26 26t-55.5 11.5l-52 8l-6 27h330l-6 -27l-37 -6q-27 -4 -44 -11.5t-31.5 -27t-29 -54t-34.5 -94.5l-221 -673h-43l-254 624l-258 -624h-41z" />
<glyph unicode="&#x1e84;" horiz-adv-x="1972" d="M1149 1454q-43 0 -64.5 27.5t-21.5 54.5q0 29 21.5 59.5t64.5 30.5q41 0 61.5 -30.5t20.5 -59.5q0 -27 -20.5 -54.5t-61.5 -27.5zM823 1454q-41 0 -61.5 27.5t-20.5 54.5q0 29 20.5 59.5t61.5 30.5q43 0 64.5 -30.5t21.5 -59.5q0 -27 -21.5 -54.5t-64.5 -27.5zM186 1141 q-23 59 -40 79.5t-70 24.5l-82 6l-4 29h477l-6 -29l-92 -4q-33 -2 -57.5 -13t-14.5 -42l369 -1055h4l307 826l-64 178q-10 29 -19 48t-21.5 30.5t-30 17.5t-43.5 8l-82 6l-6 29h477l-6 -29l-92 -4q-33 -2 -57.5 -14t-14.5 -41l377 -1053h2l311 942q16 45 22.5 74t-2 47.5 t-34 27.5t-72.5 13l-78 8l-6 29h422l-6 -29l-64 -6q-35 -4 -54 -12t-35.5 -33.5t-34 -76t-48.5 -136.5l-338 -1007h-43l-340 931h-2l-350 -931h-47z" />
<glyph unicode="&#x1e85;" horiz-adv-x="1409" d="M868 1053q-43 0 -64.5 27.5t-21.5 54.5q0 29 21.5 59.5t64.5 30.5q41 0 61.5 -31t20.5 -59q0 -27 -20.5 -54.5t-61.5 -27.5zM543 1053q-41 0 -61.5 27.5t-20.5 54.5q0 29 20.5 59.5t61.5 30.5q43 0 64.5 -31t21.5 -59q0 -27 -21.5 -54.5t-64.5 -27.5zM135 743 q-10 33 -18 51.5t-16.5 30t-19.5 14.5t-30 5l-57 6l-4 27h377l-9 -27l-55 -6q-45 -2 -55 -18.5t6 -59.5l221 -629l211 518l-35 97q-12 31 -20 48t-17.5 26.5t-21.5 12.5t-31 5l-57 6l-8 27h378l-6 -27l-57 -6q-45 -2 -53 -18.5t8 -59.5l250 -633l176 541q16 51 23.5 81.5 t1 49t-26 26t-55.5 11.5l-52 8l-6 27h330l-6 -27l-37 -6q-27 -4 -44 -11.5t-31.5 -27t-29 -54t-34.5 -94.5l-221 -673h-43l-254 624l-258 -624h-41z" />
<glyph unicode="&#x2000;" horiz-adv-x="988" />
<glyph unicode="&#x2001;" horiz-adv-x="1976" />
<glyph unicode="&#x2002;" horiz-adv-x="988" />
<glyph unicode="&#x2003;" horiz-adv-x="1976" />
<glyph unicode="&#x2004;" horiz-adv-x="658" />
<glyph unicode="&#x2005;" horiz-adv-x="494" />
<glyph unicode="&#x2006;" horiz-adv-x="329" />
<glyph unicode="&#x2007;" horiz-adv-x="329" />
<glyph unicode="&#x2008;" horiz-adv-x="247" />
<glyph unicode="&#x2009;" horiz-adv-x="122" />
<glyph unicode="&#x200a;" horiz-adv-x="109" />
<glyph unicode="&#x2010;" horiz-adv-x="602" d="M55 522h498l-2 -57h-502z" />
<glyph unicode="&#x2011;" horiz-adv-x="602" d="M55 522h498l-2 -57h-502z" />
<glyph unicode="&#x2012;" horiz-adv-x="602" d="M55 522h498l-2 -57h-502z" />
<glyph unicode="&#x2013;" horiz-adv-x="899" d="M27 514h850l-3 -53h-854z" />
<glyph unicode="&#x2014;" horiz-adv-x="1857" d="M27 514h1808l-2 -53h-1813z" />
<glyph unicode="&#x2018;" horiz-adv-x="350" d="M197 881q-59 0 -100.5 40t-41.5 111q0 45 20.5 90t53.5 85t75 73t83 55l12 -14q-25 -20 -52.5 -43t-51 -49.5t-38 -60t-14.5 -78.5q0 -35 13.5 -57.5t34 -35t45 -15.5t49.5 3q8 -14 5 -31.5t-14.5 -34t-31.5 -27.5t-47 -11z" />
<glyph unicode="&#x2019;" horiz-adv-x="346" d="M47 883q25 20 52.5 41.5t51 48t38 60.5t14.5 77q0 33 -13.5 56.5t-34 35.5t-45 16.5t-47.5 -1.5q-6 14 -4 32.5t13.5 34.5t31 27.5t48.5 11.5q59 0 99 -42t40 -116q0 -47 -20.5 -91t-53.5 -83t-74 -70.5t-82 -54.5z" />
<glyph unicode="&#x201a;" horiz-adv-x="346" d="M47 -229q25 20 52.5 41.5t51 48t38 60.5t14.5 77q0 33 -13.5 56.5t-34 35.5t-45 16.5t-47.5 -2.5q-6 14 -4 33t13.5 35t31 27.5t48.5 11.5q59 0 99 -42t40 -116q0 -47 -20.5 -91t-53.5 -83t-74 -70.5t-82 -54.5z" />
<glyph unicode="&#x201c;" horiz-adv-x="659" d="M506 881q-57 0 -98 40t-41 111q0 45 20.5 90t53 85t73.5 73t82 55l14 -14q-25 -20 -52.5 -43t-51 -49.5t-37.5 -60t-14 -78.5q0 -35 13 -57.5t33.5 -35t45 -15.5t47.5 3q8 -14 6 -31.5t-13.5 -34t-31.5 -27.5t-49 -11zM197 881q-59 0 -100.5 40t-41.5 111q0 45 20.5 90 t53.5 85t75 73t83 55l12 -14q-25 -20 -52.5 -43t-51 -49.5t-38 -60t-14.5 -78.5q0 -35 13.5 -57.5t34 -35t45 -15.5t49.5 3q8 -14 5 -31.5t-14.5 -34t-31.5 -27.5t-47 -11z" />
<glyph unicode="&#x201d;" horiz-adv-x="657" d="M358 883q25 20 52.5 41.5t50 48t38 60.5t15.5 77q0 33 -13.5 56.5t-34 35.5t-45 16.5t-46.5 -1.5q-6 14 -4 32.5t13 34.5t30.5 27.5t46.5 11.5q59 0 99 -42t40 -116q0 -47 -20.5 -91t-53 -83t-73.5 -70.5t-82 -54.5zM47 883q25 20 52.5 41.5t51 48t38 60.5t14.5 77 q0 33 -13.5 56.5t-34 35.5t-45 16.5t-47.5 -1.5q-6 14 -4 32.5t13.5 34.5t31 27.5t48.5 11.5q59 0 99 -42t40 -116q0 -47 -20.5 -91t-53.5 -83t-74 -70.5t-82 -54.5z" />
<glyph unicode="&#x201e;" horiz-adv-x="657" d="M358 -229q25 20 52.5 41.5t50 48t38 60.5t15.5 77q0 33 -13.5 56.5t-34 35.5t-45 16.5t-46.5 -2.5q-6 14 -4 33t13 35t30.5 27.5t46.5 11.5q59 0 99 -42t40 -116q0 -47 -20.5 -91t-53 -83t-73.5 -70.5t-82 -54.5zM47 -229q25 20 52.5 41.5t51 48t38 60.5t14.5 77 q0 33 -13.5 56.5t-34 35.5t-45 16.5t-47.5 -2.5q-6 14 -4 33t13.5 35t31 27.5t48.5 11.5q59 0 99 -42t40 -116q0 -47 -20.5 -91t-53.5 -83t-74 -70.5t-82 -54.5z" />
<glyph unicode="&#x2020;" horiz-adv-x="909" d="M436 838h-399l-4 34h403v408h37v-408h406l-5 -34h-401v-1157h-37v1157z" />
<glyph unicode="&#x2021;" horiz-adv-x="909" d="M436 63h-403l4 37h399v758h-399l-4 37h403v385h37v-385h406l-5 -37h-401v-758h401l5 -37h-406v-382h-37v382z" />
<glyph unicode="&#x2022;" horiz-adv-x="888" d="M444 80q-23 0 -62.5 12t-82.5 29.5t-80 38t-51 37.5q-16 16 -35.5 53t-38 80t-31 83t-12.5 62q0 23 12.5 63t31 83t38 79.5t35.5 53.5q14 14 52 34.5t81 38t83 29.5t62 12q23 0 63 -12t83 -29.5t80 -38t53 -34.5q14 -16 34.5 -53t38 -80t30 -83t12.5 -63t-12.5 -62.5 t-30 -82.5t-37 -80t-35.5 -53t-53 -37t-80 -38.5t-84 -29.5t-64 -12z" />
<glyph unicode="&#x2026;" horiz-adv-x="1118" d="M932 -27q-41 0 -67.5 28t-26.5 67q0 35 26.5 63.5t67.5 28.5q43 0 68.5 -29t25.5 -63q0 -39 -25.5 -67t-68.5 -28zM561 -27q-43 0 -70.5 28t-27.5 67q0 35 27.5 63.5t70.5 28.5q41 0 67.5 -29t26.5 -63q0 -39 -26.5 -67t-67.5 -28zM188 -27q-45 0 -71.5 28t-26.5 67 q0 35 26.5 63.5t71.5 28.5q43 0 68 -29t25 -63q0 -39 -25 -67t-68 -28z" />
<glyph unicode="&#x202f;" horiz-adv-x="395" />
<glyph unicode="&#x2030;" horiz-adv-x="1863" d="M301 748q-66 0 -117 22.5t-87 61t-55 90t-19 108.5t19 109.5t55 91.5t87.5 62.5t116.5 23.5q66 0 118 -23.5t89 -62.5t56.5 -91.5t19.5 -109.5t-19.5 -108.5t-56.5 -90t-89 -61t-118 -22.5zM1049 1311h45l-930 -1340h-45zM1561 -35q-66 0 -118 22.5t-88 61.5t-55.5 90 t-19.5 109q0 57 19.5 109.5t55.5 91t88 62.5t118 24t118 -24t87.5 -62.5t55 -91t19.5 -109.5t-19.5 -108.5t-55 -90.5t-87.5 -61.5t-118 -22.5zM913 -35q-66 0 -117 22.5t-86.5 61.5t-55 90t-19.5 109q0 57 19.5 109.5t55 91t87 62.5t116.5 24q66 0 118 -24t88 -62.5 t55.5 -91t19.5 -109.5t-19.5 -108.5t-55.5 -90.5t-88 -61.5t-118 -22.5zM301 784q55 0 99 19.5t76 53.5t48.5 78t16.5 95t-16.5 96t-48.5 79t-76 54.5t-99 20.5t-99 -20.5t-75 -54.5t-47.5 -79t-16.5 -96t16.5 -95t47.5 -78t75 -53.5t99 -19.5zM1561 2q111 0 174 70.5 t63 175.5q0 49 -16.5 95t-47 80t-74.5 54.5t-99 20.5t-99.5 -20.5t-75 -54.5t-47 -80t-16.5 -95q0 -51 16.5 -96.5t47 -78t75 -52t99.5 -19.5zM913 2q55 0 99.5 19.5t76 52t48 78t16.5 96.5q0 49 -16.5 95t-48 80t-75.5 54.5t-100 20.5q-55 0 -99 -20.5t-74.5 -54.5t-47 -80 t-16.5 -95q0 -51 16.5 -96.5t47 -78t74.5 -52t99 -19.5z" />
<glyph unicode="&#x2039;" horiz-adv-x="497" d="M39 440v29l397 340l10 -16l-280 -338l280 -340l-8 -17z" />
<glyph unicode="&#x203a;" horiz-adv-x="497" d="M47 115l281 340l-279 338l10 16l396 -340v-29l-398 -342z" />
<glyph unicode="&#x2044;" horiz-adv-x="1015" d="M977 1311h49l-987 -1340h-49z" />
<glyph unicode="&#x205f;" horiz-adv-x="494" />
<glyph unicode="&#x2070;" horiz-adv-x="653" d="M330 532q-61 0 -113.5 30t-89.5 83t-58.5 125t-21.5 158q0 84 21.5 157.5t59.5 129t91 87t117 31.5q61 0 112.5 -30.5t89 -85t59 -127t21.5 -156.5q0 -86 -20 -160t-57 -128t-90 -84t-121 -30zM338 555q80 0 130 91t50 274q0 199 -49 295t-139 96q-78 0 -130.5 -92.5 t-52.5 -268.5q0 -209 50.5 -302t140.5 -93z" />
<glyph unicode="&#x2074;" horiz-adv-x="604" d="M360 770h-337l-3 14l390 553h39v-501h143l-21 -66h-122v-223h-89v223zM360 836v383h-4l-272 -383h276z" />
<glyph unicode="&#x2075;" horiz-adv-x="538" d="M180 512q-76 0 -112.5 23.5t-36.5 62.5q0 23 15 38t40 15q35 0 56.5 -30.5t25.5 -67.5q12 -4 28.5 -8t32.5 -4q37 0 72 15t61.5 43t42 65.5t15.5 83.5q0 98 -91 158.5t-245 80.5l84 332h330l-19 -86h-307l-41 -168q78 -10 144.5 -32.5t115.5 -57.5t77 -81t28 -103 t-25 -107.5t-68 -88.5t-100 -60.5t-123 -22.5z" />
<glyph unicode="&#x2076;" horiz-adv-x="618" d="M322 530q-61 0 -112.5 24t-86.5 63.5t-54.5 95t-19.5 121.5q0 98 40 187t110.5 157.5t167 114.5t208.5 59l3 -17q-92 -16 -164 -56t-124 -94.5t-86 -120t-50 -134.5l2 -4q39 41 93 67.5t113 26.5q98 0 161 -64.5t63 -164.5q0 -59 -22.5 -107.5t-59.5 -82.5t-84 -52.5 t-98 -18.5zM332 551q72 0 118 57.5t46 151.5q0 92 -52.5 152.5t-130.5 60.5q-96 0 -161 -72q-4 -8 -7.5 -31.5t-3.5 -46.5q0 -55 12.5 -104t37 -87t60.5 -59.5t81 -21.5z" />
<glyph unicode="&#x2077;" horiz-adv-x="569" d="M502 1233l-2 6h-258q-45 0 -73 -2t-44 -10t-26.5 -24.5t-20.5 -45.5q-4 -6 -6 -14q-2 -4 -2 -7t-2 -6l-2 -4h-19l25 195h483l4 -18l-360 -758h-70z" />
<glyph unicode="&#x2078;" horiz-adv-x="602" d="M301 528q-53 0 -98 15.5t-79 42t-53.5 64.5t-19.5 81q0 70 54.5 122t138.5 77v2q-70 37 -119 81t-49 115q0 37 17.5 75t48 69t73.5 49t96 18q98 0 163 -55t65 -141q0 -55 -46.5 -101.5t-117.5 -74.5v-2q39 -18 73.5 -40t60.5 -47.5t40 -57.5t14 -75t-19.5 -81.5 t-54 -68.5t-83 -48.5t-105.5 -18.5zM358 973q43 29 71 69.5t28 98.5q0 70 -44 125t-118 55q-66 0 -104.5 -44t-38.5 -101q0 -39 16 -69t45 -53.5t65.5 -43t79.5 -37.5zM319 549q80 0 126.5 45t46.5 111q0 41 -19.5 73.5t-52.5 58t-74 46t-84 39.5q-55 -29 -91 -76t-36 -113 q0 -76 49 -130t135 -54z" />
<glyph unicode="&#x2079;" horiz-adv-x="618" d="M51 535q92 18 164 57t124 93t86 119.5t50 135.5h-2q-41 -41 -93 -67.5t-112 -26.5q-98 0 -161.5 66.5t-63.5 164.5q0 59 22.5 108.5t59.5 83.5t84 52t96 18q61 0 112.5 -23.5t88.5 -65.5t56.5 -97t19.5 -119q0 -98 -40 -186t-111 -156.5t-168 -115t-210 -60.5zM315 895 q94 0 162 72q4 8 8 31.5t4 45.5q0 55 -13 105.5t-37.5 87.5t-59.5 59.5t-80 22.5q-74 0 -120 -57.5t-46 -151.5q0 -92 52 -153.5t130 -61.5z" />
<glyph unicode="&#x207a;" horiz-adv-x="653" d="M311 920h-288l4 28h284v291h31v-291h285l4 -28h-287l-2 -293h-31v293z" />
<glyph unicode="&#x207b;" horiz-adv-x="653" d="M55 915l4 33h537l2 -33h-543z" />
<glyph unicode="&#x2080;" horiz-adv-x="653" d="M317 -295q-61 0 -113 29.5t-89 83t-58.5 125t-21.5 157.5q0 84 21.5 158t59.5 129t91 87t117 32q61 0 112 -31t89 -85t59.5 -127t21.5 -157q0 -86 -20.5 -159.5t-57 -128t-90 -84t-121.5 -29.5zM326 -272q80 0 130 91t50 273q0 199 -49 295t-140 96q-78 0 -130 -92 t-52 -268q0 -209 50.5 -302t140.5 -93z" />
<glyph unicode="&#x2081;" horiz-adv-x="509" d="M90 -260l76 6q49 6 49 23v669l-149 17l4 14l237 33v-735q0 -8 10.5 -14.5t49.5 -6.5l63 -6l4 -21h-348z" />
<glyph unicode="&#x2082;" horiz-adv-x="575" d="M14 -256q94 92 166 162.5t120 131t71.5 117t23.5 117.5q0 88 -48 129t-105 41q-66 0 -110 -31.5t-85 -99.5l-14 13q47 84 107.5 136t146.5 52q43 0 79.5 -14.5t64.5 -41t44.5 -62.5t16.5 -79q0 -61 -29 -118.5t-81 -118t-124 -129t-160 -152.5q0 -2 2 -2h4h5h249 q33 0 56.5 4t40 16.5t29 36t26.5 62.5l10 29h21l-47 -224h-476z" />
<glyph unicode="&#x2083;" horiz-adv-x="548" d="M176 -317q-72 0 -110.5 23.5t-38.5 60.5q0 25 15 41t42 16q35 0 57.5 -31t18.5 -74q4 0 21.5 -4t33.5 -4q86 0 145.5 52.5t59.5 144.5q0 86 -49 134t-135 48q-31 0 -63 -7t-56 -17l-8 14q57 35 103 62.5t80 53t52 55.5t18 66q0 59 -35.5 91t-101.5 32q-113 0 -180 -112 l-12 10q41 78 102.5 126t138.5 48q74 0 126.5 -44t52.5 -110q0 -37 -16.5 -66.5t-43 -53t-61.5 -45t-72 -41.5v-5q113 10 178.5 -46t65.5 -150q0 -53 -25.5 -102.5t-71 -86t-104.5 -58t-127 -21.5z" />
<glyph unicode="&#x2084;" horiz-adv-x="604" d="M348 -57h-338l-2 14l389 553h39v-502h144l-21 -65h-123v-224h-88v224zM348 8v383h-4l-272 -383h276z" />
<glyph unicode="&#x2085;" horiz-adv-x="538" d="M168 -315q-76 0 -113 23.5t-37 62.5q0 23 15.5 38t40.5 15q35 0 56.5 -31t25.5 -67q12 -4 28.5 -8.5t32.5 -4.5q37 0 72 15.5t61.5 43t42 65.5t15.5 83q0 98 -91.5 158.5t-244.5 81.5l84 332h329l-18 -86h-307l-41 -168q78 -10 144.5 -33t115.5 -57.5t76.5 -81 t27.5 -103.5t-24.5 -107.5t-67.5 -88t-100 -60t-123 -22.5z" />
<glyph unicode="&#x2086;" horiz-adv-x="618" d="M309 -297q-61 0 -112.5 23.5t-86 63.5t-54 95.5t-19.5 120.5q0 98 40 187.5t110.5 158t167 114.5t208.5 58l2 -16q-92 -16 -163.5 -56t-124 -94.5t-86 -120t-50.5 -135.5l2 -4q39 41 93.5 68t113.5 27q98 0 160.5 -65t62.5 -165q0 -59 -22.5 -107.5t-59 -82t-84 -52 t-98.5 -18.5zM319 -276q72 0 118 57t46 151q0 92 -52 152.5t-130 60.5q-96 0 -162 -71q-4 -8 -7 -32t-3 -46q0 -55 12.5 -104.5t37 -87t60 -59t80.5 -21.5z" />
<glyph unicode="&#x2087;" horiz-adv-x="569" d="M489 406l-2 6h-258q-45 0 -72.5 -2t-44 -10.5t-26.5 -25t-20 -44.5q-4 -6 -7 -15q-2 -4 -2 -7t-2 -5l-2 -4h-18l24 195h484l4 -19l-361 -758h-69z" />
<glyph unicode="&#x2088;" horiz-adv-x="602" d="M289 -299q-53 0 -98.5 15.5t-79 42t-53 64.5t-19.5 81q0 70 54 122t138 76v2q-70 37 -119 81t-49 116q0 37 17.5 75t48.5 68.5t74 49t96 18.5q98 0 162.5 -55.5t64.5 -141.5q0 -55 -46 -101t-118 -75v-2q39 -18 74 -39.5t60.5 -47t40 -57.5t14.5 -75t-19.5 -82 t-54.5 -68.5t-83 -48t-105 -18.5zM346 145q43 29 70.5 70t27.5 98q0 70 -44 125.5t-117 55.5q-66 0 -105 -44t-39 -102q0 -39 16.5 -68.5t45 -53t65.5 -43.5t80 -38zM307 -279q80 0 126 45.5t46 110.5q0 41 -19.5 74t-52 58.5t-73.5 46t-84 38.5q-55 -29 -91 -76t-36 -112 q0 -76 49 -130.5t135 -54.5z" />
<glyph unicode="&#x2089;" horiz-adv-x="618" d="M39 -293q92 18 163.5 57t124 93.5t86 120t50.5 135.5h-2q-41 -41 -93.5 -68t-111.5 -27q-98 0 -161.5 67t-63.5 165q0 59 22.5 108.5t59.5 83t84 52t96 18.5q61 0 112.5 -23.5t88 -65.5t56 -97.5t19.5 -118.5q0 -98 -40 -186.5t-110.5 -157t-167.5 -114.5t-210 -60z M303 68q94 0 162 71q4 8 8 32t4 46q0 55 -13 105.5t-38 87t-59.5 59.5t-79.5 23q-74 0 -120 -57.5t-46 -151.5q0 -92 52 -153.5t130 -61.5z" />
<glyph unicode="&#x208a;" horiz-adv-x="653" d="M311 92h-288l4 29h284v291h31v-291h285l4 -29h-287l-2 -293h-31v293z" />
<glyph unicode="&#x20ac;" horiz-adv-x="968" d="M592 -29q-86 0 -161 34t-134 97.5t-100 150.5t-60 196h-131l6 34h119q-6 57 -6 121q0 29 1 57.5t5 53.5h-125l6 37h125q18 119 61.5 219t109 173t149.5 113.5t182 40.5q63 0 116.5 -14t92.5 -38.5t60.5 -58.5t21.5 -71q0 -35 -24.5 -58.5t-53.5 -23.5q-35 0 -53.5 18.5 t-23.5 43t2 51.5t26 43q-20 31 -64.5 55.5t-105.5 24.5q-74 0 -138.5 -40t-114.5 -109.5t-84 -165t-46 -203.5h422l6 -37h-434q2 -16 0 -36t-2 -36q0 -41 3 -81t11 -79h416l6 -34h-416q37 -184 134.5 -293t234.5 -109q100 0 175 52.5t122 142.5l20 -15q-57 -111 -142 -183.5 t-214 -72.5z" />
<glyph unicode="&#x2122;" horiz-adv-x="1126" d="M514 848l43 2q18 0 23.5 4t5.5 20l12 365q-6 10 -11 12t-16 4l-47 5l-2 20h152l125 -358h6l133 358h154l-5 -20l-53 -5q-14 -2 -14 -10l10 -387q0 -4 3 -4t20 -2l45 -4l2 -23h-205v23l53 4q16 2 17 8l-9 383h-6l-157 -409h-23l-143 401q-2 2 -4 2t-2 2l-11 -367 q0 -14 6.5 -18t28.5 -4l43 -2l2 -23h-180zM154 848l57 4q18 2 18 8v400h-26q-66 -2 -87.5 -18.5t-33.5 -45.5l-12 -47h-19l17 131h391l6 -133h-16l-11 49q-10 35 -32.5 49.5t-86.5 14.5h-26v-402q0 -4 3 -4t19 -2l52 -4l2 -23h-217z" />
<glyph unicode="&#x25fc;" horiz-adv-x="880" d="M0 881h881v-881h-881v881z" />
<glyph horiz-adv-x="919" d="M326 -25q-74 0 -127.5 17.5t-87 44t-49 58.5t-15.5 61q0 41 25.5 69.5t66.5 28.5t64.5 -26.5t23.5 -57.5q0 -25 -13 -51.5t-64 -40.5q59 -72 178 -72q115 0 170 77t55 251v887q0 10 -13.5 14t-72.5 8l-109 8l-6 31h525l-7 -31l-118 -10q-72 -6 -72 -24v-914 q0 -59 -25.5 -117.5t-71.5 -104.5t-111.5 -76t-145.5 -30z" />
<glyph horiz-adv-x="919" d="M604 1782h19l251 -381h-20l-238 258h-4l-239 -258h-21zM326 -25q-74 0 -127.5 17.5t-87 44t-49 58.5t-15.5 61q0 41 25.5 69.5t66.5 28.5t64.5 -26.5t23.5 -57.5q0 -25 -13 -51.5t-64 -40.5q59 -72 178 -72q115 0 170 77t55 251v887q0 10 -14.5 14t-71.5 8l-109 10l-6 29 h525l-7 -29l-118 -12q-72 -6 -72 -24v-914q0 -59 -25.5 -117.5t-71.5 -104.5t-111.5 -76t-145.5 -30z" />
<glyph horiz-adv-x="1126" d="M561 -25q-106 0 -196.5 38t-155 105.5t-101 160t-36.5 202.5q0 111 36.5 204t103.5 160.5t157 106.5t196 39q104 0 194.5 -38t156 -105.5t102.5 -160.5t37 -202q0 -111 -38 -204t-103.5 -160.5t-156 -106.5t-196.5 -39zM561 14q98 0 181 36t143.5 99.5t94.5 149.5t34 186 q0 98 -34 184.5t-94.5 150t-143.5 99t-179 35.5t-179 -35.5t-143.5 -99t-95 -149.5t-34.5 -187q0 -100 33.5 -186t94 -148.5t142.5 -98.5t180 -36z" />
<glyph horiz-adv-x="636" d="M94 31l103 6q72 2 71 29v837q0 10 -11 16.5t-64 8.5l-95 6l-6 31h457l-6 -31l-103 -6q-70 -2 -69 -29v-838q0 -10 10 -16t63 -8l95 -6l6 -31h-457z" />
<glyph horiz-adv-x="1163" d="M324 -25q-68 0 -122.5 24t-93 63.5t-60 92t-21.5 111.5q0 117 81.5 212t217.5 140q-68 39 -114 91.5t-46 124.5q0 43 20.5 86t55 77.5t84 57t106.5 22.5q59 0 105.5 -17.5t77 -46t47 -64.5t16.5 -72q0 -66 -53.5 -127.5t-159.5 -96.5q41 -20 85 -54t85 -76t75.5 -86 t57.5 -85q29 35 57.5 75t52 74t38 59.5t14.5 33.5q2 16 -21.5 29.5t-79.5 13.5l-49 4l-6 31h373l-6 -31l-47 -4q-47 -2 -71 -20.5t-65 -69.5q-51 -61 -88 -111l-86 -110q39 -74 69 -127.5t55.5 -86t51 -48t60.5 -15.5q47 0 83 28.5t58 51.5l17 -20q-16 -20 -38 -44 t-47.5 -43.5t-55 -33t-64.5 -13.5q-45 0 -81 18.5t-66.5 52.5t-58.5 82t-56 108q-43 -53 -86 -100.5t-89.5 -83.5t-98.5 -56.5t-113 -20.5zM438 666q80 35 112 86t32 118q0 35 -11.5 67t-33 56.5t-50 40t-65.5 15.5q-35 0 -64.5 -14.5t-51 -39t-33 -55.5t-11.5 -63 q0 -76 43 -123t133 -88zM383 63q90 0 161.5 55.5t147.5 145.5q-63 121 -148 209t-192 133q-111 -51 -163 -129t-52 -162q0 -106 66.5 -179t179.5 -73z" />
<glyph horiz-adv-x="1337" d="M664 -188q-135 0 -247 44t-193 123.5t-126 188t-45 238.5q0 137 52.5 259.5t141.5 215t208.5 146.5t257.5 54q119 0 224 -38.5t183 -109.5t123 -169t45 -215q0 -88 -30.5 -171t-83 -147.5t-121 -103.5t-146.5 -39t-124 33t-44 78q0 10 6.5 45t15.5 76.5t19.5 78.5 t16.5 52h-6q-45 -72 -87 -134.5t-82 -108.5t-77 -74t-70 -28q-59 0 -103 45.5t-44 110.5q0 55 22.5 117.5t57 122t77.5 114t84 93.5q35 33 74 52t80 19q53 0 85 -43t42 -106h6l62 174l83 -4l-108 -299l-51 -215q-31 -86 -4.5 -119t98.5 -33q63 0 120.5 34t101.5 90t70.5 131 t26.5 157q0 113 -42 206t-115.5 160.5t-174 104.5t-214.5 37q-129 0 -243 -52.5t-200 -140.5t-135 -204.5t-49 -247.5q0 -123 43 -227.5t121 -180.5t185.5 -119t236.5 -43q68 0 130 16.5t116.5 46t98.5 68.5t74 86l15 -22q-63 -96 -179 -159.5t-259 -63.5zM514 172 q25 0 56.5 25.5t68.5 70.5t76 106.5t78 135.5q10 20 20 46t10 38q-4 20 -17 42.5t-32.5 43t-42 34t-47.5 13.5q-27 0 -48.5 -11t-43.5 -30q-29 -29 -58.5 -76t-54 -102t-40 -110.5t-15.5 -100.5q0 -61 27.5 -93t62.5 -32z" />
<glyph horiz-adv-x="966" d="M287 391l-76 -219q-16 -43 -22.5 -69.5t0 -41t27 -20.5t56.5 -8l62 -4l4 -29h-348l6 29l57 4q27 2 43.5 9t30.5 28.5t30.5 63.5t43.5 114l221 618l-12 41q20 6 47.5 26.5t38.5 37.5h14l289 -836q10 -31 19 -50t18.5 -30.5t22.5 -15.5t34 -6l72 -4l4 -29h-406l4 29l80 4 q31 2 45.5 18.5t3.5 50.5l-96 289h-313zM588 426l-137 412h-7l-145 -412h289z" />
<glyph horiz-adv-x="876" d="M55 25l72 8q55 6 55 18v852q0 8 -10 11.5t-55 7.5l-60 8l-4 22h369q182 0 262 -59t80 -145q0 -80 -61.5 -142.5t-204.5 -85.5v-6q154 -10 232.5 -79.5t78.5 -170.5q0 -123 -99.5 -193.5t-287.5 -70.5h-371zM418 29q12 0 22 2q8 0 15.5 1t5.5 1q119 10 173 71.5t54 151.5 q0 111 -78 176.5t-204 65.5h-25.5h-33t-32 -1t-20.5 -3v-443zM397 528q121 2 182.5 60.5t61.5 138.5q0 195 -248 195h-98v-394h102z" />
<glyph horiz-adv-x="1013" d="M571 -25q-113 0 -208 35t-163.5 99.5t-107.5 154.5t-39 201t39 205t108.5 161.5t167 105.5t214.5 38q74 0 138 -15.5t107 -35.5l91 32l10 -288h-23l-100 219q-31 23 -89.5 41t-140.5 18q-92 0 -166.5 -36t-127 -98t-80 -147t-27.5 -186q0 -104 29.5 -191t83 -149.5 t127 -97.5t164.5 -35q115 0 183 46t122 124l45 107h26l-49 -250l-57 -2q-43 -18 -122 -37t-155 -19z" />
<glyph horiz-adv-x="997" d="M45 29l82 6q55 8 55 20v846q0 8 -10 11t-55 8l-72 6l-4 26l369 4q131 0 233 -32.5t172 -94t105.5 -146.5t35.5 -189t-37.5 -194.5t-111.5 -157t-181.5 -104.5t-246.5 -38h-340zM418 33q102 2 181 37.5t131 94t79 135.5t27 161q0 98 -28 183t-83 147.5t-140 97.5t-198 35 h-92v-871z" />
<glyph horiz-adv-x="907" d="M41 29l86 6q55 8 55 20v846q0 8 -10 11t-55 8l-74 6l-4 26h735l21 -268h-25l-16 64q-16 45 -35 78.5t-47.5 55t-74.5 32t-118 10.5h-184v-414l139 2q51 0 82 4t49.5 13.5t28.5 27.5t18 47l17 45l20 -2l-28 -307l-23 2l-6 43q-2 31 -7 49.5t-22.5 27.5t-49.5 13t-87 4 l-131 2v-446l192 -4q84 0 136.5 15t86 40t53 59.5t38.5 75.5l18 60h29l-53 -281h-758z" />
<glyph horiz-adv-x="854" d="M41 29l88 6q53 8 53 20v846q0 8 -10 11t-53 8l-76 6l-4 26h737l25 -274l-27 -2l-14 63q-16 43 -32.5 77t-47.5 58.5t-82 37t-133 12.5h-170v-422h127q51 2 82 5t49 13t28.5 27.5t20.5 48.5l14 43l21 -2l-29 -305h-22l-6 43q-2 31 -8.5 49t-23 28.5t-48 13.5t-86.5 5h-119 v-418q0 -8 10 -11t53 -7l105 -6l4 -29h-430z" />
<glyph horiz-adv-x="1056" d="M569 -27q-111 0 -206 35t-163.5 99.5t-107.5 153.5t-39 200t39 206t108.5 163.5t167 107.5t214.5 39q74 0 137 -15.5t106 -37.5l86 32l7 -286h-27l-88 217q-31 23 -88.5 40t-141.5 17q-90 0 -163.5 -36t-126 -99.5t-81 -148.5t-28.5 -185q0 -104 31 -190t85 -148.5 t129 -96.5t163 -34q61 0 118.5 13.5t92.5 33.5v312q0 8 -13.5 10t-56.5 6l-92 8l-4 27h413l-4 -27l-82 -8q-31 -4 -43 -9t-12 -14v-284l88 8l4 -21q-43 -16 -97 -31.5t-110.5 -27.5t-112 -20.5t-102.5 -8.5z" />
<glyph horiz-adv-x="1107" d="M45 29l82 6q55 8 55 20v846q0 8 -10 11t-55 8l-72 6l-4 26h399l-4 -26l-88 -8q-53 -6 -53 -21v-389h518v393q0 8 -10 11t-53 8l-76 6l-6 26h401l-4 -26l-84 -8q-55 -6 -55 -21v-844q0 -8 11 -11t54 -7l72 -6l4 -29h-399l4 29l88 6q31 4 42 9t11 11v416h-518v-418 q0 -8 10 -11t53 -7l76 -6l6 -29h-401z" />
<glyph horiz-adv-x="518" d="M55 29l95 6q53 8 53 20v846q0 8 -11.5 11t-54.5 8l-82 6l-4 26h414l-4 -26l-92 -8q-55 -6 -56 -21v-844q0 -8 11.5 -11t54.5 -7l80 -6l6 -29h-416z" />
<glyph horiz-adv-x="468" d="M25 -258q-53 0 -87 24.5t-34 63.5q0 31 20.5 51.5t50.5 20.5q25 0 42.5 -12.5t25.5 -32t8 -42t-12 -42.5q68 0 106.5 69.5t38.5 210.5v848q0 8 -10 11t-55 8l-80 6l-6 26h409l-4 -26l-88 -8q-53 -6 -53 -21v-856q0 -41 -21.5 -92t-58.5 -97.5t-87 -78t-105 -31.5z" />
<glyph horiz-adv-x="1017" d="M45 29l84 6q53 8 53 20v846q0 8 -10 11t-53 8l-74 6l-4 26h403l-4 -26l-92 -8q-53 -6 -53 -21v-481l301 301q66 68 100.5 106.5t41.5 59t-11 28t-57 9.5l-74 6l-4 26h379l-4 -26l-56 -4q-31 -4 -50 -8.5t-44.5 -25t-66.5 -61.5t-115 -118l-113 -111l318 -481 q18 -29 28.5 -45.5t20.5 -24.5t21.5 -11t29.5 -3l61 -4l7 -29h-383l4 29l63 2q39 4 40 25.5t-21 60.5l-262 407l-154 -153v-318q0 -8 10 -11t53 -7l80 -6l6 -29h-405z" />
<glyph horiz-adv-x="835" d="M41 29l88 8q53 6 53 20v842q0 10 -10 12t-53 7l-76 6l-4 28h428l-4 -28l-115 -9q-53 -2 -53 -18v-862l141 -2q84 0 137.5 13t86 39t52 61.5t36.5 78.5l18 72l29 -2l-54 -295h-704z" />
<glyph horiz-adv-x="1251" d="M27 29l71 4q45 4 63.5 12t18.5 27l23 827q-25 20 -72 21l-76 6l-4 26h281l295 -784h4l313 784h273l-5 -26l-100 -8q-47 -6 -47 -21l18 -844q0 -8 10.5 -11t51.5 -7l78 -6l4 -29h-400l4 29l97 6q29 4 38 9t9 11l-19 826h-4l-348 -871h-33l-315 846q-4 10 -9 18.5t-9 14.5 l-21 -821q0 -12 22.5 -21.5t79.5 -13.5l64 -4l4 -29h-364z" />
<glyph horiz-adv-x="1091" d="M240 854h-4v-784q0 -14 19 -23.5t71 -13.5l65 -4l4 -29h-344l4 29l68 4q35 2 56.5 11t21.5 28l2 796q-10 16 -34 31.5t-69 20.5l-59 6l-4 26h264l584 -780h4v711q0 16 -18.5 24t-71.5 13l-64 6l-6 26h346l-6 -26l-65 -6q-35 -2 -56.5 -11.5t-21.5 -27.5l-4 -889h-33z" />
<glyph horiz-adv-x="1101" d="M549 -25q-106 0 -196.5 36t-157 102.5t-104.5 157.5t-38 202q0 100 40 190.5t107.5 160t158 110.5t192.5 41q106 0 197.5 -36t158 -102.5t104.5 -158.5t38 -203q0 -100 -40 -190t-107.5 -159t-159 -110t-193.5 -41zM553 6q82 0 150.5 33t117.5 92t77 145t28 195 q0 106 -30 193.5t-80 150t-119.5 97t-149.5 34.5q-82 0 -149.5 -32.5t-117 -93t-77 -147.5t-27.5 -196q0 -106 28.5 -193t80 -148.5t120 -95.5t148.5 -34z" />
<glyph horiz-adv-x="849" d="M31 29l96 6q55 6 55 20v846q0 8 -10 11t-55 8l-86 6l-6 26h421q180 0 271.5 -65.5t91.5 -177.5q0 -59 -27.5 -109.5t-77 -86.5t-117 -56.5t-145.5 -20.5q-37 0 -78.5 3t-68.5 7v-393q0 -8 10 -12t53 -6l105 -6l4 -29h-442zM440 465q117 0 183.5 59.5t66.5 169.5 q0 111 -66.5 171.5t-213.5 56.5l-115 -2v-437q25 -8 63.5 -13t81.5 -5z" />
<glyph horiz-adv-x="1101" d="M944 -274q-59 0 -115.5 9t-108.5 36.5t-97 76t-78 127.5q-104 0 -194.5 37t-157 102.5t-103.5 156.5t-37 202q0 100 40 190.5t107.5 160t158 110.5t192.5 41q106 0 197.5 -36t158 -102.5t104.5 -158.5t38 -203q0 -84 -29 -161.5t-79 -141t-118.5 -111t-148.5 -69.5 q37 -80 81 -127t98 -70.5t119.5 -25.5t147.5 8l4 -29q-33 -10 -87 -16t-93 -6zM553 6q82 0 150.5 33t117.5 92t77 145t28 195q0 106 -30 193.5t-80 150t-119.5 97t-149.5 34.5q-82 0 -149.5 -32.5t-117 -93t-77 -147.5t-27.5 -196q0 -106 28.5 -193t80 -148.5t120 -95.5 t148.5 -34z" />
<glyph horiz-adv-x="948" d="M31 29l96 6q18 2 36.5 8t18.5 12v846q0 8 -10 11t-55 8l-86 6l-6 26h407q174 0 265 -64.5t91 -176.5q0 -92 -68.5 -160t-172.5 -92l225 -342q33 -51 55.5 -66.5t63.5 -17.5l49 -4l6 -29h-229l-21 35l-258 411q-12 2 -31.5 5.5t-41 6.5t-41 6t-29.5 7v-418q0 -8 21.5 -13 t41.5 -5l93 -6l6 -29h-432zM440 481q100 4 164 62.5t64 161.5q0 104 -71 162.5t-212 54.5l-90 -4v-416q25 -8 71.5 -14.5t73.5 -6.5z" />
<glyph horiz-adv-x="747" d="M358 -25q-70 0 -145.5 13.5t-134.5 31.5l-19 236h27l39 -113q39 -72 99.5 -104.5t137.5 -32.5q109 0 174.5 59.5t65.5 151.5t-62.5 143.5t-185.5 92.5q-53 18 -99 40.5t-81 52t-55.5 70.5t-20.5 97q0 53 20.5 100t59.5 83t92.5 57.5t120.5 21.5q55 0 100.5 -9.5 t79.5 -19.5l72 19l10 -254h-26l-82 184q-29 23 -69 37t-91 14q-92 0 -148.5 -52t-56.5 -126q0 -43 17.5 -74.5t48 -56.5t73.5 -44.5t95 -37.5q57 -20 108 -44t88 -56.5t58.5 -77.5t21.5 -107q0 -59 -24.5 -112.5t-68.5 -94t-104.5 -64.5t-134.5 -24z" />
<glyph horiz-adv-x="960" d="M268 29l103 6q55 6 55 20v869h-82q-55 -4 -95 -18.5t-67.5 -37t-47 -51.5t-36.5 -59l-20 -68h-27l53 262h768l33 -262h-26l-15 68q-18 43 -37.5 73.5t-48 50t-67.5 30t-97 12.5h-77v-871q0 -8 11 -11t54 -7l90 -6l6 -29h-436z" />
<glyph horiz-adv-x="1042" d="M537 -25q-186 0 -276.5 81t-90.5 274v571q0 8 -10 11t-54 8l-88 6l-6 26h428l-6 -26l-98 -8q-53 -6 -53 -21v-559q0 -164 73.5 -234.5t216.5 -70.5q141 0 210 87t69 247v516q0 31 -96 37l-66 6l-4 26h350l-4 -26l-67 -6q-76 -4 -76 -39l-2 -516q0 -186 -88 -288 t-262 -102z" />
<glyph horiz-adv-x="974" d="M160 819q-23 63 -38.5 81t-55.5 20l-70 6l-6 26h405l-6 -26l-82 -6q-35 -2 -49 -12.5t0 -47.5l270 -729h4l234 651q14 43 21.5 69t2 40t-26 20.5t-56.5 8.5l-62 6l-6 26h346l-6 -26l-57 -6q-25 -2 -40.5 -8.5t-29.5 -25t-28.5 -55t-39.5 -100.5l-270 -747h-39z" />
<glyph horiz-adv-x="1492" d="M152 819q-23 59 -38.5 79t-56.5 22l-73 6l-2 26h403l-6 -26l-78 -6q-33 -2 -48 -13.5t-3 -46.5l258 -731h6l221 596l-35 94q-25 59 -40 79t-56 22l-72 6l-4 26h404l-4 -26l-78 -6q-35 -2 -50.5 -13.5t-0.5 -46.5l258 -733h6l225 657q14 41 20.5 67t0.5 40t-26.5 20.5 t-57.5 8.5l-62 6l-4 26h346l-6 -26l-59 -6q-25 -2 -40.5 -8.5t-28.5 -26t-27.5 -55t-36.5 -99.5l-263 -747h-40l-246 688h-4l-260 -688h-41z" />
<glyph horiz-adv-x="995" d="M8 29l58 4q27 2 46 8t37.5 21.5t40 42t52.5 71.5l200 291l-233 348q-18 29 -31.5 48.5t-26 31.5t-24.5 17.5t-31 7.5l-65 6l-6 26h407l-6 -26l-84 -4q-39 -2 -44 -20.5t28 -72.5l190 -282h2l162 241q27 41 38 66t6 38t-22.5 18t-46.5 8l-75 8l-5 26h377l-4 -26l-59 -6 q-27 -2 -45.5 -7.5t-37 -18.5t-37.5 -40t-50 -70l-182 -262l278 -409q27 -41 42 -59.5t52 -20.5l68 -4l6 -29h-408l5 29l86 4q37 2 44 16t-16 49l-229 346h-2l-182 -274q-53 -82 -47 -105.5t65 -27.5l76 -8l4 -29h-377z" />
<glyph horiz-adv-x="927" d="M250 29l104 6q53 6 54 20v365l-246 416q-23 43 -42.5 61t-60.5 23l-67 6l-4 26h409l-8 -26l-78 -6q-43 -2 -47 -18.5t19 -57.5l217 -381h4l170 313q45 86 41 111.5t-70 30.5l-72 8l-6 26h361l-4 -26l-64 -6q-23 -2 -39 -7.5t-31.5 -20.5t-32 -44t-40.5 -74l-197 -346 v-375q0 -8 11.5 -11t54.5 -7l92 -6l4 -29h-436z" />
<glyph horiz-adv-x="868" d="M53 23l613 899v2h-246q-80 0 -130 -12.5t-83 -37t-52.5 -59.5t-35.5 -78l-15 -61h-24l22 276h701v-22l-613 -897v-2h248q90 0 147.5 14t93.5 41t55.5 65.5t35.5 86.5l18 69h29l-43 -307h-721v23z" />
<glyph horiz-adv-x="1492" d="M1106 -25q-70 0 -145.5 13.5t-135.5 31.5l-18 236h24l39 -113q78 -137 238 -137q111 0 175.5 59.5t64.5 151.5t-61.5 143.5t-184.5 92.5q-53 18 -99.5 40.5t-81 52t-55 70.5t-20.5 97q0 53 20.5 100t58.5 83t92 57.5t122 21.5q55 0 100 -9.5t80 -19.5l72 19l10 -254h-27 l-82 184q-29 23 -69.5 37t-89.5 14q-92 0 -148.5 -52t-56.5 -126q0 -43 17.5 -74.5t48 -56.5t73.5 -44.5t92 -37.5q59 -20 110.5 -44t88.5 -56.5t58.5 -77.5t21.5 -107q0 -59 -24.5 -112.5t-69 -94t-104.5 -64.5t-134 -24zM358 -25q-70 0 -145.5 13.5t-134.5 31.5l-19 236 h27l39 -113q39 -72 99.5 -104.5t137.5 -32.5q109 0 174.5 59.5t65.5 151.5t-62.5 143.5t-185.5 92.5q-53 18 -99 40.5t-81 52t-55.5 70.5t-20.5 97q0 53 20.5 100t59.5 83t92.5 57.5t120.5 21.5q55 0 100.5 -9.5t79.5 -19.5l72 19l10 -254h-26l-82 184q-29 23 -69 37t-91 14 q-92 0 -148.5 -52t-56.5 -126q0 -43 17.5 -74.5t48 -56.5t73.5 -44.5t95 -37.5q57 -20 108 -44t88 -56.5t58.5 -77.5t21.5 -107q0 -59 -24.5 -112.5t-68.5 -94t-104.5 -64.5t-134.5 -24z" />
<glyph horiz-adv-x="966" d="M287 391l-76 -219q-16 -43 -22.5 -69.5t0 -41t27 -20.5t56.5 -8l62 -4l4 -29h-348l6 29l57 4q27 2 43.5 9t30.5 28.5t30.5 63.5t43.5 114l221 618l-12 41q20 6 47.5 26.5t38.5 37.5h14l289 -836q10 -31 19 -50t18.5 -30.5t22.5 -15.5t34 -6l72 -4l4 -29h-406l4 29l80 4 q31 2 45.5 18.5t3.5 50.5l-96 289h-313zM588 426l-137 412h-7l-145 -412h289zM160 1436h139l242 -377h-17z" />
<glyph horiz-adv-x="966" d="M287 391l-76 -219q-16 -43 -22.5 -69.5t0 -41t27 -20.5t56.5 -8l62 -4l4 -29h-348l6 29l57 4q27 2 43.5 9t30.5 28.5t30.5 63.5t43.5 114l221 618l-12 41q20 6 47.5 26.5t38.5 37.5h14l289 -836q10 -31 19 -50t18.5 -30.5t22.5 -15.5t34 -6l72 -4l4 -29h-406l4 29l80 4 q31 2 45.5 18.5t3.5 50.5l-96 289h-313zM588 426l-137 412h-7l-145 -412h289zM649 1436h139l-362 -377h-18z" />
<glyph horiz-adv-x="966" d="M287 391l-76 -219q-16 -43 -22.5 -69.5t0 -41t27 -20.5t56.5 -8l62 -4l4 -29h-348l6 29l57 4q27 2 43.5 9t30.5 28.5t30.5 63.5t43.5 114l221 618l-12 41q20 6 47.5 26.5t38.5 37.5h14l289 -836q10 -31 19 -50t18.5 -30.5t22.5 -15.5t34 -6l72 -4l4 -29h-406l4 29l80 4 q31 2 45.5 18.5t3.5 50.5l-96 289h-313zM588 426l-137 412h-7l-145 -412h289zM483 1423h19l252 -381h-21l-237 258h-4l-240 -258h-21z" />
<glyph horiz-adv-x="966" d="M287 391l-76 -219q-16 -43 -22.5 -69.5t0 -41t27 -20.5t56.5 -8l62 -4l4 -29h-348l6 29l57 4q27 2 43.5 9t30.5 28.5t30.5 63.5t43.5 114l221 618l-12 41q20 6 47.5 26.5t38.5 37.5h14l289 -836q10 -31 19 -50t18.5 -30.5t22.5 -15.5t34 -6l72 -4l4 -29h-406l4 29l80 4 q31 2 45.5 18.5t3.5 50.5l-96 289h-313zM588 426l-137 412h-7l-145 -412h289zM629 1075q-37 0 -78 19.5t-82 44t-79 44t-66 19.5q-37 0 -64 -20.5t-41 -91.5h-18q25 193 147 192q37 0 78 -19.5t82 -44t79 -44t66 -19.5q35 0 61.5 23.5t39.5 89.5h18q-24 -193 -143 -193z" />
<glyph horiz-adv-x="966" d="M287 391l-76 -219q-16 -43 -22.5 -69.5t0 -41t27 -20.5t56.5 -8l62 -4l4 -29h-348l6 29l57 4q27 2 43.5 9t30.5 28.5t30.5 63.5t43.5 114l221 618l-12 41q20 6 47.5 26.5t38.5 37.5h14l289 -836q10 -31 19 -50t18.5 -30.5t22.5 -15.5t34 -6l72 -4l4 -29h-406l4 29l80 4 q31 2 45.5 18.5t3.5 50.5l-96 289h-313zM588 426l-137 412h-7l-145 -412h289zM676 1096q-43 0 -64.5 27.5t-21.5 54.5q0 29 21.5 59.5t64.5 30.5q41 0 61.5 -31t20.5 -59q0 -27 -20.5 -54.5t-61.5 -27.5zM295 1096q-43 0 -63.5 27.5t-20.5 54.5q0 29 20.5 59.5t63.5 30.5 q41 0 62.5 -31t21.5 -59q0 -27 -21.5 -54.5t-62.5 -27.5z" />
<glyph horiz-adv-x="966" d="M287 391l-76 -219q-16 -43 -22.5 -69.5t0 -41t27 -20.5t56.5 -8l62 -4l4 -29h-348l6 29l57 4q27 2 43.5 9t30.5 28.5t30.5 63.5t43.5 114l245 684q-68 14 -104.5 64.5t-36.5 115.5q0 74 48 129t134 55t134.5 -55t48.5 -129q0 -66 -39 -117t-107 -63l275 -797 q10 -31 19 -50t18.5 -30.5t22.5 -15.5t34 -6l72 -4l4 -29h-406l4 29l80 4q31 2 45.5 18.5t3.5 50.5l-96 289h-313zM487 956q70 0 110 46.5t40 109.5q0 61 -40 108.5t-110 47.5q-72 0 -111.5 -47t-39.5 -109q0 -63 39.5 -109.5t111.5 -46.5zM588 426l-137 412h-7l-145 -412 h289z" />
<glyph horiz-adv-x="966" d="M549 1647h139l-362 -377h-19zM287 391l-76 -219q-16 -43 -22.5 -69.5t0 -41t27 -20.5t56.5 -8l62 -4l4 -29h-348l6 29l57 4q27 2 43.5 9t30.5 28.5t30.5 63.5t43.5 114l245 684q-68 14 -104.5 64.5t-36.5 115.5q0 74 48 129t134 55t134.5 -55t48.5 -129q0 -66 -39 -117 t-107 -63l275 -797q10 -31 19 -50t18.5 -30.5t22.5 -15.5t34 -6l72 -4l4 -29h-406l4 29l80 4q31 2 45.5 18.5t3.5 50.5l-96 289h-313zM487 956q70 0 110 46.5t40 109.5q0 61 -40 108.5t-110 47.5q-72 0 -111.5 -47t-39.5 -109q0 -63 39.5 -109.5t111.5 -46.5zM588 426 l-137 412h-7l-145 -412h289z" />
<glyph horiz-adv-x="966" d="M287 391l-76 -219q-16 -43 -22.5 -69.5t0 -41t27 -20.5t56.5 -8l62 -4l4 -29h-348l6 29l57 4q27 2 43.5 9t30.5 28.5t30.5 63.5t43.5 114l221 618l-12 41q20 6 47.5 26.5t38.5 37.5h14l289 -836q10 -31 19 -50t18.5 -30.5t22.5 -15.5t34 -6l72 -4l4 -29h-406l4 29l80 4 q31 2 45.5 18.5t3.5 50.5l-96 289h-313zM588 426l-137 412h-7l-145 -412h289zM240 1135h501l-8 -58h-506z" />
<glyph horiz-adv-x="966" d="M287 391l-76 -219q-16 -43 -22.5 -69.5t0 -41t27 -20.5t56.5 -8l62 -4l4 -29h-348l6 29l57 4q27 2 43.5 9t30.5 28.5t30.5 63.5t43.5 114l221 618l-12 41q20 6 47.5 26.5t38.5 37.5h14l289 -836q10 -31 19 -50t18.5 -30.5t22.5 -15.5t34 -6l72 -4l4 -29h-406l4 29l80 4 q31 2 45.5 18.5t3.5 50.5l-96 289h-313zM588 426l-137 412h-7l-145 -412h289zM483 1008q-61 0 -102 29.5t-68.5 74.5t-44 100.5t-28.5 108.5h16q41 -111 96.5 -173.5t132.5 -62.5q78 0 133.5 62.5t96.5 173.5h20q-14 -53 -31.5 -108.5t-45 -100.5t-70 -74.5t-105.5 -29.5z " />
<glyph horiz-adv-x="966" d="M801 -430q-61 0 -105.5 39t-44.5 112q0 45 20.5 86t53.5 78t71 66t74 49h-307l4 29l80 4q31 2 45.5 18.5t3.5 50.5l-98 289h-311l-37 -110q-16 -49 -39 -109q-16 -43 -22.5 -69.5t0 -41t27 -20.5t56.5 -8l62 -4l4 -29h-348l6 29l57 4q27 2 43.5 9t30.5 28.5t30.5 63.5 t43.5 114l221 618l-12 41q20 6 51 26.5t41 37.5h8l289 -836q10 -31 19 -50t18.5 -30.5t22.5 -15.5t34 -6l72 -4l4 -29q-104 -23 -166 -94.5t-62 -157.5q0 -53 26 -85t75 -32q47 0 72.5 22.5t41.5 51.5l13 -10q-23 -45 -60.5 -85t-107.5 -40zM586 426l-135 412h-7 q-39 -117 -71 -207l-74 -205h287z" />
<glyph horiz-adv-x="1323" d="M326 391l-117 -201q-51 -86 -53 -119.5t63 -37.5l76 -6l6 -27h-362l6 29l78 6q16 2 30.5 9t31.5 25.5t38.5 50.5t52.5 85l393 674q4 8 5 15t-5 11t-22.5 8.5t-44.5 6.5l-88 4l-4 28h782l20 -268h-24l-14 64q-18 45 -35 78.5t-44.5 55t-71.5 32t-118 10.5h-164v-414l121 2 q51 0 80 4t46.5 13.5t25.5 27.5t18 47l15 45l20 -2l-29 -307h-22l-4 45q-2 31 -6.5 49.5t-19.5 27.5t-46 13t-86 4l-113 2v-446l172 -4q84 0 135.5 15t83 40t50 59.5t37.5 75.5l20 60h27l-54 -281h-741l6 29l98 8q53 6 54 20v334h-303zM629 426v481h-4l-279 -481h283z" />
<glyph horiz-adv-x="1323" d="M971 1393h139l-362 -377h-19zM326 391l-117 -201q-51 -86 -53 -119.5t63 -37.5l76 -6l6 -27h-362l6 29l78 6q16 2 30.5 9t31.5 25.5t38.5 50.5t52.5 85l393 674q4 8 5 15t-5 11t-22.5 8.5t-44.5 6.5l-88 4l-4 28h782l20 -268h-24l-14 64q-18 45 -35 78.5t-44.5 55 t-71.5 32t-118 10.5h-164v-414l121 2q51 0 80 4t46.5 13.5t25.5 27.5t18 47l15 45l20 -2l-29 -307h-22l-4 45q-2 31 -6.5 49.5t-19.5 27.5t-46 13t-86 4l-113 2v-446l172 -4q84 0 135.5 15t83 40t50 59.5t37.5 75.5l20 60h27l-54 -281h-741l6 29l98 8q53 6 54 20v334h-303z M629 426v481h-4l-279 -481h283z" />
<glyph horiz-adv-x="1013" d="M563 -25q-111 2 -204 38t-161.5 99.5t-106.5 153.5t-38 199q0 111 39 205t108.5 161.5t167 105.5t214.5 38q74 0 138 -15.5t107 -35.5l91 32l10 -288h-23l-100 219q-31 23 -89.5 41t-140.5 18q-92 0 -166.5 -36t-127 -98t-80 -147t-27.5 -186q0 -104 29.5 -191t83 -149.5 t127 -97.5t164.5 -35h12l4 4h37l-2 -2q92 10 149.5 54t104.5 114l45 107h26l-49 -250l-57 -2q-39 -16 -107.5 -33.5t-140.5 -22.5l-104 -118q53 8 100 2t83 -24.5t57.5 -49.5t21.5 -72q0 -47 -28 -85t-77 -66.5t-117.5 -47t-148.5 -24.5l-6 14q143 16 223 63.5t80 117.5 q0 51 -40 78.5t-114 27.5q-41 0 -73.5 -6t-55.5 -12v18l162 184v0z" />
<glyph horiz-adv-x="1013" d="M690 1393h139l-362 -377h-18zM571 -25q-113 0 -208 35t-163.5 99.5t-107.5 154.5t-39 201t39 205t108.5 161.5t167 105.5t214.5 38q74 0 138 -15.5t107 -35.5l91 32l10 -288h-23l-100 219q-31 23 -89.5 41t-140.5 18q-92 0 -166.5 -36t-127 -98t-80 -147t-27.5 -186 q0 -104 29.5 -191t83 -149.5t127 -97.5t164.5 -35q115 0 183 46t122 124l45 107h26l-49 -250l-57 -2q-43 -18 -122 -37t-155 -19z" />
<glyph horiz-adv-x="1013" d="M559 1380h19l251 -381h-20l-238 258h-4l-239 -258h-21zM571 -25q-113 0 -208 35t-163.5 99.5t-107.5 154.5t-39 201t39 205t108.5 161.5t167 105.5t214.5 38q74 0 138 -15.5t107 -35.5l91 32l10 -288h-23l-100 219q-31 23 -89.5 41t-140.5 18q-92 0 -166.5 -36t-127 -98 t-80 -147t-27.5 -186q0 -104 29.5 -191t83 -149.5t127 -97.5t164.5 -35q115 0 183 46t122 124l45 107h26l-49 -250l-57 -2q-43 -18 -122 -37t-155 -19z" />
<glyph horiz-adv-x="1013" d="M571 -25q-113 0 -208 35t-163.5 99.5t-107.5 154.5t-39 201t39 205t108.5 161.5t167 105.5t214.5 38q74 0 138 -15.5t107 -35.5l91 32l10 -288h-23l-100 219q-31 23 -89.5 41t-140.5 18q-92 0 -166.5 -36t-127 -98t-80 -147t-27.5 -186q0 -104 29.5 -191t83 -149.5 t127 -97.5t164.5 -35q115 0 183 46t122 124l45 107h26l-49 -250l-57 -2q-43 -18 -122 -37t-155 -19zM580 1083q-43 0 -64.5 30t-21.5 58q0 29 21.5 60t64.5 31q45 0 66.5 -31t21.5 -60t-21.5 -58.5t-66.5 -29.5z" />
<glyph horiz-adv-x="1013" d="M313 1409h21l239 -260h5l237 260h21l-252 -381h-19zM571 -25q-113 0 -208 35t-163.5 99.5t-107.5 154.5t-39 201t39 205t108.5 161.5t167 105.5t214.5 38q74 0 138 -15.5t107 -35.5l91 32l10 -288h-23l-100 219q-31 23 -89.5 41t-140.5 18q-92 0 -166.5 -36t-127 -98 t-80 -147t-27.5 -186q0 -104 29.5 -191t83 -149.5t127 -97.5t164.5 -35q115 0 183 46t122 124l45 107h26l-49 -250l-57 -2q-43 -18 -122 -37t-155 -19z" />
<glyph horiz-adv-x="997" d="M45 29l82 6q55 8 55 20v846q0 8 -10 11t-55 8l-72 6l-4 26l369 4q131 0 233 -32.5t172 -94t105.5 -146.5t35.5 -189t-37.5 -194.5t-111.5 -157t-181.5 -104.5t-246.5 -38h-340zM418 33q102 2 181 37.5t131 94t79 135.5t27 161q0 98 -28 183t-83 147.5t-140 97.5t-198 35 h-92v-871zM186 1438h21l239 -260h5l237 260h21l-252 -381h-19z" />
<glyph horiz-adv-x="1024" d="M49 463l4 37h135v401q0 10 -65 19l-78 6l-4 26l375 4q131 2 233.5 -31.5t172 -95t105.5 -146.5t36 -189t-38 -194.5t-112 -157t-181.5 -104.5t-246.5 -38h-346l6 29l88 6q55 8 55 20v408h-139zM535 500l4 -37h-238v-410l123 -20q102 2 181 37.5t131 94t79 135.5t27 161 q0 98 -28 183t-83 147.5t-140 97.5t-198 35h-92v-424h234z" />
<glyph horiz-adv-x="1024" d="M49 463l4 37h135v401q0 10 -65 19l-78 6l-4 26l375 4q131 2 233.5 -31.5t172 -95t105.5 -146.5t36 -189t-38 -194.5t-112 -157t-181.5 -104.5t-246.5 -38h-346l6 29l88 6q55 8 55 20v408h-139zM535 500l4 -37h-238v-410l123 -20q102 2 181 37.5t131 94t79 135.5t27 161 q0 98 -28 183t-83 147.5t-140 97.5t-198 35h-92v-424h234z" />
<glyph horiz-adv-x="907" d="M41 29l86 6q55 8 55 20v846q0 8 -10 11t-55 8l-74 6l-4 26h735l21 -268h-25l-16 64q-16 45 -35 78.5t-47.5 55t-74.5 32t-118 10.5h-184v-414l139 2q51 0 82 4t49.5 13.5t28.5 27.5t18 47l17 45l20 -2l-28 -307l-23 2l-6 43q-2 31 -7 49.5t-22.5 27.5t-49.5 13t-87 4 l-131 2v-446l192 -4q84 0 136.5 15t86 40t53 59.5t38.5 75.5l18 60h29l-53 -281h-758zM137 1436h139l242 -377h-16z" />
<glyph horiz-adv-x="907" d="M41 29l86 6q55 8 55 20v846q0 8 -10 11t-55 8l-74 6l-4 26h735l21 -268h-25l-16 64q-16 45 -35 78.5t-47.5 55t-74.5 32t-118 10.5h-184v-414l139 2q51 0 82 4t49.5 13.5t28.5 27.5t18 47l17 45l20 -2l-28 -307l-23 2l-6 43q-2 31 -7 49.5t-22.5 27.5t-49.5 13t-87 4 l-131 2v-446l192 -4q84 0 136.5 15t86 40t53 59.5t38.5 75.5l18 60h29l-53 -281h-758zM643 1436h139l-362 -377h-19z" />
<glyph horiz-adv-x="907" d="M41 29l86 6q55 8 55 20v846q0 8 -10 11t-55 8l-74 6l-4 26h735l21 -268h-25l-16 64q-16 45 -35 78.5t-47.5 55t-74.5 32t-118 10.5h-184v-414l139 2q51 0 82 4t49.5 13.5t28.5 27.5t18 47l17 45l20 -2l-28 -307l-23 2l-6 43q-2 31 -7 49.5t-22.5 27.5t-49.5 13t-87 4 l-131 2v-446l192 -4q84 0 136.5 15t86 40t53 59.5t38.5 75.5l18 60h29l-53 -281h-758zM432 1423h19l251 -381h-20l-238 258h-4l-239 -258h-21z" />
<glyph horiz-adv-x="907" d="M41 29l86 6q55 8 55 20v846q0 8 -10 11t-55 8l-74 6l-4 26h735l21 -268h-25l-16 64q-16 45 -35 78.5t-47.5 55t-74.5 32t-118 10.5h-184v-414l139 2q51 0 82 4t49.5 13.5t28.5 27.5t18 47l17 45l20 -2l-28 -307l-23 2l-6 43q-2 31 -7 49.5t-22.5 27.5t-49.5 13t-87 4 l-131 2v-446l192 -4q84 0 136.5 15t86 40t53 59.5t38.5 75.5l18 60h29l-53 -281h-758zM627 1096q-43 0 -64.5 27.5t-21.5 54.5q0 29 21.5 59.5t64.5 30.5q41 0 61.5 -31t20.5 -59q0 -27 -20.5 -54.5t-61.5 -27.5zM246 1096q-43 0 -63.5 27.5t-20.5 54.5q0 29 20.5 59.5 t63.5 30.5q41 0 62.5 -31t21.5 -59q0 -27 -21.5 -54.5t-62.5 -27.5z" />
<glyph horiz-adv-x="907" d="M41 29l86 6q55 8 55 20v846q0 8 -10 11t-55 8l-74 6l-4 26h735l21 -268h-25l-16 64q-16 45 -35 78.5t-47.5 55t-74.5 32t-118 10.5h-184v-414l139 2q51 0 82 4t49.5 13.5t28.5 27.5t18 47l17 45l20 -2l-28 -307l-23 2l-6 43q-2 31 -7 49.5t-22.5 27.5t-49.5 13t-87 4 l-131 2v-446l192 -4q84 0 136.5 15t86 40t53 59.5t38.5 75.5l18 60h29l-53 -281h-758zM197 1135h501l-8 -58h-506z" />
<glyph horiz-adv-x="907" d="M41 29l86 6q55 8 55 20v846q0 8 -10 11t-55 8l-74 6l-4 26h735l21 -268h-25l-16 64q-16 45 -35 78.5t-47.5 55t-74.5 32t-118 10.5h-184v-414l139 2q51 0 82 4t49.5 13.5t28.5 27.5t18 47l17 45l20 -2l-28 -307l-23 2l-6 43q-2 31 -7 49.5t-22.5 27.5t-49.5 13t-87 4 l-131 2v-446l192 -4q84 0 136.5 15t86 40t53 59.5t38.5 75.5l18 60h29l-53 -281h-758zM442 1016q-61 0 -102 29.5t-68.5 74.5t-44 100.5t-28.5 108.5h16q41 -111 96.5 -173t132.5 -62q78 0 133.5 62.5t96.5 172.5h20q-14 -53 -31.5 -108.5t-45 -100.5t-70 -74.5 t-105.5 -29.5z" />
<glyph horiz-adv-x="907" d="M41 29l86 6q55 8 55 20v846q0 8 -10 11t-55 8l-74 6l-4 26h735l21 -268h-25l-16 64q-16 45 -35 78.5t-47.5 55t-74.5 32t-118 10.5h-184v-414l139 2q51 0 82 4t49.5 13.5t28.5 27.5t18 47l17 45l20 -2l-28 -307l-23 2l-6 43q-2 31 -7 49.5t-22.5 27.5t-49.5 13t-87 4 l-131 2v-446l192 -4q84 0 136.5 15t86 40t53 59.5t38.5 75.5l18 60h29l-53 -281h-758zM444 1083q-43 0 -64.5 30t-21.5 58q0 29 21.5 60t64.5 31q45 0 66.5 -31t21.5 -60t-21.5 -58.5t-66.5 -29.5z" />
<glyph horiz-adv-x="907" d="M627 -430q-63 0 -106.5 40t-43.5 116q0 43 18.5 81.5t48 74.5t66.5 65.5t72 52.5h-645l4 29l86 6q55 8 55 20v846q0 8 -10 11t-55 8l-74 6l-4 26h735l21 -268h-25l-16 64q-16 45 -35 78.5t-47.5 55t-74.5 32t-118 10.5h-184v-414l139 2q51 0 82 4t49.5 13.5t28.5 27.5 t18 47l17 45l20 -2l-28 -307l-23 2l-6 43q-2 31 -7 49.5t-22.5 27.5t-49.5 13t-87 4l-131 2v-446l192 -4q84 0 136.5 15t86 40t53 59.5t38.5 75.5l18 60h29l-53 -281h-74q-78 -53 -116 -117.5t-38 -130.5q0 -55 27 -88t74 -33t72.5 22.5t41.5 51.5l13 -10q-23 -45 -60.5 -85 t-107.5 -40z" />
<glyph horiz-adv-x="907" d="M174 1395h21l239 -260h4l238 260h20l-252 -381h-18zM41 29l86 6q55 8 55 20v846q0 8 -10 11t-55 8l-74 6l-4 26h735l21 -268h-25l-16 64q-16 45 -35 78.5t-47.5 55t-74.5 32t-118 10.5h-184v-414l139 2q51 0 82 4t49.5 13.5t28.5 27.5t18 47l17 45l20 -2l-28 -307l-23 2 l-6 43q-2 31 -7 49.5t-22.5 27.5t-49.5 13t-87 4l-131 2v-446l192 -4q84 0 136.5 15t86 40t53 59.5t38.5 75.5l18 60h29l-53 -281h-758z" />
<glyph horiz-adv-x="1056" d="M565 1395h19l252 -381h-21l-237 258h-5l-239 -258h-21zM569 -27q-111 0 -206 35t-163.5 99.5t-107.5 153.5t-39 200t39 206t108.5 163.5t167 107.5t214.5 39q74 0 137 -15.5t106 -37.5l86 32l7 -286h-27l-88 217q-31 23 -88.5 40t-141.5 17q-90 0 -163.5 -36t-126 -99.5 t-81 -148.5t-28.5 -185q0 -104 31 -190t85 -148.5t129 -96.5t163 -34q61 0 118.5 13.5t92.5 33.5v312q0 8 -13.5 10t-56.5 6l-92 8l-4 27h413l-4 -27l-82 -8q-31 -4 -43 -9t-12 -14v-284l88 8l4 -21q-43 -16 -97 -31.5t-110.5 -27.5t-112 -20.5t-102.5 -8.5z" />
<glyph horiz-adv-x="1056" d="M569 -27q-111 0 -206 35t-163.5 99.5t-107.5 153.5t-39 200t39 206t108.5 163.5t167 107.5t214.5 39q74 0 137 -15.5t106 -37.5l86 32l7 -286h-27l-88 217q-31 23 -88.5 40t-141.5 17q-90 0 -163.5 -36t-126 -99.5t-81 -148.5t-28.5 -185q0 -104 31 -190t85 -148.5 t129 -96.5t163 -34q61 0 118.5 13.5t92.5 33.5v312q0 8 -13.5 10t-56.5 6l-92 8l-4 27h413l-4 -27l-82 -8q-31 -4 -43 -9t-12 -14v-284l88 8l4 -21q-43 -16 -97 -31.5t-110.5 -27.5t-112 -20.5t-102.5 -8.5zM559 1022q-61 0 -102 29.5t-69 74.5t-44 100.5t-29 108.5h17 q41 -111 96 -173t133 -62t133.5 62.5t96.5 172.5h20q-14 -53 -31.5 -108.5t-45 -100.5t-70 -74.5t-105.5 -29.5z" />
<glyph horiz-adv-x="1056" d="M569 -27q-111 0 -206 35t-163.5 99.5t-107.5 153.5t-39 200t39 206t108.5 163.5t167 107.5t214.5 39q74 0 137 -15.5t106 -37.5l86 32l7 -286h-27l-88 217q-31 23 -88.5 40t-141.5 17q-90 0 -163.5 -36t-126 -99.5t-81 -148.5t-28.5 -185q0 -104 31 -190t85 -148.5 t129 -96.5t163 -34q61 0 118.5 13.5t92.5 33.5v312q0 8 -13.5 10t-56.5 6l-92 8l-4 27h413l-4 -27l-82 -8q-31 -4 -43 -9t-12 -14v-284l88 8l4 -21q-43 -16 -97 -31.5t-110.5 -27.5t-112 -20.5t-102.5 -8.5zM569 1083q-43 0 -64.5 30t-21.5 58q0 29 21.5 60t64.5 31 q45 0 66.5 -31t21.5 -60t-21.5 -58.5t-66.5 -29.5z" />
<glyph horiz-adv-x="1056" d="M471 -522q23 12 48.5 29.5t46 41t33.5 55t13 72.5q0 31 -13 52.5t-31.5 33t-40 12.5t-40.5 -7q-16 37 7.5 72.5t76.5 35.5t90 -41t37 -106q0 -43 -17 -83t-47 -75t-69 -62.5t-82 -44.5zM569 -27q-111 0 -206 35t-163.5 99.5t-107.5 153.5t-39 200t39 206t108.5 163.5 t167 107.5t214.5 39q74 0 137 -15.5t106 -37.5l86 32l7 -286h-27l-88 217q-31 23 -88.5 40t-141.5 17q-90 0 -163.5 -36t-126 -99.5t-81 -148.5t-28.5 -185q0 -104 31 -190t85 -148.5t129 -96.5t163 -34q61 0 118.5 13.5t92.5 33.5v312q0 8 -13.5 10t-56.5 6l-92 8l-4 27 h413l-4 -27l-82 -8q-31 -4 -43 -9t-12 -14v-284l88 8l4 -21q-43 -16 -97 -31.5t-110.5 -27.5t-112 -20.5t-102.5 -8.5z" />
<glyph horiz-adv-x="1107" d="M543 1403h18l252 -381h-20l-238 258h-4l-240 -258h-20zM45 29l82 6q55 8 55 20v846q0 8 -10 11t-55 8l-72 6l-4 26h399l-4 -26l-88 -8q-53 -6 -53 -21v-389h518v393q0 8 -10 11t-53 8l-76 6l-6 26h401l-4 -26l-84 -8q-55 -6 -55 -21v-844q0 -8 11 -11t54 -7l72 -6l4 -29 h-399l4 29l88 6q31 4 42 9t11 11v416h-518v-418q0 -8 10 -11t53 -7l76 -6l6 -29h-401z" />
<glyph horiz-adv-x="1107" d="M35 743h147v158q0 8 -10 11t-55 8l-72 6l-4 26h399l-4 -26l-88 -8q-53 -6 -53 -21v-154h518v158q0 8 -10 11t-53 8l-76 6l-4 26h399l-4 -26l-84 -8q-55 -6 -55 -21v-154h157l-8 -55h-149v-635q0 -8 11 -11t54 -7l72 -6l4 -29h-399l4 29l88 6q31 4 42 9t11 11v416h-518 v-418q0 -8 10 -11t53 -7l76 -6l6 -29h-401l6 29l82 6q55 8 55 20v633h-159zM813 508v180h-518v-180h518z" />
<glyph horiz-adv-x="518" d="M55 29l95 6q53 8 53 20v846q0 8 -11.5 11t-54.5 8l-82 6l-4 26h414l-4 -26l-92 -8q-55 -6 -56 -21v-844q0 -8 11.5 -11t54.5 -7l80 -6l6 -29h-416zM-59 1436h139l242 -377h-17z" />
<glyph horiz-adv-x="518" d="M55 29l95 6q53 8 53 20v846q0 8 -11.5 11t-54.5 8l-82 6l-4 26h414l-4 -26l-92 -8q-55 -6 -56 -21v-844q0 -8 11.5 -11t54.5 -7l80 -6l6 -29h-416zM436 1436h139l-362 -377h-18z" />
<glyph horiz-adv-x="518" d="M55 29l95 6q53 8 53 20v846q0 8 -11.5 11t-54.5 8l-82 6l-4 26h414l-4 -26l-92 -8q-55 -6 -56 -21v-844q0 -8 11.5 -11t54.5 -7l80 -6l6 -29h-416zM248 1423h18l252 -381h-20l-238 258h-4l-240 -258h-20z" />
<glyph horiz-adv-x="518" d="M55 29l95 6q53 8 53 20v846q0 8 -11.5 11t-54.5 8l-82 6l-4 26h414l-4 -26l-92 -8q-55 -6 -56 -21v-844q0 -8 11.5 -11t54.5 -7l80 -6l6 -29h-416zM451 1096q-43 0 -64.5 27.5t-21.5 54.5q0 29 21.5 59.5t64.5 30.5q41 0 61 -31t20 -59q0 -27 -20 -54.5t-61 -27.5z M70 1096q-43 0 -63.5 27.5t-20.5 54.5q0 29 20.5 59.5t63.5 30.5q41 0 62.5 -31t21.5 -59q0 -27 -21.5 -54.5t-62.5 -27.5z" />
<glyph horiz-adv-x="518" d="M55 29l95 6q53 8 53 20v846q0 8 -11.5 11t-54.5 8l-82 6l-4 26h414l-4 -26l-92 -8q-55 -6 -56 -21v-844q0 -8 11.5 -11t54.5 -7l80 -6l6 -29h-416zM16 1135h502l-8 -58h-506z" />
<glyph horiz-adv-x="518" d="M55 29l95 6q53 8 53 20v846q0 8 -11.5 11t-54.5 8l-82 6l-4 26h414l-4 -26l-92 -8q-55 -6 -56 -21v-844q0 -8 11.5 -11t54.5 -7l80 -6l6 -29h-416zM262 1016q-61 0 -102 29.5t-69 74.5t-44 100.5t-29 108.5h17q41 -111 96 -173t133 -62t133.5 62.5t96.5 172.5h20 q-14 -53 -31.5 -108.5t-45 -100.5t-70 -74.5t-105.5 -29.5z" />
<glyph horiz-adv-x="518" d="M301 -430q-66 0 -111 31.5t-45 109.5q0 47 22.5 92t56.5 84t76 68t83 45h-334l6 29l95 6q53 8 53 20v846q0 8 -11.5 11t-54.5 8l-82 6l-4 26h414l-4 -26l-92 -8q-55 -6 -56 -21v-844q0 -8 11.5 -11t54.5 -7l80 -6l6 -29q-104 -39 -166.5 -104.5t-62.5 -159.5 q0 -45 22.5 -75t81.5 -30q49 0 73.5 22.5t41.5 51.5l14 -10q-25 -45 -61.5 -85t-106.5 -40z" />
<glyph horiz-adv-x="518" d="M55 29l95 6q53 8 53 20v846q0 8 -11.5 11t-54.5 8l-82 6l-4 26h414l-4 -26l-92 -8q-55 -6 -56 -21v-844q0 -8 11.5 -11t54.5 -7l80 -6l6 -29h-416zM260 1083q-43 0 -64.5 30t-21.5 58q0 29 21.5 60t64.5 31q45 0 66.5 -31t21.5 -60t-21.5 -58.5t-66.5 -29.5z" />
<glyph horiz-adv-x="518" d="M55 29l95 6q53 8 53 20v846q0 8 -11.5 11t-54.5 8l-82 6l-4 26h414l-4 -26l-92 -8q-55 -6 -56 -21v-844q0 -8 11.5 -11t54.5 -7l80 -6l6 -29h-416z" />
<glyph horiz-adv-x="493" d="M49 -188q-53 0 -87 24.5t-34 63.5q0 31 20.5 51t51.5 20q27 0 44 -12t25.5 -31.5t7.5 -42t-14 -41.5h3q68 0 105.5 69t37.5 210v778q0 8 -10.5 11t-55.5 8l-80 6l-6 26h410l-4 -26l-88 -8q-53 -6 -53 -21v-784q0 -41 -21.5 -93.5t-58.5 -98.5t-87.5 -77.5t-105.5 -31.5z M256 1380h18l252 -381h-20l-238 258h-4l-239 -258h-21z" />
<glyph horiz-adv-x="1017" d="M406 -537q23 12 48 30t45.5 41.5t34 55t13.5 72.5q0 31 -13.5 52.5t-32 32.5t-40 12t-39.5 -7q-16 37 7.5 73t76.5 36t90 -41t37 -107q0 -43 -17.5 -83t-47 -74.5t-68.5 -62.5t-82 -44zM45 29l84 6q53 8 53 20v846q0 8 -10 11t-53 8l-74 6l-4 26h403l-4 -26l-92 -8 q-53 -6 -53 -21v-481l301 301q66 68 100.5 106.5t41.5 59t-11 28t-57 9.5l-74 6l-4 26h379l-4 -26l-56 -4q-31 -4 -50 -8.5t-44.5 -25t-66.5 -61.5t-115 -118l-113 -111l318 -481q18 -29 28.5 -45.5t20.5 -24.5t21.5 -11t29.5 -3l61 -4l7 -29h-383l4 29l63 2q39 4 40 25.5 t-21 60.5l-262 407l-154 -153v-318q0 -8 10 -11t53 -7l80 -6l6 -29h-405z" />
<glyph horiz-adv-x="835" d="M403 1391h140l-363 -377h-18zM41 29l88 8q53 6 53 20v842q0 10 -10 12t-53 7l-76 6l-4 28h428l-4 -28l-115 -9q-53 -2 -53 -18v-862l141 -2q84 0 137.5 13t86 39t52 61.5t36.5 78.5l18 72l29 -2l-54 -295h-704z" />
<glyph horiz-adv-x="835" d="M309 -537q23 12 48.5 30t46 41.5t34 55t13.5 72.5q0 31 -13.5 52.5t-32 32.5t-40 12t-39.5 -7q-16 37 7 73t77 36q53 0 90 -41t37 -107q0 -43 -17.5 -83t-47.5 -74.5t-68.5 -62.5t-81.5 -44zM41 29l88 8q53 6 53 20v842q0 10 -10 12t-53 7l-76 6l-4 28h428l-4 -28 l-115 -9q-53 -2 -53 -18v-862l141 -2q84 0 137.5 13t86 39t52 61.5t36.5 78.5l18 72l29 -2l-54 -295h-704z" />
<glyph horiz-adv-x="1148" d="M864 545q25 20 52.5 41.5t51 48.5t38 60.5t14.5 76.5q0 33 -13.5 56.5t-34 36t-45 16.5t-46.5 -2q-6 14 -4 32.5t13 35t30.5 27.5t48.5 11q59 0 99 -42t40 -116q0 -47 -20.5 -91t-53.5 -83t-73.5 -70.5t-81.5 -54.5zM41 29l88 8q53 6 53 20v842q0 10 -10 12t-53 7l-76 6 l-4 28h428l-4 -28l-115 -9q-53 -2 -53 -18v-862l141 -2q84 0 137.5 13t86 39t52 61.5t36.5 78.5l18 72l29 -2l-54 -295h-704z" />
<glyph horiz-adv-x="1075" d="M989 422q-43 0 -70.5 27.5t-27.5 66.5q0 35 27.5 63.5t70.5 28.5q41 0 67.5 -28.5t26.5 -63.5q0 -39 -26.5 -66.5t-67.5 -27.5zM41 29l88 8q53 6 53 20v842q0 10 -10 12t-53 7l-76 6l-4 28h428l-4 -28l-115 -9q-53 -2 -53 -18v-862l141 -2q84 0 137.5 13t86 39t52 61.5 t36.5 78.5l18 72l29 -2l-54 -295h-704z" />
<glyph horiz-adv-x="847" d="M35 371v39l153 47v442q0 10 -10 12t-55 7l-80 6l-4 28h434l-4 -28l-115 -9q-53 -2 -53 -18v-405l174 53l2 -39l-176 -53v-418l141 -2q84 0 137.5 13t86 39t52 61.5t36.5 78.5l18 72l29 -2l-53 -295h-711l4 29l92 8q55 6 55 20v361z" />
<glyph horiz-adv-x="1091" d="M240 854h-4v-784q0 -14 19 -23.5t71 -13.5l65 -4l4 -29h-344l4 29l68 4q35 2 56.5 11t21.5 28l2 796q-10 16 -34 31.5t-69 20.5l-59 6l-4 26h264l584 -780h4v711q0 16 -18.5 24t-71.5 13l-64 6l-6 26h346l-6 -26l-65 -6q-35 -2 -56.5 -11.5t-21.5 -27.5l-4 -889h-33z M713 1075q-37 0 -78 19.5t-82 44t-79 44t-66 19.5q-37 0 -64 -20.5t-41 -91.5h-18q25 193 147 192q37 0 78 -19.5t82 -44t79 -44t66 -19.5q35 0 61.5 23.5t39.5 89.5h18q-24 -193 -143 -193z" />
<glyph horiz-adv-x="1091" d="M748 1393h139l-363 -377h-18zM240 854h-4v-784q0 -14 19 -23.5t71 -13.5l65 -4l4 -29h-344l4 29l68 4q35 2 56.5 11t21.5 28l2 796q-10 16 -34 31.5t-69 20.5l-59 6l-4 26h264l584 -780h4v711q0 16 -18.5 24t-71.5 13l-64 6l-6 26h346l-6 -26l-65 -6q-35 -2 -56.5 -11.5 t-21.5 -27.5l-4 -889h-33z" />
<glyph horiz-adv-x="1091" d="M449 -522q23 12 48 29.5t45.5 41t34 55t13.5 72.5q0 31 -13.5 52.5t-32 33t-40 12.5t-39.5 -7q-16 37 7.5 72.5t76.5 35.5t90 -41t37 -106q0 -43 -17.5 -83t-47 -75t-68.5 -62.5t-82 -44.5zM240 854h-4v-784q0 -14 19 -23.5t71 -13.5l65 -4l4 -29h-344l4 29l68 4 q35 2 56.5 11t21.5 28l2 796q-10 16 -34 31.5t-69 20.5l-59 6l-4 26h264l584 -780h4v711q0 16 -18.5 24t-71.5 13l-64 6l-6 26h346l-6 -26l-65 -6q-35 -2 -56.5 -11.5t-21.5 -27.5l-4 -889h-33z" />
<glyph horiz-adv-x="1091" d="M326 1380h20l240 -260h4l237 260h21l-252 -381h-18zM240 854h-4v-784q0 -14 19 -23.5t71 -13.5l65 -4l4 -29h-344l4 29l68 4q35 2 56.5 11t21.5 28l2 796q-10 16 -34 31.5t-69 20.5l-59 6l-4 26h264l584 -780h4v711q0 16 -18.5 24t-71.5 13l-64 6l-6 26h346l-6 -26 l-65 -6q-35 -2 -56.5 -11.5t-21.5 -27.5l-4 -889h-33z" />
<glyph horiz-adv-x="1101" d="M549 -25q-106 0 -196.5 36t-157 102.5t-104.5 157.5t-38 202q0 100 40 190.5t107.5 160t158 110.5t192.5 41q106 0 197.5 -36t158 -102.5t104.5 -158.5t38 -203q0 -100 -40 -190t-107.5 -159t-159 -110t-193.5 -41zM553 6q82 0 150.5 33t117.5 92t77 145t28 195 q0 106 -30 193.5t-80 150t-119.5 97t-149.5 34.5q-82 0 -149.5 -32.5t-117 -93t-77 -147.5t-27.5 -196q0 -106 28.5 -193t80 -148.5t120 -95.5t148.5 -34zM219 1436h139l242 -377h-16z" />
</font>
</defs>
</svg>
